ply
format ascii 1.0
commentY29udmVydGVyIGJ5IENvZGVMZW9wYXJk
comment Original mesh name: 'C:\Program Files (x86)\Steam\steamapps\common\Stormworks\rom\meshes\component_winch_b.mesh'
comment SubMesh index: 0
comment SubMesh name: 'ID16'
comment Shader: Opaque (0)
element vertex 128
property float x
property float y
property float z
property float nx
property float ny
property float nz
property uchar red
property uchar green
property uchar blue
property uchar alpha
element face 66
property list uchar ushort vertex_index
end_header
-0.125 0.099999994 -0.125 1 -0 -0 255 125 0 255
-0.125 0.125 0.125 1 -0 -0 255 125 0 255
-0.125 0.099999994 0.125 1 -0 -0 255 125 0 255
-0.125 0.125 -0.125 1 -0 -0 255 125 0 255
-0.125 0.099999994 0.125 0 1.7325869E-13 -1 255 125 0 255
0.125 0.125 0.125 0 1.7325869E-13 -1 255 125 0 255
0.125 0.099999994 0.125 0 1.7325869E-13 -1 255 125 0 255
-0.125 0.125 0.125 0 1.7325869E-13 -1 255 125 0 255
-0.125 0.125 -0.125 0 -1.155058E-13 1 255 125 0 255
0.125 0.099999994 -0.125 0 -1.155058E-13 1 255 125 0 255
0.125 0.125 -0.125 0 -1.155058E-13 1 255 125 0 255
-0.125 0.099999994 -0.125 0 -1.155058E-13 1 255 125 0 255
0.125 0.125 0.125 -1 -0 -0 255 125 0 255
0.125 0.099999994 -0.125 -1 -0 -0 255 125 0 255
0.125 0.099999994 0.125 -1 -0 -0 255 125 0 255
0.125 0.125 -0.125 -1 -0 -0 255 125 0 255
-0.031499986 -0.074999996 -0.0875 2.173038E-17 0.6585046 0.7525767 86 86 86 255
0.015749998 -0.125 -0.04375 2.173038E-17 0.6585046 0.7525767 86 86 86 255
0.031499986 -0.074999996 -0.0875 2.173038E-17 0.6585046 0.7525767 86 86 86 255
-0.015749998 -0.125 -0.04375 2.173038E-17 0.6585046 0.7525767 86 86 86 255
-0.0875 -0.074999996 -0.031499986 0.5410466 0.6438455 0.5410466 86 86 86 255
-0.015749998 -0.125 -0.04375 0.5410466 0.6438455 0.5410466 86 86 86 255
-0.031499986 -0.074999996 -0.0875 0.5410466 0.6438455 0.5410466 86 86 86 255
-0.04375 -0.125 -0.015749998 0.5410466 0.6438455 0.5410466 86 86 86 255
-0.04375 -0.125 -0.015749998 1.213105E-29 1 5.025041E-14 86 86 86 255
0.015749998 -0.125 -0.04375 1.213105E-29 1 5.025041E-14 86 86 86 255
-0.015749998 -0.125 -0.04375 1.213105E-29 1 5.025041E-14 86 86 86 255
0.04375 -0.125 -0.015749998 1.213105E-29 1 5.025041E-14 86 86 86 255
-0.04375 -0.125 0.015749998 1.213105E-29 1 5.025041E-14 86 86 86 255
0.04375 -0.125 0.015749998 1.213105E-29 1 5.025041E-14 86 86 86 255
-0.015749998 -0.125 0.04375 1.213105E-29 1 5.025041E-14 86 86 86 255
0.015749998 -0.125 0.04375 1.213105E-29 1 5.025041E-14 86 86 86 255
0.015749998 -0.125 -0.04375 -0.5410466 0.6438455 0.5410466 86 86 86 255
0.0875 -0.074999996 -0.031499986 -0.5410466 0.6438455 0.5410466 86 86 86 255
0.031499986 -0.074999996 -0.0875 -0.5410466 0.6438455 0.5410466 86 86 86 255
0.04375 -0.125 -0.015749998 -0.5410466 0.6438455 0.5410466 86 86 86 255
-0.031499986 0.024999999 -0.0875 0 4.331469E-14 1 86 86 86 255
0.031499986 -0.074999996 -0.0875 0 4.331469E-14 1 86 86 86 255
0.031499986 0.024999999 -0.0875 0 4.331469E-14 1 86 86 86 255
-0.031499986 -0.074999996 -0.0875 0 4.331469E-14 1 86 86 86 255
-0.031499986 0.024999999 -0.0875 0.70710677 2.5526605E-14 0.70710677 86 86 86 255
-0.0875 -0.074999996 -0.031499986 0.70710677 2.5526605E-14 0.70710677 86 86 86 255
-0.031499986 -0.074999996 -0.0875 0.70710677 2.5526605E-14 0.70710677 86 86 86 255
-0.0875 0.024999999 -0.031499986 0.70710677 2.5526605E-14 0.70710677 86 86 86 255
-0.04375 -0.125 -0.015749998 0.7525767 0.6585046 7.244365E-14 86 86 86 255
-0.0875 -0.074999996 0.031499986 0.7525767 0.6585046 7.244365E-14 86 86 86 255
-0.04375 -0.125 0.015749998 0.7525767 0.6585046 7.244365E-14 86 86 86 255
-0.0875 -0.074999996 -0.031499986 0.7525767 0.6585046 7.244365E-14 86 86 86 255
0.015749998 -0.125 0.04375 -2.173038E-17 0.6585046 -0.7525767 86 86 86 255
-0.031499986 -0.074999996 0.0875 -2.173038E-17 0.6585046 -0.7525767 86 86 86 255
0.031499986 -0.074999996 0.0875 -2.173038E-17 0.6585046 -0.7525767 86 86 86 255
-0.015749998 -0.125 0.04375 -2.173038E-17 0.6585046 -0.7525767 86 86 86 255
0.015749998 -0.125 0.04375 -0.5410466 0.6438455 -0.5410466 86 86 86 255
0.0875 -0.074999996 0.031499986 -0.5410466 0.6438455 -0.5410466 86 86 86 255
0.04375 -0.125 0.015749998 -0.5410466 0.6438455 -0.5410466 86 86 86 255
0.031499986 -0.074999996 0.0875 -0.5410466 0.6438455 -0.5410466 86 86 86 255
0.0875 -0.074999996 0.031499986 -0.7525767 0.6585046 7.244365E-14 86 86 86 255
0.04375 -0.125 -0.015749998 -0.7525767 0.6585046 7.244365E-14 86 86 86 255
0.04375 -0.125 0.015749998 -0.7525767 0.6585046 7.244365E-14 86 86 86 255
0.0875 -0.074999996 -0.031499986 -0.7525767 0.6585046 7.244365E-14 86 86 86 255
-0.0875 -0.074999996 0.031499986 0.5410466 0.6438455 -0.5410466 86 86 86 255
-0.015749998 -0.125 0.04375 0.5410466 0.6438455 -0.5410466 86 86 86 255
-0.04375 -0.125 0.015749998 0.5410466 0.6438455 -0.5410466 86 86 86 255
-0.031499986 -0.074999996 0.0875 0.5410466 0.6438455 -0.5410466 86 86 86 255
0.0875 0.024999999 -0.031499986 -0.70710677 2.5526605E-14 0.70710677 86 86 86 255
0.031499986 -0.074999996 -0.0875 -0.70710677 2.5526605E-14 0.70710677 86 86 86 255
0.0875 -0.074999996 -0.031499986 -0.70710677 2.5526605E-14 0.70710677 86 86 86 255
0.031499986 0.024999999 -0.0875 -0.70710677 2.5526605E-14 0.70710677 86 86 86 255
-0.125 0.099999994 -0.125 -2.565034E-27 0.4472136 0.8944272 86 86 86 255
0.031499986 0.024999999 -0.0875 -2.565034E-27 0.4472136 0.8944272 86 86 86 255
0.125 0.099999994 -0.125 -2.565034E-27 0.4472136 0.8944272 86 86 86 255
-0.031499986 0.024999999 -0.0875 -2.565034E-27 0.4472136 0.8944272 86 86 86 255
-0.0875 -0.074999996 -0.031499986 9.241367E-30 1 1.051753E-14 86 86 86 255
0.031499986 -0.074999996 -0.0875 9.241367E-30 1 1.051753E-14 86 86 86 255
-0.031499986 -0.074999996 -0.0875 9.241367E-30 1 1.051753E-14 86 86 86 255
0.0875 -0.074999996 -0.031499986 9.241367E-30 1 1.051753E-14 86 86 86 255
-0.0875 -0.074999996 0.031499986 9.241367E-30 1 1.051753E-14 86 86 86 255
0.0875 -0.074999996 0.031499986 9.241367E-30 1 1.051753E-14 86 86 86 255
-0.031499986 -0.074999996 0.0875 9.241367E-30 1 1.051753E-14 86 86 86 255
0.031499986 -0.074999996 0.0875 9.241367E-30 1 1.051753E-14 86 86 86 255
-0.0875 0.024999999 -0.031499986 0.44495693 0.77719146 0.44495693 86 86 86 255
-0.031499986 0.024999999 -0.0875 0.44495693 0.77719146 0.44495693 86 86 86 255
-0.125 0.099999994 -0.125 0.44495693 0.77719146 0.44495693 86 86 86 255
-0.0875 -0.074999996 -0.031499986 1 -0 -0 86 86 86 255
-0.0875 0.024999999 0.031499986 1 -0 -0 86 86 86 255
-0.0875 -0.074999996 0.031499986 1 -0 -0 86 86 86 255
-0.0875 0.024999999 -0.031499986 1 -0 -0 86 86 86 255
-0.031499986 -0.074999996 0.0875 0 1.4438229E-14 -1 86 86 86 255
0.031499986 0.024999999 0.0875 0 1.4438229E-14 -1 86 86 86 255
0.031499986 -0.074999996 0.0875 0 1.4438229E-14 -1 86 86 86 255
-0.031499986 0.024999999 0.0875 0 1.4438229E-14 -1 86 86 86 255
0.031499986 -0.074999996 0.0875 -0.70710677 3.5716998E-14 -0.70710677 86 86 86 255
0.0875 0.024999999 0.031499986 -0.70710677 3.5716998E-14 -0.70710677 86 86 86 255
0.0875 -0.074999996 0.031499986 -0.70710677 3.5716998E-14 -0.70710677 86 86 86 255
0.031499986 0.024999999 0.0875 -0.70710677 3.5716998E-14 -0.70710677 86 86 86 255
0.0875 0.024999999 0.031499986 -1 -0 -0 86 86 86 255
0.0875 -0.074999996 -0.031499986 -1 -0 -0 86 86 86 255
0.0875 -0.074999996 0.031499986 -1 -0 -0 86 86 86 255
0.0875 0.024999999 -0.031499986 -1 -0 -0 86 86 86 255
-0.0875 -0.074999996 0.031499986 0.70710677 3.5716998E-14 -0.70710677 86 86 86 255
-0.031499986 0.024999999 0.0875 0.70710677 3.5716998E-14 -0.70710677 86 86 86 255
-0.031499986 -0.074999996 0.0875 0.70710677 3.5716998E-14 -0.70710677 86 86 86 255
-0.0875 0.024999999 0.031499986 0.70710677 3.5716998E-14 -0.70710677 86 86 86 255
0.0875 0.024999999 -0.031499986 -0.44495693 0.77719146 0.44495693 86 86 86 255
0.125 0.099999994 -0.125 -0.44495693 0.77719146 0.44495693 86 86 86 255
0.031499986 0.024999999 -0.0875 -0.44495693 0.77719146 0.44495693 86 86 86 255
-0.125 0.099999994 -0.125 0.8944272 0.4472136 1.1778091E-15 86 86 86 255
-0.0875 0.024999999 0.031499986 0.8944272 0.4472136 1.1778091E-15 86 86 86 255
-0.0875 0.024999999 -0.031499986 0.8944272 0.4472136 1.1778091E-15 86 86 86 255
-0.125 0.099999994 0.125 0.8944272 0.4472136 1.1778091E-15 86 86 86 255
0.031499986 0.024999999 0.0875 7.710696E-18 0.4472136 -0.8944272 86 86 86 255
-0.125 0.099999994 0.125 7.710696E-18 0.4472136 -0.8944272 86 86 86 255
0.125 0.099999994 0.125 7.710696E-18 0.4472136 -0.8944272 86 86 86 255
-0.031499986 0.024999999 0.0875 7.710696E-18 0.4472136 -0.8944272 86 86 86 255
0.125 0.099999994 0.125 -0.44495693 0.77719146 -0.44495693 86 86 86 255
0.0875 0.024999999 0.031499986 -0.44495693 0.77719146 -0.44495693 86 86 86 255
0.031499986 0.024999999 0.0875 -0.44495693 0.77719146 -0.44495693 86 86 86 255
0.0875 0.024999999 0.031499986 -0.8944272 0.4472136 1.172026E-15 86 86 86 255
0.125 0.099999994 -0.125 -0.8944272 0.4472136 1.172026E-15 86 86 86 255
0.0875 0.024999999 -0.031499986 -0.8944272 0.4472136 1.172026E-15 86 86 86 255
0.125 0.099999994 0.125 -0.8944272 0.4472136 1.172026E-15 86 86 86 255
-0.125 0.099999994 0.125 0.44495693 0.77719146 -0.44495693 86 86 86 255
-0.031499986 0.024999999 0.0875 0.44495693 0.77719146 -0.44495693 86 86 86 255
-0.0875 0.024999999 0.031499986 0.44495693 0.77719146 -0.44495693 86 86 86 255
-0.125 0.099999994 0.125 0 1 1.155058E-14 86 86 86 255
0.125 0.099999994 -0.125 0 1 1.155058E-14 86 86 86 255
-0.125 0.099999994 -0.125 0 1 1.155058E-14 86 86 86 255
0.125 0.099999994 0.125 0 1 1.155058E-14 86 86 86 255
3 0 1 2
3 1 0 3
3 4 5 6
3 5 4 7
3 8 9 10
3 9 8 11
3 12 13 14
3 13 12 15
3 16 17 18
3 17 16 19
3 20 21 22
3 21 20 23
3 24 25 26
3 25 24 27
3 27 24 28
3 27 28 29
3 29 28 30
3 29 30 31
3 32 33 34
3 33 32 35
3 36 37 38
3 37 36 39
3 40 41 42
3 41 40 43
3 44 45 46
3 45 44 47
3 48 49 50
3 49 48 51
3 52 53 54
3 53 52 55
3 56 57 58
3 57 56 59
3 60 61 62
3 61 60 63
3 64 65 66
3 65 64 67
3 68 69 70
3 69 68 71
3 72 73 74
3 73 72 75
3 75 72 76
3 75 76 77
3 77 76 78
3 77 78 79
3 80 81 82
3 83 84 85
3 84 83 86
3 87 88 89
3 88 87 90
3 91 92 93
3 92 91 94
3 95 96 97
3 96 95 98
3 99 100 101
3 100 99 102
3 103 104 105
3 106 107 108
3 107 106 109
3 110 111 112
3 111 110 113
3 114 115 116
3 117 118 119
3 118 117 120
3 121 122 123
3 124 125 126
3 125 124 127

