ply
format ascii 1.0
commentY29udmVydGVyIGJ5IENvZGVMZW9wYXJk
comment Original mesh name: 'C:\Program Files (x86)\Steam\steamapps\common\Stormworks\rom\meshes\component_window_corner2_inv_2x2.mesh'
comment SubMesh index: 0
comment SubMesh name: 'ID16'
comment Shader: Transparent (1)
element vertex 60
property float x
property float y
property float z
property float nx
property float ny
property float nz
property uchar red
property uchar green
property uchar blue
property uchar alpha
element face 2
property list uchar ushort vertex_index
end_header
-0.32744104 0.08622058 0.33622053 0.57735026 0.57735026 0.57735026 160 160 199 128
0.08622058 -0.32744104 0.33622053 0.57735026 0.57735026 0.57735026 160 160 199 128
0.08622058 0.08622058 -0.07744116 0.57735026 0.57735026 0.57735026 160 160 199 128
-0.337441 0.10622057 0.3562205 -0.57735026 -0.57735026 -0.57735026 160 160 199 128
0.10622061 0.10622057 -0.08744117 -0.57735026 -0.57735026 -0.57735026 160 160 199 128
0.10622061 -0.33744127 0.3562205 -0.57735026 -0.57735026 -0.57735026 160 160 199 128
-0.37499997 0.125 0.37499997 -0.57735026 -0.57735026 -0.57735026 55 125 0 255
0.10622061 -0.33744127 0.3562205 -0.57735026 -0.57735026 -0.57735026 55 125 0 255
0.125 -0.37499997 0.37499997 -0.57735026 -0.57735026 -0.57735026 55 125 0 255
-0.337441 0.10622057 0.3562205 -0.57735026 -0.57735026 -0.57735026 55 125 0 255
0.10622061 0.10622057 -0.08744117 -0.57735026 -0.57735026 -0.57735026 55 125 0 255
0.125 0.125 -0.125 -0.57735026 -0.57735026 -0.57735026 55 125 0 255
0.06499999 0.125 -0.125 -6.015929E-15 3.007962E-15 1 255 125 0 255
0.125 0.064999945 -0.125 -6.015929E-15 3.007962E-15 1 255 125 0 255
0.125 0.125 -0.125 -6.015929E-15 3.007962E-15 1 255 125 0 255
0.125 0.125 -0.125 4.216047E-08 -1 4.8274917E-08 255 125 0 255
-0.37499997 0.125 0.31499985 4.216047E-08 -1 4.8274917E-08 255 125 0 255
0.06499999 0.125 -0.125 4.216047E-08 -1 4.8274917E-08 255 125 0 255
-0.37499997 0.125 0.37499997 4.216047E-08 -1 4.8274917E-08 255 125 0 255
-0.37499997 0.125 0.31499985 0.57735026 0.57735026 0.57735026 255 125 0 255
0.125 0.064999945 -0.125 0.57735026 0.57735026 0.57735026 255 125 0 255
0.06499999 0.125 -0.125 0.57735026 0.57735026 0.57735026 255 125 0 255
0.06622057 0.06622057 -0.06744116 0.57735026 0.57735026 0.57735026 255 125 0 255
-0.31744105 0.06622057 0.31622058 0.57735026 0.57735026 0.57735026 255 125 0 255
-0.37499997 0.064999945 0.37499997 0.57735026 0.57735026 0.57735026 255 125 0 255
0.06499999 -0.37499997 0.37499997 0.57735026 0.57735026 0.57735026 255 125 0 255
0.125 -0.37499997 0.31499985 0.57735026 0.57735026 0.57735026 255 125 0 255
0.06622057 -0.31744105 0.31622058 0.57735026 0.57735026 0.57735026 255 125 0 255
0.125 0.125 -0.125 -1 -1.3922861E-09 -1.594259E-09 255 125 0 255
0.125 -0.37499997 0.31499985 -1 -1.3922861E-09 -1.594259E-09 255 125 0 255
0.125 -0.37499997 0.37499997 -1 -1.3922861E-09 -1.594259E-09 255 125 0 255
0.125 0.064999945 -0.125 -1 -1.3922861E-09 -1.594259E-09 255 125 0 255
-0.37499997 0.125 0.37499997 1 -9.0422915E-08 -9.0422915E-08 255 125 0 255
-0.37499997 0.064999945 0.37499997 1 -9.0422915E-08 -9.0422915E-08 255 125 0 255
-0.37499997 0.125 0.31499985 1 -9.0422915E-08 -9.0422915E-08 255 125 0 255
0.06499999 -0.37499997 0.37499997 4.0559712E-08 4.687686E-08 -1 255 125 0 255
-0.37499997 0.125 0.37499997 4.0559712E-08 4.687686E-08 -1 255 125 0 255
0.125 -0.37499997 0.37499997 4.0559712E-08 4.687686E-08 -1 255 125 0 255
-0.37499997 0.064999945 0.37499997 4.0559712E-08 4.687686E-08 -1 255 125 0 255
0.06499999 -0.37499997 0.37499997 2.998724E-09 1 2.9741438E-09 255 125 0 255
0.125 -0.37499997 0.37499997 2.998724E-09 1 2.9741438E-09 255 125 0 255
0.125 -0.37499997 0.31499985 2.998724E-09 1 2.9741438E-09 255 125 0 255
-0.32744104 0.08622058 0.33622053 -0.66666657 0.33333358 -0.66666657 255 125 0 255
0.10622061 0.10622057 -0.08744117 -0.66666657 0.33333358 -0.66666657 255 125 0 255
0.08622058 0.08622058 -0.07744116 -0.66666657 0.33333358 -0.66666657 255 125 0 255
-0.337441 0.10622057 0.3562205 -0.66666657 0.33333358 -0.66666657 255 125 0 255
0.10622061 -0.33744127 0.3562205 0.3333328 -0.6666668 -0.6666668 255 125 0 255
0.08622058 0.08622058 -0.07744116 0.3333328 -0.6666668 -0.6666668 255 125 0 255
0.10622061 0.10622057 -0.08744117 0.3333328 -0.6666668 -0.6666668 255 125 0 255
0.08622058 -0.32744104 0.33622053 0.3333328 -0.6666668 -0.6666668 255 125 0 255
-0.31744105 0.06622057 0.31622058 -0.6666667 0.333333 -0.6666667 255 125 0 255
0.06622057 0.06622057 -0.06744116 -0.6666667 0.333333 -0.6666667 255 125 0 255
-0.337441 0.10622057 0.3562205 -0.66666657 -0.66666657 0.33333358 255 125 0 255
0.08622058 -0.32744104 0.33622053 -0.66666657 -0.66666657 0.33333358 255 125 0 255
0.10622061 -0.33744127 0.3562205 -0.66666657 -0.66666657 0.33333358 255 125 0 255
-0.32744104 0.08622058 0.33622053 -0.66666657 -0.66666657 0.33333358 255 125 0 255
0.06622057 0.06622057 -0.06744116 0.33333373 -0.66666657 -0.66666657 255 125 0 255
0.06622057 -0.31744105 0.31622058 0.33333373 -0.66666657 -0.66666657 255 125 0 255
0.06622057 -0.31744105 0.31622058 -0.6666667 -0.6666667 0.333333 255 125 0 255
-0.31744105 0.06622057 0.31622058 -0.6666667 -0.6666667 0.333333 255 125 0 255
3 0 1 2
3 3 4 5

