ply
format ascii 1.0
commentY29udmVydGVyIGJ5IENvZGVMZW9wYXJk
comment Original mesh name: 'C:\Program Files (x86)\Steam\steamapps\common\Stormworks\rom\meshes\component_clock_base.mesh'
comment SubMesh index: 0
comment SubMesh name: 'ID45'
comment Shader: Transparent (1)
element vertex 242
property float x
property float y
property float z
property float nx
property float ny
property float nz
property uchar red
property uchar green
property uchar blue
property uchar alpha
element face 6
property list uchar ushort vertex_index
end_header
-0.092387944 -0.038268346 0.125 0 -3.7748227E-32 -1 109 160 199 255
0.038268346 -0.092387944 0.125 0 -3.7748227E-32 -1 109 160 199 255
-0.038268346 -0.092387944 0.125 0 -3.7748227E-32 -1 109 160 199 255
0.092387944 -0.038268346 0.125 0 -3.7748227E-32 -1 109 160 199 255
0.092387944 0.038268346 0.125 0 -3.7748227E-32 -1 109 160 199 255
-0.092387944 0.038268346 0.125 0 -3.7748227E-32 -1 109 160 199 255
0.038268346 0.092387944 0.125 0 -3.7748227E-32 -1 109 160 199 255
-0.038268346 0.092387944 0.125 0 -3.7748227E-32 -1 109 160 199 255
-0.125 0 0.125 0 -3.7748227E-32 -1 255 255 255 255
-0.10238795 0 0.125 0 -3.7748227E-32 -1 255 255 255 255
-0.10238795 -0.028410483 0.125 0 -3.7748227E-32 -1 255 255 255 255
-0.10238795 0.028410483 0.125 0 -3.7748227E-32 -1 255 255 255 255
-0.125 -0.125 0.125 0 -3.7748227E-32 -1 255 125 0 255
-0.10238795 -0.04241048 0.125 0 -3.7748227E-32 -1 255 125 0 255
-0.042410474 -0.10238795 0.125 0 -3.7748227E-32 -1 255 125 0 255
-0.125 0 0.125 0 -3.7748227E-32 -1 255 125 0 255
-0.10238795 -0.028410483 0.125 0 -3.7748227E-32 -1 255 125 0 255
-0.125 0.125 0.125 0 -3.7748227E-32 -1 255 125 0 255
-0.10238795 0.028410483 0.125 0 -3.7748227E-32 -1 255 125 0 255
-0.10238795 0.042410474 0.125 0 -3.7748227E-32 -1 255 125 0 255
-0.042410474 0.10238795 0.125 0 -3.7748227E-32 -1 255 125 0 255
0.04241048 0.10238795 0.125 0 -3.7748227E-32 -1 255 125 0 255
0.125 -0.125 0.125 0 -3.7748227E-32 -1 255 125 0 255
0.10238795 -0.04241048 0.125 0 -3.7748227E-32 -1 255 125 0 255
0.125 0.125 0.125 0 -3.7748227E-32 -1 255 125 0 255
0.04241048 -0.10238795 0.125 0 -3.7748227E-32 -1 255 125 0 255
0.10238795 0.042410474 0.125 0 -3.7748227E-32 -1 255 125 0 255
-0.042410474 -0.10238795 0.125 -8.326673E-17 -3.081488E-32 -1 86 86 86 255
-0.038268346 -0.092387944 0.125 -8.326673E-17 -3.081488E-32 -1 86 86 86 255
0.04241048 -0.10238795 0.125 -8.326673E-17 -3.081488E-32 -1 86 86 86 255
-0.10238795 -0.04241048 0.125 -8.326673E-17 -3.081488E-32 -1 86 86 86 255
-0.092387944 -0.038268346 0.125 -8.326673E-17 -3.081488E-32 -1 86 86 86 255
-0.10238795 -0.028410483 0.125 -8.326673E-17 -3.081488E-32 -1 86 86 86 255
-0.092387944 0.038268346 0.125 -8.326673E-17 -3.081488E-32 -1 86 86 86 255
-0.10238795 0 0.125 -8.326673E-17 -3.081488E-32 -1 86 86 86 255
-0.10238795 0.028410483 0.125 -8.326673E-17 -3.081488E-32 -1 86 86 86 255
-0.10238795 0.042410474 0.125 -8.326673E-17 -3.081488E-32 -1 86 86 86 255
-0.038268346 0.092387944 0.125 -8.326673E-17 -3.081488E-32 -1 86 86 86 255
-0.042410474 0.10238795 0.125 -8.326673E-17 -3.081488E-32 -1 86 86 86 255
0.038268346 0.092387944 0.125 -8.326673E-17 -3.081488E-32 -1 86 86 86 255
0.038268346 -0.092387944 0.125 -8.326673E-17 -3.081488E-32 -1 86 86 86 255
0.10238795 -0.04241048 0.125 -8.326673E-17 -3.081488E-32 -1 86 86 86 255
0.092387944 -0.038268346 0.125 -8.326673E-17 -3.081488E-32 -1 86 86 86 255
0.10238795 0.042410474 0.125 -8.326673E-17 -3.081488E-32 -1 86 86 86 255
0.092387944 0.038268346 0.125 -8.326673E-17 -3.081488E-32 -1 86 86 86 255
0.04241048 0.10238795 0.125 -8.326673E-17 -3.081488E-32 -1 86 86 86 255
-0.038268346 -0.092387944 0.125 -0.3826834 -0.9238795 3.1864797E-17 86 86 86 255
0.038268346 -0.092387944 0.099999994 0.3826834 -0.9238795 -3.1864797E-17 86 86 86 255
0.038268346 -0.092387944 0.125 0.3826834 -0.9238795 -3.1864797E-17 86 86 86 255
-0.038268346 -0.092387944 0.099999994 -0.3826834 -0.9238795 3.1864797E-17 86 86 86 255
-0.092387944 -0.038268346 0.099999994 -0.9238795 -0.3826834 7.6928426E-17 86 86 86 255
-0.092387944 -0.038268346 0.125 -0.9238795 -0.3826834 7.6928426E-17 86 86 86 255
-0.038268346 -0.092387944 0.099999994 0 -3.7748227E-32 -1 86 86 86 255
-0.0200395 -0.074788466 0.099999994 0 -3.7748227E-32 -1 86 86 86 255
0.038268346 -0.092387944 0.099999994 0 -3.7748227E-32 -1 86 86 86 255
-0.03871336 -0.06705351 0.099999994 0 -3.7748227E-32 -1 86 86 86 255
-0.092387944 -0.038268346 0.099999994 0 -3.7748227E-32 -1 86 86 86 255
-0 -0.07742672 0.099999994 0 -3.7748227E-32 -1 86 86 86 255
-0.05474896 -0.05474896 0.099999994 0 -3.7748227E-32 -1 86 86 86 255
-0.067053504 -0.038713362 0.099999994 0 -3.7748227E-32 -1 86 86 86 255
-0.074788466 -0.0200395 0.099999994 0 -3.7748227E-32 -1 86 86 86 255
-0.092387944 0.038268346 0.099999994 0 -3.7748227E-32 -1 86 86 86 255
-0.07742672 0 0.099999994 0 -3.7748227E-32 -1 86 86 86 255
-0.074788466 0.0200395 0.099999994 0 -3.7748227E-32 -1 86 86 86 255
-0.067053504 0.03871336 0.099999994 0 -3.7748227E-32 -1 86 86 86 255
-0.038268346 0.092387944 0.099999994 0 -3.7748227E-32 -1 86 86 86 255
-0.05474896 0.05474896 0.099999994 0 -3.7748227E-32 -1 86 86 86 255
-0.03871336 0.067053504 0.099999994 0 -3.7748227E-32 -1 86 86 86 255
-0.0200395 0.074788466 0.099999994 0 -3.7748227E-32 -1 86 86 86 255
-0 0.07742672 0.099999994 0 -3.7748227E-32 -1 86 86 86 255
0.038713362 -0.06705351 0.099999994 0 -3.7748227E-32 -1 86 86 86 255
0.092387944 -0.038268346 0.099999994 0 -3.7748227E-32 -1 86 86 86 255
0.0200395 -0.074788466 0.099999994 0 -3.7748227E-32 -1 86 86 86 255
0.05474896 -0.05474896 0.099999994 0 -3.7748227E-32 -1 86 86 86 255
0.06705351 -0.038713362 0.099999994 0 -3.7748227E-32 -1 86 86 86 255
0.074788466 -0.0200395 0.099999994 0 -3.7748227E-32 -1 86 86 86 255
0.092387944 0.038268346 0.099999994 0 -3.7748227E-32 -1 86 86 86 255
0.07742672 0 0.099999994 0 -3.7748227E-32 -1 86 86 86 255
0.074788466 0.0200395 0.099999994 0 -3.7748227E-32 -1 86 86 86 255
0.06705351 0.03871336 0.099999994 0 -3.7748227E-32 -1 86 86 86 255
0.038268346 0.092387944 0.099999994 0 -3.7748227E-32 -1 86 86 86 255
0.05474896 0.05474896 0.099999994 0 -3.7748227E-32 -1 86 86 86 255
0.038713362 0.067053504 0.099999994 0 -3.7748227E-32 -1 86 86 86 255
0.0200395 0.074788466 0.099999994 0 -3.7748227E-32 -1 86 86 86 255
0.092387944 -0.038268346 0.099999994 0.9238795 -0.3826834 -7.6928426E-17 86 86 86 255
0.092387944 -0.038268346 0.125 0.9238795 -0.3826834 -7.6928426E-17 86 86 86 255
-0.092387944 0.038268346 0.099999994 -0.9238795 0.3826834 7.6928426E-17 86 86 86 255
-0.092387944 0.038268346 0.125 -0.9238795 0.3826834 7.6928426E-17 86 86 86 255
-0.038268346 0.092387944 0.099999994 -0.3826834 0.9238795 3.1864797E-17 86 86 86 255
0.038268346 0.092387944 0.125 0.3826834 0.9238795 -3.1864797E-17 86 86 86 255
0.038268346 0.092387944 0.099999994 0.3826834 0.9238795 -3.1864797E-17 86 86 86 255
-0.038268346 0.092387944 0.125 -0.3826834 0.9238795 3.1864797E-17 86 86 86 255
0.092387944 0.038268346 0.099999994 0.9238795 0.3826834 -7.6928426E-17 86 86 86 255
0.092387944 0.038268346 0.125 0.9238795 0.3826834 -7.6928426E-17 86 86 86 255
0.033285994 -0.05965299 0.099999994 0 -3.7748227E-32 -1 255 255 255 255
0.0379522 -0.06373515 0.099999994 0 -3.7748227E-32 -1 255 255 255 255
0.03622014 -0.06473515 0.099999994 0 -3.7748227E-32 -1 255 255 255 255
0.035018038 -0.05865299 0.099999994 0 -3.7748227E-32 -1 255 255 255 255
0.05865299 -0.035018038 0.099999994 0 -3.7748227E-32 -1 255 255 255 255
0.06473515 -0.03622014 0.099999994 0 -3.7748227E-32 -1 255 255 255 255
0.06373515 -0.0379522 0.099999994 0 -3.7748227E-32 -1 255 255 255 255
0.05965299 -0.033285994 0.099999994 0 -3.7748227E-32 -1 255 255 255 255
0.05865299 0.03501801 0.099999994 0 -3.7748227E-32 -1 255 255 255 255
0.06473515 0.03622015 0.099999994 0 -3.7748227E-32 -1 255 255 255 255
0.05965299 0.033285957 0.099999994 0 -3.7748227E-32 -1 255 255 255 255
0.06373515 0.0379522 0.099999994 0 -3.7748227E-32 -1 255 255 255 255
0.033285994 0.05965299 0.099999994 0 -3.7748227E-32 -1 255 255 255 255
0.0379522 0.06373513 0.099999994 0 -3.7748227E-32 -1 255 255 255 255
0.035018038 0.058652986 0.099999994 0 -3.7748227E-32 -1 255 255 255 255
0.03622014 0.064735115 0.099999994 0 -3.7748227E-32 -1 255 255 255 255
-0.074788466 0.0200395 0.099999994 0 -3.7748227E-32 -1 255 255 255 255
-0.07417235 0.000999996 0.099999994 0 -3.7748227E-32 -1 255 255 255 255
-0.07742672 0 0.099999994 0 -3.7748227E-32 -1 255 255 255 255
-0.07177214 0.019231288 0.099999994 0 -3.7748227E-32 -1 255 255 255 255
-0.064735115 0.03622015 0.099999994 0 -3.7748227E-32 -1 255 255 255 255
-0.067053504 0.03871336 0.099999994 0 -3.7748227E-32 -1 255 255 255 255
-0.06373513 0.0379522 0.099999994 0 -3.7748227E-32 -1 255 255 255 255
-0.052540865 0.052540865 0.099999994 0 -3.7748227E-32 -1 255 255 255 255
-0.05474896 0.05474896 0.099999994 0 -3.7748227E-32 -1 255 255 255 255
-0.0379522 0.06373513 0.099999994 0 -3.7748227E-32 -1 255 255 255 255
-0.03871336 0.067053504 0.099999994 0 -3.7748227E-32 -1 255 255 255 255
-0.03622015 0.064735115 0.099999994 0 -3.7748227E-32 -1 255 255 255 255
-0.019231288 0.07177214 0.099999994 0 -3.7748227E-32 -1 255 255 255 255
-0.0200395 0.074788466 0.099999994 0 -3.7748227E-32 -1 255 255 255 255
-0.000999996 0.07417235 0.099999994 0 -3.7748227E-32 -1 255 255 255 255
0.0010000076 0.07417235 0.099999994 0 -3.7748227E-32 -1 255 255 255 255
0.0200395 0.074788466 0.099999994 0 -3.7748227E-32 -1 255 255 255 255
-0 0.07742672 0.099999994 0 -3.7748227E-32 -1 255 255 255 255
0.068304 0.000999996 0.099999994 0 -3.7748227E-32 -1 255 255 255 255
0.07417234 -0.0010000076 0.099999994 0 -3.7748227E-32 -1 255 255 255 255
0.068304 -0.0010000076 0.099999994 0 -3.7748227E-32 -1 255 255 255 255
0.07742672 0 0.099999994 0 -3.7748227E-32 -1 255 255 255 255
0.07417234 0.000999996 0.099999994 0 -3.7748227E-32 -1 255 255 255 255
0.074788466 0.0200395 0.099999994 0 -3.7748227E-32 -1 255 255 255 255
0.07177214 0.019231288 0.099999994 0 -3.7748227E-32 -1 255 255 255 255
0.06705351 0.03871336 0.099999994 0 -3.7748227E-32 -1 255 255 255 255
0.052540865 0.052540865 0.099999994 0 -3.7748227E-32 -1 255 255 255 255
0.05474896 0.05474896 0.099999994 0 -3.7748227E-32 -1 255 255 255 255
0.038713362 0.067053504 0.099999994 0 -3.7748227E-32 -1 255 255 255 255
0.019231299 0.07177214 0.099999994 0 -3.7748227E-32 -1 255 255 255 255
-0 0.068304 0.099999994 0 -3.7748227E-32 -1 255 255 255 255
-0.000999996 0.068304 0.099999994 0 -3.7748227E-32 -1 255 255 255 255
0.0010000076 0.068304 0.099999994 0 -3.7748227E-32 -1 255 255 255 255
-0.033285957 0.05965299 0.099999994 0 -3.7748227E-32 -1 255 255 255 255
-0.03501801 0.058652986 0.099999994 0 -3.7748227E-32 -1 255 255 255 255
-0.058652986 0.03501801 0.099999994 0 -3.7748227E-32 -1 255 255 255 255
-0.05965299 0.033285957 0.099999994 0 -3.7748227E-32 -1 255 255 255 255
-0.0200395 -0.074788466 0.099999994 0 -3.7748227E-32 -1 255 255 255 255
0.0200395 -0.074788466 0.099999994 0 -3.7748227E-32 -1 255 255 255 255
-0 -0.07742672 0.099999994 0 -3.7748227E-32 -1 255 255 255 255
-0.000999996 -0.07417234 0.099999994 0 -3.7748227E-32 -1 255 255 255 255
-0.019231288 -0.07177214 0.099999994 0 -3.7748227E-32 -1 255 255 255 255
-0.03871336 -0.06705351 0.099999994 0 -3.7748227E-32 -1 255 255 255 255
-0.03622015 -0.06473515 0.099999994 0 -3.7748227E-32 -1 255 255 255 255
-0.05474896 -0.05474896 0.099999994 0 -3.7748227E-32 -1 255 255 255 255
-0.0379522 -0.06373515 0.099999994 0 -3.7748227E-32 -1 255 255 255 255
-0.052540865 -0.052540865 0.099999994 0 -3.7748227E-32 -1 255 255 255 255
-0.067053504 -0.038713362 0.099999994 0 -3.7748227E-32 -1 255 255 255 255
-0.06373513 -0.0379522 0.099999994 0 -3.7748227E-32 -1 255 255 255 255
-0.074788466 -0.0200395 0.099999994 0 -3.7748227E-32 -1 255 255 255 255
-0.064735115 -0.03622014 0.099999994 0 -3.7748227E-32 -1 255 255 255 255
-0.07177214 -0.019231299 0.099999994 0 -3.7748227E-32 -1 255 255 255 255
-0.07417235 -0.0010000076 0.099999994 0 -3.7748227E-32 -1 255 255 255 255
-0.068304 -0.0010000076 0.099999994 0 -3.7748227E-32 -1 255 255 255 255
-0.068304 0.000999996 0.099999994 0 -3.7748227E-32 -1 255 255 255 255
0.019231299 -0.07177214 0.099999994 0 -3.7748227E-32 -1 255 255 255 255
0.038713362 -0.06705351 0.099999994 0 -3.7748227E-32 -1 255 255 255 255
0.0010000076 -0.07417234 0.099999994 0 -3.7748227E-32 -1 255 255 255 255
0.05474896 -0.05474896 0.099999994 0 -3.7748227E-32 -1 255 255 255 255
0.052540865 -0.052540865 0.099999994 0 -3.7748227E-32 -1 255 255 255 255
0.06705351 -0.038713362 0.099999994 0 -3.7748227E-32 -1 255 255 255 255
0.074788466 -0.0200395 0.099999994 0 -3.7748227E-32 -1 255 255 255 255
0.07177214 -0.019231299 0.099999994 0 -3.7748227E-32 -1 255 255 255 255
-0.058652986 -0.035018038 0.099999994 0 -3.7748227E-32 -1 255 255 255 255
-0.05965299 -0.033285994 0.099999994 0 -3.7748227E-32 -1 255 255 255 255
-0.033285957 -0.05965299 0.099999994 0 -3.7748227E-32 -1 255 255 255 255
-0.03501801 -0.05865299 0.099999994 0 -3.7748227E-32 -1 255 255 255 255
-0.000999996 -0.068304 0.099999994 0 -3.7748227E-32 -1 255 255 255 255
0.0010000076 -0.068304 0.099999994 0 -3.7748227E-32 -1 255 255 255 255
-0 -0.068304 0.099999994 0 -3.7748227E-32 -1 255 255 255 255
-0.052540865 -0.052540865 0.099999994 0 -3.7748227E-32 -1 86 86 86 255
-0.03501801 -0.05865299 0.099999994 0 -3.7748227E-32 -1 86 86 86 255
-0.0379522 -0.06373515 0.099999994 0 -3.7748227E-32 -1 86 86 86 255
-0.07177214 -0.019231299 0.099999994 0 -3.7748227E-32 -1 86 86 86 255
-0.05965299 -0.033285994 0.099999994 0 -3.7748227E-32 -1 86 86 86 255
-0.064735115 -0.03622014 0.099999994 0 -3.7748227E-32 -1 86 86 86 255
-0.07177214 0.019231288 0.099999994 0 -3.7748227E-32 -1 86 86 86 255
-0.068304 0.000999996 0.099999994 0 -3.7748227E-32 -1 86 86 86 255
-0.07417235 0.000999996 0.099999994 0 -3.7748227E-32 -1 86 86 86 255
-0.064735115 0.03622015 0.099999994 0 -3.7748227E-32 -1 86 86 86 255
-0.05965299 0.033285957 0.099999994 0 -3.7748227E-32 -1 86 86 86 255
-0.0379522 0.06373513 0.099999994 0 -3.7748227E-32 -1 86 86 86 255
-0.03501801 0.058652986 0.099999994 0 -3.7748227E-32 -1 86 86 86 255
-0.052540865 0.052540865 0.099999994 0 -3.7748227E-32 -1 86 86 86 255
-0.019231288 0.07177214 0.099999994 0 -3.7748227E-32 -1 86 86 86 255
-0.000999996 0.068304 0.099999994 0 -3.7748227E-32 -1 86 86 86 255
-0.03622015 0.064735115 0.099999994 0 -3.7748227E-32 -1 86 86 86 255
-0.000999996 0.07417235 0.099999994 0 -3.7748227E-32 -1 86 86 86 255
-0.019231288 -0.07177214 0.099999994 0 -3.7748227E-32 -1 86 86 86 255
-0.000999996 -0.068304 0.099999994 0 -3.7748227E-32 -1 86 86 86 255
-0.000999996 -0.07417234 0.099999994 0 -3.7748227E-32 -1 86 86 86 255
-0.03622015 -0.06473515 0.099999994 0 -3.7748227E-32 -1 86 86 86 255
-0 -0.068304 0.099999994 0 -3.7748227E-32 -1 86 86 86 255
-0.033285957 -0.05965299 0.099999994 0 -3.7748227E-32 -1 86 86 86 255
-0 0.068304 0.099999994 0 -3.7748227E-32 -1 86 86 86 255
-0.058652986 -0.035018038 0.099999994 0 -3.7748227E-32 -1 86 86 86 255
-0.06373513 -0.0379522 0.099999994 0 -3.7748227E-32 -1 86 86 86 255
-0.068304 -0.0010000076 0.099999994 0 -3.7748227E-32 -1 86 86 86 255
-0.07417235 -0.0010000076 0.099999994 0 -3.7748227E-32 -1 86 86 86 255
-0.058652986 0.03501801 0.099999994 0 -3.7748227E-32 -1 86 86 86 255
-0.06373513 0.0379522 0.099999994 0 -3.7748227E-32 -1 86 86 86 255
-0.033285957 0.05965299 0.099999994 0 -3.7748227E-32 -1 86 86 86 255
0.07177214 -0.019231299 0.099999994 0 -3.7748227E-32 -1 86 86 86 255
0.06473515 -0.03622014 0.099999994 0 -3.7748227E-32 -1 86 86 86 255
0.05965299 -0.033285994 0.099999994 0 -3.7748227E-32 -1 86 86 86 255
0.052540865 -0.052540865 0.099999994 0 -3.7748227E-32 -1 86 86 86 255
0.0379522 -0.06373515 0.099999994 0 -3.7748227E-32 -1 86 86 86 255
0.035018038 -0.05865299 0.099999994 0 -3.7748227E-32 -1 86 86 86 255
0.0010000076 -0.068304 0.099999994 0 -3.7748227E-32 -1 86 86 86 255
0.019231299 -0.07177214 0.099999994 0 -3.7748227E-32 -1 86 86 86 255
0.0010000076 -0.07417234 0.099999994 0 -3.7748227E-32 -1 86 86 86 255
0.03622014 -0.06473515 0.099999994 0 -3.7748227E-32 -1 86 86 86 255
0.033285994 -0.05965299 0.099999994 0 -3.7748227E-32 -1 86 86 86 255
0.05865299 -0.035018038 0.099999994 0 -3.7748227E-32 -1 86 86 86 255
0.06373515 -0.0379522 0.099999994 0 -3.7748227E-32 -1 86 86 86 255
0.068304 -0.0010000076 0.099999994 0 -3.7748227E-32 -1 86 86 86 255
0.068304 0.000999996 0.099999994 0 -3.7748227E-32 -1 86 86 86 255
0.07417234 0.000999996 0.099999994 0 -3.7748227E-32 -1 86 86 86 255
0.07177214 0.019231288 0.099999994 0 -3.7748227E-32 -1 86 86 86 255
0.05965299 0.033285957 0.099999994 0 -3.7748227E-32 -1 86 86 86 255
0.05865299 0.03501801 0.099999994 0 -3.7748227E-32 -1 86 86 86 255
0.06373515 0.0379522 0.099999994 0 -3.7748227E-32 -1 86 86 86 255
0.052540865 0.052540865 0.099999994 0 -3.7748227E-32 -1 86 86 86 255
0.035018038 0.058652986 0.099999994 0 -3.7748227E-32 -1 86 86 86 255
0.033285994 0.05965299 0.099999994 0 -3.7748227E-32 -1 86 86 86 255
0.03622014 0.064735115 0.099999994 0 -3.7748227E-32 -1 86 86 86 255
0.0010000076 0.068304 0.099999994 0 -3.7748227E-32 -1 86 86 86 255
0.019231299 0.07177214 0.099999994 0 -3.7748227E-32 -1 86 86 86 255
0.0010000076 0.07417235 0.099999994 0 -3.7748227E-32 -1 86 86 86 255
0.0379522 0.06373513 0.099999994 0 -3.7748227E-32 -1 86 86 86 255
0.06473515 0.03622015 0.099999994 0 -3.7748227E-32 -1 86 86 86 255
0.07417234 -0.0010000076 0.099999994 0 -3.7748227E-32 -1 86 86 86 255
3 0 1 2
3 1 0 3
3 3 0 4
3 4 0 5
3 4 5 6
3 6 5 7

