ply
format ascii 1.0
commentY29udmVydGVyIGJ5IENvZGVMZW9wYXJk
comment Original mesh name: 'C:\Program Files (x86)\Steam\steamapps\common\Stormworks\rom\meshes\component_camera_gimbal.mesh'
comment SubMesh index: 0
comment SubMesh name: 'ID3'
comment Shader: Transparent (1)
element vertex 332
property float x
property float y
property float z
property float nx
property float ny
property float nz
property uchar red
property uchar green
property uchar blue
property uchar alpha
element face 12
property list uchar ushort vertex_index
end_header
0.080278315 -0.07919336 0.365 0 -4.623171E-15 -1 160 160 199 128
0.080278315 0.08169338 0.365 0 -4.623171E-15 -1 160 160 199 128
0.11359905 0.0012500095 0.365 0 -4.623171E-15 -1 160 160 199 128
-0.00016505364 -0.11251409 0.365 0 -4.623171E-15 -1 160 160 199 128
-0.00016505364 0.11501411 0.365 0 -4.623171E-15 -1 160 160 199 128
-0.08060843 -0.07919336 0.365 0 -4.623171E-15 -1 160 160 199 128
-0.08060843 0.08169338 0.365 0 -4.623171E-15 -1 160 160 199 128
-0.11392915 0.0012500095 0.365 0 -4.623171E-15 -1 160 160 199 128
-0.11392915 0.0012500095 0.365 0 4.623171E-15 1 160 160 199 128
-0.08060843 -0.07919336 0.365 0 4.623171E-15 1 160 160 199 128
-0.08060843 0.08169338 0.365 0 4.623171E-15 1 160 160 199 128
-0.00016505364 0.11501411 0.365 0 4.623171E-15 1 160 160 199 128
-0.00016505364 -0.11251409 0.365 0 4.623171E-15 1 160 160 199 128
0.080278315 0.08169338 0.365 0 4.623171E-15 1 160 160 199 128
0.080278315 -0.07919336 0.365 0 4.623171E-15 1 160 160 199 128
0.11359905 0.0012500095 0.365 0 4.623171E-15 1 160 160 199 128
-0.086394325 0.001250091 0.26625013 -8.6617985E-13 -0.38268337 -0.9238795 86 86 86 255
0.08606431 0.18951726 0.18826732 -8.6617985E-13 -0.38268337 -0.9238795 86 86 86 255
0.08606431 0.001250091 0.26625013 -8.6617985E-13 -0.38268337 -0.9238795 86 86 86 255
-0.086394325 0.18951726 0.18826732 -8.6617985E-13 -0.38268337 -0.9238795 86 86 86 255
0.08606431 -0.18701711 0.18826732 8.6571874E-13 0.38268337 -0.9238795 86 86 86 255
-0.086394325 0.001250091 0.26625013 8.6571874E-13 0.38268337 -0.9238795 86 86 86 255
0.08606431 0.001250091 0.26625013 8.6571874E-13 0.38268337 -0.9238795 86 86 86 255
-0.086394325 -0.18701711 0.18826732 8.6571874E-13 0.38268337 -0.9238795 86 86 86 255
-0.086394325 0.001250091 0.26625013 0.33128193 -0.361074 -0.87170964 86 86 86 255
-0.22033006 0.14998116 0.14873123 0.33128193 -0.361074 -0.87170964 86 86 86 255
-0.086394325 0.18951726 0.18826732 0.33128193 -0.361074 -0.87170964 86 86 86 255
-0.22033006 0.001250091 0.21033764 0.33128193 -0.361074 -0.87170964 86 86 86 255
-0.086394325 0.26750004 1.6298145E-07 -2.0911124E-12 -0.9238795 -0.38268337 86 86 86 255
0.08606431 0.18951726 0.18826732 -2.0911124E-12 -0.9238795 -0.38268337 86 86 86 255
-0.086394325 0.18951726 0.18826732 -2.0911124E-12 -0.9238795 -0.38268337 86 86 86 255
0.08606431 0.26750004 1.6298145E-07 -2.0911124E-12 -0.9238795 -0.38268337 86 86 86 255
0.08606431 0.001250091 0.26625013 -0.33128193 -0.361074 -0.87170964 86 86 86 255
0.22000009 0.14998116 0.14873123 -0.33128193 -0.361074 -0.87170964 86 86 86 255
0.22000009 0.001250091 0.21033764 -0.33128193 -0.361074 -0.87170964 86 86 86 255
0.08606431 0.18951726 0.18826732 -0.33128193 -0.361074 -0.87170964 86 86 86 255
0.08606431 -0.26499987 1.6298145E-07 2.0894426E-12 0.9238795 -0.38268337 86 86 86 255
-0.086394325 -0.18701711 0.18826732 2.0894426E-12 0.9238795 -0.38268337 86 86 86 255
0.08606431 -0.18701711 0.18826732 2.0894426E-12 0.9238795 -0.38268337 86 86 86 255
-0.086394325 -0.26499987 1.6298145E-07 2.0894426E-12 0.9238795 -0.38268337 86 86 86 255
-0.086394325 -0.18701711 0.18826732 0.33128193 0.361074 -0.87170964 86 86 86 255
-0.22033006 0.001250091 0.21033764 0.33128193 0.361074 -0.87170964 86 86 86 255
-0.086394325 0.001250091 0.26625013 0.33128193 0.361074 -0.87170964 86 86 86 255
-0.22033006 -0.14748098 0.14873123 0.33128193 0.361074 -0.87170964 86 86 86 255
0.22000009 -0.14748098 0.14873123 -0.33128193 0.361074 -0.87170964 86 86 86 255
0.08606431 0.001250091 0.26625013 -0.33128193 0.361074 -0.87170964 86 86 86 255
0.22000009 0.001250091 0.21033764 -0.33128193 0.361074 -0.87170964 86 86 86 255
0.08606431 -0.18701711 0.18826732 -0.33128193 0.361074 -0.87170964 86 86 86 255
-0.22033006 0.14998116 0.14873123 0.33128196 -0.8717097 -0.36107403 86 86 86 255
-0.086394325 0.26750004 1.6298145E-07 0.33128196 -0.8717097 -0.36107403 86 86 86 255
-0.086394325 0.18951726 0.18826732 0.33128196 -0.8717097 -0.36107403 86 86 86 255
-0.22033006 0.21158755 1.6298145E-07 0.33128196 -0.8717097 -0.36107403 86 86 86 255
-0.086394325 0.18951724 -0.18826705 -2.0911124E-12 -0.9238795 0.38268337 86 86 86 255
0.08606431 0.26750004 1.6298145E-07 -2.0911124E-12 -0.9238795 0.38268337 86 86 86 255
-0.086394325 0.26750004 1.6298145E-07 -2.0911124E-12 -0.9238795 0.38268337 86 86 86 255
0.08606431 0.18951724 -0.18826705 -2.0911124E-12 -0.9238795 0.38268337 86 86 86 255
0.08606431 0.26750004 1.6298145E-07 -0.33128196 -0.8717097 -0.36107403 86 86 86 255
0.22000009 0.14998116 0.14873123 -0.33128196 -0.8717097 -0.36107403 86 86 86 255
0.08606431 0.18951726 0.18826732 -0.33128196 -0.8717097 -0.36107403 86 86 86 255
0.22000009 0.21158755 1.6298145E-07 -0.33128196 -0.8717097 -0.36107403 86 86 86 255
0.08606431 -0.18701711 -0.18826705 2.0894426E-12 0.9238795 0.38268337 86 86 86 255
-0.086394325 -0.26499987 1.6298145E-07 2.0894426E-12 0.9238795 0.38268337 86 86 86 255
0.08606431 -0.26499987 1.6298145E-07 2.0894426E-12 0.9238795 0.38268337 86 86 86 255
-0.086394325 -0.18701711 -0.18826705 2.0894426E-12 0.9238795 0.38268337 86 86 86 255
-0.086394325 -0.26499987 1.6298145E-07 0.33128196 0.8717097 -0.36107403 86 86 86 255
-0.22033006 -0.14748098 0.14873123 0.33128196 0.8717097 -0.36107403 86 86 86 255
-0.086394325 -0.18701711 0.18826732 0.33128196 0.8717097 -0.36107403 86 86 86 255
-0.22033006 -0.20908746 1.6298145E-07 0.33128196 0.8717097 -0.36107403 86 86 86 255
0.22000009 -0.14748098 0.14873123 -0.33128196 0.8717097 -0.36107403 86 86 86 255
0.08606431 -0.26499987 1.6298145E-07 -0.33128196 0.8717097 -0.36107403 86 86 86 255
0.08606431 -0.18701711 0.18826732 -0.33128196 0.8717097 -0.36107403 86 86 86 255
0.22000009 -0.20908746 1.6298145E-07 -0.33128196 0.8717097 -0.36107403 86 86 86 255
-0.22033006 0.21158755 1.6298145E-07 0.33128196 -0.8717097 0.36107403 86 86 86 255
-0.086394325 0.18951724 -0.18826705 0.33128196 -0.8717097 0.36107403 86 86 86 255
-0.086394325 0.26750004 1.6298145E-07 0.33128196 -0.8717097 0.36107403 86 86 86 255
-0.22033006 0.14998114 -0.1487309 0.33128196 -0.8717097 0.36107403 86 86 86 255
-0.086394325 0.18951724 -0.18826705 -8.661914E-13 -0.38268337 0.9238795 86 86 86 255
0.08606431 0.001250091 -0.2662498 -8.661914E-13 -0.38268337 0.9238795 86 86 86 255
0.08606431 0.18951724 -0.18826705 -8.661914E-13 -0.38268337 0.9238795 86 86 86 255
-0.086394325 0.001250091 -0.2662498 -8.661914E-13 -0.38268337 0.9238795 86 86 86 255
0.08606431 0.18951724 -0.18826705 -0.33128196 -0.8717097 0.36107403 86 86 86 255
0.22000009 0.21158755 1.6298145E-07 -0.33128196 -0.8717097 0.36107403 86 86 86 255
0.08606431 0.26750004 1.6298145E-07 -0.33128196 -0.8717097 0.36107403 86 86 86 255
0.22000009 0.14998114 -0.1487309 -0.33128196 -0.8717097 0.36107403 86 86 86 255
-0.086394325 0.001250091 -0.2662498 8.657495E-13 0.38268337 0.9238795 86 86 86 255
0.08606431 -0.18701711 -0.18826705 8.657495E-13 0.38268337 0.9238795 86 86 86 255
0.08606431 0.001250091 -0.2662498 8.657495E-13 0.38268337 0.9238795 86 86 86 255
-0.086394325 -0.18701711 -0.18826705 8.657495E-13 0.38268337 0.9238795 86 86 86 255
-0.086394325 -0.18701711 -0.18826705 0.33128196 0.8717097 0.36107403 86 86 86 255
-0.22033006 -0.20908746 1.6298145E-07 0.33128196 0.8717097 0.36107403 86 86 86 255
-0.086394325 -0.26499987 1.6298145E-07 0.33128196 0.8717097 0.36107403 86 86 86 255
-0.22033006 -0.14748098 -0.1487309 0.33128196 0.8717097 0.36107403 86 86 86 255
0.22000009 -0.14748098 -0.1487309 -0.33128196 0.8717097 0.36107403 86 86 86 255
0.08606431 -0.26499987 1.6298145E-07 -0.33128196 0.8717097 0.36107403 86 86 86 255
0.22000009 -0.20908746 1.6298145E-07 -0.33128196 0.8717097 0.36107403 86 86 86 255
0.08606431 -0.18701711 -0.18826705 -0.33128196 0.8717097 0.36107403 86 86 86 255
-0.086394325 0.18951724 -0.18826705 0.33128193 -0.361074 0.87170964 86 86 86 255
-0.22033006 0.001250091 -0.21033739 0.33128193 -0.361074 0.87170964 86 86 86 255
-0.086394325 0.001250091 -0.2662498 0.33128193 -0.361074 0.87170964 86 86 86 255
-0.22033006 0.14998114 -0.1487309 0.33128193 -0.361074 0.87170964 86 86 86 255
0.22000009 0.14998114 -0.1487309 -0.33128193 -0.361074 0.87170964 86 86 86 255
0.08606431 0.001250091 -0.2662498 -0.33128193 -0.361074 0.87170964 86 86 86 255
0.22000009 0.001250091 -0.21033739 -0.33128193 -0.361074 0.87170964 86 86 86 255
0.08606431 0.18951724 -0.18826705 -0.33128193 -0.361074 0.87170964 86 86 86 255
-0.22033006 0.001250091 -0.21033739 0.33128193 0.361074 0.87170964 86 86 86 255
-0.086394325 -0.18701711 -0.18826705 0.33128193 0.361074 0.87170964 86 86 86 255
-0.086394325 0.001250091 -0.2662498 0.33128193 0.361074 0.87170964 86 86 86 255
-0.22033006 -0.14748098 -0.1487309 0.33128193 0.361074 0.87170964 86 86 86 255
0.08606431 0.001250091 -0.2662498 -0.33128193 0.361074 0.87170964 86 86 86 255
0.22000009 -0.14748098 -0.1487309 -0.33128193 0.361074 0.87170964 86 86 86 255
0.22000009 0.001250091 -0.21033739 -0.33128193 0.361074 0.87170964 86 86 86 255
0.08606431 -0.18701711 -0.18826705 -0.33128193 0.361074 0.87170964 86 86 86 255
-0.00016505364 0.13125 0.34499997 0.3826834 -0.9238795 -1.3622419E-14 86 86 86 255
-0.08639437 0.09553263 0.22719686 0.3826834 -0.9238795 -1.3622419E-14 86 86 86 255
-0.00016505364 0.13125 0.21240224 0.3826834 -0.9238795 -1.3622419E-14 86 86 86 255
-0.092088945 0.0931739 0.34499997 0.3826834 -0.9238795 -1.3622419E-14 86 86 86 255
-0.092088945 0.0931739 0.22579664 0.3826834 -0.9238795 -1.3622419E-14 86 86 86 255
-0.092088945 0.0931739 0.22579664 0.9238795 -0.3826834 6.029738E-15 86 86 86 255
-0.13016504 0.0012500095 0.34499997 0.9238795 -0.3826834 6.029738E-15 86 86 86 255
-0.13016504 0.0012500095 0.2479776 0.9238795 -0.3826834 6.029738E-15 86 86 86 255
-0.092088945 0.0931739 0.34499997 0.9238795 -0.3826834 6.029738E-15 86 86 86 255
0.09175881 0.0931739 0.34499997 -0.3826834 -0.9238795 -5.3643088E-15 86 86 86 255
0.086064264 0.09553263 0.22719686 -0.3826834 -0.9238795 -5.3643088E-15 86 86 86 255
0.09175881 0.0931739 0.22579664 -0.3826834 -0.9238795 -5.3643088E-15 86 86 86 255
-0.00016505364 0.13125 0.34499997 -0.3826834 -0.9238795 -5.3643088E-15 86 86 86 255
-0.00016505364 0.13125 0.21240224 -0.3826834 -0.9238795 -5.3643088E-15 86 86 86 255
-0.13016504 0.0012500095 0.2479776 0.9238795 0.3826834 -5.948606E-09 86 86 86 255
-0.092088945 -0.09067386 0.34499997 0.9238795 0.3826834 -5.948606E-09 86 86 86 255
-0.092088945 -0.09067386 0.22579664 0.9238795 0.3826834 -5.948606E-09 86 86 86 255
-0.13016504 0.0012500095 0.34499997 0.9238795 0.3826834 -5.948606E-09 86 86 86 255
0.12983494 0.0012500095 0.34499997 -0.9238795 -0.3826834 1.4876149E-09 86 86 86 255
0.09175881 0.0931739 0.22579664 -0.9238795 -0.3826834 1.4876149E-09 86 86 86 255
0.12983494 0.0012500095 0.2479776 -0.9238795 -0.3826834 1.4876149E-09 86 86 86 255
0.09175881 0.0931739 0.34499997 -0.9238795 -0.3826834 1.4876149E-09 86 86 86 255
-0.092088945 -0.09067386 0.34499997 0.3826834 0.9238795 3.928952E-15 86 86 86 255
-0.08639437 -0.09303263 0.22719686 0.3826834 0.9238795 3.928952E-15 86 86 86 255
-0.092088945 -0.09067386 0.22579664 0.3826834 0.9238795 3.928952E-15 86 86 86 255
-0.00016505364 -0.12874998 0.34499997 0.3826834 0.9238795 3.928952E-15 86 86 86 255
-0.00016505364 -0.12874998 0.21240224 0.3826834 0.9238795 3.928952E-15 86 86 86 255
0.12983494 0.0012500095 0.34499997 -0.9238795 0.3826834 -1.4876149E-09 86 86 86 255
0.09175881 -0.09067386 0.22579664 -0.9238795 0.3826834 -1.4876149E-09 86 86 86 255
0.09175881 -0.09067386 0.34499997 -0.9238795 0.3826834 -1.4876149E-09 86 86 86 255
0.12983494 0.0012500095 0.2479776 -0.9238795 0.3826834 -1.4876149E-09 86 86 86 255
-0.00016505364 -0.12874998 0.34499997 -0.3826834 0.9238795 1.3784039E-14 86 86 86 255
0.086064264 -0.09303263 0.22719686 -0.3826834 0.9238795 1.3784039E-14 86 86 86 255
-0.00016505364 -0.12874998 0.21240224 -0.3826834 0.9238795 1.3784039E-14 86 86 86 255
0.09175881 -0.09067386 0.34499997 -0.3826834 0.9238795 1.3784039E-14 86 86 86 255
0.09175881 -0.09067386 0.22579664 -0.3826834 0.9238795 1.3784039E-14 86 86 86 255
0.09175881 -0.09067386 0.375 0 -4.045777E-15 -1 58 58 58 255
0.11359905 0.0012500095 0.375 0 -4.045777E-15 -1 58 58 58 255
0.12983494 0.0012500095 0.375 0 -4.045777E-15 -1 58 58 58 255
0.080278315 -0.07919336 0.375 0 -4.045777E-15 -1 58 58 58 255
-0.00016505364 -0.12874998 0.375 0 -4.045777E-15 -1 58 58 58 255
-0.00016505364 -0.11251409 0.375 0 -4.045777E-15 -1 58 58 58 255
-0.092088945 -0.09067386 0.375 0 -4.045777E-15 -1 58 58 58 255
-0.08060841 -0.07919336 0.375 0 -4.045777E-15 -1 58 58 58 255
-0.11392913 0.0012500095 0.375 0 -4.045777E-15 -1 58 58 58 255
-0.13016504 0.0012500095 0.375 0 -4.045777E-15 -1 58 58 58 255
0.09175881 0.0931739 0.375 0 -4.045777E-15 -1 58 58 58 255
0.080278315 0.081693366 0.375 0 -4.045777E-15 -1 58 58 58 255
-0.00016505364 0.13125 0.375 0 -4.045777E-15 -1 58 58 58 255
-0.00016505364 0.11501409 0.375 0 -4.045777E-15 -1 58 58 58 255
-0.08060841 0.081693366 0.375 0 -4.045777E-15 -1 58 58 58 255
-0.092088945 0.0931739 0.375 0 -4.045777E-15 -1 58 58 58 255
-0.00016505364 0.13125 0.375 0.3826834 -0.9238795 3.737811E-15 58 58 58 255
-0.092088945 0.0931739 0.34499997 0.3826834 -0.9238795 3.737811E-15 58 58 58 255
-0.00016505364 0.13125 0.34499997 0.3826834 -0.9238795 3.737811E-15 58 58 58 255
-0.092088945 0.0931739 0.375 0.3826834 -0.9238795 3.737811E-15 58 58 58 255
0.09175881 0.0931739 0.34499997 -0.3826834 -0.9238795 3.737811E-15 58 58 58 255
-0.00016505364 0.13125 0.375 -0.3826834 -0.9238795 3.737811E-15 58 58 58 255
-0.00016505364 0.13125 0.34499997 -0.3826834 -0.9238795 3.737811E-15 58 58 58 255
0.09175881 0.0931739 0.375 -0.3826834 -0.9238795 3.737811E-15 58 58 58 255
0.09175881 0.0931739 0.375 -0.9238795 -0.3826834 1.548252E-15 58 58 58 255
0.12983494 0.0012500095 0.34499997 -0.9238795 -0.3826834 1.548252E-15 58 58 58 255
0.12983494 0.0012500095 0.375 -0.9238795 -0.3826834 1.548252E-15 58 58 58 255
0.09175881 0.0931739 0.34499997 -0.9238795 -0.3826834 1.548252E-15 58 58 58 255
0.12983494 0.0012500095 0.375 -0.9238795 0.3826834 -1.548252E-15 58 58 58 255
0.09175881 -0.09067386 0.34499997 -0.9238795 0.3826834 -1.548252E-15 58 58 58 255
0.09175881 -0.09067386 0.375 -0.9238795 0.3826834 -1.548252E-15 58 58 58 255
0.12983494 0.0012500095 0.34499997 -0.9238795 0.3826834 -1.548252E-15 58 58 58 255
-0.00016505364 -0.12874998 0.34499997 -0.3826834 0.9238795 -3.737811E-15 58 58 58 255
0.09175881 -0.09067386 0.375 -0.3826834 0.9238795 -3.737811E-15 58 58 58 255
0.09175881 -0.09067386 0.34499997 -0.3826834 0.9238795 -3.737811E-15 58 58 58 255
-0.00016505364 -0.12874998 0.375 -0.3826834 0.9238795 -3.737811E-15 58 58 58 255
-0.092088945 -0.09067386 0.375 0.3826834 0.9238795 -3.737811E-15 58 58 58 255
-0.00016505364 -0.12874998 0.34499997 0.3826834 0.9238795 -3.737811E-15 58 58 58 255
-0.092088945 -0.09067386 0.34499997 0.3826834 0.9238795 -3.737811E-15 58 58 58 255
-0.00016505364 -0.12874998 0.375 0.3826834 0.9238795 -3.737811E-15 58 58 58 255
-0.13016504 0.0012500095 0.34499997 0.9238795 0.3826834 -1.548252E-15 58 58 58 255
-0.092088945 -0.09067386 0.375 0.9238795 0.3826834 -1.548252E-15 58 58 58 255
-0.092088945 -0.09067386 0.34499997 0.9238795 0.3826834 -1.548252E-15 58 58 58 255
-0.13016504 0.0012500095 0.375 0.9238795 0.3826834 -1.548252E-15 58 58 58 255
-0.092088945 0.0931739 0.34499997 0.9238795 -0.3826834 1.548252E-15 58 58 58 255
-0.13016504 0.0012500095 0.375 0.9238795 -0.3826834 1.548252E-15 58 58 58 255
-0.13016504 0.0012500095 0.34499997 0.9238795 -0.3826834 1.548252E-15 58 58 58 255
-0.092088945 0.0931739 0.375 0.9238795 -0.3826834 1.548252E-15 58 58 58 255
0.080278315 -0.07919336 0.355 0 -4.623171E-15 -1 86 86 86 255
0.080278315 0.081693366 0.355 0 -4.623171E-15 -1 86 86 86 255
0.11359905 0.0012500095 0.355 0 -4.623171E-15 -1 86 86 86 255
0.070303366 0.0012500095 0.355 0 -4.623171E-15 -1 86 86 86 255
0.049663655 -0.0485787 0.355 0 -4.623171E-15 -1 86 86 86 255
-0.00016505364 -0.11251409 0.355 0 -4.623171E-15 -1 86 86 86 255
-0.00016505364 -0.06921841 0.355 0 -4.623171E-15 -1 86 86 86 255
-0.08060841 -0.07919336 0.355 0 -4.623171E-15 -1 86 86 86 255
-0.049993757 -0.0485787 0.355 0 -4.623171E-15 -1 86 86 86 255
-0.070633486 0.0012500095 0.355 0 -4.623171E-15 -1 86 86 86 255
0.049663655 0.051078714 0.355 0 -4.623171E-15 -1 86 86 86 255
-0.00016505364 0.11501409 0.355 0 -4.623171E-15 -1 86 86 86 255
-0.00016505364 0.07171844 0.355 0 -4.623171E-15 -1 86 86 86 255
-0.049993757 0.051078714 0.355 0 -4.623171E-15 -1 86 86 86 255
-0.08060841 0.081693366 0.355 0 -4.623171E-15 -1 86 86 86 255
-0.11392913 0.0012500095 0.355 0 -4.623171E-15 -1 86 86 86 255
-0.08060841 0.081693366 0.355 -0.3826834 0.9238795 -4.271253E-15 58 58 58 255
-0.00016505364 0.11501409 0.375 -0.3826834 0.9238795 -4.271253E-15 58 58 58 255
-0.00016505364 0.11501409 0.355 -0.3826834 0.9238795 -4.271253E-15 58 58 58 255
-0.08060841 0.081693366 0.375 -0.3826834 0.9238795 -4.271253E-15 58 58 58 255
-0.00016505364 0.11501409 0.375 0.3826834 0.9238795 -4.271253E-15 58 58 58 255
0.080278315 0.081693366 0.355 0.3826834 0.9238795 -4.271253E-15 58 58 58 255
-0.00016505364 0.11501409 0.355 0.3826834 0.9238795 -4.271253E-15 58 58 58 255
0.080278315 0.081693366 0.375 0.3826834 0.9238795 -4.271253E-15 58 58 58 255
-0.08060841 0.081693366 0.375 -0.9238795 0.3826834 -1.7692111E-15 58 58 58 255
-0.11392913 0.0012500095 0.355 -0.9238795 0.3826834 -1.7692111E-15 58 58 58 255
-0.11392913 0.0012500095 0.375 -0.9238795 0.3826834 -1.7692111E-15 58 58 58 255
-0.08060841 0.081693366 0.355 -0.9238795 0.3826834 -1.7692111E-15 58 58 58 255
0.080278315 0.081693366 0.355 0.9238795 0.3826834 -1.7692111E-15 58 58 58 255
0.11359905 0.0012500095 0.375 0.9238795 0.3826834 -1.7692111E-15 58 58 58 255
0.11359905 0.0012500095 0.355 0.9238795 0.3826834 -1.7692111E-15 58 58 58 255
0.080278315 0.081693366 0.375 0.9238795 0.3826834 -1.7692111E-15 58 58 58 255
-0.11392913 0.0012500095 0.375 -0.9238795 -0.3826834 1.7692111E-15 58 58 58 255
-0.08060841 -0.07919336 0.355 -0.9238795 -0.3826834 1.7692111E-15 58 58 58 255
-0.08060841 -0.07919336 0.375 -0.9238795 -0.3826834 1.7692111E-15 58 58 58 255
-0.11392913 0.0012500095 0.355 -0.9238795 -0.3826834 1.7692111E-15 58 58 58 255
0.11359905 0.0012500095 0.355 0.9238795 -0.3826834 1.7692111E-15 58 58 58 255
0.080278315 -0.07919336 0.375 0.9238795 -0.3826834 1.7692111E-15 58 58 58 255
0.080278315 -0.07919336 0.355 0.9238795 -0.3826834 1.7692111E-15 58 58 58 255
0.11359905 0.0012500095 0.375 0.9238795 -0.3826834 1.7692111E-15 58 58 58 255
-0.00016505364 -0.11251409 0.355 -0.3826834 -0.9238795 4.271253E-15 58 58 58 255
-0.08060841 -0.07919336 0.375 -0.3826834 -0.9238795 4.271253E-15 58 58 58 255
-0.08060841 -0.07919336 0.355 -0.3826834 -0.9238795 4.271253E-15 58 58 58 255
-0.00016505364 -0.11251409 0.375 -0.3826834 -0.9238795 4.271253E-15 58 58 58 255
0.080278315 -0.07919336 0.375 0.3826834 -0.9238795 4.271253E-15 58 58 58 255
-0.00016505364 -0.11251409 0.355 0.3826834 -0.9238795 4.271253E-15 58 58 58 255
0.080278315 -0.07919336 0.355 0.3826834 -0.9238795 4.271253E-15 58 58 58 255
-0.00016505364 -0.11251409 0.375 0.3826834 -0.9238795 4.271253E-15 58 58 58 255
0.049663655 -0.0485787 0.343 -9.054915E-16 -5.277591E-15 -1 86 86 86 255
0.049663655 0.051078714 0.343 -9.054915E-16 -5.277591E-15 -1 86 86 86 255
0.070303366 0.0012500095 0.343 -9.054915E-16 -5.277591E-15 -1 86 86 86 255
-0.00016505364 -0.06921841 0.343 -9.054915E-16 -5.277591E-15 -1 86 86 86 255
0.027007692 0.0012500095 0.343 -9.054915E-16 -5.277591E-15 -1 86 86 86 255
0.019048981 -0.017964024 0.343 -9.054915E-16 -5.277591E-15 -1 86 86 86 255
-0.00016505364 -0.025922734 0.343 -9.054915E-16 -5.277591E-15 -1 86 86 86 255
-0.049993757 -0.0485787 0.343 -9.054915E-16 -5.277591E-15 -1 86 86 86 255
-0.019379089 -0.017964024 0.343 -9.054915E-16 -5.277591E-15 -1 86 86 86 255
-0.027337786 0.0012500095 0.343 -9.054915E-16 -5.277591E-15 -1 86 86 86 255
-0.00016505364 0.07171844 0.343 -9.054915E-16 -5.277591E-15 -1 86 86 86 255
0.019048981 0.020464044 0.343 -9.054915E-16 -5.277591E-15 -1 86 86 86 255
-0.00016505364 0.028422743 0.343 -9.054915E-16 -5.277591E-15 -1 86 86 86 255
-0.019379089 0.020464044 0.343 -9.054915E-16 -5.277591E-15 -1 86 86 86 255
-0.049993757 0.051078714 0.343 -9.054915E-16 -5.277591E-15 -1 86 86 86 255
-0.070633486 0.0012500095 0.343 -9.054915E-16 -5.277591E-15 -1 86 86 86 255
-0.049993757 0.051078714 0.343 -0.3826834 0.9238795 -4.5293405E-15 86 86 86 255
-0.00016505364 0.07171844 0.355 -0.3826834 0.9238795 -4.5293405E-15 86 86 86 255
-0.00016505364 0.07171844 0.343 -0.3826834 0.9238795 -4.5293405E-15 86 86 86 255
-0.049993757 0.051078714 0.355 -0.3826834 0.9238795 -4.5293405E-15 86 86 86 255
-0.00016505364 0.07171844 0.355 0.3826834 0.9238795 -5.222375E-15 86 86 86 255
0.049663655 0.051078714 0.343 0.3826834 0.9238795 -5.222375E-15 86 86 86 255
-0.00016505364 0.07171844 0.343 0.3826834 0.9238795 -5.222375E-15 86 86 86 255
0.049663655 0.051078714 0.355 0.3826834 0.9238795 -5.222375E-15 86 86 86 255
0.049663655 0.051078714 0.343 0.9238795 0.3826834 -2.8562123E-15 86 86 86 255
0.070303366 0.0012500095 0.355 0.9238795 0.3826834 -2.8562123E-15 86 86 86 255
0.070303366 0.0012500095 0.343 0.9238795 0.3826834 -2.8562123E-15 86 86 86 255
0.049663655 0.051078714 0.355 0.9238795 0.3826834 -2.8562123E-15 86 86 86 255
0.070303366 0.0012500095 0.343 0.9238795 -0.3826834 1.1830819E-15 86 86 86 255
0.049663655 -0.0485787 0.355 0.9238795 -0.3826834 1.1830819E-15 86 86 86 255
0.049663655 -0.0485787 0.343 0.9238795 -0.3826834 1.1830819E-15 86 86 86 255
0.070303366 0.0012500095 0.355 0.9238795 -0.3826834 1.1830819E-15 86 86 86 255
0.049663655 -0.0485787 0.355 0.3826834 -0.9238795 4.5293405E-15 86 86 86 255
-0.00016505364 -0.06921841 0.343 0.3826834 -0.9238795 4.5293405E-15 86 86 86 255
0.049663655 -0.0485787 0.343 0.3826834 -0.9238795 4.5293405E-15 86 86 86 255
-0.00016505364 -0.06921841 0.355 0.3826834 -0.9238795 4.5293405E-15 86 86 86 255
-0.00016505364 -0.06921841 0.355 -0.3826834 -0.9238795 5.222375E-15 86 86 86 255
-0.049993757 -0.0485787 0.343 -0.3826834 -0.9238795 5.222375E-15 86 86 86 255
-0.00016505364 -0.06921841 0.343 -0.3826834 -0.9238795 5.222375E-15 86 86 86 255
-0.049993757 -0.0485787 0.355 -0.3826834 -0.9238795 5.222375E-15 86 86 86 255
-0.070633486 0.0012500095 0.355 -0.9238795 -0.3826834 2.8562123E-15 86 86 86 255
-0.049993757 -0.0485787 0.343 -0.9238795 -0.3826834 2.8562123E-15 86 86 86 255
-0.049993757 -0.0485787 0.355 -0.9238795 -0.3826834 2.8562123E-15 86 86 86 255
-0.070633486 0.0012500095 0.343 -0.9238795 -0.3826834 2.8562123E-15 86 86 86 255
-0.049993757 0.051078714 0.355 -0.9238795 0.3826834 -1.1830819E-15 86 86 86 255
-0.070633486 0.0012500095 0.343 -0.9238795 0.3826834 -1.1830819E-15 86 86 86 255
-0.070633486 0.0012500095 0.355 -0.9238795 0.3826834 -1.1830819E-15 86 86 86 255
-0.049993757 0.051078714 0.343 -0.9238795 0.3826834 -1.1830819E-15 86 86 86 255
0.019048981 -0.017964024 0.337 0 -3.320936E-15 -1 30 30 30 255
0.019048981 0.020464044 0.337 0 -3.320936E-15 -1 30 30 30 255
0.027007692 0.0012500095 0.337 0 -3.320936E-15 -1 30 30 30 255
-0.00016505364 -0.025922734 0.337 0 -3.320936E-15 -1 30 30 30 255
-0.00016505364 0.028422743 0.337 0 -3.320936E-15 -1 30 30 30 255
-0.019379089 -0.017964024 0.337 0 -3.320936E-15 -1 30 30 30 255
-0.019379089 0.020464044 0.337 0 -3.320936E-15 -1 30 30 30 255
-0.027337786 0.0012500095 0.337 0 -3.320936E-15 -1 30 30 30 255
0.019048981 0.020464044 0.337 0.9238795 0.3826834 -1.270867E-15 58 58 58 255
0.027007692 0.0012500095 0.343 0.9238795 0.3826834 -1.270867E-15 58 58 58 255
0.027007692 0.0012500095 0.337 0.9238795 0.3826834 -1.270867E-15 58 58 58 255
0.019048981 0.020464044 0.343 0.9238795 0.3826834 -1.270867E-15 58 58 58 255
0.027007692 0.0012500095 0.337 0.9238795 -0.3826834 1.270867E-15 58 58 58 255
0.019048981 -0.017964024 0.343 0.9238795 -0.3826834 1.270867E-15 58 58 58 255
0.019048981 -0.017964024 0.337 0.9238795 -0.3826834 1.270867E-15 58 58 58 255
0.027007692 0.0012500095 0.343 0.9238795 -0.3826834 1.270867E-15 58 58 58 255
-0.00016505364 0.028422743 0.343 0.3826834 0.9238795 -3.068145E-15 58 58 58 255
0.019048981 0.020464044 0.337 0.3826834 0.9238795 -3.068145E-15 58 58 58 255
-0.00016505364 0.028422743 0.337 0.3826834 0.9238795 -3.068145E-15 58 58 58 255
0.019048981 0.020464044 0.343 0.3826834 0.9238795 -3.068145E-15 58 58 58 255
0.019048981 -0.017964024 0.343 0.3826834 -0.9238795 3.068145E-15 58 58 58 255
-0.00016505364 -0.025922734 0.337 0.3826834 -0.9238795 3.068145E-15 58 58 58 255
0.019048981 -0.017964024 0.337 0.3826834 -0.9238795 3.068145E-15 58 58 58 255
-0.00016505364 -0.025922734 0.343 0.3826834 -0.9238795 3.068145E-15 58 58 58 255
-0.019379089 0.020464044 0.337 -0.3826834 0.9238795 -3.068145E-15 58 58 58 255
-0.00016505364 0.028422743 0.343 -0.3826834 0.9238795 -3.068145E-15 58 58 58 255
-0.00016505364 0.028422743 0.337 -0.3826834 0.9238795 -3.068145E-15 58 58 58 255
-0.019379089 0.020464044 0.343 -0.3826834 0.9238795 -3.068145E-15 58 58 58 255
-0.00016505364 -0.025922734 0.337 -0.3826834 -0.9238795 3.068145E-15 58 58 58 255
-0.019379089 -0.017964024 0.343 -0.3826834 -0.9238795 3.068145E-15 58 58 58 255
-0.019379089 -0.017964024 0.337 -0.3826834 -0.9238795 3.068145E-15 58 58 58 255
-0.00016505364 -0.025922734 0.343 -0.3826834 -0.9238795 3.068145E-15 58 58 58 255
-0.019379089 0.020464044 0.343 -0.9238795 0.3826834 -1.270867E-15 58 58 58 255
-0.027337786 0.0012500095 0.337 -0.9238795 0.3826834 -1.270867E-15 58 58 58 255
-0.027337786 0.0012500095 0.343 -0.9238795 0.3826834 -1.270867E-15 58 58 58 255
-0.019379089 0.020464044 0.337 -0.9238795 0.3826834 -1.270867E-15 58 58 58 255
-0.027337786 0.0012500095 0.343 -0.9238795 -0.3826834 1.270867E-15 58 58 58 255
-0.019379089 -0.017964024 0.337 -0.9238795 -0.3826834 1.270867E-15 58 58 58 255
-0.019379089 -0.017964024 0.343 -0.9238795 -0.3826834 1.270867E-15 58 58 58 255
-0.027337786 0.0012500095 0.337 -0.9238795 -0.3826834 1.270867E-15 58 58 58 255
3 0 1 2
3 1 0 3
3 1 3 4
3 4 3 5
3 4 5 6
3 6 5 7
3 8 9 10
3 10 9 11
3 9 12 11
3 11 12 13
3 12 14 13
3 15 13 14

