ply
format ascii 1.0
commentY29udmVydGVyIGJ5IENvZGVMZW9wYXJk
comment Original mesh name: 'C:\Program Files (x86)\Steam\steamapps\common\Stormworks\rom\meshes\component_gun_m_bore_evacuator_a.mesh'
comment SubMesh index: 0
comment SubMesh name: 'ID28'
comment Shader: Opaque (0)
element vertex 304
property float x
property float y
property float z
property float nx
property float ny
property float nz
property uchar red
property uchar green
property uchar blue
property uchar alpha
element face 208
property list uchar ushort vertex_index
end_header
-0.043492418 0.105 -0.36 0.70710677 -0.70710677 -0 84 84 84 255
-0.105 0.043492418 0.14999996 0.70710677 -0.70710677 -0 84 84 84 255
-0.105 0.043492418 -0.36 0.70710677 -0.70710677 -0 84 84 84 255
-0.043492418 0.105 0.14999996 0.70710677 -0.70710677 -0 84 84 84 255
0.105 -0.043492418 0.14999996 0 -0 -1 84 84 84 255
0.094999984 -0.039350286 0.14999996 0 -0 -1 84 84 84 255
0.105 0.043492418 0.14999996 0 -0 -1 84 84 84 255
0.043492418 -0.105 0.14999996 0 -0 -1 84 84 84 255
0.039350286 -0.094999984 0.14999996 0 -0 -1 84 84 84 255
-0.043492418 -0.105 0.14999996 0 -0 -1 84 84 84 255
-0.039350286 -0.094999984 0.14999996 0 -0 -1 84 84 84 255
-0.094999984 -0.039350286 0.14999996 0 -0 -1 84 84 84 255
-0.105 -0.043492418 0.14999996 0 -0 -1 84 84 84 255
-0.094999984 0.039350286 0.14999996 0 -0 -1 84 84 84 255
0.094999984 0.039350286 0.14999996 0 -0 -1 84 84 84 255
0.043492418 0.105 0.14999996 0 -0 -1 84 84 84 255
0.039350286 0.094999984 0.14999996 0 -0 -1 84 84 84 255
-0.043492418 0.105 0.14999996 0 -0 -1 84 84 84 255
-0.039350286 0.094999984 0.14999996 0 -0 -1 84 84 84 255
-0.105 0.043492418 0.14999996 0 -0 -1 84 84 84 255
-0.105 0.043492418 -0.36 1 -0 -0 84 84 84 255
-0.105 -0.043492418 0.14999996 1 -0 -0 84 84 84 255
-0.105 -0.043492418 -0.36 1 -0 -0 84 84 84 255
-0.105 0.043492418 0.14999996 1 -0 -0 84 84 84 255
0.105 0.043492418 -0.36 0 -0 1 84 84 84 255
0.094999984 0.039350286 -0.36 0 -0 1 84 84 84 255
0.105 -0.043492418 -0.36 0 -0 1 84 84 84 255
0.043492418 0.105 -0.36 0 -0 1 84 84 84 255
0.039350286 0.094999984 -0.36 0 -0 1 84 84 84 255
-0.043492418 0.105 -0.36 0 -0 1 84 84 84 255
-0.039350286 0.094999984 -0.36 0 -0 1 84 84 84 255
-0.094999984 0.039350286 -0.36 0 -0 1 84 84 84 255
-0.105 0.043492418 -0.36 0 -0 1 84 84 84 255
-0.094999984 -0.039350286 -0.36 0 -0 1 84 84 84 255
0.094999984 -0.039350286 -0.36 0 -0 1 84 84 84 255
0.043492418 -0.105 -0.36 0 -0 1 84 84 84 255
0.039350286 -0.094999984 -0.36 0 -0 1 84 84 84 255
-0.043492418 -0.105 -0.36 0 -0 1 84 84 84 255
-0.039350286 -0.094999984 -0.36 0 -0 1 84 84 84 255
-0.105 -0.043492418 -0.36 0 -0 1 84 84 84 255
0.043492418 0.105 0.14999996 0 -1 -0 84 84 84 255
-0.043492418 0.105 -0.36 0 -1 -0 84 84 84 255
0.043492418 0.105 -0.36 0 -1 -0 84 84 84 255
-0.043492418 0.105 0.14999996 0 -1 -0 84 84 84 255
0.043492418 0.105 0.14999996 -0.70710677 -0.70710677 -0 84 84 84 255
0.105 0.043492418 -0.36 -0.70710677 -0.70710677 -0 84 84 84 255
0.105 0.043492418 0.14999996 -0.70710677 -0.70710677 -0 84 84 84 255
0.043492418 0.105 -0.36 -0.70710677 -0.70710677 -0 84 84 84 255
0.105 0.043492418 0.14999996 -1 -0 -0 84 84 84 255
0.105 -0.043492418 -0.36 -1 -0 -0 84 84 84 255
0.105 -0.043492418 0.14999996 -1 -0 -0 84 84 84 255
0.105 0.043492418 -0.36 -1 -0 -0 84 84 84 255
0.105 -0.043492418 0.14999996 -0.70710677 0.70710677 -0 84 84 84 255
0.043492418 -0.105 -0.36 -0.70710677 0.70710677 -0 84 84 84 255
0.043492418 -0.105 0.14999996 -0.70710677 0.70710677 -0 84 84 84 255
0.105 -0.043492418 -0.36 -0.70710677 0.70710677 -0 84 84 84 255
-0.043492418 -0.105 0.14999996 0 1 -0 84 84 84 255
0.043492418 -0.105 -0.36 0 1 -0 84 84 84 255
-0.043492418 -0.105 -0.36 0 1 -0 84 84 84 255
0.043492418 -0.105 0.14999996 0 1 -0 84 84 84 255
-0.105 -0.043492418 -0.36 0.70710677 0.70710677 -0 84 84 84 255
-0.043492418 -0.105 0.14999996 0.70710677 0.70710677 -0 84 84 84 255
-0.043492418 -0.105 -0.36 0.70710677 0.70710677 -0 84 84 84 255
-0.105 -0.043492418 0.14999996 0.70710677 0.70710677 -0 84 84 84 255
0.031066028 -0.074999996 0.16499996 0 -0 -1 84 84 84 255
0.074999996 0.031066028 0.16499996 0 -0 -1 84 84 84 255
0.074999996 -0.031066028 0.16499996 0 -0 -1 84 84 84 255
0.037078056 -0.015358234 0.16499996 0 -0 -1 84 84 84 255
0.015358234 -0.037078056 0.16499996 0 -0 -1 84 84 84 255
-0.031066028 -0.074999996 0.16499996 0 -0 -1 84 84 84 255
-0.015358234 -0.037078056 0.16499996 0 -0 -1 84 84 84 255
-0.037078056 -0.015358234 0.16499996 0 -0 -1 84 84 84 255
-0.074999996 -0.031066028 0.16499996 0 -0 -1 84 84 84 255
-0.037078056 0.015358234 0.16499996 0 -0 -1 84 84 84 255
0.037078056 0.015358234 0.16499996 0 -0 -1 84 84 84 255
0.031066028 0.074999996 0.16499996 0 -0 -1 84 84 84 255
0.015358234 0.037078056 0.16499996 0 -0 -1 84 84 84 255
-0.031066028 0.074999996 0.16499996 0 -0 -1 84 84 84 255
-0.015358234 0.037078056 0.16499996 0 -0 -1 84 84 84 255
-0.074999996 0.031066028 0.16499996 0 -0 -1 84 84 84 255
0.037078056 -0.015358234 -0.37499997 1 -0 -0 84 84 84 255
0.037078056 0.015358234 0.16499996 1 -0 -0 84 84 84 255
0.037078056 -0.015358234 0.16499996 1 -0 -0 84 84 84 255
0.037078056 0.015358234 -0.37499997 1 -0 -0 84 84 84 255
0.015358234 0.037078056 0.16499996 0.70710677 0.70710677 7.563163E-15 84 84 84 255
0.037078056 0.015358234 -0.37499997 0.70710677 0.70710677 7.563163E-15 84 84 84 255
0.015358234 0.037078056 -0.37499997 0.70710677 0.70710677 7.563163E-15 84 84 84 255
0.037078056 0.015358234 0.16499996 0.70710677 0.70710677 7.563163E-15 84 84 84 255
0.037078056 0.015358234 0.37499997 1 -0 -0 84 84 84 255
0.037078056 -0.015358234 0.37499997 1 -0 -0 84 84 84 255
0.037078056 -0.015358234 0.16499996 0.70710677 -0.70710677 1.8911379E-15 84 84 84 255
0.015358234 -0.037078056 -0.37499997 0.70710677 -0.70710677 1.8911379E-15 84 84 84 255
0.037078056 -0.015358234 -0.37499997 0.70710677 -0.70710677 1.8911379E-15 84 84 84 255
0.015358234 -0.037078056 0.16499996 0.70710677 -0.70710677 1.8911379E-15 84 84 84 255
-0.015358234 0.037078056 0.16499996 -1.687124E-30 1 5.3474922E-15 84 84 84 255
0.015358234 0.037078056 -0.37499997 -1.687124E-30 1 5.3474922E-15 84 84 84 255
-0.015358234 0.037078056 -0.37499997 -1.687124E-30 1 5.3474922E-15 84 84 84 255
0.015358234 0.037078056 0.16499996 -1.687124E-30 1 5.3474922E-15 84 84 84 255
0.015358234 0.037078056 0.37499997 0.70710677 0.70710677 -9.723044E-15 84 84 84 255
0.037078056 0.015358234 0.37499997 0.70710677 0.70710677 -9.723044E-15 84 84 84 255
0.037078056 -0.015358234 0.37499997 0.70710677 -0.70710677 -1.4583417E-14 84 84 84 255
0.015358234 -0.037078056 0.37499997 0.70710677 -0.70710677 -1.4583417E-14 84 84 84 255
0.015358234 -0.037078056 0.16499996 8.435619E-31 -1 -2.6737461E-15 84 84 84 255
-0.015358234 -0.037078056 -0.37499997 8.435619E-31 -1 -2.6737461E-15 84 84 84 255
0.015358234 -0.037078056 -0.37499997 8.435619E-31 -1 -2.6737461E-15 84 84 84 255
-0.015358234 -0.037078056 0.16499996 8.435619E-31 -1 -2.6737461E-15 84 84 84 255
-0.015358234 0.037078056 0.16499996 -0.70710677 0.70710677 1.3895208E-18 84 84 84 255
-0.037078056 0.015358234 -0.37499997 -0.70710677 0.70710677 1.3895208E-18 84 84 84 255
-0.037078056 0.015358234 0.16499996 -0.70710677 0.70710677 1.3895208E-18 84 84 84 255
-0.015358234 0.037078056 -0.37499997 -0.70710677 0.70710677 1.3895208E-18 84 84 84 255
-0.015358234 0.037078056 0.37499997 0 1 -0 84 84 84 255
0.015358234 0.037078056 0.37499997 0 1 -0 84 84 84 255
0.015358234 -0.037078056 0.37499997 -1.487963E-31 -1 -6.8753457E-15 84 84 84 255
-0.015358234 -0.037078056 0.37499997 -1.487963E-31 -1 -6.8753457E-15 84 84 84 255
-0.037078056 -0.015358234 0.16499996 -0.70710677 -0.70710677 -5.6706353E-15 84 84 84 255
-0.015358234 -0.037078056 -0.37499997 -0.70710677 -0.70710677 -5.6706353E-15 84 84 84 255
-0.015358234 -0.037078056 0.16499996 -0.70710677 -0.70710677 -5.6706353E-15 84 84 84 255
-0.037078056 -0.015358234 -0.37499997 -0.70710677 -0.70710677 -5.6706353E-15 84 84 84 255
-0.037078056 0.015358234 0.16499996 -1 -0 -0 84 84 84 255
-0.037078056 -0.015358234 -0.37499997 -1 -0 -0 84 84 84 255
-0.037078056 -0.015358234 0.16499996 -1 -0 -0 84 84 84 255
-0.037078056 0.015358234 -0.37499997 -1 -0 -0 84 84 84 255
-0.015358234 0.037078056 0.37499997 -0.70710677 0.70710677 9.723044E-15 84 84 84 255
-0.037078056 0.015358234 0.37499997 -0.70710677 0.70710677 9.723044E-15 84 84 84 255
-0.015358234 -0.037078056 0.37499997 -0.70710677 -0.70710677 4.86267E-15 84 84 84 255
-0.037078056 -0.015358234 0.37499997 -0.70710677 -0.70710677 4.86267E-15 84 84 84 255
-0.037078056 0.015358234 0.37499997 -1 -0 -0 84 84 84 255
-0.037078056 -0.015358234 0.37499997 -1 -0 -0 84 84 84 255
-0.074999996 -0.031066028 0.365 0.7071059 -3.761516E-18 -0.7071077 84 84 84 255
-0.06499999 0.026923873 0.37499997 0.7071059 -3.761516E-18 -0.7071077 84 84 84 255
-0.06499999 -0.026923873 0.37499997 0.7071059 -3.761516E-18 -0.7071077 84 84 84 255
-0.074999996 0.031066028 0.365 0.7071059 -3.761516E-18 -0.7071077 84 84 84 255
-0.074999996 0.031066028 0.16499996 1 -0 -0 84 84 84 255
-0.074999996 -0.031066028 0.365 1 -0 -0 84 84 84 255
-0.074999996 -0.031066028 0.16499996 1 -0 -0 84 84 84 255
-0.074999996 0.031066028 0.365 1 -0 -0 84 84 84 255
-0.06499999 0.026923873 0.37499997 0.49999902 -0.49999902 -0.70710814 84 84 84 255
-0.031066028 0.074999996 0.365 0.49999902 -0.49999902 -0.70710814 84 84 84 255
-0.026923873 0.06499999 0.37499997 0.49999902 -0.49999902 -0.70710814 84 84 84 255
-0.074999996 0.031066028 0.365 0.49999902 -0.49999902 -0.70710814 84 84 84 255
0.026923873 -0.06499999 0.37499997 0 -0 -1 84 84 84 255
0.06499999 0.026923873 0.37499997 0 -0 -1 84 84 84 255
0.06499999 -0.026923873 0.37499997 0 -0 -1 84 84 84 255
0.037078056 -0.015358234 0.37499997 0 -0 -1 84 84 84 255
0.015358234 -0.037078056 0.37499997 0 -0 -1 84 84 84 255
-0.026923873 -0.06499999 0.37499997 0 -0 -1 84 84 84 255
-0.015358234 -0.037078056 0.37499997 0 -0 -1 84 84 84 255
-0.037078056 -0.015358234 0.37499997 0 -0 -1 84 84 84 255
-0.06499999 -0.026923873 0.37499997 0 -0 -1 84 84 84 255
-0.037078056 0.015358234 0.37499997 0 -0 -1 84 84 84 255
0.037078056 0.015358234 0.37499997 0 -0 -1 84 84 84 255
0.026923873 0.06499999 0.37499997 0 -0 -1 84 84 84 255
0.015358234 0.037078056 0.37499997 0 -0 -1 84 84 84 255
-0.026923873 0.06499999 0.37499997 0 -0 -1 84 84 84 255
-0.015358234 0.037078056 0.37499997 0 -0 -1 84 84 84 255
-0.06499999 0.026923873 0.37499997 0 -0 -1 84 84 84 255
-0.031066028 -0.074999996 0.365 0.49999902 0.49999902 -0.70710814 84 84 84 255
-0.06499999 -0.026923873 0.37499997 0.49999902 0.49999902 -0.70710814 84 84 84 255
-0.026923873 -0.06499999 0.37499997 0.49999902 0.49999902 -0.70710814 84 84 84 255
-0.074999996 -0.031066028 0.365 0.49999902 0.49999902 -0.70710814 84 84 84 255
-0.031066028 -0.074999996 0.16499996 0.70710677 0.70710677 2.5526598E-15 84 84 84 255
-0.074999996 -0.031066028 0.365 0.70710677 0.70710677 2.5526598E-15 84 84 84 255
-0.031066028 -0.074999996 0.365 0.70710677 0.70710677 2.5526598E-15 84 84 84 255
-0.074999996 -0.031066028 0.16499996 0.70710677 0.70710677 2.5526598E-15 84 84 84 255
-0.031066028 0.074999996 0.16499996 0.70710677 -0.70710677 -2.5475956E-15 84 84 84 255
-0.074999996 0.031066028 0.365 0.70710677 -0.70710677 -2.5475956E-15 84 84 84 255
-0.074999996 0.031066028 0.16499996 0.70710677 -0.70710677 -2.5475956E-15 84 84 84 255
-0.031066028 0.074999996 0.365 0.70710677 -0.70710677 -2.5475956E-15 84 84 84 255
0.026923873 0.06499999 0.37499997 0 -0.7071059 -0.7071077 84 84 84 255
-0.031066028 0.074999996 0.365 0 -0.7071059 -0.7071077 84 84 84 255
0.031066028 0.074999996 0.365 0 -0.7071059 -0.7071077 84 84 84 255
-0.026923873 0.06499999 0.37499997 0 -0.7071059 -0.7071077 84 84 84 255
0.06499999 0.026923873 0.37499997 -0.49999902 -0.49999902 -0.70710814 84 84 84 255
0.031066028 0.074999996 0.365 -0.49999902 -0.49999902 -0.70710814 84 84 84 255
0.074999996 0.031066028 0.365 -0.49999902 -0.49999902 -0.70710814 84 84 84 255
0.026923873 0.06499999 0.37499997 -0.49999902 -0.49999902 -0.70710814 84 84 84 255
0.06499999 -0.026923873 0.37499997 -0.7071059 -1.533864E-20 -0.7071077 84 84 84 255
0.074999996 0.031066028 0.365 -0.7071059 -1.533864E-20 -0.7071077 84 84 84 255
0.074999996 -0.031066028 0.365 -0.7071059 -1.533864E-20 -0.7071077 84 84 84 255
0.06499999 0.026923873 0.37499997 -0.7071059 -1.533864E-20 -0.7071077 84 84 84 255
0.031066028 -0.074999996 0.365 -0.49999902 0.49999902 -0.70710814 84 84 84 255
0.06499999 -0.026923873 0.37499997 -0.49999902 0.49999902 -0.70710814 84 84 84 255
0.074999996 -0.031066028 0.365 -0.49999902 0.49999902 -0.70710814 84 84 84 255
0.026923873 -0.06499999 0.37499997 -0.49999902 0.49999902 -0.70710814 84 84 84 255
-0.031066028 -0.074999996 0.365 0 0.7071059 -0.7071077 84 84 84 255
0.026923873 -0.06499999 0.37499997 0 0.7071059 -0.7071077 84 84 84 255
0.031066028 -0.074999996 0.365 0 0.7071059 -0.7071077 84 84 84 255
-0.026923873 -0.06499999 0.37499997 0 0.7071059 -0.7071077 84 84 84 255
-0.031066028 -0.074999996 0.365 0 1 7.219113E-15 84 84 84 255
0.031066028 -0.074999996 0.16499996 0 1 7.219113E-15 84 84 84 255
-0.031066028 -0.074999996 0.16499996 0 1 7.219113E-15 84 84 84 255
0.031066028 -0.074999996 0.365 0 1 7.219113E-15 84 84 84 255
0.031066028 0.074999996 0.365 0 -1 -7.219113E-15 84 84 84 255
-0.031066028 0.074999996 0.16499996 0 -1 -7.219113E-15 84 84 84 255
0.031066028 0.074999996 0.16499996 0 -1 -7.219113E-15 84 84 84 255
-0.031066028 0.074999996 0.365 0 -1 -7.219113E-15 84 84 84 255
0.031066028 0.074999996 0.365 -0.70710677 -0.70710677 -2.5475956E-15 84 84 84 255
0.074999996 0.031066028 0.16499996 -0.70710677 -0.70710677 -2.5475956E-15 84 84 84 255
0.074999996 0.031066028 0.365 -0.70710677 -0.70710677 -2.5475956E-15 84 84 84 255
0.031066028 0.074999996 0.16499996 -0.70710677 -0.70710677 -2.5475956E-15 84 84 84 255
0.074999996 0.031066028 0.365 -1 -0 -0 84 84 84 255
0.074999996 -0.031066028 0.16499996 -1 -0 -0 84 84 84 255
0.074999996 -0.031066028 0.365 -1 -0 -0 84 84 84 255
0.074999996 0.031066028 0.16499996 -1 -0 -0 84 84 84 255
0.074999996 -0.031066028 0.365 -0.70710677 0.70710677 2.5526598E-15 84 84 84 255
0.031066028 -0.074999996 0.16499996 -0.70710677 0.70710677 2.5526598E-15 84 84 84 255
0.031066028 -0.074999996 0.365 -0.70710677 0.70710677 2.5526598E-15 84 84 84 255
0.074999996 -0.031066028 0.16499996 -0.70710677 0.70710677 2.5526598E-15 84 84 84 255
-0.039350286 0.094999984 -0.37499997 0.70710677 -0.70710677 1.1255149E-16 84 84 84 255
-0.094999984 0.039350286 -0.36 0.70710677 -0.70710677 1.1255149E-16 84 84 84 255
-0.094999984 0.039350286 -0.37499997 0.70710677 -0.70710677 1.1255149E-16 84 84 84 255
-0.039350286 0.094999984 -0.36 0.70710677 -0.70710677 1.1255149E-16 84 84 84 255
-0.094999984 0.039350286 -0.37499997 1 -0 -0 84 84 84 255
-0.094999984 -0.039350286 -0.36 1 -0 -0 84 84 84 255
-0.094999984 -0.039350286 -0.37499997 1 -0 -0 84 84 84 255
-0.094999984 0.039350286 -0.36 1 -0 -0 84 84 84 255
0.039350286 0.094999984 -0.37499997 0 -0 1 84 84 84 255
0.094999984 -0.039350286 -0.37499997 0 -0 1 84 84 84 255
0.094999984 0.039350286 -0.37499997 0 -0 1 84 84 84 255
0.039350286 -0.094999984 -0.37499997 0 -0 1 84 84 84 255
0.037078056 0.015358234 -0.37499997 0 -0 1 84 84 84 255
-0.039350286 0.094999984 -0.37499997 0 -0 1 84 84 84 255
0.015358234 0.037078056 -0.37499997 0 -0 1 84 84 84 255
-0.015358234 0.037078056 -0.37499997 0 -0 1 84 84 84 255
-0.037078056 0.015358234 -0.37499997 0 -0 1 84 84 84 255
-0.037078056 -0.015358234 -0.37499997 0 -0 1 84 84 84 255
-0.039350286 -0.094999984 -0.37499997 0 -0 1 84 84 84 255
-0.094999984 -0.039350286 -0.37499997 0 -0 1 84 84 84 255
-0.094999984 0.039350286 -0.37499997 0 -0 1 84 84 84 255
0.037078056 -0.015358234 -0.37499997 0 -0 1 84 84 84 255
0.015358234 -0.037078056 -0.37499997 0 -0 1 84 84 84 255
-0.015358234 -0.037078056 -0.37499997 0 -0 1 84 84 84 255
0.039350286 0.094999984 -0.36 0 -1 -0 84 84 84 255
-0.039350286 0.094999984 -0.37499997 0 -1 -0 84 84 84 255
0.039350286 0.094999984 -0.37499997 0 -1 -0 84 84 84 255
-0.039350286 0.094999984 -0.36 0 -1 -0 84 84 84 255
-0.094999984 -0.039350286 -0.37499997 0.70710677 0.70710677 -0 84 84 84 255
-0.039350286 -0.094999984 -0.36 0.70710677 0.70710677 -0 84 84 84 255
-0.039350286 -0.094999984 -0.37499997 0.70710677 0.70710677 -0 84 84 84 255
-0.094999984 -0.039350286 -0.36 0.70710677 0.70710677 -0 84 84 84 255
-0.039350286 -0.094999984 -0.36 0 1 -0 84 84 84 255
0.039350286 -0.094999984 -0.37499997 0 1 -0 84 84 84 255
-0.039350286 -0.094999984 -0.37499997 0 1 -0 84 84 84 255
0.039350286 -0.094999984 -0.36 0 1 -0 84 84 84 255
0.094999984 -0.039350286 -0.36 -0.70710677 0.70710677 -0 84 84 84 255
0.039350286 -0.094999984 -0.37499997 -0.70710677 0.70710677 -0 84 84 84 255
0.039350286 -0.094999984 -0.36 -0.70710677 0.70710677 -0 84 84 84 255
0.094999984 -0.039350286 -0.37499997 -0.70710677 0.70710677 -0 84 84 84 255
0.094999984 0.039350286 -0.36 -1 -0 -0 84 84 84 255
0.094999984 -0.039350286 -0.37499997 -1 -0 -0 84 84 84 255
0.094999984 -0.039350286 -0.36 -1 -0 -0 84 84 84 255
0.094999984 0.039350286 -0.37499997 -1 -0 -0 84 84 84 255
0.039350286 0.094999984 -0.36 -0.70710677 -0.70710677 -0 84 84 84 255
0.094999984 0.039350286 -0.37499997 -0.70710677 -0.70710677 -0 84 84 84 255
0.094999984 0.039350286 -0.36 -0.70710677 -0.70710677 -0 84 84 84 255
0.039350286 0.094999984 -0.37499997 -0.70710677 -0.70710677 -0 84 84 84 255
0.094999984 -0.039350286 0.16499996 0 -0 -1 84 84 84 255
0.074999996 -0.031066028 0.16499996 0 -0 -1 84 84 84 255
0.094999984 0.039350286 0.16499996 0 -0 -1 84 84 84 255
0.039350286 -0.094999984 0.16499996 0 -0 -1 84 84 84 255
0.031066028 -0.074999996 0.16499996 0 -0 -1 84 84 84 255
-0.039350286 -0.094999984 0.16499996 0 -0 -1 84 84 84 255
-0.031066028 -0.074999996 0.16499996 0 -0 -1 84 84 84 255
-0.074999996 -0.031066028 0.16499996 0 -0 -1 84 84 84 255
-0.094999984 -0.039350286 0.16499996 0 -0 -1 84 84 84 255
-0.074999996 0.031066028 0.16499996 0 -0 -1 84 84 84 255
0.074999996 0.031066028 0.16499996 0 -0 -1 84 84 84 255
0.039350286 0.094999984 0.16499996 0 -0 -1 84 84 84 255
0.031066028 0.074999996 0.16499996 0 -0 -1 84 84 84 255
-0.039350286 0.094999984 0.16499996 0 -0 -1 84 84 84 255
-0.031066028 0.074999996 0.16499996 0 -0 -1 84 84 84 255
-0.094999984 0.039350286 0.16499996 0 -0 -1 84 84 84 255
-0.039350286 0.094999984 0.14999996 0.70710677 -0.70710677 -1.1255118E-16 84 84 84 255
-0.094999984 0.039350286 0.16499996 0.70710677 -0.70710677 -1.1255118E-16 84 84 84 255
-0.094999984 0.039350286 0.14999996 0.70710677 -0.70710677 -1.1255118E-16 84 84 84 255
-0.039350286 0.094999984 0.16499996 0.70710677 -0.70710677 -1.1255118E-16 84 84 84 255
0.039350286 0.094999984 0.16499996 0 -1 -0 84 84 84 255
-0.039350286 0.094999984 0.14999996 0 -1 -0 84 84 84 255
0.039350286 0.094999984 0.14999996 0 -1 -0 84 84 84 255
-0.039350286 0.094999984 0.16499996 0 -1 -0 84 84 84 255
0.039350286 0.094999984 0.16499996 -0.70710677 -0.70710677 -0 84 84 84 255
0.094999984 0.039350286 0.14999996 -0.70710677 -0.70710677 -0 84 84 84 255
0.094999984 0.039350286 0.16499996 -0.70710677 -0.70710677 -0 84 84 84 255
0.039350286 0.094999984 0.14999996 -0.70710677 -0.70710677 -0 84 84 84 255
0.094999984 0.039350286 0.16499996 -1 -0 -0 84 84 84 255
0.094999984 -0.039350286 0.14999996 -1 -0 -0 84 84 84 255
0.094999984 -0.039350286 0.16499996 -1 -0 -0 84 84 84 255
0.094999984 0.039350286 0.14999996 -1 -0 -0 84 84 84 255
0.094999984 -0.039350286 0.16499996 -0.70710677 0.70710677 -0 84 84 84 255
0.039350286 -0.094999984 0.14999996 -0.70710677 0.70710677 -0 84 84 84 255
0.039350286 -0.094999984 0.16499996 -0.70710677 0.70710677 -0 84 84 84 255
0.094999984 -0.039350286 0.14999996 -0.70710677 0.70710677 -0 84 84 84 255
-0.039350286 -0.094999984 0.16499996 0 1 -0 84 84 84 255
0.039350286 -0.094999984 0.14999996 0 1 -0 84 84 84 255
-0.039350286 -0.094999984 0.14999996 0 1 -0 84 84 84 255
0.039350286 -0.094999984 0.16499996 0 1 -0 84 84 84 255
-0.094999984 -0.039350286 0.14999996 0.70710677 0.70710677 -0 84 84 84 255
-0.039350286 -0.094999984 0.16499996 0.70710677 0.70710677 -0 84 84 84 255
-0.039350286 -0.094999984 0.14999996 0.70710677 0.70710677 -0 84 84 84 255
-0.094999984 -0.039350286 0.16499996 0.70710677 0.70710677 -0 84 84 84 255
-0.094999984 0.039350286 0.14999996 1 -0 -0 84 84 84 255
-0.094999984 -0.039350286 0.16499996 1 -0 -0 84 84 84 255
-0.094999984 -0.039350286 0.14999996 1 -0 -0 84 84 84 255
-0.094999984 0.039350286 0.16499996 1 -0 -0 84 84 84 255
3 0 1 2
3 1 0 3
3 4 5 6
3 5 4 7
3 5 7 8
3 8 7 9
3 8 9 10
3 10 9 11
3 11 9 12
3 11 12 13
3 6 14 15
3 14 6 5
3 15 14 16
3 15 16 17
3 17 16 18
3 17 18 13
3 17 13 19
3 19 13 12
3 20 21 22
3 21 20 23
3 24 25 26
3 25 24 27
3 25 27 28
3 28 27 29
3 28 29 30
3 30 29 31
3 31 29 32
3 31 32 33
3 26 34 35
3 34 26 25
3 35 34 36
3 35 36 37
3 37 36 38
3 37 38 33
3 37 33 39
3 39 33 32
3 40 41 42
3 41 40 43
3 44 45 46
3 45 44 47
3 48 49 50
3 49 48 51
3 52 53 54
3 53 52 55
3 56 57 58
3 57 56 59
3 60 61 62
3 61 60 63
3 64 65 66
3 65 64 67
3 67 64 68
3 68 64 69
3 68 69 70
3 70 69 71
3 71 69 72
3 71 72 73
3 65 74 75
3 74 65 67
3 75 74 76
3 75 76 77
3 77 76 78
3 77 78 73
3 77 73 79
3 79 73 72
3 80 81 82
3 81 80 83
3 84 85 86
3 85 84 87
3 82 88 89
3 88 82 81
3 90 91 92
3 91 90 93
3 94 95 96
3 95 94 97
3 98 87 84
3 87 98 99
3 100 93 90
3 93 100 101
3 102 103 104
3 103 102 105
3 106 107 108
3 107 106 109
3 110 97 94
3 97 110 111
3 112 105 102
3 105 112 113
3 114 115 116
3 115 114 117
3 118 119 120
3 119 118 121
3 122 108 123
3 108 122 106
3 124 114 116
3 114 124 125
3 126 120 127
3 120 126 118
3 128 129 130
3 129 128 131
3 132 133 134
3 133 132 135
3 136 137 138
3 137 136 139
3 140 141 142
3 141 140 143
3 143 140 144
3 144 140 145
3 144 145 146
3 146 145 147
3 147 145 148
3 147 148 149
3 141 150 151
3 150 141 143
3 151 150 152
3 151 152 153
3 153 152 154
3 153 154 149
3 153 149 155
3 155 149 148
3 156 157 158
3 157 156 159
3 160 161 162
3 161 160 163
3 164 165 166
3 165 164 167
3 168 169 170
3 169 168 171
3 172 173 174
3 173 172 175
3 176 177 178
3 177 176 179
3 180 181 182
3 181 180 183
3 184 185 186
3 185 184 187
3 188 189 190
3 189 188 191
3 192 193 194
3 193 192 195
3 196 197 198
3 197 196 199
3 200 201 202
3 201 200 203
3 204 205 206
3 205 204 207
3 208 209 210
3 209 208 211
3 212 213 214
3 213 212 215
3 216 217 218
3 217 216 219
3 219 216 220
3 220 216 221
3 220 221 222
3 222 221 223
3 223 221 224
3 224 221 225
3 225 221 226
3 226 221 227
3 227 221 228
3 219 229 226
3 229 219 220
3 226 229 230
3 226 230 231
3 226 231 225
3 232 233 234
3 233 232 235
3 236 237 238
3 237 236 239
3 240 241 242
3 241 240 243
3 244 245 246
3 245 244 247
3 248 249 250
3 249 248 251
3 252 253 254
3 253 252 255
3 256 257 258
3 257 256 259
3 257 259 260
3 260 259 261
3 260 261 262
3 262 261 263
3 263 261 264
3 263 264 265
3 258 266 267
3 266 258 257
3 267 266 268
3 267 268 269
3 269 268 270
3 269 270 265
3 269 265 271
3 271 265 264
3 272 273 274
3 273 272 275
3 276 277 278
3 277 276 279
3 280 281 282
3 281 280 283
3 284 285 286
3 285 284 287
3 288 289 290
3 289 288 291
3 292 293 294
3 293 292 295
3 296 297 298
3 297 296 299
3 300 301 302
3 301 300 303

