ply
format ascii 1.0
commentY29udmVydGVyIGJ5IENvZGVMZW9wYXJk
comment Original mesh name: 'C:\Program Files (x86)\Steam\steamapps\common\Stormworks\rom\meshes\component_compass_flat_static.mesh'
comment SubMesh index: 0
comment SubMesh name: 'ID17'
comment Shader: Transparent (1)
element vertex 78
property float x
property float y
property float z
property float nx
property float ny
property float nz
property uchar red
property uchar green
property uchar blue
property uchar alpha
element face 6
property list uchar ushort vertex_index
end_header
0.038268346 -0.092387944 0.125 -5.098617E-33 -8.326673E-17 -1 160 160 199 128
0.092387944 0.038268346 0.125 -5.098617E-33 -8.326673E-17 -1 160 160 199 128
0.092387944 -0.038268346 0.125 -5.098617E-33 -8.326673E-17 -1 160 160 199 128
0.038268346 0.092387944 0.125 -5.098617E-33 -8.326673E-17 -1 160 160 199 128
-0.038268346 -0.092387944 0.125 -5.098617E-33 -8.326673E-17 -1 160 160 199 128
-0.038268346 0.092387944 0.125 -5.098617E-33 -8.326673E-17 -1 160 160 199 128
-0.092387944 0.038268346 0.125 -5.098617E-33 -8.326673E-17 -1 160 160 199 128
-0.092387944 -0.038268346 0.125 -5.098617E-33 -8.326673E-17 -1 160 160 199 128
0.10238795 -0.042410474 0.125 -1.05925E-39 -0 -1 86 86 86 255
0.092387944 -0.038268346 0.125 -1.05925E-39 -0 -1 86 86 86 255
0.10238795 0.04241048 0.125 -1.05925E-39 -0 -1 86 86 86 255
0.04241048 -0.10238795 0.125 -1.05925E-39 -0 -1 86 86 86 255
0.038268346 -0.092387944 0.125 -1.05925E-39 -0 -1 86 86 86 255
-0.042410474 -0.10238795 0.125 -1.05925E-39 -0 -1 86 86 86 255
-0.038268346 -0.092387944 0.125 -1.05925E-39 -0 -1 86 86 86 255
-0.092387944 -0.038268346 0.125 -1.05925E-39 -0 -1 86 86 86 255
-0.10238795 -0.042410474 0.125 -1.05925E-39 -0 -1 86 86 86 255
-0.092387944 0.038268346 0.125 -1.05925E-39 -0 -1 86 86 86 255
-0.10238795 -0.031059038 0.125 -1.05925E-39 -0 -1 86 86 86 255
-0.10238795 -0.022612046 0.125 -1.05925E-39 -0 -1 86 86 86 255
0.092387944 0.038268346 0.125 -1.05925E-39 -0 -1 86 86 86 255
0.04241048 0.10238795 0.125 -1.05925E-39 -0 -1 86 86 86 255
0.038268346 0.092387944 0.125 -1.05925E-39 -0 -1 86 86 86 255
-0.042410474 0.10238795 0.125 -1.05925E-39 -0 -1 86 86 86 255
-0.038268346 0.092387944 0.125 -1.05925E-39 -0 -1 86 86 86 255
-0.10238795 0.04241048 0.125 -1.05925E-39 -0 -1 86 86 86 255
-0.10238795 -0.020366233 0.125 -1.05925E-39 -0 -1 86 86 86 255
-0.10238795 0 0.125 -1.05925E-39 -0 -1 86 86 86 255
-0.10238795 0.02036622 0.125 -1.05925E-39 -0 -1 86 86 86 255
-0.10238795 0.022612046 0.125 -1.05925E-39 -0 -1 86 86 86 255
-0.10238795 0.031059043 0.125 -1.05925E-39 -0 -1 86 86 86 255
0.092387944 -0.038268346 0.125 0.9238795 -0.3826834 3.1864797E-17 86 86 86 255
0.092387944 0.038268346 0.099999994 0.9238795 0.3826834 -3.1864797E-17 86 86 86 255
0.092387944 0.038268346 0.125 0.9238795 0.3826834 -3.1864797E-17 86 86 86 255
0.092387944 -0.038268346 0.099999994 0.9238795 -0.3826834 3.1864797E-17 86 86 86 255
0.038268346 -0.092387944 0.099999994 0.3826834 -0.9238795 7.6928426E-17 86 86 86 255
0.038268346 -0.092387944 0.125 0.3826834 -0.9238795 7.6928426E-17 86 86 86 255
0.038268346 -0.092387944 0.099999994 -1.05925E-39 -0 -1 86 86 86 255
0.092387944 0.038268346 0.099999994 -1.05925E-39 -0 -1 86 86 86 255
0.092387944 -0.038268346 0.099999994 -1.05925E-39 -0 -1 86 86 86 255
0.038268346 0.092387944 0.099999994 -1.05925E-39 -0 -1 86 86 86 255
-0.038268346 -0.092387944 0.099999994 -1.05925E-39 -0 -1 86 86 86 255
-0.038268346 0.092387944 0.099999994 -1.05925E-39 -0 -1 86 86 86 255
-0.092387944 0.038268346 0.099999994 -1.05925E-39 -0 -1 86 86 86 255
-0.092387944 -0.038268346 0.099999994 -1.05925E-39 -0 -1 86 86 86 255
0.038268346 0.092387944 0.099999994 0.3826834 0.9238795 -7.6928426E-17 86 86 86 255
0.038268346 0.092387944 0.125 0.3826834 0.9238795 -7.6928426E-17 86 86 86 255
-0.038268346 -0.092387944 0.099999994 -0.3826834 -0.9238795 7.6928426E-17 86 86 86 255
-0.038268346 -0.092387944 0.125 -0.3826834 -0.9238795 7.6928426E-17 86 86 86 255
-0.092387944 -0.038268346 0.099999994 -0.9238795 -0.3826834 3.1864797E-17 86 86 86 255
-0.092387944 0.038268346 0.125 -0.9238795 0.3826834 -3.1864797E-17 86 86 86 255
-0.092387944 0.038268346 0.099999994 -0.9238795 0.3826834 -3.1864797E-17 86 86 86 255
-0.092387944 -0.038268346 0.125 -0.9238795 -0.3826834 3.1864797E-17 86 86 86 255
-0.038268346 0.092387944 0.099999994 -0.3826834 0.9238795 -7.6928426E-17 86 86 86 255
-0.038268346 0.092387944 0.125 -0.3826834 0.9238795 -7.6928426E-17 86 86 86 255
-0.125 0 0.125 -1.05925E-39 -0 -1 255 255 255 255
-0.10238795 -0.020366233 0.125 -1.05925E-39 -0 -1 255 255 255 255
-0.10238795 -0.022612046 0.125 -1.05925E-39 -0 -1 255 255 255 255
-0.10238795 0 0.125 -1.05925E-39 -0 -1 255 255 255 255
-0.10238795 0.02036622 0.125 -1.05925E-39 -0 -1 255 255 255 255
-0.10238795 0.022612046 0.125 -1.05925E-39 -0 -1 255 255 255 255
0.125 -0.125 0.125 -1.05925E-39 -0 -1 255 125 0 255
0.10238795 -0.042410474 0.125 -1.05925E-39 -0 -1 255 125 0 255
0.125 0.125 0.125 -1.05925E-39 -0 -1 255 125 0 255
0.04241048 -0.10238795 0.125 -1.05925E-39 -0 -1 255 125 0 255
-0.125 -0.125 0.125 -1.05925E-39 -0 -1 255 125 0 255
-0.042410474 -0.10238795 0.125 -1.05925E-39 -0 -1 255 125 0 255
-0.10238795 -0.042410474 0.125 -1.05925E-39 -0 -1 255 125 0 255
-0.10238795 -0.031059038 0.125 -1.05925E-39 -0 -1 255 125 0 255
-0.125 0 0.125 -1.05925E-39 -0 -1 255 125 0 255
-0.10238795 -0.022612046 0.125 -1.05925E-39 -0 -1 255 125 0 255
-0.10238795 0.031059043 0.125 -1.05925E-39 -0 -1 255 125 0 255
-0.10238795 0.022612046 0.125 -1.05925E-39 -0 -1 255 125 0 255
-0.10238795 0.04241048 0.125 -1.05925E-39 -0 -1 255 125 0 255
0.04241048 0.10238795 0.125 -1.05925E-39 -0 -1 255 125 0 255
-0.125 0.125 0.125 -1.05925E-39 -0 -1 255 125 0 255
0.10238795 0.04241048 0.125 -1.05925E-39 -0 -1 255 125 0 255
-0.042410474 0.10238795 0.125 -1.05925E-39 -0 -1 255 125 0 255
3 0 1 2
3 1 0 3
3 3 0 4
3 3 4 5
3 5 4 6
3 6 4 7

