ply
format ascii 1.0
commentY29udmVydGVyIGJ5IENvZGVMZW9wYXJk
comment Original mesh name: 'C:\Program Files (x86)\Steam\steamapps\common\Stormworks\rom\meshes\component_wheel_7_wishbone.mesh'
comment SubMesh index: 0
comment SubMesh name: 'ID16'
comment Shader: Opaque (0)
element vertex 198
property float x
property float y
property float z
property float nx
property float ny
property float nz
property uchar red
property uchar green
property uchar blue
property uchar alpha
element face 126
property list uchar ushort vertex_index
end_header
-0.12501691 -0.014997256 0.34833482 -0.3210089 -7.311254E-17 -0.9470762 86 86 86 255
0.18206896 0.034997262 0.2442489 -0.3210089 -7.311254E-17 -0.9470762 86 86 86 255
0.18206896 -0.014997256 0.2442489 -0.3210089 -7.311254E-17 -0.9470762 86 86 86 255
-0.12501691 0.034997262 0.34833482 -0.3210089 -7.311254E-17 -0.9470762 86 86 86 255
0.18206896 0.034997262 0.2442489 0.8628671 6.586655E-30 0.5054309 86 86 86 255
0.019758673 -0.014997256 0.5213436 0.8628671 6.586655E-30 0.5054309 86 86 86 255
0.18206896 -0.014997256 0.2442489 0.8628671 6.586655E-30 0.5054309 86 86 86 255
0.019758673 0.034997262 0.5213436 0.8628671 6.586655E-30 0.5054309 86 86 86 255
-0.0236715 0.034997262 0.5213436 -0.8628578 -0 0.5054467 86 86 86 255
-0.12501691 -0.014997256 0.34833482 -0.8628578 -0 0.5054467 86 86 86 255
-0.0236715 -0.014997256 0.5213436 -0.8628578 -0 0.5054467 86 86 86 255
-0.12501691 0.034997262 0.34833482 -0.8628578 -0 0.5054467 86 86 86 255
-0.0236715 0.034997262 0.5213436 0 -0 1 86 86 86 255
0.019758673 -0.014997256 0.5213436 0 -0 1 86 86 86 255
0.019758673 0.034997262 0.5213436 0 -0 1 86 86 86 255
-0.0236715 -0.014997256 0.5213436 0 -0 1 86 86 86 255
-0.2245499 0.034997262 0.17842008 -1 -0 -0 86 86 86 255
-0.2245499 -0.014997256 0.04351675 -1 -0 -0 86 86 86 255
-0.2245499 -0.014997256 0.17842008 -1 -0 -0 86 86 86 255
-0.2245499 0.034997262 0.04351675 -1 -0 -0 86 86 86 255
-0.2245499 -0.014997256 0.04351675 0 -0 -1 86 86 86 255
0.22062834 0.034997262 0.04351675 0 -0 -1 86 86 86 255
0.22062834 -0.014997256 0.04351675 0 -0 -1 86 86 86 255
-0.2245499 0.034997262 0.04351675 0 -0 -1 86 86 86 255
-0.15080228 0.034997262 0.30431613 -0.8628578 -0 0.5054467 86 86 86 255
-0.2245499 -0.014997256 0.17842008 -0.8628578 -0 0.5054467 86 86 86 255
-0.15080228 -0.014997256 0.30431613 -0.8628578 -0 0.5054467 86 86 86 255
-0.2245499 0.034997262 0.17842008 -0.8628578 -0 0.5054467 86 86 86 255
0.22062834 0.034997262 0.04351675 1 -0 -0 86 86 86 255
0.22062834 -0.014997256 0.17842066 1 -0 -0 86 86 86 255
0.22062834 -0.014997256 0.04351675 1 -0 -0 86 86 86 255
0.22062834 0.034997262 0.17842066 1 -0 -0 86 86 86 255
-0.15080228 0.034997262 0.30431613 0.3210089 2.659819E-28 0.9470762 86 86 86 255
0.22062834 -0.014997256 0.17842066 0.3210089 2.659819E-28 0.9470762 86 86 86 255
0.22062834 0.034997262 0.17842066 0.3210089 2.659819E-28 0.9470762 86 86 86 255
-0.15080228 -0.014997256 0.30431613 0.3210089 2.659819E-28 0.9470762 86 86 86 255
-0.29760697 -0.007408065 0.1947921 0.49143958 0.87091166 -0 86 86 86 255
-0.28415766 -0.014997256 -0.016483253 0.49143958 0.87091166 -0 86 86 86 255
-0.29760697 -0.007408065 -0.016483253 0.49143958 0.87091166 -0 86 86 86 255
-0.28415766 -0.014997256 0.1947921 0.49143958 0.87091166 -0 86 86 86 255
-0.07117209 -0.007408065 0.58134353 0.4722603 0.8369227 -0.2766416 86 86 86 255
-0.28415766 -0.014997256 0.1947921 0.4722603 0.8369227 -0.2766416 86 86 86 255
-0.29760697 -0.007408065 0.1947921 0.4722603 0.8369227 -0.2766416 86 86 86 255
-0.05772282 -0.014997256 0.58134353 0.4722603 0.8369227 -0.2766416 86 86 86 255
-0.28415766 -0.014997256 -0.016483253 0 1 -0 86 86 86 255
-0.2245499 -0.014997256 0.04351675 0 1 -0 86 86 86 255
0.28023615 -0.014997256 -0.016483253 0 1 -0 86 86 86 255
-0.28415766 -0.014997256 0.1947921 0 1 -0 86 86 86 255
-0.2245499 -0.014997256 0.17842008 0 1 -0 86 86 86 255
-0.15080228 -0.014997256 0.30431613 0 1 -0 86 86 86 255
-0.05772282 -0.014997256 0.58134353 0 1 -0 86 86 86 255
-0.12501691 -0.014997256 0.34833482 0 1 -0 86 86 86 255
-0.0236715 -0.014997256 0.5213436 0 1 -0 86 86 86 255
0.019758673 -0.014997256 0.5213436 0 1 -0 86 86 86 255
0.18206896 -0.014997256 0.2442489 0 1 -0 86 86 86 255
0.05381071 -0.014997256 0.58134353 0 1 -0 86 86 86 255
0.28023615 -0.014997256 0.1947921 0 1 -0 86 86 86 255
0.22062834 -0.014997256 0.04351675 0 1 -0 86 86 86 255
0.22062834 -0.014997256 0.17842066 0 1 -0 86 86 86 255
0.28023615 0.034997262 -0.016483253 0 -0 1 86 86 86 255
0.29368544 -0.007450914 -0.016483253 0 -0 1 86 86 86 255
0.29368544 0.027450923 -0.016483253 0 -0 1 86 86 86 255
0.28023615 -0.014997256 -0.016483253 0 -0 1 86 86 86 255
-0.28415766 0.034997262 -0.016483253 0 -0 1 86 86 86 255
-0.28415766 -0.014997256 -0.016483253 0 -0 1 86 86 86 255
-0.29760697 0.027408073 -0.016483253 0 -0 1 86 86 86 255
-0.29760697 -0.007408065 -0.016483253 0 -0 1 86 86 86 255
-0.29760697 0.027408073 -0.016483253 1 -0 -0 86 86 86 255
-0.29760697 -0.007408065 0.1947921 1 -0 -0 86 86 86 255
-0.29760697 -0.007408065 -0.016483253 1 -0 -0 86 86 86 255
-0.29760697 0.027408073 0.1947921 1 -0 -0 86 86 86 255
-0.07117209 -0.0073999595 0.69085586 0.4916386 0.8707993 -3.222291E-05 86 86 86 255
-0.05772282 -0.014997256 0.58134353 0.4916386 0.8707993 -3.222291E-05 86 86 86 255
-0.07117209 -0.007408065 0.58134353 0.4916386 0.8707993 -3.222291E-05 86 86 86 255
-0.05772282 -0.014997256 0.69085586 0.4916386 0.8707993 -3.222291E-05 86 86 86 255
-0.29760697 0.027408073 0.1947921 0.8628578 2.0261322E-16 -0.5054467 86 86 86 255
-0.07117209 -0.007408065 0.58134353 0.8628578 2.0261322E-16 -0.5054467 86 86 86 255
-0.29760697 -0.007408065 0.1947921 0.8628578 2.0261322E-16 -0.5054467 86 86 86 255
-0.07117209 0.027408073 0.58134353 0.8628578 2.0261322E-16 -0.5054467 86 86 86 255
-0.05772282 -0.014997256 0.69085586 0 1 -0 86 86 86 255
0.05381071 -0.014997256 0.69085586 0 1 -0 86 86 86 255
0.05381071 -0.014997256 0.58134353 -0.4703893 0.8383406 -0.2755341 86 86 86 255
0.29368544 -0.007450914 0.1947921 -0.4703893 0.8383406 -0.2755341 86 86 86 255
0.28023615 -0.014997256 0.1947921 -0.4703893 0.8383406 -0.2755341 86 86 86 255
0.067260005 -0.007450914 0.58134353 -0.4703893 0.8383406 -0.2755341 86 86 86 255
0.28023615 -0.014997256 0.1947921 -0.4893306 0.8720984 -0 86 86 86 255
0.29368544 -0.007450914 -0.016483253 -0.4893306 0.8720984 -0 86 86 86 255
0.28023615 -0.014997256 -0.016483253 -0.4893306 0.8720984 -0 86 86 86 255
0.29368544 -0.007450914 0.1947921 -0.4893306 0.8720984 -0 86 86 86 255
0.28023615 0.034997262 -0.016483253 0 -1 -0 86 86 86 255
0.22062834 0.034997262 0.04351675 0 -1 -0 86 86 86 255
-0.28415766 0.034997262 -0.016483253 0 -1 -0 86 86 86 255
0.28023615 0.034997262 0.1947921 0 -1 -0 86 86 86 255
0.22062834 0.034997262 0.17842066 0 -1 -0 86 86 86 255
-0.15080228 0.034997262 0.30431613 0 -1 -0 86 86 86 255
0.18206896 0.034997262 0.2442489 0 -1 -0 86 86 86 255
-0.12501691 0.034997262 0.34833482 0 -1 -0 86 86 86 255
0.05381071 0.034997262 0.58134353 0 -1 -0 86 86 86 255
0.019758673 0.034997262 0.5213436 0 -1 -0 86 86 86 255
-0.0236715 0.034997262 0.5213436 0 -1 -0 86 86 86 255
-0.2245499 0.034997262 0.04351675 0 -1 -0 86 86 86 255
-0.28415766 0.034997262 0.1947921 0 -1 -0 86 86 86 255
-0.2245499 0.034997262 0.17842008 0 -1 -0 86 86 86 255
-0.05772282 0.034997262 0.58134353 0 -1 -0 86 86 86 255
-0.28415766 0.034997262 0.1947921 0.49143958 -0.87091166 -0 86 86 86 255
-0.29760697 0.027408073 -0.016483253 0.49143958 -0.87091166 -0 86 86 86 255
-0.28415766 0.034997262 -0.016483253 0.49143958 -0.87091166 -0 86 86 86 255
-0.29760697 0.027408073 0.1947921 0.49143958 -0.87091166 -0 86 86 86 255
0.29368544 0.027450923 0.1947921 -1 -0 -0 86 86 86 255
0.29368544 -0.007450914 -0.016483253 -1 -0 -0 86 86 86 255
0.29368544 -0.007450914 0.1947921 -1 -0 -0 86 86 86 255
0.29368544 0.027450923 -0.016483253 -1 -0 -0 86 86 86 255
0.29368544 0.027450923 0.1947921 -0.4893306 -0.8720984 -0 86 86 86 255
0.28023615 0.034997262 -0.016483253 -0.4893306 -0.8720984 -0 86 86 86 255
0.29368544 0.027450923 -0.016483253 -0.4893306 -0.8720984 -0 86 86 86 255
0.28023615 0.034997262 0.1947921 -0.4893306 -0.8720984 -0 86 86 86 255
-0.05772282 -0.014997256 0.69085586 0.3283798 0.5813221 -0.7444671 86 86 86 255
-0.059405364 -0.004441967 0.6983559 0.3283798 0.5813221 -0.7444671 86 86 86 255
-0.048242472 -0.010747722 0.6983559 0.3283798 0.5813221 -0.7444671 86 86 86 255
-0.07117209 -0.0073999595 0.69085586 0.3283798 0.5813221 -0.7444671 86 86 86 255
0.05381071 0.034997262 0.58134353 0 -0 1 86 86 86 255
0.067260005 -0.007450914 0.58134353 0 -0 1 86 86 86 255
0.067260005 0.027450923 0.58134353 0 -0 1 86 86 86 255
0.05381071 -0.014997256 0.58134353 0 -0 1 86 86 86 255
-0.05772282 0.034997262 0.58134353 0 -0 1 86 86 86 255
-0.05772282 -0.014997256 0.58134353 0 -0 1 86 86 86 255
-0.07117209 0.027408073 0.58134353 0 -0 1 86 86 86 255
-0.07117209 -0.007408065 0.58134353 0 -0 1 86 86 86 255
-0.07117209 0.027408073 0.58134353 1 -0 -0 86 86 86 255
-0.07117209 -0.0073999595 0.69085586 1 -0 -0 86 86 86 255
-0.07117209 -0.007408065 0.58134353 1 -0 -0 86 86 86 255
-0.07117209 0.02739997 0.69085586 1 -0 -0 86 86 86 255
-0.05772282 0.034997262 0.58134353 0.4722603 -0.8369227 -0.2766416 86 86 86 255
-0.29760697 0.027408073 0.1947921 0.4722603 -0.8369227 -0.2766416 86 86 86 255
-0.28415766 0.034997262 0.1947921 0.4722603 -0.8369227 -0.2766416 86 86 86 255
-0.07117209 0.027408073 0.58134353 0.4722603 -0.8369227 -0.2766416 86 86 86 255
-0.048242472 -0.010747722 0.6983559 5.1865047E-15 0.8700454 -0.4929716 86 86 86 255
0.05381071 -0.014997256 0.69085586 5.1865047E-15 0.8700454 -0.4929716 86 86 86 255
-0.05772282 -0.014997256 0.69085586 5.1865047E-15 0.8700454 -0.4929716 86 86 86 255
0.044330362 -0.010747722 0.6983559 5.1865047E-15 0.8700454 -0.4929716 86 86 86 255
0.05381071 -0.014997256 0.69085586 -0.4893306 0.8720984 -3.7071717E-19 86 86 86 255
0.067260005 -0.007450914 0.58134353 -0.4893306 0.8720984 -3.7071717E-19 86 86 86 255
0.05381071 -0.014997256 0.58134353 -0.4893306 0.8720984 -3.7071717E-19 86 86 86 255
0.067260005 -0.007450914 0.69085586 -0.4893306 0.8720984 -3.7071717E-19 86 86 86 255
0.067260005 0.027450923 0.58134353 -0.8628671 -4.0544728E-29 -0.5054309 86 86 86 255
0.29368544 -0.007450914 0.1947921 -0.8628671 -4.0544728E-29 -0.5054309 86 86 86 255
0.067260005 -0.007450914 0.58134353 -0.8628671 -4.0544728E-29 -0.5054309 86 86 86 255
0.29368544 0.027450923 0.1947921 -0.8628671 -4.0544728E-29 -0.5054309 86 86 86 255
0.05381071 0.034997262 0.69085586 0 -1 -0 86 86 86 255
-0.05772282 0.034997262 0.69085586 0 -1 -0 86 86 86 255
0.067260005 0.027450923 0.58134353 -0.4703893 -0.8383406 -0.2755341 86 86 86 255
0.28023615 0.034997262 0.1947921 -0.4703893 -0.8383406 -0.2755341 86 86 86 255
0.29368544 0.027450923 0.1947921 -0.4703893 -0.8383406 -0.2755341 86 86 86 255
0.05381071 0.034997262 0.58134353 -0.4703893 -0.8383406 -0.2755341 86 86 86 255
-0.07117209 -0.0073999595 0.69085586 0.5374916 2.136149E-17 -0.8432691 86 86 86 255
-0.059405364 0.024441967 0.6983559 0.5374916 2.136149E-17 -0.8432691 86 86 86 255
-0.059405364 -0.004441967 0.6983559 0.5374916 2.136149E-17 -0.8432691 86 86 86 255
-0.07117209 0.02739997 0.69085586 0.5374916 2.136149E-17 -0.8432691 86 86 86 255
0.044330362 -0.010747722 0.6983559 1.3176629E-14 2.730256E-28 -1 86 86 86 255
0.05549328 0.024484258 0.6983559 1.3176629E-14 2.730256E-28 -1 86 86 86 255
0.05549328 -0.0044842605 0.6983559 1.3176629E-14 2.730256E-28 -1 86 86 86 255
0.044330362 0.030747717 0.6983559 1.3176629E-14 2.730256E-28 -1 86 86 86 255
-0.048242472 -0.010747722 0.6983559 1.3176629E-14 2.730256E-28 -1 86 86 86 255
-0.048242472 0.030747717 0.6983559 1.3176629E-14 2.730256E-28 -1 86 86 86 255
-0.059405364 -0.004441967 0.6983559 1.3176629E-14 2.730256E-28 -1 86 86 86 255
-0.059405364 0.024441967 0.6983559 1.3176629E-14 2.730256E-28 -1 86 86 86 255
-0.05772282 0.034997262 0.69085586 0.4916386 -0.8707993 -3.222291E-05 86 86 86 255
-0.07117209 0.027408073 0.58134353 0.4916386 -0.8707993 -3.222291E-05 86 86 86 255
-0.05772282 0.034997262 0.58134353 0.4916386 -0.8707993 -3.222291E-05 86 86 86 255
-0.07117209 0.02739997 0.69085586 0.4916386 -0.8707993 -3.222291E-05 86 86 86 255
0.067260005 0.027450923 0.69085586 -1 -0 -0 86 86 86 255
0.067260005 -0.007450914 0.58134353 -1 -0 -0 86 86 86 255
0.067260005 -0.007450914 0.69085586 -1 -0 -0 86 86 86 255
0.067260005 0.027450923 0.58134353 -1 -0 -0 86 86 86 255
0.067260005 0.027450923 0.69085586 -0.4893306 -0.8720984 -3.7071717E-19 86 86 86 255
0.05381071 0.034997262 0.58134353 -0.4893306 -0.8720984 -3.7071717E-19 86 86 86 255
0.067260005 0.027450923 0.58134353 -0.4893306 -0.8720984 -3.7071717E-19 86 86 86 255
0.05381071 0.034997262 0.69085586 -0.4893306 -0.8720984 -3.7071717E-19 86 86 86 255
0.05381071 -0.014997256 0.69085586 -0.32709098 0.58295053 -0.7437607 86 86 86 255
0.05549328 -0.0044842605 0.6983559 -0.32709098 0.58295053 -0.7437607 86 86 86 255
0.067260005 -0.007450914 0.69085586 -0.32709098 0.58295053 -0.7437607 86 86 86 255
0.044330362 -0.010747722 0.6983559 -0.32709098 0.58295053 -0.7437607 86 86 86 255
0.05381071 0.034997262 0.69085586 5.1865047E-15 -0.8700454 -0.4929716 86 86 86 255
-0.048242472 0.030747717 0.6983559 5.1865047E-15 -0.8700454 -0.4929716 86 86 86 255
-0.05772282 0.034997262 0.69085586 5.1865047E-15 -0.8700454 -0.4929716 86 86 86 255
0.044330362 0.030747717 0.6983559 5.1865047E-15 -0.8700454 -0.4929716 86 86 86 255
-0.059405364 0.024441967 0.6983559 0.3283798 -0.5813221 -0.7444671 86 86 86 255
-0.05772282 0.034997262 0.69085586 0.3283798 -0.5813221 -0.7444671 86 86 86 255
-0.048242472 0.030747717 0.6983559 0.3283798 -0.5813221 -0.7444671 86 86 86 255
-0.07117209 0.02739997 0.69085586 0.3283798 -0.5813221 -0.7444671 86 86 86 255
0.05549328 0.024484258 0.6983559 -0.32709098 -0.58295053 -0.7437607 86 86 86 255
0.05381071 0.034997262 0.69085586 -0.32709098 -0.58295053 -0.7437607 86 86 86 255
0.067260005 0.027450923 0.69085586 -0.32709098 -0.58295053 -0.7437607 86 86 86 255
0.044330362 0.030747717 0.6983559 -0.32709098 -0.58295053 -0.7437607 86 86 86 255
0.05549328 -0.0044842605 0.6983559 -0.5374916 -9.916648E-18 -0.8432691 86 86 86 255
0.067260005 0.027450923 0.69085586 -0.5374916 -9.916648E-18 -0.8432691 86 86 86 255
0.067260005 -0.007450914 0.69085586 -0.5374916 -9.916648E-18 -0.8432691 86 86 86 255
0.05549328 0.024484258 0.6983559 -0.5374916 -9.916648E-18 -0.8432691 86 86 86 255
3 0 1 2
3 1 0 3
3 4 5 6
3 5 4 7
3 8 9 10
3 9 8 11
3 12 13 14
3 13 12 15
3 16 17 18
3 17 16 19
3 20 21 22
3 21 20 23
3 24 25 26
3 25 24 27
3 28 29 30
3 29 28 31
3 32 33 34
3 33 32 35
3 36 37 38
3 37 36 39
3 40 41 42
3 41 40 43
3 44 45 46
3 45 44 47
3 45 47 48
3 48 47 49
3 49 47 50
3 49 50 51
3 51 50 52
3 52 50 53
3 54 55 56
3 55 54 53
3 55 53 50
3 46 57 56
3 57 46 45
3 56 57 58
3 56 58 49
3 56 49 54
3 54 49 51
3 59 60 61
3 60 59 62
3 62 59 63
3 62 63 64
3 64 63 65
3 64 65 66
3 67 68 69
3 68 67 70
3 71 72 73
3 72 71 74
3 75 76 77
3 76 75 78
3 79 55 50
3 55 79 80
3 81 82 83
3 82 81 84
3 85 86 87
3 86 85 88
3 89 90 91
3 90 89 92
3 90 92 93
3 93 92 94
3 94 92 95
3 94 95 96
3 97 95 92
3 95 97 98
3 98 97 99
3 91 100 101
3 100 91 90
3 101 100 102
3 101 102 94
3 101 94 103
3 103 94 96
3 103 96 99
3 103 99 97
3 104 105 106
3 105 104 107
3 108 109 110
3 109 108 111
3 112 113 114
3 113 112 115
3 116 117 118
3 117 116 119
3 120 121 122
3 121 120 123
3 123 120 124
3 123 124 125
3 125 124 126
3 125 126 127
3 128 129 130
3 129 128 131
3 132 133 134
3 133 132 135
3 136 137 138
3 137 136 139
3 140 141 142
3 141 140 143
3 144 145 146
3 145 144 147
3 148 103 97
3 103 148 149
3 150 151 152
3 151 150 153
3 154 155 156
3 155 154 157
3 158 159 160
3 159 158 161
3 161 158 162
3 161 162 163
3 163 162 164
3 163 164 165
3 166 167 168
3 167 166 169
3 170 171 172
3 171 170 173
3 174 175 176
3 175 174 177
3 178 179 180
3 179 178 181
3 182 183 184
3 183 182 185
3 186 187 188
3 187 186 189
3 190 191 192
3 191 190 193
3 194 195 196
3 195 194 197

