ply
format ascii 1.0
commentY29udmVydGVyIGJ5IENvZGVMZW9wYXJk
comment Original mesh name: 'C:\Program Files (x86)\Steam\steamapps\common\Stormworks\rom\meshes\component_light_base.mesh'
comment SubMesh index: 0
comment SubMesh name: 'ID4'
comment Shader: Opaque (0)
element vertex 52
property float x
property float y
property float z
property float nx
property float ny
property float nz
property uchar red
property uchar green
property uchar blue
property uchar alpha
element face 34
property list uchar ushort vertex_index
end_header
0.125 -0.125 0.125 0 -0 -1 255 125 0 255
0.092387944 -0.038268346 0.125 0 -0 -1 255 125 0 255
0.125 0.125 0.125 0 -0 -1 255 125 0 255
0.038268346 -0.092387944 0.125 0 -0 -1 255 125 0 255
-0.125 -0.125 0.125 0 -0 -1 255 125 0 255
-0.038268346 -0.092387944 0.125 0 -0 -1 255 125 0 255
-0.092387944 -0.038268346 0.125 0 -0 -1 255 125 0 255
0.038268346 0.092387944 0.125 0 -0 -1 255 125 0 255
-0.125 0.125 0.125 0 -0 -1 255 125 0 255
0.092387944 0.038268346 0.125 0 -0 -1 255 125 0 255
-0.038268346 0.092387944 0.125 0 -0 -1 255 125 0 255
-0.092387944 0.038268346 0.125 0 -0 -1 255 125 0 255
0.038268346 -0.092387944 0.145 0 -0 -1 86 86 86 255
0.092387944 0.038268346 0.145 0 -0 -1 86 86 86 255
0.092387944 -0.038268346 0.145 0 -0 -1 86 86 86 255
0.038268346 0.092387944 0.145 0 -0 -1 86 86 86 255
-0.038268346 -0.092387944 0.145 0 -0 -1 86 86 86 255
-0.038268346 0.092387944 0.145 0 -0 -1 86 86 86 255
-0.092387944 -0.038268346 0.145 0 -0 -1 86 86 86 255
-0.092387944 0.038268346 0.145 0 -0 -1 86 86 86 255
-0.038268346 -0.092387944 0.145 0 1 -0 86 86 86 255
0.038268346 -0.092387944 0.125 0 1 -0 86 86 86 255
-0.038268346 -0.092387944 0.125 0 1 -0 86 86 86 255
0.038268346 -0.092387944 0.145 0 1 -0 86 86 86 255
-0.092387944 -0.038268346 0.145 0.70710677 0.70710677 -0 86 86 86 255
-0.038268346 -0.092387944 0.125 0.70710677 0.70710677 -0 86 86 86 255
-0.092387944 -0.038268346 0.125 0.70710677 0.70710677 -0 86 86 86 255
-0.038268346 -0.092387944 0.145 0.70710677 0.70710677 -0 86 86 86 255
-0.092387944 0.038268346 0.125 1 -1.131867E-13 -0 86 86 86 255
-0.092387944 -0.038268346 0.145 1 -1.131867E-13 -0 86 86 86 255
-0.092387944 -0.038268346 0.125 1 -1.131867E-13 -0 86 86 86 255
-0.092387944 0.038268346 0.145 1 -1.131867E-13 -0 86 86 86 255
-0.038268346 0.092387944 0.125 0.70710677 -0.70710677 -0 86 86 86 255
-0.092387944 0.038268346 0.145 0.70710677 -0.70710677 -0 86 86 86 255
-0.092387944 0.038268346 0.125 0.70710677 -0.70710677 -0 86 86 86 255
-0.038268346 0.092387944 0.145 0.70710677 -0.70710677 -0 86 86 86 255
0.038268346 0.092387944 0.145 -3.772891E-14 -1 -0 86 86 86 255
-0.038268346 0.092387944 0.125 -3.772891E-14 -1 -0 86 86 86 255
0.038268346 0.092387944 0.125 -3.772891E-14 -1 -0 86 86 86 255
-0.038268346 0.092387944 0.145 -3.772891E-14 -1 -0 86 86 86 255
0.038268346 0.092387944 0.145 -0.70710677 -0.70710677 -0 86 86 86 255
0.092387944 0.038268346 0.125 -0.70710677 -0.70710677 -0 86 86 86 255
0.092387944 0.038268346 0.145 -0.70710677 -0.70710677 -0 86 86 86 255
0.038268346 0.092387944 0.125 -0.70710677 -0.70710677 -0 86 86 86 255
0.092387944 0.038268346 0.145 -1 3.772891E-14 -0 86 86 86 255
0.092387944 -0.038268346 0.125 -1 3.772891E-14 -0 86 86 86 255
0.092387944 -0.038268346 0.145 -1 3.772891E-14 -0 86 86 86 255
0.092387944 0.038268346 0.125 -1 3.772891E-14 -0 86 86 86 255
0.092387944 -0.038268346 0.145 -0.70710677 0.70710677 -0 86 86 86 255
0.038268346 -0.092387944 0.125 -0.70710677 0.70710677 -0 86 86 86 255
0.038268346 -0.092387944 0.145 -0.70710677 0.70710677 -0 86 86 86 255
0.092387944 -0.038268346 0.125 -0.70710677 0.70710677 -0 86 86 86 255
3 0 1 2
3 1 0 3
3 3 0 4
3 3 4 5
3 5 4 6
3 2 7 8
3 7 2 9
3 9 2 1
3 8 7 10
3 8 10 11
3 8 11 6
3 8 6 4
3 12 13 14
3 13 12 15
3 15 12 16
3 15 16 17
3 17 16 18
3 17 18 19
3 20 21 22
3 21 20 23
3 24 25 26
3 25 24 27
3 28 29 30
3 29 28 31
3 32 33 34
3 33 32 35
3 36 37 38
3 37 36 39
3 40 41 42
3 41 40 43
3 44 45 46
3 45 44 47
3 48 49 50
3 49 48 51

