ply
format ascii 1.0
commentY29udmVydGVyIGJ5IENvZGVMZW9wYXJk
comment Original mesh name: 'C:\Program Files (x86)\Steam\steamapps\common\Stormworks\rom\meshes\component_piston_pump.mesh'
comment SubMesh index: 0
comment SubMesh name: 'ID56'
comment Shader: Opaque (0)
element vertex 296
property float x
property float y
property float z
property float nx
property float ny
property float nz
property uchar red
property uchar green
property uchar blue
property uchar alpha
element face 214
property list uchar ushort vertex_index
end_header
0.09837557 0.23783247 -1.8749999 0 -1 -0 84 84 84 255
-0.09837557 0.23783247 -1.8999997 0 -1 -0 84 84 84 255
0.09837557 0.23783247 -1.8999997 0 -1 -0 84 84 84 255
-0.09837557 0.23783247 -1.8749999 0 -1 -0 84 84 84 255
0.2375 0.09870841 -1.8749999 -0.7071058 -0.7071077 -0 84 84 84 255
0.09837557 0.23783247 -1.8999997 -0.7071058 -0.7071077 -0 84 84 84 255
0.2375 0.09870841 -1.8999997 -0.7071058 -0.7071077 -0 84 84 84 255
0.09837557 0.23783247 -1.8749999 -0.7071058 -0.7071077 -0 84 84 84 255
-0.09837557 0.23783247 -1.8749999 0.7071058 -0.7071077 -0 84 84 84 255
-0.2375 0.09870841 -1.8999997 0.7071058 -0.7071077 -0 84 84 84 255
-0.09837557 0.23783247 -1.8999997 0.7071058 -0.7071077 -0 84 84 84 255
-0.2375 0.09870841 -1.8749999 0.7071058 -0.7071077 -0 84 84 84 255
0.09837557 0.23783247 -1.8999997 0 -0 1 84 84 84 255
0.2375 -0.098043494 -1.8999997 0 -0 1 84 84 84 255
0.2375 0.09870841 -1.8999997 0 -0 1 84 84 84 255
0.1625 0.06764233 -1.8999997 0 -0 1 84 84 84 255
0.06730962 0.16283245 -1.8999997 0 -0 1 84 84 84 255
-0.09837557 0.23783247 -1.8999997 0 -0 1 84 84 84 255
-0.06730962 0.16283245 -1.8999997 0 -0 1 84 84 84 255
-0.1625 0.06764233 -1.8999997 0 -0 1 84 84 84 255
-0.2375 0.09870841 -1.8999997 0 -0 1 84 84 84 255
-0.1625 -0.06697741 -1.8999997 0 -0 1 84 84 84 255
0.1625 -0.06697741 -1.8999997 0 -0 1 84 84 84 255
0.09837557 -0.23716754 -1.8999997 0 -0 1 84 84 84 255
0.06730962 -0.16216753 -1.8999997 0 -0 1 84 84 84 255
-0.09837557 -0.23716754 -1.8999997 0 -0 1 84 84 84 255
-0.06730962 -0.16216753 -1.8999997 0 -0 1 84 84 84 255
-0.2375 -0.098043494 -1.8999997 0 -0 1 84 84 84 255
0.2375 0.09870841 -1.8749999 -1 -0 -0 84 84 84 255
0.2375 -0.098043494 -1.8999997 -1 -0 -0 84 84 84 255
0.2375 -0.098043494 -1.8749999 -1 -0 -0 84 84 84 255
0.2375 0.09870841 -1.8999997 -1 -0 -0 84 84 84 255
-0.2375 0.09870841 -1.8999997 1 -0 -0 84 84 84 255
-0.2375 -0.098043494 -1.8749999 1 -0 -0 84 84 84 255
-0.2375 -0.098043494 -1.8999997 1 -0 -0 84 84 84 255
-0.2375 0.09870841 -1.8749999 1 -0 -0 84 84 84 255
-0.2375 -0.098043494 -1.8749999 0.7071058 0.7071077 -0 84 84 84 255
-0.09837557 -0.23716754 -1.8999997 0.7071058 0.7071077 -0 84 84 84 255
-0.2375 -0.098043494 -1.8999997 0.7071058 0.7071077 -0 84 84 84 255
-0.09837557 -0.23716754 -1.8749999 0.7071058 0.7071077 -0 84 84 84 255
-0.09837557 -0.23716754 -1.8749999 0 1 -0 84 84 84 255
0.09837557 -0.23716754 -1.8999997 0 1 -0 84 84 84 255
-0.09837557 -0.23716754 -1.8999997 0 1 -0 84 84 84 255
0.09837557 -0.23716754 -1.8749999 0 1 -0 84 84 84 255
0.09837557 -0.23716754 -1.8749999 -0.7071058 0.7071077 -0 84 84 84 255
0.2375 -0.098043494 -1.8999997 -0.7071058 0.7071077 -0 84 84 84 255
0.09837557 -0.23716754 -1.8999997 -0.7071058 0.7071077 -0 84 84 84 255
0.2375 -0.098043494 -1.8749999 -0.7071058 0.7071077 -0 84 84 84 255
0.06730962 0.16283245 -1.8749999 0 -0 1 255 125 0 255
0.1625 -0.06697741 -1.8749999 0 -0 1 255 125 0 255
0.1625 0.06764233 -1.8749999 0 -0 1 255 125 0 255
0.09375 0.03916512 -1.8749999 0 -0 1 255 125 0 255
0.038832508 0.09408246 -1.8749999 0 -0 1 255 125 0 255
-0.06730962 0.16283245 -1.8749999 0 -0 1 255 125 0 255
-0.038832508 0.09408246 -1.8749999 0 -0 1 255 125 0 255
-0.09375 0.03916512 -1.8749999 0 -0 1 255 125 0 255
-0.1625 0.06764233 -1.8749999 0 -0 1 255 125 0 255
-0.09375 -0.0385002 -1.8749999 0 -0 1 255 125 0 255
0.09375 -0.0385002 -1.8749999 0 -0 1 255 125 0 255
0.06730962 -0.16216753 -1.8749999 0 -0 1 255 125 0 255
0.038832508 -0.09341753 -1.8749999 0 -0 1 255 125 0 255
-0.06730962 -0.16216753 -1.8749999 0 -0 1 255 125 0 255
-0.038832508 -0.09341753 -1.8749999 0 -0 1 255 125 0 255
-0.1625 -0.06697741 -1.8749999 0 -0 1 255 125 0 255
0.038832508 0.09408246 -1.8250002 0 -0 1 30 30 30 255
0.09375 -0.0385002 -1.8250002 0 -0 1 30 30 30 255
0.09375 0.03916512 -1.8250002 0 -0 1 30 30 30 255
0.038832508 -0.09341753 -1.8250002 0 -0 1 30 30 30 255
-0.038832508 0.09408246 -1.8250002 0 -0 1 30 30 30 255
-0.038832508 -0.09341753 -1.8250002 0 -0 1 30 30 30 255
-0.09375 0.03916512 -1.8250002 0 -0 1 30 30 30 255
-0.09375 -0.0385002 -1.8250002 0 -0 1 30 30 30 255
-0.09375 0.03916512 -1.8250002 -1 -0 -0 255 125 0 255
-0.09375 -0.0385002 -1.8749999 -1 -0 -0 255 125 0 255
-0.09375 -0.0385002 -1.8250002 -1 -0 -0 255 125 0 255
-0.09375 0.03916512 -1.8749999 -1 -0 -0 255 125 0 255
-0.038832508 -0.09341753 -1.8250002 -0.7071058 -0.7071078 -0 255 125 0 255
-0.09375 -0.0385002 -1.8749999 -0.7071058 -0.7071078 -0 255 125 0 255
-0.038832508 -0.09341753 -1.8749999 -0.7071058 -0.7071078 -0 255 125 0 255
-0.09375 -0.0385002 -1.8250002 -0.7071058 -0.7071078 -0 255 125 0 255
-0.09375 0.03916512 -1.8250002 -0.7071058 0.7071078 -0 255 125 0 255
-0.038832508 0.09408246 -1.8749999 -0.7071058 0.7071078 -0 255 125 0 255
-0.09375 0.03916512 -1.8749999 -0.7071058 0.7071078 -0 255 125 0 255
-0.038832508 0.09408246 -1.8250002 -0.7071058 0.7071078 -0 255 125 0 255
0.038832508 -0.09341753 -1.8250002 0 -1 -0 255 125 0 255
-0.038832508 -0.09341753 -1.8749999 0 -1 -0 255 125 0 255
0.038832508 -0.09341753 -1.8749999 0 -1 -0 255 125 0 255
-0.038832508 -0.09341753 -1.8250002 0 -1 -0 255 125 0 255
-0.038832508 0.09408246 -1.8250002 0 1 -0 255 125 0 255
0.038832508 0.09408246 -1.8749999 0 1 -0 255 125 0 255
-0.038832508 0.09408246 -1.8749999 0 1 -0 255 125 0 255
0.038832508 0.09408246 -1.8250002 0 1 -0 255 125 0 255
0.09375 -0.0385002 -1.8250002 0.7071058 -0.7071078 -0 255 125 0 255
0.038832508 -0.09341753 -1.8749999 0.7071058 -0.7071078 -0 255 125 0 255
0.09375 -0.0385002 -1.8749999 0.7071058 -0.7071078 -0 255 125 0 255
0.038832508 -0.09341753 -1.8250002 0.7071058 -0.7071078 -0 255 125 0 255
0.038832508 0.09408246 -1.8250002 0.7071058 0.7071078 -0 255 125 0 255
0.09375 0.03916512 -1.8749999 0.7071058 0.7071078 -0 255 125 0 255
0.038832508 0.09408246 -1.8749999 0.7071058 0.7071078 -0 255 125 0 255
0.09375 0.03916512 -1.8250002 0.7071058 0.7071078 -0 255 125 0 255
0.09375 0.03916512 -1.8749999 1 -0 -0 255 125 0 255
0.09375 -0.0385002 -1.8250002 1 -0 -0 255 125 0 255
0.09375 -0.0385002 -1.8749999 1 -0 -0 255 125 0 255
0.09375 0.03916512 -1.8250002 1 -0 -0 255 125 0 255
0.07662951 0.185 0.8749999 -0.70710677 -0.70710677 2.9377536E-31 255 125 0 255
0.185 0.07662951 0.8049998 -0.70710677 -0.70710677 2.9377536E-31 255 125 0 255
0.185 0.07662951 0.8749999 -0.70710677 -0.70710677 2.9377536E-31 255 125 0 255
0.07662951 0.185 0.8049998 -0.70710677 -0.70710677 2.9377536E-31 255 125 0 255
0.07662951 -0.185 0.8749999 0 -0 -1 255 125 0 255
0.185 0.07662951 0.8749999 0 -0 -1 255 125 0 255
0.185 -0.07662951 0.8749999 0 -0 -1 255 125 0 255
0.13 -0.053847767 0.8749999 0 -0 -1 255 125 0 255
0.053847767 -0.13 0.8749999 0 -0 -1 255 125 0 255
-0.07662951 -0.185 0.8749999 0 -0 -1 255 125 0 255
-0.053847767 -0.13 0.8749999 0 -0 -1 255 125 0 255
-0.13 -0.053847767 0.8749999 0 -0 -1 255 125 0 255
-0.185 -0.07662951 0.8749999 0 -0 -1 255 125 0 255
-0.13 0.053847767 0.8749999 0 -0 -1 255 125 0 255
0.13 0.053847767 0.8749999 0 -0 -1 255 125 0 255
0.07662951 0.185 0.8749999 0 -0 -1 255 125 0 255
0.053847767 0.13 0.8749999 0 -0 -1 255 125 0 255
-0.07662951 0.185 0.8749999 0 -0 -1 255 125 0 255
-0.053847767 0.13 0.8749999 0 -0 -1 255 125 0 255
-0.185 0.07662951 0.8749999 0 -0 -1 255 125 0 255
0.07662951 0.185 0.8749999 0 -1 -0 255 125 0 255
-0.07662951 0.185 0.8049998 0 -1 -0 255 125 0 255
0.07662951 0.185 0.8049998 0 -1 -0 255 125 0 255
-0.07662951 0.185 0.8749999 0 -1 -0 255 125 0 255
0.185 0.07662951 0.8749999 -1 -0 -0 255 125 0 255
0.185 -0.07662951 0.8049998 -1 -0 -0 255 125 0 255
0.185 -0.07662951 0.8749999 -1 -0 -0 255 125 0 255
0.185 0.07662951 0.8049998 -1 -0 -0 255 125 0 255
-0.185 0.07662951 0.8049998 1 -0 -0 255 125 0 255
-0.185 -0.07662951 0.8749999 1 -0 -0 255 125 0 255
-0.185 -0.07662951 0.8049998 1 -0 -0 255 125 0 255
-0.185 0.07662951 0.8749999 1 -0 -0 255 125 0 255
-0.07662951 0.185 0.8049998 0.70710677 -0.70710677 2.9377536E-31 255 125 0 255
-0.185 0.07662951 0.8749999 0.70710677 -0.70710677 2.9377536E-31 255 125 0 255
-0.185 0.07662951 0.8049998 0.70710677 -0.70710677 2.9377536E-31 255 125 0 255
-0.07662951 0.185 0.8749999 0.70710677 -0.70710677 2.9377536E-31 255 125 0 255
0.185 -0.07662951 0.8749999 -0.70710677 0.70710677 2.9377536E-31 255 125 0 255
0.07662951 -0.185 0.8049998 -0.70710677 0.70710677 2.9377536E-31 255 125 0 255
0.07662951 -0.185 0.8749999 -0.70710677 0.70710677 2.9377536E-31 255 125 0 255
0.185 -0.07662951 0.8049998 -0.70710677 0.70710677 2.9377536E-31 255 125 0 255
-0.07662951 -0.185 0.8749999 0 1 -0 255 125 0 255
0.07662951 -0.185 0.8049998 0 1 -0 255 125 0 255
-0.07662951 -0.185 0.8049998 0 1 -0 255 125 0 255
0.07662951 -0.185 0.8749999 0 1 -0 255 125 0 255
-0.185 -0.07662951 0.8049998 0.70710677 0.70710677 2.9377536E-31 255 125 0 255
-0.07662951 -0.185 0.8749999 0.70710677 0.70710677 2.9377536E-31 255 125 0 255
-0.07662951 -0.185 0.8049998 0.70710677 0.70710677 2.9377536E-31 255 125 0 255
-0.185 -0.07662951 0.8749999 0.70710677 0.70710677 2.9377536E-31 255 125 0 255
0.125 0.37499997 -1.8749999 0 -0 1 255 125 0 255
0.37499997 -0.125 -1.8749999 0 -0 1 255 125 0 255
0.37499997 0.125 -1.8749999 0 -0 1 255 125 0 255
0.2375 0.09870841 -1.8749999 0 -0 1 255 125 0 255
0.09837557 0.23783247 -1.8749999 0 -0 1 255 125 0 255
-0.125 0.37499997 -1.8749999 0 -0 1 255 125 0 255
-0.09837557 0.23783247 -1.8749999 0 -0 1 255 125 0 255
-0.2375 0.09870841 -1.8749999 0 -0 1 255 125 0 255
-0.37499997 0.125 -1.8749999 0 -0 1 255 125 0 255
-0.2375 -0.098043494 -1.8749999 0 -0 1 255 125 0 255
0.2375 -0.098043494 -1.8749999 0 -0 1 255 125 0 255
0.125 -0.37499997 -1.8749999 0 -0 1 255 125 0 255
0.09837557 -0.23716754 -1.8749999 0 -0 1 255 125 0 255
-0.125 -0.37499997 -1.8749999 0 -0 1 255 125 0 255
-0.09837557 -0.23716754 -1.8749999 0 -0 1 255 125 0 255
-0.37499997 -0.125 -1.8749999 0 -0 1 255 125 0 255
-0.37499997 0.125 -1.8749999 1 -0 -0 255 125 0 255
-0.37499997 -0.125 0.8049998 1 -0 -0 255 125 0 255
-0.37499997 -0.125 -1.8749999 1 -0 -0 255 125 0 255
-0.37499997 0.125 0.8049998 1 -0 -0 255 125 0 255
-0.37499997 -0.125 -1.8749999 0.70710677 0.70710677 -7.220928E-18 255 125 0 255
-0.125 -0.37499997 0.8049998 0.70710677 0.70710677 -7.220928E-18 255 125 0 255
-0.125 -0.37499997 -1.8749999 0.70710677 0.70710677 -7.220928E-18 255 125 0 255
-0.37499997 -0.125 0.8049998 0.70710677 0.70710677 -7.220928E-18 255 125 0 255
-0.125 -0.37499997 0.8049998 0 1 -0 255 125 0 255
0.125 -0.37499997 -1.8749999 0 1 -0 255 125 0 255
-0.125 -0.37499997 -1.8749999 0 1 -0 255 125 0 255
0.125 -0.37499997 0.8049998 0 1 -0 255 125 0 255
0.37499997 -0.125 0.8049998 -0.70710677 0.70710677 -7.220928E-18 255 125 0 255
0.125 -0.37499997 -1.8749999 -0.70710677 0.70710677 -7.220928E-18 255 125 0 255
0.125 -0.37499997 0.8049998 -0.70710677 0.70710677 -7.220928E-18 255 125 0 255
0.37499997 -0.125 -1.8749999 -0.70710677 0.70710677 -7.220928E-18 255 125 0 255
0.37499997 0.125 0.8049998 -1 -0 -0 255 125 0 255
0.37499997 -0.125 -1.8749999 -1 -0 -0 255 125 0 255
0.37499997 -0.125 0.8049998 -1 -0 -0 255 125 0 255
0.37499997 0.125 -1.8749999 -1 -0 -0 255 125 0 255
0.125 0.37499997 0.8049998 -0.70710677 -0.70710677 -7.220928E-18 255 125 0 255
0.37499997 0.125 -1.8749999 -0.70710677 -0.70710677 -7.220928E-18 255 125 0 255
0.37499997 0.125 0.8049998 -0.70710677 -0.70710677 -7.220928E-18 255 125 0 255
0.125 0.37499997 -1.8749999 -0.70710677 -0.70710677 -7.220928E-18 255 125 0 255
0.125 0.37499997 0.8049998 0 -1 -0 255 125 0 255
-0.125 0.37499997 -1.8749999 0 -1 -0 255 125 0 255
0.125 0.37499997 -1.8749999 0 -1 -0 255 125 0 255
0.0625 0.37499997 0.47411156 0 -1 -0 255 125 0 255
0.025888337 0.37499997 0.43749994 0 -1 -0 255 125 0 255
0.0625 0.37499997 0.52588844 0 -1 -0 255 125 0 255
0.025888337 0.37499997 0.5625 0 -1 -0 255 125 0 255
-0.025888337 0.37499997 0.5625 0 -1 -0 255 125 0 255
-0.0625 0.37499997 0.47411156 0 -1 -0 255 125 0 255
-0.125 0.37499997 0.8049998 0 -1 -0 255 125 0 255
-0.025888337 0.37499997 0.43749994 0 -1 -0 255 125 0 255
-0.0625 0.37499997 0.52588844 0 -1 -0 255 125 0 255
-0.125 0.37499997 -1.8749999 0.70710677 -0.70710677 -7.220928E-18 255 125 0 255
-0.37499997 0.125 0.8049998 0.70710677 -0.70710677 -7.220928E-18 255 125 0 255
-0.37499997 0.125 -1.8749999 0.70710677 -0.70710677 -7.220928E-18 255 125 0 255
-0.125 0.37499997 0.8049998 0.70710677 -0.70710677 -7.220928E-18 255 125 0 255
0.07662951 0.185 0.8049998 0 -0 -1 255 125 0 255
-8.6629354E-15 0.22562164 0.8049998 0 -0 -1 255 125 0 255
0.03999999 0.26562175 0.8049998 0 -0 -1 255 125 0 255
-0.07662951 0.185 0.8049998 0 -0 -1 255 125 0 255
-0.03999999 0.26562175 0.8049998 0 -0 -1 255 125 0 255
0.125 -0.37499997 0.8049998 0 -0 -1 255 125 0 255
0.37499997 0.125 0.8049998 0 -0 -1 255 125 0 255
0.37499997 -0.125 0.8049998 0 -0 -1 255 125 0 255
0.30562165 1.4438227E-15 0.8049998 0 -0 -1 255 125 0 255
0.26562175 -0.03999999 0.8049998 0 -0 -1 255 125 0 255
0.22562164 1.4438227E-15 0.8049998 0 -0 -1 255 125 0 255
0.185 -0.07662951 0.8049998 0 -0 -1 255 125 0 255
0.07662951 -0.185 0.8049998 0 -0 -1 255 125 0 255
0.03999999 -0.26562175 0.8049998 0 -0 -1 255 125 0 255
-8.6629354E-15 -0.30562165 0.8049998 0 -0 -1 255 125 0 255
-0.125 -0.37499997 0.8049998 0 -0 -1 255 125 0 255
-0.03999999 -0.26562175 0.8049998 0 -0 -1 255 125 0 255
-0.07662951 -0.185 0.8049998 0 -0 -1 255 125 0 255
-0.185 -0.07662951 0.8049998 0 -0 -1 255 125 0 255
-0.37499997 -0.125 0.8049998 0 -0 -1 255 125 0 255
-0.26562175 -0.03999999 0.8049998 0 -0 -1 255 125 0 255
-0.22562164 1.4438227E-15 0.8049998 0 -0 -1 255 125 0 255
-0.185 0.07662951 0.8049998 0 -0 -1 255 125 0 255
-0.30562165 1.4438227E-15 0.8049998 0 -0 -1 255 125 0 255
0.125 0.37499997 0.8049998 0 -0 -1 255 125 0 255
0.26562175 0.03999999 0.8049998 0 -0 -1 255 125 0 255
0.185 0.07662951 0.8049998 0 -0 -1 255 125 0 255
-8.6629354E-15 0.30562165 0.8049998 0 -0 -1 255 125 0 255
-0.125 0.37499997 0.8049998 0 -0 -1 255 125 0 255
-0.37499997 0.125 0.8049998 0 -0 -1 255 125 0 255
-0.26562175 0.03999999 0.8049998 0 -0 -1 255 125 0 255
-8.6629354E-15 -0.22562164 0.8049998 0 -0 -1 255 125 0 255
0.26562175 -0.03999999 0.8049998 0 -0 -1 84 84 84 255
0.26562175 0.03999999 0.8049998 0 -0 -1 84 84 84 255
0.30562165 1.4438227E-15 0.8049998 0 -0 -1 84 84 84 255
0.22562164 1.4438227E-15 0.8049998 0 -0 -1 84 84 84 255
-8.6629354E-15 0.22562164 0.8049998 0 -0 -1 84 84 84 255
-8.6629354E-15 0.30562165 0.8049998 0 -0 -1 84 84 84 255
0.03999999 0.26562175 0.8049998 0 -0 -1 84 84 84 255
-0.03999999 0.26562175 0.8049998 0 -0 -1 84 84 84 255
-0.26562175 -0.03999999 0.8049998 0 -0 -1 84 84 84 255
-0.26562175 0.03999999 0.8049998 0 -0 -1 84 84 84 255
-0.22562164 1.4438227E-15 0.8049998 0 -0 -1 84 84 84 255
-0.30562165 1.4438227E-15 0.8049998 0 -0 -1 84 84 84 255
-8.6629354E-15 -0.30562165 0.8049998 0 -0 -1 84 84 84 255
-8.6629354E-15 -0.22562164 0.8049998 0 -0 -1 84 84 84 255
0.03999999 -0.26562175 0.8049998 0 -0 -1 84 84 84 255
-0.03999999 -0.26562175 0.8049998 0 -0 -1 84 84 84 255
0.053847767 -0.13 0.8749999 0 -0 -1 84 84 84 255
0.13 0.053847767 0.8749999 0 -0 -1 84 84 84 255
0.13 -0.053847767 0.8749999 0 -0 -1 84 84 84 255
0.053847767 0.13 0.8749999 0 -0 -1 84 84 84 255
-0.053847767 -0.13 0.8749999 0 -0 -1 84 84 84 255
-0.053847767 0.13 0.8749999 0 -0 -1 84 84 84 255
-0.13 -0.053847767 0.8749999 0 -0 -1 84 84 84 255
-0.13 0.053847767 0.8749999 0 -0 -1 84 84 84 255
-0.1625 0.06764233 -1.8749999 -1 -0 -0 84 84 84 255
-0.1625 -0.06697741 -1.8999997 -1 -0 -0 84 84 84 255
-0.1625 -0.06697741 -1.8749999 -1 -0 -0 84 84 84 255
-0.1625 0.06764233 -1.8999997 -1 -0 -0 84 84 84 255
-0.06730962 -0.16216753 -1.8749999 -0.7071058 -0.7071077 -0 84 84 84 255
-0.1625 -0.06697741 -1.8999997 -0.7071058 -0.7071077 -0 84 84 84 255
-0.06730962 -0.16216753 -1.8999997 -0.7071058 -0.7071077 -0 84 84 84 255
-0.1625 -0.06697741 -1.8749999 -0.7071058 -0.7071077 -0 84 84 84 255
-0.1625 0.06764233 -1.8749999 -0.7071058 0.7071077 -0 84 84 84 255
-0.06730962 0.16283245 -1.8999997 -0.7071058 0.7071077 -0 84 84 84 255
-0.1625 0.06764233 -1.8999997 -0.7071058 0.7071077 -0 84 84 84 255
-0.06730962 0.16283245 -1.8749999 -0.7071058 0.7071077 -0 84 84 84 255
0.06730962 -0.16216753 -1.8749999 0 -1 -0 84 84 84 255
-0.06730962 -0.16216753 -1.8999997 0 -1 -0 84 84 84 255
0.06730962 -0.16216753 -1.8999997 0 -1 -0 84 84 84 255
-0.06730962 -0.16216753 -1.8749999 0 -1 -0 84 84 84 255
-0.06730962 0.16283245 -1.8749999 0 1 -0 84 84 84 255
0.06730962 0.16283245 -1.8999997 0 1 -0 84 84 84 255
-0.06730962 0.16283245 -1.8999997 0 1 -0 84 84 84 255
0.06730962 0.16283245 -1.8749999 0 1 -0 84 84 84 255
0.1625 -0.06697741 -1.8749999 0.7071058 -0.7071077 -0 84 84 84 255
0.06730962 -0.16216753 -1.8999997 0.7071058 -0.7071077 -0 84 84 84 255
0.1625 -0.06697741 -1.8999997 0.7071058 -0.7071077 -0 84 84 84 255
0.06730962 -0.16216753 -1.8749999 0.7071058 -0.7071077 -0 84 84 84 255
0.06730962 0.16283245 -1.8749999 0.7071058 0.7071077 -0 84 84 84 255
0.1625 0.06764233 -1.8999997 0.7071058 0.7071077 -0 84 84 84 255
0.06730962 0.16283245 -1.8999997 0.7071058 0.7071077 -0 84 84 84 255
0.1625 0.06764233 -1.8749999 0.7071058 0.7071077 -0 84 84 84 255
0.1625 0.06764233 -1.8999997 1 -0 -0 84 84 84 255
0.1625 -0.06697741 -1.8749999 1 -0 -0 84 84 84 255
0.1625 -0.06697741 -1.8999997 1 -0 -0 84 84 84 255
0.1625 0.06764233 -1.8749999 1 -0 -0 84 84 84 255
3 0 1 2
3 1 0 3
3 4 5 6
3 5 4 7
3 8 9 10
3 9 8 11
3 12 13 14
3 13 12 15
3 15 12 16
3 16 12 17
3 16 17 18
3 18 17 19
3 19 17 20
3 19 20 21
3 13 22 23
3 22 13 15
3 23 22 24
3 23 24 25
3 25 24 26
3 25 26 21
3 25 21 27
3 27 21 20
3 28 29 30
3 29 28 31
3 32 33 34
3 33 32 35
3 36 37 38
3 37 36 39
3 40 41 42
3 41 40 43
3 44 45 46
3 45 44 47
3 48 49 50
3 49 48 51
3 51 48 52
3 52 48 53
3 52 53 54
3 54 53 55
3 55 53 56
3 55 56 57
3 49 58 59
3 58 49 51
3 59 58 60
3 59 60 61
3 61 60 62
3 61 62 57
3 61 57 63
3 63 57 56
3 64 65 66
3 65 64 67
3 67 64 68
3 67 68 69
3 69 68 70
3 69 70 71
3 72 73 74
3 73 72 75
3 76 77 78
3 77 76 79
3 80 81 82
3 81 80 83
3 84 85 86
3 85 84 87
3 88 89 90
3 89 88 91
3 92 93 94
3 93 92 95
3 96 97 98
3 97 96 99
3 100 101 102
3 101 100 103
3 104 105 106
3 105 104 107
3 108 109 110
3 109 108 111
3 111 108 112
3 112 108 113
3 112 113 114
3 114 113 115
3 115 113 116
3 115 116 117
3 109 118 119
3 118 109 111
3 119 118 120
3 119 120 121
3 121 120 122
3 121 122 117
3 121 117 123
3 123 117 116
3 124 125 126
3 125 124 127
3 128 129 130
3 129 128 131
3 132 133 134
3 133 132 135
3 136 137 138
3 137 136 139
3 140 141 142
3 141 140 143
3 144 145 146
3 145 144 147
3 148 149 150
3 149 148 151
3 152 153 154
3 153 152 155
3 155 152 156
3 156 152 157
3 156 157 158
3 158 157 159
3 159 157 160
3 159 160 161
3 153 162 163
3 162 153 155
3 163 162 164
3 163 164 165
3 165 164 166
3 165 166 161
3 165 161 167
3 167 161 160
3 168 169 170
3 169 168 171
3 172 173 174
3 173 172 175
3 176 177 178
3 177 176 179
3 180 181 182
3 181 180 183
3 184 185 186
3 185 184 187
3 188 189 190
3 189 188 191
3 192 193 194
3 193 192 195
3 193 195 196
3 195 192 197
3 197 192 198
3 198 192 199
3 193 200 201
3 200 193 202
3 202 193 196
3 201 200 203
3 201 203 199
3 201 199 192
3 204 205 206
3 205 204 207
3 208 209 210
3 209 208 211
3 209 211 212
3 213 214 215
3 214 213 216
3 216 213 217
3 217 213 218
3 218 213 219
3 219 213 220
3 220 213 221
3 221 213 222
3 222 213 223
3 222 223 224
3 224 223 225
3 225 223 226
3 226 223 227
3 226 227 228
3 226 228 229
3 226 229 230
3 228 227 231
3 216 232 214
3 232 216 233
3 232 233 218
3 232 218 234
3 234 218 219
3 232 234 208
3 232 208 210
3 232 210 235
3 232 235 236
3 236 235 212
3 236 212 211
3 236 211 230
3 236 230 237
3 237 230 238
3 238 230 229
3 237 238 231
3 237 231 227
3 220 239 225
3 239 220 221
3 225 239 224
3 240 241 242
3 241 240 243
3 244 245 246
3 245 244 247
3 248 249 250
3 249 248 251
3 252 253 254
3 253 252 255
3 256 257 258
3 257 256 259
3 259 256 260
3 259 260 261
3 261 260 262
3 261 262 263
3 264 265 266
3 265 264 267
3 268 269 270
3 269 268 271
3 272 273 274
3 273 272 275
3 276 277 278
3 277 276 279
3 280 281 282
3 281 280 283
3 284 285 286
3 285 284 287
3 288 289 290
3 289 288 291
3 292 293 294
3 293 292 295

