ply
format ascii 1.0
commentY29udmVydGVyIGJ5IENvZGVMZW9wYXJk
comment Original mesh name: 'C:\Program Files (x86)\Steam\steamapps\common\Stormworks\rom\meshes\component_gun_v_base.mesh'
comment SubMesh index: 0
comment SubMesh name: 'ID76'
comment Shader: Opaque (0)
element vertex 308
property float x
property float y
property float z
property float nx
property float ny
property float nz
property uchar red
property uchar green
property uchar blue
property uchar alpha
element face 202
property list uchar ushort vertex_index
end_header
0.37499997 -0.13 -0.12549998 -1 -0 -0 199 199 199 255
0.37499997 -0.14499998 -0.25549984 -1 -0 -0 199 199 199 255
0.37499997 -0.14499998 -0.12549998 -1 -0 -0 199 199 199 255
0.37499997 -0.13 -0.25549984 -1 -0 -0 199 199 199 255
0.37499997 -0.125 -0.13049997 -1 -0 -0 199 199 199 255
0.37499997 -0.125 -0.25049996 -1 -0 -0 199 199 199 255
0.37499997 -0.3300001 -0.12549998 -1 -0 -0 58 58 58 255
0.37499997 -0.3350001 -0.25549984 -1 -0 -0 58 58 58 255
0.37499997 -0.3350001 -0.12549998 -1 -0 -0 58 58 58 255
0.37499997 -0.3300001 -0.25549984 -1 -0 -0 58 58 58 255
0.37499997 -0.3250001 -0.13049997 -1 -0 -0 58 58 58 255
0.37499997 -0.3250001 -0.25049996 -1 -0 -0 58 58 58 255
0.37499997 -0.37 0.2555001 -1 -0 -0 199 199 199 255
0.37499997 -0.37499997 0.1305 -1 -0 -0 199 199 199 255
0.37499997 -0.37499997 0.2505 -1 -0 -0 199 199 199 255
0.37499997 -0.37 0.1255 -1 -0 -0 199 199 199 255
0.37499997 -0.35500005 0.2555001 -1 -0 -0 199 199 199 255
0.37499997 -0.35500005 0.1255 -1 -0 -0 199 199 199 255
0.37499997 -0.13 0.2555001 -1 -0 -0 199 199 199 255
0.37499997 -0.14499998 0.1255 -1 -0 -0 199 199 199 255
0.37499997 -0.14499998 0.2555001 -1 -0 -0 199 199 199 255
0.37499997 -0.13 0.1255 -1 -0 -0 199 199 199 255
0.37499997 -0.125 0.2505 -1 -0 -0 199 199 199 255
0.37499997 -0.125 0.1305 -1 -0 -0 199 199 199 255
0.37499997 -0.37499997 0.37499997 -1 -0 -0 255 125 0 255
0.37499997 -0.35500005 0.35500005 -1 -0 -0 255 125 0 255
0.37499997 -0.37499997 0.2505 -1 -0 -0 255 125 0 255
0.37499997 -0.3350001 0.37499997 -1 -0 -0 255 125 0 255
0.37499997 -0.37 0.2555001 -1 -0 -0 255 125 0 255
0.37499997 -0.35500005 0.2555001 -1 -0 -0 255 125 0 255
0.37499997 -0.37 0.1255 -1 -0 -0 255 125 0 255
0.37499997 -0.37499997 -0.13049997 -1 -0 -0 255 125 0 255
0.37499997 -0.37499997 0.1305 -1 -0 -0 255 125 0 255
0.37499997 -0.37 -0.12549998 -1 -0 -0 255 125 0 255
0.37499997 -0.35500005 0.1255 -1 -0 -0 255 125 0 255
0.37499997 -0.35500005 -0.12549998 -1 -0 -0 255 125 0 255
0.37499997 -0.125 0.37499997 -1 1.183509E-13 3.063929E-14 255 125 0 255
0.37499997 -0.14499998 0.35500005 -1 1.183509E-13 3.063929E-14 255 125 0 255
0.37499997 -0.16499999 0.37499997 -1 1.183509E-13 3.063929E-14 255 125 0 255
0.37499997 -0.14499998 0.2555001 -1 1.183509E-13 3.063929E-14 255 125 0 255
0.37499997 -0.13 0.2555001 -1 1.183509E-13 3.063929E-14 255 125 0 255
0.37499997 -0.125 0.2505 -1 1.183509E-13 3.063929E-14 255 125 0 255
0.37499997 -0.13 0.1255 -1 -0 -0 255 125 0 255
0.37499997 -0.14499998 -0.12549998 -1 -0 -0 255 125 0 255
0.37499997 -0.14499998 0.1255 -1 -0 -0 255 125 0 255
0.37499997 -0.13 -0.12549998 -1 -0 -0 255 125 0 255
0.37499997 -0.125 0.1305 -1 -0 -0 255 125 0 255
0.37499997 -0.125 -0.13049997 -1 -0 -0 255 125 0 255
0.37499997 -0.3350001 0.37499997 -1 -2.8661498E-14 8.8985444E-29 58 58 58 255
0.37499997 -0.35500005 0.2555001 -1 -2.8661498E-14 8.8985444E-29 58 58 58 255
0.37499997 -0.35500005 0.35500005 -1 -2.8661498E-14 8.8985444E-29 58 58 58 255
0.37499997 -0.35500005 0.1255 -1 -2.8661498E-14 8.8985444E-29 58 58 58 255
0.37499997 -0.35500005 -0.12549998 -1 -2.8661498E-14 8.8985444E-29 58 58 58 255
0.37499997 -0.35500005 -0.25549984 -1 -2.8661498E-14 8.8985444E-29 58 58 58 255
0.37499997 -0.35500005 -0.35500005 -1 -2.8661498E-14 8.8985444E-29 58 58 58 255
0.37499997 -0.3350001 0.34671584 -1 -2.8661498E-14 8.8985444E-29 58 58 58 255
0.37499997 -0.3267156 0.35500005 -1 -2.8661498E-14 8.8985444E-29 58 58 58 255
0.37499997 -0.16499999 0.37499997 -1 -2.8661498E-14 8.8985444E-29 58 58 58 255
0.37499997 -0.17328428 0.35500005 -1 -2.8661498E-14 8.8985444E-29 58 58 58 255
0.37499997 -0.16499999 0.34671584 -1 -2.8661498E-14 8.8985444E-29 58 58 58 255
0.37499997 -0.16499999 0.2555001 -1 -2.8661498E-14 8.8985444E-29 58 58 58 255
0.37499997 -0.16499999 0.1255 -1 -2.8661498E-14 8.8985444E-29 58 58 58 255
0.37499997 -0.16499999 -0.12549998 -1 -2.8661498E-14 8.8985444E-29 58 58 58 255
0.37499997 -0.16499999 -0.25549984 -1 -2.8661498E-14 8.8985444E-29 58 58 58 255
0.37499997 -0.16499999 -0.34671584 -1 -2.8661498E-14 8.8985444E-29 58 58 58 255
0.37499997 -0.16499999 -0.37499997 -1 -2.8661498E-14 8.8985444E-29 58 58 58 255
0.37499997 -0.14499998 -0.35500005 -1 -2.8661498E-14 8.8985444E-29 58 58 58 255
0.37499997 -0.14499998 0.35500005 -1 -2.8661498E-14 8.8985444E-29 58 58 58 255
0.37499997 -0.14499998 0.2555001 -1 -2.8661498E-14 8.8985444E-29 58 58 58 255
0.37499997 -0.14499998 0.1255 -1 -2.8661498E-14 8.8985444E-29 58 58 58 255
0.37499997 -0.14499998 -0.12549998 -1 -2.8661498E-14 8.8985444E-29 58 58 58 255
0.37499997 -0.14499998 -0.25549984 -1 -2.8661498E-14 8.8985444E-29 58 58 58 255
0.37499997 -0.3350001 -0.34671584 -1 -2.8661498E-14 8.8985444E-29 58 58 58 255
0.37499997 -0.3350001 -0.37499997 -1 -2.8661498E-14 8.8985444E-29 58 58 58 255
0.37499997 -0.3350001 0.2555001 -1 -2.8661498E-14 8.8985444E-29 58 58 58 255
0.37499997 -0.3350001 0.1255 -1 -2.8661498E-14 8.8985444E-29 58 58 58 255
0.37499997 -0.3350001 -0.12549998 -1 -2.8661498E-14 8.8985444E-29 58 58 58 255
0.37499997 -0.3350001 -0.25549984 -1 -2.8661498E-14 8.8985444E-29 58 58 58 255
0.37499997 -0.3267156 -0.35500005 -1 -2.8661498E-14 8.8985444E-29 58 58 58 255
0.37499997 -0.17328428 -0.35500005 -1 -2.8661498E-14 8.8985444E-29 58 58 58 255
0.37499997 -0.13 -0.25549984 -1 1.183509E-13 -3.063929E-14 255 125 0 255
0.37499997 -0.14499998 -0.35500005 -1 1.183509E-13 -3.063929E-14 255 125 0 255
0.37499997 -0.14499998 -0.25549984 -1 1.183509E-13 -3.063929E-14 255 125 0 255
0.37499997 -0.125 -0.37499997 -1 1.183509E-13 -3.063929E-14 255 125 0 255
0.37499997 -0.16499999 -0.37499997 -1 1.183509E-13 -3.063929E-14 255 125 0 255
0.37499997 -0.125 -0.25049996 -1 1.183509E-13 -3.063929E-14 255 125 0 255
0.37499997 -0.37499997 -0.37499997 -1 -0 -0 255 125 0 255
0.37499997 -0.35500005 -0.35500005 -1 -0 -0 255 125 0 255
0.37499997 -0.3350001 -0.37499997 -1 -0 -0 255 125 0 255
0.37499997 -0.37499997 -0.25049996 -1 -0 -0 255 125 0 255
0.37499997 -0.37 -0.25549984 -1 -0 -0 255 125 0 255
0.37499997 -0.35500005 -0.25549984 -1 -0 -0 255 125 0 255
-0.35000002 -0.15699993 -0.17211725 1 -0 -0 141 141 141 255
-0.35000002 -0.28599992 0.19145198 1 -0 -0 141 141 141 255
-0.35000002 -0.28599992 -0.17211725 1 -0 -0 141 141 141 255
-0.35000002 -0.15699993 0.19145198 1 -0 -0 141 141 141 255
-0.37499997 -0.15699993 0.19145198 0 -0 1 58 58 58 255
-0.35000002 -0.28599992 0.19145198 0 -0 1 58 58 58 255
-0.35000002 -0.15699993 0.19145198 0 -0 1 58 58 58 255
-0.37499997 -0.28599992 0.19145198 0 -0 1 58 58 58 255
-0.37499997 -0.15699993 0.19145198 0 1 -0 58 58 58 255
-0.35000002 -0.15699993 -0.17211725 0 1 -0 58 58 58 255
-0.37499997 -0.15699993 -0.17211725 0 1 -0 58 58 58 255
-0.35000002 -0.15699993 0.19145198 0 1 -0 58 58 58 255
-0.35000002 -0.28599992 0.19145198 0 -1 -0 58 58 58 255
-0.37499997 -0.28599992 -0.17211725 0 -1 -0 58 58 58 255
-0.35000002 -0.28599992 -0.17211725 0 -1 -0 58 58 58 255
-0.37499997 -0.28599992 0.19145198 0 -1 -0 58 58 58 255
-0.37499997 -0.28599992 -0.17211725 0 -0 -1 58 58 58 255
-0.35000002 -0.15699993 -0.17211725 0 -0 -1 58 58 58 255
-0.35000002 -0.28599992 -0.17211725 0 -0 -1 58 58 58 255
-0.37499997 -0.15699993 -0.17211725 0 -0 -1 58 58 58 255
-0.37499997 -0.37499997 -0.37499997 1 -0 -0 255 125 0 255
-0.37499997 -0.28599992 -0.17211725 1 -0 -0 255 125 0 255
-0.37499997 -0.37499997 0.37499997 1 -0 -0 255 125 0 255
-0.37499997 -0.125 -0.37499997 1 -0 -0 255 125 0 255
-0.37499997 -0.15699993 -0.17211725 1 -0 -0 255 125 0 255
-0.37499997 -0.15699993 0.19145198 1 -0 -0 255 125 0 255
-0.37499997 -0.28599992 0.19145198 1 -0 -0 255 125 0 255
-0.37499997 -0.125 0.37499997 1 -0 -0 255 125 0 255
-0.37499997 -0.125 0.625 0 -0 -1 58 58 58 255
0.37499997 0.125 0.625 0 -0 -1 58 58 58 255
0.37499997 -0.125 0.625 0 -0 -1 58 58 58 255
-0.37499997 0.125 0.625 0 -0 -1 58 58 58 255
0.37499997 -0.3300001 0.2555001 1.0208748E-13 -0.70710677 -0.70710677 86 86 86 255
0.35500005 -0.3250001 0.2505 1.0208748E-13 -0.70710677 -0.70710677 86 86 86 255
0.37499997 -0.3250001 0.2505 1.0208748E-13 -0.70710677 -0.70710677 86 86 86 255
0.35500005 -0.3300001 0.2555001 1.0208748E-13 -0.70710677 -0.70710677 86 86 86 255
0.35500005 -0.3350001 0.2555001 0 -0 -1 86 86 86 255
0.37499997 -0.3300001 0.2555001 0 -0 -1 86 86 86 255
0.37499997 -0.3350001 0.2555001 0 -0 -1 86 86 86 255
0.35500005 -0.3300001 0.2555001 0 -0 -1 86 86 86 255
0.37499997 -0.3250001 0.2505 2.887646E-13 -1 -0 86 86 86 255
0.35500005 -0.3250001 0.1305 2.887646E-13 -1 -0 86 86 86 255
0.37499997 -0.3250001 0.1305 2.887646E-13 -1 -0 86 86 86 255
0.35500005 -0.3250001 0.2505 2.887646E-13 -1 -0 86 86 86 255
0.37499997 -0.3350001 0.34671584 2.887646E-13 -1 -0 86 86 86 255
0.35500005 -0.3350001 0.2555001 2.887646E-13 -1 -0 86 86 86 255
0.37499997 -0.3350001 0.2555001 2.887646E-13 -1 -0 86 86 86 255
0.35500005 -0.3350001 0.34671584 2.887646E-13 -1 -0 86 86 86 255
0.37499997 -0.3250001 0.1305 1.0208748E-13 -0.70710677 0.70710677 86 86 86 255
0.35500005 -0.3300001 0.1255 1.0208748E-13 -0.70710677 0.70710677 86 86 86 255
0.37499997 -0.3300001 0.1255 1.0208748E-13 -0.70710677 0.70710677 86 86 86 255
0.35500005 -0.3250001 0.1305 1.0208748E-13 -0.70710677 0.70710677 86 86 86 255
0.37499997 -0.3267156 0.35500005 2.0420659E-13 -0.70710677 0.70710677 86 86 86 255
0.35500005 -0.3350001 0.34671584 2.0420659E-13 -0.70710677 0.70710677 86 86 86 255
0.37499997 -0.3350001 0.34671584 2.0420659E-13 -0.70710677 0.70710677 86 86 86 255
0.35500005 -0.3267156 0.35500005 2.0420659E-13 -0.70710677 0.70710677 86 86 86 255
0.35500005 -0.3300001 0.1255 0 -0 1 86 86 86 255
0.37499997 -0.3350001 0.1255 0 -0 1 86 86 86 255
0.37499997 -0.3300001 0.1255 0 -0 1 86 86 86 255
0.35500005 -0.3350001 0.1255 0 -0 1 86 86 86 255
0.35500005 -0.17328428 0.35500005 -1.3598491E-27 4.7051067E-15 1 86 86 86 255
0.37499997 -0.3267156 0.35500005 -1.3598491E-27 4.7051067E-15 1 86 86 86 255
0.37499997 -0.17328428 0.35500005 -1.3598491E-27 4.7051067E-15 1 86 86 86 255
0.35500005 -0.3267156 0.35500005 -1.3598491E-27 4.7051067E-15 1 86 86 86 255
0.37499997 -0.3350001 0.1255 2.887646E-13 -1 -0 86 86 86 255
0.35500005 -0.3350001 -0.12549998 2.887646E-13 -1 -0 86 86 86 255
0.37499997 -0.3350001 -0.12549998 2.887646E-13 -1 -0 86 86 86 255
0.35500005 -0.3350001 0.1255 2.887646E-13 -1 -0 86 86 86 255
0.37499997 -0.16499999 0.34671584 -1.02103296E-13 0.70710677 0.70710677 86 86 86 255
0.35500005 -0.17328428 0.35500005 -1.02103296E-13 0.70710677 0.70710677 86 86 86 255
0.37499997 -0.17328428 0.35500005 -1.02103296E-13 0.70710677 0.70710677 86 86 86 255
0.35500005 -0.16499999 0.34671584 -1.02103296E-13 0.70710677 0.70710677 86 86 86 255
0.35500005 -0.3350001 -0.12549998 0 -0 -1 86 86 86 255
0.37499997 -0.3300001 -0.12549998 0 -0 -1 86 86 86 255
0.37499997 -0.3350001 -0.12549998 0 -0 -1 86 86 86 255
0.35500005 -0.3300001 -0.12549998 0 -0 -1 86 86 86 255
0.35500005 -0.16499999 0.34671584 0 1 -0 86 86 86 255
0.37499997 -0.16499999 0.2555001 0 1 -0 86 86 86 255
0.35500005 -0.16499999 0.2555001 0 1 -0 86 86 86 255
0.37499997 -0.16499999 0.34671584 0 1 -0 86 86 86 255
0.37499997 -0.3300001 -0.12549998 1.0208748E-13 -0.70710677 -0.70710677 86 86 86 255
0.35500005 -0.3250001 -0.13049997 1.0208748E-13 -0.70710677 -0.70710677 86 86 86 255
0.37499997 -0.3250001 -0.13049997 1.0208748E-13 -0.70710677 -0.70710677 86 86 86 255
0.35500005 -0.3300001 -0.12549998 1.0208748E-13 -0.70710677 -0.70710677 86 86 86 255
0.35500005 -0.17 0.2555001 0 -0 -1 86 86 86 255
0.37499997 -0.16499999 0.2555001 0 -0 -1 86 86 86 255
0.37499997 -0.17 0.2555001 0 -0 -1 86 86 86 255
0.35500005 -0.16499999 0.2555001 0 -0 -1 86 86 86 255
0.37499997 -0.3250001 -0.13049997 2.887646E-13 -1 1.4702751E-31 86 86 86 255
0.35500005 -0.3250001 -0.25049996 2.887646E-13 -1 1.4702751E-31 86 86 86 255
0.37499997 -0.3250001 -0.25049996 2.887646E-13 -1 1.4702751E-31 86 86 86 255
0.35500005 -0.3250001 -0.13049997 2.887646E-13 -1 1.4702751E-31 86 86 86 255
0.35500005 -0.175 0.2505 -1.0208748E-13 0.70710677 -0.70710677 86 86 86 255
0.37499997 -0.17 0.2555001 -1.0208748E-13 0.70710677 -0.70710677 86 86 86 255
0.37499997 -0.175 0.2505 -1.0208748E-13 0.70710677 -0.70710677 86 86 86 255
0.35500005 -0.17 0.2555001 -1.0208748E-13 0.70710677 -0.70710677 86 86 86 255
0.37499997 -0.3250001 -0.25049996 1.0686738E-13 -0.70710677 0.70710677 86 86 86 255
0.35500005 -0.3300001 -0.25549984 1.0686738E-13 -0.70710677 0.70710677 86 86 86 255
0.37499997 -0.3300001 -0.25549984 1.0686738E-13 -0.70710677 0.70710677 86 86 86 255
0.35500005 -0.3250001 -0.25049996 1.0686738E-13 -0.70710677 0.70710677 86 86 86 255
0.35500005 -0.175 0.2505 -2.887646E-13 1 1.389636E-26 86 86 86 255
0.37499997 -0.175 0.1305 -2.887646E-13 1 1.389636E-26 86 86 86 255
0.35500005 -0.175 0.1305 -2.887646E-13 1 1.389636E-26 86 86 86 255
0.37499997 -0.175 0.2505 -2.887646E-13 1 1.389636E-26 86 86 86 255
0.35500005 -0.3300001 -0.25549984 6.76792E-15 9.0238935E-15 1 86 86 86 255
0.37499997 -0.3350001 -0.25549984 6.76792E-15 9.0238935E-15 1 86 86 86 255
0.37499997 -0.3300001 -0.25549984 6.76792E-15 9.0238935E-15 1 86 86 86 255
0.35500005 -0.3350001 -0.25549984 6.76792E-15 9.0238935E-15 1 86 86 86 255
0.35500005 -0.175 0.1305 -1.0847388E-13 0.70710677 0.70710677 86 86 86 255
0.37499997 -0.17 0.1255 -1.0847388E-13 0.70710677 0.70710677 86 86 86 255
0.35500005 -0.17 0.1255 -1.0847388E-13 0.70710677 0.70710677 86 86 86 255
0.37499997 -0.175 0.1305 -1.0847388E-13 0.70710677 0.70710677 86 86 86 255
0.37499997 -0.3350001 -0.25549984 2.887646E-13 -1 2.994814E-30 86 86 86 255
0.35500005 -0.3350001 -0.34671584 2.887646E-13 -1 2.994814E-30 86 86 86 255
0.37499997 -0.3350001 -0.34671584 2.887646E-13 -1 2.994814E-30 86 86 86 255
0.35500005 -0.3350001 -0.25549984 2.887646E-13 -1 2.994814E-30 86 86 86 255
0.35500005 -0.16499999 0.1255 -9.0238935E-15 -0 1 86 86 86 255
0.37499997 -0.17 0.1255 -9.0238935E-15 -0 1 86 86 86 255
0.37499997 -0.16499999 0.1255 -9.0238935E-15 -0 1 86 86 86 255
0.35500005 -0.17 0.1255 -9.0238935E-15 -0 1 86 86 86 255
0.37499997 -0.3350001 -0.34671584 1.9942667E-13 -0.70710677 -0.70710677 86 86 86 255
0.35500005 -0.3267156 -0.35500005 1.9942667E-13 -0.70710677 -0.70710677 86 86 86 255
0.37499997 -0.3267156 -0.35500005 1.9942667E-13 -0.70710677 -0.70710677 86 86 86 255
0.35500005 -0.3350001 -0.34671584 1.9942667E-13 -0.70710677 -0.70710677 86 86 86 255
0.35500005 -0.16499999 0.1255 0 1 -0 86 86 86 255
0.37499997 -0.16499999 -0.12549998 0 1 -0 86 86 86 255
0.35500005 -0.16499999 -0.12549998 0 1 -0 86 86 86 255
0.37499997 -0.16499999 0.1255 0 1 -0 86 86 86 255
0.35500005 -0.3267156 -0.35500005 -6.76792E-15 -4.116969E-15 -1 86 86 86 255
0.37499997 -0.17328428 -0.35500005 -6.76792E-15 -4.116969E-15 -1 86 86 86 255
0.37499997 -0.3267156 -0.35500005 -6.76792E-15 -4.116969E-15 -1 86 86 86 255
0.35500005 -0.17328428 -0.35500005 -6.76792E-15 -4.116969E-15 -1 86 86 86 255
0.35500005 -0.17 -0.12549998 9.0238935E-15 -0 -1 86 86 86 255
0.37499997 -0.16499999 -0.12549998 9.0238935E-15 -0 -1 86 86 86 255
0.37499997 -0.17 -0.12549998 9.0238935E-15 -0 -1 86 86 86 255
0.35500005 -0.16499999 -0.12549998 9.0238935E-15 -0 -1 86 86 86 255
0.35500005 -0.17328428 -0.35500005 -1.0686738E-13 0.70710677 -0.70710677 86 86 86 255
0.37499997 -0.16499999 -0.34671584 -1.0686738E-13 0.70710677 -0.70710677 86 86 86 255
0.37499997 -0.17328428 -0.35500005 -1.0686738E-13 0.70710677 -0.70710677 86 86 86 255
0.35500005 -0.16499999 -0.34671584 -1.0686738E-13 0.70710677 -0.70710677 86 86 86 255
0.35500005 -0.175 -0.13049997 -9.571687E-14 0.70710677 -0.70710677 86 86 86 255
0.37499997 -0.17 -0.12549998 -9.571687E-14 0.70710677 -0.70710677 86 86 86 255
0.37499997 -0.175 -0.13049997 -9.571687E-14 0.70710677 -0.70710677 86 86 86 255
0.35500005 -0.17 -0.12549998 -9.571687E-14 0.70710677 -0.70710677 86 86 86 255
0.35500005 -0.16499999 -0.34671584 0 1 -0 86 86 86 255
0.37499997 -0.16499999 -0.25549984 0 1 -0 86 86 86 255
0.37499997 -0.16499999 -0.34671584 0 1 -0 86 86 86 255
0.35500005 -0.16499999 -0.25549984 0 1 -0 86 86 86 255
0.35500005 -0.175 -0.25049996 -2.887646E-13 1 -4.297728E-31 86 86 86 255
0.37499997 -0.175 -0.13049997 -2.887646E-13 1 -4.297728E-31 86 86 86 255
0.37499997 -0.175 -0.25049996 -2.887646E-13 1 -4.297728E-31 86 86 86 255
0.35500005 -0.175 -0.13049997 -2.887646E-13 1 -4.297728E-31 86 86 86 255
0.35500005 -0.16499999 -0.25549984 6.76792E-15 9.0238935E-15 1 86 86 86 255
0.37499997 -0.17 -0.25549984 6.76792E-15 9.0238935E-15 1 86 86 86 255
0.37499997 -0.16499999 -0.25549984 6.76792E-15 9.0238935E-15 1 86 86 86 255
0.35500005 -0.17 -0.25549984 6.76792E-15 9.0238935E-15 1 86 86 86 255
0.35500005 -0.17 -0.25549984 -9.731546E-14 0.70710677 0.70710677 86 86 86 255
0.37499997 -0.175 -0.25049996 -9.731546E-14 0.70710677 0.70710677 86 86 86 255
0.37499997 -0.17 -0.25549984 -9.731546E-14 0.70710677 0.70710677 86 86 86 255
0.35500005 -0.175 -0.25049996 -9.731546E-14 0.70710677 0.70710677 86 86 86 255
0.37499997 -0.37 -0.12549998 -1 -0 -0 199 199 199 255
0.37499997 -0.37499997 -0.25049996 -1 -0 -0 199 199 199 255
0.37499997 -0.37499997 -0.13049997 -1 -0 -0 199 199 199 255
0.37499997 -0.37 -0.25549984 -1 -0 -0 199 199 199 255
0.37499997 -0.35500005 -0.12549998 -1 -0 -0 199 199 199 255
0.37499997 -0.35500005 -0.25549984 -1 -0 -0 199 199 199 255
0.37499997 -0.3300001 0.2555001 -1 -0 -0 58 58 58 255
0.37499997 -0.3350001 0.1255 -1 -0 -0 58 58 58 255
0.37499997 -0.3350001 0.2555001 -1 -0 -0 58 58 58 255
0.37499997 -0.3300001 0.1255 -1 -0 -0 58 58 58 255
0.37499997 -0.3250001 0.2505 -1 -0 -0 58 58 58 255
0.37499997 -0.3250001 0.1305 -1 -0 -0 58 58 58 255
0.37499997 -0.17 0.2555001 -1 -2.887646E-13 1.437832E-14 58 58 58 255
0.37499997 -0.175 0.1305 -1 -2.887646E-13 1.437832E-14 58 58 58 255
0.37499997 -0.175 0.2505 -1 -2.887646E-13 1.437832E-14 58 58 58 255
0.37499997 -0.17 0.1255 -1 -2.887646E-13 1.437832E-14 58 58 58 255
0.37499997 -0.16499999 0.2555001 -1 -2.887646E-13 1.437832E-14 58 58 58 255
0.37499997 -0.16499999 0.1255 -1 -2.887646E-13 1.437832E-14 58 58 58 255
0.37499997 -0.17 -0.12549998 -1 -0 -0 58 58 58 255
0.37499997 -0.175 -0.25049996 -1 -0 -0 58 58 58 255
0.37499997 -0.175 -0.13049997 -1 -0 -0 58 58 58 255
0.37499997 -0.17 -0.25549984 -1 -0 -0 58 58 58 255
0.37499997 -0.16499999 -0.12549998 -1 -0 -0 58 58 58 255
0.37499997 -0.16499999 -0.25549984 -1 -0 -0 58 58 58 255
0.35500005 -0.3267156 0.35500005 -1 -3.166029E-14 1.791177E-15 30 30 30 255
0.35500005 -0.3350001 0.2555001 -1 -3.166029E-14 1.791177E-15 30 30 30 255
0.35500005 -0.3350001 0.34671584 -1 -3.166029E-14 1.791177E-15 30 30 30 255
0.35500005 -0.3300001 0.2555001 -1 -3.166029E-14 1.791177E-15 30 30 30 255
0.35500005 -0.3250001 0.2505 -1 -3.166029E-14 1.791177E-15 30 30 30 255
0.35500005 -0.17328428 0.35500005 -1 -3.166029E-14 1.791177E-15 30 30 30 255
0.35500005 -0.3250001 0.1305 -1 -3.166029E-14 1.791177E-15 30 30 30 255
0.35500005 -0.3250001 -0.13049997 -1 -3.166029E-14 1.791177E-15 30 30 30 255
0.35500005 -0.3250001 -0.25049996 -1 -3.166029E-14 1.791177E-15 30 30 30 255
0.35500005 -0.175 0.2505 -1 -3.166029E-14 1.791177E-15 30 30 30 255
0.35500005 -0.17 0.2555001 -1 -3.166029E-14 1.791177E-15 30 30 30 255
0.35500005 -0.16499999 0.34671584 -1 -3.166029E-14 1.791177E-15 30 30 30 255
0.35500005 -0.16499999 0.2555001 -1 -3.166029E-14 1.791177E-15 30 30 30 255
0.35500005 -0.17 0.1255 -1 -3.166029E-14 1.791177E-15 30 30 30 255
0.35500005 -0.175 -0.13049997 -1 -3.166029E-14 1.791177E-15 30 30 30 255
0.35500005 -0.175 0.1305 -1 -3.166029E-14 1.791177E-15 30 30 30 255
0.35500005 -0.17 -0.12549998 -1 -3.166029E-14 1.791177E-15 30 30 30 255
0.35500005 -0.16499999 0.1255 -1 -3.166029E-14 1.791177E-15 30 30 30 255
0.35500005 -0.16499999 -0.12549998 -1 -3.166029E-14 1.791177E-15 30 30 30 255
0.35500005 -0.3300001 -0.25549984 -1 -3.166029E-14 1.791177E-15 30 30 30 255
0.35500005 -0.3350001 -0.34671584 -1 -3.166029E-14 1.791177E-15 30 30 30 255
0.35500005 -0.3350001 -0.25549984 -1 -3.166029E-14 1.791177E-15 30 30 30 255
0.35500005 -0.3267156 -0.35500005 -1 -3.166029E-14 1.791177E-15 30 30 30 255
0.35500005 -0.17328428 -0.35500005 -1 -3.166029E-14 1.791177E-15 30 30 30 255
0.35500005 -0.175 -0.25049996 -1 -3.166029E-14 1.791177E-15 30 30 30 255
0.35500005 -0.17 -0.25549984 -1 -3.166029E-14 1.791177E-15 30 30 30 255
0.35500005 -0.16499999 -0.34671584 -1 -3.166029E-14 1.791177E-15 30 30 30 255
0.35500005 -0.16499999 -0.25549984 -1 -3.166029E-14 1.791177E-15 30 30 30 255
0.35500005 -0.3300001 0.1255 -1 -3.166029E-14 1.791177E-15 30 30 30 255
0.35500005 -0.3350001 -0.12549998 -1 -3.166029E-14 1.791177E-15 30 30 30 255
0.35500005 -0.3350001 0.1255 -1 -3.166029E-14 1.791177E-15 30 30 30 255
0.35500005 -0.3300001 -0.12549998 -1 -3.166029E-14 1.791177E-15 30 30 30 255
3 0 1 2
3 1 0 3
3 3 0 4
3 3 4 5
3 6 7 8
3 7 6 9
3 9 6 10
3 9 10 11
3 12 13 14
3 13 12 15
3 15 12 16
3 15 16 17
3 18 19 20
3 19 18 21
3 21 18 22
3 21 22 23
3 24 25 26
3 25 24 27
3 26 25 28
3 29 28 25
3 30 31 32
3 31 30 33
3 33 30 34
3 33 34 35
3 36 37 38
3 37 36 39
3 39 36 40
3 40 36 41
3 42 43 44
3 43 42 45
3 45 42 46
3 45 46 47
3 48 49 50
3 49 48 51
3 51 48 52
3 52 48 53
3 53 48 54
3 54 48 55
3 55 48 56
3 56 48 57
3 56 57 58
3 58 57 59
3 59 57 60
3 60 57 61
3 61 57 62
3 62 57 63
3 63 57 64
3 64 57 65
3 65 57 66
3 66 57 67
3 66 67 68
3 66 68 69
3 66 69 70
3 66 70 71
3 54 72 73
3 72 54 55
3 72 55 74
3 72 74 75
3 72 75 76
3 72 76 77
3 73 72 78
3 73 78 65
3 65 78 79
3 65 79 64
3 80 81 82
3 81 83 84
3 83 81 80
3 83 80 85
3 86 87 88
3 87 86 89
3 87 89 90
3 87 90 91
3 92 93 94
3 93 92 95
3 96 97 98
3 97 96 99
3 100 101 102
3 101 100 103
3 104 105 106
3 105 104 107
3 108 109 110
3 109 108 111
3 112 113 114
3 113 112 115
3 113 115 116
3 116 115 117
3 114 118 119
3 118 114 113
3 119 118 117
3 119 117 115
3 120 121 122
3 121 120 123
3 124 125 126
3 125 124 127
3 128 129 130
3 129 128 131
3 132 133 134
3 133 132 135
3 136 137 138
3 137 136 139
3 140 141 142
3 141 140 143
3 144 145 146
3 145 144 147
3 148 149 150
3 149 148 151
3 152 153 154
3 153 152 155
3 156 157 158
3 157 156 159
3 160 161 162
3 161 160 163
3 164 165 166
3 165 164 167
3 168 169 170
3 169 168 171
3 172 173 174
3 173 172 175
3 176 177 178
3 177 176 179
3 180 181 182
3 181 180 183
3 184 185 186
3 185 184 187
3 188 189 190
3 189 188 191
3 192 193 194
3 193 192 195
3 196 197 198
3 197 196 199
3 200 201 202
3 201 200 203
3 204 205 206
3 205 204 207
3 208 209 210
3 209 208 211
3 212 213 214
3 213 212 215
3 216 217 218
3 217 216 219
3 220 221 222
3 221 220 223
3 224 225 226
3 225 224 227
3 228 229 230
3 229 228 231
3 232 233 234
3 233 232 235
3 236 237 238
3 237 236 239
3 240 241 242
3 241 240 243
3 244 245 246
3 245 244 247
3 248 249 250
3 249 248 251
3 252 253 254
3 253 252 255
3 255 252 256
3 255 256 257
3 258 259 260
3 259 258 261
3 261 258 262
3 261 262 263
3 264 265 266
3 265 264 267
3 267 264 268
3 267 268 269
3 270 271 272
3 271 270 273
3 273 270 274
3 273 274 275
3 276 277 278
3 277 276 279
3 279 276 280
3 280 276 281
3 280 281 282
3 282 281 283
3 283 281 284
3 284 281 285
3 285 281 286
3 286 281 287
3 286 287 288
3 289 290 291
3 290 289 292
3 292 289 293
3 292 293 294
3 295 296 297
3 296 295 298
3 298 295 284
3 298 284 299
3 299 284 300
3 300 284 285
3 300 285 291
3 300 291 290
3 299 300 301
3 299 301 302
3 302 301 303
3 304 305 306
3 305 304 307
3 307 304 282
3 307 282 283

