ply
format ascii 1.0
commentY29udmVydGVyIGJ5IENvZGVMZW9wYXJk
comment Original mesh name: 'C:\Program Files (x86)\Steam\steamapps\common\Stormworks\rom\meshes\component_gate_mod.mesh'
comment SubMesh index: 0
comment SubMesh name: 'ID2'
comment Shader: Opaque (0)
element vertex 220
property float x
property float y
property float z
property float nx
property float ny
property float nz
property uchar red
property uchar green
property uchar blue
property uchar alpha
element face 186
property list uchar ushort vertex_index
end_header
0.105 -0.105 -0.05499999 -0.70710677 1.6023739E-30 -0.70710677 86 86 86 255
0.125 0.37499997 -0.074999996 -0.70710677 1.6023739E-30 -0.70710677 86 86 86 255
0.125 -0.125 -0.074999996 -0.70710677 1.6023739E-30 -0.70710677 86 86 86 255
0.105 0.35500005 -0.05499999 -0.70710677 1.6023739E-30 -0.70710677 86 86 86 255
0.125 0.37499997 -0.074999996 -1 -0 -0 86 86 86 255
0.125 -0.125 -0.125 -1 -0 -0 86 86 86 255
0.125 -0.125 -0.074999996 -1 -0 -0 86 86 86 255
0.125 0.37499997 -0.125 -1 -0 -0 86 86 86 255
-0.35500005 -0.105 -0.05499999 8.777824E-19 0.70710677 -0.70710677 86 86 86 255
0.125 -0.125 -0.074999996 8.777824E-19 0.70710677 -0.70710677 86 86 86 255
-0.37499997 -0.125 -0.074999996 8.777824E-19 0.70710677 -0.70710677 86 86 86 255
0.105 -0.105 -0.05499999 8.777824E-19 0.70710677 -0.70710677 86 86 86 255
0.105 0.35500005 -0.05499999 8.777824E-19 -0.70710677 -0.70710677 86 86 86 255
-0.37499997 0.37499997 -0.074999996 8.777824E-19 -0.70710677 -0.70710677 86 86 86 255
0.125 0.37499997 -0.074999996 8.777824E-19 -0.70710677 -0.70710677 86 86 86 255
-0.35500005 0.35500005 -0.05499999 8.777824E-19 -0.70710677 -0.70710677 86 86 86 255
0.125 0.37499997 -0.074999996 0 -1 -0 86 86 86 255
-0.37499997 0.37499997 -0.125 0 -1 -0 86 86 86 255
0.125 0.37499997 -0.125 0 -1 -0 86 86 86 255
-0.37499997 0.37499997 -0.074999996 0 -1 -0 86 86 86 255
-0.37499997 -0.125 -0.074999996 0 1 -0 86 86 86 255
0.125 -0.125 -0.125 0 1 -0 86 86 86 255
-0.37499997 -0.125 -0.125 0 1 -0 86 86 86 255
0.125 -0.125 -0.074999996 0 1 -0 86 86 86 255
-0.37499997 -0.125 -0.074999996 0.70710677 -1.6023739E-30 -0.70710677 86 86 86 255
-0.35500005 0.35500005 -0.05499999 0.70710677 -1.6023739E-30 -0.70710677 86 86 86 255
-0.35500005 -0.105 -0.05499999 0.70710677 -1.6023739E-30 -0.70710677 86 86 86 255
-0.37499997 0.37499997 -0.074999996 0.70710677 -1.6023739E-30 -0.70710677 86 86 86 255
-0.37499997 0.37499997 -0.125 1 -0 -0 86 86 86 255
-0.37499997 -0.125 -0.074999996 1 -0 -0 86 86 86 255
-0.37499997 -0.125 -0.125 1 -0 -0 86 86 86 255
-0.37499997 0.37499997 -0.074999996 1 -0 -0 86 86 86 255
0.105 0.35500005 0.074999996 0 -1 -0 255 125 0 255
-0.35500005 0.35500005 -0.05499999 0 -1 -0 255 125 0 255
0.105 0.35500005 -0.05499999 0 -1 -0 255 125 0 255
-0.35500005 0.35500005 0.074999996 0 -1 -0 255 125 0 255
0.105 0.35500005 0.074999996 -1 -0 -0 255 125 0 255
0.105 -0.105 -0.05499999 -1 -0 -0 255 125 0 255
0.105 -0.105 0.074999996 -1 -0 -0 255 125 0 255
0.105 0.35500005 -0.05499999 -1 -0 -0 255 125 0 255
0.07969999 0.32969984 0.094999984 1.233755E-18 -0.62014675 -0.78448576 255 125 0 255
-0.35500005 0.35500005 0.074999996 1.233755E-18 -0.62014675 -0.78448576 255 125 0 255
0.105 0.35500005 0.074999996 1.233755E-18 -0.62014675 -0.78448576 255 125 0 255
-0.32969984 0.32969984 0.094999984 1.233755E-18 -0.62014675 -0.78448576 255 125 0 255
-0.35500005 0.35500005 -0.05499999 1 -0 -0 255 125 0 255
-0.35500005 -0.105 0.074999996 1 -0 -0 255 125 0 255
-0.35500005 -0.105 -0.05499999 1 -0 -0 255 125 0 255
-0.35500005 0.35500005 0.074999996 1 -0 -0 255 125 0 255
-0.35500005 -0.105 0.074999996 0 1 -0 255 125 0 255
0.105 -0.105 -0.05499999 0 1 -0 255 125 0 255
-0.35500005 -0.105 -0.05499999 0 1 -0 255 125 0 255
0.105 -0.105 0.074999996 0 1 -0 255 125 0 255
0.07969999 -0.07969999 0.094999984 -0.62014675 -3.4204017E-19 -0.78448576 255 125 0 255
0.105 0.35500005 0.074999996 -0.62014675 -3.4204017E-19 -0.78448576 255 125 0 255
0.105 -0.105 0.074999996 -0.62014675 -3.4204017E-19 -0.78448576 255 125 0 255
0.07969999 0.32969984 0.094999984 -0.62014675 -3.4204017E-19 -0.78448576 255 125 0 255
-0.105 0.20499998 0.094999984 -3.516317E-32 -5.86257E-32 -1 255 125 0 255
-0.005 0.20699997 0.094999984 -3.516317E-32 -5.86257E-32 -1 255 125 0 255
-0.005 0.20499998 0.094999984 -3.516317E-32 -5.86257E-32 -1 255 125 0 255
-0.024999999 0.20699997 0.094999984 -3.516317E-32 -5.86257E-32 -1 255 125 0 255
-0.024999999 0.32700008 0.094999984 -3.516317E-32 -5.86257E-32 -1 255 125 0 255
-0.14499998 0.175 0.094999984 -3.516317E-32 -5.86257E-32 -1 255 125 0 255
-0.105 0.175 0.094999984 -3.516317E-32 -5.86257E-32 -1 255 125 0 255
-0.24499997 0.20499998 0.094999984 -3.516317E-32 -5.86257E-32 -1 255 125 0 255
-0.225 0.20699997 0.094999984 -3.516317E-32 -5.86257E-32 -1 255 125 0 255
-0.14499998 0.20499998 0.094999984 -3.516317E-32 -5.86257E-32 -1 255 125 0 255
-0.24499997 0.20699997 0.094999984 -3.516317E-32 -5.86257E-32 -1 255 125 0 255
0.07969999 -0.07969999 0.094999984 -3.516317E-32 -5.86257E-32 -1 255 125 0 255
0.024999999 -0.07699999 0.094999984 -3.516317E-32 -5.86257E-32 -1 255 125 0 255
0.07969999 0.32969984 0.094999984 -3.516317E-32 -5.86257E-32 -1 255 125 0 255
-0.32969984 -0.07969999 0.094999984 -3.516317E-32 -5.86257E-32 -1 255 125 0 255
0.024999999 0.20699997 0.094999984 -3.516317E-32 -5.86257E-32 -1 255 125 0 255
-0.024999999 -0.07699999 0.094999984 -3.516317E-32 -5.86257E-32 -1 255 125 0 255
-0.024999999 0.04299999 0.094999984 -3.516317E-32 -5.86257E-32 -1 255 125 0 255
-0.13 0.04500001 0.094999984 -3.516317E-32 -5.86257E-32 -1 255 125 0 255
-0.13 0.074999996 0.094999984 -3.516317E-32 -5.86257E-32 -1 255 125 0 255
-0.175 0.074999996 0.094999984 -3.516317E-32 -5.86257E-32 -1 255 125 0 255
-0.175 0.175 0.094999984 -3.516317E-32 -5.86257E-32 -1 255 125 0 255
-0.25499997 0.19499998 0.094999984 -3.516317E-32 -5.86257E-32 -1 255 125 0 255
-0.25499997 0.20699997 0.094999984 -3.516317E-32 -5.86257E-32 -1 255 125 0 255
-0.27499992 0.20699997 0.094999984 -3.516317E-32 -5.86257E-32 -1 255 125 0 255
-0.27499992 0.32700008 0.094999984 -3.516317E-32 -5.86257E-32 -1 255 125 0 255
0.024999999 0.32700008 0.094999984 -3.516317E-32 -5.86257E-32 -1 255 125 0 255
-0.32969984 0.32969984 0.094999984 -3.516317E-32 -5.86257E-32 -1 255 125 0 255
-0.225 0.32700008 0.094999984 -3.516317E-32 -5.86257E-32 -1 255 125 0 255
-0.15499999 0.19499998 0.094999984 -3.516317E-32 -5.86257E-32 -1 255 125 0 255
-0.15499999 0.175 0.094999984 -3.516317E-32 -5.86257E-32 -1 255 125 0 255
-0.005 0.04500001 0.094999984 -3.516317E-32 -5.86257E-32 -1 255 125 0 255
-0.005 0.04299999 0.094999984 -3.516317E-32 -5.86257E-32 -1 255 125 0 255
-0.11999998 0.05499999 0.094999984 -3.516317E-32 -5.86257E-32 -1 255 125 0 255
-0.074999996 0.074999996 0.094999984 -3.516317E-32 -5.86257E-32 -1 255 125 0 255
0.005 0.05499999 0.094999984 -3.516317E-32 -5.86257E-32 -1 255 125 0 255
-0.11999998 0.074999996 0.094999984 -3.516317E-32 -5.86257E-32 -1 255 125 0 255
0.005 0.04299999 0.094999984 -3.516317E-32 -5.86257E-32 -1 255 125 0 255
0.005 0.19499998 0.094999984 -3.516317E-32 -5.86257E-32 -1 255 125 0 255
0.024999999 0.04299999 0.094999984 -3.516317E-32 -5.86257E-32 -1 255 125 0 255
-0.074999996 0.175 0.094999984 -3.516317E-32 -5.86257E-32 -1 255 125 0 255
-0.094999984 0.19499998 0.094999984 -3.516317E-32 -5.86257E-32 -1 255 125 0 255
-0.094999984 0.175 0.094999984 -3.516317E-32 -5.86257E-32 -1 255 125 0 255
0.005 0.20699997 0.094999984 -3.516317E-32 -5.86257E-32 -1 255 125 0 255
-0.35500005 -0.105 0.074999996 0.62014675 -3.4204017E-19 -0.78448576 255 125 0 255
-0.32969984 0.32969984 0.094999984 0.62014675 -3.4204017E-19 -0.78448576 255 125 0 255
-0.32969984 -0.07969999 0.094999984 0.62014675 -3.4204017E-19 -0.78448576 255 125 0 255
-0.35500005 0.35500005 0.074999996 0.62014675 -3.4204017E-19 -0.78448576 255 125 0 255
-0.35500005 -0.105 0.074999996 -3.5422235E-18 0.62014675 -0.78448576 255 125 0 255
0.07969999 -0.07969999 0.094999984 -3.5422235E-18 0.62014675 -0.78448576 255 125 0 255
0.105 -0.105 0.074999996 -3.5422235E-18 0.62014675 -0.78448576 255 125 0 255
-0.32969984 -0.07969999 0.094999984 -3.5422235E-18 0.62014675 -0.78448576 255 125 0 255
-0.005 0.20699997 0.094999984 0 -0 -1 86 86 86 255
0.005 0.20699997 0.094999984 0 -0 -1 86 86 86 255
-0.005 0.20499998 0.094999984 0 -0 -1 86 86 86 255
-0.105 0.175 0.094999984 0 -0 -1 86 86 86 255
-0.094999984 0.19499998 0.094999984 0 -0 -1 86 86 86 255
-0.094999984 0.175 0.094999984 0 -0 -1 86 86 86 255
0.005 0.19499998 0.094999984 0 -0 -1 86 86 86 255
-0.105 0.20499998 0.094999984 0 -0 -1 86 86 86 255
0.024999999 0.32700008 0.094999984 0 -0 -1 86 86 86 255
0.024999999 0.20699997 0.094999984 0 -0 -1 86 86 86 255
-0.024999999 0.32700008 0.094999984 0 -0 -1 86 86 86 255
-0.024999999 0.20699997 0.094999984 0 -0 -1 86 86 86 255
-0.074999996 0.175 0.094999984 0 -0 -1 86 86 86 255
-0.085 0.16499999 0.094999984 0 -0 -1 86 86 86 255
-0.085 0.14499998 0.094999984 0 -0 -1 86 86 86 255
-0.16499999 0.105 0.094999984 0 -0 -1 86 86 86 255
-0.13200961 0.14249998 0.094999984 0 -0 -1 86 86 86 255
-0.14499998 0.135 0.094999984 0 -0 -1 86 86 86 255
-0.15799038 0.14249998 0.094999984 0 -0 -1 86 86 86 255
-0.15799038 0.14999999 0.094999984 0 -0 -1 86 86 86 255
-0.15799038 0.15749998 0.094999984 0 -0 -1 86 86 86 255
-0.105 0.114999995 0.094999984 0 -0 -1 86 86 86 255
-0.16499999 0.085 0.094999984 0 -0 -1 86 86 86 255
-0.09200962 0.10749998 0.094999984 0 -0 -1 86 86 86 255
-0.09200962 0.099999994 0.094999984 0 -0 -1 86 86 86 255
-0.117990375 0.10749998 0.094999984 0 -0 -1 86 86 86 255
-0.117990375 0.099999994 0.094999984 0 -0 -1 86 86 86 255
-0.11999998 0.074999996 0.094999984 0 -0 -1 86 86 86 255
-0.13 0.074999996 0.094999984 0 -0 -1 86 86 86 255
-0.175 0.074999996 0.094999984 0 -0 -1 86 86 86 255
-0.13200961 0.15749998 0.094999984 0 -0 -1 86 86 86 255
-0.14499998 0.175 0.094999984 0 -0 -1 86 86 86 255
-0.13200961 0.14999999 0.094999984 0 -0 -1 86 86 86 255
-0.14499998 0.16499999 0.094999984 0 -0 -1 86 86 86 255
-0.15499999 0.175 0.094999984 0 -0 -1 86 86 86 255
-0.175 0.175 0.094999984 0 -0 -1 86 86 86 255
-0.074999996 0.074999996 0.094999984 0 -0 -1 86 86 86 255
-0.09200962 0.09249999 0.094999984 0 -0 -1 86 86 86 255
-0.105 0.085 0.094999984 0 -0 -1 86 86 86 255
-0.117990375 0.09249999 0.094999984 0 -0 -1 86 86 86 255
-0.14499998 0.20499998 0.094999984 0 -0 -1 86 86 86 255
-0.15499999 0.19499998 0.094999984 0 -0 -1 86 86 86 255
-0.24499997 0.20499998 0.094999984 0 -0 -1 86 86 86 255
-0.25499997 0.19499998 0.094999984 0 -0 -1 86 86 86 255
-0.24499997 0.20699997 0.094999984 0 -0 -1 86 86 86 255
-0.25499997 0.20699997 0.094999984 0 -0 -1 86 86 86 255
-0.005 0.04299999 0.094999984 0 -0 -1 86 86 86 255
0.005 0.05499999 0.094999984 0 -0 -1 86 86 86 255
0.005 0.04299999 0.094999984 0 -0 -1 86 86 86 255
-0.005 0.04500001 0.094999984 0 -0 -1 86 86 86 255
-0.11999998 0.05499999 0.094999984 0 -0 -1 86 86 86 255
-0.13 0.04500001 0.094999984 0 -0 -1 86 86 86 255
-0.225 0.32700008 0.094999984 0 -0 -1 86 86 86 255
-0.225 0.20699997 0.094999984 0 -0 -1 86 86 86 255
-0.27499992 0.32700008 0.094999984 0 -0 -1 86 86 86 255
-0.27499992 0.20699997 0.094999984 0 -0 -1 86 86 86 255
-0.024999999 -0.07699999 0.094999984 0 -0 -1 86 86 86 255
0.024999999 0.04299999 0.094999984 0 -0 -1 86 86 86 255
0.024999999 -0.07699999 0.094999984 0 -0 -1 86 86 86 255
-0.024999999 0.04299999 0.094999984 0 -0 -1 86 86 86 255
-0.16499999 0.085 0.094999984 0 -0 -1 199 199 199 255
-0.085 0.16499999 0.094999984 0 -0 -1 199 199 199 255
-0.085 0.14499998 0.094999984 0 -0 -1 199 199 199 255
-0.16499999 0.105 0.094999984 0 -0 -1 199 199 199 255
-0.105 0.094999984 0.094999984 0 -0 -1 86 86 86 255
-0.10066987 0.099999994 0.094999984 0 -0 -1 86 86 86 255
-0.10066987 0.097500004 0.094999984 0 -0 -1 86 86 86 255
-0.10066987 0.10249999 0.094999984 0 -0 -1 86 86 86 255
-0.105 0.105 0.094999984 0 -0 -1 86 86 86 255
-0.10933013 0.097500004 0.094999984 0 -0 -1 86 86 86 255
-0.10933013 0.10249999 0.094999984 0 -0 -1 86 86 86 255
-0.10933013 0.099999994 0.094999984 0 -0 -1 86 86 86 255
-0.105 0.085 0.094999984 0 -0 -1 199 199 199 255
-0.10066987 0.097500004 0.094999984 0 -0 -1 199 199 199 255
-0.09200962 0.09249999 0.094999984 0 -0 -1 199 199 199 255
-0.105 0.094999984 0.094999984 0 -0 -1 199 199 199 255
-0.10933013 0.097500004 0.094999984 0 -0 -1 199 199 199 255
-0.117990375 0.09249999 0.094999984 0 -0 -1 199 199 199 255
-0.10933013 0.099999994 0.094999984 0 -0 -1 199 199 199 255
-0.10933013 0.10249999 0.094999984 0 -0 -1 199 199 199 255
-0.117990375 0.10749998 0.094999984 0 -0 -1 199 199 199 255
-0.117990375 0.099999994 0.094999984 0 -0 -1 199 199 199 255
-0.09200962 0.10749998 0.094999984 0 -0 -1 199 199 199 255
-0.09200962 0.099999994 0.094999984 0 -0 -1 199 199 199 255
-0.105 0.114999995 0.094999984 0 -0 -1 199 199 199 255
-0.10066987 0.10249999 0.094999984 0 -0 -1 199 199 199 255
-0.10066987 0.099999994 0.094999984 0 -0 -1 199 199 199 255
-0.105 0.105 0.094999984 0 -0 -1 199 199 199 255
-0.14499998 0.14499998 0.094999984 0 -0 -1 86 86 86 255
-0.14066987 0.14999999 0.094999984 0 -0 -1 86 86 86 255
-0.14066987 0.1475 0.094999984 0 -0 -1 86 86 86 255
-0.14066987 0.15249999 0.094999984 0 -0 -1 86 86 86 255
-0.14499998 0.15499999 0.094999984 0 -0 -1 86 86 86 255
-0.14933012 0.1475 0.094999984 0 -0 -1 86 86 86 255
-0.14933012 0.15249999 0.094999984 0 -0 -1 86 86 86 255
-0.14933012 0.14999999 0.094999984 0 -0 -1 86 86 86 255
-0.14499998 0.135 0.094999984 0 -0 -1 199 199 199 255
-0.13200961 0.14999999 0.094999984 0 -0 -1 199 199 199 255
-0.13200961 0.14249998 0.094999984 0 -0 -1 199 199 199 255
-0.13200961 0.15749998 0.094999984 0 -0 -1 199 199 199 255
-0.14066987 0.1475 0.094999984 0 -0 -1 199 199 199 255
-0.14499998 0.14499998 0.094999984 0 -0 -1 199 199 199 255
-0.15799038 0.14249998 0.094999984 0 -0 -1 199 199 199 255
-0.14933012 0.1475 0.094999984 0 -0 -1 199 199 199 255
-0.14933012 0.14999999 0.094999984 0 -0 -1 199 199 199 255
-0.14933012 0.15249999 0.094999984 0 -0 -1 199 199 199 255
-0.14066987 0.15249999 0.094999984 0 -0 -1 199 199 199 255
-0.14499998 0.16499999 0.094999984 0 -0 -1 199 199 199 255
-0.14066987 0.14999999 0.094999984 0 -0 -1 199 199 199 255
-0.14499998 0.15499999 0.094999984 0 -0 -1 199 199 199 255
-0.15799038 0.15749998 0.094999984 0 -0 -1 199 199 199 255
-0.15799038 0.14999999 0.094999984 0 -0 -1 199 199 199 255
3 0 1 2
3 1 0 3
3 4 5 6
3 5 4 7
3 8 9 10
3 9 8 11
3 12 13 14
3 13 12 15
3 16 17 18
3 17 16 19
3 20 21 22
3 21 20 23
3 24 25 26
3 25 24 27
3 28 29 30
3 29 28 31
3 32 33 34
3 33 32 35
3 36 37 38
3 37 36 39
3 40 41 42
3 41 40 43
3 44 45 46
3 45 44 47
3 48 49 50
3 49 48 51
3 52 53 54
3 53 52 55
3 56 57 58
3 57 56 59
3 59 56 60
3 61 56 62
3 63 64 65
3 64 63 66
3 67 68 69
3 68 67 70
3 69 68 71
3 68 70 72
3 72 70 73
3 73 70 74
3 74 70 75
3 75 70 76
3 76 70 77
3 77 70 78
3 78 70 79
3 79 70 80
3 80 70 81
3 69 82 83
3 82 69 71
3 83 82 60
3 83 60 84
3 84 60 56
3 84 56 65
3 65 56 61
3 84 65 64
3 83 84 81
3 83 81 70
3 77 85 86
3 85 77 78
3 73 87 88
3 87 73 74
3 89 90 91
3 90 89 92
3 93 94 95
3 94 93 91
3 94 91 96
3 94 96 97
3 96 91 90
3 97 96 98
3 71 95 99
3 95 71 68
3 99 95 94
3 100 101 102
3 101 100 103
3 104 105 106
3 105 104 107
3 108 109 110
3 111 112 113
3 114 110 109
3 110 114 112
3 110 112 115
3 115 112 111
3 109 116 117
3 116 109 118
3 118 109 108
3 118 108 119
3 120 121 113
3 121 120 122
3 113 121 123
3 113 123 124
3 113 124 111
3 124 123 125
3 125 123 126
3 126 123 127
3 127 123 128
3 122 129 130
3 129 122 131
3 131 122 132
3 130 129 133
3 130 133 134
3 130 134 135
3 130 135 136
3 130 136 137
3 130 137 123
3 111 138 139
3 138 111 124
3 138 124 140
3 139 138 141
3 139 141 128
3 139 128 142
3 142 128 143
3 143 128 123
3 143 123 137
3 144 145 120
3 145 144 135
3 120 145 122
3 122 145 132
3 145 135 146
3 146 135 147
3 147 135 134
3 142 148 139
3 148 142 149
3 148 149 150
3 150 149 151
3 150 151 152
3 152 151 153
3 154 155 156
3 155 154 157
3 155 157 158
3 158 157 159
3 158 159 135
3 135 159 136
3 152 160 161
3 160 152 162
3 162 152 153
3 162 153 163
3 164 165 166
3 165 164 156
3 156 164 154
3 154 164 167
3 168 169 170
3 169 168 171
3 172 173 174
3 173 172 175
3 175 172 176
3 176 172 177
3 176 177 178
3 178 177 179
3 180 181 182
3 181 180 183
3 183 180 184
3 184 180 185
3 184 185 186
3 186 185 187
3 187 185 188
3 188 185 189
3 182 190 191
3 190 182 192
3 192 182 193
3 193 182 181
3 193 181 194
3 192 193 195
3 192 195 188
3 188 195 187
3 196 197 198
3 197 196 199
3 199 196 200
3 200 196 201
3 200 201 202
3 202 201 203
3 204 205 206
3 205 204 207
3 207 204 208
3 208 204 209
3 209 204 210
3 209 210 211
3 211 210 212
3 212 210 213
3 207 214 215
3 214 207 208
3 214 208 216
3 215 214 217
3 215 217 213
3 215 213 218
3 218 213 210
3 218 210 219

