ply
format ascii 1.0
commentY29udmVydGVyIGJ5IENvZGVMZW9wYXJk
comment Original mesh name: 'C:\Program Files (x86)\Steam\steamapps\common\Stormworks\rom\meshes\component_fluid_valve_on_off.mesh'
comment SubMesh index: 0
comment SubMesh name: 'ID2'
comment Shader: Opaque (0)
element vertex 420
property float x
property float y
property float z
property float nx
property float ny
property float nz
property uchar red
property uchar green
property uchar blue
property uchar alpha
element face 270
property list uchar ushort vertex_index
end_header
-0.072500005 -0.0525 0.094999984 -7.327472E-15 1.338527E-30 -1 255 125 0 255
-0.0525 -0.02174621 0.094999984 -7.327472E-15 1.338527E-30 -1 255 125 0 255
-0.02174621 -0.0525 0.094999984 -7.327472E-15 1.338527E-30 -1 255 125 0 255
-0.0525 0.02174621 0.094999984 -7.327472E-15 1.338527E-30 -1 255 125 0 255
-0.072500005 -0.02174621 0.094999984 -7.327472E-15 1.338527E-30 -1 255 125 0 255
-0.072500005 0.0525 0.094999984 -7.327472E-15 1.338527E-30 -1 255 125 0 255
-0.02174621 0.0525 0.094999984 -7.327472E-15 1.338527E-30 -1 255 125 0 255
-0.072500005 0.02174621 0.094999984 -7.327472E-15 1.338527E-30 -1 255 125 0 255
-0.0525 -0.02174621 0.094999984 0.70710677 0.70710677 9.9434336E-14 255 125 0 255
-0.02174621 -0.0525 0.35000002 0.70710677 0.70710677 9.9434336E-14 255 125 0 255
-0.02174621 -0.0525 0.094999984 0.70710677 0.70710677 9.9434336E-14 255 125 0 255
-0.0525 -0.02174621 0.35000002 0.70710677 0.70710677 9.9434336E-14 255 125 0 255
0.08324999 -0.10249999 0.07875 2.6964537E-14 0.30908608 -0.951034 255 125 0 255
0.02174621 -0.0525 0.094999984 2.6964537E-14 0.30908608 -0.951034 255 125 0 255
0.10249999 -0.0525 0.094999984 2.6964537E-14 0.30908608 -0.951034 255 125 0 255
0.033249993 -0.10249999 0.07875 2.6964537E-14 0.30908608 -0.951034 255 125 0 255
0.020262044 -0.10249999 0.07875 2.6964537E-14 0.30908608 -0.951034 255 125 0 255
-0.02174621 -0.0525 0.094999984 2.6964537E-14 0.30908608 -0.951034 255 125 0 255
-0.013662044 -0.10249999 0.07875 2.6964537E-14 0.30908608 -0.951034 255 125 0 255
-0.053250004 -0.10249999 0.07875 2.6964537E-14 0.30908608 -0.951034 255 125 0 255
-0.072500005 -0.0525 0.094999984 2.6964537E-14 0.30908608 -0.951034 255 125 0 255
-0.072500005 -0.0525 0.024999999 1 1.833899E-16 -1.951217E-14 255 125 0 255
-0.072500005 -0.02174621 0.094999984 1 1.833899E-16 -1.951217E-14 255 125 0 255
-0.072500005 -0.0525 0.094999984 1 1.833899E-16 -1.951217E-14 255 125 0 255
-0.072500005 -0.02174621 0.024999999 1 1.833899E-16 -1.951217E-14 255 125 0 255
-0.072500005 0.02174621 0.094999984 1 1.833899E-16 -1.951217E-14 255 125 0 255
-0.072500005 0.02174621 0.024999999 1 1.833899E-16 -1.951217E-14 255 125 0 255
-0.072500005 0.0525 0.094999984 1 1.833899E-16 -1.951217E-14 255 125 0 255
-0.072500005 0.0525 0.024999999 1 1.833899E-16 -1.951217E-14 255 125 0 255
0.02174621 0.0525 0.094999984 -6.179778E-14 -0.30908608 -0.951034 255 125 0 255
0.08324999 0.10249999 0.07875 -6.179778E-14 -0.30908608 -0.951034 255 125 0 255
0.10249999 0.0525 0.094999984 -6.179778E-14 -0.30908608 -0.951034 255 125 0 255
0.033249993 0.10249999 0.07875 -6.179778E-14 -0.30908608 -0.951034 255 125 0 255
0.020262044 0.10249999 0.07875 -6.179778E-14 -0.30908608 -0.951034 255 125 0 255
-0.02174621 0.0525 0.094999984 -6.179778E-14 -0.30908608 -0.951034 255 125 0 255
-0.013662044 0.10249999 0.07875 -6.179778E-14 -0.30908608 -0.951034 255 125 0 255
-0.053250004 0.10249999 0.07875 -6.179778E-14 -0.30908608 -0.951034 255 125 0 255
-0.072500005 0.0525 0.094999984 -6.179778E-14 -0.30908608 -0.951034 255 125 0 255
-0.02174621 0.0525 0.35000002 0.70710677 -0.70710677 -1.1654569E-13 255 125 0 255
-0.0525 0.02174621 0.094999984 0.70710677 -0.70710677 -1.1654569E-13 255 125 0 255
-0.02174621 0.0525 0.094999984 0.70710677 -0.70710677 -1.1654569E-13 255 125 0 255
-0.0525 0.02174621 0.35000002 0.70710677 -0.70710677 -1.1654569E-13 255 125 0 255
-0.0525 -0.02174621 0.094999984 1 1.097321E-31 -1.1782239E-14 255 125 0 255
-0.0525 0.02174621 0.35000002 1 1.097321E-31 -1.1782239E-14 255 125 0 255
-0.0525 -0.02174621 0.35000002 1 1.097321E-31 -1.1782239E-14 255 125 0 255
-0.0525 0.02174621 0.094999984 1 1.097321E-31 -1.1782239E-14 255 125 0 255
-0.02174621 -0.0525 0.35000002 4.417621E-29 1 1.5287539E-13 255 125 0 255
0.02174621 -0.0525 0.094999984 4.417621E-29 1 1.5287539E-13 255 125 0 255
-0.02174621 -0.0525 0.094999984 4.417621E-29 1 1.5287539E-13 255 125 0 255
0.02174621 -0.0525 0.35000002 4.417621E-29 1 1.5287539E-13 255 125 0 255
-0.053250004 -0.10249999 0.07875 2.545665E-13 1 2.1561091E-13 255 125 0 255
-0.013662044 -0.10249999 0.041250005 2.545665E-13 1 2.1561091E-13 255 125 0 255
-0.053250004 -0.10249999 0.041250005 2.545665E-13 1 2.1561091E-13 255 125 0 255
-0.013662044 -0.10249999 0.07875 2.545665E-13 1 2.1561091E-13 255 125 0 255
0.020262044 -0.10249999 0.07875 2.545665E-13 1 2.1561091E-13 255 125 0 255
0.033249993 -0.10249999 0.041250005 2.545665E-13 1 2.1561091E-13 255 125 0 255
0.020262044 -0.10249999 0.041250005 2.545665E-13 1 2.1561091E-13 255 125 0 255
0.033249993 -0.10249999 0.07875 2.545665E-13 1 2.1561091E-13 255 125 0 255
-0.072500005 -0.0525 0.024999999 0.9332253 0.3592917 9.7075126E-14 255 125 0 255
-0.053250004 -0.10249999 0.07875 0.9332253 0.3592917 9.7075126E-14 255 125 0 255
-0.053250004 -0.10249999 0.041250005 0.9332253 0.3592917 9.7075126E-14 255 125 0 255
-0.072500005 -0.0525 0.094999984 0.9332253 0.3592917 9.7075126E-14 255 125 0 255
0.10249999 -0.0525 0.094999984 -5.3707043E-15 -1.764271E-30 -1 255 125 0 255
0.10249999 -2.8876444E-14 0.094999984 -5.3707043E-15 -1.764271E-30 -1 255 125 0 255
0.10249999 -0.02174621 0.094999984 -5.3707043E-15 -1.764271E-30 -1 255 125 0 255
0.10249999 0.02174621 0.094999984 -5.3707043E-15 -1.764271E-30 -1 255 125 0 255
0.10249999 0.0525 0.094999984 -5.3707043E-15 -1.764271E-30 -1 255 125 0 255
0.0525 -0.02174621 0.094999984 -5.3707043E-15 -1.764271E-30 -1 255 125 0 255
0.02174621 -0.0525 0.094999984 -5.3707043E-15 -1.764271E-30 -1 255 125 0 255
0.0525 0.02174621 0.094999984 -5.3707043E-15 -1.764271E-30 -1 255 125 0 255
0.02174621 0.0525 0.094999984 -5.3707043E-15 -1.764271E-30 -1 255 125 0 255
0.08324999 -0.10249999 0.07875 -0.9332253 0.3592917 1.081774E-13 255 125 0 255
0.10249999 -0.0525 0.024999999 -0.9332253 0.3592917 1.081774E-13 255 125 0 255
0.08324999 -0.10249999 0.041250005 -0.9332253 0.3592917 1.081774E-13 255 125 0 255
0.10249999 -0.0525 0.094999984 -0.9332253 0.3592917 1.081774E-13 255 125 0 255
-0.072500005 0.0525 0.024999999 7.771561E-16 1.6903799E-31 1 255 125 0 255
-0.0525 0.02174621 0.024999999 7.771561E-16 1.6903799E-31 1 255 125 0 255
-0.02174621 0.0525 0.024999999 7.771561E-16 1.6903799E-31 1 255 125 0 255
-0.0525 -0.02174621 0.024999999 7.771561E-16 1.6903799E-31 1 255 125 0 255
-0.072500005 -0.0525 0.024999999 7.771561E-16 1.6903799E-31 1 255 125 0 255
-0.02174621 -0.0525 0.024999999 7.771561E-16 1.6903799E-31 1 255 125 0 255
-0.072500005 0.02174621 0.024999999 7.771561E-16 1.6903799E-31 1 255 125 0 255
-0.072500005 -0.02174621 0.024999999 7.771561E-16 1.6903799E-31 1 255 125 0 255
-0.072500005 0.0525 0.024999999 0.9332253 -0.3592917 -1.08135695E-13 255 125 0 255
-0.053250004 0.10249999 0.07875 0.9332253 -0.3592917 -1.08135695E-13 255 125 0 255
-0.072500005 0.0525 0.094999984 0.9332253 -0.3592917 -1.08135695E-13 255 125 0 255
-0.053250004 0.10249999 0.041250005 0.9332253 -0.3592917 -1.08135695E-13 255 125 0 255
0.033249993 0.10249999 0.07875 -1.03714204E-13 -1 -5.54428E-13 255 125 0 255
0.020262044 0.10249999 0.041250005 -1.03714204E-13 -1 -5.54428E-13 255 125 0 255
0.033249993 0.10249999 0.041250005 -1.03714204E-13 -1 -5.54428E-13 255 125 0 255
-0.013662044 0.10249999 0.041250005 -1.03714204E-13 -1 -5.54428E-13 255 125 0 255
-0.053250004 0.10249999 0.07875 -1.03714204E-13 -1 -5.54428E-13 255 125 0 255
-0.053250004 0.10249999 0.041250005 -1.03714204E-13 -1 -5.54428E-13 255 125 0 255
0.020262044 0.10249999 0.07875 -1.03714204E-13 -1 -5.54428E-13 255 125 0 255
-0.013662044 0.10249999 0.07875 -1.03714204E-13 -1 -5.54428E-13 255 125 0 255
0.08324999 0.10249999 0.07875 -0.9332253 -0.3592917 -1.519757E-13 255 125 0 255
0.10249999 0.0525 0.024999999 -0.9332253 -0.3592917 -1.519757E-13 255 125 0 255
0.10249999 0.0525 0.094999984 -0.9332253 -0.3592917 -1.519757E-13 255 125 0 255
0.08324999 0.10249999 0.041250005 -0.9332253 -0.3592917 -1.519757E-13 255 125 0 255
0.02174621 0.0525 0.094999984 -4.417621E-29 -1 -1.5287539E-13 255 125 0 255
-0.02174621 0.0525 0.35000002 -4.417621E-29 -1 -1.5287539E-13 255 125 0 255
-0.02174621 0.0525 0.094999984 -4.417621E-29 -1 -1.5287539E-13 255 125 0 255
0.02174621 0.0525 0.35000002 -4.417621E-29 -1 -1.5287539E-13 255 125 0 255
0.0525 -0.02174621 0.35000002 -0.70710677 0.70710677 1.1675379E-13 255 125 0 255
0.02174621 -0.0525 0.094999984 -0.70710677 0.70710677 1.1675379E-13 255 125 0 255
0.02174621 -0.0525 0.35000002 -0.70710677 0.70710677 1.1675379E-13 255 125 0 255
0.0525 -0.02174621 0.094999984 -0.70710677 0.70710677 1.1675379E-13 255 125 0 255
0.02174621 -0.0525 0.024999999 3.8954947E-14 0.30908608 0.951034 255 125 0 255
0.08324999 -0.10249999 0.041250005 3.8954947E-14 0.30908608 0.951034 255 125 0 255
0.10249999 -0.0525 0.024999999 3.8954947E-14 0.30908608 0.951034 255 125 0 255
0.033249993 -0.10249999 0.041250005 3.8954947E-14 0.30908608 0.951034 255 125 0 255
0.020262044 -0.10249999 0.041250005 3.8954947E-14 0.30908608 0.951034 255 125 0 255
-0.02174621 -0.0525 0.024999999 3.8954947E-14 0.30908608 0.951034 255 125 0 255
-0.013662044 -0.10249999 0.041250005 3.8954947E-14 0.30908608 0.951034 255 125 0 255
-0.053250004 -0.10249999 0.041250005 3.8954947E-14 0.30908608 0.951034 255 125 0 255
-0.072500005 -0.0525 0.024999999 3.8954947E-14 0.30908608 0.951034 255 125 0 255
0.10249999 -0.02174621 0.094999984 -1 -2.245021E-15 2.266243E-14 255 125 0 255
0.10249999 -0.0525 0.024999999 -1 -2.245021E-15 2.266243E-14 255 125 0 255
0.10249999 -0.0525 0.094999984 -1 -2.245021E-15 2.266243E-14 255 125 0 255
0.10249999 -0.02174621 0.024999999 -1 -2.245021E-15 2.266243E-14 255 125 0 255
0.10249999 -0.02 0.060000002 -1 -2.245021E-15 2.266243E-14 255 125 0 255
0.10249999 -2.8876444E-14 0.094999984 -1 -2.245021E-15 2.266243E-14 255 125 0 255
0.10249999 -2.3101162E-14 0.07999998 -1 -2.245021E-15 2.266243E-14 255 125 0 255
0.10249999 0.02174621 0.094999984 -1 -2.245021E-15 2.266243E-14 255 125 0 255
0.10249999 0.02 0.060000002 -1 -2.245021E-15 2.266243E-14 255 125 0 255
0.10249999 0 0.024999999 -1 -2.245021E-15 2.266243E-14 255 125 0 255
0.10249999 -5.7752917E-15 0.03999999 -1 -2.245021E-15 2.266243E-14 255 125 0 255
0.10249999 0.02174621 0.024999999 -1 -2.245021E-15 2.266243E-14 255 125 0 255
0.10249999 0.0525 0.094999984 -1 -2.245021E-15 2.266243E-14 255 125 0 255
0.10249999 0.0525 0.024999999 -1 -2.245021E-15 2.266243E-14 255 125 0 255
0.0525 0.02174621 0.35000002 -1 -1.1142029E-31 1.189326E-14 255 125 0 255
0.0525 -0.02174621 0.094999984 -1 -1.1142029E-31 1.189326E-14 255 125 0 255
0.0525 -0.02174621 0.35000002 -1 -1.1142029E-31 1.189326E-14 255 125 0 255
0.0525 0.02174621 0.094999984 -1 -1.1142029E-31 1.189326E-14 255 125 0 255
0.02174621 0.0525 0.35000002 -0.70710677 -0.70710677 -9.929556E-14 255 125 0 255
0.0525 0.02174621 0.094999984 -0.70710677 -0.70710677 -9.929556E-14 255 125 0 255
0.0525 0.02174621 0.35000002 -0.70710677 -0.70710677 -9.929556E-14 255 125 0 255
0.02174621 0.0525 0.094999984 -0.70710677 -0.70710677 -9.929556E-14 255 125 0 255
-0.0525 -0.02174621 0.024999999 0.70710677 0.70710677 -1.2490009E-16 255 125 0 255
-0.02174621 -0.0525 -0.099999994 0.70710677 0.70710677 -1.2490009E-16 255 125 0 255
-0.0525 -0.02174621 -0.099999994 0.70710677 0.70710677 -1.2490009E-16 255 125 0 255
-0.02174621 -0.0525 0.024999999 0.70710677 0.70710677 -1.2490009E-16 255 125 0 255
-0.0525 0.02174621 -0.099999994 1 -0 -3.6082248E-16 255 125 0 255
-0.0525 -0.02174621 0.024999999 1 -0 -3.6082248E-16 255 125 0 255
-0.0525 -0.02174621 -0.099999994 1 -0 -3.6082248E-16 255 125 0 255
-0.0525 0.02174621 0.024999999 1 -0 -3.6082248E-16 255 125 0 255
-0.02174621 0.0525 -0.099999994 0.70710677 -0.70710677 -2.914335E-16 255 125 0 255
-0.0525 0.02174621 0.024999999 0.70710677 -0.70710677 -2.914335E-16 255 125 0 255
-0.0525 0.02174621 -0.099999994 0.70710677 -0.70710677 -2.914335E-16 255 125 0 255
-0.02174621 0.0525 0.024999999 0.70710677 -0.70710677 -2.914335E-16 255 125 0 255
0.08324999 0.10249999 0.041250005 8.257284E-15 -0.30908608 0.951034 255 125 0 255
0.02174621 0.0525 0.024999999 8.257284E-15 -0.30908608 0.951034 255 125 0 255
0.10249999 0.0525 0.024999999 8.257284E-15 -0.30908608 0.951034 255 125 0 255
0.033249993 0.10249999 0.041250005 8.257284E-15 -0.30908608 0.951034 255 125 0 255
0.020262044 0.10249999 0.041250005 8.257284E-15 -0.30908608 0.951034 255 125 0 255
-0.02174621 0.0525 0.024999999 8.257284E-15 -0.30908608 0.951034 255 125 0 255
-0.013662044 0.10249999 0.041250005 8.257284E-15 -0.30908608 0.951034 255 125 0 255
-0.053250004 0.10249999 0.041250005 8.257284E-15 -0.30908608 0.951034 255 125 0 255
-0.072500005 0.0525 0.024999999 8.257284E-15 -0.30908608 0.951034 255 125 0 255
0.02174621 0.0525 0.024999999 5.3707043E-15 1.006186E-29 1 255 125 0 255
0.10249999 0.02174621 0.024999999 5.3707043E-15 1.006186E-29 1 255 125 0 255
0.10249999 0.0525 0.024999999 5.3707043E-15 1.006186E-29 1 255 125 0 255
0.10249999 0 0.024999999 5.3707043E-15 1.006186E-29 1 255 125 0 255
0.10249999 -0.02174621 0.024999999 5.3707043E-15 1.006186E-29 1 255 125 0 255
0.0525 0.02174621 0.024999999 5.3707043E-15 1.006186E-29 1 255 125 0 255
0.02174621 -0.0525 0.024999999 5.3707043E-15 1.006186E-29 1 255 125 0 255
0.10249999 -0.0525 0.024999999 5.3707043E-15 1.006186E-29 1 255 125 0 255
0.0525 -0.02174621 0.024999999 5.3707043E-15 1.006186E-29 1 255 125 0 255
-0.02174621 -0.0525 -0.099999994 0 1 -0 255 125 0 255
0.02174621 -0.0525 0.024999999 0 1 -0 255 125 0 255
0.02174621 -0.0525 -0.099999994 0 1 -0 255 125 0 255
-0.02174621 -0.0525 0.024999999 0 1 -0 255 125 0 255
0.02174621 0.0525 0.024999999 0 -1 -0 255 125 0 255
-0.02174621 0.0525 -0.099999994 0 -1 -0 255 125 0 255
0.02174621 0.0525 -0.099999994 0 -1 -0 255 125 0 255
-0.02174621 0.0525 0.024999999 0 -1 -0 255 125 0 255
0.0525 -0.02174621 0.024999999 -0.70710677 0.70710677 8.326672E-17 255 125 0 255
0.02174621 -0.0525 -0.099999994 -0.70710677 0.70710677 8.326672E-17 255 125 0 255
0.02174621 -0.0525 0.024999999 -0.70710677 0.70710677 8.326672E-17 255 125 0 255
0.0525 -0.02174621 -0.099999994 -0.70710677 0.70710677 8.326672E-17 255 125 0 255
0.02174621 0.0525 0.024999999 -0.70710677 -0.70710677 1.2490009E-16 255 125 0 255
0.0525 0.02174621 -0.099999994 -0.70710677 -0.70710677 1.2490009E-16 255 125 0 255
0.0525 0.02174621 0.024999999 -0.70710677 -0.70710677 1.2490009E-16 255 125 0 255
0.02174621 0.0525 -0.099999994 -0.70710677 -0.70710677 1.2490009E-16 255 125 0 255
0.0525 0.02174621 0.024999999 -1 -0 3.6082248E-16 255 125 0 255
0.0525 -0.02174621 -0.099999994 -1 -0 3.6082248E-16 255 125 0 255
0.0525 -0.02174621 0.024999999 -1 -0 3.6082248E-16 255 125 0 255
0.0525 0.02174621 -0.099999994 -1 -0 3.6082248E-16 255 125 0 255
0.26999995 -4.6202317E-14 0.13 -3.4833245E-15 -0.70710677 -0.70710677 86 86 86 255
0.19499998 0.051250007 0.07875 -3.4833245E-15 -0.70710677 -0.70710677 86 86 86 255
0.26999995 0.051250007 0.07875 -3.4833245E-15 -0.70710677 -0.70710677 86 86 86 255
0.19499998 -4.6202317E-14 0.13 -3.4833245E-15 -0.70710677 -0.70710677 86 86 86 255
0.26999995 0.1225 0.07875 -2.589595E-14 3.413149E-13 -1 86 86 86 255
0.19499998 0.10249999 0.07875 -2.589595E-14 3.413149E-13 -1 86 86 86 255
0.053250004 0.1225 0.07875 -2.589595E-14 3.413149E-13 -1 86 86 86 255
0.26999995 0.051250007 0.07875 -2.589595E-14 3.413149E-13 -1 86 86 86 255
0.19499998 0.051250007 0.07875 -2.589595E-14 3.413149E-13 -1 86 86 86 255
0.08324999 0.10249999 0.07875 -2.589595E-14 3.413149E-13 -1 86 86 86 255
0.033249993 0.10249999 0.07875 -2.589595E-14 3.413149E-13 -1 86 86 86 255
0.19499998 -0.051250007 0.07875 -1.9151347E-15 0.70710677 -0.70710677 86 86 86 255
0.26999995 -4.6202317E-14 0.13 -1.9151347E-15 0.70710677 -0.70710677 86 86 86 255
0.26999995 -0.051250007 0.07875 -1.9151347E-15 0.70710677 -0.70710677 86 86 86 255
0.19499998 -4.6202317E-14 0.13 -1.9151347E-15 0.70710677 -0.70710677 86 86 86 255
0.053250004 0.1225 0.07875 0.70710677 -0.70710677 -2.7049196E-13 86 86 86 255
0.033249993 0.10249999 0.041250005 0.70710677 -0.70710677 -2.7049196E-13 86 86 86 255
0.053250004 0.1225 0.041250005 0.70710677 -0.70710677 -2.7049196E-13 86 86 86 255
0.033249993 0.10249999 0.07875 0.70710677 -0.70710677 -2.7049196E-13 86 86 86 255
0.26999995 0.1225 0.07875 -6.6612357E-15 -1 -1.4791141E-30 86 86 86 255
0.053250004 0.1225 0.041250005 -6.6612357E-15 -1 -1.4791141E-30 86 86 86 255
0.26999995 0.1225 0.041250005 -6.6612357E-15 -1 -1.4791141E-30 86 86 86 255
0.053250004 0.1225 0.07875 -6.6612357E-15 -1 -1.4791141E-30 86 86 86 255
0.26999995 -0.1225 0.07875 4.357625E-15 -4.518908E-14 -1 86 86 86 255
0.19499998 -0.051250007 0.07875 4.357625E-15 -4.518908E-14 -1 86 86 86 255
0.26999995 -0.051250007 0.07875 4.357625E-15 -4.518908E-14 -1 86 86 86 255
0.19499998 -0.10249999 0.07875 4.357625E-15 -4.518908E-14 -1 86 86 86 255
0.053250004 -0.1225 0.07875 4.357625E-15 -4.518908E-14 -1 86 86 86 255
0.08324999 -0.10249999 0.07875 4.357625E-15 -4.518908E-14 -1 86 86 86 255
0.033249993 -0.10249999 0.07875 4.357625E-15 -4.518908E-14 -1 86 86 86 255
0.26999995 0.1225 0.041250005 2.54935E-14 -3.390826E-13 1 86 86 86 255
0.19499998 0.10249999 0.041250005 2.54935E-14 -3.390826E-13 1 86 86 86 255
0.26999995 0.051250007 0.041250005 2.54935E-14 -3.390826E-13 1 86 86 86 255
0.053250004 0.1225 0.041250005 2.54935E-14 -3.390826E-13 1 86 86 86 255
0.19499998 0.051250007 0.041250005 2.54935E-14 -3.390826E-13 1 86 86 86 255
0.08324999 0.10249999 0.041250005 2.54935E-14 -3.390826E-13 1 86 86 86 255
0.033249993 0.10249999 0.041250005 2.54935E-14 -3.390826E-13 1 86 86 86 255
0.053250004 -0.1225 0.07875 6.6612357E-15 1 1.9721518E-31 86 86 86 255
0.26999995 -0.1225 0.041250005 6.6612357E-15 1 1.9721518E-31 86 86 86 255
0.053250004 -0.1225 0.041250005 6.6612357E-15 1 1.9721518E-31 86 86 86 255
0.26999995 -0.1225 0.07875 6.6612357E-15 1 1.9721518E-31 86 86 86 255
0.033249993 -0.10249999 0.041250005 0.70710677 0.70710677 -4.8711035E-14 86 86 86 255
0.053250004 -0.1225 0.07875 0.70710677 0.70710677 -4.8711035E-14 86 86 86 255
0.053250004 -0.1225 0.041250005 0.70710677 0.70710677 -4.8711035E-14 86 86 86 255
0.033249993 -0.10249999 0.07875 0.70710677 0.70710677 -4.8711035E-14 86 86 86 255
0.26999995 0.051250007 0.041250005 1.7902348E-15 -0.70710677 0.70710677 86 86 86 255
0.19499998 -7.219114E-15 -0.01 1.7902348E-15 -0.70710677 0.70710677 86 86 86 255
0.26999995 -7.219114E-15 -0.01 1.7902348E-15 -0.70710677 0.70710677 86 86 86 255
0.19499998 0.051250007 0.041250005 1.7902348E-15 -0.70710677 0.70710677 86 86 86 255
0.19499998 -0.051250007 0.041250005 -3.3029129E-15 6.604747E-14 1 86 86 86 255
0.26999995 -0.1225 0.041250005 -3.3029129E-15 6.604747E-14 1 86 86 86 255
0.26999995 -0.051250007 0.041250005 -3.3029129E-15 6.604747E-14 1 86 86 86 255
0.19499998 -0.10249999 0.041250005 -3.3029129E-15 6.604747E-14 1 86 86 86 255
0.053250004 -0.1225 0.041250005 -3.3029129E-15 6.604747E-14 1 86 86 86 255
0.08324999 -0.10249999 0.041250005 -3.3029129E-15 6.604747E-14 1 86 86 86 255
0.033249993 -0.10249999 0.041250005 -3.3029129E-15 6.604747E-14 1 86 86 86 255
0.26999995 -7.219114E-15 -0.01 2.0539128E-15 0.70710677 0.70710677 86 86 86 255
0.19499998 -0.051250007 0.041250005 2.0539128E-15 0.70710677 0.70710677 86 86 86 255
0.26999995 -0.051250007 0.041250005 2.0539128E-15 0.70710677 0.70710677 86 86 86 255
0.19499998 -7.219114E-15 -0.01 2.0539128E-15 0.70710677 0.70710677 86 86 86 255
0.175 -5.7752917E-15 0.03999999 1.7597026E-14 0.70710677 0.70710677 199 199 199 255
0.10249999 -0.02 0.060000002 1.7597026E-14 0.70710677 0.70710677 199 199 199 255
0.175 -0.02 0.060000002 1.7597026E-14 0.70710677 0.70710677 199 199 199 255
0.10249999 -5.7752917E-15 0.03999999 1.7597026E-14 0.70710677 0.70710677 199 199 199 255
0.10249999 -0.02 0.060000002 -1.7860708E-14 0.70710677 -0.70710677 199 199 199 255
0.175 -2.3101162E-14 0.07999998 -1.7860708E-14 0.70710677 -0.70710677 199 199 199 255
0.175 -0.02 0.060000002 -1.7860708E-14 0.70710677 -0.70710677 199 199 199 255
0.10249999 -2.3101162E-14 0.07999998 -1.7860708E-14 0.70710677 -0.70710677 199 199 199 255
0.175 -2.3101162E-14 0.07999998 -1 -0 2.5188178E-14 199 199 199 255
0.175 -5.7752917E-15 0.03999999 -1 -0 2.5188178E-14 199 199 199 255
0.175 -0.02 0.060000002 -1 -0 2.5188178E-14 199 199 199 255
0.175 0.02 0.060000002 -1 -0 2.5188178E-14 199 199 199 255
0.19499998 -0.051250007 0.041250005 0.8703883 0.3481553 0.3481553 199 199 199 255
0.175 -0.02 0.060000002 0.8703883 0.3481553 0.3481553 199 199 199 255
0.19499998 -0.07000001 0.060000002 0.8703883 0.3481553 0.3481553 199 199 199 255
0.19499998 -7.219114E-15 -0.01 0.8703883 0.3481553 0.3481553 199 199 199 255
0.175 -5.7752917E-15 0.03999999 0.8703883 0.3481553 0.3481553 199 199 199 255
0.175 0.02 0.060000002 1.7860708E-14 -0.70710677 0.70710677 199 199 199 255
0.10249999 -5.7752917E-15 0.03999999 1.7860708E-14 -0.70710677 0.70710677 199 199 199 255
0.175 -5.7752917E-15 0.03999999 1.7860708E-14 -0.70710677 0.70710677 199 199 199 255
0.10249999 0.02 0.060000002 1.7860708E-14 -0.70710677 0.70710677 199 199 199 255
0.10249999 -2.3101162E-14 0.07999998 -1.7597026E-14 -0.70710677 -0.70710677 199 199 199 255
0.175 0.02 0.060000002 -1.7597026E-14 -0.70710677 -0.70710677 199 199 199 255
0.175 -2.3101162E-14 0.07999998 -1.7597026E-14 -0.70710677 -0.70710677 199 199 199 255
0.10249999 0.02 0.060000002 -1.7597026E-14 -0.70710677 -0.70710677 199 199 199 255
0.175 -0.02 0.060000002 0.8703883 0.3481553 -0.3481553 199 199 199 255
0.19499998 -0.051250007 0.07875 0.8703883 0.3481553 -0.3481553 199 199 199 255
0.19499998 -0.07000001 0.060000002 0.8703883 0.3481553 -0.3481553 199 199 199 255
0.19499998 -4.6202317E-14 0.13 0.8703883 0.3481553 -0.3481553 199 199 199 255
0.175 -2.3101162E-14 0.07999998 0.8703883 0.3481553 -0.3481553 199 199 199 255
0.19499998 0.051250007 0.041250005 0.8703883 -0.3481553 0.3481553 199 199 199 255
0.175 -5.7752917E-15 0.03999999 0.8703883 -0.3481553 0.3481553 199 199 199 255
0.19499998 -7.219114E-15 -0.01 0.8703883 -0.3481553 0.3481553 199 199 199 255
0.175 0.02 0.060000002 0.8703883 -0.3481553 0.3481553 199 199 199 255
0.19499998 0.07000001 0.060000002 0.8703883 -0.3481553 0.3481553 199 199 199 255
0.19499998 -0.051250007 0.041250005 1 -3.4655747E-15 2.027545E-14 199 199 199 255
0.19499998 -0.10249999 0.07875 1 -3.4655747E-15 2.027545E-14 199 199 199 255
0.19499998 -0.10249999 0.041250005 1 -3.4655747E-15 2.027545E-14 199 199 199 255
0.19499998 -0.07000001 0.060000002 1 -3.4655747E-15 2.027545E-14 199 199 199 255
0.19499998 -0.051250007 0.07875 1 -3.4655747E-15 2.027545E-14 199 199 199 255
0.175 -2.3101162E-14 0.07999998 0.8703883 -0.3481553 -0.3481553 199 199 199 255
0.19499998 0.051250007 0.07875 0.8703883 -0.3481553 -0.3481553 199 199 199 255
0.19499998 -4.6202317E-14 0.13 0.8703883 -0.3481553 -0.3481553 199 199 199 255
0.175 0.02 0.060000002 0.8703883 -0.3481553 -0.3481553 199 199 199 255
0.19499998 0.07000001 0.060000002 0.8703883 -0.3481553 -0.3481553 199 199 199 255
0.19499998 0.10249999 0.041250005 1 8.3651804E-16 -3.176626E-14 199 199 199 255
0.19499998 0.07000001 0.060000002 1 8.3651804E-16 -3.176626E-14 199 199 199 255
0.19499998 0.051250007 0.041250005 1 8.3651804E-16 -3.176626E-14 199 199 199 255
0.19499998 0.10249999 0.07875 1 8.3651804E-16 -3.176626E-14 199 199 199 255
0.19499998 0.051250007 0.07875 1 8.3651804E-16 -3.176626E-14 199 199 199 255
0.19499998 -0.10249999 0.041250005 -1.956375E-27 -1 1.5400779E-13 199 199 199 255
0.08324999 -0.10249999 0.07875 -1.956375E-27 -1 1.5400779E-13 199 199 199 255
0.08324999 -0.10249999 0.041250005 -1.956375E-27 -1 1.5400779E-13 199 199 199 255
0.19499998 -0.10249999 0.07875 -1.956375E-27 -1 1.5400779E-13 199 199 199 255
0.08324999 0.10249999 0.041250005 7.333251E-27 1 7.315369E-13 199 199 199 255
0.19499998 0.10249999 0.07875 7.333251E-27 1 7.315369E-13 199 199 199 255
0.19499998 0.10249999 0.041250005 7.333251E-27 1 7.315369E-13 199 199 199 255
0.08324999 0.10249999 0.07875 7.333251E-27 1 7.315369E-13 199 199 199 255
0.033249993 -0.10249999 0.07875 2.8876458E-14 1 -1.5400779E-13 255 255 255 255
0.08324999 -0.10249999 0.041250005 2.8876458E-14 1 -1.5400779E-13 255 255 255 255
0.033249993 -0.10249999 0.041250005 2.8876458E-14 1 -1.5400779E-13 255 255 255 255
0.08324999 -0.10249999 0.07875 2.8876458E-14 1 -1.5400779E-13 255 255 255 255
0.08324999 0.10249999 0.07875 -2.8876458E-14 -1 -7.315369E-13 255 255 255 255
0.033249993 0.10249999 0.041250005 -2.8876458E-14 -1 -7.315369E-13 255 255 255 255
0.08324999 0.10249999 0.041250005 -2.8876458E-14 -1 -7.315369E-13 255 255 255 255
0.033249993 0.10249999 0.07875 -2.8876458E-14 -1 -7.315369E-13 255 255 255 255
0.26999995 -0.051250007 0.07875 -1 9.372634E-15 6.77236E-15 199 199 199 255
0.26999995 -0.1225 0.041250005 -1 9.372634E-15 6.77236E-15 199 199 199 255
0.26999995 -0.1225 0.07875 -1 9.372634E-15 6.77236E-15 199 199 199 255
0.26999995 -0.051250007 0.041250005 -1 9.372634E-15 6.77236E-15 199 199 199 255
0.26999995 -4.6202317E-14 0.13 -1 9.372634E-15 6.77236E-15 199 199 199 255
0.26999995 -7.219114E-15 -0.01 -1 9.372634E-15 6.77236E-15 199 199 199 255
0.26999995 0.051250007 0.07875 -1 9.372634E-15 6.77236E-15 199 199 199 255
0.26999995 0.051250007 0.041250005 -1 9.372634E-15 6.77236E-15 199 199 199 255
0.26999995 0.1225 0.041250005 -1 9.372634E-15 6.77236E-15 199 199 199 255
0.26999995 0.1225 0.07875 -1 9.372634E-15 6.77236E-15 199 199 199 255
0.025888337 0.0625 0.37499997 0 -1 -0 255 125 0 255
-0.025888337 0.0625 0.35000002 0 -1 -0 255 125 0 255
0.025888337 0.0625 0.35000002 0 -1 -0 255 125 0 255
-0.025888337 0.0625 0.37499997 0 -1 -0 255 125 0 255
0.0625 0.025888337 0.35000002 1.221245E-15 1.4250681E-29 1 255 125 0 255
0.0525 0.02174621 0.35000002 1.221245E-15 1.4250681E-29 1 255 125 0 255
0.0625 -0.025888337 0.35000002 1.221245E-15 1.4250681E-29 1 255 125 0 255
0.025888337 0.0625 0.35000002 1.221245E-15 1.4250681E-29 1 255 125 0 255
0.02174621 0.0525 0.35000002 1.221245E-15 1.4250681E-29 1 255 125 0 255
-0.025888337 0.0625 0.35000002 1.221245E-15 1.4250681E-29 1 255 125 0 255
-0.02174621 0.0525 0.35000002 1.221245E-15 1.4250681E-29 1 255 125 0 255
-0.0525 0.02174621 0.35000002 1.221245E-15 1.4250681E-29 1 255 125 0 255
-0.0625 0.025888337 0.35000002 1.221245E-15 1.4250681E-29 1 255 125 0 255
-0.0525 -0.02174621 0.35000002 1.221245E-15 1.4250681E-29 1 255 125 0 255
0.0525 -0.02174621 0.35000002 1.221245E-15 1.4250681E-29 1 255 125 0 255
0.025888337 -0.0625 0.35000002 1.221245E-15 1.4250681E-29 1 255 125 0 255
0.02174621 -0.0525 0.35000002 1.221245E-15 1.4250681E-29 1 255 125 0 255
-0.025888337 -0.0625 0.35000002 1.221245E-15 1.4250681E-29 1 255 125 0 255
-0.02174621 -0.0525 0.35000002 1.221245E-15 1.4250681E-29 1 255 125 0 255
-0.0625 -0.025888337 0.35000002 1.221245E-15 1.4250681E-29 1 255 125 0 255
0.0625 0.025888337 0.37499997 -0.70710677 -0.70710677 1.5543119E-15 255 125 0 255
0.025888337 0.0625 0.35000002 -0.70710677 -0.70710677 1.5543119E-15 255 125 0 255
0.0625 0.025888337 0.35000002 -0.70710677 -0.70710677 1.5543119E-15 255 125 0 255
0.025888337 0.0625 0.37499997 -0.70710677 -0.70710677 1.5543119E-15 255 125 0 255
-0.025888337 0.0625 0.35000002 0.70710677 -0.70710677 -8.7430047E-16 255 125 0 255
-0.0625 0.025888337 0.37499997 0.70710677 -0.70710677 -8.7430047E-16 255 125 0 255
-0.0625 0.025888337 0.35000002 0.70710677 -0.70710677 -8.7430047E-16 255 125 0 255
-0.025888337 0.0625 0.37499997 0.70710677 -0.70710677 -8.7430047E-16 255 125 0 255
-0.0625 -0.025888337 0.35000002 0.70710677 0.70710677 -8.604227E-16 255 125 0 255
-0.025888337 -0.0625 0.37499997 0.70710677 0.70710677 -8.604227E-16 255 125 0 255
-0.025888337 -0.0625 0.35000002 0.70710677 0.70710677 -8.604227E-16 255 125 0 255
-0.0625 -0.025888337 0.37499997 0.70710677 0.70710677 -8.604227E-16 255 125 0 255
-0.025888337 -0.0625 0.35000002 0 1 -0 255 125 0 255
0.025888337 -0.0625 0.37499997 0 1 -0 255 125 0 255
0.025888337 -0.0625 0.35000002 0 1 -0 255 125 0 255
-0.025888337 -0.0625 0.37499997 0 1 -0 255 125 0 255
0.0625 -0.025888337 0.37499997 -0.70710677 0.70710677 1.4294119E-15 255 125 0 255
0.025888337 -0.0625 0.35000002 -0.70710677 0.70710677 1.4294119E-15 255 125 0 255
0.025888337 -0.0625 0.37499997 -0.70710677 0.70710677 1.4294119E-15 255 125 0 255
0.0625 -0.025888337 0.35000002 -0.70710677 0.70710677 1.4294119E-15 255 125 0 255
0.0625 0.025888337 0.37499997 -1 -0 2.095546E-15 255 125 0 255
0.0625 -0.025888337 0.35000002 -1 -0 2.095546E-15 255 125 0 255
0.0625 -0.025888337 0.37499997 -1 -0 2.095546E-15 255 125 0 255
0.0625 0.025888337 0.35000002 -1 -0 2.095546E-15 255 125 0 255
-0.0625 0.025888337 0.35000002 1 -0 -3.6082248E-16 255 125 0 255
-0.0625 -0.025888337 0.37499997 1 -0 -3.6082248E-16 255 125 0 255
-0.0625 -0.025888337 0.35000002 1 -0 -3.6082248E-16 255 125 0 255
-0.0625 0.025888337 0.37499997 1 -0 -3.6082248E-16 255 125 0 255
0.025888337 0.0625 -0.099999994 -0.70710677 -0.70710677 1.4571678E-15 255 125 0 255
0.0625 0.025888337 -0.125 -0.70710677 -0.70710677 1.4571678E-15 255 125 0 255
0.0625 0.025888337 -0.099999994 -0.70710677 -0.70710677 1.4571678E-15 255 125 0 255
0.025888337 0.0625 -0.125 -0.70710677 -0.70710677 1.4571678E-15 255 125 0 255
0.0625 0.025888337 -0.099999994 -1 -0 2.095546E-15 255 125 0 255
0.0625 -0.025888337 -0.125 -1 -0 2.095546E-15 255 125 0 255
0.0625 -0.025888337 -0.099999994 -1 -0 2.095546E-15 255 125 0 255
0.0625 0.025888337 -0.125 -1 -0 2.095546E-15 255 125 0 255
0.0625 -0.025888337 -0.099999994 -1.7624789E-15 -1.182749E-29 -1 255 125 0 255
0.0525 -0.02174621 -0.099999994 -1.7624789E-15 -1.182749E-29 -1 255 125 0 255
0.0625 0.025888337 -0.099999994 -1.7624789E-15 -1.182749E-29 -1 255 125 0 255
0.025888337 -0.0625 -0.099999994 -1.7624789E-15 -1.182749E-29 -1 255 125 0 255
0.02174621 -0.0525 -0.099999994 -1.7624789E-15 -1.182749E-29 -1 255 125 0 255
-0.025888337 -0.0625 -0.099999994 -1.7624789E-15 -1.182749E-29 -1 255 125 0 255
-0.02174621 -0.0525 -0.099999994 -1.7624789E-15 -1.182749E-29 -1 255 125 0 255
-0.0525 -0.02174621 -0.099999994 -1.7624789E-15 -1.182749E-29 -1 255 125 0 255
-0.0625 -0.025888337 -0.099999994 -1.7624789E-15 -1.182749E-29 -1 255 125 0 255
-0.0525 0.02174621 -0.099999994 -1.7624789E-15 -1.182749E-29 -1 255 125 0 255
0.0525 0.02174621 -0.099999994 -1.7624789E-15 -1.182749E-29 -1 255 125 0 255
0.025888337 0.0625 -0.099999994 -1.7624789E-15 -1.182749E-29 -1 255 125 0 255
0.02174621 0.0525 -0.099999994 -1.7624789E-15 -1.182749E-29 -1 255 125 0 255
-0.025888337 0.0625 -0.099999994 -1.7624789E-15 -1.182749E-29 -1 255 125 0 255
-0.02174621 0.0525 -0.099999994 -1.7624789E-15 -1.182749E-29 -1 255 125 0 255
-0.0625 0.025888337 -0.099999994 -1.7624789E-15 -1.182749E-29 -1 255 125 0 255
0.025888337 0.0625 -0.099999994 3.485697E-15 -1 -6.2122796E-30 255 125 0 255
-0.025888337 0.0625 -0.125 3.485697E-15 -1 -6.2122796E-30 255 125 0 255
0.025888337 0.0625 -0.125 3.485697E-15 -1 -6.2122796E-30 255 125 0 255
-0.025888337 0.0625 -0.099999994 3.485697E-15 -1 -6.2122796E-30 255 125 0 255
0.0625 -0.025888337 -0.099999994 -0.70710677 0.70710677 1.207368E-15 255 125 0 255
0.025888337 -0.0625 -0.125 -0.70710677 0.70710677 1.207368E-15 255 125 0 255
0.025888337 -0.0625 -0.099999994 -0.70710677 0.70710677 1.207368E-15 255 125 0 255
0.0625 -0.025888337 -0.125 -0.70710677 0.70710677 1.207368E-15 255 125 0 255
-0.025888337 -0.0625 -0.125 -3.485697E-15 1 6.2122796E-30 255 125 0 255
0.025888337 -0.0625 -0.099999994 -3.485697E-15 1 6.2122796E-30 255 125 0 255
0.025888337 -0.0625 -0.125 -3.485697E-15 1 6.2122796E-30 255 125 0 255
-0.025888337 -0.0625 -0.099999994 -3.485697E-15 1 6.2122796E-30 255 125 0 255
-0.0625 -0.025888337 -0.125 0.70710677 0.70710677 -1.207368E-15 255 125 0 255
-0.025888337 -0.0625 -0.099999994 0.70710677 0.70710677 -1.207368E-15 255 125 0 255
-0.025888337 -0.0625 -0.125 0.70710677 0.70710677 -1.207368E-15 255 125 0 255
-0.0625 -0.025888337 -0.099999994 0.70710677 0.70710677 -1.207368E-15 255 125 0 255
-0.0625 0.025888337 -0.125 1 -0 -1.6514571E-15 255 125 0 255
-0.0625 -0.025888337 -0.099999994 1 -0 -1.6514571E-15 255 125 0 255
-0.0625 -0.025888337 -0.125 1 -0 -1.6514571E-15 255 125 0 255
-0.0625 0.025888337 -0.099999994 1 -0 -1.6514571E-15 255 125 0 255
-0.025888337 0.0625 -0.099999994 0.70710677 -0.70710677 -1.1241009E-15 255 125 0 255
-0.0625 0.025888337 -0.125 0.70710677 -0.70710677 -1.1241009E-15 255 125 0 255
-0.025888337 0.0625 -0.125 0.70710677 -0.70710677 -1.1241009E-15 255 125 0 255
-0.0625 0.025888337 -0.099999994 0.70710677 -0.70710677 -1.1241009E-15 255 125 0 255
3 0 1 2
3 1 0 3
3 3 0 4
3 3 5 6
3 5 3 7
3 7 3 4
3 8 9 10
3 9 8 11
3 12 13 14
3 13 12 15
3 13 15 16
3 13 16 17
3 17 16 18
3 17 18 19
3 17 19 20
3 21 22 23
3 22 21 24
3 22 24 25
3 25 24 26
3 25 26 27
3 27 26 28
3 29 30 31
3 30 29 32
3 32 29 33
3 33 29 34
3 33 34 35
3 35 34 36
3 36 34 37
3 38 39 40
3 39 38 41
3 42 43 44
3 43 42 45
3 46 47 48
3 47 46 49
3 50 51 52
3 51 50 53
3 51 53 54
3 51 55 56
3 55 51 57
3 57 51 54
3 58 59 60
3 59 58 61
3 62 63 64
3 63 62 65
3 65 62 66
3 66 62 67
3 67 62 68
3 66 69 70
3 69 66 67
3 71 72 73
3 72 71 74
3 75 76 77
3 76 75 78
3 78 79 80
3 79 78 75
3 79 75 81
3 79 81 82
3 83 84 85
3 84 83 86
3 87 88 89
3 90 91 92
3 91 90 88
3 91 88 87
3 91 87 93
3 91 93 94
3 95 96 97
3 96 95 98
3 99 100 101
3 100 99 102
3 103 104 105
3 104 103 106
3 107 108 109
3 108 107 110
3 110 107 111
3 111 107 112
3 111 112 113
3 113 112 114
3 114 112 115
3 116 117 118
3 117 116 119
3 119 116 120
3 120 116 121
3 120 121 122
3 122 121 123
3 122 123 124
3 120 125 119
3 125 120 126
3 125 126 124
3 125 124 127
3 127 124 123
3 127 123 128
3 127 128 129
3 130 131 132
3 131 130 133
3 134 135 136
3 135 134 137
3 138 139 140
3 139 138 141
3 142 143 144
3 143 142 145
3 146 147 148
3 147 146 149
3 150 151 152
3 151 150 153
3 151 153 154
3 151 154 155
3 155 154 156
3 155 156 157
3 155 157 158
3 159 160 161
3 160 159 162
3 162 159 163
3 163 159 164
3 163 165 166
3 165 163 167
3 167 163 164
3 168 169 170
3 169 168 171
3 172 173 174
3 173 172 175
3 176 177 178
3 177 176 179
3 180 181 182
3 181 180 183
3 184 185 186
3 185 184 187
3 188 189 190
3 189 188 191
3 192 193 194
3 193 192 195
3 193 195 196
3 194 193 197
3 194 197 198
3 199 200 201
3 200 199 202
3 203 204 205
3 204 203 206
3 207 208 209
3 208 207 210
3 211 212 213
3 212 211 214
3 214 211 215
3 214 215 216
3 216 215 217
3 218 219 220
3 219 218 221
3 220 219 222
3 219 221 223
3 223 221 224
3 225 226 227
3 226 225 228
3 229 230 231
3 230 229 232
3 233 234 235
3 234 233 236
3 237 238 239
3 238 237 240
3 240 241 238
3 241 240 242
3 241 242 243
3 244 245 246
3 245 244 247
3 248 249 250
3 249 248 251
3 252 253 254
3 253 252 255
3 256 257 258
3 257 256 259
3 260 261 262
3 261 260 263
3 261 263 264
3 265 266 267
3 266 265 268
3 269 270 271
3 270 269 272
3 273 274 275
3 274 273 276
3 276 273 277
3 278 279 280
3 279 278 281
3 281 278 282
3 283 284 285
3 284 283 286
3 287 284 286
3 288 289 290
3 289 288 291
3 289 291 292
3 293 294 295
3 294 293 296
3 296 297 294
3 298 299 300
3 299 298 301
3 302 303 304
3 303 302 305
3 306 307 308
3 307 306 309
3 310 311 312
3 311 310 313
3 314 315 316
3 315 314 317
3 317 314 318
3 317 318 319
3 319 318 320
3 319 320 321
3 321 320 322
3 322 320 323
3 324 325 326
3 325 324 327
3 328 329 330
3 329 328 331
3 329 331 332
3 332 331 333
3 332 333 334
3 334 333 335
3 335 333 336
3 335 336 337
3 330 338 339
3 338 330 329
3 339 338 340
3 339 340 341
3 341 340 342
3 341 342 337
3 341 337 343
3 343 337 336
3 344 345 346
3 345 344 347
3 348 349 350
3 349 348 351
3 352 353 354
3 353 352 355
3 356 357 358
3 357 356 359
3 360 361 362
3 361 360 363
3 364 365 366
3 365 364 367
3 368 369 370
3 369 368 371
3 372 373 374
3 373 372 375
3 376 377 378
3 377 376 379
3 380 381 382
3 381 380 383
3 381 383 384
3 384 383 385
3 384 385 386
3 386 385 387
3 387 385 388
3 387 388 389
3 382 390 391
3 390 382 381
3 391 390 392
3 391 392 393
3 393 392 394
3 393 394 389
3 393 389 395
3 395 389 388
3 396 397 398
3 397 396 399
3 400 401 402
3 401 400 403
3 404 405 406
3 405 404 407
3 408 409 410
3 409 408 411
3 412 413 414
3 413 412 415
3 416 417 418
3 417 416 419

