ply
format ascii 1.0
commentY29udmVydGVyIGJ5IENvZGVMZW9wYXJk
comment Original mesh name: 'C:\Program Files (x86)\Steam\steamapps\common\Stormworks\rom\meshes\component_cart_s.mesh'
comment SubMesh index: 0
comment SubMesh name: 'ID14'
comment Shader: Opaque (0)
element vertex 372
property float x
property float y
property float z
property float nx
property float ny
property float nz
property uchar red
property uchar green
property uchar blue
property uchar alpha
element face 196
property list uchar ushort vertex_index
end_header
-3.950299E-14 -0.017682314 0.0412563 0 -0 -1 58 58 58 255
0.015313334 0.008841157 0.0412563 0 -0 -1 58 58 58 255
0.015313334 -0.008841157 0.0412563 0 -0 -1 58 58 58 255
-1.09730535E-14 0.017682314 0.0412563 0 -0 -1 58 58 58 255
-0.015313334 0.008841157 0.0412563 0 -0 -1 58 58 58 255
-0.015313334 -0.008841157 0.0412563 0 -0 -1 58 58 58 255
-0.015313334 -0.008841157 0.0412563 0 -0 1 43 86 144 255
-3.950299E-14 -0.017682314 0.0412563 0 -0 1 43 86 144 255
-0.015313334 0.008841157 0.0412563 0 -0 1 43 86 144 255
-1.09730535E-14 0.017682314 0.0412563 0 -0 1 43 86 144 255
0.015313334 0.008841157 0.0412563 0 -0 1 43 86 144 255
0.015313334 -0.008841157 0.0412563 0 -0 1 43 86 144 255
-0 0 0.11535628 -0.45936003 0.7956347 -0.3949099 43 86 144 255
0.0122506665 -0.0070729256 0.086856276 -0.487806 0.84490454 -0.2195028 43 86 144 255
-3.1616104E-14 -0.014145851 0.086856276 -0.487806 0.84490454 -0.2195028 43 86 144 255
-3.1616104E-14 -0.014145851 0.086856276 0.487806 -0.84490454 0.2195028 43 86 144 255
0.0122506665 -0.0070729256 0.086856276 0.487806 -0.84490454 0.2195028 43 86 144 255
-0 0 0.11535628 0.45936003 -0.7956347 0.3949099 43 86 144 255
0.015313334 -0.008841157 0.0412563 -0.49887607 0.86407864 -0.06701277 43 86 144 255
-3.950299E-14 -0.017682314 0.0412563 -0.49887607 0.86407864 -0.06701277 43 86 144 255
0.015313334 -0.008841157 0.0412563 0.49887607 -0.86407864 0.06701277 43 86 144 255
-3.950299E-14 -0.017682314 0.0412563 0.49887607 -0.86407864 0.06701277 43 86 144 255
-0 0 0.11535628 0.45936003 0.7956347 -0.3949099 43 86 144 255
-3.1616104E-14 -0.014145851 0.086856276 0.487806 0.84490454 -0.2195028 43 86 144 255
-0.0122506665 -0.0070729256 0.086856276 0.487806 0.84490454 -0.2195028 43 86 144 255
-0.0122506665 -0.0070729256 0.086856276 -0.487806 -0.84490454 0.2195028 43 86 144 255
-3.1616104E-14 -0.014145851 0.086856276 -0.487806 -0.84490454 0.2195028 43 86 144 255
-0 0 0.11535628 -0.45936003 -0.7956347 0.3949099 43 86 144 255
0.0122506665 0.0070729256 0.086856276 -0.9756119 7.345983E-18 -0.2195028 43 86 144 255
0.0122506665 -0.0070729256 0.086856276 -0.9756119 7.345983E-18 -0.2195028 43 86 144 255
-0 0 0.11535628 -0.9187198 1.561533E-17 -0.39490986 43 86 144 255
-0 0 0.11535628 0.9187198 -1.561533E-17 0.39490986 43 86 144 255
0.0122506665 -0.0070729256 0.086856276 0.9756119 -7.345983E-18 0.2195028 43 86 144 255
0.0122506665 0.0070729256 0.086856276 0.9756119 -7.345983E-18 0.2195028 43 86 144 255
-3.950299E-14 -0.017682314 0.0412563 0.49887607 0.86407864 -0.06701277 43 86 144 255
-0.015313334 -0.008841157 0.0412563 0.49887607 0.86407864 -0.06701277 43 86 144 255
-3.950299E-14 -0.017682314 0.0412563 -0.49887607 -0.86407864 0.06701277 43 86 144 255
-0.015313334 -0.008841157 0.0412563 -0.49887607 -0.86407864 0.06701277 43 86 144 255
0.015313334 0.008841157 0.0412563 -0.9977521 2.3537859E-19 -0.06701277 43 86 144 255
0.015313334 -0.008841157 0.0412563 -0.9977521 2.3537859E-19 -0.06701277 43 86 144 255
0.015313334 0.008841157 0.0412563 0.9977521 -2.3537859E-19 0.06701277 43 86 144 255
0.015313334 -0.008841157 0.0412563 0.9977521 -2.3537859E-19 0.06701277 43 86 144 255
-0.0122506665 0.0070729256 0.086856276 0.9756119 -1.356166E-18 -0.2195028 43 86 144 255
-0 0 0.11535628 0.9187198 -3.2160538E-18 -0.39490986 43 86 144 255
-0.0122506665 -0.0070729256 0.086856276 0.9756119 -1.356166E-18 -0.2195028 43 86 144 255
-0.0122506665 -0.0070729256 0.086856276 -0.9756119 1.356166E-18 0.2195028 43 86 144 255
-0 0 0.11535628 -0.9187198 3.2160538E-18 0.39490986 43 86 144 255
-0.0122506665 0.0070729256 0.086856276 -0.9756119 1.356166E-18 0.2195028 43 86 144 255
-0 0 0.11535628 -0.45936003 -0.7956347 -0.3949099 43 86 144 255
-9.052769E-15 0.014145851 0.086856276 -0.487806 -0.84490454 -0.2195028 43 86 144 255
0.0122506665 0.0070729256 0.086856276 -0.487806 -0.84490454 -0.2195028 43 86 144 255
0.0122506665 0.0070729256 0.086856276 0.487806 0.84490454 0.2195028 43 86 144 255
-9.052769E-15 0.014145851 0.086856276 0.487806 0.84490454 0.2195028 43 86 144 255
-0 0 0.11535628 0.45936003 0.7956347 0.3949099 43 86 144 255
-0.015313334 0.008841157 0.0412563 0.9977521 2.3537859E-19 -0.06701277 43 86 144 255
-0.015313334 -0.008841157 0.0412563 0.9977521 2.3537859E-19 -0.06701277 43 86 144 255
-0.015313334 0.008841157 0.0412563 -0.9977521 -2.3537859E-19 0.06701277 43 86 144 255
-0.015313334 -0.008841157 0.0412563 -0.9977521 -2.3537859E-19 0.06701277 43 86 144 255
-1.09730535E-14 0.017682314 0.0412563 -0.49887607 -0.86407864 -0.06701277 43 86 144 255
0.015313334 0.008841157 0.0412563 -0.49887607 -0.86407864 -0.06701277 43 86 144 255
-1.09730535E-14 0.017682314 0.0412563 0.49887607 0.86407864 0.06701277 43 86 144 255
0.015313334 0.008841157 0.0412563 0.49887607 0.86407864 0.06701277 43 86 144 255
-0 0 0.11535628 0.45936003 -0.7956347 -0.3949099 43 86 144 255
-0.0122506665 0.0070729256 0.086856276 0.487806 -0.84490454 -0.2195028 43 86 144 255
-9.052769E-15 0.014145851 0.086856276 0.487806 -0.84490454 -0.2195028 43 86 144 255
-9.052769E-15 0.014145851 0.086856276 -0.487806 0.84490454 0.2195028 43 86 144 255
-0.0122506665 0.0070729256 0.086856276 -0.487806 0.84490454 0.2195028 43 86 144 255
-0 0 0.11535628 -0.45936003 0.7956347 0.3949099 43 86 144 255
-0.015313334 0.008841157 0.0412563 0.49887607 -0.86407864 -0.06701277 43 86 144 255
-1.09730535E-14 0.017682314 0.0412563 0.49887607 -0.86407864 -0.06701277 43 86 144 255
-0.015313334 0.008841157 0.0412563 -0.49887607 0.86407864 0.06701277 43 86 144 255
-1.09730535E-14 0.017682314 0.0412563 -0.49887607 0.86407864 0.06701277 43 86 144 255
-0.020977173 -0.012111174 -0.10489778 0.4029089 0.6978589 0.5921633 153 135 90 255
4.389222E-15 -0.020588988 -0.10917967 0.4029089 0.6978589 0.5921633 153 135 90 255
-0.017830594 -0.010294498 -0.10917967 0.4029089 0.6978589 0.5921633 153 135 90 255
-0 -0.024222348 -0.10489778 0.4029089 0.6978589 0.5921633 153 135 90 255
-0.017830594 -0.010294498 -0.10917967 0.80581796 -0 0.5921634 153 135 90 255
-0.020977173 0.012111174 -0.10489778 0.80581796 -0 0.5921634 153 135 90 255
-0.020977173 -0.012111174 -0.10489778 0.80581796 -0 0.5921634 153 135 90 255
-0.017830594 0.010294498 -0.10917967 0.80581796 -0 0.5921634 153 135 90 255
-0.020977173 -0.012111174 0.0161033 0.49999997 0.86602545 9.972075E-14 153 135 90 255
-0 -0.024222348 -0.10489778 0.49999997 0.86602545 9.972075E-14 153 135 90 255
-0.020977173 -0.012111174 -0.10489778 0.49999997 0.86602545 9.972075E-14 153 135 90 255
-4.8281423E-14 -0.024222348 0.0161033 0.49999997 0.86602545 9.972075E-14 153 135 90 255
-0 -0.024222348 -0.10489778 -0.4029089 0.6978589 0.5921633 153 135 90 255
0.017830594 -0.010294498 -0.10917967 -0.4029089 0.6978589 0.5921633 153 135 90 255
4.389222E-15 -0.020588988 -0.10917967 -0.4029089 0.6978589 0.5921633 153 135 90 255
0.020977173 -0.012111174 -0.10489778 -0.4029089 0.6978589 0.5921633 153 135 90 255
-0.020977173 -0.012111174 -0.11148775 0.295731 0.5122212 -0.8063328 153 135 90 255
4.389222E-15 -0.020588988 -0.10917967 0.295731 0.5122212 -0.8063328 153 135 90 255
4.389222E-15 -0.024222348 -0.11148775 0.295731 0.5122212 -0.8063328 153 135 90 255
-0.017830594 -0.010294498 -0.10917967 0.295731 0.5122212 -0.8063328 153 135 90 255
-0.020977173 -0.012111174 -0.11148775 0.591462 -0 -0.8063329 153 135 90 255
-0.017830594 0.010294498 -0.10917967 0.591462 -0 -0.8063329 153 135 90 255
-0.017830594 -0.010294498 -0.10917967 0.591462 -0 -0.8063329 153 135 90 255
-0.020977173 0.012111174 -0.11148775 0.591462 -0 -0.8063329 153 135 90 255
4.3892214E-14 0.024222348 -0.10489778 0.4029089 -0.6978589 0.5921633 153 135 90 255
-0.017830594 0.010294498 -0.10917967 0.4029089 -0.6978589 0.5921633 153 135 90 255
4.3892214E-14 0.020588988 -0.10917967 0.4029089 -0.6978589 0.5921633 153 135 90 255
-0.020977173 0.012111174 -0.10489778 0.4029089 -0.6978589 0.5921633 153 135 90 255
-0.020977173 0.012111174 -0.10489778 1 -0 -0 153 135 90 255
-0.020977173 -0.012111174 0.0161033 1 -0 -0 153 135 90 255
-0.020977173 -0.012111174 -0.10489778 1 -0 -0 153 135 90 255
-0.020977173 0.012111174 0.0161033 1 -0 -0 153 135 90 255
-0.015313334 -0.008841157 0.025967224 0.4336034 0.7510232 -0.497948 153 135 90 255
-4.8281423E-14 -0.024222348 0.0161033 0.4336034 0.7510232 -0.497948 153 135 90 255
-0.020977173 -0.012111174 0.0161033 0.4336034 0.7510232 -0.497948 153 135 90 255
-3.7308376E-14 -0.017682314 0.025967224 0.4336034 0.7510232 -0.497948 153 135 90 255
-4.8281423E-14 -0.024222348 0.0161033 -0.49999997 0.86602545 -9.972075E-14 153 135 90 255
0.020977173 -0.012111174 -0.10489778 -0.49999997 0.86602545 -9.972075E-14 153 135 90 255
-0 -0.024222348 -0.10489778 -0.49999997 0.86602545 -9.972075E-14 153 135 90 255
0.020977173 -0.012111174 0.0161033 -0.49999997 0.86602545 -9.972075E-14 153 135 90 255
0.020977173 0.012111174 -0.10489778 -0.80581796 -0 0.5921634 153 135 90 255
0.017830594 -0.010294498 -0.10917967 -0.80581796 -0 0.5921634 153 135 90 255
0.020977173 -0.012111174 -0.10489778 -0.80581796 -0 0.5921634 153 135 90 255
0.017830594 0.010294498 -0.10917967 -0.80581796 -0 0.5921634 153 135 90 255
4.389222E-15 -0.024222348 -0.11148775 -0.295731 0.5122212 -0.8063328 153 135 90 255
0.017830594 -0.010294498 -0.10917967 -0.295731 0.5122212 -0.8063328 153 135 90 255
0.020977173 -0.012111174 -0.11148775 -0.295731 0.5122212 -0.8063328 153 135 90 255
4.389222E-15 -0.020588988 -0.10917967 -0.295731 0.5122212 -0.8063328 153 135 90 255
-0.020977173 -0.012111174 -0.11148775 0.49999997 0.86602545 -2.838524E-13 153 135 90 255
-0 -0.024222348 -0.11535628 0.49999997 0.86602545 -2.838524E-13 153 135 90 255
-0.020977173 -0.012111174 -0.11535628 0.49999997 0.86602545 -2.838524E-13 153 135 90 255
4.389222E-15 -0.024222348 -0.11148775 0.49999997 0.86602545 -2.838524E-13 153 135 90 255
-0.020977173 0.012111174 -0.11535628 1 -0 -0 153 135 90 255
-0.020977173 -0.012111174 -0.11148775 1 -0 -0 153 135 90 255
-0.020977173 -0.012111174 -0.11535628 1 -0 -0 153 135 90 255
-0.020977173 0.012111174 -0.11148775 1 -0 -0 153 135 90 255
4.3892214E-14 0.020588988 -0.10917967 0.295731 -0.5122212 -0.8063328 153 135 90 255
-0.020977173 0.012111174 -0.11148775 0.295731 -0.5122212 -0.8063328 153 135 90 255
4.8281423E-14 0.024222348 -0.11148775 0.295731 -0.5122212 -0.8063328 153 135 90 255
-0.017830594 0.010294498 -0.10917967 0.295731 -0.5122212 -0.8063328 153 135 90 255
0.020977173 0.012111174 -0.10489778 -0.4029089 -0.6978589 0.5921633 153 135 90 255
4.3892214E-14 0.020588988 -0.10917967 -0.4029089 -0.6978589 0.5921633 153 135 90 255
0.017830594 0.010294498 -0.10917967 -0.4029089 -0.6978589 0.5921633 153 135 90 255
4.3892214E-14 0.024222348 -0.10489778 -0.4029089 -0.6978589 0.5921633 153 135 90 255
-2.1946099E-15 0.024222348 0.0161033 0.49999997 -0.86602545 9.529235E-14 153 135 90 255
-0.020977173 0.012111174 -0.10489778 0.49999997 -0.86602545 9.529235E-14 153 135 90 255
4.3892214E-14 0.024222348 -0.10489778 0.49999997 -0.86602545 9.529235E-14 153 135 90 255
-0.020977173 0.012111174 0.0161033 0.49999997 -0.86602545 9.529235E-14 153 135 90 255
-0.020977173 0.012111174 0.0161033 0.8672068 -6.6351267E-18 -0.4979482 153 135 90 255
-0.015313334 -0.008841157 0.025967224 0.8672068 -6.6351267E-18 -0.4979482 153 135 90 255
-0.020977173 -0.012111174 0.0161033 0.8672068 -6.6351267E-18 -0.4979482 153 135 90 255
-0.015313334 0.008841157 0.025967224 0.8672068 -6.6351267E-18 -0.4979482 153 135 90 255
-0.015313334 -0.008841157 0.0412563 0.5 0.8660253 3.646908E-14 153 135 90 255
-3.7308376E-14 -0.017682314 0.025967224 0.5 0.8660253 3.646908E-14 153 135 90 255
-0.015313334 -0.008841157 0.025967224 0.5 0.8660253 3.646908E-14 153 135 90 255
-3.950299E-14 -0.017682314 0.0412563 0.5 0.8660253 3.646908E-14 153 135 90 255
-3.7308376E-14 -0.017682314 0.025967224 -0.4336034 0.7510232 -0.497948 153 135 90 255
0.020977173 -0.012111174 0.0161033 -0.4336034 0.7510232 -0.497948 153 135 90 255
-4.8281423E-14 -0.024222348 0.0161033 -0.4336034 0.7510232 -0.497948 153 135 90 255
0.015313334 -0.008841157 0.025967224 -0.4336034 0.7510232 -0.497948 153 135 90 255
0.020977173 0.012111174 0.0161033 -1 -0 -0 153 135 90 255
0.020977173 -0.012111174 -0.10489778 -1 -0 -0 153 135 90 255
0.020977173 -0.012111174 0.0161033 -1 -0 -0 153 135 90 255
0.020977173 0.012111174 -0.10489778 -1 -0 -0 153 135 90 255
0.017830594 -0.010294498 -0.10917967 -0.591462 -0 -0.8063329 153 135 90 255
0.020977173 0.012111174 -0.11148775 -0.591462 -0 -0.8063329 153 135 90 255
0.020977173 -0.012111174 -0.11148775 -0.591462 -0 -0.8063329 153 135 90 255
0.017830594 0.010294498 -0.10917967 -0.591462 -0 -0.8063329 153 135 90 255
4.389222E-15 -0.024222348 -0.11148775 -0.49999997 0.86602545 2.8376604E-13 153 135 90 255
0.020977173 -0.012111174 -0.11535628 -0.49999997 0.86602545 2.8376604E-13 153 135 90 255
-0 -0.024222348 -0.11535628 -0.49999997 0.86602545 2.8376604E-13 153 135 90 255
0.020977173 -0.012111174 -0.11148775 -0.49999997 0.86602545 2.8376604E-13 153 135 90 255
4.608683E-14 0.024222348 -0.11535628 0 -0 1 153 135 90 255
0.020977173 -0.012111174 -0.11535628 0 -0 1 153 135 90 255
0.020977173 0.012111174 -0.11535628 0 -0 1 153 135 90 255
-0 -0.024222348 -0.11535628 0 -0 1 153 135 90 255
-0.020977173 0.012111174 -0.11535628 0 -0 1 153 135 90 255
-0.020977173 -0.012111174 -0.11535628 0 -0 1 153 135 90 255
4.8281423E-14 0.024222348 -0.11148775 0.49999997 -0.86602545 -1.4200101E-13 153 135 90 255
-0.020977173 0.012111174 -0.11535628 0.49999997 -0.86602545 -1.4200101E-13 153 135 90 255
4.608683E-14 0.024222348 -0.11535628 0.49999997 -0.86602545 -1.4200101E-13 153 135 90 255
-0.020977173 0.012111174 -0.11148775 0.49999997 -0.86602545 -1.4200101E-13 153 135 90 255
0.017830594 0.010294498 -0.10917967 -0.295731 -0.5122212 -0.8063328 153 135 90 255
4.8281423E-14 0.024222348 -0.11148775 -0.295731 -0.5122212 -0.8063328 153 135 90 255
0.020977173 0.012111174 -0.11148775 -0.295731 -0.5122212 -0.8063328 153 135 90 255
4.3892214E-14 0.020588988 -0.10917967 -0.295731 -0.5122212 -0.8063328 153 135 90 255
0.020977173 0.012111174 0.0161033 -0.49999997 -0.86602545 -9.528794E-14 153 135 90 255
4.3892214E-14 0.024222348 -0.10489778 -0.49999997 -0.86602545 -9.528794E-14 153 135 90 255
0.020977173 0.012111174 -0.10489778 -0.49999997 -0.86602545 -9.528794E-14 153 135 90 255
-2.1946099E-15 0.024222348 0.0161033 -0.49999997 -0.86602545 -9.528794E-14 153 135 90 255
-4.389222E-15 0.017682314 0.025967224 0.4336034 -0.7510232 -0.497948 153 135 90 255
-0.020977173 0.012111174 0.0161033 0.4336034 -0.7510232 -0.497948 153 135 90 255
-2.1946099E-15 0.024222348 0.0161033 0.4336034 -0.7510232 -0.497948 153 135 90 255
-0.015313334 0.008841157 0.025967224 0.4336034 -0.7510232 -0.497948 153 135 90 255
-0.015313334 0.008841157 0.025967224 1 -0 -0 153 135 90 255
-0.015313334 -0.008841157 0.0412563 1 -0 -0 153 135 90 255
-0.015313334 -0.008841157 0.025967224 1 -0 -0 153 135 90 255
-0.015313334 0.008841157 0.0412563 1 -0 -0 153 135 90 255
-3.950299E-14 -0.017682314 0.0412563 -0.5 0.8660253 -3.643452E-14 153 135 90 255
0.015313334 -0.008841157 0.025967224 -0.5 0.8660253 -3.643452E-14 153 135 90 255
-3.7308376E-14 -0.017682314 0.025967224 -0.5 0.8660253 -3.643452E-14 153 135 90 255
0.015313334 -0.008841157 0.0412563 -0.5 0.8660253 -3.643452E-14 153 135 90 255
0.015313334 -0.008841157 0.025967224 -0.8672068 1.156197E-18 -0.4979482 153 135 90 255
0.020977173 0.012111174 0.0161033 -0.8672068 1.156197E-18 -0.4979482 153 135 90 255
0.020977173 -0.012111174 0.0161033 -0.8672068 1.156197E-18 -0.4979482 153 135 90 255
0.015313334 0.008841157 0.025967224 -0.8672068 1.156197E-18 -0.4979482 153 135 90 255
0.020977173 0.012111174 -0.11148775 -1 -0 -0 153 135 90 255
0.020977173 -0.012111174 -0.11535628 -1 -0 -0 153 135 90 255
0.020977173 -0.012111174 -0.11148775 -1 -0 -0 153 135 90 255
0.020977173 0.012111174 -0.11535628 -1 -0 -0 153 135 90 255
0.020977173 0.012111174 -0.11148775 -0.49999997 -0.86602545 1.4161541E-13 153 135 90 255
4.608683E-14 0.024222348 -0.11535628 -0.49999997 -0.86602545 1.4161541E-13 153 135 90 255
0.020977173 0.012111174 -0.11535628 -0.49999997 -0.86602545 1.4161541E-13 153 135 90 255
4.8281423E-14 0.024222348 -0.11148775 -0.49999997 -0.86602545 1.4161541E-13 153 135 90 255
0.015313334 0.008841157 0.025967224 -0.4336034 -0.7510232 -0.497948 153 135 90 255
-2.1946099E-15 0.024222348 0.0161033 -0.4336034 -0.7510232 -0.497948 153 135 90 255
0.020977173 0.012111174 0.0161033 -0.4336034 -0.7510232 -0.497948 153 135 90 255
-4.389222E-15 0.017682314 0.025967224 -0.4336034 -0.7510232 -0.497948 153 135 90 255
-1.09730535E-14 0.017682314 0.0412563 0.5 -0.8660253 1.07938106E-13 153 135 90 255
-0.015313334 0.008841157 0.025967224 0.5 -0.8660253 1.07938106E-13 153 135 90 255
-4.389222E-15 0.017682314 0.025967224 0.5 -0.8660253 1.07938106E-13 153 135 90 255
-0.015313334 0.008841157 0.0412563 0.5 -0.8660253 1.07938106E-13 153 135 90 255
0.015313334 0.008841157 0.0412563 -1 -0 -0 153 135 90 255
0.015313334 -0.008841157 0.025967224 -1 -0 -0 153 135 90 255
0.015313334 -0.008841157 0.0412563 -1 -0 -0 153 135 90 255
0.015313334 0.008841157 0.025967224 -1 -0 -0 153 135 90 255
0.015313334 0.008841157 0.0412563 -0.5 -0.8660253 -1.07938106E-13 153 135 90 255
-4.389222E-15 0.017682314 0.025967224 -0.5 -0.8660253 -1.07938106E-13 153 135 90 255
0.015313334 0.008841157 0.025967224 -0.5 -0.8660253 -1.07938106E-13 153 135 90 255
-1.09730535E-14 0.017682314 0.0412563 -0.5 -0.8660253 -1.07938106E-13 153 135 90 255
-0 -0.024222348 -0.10489778 -0.4029089 -0.6978589 -0.5921633 43 86 144 255
-0.020977173 -0.012111174 -0.10489778 -0.4029089 -0.6978589 -0.5921633 43 86 144 255
4.389222E-15 -0.020588988 -0.10917967 -0.4029089 -0.6978589 -0.5921633 43 86 144 255
-0.017830594 -0.010294498 -0.10917967 -0.4029089 -0.6978589 -0.5921633 43 86 144 255
-0.017830594 0.010294498 -0.10917967 -0.80581796 -0 -0.5921634 43 86 144 255
-0.017830594 -0.010294498 -0.10917967 -0.80581796 -0 -0.5921634 43 86 144 255
-0.020977173 0.012111174 -0.10489778 -0.80581796 -0 -0.5921634 43 86 144 255
-0.020977173 -0.012111174 -0.10489778 -0.80581796 -0 -0.5921634 43 86 144 255
-4.8281423E-14 -0.024222348 0.0161033 -0.49999997 -0.86602545 -9.972075E-14 43 86 144 255
-0.020977173 -0.012111174 0.0161033 -0.49999997 -0.86602545 -9.972075E-14 43 86 144 255
-0 -0.024222348 -0.10489778 -0.49999997 -0.86602545 -9.972075E-14 43 86 144 255
-0.020977173 -0.012111174 -0.10489778 -0.49999997 -0.86602545 -9.972075E-14 43 86 144 255
0.020977173 -0.012111174 -0.10489778 0.4029089 -0.6978589 -0.5921633 43 86 144 255
-0 -0.024222348 -0.10489778 0.4029089 -0.6978589 -0.5921633 43 86 144 255
0.017830594 -0.010294498 -0.10917967 0.4029089 -0.6978589 -0.5921633 43 86 144 255
4.389222E-15 -0.020588988 -0.10917967 0.4029089 -0.6978589 -0.5921633 43 86 144 255
-0.017830594 -0.010294498 -0.10917967 -0.295731 -0.5122212 0.8063328 43 86 144 255
-0.020977173 -0.012111174 -0.11148775 -0.295731 -0.5122212 0.8063328 43 86 144 255
4.389222E-15 -0.020588988 -0.10917967 -0.295731 -0.5122212 0.8063328 43 86 144 255
4.389222E-15 -0.024222348 -0.11148775 -0.295731 -0.5122212 0.8063328 43 86 144 255
-0.020977173 0.012111174 -0.11148775 -0.591462 -0 0.8063329 43 86 144 255
-0.020977173 -0.012111174 -0.11148775 -0.591462 -0 0.8063329 43 86 144 255
-0.017830594 0.010294498 -0.10917967 -0.591462 -0 0.8063329 43 86 144 255
-0.017830594 -0.010294498 -0.10917967 -0.591462 -0 0.8063329 43 86 144 255
-0.020977173 0.012111174 -0.10489778 -0.4029089 0.6978589 -0.5921633 43 86 144 255
4.3892214E-14 0.024222348 -0.10489778 -0.4029089 0.6978589 -0.5921633 43 86 144 255
-0.017830594 0.010294498 -0.10917967 -0.4029089 0.6978589 -0.5921633 43 86 144 255
4.3892214E-14 0.020588988 -0.10917967 -0.4029089 0.6978589 -0.5921633 43 86 144 255
-0.020977173 0.012111174 0.0161033 -1 -0 -0 43 86 144 255
-0.020977173 0.012111174 -0.10489778 -1 -0 -0 43 86 144 255
-0.020977173 -0.012111174 0.0161033 -1 -0 -0 43 86 144 255
-0.020977173 -0.012111174 -0.10489778 -1 -0 -0 43 86 144 255
-3.7308376E-14 -0.017682314 0.025967224 -0.4336034 -0.7510232 0.497948 43 86 144 255
-0.015313334 -0.008841157 0.025967224 -0.4336034 -0.7510232 0.497948 43 86 144 255
-4.8281423E-14 -0.024222348 0.0161033 -0.4336034 -0.7510232 0.497948 43 86 144 255
-0.020977173 -0.012111174 0.0161033 -0.4336034 -0.7510232 0.497948 43 86 144 255
0.020977173 -0.012111174 0.0161033 0.49999997 -0.86602545 9.972075E-14 43 86 144 255
-4.8281423E-14 -0.024222348 0.0161033 0.49999997 -0.86602545 9.972075E-14 43 86 144 255
0.020977173 -0.012111174 -0.10489778 0.49999997 -0.86602545 9.972075E-14 43 86 144 255
-0 -0.024222348 -0.10489778 0.49999997 -0.86602545 9.972075E-14 43 86 144 255
0.017830594 0.010294498 -0.10917967 0.80581796 -0 -0.5921634 43 86 144 255
0.020977173 0.012111174 -0.10489778 0.80581796 -0 -0.5921634 43 86 144 255
0.017830594 -0.010294498 -0.10917967 0.80581796 -0 -0.5921634 43 86 144 255
0.020977173 -0.012111174 -0.10489778 0.80581796 -0 -0.5921634 43 86 144 255
4.389222E-15 -0.020588988 -0.10917967 0.295731 -0.5122212 0.8063328 43 86 144 255
4.389222E-15 -0.024222348 -0.11148775 0.295731 -0.5122212 0.8063328 43 86 144 255
0.017830594 -0.010294498 -0.10917967 0.295731 -0.5122212 0.8063328 43 86 144 255
0.020977173 -0.012111174 -0.11148775 0.295731 -0.5122212 0.8063328 43 86 144 255
4.389222E-15 -0.024222348 -0.11148775 -0.49999997 -0.86602545 2.838524E-13 43 86 144 255
-0.020977173 -0.012111174 -0.11148775 -0.49999997 -0.86602545 2.838524E-13 43 86 144 255
-0 -0.024222348 -0.11535628 -0.49999997 -0.86602545 2.838524E-13 43 86 144 255
-0.020977173 -0.012111174 -0.11535628 -0.49999997 -0.86602545 2.838524E-13 43 86 144 255
-0.020977173 0.012111174 -0.11148775 -1 -0 -0 43 86 144 255
-0.020977173 0.012111174 -0.11535628 -1 -0 -0 43 86 144 255
-0.020977173 -0.012111174 -0.11148775 -1 -0 -0 43 86 144 255
-0.020977173 -0.012111174 -0.11535628 -1 -0 -0 43 86 144 255
-0.017830594 0.010294498 -0.10917967 -0.295731 0.5122212 0.8063328 43 86 144 255
4.3892214E-14 0.020588988 -0.10917967 -0.295731 0.5122212 0.8063328 43 86 144 255
-0.020977173 0.012111174 -0.11148775 -0.295731 0.5122212 0.8063328 43 86 144 255
4.8281423E-14 0.024222348 -0.11148775 -0.295731 0.5122212 0.8063328 43 86 144 255
4.3892214E-14 0.024222348 -0.10489778 0.4029089 0.6978589 -0.5921633 43 86 144 255
0.020977173 0.012111174 -0.10489778 0.4029089 0.6978589 -0.5921633 43 86 144 255
4.3892214E-14 0.020588988 -0.10917967 0.4029089 0.6978589 -0.5921633 43 86 144 255
0.017830594 0.010294498 -0.10917967 0.4029089 0.6978589 -0.5921633 43 86 144 255
-0.020977173 0.012111174 0.0161033 -0.49999997 0.86602545 -9.529235E-14 43 86 144 255
-2.1946099E-15 0.024222348 0.0161033 -0.49999997 0.86602545 -9.529235E-14 43 86 144 255
-0.020977173 0.012111174 -0.10489778 -0.49999997 0.86602545 -9.529235E-14 43 86 144 255
4.3892214E-14 0.024222348 -0.10489778 -0.49999997 0.86602545 -9.529235E-14 43 86 144 255
-0.015313334 0.008841157 0.025967224 -0.8672068 6.6351267E-18 0.4979482 43 86 144 255
-0.020977173 0.012111174 0.0161033 -0.8672068 6.6351267E-18 0.4979482 43 86 144 255
-0.015313334 -0.008841157 0.025967224 -0.8672068 6.6351267E-18 0.4979482 43 86 144 255
-0.020977173 -0.012111174 0.0161033 -0.8672068 6.6351267E-18 0.4979482 43 86 144 255
-3.950299E-14 -0.017682314 0.0412563 -0.5 -0.8660253 -3.646908E-14 43 86 144 255
-0.015313334 -0.008841157 0.0412563 -0.5 -0.8660253 -3.646908E-14 43 86 144 255
-3.7308376E-14 -0.017682314 0.025967224 -0.5 -0.8660253 -3.646908E-14 43 86 144 255
-0.015313334 -0.008841157 0.025967224 -0.5 -0.8660253 -3.646908E-14 43 86 144 255
0.015313334 -0.008841157 0.025967224 0.4336034 -0.7510232 0.497948 43 86 144 255
-3.7308376E-14 -0.017682314 0.025967224 0.4336034 -0.7510232 0.497948 43 86 144 255
0.020977173 -0.012111174 0.0161033 0.4336034 -0.7510232 0.497948 43 86 144 255
-4.8281423E-14 -0.024222348 0.0161033 0.4336034 -0.7510232 0.497948 43 86 144 255
0.020977173 0.012111174 -0.10489778 1 -0 -0 43 86 144 255
0.020977173 0.012111174 0.0161033 1 -0 -0 43 86 144 255
0.020977173 -0.012111174 -0.10489778 1 -0 -0 43 86 144 255
0.020977173 -0.012111174 0.0161033 1 -0 -0 43 86 144 255
0.017830594 0.010294498 -0.10917967 0.591462 -0 0.8063329 43 86 144 255
0.017830594 -0.010294498 -0.10917967 0.591462 -0 0.8063329 43 86 144 255
0.020977173 0.012111174 -0.11148775 0.591462 -0 0.8063329 43 86 144 255
0.020977173 -0.012111174 -0.11148775 0.591462 -0 0.8063329 43 86 144 255
0.020977173 -0.012111174 -0.11148775 0.49999997 -0.86602545 -2.8376604E-13 43 86 144 255
4.389222E-15 -0.024222348 -0.11148775 0.49999997 -0.86602545 -2.8376604E-13 43 86 144 255
0.020977173 -0.012111174 -0.11535628 0.49999997 -0.86602545 -2.8376604E-13 43 86 144 255
-0 -0.024222348 -0.11535628 0.49999997 -0.86602545 -2.8376604E-13 43 86 144 255
-0.020977173 -0.012111174 -0.11535628 0 -0 -1 43 86 144 255
-0.020977173 0.012111174 -0.11535628 0 -0 -1 43 86 144 255
-0 -0.024222348 -0.11535628 0 -0 -1 43 86 144 255
4.608683E-14 0.024222348 -0.11535628 0 -0 -1 43 86 144 255
0.020977173 -0.012111174 -0.11535628 0 -0 -1 43 86 144 255
0.020977173 0.012111174 -0.11535628 0 -0 -1 43 86 144 255
-0.020977173 0.012111174 -0.11148775 -0.49999997 0.86602545 1.4200101E-13 43 86 144 255
4.8281423E-14 0.024222348 -0.11148775 -0.49999997 0.86602545 1.4200101E-13 43 86 144 255
-0.020977173 0.012111174 -0.11535628 -0.49999997 0.86602545 1.4200101E-13 43 86 144 255
4.608683E-14 0.024222348 -0.11535628 -0.49999997 0.86602545 1.4200101E-13 43 86 144 255
4.3892214E-14 0.020588988 -0.10917967 0.295731 0.5122212 0.8063328 43 86 144 255
0.017830594 0.010294498 -0.10917967 0.295731 0.5122212 0.8063328 43 86 144 255
4.8281423E-14 0.024222348 -0.11148775 0.295731 0.5122212 0.8063328 43 86 144 255
0.020977173 0.012111174 -0.11148775 0.295731 0.5122212 0.8063328 43 86 144 255
-2.1946099E-15 0.024222348 0.0161033 0.49999997 0.86602545 9.528794E-14 43 86 144 255
0.020977173 0.012111174 0.0161033 0.49999997 0.86602545 9.528794E-14 43 86 144 255
4.3892214E-14 0.024222348 -0.10489778 0.49999997 0.86602545 9.528794E-14 43 86 144 255
0.020977173 0.012111174 -0.10489778 0.49999997 0.86602545 9.528794E-14 43 86 144 255
-0.015313334 0.008841157 0.025967224 -0.4336034 0.7510232 0.497948 43 86 144 255
-4.389222E-15 0.017682314 0.025967224 -0.4336034 0.7510232 0.497948 43 86 144 255
-0.020977173 0.012111174 0.0161033 -0.4336034 0.7510232 0.497948 43 86 144 255
-2.1946099E-15 0.024222348 0.0161033 -0.4336034 0.7510232 0.497948 43 86 144 255
-0.015313334 0.008841157 0.0412563 -1 -0 -0 43 86 144 255
-0.015313334 0.008841157 0.025967224 -1 -0 -0 43 86 144 255
-0.015313334 -0.008841157 0.0412563 -1 -0 -0 43 86 144 255
-0.015313334 -0.008841157 0.025967224 -1 -0 -0 43 86 144 255
0.015313334 -0.008841157 0.0412563 0.5 -0.8660253 3.643452E-14 43 86 144 255
-3.950299E-14 -0.017682314 0.0412563 0.5 -0.8660253 3.643452E-14 43 86 144 255
0.015313334 -0.008841157 0.025967224 0.5 -0.8660253 3.643452E-14 43 86 144 255
-3.7308376E-14 -0.017682314 0.025967224 0.5 -0.8660253 3.643452E-14 43 86 144 255
0.015313334 0.008841157 0.025967224 0.8672068 -1.156197E-18 0.4979482 43 86 144 255
0.015313334 -0.008841157 0.025967224 0.8672068 -1.156197E-18 0.4979482 43 86 144 255
0.020977173 0.012111174 0.0161033 0.8672068 -1.156197E-18 0.4979482 43 86 144 255
0.020977173 -0.012111174 0.0161033 0.8672068 -1.156197E-18 0.4979482 43 86 144 255
0.020977173 0.012111174 -0.11535628 1 -0 -0 43 86 144 255
0.020977173 0.012111174 -0.11148775 1 -0 -0 43 86 144 255
0.020977173 -0.012111174 -0.11535628 1 -0 -0 43 86 144 255
0.020977173 -0.012111174 -0.11148775 1 -0 -0 43 86 144 255
4.8281423E-14 0.024222348 -0.11148775 0.49999997 0.86602545 -1.4161541E-13 43 86 144 255
0.020977173 0.012111174 -0.11148775 0.49999997 0.86602545 -1.4161541E-13 43 86 144 255
4.608683E-14 0.024222348 -0.11535628 0.49999997 0.86602545 -1.4161541E-13 43 86 144 255
0.020977173 0.012111174 -0.11535628 0.49999997 0.86602545 -1.4161541E-13 43 86 144 255
-4.389222E-15 0.017682314 0.025967224 0.4336034 0.7510232 0.497948 43 86 144 255
0.015313334 0.008841157 0.025967224 0.4336034 0.7510232 0.497948 43 86 144 255
-2.1946099E-15 0.024222348 0.0161033 0.4336034 0.7510232 0.497948 43 86 144 255
0.020977173 0.012111174 0.0161033 0.4336034 0.7510232 0.497948 43 86 144 255
-0.015313334 0.008841157 0.0412563 -0.5 0.8660253 -1.07938106E-13 43 86 144 255
-1.09730535E-14 0.017682314 0.0412563 -0.5 0.8660253 -1.07938106E-13 43 86 144 255
-0.015313334 0.008841157 0.025967224 -0.5 0.8660253 -1.07938106E-13 43 86 144 255
-4.389222E-15 0.017682314 0.025967224 -0.5 0.8660253 -1.07938106E-13 43 86 144 255
0.015313334 0.008841157 0.025967224 1 -0 -0 43 86 144 255
0.015313334 0.008841157 0.0412563 1 -0 -0 43 86 144 255
0.015313334 -0.008841157 0.025967224 1 -0 -0 43 86 144 255
0.015313334 -0.008841157 0.0412563 1 -0 -0 43 86 144 255
-1.09730535E-14 0.017682314 0.0412563 0.5 0.8660253 1.07938106E-13 43 86 144 255
0.015313334 0.008841157 0.0412563 0.5 0.8660253 1.07938106E-13 43 86 144 255
-4.389222E-15 0.017682314 0.025967224 0.5 0.8660253 1.07938106E-13 43 86 144 255
0.015313334 0.008841157 0.025967224 0.5 0.8660253 1.07938106E-13 43 86 144 255
3 0 1 2
3 1 0 3
3 3 0 4
3 4 0 5
3 6 7 8
3 8 7 9
3 9 7 10
3 11 10 7
3 12 13 14
3 15 16 17
3 14 18 19
3 18 14 13
3 16 15 20
3 21 20 15
3 22 23 24
3 25 26 27
3 28 29 30
3 31 32 33
3 24 34 35
3 34 24 23
3 26 25 36
3 37 36 25
3 29 38 39
3 38 29 28
3 33 32 40
3 41 40 32
3 42 43 44
3 45 46 47
3 48 49 50
3 51 52 53
3 54 44 55
3 44 54 42
3 47 56 45
3 57 45 56
3 50 58 59
3 58 50 49
3 52 51 60
3 61 60 51
3 62 63 64
3 65 66 67
3 64 68 69
3 68 64 63
3 66 65 70
3 71 70 65
3 72 73 74
3 73 72 75
3 76 77 78
3 77 76 79
3 80 81 82
3 81 80 83
3 84 85 86
3 85 84 87
3 88 89 90
3 89 88 91
3 92 93 94
3 93 92 95
3 96 97 98
3 97 96 99
3 100 101 102
3 101 100 103
3 104 105 106
3 105 104 107
3 108 109 110
3 109 108 111
3 112 113 114
3 113 112 115
3 116 117 118
3 117 116 119
3 120 121 122
3 121 120 123
3 124 125 126
3 125 124 127
3 128 129 130
3 129 128 131
3 132 133 134
3 133 132 135
3 136 137 138
3 137 136 139
3 140 141 142
3 141 140 143
3 144 145 146
3 145 144 147
3 148 149 150
3 149 148 151
3 152 153 154
3 153 152 155
3 156 157 158
3 157 156 159
3 160 161 162
3 161 160 163
3 164 165 166
3 165 164 167
3 167 164 168
3 167 168 169
3 170 171 172
3 171 170 173
3 174 175 176
3 175 174 177
3 178 179 180
3 179 178 181
3 182 183 184
3 183 182 185
3 186 187 188
3 187 186 189
3 190 191 192
3 191 190 193
3 194 195 196
3 195 194 197
3 198 199 200
3 199 198 201
3 202 203 204
3 203 202 205
3 206 207 208
3 207 206 209
3 210 211 212
3 211 210 213
3 214 215 216
3 215 214 217
3 218 219 220
3 219 218 221
3 222 223 224
3 225 224 223
3 226 227 228
3 229 228 227
3 230 231 232
3 233 232 231
3 234 235 236
3 237 236 235
3 238 239 240
3 241 240 239
3 242 243 244
3 245 244 243
3 246 247 248
3 249 248 247
3 250 251 252
3 253 252 251
3 254 255 256
3 257 256 255
3 258 259 260
3 261 260 259
3 262 263 264
3 265 264 263
3 266 267 268
3 269 268 267
3 270 271 272
3 273 272 271
3 274 275 276
3 277 276 275
3 278 279 280
3 281 280 279
3 282 283 284
3 285 284 283
3 286 287 288
3 289 288 287
3 290 291 292
3 293 292 291
3 294 295 296
3 297 296 295
3 298 299 300
3 301 300 299
3 302 303 304
3 305 304 303
3 306 307 308
3 309 308 307
3 310 311 312
3 313 312 311
3 314 315 316
3 315 317 316
3 316 317 318
3 319 318 317
3 320 321 322
3 323 322 321
3 324 325 326
3 327 326 325
3 328 329 330
3 331 330 329
3 332 333 334
3 335 334 333
3 336 337 338
3 339 338 337
3 340 341 342
3 343 342 341
3 344 345 346
3 347 346 345
3 348 349 350
3 351 350 349
3 352 353 354
3 355 354 353
3 356 357 358
3 359 358 357
3 360 361 362
3 363 362 361
3 364 365 366
3 367 366 365
3 368 369 370
3 371 370 369

