ply
format ascii 1.0
commentY29udmVydGVyIGJ5IENvZGVMZW9wYXJk
comment Original mesh name: 'C:\Program Files (x86)\Steam\steamapps\common\Stormworks\rom\meshes\component_sonar_advanced_mid.mesh'
comment SubMesh index: 0
comment SubMesh name: 'ID32'
comment Shader: Opaque (0)
element vertex 584
property float x
property float y
property float z
property float nx
property float ny
property float nz
property uchar red
property uchar green
property uchar blue
property uchar alpha
element face 388
property list uchar ushort vertex_index
end_header
0.625 -0.625 0.37499997 0 -0 -1 255 125 0 255
0.5599998 -7.2191136E-16 0.37499997 0 -0 -1 255 125 0 255
0.625 0.625 0.37499997 0 -0 -1 255 125 0 255
0.54091835 -0.14493866 0.37499997 0 -0 -1 255 125 0 255
0.4849741 -0.2799999 0.37499997 0 -0 -1 255 125 0 255
0.39597988 -0.39597988 0.37499997 0 -0 -1 255 125 0 255
0.2799999 -0.4849741 0.37499997 0 -0 -1 255 125 0 255
0.14493866 -0.54091835 0.37499997 0 -0 -1 255 125 0 255
-0 -0.5599998 0.37499997 0 -0 -1 255 125 0 255
-0.625 -0.625 0.37499997 0 -0 -1 255 125 0 255
-0.14493866 -0.54091835 0.37499997 0 -0 -1 255 125 0 255
-0.2799999 -0.4849741 0.37499997 0 -0 -1 255 125 0 255
-0.39597988 -0.39597988 0.37499997 0 -0 -1 255 125 0 255
-0.4849741 -0.2799999 0.37499997 0 -0 -1 255 125 0 255
-0.54091835 -0.14493866 0.37499997 0 -0 -1 255 125 0 255
-0.5599998 -7.2191136E-16 0.37499997 0 -0 -1 255 125 0 255
-0 0.5599998 0.37499997 0 -0 -1 255 125 0 255
-0.625 0.625 0.37499997 0 -0 -1 255 125 0 255
0.14493866 0.54091835 0.37499997 0 -0 -1 255 125 0 255
0.2799999 0.4849741 0.37499997 0 -0 -1 255 125 0 255
0.39597988 0.39597988 0.37499997 0 -0 -1 255 125 0 255
0.4849741 0.2799999 0.37499997 0 -0 -1 255 125 0 255
0.54091835 0.14493866 0.37499997 0 -0 -1 255 125 0 255
-0.14493866 0.54091835 0.37499997 0 -0 -1 255 125 0 255
-0.2799999 0.4849741 0.37499997 0 -0 -1 255 125 0 255
-0.39597988 0.39597988 0.37499997 0 -0 -1 255 125 0 255
-0.4849741 0.2799999 0.37499997 0 -0 -1 255 125 0 255
-0.54091835 0.14493866 0.37499997 0 -0 -1 255 125 0 255
0.54091835 -0.14493866 0.37499997 0 -4.327734E-33 -1 86 86 86 255
0.54091835 0.14493866 0.37499997 0 -4.327734E-33 -1 86 86 86 255
0.5599998 -7.2191136E-16 0.37499997 0 -4.327734E-33 -1 86 86 86 255
0.4849741 -0.2799999 0.37499997 0 -4.327734E-33 -1 86 86 86 255
0.4849741 0.2799999 0.37499997 0 -4.327734E-33 -1 86 86 86 255
0.39597988 -0.39597988 0.37499997 0 -4.327734E-33 -1 86 86 86 255
0.39597988 0.39597988 0.37499997 0 -4.327734E-33 -1 86 86 86 255
0.3582741 -1.0828669E-15 0.37499997 0 -4.327734E-33 -1 86 86 86 255
0.34606636 -0.09272818 0.37499997 0 -4.327734E-33 -1 86 86 86 255
0.2799999 -0.4849741 0.37499997 0 -4.327734E-33 -1 86 86 86 255
0.31027445 -0.1791371 0.37499997 0 -4.327734E-33 -1 86 86 86 255
0.2533381 -0.2533381 0.37499997 0 -4.327734E-33 -1 86 86 86 255
0.14493866 -0.54091835 0.37499997 0 -4.327734E-33 -1 86 86 86 255
0.1791371 -0.31027445 0.37499997 0 -4.327734E-33 -1 86 86 86 255
0.09272818 -0.34606636 0.37499997 0 -4.327734E-33 -1 86 86 86 255
-0 -0.5599998 0.37499997 0 -4.327734E-33 -1 86 86 86 255
-0 -0.3582741 0.37499997 0 -4.327734E-33 -1 86 86 86 255
-0.14493866 -0.54091835 0.37499997 0 -4.327734E-33 -1 86 86 86 255
-0.09272818 -0.34606636 0.37499997 0 -4.327734E-33 -1 86 86 86 255
-0.1791371 -0.31027445 0.37499997 0 -4.327734E-33 -1 86 86 86 255
-0.2799999 -0.4849741 0.37499997 0 -4.327734E-33 -1 86 86 86 255
-0.2533381 -0.2533381 0.37499997 0 -4.327734E-33 -1 86 86 86 255
-0.31027445 -0.1791371 0.37499997 0 -4.327734E-33 -1 86 86 86 255
-0.39597988 -0.39597988 0.37499997 0 -4.327734E-33 -1 86 86 86 255
-0.34606636 -0.09272818 0.37499997 0 -4.327734E-33 -1 86 86 86 255
-0.3582741 -3.6095557E-16 0.37499997 0 -4.327734E-33 -1 86 86 86 255
0.34606636 0.09272818 0.37499997 0 -4.327734E-33 -1 86 86 86 255
0.2799999 0.4849741 0.37499997 0 -4.327734E-33 -1 86 86 86 255
0.31027445 0.1791371 0.37499997 0 -4.327734E-33 -1 86 86 86 255
0.2533381 0.2533381 0.37499997 0 -4.327734E-33 -1 86 86 86 255
0.14493866 0.54091835 0.37499997 0 -4.327734E-33 -1 86 86 86 255
0.1791371 0.31027445 0.37499997 0 -4.327734E-33 -1 86 86 86 255
0.09272818 0.34606636 0.37499997 0 -4.327734E-33 -1 86 86 86 255
-0 0.5599998 0.37499997 0 -4.327734E-33 -1 86 86 86 255
-0 0.3582741 0.37499997 0 -4.327734E-33 -1 86 86 86 255
-0.09272818 0.34606636 0.37499997 0 -4.327734E-33 -1 86 86 86 255
-0.14493866 0.54091835 0.37499997 0 -4.327734E-33 -1 86 86 86 255
-0.1791371 0.31027445 0.37499997 0 -4.327734E-33 -1 86 86 86 255
-0.2799999 0.4849741 0.37499997 0 -4.327734E-33 -1 86 86 86 255
-0.2533381 0.2533381 0.37499997 0 -4.327734E-33 -1 86 86 86 255
-0.31027445 0.1791371 0.37499997 0 -4.327734E-33 -1 86 86 86 255
-0.39597988 0.39597988 0.37499997 0 -4.327734E-33 -1 86 86 86 255
-0.34606636 0.09272818 0.37499997 0 -4.327734E-33 -1 86 86 86 255
-0.4849741 -0.2799999 0.37499997 0 -4.327734E-33 -1 86 86 86 255
-0.4849741 0.2799999 0.37499997 0 -4.327734E-33 -1 86 86 86 255
-0.54091835 -0.14493866 0.37499997 0 -4.327734E-33 -1 86 86 86 255
-0.54091835 0.14493866 0.37499997 0 -4.327734E-33 -1 86 86 86 255
-0.5599998 -7.2191136E-16 0.37499997 0 -4.327734E-33 -1 86 86 86 255
-0.09011767 0.33632365 -0.28499994 -0.1305262 0.9914448 3.401226E-30 199 199 199 255
-0 0.348188 -0.365 -0.1305262 0.9914448 3.401226E-30 199 199 199 255
-0.09011767 0.33632365 -0.365 -0.1305262 0.9914448 3.401226E-30 199 199 199 255
-0 0.348188 -0.28499994 -0.1305262 0.9914448 3.401226E-30 199 199 199 255
-0.17409396 0.30153963 -0.28499994 -0.3826834 0.9238795 -0 199 199 199 255
-0.09011767 0.33632365 -0.365 -0.3826834 0.9238795 -0 199 199 199 255
-0.17409396 0.30153963 -0.365 -0.3826834 0.9238795 -0 199 199 199 255
-0.09011767 0.33632365 -0.28499994 -0.3826834 0.9238795 -0 199 199 199 255
-0 0.348188 -0.28499994 0.1305262 0.9914448 -0 199 199 199 255
0.09011767 0.33632365 -0.365 0.1305262 0.9914448 -0 199 199 199 255
-0 0.348188 -0.365 0.1305262 0.9914448 -0 199 199 199 255
0.09011767 0.33632365 -0.28499994 0.1305262 0.9914448 -0 199 199 199 255
-0.24620605 0.24620605 -0.28499994 -0.6087614 0.7933533 -0 199 199 199 255
-0.17409396 0.30153963 -0.365 -0.6087614 0.7933533 -0 199 199 199 255
-0.24620605 0.24620605 -0.365 -0.6087614 0.7933533 -0 199 199 199 255
-0.17409396 0.30153963 -0.28499994 -0.6087614 0.7933533 -0 199 199 199 255
0.09011767 0.33632365 -0.28499994 0.3826834 0.9238795 -9.97189E-30 199 199 199 255
0.17409396 0.30153963 -0.365 0.3826834 0.9238795 -9.97189E-30 199 199 199 255
0.09011767 0.33632365 -0.365 0.3826834 0.9238795 -9.97189E-30 199 199 199 255
0.17409396 0.30153963 -0.28499994 0.3826834 0.9238795 -9.97189E-30 199 199 199 255
-0.24620605 0.24620605 -0.28499994 -0.7933533 0.6087614 -0 199 199 199 255
-0.30153963 0.17409396 -0.365 -0.7933533 0.6087614 -0 199 199 199 255
-0.30153963 0.17409396 -0.28499994 -0.7933533 0.6087614 -0 199 199 199 255
-0.24620605 0.24620605 -0.365 -0.7933533 0.6087614 -0 199 199 199 255
0.17409396 0.30153963 -0.28499994 0.6087614 0.7933533 -0 199 199 199 255
0.24620605 0.24620605 -0.365 0.6087614 0.7933533 -0 199 199 199 255
0.17409396 0.30153963 -0.365 0.6087614 0.7933533 -0 199 199 199 255
0.24620605 0.24620605 -0.28499994 0.6087614 0.7933533 -0 199 199 199 255
-0.30153963 0.17409396 -0.28499994 -0.9238795 0.3826834 -0 199 199 199 255
-0.33632365 0.09011767 -0.365 -0.9238795 0.3826834 -0 199 199 199 255
-0.33632365 0.09011767 -0.28499994 -0.9238795 0.3826834 -0 199 199 199 255
-0.30153963 0.17409396 -0.365 -0.9238795 0.3826834 -0 199 199 199 255
0.24620605 0.24620605 -0.365 0.7933533 0.6087614 -0 199 199 199 255
0.30153963 0.17409396 -0.28499994 0.7933533 0.6087614 -0 199 199 199 255
0.30153963 0.17409396 -0.365 0.7933533 0.6087614 -0 199 199 199 255
0.24620605 0.24620605 -0.28499994 0.7933533 0.6087614 -0 199 199 199 255
-0.33632365 0.09011767 -0.28499994 -0.9914448 0.1305262 -0 199 199 199 255
-0.348188 7.2191136E-16 -0.365 -0.9914448 0.1305262 -0 199 199 199 255
-0.348188 7.2191136E-16 -0.28499994 -0.9914448 0.1305262 -0 199 199 199 255
-0.33632365 0.09011767 -0.365 -0.9914448 0.1305262 -0 199 199 199 255
0.30153963 0.17409396 -0.365 0.9238795 0.3826834 -0 199 199 199 255
0.33632365 0.09011767 -0.28499994 0.9238795 0.3826834 -0 199 199 199 255
0.33632365 0.09011767 -0.365 0.9238795 0.3826834 -0 199 199 199 255
0.30153963 0.17409396 -0.28499994 0.9238795 0.3826834 -0 199 199 199 255
-0.348188 7.2191136E-16 -0.28499994 -0.9914448 -0.1305262 -3.739688E-18 199 199 199 255
-0.33632365 -0.09011767 -0.365 -0.9914448 -0.1305262 -3.739688E-18 199 199 199 255
-0.33632365 -0.09011767 -0.28499994 -0.9914448 -0.1305262 -3.739688E-18 199 199 199 255
-0.348188 7.2191136E-16 -0.365 -0.9914448 -0.1305262 -3.739688E-18 199 199 199 255
0.33632365 0.09011767 -0.365 0.9914448 0.1305262 -0 199 199 199 255
0.348188 -7.2191136E-16 -0.28499994 0.9914448 0.1305262 -0 199 199 199 255
0.348188 -7.2191136E-16 -0.365 0.9914448 0.1305262 -0 199 199 199 255
0.33632365 0.09011767 -0.28499994 0.9914448 0.1305262 -0 199 199 199 255
-0.33632365 -0.09011767 -0.28499994 -0.9238795 -0.3826834 -0 199 199 199 255
-0.30153963 -0.17409396 -0.365 -0.9238795 -0.3826834 -0 199 199 199 255
-0.30153963 -0.17409396 -0.28499994 -0.9238795 -0.3826834 -0 199 199 199 255
-0.33632365 -0.09011767 -0.365 -0.9238795 -0.3826834 -0 199 199 199 255
0.348188 -7.2191136E-16 -0.365 0.9914448 -0.1305262 -3.739688E-18 199 199 199 255
0.33632365 -0.09011767 -0.28499994 0.9914448 -0.1305262 -3.739688E-18 199 199 199 255
0.33632365 -0.09011767 -0.365 0.9914448 -0.1305262 -3.739688E-18 199 199 199 255
0.348188 -7.2191136E-16 -0.28499994 0.9914448 -0.1305262 -3.739688E-18 199 199 199 255
-0.30153963 -0.17409396 -0.28499994 -0.7933533 -0.6087614 -2.265592E-29 199 199 199 255
-0.24620605 -0.24620605 -0.365 -0.7933533 -0.6087614 -2.265592E-29 199 199 199 255
-0.24620605 -0.24620605 -0.28499994 -0.7933533 -0.6087614 -2.265592E-29 199 199 199 255
-0.30153963 -0.17409396 -0.365 -0.7933533 -0.6087614 -2.265592E-29 199 199 199 255
0.33632365 -0.09011767 -0.365 0.9238795 -0.3826834 -0 199 199 199 255
0.30153963 -0.17409396 -0.28499994 0.9238795 -0.3826834 -0 199 199 199 255
0.30153963 -0.17409396 -0.365 0.9238795 -0.3826834 -0 199 199 199 255
0.33632365 -0.09011767 -0.28499994 0.9238795 -0.3826834 -0 199 199 199 255
-0.17409396 -0.30153963 -0.28499994 -0.6087614 -0.7933533 1.586299E-29 199 199 199 255
-0.24620605 -0.24620605 -0.365 -0.6087614 -0.7933533 1.586299E-29 199 199 199 255
-0.17409396 -0.30153963 -0.365 -0.6087614 -0.7933533 1.586299E-29 199 199 199 255
-0.24620605 -0.24620605 -0.28499994 -0.6087614 -0.7933533 1.586299E-29 199 199 199 255
0.30153963 -0.17409396 -0.365 0.7933533 -0.6087614 -2.0673051E-29 199 199 199 255
0.24620605 -0.24620605 -0.28499994 0.7933533 -0.6087614 -2.0673051E-29 199 199 199 255
0.24620605 -0.24620605 -0.365 0.7933533 -0.6087614 -2.0673051E-29 199 199 199 255
0.30153963 -0.17409396 -0.28499994 0.7933533 -0.6087614 -2.0673051E-29 199 199 199 255
-0.09011767 -0.33632365 -0.28499994 -0.3826834 -0.9238795 -9.97189E-30 199 199 199 255
-0.17409396 -0.30153963 -0.365 -0.3826834 -0.9238795 -9.97189E-30 199 199 199 255
-0.09011767 -0.33632365 -0.365 -0.3826834 -0.9238795 -9.97189E-30 199 199 199 255
-0.17409396 -0.30153963 -0.28499994 -0.3826834 -0.9238795 -9.97189E-30 199 199 199 255
0.24620605 -0.24620605 -0.28499994 0.6087614 -0.7933533 1.327886E-29 199 199 199 255
0.17409396 -0.30153963 -0.365 0.6087614 -0.7933533 1.327886E-29 199 199 199 255
0.24620605 -0.24620605 -0.365 0.6087614 -0.7933533 1.327886E-29 199 199 199 255
0.17409396 -0.30153963 -0.28499994 0.6087614 -0.7933533 1.327886E-29 199 199 199 255
-0 -0.348188 -0.28499994 -0.1305262 -0.9914448 -0 199 199 199 255
-0.09011767 -0.33632365 -0.365 -0.1305262 -0.9914448 -0 199 199 199 255
-0 -0.348188 -0.365 -0.1305262 -0.9914448 -0 199 199 199 255
-0.09011767 -0.33632365 -0.28499994 -0.1305262 -0.9914448 -0 199 199 199 255
0.17409396 -0.30153963 -0.28499994 0.3826834 -0.9238795 -0 199 199 199 255
0.09011767 -0.33632365 -0.365 0.3826834 -0.9238795 -0 199 199 199 255
0.17409396 -0.30153963 -0.365 0.3826834 -0.9238795 -0 199 199 199 255
0.09011767 -0.33632365 -0.28499994 0.3826834 -0.9238795 -0 199 199 199 255
0.09011767 -0.33632365 -0.28499994 0.1305262 -0.9914448 3.401226E-30 199 199 199 255
-0 -0.348188 -0.365 0.1305262 -0.9914448 3.401226E-30 199 199 199 255
0.09011767 -0.33632365 -0.365 0.1305262 -0.9914448 3.401226E-30 199 199 199 255
-0 -0.348188 -0.28499994 0.1305262 -0.9914448 3.401226E-30 199 199 199 255
-0.2533381 0.2533381 -0.37499997 -0.5609855 0.4304593 0.7071068 86 86 86 255
-0.30153963 0.17409396 -0.365 -0.5609855 0.4304593 0.7071068 86 86 86 255
-0.24620605 0.24620605 -0.365 -0.5609855 0.4304593 0.7071068 86 86 86 255
-0.31027445 0.1791371 -0.37499997 -0.5609855 0.4304593 0.7071068 86 86 86 255
-0.31027445 0.1791371 -0.37499997 -0.65328145 0.27059808 0.70710677 86 86 86 255
-0.33632365 0.09011767 -0.365 -0.65328145 0.27059808 0.70710677 86 86 86 255
-0.30153963 0.17409396 -0.365 -0.65328145 0.27059808 0.70710677 86 86 86 255
-0.34606636 0.09272818 -0.37499997 -0.65328145 0.27059808 0.70710677 86 86 86 255
-0.1791371 0.31027445 -0.37499997 -0.4304593 0.5609855 0.7071068 86 86 86 255
-0.24620605 0.24620605 -0.365 -0.4304593 0.5609855 0.7071068 86 86 86 255
-0.17409396 0.30153963 -0.365 -0.4304593 0.5609855 0.7071068 86 86 86 255
-0.2533381 0.2533381 -0.37499997 -0.4304593 0.5609855 0.7071068 86 86 86 255
-0.34606636 0.09272818 -0.37499997 -0.7010574 0.09229596 0.7071068 86 86 86 255
-0.348188 7.2191136E-16 -0.365 -0.7010574 0.09229596 0.7071068 86 86 86 255
-0.33632365 0.09011767 -0.365 -0.7010574 0.09229596 0.7071068 86 86 86 255
-0.3582741 7.2191136E-16 -0.37499997 -0.7010574 0.09229596 0.7071068 86 86 86 255
-0.09272818 0.34606636 -0.37499997 -0.27059808 0.65328145 0.70710677 86 86 86 255
-0.17409396 0.30153963 -0.365 -0.27059808 0.65328145 0.70710677 86 86 86 255
-0.09011767 0.33632365 -0.365 -0.27059808 0.65328145 0.70710677 86 86 86 255
-0.1791371 0.31027445 -0.37499997 -0.27059808 0.65328145 0.70710677 86 86 86 255
-0.348188 7.2191136E-16 -0.365 -0.7010574 -0.09229596 0.7071068 86 86 86 255
-0.34606636 -0.09272818 -0.37499997 -0.7010574 -0.09229596 0.7071068 86 86 86 255
-0.33632365 -0.09011767 -0.365 -0.7010574 -0.09229596 0.7071068 86 86 86 255
-0.3582741 7.2191136E-16 -0.37499997 -0.7010574 -0.09229596 0.7071068 86 86 86 255
-0.09272818 0.34606636 -0.37499997 -0.09229596 0.7010574 0.7071068 86 86 86 255
-0 0.348188 -0.365 -0.09229596 0.7010574 0.7071068 86 86 86 255
-0 0.3582741 -0.37499997 -0.09229596 0.7010574 0.7071068 86 86 86 255
-0.09011767 0.33632365 -0.365 -0.09229596 0.7010574 0.7071068 86 86 86 255
-0.33632365 -0.09011767 -0.365 -0.65328145 -0.27059808 0.70710677 86 86 86 255
-0.31027445 -0.1791371 -0.37499997 -0.65328145 -0.27059808 0.70710677 86 86 86 255
-0.30153963 -0.17409396 -0.365 -0.65328145 -0.27059808 0.70710677 86 86 86 255
-0.34606636 -0.09272818 -0.37499997 -0.65328145 -0.27059808 0.70710677 86 86 86 255
-0 0.3582741 -0.37499997 0.09229596 0.7010574 0.7071068 86 86 86 255
0.09011767 0.33632365 -0.365 0.09229596 0.7010574 0.7071068 86 86 86 255
0.09272818 0.34606636 -0.37499997 0.09229596 0.7010574 0.7071068 86 86 86 255
-0 0.348188 -0.365 0.09229596 0.7010574 0.7071068 86 86 86 255
-0.30153963 -0.17409396 -0.365 -0.5609855 -0.4304593 0.7071068 86 86 86 255
-0.2533381 -0.2533381 -0.37499997 -0.5609855 -0.4304593 0.7071068 86 86 86 255
-0.24620605 -0.24620605 -0.365 -0.5609855 -0.4304593 0.7071068 86 86 86 255
-0.31027445 -0.1791371 -0.37499997 -0.5609855 -0.4304593 0.7071068 86 86 86 255
0.09272818 0.34606636 -0.37499997 0.27059808 0.65328145 0.70710677 86 86 86 255
0.17409396 0.30153963 -0.365 0.27059808 0.65328145 0.70710677 86 86 86 255
0.1791371 0.31027445 -0.37499997 0.27059808 0.65328145 0.70710677 86 86 86 255
0.09011767 0.33632365 -0.365 0.27059808 0.65328145 0.70710677 86 86 86 255
-0.24620605 -0.24620605 -0.365 -0.4304593 -0.5609855 0.7071068 86 86 86 255
-0.1791371 -0.31027445 -0.37499997 -0.4304593 -0.5609855 0.7071068 86 86 86 255
-0.17409396 -0.30153963 -0.365 -0.4304593 -0.5609855 0.7071068 86 86 86 255
-0.2533381 -0.2533381 -0.37499997 -0.4304593 -0.5609855 0.7071068 86 86 86 255
0.1791371 0.31027445 -0.37499997 0.4304593 0.5609855 0.7071068 86 86 86 255
0.24620605 0.24620605 -0.365 0.4304593 0.5609855 0.7071068 86 86 86 255
0.2533381 0.2533381 -0.37499997 0.4304593 0.5609855 0.7071068 86 86 86 255
0.17409396 0.30153963 -0.365 0.4304593 0.5609855 0.7071068 86 86 86 255
-0.17409396 -0.30153963 -0.365 -0.27059808 -0.65328145 0.70710677 86 86 86 255
-0.09272818 -0.34606636 -0.37499997 -0.27059808 -0.65328145 0.70710677 86 86 86 255
-0.09011767 -0.33632365 -0.365 -0.27059808 -0.65328145 0.70710677 86 86 86 255
-0.1791371 -0.31027445 -0.37499997 -0.27059808 -0.65328145 0.70710677 86 86 86 255
0.2533381 0.2533381 -0.37499997 0.5609855 0.4304593 0.7071068 86 86 86 255
0.30153963 0.17409396 -0.365 0.5609855 0.4304593 0.7071068 86 86 86 255
0.31027445 0.1791371 -0.37499997 0.5609855 0.4304593 0.7071068 86 86 86 255
0.24620605 0.24620605 -0.365 0.5609855 0.4304593 0.7071068 86 86 86 255
-0.09011767 -0.33632365 -0.365 -0.09229596 -0.7010574 0.7071068 86 86 86 255
-0 -0.3582741 -0.37499997 -0.09229596 -0.7010574 0.7071068 86 86 86 255
-0 -0.348188 -0.365 -0.09229596 -0.7010574 0.7071068 86 86 86 255
-0.09272818 -0.34606636 -0.37499997 -0.09229596 -0.7010574 0.7071068 86 86 86 255
0.31027445 0.1791371 -0.37499997 0.65328145 0.27059808 0.70710677 86 86 86 255
0.33632365 0.09011767 -0.365 0.65328145 0.27059808 0.70710677 86 86 86 255
0.34606636 0.09272818 -0.37499997 0.65328145 0.27059808 0.70710677 86 86 86 255
0.30153963 0.17409396 -0.365 0.65328145 0.27059808 0.70710677 86 86 86 255
0.09011767 -0.33632365 -0.365 0.09229596 -0.7010574 0.7071068 86 86 86 255
-0 -0.3582741 -0.37499997 0.09229596 -0.7010574 0.7071068 86 86 86 255
0.09272818 -0.34606636 -0.37499997 0.09229596 -0.7010574 0.7071068 86 86 86 255
-0 -0.348188 -0.365 0.09229596 -0.7010574 0.7071068 86 86 86 255
0.34606636 0.09272818 -0.37499997 0.7010574 0.09229596 0.7071068 86 86 86 255
0.348188 -7.2191136E-16 -0.365 0.7010574 0.09229596 0.7071068 86 86 86 255
0.3582741 0 -0.37499997 0.7010574 0.09229596 0.7071068 86 86 86 255
0.33632365 0.09011767 -0.365 0.7010574 0.09229596 0.7071068 86 86 86 255
0.17409396 -0.30153963 -0.365 0.27059808 -0.65328145 0.70710677 86 86 86 255
0.09272818 -0.34606636 -0.37499997 0.27059808 -0.65328145 0.70710677 86 86 86 255
0.1791371 -0.31027445 -0.37499997 0.27059808 -0.65328145 0.70710677 86 86 86 255
0.09011767 -0.33632365 -0.365 0.27059808 -0.65328145 0.70710677 86 86 86 255
0.348188 -7.2191136E-16 -0.365 0.7010574 -0.09229596 0.7071068 86 86 86 255
0.34606636 -0.09272818 -0.37499997 0.7010574 -0.09229596 0.7071068 86 86 86 255
0.3582741 0 -0.37499997 0.7010574 -0.09229596 0.7071068 86 86 86 255
0.33632365 -0.09011767 -0.365 0.7010574 -0.09229596 0.7071068 86 86 86 255
0.24620605 -0.24620605 -0.365 0.4304593 -0.5609855 0.7071068 86 86 86 255
0.1791371 -0.31027445 -0.37499997 0.4304593 -0.5609855 0.7071068 86 86 86 255
0.2533381 -0.2533381 -0.37499997 0.4304593 -0.5609855 0.7071068 86 86 86 255
0.17409396 -0.30153963 -0.365 0.4304593 -0.5609855 0.7071068 86 86 86 255
0.33632365 -0.09011767 -0.365 0.65328145 -0.27059808 0.70710677 86 86 86 255
0.31027445 -0.1791371 -0.37499997 0.65328145 -0.27059808 0.70710677 86 86 86 255
0.34606636 -0.09272818 -0.37499997 0.65328145 -0.27059808 0.70710677 86 86 86 255
0.30153963 -0.17409396 -0.365 0.65328145 -0.27059808 0.70710677 86 86 86 255
0.30153963 -0.17409396 -0.365 0.5609855 -0.4304593 0.7071068 86 86 86 255
0.2533381 -0.2533381 -0.37499997 0.5609855 -0.4304593 0.7071068 86 86 86 255
0.31027445 -0.1791371 -0.37499997 0.5609855 -0.4304593 0.7071068 86 86 86 255
0.24620605 -0.24620605 -0.365 0.5609855 -0.4304593 0.7071068 86 86 86 255
0.54091835 0.14493866 -0.37499997 0 5.193281E-32 1 86 86 86 255
0.54091835 -0.14493866 -0.37499997 0 5.193281E-32 1 86 86 86 255
0.5599998 0 -0.37499997 0 5.193281E-32 1 86 86 86 255
0.4849741 0.2799999 -0.37499997 0 5.193281E-32 1 86 86 86 255
0.4849741 -0.2799999 -0.37499997 0 5.193281E-32 1 86 86 86 255
0.39597988 0.39597988 -0.37499997 0 5.193281E-32 1 86 86 86 255
0.39597988 -0.39597988 -0.37499997 0 5.193281E-32 1 86 86 86 255
0.3582741 0 -0.37499997 0 5.193281E-32 1 86 86 86 255
0.34606636 0.09272818 -0.37499997 0 5.193281E-32 1 86 86 86 255
0.2799999 0.4849741 -0.37499997 0 5.193281E-32 1 86 86 86 255
0.31027445 0.1791371 -0.37499997 0 5.193281E-32 1 86 86 86 255
0.2533381 0.2533381 -0.37499997 0 5.193281E-32 1 86 86 86 255
0.14493866 0.54091835 -0.37499997 0 5.193281E-32 1 86 86 86 255
0.1791371 0.31027445 -0.37499997 0 5.193281E-32 1 86 86 86 255
0.09272818 0.34606636 -0.37499997 0 5.193281E-32 1 86 86 86 255
-0 0.5599998 -0.37499997 0 5.193281E-32 1 86 86 86 255
-0 0.3582741 -0.37499997 0 5.193281E-32 1 86 86 86 255
-0.14493866 0.54091835 -0.37499997 0 5.193281E-32 1 86 86 86 255
-0.09272818 0.34606636 -0.37499997 0 5.193281E-32 1 86 86 86 255
-0.1791371 0.31027445 -0.37499997 0 5.193281E-32 1 86 86 86 255
-0.2799999 0.4849741 -0.37499997 0 5.193281E-32 1 86 86 86 255
-0.2533381 0.2533381 -0.37499997 0 5.193281E-32 1 86 86 86 255
-0.31027445 0.1791371 -0.37499997 0 5.193281E-32 1 86 86 86 255
-0.39597988 0.39597988 -0.37499997 0 5.193281E-32 1 86 86 86 255
-0.34606636 0.09272818 -0.37499997 0 5.193281E-32 1 86 86 86 255
-0.3582741 7.2191136E-16 -0.37499997 0 5.193281E-32 1 86 86 86 255
0.34606636 -0.09272818 -0.37499997 0 5.193281E-32 1 86 86 86 255
0.2799999 -0.4849741 -0.37499997 0 5.193281E-32 1 86 86 86 255
0.31027445 -0.1791371 -0.37499997 0 5.193281E-32 1 86 86 86 255
0.2533381 -0.2533381 -0.37499997 0 5.193281E-32 1 86 86 86 255
0.14493866 -0.54091835 -0.37499997 0 5.193281E-32 1 86 86 86 255
0.1791371 -0.31027445 -0.37499997 0 5.193281E-32 1 86 86 86 255
0.09272818 -0.34606636 -0.37499997 0 5.193281E-32 1 86 86 86 255
-0 -0.5599998 -0.37499997 0 5.193281E-32 1 86 86 86 255
-0 -0.3582741 -0.37499997 0 5.193281E-32 1 86 86 86 255
-0.09272818 -0.34606636 -0.37499997 0 5.193281E-32 1 86 86 86 255
-0.14493866 -0.54091835 -0.37499997 0 5.193281E-32 1 86 86 86 255
-0.1791371 -0.31027445 -0.37499997 0 5.193281E-32 1 86 86 86 255
-0.2799999 -0.4849741 -0.37499997 0 5.193281E-32 1 86 86 86 255
-0.2533381 -0.2533381 -0.37499997 0 5.193281E-32 1 86 86 86 255
-0.31027445 -0.1791371 -0.37499997 0 5.193281E-32 1 86 86 86 255
-0.39597988 -0.39597988 -0.37499997 0 5.193281E-32 1 86 86 86 255
-0.34606636 -0.09272818 -0.37499997 0 5.193281E-32 1 86 86 86 255
-0.4849741 0.2799999 -0.37499997 0 5.193281E-32 1 86 86 86 255
-0.4849741 -0.2799999 -0.37499997 0 5.193281E-32 1 86 86 86 255
-0.54091835 0.14493866 -0.37499997 0 5.193281E-32 1 86 86 86 255
-0.54091835 -0.14493866 -0.37499997 0 5.193281E-32 1 86 86 86 255
-0.5599998 0 -0.37499997 0 5.193281E-32 1 86 86 86 255
0.33632365 0.09011767 -0.28499994 0 -0 1 86 86 86 255
0.33632365 -0.09011767 -0.28499994 0 -0 1 86 86 86 255
0.348188 -7.2191136E-16 -0.28499994 0 -0 1 86 86 86 255
0.30153963 0.17409396 -0.28499994 0 -0 1 86 86 86 255
0.30153963 -0.17409396 -0.28499994 0 -0 1 86 86 86 255
0.24620605 0.24620605 -0.28499994 0 -0 1 86 86 86 255
0.24620605 -0.24620605 -0.28499994 0 -0 1 86 86 86 255
0.17409396 -0.30153963 -0.28499994 0 -0 1 86 86 86 255
0.17409396 0.30153963 -0.28499994 0 -0 1 86 86 86 255
0.09011767 0.33632365 -0.28499994 0 -0 1 86 86 86 255
0.09011767 -0.33632365 -0.28499994 0 -0 1 86 86 86 255
-0 0.348188 -0.28499994 0 -0 1 86 86 86 255
-0 -0.348188 -0.28499994 0 -0 1 86 86 86 255
-0.09011767 0.33632365 -0.28499994 0 -0 1 86 86 86 255
-0.09011767 -0.33632365 -0.28499994 0 -0 1 86 86 86 255
-0.17409396 0.30153963 -0.28499994 0 -0 1 86 86 86 255
-0.17409396 -0.30153963 -0.28499994 0 -0 1 86 86 86 255
-0.24620605 0.24620605 -0.28499994 0 -0 1 86 86 86 255
-0.24620605 -0.24620605 -0.28499994 0 -0 1 86 86 86 255
-0.30153963 0.17409396 -0.28499994 0 -0 1 86 86 86 255
-0.30153963 -0.17409396 -0.28499994 0 -0 1 86 86 86 255
-0.33632365 0.09011767 -0.28499994 0 -0 1 86 86 86 255
-0.33632365 -0.09011767 -0.28499994 0 -0 1 86 86 86 255
-0.348188 7.2191136E-16 -0.28499994 0 -0 1 86 86 86 255
0.625 0.625 -0.37499997 0 -0 1 255 125 0 255
0.5599998 0 -0.37499997 0 -0 1 255 125 0 255
0.625 -0.625 -0.37499997 0 -0 1 255 125 0 255
0.54091835 0.14493866 -0.37499997 0 -0 1 255 125 0 255
0.4849741 0.2799999 -0.37499997 0 -0 1 255 125 0 255
0.39597988 0.39597988 -0.37499997 0 -0 1 255 125 0 255
0.2799999 0.4849741 -0.37499997 0 -0 1 255 125 0 255
0.14493866 0.54091835 -0.37499997 0 -0 1 255 125 0 255
-0 0.5599998 -0.37499997 0 -0 1 255 125 0 255
-0.625 0.625 -0.37499997 0 -0 1 255 125 0 255
-0.14493866 0.54091835 -0.37499997 0 -0 1 255 125 0 255
-0.2799999 0.4849741 -0.37499997 0 -0 1 255 125 0 255
-0.39597988 0.39597988 -0.37499997 0 -0 1 255 125 0 255
-0.4849741 0.2799999 -0.37499997 0 -0 1 255 125 0 255
-0.54091835 0.14493866 -0.37499997 0 -0 1 255 125 0 255
-0.5599998 0 -0.37499997 0 -0 1 255 125 0 255
-0 -0.5599998 -0.37499997 0 -0 1 255 125 0 255
-0.625 -0.625 -0.37499997 0 -0 1 255 125 0 255
0.14493866 -0.54091835 -0.37499997 0 -0 1 255 125 0 255
0.2799999 -0.4849741 -0.37499997 0 -0 1 255 125 0 255
0.39597988 -0.39597988 -0.37499997 0 -0 1 255 125 0 255
0.4849741 -0.2799999 -0.37499997 0 -0 1 255 125 0 255
0.54091835 -0.14493866 -0.37499997 0 -0 1 255 125 0 255
-0.14493866 -0.54091835 -0.37499997 0 -0 1 255 125 0 255
-0.2799999 -0.4849741 -0.37499997 0 -0 1 255 125 0 255
-0.39597988 -0.39597988 -0.37499997 0 -0 1 255 125 0 255
-0.4849741 -0.2799999 -0.37499997 0 -0 1 255 125 0 255
-0.54091835 -0.14493866 -0.37499997 0 -0 1 255 125 0 255
0.33632365 -0.09011767 0.28499994 0 -0 -1 86 86 86 255
0.33632365 0.09011767 0.28499994 0 -0 -1 86 86 86 255
0.348188 -1.4438227E-15 0.28499994 0 -0 -1 86 86 86 255
0.30153963 -0.17409396 0.28499994 0 -0 -1 86 86 86 255
0.30153963 0.17409396 0.28499994 0 -0 -1 86 86 86 255
0.24620605 -0.24620605 0.28499994 0 -0 -1 86 86 86 255
0.24620605 0.24620605 0.28499994 0 -0 -1 86 86 86 255
0.17409396 -0.30153963 0.28499994 0 -0 -1 86 86 86 255
0.17409396 0.30153963 0.28499994 0 -0 -1 86 86 86 255
0.09011767 -0.33632365 0.28499994 0 -0 -1 86 86 86 255
0.09011767 0.33632365 0.28499994 0 -0 -1 86 86 86 255
-0 0.348188 0.28499994 0 -0 -1 86 86 86 255
-0 -0.348188 0.28499994 0 -0 -1 86 86 86 255
-0.09011767 -0.33632365 0.28499994 0 -0 -1 86 86 86 255
-0.09011767 0.33632365 0.28499994 0 -0 -1 86 86 86 255
-0.17409396 0.30153963 0.28499994 0 -0 -1 86 86 86 255
-0.17409396 -0.30153963 0.28499994 0 -0 -1 86 86 86 255
-0.24620605 -0.24620605 0.28499994 0 -0 -1 86 86 86 255
-0.24620605 0.24620605 0.28499994 0 -0 -1 86 86 86 255
-0.30153963 0.17409396 0.28499994 0 -0 -1 86 86 86 255
-0.30153963 -0.17409396 0.28499994 0 -0 -1 86 86 86 255
-0.33632365 -0.09011767 0.28499994 0 -0 -1 86 86 86 255
-0.33632365 0.09011767 0.28499994 0 -0 -1 86 86 86 255
-0.348188 0 0.28499994 0 -0 -1 86 86 86 255
-0.33632365 0.09011767 0.365 -0.9914448 0.1305262 -0 199 199 199 255
-0.348188 0 0.28499994 -0.9914448 0.1305262 -0 199 199 199 255
-0.348188 0 0.365 -0.9914448 0.1305262 -0 199 199 199 255
-0.33632365 0.09011767 0.28499994 -0.9914448 0.1305262 -0 199 199 199 255
-0.30153963 0.17409396 0.365 -0.9238795 0.3826834 -1.09642095E-17 199 199 199 255
-0.33632365 0.09011767 0.28499994 -0.9238795 0.3826834 -1.09642095E-17 199 199 199 255
-0.33632365 0.09011767 0.365 -0.9238795 0.3826834 -1.09642095E-17 199 199 199 255
-0.30153963 0.17409396 0.28499994 -0.9238795 0.3826834 -1.09642095E-17 199 199 199 255
-0.348188 0 0.365 -0.9914448 -0.1305262 -0 199 199 199 255
-0.33632365 -0.09011767 0.28499994 -0.9914448 -0.1305262 -0 199 199 199 255
-0.33632365 -0.09011767 0.365 -0.9914448 -0.1305262 -0 199 199 199 255
-0.348188 0 0.28499994 -0.9914448 -0.1305262 -0 199 199 199 255
-0.24620605 0.24620605 0.365 -0.7933533 0.6087614 -0 199 199 199 255
-0.30153963 0.17409396 0.28499994 -0.7933533 0.6087614 -0 199 199 199 255
-0.30153963 0.17409396 0.365 -0.7933533 0.6087614 -0 199 199 199 255
-0.24620605 0.24620605 0.28499994 -0.7933533 0.6087614 -0 199 199 199 255
-0.33632365 -0.09011767 0.365 -0.9238795 -0.3826834 -0 199 199 199 255
-0.30153963 -0.17409396 0.28499994 -0.9238795 -0.3826834 -0 199 199 199 255
-0.30153963 -0.17409396 0.365 -0.9238795 -0.3826834 -0 199 199 199 255
-0.33632365 -0.09011767 0.28499994 -0.9238795 -0.3826834 -0 199 199 199 255
-0.24620605 0.24620605 0.365 -0.6087614 0.7933533 -0 199 199 199 255
-0.17409396 0.30153963 0.28499994 -0.6087614 0.7933533 -0 199 199 199 255
-0.24620605 0.24620605 0.28499994 -0.6087614 0.7933533 -0 199 199 199 255
-0.17409396 0.30153963 0.365 -0.6087614 0.7933533 -0 199 199 199 255
-0.30153963 -0.17409396 0.365 -0.7933533 -0.6087614 5.168262E-30 199 199 199 255
-0.24620605 -0.24620605 0.28499994 -0.7933533 -0.6087614 5.168262E-30 199 199 199 255
-0.24620605 -0.24620605 0.365 -0.7933533 -0.6087614 5.168262E-30 199 199 199 255
-0.30153963 -0.17409396 0.28499994 -0.7933533 -0.6087614 5.168262E-30 199 199 199 255
-0.17409396 0.30153963 0.365 -0.3826834 0.9238795 -0 199 199 199 255
-0.09011767 0.33632365 0.28499994 -0.3826834 0.9238795 -0 199 199 199 255
-0.17409396 0.30153963 0.28499994 -0.3826834 0.9238795 -0 199 199 199 255
-0.09011767 0.33632365 0.365 -0.3826834 0.9238795 -0 199 199 199 255
-0.17409396 -0.30153963 0.365 -0.6087614 -0.7933533 -3.965747E-30 199 199 199 255
-0.24620605 -0.24620605 0.28499994 -0.6087614 -0.7933533 -3.965747E-30 199 199 199 255
-0.17409396 -0.30153963 0.28499994 -0.6087614 -0.7933533 -3.965747E-30 199 199 199 255
-0.24620605 -0.24620605 0.365 -0.6087614 -0.7933533 -3.965747E-30 199 199 199 255
-0.09011767 0.33632365 0.365 -0.1305262 0.9914448 -8.503065E-31 199 199 199 255
-0 0.348188 0.28499994 -0.1305262 0.9914448 -8.503065E-31 199 199 199 255
-0.09011767 0.33632365 0.28499994 -0.1305262 0.9914448 -8.503065E-31 199 199 199 255
-0 0.348188 0.365 -0.1305262 0.9914448 -8.503065E-31 199 199 199 255
-0.09011767 -0.33632365 0.365 -0.3826834 -0.9238795 3.2452943E-30 199 199 199 255
-0.17409396 -0.30153963 0.28499994 -0.3826834 -0.9238795 3.2452943E-30 199 199 199 255
-0.09011767 -0.33632365 0.28499994 -0.3826834 -0.9238795 3.2452943E-30 199 199 199 255
-0.17409396 -0.30153963 0.365 -0.3826834 -0.9238795 3.2452943E-30 199 199 199 255
-0 0.348188 0.365 0.1305262 0.9914448 -0 199 199 199 255
0.09011767 0.33632365 0.28499994 0.1305262 0.9914448 -0 199 199 199 255
-0 0.348188 0.28499994 0.1305262 0.9914448 -0 199 199 199 255
0.09011767 0.33632365 0.365 0.1305262 0.9914448 -0 199 199 199 255
-0 -0.348188 0.365 -0.1305262 -0.9914448 -0 199 199 199 255
-0.09011767 -0.33632365 0.28499994 -0.1305262 -0.9914448 -0 199 199 199 255
-0 -0.348188 0.28499994 -0.1305262 -0.9914448 -0 199 199 199 255
-0.09011767 -0.33632365 0.365 -0.1305262 -0.9914448 -0 199 199 199 255
0.09011767 0.33632365 0.365 0.3826834 0.9238795 2.4929732E-30 199 199 199 255
0.17409396 0.30153963 0.28499994 0.3826834 0.9238795 2.4929732E-30 199 199 199 255
0.09011767 0.33632365 0.28499994 0.3826834 0.9238795 2.4929732E-30 199 199 199 255
0.17409396 0.30153963 0.365 0.3826834 0.9238795 2.4929732E-30 199 199 199 255
0.09011767 -0.33632365 0.365 0.1305262 -0.9914448 -8.503065E-31 199 199 199 255
-0 -0.348188 0.28499994 0.1305262 -0.9914448 -8.503065E-31 199 199 199 255
0.09011767 -0.33632365 0.28499994 0.1305262 -0.9914448 -8.503065E-31 199 199 199 255
-0 -0.348188 0.365 0.1305262 -0.9914448 -8.503065E-31 199 199 199 255
0.17409396 0.30153963 0.365 0.6087614 0.7933533 -0 199 199 199 255
0.24620605 0.24620605 0.28499994 0.6087614 0.7933533 -0 199 199 199 255
0.17409396 0.30153963 0.28499994 0.6087614 0.7933533 -0 199 199 199 255
0.24620605 0.24620605 0.365 0.6087614 0.7933533 -0 199 199 199 255
0.17409396 -0.30153963 0.365 0.3826834 -0.9238795 -0 199 199 199 255
0.09011767 -0.33632365 0.28499994 0.3826834 -0.9238795 -0 199 199 199 255
0.17409396 -0.30153963 0.28499994 0.3826834 -0.9238795 -0 199 199 199 255
0.09011767 -0.33632365 0.365 0.3826834 -0.9238795 -0 199 199 199 255
0.24620605 0.24620605 0.28499994 0.7933533 0.6087614 -0 199 199 199 255
0.30153963 0.17409396 0.365 0.7933533 0.6087614 -0 199 199 199 255
0.30153963 0.17409396 0.28499994 0.7933533 0.6087614 -0 199 199 199 255
0.24620605 0.24620605 0.365 0.7933533 0.6087614 -0 199 199 199 255
0.24620605 -0.24620605 0.365 0.6087614 -0.7933533 -3.965747E-30 199 199 199 255
0.17409396 -0.30153963 0.28499994 0.6087614 -0.7933533 -3.965747E-30 199 199 199 255
0.24620605 -0.24620605 0.28499994 0.6087614 -0.7933533 -3.965747E-30 199 199 199 255
0.17409396 -0.30153963 0.365 0.6087614 -0.7933533 -3.965747E-30 199 199 199 255
0.30153963 0.17409396 0.28499994 0.9238795 0.3826834 -1.09642095E-17 199 199 199 255
0.33632365 0.09011767 0.365 0.9238795 0.3826834 -1.09642095E-17 199 199 199 255
0.33632365 0.09011767 0.28499994 0.9238795 0.3826834 -1.09642095E-17 199 199 199 255
0.30153963 0.17409396 0.365 0.9238795 0.3826834 -1.09642095E-17 199 199 199 255
0.30153963 -0.17409396 0.28499994 0.7933533 -0.6087614 5.66398E-30 199 199 199 255
0.24620605 -0.24620605 0.365 0.7933533 -0.6087614 5.66398E-30 199 199 199 255
0.24620605 -0.24620605 0.28499994 0.7933533 -0.6087614 5.66398E-30 199 199 199 255
0.30153963 -0.17409396 0.365 0.7933533 -0.6087614 5.66398E-30 199 199 199 255
0.33632365 0.09011767 0.28499994 0.9914448 0.1305262 -0 199 199 199 255
0.348188 -1.4438227E-15 0.365 0.9914448 0.1305262 -0 199 199 199 255
0.348188 -1.4438227E-15 0.28499994 0.9914448 0.1305262 -0 199 199 199 255
0.33632365 0.09011767 0.365 0.9914448 0.1305262 -0 199 199 199 255
0.33632365 -0.09011767 0.28499994 0.9238795 -0.3826834 -0 199 199 199 255
0.30153963 -0.17409396 0.365 0.9238795 -0.3826834 -0 199 199 199 255
0.30153963 -0.17409396 0.28499994 0.9238795 -0.3826834 -0 199 199 199 255
0.33632365 -0.09011767 0.365 0.9238795 -0.3826834 -0 199 199 199 255
0.348188 -1.4438227E-15 0.28499994 0.9914448 -0.1305262 -0 199 199 199 255
0.33632365 -0.09011767 0.365 0.9914448 -0.1305262 -0 199 199 199 255
0.33632365 -0.09011767 0.28499994 0.9914448 -0.1305262 -0 199 199 199 255
0.348188 -1.4438227E-15 0.365 0.9914448 -0.1305262 -0 199 199 199 255
0.1791371 -0.31027445 0.37499997 0.4304593 -0.5609855 -0.7071068 86 86 86 255
0.24620605 -0.24620605 0.365 0.4304593 -0.5609855 -0.7071068 86 86 86 255
0.2533381 -0.2533381 0.37499997 0.4304593 -0.5609855 -0.7071068 86 86 86 255
0.17409396 -0.30153963 0.365 0.4304593 -0.5609855 -0.7071068 86 86 86 255
0.09272818 -0.34606636 0.37499997 0.27059808 -0.65328145 -0.70710677 86 86 86 255
0.17409396 -0.30153963 0.365 0.27059808 -0.65328145 -0.70710677 86 86 86 255
0.1791371 -0.31027445 0.37499997 0.27059808 -0.65328145 -0.70710677 86 86 86 255
0.09011767 -0.33632365 0.365 0.27059808 -0.65328145 -0.70710677 86 86 86 255
0.2533381 -0.2533381 0.37499997 0.5609855 -0.4304593 -0.7071068 86 86 86 255
0.30153963 -0.17409396 0.365 0.5609855 -0.4304593 -0.7071068 86 86 86 255
0.31027445 -0.1791371 0.37499997 0.5609855 -0.4304593 -0.7071068 86 86 86 255
0.24620605 -0.24620605 0.365 0.5609855 -0.4304593 -0.7071068 86 86 86 255
-0 -0.3582741 0.37499997 0.09229596 -0.7010574 -0.7071068 86 86 86 255
0.09011767 -0.33632365 0.365 0.09229596 -0.7010574 -0.7071068 86 86 86 255
0.09272818 -0.34606636 0.37499997 0.09229596 -0.7010574 -0.7071068 86 86 86 255
-0 -0.348188 0.365 0.09229596 -0.7010574 -0.7071068 86 86 86 255
0.31027445 -0.1791371 0.37499997 0.65328145 -0.27059808 -0.70710677 86 86 86 255
0.33632365 -0.09011767 0.365 0.65328145 -0.27059808 -0.70710677 86 86 86 255
0.34606636 -0.09272818 0.37499997 0.65328145 -0.27059808 -0.70710677 86 86 86 255
0.30153963 -0.17409396 0.365 0.65328145 -0.27059808 -0.70710677 86 86 86 255
-0.09272818 -0.34606636 0.37499997 -0.09229596 -0.7010574 -0.7071068 86 86 86 255
-0 -0.348188 0.365 -0.09229596 -0.7010574 -0.7071068 86 86 86 255
-0 -0.3582741 0.37499997 -0.09229596 -0.7010574 -0.7071068 86 86 86 255
-0.09011767 -0.33632365 0.365 -0.09229596 -0.7010574 -0.7071068 86 86 86 255
0.34606636 -0.09272818 0.37499997 0.7010574 -0.09229596 -0.7071068 86 86 86 255
0.348188 -1.4438227E-15 0.365 0.7010574 -0.09229596 -0.7071068 86 86 86 255
0.3582741 -1.0828669E-15 0.37499997 0.7010574 -0.09229596 -0.7071068 86 86 86 255
0.33632365 -0.09011767 0.365 0.7010574 -0.09229596 -0.7071068 86 86 86 255
-0.09272818 -0.34606636 0.37499997 -0.27059808 -0.65328145 -0.70710677 86 86 86 255
-0.17409396 -0.30153963 0.365 -0.27059808 -0.65328145 -0.70710677 86 86 86 255
-0.09011767 -0.33632365 0.365 -0.27059808 -0.65328145 -0.70710677 86 86 86 255
-0.1791371 -0.31027445 0.37499997 -0.27059808 -0.65328145 -0.70710677 86 86 86 255
0.348188 -1.4438227E-15 0.365 0.7010574 0.09229596 -0.7071068 86 86 86 255
0.34606636 0.09272818 0.37499997 0.7010574 0.09229596 -0.7071068 86 86 86 255
0.3582741 -1.0828669E-15 0.37499997 0.7010574 0.09229596 -0.7071068 86 86 86 255
0.33632365 0.09011767 0.365 0.7010574 0.09229596 -0.7071068 86 86 86 255
-0.1791371 -0.31027445 0.37499997 -0.4304593 -0.5609855 -0.7071068 86 86 86 255
-0.24620605 -0.24620605 0.365 -0.4304593 -0.5609855 -0.7071068 86 86 86 255
-0.17409396 -0.30153963 0.365 -0.4304593 -0.5609855 -0.7071068 86 86 86 255
-0.2533381 -0.2533381 0.37499997 -0.4304593 -0.5609855 -0.7071068 86 86 86 255
0.33632365 0.09011767 0.365 0.65328145 0.27059808 -0.70710677 86 86 86 255
0.31027445 0.1791371 0.37499997 0.65328145 0.27059808 -0.70710677 86 86 86 255
0.34606636 0.09272818 0.37499997 0.65328145 0.27059808 -0.70710677 86 86 86 255
0.30153963 0.17409396 0.365 0.65328145 0.27059808 -0.70710677 86 86 86 255
-0.2533381 -0.2533381 0.37499997 -0.5609855 -0.4304593 -0.7071068 86 86 86 255
-0.30153963 -0.17409396 0.365 -0.5609855 -0.4304593 -0.7071068 86 86 86 255
-0.24620605 -0.24620605 0.365 -0.5609855 -0.4304593 -0.7071068 86 86 86 255
-0.31027445 -0.1791371 0.37499997 -0.5609855 -0.4304593 -0.7071068 86 86 86 255
0.30153963 0.17409396 0.365 0.5609855 0.4304593 -0.7071068 86 86 86 255
0.2533381 0.2533381 0.37499997 0.5609855 0.4304593 -0.7071068 86 86 86 255
0.31027445 0.1791371 0.37499997 0.5609855 0.4304593 -0.7071068 86 86 86 255
0.24620605 0.24620605 0.365 0.5609855 0.4304593 -0.7071068 86 86 86 255
-0.31027445 -0.1791371 0.37499997 -0.65328145 -0.27059808 -0.70710677 86 86 86 255
-0.33632365 -0.09011767 0.365 -0.65328145 -0.27059808 -0.70710677 86 86 86 255
-0.30153963 -0.17409396 0.365 -0.65328145 -0.27059808 -0.70710677 86 86 86 255
-0.34606636 -0.09272818 0.37499997 -0.65328145 -0.27059808 -0.70710677 86 86 86 255
0.24620605 0.24620605 0.365 0.4304593 0.5609855 -0.7071068 86 86 86 255
0.1791371 0.31027445 0.37499997 0.4304593 0.5609855 -0.7071068 86 86 86 255
0.2533381 0.2533381 0.37499997 0.4304593 0.5609855 -0.7071068 86 86 86 255
0.17409396 0.30153963 0.365 0.4304593 0.5609855 -0.7071068 86 86 86 255
-0.34606636 -0.09272818 0.37499997 -0.7010574 -0.09229596 -0.7071068 86 86 86 255
-0.348188 0 0.365 -0.7010574 -0.09229596 -0.7071068 86 86 86 255
-0.33632365 -0.09011767 0.365 -0.7010574 -0.09229596 -0.7071068 86 86 86 255
-0.3582741 -3.6095557E-16 0.37499997 -0.7010574 -0.09229596 -0.7071068 86 86 86 255
0.17409396 0.30153963 0.365 0.27059808 0.65328145 -0.70710677 86 86 86 255
0.09272818 0.34606636 0.37499997 0.27059808 0.65328145 -0.70710677 86 86 86 255
0.1791371 0.31027445 0.37499997 0.27059808 0.65328145 -0.70710677 86 86 86 255
0.09011767 0.33632365 0.365 0.27059808 0.65328145 -0.70710677 86 86 86 255
-0.348188 0 0.365 -0.7010574 0.09229596 -0.7071068 86 86 86 255
-0.34606636 0.09272818 0.37499997 -0.7010574 0.09229596 -0.7071068 86 86 86 255
-0.33632365 0.09011767 0.365 -0.7010574 0.09229596 -0.7071068 86 86 86 255
-0.3582741 -3.6095557E-16 0.37499997 -0.7010574 0.09229596 -0.7071068 86 86 86 255
0.09011767 0.33632365 0.365 0.09229596 0.7010574 -0.7071068 86 86 86 255
-0 0.3582741 0.37499997 0.09229596 0.7010574 -0.7071068 86 86 86 255
0.09272818 0.34606636 0.37499997 0.09229596 0.7010574 -0.7071068 86 86 86 255
-0 0.348188 0.365 0.09229596 0.7010574 -0.7071068 86 86 86 255
-0.33632365 0.09011767 0.365 -0.65328145 0.27059808 -0.70710677 86 86 86 255
-0.31027445 0.1791371 0.37499997 -0.65328145 0.27059808 -0.70710677 86 86 86 255
-0.30153963 0.17409396 0.365 -0.65328145 0.27059808 -0.70710677 86 86 86 255
-0.34606636 0.09272818 0.37499997 -0.65328145 0.27059808 -0.70710677 86 86 86 255
-0.09011767 0.33632365 0.365 -0.09229596 0.7010574 -0.7071068 86 86 86 255
-0 0.3582741 0.37499997 -0.09229596 0.7010574 -0.7071068 86 86 86 255
-0 0.348188 0.365 -0.09229596 0.7010574 -0.7071068 86 86 86 255
-0.09272818 0.34606636 0.37499997 -0.09229596 0.7010574 -0.7071068 86 86 86 255
-0.30153963 0.17409396 0.365 -0.5609855 0.4304593 -0.7071068 86 86 86 255
-0.2533381 0.2533381 0.37499997 -0.5609855 0.4304593 -0.7071068 86 86 86 255
-0.24620605 0.24620605 0.365 -0.5609855 0.4304593 -0.7071068 86 86 86 255
-0.31027445 0.1791371 0.37499997 -0.5609855 0.4304593 -0.7071068 86 86 86 255
-0.17409396 0.30153963 0.365 -0.27059808 0.65328145 -0.70710677 86 86 86 255
-0.09272818 0.34606636 0.37499997 -0.27059808 0.65328145 -0.70710677 86 86 86 255
-0.09011767 0.33632365 0.365 -0.27059808 0.65328145 -0.70710677 86 86 86 255
-0.1791371 0.31027445 0.37499997 -0.27059808 0.65328145 -0.70710677 86 86 86 255
-0.24620605 0.24620605 0.365 -0.4304593 0.5609855 -0.7071068 86 86 86 255
-0.1791371 0.31027445 0.37499997 -0.4304593 0.5609855 -0.7071068 86 86 86 255
-0.17409396 0.30153963 0.365 -0.4304593 0.5609855 -0.7071068 86 86 86 255
-0.2533381 0.2533381 0.37499997 -0.4304593 0.5609855 -0.7071068 86 86 86 255
3 0 1 2
3 1 0 3
3 3 0 4
3 4 0 5
3 5 0 6
3 6 0 7
3 7 0 8
3 8 0 9
3 8 9 10
3 10 9 11
3 11 9 12
3 12 9 13
3 13 9 14
3 14 9 15
3 2 16 17
3 16 2 18
3 18 2 19
3 19 2 20
3 20 2 21
3 21 2 22
3 22 2 1
3 17 16 23
3 17 23 24
3 17 24 25
3 17 25 26
3 17 26 27
3 17 27 15
3 17 15 9
3 28 29 30
3 29 28 31
3 29 31 32
3 32 31 33
3 32 33 34
3 34 33 35
3 35 33 36
3 36 33 37
3 36 37 38
3 38 37 39
3 39 37 40
3 39 40 41
3 41 40 42
3 42 40 43
3 42 43 44
3 44 43 45
3 44 45 46
3 46 45 47
3 47 45 48
3 47 48 49
3 49 48 50
3 50 48 51
3 50 51 52
3 52 51 53
3 34 54 55
3 54 34 35
3 55 54 56
3 55 56 57
3 55 57 58
3 58 57 59
3 58 59 60
3 58 60 61
3 61 60 62
3 61 62 63
3 61 63 64
3 64 63 65
3 64 65 66
3 66 65 67
3 66 67 68
3 66 68 69
3 69 68 70
3 69 70 53
3 69 53 51
3 69 51 71
3 69 71 72
3 72 71 73
3 72 73 74
3 74 73 75
3 76 77 78
3 77 76 79
3 80 81 82
3 81 80 83
3 84 85 86
3 85 84 87
3 88 89 90
3 89 88 91
3 92 93 94
3 93 92 95
3 96 97 98
3 97 96 99
3 100 101 102
3 101 100 103
3 104 105 106
3 105 104 107
3 108 109 110
3 109 108 111
3 112 113 114
3 113 112 115
3 116 117 118
3 117 116 119
3 120 121 122
3 121 120 123
3 124 125 126
3 125 124 127
3 128 129 130
3 129 128 131
3 132 133 134
3 133 132 135
3 136 137 138
3 137 136 139
3 140 141 142
3 141 140 143
3 144 145 146
3 145 144 147
3 148 149 150
3 149 148 151
3 152 153 154
3 153 152 155
3 156 157 158
3 157 156 159
3 160 161 162
3 161 160 163
3 164 165 166
3 165 164 167
3 168 169 170
3 169 168 171
3 172 173 174
3 173 172 175
3 176 177 178
3 177 176 179
3 180 181 182
3 181 180 183
3 184 185 186
3 185 184 187
3 188 189 190
3 189 188 191
3 192 193 194
3 193 192 195
3 196 197 198
3 197 196 199
3 200 201 202
3 201 200 203
3 204 205 206
3 205 204 207
3 208 209 210
3 209 208 211
3 212 213 214
3 213 212 215
3 216 217 218
3 217 216 219
3 220 221 222
3 221 220 223
3 224 225 226
3 225 224 227
3 228 229 230
3 229 228 231
3 232 233 234
3 233 232 235
3 236 237 238
3 237 236 239
3 240 241 242
3 241 240 243
3 244 245 246
3 245 244 247
3 248 249 250
3 249 248 251
3 252 253 254
3 253 252 255
3 256 257 258
3 257 256 259
3 260 261 262
3 261 260 263
3 264 265 266
3 265 264 267
3 268 269 270
3 269 268 271
3 269 271 272
3 272 271 273
3 272 273 274
3 274 273 275
3 275 273 276
3 276 273 277
3 276 277 278
3 278 277 279
3 279 277 280
3 279 280 281
3 281 280 282
3 282 280 283
3 282 283 284
3 284 283 285
3 284 285 286
3 286 285 287
3 287 285 288
3 287 288 289
3 289 288 290
3 290 288 291
3 290 291 292
3 292 291 293
3 274 294 295
3 294 274 275
3 295 294 296
3 295 296 297
3 295 297 298
3 298 297 299
3 298 299 300
3 298 300 301
3 301 300 302
3 301 302 303
3 301 303 304
3 304 303 305
3 304 305 306
3 306 305 307
3 306 307 308
3 306 308 309
3 309 308 310
3 309 310 293
3 309 293 291
3 309 291 311
3 309 311 312
3 312 311 313
3 312 313 314
3 314 313 315
3 316 317 318
3 317 316 319
3 317 319 320
3 320 319 321
3 320 321 322
3 322 321 323
3 323 321 324
3 323 324 325
3 323 325 326
3 326 325 327
3 326 327 328
3 328 327 329
3 328 329 330
3 330 329 331
3 330 331 332
3 332 331 333
3 332 333 334
3 334 333 335
3 334 335 336
3 336 335 337
3 336 337 338
3 338 337 339
3 340 341 342
3 341 340 343
3 343 340 344
3 344 340 345
3 345 340 346
3 346 340 347
3 347 340 348
3 348 340 349
3 348 349 350
3 350 349 351
3 351 349 352
3 352 349 353
3 353 349 354
3 354 349 355
3 342 356 357
3 356 342 358
3 358 342 359
3 359 342 360
3 360 342 361
3 361 342 362
3 362 342 341
3 357 356 363
3 357 363 364
3 357 364 365
3 357 365 366
3 357 366 367
3 357 367 355
3 357 355 349
3 368 369 370
3 369 368 371
3 369 371 372
3 372 371 373
3 372 373 374
3 374 373 375
3 374 375 376
3 376 375 377
3 376 377 378
3 378 377 379
3 379 377 380
3 379 380 381
3 379 381 382
3 382 381 383
3 383 381 384
3 383 384 385
3 383 385 386
3 386 385 387
3 387 385 388
3 387 388 389
3 387 389 390
3 390 389 391
3 392 393 394
3 393 392 395
3 396 397 398
3 397 396 399
3 400 401 402
3 401 400 403
3 404 405 406
3 405 404 407
3 408 409 410
3 409 408 411
3 412 413 414
3 413 412 415
3 416 417 418
3 417 416 419
3 420 421 422
3 421 420 423
3 424 425 426
3 425 424 427
3 428 429 430
3 429 428 431
3 432 433 434
3 433 432 435
3 436 437 438
3 437 436 439
3 440 441 442
3 441 440 443
3 444 445 446
3 445 444 447
3 448 449 450
3 449 448 451
3 452 453 454
3 453 452 455
3 456 457 458
3 457 456 459
3 460 461 462
3 461 460 463
3 464 465 466
3 465 464 467
3 468 469 470
3 469 468 471
3 472 473 474
3 473 472 475
3 476 477 478
3 477 476 479
3 480 481 482
3 481 480 483
3 484 485 486
3 485 484 487
3 488 489 490
3 489 488 491
3 492 493 494
3 493 492 495
3 496 497 498
3 497 496 499
3 500 501 502
3 501 500 503
3 504 505 506
3 505 504 507
3 508 509 510
3 509 508 511
3 512 513 514
3 513 512 515
3 516 517 518
3 517 516 519
3 520 521 522
3 521 520 523
3 524 525 526
3 525 524 527
3 528 529 530
3 529 528 531
3 532 533 534
3 533 532 535
3 536 537 538
3 537 536 539
3 540 541 542
3 541 540 543
3 544 545 546
3 545 544 547
3 548 549 550
3 549 548 551
3 552 553 554
3 553 552 555
3 556 557 558
3 557 556 559
3 560 561 562
3 561 560 563
3 564 565 566
3 565 564 567
3 568 569 570
3 569 568 571
3 572 573 574
3 573 572 575
3 576 577 578
3 577 576 579
3 580 581 582
3 581 580 583

