ply
format ascii 1.0
commentY29udmVydGVyIGJ5IENvZGVMZW9wYXJk
comment Original mesh name: 'C:\Program Files (x86)\Steam\steamapps\common\Stormworks\rom\meshes\component_gun_m_muzzle_additive_c.mesh'
comment SubMesh index: 0
comment SubMesh name: 'ID2'
comment Shader: Emissive (2)
element vertex 464
property float x
property float y
property float z
property float nx
property float ny
property float nz
property uchar red
property uchar green
property uchar blue
property uchar alpha
element face 268
property list uchar ushort vertex_index
end_header
-0.11451211 0.047432438 0.17525458 0.1641056 -3.28182E-14 0.98644274 255 255 0 255
-0.03707808 -0.015358252 0.16237259 0.1641056 -3.28182E-14 0.98644274 255 255 0 255
-0.03707808 0.015358212 0.16237259 0.1641056 -3.28182E-14 0.98644274 255 255 0 255
-0.11451211 -0.047432464 0.17525458 0.1641056 -3.28182E-14 0.98644274 255 255 0 255
-0.11451211 -0.047432464 0.17525458 0.3826833 -0.9238796 -4.274446E-08 255 255 0 255
-0.09048793 -0.03748133 0.11798491 0.3826833 -0.9238796 -4.274446E-08 255 255 0 255
-0.03707808 -0.015358252 0.16237259 0.3826833 -0.9238796 -4.274446E-08 255 255 0 255
-0.03707808 0.015358212 0.26121995 -1 -0 -1.752793E-13 255 255 0 255
-0.03707808 -0.015358252 0.16237259 -1 -0 -1.752793E-13 255 255 0 255
-0.03707808 -0.015358252 0.26121995 -1 -0 -1.752793E-13 255 255 0 255
-0.03707808 0.015358212 0.16237259 -1 -0 -1.752793E-13 255 255 0 255
-0.11451211 0.047432438 0.17525458 0.3826833 0.9238796 -4.274446E-08 255 255 0 255
-0.03707808 0.015358212 0.16237259 0.3826833 0.9238796 -4.274446E-08 255 255 0 255
-0.09048793 0.037481304 0.11798491 0.3826833 0.9238796 -4.274446E-08 255 255 0 255
-0.11451211 -0.047432464 0.17525458 0.9221492 -3.0312992E-14 0.3868343 255 255 0 255
-0.12500001 0.051776674 0.20025605 0.9221492 -3.0312992E-14 0.3868343 255 255 0 255
-0.12500001 -0.051776703 0.20025605 0.9221492 -3.0312992E-14 0.3868343 255 255 0 255
-0.11451211 0.047432438 0.17525458 0.9221492 -3.0312992E-14 0.3868343 255 255 0 255
-0.03707808 -0.015358252 0.13086691 0.3826833 -0.9238796 1.4022419E-13 255 255 0 255
-0.03313709 -0.08000001 0.092983454 0.65205795 0.65205795 0.38683426 255 255 0 255
-0.12500001 -0.051776703 0.20025605 0.65205795 0.65205795 0.38683426 255 255 0 255
-0.051776703 -0.12500001 0.20025605 0.65205795 0.65205795 0.38683426 255 255 0 255
-0.08000001 -0.03313709 0.092983454 0.65205795 0.65205795 0.38683426 255 255 0 255
-0.11451211 -0.047432464 0.17525458 0.65205795 0.65205795 0.38683426 255 255 0 255
-0.09048793 -0.03748133 0.11798491 0.65205795 0.65205795 0.38683426 255 255 0 255
-0.015358252 0.037078027 0.37499997 -0.70710677 0.70710677 2.7522867E-14 255 255 0 255
-0.03707808 0.015358212 0.3003316 -0.70710677 0.70710677 2.7522867E-14 255 255 0 255
-0.03707808 0.015358212 0.37499997 -0.70710677 0.70710677 2.7522867E-14 255 255 0 255
-0.03707808 0.015358212 0.26121995 -0.70710677 0.70710677 2.7522867E-14 255 255 0 255
-0.03707808 0.015358212 0.16237259 -0.70710677 0.70710677 2.7522867E-14 255 255 0 255
-0.03707808 0.015358212 0.13086691 -0.70710677 0.70710677 2.7522867E-14 255 255 0 255
-0.015358252 0.037078027 0.08621747 -0.70710677 0.70710677 2.7522867E-14 255 255 0 255
-0.03707808 0.015358212 0.08621747 -0.70710677 0.70710677 2.7522867E-14 255 255 0 255
-0.03707808 -0.015358252 0.37499997 -0.70710677 -0.70710677 2.6732346E-14 255 255 0 255
-0.015358252 -0.03707808 0.08621747 -0.70710677 -0.70710677 2.6732346E-14 255 255 0 255
-0.015358252 -0.03707808 0.37499997 -0.70710677 -0.70710677 2.6732346E-14 255 255 0 255
-0.03707808 -0.015358252 0.08621747 -0.70710677 -0.70710677 2.6732346E-14 255 255 0 255
-0.03707808 -0.015358252 0.3003316 -0.70710677 -0.70710677 2.6732346E-14 255 255 0 255
-0.03707808 -0.015358252 0.13086691 -0.70710677 -0.70710677 2.6732346E-14 255 255 0 255
-0.03707808 -0.015358252 0.26121995 -0.70710677 -0.70710677 2.6732346E-14 255 255 0 255
-0.03707808 -0.015358252 0.16237259 -0.70710677 -0.70710677 2.6732346E-14 255 255 0 255
-0.12500001 -0.051776703 0.2290148 0.3439435 -1.760694E-14 -0.9389903 255 255 0 255
-0.03707808 0.015358212 0.26121995 0.3439435 -1.760694E-14 -0.9389903 255 255 0 255
-0.03707808 -0.015358252 0.26121995 0.3439435 -1.760694E-14 -0.9389903 255 255 0 255
-0.12500001 0.051776674 0.2290148 0.3439435 -1.760694E-14 -0.9389903 255 255 0 255
-0.03707808 0.015358212 0.13086691 0.3826833 0.9238796 1.4049559E-13 255 255 0 255
-0.03313709 0.07999998 0.092983454 0.65205795 -0.65205795 0.38683426 255 255 0 255
-0.09048793 0.037481304 0.11798491 0.65205795 -0.65205795 0.38683426 255 255 0 255
-0.08000001 0.03313707 0.092983454 0.65205795 -0.65205795 0.38683426 255 255 0 255
-0.11451211 0.047432438 0.17525458 0.65205795 -0.65205795 0.38683426 255 255 0 255
-0.12500001 0.051776674 0.20025605 0.65205795 -0.65205795 0.38683426 255 255 0 255
-0.051776703 0.12499997 0.20025605 0.65205795 -0.65205795 0.38683426 255 255 0 255
-0.12500001 0.051776674 0.20025605 1 -2.788558E-14 -2.711049E-12 255 255 0 255
-0.12500001 -0.051776703 0.2290148 1 -2.788558E-14 -2.711049E-12 255 255 0 255
-0.12500001 -0.051776703 0.20025605 1 -2.788558E-14 -2.711049E-12 255 255 0 255
-0.12500001 0.051776674 0.2290148 1 -2.788558E-14 -2.711049E-12 255 255 0 255
-0.09048793 -0.03748133 0.11798491 0.23446786 -8.020196E-15 -0.9721238 255 255 0 255
-0.03707808 0.015358212 0.13086691 0.23446786 -8.020196E-15 -0.9721238 255 255 0 255
-0.03707808 -0.015358252 0.13086691 0.23446786 -8.020196E-15 -0.9721238 255 255 0 255
-0.09048793 0.037481304 0.11798491 0.23446786 -8.020196E-15 -0.9721238 255 255 0 255
-0.12500001 -0.051776703 0.20025605 0.70710677 0.70710677 -1.1272679E-13 255 255 0 255
-0.051776703 -0.12500001 0.35500005 0.70710677 0.70710677 -1.1272679E-13 255 255 0 255
-0.051776703 -0.12500001 0.20025605 0.70710677 0.70710677 -1.1272679E-13 255 255 0 255
-0.12500001 -0.051776703 0.35500005 0.70710677 0.70710677 -1.1272679E-13 255 255 0 255
-0.12500001 -0.051776703 0.2290148 0.70710677 0.70710677 -1.1272679E-13 255 255 0 255
-0.12500001 -0.051776703 0.3325368 0.70710677 0.70710677 -1.1272679E-13 255 255 0 255
-0.051776703 -0.12500001 0.20025605 0 0.9221492 0.3868343 255 255 0 255
0.03313707 -0.08000001 0.092983454 0 0.9221492 0.3868343 255 255 0 255
-0.03313709 -0.08000001 0.092983454 0 0.9221492 0.3868343 255 255 0 255
0.051776674 -0.12500001 0.20025605 0 0.9221492 0.3868343 255 255 0 255
-0.08000001 -0.03313709 0.027708022 0.70710677 0.70710677 -8.6487435E-29 255 255 0 255
-0.03313709 -0.08000001 0.092983454 0.70710677 0.70710677 -8.6487435E-29 255 255 0 255
-0.03313709 -0.08000001 0.027708022 0.70710677 0.70710677 -8.6487435E-29 255 255 0 255
-0.08000001 -0.03313709 0.092983454 0.70710677 0.70710677 -8.6487435E-29 255 255 0 255
-0.08000001 -0.03313709 0.092983454 0.9221492 2.089687E-15 0.3868343 255 255 0 255
-0.09048793 0.037481304 0.11798491 0.9221492 2.089687E-15 0.3868343 255 255 0 255
-0.09048793 -0.03748133 0.11798491 0.9221492 2.089687E-15 0.3868343 255 255 0 255
-0.08000001 0.03313707 0.092983454 0.9221492 2.089687E-15 0.3868343 255 255 0 255
-0.015358252 0.037078027 0.37499997 0 1 -0 255 255 0 255
0.015358212 0.037078027 0.08621747 0 1 -0 255 255 0 255
-0.015358252 0.037078027 0.08621747 0 1 -0 255 255 0 255
0.015358212 0.037078027 0.37499997 0 1 -0 255 255 0 255
0.015358212 -0.03707808 0.08621747 0 -0 -1 255 255 0 255
0.037078027 0.015358212 0.08621747 0 -0 -1 255 255 0 255
0.037078027 -0.015358252 0.08621747 0 -0 -1 255 255 0 255
0.015358212 0.037078027 0.08621747 0 -0 -1 255 255 0 255
-0.015358252 -0.03707808 0.08621747 0 -0 -1 255 255 0 255
-0.015358252 0.037078027 0.08621747 0 -0 -1 255 255 0 255
-0.03707808 -0.015358252 0.08621747 0 -0 -1 255 255 0 255
-0.03707808 0.015358212 0.08621747 0 -0 -1 255 255 0 255
-0.03707808 -0.015358252 0.13086691 -1 -2.3008799E-29 2.3429698E-12 255 255 0 255
-0.03707808 0.015358212 0.08621747 -1 -2.3008799E-29 2.3429698E-12 255 255 0 255
-0.03707808 -0.015358252 0.08621747 -1 -2.3008799E-29 2.3429698E-12 255 255 0 255
-0.03707808 0.015358212 0.13086691 -1 -2.3008799E-29 2.3429698E-12 255 255 0 255
-0.12500001 0.051776674 0.3325368 0.38268337 0.9238795 -2.3394266E-17 255 255 0 255
-0.03707808 0.015358212 0.26121995 0.38268337 0.9238795 -2.3394266E-17 255 255 0 255
-0.12500001 0.051776674 0.2290148 0.38268337 0.9238795 -2.3394266E-17 255 255 0 255
-0.03707808 0.015358212 0.3003316 0.38268337 0.9238795 -2.3394266E-17 255 255 0 255
-0.03707808 0.015358212 0.37499997 -1 -0 -0 255 255 0 255
-0.03707808 -0.015358252 0.3003316 -1 -0 -0 255 255 0 255
-0.03707808 -0.015358252 0.37499997 -1 -0 -0 255 255 0 255
-0.03707808 0.015358212 0.3003316 -1 -0 -0 255 255 0 255
-0.03707808 -0.015358252 0.26121995 0.38268337 -0.9238795 -1.9685846E-17 255 255 0 255
-0.12500001 -0.051776703 0.3325368 0.38268337 -0.9238795 -1.9685846E-17 255 255 0 255
-0.12500001 -0.051776703 0.2290148 0.38268337 -0.9238795 -1.9685846E-17 255 255 0 255
-0.03707808 -0.015358252 0.3003316 0.38268337 -0.9238795 -1.9685846E-17 255 255 0 255
0.015358212 -0.03707808 0.37499997 0 -1 -0 255 255 0 255
-0.015358252 -0.03707808 0.08621747 0 -1 -0 255 255 0 255
0.015358212 -0.03707808 0.08621747 0 -1 -0 255 255 0 255
-0.015358252 -0.03707808 0.37499997 0 -1 -0 255 255 0 255
-0.051776703 0.12499997 0.20025605 0.70710677 -0.70710677 -1.12497285E-13 255 255 0 255
-0.12500001 0.051776674 0.2290148 0.70710677 -0.70710677 -1.12497285E-13 255 255 0 255
-0.12500001 0.051776674 0.20025605 0.70710677 -0.70710677 -1.12497285E-13 255 255 0 255
-0.12500001 0.051776674 0.3325368 0.70710677 -0.70710677 -1.12497285E-13 255 255 0 255
-0.051776703 0.12499997 0.35500005 0.70710677 -0.70710677 -1.12497285E-13 255 255 0 255
-0.12500001 0.051776674 0.35500005 0.70710677 -0.70710677 -1.12497285E-13 255 255 0 255
-0.03313709 0.07999998 0.027708022 0.70710677 -0.70710677 -8.6487435E-29 255 255 0 255
-0.08000001 0.03313707 0.092983454 0.70710677 -0.70710677 -8.6487435E-29 255 255 0 255
-0.08000001 0.03313707 0.027708022 0.70710677 -0.70710677 -8.6487435E-29 255 255 0 255
-0.03313709 0.07999998 0.092983454 0.70710677 -0.70710677 -8.6487435E-29 255 255 0 255
0.051776674 0.12499997 0.20025605 0 -0.9221492 0.3868343 255 255 0 255
-0.03313709 0.07999998 0.092983454 0 -0.9221492 0.3868343 255 255 0 255
0.03313707 0.07999998 0.092983454 0 -0.9221492 0.3868343 255 255 0 255
-0.051776703 0.12499997 0.20025605 0 -0.9221492 0.3868343 255 255 0 255
-0.12500001 -0.051776703 0.3325368 1 -2.788558E-14 2.185346E-12 255 255 0 255
-0.12500001 0.051776674 0.35500005 1 -2.788558E-14 2.185346E-12 255 255 0 255
-0.12500001 -0.051776703 0.35500005 1 -2.788558E-14 2.185346E-12 255 255 0 255
-0.12500001 0.051776674 0.3325368 1 -2.788558E-14 2.185346E-12 255 255 0 255
-0.051776703 -0.12500001 0.35500005 0.49999994 0.49999994 -0.70710677 255 255 0 255
-0.115000024 -0.04763457 0.365 0.49999994 0.49999994 -0.70710677 255 255 0 255
-0.04763457 -0.115000024 0.365 0.49999994 0.49999994 -0.70710677 255 255 0 255
-0.12500001 -0.051776703 0.35500005 0.49999994 0.49999994 -0.70710677 255 255 0 255
-0.051776703 -0.12500001 0.35500005 0 1 -0 255 255 0 255
0.051776674 -0.12500001 0.20025605 0 1 -0 255 255 0 255
-0.051776703 -0.12500001 0.20025605 0 1 -0 255 255 0 255
0.051776674 -0.12500001 0.35500005 0 1 -0 255 255 0 255
0.12499997 -0.051776703 0.20025605 -0.65205795 0.65205795 0.38683426 255 255 0 255
0.03313707 -0.08000001 0.092983454 -0.65205795 0.65205795 0.38683426 255 255 0 255
0.051776674 -0.12500001 0.20025605 -0.65205795 0.65205795 0.38683426 255 255 0 255
0.114512056 -0.047432464 0.17525458 -0.65205795 0.65205795 0.38683426 255 255 0 255
0.0904879 -0.03748133 0.11798491 -0.65205795 0.65205795 0.38683426 255 255 0 255
0.07999998 -0.03313709 0.092983454 -0.65205795 0.65205795 0.38683426 255 255 0 255
-0.03313709 -0.08000001 0.092983454 0 1 -0 255 255 0 255
0.03313707 -0.08000001 0.027708022 0 1 -0 255 255 0 255
-0.03313709 -0.08000001 0.027708022 0 1 -0 255 255 0 255
0.03313707 -0.08000001 0.092983454 0 1 -0 255 255 0 255
-0.074999996 -0.031066028 0.022708014 0.49999908 0.49999908 0.707108 255 255 0 255
-0.03313709 -0.08000001 0.027708022 0.49999908 0.49999908 0.707108 255 255 0 255
-0.031066028 -0.074999996 0.022708014 0.49999908 0.49999908 0.707108 255 255 0 255
-0.08000001 -0.03313709 0.027708022 0.49999908 0.49999908 0.707108 255 255 0 255
-0.08000001 0.03313707 0.027708022 1 -0 -0 255 255 0 255
-0.08000001 -0.03313709 0.092983454 1 -0 -0 255 255 0 255
-0.08000001 -0.03313709 0.027708022 1 -0 -0 255 255 0 255
-0.08000001 0.03313707 0.092983454 1 -0 -0 255 255 0 255
0.015358212 0.037078027 0.37499997 0.70710677 0.70710677 -8.365124E-14 255 255 0 255
0.037078027 0.015358212 0.08621747 0.70710677 0.70710677 -8.365124E-14 255 255 0 255
0.015358212 0.037078027 0.08621747 0.70710677 0.70710677 -8.365124E-14 255 255 0 255
0.037078027 0.015358212 0.13086691 0.70710677 0.70710677 -8.365124E-14 255 255 0 255
0.037078027 0.015358212 0.16237259 0.70710677 0.70710677 -8.365124E-14 255 255 0 255
0.037078027 0.015358212 0.26121995 0.70710677 0.70710677 -8.365124E-14 255 255 0 255
0.037078027 0.015358212 0.3003316 0.70710677 0.70710677 -8.365124E-14 255 255 0 255
0.037078027 0.015358212 0.37499997 0.70710677 0.70710677 -8.365124E-14 255 255 0 255
0.037078027 0.015358212 0.08621747 1 -0 -0 255 255 0 255
0.037078027 -0.015358252 0.13086691 1 -0 -0 255 255 0 255
0.037078027 -0.015358252 0.08621747 1 -0 -0 255 255 0 255
0.037078027 0.015358212 0.13086691 1 -0 -0 255 255 0 255
0.037078027 -0.015358252 0.13086691 0.70710677 -0.70710677 -8.365374E-14 255 255 0 255
0.015358212 -0.03707808 0.08621747 0.70710677 -0.70710677 -8.365374E-14 255 255 0 255
0.037078027 -0.015358252 0.08621747 0.70710677 -0.70710677 -8.365374E-14 255 255 0 255
0.015358212 -0.03707808 0.37499997 0.70710677 -0.70710677 -8.365374E-14 255 255 0 255
0.037078027 -0.015358252 0.16237259 0.70710677 -0.70710677 -8.365374E-14 255 255 0 255
0.037078027 -0.015358252 0.26121995 0.70710677 -0.70710677 -8.365374E-14 255 255 0 255
0.037078027 -0.015358252 0.3003316 0.70710677 -0.70710677 -8.365374E-14 255 255 0 255
0.037078027 -0.015358252 0.37499997 0.70710677 -0.70710677 -8.365374E-14 255 255 0 255
-0.12500001 0.051776674 0.3325368 0.3439435 -1.766378E-14 0.9389903 255 255 0 255
-0.03707808 -0.015358252 0.3003316 0.3439435 -1.766378E-14 0.9389903 255 255 0 255
-0.03707808 0.015358212 0.3003316 0.3439435 -1.766378E-14 0.9389903 255 255 0 255
-0.12500001 -0.051776703 0.3325368 0.3439435 -1.766378E-14 0.9389903 255 255 0 255
0.051776674 0.12499997 0.35500005 0 -1 -0 255 255 0 255
-0.051776703 0.12499997 0.20025605 0 -1 -0 255 255 0 255
0.051776674 0.12499997 0.20025605 0 -1 -0 255 255 0 255
-0.051776703 0.12499997 0.35500005 0 -1 -0 255 255 0 255
-0.115000024 0.047634523 0.365 0.49999994 -0.49999994 -0.70710677 255 255 0 255
-0.051776703 0.12499997 0.35500005 0.49999994 -0.49999994 -0.70710677 255 255 0 255
-0.04763457 0.114999965 0.365 0.49999994 -0.49999994 -0.70710677 255 255 0 255
-0.12500001 0.051776674 0.35500005 0.49999994 -0.49999994 -0.70710677 255 255 0 255
-0.03313709 0.07999998 0.027708022 0.5000006 -0.5000006 0.707106 255 255 0 255
-0.074999996 0.031066028 0.022708014 0.5000006 -0.5000006 0.707106 255 255 0 255
-0.031066028 0.074999996 0.022708014 0.5000006 -0.5000006 0.707106 255 255 0 255
-0.08000001 0.03313707 0.027708022 0.5000006 -0.5000006 0.707106 255 255 0 255
0.03313707 0.07999998 0.092983454 0 -1 -0 255 255 0 255
-0.03313709 0.07999998 0.027708022 0 -1 -0 255 255 0 255
0.03313707 0.07999998 0.027708022 0 -1 -0 255 255 0 255
-0.03313709 0.07999998 0.092983454 0 -1 -0 255 255 0 255
0.0904879 0.037481304 0.11798491 -0.65205795 -0.65205795 0.38683426 255 255 0 255
0.03313707 0.07999998 0.092983454 -0.65205795 -0.65205795 0.38683426 255 255 0 255
0.07999998 0.03313707 0.092983454 -0.65205795 -0.65205795 0.38683426 255 255 0 255
0.114512056 0.047432438 0.17525458 -0.65205795 -0.65205795 0.38683426 255 255 0 255
0.12499997 0.051776674 0.20025605 -0.65205795 -0.65205795 0.38683426 255 255 0 255
0.051776674 0.12499997 0.20025605 -0.65205795 -0.65205795 0.38683426 255 255 0 255
-0.12500001 0.051776674 0.35500005 0.70710677 -7.4448916E-29 -0.70710677 255 255 0 255
-0.115000024 -0.04763457 0.365 0.70710677 -7.4448916E-29 -0.70710677 255 255 0 255
-0.12500001 -0.051776703 0.35500005 0.70710677 -7.4448916E-29 -0.70710677 255 255 0 255
-0.115000024 0.047634523 0.365 0.70710677 -7.4448916E-29 -0.70710677 255 255 0 255
-0.04763457 -0.115000024 0.365 0.1075207 0.1075207 -0.9883717 255 255 0 255
-0.050000027 -0.02071069 0.37499997 0.1075207 0.1075207 -0.9883717 255 255 0 255
-0.02071069 -0.050000027 0.37499997 0.1075207 0.1075207 -0.9883717 255 255 0 255
-0.115000024 -0.04763457 0.365 0.1075207 0.1075207 -0.9883717 255 255 0 255
-0.051776703 -0.12500001 0.35500005 0 0.70710677 -0.70710677 255 255 0 255
0.047634523 -0.115000024 0.365 0 0.70710677 -0.70710677 255 255 0 255
0.051776674 -0.12500001 0.35500005 0 0.70710677 -0.70710677 255 255 0 255
-0.04763457 -0.115000024 0.365 0 0.70710677 -0.70710677 255 255 0 255
0.12499997 -0.051776703 0.35500005 -0.70710677 0.70710677 1.04942395E-13 255 255 0 255
0.051776674 -0.12500001 0.20025605 -0.70710677 0.70710677 1.04942395E-13 255 255 0 255
0.051776674 -0.12500001 0.35500005 -0.70710677 0.70710677 1.04942395E-13 255 255 0 255
0.12499997 -0.051776703 0.20025605 -0.70710677 0.70710677 1.04942395E-13 255 255 0 255
0.12499997 -0.051776703 0.3325368 -0.70710677 0.70710677 1.04942395E-13 255 255 0 255
0.12499997 -0.051776703 0.2290148 -0.70710677 0.70710677 1.04942395E-13 255 255 0 255
0.12499997 0.051776674 0.20025605 -0.9221492 3.031816E-14 0.3868343 255 255 0 255
0.114512056 -0.047432464 0.17525458 -0.9221492 3.031816E-14 0.3868343 255 255 0 255
0.12499997 -0.051776703 0.20025605 -0.9221492 3.031816E-14 0.3868343 255 255 0 255
0.114512056 0.047432438 0.17525458 -0.9221492 3.031816E-14 0.3868343 255 255 0 255
0.114512056 -0.047432464 0.17525458 -0.3826833 -0.9238796 -4.274446E-08 255 255 0 255
0.037078027 -0.015358252 0.16237259 -0.3826833 -0.9238796 -4.274446E-08 255 255 0 255
0.0904879 -0.03748133 0.11798491 -0.3826833 -0.9238796 -4.274446E-08 255 255 0 255
0.0904879 0.037481304 0.11798491 -0.9221492 -2.086678E-15 0.3868343 255 255 0 255
0.07999998 -0.03313709 0.092983454 -0.9221492 -2.086678E-15 0.3868343 255 255 0 255
0.0904879 -0.03748133 0.11798491 -0.9221492 -2.086678E-15 0.3868343 255 255 0 255
0.07999998 0.03313707 0.092983454 -0.9221492 -2.086678E-15 0.3868343 255 255 0 255
0.07999998 -0.03313709 0.092983454 -0.70710677 0.70710677 8.6487435E-29 255 255 0 255
0.03313707 -0.08000001 0.027708022 -0.70710677 0.70710677 8.6487435E-29 255 255 0 255
0.03313707 -0.08000001 0.092983454 -0.70710677 0.70710677 8.6487435E-29 255 255 0 255
0.07999998 -0.03313709 0.027708022 -0.70710677 0.70710677 8.6487435E-29 255 255 0 255
0.031066028 -0.074999996 0.022708014 6.385239E-20 0.7071052 0.7071083 255 255 0 255
-0.03313709 -0.08000001 0.027708022 6.385239E-20 0.7071052 0.7071083 255 255 0 255
0.03313707 -0.08000001 0.027708022 6.385239E-20 0.7071052 0.7071083 255 255 0 255
-0.031066028 -0.074999996 0.022708014 6.385239E-20 0.7071052 0.7071083 255 255 0 255
-0.031066028 -0.074999996 -0.365 0.70710677 0.70710677 2.6335258E-15 255 255 0 255
-0.074999996 -0.031066028 0.022708014 0.70710677 0.70710677 2.6335258E-15 255 255 0 255
-0.031066028 -0.074999996 0.022708014 0.70710677 0.70710677 2.6335258E-15 255 255 0 255
-0.074999996 -0.031066028 -0.365 0.70710677 0.70710677 2.6335258E-15 255 255 0 255
0.031066028 0.074999996 0.022708014 0 -0 1 255 255 0 255
0.074999996 -0.031066028 0.022708014 0 -0 1 255 255 0 255
0.074999996 0.031066028 0.022708014 0 -0 1 255 255 0 255
0.031066028 -0.074999996 0.022708014 0 -0 1 255 255 0 255
-0.031066028 0.074999996 0.022708014 0 -0 1 255 255 0 255
-0.031066028 -0.074999996 0.022708014 0 -0 1 255 255 0 255
-0.074999996 0.031066028 0.022708014 0 -0 1 255 255 0 255
-0.074999996 -0.031066028 0.022708014 0 -0 1 255 255 0 255
-0.08000001 0.03313707 0.027708022 0.7071052 -1.4637931E-18 0.7071083 255 255 0 255
-0.074999996 -0.031066028 0.022708014 0.7071052 -1.4637931E-18 0.7071083 255 255 0 255
-0.074999996 0.031066028 0.022708014 0.7071052 -1.4637931E-18 0.7071083 255 255 0 255
-0.08000001 -0.03313709 0.027708022 0.7071052 -1.4637931E-18 0.7071083 255 255 0 255
0.037078027 0.015358212 0.3003316 1 -0 -0 255 255 0 255
0.037078027 -0.015358252 0.37499997 1 -0 -0 255 255 0 255
0.037078027 -0.015358252 0.3003316 1 -0 -0 255 255 0 255
0.037078027 0.015358212 0.37499997 1 -0 -0 255 255 0 255
0.037078027 0.015358212 0.26121995 -0.38268337 0.9238795 -1.9685846E-17 255 255 0 255
0.12499997 0.051776674 0.3325368 -0.38268337 0.9238795 -1.9685846E-17 255 255 0 255
0.12499997 0.051776674 0.2290148 -0.38268337 0.9238795 -1.9685846E-17 255 255 0 255
0.037078027 0.015358212 0.3003316 -0.38268337 0.9238795 -1.9685846E-17 255 255 0 255
0.037078027 0.015358212 0.16237259 1 -0 -1.752793E-13 255 255 0 255
0.037078027 -0.015358252 0.26121995 1 -0 -1.752793E-13 255 255 0 255
0.037078027 -0.015358252 0.16237259 1 -0 -1.752793E-13 255 255 0 255
0.037078027 0.015358212 0.26121995 1 -0 -1.752793E-13 255 255 0 255
0.037078027 0.015358212 0.16237259 -0.3826833 0.9238796 1.403147E-13 255 255 0 255
0.0904879 0.037481304 0.11798491 -0.3826833 0.9238796 1.403147E-13 255 255 0 255
0.037078027 0.015358212 0.13086691 -0.3826833 0.9238796 1.403147E-13 255 255 0 255
0.037078027 -0.015358252 0.13086691 -0.23446786 8.014892E-15 -0.9721238 255 255 0 255
0.0904879 0.037481304 0.11798491 -0.23446786 8.014892E-15 -0.9721238 255 255 0 255
0.0904879 -0.03748133 0.11798491 -0.23446786 8.014892E-15 -0.9721238 255 255 0 255
0.037078027 0.015358212 0.13086691 -0.23446786 8.014892E-15 -0.9721238 255 255 0 255
0.037078027 -0.015358252 0.13086691 -0.3826833 -0.9238796 1.401337E-13 255 255 0 255
0.12499997 -0.051776703 0.3325368 -0.38268337 -0.9238795 -1.780033E-18 255 255 0 255
0.037078027 -0.015358252 0.26121995 -0.38268337 -0.9238795 -1.780033E-18 255 255 0 255
0.12499997 -0.051776703 0.2290148 -0.38268337 -0.9238795 -1.780033E-18 255 255 0 255
0.037078027 -0.015358252 0.3003316 -0.38268337 -0.9238795 -1.780033E-18 255 255 0 255
0.051776674 0.12499997 0.35500005 -0.70710677 -0.70710677 1.0538139E-13 255 255 0 255
0.12499997 0.051776674 0.3325368 -0.70710677 -0.70710677 1.0538139E-13 255 255 0 255
0.12499997 0.051776674 0.35500005 -0.70710677 -0.70710677 1.0538139E-13 255 255 0 255
0.12499997 0.051776674 0.2290148 -0.70710677 -0.70710677 1.0538139E-13 255 255 0 255
0.12499997 0.051776674 0.20025605 -0.70710677 -0.70710677 1.0538139E-13 255 255 0 255
0.051776674 0.12499997 0.20025605 -0.70710677 -0.70710677 1.0538139E-13 255 255 0 255
0.047634523 0.114999965 0.365 0 -0.70710677 -0.70710677 255 255 0 255
-0.051776703 0.12499997 0.35500005 0 -0.70710677 -0.70710677 255 255 0 255
0.051776674 0.12499997 0.35500005 0 -0.70710677 -0.70710677 255 255 0 255
-0.04763457 0.114999965 0.365 0 -0.70710677 -0.70710677 255 255 0 255
-0.050000027 0.020710649 0.37499997 0.1075207 -0.1075207 -0.9883717 255 255 0 255
-0.04763457 0.114999965 0.365 0.1075207 -0.1075207 -0.9883717 255 255 0 255
-0.02071069 0.049999975 0.37499997 0.1075207 -0.1075207 -0.9883717 255 255 0 255
-0.115000024 0.047634523 0.365 0.1075207 -0.1075207 -0.9883717 255 255 0 255
-0.031066028 0.074999996 -0.365 0.70710677 -0.70710677 -2.6335258E-15 255 255 0 255
-0.074999996 0.031066028 0.022708014 0.70710677 -0.70710677 -2.6335258E-15 255 255 0 255
-0.074999996 0.031066028 -0.365 0.70710677 -0.70710677 -2.6335258E-15 255 255 0 255
-0.031066028 0.074999996 0.022708014 0.70710677 -0.70710677 -2.6335258E-15 255 255 0 255
0.03313707 0.07999998 0.027708022 6.216811E-19 -0.7071081 0.7071054 255 255 0 255
-0.031066028 0.074999996 0.022708014 6.216811E-19 -0.7071081 0.7071054 255 255 0 255
0.031066028 0.074999996 0.022708014 6.216811E-19 -0.7071081 0.7071054 255 255 0 255
-0.03313709 0.07999998 0.027708022 6.216811E-19 -0.7071081 0.7071054 255 255 0 255
0.03313707 0.07999998 0.092983454 -0.70710677 -0.70710677 8.6487435E-29 255 255 0 255
0.07999998 0.03313707 0.027708022 -0.70710677 -0.70710677 8.6487435E-29 255 255 0 255
0.07999998 0.03313707 0.092983454 -0.70710677 -0.70710677 8.6487435E-29 255 255 0 255
0.03313707 0.07999998 0.027708022 -0.70710677 -0.70710677 8.6487435E-29 255 255 0 255
0.114512056 0.047432438 0.17525458 -0.3826833 0.9238796 -4.274446E-08 255 255 0 255
-0.115000024 -0.04763457 0.365 0.1520572 -2.5230481E-18 -0.9883717 255 255 0 255
-0.050000027 0.020710649 0.37499997 0.1520572 -2.5230481E-18 -0.9883717 255 255 0 255
-0.050000027 -0.02071069 0.37499997 0.1520572 -2.5230481E-18 -0.9883717 255 255 0 255
-0.115000024 0.047634523 0.365 0.1520572 -2.5230481E-18 -0.9883717 255 255 0 255
0.049999975 -0.02071069 0.37499997 0 -0 -1 255 255 0 255
0.037078027 -0.015358252 0.37499997 0 -0 -1 255 255 0 255
0.049999975 0.020710649 0.37499997 0 -0 -1 255 255 0 255
0.020710649 -0.050000027 0.37499997 0 -0 -1 255 255 0 255
0.015358212 -0.03707808 0.37499997 0 -0 -1 255 255 0 255
-0.02071069 -0.050000027 0.37499997 0 -0 -1 255 255 0 255
-0.015358252 -0.03707808 0.37499997 0 -0 -1 255 255 0 255
-0.03707808 -0.015358252 0.37499997 0 -0 -1 255 255 0 255
-0.050000027 -0.02071069 0.37499997 0 -0 -1 255 255 0 255
-0.03707808 0.015358212 0.37499997 0 -0 -1 255 255 0 255
0.037078027 0.015358212 0.37499997 0 -0 -1 255 255 0 255
0.020710649 0.049999975 0.37499997 0 -0 -1 255 255 0 255
0.015358212 0.037078027 0.37499997 0 -0 -1 255 255 0 255
-0.02071069 0.049999975 0.37499997 0 -0 -1 255 255 0 255
-0.015358252 0.037078027 0.37499997 0 -0 -1 255 255 0 255
-0.050000027 0.020710649 0.37499997 0 -0 -1 255 255 0 255
-0.04763457 -0.115000024 0.365 0 0.1520572 -0.9883717 255 255 0 255
0.020710649 -0.050000027 0.37499997 0 0.1520572 -0.9883717 255 255 0 255
0.047634523 -0.115000024 0.365 0 0.1520572 -0.9883717 255 255 0 255
-0.02071069 -0.050000027 0.37499997 0 0.1520572 -0.9883717 255 255 0 255
0.051776674 -0.12500001 0.35500005 -0.49999994 0.49999994 -0.70710677 255 255 0 255
0.114999965 -0.04763457 0.365 -0.49999994 0.49999994 -0.70710677 255 255 0 255
0.12499997 -0.051776703 0.35500005 -0.49999994 0.49999994 -0.70710677 255 255 0 255
0.047634523 -0.115000024 0.365 -0.49999994 0.49999994 -0.70710677 255 255 0 255
0.12499997 0.051776674 0.35500005 -1 2.788558E-14 2.185346E-12 255 255 0 255
0.12499997 -0.051776703 0.3325368 -1 2.788558E-14 2.185346E-12 255 255 0 255
0.12499997 -0.051776703 0.35500005 -1 2.788558E-14 2.185346E-12 255 255 0 255
0.12499997 0.051776674 0.3325368 -1 2.788558E-14 2.185346E-12 255 255 0 255
0.12499997 0.051776674 0.2290148 -1 2.788558E-14 -7.0286447E-13 255 255 0 255
0.12499997 -0.051776703 0.20025605 -1 2.788558E-14 -7.0286447E-13 255 255 0 255
0.12499997 -0.051776703 0.2290148 -1 2.788558E-14 -7.0286447E-13 255 255 0 255
0.12499997 0.051776674 0.20025605 -1 2.788558E-14 -7.0286447E-13 255 255 0 255
0.037078027 0.015358212 0.16237259 -0.1641056 3.28253E-14 0.98644274 255 255 0 255
0.114512056 -0.047432464 0.17525458 -0.1641056 3.28253E-14 0.98644274 255 255 0 255
0.114512056 0.047432438 0.17525458 -0.1641056 3.28253E-14 0.98644274 255 255 0 255
0.037078027 -0.015358252 0.16237259 -0.1641056 3.28253E-14 0.98644274 255 255 0 255
0.07999998 0.03313707 0.092983454 -1 -0 -0 255 255 0 255
0.07999998 -0.03313709 0.027708022 -1 -0 -0 255 255 0 255
0.07999998 -0.03313709 0.092983454 -1 -0 -0 255 255 0 255
0.07999998 0.03313707 0.027708022 -1 -0 -0 255 255 0 255
0.074999996 -0.031066028 0.022708014 -0.5000006 0.5000006 0.707106 255 255 0 255
0.03313707 -0.08000001 0.027708022 -0.5000006 0.5000006 0.707106 255 255 0 255
0.07999998 -0.03313709 0.027708022 -0.5000006 0.5000006 0.707106 255 255 0 255
0.031066028 -0.074999996 0.022708014 -0.5000006 0.5000006 0.707106 255 255 0 255
-0.031066028 -0.074999996 0.022708014 0 1 7.44799E-15 255 255 0 255
0.031066028 -0.074999996 -0.365 0 1 7.44799E-15 255 255 0 255
-0.031066028 -0.074999996 -0.365 0 1 7.44799E-15 255 255 0 255
0.031066028 -0.074999996 0.022708014 0 1 7.44799E-15 255 255 0 255
-0.06499999 -0.026923873 -0.37499997 0.49999902 0.49999902 0.70710814 255 255 0 255
-0.031066028 -0.074999996 -0.365 0.49999902 0.49999902 0.70710814 255 255 0 255
-0.026923873 -0.06499999 -0.37499997 0.49999902 0.49999902 0.70710814 255 255 0 255
-0.074999996 -0.031066028 -0.365 0.49999902 0.49999902 0.70710814 255 255 0 255
-0.074999996 0.031066028 -0.365 1 -0 -0 255 255 0 255
-0.074999996 -0.031066028 0.022708014 1 -0 -0 255 255 0 255
-0.074999996 -0.031066028 -0.365 1 -0 -0 255 255 0 255
-0.074999996 0.031066028 0.022708014 1 -0 -0 255 255 0 255
0.07999998 0.03313707 0.027708022 -0.7071081 6.0805897E-19 0.7071054 255 255 0 255
0.074999996 -0.031066028 0.022708014 -0.7071081 6.0805897E-19 0.7071054 255 255 0 255
0.07999998 -0.03313709 0.027708022 -0.7071081 6.0805897E-19 0.7071054 255 255 0 255
0.074999996 0.031066028 0.022708014 -0.7071081 6.0805897E-19 0.7071054 255 255 0 255
0.03313707 0.07999998 0.027708022 -0.500002 -0.500002 0.7071039 255 255 0 255
0.074999996 0.031066028 0.022708014 -0.500002 -0.500002 0.7071039 255 255 0 255
0.07999998 0.03313707 0.027708022 -0.500002 -0.500002 0.7071039 255 255 0 255
0.031066028 0.074999996 0.022708014 -0.500002 -0.500002 0.7071039 255 255 0 255
0.037078027 0.015358212 0.3003316 -0.3439435 1.766378E-14 0.9389903 255 255 0 255
0.12499997 -0.051776703 0.3325368 -0.3439435 1.766378E-14 0.9389903 255 255 0 255
0.12499997 0.051776674 0.3325368 -0.3439435 1.766378E-14 0.9389903 255 255 0 255
0.037078027 -0.015358252 0.3003316 -0.3439435 1.766378E-14 0.9389903 255 255 0 255
0.12499997 -0.051776703 0.2290148 -0.3439435 1.762999E-14 -0.9389903 255 255 0 255
0.037078027 0.015358212 0.26121995 -0.3439435 1.762999E-14 -0.9389903 255 255 0 255
0.12499997 0.051776674 0.2290148 -0.3439435 1.762999E-14 -0.9389903 255 255 0 255
0.037078027 -0.015358252 0.26121995 -0.3439435 1.762999E-14 -0.9389903 255 255 0 255
0.114999965 0.047634523 0.365 -0.49999994 -0.49999994 -0.70710677 255 255 0 255
0.051776674 0.12499997 0.35500005 -0.49999994 -0.49999994 -0.70710677 255 255 0 255
0.12499997 0.051776674 0.35500005 -0.49999994 -0.49999994 -0.70710677 255 255 0 255
0.047634523 0.114999965 0.365 -0.49999994 -0.49999994 -0.70710677 255 255 0 255
0.020710649 0.049999975 0.37499997 0 -0.1520572 -0.9883717 255 255 0 255
-0.04763457 0.114999965 0.365 0 -0.1520572 -0.9883717 255 255 0 255
0.047634523 0.114999965 0.365 0 -0.1520572 -0.9883717 255 255 0 255
-0.02071069 0.049999975 0.37499997 0 -0.1520572 -0.9883717 255 255 0 255
-0.031066028 0.074999996 -0.365 0.49999902 -0.49999902 0.70710814 255 255 0 255
-0.06499999 0.026923873 -0.37499997 0.49999902 -0.49999902 0.70710814 255 255 0 255
-0.026923873 0.06499999 -0.37499997 0.49999902 -0.49999902 0.70710814 255 255 0 255
-0.074999996 0.031066028 -0.365 0.49999902 -0.49999902 0.70710814 255 255 0 255
0.031066028 0.074999996 0.022708014 0 -1 -7.44799E-15 255 255 0 255
-0.031066028 0.074999996 -0.365 0 -1 -7.44799E-15 255 255 0 255
0.031066028 0.074999996 -0.365 0 -1 -7.44799E-15 255 255 0 255
-0.031066028 0.074999996 0.022708014 0 -1 -7.44799E-15 255 255 0 255
0.049999975 -0.02071069 0.37499997 -0.1520572 -2.5230481E-18 -0.9883717 255 255 0 255
0.114999965 0.047634523 0.365 -0.1520572 -2.5230481E-18 -0.9883717 255 255 0 255
0.114999965 -0.04763457 0.365 -0.1520572 -2.5230481E-18 -0.9883717 255 255 0 255
0.049999975 0.020710649 0.37499997 -0.1520572 -2.5230481E-18 -0.9883717 255 255 0 255
0.047634523 -0.115000024 0.365 -0.1075207 0.1075207 -0.9883717 255 255 0 255
0.049999975 -0.02071069 0.37499997 -0.1075207 0.1075207 -0.9883717 255 255 0 255
0.114999965 -0.04763457 0.365 -0.1075207 0.1075207 -0.9883717 255 255 0 255
0.020710649 -0.050000027 0.37499997 -0.1075207 0.1075207 -0.9883717 255 255 0 255
0.049999975 0.020710649 0.37499997 -0.1075207 -0.1075207 -0.9883717 255 255 0 255
0.047634523 0.114999965 0.365 -0.1075207 -0.1075207 -0.9883717 255 255 0 255
0.114999965 0.047634523 0.365 -0.1075207 -0.1075207 -0.9883717 255 255 0 255
0.020710649 0.049999975 0.37499997 -0.1075207 -0.1075207 -0.9883717 255 255 0 255
0.114999965 -0.04763457 0.365 -0.70710677 -7.4448916E-29 -0.70710677 255 255 0 255
0.12499997 0.051776674 0.35500005 -0.70710677 -7.4448916E-29 -0.70710677 255 255 0 255
0.12499997 -0.051776703 0.35500005 -0.70710677 -7.4448916E-29 -0.70710677 255 255 0 255
0.114999965 0.047634523 0.365 -0.70710677 -7.4448916E-29 -0.70710677 255 255 0 255
0.074999996 -0.031066028 0.022708014 -0.70710677 0.70710677 2.6335258E-15 255 255 0 255
0.031066028 -0.074999996 -0.365 -0.70710677 0.70710677 2.6335258E-15 255 255 0 255
0.031066028 -0.074999996 0.022708014 -0.70710677 0.70710677 2.6335258E-15 255 255 0 255
0.074999996 -0.031066028 -0.365 -0.70710677 0.70710677 2.6335258E-15 255 255 0 255
0.026923873 -0.06499999 -0.37499997 -6.099522E-14 0.7071059 0.7071077 255 255 0 255
-0.031066028 -0.074999996 -0.365 -6.099522E-14 0.7071059 0.7071077 255 255 0 255
0.031066028 -0.074999996 -0.365 -6.099522E-14 0.7071059 0.7071077 255 255 0 255
-0.026923873 -0.06499999 -0.37499997 -6.099522E-14 0.7071059 0.7071077 255 255 0 255
0.026923873 0.06499999 -0.37499997 -2.234021E-14 -3.232727E-31 1 255 255 0 255
0.06499999 -0.026923873 -0.37499997 -2.234021E-14 -3.232727E-31 1 255 255 0 255
0.06499999 0.026923873 -0.37499997 -2.234021E-14 -3.232727E-31 1 255 255 0 255
0.037078056 0.015358234 -0.37499997 -2.234021E-14 -3.232727E-31 1 255 255 0 255
0.015358234 0.037078056 -0.37499997 -2.234021E-14 -3.232727E-31 1 255 255 0 255
-0.026923873 0.06499999 -0.37499997 -2.234021E-14 -3.232727E-31 1 255 255 0 255
-0.015358234 0.037078056 -0.37499997 -2.234021E-14 -3.232727E-31 1 255 255 0 255
-0.037078056 0.015358234 -0.37499997 -2.234021E-14 -3.232727E-31 1 255 255 0 255
-0.06499999 0.026923873 -0.37499997 -2.234021E-14 -3.232727E-31 1 255 255 0 255
-0.037078056 -0.015358234 -0.37499997 -2.234021E-14 -3.232727E-31 1 255 255 0 255
0.037078056 -0.015358234 -0.37499997 -2.234021E-14 -3.232727E-31 1 255 255 0 255
0.026923873 -0.06499999 -0.37499997 -2.234021E-14 -3.232727E-31 1 255 255 0 255
0.015358234 -0.037078056 -0.37499997 -2.234021E-14 -3.232727E-31 1 255 255 0 255
-0.026923873 -0.06499999 -0.37499997 -2.234021E-14 -3.232727E-31 1 255 255 0 255
-0.015358234 -0.037078056 -0.37499997 -2.234021E-14 -3.232727E-31 1 255 255 0 255
-0.06499999 -0.026923873 -0.37499997 -2.234021E-14 -3.232727E-31 1 255 255 0 255
-0.074999996 0.031066028 -0.365 0.7071059 -0 0.7071077 255 255 0 255
-0.06499999 -0.026923873 -0.37499997 0.7071059 -0 0.7071077 255 255 0 255
-0.06499999 0.026923873 -0.37499997 0.7071059 -0 0.7071077 255 255 0 255
-0.074999996 -0.031066028 -0.365 0.7071059 -0 0.7071077 255 255 0 255
0.074999996 0.031066028 0.022708014 -1 -0 -0 255 255 0 255
0.074999996 -0.031066028 -0.365 -1 -0 -0 255 255 0 255
0.074999996 -0.031066028 0.022708014 -1 -0 -0 255 255 0 255
0.074999996 0.031066028 -0.365 -1 -0 -0 255 255 0 255
0.031066028 0.074999996 0.022708014 -0.70710677 -0.70710677 -2.6335258E-15 255 255 0 255
0.074999996 0.031066028 -0.365 -0.70710677 -0.70710677 -2.6335258E-15 255 255 0 255
0.074999996 0.031066028 0.022708014 -0.70710677 -0.70710677 -2.6335258E-15 255 255 0 255
0.031066028 0.074999996 -0.365 -0.70710677 -0.70710677 -2.6335258E-15 255 255 0 255
-0.031066028 0.074999996 -0.365 -6.099522E-14 -0.7071059 0.7071077 255 255 0 255
0.026923873 0.06499999 -0.37499997 -6.099522E-14 -0.7071059 0.7071077 255 255 0 255
0.031066028 0.074999996 -0.365 -6.099522E-14 -0.7071059 0.7071077 255 255 0 255
-0.026923873 0.06499999 -0.37499997 -6.099522E-14 -0.7071059 0.7071077 255 255 0 255
0.06499999 -0.026923873 -0.37499997 -0.49999902 0.49999902 0.70710814 255 255 0 255
0.031066028 -0.074999996 -0.365 -0.49999902 0.49999902 0.70710814 255 255 0 255
0.074999996 -0.031066028 -0.365 -0.49999902 0.49999902 0.70710814 255 255 0 255
0.026923873 -0.06499999 -0.37499997 -0.49999902 0.49999902 0.70710814 255 255 0 255
0.06499999 0.026923873 -0.37499997 -0.7071059 3.7461773E-18 0.7071077 255 255 0 255
0.074999996 -0.031066028 -0.365 -0.7071059 3.7461773E-18 0.7071077 255 255 0 255
0.074999996 0.031066028 -0.365 -0.7071059 3.7461773E-18 0.7071077 255 255 0 255
0.06499999 -0.026923873 -0.37499997 -0.7071059 3.7461773E-18 0.7071077 255 255 0 255
0.031066028 0.074999996 -0.365 -0.49999902 -0.49999902 0.70710814 255 255 0 255
0.06499999 0.026923873 -0.37499997 -0.49999902 -0.49999902 0.70710814 255 255 0 255
0.074999996 0.031066028 -0.365 -0.49999902 -0.49999902 0.70710814 255 255 0 255
0.026923873 0.06499999 -0.37499997 -0.49999902 -0.49999902 0.70710814 255 255 0 255
3 0 1 2
3 1 0 3
3 4 5 6
3 7 8 9
3 8 7 10
3 11 12 13
3 14 15 16
3 15 14 17
3 6 5 18
3 19 20 21
3 20 19 22
3 20 22 23
3 23 22 24
3 25 26 27
3 26 25 28
3 28 25 29
3 29 25 30
3 30 31 32
3 31 30 25
3 33 34 35
3 34 33 36
3 36 33 37
3 36 37 38
3 38 37 39
3 38 39 40
3 41 42 43
3 42 41 44
3 12 45 13
3 46 47 48
3 47 46 49
3 49 46 50
3 50 46 51
3 52 53 54
3 53 52 55
3 56 57 58
3 57 56 59
3 60 61 62
3 61 60 63
3 63 60 64
3 63 64 65
3 66 67 68
3 67 66 69
3 70 71 72
3 71 70 73
3 74 75 76
3 75 74 77
3 78 79 80
3 79 78 81
3 82 83 84
3 83 82 85
3 85 82 86
3 85 86 87
3 87 86 88
3 87 88 89
3 90 91 92
3 91 90 93
3 94 95 96
3 95 94 97
3 98 99 100
3 99 98 101
3 102 103 104
3 103 102 105
3 106 107 108
3 107 106 109
3 110 111 112
3 111 110 113
3 113 114 115
3 114 113 110
3 116 117 118
3 117 116 119
3 120 121 122
3 121 120 123
3 124 125 126
3 125 124 127
3 128 129 130
3 129 128 131
3 132 133 134
3 133 132 135
3 136 137 138
3 137 136 139
3 137 139 140
3 137 140 141
3 142 143 144
3 143 142 145
3 146 147 148
3 147 146 149
3 150 151 152
3 151 150 153
3 154 155 156
3 155 154 157
3 157 154 158
3 158 154 159
3 159 154 160
3 160 154 161
3 162 163 164
3 163 162 165
3 166 167 168
3 167 166 169
3 169 166 170
3 169 170 171
3 169 171 172
3 169 172 173
3 174 175 176
3 175 174 177
3 178 179 180
3 179 178 181
3 182 183 184
3 183 182 185
3 186 187 188
3 187 186 189
3 190 191 192
3 191 190 193
3 194 195 196
3 195 194 197
3 195 197 198
3 195 198 199
3 200 201 202
3 201 200 203
3 204 205 206
3 205 204 207
3 208 209 210
3 209 208 211
3 212 213 214
3 213 212 215
3 215 212 216
3 215 216 217
3 218 219 220
3 219 218 221
3 222 223 224
3 225 226 227
3 226 225 228
3 229 230 231
3 230 229 232
3 233 234 235
3 234 233 236
3 237 238 239
3 238 237 240
3 241 242 243
3 242 241 244
3 244 241 245
3 244 245 246
3 246 245 247
3 246 247 248
3 249 250 251
3 250 249 252
3 253 254 255
3 254 253 256
3 257 258 259
3 258 257 260
3 261 262 263
3 262 261 264
3 265 266 267
3 268 269 270
3 269 268 271
3 223 272 224
3 273 274 275
3 274 273 276
3 277 278 279
3 278 277 280
3 280 277 281
3 281 277 282
3 283 284 285
3 284 283 286
3 287 288 289
3 288 287 290
3 291 292 293
3 292 291 294
3 295 296 297
3 296 295 298
3 299 300 301
3 300 299 302
3 303 266 265
3 304 305 306
3 305 304 307
3 308 309 310
3 309 308 311
3 309 311 312
3 312 311 313
3 312 313 314
3 314 313 315
3 315 313 316
3 315 316 317
3 310 318 319
3 318 310 309
3 319 318 320
3 319 320 321
3 321 320 322
3 321 322 317
3 321 317 323
3 323 317 316
3 324 325 326
3 325 324 327
3 328 329 330
3 329 328 331
3 332 333 334
3 333 332 335
3 336 337 338
3 337 336 339
3 340 341 342
3 341 340 343
3 344 345 346
3 345 344 347
3 348 349 350
3 349 348 351
3 352 353 354
3 353 352 355
3 356 357 358
3 357 356 359
3 360 361 362
3 361 360 363
3 364 365 366
3 365 364 367
3 368 369 370
3 369 368 371
3 372 373 374
3 373 372 375
3 376 377 378
3 377 376 379
3 380 381 382
3 381 380 383
3 384 385 386
3 385 384 387
3 388 389 390
3 389 388 391
3 392 393 394
3 393 392 395
3 396 397 398
3 397 396 399
3 400 401 402
3 401 400 403
3 404 405 406
3 405 404 407
3 408 409 410
3 409 408 411
3 412 413 414
3 413 412 415
3 416 417 418
3 417 416 419
3 420 421 422
3 421 420 423
3 423 420 424
3 424 420 425
3 424 425 426
3 426 425 427
3 427 425 428
3 427 428 429
3 421 430 431
3 430 421 423
3 431 430 432
3 431 432 433
3 433 432 434
3 433 434 429
3 433 429 435
3 435 429 428
3 436 437 438
3 437 436 439
3 440 441 442
3 441 440 443
3 444 445 446
3 445 444 447
3 448 449 450
3 449 448 451
3 452 453 454
3 453 452 455
3 456 457 458
3 457 456 459
3 460 461 462
3 461 460 463

