ply
format ascii 1.0
commentY29udmVydGVyIGJ5IENvZGVMZW9wYXJk
comment Original mesh name: 'C:\Program Files (x86)\Steam\steamapps\common\Stormworks\rom\meshes\component_train_main_piston_dynamic_l.mesh'
comment SubMesh index: 0
comment SubMesh name: 'ID2'
comment Shader: Opaque (0)
element vertex 496
property float x
property float y
property float z
property float nx
property float ny
property float nz
property uchar red
property uchar green
property uchar blue
property uchar alpha
element face 306
property list uchar ushort vertex_index
end_header
1.4 0.020585353 0.3229188 0 1 -0 84 84 84 255
1.525 0.020585353 0.17708124 0 1 -0 84 84 84 255
1.4 0.020585353 0.17708124 0 1 -0 84 84 84 255
1.525 0.020585353 0.3229188 0 1 -0 84 84 84 255
1.4 0.020585353 0.3229188 -1 -0 -0 84 84 84 255
1.4 -0.021252127 0.17708124 -1 -0 -0 84 84 84 255
1.4 -0.021252127 0.3229188 -1 -0 -0 84 84 84 255
1.4 0.020585353 0.17708124 -1 -0 -0 84 84 84 255
1.375 -0.0729188 0.3229188 0 -0 -1 84 84 84 255
1.525 -0.021252127 0.3229188 0 -0 -1 84 84 84 255
1.525 -0.0729188 0.3229188 0 -0 -1 84 84 84 255
1.4 -0.021252127 0.3229188 0 -0 -1 84 84 84 255
1.4 0.020585353 0.3229188 0 -0 -1 84 84 84 255
1.525 0.0729187 0.3229188 0 -0 -1 84 84 84 255
1.525 0.020585353 0.3229188 0 -0 -1 84 84 84 255
1.375 0.0729187 0.3229188 0 -0 -1 84 84 84 255
1.525 0.0729187 0.3229188 -1 -0 -0 84 84 84 255
1.525 0.020585353 0.17708124 -1 -0 -0 84 84 84 255
1.525 0.020585353 0.3229188 -1 -0 -0 84 84 84 255
1.525 0.0729187 0.17708124 -1 -0 -0 84 84 84 255
1.375 0.0729187 0.17708124 0 -0 1 84 84 84 255
1.525 0.020585353 0.17708124 0 -0 1 84 84 84 255
1.525 0.0729187 0.17708124 0 -0 1 84 84 84 255
1.4 0.020585353 0.17708124 0 -0 1 84 84 84 255
1.4 -0.021252127 0.17708124 0 -0 1 84 84 84 255
1.525 -0.0729188 0.17708124 0 -0 1 84 84 84 255
1.525 -0.021252127 0.17708124 0 -0 1 84 84 84 255
1.375 -0.0729188 0.17708124 0 -0 1 84 84 84 255
1.525 -0.021252127 0.3229188 0 -1 -0 84 84 84 255
1.4 -0.021252127 0.17708124 0 -1 -0 84 84 84 255
1.525 -0.021252127 0.17708124 0 -1 -0 84 84 84 255
1.4 -0.021252127 0.3229188 0 -1 -0 84 84 84 255
1.525 -0.021252127 0.3229188 -1 -0 -0 84 84 84 255
1.525 -0.0729188 0.17708124 -1 -0 -0 84 84 84 255
1.525 -0.0729188 0.3229188 -1 -0 -0 84 84 84 255
1.525 -0.021252127 0.17708124 -1 -0 -0 84 84 84 255
1.255 -0.0729188 0.28020388 0 1 -0 84 84 84 255
1.375 -0.0729188 0.21979606 0 1 -0 84 84 84 255
1.255 -0.0729188 0.21979606 0 1 -0 84 84 84 255
1.4 -0.0729188 0.24999997 0 1 -0 84 84 84 255
1.375 -0.0729188 0.28020388 0 1 -0 84 84 84 255
1.4249998 -0.0729188 0.2933014 0 1 -0 84 84 84 255
1.375 -0.0729188 0.3229188 0 1 -0 84 84 84 255
1.475 -0.0729188 0.2933014 0 1 -0 84 84 84 255
1.525 -0.0729188 0.17708124 0 1 -0 84 84 84 255
1.4999999 -0.0729188 0.24999997 0 1 -0 84 84 84 255
1.525 -0.0729188 0.3229188 0 1 -0 84 84 84 255
1.475 -0.0729188 0.20669873 0 1 -0 84 84 84 255
1.4249998 -0.0729188 0.20669873 0 1 -0 84 84 84 255
1.375 -0.0729188 0.17708124 0 1 -0 84 84 84 255
1.525 0.0729187 0.17708124 0 -1 -0 84 84 84 255
1.475 0.0729187 0.20669873 0 -1 -0 84 84 84 255
1.375 0.0729187 0.17708124 0 -1 -0 84 84 84 255
1.4999999 0.0729187 0.24999997 0 -1 -0 84 84 84 255
1.525 0.0729187 0.3229188 0 -1 -0 84 84 84 255
1.475 0.0729187 0.2933014 0 -1 -0 84 84 84 255
1.4249998 0.0729187 0.2933014 0 -1 -0 84 84 84 255
1.375 0.0729187 0.28020388 0 -1 -0 84 84 84 255
1.4 0.0729187 0.24999997 0 -1 -0 84 84 84 255
1.375 0.0729187 0.3229188 0 -1 -0 84 84 84 255
1.4249998 0.0729187 0.20669873 0 -1 -0 84 84 84 255
1.375 0.0729187 0.21979606 0 -1 -0 84 84 84 255
1.255 0.0729187 0.21979606 0 -1 -0 84 84 84 255
1.255 0.0729187 0.28020388 0 -1 -0 84 84 84 255
1.375 -0.03020398 0.17708124 1 -0 -0 84 84 84 255
1.375 -0.0729188 0.21979606 1 -0 -0 84 84 84 255
1.375 -0.0729188 0.17708124 1 -0 -0 84 84 84 255
1.255 -0.0729188 0.21979606 0 0.70710677 0.70710677 84 84 84 255
1.375 -0.03020398 0.17708124 0 0.70710677 0.70710677 84 84 84 255
1.255 -0.03020398 0.17708124 0 0.70710677 0.70710677 84 84 84 255
1.375 -0.0729188 0.21979606 0 0.70710677 0.70710677 84 84 84 255
1.255 -0.03020398 0.17708124 1 -0 -0 84 84 84 255
1.255 -0.0729188 0.28020388 1 -0 -0 84 84 84 255
1.255 -0.0729188 0.21979606 1 -0 -0 84 84 84 255
1.255 -0.042918783 0.23222247 1 -0 -0 84 84 84 255
1.255 -0.017777586 0.20708126 1 -0 -0 84 84 84 255
1.255 0.030203873 0.17708124 1 -0 -0 84 84 84 255
1.255 0.017777458 0.20708126 1 -0 -0 84 84 84 255
1.255 0.042918682 0.23222247 1 -0 -0 84 84 84 255
1.255 0.0729187 0.21979606 1 -0 -0 84 84 84 255
1.255 0.042918682 0.26777744 1 -0 -0 84 84 84 255
1.255 -0.042918783 0.26777744 1 -0 -0 84 84 84 255
1.255 -0.03020398 0.3229188 1 -0 -0 84 84 84 255
1.255 -0.017777586 0.2929189 1 -0 -0 84 84 84 255
1.255 0.030203873 0.3229188 1 -0 -0 84 84 84 255
1.255 0.017777458 0.2929189 1 -0 -0 84 84 84 255
1.255 0.0729187 0.28020388 1 -0 -0 84 84 84 255
1.255 -0.03020398 0.3229188 0 0.7071076 -0.7071059 84 84 84 255
1.375 -0.0729188 0.28020388 0 0.7071076 -0.7071059 84 84 84 255
1.255 -0.0729188 0.28020388 0 0.7071076 -0.7071059 84 84 84 255
1.375 -0.03020398 0.3229188 0 0.7071076 -0.7071059 84 84 84 255
1.375 -0.03020398 0.3229188 1 -0 -0 84 84 84 255
1.375 -0.0729188 0.3229188 1 -0 -0 84 84 84 255
1.375 -0.0729188 0.28020388 1 -0 -0 84 84 84 255
1.375 0.030203873 0.3229188 0 -0.7071076 -0.7071059 84 84 84 255
1.255 0.0729187 0.28020388 0 -0.7071076 -0.7071059 84 84 84 255
1.375 0.0729187 0.28020388 0 -0.7071076 -0.7071059 84 84 84 255
1.255 0.030203873 0.3229188 0 -0.7071076 -0.7071059 84 84 84 255
1.255 0.0729187 0.21979606 0 -0.70710677 0.70710677 84 84 84 255
1.375 0.030203873 0.17708124 0 -0.70710677 0.70710677 84 84 84 255
1.375 0.0729187 0.21979606 0 -0.70710677 0.70710677 84 84 84 255
1.255 0.030203873 0.17708124 0 -0.70710677 0.70710677 84 84 84 255
1.375 0.0729187 0.21979606 1 -0 -0 84 84 84 255
1.375 0.030203873 0.17708124 1 -0 -0 84 84 84 255
1.375 0.0729187 0.17708124 1 -0 -0 84 84 84 255
1.375 0.0729187 0.3229188 1 -0 -0 84 84 84 255
1.375 0.030203873 0.3229188 1 -0 -0 84 84 84 255
1.375 0.0729187 0.28020388 1 -0 -0 84 84 84 255
1.255 0.030203873 0.17708124 0 -0 1 84 84 84 255
1.375 -0.03020398 0.17708124 0 -0 1 84 84 84 255
1.375 0.030203873 0.17708124 0 -0 1 84 84 84 255
1.255 -0.03020398 0.17708124 0 -0 1 84 84 84 255
1.255 -0.03020398 0.3229188 0 -0 -1 84 84 84 255
1.375 0.030203873 0.3229188 0 -0 -1 84 84 84 255
1.375 -0.03020398 0.3229188 0 -0 -1 84 84 84 255
1.255 0.030203873 0.3229188 0 -0 -1 84 84 84 255
1.3096516 -0.038267285 0.48575616 0 1 -0 84 84 84 255
1.5903484 -0.038267285 0.45675626 0 1 -0 84 84 84 255
1.3096516 -0.038267285 0.45675626 0 1 -0 84 84 84 255
1.5903484 -0.038267285 0.48575616 0 1 -0 84 84 84 255
1.5903484 -0.038267285 0.48575616 0 -1 -0 84 84 84 255
1.3096516 -0.038267285 0.48575616 0 -1 -0 84 84 84 255
1.5903484 -0.038267285 0.45675626 0 -1 -0 84 84 84 255
1.3096516 -0.038267285 0.45675626 0 -1 -0 84 84 84 255
1.3096516 0.038267158 0.45675626 1 -0 -0 84 84 84 255
1.3096516 -0.038267285 0.48575616 1 -0 -0 84 84 84 255
1.3096516 -0.038267285 0.45675626 1 -0 -0 84 84 84 255
1.3096516 0.038267158 0.48575616 1 -0 -0 84 84 84 255
1.3096516 0.038267158 0.48575616 -1 -0 -0 84 84 84 255
1.3096516 0.038267158 0.45675626 -1 -0 -0 84 84 84 255
1.3096516 -0.038267285 0.48575616 -1 -0 -0 84 84 84 255
1.3096516 -0.038267285 0.45675626 -1 -0 -0 84 84 84 255
1.3096516 -0.038267285 0.48575616 9.048906E-08 -0 -1 84 84 84 255
1.5903484 0.038267158 0.48575616 9.048906E-08 -0 -1 84 84 84 255
1.5903484 -0.038267285 0.48575616 9.048906E-08 -0 -1 84 84 84 255
1.3096516 0.038267158 0.48575616 9.048906E-08 -0 -1 84 84 84 255
1.3096516 0.038267158 0.48575616 -9.048906E-08 -0 1 84 84 84 255
1.3096516 -0.038267285 0.48575616 -9.048906E-08 -0 1 84 84 84 255
1.5903484 0.038267158 0.48575616 -9.048906E-08 -0 1 84 84 84 255
1.5903484 -0.038267285 0.48575616 -9.048906E-08 -0 1 84 84 84 255
1.5903484 0.038267158 0.48575616 -1 -0 -0 84 84 84 255
1.5903484 -0.038267285 0.45675626 -1 -0 -0 84 84 84 255
1.5903484 -0.038267285 0.48575616 -1 -0 -0 84 84 84 255
1.5903484 0.038267158 0.45675626 -1 -0 -0 84 84 84 255
1.5903484 0.038267158 0.45675626 1 -0 -0 84 84 84 255
1.5903484 0.038267158 0.48575616 1 -0 -0 84 84 84 255
1.5903484 -0.038267285 0.45675626 1 -0 -0 84 84 84 255
1.5903484 -0.038267285 0.48575616 1 -0 -0 84 84 84 255
1.5903484 0.038267158 0.48575616 0 -1 -0 84 84 84 255
1.3096516 0.038267158 0.45675626 0 -1 -0 84 84 84 255
1.5903484 0.038267158 0.45675626 0 -1 -0 84 84 84 255
1.3096516 0.038267158 0.48575616 0 -1 -0 84 84 84 255
1.3096516 0.038267158 0.48575616 0 1 -0 84 84 84 255
1.5903484 0.038267158 0.48575616 0 1 -0 84 84 84 255
1.3096516 0.038267158 0.45675626 0 1 -0 84 84 84 255
1.5903484 0.038267158 0.45675626 0 1 -0 84 84 84 255
1.4 -0.087918796 0.24999997 0 1 -0 84 84 84 255
1.475 -0.087918796 0.20669873 0 1 -0 84 84 84 255
1.4249998 -0.087918796 0.20669873 0 1 -0 84 84 84 255
1.4999999 -0.087918796 0.24999997 0 1 -0 84 84 84 255
1.4249998 -0.087918796 0.2933014 0 1 -0 84 84 84 255
1.475 -0.087918796 0.2933014 0 1 -0 84 84 84 255
1.4 -0.0729188 0.24999997 0.8660265 -0 -0.49999812 84 84 84 255
1.4249998 -0.087918796 0.2933014 0.8660265 -0 -0.49999812 84 84 84 255
1.4 -0.087918796 0.24999997 0.8660265 -0 -0.49999812 84 84 84 255
1.4249998 -0.0729188 0.2933014 0.8660265 -0 -0.49999812 84 84 84 255
1.4249998 -0.087918796 0.2933014 0 -0 -1 84 84 84 255
1.475 -0.0729188 0.2933014 0 -0 -1 84 84 84 255
1.475 -0.087918796 0.2933014 0 -0 -1 84 84 84 255
1.4249998 -0.0729188 0.2933014 0 -0 -1 84 84 84 255
1.475 -0.0729188 0.2933014 -0.8660265 -0 -0.49999812 84 84 84 255
1.4999999 -0.087918796 0.24999997 -0.8660265 -0 -0.49999812 84 84 84 255
1.475 -0.087918796 0.2933014 -0.8660265 -0 -0.49999812 84 84 84 255
1.4999999 -0.0729188 0.24999997 -0.8660265 -0 -0.49999812 84 84 84 255
1.4999999 -0.0729188 0.24999997 -0.8660257 -0 0.4999995 84 84 84 255
1.475 -0.087918796 0.20669873 -0.8660257 -0 0.4999995 84 84 84 255
1.4999999 -0.087918796 0.24999997 -0.8660257 -0 0.4999995 84 84 84 255
1.475 -0.0729188 0.20669873 -0.8660257 -0 0.4999995 84 84 84 255
1.4249998 -0.0729188 0.20669873 0 -0 1 84 84 84 255
1.475 -0.087918796 0.20669873 0 -0 1 84 84 84 255
1.475 -0.0729188 0.20669873 0 -0 1 84 84 84 255
1.4249998 -0.087918796 0.20669873 0 -0 1 84 84 84 255
1.4249998 -0.0729188 0.20669873 0.8660257 -0 0.4999995 84 84 84 255
1.4 -0.087918796 0.24999997 0.8660257 -0 0.4999995 84 84 84 255
1.4249998 -0.087918796 0.20669873 0.8660257 -0 0.4999995 84 84 84 255
1.4 -0.0729188 0.24999997 0.8660257 -0 0.4999995 84 84 84 255
0.16500016 -0.017777586 0.2929189 0 -0 -1 84 84 84 255
1.255 0.017777458 0.2929189 0 -0 -1 84 84 84 255
1.255 -0.017777586 0.2929189 0 -0 -1 84 84 84 255
0.16500016 0.017777458 0.2929189 0 -0 -1 84 84 84 255
0.16500016 -0.017777586 0.2929189 0 0.7071087 -0.7071048 84 84 84 255
1.255 -0.042918783 0.26777744 0 0.7071087 -0.7071048 84 84 84 255
0.16500016 -0.042918783 0.26777744 0 0.7071087 -0.7071048 84 84 84 255
1.255 -0.017777586 0.2929189 0 0.7071087 -0.7071048 84 84 84 255
1.255 0.017777458 0.2929189 0 -0.7071084 -0.7071052 84 84 84 255
0.16500016 0.042918682 0.26777744 0 -0.7071084 -0.7071052 84 84 84 255
1.255 0.042918682 0.26777744 0 -0.7071084 -0.7071052 84 84 84 255
0.16500016 0.017777458 0.2929189 0 -0.7071084 -0.7071052 84 84 84 255
0.16500016 -0.042918783 0.26777744 0 1 -0 84 84 84 255
1.255 -0.042918783 0.23222247 0 1 -0 84 84 84 255
0.16500016 -0.042918783 0.23222247 0 1 -0 84 84 84 255
1.255 -0.042918783 0.26777744 0 1 -0 84 84 84 255
1.255 0.042918682 0.26777744 0 -1 -0 84 84 84 255
0.16500016 0.042918682 0.23222247 0 -1 -0 84 84 84 255
1.255 0.042918682 0.23222247 0 -1 -0 84 84 84 255
0.16500016 0.042918682 0.26777744 0 -1 -0 84 84 84 255
0.16500016 -0.042918783 0.23222247 0 0.7071073 0.7071062 84 84 84 255
1.255 -0.017777586 0.20708126 0 0.7071073 0.7071062 84 84 84 255
0.16500016 -0.017777586 0.20708126 0 0.7071073 0.7071062 84 84 84 255
1.255 -0.042918783 0.23222247 0 0.7071073 0.7071062 84 84 84 255
1.255 0.042918682 0.23222247 0 -0.707107 0.7071066 84 84 84 255
0.16500016 0.017777458 0.20708126 0 -0.707107 0.7071066 84 84 84 255
1.255 0.017777458 0.20708126 0 -0.707107 0.7071066 84 84 84 255
0.16500016 0.042918682 0.23222247 0 -0.707107 0.7071066 84 84 84 255
0.16500016 0.017777458 0.20708126 0 -0 1 84 84 84 255
1.255 -0.017777586 0.20708126 0 -0 1 84 84 84 255
1.255 0.017777458 0.20708126 0 -0 1 84 84 84 255
0.16500016 -0.017777586 0.20708126 0 -0 1 84 84 84 255
1.2749999 0.020918682 0.41291863 -7.257142E-08 -0 1 84 84 84 255
1.625 -0.0209188 0.41291863 -7.257142E-08 -0 1 84 84 84 255
1.625 0.020918682 0.41291863 -7.257142E-08 -0 1 84 84 84 255
1.2749999 -0.0209188 0.41291863 -7.257142E-08 -0 1 84 84 84 255
1.2749999 -0.0209188 0.41291863 7.257142E-08 -0 -1 84 84 84 255
1.2749999 0.020918682 0.41291863 7.257142E-08 -0 -1 84 84 84 255
1.625 -0.0209188 0.41291863 7.257142E-08 -0 -1 84 84 84 255
1.625 0.020918682 0.41291863 7.257142E-08 -0 -1 84 84 84 255
1.2749999 0.020918682 0.41291863 0 1 -0 84 84 84 255
1.625 0.020918682 0.32291856 0 1 -0 84 84 84 255
1.2749999 0.020918682 0.32291856 0 1 -0 84 84 84 255
1.625 0.020918682 0.41291863 0 1 -0 84 84 84 255
1.625 0.020918682 0.41291863 0 -1 -0 84 84 84 255
1.2749999 0.020918682 0.41291863 0 -1 -0 84 84 84 255
1.625 0.020918682 0.32291856 0 -1 -0 84 84 84 255
1.2749999 0.020918682 0.32291856 0 -1 -0 84 84 84 255
1.2749999 0.05591868 0.32291856 1 -0 -0 84 84 84 255
1.2749999 0.020918682 0.41291863 1 -0 -0 84 84 84 255
1.2749999 0.020918682 0.32291856 1 -0 -0 84 84 84 255
1.2749999 -0.0209188 0.32291856 1 -0 -0 84 84 84 255
1.2749999 -0.055918783 0.45675626 1 -0 -0 84 84 84 255
1.2749999 -0.055918783 0.32291856 1 -0 -0 84 84 84 255
1.2749999 -0.0209188 0.41291863 1 -0 -0 84 84 84 255
1.2749999 0.05591868 0.45675626 1 -0 -0 84 84 84 255
1.2749999 0.05591868 0.32291856 -1 -0 -0 84 84 84 255
1.2749999 0.020918682 0.41291863 -1 -0 -0 84 84 84 255
1.2749999 0.05591868 0.45675626 -1 -0 -0 84 84 84 255
1.2749999 -0.0209188 0.41291863 -1 -0 -0 84 84 84 255
1.2749999 -0.055918783 0.45675626 -1 -0 -0 84 84 84 255
1.2749999 -0.0209188 0.32291856 -1 -0 -0 84 84 84 255
1.2749999 -0.055918783 0.32291856 -1 -0 -0 84 84 84 255
1.2749999 0.020918682 0.32291856 -1 -0 -0 84 84 84 255
1.625 -0.0209188 0.32291856 0 -1 -0 84 84 84 255
1.2749999 -0.0209188 0.41291863 0 -1 -0 84 84 84 255
1.2749999 -0.0209188 0.32291856 0 -1 -0 84 84 84 255
1.625 -0.0209188 0.41291863 0 -1 -0 84 84 84 255
1.625 -0.0209188 0.41291863 0 1 -0 84 84 84 255
1.625 -0.0209188 0.32291856 0 1 -0 84 84 84 255
1.2749999 -0.0209188 0.41291863 0 1 -0 84 84 84 255
1.2749999 -0.0209188 0.32291856 0 1 -0 84 84 84 255
1.625 -0.055918783 0.45675626 -1 -0 -0 84 84 84 255
1.625 -0.0209188 0.41291863 -1 -0 -0 84 84 84 255
1.625 -0.055918783 0.32291856 -1 -0 -0 84 84 84 255
1.625 0.05591868 0.45675626 -1 -0 -0 84 84 84 255
1.625 0.020918682 0.41291863 -1 -0 -0 84 84 84 255
1.625 0.020918682 0.32291856 -1 -0 -0 84 84 84 255
1.625 0.05591868 0.32291856 -1 -0 -0 84 84 84 255
1.625 -0.0209188 0.32291856 -1 -0 -0 84 84 84 255
1.625 -0.0209188 0.41291863 1 -0 -0 84 84 84 255
1.625 -0.055918783 0.32291856 1 -0 -0 84 84 84 255
1.625 -0.0209188 0.32291856 1 -0 -0 84 84 84 255
1.625 0.05591868 0.32291856 1 -0 -0 84 84 84 255
1.625 0.05591868 0.45675626 1 -0 -0 84 84 84 255
1.625 0.020918682 0.32291856 1 -0 -0 84 84 84 255
1.625 0.020918682 0.41291863 1 -0 -0 84 84 84 255
1.625 -0.055918783 0.45675626 1 -0 -0 84 84 84 255
1.2749999 0.05591868 0.32291856 -7.257142E-08 -0 1 84 84 84 255
1.625 0.020918682 0.32291856 -7.257142E-08 -0 1 84 84 84 255
1.625 0.05591868 0.32291856 -7.257142E-08 -0 1 84 84 84 255
1.2749999 0.020918682 0.32291856 -7.257142E-08 -0 1 84 84 84 255
1.2749999 0.020918682 0.32291856 7.257142E-08 -0 -1 84 84 84 255
1.2749999 0.05591868 0.32291856 7.257142E-08 -0 -1 84 84 84 255
1.625 0.020918682 0.32291856 7.257142E-08 -0 -1 84 84 84 255
1.625 0.05591868 0.32291856 7.257142E-08 -0 -1 84 84 84 255
1.625 0.05591868 0.32291856 0 -1 -0 84 84 84 255
1.2749999 0.05591868 0.45675626 0 -1 -0 84 84 84 255
1.2749999 0.05591868 0.32291856 0 -1 -0 84 84 84 255
1.625 0.05591868 0.45675626 0 -1 -0 84 84 84 255
1.625 0.05591868 0.45675626 0 1 -0 84 84 84 255
1.625 0.05591868 0.32291856 0 1 -0 84 84 84 255
1.2749999 0.05591868 0.45675626 0 1 -0 84 84 84 255
1.2749999 0.05591868 0.32291856 0 1 -0 84 84 84 255
1.625 -0.055918783 0.45675626 0 -0 -1 84 84 84 255
1.5903484 -0.038267285 0.45675626 0 -0 -1 84 84 84 255
1.625 0.05591868 0.45675626 0 -0 -1 84 84 84 255
1.2749999 -0.055918783 0.45675626 0 -0 -1 84 84 84 255
1.3096516 -0.038267285 0.45675626 0 -0 -1 84 84 84 255
1.3096516 0.038267158 0.45675626 0 -0 -1 84 84 84 255
1.5903484 0.038267158 0.45675626 0 -0 -1 84 84 84 255
1.2749999 0.05591868 0.45675626 0 -0 -1 84 84 84 255
1.2749999 -0.055918783 0.45675626 0 -0 1 84 84 84 255
1.3096516 0.038267158 0.45675626 0 -0 1 84 84 84 255
1.2749999 0.05591868 0.45675626 0 -0 1 84 84 84 255
1.5903484 0.038267158 0.45675626 0 -0 1 84 84 84 255
1.5903484 -0.038267285 0.45675626 0 -0 1 84 84 84 255
1.625 0.05591868 0.45675626 0 -0 1 84 84 84 255
1.3096516 -0.038267285 0.45675626 0 -0 1 84 84 84 255
1.625 -0.055918783 0.45675626 0 -0 1 84 84 84 255
1.2749999 -0.055918783 0.45675626 0 1 -0 84 84 84 255
1.625 -0.055918783 0.32291856 0 1 -0 84 84 84 255
1.2749999 -0.055918783 0.32291856 0 1 -0 84 84 84 255
1.625 -0.055918783 0.45675626 0 1 -0 84 84 84 255
1.625 -0.055918783 0.45675626 0 -1 -0 84 84 84 255
1.2749999 -0.055918783 0.45675626 0 -1 -0 84 84 84 255
1.625 -0.055918783 0.32291856 0 -1 -0 84 84 84 255
1.2749999 -0.055918783 0.32291856 0 -1 -0 84 84 84 255
1.2749999 -0.0209188 0.32291856 -7.257142E-08 -0 1 84 84 84 255
1.625 -0.055918783 0.32291856 -7.257142E-08 -0 1 84 84 84 255
1.625 -0.0209188 0.32291856 -7.257142E-08 -0 1 84 84 84 255
1.2749999 -0.055918783 0.32291856 -7.257142E-08 -0 1 84 84 84 255
1.2749999 -0.055918783 0.32291856 7.257142E-08 -0 -1 84 84 84 255
1.2749999 -0.0209188 0.32291856 7.257142E-08 -0 -1 84 84 84 255
1.625 -0.055918783 0.32291856 7.257142E-08 -0 -1 84 84 84 255
1.625 -0.0209188 0.32291856 7.257142E-08 -0 -1 84 84 84 255
1.2749999 -0.055918783 0.17708124 0 1 -0 84 84 84 255
1.625 -0.055918783 0.04324375 0 1 -0 84 84 84 255
1.2749999 -0.055918783 0.04324375 0 1 -0 84 84 84 255
1.625 -0.055918783 0.17708124 0 1 -0 84 84 84 255
1.625 -0.055918783 0.17708124 0 -1 -0 84 84 84 255
1.2749999 -0.055918783 0.17708124 0 -1 -0 84 84 84 255
1.625 -0.055918783 0.04324375 0 -1 -0 84 84 84 255
1.2749999 -0.055918783 0.04324375 0 -1 -0 84 84 84 255
1.2749999 -0.055918783 0.04324375 1 -0 -0 84 84 84 255
1.2749999 -0.0209188 0.08708125 1 -0 -0 84 84 84 255
1.2749999 -0.055918783 0.17708124 1 -0 -0 84 84 84 255
1.2749999 0.05591868 0.04324375 1 -0 -0 84 84 84 255
1.2749999 0.020918682 0.08708125 1 -0 -0 84 84 84 255
1.2749999 0.020918682 0.17708124 1 -0 -0 84 84 84 255
1.2749999 0.05591868 0.17708124 1 -0 -0 84 84 84 255
1.2749999 -0.0209188 0.17708124 1 -0 -0 84 84 84 255
1.2749999 -0.0209188 0.08708125 -1 -0 -0 84 84 84 255
1.2749999 -0.055918783 0.17708124 -1 -0 -0 84 84 84 255
1.2749999 -0.0209188 0.17708124 -1 -0 -0 84 84 84 255
1.2749999 0.05591868 0.17708124 -1 -0 -0 84 84 84 255
1.2749999 0.05591868 0.04324375 -1 -0 -0 84 84 84 255
1.2749999 0.020918682 0.17708124 -1 -0 -0 84 84 84 255
1.2749999 0.020918682 0.08708125 -1 -0 -0 84 84 84 255
1.2749999 -0.055918783 0.04324375 -1 -0 -0 84 84 84 255
1.2749999 -0.055918783 0.17708124 0 -0 -1 84 84 84 255
1.625 -0.0209188 0.17708124 0 -0 -1 84 84 84 255
1.625 -0.055918783 0.17708124 0 -0 -1 84 84 84 255
1.2749999 -0.0209188 0.17708124 0 -0 -1 84 84 84 255
1.2749999 -0.0209188 0.17708124 0 -0 1 84 84 84 255
1.2749999 -0.055918783 0.17708124 0 -0 1 84 84 84 255
1.625 -0.0209188 0.17708124 0 -0 1 84 84 84 255
1.625 -0.055918783 0.17708124 0 -0 1 84 84 84 255
1.625 0.05591868 0.17708124 -1 -0 -0 84 84 84 255
1.625 0.020918682 0.08708125 -1 -0 -0 84 84 84 255
1.625 0.020918682 0.17708124 -1 -0 -0 84 84 84 255
1.625 -0.0209188 0.17708124 -1 -0 -0 84 84 84 255
1.625 -0.055918783 0.04324375 -1 -0 -0 84 84 84 255
1.625 -0.055918783 0.17708124 -1 -0 -0 84 84 84 255
1.625 -0.0209188 0.08708125 -1 -0 -0 84 84 84 255
1.625 0.05591868 0.04324375 -1 -0 -0 84 84 84 255
1.625 0.05591868 0.17708124 1 -0 -0 84 84 84 255
1.625 0.020918682 0.08708125 1 -0 -0 84 84 84 255
1.625 0.05591868 0.04324375 1 -0 -0 84 84 84 255
1.625 -0.0209188 0.08708125 1 -0 -0 84 84 84 255
1.625 -0.055918783 0.04324375 1 -0 -0 84 84 84 255
1.625 -0.0209188 0.17708124 1 -0 -0 84 84 84 255
1.625 -0.055918783 0.17708124 1 -0 -0 84 84 84 255
1.625 0.020918682 0.17708124 1 -0 -0 84 84 84 255
1.625 0.05591868 0.04324375 0 -0 1 84 84 84 255
1.5903484 0.038267158 0.04324375 0 -0 1 84 84 84 255
1.625 -0.055918783 0.04324375 0 -0 1 84 84 84 255
1.2749999 0.05591868 0.04324375 0 -0 1 84 84 84 255
1.3096516 0.038267158 0.04324375 0 -0 1 84 84 84 255
1.3096516 -0.038267285 0.04324375 0 -0 1 84 84 84 255
1.5903484 -0.038267285 0.04324375 0 -0 1 84 84 84 255
1.2749999 -0.055918783 0.04324375 0 -0 1 84 84 84 255
1.2749999 0.05591868 0.04324375 0 -0 -1 84 84 84 255
1.3096516 -0.038267285 0.04324375 0 -0 -1 84 84 84 255
1.2749999 -0.055918783 0.04324375 0 -0 -1 84 84 84 255
1.5903484 -0.038267285 0.04324375 0 -0 -1 84 84 84 255
1.5903484 0.038267158 0.04324375 0 -0 -1 84 84 84 255
1.625 -0.055918783 0.04324375 0 -0 -1 84 84 84 255
1.3096516 0.038267158 0.04324375 0 -0 -1 84 84 84 255
1.625 0.05591868 0.04324375 0 -0 -1 84 84 84 255
1.625 0.05591868 0.17708124 0 -1 -0 84 84 84 255
1.2749999 0.05591868 0.04324375 0 -1 -0 84 84 84 255
1.625 0.05591868 0.04324375 0 -1 -0 84 84 84 255
1.2749999 0.05591868 0.17708124 0 -1 -0 84 84 84 255
1.2749999 0.05591868 0.17708124 0 1 -0 84 84 84 255
1.625 0.05591868 0.17708124 0 1 -0 84 84 84 255
1.2749999 0.05591868 0.04324375 0 1 -0 84 84 84 255
1.625 0.05591868 0.04324375 0 1 -0 84 84 84 255
1.2749999 0.020918682 0.17708124 0 -0 -1 84 84 84 255
1.625 0.05591868 0.17708124 0 -0 -1 84 84 84 255
1.625 0.020918682 0.17708124 0 -0 -1 84 84 84 255
1.2749999 0.05591868 0.17708124 0 -0 -1 84 84 84 255
1.2749999 0.05591868 0.17708124 0 -0 1 84 84 84 255
1.2749999 0.020918682 0.17708124 0 -0 1 84 84 84 255
1.625 0.05591868 0.17708124 0 -0 1 84 84 84 255
1.625 0.020918682 0.17708124 0 -0 1 84 84 84 255
1.2749999 0.020918682 0.17708124 0 1 -0 84 84 84 255
1.625 0.020918682 0.08708125 0 1 -0 84 84 84 255
1.2749999 0.020918682 0.08708125 0 1 -0 84 84 84 255
1.625 0.020918682 0.17708124 0 1 -0 84 84 84 255
1.625 0.020918682 0.17708124 0 -1 -0 84 84 84 255
1.2749999 0.020918682 0.17708124 0 -1 -0 84 84 84 255
1.625 0.020918682 0.08708125 0 -1 -0 84 84 84 255
1.2749999 0.020918682 0.08708125 0 -1 -0 84 84 84 255
1.2749999 -0.0209188 0.08708125 0 -0 -1 84 84 84 255
1.625 0.020918682 0.08708125 0 -0 -1 84 84 84 255
1.625 -0.0209188 0.08708125 0 -0 -1 84 84 84 255
1.2749999 0.020918682 0.08708125 0 -0 -1 84 84 84 255
1.2749999 0.020918682 0.08708125 0 -0 1 84 84 84 255
1.2749999 -0.0209188 0.08708125 0 -0 1 84 84 84 255
1.625 0.020918682 0.08708125 0 -0 1 84 84 84 255
1.625 -0.0209188 0.08708125 0 -0 1 84 84 84 255
1.625 -0.0209188 0.17708124 0 -1 -0 84 84 84 255
1.2749999 -0.0209188 0.08708125 0 -1 -0 84 84 84 255
1.625 -0.0209188 0.08708125 0 -1 -0 84 84 84 255
1.2749999 -0.0209188 0.17708124 0 -1 -0 84 84 84 255
1.2749999 -0.0209188 0.17708124 0 1 -0 84 84 84 255
1.625 -0.0209188 0.17708124 0 1 -0 84 84 84 255
1.2749999 -0.0209188 0.08708125 0 1 -0 84 84 84 255
1.625 -0.0209188 0.08708125 0 1 -0 84 84 84 255
1.5903484 0.038267158 0.04324375 0 -1 -0 84 84 84 255
1.3096516 0.038267158 0.014243754 0 -1 -0 84 84 84 255
1.5903484 0.038267158 0.014243754 0 -1 -0 84 84 84 255
1.3096516 0.038267158 0.04324375 0 -1 -0 84 84 84 255
1.3096516 0.038267158 0.04324375 0 1 -0 84 84 84 255
1.5903484 0.038267158 0.04324375 0 1 -0 84 84 84 255
1.3096516 0.038267158 0.014243754 0 1 -0 84 84 84 255
1.5903484 0.038267158 0.014243754 0 1 -0 84 84 84 255
1.5903484 0.038267158 0.04324375 -1 -0 -0 84 84 84 255
1.5903484 -0.038267285 0.014243754 -1 -0 -0 84 84 84 255
1.5903484 -0.038267285 0.04324375 -1 -0 -0 84 84 84 255
1.5903484 0.038267158 0.014243754 -1 -0 -0 84 84 84 255
1.5903484 0.038267158 0.014243754 1 -0 -0 84 84 84 255
1.5903484 0.038267158 0.04324375 1 -0 -0 84 84 84 255
1.5903484 -0.038267285 0.014243754 1 -0 -0 84 84 84 255
1.5903484 -0.038267285 0.04324375 1 -0 -0 84 84 84 255
1.3096516 0.038267158 0.014243754 1 -0 -0 84 84 84 255
1.3096516 -0.038267285 0.04324375 1 -0 -0 84 84 84 255
1.3096516 -0.038267285 0.014243754 1 -0 -0 84 84 84 255
1.3096516 0.038267158 0.04324375 1 -0 -0 84 84 84 255
1.3096516 0.038267158 0.04324375 -1 -0 -0 84 84 84 255
1.3096516 0.038267158 0.014243754 -1 -0 -0 84 84 84 255
1.3096516 -0.038267285 0.04324375 -1 -0 -0 84 84 84 255
1.3096516 -0.038267285 0.014243754 -1 -0 -0 84 84 84 255
1.3096516 0.038267158 0.014243754 0 -0 1 84 84 84 255
1.5903484 -0.038267285 0.014243754 0 -0 1 84 84 84 255
1.5903484 0.038267158 0.014243754 0 -0 1 84 84 84 255
1.3096516 -0.038267285 0.014243754 0 -0 1 84 84 84 255
1.3096516 -0.038267285 0.014243754 0 -0 -1 84 84 84 255
1.3096516 0.038267158 0.014243754 0 -0 -1 84 84 84 255
1.5903484 -0.038267285 0.014243754 0 -0 -1 84 84 84 255
1.5903484 0.038267158 0.014243754 0 -0 -1 84 84 84 255
1.3096516 -0.038267285 0.04324375 0 1 -0 84 84 84 255
1.5903484 -0.038267285 0.014243754 0 1 -0 84 84 84 255
1.3096516 -0.038267285 0.014243754 0 1 -0 84 84 84 255
1.5903484 -0.038267285 0.04324375 0 1 -0 84 84 84 255
1.5903484 -0.038267285 0.04324375 0 -1 -0 84 84 84 255
1.3096516 -0.038267285 0.04324375 0 -1 -0 84 84 84 255
1.5903484 -0.038267285 0.014243754 0 -1 -0 84 84 84 255
1.3096516 -0.038267285 0.014243754 0 -1 -0 84 84 84 255
1.4249998 0.08791869 0.20669873 0 -0 1 84 84 84 255
1.475 0.0729187 0.20669873 0 -0 1 84 84 84 255
1.475 0.08791869 0.20669873 0 -0 1 84 84 84 255
1.4249998 0.0729187 0.20669873 0 -0 1 84 84 84 255
1.4999999 0.08791869 0.24999997 0 -1 -0 84 84 84 255
1.4249998 0.08791869 0.20669873 0 -1 -0 84 84 84 255
1.475 0.08791869 0.20669873 0 -1 -0 84 84 84 255
1.4 0.08791869 0.24999997 0 -1 -0 84 84 84 255
1.475 0.08791869 0.2933014 0 -1 -0 84 84 84 255
1.4249998 0.08791869 0.2933014 0 -1 -0 84 84 84 255
1.4249998 0.08791869 0.20669873 0.8660257 -0 0.4999995 84 84 84 255
1.4 0.0729187 0.24999997 0.8660257 -0 0.4999995 84 84 84 255
1.4249998 0.0729187 0.20669873 0.8660257 -0 0.4999995 84 84 84 255
1.4 0.08791869 0.24999997 0.8660257 -0 0.4999995 84 84 84 255
1.4999999 0.08791869 0.24999997 -0.8660257 -0 0.4999995 84 84 84 255
1.475 0.0729187 0.20669873 -0.8660257 -0 0.4999995 84 84 84 255
1.4999999 0.0729187 0.24999997 -0.8660257 -0 0.4999995 84 84 84 255
1.475 0.08791869 0.20669873 -0.8660257 -0 0.4999995 84 84 84 255
1.475 0.08791869 0.2933014 -0.8660265 -0 -0.49999812 84 84 84 255
1.4999999 0.0729187 0.24999997 -0.8660265 -0 -0.49999812 84 84 84 255
1.475 0.0729187 0.2933014 -0.8660265 -0 -0.49999812 84 84 84 255
1.4999999 0.08791869 0.24999997 -0.8660265 -0 -0.49999812 84 84 84 255
1.4249998 0.0729187 0.2933014 0 -0 -1 84 84 84 255
1.475 0.08791869 0.2933014 0 -0 -1 84 84 84 255
1.475 0.0729187 0.2933014 0 -0 -1 84 84 84 255
1.4249998 0.08791869 0.2933014 0 -0 -1 84 84 84 255
1.4 0.08791869 0.24999997 0.8660265 -0 -0.49999812 84 84 84 255
1.4249998 0.0729187 0.2933014 0.8660265 -0 -0.49999812 84 84 84 255
1.4 0.0729187 0.24999997 0.8660265 -0 -0.49999812 84 84 84 255
1.4249998 0.08791869 0.2933014 0.8660265 -0 -0.49999812 84 84 84 255
3 0 1 2
3 1 0 3
3 4 5 6
3 5 4 7
3 8 9 10
3 9 8 11
3 11 8 12
3 12 13 14
3 13 12 15
3 15 12 8
3 16 17 18
3 17 16 19
3 20 21 22
3 21 20 23
3 23 20 24
3 24 25 26
3 25 24 27
3 27 24 20
3 28 29 30
3 29 28 31
3 32 33 34
3 33 32 35
3 36 37 38
3 37 36 39
3 39 36 40
3 39 40 41
3 41 40 42
3 41 42 43
3 44 45 46
3 45 44 47
3 47 44 48
3 46 45 43
3 46 43 42
3 37 44 49
3 44 37 48
3 48 37 39
3 50 51 52
3 51 50 53
3 53 50 54
3 53 54 55
3 55 54 56
3 56 57 58
3 57 56 59
3 59 56 54
3 52 60 61
3 60 52 51
3 61 60 58
3 61 58 62
3 62 58 63
3 63 58 57
3 64 65 66
3 67 68 69
3 68 67 70
3 71 72 73
3 72 71 74
3 74 71 75
3 75 71 76
3 75 76 77
3 77 76 78
3 78 76 79
3 78 79 80
3 72 81 82
3 81 72 74
3 82 81 83
3 82 83 84
3 84 83 85
3 84 85 80
3 84 80 86
3 86 80 79
3 87 88 89
3 88 87 90
3 91 92 93
3 94 95 96
3 95 94 97
3 98 99 100
3 99 98 101
3 102 103 104
3 105 106 107
3 108 109 110
3 109 108 111
3 112 113 114
3 113 112 115
3 116 117 118
3 117 116 119
3 120 121 122
3 123 122 121
3 124 125 126
3 125 124 127
3 128 129 130
3 131 130 129
3 132 133 134
3 133 132 135
3 136 137 138
3 139 138 137
3 140 141 142
3 141 140 143
3 144 145 146
3 147 146 145
3 148 149 150
3 149 148 151
3 152 153 154
3 155 154 153
3 156 157 158
3 157 156 159
3 159 156 160
3 159 160 161
3 162 163 164
3 163 162 165
3 166 167 168
3 167 166 169
3 170 171 172
3 171 170 173
3 174 175 176
3 175 174 177
3 178 179 180
3 179 178 181
3 182 183 184
3 183 182 185
3 186 187 188
3 187 186 189
3 190 191 192
3 191 190 193
3 194 195 196
3 195 194 197
3 198 199 200
3 199 198 201
3 202 203 204
3 203 202 205
3 206 207 208
3 207 206 209
3 210 211 212
3 211 210 213
3 214 215 216
3 215 214 217
3 218 219 220
3 219 218 221
3 222 223 224
3 225 224 223
3 226 227 228
3 227 226 229
3 230 231 232
3 233 232 231
3 234 235 236
3 237 238 239
3 238 237 240
3 238 240 241
3 241 240 235
3 241 235 234
3 242 243 244
3 243 245 244
3 244 245 246
3 245 247 246
3 248 246 247
3 249 243 242
3 250 251 252
3 251 250 253
3 254 255 256
3 257 256 255
3 258 259 260
3 259 258 261
3 259 261 262
3 262 261 263
3 263 261 264
3 265 260 259
3 266 267 268
3 269 270 271
3 271 270 272
3 272 270 266
3 270 273 266
3 267 266 273
3 274 275 276
3 275 274 277
3 278 279 280
3 281 280 279
3 282 283 284
3 283 282 285
3 286 287 288
3 289 288 287
3 290 291 292
3 291 290 293
3 291 293 294
3 294 293 295
3 292 296 297
3 296 292 291
3 297 296 295
3 297 295 293
3 298 299 300
3 299 301 300
3 302 303 301
3 300 301 303
3 299 298 304
3 304 298 302
3 298 305 302
3 303 302 305
3 306 307 308
3 307 306 309
3 310 311 312
3 313 312 311
3 314 315 316
3 315 314 317
3 318 319 320
3 321 320 319
3 322 323 324
3 323 322 325
3 326 327 328
3 329 328 327
3 330 331 332
3 331 330 333
3 331 333 334
3 334 333 335
3 335 333 336
3 337 332 331
3 338 339 340
3 341 342 343
3 343 342 344
3 344 342 338
3 342 345 338
3 339 338 345
3 346 347 348
3 347 346 349
3 350 351 352
3 353 352 351
3 354 355 356
3 357 358 359
3 358 357 360
3 358 360 361
3 361 360 355
3 361 355 354
3 362 363 364
3 363 365 364
3 364 365 366
3 365 367 366
3 368 366 367
3 369 363 362
3 370 371 372
3 371 370 373
3 371 373 374
3 374 373 375
3 372 376 377
3 376 372 371
3 377 376 375
3 377 375 373
3 378 379 380
3 379 381 380
3 382 383 381
3 380 381 383
3 379 378 384
3 384 378 382
3 378 385 382
3 383 382 385
3 386 387 388
3 387 386 389
3 390 391 392
3 393 392 391
3 394 395 396
3 395 394 397
3 398 399 400
3 401 400 399
3 402 403 404
3 403 402 405
3 406 407 408
3 409 408 407
3 410 411 412
3 411 410 413
3 414 415 416
3 417 416 415
3 418 419 420
3 419 418 421
3 422 423 424
3 425 424 423
3 426 427 428
3 427 426 429
3 430 431 432
3 433 432 431
3 434 435 436
3 435 434 437
3 438 439 440
3 441 440 439
3 442 443 444
3 443 442 445
3 446 447 448
3 449 448 447
3 450 451 452
3 451 450 453
3 454 455 456
3 457 456 455
3 458 459 460
3 459 458 461
3 462 463 464
3 465 464 463
3 466 467 468
3 467 466 469
3 470 471 472
3 471 470 473
3 473 470 474
3 473 474 475
3 476 477 478
3 477 476 479
3 480 481 482
3 481 480 483
3 484 485 486
3 485 484 487
3 488 489 490
3 489 488 491
3 492 493 494
3 493 492 495

