ply
format ascii 1.0
commentY29udmVydGVyIGJ5IENvZGVMZW9wYXJk
comment Original mesh name: 'C:\Program Files (x86)\Steam\steamapps\common\Stormworks\rom\meshes\component_wing_medium.mesh'
comment SubMesh index: 0
comment SubMesh name: 'ID2'
comment Shader: Opaque (0)
element vertex 30
property float x
property float y
property float z
property float nx
property float ny
property float nz
property uchar red
property uchar green
property uchar blue
property uchar alpha
element face 14
property list uchar ushort vertex_index
end_header
-0.37499997 0.125 0.37499997 -1.6736419E-14 -6.4456382E-15 -1 255 125 0 255
-0.021249998 0.2999999 0.37499997 -1.6736419E-14 -6.4456382E-15 -1 255 125 0 255
0.125 0.125 0.37499997 -1.6736419E-14 -6.4456382E-15 -1 255 125 0 255
-0.22875 0.2999999 0.37499997 -1.6736419E-14 -6.4456382E-15 -1 255 125 0 255
0.125 0.125 0.37499997 -0.767322 -0.641262 -6.8840896E-15 255 125 0 255
-0.021249998 0.2999999 -0.37499997 -0.767322 -0.641262 -6.8840896E-15 255 125 0 255
0.125 0.125 -0.37499997 -0.767322 -0.641262 -6.8840896E-15 255 125 0 255
-0.021249998 0.2999999 0.37499997 -0.767322 -0.641262 -6.8840896E-15 255 125 0 255
-0.37499997 0.125 -0.37499997 0.767322 -0.641262 -4.952073E-15 255 125 0 255
-0.22875 0.2999999 0.37499997 0.767322 -0.641262 -4.952073E-15 255 125 0 255
-0.37499997 0.125 0.37499997 0.767322 -0.641262 -4.952073E-15 255 125 0 255
-0.22875 0.2999999 -0.37499997 0.767322 -0.641262 -4.952073E-15 255 125 0 255
-0.021249998 0.2999999 0.37499997 -1.3916361E-14 -1 -3.850194E-15 255 125 0 255
-0.22875 0.2999999 -0.37499997 -1.3916361E-14 -1 -3.850194E-15 255 125 0 255
-0.021249998 0.2999999 -0.37499997 -1.3916361E-14 -1 -3.850194E-15 255 125 0 255
-0.22875 0.2999999 0.37499997 -1.3916361E-14 -1 -3.850194E-15 255 125 0 255
-0.021249998 0.2999999 -0.37499997 -1.5839589E-14 -6.290942E-14 1 255 125 0 255
-0.37499997 0.125 -0.37499997 -1.5839589E-14 -6.290942E-14 1 255 125 0 255
0.125 0.125 -0.37499997 -1.5839589E-14 -6.290942E-14 1 255 125 0 255
-0.22875 0.2999999 -0.37499997 -1.5839589E-14 -6.290942E-14 1 255 125 0 255
-0.37499997 -0.8749999 -0.37499997 0.9805806 0.1961161 -3.019759E-14 255 125 0 255
-0.125 -2.125 0.37499997 0.9805806 0.1961161 -3.019759E-14 255 125 0 255
-0.125 -2.125 -0.37499997 0.9805806 0.1961161 -3.019759E-14 255 125 0 255
-0.37499997 -0.8749999 0.37499997 0.9805806 0.1961161 -3.019759E-14 255 125 0 255
-0.37499997 -0.8749999 -0.37499997 1.057685E-29 1.010676E-14 1 255 125 0 255
-0.125 -2.125 -0.37499997 1.057685E-29 1.010676E-14 1 255 125 0 255
-0.125 -0.8749999 -0.37499997 1.057685E-29 1.010676E-14 1 255 125 0 255
-0.37499997 -0.8749999 0.37499997 5.288426E-30 -6.858158E-15 -1 255 125 0 255
-0.125 -0.8749999 0.37499997 5.288426E-30 -6.858158E-15 -1 255 125 0 255
-0.125 -2.125 0.37499997 5.288426E-30 -6.858158E-15 -1 255 125 0 255
3 0 1 2
3 1 0 3
3 4 5 6
3 5 4 7
3 8 9 10
3 9 8 11
3 12 13 14
3 13 12 15
3 16 17 18
3 17 16 19
3 20 21 22
3 21 20 23
3 24 25 26
3 27 28 29

