ply
format ascii 1.0
commentY29udmVydGVyIGJ5IENvZGVMZW9wYXJk
comment Original mesh name: 'C:\Program Files (x86)\Steam\steamapps\common\Stormworks\rom\meshes\component_wind_vane_fan.mesh'
comment SubMesh index: 0
comment SubMesh name: 'ID17'
comment Shader: Opaque (0)
element vertex 328
property float x
property float y
property float z
property float nx
property float ny
property float nz
property uchar red
property uchar green
property uchar blue
property uchar alpha
element face 166
property list uchar ushort vertex_index
end_header
-0.027599966 -0.1125 -0.011432299 0.9239495 0.3825146 1.4435999E-13 86 86 86 255
-0.021932937 -0.12618849 0.009084912 0.9239495 0.3825146 1.4435999E-13 86 86 86 255
-0.020043924 -0.13075131 0.0083024725 0.9239495 0.3825146 1.4435999E-13 86 86 86 255
-0.027599966 -0.1125 -0.0057161436 0.9239495 0.3825146 1.4435999E-13 86 86 86 255
0.027599977 -0.1125 0.011432287 -0.9239495 0.3825146 -3.496024E-13 86 86 86 255
0.021932926 -0.12618849 -0.009084923 -0.9239495 0.3825146 -3.496024E-13 86 86 86 255
0.020043924 -0.13075131 -0.0083024725 -0.9239495 0.3825146 -3.496024E-13 86 86 86 255
0.027599977 -0.1125 0.005716132 -0.9239495 0.3825146 -3.496024E-13 86 86 86 255
0.0057161436 -0.1125 -0.027599977 -3.684319E-13 0.3825146 0.9239495 86 86 86 255
-0.0083024725 -0.13075131 -0.020043924 -3.684319E-13 0.3825146 0.9239495 86 86 86 255
0.011432299 -0.1125 -0.027599977 -3.684319E-13 0.3825146 0.9239495 86 86 86 255
-0.009084912 -0.12618849 -0.021932926 -3.684319E-13 0.3825146 0.9239495 86 86 86 255
-0.017587446 -0.10758746 0.052965492 0.6867569 0.7257502 0.04063988 255 255 255 255
0.037766777 -0.16179863 0.085664414 0.6867569 0.7257502 0.04063988 255 255 255 255
0.0139881745 -0.13678959 0.040875863 0.6867569 0.7257502 0.04063988 255 255 255 255
-0.04275099 -0.08733327 0.116493054 0.6867569 0.7257502 0.04063988 255 255 255 255
-0.011432287 -0.1125 0.027599966 0.6838526 0.7292013 0.02471851 255 255 255 255
0.0139881745 -0.13678959 0.040875863 0.6838526 0.7292013 0.02471851 255 255 255 255
0.0083024725 -0.13075131 0.020043924 0.6838526 0.7292013 0.02471851 255 255 255 255
-0.017587446 -0.10758746 0.052965492 0.6838526 0.7292013 0.02471851 255 255 255 255
-0.04275099 -0.08733327 0.116493054 -5.911497E-15 -0.9527484 0.3037606 255 255 255 255
-0.017587446 -0.10758746 0.052965492 -5.911497E-15 -0.9527484 0.3037606 255 255 255 255
-0.012881553 -0.10758746 0.052965492 -5.911497E-15 -0.9527484 0.3037606 255 255 255 255
-0.04275099 -0.08733327 0.116493054 0.7074416 0.6540331 0.2678937 255 255 255 255
0.02494026 -0.15562189 0.104456246 0.7074416 0.6540331 0.2678937 255 255 255 255
0.037766777 -0.16179863 0.085664414 0.7074416 0.6540331 0.2678937 255 255 255 255
-0.029811822 -0.10498543 0.1254197 0.7074416 0.6540331 0.2678937 255 255 255 255
0.014614128 -0.1331393 0.042387053 -0.8906525 -0.03494948 0.4533395 255 255 255 255
0.0139881745 -0.13678959 0.040875863 -0.8906525 -0.03494948 0.4533395 255 255 255 255
0.037766777 -0.16179863 0.085664414 -0.8906525 -0.03494948 0.4533395 255 255 255 255
0.014614128 -0.1331393 0.042387053 -0.9597163 0.05012007 0.2764644 255 255 255 255
0.0083024725 -0.13075131 0.020043924 -0.9597163 0.05012007 0.2764644 255 255 255 255
0.0139881745 -0.13678959 0.040875863 -0.9597163 0.05012007 0.2764644 255 255 255 255
0.009084923 -0.12618849 0.021932937 -0.9597163 0.05012007 0.2764644 255 255 255 255
0.002858066 -0.1625 0.0068999827 -2.117363E-15 0.3825146 -0.9239495 255 255 255 255
-0.011432287 -0.1125 0.027599966 -2.117363E-15 0.3825146 -0.9239495 255 255 255 255
0.0083024725 -0.13075131 0.020043924 -2.117363E-15 0.3825146 -0.9239495 255 255 255 255
-0.0028580544 -0.1625 0.0068999827 -2.117363E-15 0.3825146 -0.9239495 255 255 255 255
-0.012881553 -0.10758746 0.052965492 1.7685921E-15 -0.98175776 0.1901364 255 255 255 255
-0.011432287 -0.1125 0.027599966 1.7685921E-15 -0.98175776 0.1901364 255 255 255 255
-0.005716132 -0.1125 0.027599966 1.7685921E-15 -0.98175776 0.1901364 255 255 255 255
-0.017587446 -0.10758746 0.052965492 1.7685921E-15 -0.98175776 0.1901364 255 255 255 255
0.0139881745 -0.13678959 0.040875863 -2.4278978E-13 0.3825146 -0.9239495 255 255 255 255
-0.012881553 -0.10758746 0.052965492 -2.4278978E-13 0.3825146 -0.9239495 255 255 255 255
0.014614128 -0.1331393 0.042387053 -2.4278978E-13 0.3825146 -0.9239495 255 255 255 255
-0.017587446 -0.10758746 0.052965492 -2.4278978E-13 0.3825146 -0.9239495 255 255 255 255
-0.040500984 -0.08733327 0.116493054 -5.171844E-14 -0.9527484 0.3037606 255 255 255 255
0.02494026 -0.15562189 0.104456246 -0.70573205 0.37092113 -0.60362214 255 255 255 255
0.03811887 -0.15974537 0.08651448 -0.70573205 0.37092113 -0.60362214 255 255 255 255
0.037766777 -0.16179863 0.085664414 -0.70573205 0.37092113 -0.60362214 255 255 255 255
0.025179692 -0.15422566 0.10503429 -0.70573205 0.37092113 -0.60362214 255 255 255 255
-0.029811822 -0.10498543 0.1254197 4.468987E-15 -0.4512764 -0.8923842 255 255 255 255
-0.040500984 -0.08733327 0.116493054 4.468987E-15 -0.4512764 -0.8923842 255 255 255 255
-0.028281799 -0.10498543 0.1254197 4.468987E-15 -0.4512764 -0.8923842 255 255 255 255
-0.04275099 -0.08733327 0.116493054 4.468987E-15 -0.4512764 -0.8923842 255 255 255 255
0.02494026 -0.15562189 0.104456246 2.530784E-13 0.3825146 -0.9239495 255 255 255 255
-0.028281799 -0.10498543 0.1254197 2.530784E-13 0.3825146 -0.9239495 255 255 255 255
0.025179692 -0.15422566 0.10503429 2.530784E-13 0.3825146 -0.9239495 255 255 255 255
-0.029811822 -0.10498543 0.1254197 2.530784E-13 0.3825146 -0.9239495 255 255 255 255
0.03811887 -0.15974537 0.08651448 -0.8906525 -0.03494948 0.4533395 255 255 255 255
-0.012881553 -0.10758746 0.052965492 -0.6914434 -0.7201146 -0.05780077 255 255 255 255
0.009084923 -0.12618849 0.021932937 -0.6914434 -0.7201146 -0.05780077 255 255 255 255
0.014614128 -0.1331393 0.042387053 -0.6914434 -0.7201146 -0.05780077 255 255 255 255
0.0083024725 -0.13075131 0.020043924 -0.6533309 0.3825146 -0.6533309 255 255 255 255
0.0068999943 -0.1625 0.0028580544 -0.6533309 0.3825146 -0.6533309 255 255 255 255
0.002858066 -0.1625 0.0068999827 -0.6533309 0.3825146 -0.6533309 255 255 255 255
0.027599977 -0.1125 0.011432287 -0.6533309 0.3825146 -0.6533309 255 255 255 255
0.009084923 -0.12618849 0.021932937 -0.6533309 0.3825146 -0.6533309 255 255 255 255
0.011432299 -0.1125 0.027599966 -0.6533309 0.3825146 -0.6533309 255 255 255 255
-0.020043924 -0.13075131 0.0083024725 0.6533309 0.3825146 -0.6533309 255 255 255 255
-0.0028580544 -0.1625 0.0068999827 0.6533309 0.3825146 -0.6533309 255 255 255 255
-0.0068999827 -0.1625 0.0028580544 0.6533309 0.3825146 -0.6533309 255 255 255 255
-0.011432287 -0.1125 0.027599966 0.6533309 0.3825146 -0.6533309 255 255 255 255
-0.021932937 -0.12618849 0.009084912 0.6533309 0.3825146 -0.6533309 255 255 255 255
-0.027599966 -0.1125 0.011432287 0.6533309 0.3825146 -0.6533309 255 255 255 255
-0.0068999827 -0.1625 -0.002858066 0 1 -0 255 255 255 255
0.002858066 -0.1625 -0.0068999943 0 1 -0 255 255 255 255
-0.0028580544 -0.1625 -0.0068999943 0 1 -0 255 255 255 255
0.0068999943 -0.1625 -0.002858066 0 1 -0 255 255 255 255
0.0068999943 -0.1625 0 0 1 -0 255 255 255 255
-0.0068999827 -0.1625 0 0 1 -0 255 255 255 255
0.0068999943 -0.1625 0.0028580544 0 1 -0 255 255 255 255
-0.0068999827 -0.1625 0.0028580544 0 1 -0 255 255 255 255
-0.0028580544 -0.1625 0.0068999827 0 1 -0 255 255 255 255
0.002858066 -0.1625 0.0068999827 0 1 -0 255 255 255 255
-0.012881553 -0.10758746 0.052965492 -0.6891755 -0.722523 -0.05475183 255 255 255 255
-0.005716132 -0.1125 0.027599966 -0.6891755 -0.722523 -0.05475183 255 255 255 255
0.009084923 -0.12618849 0.021932937 -0.6891755 -0.722523 -0.05475183 255 255 255 255
-0.040500984 -0.08733327 0.116493054 -0.6938937 -0.7163377 -0.07329272 255 255 255 255
-0.012881553 -0.10758746 0.052965492 -0.6938937 -0.7163377 -0.07329272 255 255 255 255
0.014614128 -0.1331393 0.042387053 -0.6938937 -0.7163377 -0.07329272 255 255 255 255
0.025179692 -0.15422566 0.10503429 -0.70558983 -0.64109266 -0.30189943 255 255 255 255
-0.040500984 -0.08733327 0.116493054 -0.70558983 -0.64109266 -0.30189943 255 255 255 255
0.03811887 -0.15974537 0.08651448 -0.70558983 -0.64109266 -0.30189943 255 255 255 255
-0.028281799 -0.10498543 0.1254197 -0.70558983 -0.64109266 -0.30189943 255 255 255 255
-0.040500984 -0.08733327 0.116493054 -0.6897011 -0.7209581 -0.06731853 255 255 255 255
0.014614128 -0.1331393 0.042387053 -0.6897011 -0.7209581 -0.06731853 255 255 255 255
0.03811887 -0.15974537 0.08651448 -0.6897011 -0.7209581 -0.06731853 255 255 255 255
-0.005716132 -0.1125 0.027599966 4.84905E-15 0.3825146 -0.9239495 255 255 255 255
0.011432299 -0.1125 0.027599966 4.84905E-15 0.3825146 -0.9239495 255 255 255 255
0.009084923 -0.12618849 0.021932937 4.84905E-15 0.3825146 -0.9239495 255 255 255 255
0.027599977 -0.1125 0.011432287 -0.9239495 0.3825146 -2.2873028E-13 255 255 255 255
0.0068999943 -0.1625 0 -0.9239495 0.3825146 -2.2873028E-13 255 255 255 255
0.0068999943 -0.1625 0.0028580544 -0.9239495 0.3825146 -2.2873028E-13 255 255 255 255
0.0068999943 -0.1625 -0.002858066 -0.9239495 0.3825146 -2.2873028E-13 255 255 255 255
0.020043924 -0.13075131 -0.0083024725 -0.9239495 0.3825146 -2.2873028E-13 255 255 255 255
-0.027599966 -0.1125 -0.011432299 0.9239495 0.3825146 2.858058E-13 255 255 255 255
-0.0068999827 -0.1625 0 0.9239495 0.3825146 2.858058E-13 255 255 255 255
-0.0068999827 -0.1625 -0.002858066 0.9239495 0.3825146 2.858058E-13 255 255 255 255
-0.0068999827 -0.1625 0.0028580544 0.9239495 0.3825146 2.858058E-13 255 255 255 255
-0.020043924 -0.13075131 0.0083024725 0.9239495 0.3825146 2.858058E-13 255 255 255 255
-0.040875863 -0.13678959 0.013988162 -0.2764644 0.05012007 -0.9597163 255 255 255 255
-0.021932937 -0.12618849 0.009084912 -0.2764644 0.05012007 -0.9597163 255 255 255 255
-0.020043924 -0.13075131 0.0083024725 -0.2764644 0.05012007 -0.9597163 255 255 255 255
-0.042387053 -0.1331393 0.014614116 -0.2764644 0.05012007 -0.9597163 255 255 255 255
-0.027599966 -0.1125 0.011432287 0.9239495 0.3825146 3.111565E-13 255 255 255 255
-0.021932937 -0.12618849 0.009084912 0.9239495 0.3825146 3.111565E-13 255 255 255 255
-0.027599966 -0.1125 -0.0057161436 0.9239495 0.3825146 3.111565E-13 255 255 255 255
0.020043924 -0.13075131 -0.0083024725 -0.6533309 0.3825146 0.6533309 255 255 255 255
0.002858066 -0.1625 -0.0068999943 -0.6533309 0.3825146 0.6533309 255 255 255 255
0.0068999943 -0.1625 -0.002858066 -0.6533309 0.3825146 0.6533309 255 255 255 255
0.011432299 -0.1125 -0.027599977 -0.6533309 0.3825146 0.6533309 255 255 255 255
0.021932926 -0.12618849 -0.009084923 -0.6533309 0.3825146 0.6533309 255 255 255 255
0.027599977 -0.1125 -0.011432299 -0.6533309 0.3825146 0.6533309 255 255 255 255
-0.0083024725 -0.13075131 -0.020043924 -2.9598158E-13 0.3825146 0.9239495 255 255 255 255
0.002858066 -0.1625 -0.0068999943 -2.9598158E-13 0.3825146 0.9239495 255 255 255 255
0.011432299 -0.1125 -0.027599977 -2.9598158E-13 0.3825146 0.9239495 255 255 255 255
-0.0028580544 -0.1625 -0.0068999943 -2.9598158E-13 0.3825146 0.9239495 255 255 255 255
-0.0083024725 -0.13075131 -0.020043924 0.6533309 0.3825146 0.6533309 255 255 255 255
-0.0068999827 -0.1625 -0.002858066 0.6533309 0.3825146 0.6533309 255 255 255 255
-0.0028580544 -0.1625 -0.0068999943 0.6533309 0.3825146 0.6533309 255 255 255 255
-0.027599966 -0.1125 -0.011432299 0.6533309 0.3825146 0.6533309 255 255 255 255
-0.009084912 -0.12618849 -0.021932926 0.6533309 0.3825146 0.6533309 255 255 255 255
-0.011432287 -0.1125 -0.027599977 0.6533309 0.3825146 0.6533309 255 255 255 255
0.020043924 -0.13075131 -0.0083024725 0.02471851 0.7292013 -0.6838526 255 255 255 255
0.052965503 -0.10758746 0.017587446 0.02471851 0.7292013 -0.6838526 255 255 255 255
0.04087587 -0.13678959 -0.0139881745 0.02471851 0.7292013 -0.6838526 255 255 255 255
0.027599977 -0.1125 0.011432287 0.02471851 0.7292013 -0.6838526 255 255 255 255
-0.040875863 -0.13678959 0.013988162 -0.02471851 0.7292013 0.6838526 255 255 255 255
-0.027599966 -0.1125 -0.011432299 -0.02471851 0.7292013 0.6838526 255 255 255 255
-0.052965492 -0.10758746 -0.017587446 -0.02471851 0.7292013 0.6838526 255 255 255 255
-0.020043924 -0.13075131 0.0083024725 -0.02471851 0.7292013 0.6838526 255 255 255 255
-0.085664414 -0.16179863 0.037766773 -0.4533395 -0.03494948 -0.8906525 255 255 255 255
-0.042387053 -0.1331393 0.014614116 -0.4533395 -0.03494948 -0.8906525 255 255 255 255
-0.040875863 -0.13678959 0.013988162 -0.4533395 -0.03494948 -0.8906525 255 255 255 255
-0.052965492 -0.10758746 -0.017587446 0.9239495 0.3825146 1.559807E-13 255 255 255 255
-0.042387053 -0.1331393 0.014614116 0.9239495 0.3825146 1.559807E-13 255 255 255 255
-0.040875863 -0.13678959 0.013988162 0.9239495 0.3825146 1.559807E-13 255 255 255 255
-0.052965492 -0.10758746 -0.012881565 0.9239495 0.3825146 1.559807E-13 255 255 255 255
-0.042387053 -0.1331393 0.014614116 0.05780077 -0.7201146 -0.6914434 255 255 255 255
-0.052965492 -0.10758746 -0.012881565 0.05780077 -0.7201146 -0.6914434 255 255 255 255
-0.021932937 -0.12618849 0.009084912 0.05780077 -0.7201146 -0.6914434 255 255 255 255
-0.021932937 -0.12618849 0.009084912 0.05475183 -0.722523 -0.6891755 255 255 255 255
-0.052965492 -0.10758746 -0.012881565 0.05475183 -0.722523 -0.6891755 255 255 255 255
-0.027599966 -0.1125 -0.0057161436 0.05475183 -0.722523 -0.6891755 255 255 255 255
0.027599977 -0.1125 -0.011432299 -0.9239495 0.3825146 -1.555873E-13 255 255 255 255
0.021932926 -0.12618849 -0.009084923 -0.9239495 0.3825146 -1.555873E-13 255 255 255 255
0.027599977 -0.1125 0.005716132 -0.9239495 0.3825146 -1.555873E-13 255 255 255 255
0.021932926 -0.12618849 -0.009084923 0.2764644 0.05012007 0.9597163 255 255 255 255
0.04087587 -0.13678959 -0.0139881745 0.2764644 0.05012007 0.9597163 255 255 255 255
0.042387065 -0.1331393 -0.014614128 0.2764644 0.05012007 0.9597163 255 255 255 255
0.020043924 -0.13075131 -0.0083024725 0.2764644 0.05012007 0.9597163 255 255 255 255
-0.013988162 -0.13678959 -0.04087587 -0.6838526 0.7292013 -0.02471851 255 255 255 255
0.011432299 -0.1125 -0.027599977 -0.6838526 0.7292013 -0.02471851 255 255 255 255
0.017587446 -0.10758746 -0.052965503 -0.6838526 0.7292013 -0.02471851 255 255 255 255
-0.0083024725 -0.13075131 -0.020043924 -0.6838526 0.7292013 -0.02471851 255 255 255 255
-0.011432287 -0.1125 -0.027599977 -2.674061E-13 0.3825146 0.9239495 255 255 255 255
-0.009084912 -0.12618849 -0.021932926 -2.674061E-13 0.3825146 0.9239495 255 255 255 255
0.0057161436 -0.1125 -0.027599977 -2.674061E-13 0.3825146 0.9239495 255 255 255 255
-0.014614116 -0.1331393 -0.042387065 0.9597163 0.05012007 -0.2764644 255 255 255 255
-0.0083024725 -0.13075131 -0.020043924 0.9597163 0.05012007 -0.2764644 255 255 255 255
-0.013988162 -0.13678959 -0.04087587 0.9597163 0.05012007 -0.2764644 255 255 255 255
-0.009084912 -0.12618849 -0.021932926 0.9597163 0.05012007 -0.2764644 255 255 255 255
0.052965503 -0.10758746 0.012881553 0.1901364 -0.98175776 5.7398835E-14 255 255 255 255
0.027599977 -0.1125 0.011432287 0.1901364 -0.98175776 5.7398835E-14 255 255 255 255
0.027599977 -0.1125 0.005716132 0.1901364 -0.98175776 5.7398835E-14 255 255 255 255
0.052965503 -0.10758746 0.017587446 0.1901364 -0.98175776 5.7398835E-14 255 255 255 255
0.04087587 -0.13678959 -0.0139881745 0.04063988 0.7257502 -0.6867569 255 255 255 255
0.116493054 -0.08733327 0.04275099 0.04063988 0.7257502 -0.6867569 255 255 255 255
0.08566442 -0.16179863 -0.037766777 0.04063988 0.7257502 -0.6867569 255 255 255 255
0.052965503 -0.10758746 0.017587446 0.04063988 0.7257502 -0.6867569 255 255 255 255
0.052965503 -0.10758746 0.017587446 -0.9239495 0.3825146 -1.4376319E-13 255 255 255 255
0.042387065 -0.1331393 -0.014614128 -0.9239495 0.3825146 -1.4376319E-13 255 255 255 255
0.04087587 -0.13678959 -0.0139881745 -0.9239495 0.3825146 -1.4376319E-13 255 255 255 255
0.052965503 -0.10758746 0.012881553 -0.9239495 0.3825146 -1.4376319E-13 255 255 255 255
-0.027599966 -0.1125 -0.011432299 -0.1901364 -0.98175776 -4.6948068E-14 255 255 255 255
-0.052965492 -0.10758746 -0.012881565 -0.1901364 -0.98175776 -4.6948068E-14 255 255 255 255
-0.052965492 -0.10758746 -0.017587446 -0.1901364 -0.98175776 -4.6948068E-14 255 255 255 255
-0.027599966 -0.1125 -0.0057161436 -0.1901364 -0.98175776 -4.6948068E-14 255 255 255 255
-0.085664414 -0.16179863 0.037766773 -0.04063988 0.7257502 0.6867569 255 255 255 255
-0.052965492 -0.10758746 -0.017587446 -0.04063988 0.7257502 0.6867569 255 255 255 255
-0.116493054 -0.08733327 -0.042750996 -0.04063988 0.7257502 0.6867569 255 255 255 255
-0.040875863 -0.13678959 0.013988162 -0.04063988 0.7257502 0.6867569 255 255 255 255
-0.08651448 -0.15974537 0.03811887 -0.4533395 -0.03494948 -0.8906525 255 255 255 255
-0.042387053 -0.1331393 0.014614116 0.07329272 -0.7163377 -0.6938937 255 255 255 255
-0.116493054 -0.08733327 -0.04050099 0.07329272 -0.7163377 -0.6938937 255 255 255 255
-0.052965492 -0.10758746 -0.012881565 0.07329272 -0.7163377 -0.6938937 255 255 255 255
0.052965503 -0.10758746 0.012881553 -0.05475183 -0.722523 0.6891755 255 255 255 255
0.027599977 -0.1125 0.005716132 -0.05475183 -0.722523 0.6891755 255 255 255 255
0.021932926 -0.12618849 -0.009084923 -0.05475183 -0.722523 0.6891755 255 255 255 255
0.04087587 -0.13678959 -0.0139881745 0.4533395 -0.03494948 0.8906525 255 255 255 255
0.08566442 -0.16179863 -0.037766777 0.4533395 -0.03494948 0.8906525 255 255 255 255
0.042387065 -0.1331393 -0.014614128 0.4533395 -0.03494948 0.8906525 255 255 255 255
0.052965503 -0.10758746 0.012881553 -0.05780077 -0.7201146 0.6914434 255 255 255 255
0.021932926 -0.12618849 -0.009084923 -0.05780077 -0.7201146 0.6914434 255 255 255 255
0.042387065 -0.1331393 -0.014614128 -0.05780077 -0.7201146 0.6914434 255 255 255 255
0.017587446 -0.10758746 -0.052965503 7.89435E-14 -0.98175776 -0.1901364 255 255 255 255
0.0057161436 -0.1125 -0.027599977 7.89435E-14 -0.98175776 -0.1901364 255 255 255 255
0.012881565 -0.10758746 -0.052965503 7.89435E-14 -0.98175776 -0.1901364 255 255 255 255
0.011432299 -0.1125 -0.027599977 7.89435E-14 -0.98175776 -0.1901364 255 255 255 255
0.012881565 -0.10758746 -0.052965503 -1.559241E-13 0.3825146 0.9239495 255 255 255 255
-0.013988162 -0.13678959 -0.04087587 -1.559241E-13 0.3825146 0.9239495 255 255 255 255
0.017587446 -0.10758746 -0.052965503 -1.559241E-13 0.3825146 0.9239495 255 255 255 255
-0.014614116 -0.1331393 -0.042387065 -1.559241E-13 0.3825146 0.9239495 255 255 255 255
-0.037766773 -0.16179863 -0.08566442 -0.6867569 0.7257502 -0.04063988 255 255 255 255
0.017587446 -0.10758746 -0.052965503 -0.6867569 0.7257502 -0.04063988 255 255 255 255
0.042750996 -0.08733327 -0.116493054 -0.6867569 0.7257502 -0.04063988 255 255 255 255
-0.013988162 -0.13678959 -0.04087587 -0.6867569 0.7257502 -0.04063988 255 255 255 255
-0.009084912 -0.12618849 -0.021932926 0.6891755 -0.722523 0.05475183 255 255 255 255
0.012881565 -0.10758746 -0.052965503 0.6891755 -0.722523 0.05475183 255 255 255 255
0.0057161436 -0.1125 -0.027599977 0.6891755 -0.722523 0.05475183 255 255 255 255
-0.014614116 -0.1331393 -0.042387065 0.8906525 -0.03494948 -0.4533395 255 255 255 255
-0.013988162 -0.13678959 -0.04087587 0.8906525 -0.03494948 -0.4533395 255 255 255 255
-0.037766773 -0.16179863 -0.08566442 0.8906525 -0.03494948 -0.4533395 255 255 255 255
-0.009084912 -0.12618849 -0.021932926 0.6914434 -0.7201146 0.05780077 255 255 255 255
-0.014614116 -0.1331393 -0.042387065 0.6914434 -0.7201146 0.05780077 255 255 255 255
0.012881565 -0.10758746 -0.052965503 0.6914434 -0.7201146 0.05780077 255 255 255 255
0.116493054 -0.08733327 0.04275099 0.3037606 -0.9527484 1.329959E-13 255 255 255 255
0.052965503 -0.10758746 0.017587446 0.3037606 -0.9527484 1.329959E-13 255 255 255 255
0.052965503 -0.10758746 0.012881553 0.3037606 -0.9527484 1.329959E-13 255 255 255 255
0.104456246 -0.15562189 -0.02494026 0.2678937 0.6540331 -0.7074416 255 255 255 255
0.116493054 -0.08733327 0.04275099 0.2678937 0.6540331 -0.7074416 255 255 255 255
0.1254197 -0.10498543 0.029811822 0.2678937 0.6540331 -0.7074416 255 255 255 255
0.08566442 -0.16179863 -0.037766777 0.2678937 0.6540331 -0.7074416 255 255 255 255
-0.052965492 -0.10758746 -0.012881565 -0.3037606 -0.9527484 -1.370126E-13 255 255 255 255
-0.116493054 -0.08733327 -0.042750996 -0.3037606 -0.9527484 -1.370126E-13 255 255 255 255
-0.052965492 -0.10758746 -0.017587446 -0.3037606 -0.9527484 -1.370126E-13 255 255 255 255
-0.116493054 -0.08733327 -0.042750996 -0.2678937 0.6540331 0.7074416 255 255 255 255
-0.104456246 -0.15562189 0.024940249 -0.2678937 0.6540331 0.7074416 255 255 255 255
-0.085664414 -0.16179863 0.037766773 -0.2678937 0.6540331 0.7074416 255 255 255 255
-0.1254197 -0.10498543 -0.029811827 -0.2678937 0.6540331 0.7074416 255 255 255 255
-0.08651448 -0.15974537 0.03811887 0.06731853 -0.7209581 -0.6897011 255 255 255 255
-0.116493054 -0.08733327 -0.04050099 0.06731853 -0.7209581 -0.6897011 255 255 255 255
-0.042387053 -0.1331393 0.014614116 0.06731853 -0.7209581 -0.6897011 255 255 255 255
-0.104456246 -0.15562189 0.024940249 0.60362214 0.37092113 -0.70573205 255 255 255 255
-0.08651448 -0.15974537 0.03811887 0.60362214 0.37092113 -0.70573205 255 255 255 255
-0.085664414 -0.16179863 0.037766773 0.60362214 0.37092113 -0.70573205 255 255 255 255
-0.10503429 -0.15422566 0.025179703 0.60362214 0.37092113 -0.70573205 255 255 255 255
-0.116493054 -0.08733327 -0.04050099 -0.3037606 -0.9527484 -1.828195E-13 255 255 255 255
0.08651448 -0.15974537 -0.03811887 0.4533395 -0.03494948 0.8906525 255 255 255 255
0.116493054 -0.08733327 0.040500984 -0.07329272 -0.7163377 0.6938937 255 255 255 255
0.052965503 -0.10758746 0.012881553 -0.07329272 -0.7163377 0.6938937 255 255 255 255
0.042387065 -0.1331393 -0.014614128 -0.07329272 -0.7163377 0.6938937 255 255 255 255
0.017587446 -0.10758746 -0.052965503 1.36994E-13 -0.9527484 -0.3037606 255 255 255 255
0.012881565 -0.10758746 -0.052965503 1.36994E-13 -0.9527484 -0.3037606 255 255 255 255
0.042750996 -0.08733327 -0.116493054 1.36994E-13 -0.9527484 -0.3037606 255 255 255 255
0.042750996 -0.08733327 -0.116493054 -0.7074416 0.6540331 -0.2678937 255 255 255 255
-0.024940249 -0.15562189 -0.104456246 -0.7074416 0.6540331 -0.2678937 255 255 255 255
-0.037766773 -0.16179863 -0.08566442 -0.7074416 0.6540331 -0.2678937 255 255 255 255
0.029811827 -0.10498543 -0.1254197 -0.7074416 0.6540331 -0.2678937 255 255 255 255
-0.03811887 -0.15974537 -0.08651448 0.8906525 -0.03494948 -0.4533395 255 255 255 255
-0.014614116 -0.1331393 -0.042387065 0.6938937 -0.7163377 0.07329272 255 255 255 255
0.04050099 -0.08733327 -0.116493054 0.6938937 -0.7163377 0.07329272 255 255 255 255
0.012881565 -0.10758746 -0.052965503 0.6938937 -0.7163377 0.07329272 255 255 255 255
0.116493054 -0.08733327 0.040500984 0.3037606 -0.9527484 1.788029E-13 255 255 255 255
0.08651448 -0.15974537 -0.03811887 -0.60362214 0.37092113 0.70573205 255 255 255 255
0.104456246 -0.15562189 -0.02494026 -0.60362214 0.37092113 0.70573205 255 255 255 255
0.10503428 -0.15422566 -0.025179692 -0.60362214 0.37092113 0.70573205 255 255 255 255
0.08566442 -0.16179863 -0.037766777 -0.60362214 0.37092113 0.70573205 255 255 255 255
0.116493054 -0.08733327 0.04275099 -0.8923842 -0.4512764 -3.778161E-13 255 255 255 255
0.1254197 -0.10498543 0.028281799 -0.8923842 -0.4512764 -3.778161E-13 255 255 255 255
0.1254197 -0.10498543 0.029811822 -0.8923842 -0.4512764 -3.778161E-13 255 255 255 255
0.116493054 -0.08733327 0.040500984 -0.8923842 -0.4512764 -3.778161E-13 255 255 255 255
0.1254197 -0.10498543 0.029811822 -0.9239495 0.3825146 -6.396315E-13 255 255 255 255
0.10503428 -0.15422566 -0.025179692 -0.9239495 0.3825146 -6.396315E-13 255 255 255 255
0.104456246 -0.15562189 -0.02494026 -0.9239495 0.3825146 -6.396315E-13 255 255 255 255
0.1254197 -0.10498543 0.028281799 -0.9239495 0.3825146 -6.396315E-13 255 255 255 255
-0.116493054 -0.08733327 -0.042750996 0.8923842 -0.4512764 3.896162E-13 255 255 255 255
-0.1254197 -0.10498543 -0.02828181 0.8923842 -0.4512764 3.896162E-13 255 255 255 255
-0.1254197 -0.10498543 -0.029811827 0.8923842 -0.4512764 3.896162E-13 255 255 255 255
-0.116493054 -0.08733327 -0.04050099 0.8923842 -0.4512764 3.896162E-13 255 255 255 255
-0.1254197 -0.10498543 -0.029811827 0.9239495 0.3825146 6.5184885E-13 255 255 255 255
-0.10503429 -0.15422566 0.025179703 0.9239495 0.3825146 6.5184885E-13 255 255 255 255
-0.104456246 -0.15562189 0.024940249 0.9239495 0.3825146 6.5184885E-13 255 255 255 255
-0.1254197 -0.10498543 -0.02828181 0.9239495 0.3825146 6.5184885E-13 255 255 255 255
-0.10503429 -0.15422566 0.025179703 0.30189943 -0.64109266 -0.70558983 255 255 255 255
-0.116493054 -0.08733327 -0.04050099 0.30189943 -0.64109266 -0.70558983 255 255 255 255
-0.08651448 -0.15974537 0.03811887 0.30189943 -0.64109266 -0.70558983 255 255 255 255
-0.1254197 -0.10498543 -0.02828181 0.30189943 -0.64109266 -0.70558983 255 255 255 255
0.116493054 -0.08733327 0.040500984 -0.06731853 -0.7209581 0.6897011 255 255 255 255
0.042387065 -0.1331393 -0.014614128 -0.06731853 -0.7209581 0.6897011 255 255 255 255
0.08651448 -0.15974537 -0.03811887 -0.06731853 -0.7209581 0.6897011 255 255 255 255
0.04050099 -0.08733327 -0.116493054 1.828009E-13 -0.9527484 -0.3037606 255 255 255 255
-0.024940249 -0.15562189 -0.104456246 0.70573205 0.37092113 0.60362214 255 255 255 255
-0.03811887 -0.15974537 -0.08651448 0.70573205 0.37092113 0.60362214 255 255 255 255
-0.037766773 -0.16179863 -0.08566442 0.70573205 0.37092113 0.60362214 255 255 255 255
-0.025179703 -0.15422566 -0.10503428 0.70573205 0.37092113 0.60362214 255 255 255 255
0.04050099 -0.08733327 -0.116493054 -3.895616E-13 -0.4512764 0.8923842 255 255 255 255
0.029811827 -0.10498543 -0.1254197 -3.895616E-13 -0.4512764 0.8923842 255 255 255 255
0.042750996 -0.08733327 -0.116493054 -3.895616E-13 -0.4512764 0.8923842 255 255 255 255
0.02828181 -0.10498543 -0.1254197 -3.895616E-13 -0.4512764 0.8923842 255 255 255 255
0.02828181 -0.10498543 -0.1254197 -6.5179237E-13 0.3825146 0.9239495 255 255 255 255
-0.024940249 -0.15562189 -0.104456246 -6.5179237E-13 0.3825146 0.9239495 255 255 255 255
0.029811827 -0.10498543 -0.1254197 -6.5179237E-13 0.3825146 0.9239495 255 255 255 255
-0.025179703 -0.15422566 -0.10503428 -6.5179237E-13 0.3825146 0.9239495 255 255 255 255
-0.014614116 -0.1331393 -0.042387065 0.6897011 -0.7209581 0.06731853 255 255 255 255
-0.03811887 -0.15974537 -0.08651448 0.6897011 -0.7209581 0.06731853 255 255 255 255
0.04050099 -0.08733327 -0.116493054 0.6897011 -0.7209581 0.06731853 255 255 255 255
0.116493054 -0.08733327 0.040500984 -0.30189943 -0.64109266 0.70558983 255 255 255 255
0.10503428 -0.15422566 -0.025179692 -0.30189943 -0.64109266 0.70558983 255 255 255 255
0.1254197 -0.10498543 0.028281799 -0.30189943 -0.64109266 0.70558983 255 255 255 255
0.08651448 -0.15974537 -0.03811887 -0.30189943 -0.64109266 0.70558983 255 255 255 255
-0.025179703 -0.15422566 -0.10503428 0.70558983 -0.64109266 0.30189943 255 255 255 255
0.04050099 -0.08733327 -0.116493054 0.70558983 -0.64109266 0.30189943 255 255 255 255
-0.03811887 -0.15974537 -0.08651448 0.70558983 -0.64109266 0.30189943 255 255 255 255
0.02828181 -0.10498543 -0.1254197 0.70558983 -0.64109266 0.30189943 255 255 255 255
-0.027599966 -0.1125 -0.011432299 0 1 -0 255 255 255 255
0.0057161436 -0.1125 -0.027599977 0 1 -0 255 255 255 255
-0.011432287 -0.1125 -0.027599977 0 1 -0 255 255 255 255
0.011432299 -0.1125 -0.027599977 0 1 -0 255 255 255 255
0.027599977 -0.1125 -0.011432299 0 1 -0 255 255 255 255
-0.027599966 -0.1125 -0.0057161436 0 1 -0 255 255 255 255
0.027599977 -0.1125 0.005716132 0 1 -0 255 255 255 255
-0.027599966 -0.1125 0.011432287 0 1 -0 255 255 255 255
0.027599977 -0.1125 0.011432287 0 1 -0 255 255 255 255
-0.011432287 -0.1125 0.027599966 0 1 -0 255 255 255 255
-0.005716132 -0.1125 0.027599966 0 1 -0 255 255 255 255
0.011432299 -0.1125 0.027599966 0 1 -0 255 255 255 255
3 0 1 2
3 1 0 3
3 4 5 6
3 5 4 7
3 8 9 10
3 9 8 11
3 12 13 14
3 13 12 15
3 16 17 18
3 17 16 19
3 20 21 22
3 23 24 25
3 24 23 26
3 27 28 29
3 30 31 32
3 31 30 33
3 34 35 36
3 35 34 37
3 38 39 40
3 39 38 41
3 42 43 44
3 43 42 45
3 20 22 46
3 47 48 49
3 48 47 50
3 51 52 53
3 52 51 54
3 55 56 57
3 56 55 58
3 27 29 59
3 60 61 62
3 63 64 65
3 64 63 66
3 66 63 67
3 66 67 68
3 69 70 71
3 70 69 72
3 72 69 73
3 72 73 74
3 75 76 77
3 76 75 78
3 78 75 79
3 79 75 80
3 79 80 81
3 81 80 82
3 81 82 83
3 81 83 84
3 85 86 87
3 88 89 90
3 91 92 93
3 92 91 94
3 95 96 97
3 98 99 100
3 101 102 103
3 102 101 104
3 104 101 105
3 106 107 108
3 107 106 109
3 109 106 110
3 111 112 113
3 112 111 114
3 115 116 117
3 118 119 120
3 119 118 121
3 121 118 122
3 121 122 123
3 124 125 126
3 125 124 127
3 128 129 130
3 129 128 131
3 131 128 132
3 131 132 133
3 134 135 136
3 135 134 137
3 138 139 140
3 139 138 141
3 142 143 144
3 145 146 147
3 146 145 148
3 149 150 151
3 152 153 154
3 155 156 157
3 158 159 160
3 159 158 161
3 162 163 164
3 163 162 165
3 166 167 168
3 169 170 171
3 170 169 172
3 173 174 175
3 174 173 176
3 177 178 179
3 178 177 180
3 181 182 183
3 182 181 184
3 185 186 187
3 186 185 188
3 189 190 191
3 190 189 192
3 193 143 142
3 194 195 196
3 197 198 199
3 200 201 202
3 203 204 205
3 206 207 208
3 207 206 209
3 210 211 212
3 211 210 213
3 214 215 216
3 215 214 217
3 218 219 220
3 221 222 223
3 224 225 226
3 227 228 229
3 230 231 232
3 231 230 233
3 234 235 236
3 237 238 239
3 238 237 240
3 241 242 243
3 244 245 246
3 245 244 247
3 234 248 235
3 202 201 249
3 250 251 252
3 253 254 255
3 256 257 258
3 257 256 259
3 221 223 260
3 261 262 263
3 227 229 264
3 265 266 267
3 266 265 268
3 269 270 271
3 270 269 272
3 273 274 275
3 274 273 276
3 277 278 279
3 278 277 280
3 281 282 283
3 282 281 284
3 285 286 287
3 286 285 288
3 289 290 291
3 254 292 255
3 293 294 295
3 294 293 296
3 297 298 299
3 298 297 300
3 301 302 303
3 302 301 304
3 305 306 307
3 308 309 310
3 309 308 311
3 312 313 314
3 313 312 315
3 316 317 318
3 317 316 319
3 319 316 320
3 320 316 321
3 320 321 322
3 322 321 323
3 322 323 324
3 324 323 325
3 324 325 326
3 327 324 326

