ply
format ascii 1.0
commentY29udmVydGVyIGJ5IENvZGVMZW9wYXJk
comment Original mesh name: 'C:\Program Files (x86)\Steam\steamapps\common\Stormworks\rom\meshes\component_gate_multiply.mesh'
comment SubMesh index: 0
comment SubMesh name: 'ID2'
comment Shader: Opaque (0)
element vertex 172
property float x
property float y
property float z
property float nx
property float ny
property float nz
property uchar red
property uchar green
property uchar blue
property uchar alpha
element face 138
property list uchar ushort vertex_index
end_header
0.105 -0.105 -0.05499999 -0.70710677 1.6023739E-30 -0.70710677 86 86 86 255
0.125 0.37499997 -0.074999996 -0.70710677 1.6023739E-30 -0.70710677 86 86 86 255
0.125 -0.125 -0.074999996 -0.70710677 1.6023739E-30 -0.70710677 86 86 86 255
0.105 0.35500005 -0.05499999 -0.70710677 1.6023739E-30 -0.70710677 86 86 86 255
0.125 0.37499997 -0.074999996 -1 -0 -0 86 86 86 255
0.125 -0.125 -0.125 -1 -0 -0 86 86 86 255
0.125 -0.125 -0.074999996 -1 -0 -0 86 86 86 255
0.125 0.37499997 -0.125 -1 -0 -0 86 86 86 255
-0.35500005 -0.105 -0.05499999 8.777824E-19 0.70710677 -0.70710677 86 86 86 255
0.125 -0.125 -0.074999996 8.777824E-19 0.70710677 -0.70710677 86 86 86 255
-0.37499997 -0.125 -0.074999996 8.777824E-19 0.70710677 -0.70710677 86 86 86 255
0.105 -0.105 -0.05499999 8.777824E-19 0.70710677 -0.70710677 86 86 86 255
0.105 0.35500005 -0.05499999 8.777824E-19 -0.70710677 -0.70710677 86 86 86 255
-0.37499997 0.37499997 -0.074999996 8.777824E-19 -0.70710677 -0.70710677 86 86 86 255
0.125 0.37499997 -0.074999996 8.777824E-19 -0.70710677 -0.70710677 86 86 86 255
-0.35500005 0.35500005 -0.05499999 8.777824E-19 -0.70710677 -0.70710677 86 86 86 255
0.125 0.37499997 -0.074999996 0 -1 -0 86 86 86 255
-0.37499997 0.37499997 -0.125 0 -1 -0 86 86 86 255
0.125 0.37499997 -0.125 0 -1 -0 86 86 86 255
-0.37499997 0.37499997 -0.074999996 0 -1 -0 86 86 86 255
-0.37499997 -0.125 -0.074999996 0 1 -0 86 86 86 255
0.125 -0.125 -0.125 0 1 -0 86 86 86 255
-0.37499997 -0.125 -0.125 0 1 -0 86 86 86 255
0.125 -0.125 -0.074999996 0 1 -0 86 86 86 255
-0.37499997 -0.125 -0.074999996 0.70710677 -1.6023739E-30 -0.70710677 86 86 86 255
-0.35500005 0.35500005 -0.05499999 0.70710677 -1.6023739E-30 -0.70710677 86 86 86 255
-0.35500005 -0.105 -0.05499999 0.70710677 -1.6023739E-30 -0.70710677 86 86 86 255
-0.37499997 0.37499997 -0.074999996 0.70710677 -1.6023739E-30 -0.70710677 86 86 86 255
-0.37499997 0.37499997 -0.125 1 -0 -0 86 86 86 255
-0.37499997 -0.125 -0.074999996 1 -0 -0 86 86 86 255
-0.37499997 -0.125 -0.125 1 -0 -0 86 86 86 255
-0.37499997 0.37499997 -0.074999996 1 -0 -0 86 86 86 255
0.105 0.35500005 0.074999996 0 -1 -0 255 125 0 255
-0.35500005 0.35500005 -0.05499999 0 -1 -0 255 125 0 255
0.105 0.35500005 -0.05499999 0 -1 -0 255 125 0 255
-0.35500005 0.35500005 0.074999996 0 -1 -0 255 125 0 255
0.105 0.35500005 0.074999996 -1 -0 -0 255 125 0 255
0.105 -0.105 -0.05499999 -1 -0 -0 255 125 0 255
0.105 -0.105 0.074999996 -1 -0 -0 255 125 0 255
0.105 0.35500005 -0.05499999 -1 -0 -0 255 125 0 255
0.07969999 0.32969984 0.094999984 1.233755E-18 -0.62014675 -0.78448576 255 125 0 255
-0.35500005 0.35500005 0.074999996 1.233755E-18 -0.62014675 -0.78448576 255 125 0 255
0.105 0.35500005 0.074999996 1.233755E-18 -0.62014675 -0.78448576 255 125 0 255
-0.32969984 0.32969984 0.094999984 1.233755E-18 -0.62014675 -0.78448576 255 125 0 255
-0.35500005 0.35500005 -0.05499999 1 -0 -0 255 125 0 255
-0.35500005 -0.105 0.074999996 1 -0 -0 255 125 0 255
-0.35500005 -0.105 -0.05499999 1 -0 -0 255 125 0 255
-0.35500005 0.35500005 0.074999996 1 -0 -0 255 125 0 255
-0.35500005 -0.105 0.074999996 0 1 -0 255 125 0 255
0.105 -0.105 -0.05499999 0 1 -0 255 125 0 255
-0.35500005 -0.105 -0.05499999 0 1 -0 255 125 0 255
0.105 -0.105 0.074999996 0 1 -0 255 125 0 255
0.07969999 -0.07969999 0.094999984 -0.62014675 -3.4204017E-19 -0.78448576 255 125 0 255
0.105 0.35500005 0.074999996 -0.62014675 -3.4204017E-19 -0.78448576 255 125 0 255
0.105 -0.105 0.074999996 -0.62014675 -3.4204017E-19 -0.78448576 255 125 0 255
0.07969999 0.32969984 0.094999984 -0.62014675 -3.4204017E-19 -0.78448576 255 125 0 255
-0.105 0.20499998 0.094999984 2.3477072E-32 1.755846E-31 -1 255 125 0 255
-0.005 0.20699997 0.094999984 2.3477072E-32 1.755846E-31 -1 255 125 0 255
-0.005 0.20499998 0.094999984 2.3477072E-32 1.755846E-31 -1 255 125 0 255
-0.024999999 0.20699997 0.094999984 2.3477072E-32 1.755846E-31 -1 255 125 0 255
-0.024999999 0.32700008 0.094999984 2.3477072E-32 1.755846E-31 -1 255 125 0 255
-0.14499998 0.175 0.094999984 2.3477072E-32 1.755846E-31 -1 255 125 0 255
-0.105 0.175 0.094999984 2.3477072E-32 1.755846E-31 -1 255 125 0 255
-0.24499997 0.20499998 0.094999984 2.3477072E-32 1.755846E-31 -1 255 125 0 255
-0.225 0.20699997 0.094999984 2.3477072E-32 1.755846E-31 -1 255 125 0 255
-0.14499998 0.20499998 0.094999984 2.3477072E-32 1.755846E-31 -1 255 125 0 255
-0.24499997 0.20699997 0.094999984 2.3477072E-32 1.755846E-31 -1 255 125 0 255
0.07969999 -0.07969999 0.094999984 2.3477072E-32 1.755846E-31 -1 255 125 0 255
0.024999999 -0.07699999 0.094999984 2.3477072E-32 1.755846E-31 -1 255 125 0 255
0.07969999 0.32969984 0.094999984 2.3477072E-32 1.755846E-31 -1 255 125 0 255
-0.32969984 -0.07969999 0.094999984 2.3477072E-32 1.755846E-31 -1 255 125 0 255
0.024999999 0.20699997 0.094999984 2.3477072E-32 1.755846E-31 -1 255 125 0 255
-0.024999999 -0.07699999 0.094999984 2.3477072E-32 1.755846E-31 -1 255 125 0 255
-0.024999999 0.04299999 0.094999984 2.3477072E-32 1.755846E-31 -1 255 125 0 255
-0.13 0.04500001 0.094999984 2.3477072E-32 1.755846E-31 -1 255 125 0 255
-0.13 0.074999996 0.094999984 2.3477072E-32 1.755846E-31 -1 255 125 0 255
-0.175 0.074999996 0.094999984 2.3477072E-32 1.755846E-31 -1 255 125 0 255
-0.175 0.175 0.094999984 2.3477072E-32 1.755846E-31 -1 255 125 0 255
-0.25499997 0.19499998 0.094999984 2.3477072E-32 1.755846E-31 -1 255 125 0 255
-0.25499997 0.20699997 0.094999984 2.3477072E-32 1.755846E-31 -1 255 125 0 255
-0.27499992 0.20699997 0.094999984 2.3477072E-32 1.755846E-31 -1 255 125 0 255
-0.27499992 0.32700008 0.094999984 2.3477072E-32 1.755846E-31 -1 255 125 0 255
0.024999999 0.32700008 0.094999984 2.3477072E-32 1.755846E-31 -1 255 125 0 255
-0.32969984 0.32969984 0.094999984 2.3477072E-32 1.755846E-31 -1 255 125 0 255
-0.225 0.32700008 0.094999984 2.3477072E-32 1.755846E-31 -1 255 125 0 255
-0.15499999 0.19499998 0.094999984 2.3477072E-32 1.755846E-31 -1 255 125 0 255
-0.15499999 0.175 0.094999984 2.3477072E-32 1.755846E-31 -1 255 125 0 255
-0.005 0.04500001 0.094999984 2.3477072E-32 1.755846E-31 -1 255 125 0 255
-0.005 0.04299999 0.094999984 2.3477072E-32 1.755846E-31 -1 255 125 0 255
-0.11999998 0.05499999 0.094999984 2.3477072E-32 1.755846E-31 -1 255 125 0 255
-0.074999996 0.074999996 0.094999984 2.3477072E-32 1.755846E-31 -1 255 125 0 255
0.005 0.05499999 0.094999984 2.3477072E-32 1.755846E-31 -1 255 125 0 255
-0.11999998 0.074999996 0.094999984 2.3477072E-32 1.755846E-31 -1 255 125 0 255
0.005 0.04299999 0.094999984 2.3477072E-32 1.755846E-31 -1 255 125 0 255
0.005 0.19499998 0.094999984 2.3477072E-32 1.755846E-31 -1 255 125 0 255
0.024999999 0.04299999 0.094999984 2.3477072E-32 1.755846E-31 -1 255 125 0 255
-0.074999996 0.175 0.094999984 2.3477072E-32 1.755846E-31 -1 255 125 0 255
-0.094999984 0.19499998 0.094999984 2.3477072E-32 1.755846E-31 -1 255 125 0 255
-0.094999984 0.175 0.094999984 2.3477072E-32 1.755846E-31 -1 255 125 0 255
0.005 0.20699997 0.094999984 2.3477072E-32 1.755846E-31 -1 255 125 0 255
-0.35500005 -0.105 0.074999996 0.62014675 -3.4204017E-19 -0.78448576 255 125 0 255
-0.32969984 0.32969984 0.094999984 0.62014675 -3.4204017E-19 -0.78448576 255 125 0 255
-0.32969984 -0.07969999 0.094999984 0.62014675 -3.4204017E-19 -0.78448576 255 125 0 255
-0.35500005 0.35500005 0.074999996 0.62014675 -3.4204017E-19 -0.78448576 255 125 0 255
-0.35500005 -0.105 0.074999996 -3.5422235E-18 0.62014675 -0.78448576 255 125 0 255
0.07969999 -0.07969999 0.094999984 -3.5422235E-18 0.62014675 -0.78448576 255 125 0 255
0.105 -0.105 0.074999996 -3.5422235E-18 0.62014675 -0.78448576 255 125 0 255
-0.32969984 -0.07969999 0.094999984 -3.5422235E-18 0.62014675 -0.78448576 255 125 0 255
-0.24499997 0.20699997 0.094999984 0 -0 -1 86 86 86 255
-0.225 0.32700008 0.094999984 0 -0 -1 86 86 86 255
-0.225 0.20699997 0.094999984 0 -0 -1 86 86 86 255
-0.27499992 0.32700008 0.094999984 0 -0 -1 86 86 86 255
-0.25499997 0.20699997 0.094999984 0 -0 -1 86 86 86 255
-0.27499992 0.20699997 0.094999984 0 -0 -1 86 86 86 255
-0.15499999 0.175 0.094999984 0 -0 -1 86 86 86 255
-0.14499998 0.20499998 0.094999984 0 -0 -1 86 86 86 255
-0.14499998 0.175 0.094999984 0 -0 -1 86 86 86 255
-0.15499999 0.19499998 0.094999984 0 -0 -1 86 86 86 255
-0.24499997 0.20499998 0.094999984 0 -0 -1 86 86 86 255
-0.25499997 0.19499998 0.094999984 0 -0 -1 86 86 86 255
-0.11166665 0.125 0.094999984 0 -0 -1 86 86 86 255
-0.085 0.14499998 0.094999984 0 -0 -1 86 86 86 255
-0.085 0.105 0.094999984 0 -0 -1 86 86 86 255
-0.074999996 0.074999996 0.094999984 0 -0 -1 86 86 86 255
-0.085 0.085 0.094999984 0 -0 -1 86 86 86 255
-0.074999996 0.175 0.094999984 0 -0 -1 86 86 86 255
-0.11999998 0.074999996 0.094999984 0 -0 -1 86 86 86 255
-0.125 0.114999995 0.094999984 0 -0 -1 86 86 86 255
-0.13 0.074999996 0.094999984 0 -0 -1 86 86 86 255
-0.16499999 0.085 0.094999984 0 -0 -1 86 86 86 255
-0.175 0.074999996 0.094999984 0 -0 -1 86 86 86 255
-0.16499999 0.105 0.094999984 0 -0 -1 86 86 86 255
-0.16499999 0.14499998 0.094999984 0 -0 -1 86 86 86 255
-0.16499999 0.16499999 0.094999984 0 -0 -1 86 86 86 255
-0.085 0.16499999 0.094999984 0 -0 -1 86 86 86 255
-0.094999984 0.175 0.094999984 0 -0 -1 86 86 86 255
-0.125 0.135 0.094999984 0 -0 -1 86 86 86 255
-0.105 0.175 0.094999984 0 -0 -1 86 86 86 255
-0.175 0.175 0.094999984 0 -0 -1 86 86 86 255
-0.13833332 0.125 0.094999984 0 -0 -1 86 86 86 255
-0.005 0.20699997 0.094999984 0 -0 -1 86 86 86 255
0.005 0.20699997 0.094999984 0 -0 -1 86 86 86 255
-0.005 0.20499998 0.094999984 0 -0 -1 86 86 86 255
-0.094999984 0.19499998 0.094999984 0 -0 -1 86 86 86 255
0.005 0.19499998 0.094999984 0 -0 -1 86 86 86 255
-0.105 0.20499998 0.094999984 0 -0 -1 86 86 86 255
-0.005 0.04299999 0.094999984 0 -0 -1 86 86 86 255
0.005 0.05499999 0.094999984 0 -0 -1 86 86 86 255
0.005 0.04299999 0.094999984 0 -0 -1 86 86 86 255
-0.005 0.04500001 0.094999984 0 -0 -1 86 86 86 255
-0.11999998 0.05499999 0.094999984 0 -0 -1 86 86 86 255
-0.13 0.04500001 0.094999984 0 -0 -1 86 86 86 255
0.024999999 0.32700008 0.094999984 0 -0 -1 86 86 86 255
0.024999999 0.20699997 0.094999984 0 -0 -1 86 86 86 255
-0.024999999 0.32700008 0.094999984 0 -0 -1 86 86 86 255
-0.024999999 0.20699997 0.094999984 0 -0 -1 86 86 86 255
-0.024999999 -0.07699999 0.094999984 0 -0 -1 86 86 86 255
0.024999999 0.04299999 0.094999984 0 -0 -1 86 86 86 255
0.024999999 -0.07699999 0.094999984 0 -0 -1 86 86 86 255
-0.024999999 0.04299999 0.094999984 0 -0 -1 86 86 86 255
-0.125 0.114999995 0.094999984 0 -0 -1 199 199 199 255
-0.085 0.105 0.094999984 0 -0 -1 199 199 199 255
-0.085 0.085 0.094999984 0 -0 -1 199 199 199 255
-0.11166665 0.125 0.094999984 0 -0 -1 199 199 199 255
-0.085 0.16499999 0.094999984 0 -0 -1 199 199 199 255
-0.085 0.14499998 0.094999984 0 -0 -1 199 199 199 255
-0.125 0.135 0.094999984 0 -0 -1 199 199 199 255
-0.16499999 0.085 0.094999984 0 -0 -1 199 199 199 255
-0.13833332 0.125 0.094999984 0 -0 -1 199 199 199 255
-0.16499999 0.105 0.094999984 0 -0 -1 199 199 199 255
-0.16499999 0.16499999 0.094999984 0 -0 -1 199 199 199 255
-0.16499999 0.14499998 0.094999984 0 -0 -1 199 199 199 255
3 0 1 2
3 1 0 3
3 4 5 6
3 5 4 7
3 8 9 10
3 9 8 11
3 12 13 14
3 13 12 15
3 16 17 18
3 17 16 19
3 20 21 22
3 21 20 23
3 24 25 26
3 25 24 27
3 28 29 30
3 29 28 31
3 32 33 34
3 33 32 35
3 36 37 38
3 37 36 39
3 40 41 42
3 41 40 43
3 44 45 46
3 45 44 47
3 48 49 50
3 49 48 51
3 52 53 54
3 53 52 55
3 56 57 58
3 57 56 59
3 59 56 60
3 61 56 62
3 63 64 65
3 64 63 66
3 67 68 69
3 68 67 70
3 69 68 71
3 68 70 72
3 72 70 73
3 73 70 74
3 74 70 75
3 75 70 76
3 76 70 77
3 77 70 78
3 78 70 79
3 79 70 80
3 80 70 81
3 69 82 83
3 82 69 71
3 83 82 60
3 83 60 84
3 84 60 56
3 84 56 65
3 65 56 61
3 84 65 64
3 83 84 81
3 83 81 70
3 77 85 86
3 85 77 78
3 73 87 88
3 87 73 74
3 89 90 91
3 90 89 92
3 93 94 95
3 94 93 91
3 94 91 96
3 94 96 97
3 96 91 90
3 97 96 98
3 71 95 99
3 95 71 68
3 99 95 94
3 100 101 102
3 101 100 103
3 104 105 106
3 105 104 107
3 108 109 110
3 109 108 111
3 111 108 112
3 111 112 113
3 114 115 116
3 115 114 117
3 115 117 118
3 118 117 119
3 118 119 108
3 108 119 112
3 120 121 122
3 123 124 125
3 124 123 126
3 124 126 127
3 127 126 128
3 127 128 129
3 129 128 130
3 129 130 131
3 131 130 132
3 132 130 133
3 125 134 135
3 134 125 124
3 134 124 122
3 134 122 121
3 135 134 136
3 135 136 137
3 137 136 116
3 116 136 133
3 116 133 114
3 114 133 138
3 138 133 130
3 132 139 131
3 140 141 142
3 137 143 135
3 144 142 141
3 142 144 143
3 142 143 145
3 145 143 137
3 146 147 148
3 147 146 149
3 147 149 150
3 150 149 151
3 150 151 126
3 126 151 128
3 141 152 153
3 152 141 154
3 154 141 140
3 154 140 155
3 156 157 158
3 157 156 148
3 148 156 146
3 146 156 159
3 160 161 162
3 161 160 163
3 163 164 165
3 164 163 166
3 166 163 160
3 166 160 167
3 166 167 168
3 168 167 169
3 168 170 166
3 170 168 171

