ply
format ascii 1.0
commentY29udmVydGVyIGJ5IENvZGVMZW9wYXJk
comment Original mesh name: 'C:\Program Files (x86)\Steam\steamapps\common\Stormworks\rom\meshes\component_searchlight_dynamic.mesh'
comment SubMesh index: 2
comment SubMesh name: 'ID50'
comment Shader: Opaque (0)
element vertex 422
property float x
property float y
property float z
property float nx
property float ny
property float nz
property uchar red
property uchar green
property uchar blue
property uchar alpha
element face 230
property list uchar ushort vertex_index
end_header
0.2999999 0.37499997 -0.12426399 -1.387779E-16 -1 -0 255 255 0 255
-0.12426416 0.37499997 -0.2999999 -1.387779E-16 -1 -0 255 255 0 255
0.12426399 0.37499997 -0.2999999 -1.387779E-16 -1 -0 255 255 0 255
-0.30000013 0.37499997 -0.12426399 -1.387779E-16 -1 -0 255 255 0 255
-0.30000013 0.37499997 0.12426416 -1.387779E-16 -1 -0 255 255 0 255
0.2999999 0.37499997 0.12426416 -1.387779E-16 -1 -0 255 255 0 255
0.12426399 0.37499997 0.30000013 -1.387779E-16 -1 -0 255 255 0 255
-0.12426416 0.37499997 0.30000013 -1.387779E-16 -1 -0 255 255 0 255
0.30000013 0.37199977 -0.12426424 -1.387779E-16 -1 -0 109 160 199 207
-0.124263905 0.37199977 -0.30000013 -1.387779E-16 -1 -0 109 160 199 207
0.12426424 0.37199977 -0.30000013 -1.387779E-16 -1 -0 109 160 199 207
-0.29999986 0.37199977 -0.12426424 -1.387779E-16 -1 -0 109 160 199 207
-0.29999986 0.37199977 0.124263905 -1.387779E-16 -1 -0 109 160 199 207
0.30000013 0.37199977 0.124263905 -1.387779E-16 -1 -0 109 160 199 207
0.12426424 0.37199977 0.29999986 -1.387779E-16 -1 -0 109 160 199 207
-0.124263905 0.37199977 0.29999986 -1.387779E-16 -1 -0 109 160 199 207
0.3642464 0.1033559 -0.04289323 -1.397099E-16 -0.7077822 0.7064307 84 84 84 255
0.2500001 0.042811442 -0.10355351 -1.397099E-16 -0.7077822 0.7064307 84 84 84 255
0.3642464 0.042811442 -0.10355351 -1.397099E-16 -0.7077822 0.7064307 84 84 84 255
0.2500001 0.1033559 -0.04289323 -1.397099E-16 -0.7077822 0.7064307 84 84 84 255
0.2500001 0.042811442 -0.10355351 0 -0 1 84 84 84 255
0.3642464 -0.042811695 -0.10355351 0 -0 1 84 84 84 255
0.3642464 0.042811442 -0.10355351 0 -0 1 84 84 84 255
0.2500001 -0.042811695 -0.10355351 0 -0 1 84 84 84 255
0.2500001 -0.103356116 -0.04289323 2.796573E-16 0.7077823 0.7064306 84 84 84 255
0.3642464 -0.042811695 -0.10355351 2.796573E-16 0.7077823 0.7064306 84 84 84 255
0.2500001 -0.042811695 -0.10355351 2.796573E-16 0.7077823 0.7064306 84 84 84 255
0.3642464 -0.103356116 -0.04289323 2.796573E-16 0.7077823 0.7064306 84 84 84 255
0.2500001 -0.103356116 0.042892974 3.949318E-16 1 -0 84 84 84 255
0.3642464 -0.103356116 -0.04289323 3.949318E-16 1 -0 84 84 84 255
0.2500001 -0.103356116 -0.04289323 3.949318E-16 1 -0 84 84 84 255
0.3642464 -0.103356116 0.042892974 3.949318E-16 1 -0 84 84 84 255
0.3642464 -0.042811695 0.10355326 -0.9327105 0.2552447 -0.2547572 84 84 84 255
0.38424635 -0.051678076 0.021446487 -0.9327105 0.2552447 -0.2547572 84 84 84 255
0.3642464 -0.103356116 0.042892974 -0.9327105 0.2552447 -0.2547572 84 84 84 255
0.38424635 -0.021405848 0.05177663 -0.9327105 0.2552447 -0.2547572 84 84 84 255
0.2500001 -0.042811695 0.10355326 1.398286E-16 0.7077823 -0.7064306 84 84 84 255
0.3642464 -0.103356116 0.042892974 1.398286E-16 0.7077823 -0.7064306 84 84 84 255
0.2500001 -0.103356116 0.042892974 1.398286E-16 0.7077823 -0.7064306 84 84 84 255
0.3642464 -0.042811695 0.10355326 1.398286E-16 0.7077823 -0.7064306 84 84 84 255
0.3642464 0.042811442 0.10355326 -0.9328261 2.6304432E-18 -0.3603268 84 84 84 255
0.38424635 -0.021405848 0.05177663 -0.9328261 2.6304432E-18 -0.3603268 84 84 84 255
0.3642464 -0.042811695 0.10355326 -0.9328261 2.6304432E-18 -0.3603268 84 84 84 255
0.38424635 0.021405594 0.05177663 -0.9328261 2.6304432E-18 -0.3603268 84 84 84 255
0.38424635 -0.021405848 0.05177663 -1 -0 -0 84 84 84 255
0.38424635 -0.051678076 -0.021446742 -1 -0 -0 84 84 84 255
0.38424635 -0.051678076 0.021446487 -1 -0 -0 84 84 84 255
0.38424635 -0.021405848 -0.05177688 -1 -0 -0 84 84 84 255
0.38424635 0.021405594 0.05177663 -1 -0 -0 84 84 84 255
0.38424635 0.021405594 -0.05177688 -1 -0 -0 84 84 84 255
0.38424635 0.05167782 0.021446487 -1 -0 -0 84 84 84 255
0.38424635 0.05167782 -0.021446742 -1 -0 -0 84 84 84 255
0.38424635 -0.051678076 0.021446487 -0.9325949 0.36092466 -0 84 84 84 255
0.3642464 -0.103356116 -0.04289323 -0.9325949 0.36092466 -0 84 84 84 255
0.3642464 -0.103356116 0.042892974 -0.9325949 0.36092466 -0 84 84 84 255
0.38424635 -0.051678076 -0.021446742 -0.9325949 0.36092466 -0 84 84 84 255
0.2500001 -0.042811695 0.10355326 0 -0 -1 84 84 84 255
0.3642464 0.042811442 0.10355326 0 -0 -1 84 84 84 255
0.3642464 -0.042811695 0.10355326 0 -0 -1 84 84 84 255
0.2500001 0.042811442 0.10355326 0 -0 -1 84 84 84 255
0.3642464 -0.042811695 0.10355326 -1 1.863067E-16 2.4651129E-32 84 84 84 255
0.3642464 -0.103356116 -0.04289323 -1 1.863067E-16 2.4651129E-32 84 84 84 255
0.3642464 -0.103356116 0.042892974 -1 1.863067E-16 2.4651129E-32 84 84 84 255
0.3642464 -0.042811695 -0.10355351 -1 1.863067E-16 2.4651129E-32 84 84 84 255
0.3642464 0.042811442 0.10355326 -1 1.863067E-16 2.4651129E-32 84 84 84 255
0.3642464 0.042811442 -0.10355351 -1 1.863067E-16 2.4651129E-32 84 84 84 255
0.3642464 0.1033559 0.042892974 -1 1.863067E-16 2.4651129E-32 84 84 84 255
0.3642464 0.1033559 -0.04289323 -1 1.863067E-16 2.4651129E-32 84 84 84 255
0.3642464 0.042811442 0.10355326 -0.9327105 -0.2552446 -0.2547572 84 84 84 255
0.38424635 0.05167782 0.021446487 -0.9327105 -0.2552446 -0.2547572 84 84 84 255
0.38424635 0.021405594 0.05177663 -0.9327105 -0.2552446 -0.2547572 84 84 84 255
0.3642464 0.1033559 0.042892974 -0.9327105 -0.2552446 -0.2547572 84 84 84 255
0.3642464 0.1033559 0.042892974 -0.932595 -0.3609245 -0 84 84 84 255
0.38424635 0.05167782 -0.021446742 -0.932595 -0.3609245 -0 84 84 84 255
0.38424635 0.05167782 0.021446487 -0.932595 -0.3609245 -0 84 84 84 255
0.3642464 0.1033559 -0.04289323 -0.932595 -0.3609245 -0 84 84 84 255
0.38424635 0.05167782 -0.021446742 -0.9327105 -0.2552446 0.2547572 84 84 84 255
0.3642464 0.042811442 -0.10355351 -0.9327105 -0.2552446 0.2547572 84 84 84 255
0.38424635 0.021405594 -0.05177688 -0.9327105 -0.2552446 0.2547572 84 84 84 255
0.3642464 0.1033559 -0.04289323 -0.9327105 -0.2552446 0.2547572 84 84 84 255
0.38424635 -0.021405848 -0.05177688 -0.9328261 2.6304432E-18 0.3603268 84 84 84 255
0.3642464 0.042811442 -0.10355351 -0.9328261 2.6304432E-18 0.3603268 84 84 84 255
0.3642464 -0.042811695 -0.10355351 -0.9328261 2.6304432E-18 0.3603268 84 84 84 255
0.38424635 0.021405594 -0.05177688 -0.9328261 2.6304432E-18 0.3603268 84 84 84 255
0.38424635 -0.051678076 -0.021446742 -0.9327105 0.2552447 0.2547572 84 84 84 255
0.3642464 -0.042811695 -0.10355351 -0.9327105 0.2552447 0.2547572 84 84 84 255
0.3642464 -0.103356116 -0.04289323 -0.9327105 0.2552447 0.2547572 84 84 84 255
0.38424635 -0.021405848 -0.05177688 -0.9327105 0.2552447 0.2547572 84 84 84 255
0.3642464 0.042811442 0.10355326 1.5655169E-17 -0.7077822 -0.7064307 84 84 84 255
0.2500001 0.1033559 0.042892974 1.5655169E-17 -0.7077822 -0.7064307 84 84 84 255
0.3642464 0.1033559 0.042892974 1.5655169E-17 -0.7077822 -0.7064307 84 84 84 255
0.2500001 0.042811442 0.10355326 1.5655169E-17 -0.7077822 -0.7064307 84 84 84 255
0.3642464 0.1033559 0.042892974 0 -1 -0 84 84 84 255
0.2500001 0.1033559 -0.04289323 0 -1 -0 84 84 84 255
0.3642464 0.1033559 -0.04289323 0 -1 -0 84 84 84 255
0.2500001 0.1033559 0.042892974 0 -1 -0 84 84 84 255
-0.31999984 0.24999973 -0.13254844 0.5169336 0.682319 0.5169336 255 125 0 255
-0.10355326 0.1749999 -0.2500001 0.5169336 0.682319 0.5169336 255 125 0 255
-0.13254811 0.24999973 -0.32000008 0.5169336 0.682319 0.5169336 255 125 0 255
-0.24999973 0.1749999 -0.10355351 0.5169336 0.682319 0.5169336 255 125 0 255
-0.31999984 0.37499973 -0.13254844 0.7071066 -3.630452E-16 0.7071069 255 125 0 255
-0.13254811 0.24999973 -0.32000008 0.7071066 -3.630452E-16 0.7071069 255 125 0 255
-0.13254811 0.37499973 -0.32000008 0.7071066 -3.630452E-16 0.7071069 255 125 0 255
-0.31999984 0.24999973 -0.13254844 0.7071066 -3.630452E-16 0.7071069 255 125 0 255
-0.31999984 0.24999973 -0.13254844 0.731054 0.6823196 1.0881661E-16 255 125 0 255
-0.24999973 0.1749999 0.10355326 0.731054 0.6823196 1.0881661E-16 255 125 0 255
-0.24999973 0.1749999 -0.10355351 0.731054 0.6823196 1.0881661E-16 255 125 0 255
-0.31999984 0.24999973 0.13254811 0.731054 0.6823196 1.0881661E-16 255 125 0 255
-0.10355326 0.1749999 -0.2500001 0.707107 -3.213135E-16 0.7071065 255 125 0 255
-0.24999973 -0.12500012 -0.10355351 0.707107 -3.213135E-16 0.7071065 255 125 0 255
-0.10355326 -0.12500012 -0.2500001 0.707107 -3.213135E-16 0.7071065 255 125 0 255
-0.24999973 -0.042811695 -0.10355351 0.707107 -3.213135E-16 0.7071065 255 125 0 255
-0.24999973 0.1749999 -0.10355351 0.707107 -3.213135E-16 0.7071065 255 125 0 255
-0.13254811 0.24999973 -0.32000008 2.628197E-16 0.682319 0.7310545 255 125 0 255
0.10355351 0.1749999 -0.2500001 2.628197E-16 0.682319 0.7310545 255 125 0 255
0.13254844 0.24999973 -0.32000008 2.628197E-16 0.682319 0.7310545 255 125 0 255
-0.10355326 0.1749999 -0.2500001 2.628197E-16 0.682319 0.7310545 255 125 0 255
-0.31999984 0.37499973 -0.13254844 1 -0 -0 255 125 0 255
-0.31999984 0.24999973 0.13254811 1 -0 -0 255 125 0 255
-0.31999984 0.24999973 -0.13254844 1 -0 -0 255 125 0 255
-0.31999984 0.37499973 0.13254811 1 -0 -0 255 125 0 255
-0.13254811 0.37499973 -0.32000008 0 -1.082867E-15 1 255 125 0 255
0.13254844 0.24999973 -0.32000008 0 -1.082867E-15 1 255 125 0 255
0.13254844 0.37499973 -0.32000008 0 -1.082867E-15 1 255 125 0 255
-0.13254811 0.24999973 -0.32000008 0 -1.082867E-15 1 255 125 0 255
-0.31999984 0.24999973 0.13254811 0.51693356 0.68231905 -0.51693356 255 125 0 255
-0.10355326 0.1749999 0.24999973 0.51693356 0.68231905 -0.51693356 255 125 0 255
-0.24999973 0.1749999 0.10355326 0.51693356 0.68231905 -0.51693356 255 125 0 255
-0.13254811 0.24999973 0.31999984 0.51693356 0.68231905 -0.51693356 255 125 0 255
-0.24999973 0.1749999 -0.10355351 1 -0 -0 255 125 0 255
-0.24999973 0.1033559 -0.04289323 1 -0 -0 255 125 0 255
-0.24999973 0.042811442 -0.10355351 1 -0 -0 255 125 0 255
-0.24999973 0.1033559 0.042892974 1 -0 -0 255 125 0 255
-0.24999973 0.1749999 0.10355326 1 -0 -0 255 125 0 255
-0.24999973 0.042811442 0.10355326 1 -0 -0 255 125 0 255
-0.24999973 -0.12500012 -0.10355351 1 -0 -0 255 125 0 255
-0.24999973 -0.103356116 -0.04289323 1 -0 -0 255 125 0 255
-0.24999973 -0.12500012 0.10355326 1 -0 -0 255 125 0 255
-0.24999973 -0.042811695 -0.10355351 1 -0 -0 255 125 0 255
-0.24999973 -0.103356116 0.042892974 1 -0 -0 255 125 0 255
-0.24999973 -0.042811695 0.10355326 1 -0 -0 255 125 0 255
-0.24999973 -0.12500012 -0.10355351 0.345495 0.8725058 0.345495 255 125 0 255
-0.05177663 -0.1950001 -0.12500012 0.345495 0.8725058 0.345495 255 125 0 255
-0.10355326 -0.12500012 -0.2500001 0.345495 0.8725058 0.345495 255 125 0 255
-0.125 -0.1950001 -0.05177688 0.345495 0.8725058 0.345495 255 125 0 255
-0.10355326 0.1749999 -0.2500001 -3.90448E-32 -1.503982E-16 1 255 125 0 255
0.10355351 -0.12500012 -0.2500001 -3.90448E-32 -1.503982E-16 1 255 125 0 255
0.10355351 0.1749999 -0.2500001 -3.90448E-32 -1.503982E-16 1 255 125 0 255
-0.10355326 -0.12500012 -0.2500001 -3.90448E-32 -1.503982E-16 1 255 125 0 255
0.10355351 0.1749999 -0.2500001 -0.5169336 0.6823189 0.5169336 255 125 0 255
0.32000008 0.24999973 -0.13254844 -0.5169336 0.6823189 0.5169336 255 125 0 255
0.13254844 0.24999973 -0.32000008 -0.5169336 0.6823189 0.5169336 255 125 0 255
0.2500001 0.1749999 -0.10355351 -0.5169336 0.6823189 0.5169336 255 125 0 255
-0.31999984 0.24999973 0.13254811 0.70710677 -3.7735725E-28 -0.70710677 255 125 0 255
-0.13254811 0.37499973 0.31999984 0.70710677 -3.7735725E-28 -0.70710677 255 125 0 255
-0.13254811 0.24999973 0.31999984 0.70710677 -3.7735725E-28 -0.70710677 255 125 0 255
-0.31999984 0.37499973 0.13254811 0.70710677 -3.7735725E-28 -0.70710677 255 125 0 255
0.32000008 0.37499973 -0.13254844 -0.70710677 1.6025848E-14 0.70710677 255 125 0 255
0.13254844 0.24999973 -0.32000008 -0.70710677 1.6025848E-14 0.70710677 255 125 0 255
0.32000008 0.24999973 -0.13254844 -0.70710677 1.6025848E-14 0.70710677 255 125 0 255
0.13254844 0.37499973 -0.32000008 -0.70710677 1.6025848E-14 0.70710677 255 125 0 255
0.10355351 0.1749999 0.24999973 4.6989934E-18 0.6823196 -0.731054 255 125 0 255
-0.13254811 0.24999973 0.31999984 4.6989934E-18 0.6823196 -0.731054 255 125 0 255
0.13254844 0.24999973 0.31999984 4.6989934E-18 0.6823196 -0.731054 255 125 0 255
-0.10355326 0.1749999 0.24999973 4.6989934E-18 0.6823196 -0.731054 255 125 0 255
-0.24999973 -0.12500012 0.10355326 0.70710677 -2.0256739E-16 -0.70710677 255 125 0 255
-0.10355326 0.1749999 0.24999973 0.70710677 -2.0256739E-16 -0.70710677 255 125 0 255
-0.10355326 -0.12500012 0.24999973 0.70710677 -2.0256739E-16 -0.70710677 255 125 0 255
-0.24999973 0.1749999 0.10355326 0.70710677 -2.0256739E-16 -0.70710677 255 125 0 255
-0.24999973 -0.042811695 0.10355326 0.70710677 -2.0256739E-16 -0.70710677 255 125 0 255
-0.24999973 -0.12500012 0.10355326 0.488604 0.8725056 1.122698E-16 255 125 0 255
-0.125 -0.1950001 -0.05177688 0.488604 0.8725056 1.122698E-16 255 125 0 255
-0.24999973 -0.12500012 -0.10355351 0.488604 0.8725056 1.122698E-16 255 125 0 255
-0.125 -0.1950001 0.05177663 0.488604 0.8725056 1.122698E-16 255 125 0 255
-0.125 -0.1950001 -0.05177688 1.4743981E-16 1 9.297581E-17 255 125 0 255
0.05177688 -0.1950001 -0.12500012 1.4743981E-16 1 9.297581E-17 255 125 0 255
-0.05177663 -0.1950001 -0.12500012 1.4743981E-16 1 9.297581E-17 255 125 0 255
0.12500012 -0.1950001 -0.05177688 1.4743981E-16 1 9.297581E-17 255 125 0 255
-0.125 -0.1950001 0.05177663 1.4743981E-16 1 9.297581E-17 255 125 0 255
0.12500012 -0.1950001 0.05177663 1.4743981E-16 1 9.297581E-17 255 125 0 255
-0.05177663 -0.1950001 0.125 1.4743981E-16 1 9.297581E-17 255 125 0 255
0.05177688 -0.1950001 0.125 1.4743981E-16 1 9.297581E-17 255 125 0 255
-0.05177663 -0.1950001 -0.12500012 1.044372E-16 0.872506 0.48860338 255 125 0 255
0.10355351 -0.12500012 -0.2500001 1.044372E-16 0.872506 0.48860338 255 125 0 255
-0.10355326 -0.12500012 -0.2500001 1.044372E-16 0.872506 0.48860338 255 125 0 255
0.05177688 -0.1950001 -0.12500012 1.044372E-16 0.872506 0.48860338 255 125 0 255
0.2500001 -0.042811695 -0.10355351 -0.70710677 5.5843995E-17 0.70710677 255 125 0 255
0.10355351 -0.12500012 -0.2500001 -0.70710677 5.5843995E-17 0.70710677 255 125 0 255
0.2500001 -0.12500012 -0.10355351 -0.70710677 5.5843995E-17 0.70710677 255 125 0 255
0.10355351 0.1749999 -0.2500001 -0.70710677 5.5843995E-17 0.70710677 255 125 0 255
0.2500001 0.042811442 -0.10355351 -0.70710677 5.5843995E-17 0.70710677 255 125 0 255
0.2500001 0.1749999 -0.10355351 -0.70710677 5.5843995E-17 0.70710677 255 125 0 255
0.32000008 0.24999973 0.13254811 -0.7310545 0.682319 -4.6978304E-18 255 125 0 255
0.2500001 0.1749999 -0.10355351 -0.7310545 0.682319 -4.6978304E-18 255 125 0 255
0.2500001 0.1749999 0.10355326 -0.7310545 0.682319 -4.6978304E-18 255 125 0 255
0.32000008 0.24999973 -0.13254844 -0.7310545 0.682319 -4.6978304E-18 255 125 0 255
-0.13254811 0.24999973 0.31999984 0 -0 -1 255 125 0 255
0.13254844 0.37499973 0.31999984 0 -0 -1 255 125 0 255
0.13254844 0.24999973 0.31999984 0 -0 -1 255 125 0 255
-0.13254811 0.37499973 0.31999984 0 -0 -1 255 125 0 255
0.32000008 0.37499973 0.13254811 -1 4.620233E-14 -0 255 125 0 255
0.32000008 0.24999973 -0.13254844 -1 4.620233E-14 -0 255 125 0 255
0.32000008 0.24999973 0.13254811 -1 4.620233E-14 -0 255 125 0 255
0.32000008 0.37499973 -0.13254844 -1 4.620233E-14 -0 255 125 0 255
0.10355351 0.1749999 0.24999973 -0.5169336 0.682319 -0.5169336 255 125 0 255
0.32000008 0.24999973 0.13254811 -0.5169336 0.682319 -0.5169336 255 125 0 255
0.2500001 0.1749999 0.10355326 -0.5169336 0.682319 -0.5169336 255 125 0 255
0.13254844 0.24999973 0.31999984 -0.5169336 0.682319 -0.5169336 255 125 0 255
-0.10355326 -0.12500012 0.24999973 0 -0 -1 255 125 0 255
0.10355351 0.1749999 0.24999973 0 -0 -1 255 125 0 255
0.10355351 -0.12500012 0.24999973 0 -0 -1 255 125 0 255
-0.10355326 0.1749999 0.24999973 0 -0 -1 255 125 0 255
-0.24999973 -0.12500012 0.10355326 0.34549516 0.87250566 -0.34549516 255 125 0 255
-0.05177663 -0.1950001 0.125 0.34549516 0.87250566 -0.34549516 255 125 0 255
-0.125 -0.1950001 0.05177663 0.34549516 0.87250566 -0.34549516 255 125 0 255
-0.10355326 -0.12500012 0.24999973 0.34549516 0.87250566 -0.34549516 255 125 0 255
-0.10355326 -0.12500012 0.24999973 1.685916E-16 0.8725056 -0.488604 255 125 0 255
0.05177688 -0.1950001 0.125 1.685916E-16 0.8725056 -0.488604 255 125 0 255
-0.05177663 -0.1950001 0.125 1.685916E-16 0.8725056 -0.488604 255 125 0 255
0.10355351 -0.12500012 0.24999973 1.685916E-16 0.8725056 -0.488604 255 125 0 255
0.05177688 -0.1950001 0.125 -0.345495 0.8725058 -0.345495 255 125 0 255
0.2500001 -0.12500012 0.10355326 -0.345495 0.8725058 -0.345495 255 125 0 255
0.12500012 -0.1950001 0.05177663 -0.345495 0.8725058 -0.345495 255 125 0 255
0.10355351 -0.12500012 0.24999973 -0.345495 0.8725058 -0.345495 255 125 0 255
0.12500012 -0.1950001 -0.05177688 -0.48860338 0.872506 6.3408304E-17 255 125 0 255
0.2500001 -0.12500012 0.10355326 -0.48860338 0.872506 6.3408304E-17 255 125 0 255
0.2500001 -0.12500012 -0.10355351 -0.48860338 0.872506 6.3408304E-17 255 125 0 255
0.12500012 -0.1950001 0.05177663 -0.48860338 0.872506 6.3408304E-17 255 125 0 255
0.05177688 -0.1950001 -0.12500012 -0.3454948 0.872506 0.3454948 255 125 0 255
0.2500001 -0.12500012 -0.10355351 -0.3454948 0.872506 0.3454948 255 125 0 255
0.10355351 -0.12500012 -0.2500001 -0.3454948 0.872506 0.3454948 255 125 0 255
0.12500012 -0.1950001 -0.05177688 -0.3454948 0.872506 0.3454948 255 125 0 255
0.2500001 0.1749999 0.10355326 -1 3.5005762E-16 5.314999E-33 255 125 0 255
0.2500001 0.1033559 0.042892974 -1 3.5005762E-16 5.314999E-33 255 125 0 255
0.2500001 0.042811442 0.10355326 -1 3.5005762E-16 5.314999E-33 255 125 0 255
0.2500001 0.1033559 -0.04289323 -1 3.5005762E-16 5.314999E-33 255 125 0 255
0.2500001 0.1749999 -0.10355351 -1 3.5005762E-16 5.314999E-33 255 125 0 255
0.2500001 0.042811442 -0.10355351 -1 3.5005762E-16 5.314999E-33 255 125 0 255
0.2500001 -0.12500012 0.10355326 -1 4.3023704E-16 8.704191E-32 255 125 0 255
0.2500001 -0.103356116 0.042892974 -1 4.3023704E-16 8.704191E-32 255 125 0 255
0.2500001 -0.12500012 -0.10355351 -1 4.3023704E-16 8.704191E-32 255 125 0 255
0.2500001 -0.042811695 0.10355326 -1 4.3023704E-16 8.704191E-32 255 125 0 255
0.2500001 -0.103356116 -0.04289323 -1 4.3023704E-16 8.704191E-32 255 125 0 255
0.2500001 -0.042811695 -0.10355351 -1 4.3023704E-16 8.704191E-32 255 125 0 255
0.13254844 0.37499973 0.31999984 -0.7071069 1.633703E-14 -0.7071066 255 125 0 255
0.32000008 0.24999973 0.13254811 -0.7071069 1.633703E-14 -0.7071066 255 125 0 255
0.13254844 0.24999973 0.31999984 -0.7071069 1.633703E-14 -0.7071066 255 125 0 255
0.32000008 0.37499973 0.13254811 -0.7071069 1.633703E-14 -0.7071066 255 125 0 255
0.10355351 -0.12500012 0.24999973 -0.7071065 1.551223E-16 -0.707107 255 125 0 255
0.2500001 -0.042811695 0.10355326 -0.7071065 1.551223E-16 -0.707107 255 125 0 255
0.2500001 -0.12500012 0.10355326 -0.7071065 1.551223E-16 -0.707107 255 125 0 255
0.2500001 0.042811442 0.10355326 -0.7071065 1.551223E-16 -0.707107 255 125 0 255
0.2500001 0.1749999 0.10355326 -0.7071065 1.551223E-16 -0.707107 255 125 0 255
0.10355351 0.1749999 0.24999973 -0.7071065 1.551223E-16 -0.707107 255 125 0 255
-0.2999999 0.2999999 0.124263905 -0.70710677 -0.70710677 -2.0991867E-17 199 199 199 255
-0.14999995 0.14999995 -0.06213221 -0.70710677 -0.70710677 -2.0991867E-17 199 199 199 255
-0.14999995 0.14999995 0.062131952 -0.70710677 -0.70710677 -2.0991867E-17 199 199 199 255
-0.2999999 0.2999999 -0.12426418 -0.70710677 -0.70710677 -2.0991867E-17 199 199 199 255
-0.062131952 0.14999995 -0.15000013 -0.49999988 -0.7071067 -0.5000002 199 199 199 255
-0.2999999 0.2999999 -0.12426418 -0.49999988 -0.7071067 -0.5000002 199 199 199 255
-0.124263905 0.2999999 -0.30000013 -0.49999988 -0.7071067 -0.5000002 199 199 199 255
-0.14999995 0.14999995 -0.06213221 -0.49999988 -0.7071067 -0.5000002 199 199 199 255
0.15000013 0.14999995 -0.06213221 0 -1 -0 199 199 199 255
-0.062131952 0.14999995 -0.15000013 0 -1 -0 199 199 199 255
0.06213221 0.14999995 -0.15000013 0 -1 -0 199 199 199 255
-0.14999995 0.14999995 -0.06213221 0 -1 -0 199 199 199 255
0.15000013 0.14999995 0.062131952 0 -1 -0 199 199 199 255
-0.14999995 0.14999995 0.062131952 0 -1 -0 199 199 199 255
0.06213221 0.14999995 0.14999995 0 -1 -0 199 199 199 255
-0.062131952 0.14999995 0.14999995 0 -1 -0 199 199 199 255
-0.062131952 0.14999995 0.14999995 -0.50000006 -0.70710665 0.50000006 199 199 199 255
-0.2999999 0.2999999 0.124263905 -0.50000006 -0.70710665 0.50000006 199 199 199 255
-0.14999995 0.14999995 0.062131952 -0.50000006 -0.70710665 0.50000006 199 199 199 255
-0.124263905 0.2999999 0.2999999 -0.50000006 -0.70710665 0.50000006 199 199 199 255
-0.30000013 0.37499997 0.12426416 -1 -3.386662E-06 -4.236519E-24 199 199 199 255
-0.2999999 0.2999999 -0.12426418 -1 -3.386662E-06 -4.236519E-24 199 199 199 255
-0.2999999 0.2999999 0.124263905 -1 -3.386662E-06 -4.236519E-24 199 199 199 255
-0.30000013 0.37499997 -0.12426399 -1 -3.386662E-06 -4.236519E-24 199 199 199 255
0.06213221 0.14999995 -0.15000013 -2.505389E-16 -0.7071069 -0.7071067 199 199 199 255
-0.124263905 0.2999999 -0.30000013 -2.505389E-16 -0.7071069 -0.7071067 199 199 199 255
0.12426418 0.2999999 -0.30000013 -2.505389E-16 -0.7071069 -0.7071067 199 199 199 255
-0.062131952 0.14999995 -0.15000013 -2.505389E-16 -0.7071069 -0.7071067 199 199 199 255
-0.2999999 0.2999999 -0.12426418 -0.7071066 -4.3105078E-07 -0.7071069 199 199 199 255
-0.12426416 0.37499997 -0.2999999 -0.7071066 -4.3105078E-07 -0.7071069 199 199 199 255
-0.124263905 0.2999999 -0.30000013 -0.7071066 -4.3105078E-07 -0.7071069 199 199 199 255
-0.30000013 0.37499997 -0.12426399 -0.7071066 -4.3105078E-07 -0.7071069 199 199 199 255
0.30000013 0.2999999 0.124263905 0.5000002 -0.7071067 0.49999988 199 199 199 255
0.06213221 0.14999995 0.14999995 0.5000002 -0.7071067 0.49999988 199 199 199 255
0.15000013 0.14999995 0.062131952 0.5000002 -0.7071067 0.49999988 199 199 199 255
0.12426418 0.2999999 0.2999999 0.5000002 -0.7071067 0.49999988 199 199 199 255
0.12426418 0.2999999 0.2999999 2.2961308E-23 -0.70710677 0.70710677 199 199 199 255
-0.062131952 0.14999995 0.14999995 2.2961308E-23 -0.70710677 0.70710677 199 199 199 255
0.06213221 0.14999995 0.14999995 2.2961308E-23 -0.70710677 0.70710677 199 199 199 255
-0.124263905 0.2999999 0.2999999 2.2961308E-23 -0.70710677 0.70710677 199 199 199 255
0.30000013 0.2999999 -0.12426418 0.49999994 -0.70710677 -0.49999994 199 199 199 255
0.06213221 0.14999995 -0.15000013 0.49999994 -0.70710677 -0.49999994 199 199 199 255
0.12426418 0.2999999 -0.30000013 0.49999994 -0.70710677 -0.49999994 199 199 199 255
0.15000013 0.14999995 -0.06213221 0.49999994 -0.70710677 -0.49999994 199 199 199 255
0.30000013 0.2999999 0.124263905 0.7071067 -0.7071069 1.96281E-17 199 199 199 255
0.15000013 0.14999995 -0.06213221 0.7071067 -0.7071069 1.96281E-17 199 199 199 255
0.30000013 0.2999999 -0.12426418 0.7071067 -0.7071069 1.96281E-17 199 199 199 255
0.15000013 0.14999995 0.062131952 0.7071067 -0.7071069 1.96281E-17 199 199 199 255
-0.12426416 0.37499997 0.30000013 -0.70710677 -4.7894628E-06 0.70710677 199 199 199 255
-0.2999999 0.2999999 0.124263905 -0.70710677 -4.7894628E-06 0.70710677 199 199 199 255
-0.124263905 0.2999999 0.2999999 -0.70710677 -4.7894628E-06 0.70710677 199 199 199 255
-0.30000013 0.37499997 0.12426416 -0.70710677 -4.7894628E-06 0.70710677 199 199 199 255
-0.124263905 0.2999999 -0.30000013 5.350865E-23 2.844796E-06 -1 199 199 199 255
0.12426399 0.37499997 -0.2999999 5.350865E-23 2.844796E-06 -1 199 199 199 255
0.12426418 0.2999999 -0.30000013 5.350865E-23 2.844796E-06 -1 199 199 199 255
-0.12426416 0.37499997 -0.2999999 5.350865E-23 2.844796E-06 -1 199 199 199 255
0.2999999 0.37499997 0.12426416 0.7071069 -4.3105078E-07 0.7071066 199 199 199 255
0.12426418 0.2999999 0.2999999 0.7071069 -4.3105078E-07 0.7071066 199 199 199 255
0.30000013 0.2999999 0.124263905 0.7071069 -4.3105078E-07 0.7071066 199 199 199 255
0.12426399 0.37499997 0.30000013 0.7071069 -4.3105078E-07 0.7071066 199 199 199 255
0.12426399 0.37499997 0.30000013 -5.124428E-24 -3.386662E-06 1 199 199 199 255
-0.124263905 0.2999999 0.2999999 -5.124428E-24 -3.386662E-06 1 199 199 199 255
0.12426418 0.2999999 0.2999999 -5.124428E-24 -3.386662E-06 1 199 199 199 255
-0.12426416 0.37499997 0.30000013 -5.124428E-24 -3.386662E-06 1 199 199 199 255
0.12426418 0.2999999 -0.30000013 0.70710677 3.9273596E-06 -0.70710677 199 199 199 255
0.2999999 0.37499997 -0.12426399 0.70710677 3.9273596E-06 -0.70710677 199 199 199 255
0.30000013 0.2999999 -0.12426418 0.70710677 3.9273596E-06 -0.70710677 199 199 199 255
0.12426399 0.37499997 -0.2999999 0.70710677 3.9273596E-06 -0.70710677 199 199 199 255
0.2999999 0.37499997 -0.12426399 1 2.844796E-06 -3.948767E-24 199 199 199 255
0.30000013 0.2999999 0.124263905 1 2.844796E-06 -3.948767E-24 199 199 199 255
0.30000013 0.2999999 -0.12426418 1 2.844796E-06 -3.948767E-24 199 199 199 255
0.2999999 0.37499997 0.12426416 1 2.844796E-06 -3.948767E-24 199 199 199 255
0.13254844 0.37499973 -0.32000008 0 -1 -0 84 84 84 255
0.12426399 0.37499997 -0.2999999 0 -1 -0 84 84 84 255
-0.13254811 0.37499973 -0.32000008 0 -1 -0 84 84 84 255
0.32000008 0.37499973 -0.13254844 0 -1 -0 84 84 84 255
0.2999999 0.37499997 -0.12426399 0 -1 -0 84 84 84 255
0.32000008 0.37499973 0.13254811 0 -1 -0 84 84 84 255
0.2999999 0.37499997 0.12426416 0 -1 -0 84 84 84 255
0.12426399 0.37499997 0.30000013 0 -1 -0 84 84 84 255
0.13254844 0.37499973 0.31999984 0 -1 -0 84 84 84 255
-0.12426416 0.37499997 0.30000013 0 -1 -0 84 84 84 255
-0.12426416 0.37499997 -0.2999999 0 -1 -0 84 84 84 255
-0.31999984 0.37499973 -0.13254844 0 -1 -0 84 84 84 255
-0.30000013 0.37499997 -0.12426399 0 -1 -0 84 84 84 255
-0.31999984 0.37499973 0.13254811 0 -1 -0 84 84 84 255
-0.30000013 0.37499997 0.12426416 0 -1 -0 84 84 84 255
-0.13254811 0.37499973 0.31999984 0 -1 -0 84 84 84 255
-0.36424613 0.042811442 -0.10355351 0.9327107 -0.2552443 0.2547569 84 84 84 255
-0.38424608 0.05167782 -0.021446742 0.9327107 -0.2552443 0.2547569 84 84 84 255
-0.38424608 0.021405594 -0.05177688 0.9327107 -0.2552443 0.2547569 84 84 84 255
-0.36424613 0.1033559 -0.04289323 0.9327107 -0.2552443 0.2547569 84 84 84 255
-0.36424613 0.042811442 -0.10355351 0.9328263 -1.17851E-15 0.3603264 84 84 84 255
-0.38424608 -0.021405848 -0.05177688 0.9328263 -1.17851E-15 0.3603264 84 84 84 255
-0.36424613 -0.042811695 -0.10355351 0.9328263 -1.17851E-15 0.3603264 84 84 84 255
-0.38424608 0.021405594 -0.05177688 0.9328263 -1.17851E-15 0.3603264 84 84 84 255
-0.24999973 0.1033559 -0.04289323 -1.3982821E-16 -0.7077822 0.7064307 84 84 84 255
-0.36424613 0.042811442 -0.10355351 -1.3982821E-16 -0.7077822 0.7064307 84 84 84 255
-0.24999973 0.042811442 -0.10355351 -1.3982821E-16 -0.7077822 0.7064307 84 84 84 255
-0.36424613 0.1033559 -0.04289323 -1.3982821E-16 -0.7077822 0.7064307 84 84 84 255
-0.36424613 0.1033559 -0.04289323 0.9325952 -0.3609241 -0 84 84 84 255
-0.38424608 0.05167782 0.021446487 0.9325952 -0.3609241 -0 84 84 84 255
-0.38424608 0.05167782 -0.021446742 0.9325952 -0.3609241 -0 84 84 84 255
-0.36424613 0.1033559 0.042892974 0.9325952 -0.3609241 -0 84 84 84 255
-0.38424608 -0.021405848 -0.05177688 1 -1.0539121E-15 -3.4812E-31 84 84 84 255
-0.38424608 -0.051678076 0.021446487 1 -1.0539121E-15 -3.4812E-31 84 84 84 255
-0.38424608 -0.051678076 -0.021446742 1 -1.0539121E-15 -3.4812E-31 84 84 84 255
-0.38424608 -0.021405848 0.05177663 1 -1.0539121E-15 -3.4812E-31 84 84 84 255
-0.38424608 0.021405594 -0.05177688 1 -1.0539121E-15 -3.4812E-31 84 84 84 255
-0.38424608 0.021405594 0.05177663 1 -1.0539121E-15 -3.4812E-31 84 84 84 255
-0.38424608 0.05167782 -0.021446742 1 -1.0539121E-15 -3.4812E-31 84 84 84 255
-0.38424608 0.05167782 0.021446487 1 -1.0539121E-15 -3.4812E-31 84 84 84 255
-0.36424613 0.042811442 -0.10355351 0 -0 1 84 84 84 255
-0.24999973 -0.042811695 -0.10355351 0 -0 1 84 84 84 255
-0.24999973 0.042811442 -0.10355351 0 -0 1 84 84 84 255
-0.36424613 -0.042811695 -0.10355351 0 -0 1 84 84 84 255
-0.36424613 -0.042811695 -0.10355351 0.9327107 0.2552444 0.2547569 84 84 84 255
-0.38424608 -0.051678076 -0.021446742 0.9327107 0.2552444 0.2547569 84 84 84 255
-0.36424613 -0.103356116 -0.04289323 0.9327107 0.2552444 0.2547569 84 84 84 255
-0.38424608 -0.021405848 -0.05177688 0.9327107 0.2552444 0.2547569 84 84 84 255
-0.24999973 0.1033559 0.042892974 0 -1 -0 84 84 84 255
-0.36424613 0.1033559 -0.04289323 0 -1 -0 84 84 84 255
-0.24999973 0.1033559 -0.04289323 0 -1 -0 84 84 84 255
-0.36424613 0.1033559 0.042892974 0 -1 -0 84 84 84 255
-0.36424613 -0.042811695 -0.10355351 1 -5.2695545E-16 -9.904774E-32 84 84 84 255
-0.36424613 -0.103356116 0.042892974 1 -5.2695545E-16 -9.904774E-32 84 84 84 255
-0.36424613 -0.103356116 -0.04289323 1 -5.2695545E-16 -9.904774E-32 84 84 84 255
-0.36424613 -0.042811695 0.10355326 1 -5.2695545E-16 -9.904774E-32 84 84 84 255
-0.36424613 0.042811442 -0.10355351 1 -5.2695545E-16 -9.904774E-32 84 84 84 255
-0.36424613 0.042811442 0.10355326 1 -5.2695545E-16 -9.904774E-32 84 84 84 255
-0.36424613 0.1033559 -0.04289323 1 -5.2695545E-16 -9.904774E-32 84 84 84 255
-0.36424613 0.1033559 0.042892974 1 -5.2695545E-16 -9.904774E-32 84 84 84 255
-0.38424608 0.05167782 0.021446487 0.9327107 -0.2552443 -0.2547569 84 84 84 255
-0.36424613 0.042811442 0.10355326 0.9327107 -0.2552443 -0.2547569 84 84 84 255
-0.38424608 0.021405594 0.05177663 0.9327107 -0.2552443 -0.2547569 84 84 84 255
-0.36424613 0.1033559 0.042892974 0.9327107 -0.2552443 -0.2547569 84 84 84 255
-0.38424608 -0.021405848 0.05177663 0.9328263 -1.17851E-15 -0.3603264 84 84 84 255
-0.36424613 0.042811442 0.10355326 0.9328263 -1.17851E-15 -0.3603264 84 84 84 255
-0.36424613 -0.042811695 0.10355326 0.9328263 -1.17851E-15 -0.3603264 84 84 84 255
-0.38424608 0.021405594 0.05177663 0.9328263 -1.17851E-15 -0.3603264 84 84 84 255
-0.38424608 -0.051678076 0.021446487 0.9327107 0.2552444 -0.2547569 84 84 84 255
-0.36424613 -0.042811695 0.10355326 0.9327107 0.2552444 -0.2547569 84 84 84 255
-0.36424613 -0.103356116 0.042892974 0.9327107 0.2552444 -0.2547569 84 84 84 255
-0.38424608 -0.021405848 0.05177663 0.9327107 0.2552444 -0.2547569 84 84 84 255
-0.38424608 -0.051678076 -0.021446742 0.9325951 0.3609243 1.573752E-16 84 84 84 255
-0.36424613 -0.103356116 0.042892974 0.9325951 0.3609243 1.573752E-16 84 84 84 255
-0.36424613 -0.103356116 -0.04289323 0.9325951 0.3609243 1.573752E-16 84 84 84 255
-0.38424608 -0.051678076 0.021446487 0.9325951 0.3609243 1.573752E-16 84 84 84 255
-0.36424613 -0.103356116 -0.04289323 2.7965642E-16 0.7077823 0.7064306 84 84 84 255
-0.24999973 -0.042811695 -0.10355351 2.7965642E-16 0.7077823 0.7064306 84 84 84 255
-0.36424613 -0.042811695 -0.10355351 2.7965642E-16 0.7077823 0.7064306 84 84 84 255
-0.24999973 -0.103356116 -0.04289323 2.7965642E-16 0.7077823 0.7064306 84 84 84 255
-0.24999973 0.042811442 0.10355326 0 -0.7077822 -0.7064307 84 84 84 255
-0.36424613 0.1033559 0.042892974 0 -0.7077822 -0.7064307 84 84 84 255
-0.24999973 0.1033559 0.042892974 0 -0.7077822 -0.7064307 84 84 84 255
-0.36424613 0.042811442 0.10355326 0 -0.7077822 -0.7064307 84 84 84 255
-0.36424613 -0.042811695 0.10355326 0 -0 -1 84 84 84 255
-0.24999973 0.042811442 0.10355326 0 -0 -1 84 84 84 255
-0.24999973 -0.042811695 0.10355326 0 -0 -1 84 84 84 255
-0.36424613 0.042811442 0.10355326 0 -0 -1 84 84 84 255
-0.36424613 -0.042811695 0.10355326 0 0.7077823 -0.7064306 84 84 84 255
-0.24999973 -0.103356116 0.042892974 0 0.7077823 -0.7064306 84 84 84 255
-0.36424613 -0.103356116 0.042892974 0 0.7077823 -0.7064306 84 84 84 255
-0.24999973 -0.042811695 0.10355326 0 0.7077823 -0.7064306 84 84 84 255
-0.36424613 -0.103356116 0.042892974 1.974656E-16 1 2.629762E-16 84 84 84 255
-0.24999973 -0.103356116 -0.04289323 1.974656E-16 1 2.629762E-16 84 84 84 255
-0.36424613 -0.103356116 -0.04289323 1.974656E-16 1 2.629762E-16 84 84 84 255
-0.24999973 -0.103356116 0.042892974 1.974656E-16 1 2.629762E-16 84 84 84 255
3 16 17 18
3 17 16 19
3 20 21 22
3 21 20 23
3 24 25 26
3 25 24 27
3 28 29 30
3 29 28 31
3 32 33 34
3 33 32 35
3 36 37 38
3 37 36 39
3 40 41 42
3 41 40 43
3 44 45 46
3 45 44 47
3 47 44 48
3 47 48 49
3 49 48 50
3 49 50 51
3 52 53 54
3 53 52 55
3 56 57 58
3 57 56 59
3 60 61 62
3 61 60 63
3 63 60 64
3 63 64 65
3 65 64 66
3 65 66 67
3 68 69 70
3 69 68 71
3 72 73 74
3 73 72 75
3 76 77 78
3 77 76 79
3 80 81 82
3 81 80 83
3 84 85 86
3 85 84 87
3 88 89 90
3 89 88 91
3 92 93 94
3 93 92 95
3 96 97 98
3 97 96 99
3 100 101 102
3 101 100 103
3 104 105 106
3 105 104 107
3 108 109 110
3 109 108 111
3 111 108 112
3 113 114 115
3 114 113 116
3 117 118 119
3 118 117 120
3 121 122 123
3 122 121 124
3 125 126 127
3 126 125 128
3 129 130 131
3 130 129 132
3 132 133 134
3 133 132 129
3 135 136 137
3 136 135 138
3 137 139 140
3 139 137 136
3 141 142 143
3 142 141 144
3 145 146 147
3 146 145 148
3 149 150 151
3 150 149 152
3 153 154 155
3 154 153 156
3 157 158 159
3 158 157 160
3 161 162 163
3 162 161 164
3 165 166 167
3 166 165 168
3 168 165 169
3 170 171 172
3 171 170 173
3 174 175 176
3 175 174 177
3 177 174 178
3 177 178 179
3 179 178 180
3 179 180 181
3 182 183 184
3 183 182 185
3 186 187 188
3 187 186 189
3 189 186 190
3 189 190 191
3 192 193 194
3 193 192 195
3 196 197 198
3 197 196 199
3 200 201 202
3 201 200 203
3 204 205 206
3 205 204 207
3 208 209 210
3 209 208 211
3 212 213 214
3 213 212 215
3 216 217 218
3 217 216 219
3 220 221 222
3 221 220 223
3 224 225 226
3 225 224 227
3 228 229 230
3 229 228 231
3 232 233 234
3 233 232 235
3 235 236 237
3 236 235 232
3 238 239 240
3 239 238 241
3 240 242 243
3 242 240 239
3 244 245 246
3 245 244 247
3 248 249 250
3 249 248 251
3 251 248 252
3 252 248 253
3 254 255 256
3 255 254 257
3 258 259 260
3 259 258 261
3 262 263 264
3 263 262 265
3 265 262 266
3 265 266 267
3 267 266 268
3 267 268 269
3 270 271 272
3 271 270 273
3 274 275 276
3 275 274 277
3 278 279 280
3 279 278 281
3 282 283 284
3 283 282 285
3 286 287 288
3 287 286 289
3 290 291 292
3 291 290 293
3 294 295 296
3 295 294 297
3 298 299 300
3 299 298 301
3 302 303 304
3 303 302 305
3 306 307 308
3 307 306 309
3 310 311 312
3 311 310 313
3 314 315 316
3 315 314 317
3 318 319 320
3 319 318 321
3 322 323 324
3 323 322 325
3 326 327 328
3 327 326 329
3 327 329 330
3 330 329 331
3 330 331 332
3 332 331 333
3 333 331 334
3 333 334 335
3 328 336 337
3 336 328 327
3 337 336 338
3 337 338 339
3 339 338 340
3 339 340 335
3 339 335 341
3 341 335 334
3 342 343 344
3 343 342 345
3 346 347 348
3 347 346 349
3 350 351 352
3 351 350 353
3 354 355 356
3 355 354 357
3 358 359 360
3 359 358 361
3 361 358 362
3 361 362 363
3 363 362 364
3 363 364 365
3 366 367 368
3 367 366 369
3 370 371 372
3 371 370 373
3 374 375 376
3 375 374 377
3 378 379 380
3 379 378 381
3 381 378 382
3 381 382 383
3 383 382 384
3 383 384 385
3 386 387 388
3 387 386 389
3 390 391 392
3 391 390 393
3 394 395 396
3 395 394 397
3 398 399 400
3 399 398 401
3 402 403 404
3 403 402 405
3 406 407 408
3 407 406 409
3 410 411 412
3 411 410 413
3 414 415 416
3 415 414 417
3 418 419 420
3 419 418 421

