ply
format ascii 1.0
commentY29udmVydGVyIGJ5IENvZGVMZW9wYXJk
comment Original mesh name: 'C:\Program Files (x86)\Steam\steamapps\common\Stormworks\rom\meshes\component_window_corner2_2x2.mesh'
comment SubMesh index: 0
comment SubMesh name: 'ID16'
comment Shader: Transparent (1)
element vertex 48
property float x
property float y
property float z
property float nx
property float ny
property float nz
property uchar red
property uchar green
property uchar blue
property uchar alpha
element face 2
property list uchar ushort vertex_index
end_header
-0.3562205 -0.10622057 0.3074411 0.57735026 0.57735026 0.57735026 160 160 199 128
0.057441153 -0.10622057 -0.10622057 0.57735026 0.57735026 0.57735026 160 160 199 128
-0.3562205 0.3074411 -0.10622057 0.57735026 0.57735026 0.57735026 160 160 199 128
-0.3562205 0.33744127 -0.10622057 -0.57735026 -0.57735026 -0.57735026 160 160 199 128
0.08744115 -0.10622057 -0.10622057 -0.57735026 -0.57735026 -0.57735026 160 160 199 128
-0.3562205 -0.10622057 0.33744127 -0.57735026 -0.57735026 -0.57735026 160 160 199 128
-0.37499997 0.37499997 -0.125 -0.57735026 -0.57735026 -0.57735026 55 125 0 255
-0.3562205 -0.10622057 0.33744127 -0.57735026 -0.57735026 -0.57735026 55 125 0 255
-0.37499997 -0.125 0.37499997 -0.57735026 -0.57735026 -0.57735026 55 125 0 255
-0.3562205 0.33744127 -0.10622057 -0.57735026 -0.57735026 -0.57735026 55 125 0 255
0.125 -0.125 -0.125 -0.57735026 -0.57735026 -0.57735026 55 125 0 255
0.08744115 -0.10622057 -0.10622057 -0.57735026 -0.57735026 -0.57735026 55 125 0 255
-0.3562205 0.3074411 -0.10622057 -1 3.581536E-07 3.581536E-07 255 125 0 255
-0.3562205 -0.10622057 0.27744114 -1 3.581536E-07 3.581536E-07 255 125 0 255
-0.3562205 -0.10622057 0.3074411 -1 3.581536E-07 3.581536E-07 255 125 0 255
-0.3562205 0.27744114 -0.10622057 -1 3.581536E-07 3.581536E-07 255 125 0 255
-0.3562205 -0.10622057 0.3074411 -1.908295E-07 -1 -1.927794E-07 255 125 0 255
0.027441144 -0.10622057 -0.10622057 -1.908295E-07 -1 -1.927794E-07 255 125 0 255
0.057441153 -0.10622057 -0.10622057 -1.908295E-07 -1 -1.927794E-07 255 125 0 255
-0.3562205 -0.10622057 0.27744114 -1.908295E-07 -1 -1.927794E-07 255 125 0 255
-0.3562205 -0.10622057 0.33744127 -1 -3.5815302E-07 -3.5815302E-07 255 125 0 255
-0.3562205 0.33744127 -0.10622057 -1 -3.5815302E-07 -3.5815302E-07 255 125 0 255
0.027441144 -0.10622057 -0.10622057 -2.1962322E-07 -2.1962309E-07 -1 255 125 0 255
-0.3562205 0.3074411 -0.10622057 -2.1962322E-07 -2.1962309E-07 -1 255 125 0 255
0.057441153 -0.10622057 -0.10622057 -2.1962322E-07 -2.1962309E-07 -1 255 125 0 255
-0.3562205 0.27744114 -0.10622057 -2.1962322E-07 -2.1962309E-07 -1 255 125 0 255
0.08744115 -0.10622057 -0.10622057 2.196201E-07 -1 2.1961971E-07 255 125 0 255
-0.3562205 -0.10622057 0.33744127 2.196201E-07 -1 2.1961971E-07 255 125 0 255
-0.3562205 0.33744127 -0.10622057 2.1962299E-07 2.1962309E-07 -1 255 125 0 255
0.08744115 -0.10622057 -0.10622057 2.1962299E-07 2.1962309E-07 -1 255 125 0 255
-0.37499997 -0.125 0.31499985 -6.505019E-12 1 -5.773493E-12 255 125 0 255
0.125 -0.125 -0.125 -6.505019E-12 1 -5.773493E-12 255 125 0 255
0.06500002 -0.125 -0.125 -6.505019E-12 1 -5.773493E-12 255 125 0 255
-0.37499997 -0.125 0.37499997 -6.505019E-12 1 -5.773493E-12 255 125 0 255
-0.37499997 0.31499985 -0.125 0.5773502 0.5773503 0.5773503 255 125 0 255
0.027441144 -0.10622057 -0.10622057 0.5773502 0.5773503 0.5773503 255 125 0 255
0.06500002 -0.125 -0.125 0.5773502 0.5773503 0.5773503 255 125 0 255
-0.3562205 0.27744114 -0.10622057 0.5773502 0.5773503 0.5773503 255 125 0 255
-0.37499997 -0.125 0.31499985 0.5773502 0.5773503 0.5773503 255 125 0 255
-0.3562205 -0.10622057 0.27744114 0.5773502 0.5773503 0.5773503 255 125 0 255
-0.37499997 0.31499985 -0.125 1 -5.5511145E-17 -5.5511145E-17 255 125 0 255
-0.37499997 -0.125 0.37499997 1 -5.5511145E-17 -5.5511145E-17 255 125 0 255
-0.37499997 -0.125 0.31499985 1 -5.5511145E-17 -5.5511145E-17 255 125 0 255
-0.37499997 0.37499997 -0.125 1 -5.5511145E-17 -5.5511145E-17 255 125 0 255
-0.37499997 0.37499997 -0.125 -5.5511145E-17 -2.775558E-17 1 255 125 0 255
0.06500002 -0.125 -0.125 -5.5511145E-17 -2.775558E-17 1 255 125 0 255
0.125 -0.125 -0.125 -5.5511145E-17 -2.775558E-17 1 255 125 0 255
-0.37499997 0.31499985 -0.125 -5.5511145E-17 -2.775558E-17 1 255 125 0 255
3 0 1 2
3 3 4 5

