ply
format ascii 1.0
commentY29udmVydGVyIGJ5IENvZGVMZW9wYXJk
comment Original mesh name: 'C:\Program Files (x86)\Steam\steamapps\common\Stormworks\rom\meshes\component_instrument_display_dial.mesh'
comment SubMesh index: 1
comment SubMesh name: 'ID2'
comment Shader: Opaque (0)
element vertex 198
property float x
property float y
property float z
property float nx
property float ny
property float nz
property uchar red
property uchar green
property uchar blue
property uchar alpha
element face 164
property list uchar ushort vertex_index
end_header
0.017604075 -0.04249999 0.125 0 -0 -1 109 160 199 207
0.04249999 0.017604075 0.125 0 -0 -1 109 160 199 207
0.04249999 -0.017604075 0.125 0 -0 -1 109 160 199 207
0.017604075 0.04249999 0.125 0 -0 -1 109 160 199 207
-0.017604075 -0.04249999 0.125 0 -0 -1 109 160 199 207
-0.017604075 0.04249999 0.125 0 -0 -1 109 160 199 207
-0.04249999 -0.017604075 0.125 0 -0 -1 109 160 199 207
-0.04249999 0.017604075 0.125 0 -0 -1 109 160 199 207
-0.04249999 0.017604075 0.125 0 -0 1 109 160 199 207
-0.04249999 -0.017604075 0.125 0 -0 1 109 160 199 207
-0.017604075 0.04249999 0.125 0 -0 1 109 160 199 207
-0.017604075 -0.04249999 0.125 0 -0 1 109 160 199 207
0.017604075 0.04249999 0.125 0 -0 1 109 160 199 207
0.017604075 -0.04249999 0.125 0 -0 1 109 160 199 207
0.04249999 0.017604075 0.125 0 -0 1 109 160 199 207
0.04249999 -0.017604075 0.125 0 -0 1 109 160 199 207
0.0625 -0.0625 0.125 0 -0 -1 255 125 0 255
0.0525 -0.02174621 0.125 0 -0 -1 255 125 0 255
0.0625 0.0625 0.125 0 -0 -1 255 125 0 255
0.02174621 -0.0525 0.125 0 -0 -1 255 125 0 255
-0.0625 -0.0625 0.125 0 -0 -1 255 125 0 255
-0.02174621 -0.0525 0.125 0 -0 -1 255 125 0 255
-0.0525 -0.02174621 0.125 0 -0 -1 255 125 0 255
-0.0525 0.02174621 0.125 0 -0 -1 255 125 0 255
0.02174621 0.0525 0.125 0 -0 -1 255 125 0 255
-0.0625 0.0625 0.125 0 -0 -1 255 125 0 255
0.0525 0.02174621 0.125 0 -0 -1 255 125 0 255
-0.02174621 0.0525 0.125 0 -0 -1 255 125 0 255
0.017604075 -0.04249999 0.125 0 -1 -0 86 86 86 255
-0.017604075 -0.04249999 0.114999995 0 -1 -0 86 86 86 255
0.017604075 -0.04249999 0.114999995 0 -1 -0 86 86 86 255
-0.017604075 -0.04249999 0.125 0 -1 -0 86 86 86 255
-0.017604075 -0.04249999 0.125 -0.70710677 -0.70710677 -0 86 86 86 255
-0.04249999 -0.017604075 0.114999995 -0.70710677 -0.70710677 -0 86 86 86 255
-0.017604075 -0.04249999 0.114999995 -0.70710677 -0.70710677 -0 86 86 86 255
-0.04249999 -0.017604075 0.125 -0.70710677 -0.70710677 -0 86 86 86 255
0.009053082 -0.033786565 0.114999995 0 -0 -1 86 86 86 255
0.015156683 -0.028752137 0.114999995 0 -0 -1 86 86 86 255
0.016324399 -0.030774686 0.114999995 0 -0 -1 86 86 86 255
0.015156683 0.028752137 0.114999995 0 -0 -1 86 86 86 255
0.017321745 -0.027502153 0.114999995 0 -0 -1 86 86 86 255
0.019750249 0.03170844 0.114999995 0 -0 -1 86 86 86 255
0.019750249 -0.03170844 0.114999995 0 -0 -1 86 86 86 255
0.017321745 0.027502153 0.114999995 0 -0 -1 86 86 86 255
0.017604075 -0.04249999 0.114999995 0 -0 -1 86 86 86 255
0.04249999 0.017604075 0.114999995 0 -0 -1 86 86 86 255
0.04249999 -0.017604075 0.114999995 0 -0 -1 86 86 86 255
0.018749999 -0.032475956 0.114999995 0 -0 -1 86 86 86 255
0.017585183 -0.032958426 0.114999995 0 -0 -1 86 86 86 255
0.009705713 -0.036222227 0.114999995 0 -0 -1 86 86 86 255
-0.017604075 -0.04249999 0.114999995 0 -0 -1 86 86 86 255
-0 -0.037499998 0.114999995 0 -0 -1 86 86 86 255
-0.009705713 -0.036222227 0.114999995 0 -0 -1 86 86 86 255
-0.017585183 -0.032958426 0.114999995 0 -0 -1 86 86 86 255
-0.018749999 -0.032475956 0.114999995 0 -0 -1 86 86 86 255
-0.04249999 -0.017604075 0.114999995 0 -0 -1 86 86 86 255
-0.019750249 -0.03170844 0.114999995 0 -0 -1 86 86 86 255
-0.026516506 -0.026516506 0.114999995 0 -0 -1 86 86 86 255
-0.032475956 -0.018749999 0.114999995 0 -0 -1 86 86 86 255
-0.036222227 -0.009705713 0.114999995 0 -0 -1 86 86 86 255
-0.03733543 -0.00125 0.114999995 0 -0 -1 86 86 86 255
-0.037499998 0 0.114999995 0 -0 -1 86 86 86 255
0.017604075 0.04249999 0.114999995 0 -0 -1 86 86 86 255
0.018749999 0.032475956 0.114999995 0 -0 -1 86 86 86 255
0.017585183 0.032958426 0.114999995 0 -0 -1 86 86 86 255
0.009705713 0.036222227 0.114999995 0 -0 -1 86 86 86 255
-0.017604075 0.04249999 0.114999995 0 -0 -1 86 86 86 255
-0 0.037499998 0.114999995 0 -0 -1 86 86 86 255
-0.009705713 0.036222227 0.114999995 0 -0 -1 86 86 86 255
-0.017585183 0.032958426 0.114999995 0 -0 -1 86 86 86 255
-0.018749999 0.032475956 0.114999995 0 -0 -1 86 86 86 255
-0.04249999 0.017604075 0.114999995 0 -0 -1 86 86 86 255
-0.019750249 0.03170844 0.114999995 0 -0 -1 86 86 86 255
-0.026516506 0.026516506 0.114999995 0 -0 -1 86 86 86 255
-0.032475956 0.018749999 0.114999995 0 -0 -1 86 86 86 255
-0.036222227 0.009705713 0.114999995 0 -0 -1 86 86 86 255
-0.03733543 0.00125 0.114999995 0 -0 -1 86 86 86 255
0.009053082 0.033786565 0.114999995 0 -0 -1 86 86 86 255
0.016324399 0.030774686 0.114999995 0 -0 -1 86 86 86 255
-0 -0.034978412 0.114999995 0 -0 -1 86 86 86 255
-0 0.034978412 0.114999995 0 -0 -1 86 86 86 255
-0.009053082 -0.033786565 0.114999995 0 -0 -1 86 86 86 255
-0.009053082 0.033786565 0.114999995 0 -0 -1 86 86 86 255
-0.015156683 -0.028752137 0.114999995 0 -0 -1 86 86 86 255
-0.016324399 -0.030774686 0.114999995 0 -0 -1 86 86 86 255
-0.017321745 -0.027502153 0.114999995 0 -0 -1 86 86 86 255
-0.015156683 0.028752137 0.114999995 0 -0 -1 86 86 86 255
-0.017321745 0.027502153 0.114999995 0 -0 -1 86 86 86 255
-0.018489463 -0.02952468 0.114999995 0 -0 -1 86 86 86 255
-0.018489463 0.02952468 0.114999995 0 -0 -1 86 86 86 255
-0.024733484 -0.024733484 0.114999995 0 -0 -1 86 86 86 255
-0.024733484 0.024733484 0.114999995 0 -0 -1 86 86 86 255
-0.030292219 -0.017489212 0.114999995 0 -0 -1 86 86 86 255
-0.030292219 0.017489212 0.114999995 0 -0 -1 86 86 86 255
-0.03247842 -0.00125 0.114999995 0 -0 -1 86 86 86 255
-0.033786565 -0.009053082 0.114999995 0 -0 -1 86 86 86 255
-0.034813847 -0.00125 0.114999995 0 -0 -1 86 86 86 255
-0.03247842 0.00125 0.114999995 0 -0 -1 86 86 86 255
-0.033786565 0.009053082 0.114999995 0 -0 -1 86 86 86 255
-0.034813847 0.00125 0.114999995 0 -0 -1 86 86 86 255
-0.016324399 0.030774686 0.114999995 0 -0 -1 86 86 86 255
0.04249999 -0.017604075 0.114999995 0.70710677 -0.70710677 -0 86 86 86 255
0.017604075 -0.04249999 0.125 0.70710677 -0.70710677 -0 86 86 86 255
0.017604075 -0.04249999 0.114999995 0.70710677 -0.70710677 -0 86 86 86 255
0.04249999 -0.017604075 0.125 0.70710677 -0.70710677 -0 86 86 86 255
-0.04249999 0.017604075 0.125 -1 -0 -0 86 86 86 255
-0.04249999 -0.017604075 0.114999995 -1 -0 -0 86 86 86 255
-0.04249999 -0.017604075 0.125 -1 -0 -0 86 86 86 255
-0.04249999 0.017604075 0.114999995 -1 -0 -0 86 86 86 255
-0.017604075 0.04249999 0.125 -0.70710677 0.70710677 -0 86 86 86 255
-0.04249999 0.017604075 0.114999995 -0.70710677 0.70710677 -0 86 86 86 255
-0.04249999 0.017604075 0.125 -0.70710677 0.70710677 -0 86 86 86 255
-0.017604075 0.04249999 0.114999995 -0.70710677 0.70710677 -0 86 86 86 255
-0.017604075 0.04249999 0.125 0 1 -0 86 86 86 255
0.017604075 0.04249999 0.114999995 0 1 -0 86 86 86 255
-0.017604075 0.04249999 0.114999995 0 1 -0 86 86 86 255
0.017604075 0.04249999 0.125 0 1 -0 86 86 86 255
0.017604075 0.04249999 0.114999995 0.70710677 0.70710677 -0 86 86 86 255
0.04249999 0.017604075 0.125 0.70710677 0.70710677 -0 86 86 86 255
0.04249999 0.017604075 0.114999995 0.70710677 0.70710677 -0 86 86 86 255
0.017604075 0.04249999 0.125 0.70710677 0.70710677 -0 86 86 86 255
0.04249999 0.017604075 0.114999995 1 -0 -0 86 86 86 255
0.04249999 -0.017604075 0.125 1 -0 -0 86 86 86 255
0.04249999 -0.017604075 0.114999995 1 -0 -0 86 86 86 255
0.04249999 0.017604075 0.125 1 -0 -0 86 86 86 255
0.0525 -0.02174621 0.125 0 -0 -1 86 86 86 255
0.04249999 -0.017604075 0.125 0 -0 -1 86 86 86 255
0.0525 0.02174621 0.125 0 -0 -1 86 86 86 255
0.02174621 -0.0525 0.125 0 -0 -1 86 86 86 255
0.017604075 -0.04249999 0.125 0 -0 -1 86 86 86 255
-0.02174621 -0.0525 0.125 0 -0 -1 86 86 86 255
-0.017604075 -0.04249999 0.125 0 -0 -1 86 86 86 255
-0.04249999 -0.017604075 0.125 0 -0 -1 86 86 86 255
-0.0525 -0.02174621 0.125 0 -0 -1 86 86 86 255
-0.04249999 0.017604075 0.125 0 -0 -1 86 86 86 255
0.04249999 0.017604075 0.125 0 -0 -1 86 86 86 255
0.02174621 0.0525 0.125 0 -0 -1 86 86 86 255
0.017604075 0.04249999 0.125 0 -0 -1 86 86 86 255
-0.02174621 0.0525 0.125 0 -0 -1 86 86 86 255
-0.017604075 0.04249999 0.125 0 -0 -1 86 86 86 255
-0.0525 0.02174621 0.125 0 -0 -1 86 86 86 255
0.015156683 0.028752137 0.114999995 0 -0 -1 255 255 255 255
0.016324399 0.030774686 0.114999995 0 -0 -1 255 255 255 255
0.017321745 0.027502153 0.114999995 0 -0 -1 255 255 255 255
-0.017321745 0.027502153 0.114999995 0 -0 -1 255 255 255 255
-0.016324399 0.030774686 0.114999995 0 -0 -1 255 255 255 255
-0.015156683 0.028752137 0.114999995 0 -0 -1 255 255 255 255
0.018749999 -0.032475956 0.114999995 0 -0 -1 255 255 255 255
0.017321745 -0.027502153 0.114999995 0 -0 -1 255 255 255 255
0.019750249 -0.03170844 0.114999995 0 -0 -1 255 255 255 255
0.017585183 -0.032958426 0.114999995 0 -0 -1 255 255 255 255
0.016324399 -0.030774686 0.114999995 0 -0 -1 255 255 255 255
0.009705713 -0.036222227 0.114999995 0 -0 -1 255 255 255 255
0.009053082 -0.033786565 0.114999995 0 -0 -1 255 255 255 255
-0 -0.037499998 0.114999995 0 -0 -1 255 255 255 255
-0 -0.034978412 0.114999995 0 -0 -1 255 255 255 255
-0.009705713 -0.036222227 0.114999995 0 -0 -1 255 255 255 255
-0.009053082 -0.033786565 0.114999995 0 -0 -1 255 255 255 255
-0.016324399 -0.030774686 0.114999995 0 -0 -1 255 255 255 255
-0.017585183 -0.032958426 0.114999995 0 -0 -1 255 255 255 255
-0.017321745 -0.027502153 0.114999995 0 -0 -1 255 255 255 255
-0.018489463 -0.02952468 0.114999995 0 -0 -1 255 255 255 255
-0.018749999 -0.032475956 0.114999995 0 -0 -1 255 255 255 255
-0.024733484 -0.024733484 0.114999995 0 -0 -1 255 255 255 255
-0.019750249 -0.03170844 0.114999995 0 -0 -1 255 255 255 255
-0.026516506 -0.026516506 0.114999995 0 -0 -1 255 255 255 255
-0.030292219 -0.017489212 0.114999995 0 -0 -1 255 255 255 255
-0.032475956 -0.018749999 0.114999995 0 -0 -1 255 255 255 255
-0.033786565 -0.009053082 0.114999995 0 -0 -1 255 255 255 255
-0.036222227 -0.009705713 0.114999995 0 -0 -1 255 255 255 255
-0.034813847 -0.00125 0.114999995 0 -0 -1 255 255 255 255
-0.034813847 0.00125 0.114999995 0 -0 -1 255 255 255 255
0.018749999 0.032475956 0.114999995 0 -0 -1 255 255 255 255
0.019750249 0.03170844 0.114999995 0 -0 -1 255 255 255 255
0.017585183 0.032958426 0.114999995 0 -0 -1 255 255 255 255
0.009705713 0.036222227 0.114999995 0 -0 -1 255 255 255 255
0.009053082 0.033786565 0.114999995 0 -0 -1 255 255 255 255
-0 0.037499998 0.114999995 0 -0 -1 255 255 255 255
-0 0.034978412 0.114999995 0 -0 -1 255 255 255 255
-0.009053082 0.033786565 0.114999995 0 -0 -1 255 255 255 255
-0.009705713 0.036222227 0.114999995 0 -0 -1 255 255 255 255
-0.017585183 0.032958426 0.114999995 0 -0 -1 255 255 255 255
-0.018489463 0.02952468 0.114999995 0 -0 -1 255 255 255 255
-0.018749999 0.032475956 0.114999995 0 -0 -1 255 255 255 255
-0.024733484 0.024733484 0.114999995 0 -0 -1 255 255 255 255
-0.019750249 0.03170844 0.114999995 0 -0 -1 255 255 255 255
-0.026516506 0.026516506 0.114999995 0 -0 -1 255 255 255 255
-0.030292219 0.017489212 0.114999995 0 -0 -1 255 255 255 255
-0.032475956 0.018749999 0.114999995 0 -0 -1 255 255 255 255
-0.033786565 0.009053082 0.114999995 0 -0 -1 255 255 255 255
-0.036222227 0.009705713 0.114999995 0 -0 -1 255 255 255 255
-0.03733543 -0.00125 0.114999995 0 -0 -1 255 255 255 255
-0.03733543 0.00125 0.114999995 0 -0 -1 255 255 255 255
-0.037499998 0 0.114999995 0 -0 -1 255 255 255 255
-0.03247842 0.00125 0.114999995 0 -0 -1 255 255 255 255
-0.03247842 -0.00125 0.114999995 0 -0 -1 255 255 255 255
-0.015156683 -0.028752137 0.114999995 0 -0 -1 255 255 255 255
0.015156683 -0.028752137 0.114999995 0 -0 -1 255 255 255 255
3 16 17 18
3 17 16 19
3 19 16 20
3 19 20 21
3 21 20 22
3 22 20 23
3 18 24 25
3 24 18 26
3 26 18 17
3 25 24 27
3 25 27 23
3 25 23 20
3 28 29 30
3 29 28 31
3 32 33 34
3 33 32 35
3 36 37 38
3 37 36 39
3 40 41 42
3 41 40 43
3 43 40 37
3 43 37 39
3 44 45 46
3 45 44 42
3 42 44 47
3 47 44 48
3 48 44 49
3 49 44 50
3 49 50 51
3 51 50 52
3 52 50 53
3 53 50 54
3 54 50 55
3 54 55 56
3 56 55 57
3 57 55 58
3 58 55 59
3 59 55 60
3 60 55 61
3 45 41 62
3 41 45 42
3 62 41 63
3 62 63 64
3 62 64 65
3 62 65 66
3 66 65 67
3 66 67 68
3 66 68 69
3 66 69 70
3 66 70 71
3 71 70 72
3 71 72 73
3 71 73 74
3 71 74 75
3 71 75 76
3 71 76 61
3 71 61 55
3 39 77 78
3 77 39 36
3 77 36 79
3 77 79 80
3 80 79 81
3 80 81 82
3 82 81 83
3 83 81 84
3 85 86 83
3 86 85 87
3 87 85 88
3 87 88 89
3 89 88 90
3 89 90 91
3 91 90 92
3 91 92 93
3 93 92 94
3 94 92 95
3 94 95 96
3 93 97 98
3 97 93 94
3 98 97 99
3 82 86 100
3 86 82 83
3 101 102 103
3 102 101 104
3 105 106 107
3 106 105 108
3 109 110 111
3 110 109 112
3 113 114 115
3 114 113 116
3 117 118 119
3 118 117 120
3 121 122 123
3 122 121 124
3 125 126 127
3 126 125 128
3 126 128 129
3 129 128 130
3 129 130 131
3 131 130 132
3 132 130 133
3 132 133 134
3 127 135 136
3 135 127 126
3 136 135 137
3 136 137 138
3 138 137 139
3 138 139 134
3 138 134 140
3 140 134 133
3 141 142 143
3 144 145 146
3 147 148 149
3 148 147 150
3 148 150 151
3 151 150 152
3 151 152 153
3 153 152 154
3 153 154 155
3 155 154 156
3 155 156 157
3 157 156 158
3 158 156 159
3 158 159 160
3 160 159 161
3 161 159 162
3 161 162 163
3 163 162 164
3 163 164 165
3 163 165 166
3 166 165 167
3 166 167 168
3 168 167 169
3 168 169 170
3 170 169 171
3 143 172 173
3 172 143 174
3 174 143 142
3 174 142 175
3 175 142 176
3 175 176 177
3 177 176 178
3 177 178 179
3 177 179 180
3 180 179 145
3 180 145 181
3 181 145 144
3 181 144 182
3 181 182 183
3 183 182 184
3 183 184 185
3 185 184 186
3 186 184 187
3 186 187 188
3 188 187 189
3 188 189 190
3 190 189 171
3 190 171 169
3 190 169 191
3 190 191 192
3 192 191 193
3 170 194 195
3 194 170 171
3 160 196 158
3 197 148 151

