ply
format ascii 1.0
commentY29udmVydGVyIGJ5IENvZGVMZW9wYXJk
comment Original mesh name: 'C:\Program Files (x86)\Steam\steamapps\common\Stormworks\rom\meshes\component_inventory_equipment_grenade.mesh'
comment SubMesh index: 0
comment SubMesh name: 'ID18'
comment Shader: Opaque (0)
element vertex 448
property float x
property float y
property float z
property float nx
property float ny
property float nz
property uchar red
property uchar green
property uchar blue
property uchar alpha
element face 256
property list uchar ushort vertex_index
end_header
-0.015746254 -0.04619109 0.021662459 0.8482369 0.2176896 0.4828099 255 204 49 255
-0.010402483 -0.04184383 0.010314028 0.8482369 0.2176896 0.4828099 255 204 49 255
-0.016868124 -0.041474365 0.02150676 0.8482369 0.2176896 0.4828099 255 204 49 255
-0.009841546 -0.04652853 0.0114407595 0.8482369 0.2176896 0.4828099 255 204 49 255
-0.010402483 -0.04184383 0.010314028 -1.5309884E-15 0.23384647 0.97227347 255 204 49 255
0.0019678776 -0.04652853 0.0114407595 -1.5309884E-15 0.23384647 0.97227347 255 204 49 255
0.0025288214 -0.04184383 0.010314028 -1.5309884E-15 0.23384647 0.97227347 255 204 49 255
-0.009841546 -0.04652853 0.0114407595 -1.5309884E-15 0.23384647 0.97227347 255 204 49 255
-0.009841546 -0.04585368 0.03188415 0.84823656 0.18537548 -0.49611545 255 204 49 255
-0.016868124 -0.041474365 0.02150676 0.84823656 0.18537548 -0.49611545 255 204 49 255
-0.010402483 -0.04110489 0.032699488 0.84823656 0.18537548 -0.49611545 255 204 49 255
-0.015746254 -0.04619109 0.021662459 0.84823656 0.18537548 -0.49611545 255 204 49 255
0.0025288214 -0.04184383 0.010314028 -0.8482375 0.2176909 0.48280823 255 204 49 255
0.007872557 -0.04619109 0.021662459 -0.8482375 0.2176909 0.48280823 255 204 49 255
0.008994443 -0.041474365 0.02150676 -0.8482375 0.2176909 0.48280823 255 204 49 255
0.0019678776 -0.04652853 0.0114407595 -0.8482375 0.2176909 0.48280823 255 204 49 255
0.0019678776 -0.04585368 0.03188415 1.7482386E-15 0.1692183 -0.9855786 255 204 49 255
-0.010402483 -0.04110489 0.032699488 1.7482386E-15 0.1692183 -0.9855786 255 204 49 255
0.0025288214 -0.04110489 0.032699488 1.7482386E-15 0.1692183 -0.9855786 255 204 49 255
-0.009841546 -0.04585368 0.03188415 1.7482386E-15 0.1692183 -0.9855786 255 204 49 255
0.008994443 -0.041474365 0.02150676 -0.8482371 0.1853774 -0.49611402 255 204 49 255
0.0019678776 -0.04585368 0.03188415 -0.8482371 0.1853774 -0.49611402 255 204 49 255
0.0025288214 -0.04110489 0.032699488 -0.8482371 0.1853774 -0.49611402 255 204 49 255
0.007872557 -0.04619109 0.021662459 -0.8482371 0.1853774 -0.49611402 255 204 49 255
-0.013639906 -0.049054634 0.030276773 -2.2070378E-17 -0.99945563 0.03299253 58 58 58 255
0.024011867 -0.049616512 0.01325575 -2.2070378E-17 -0.99945563 0.03299253 58 58 58 255
0.024011867 -0.049054634 0.030276773 -2.2070378E-17 -0.99945563 0.03299253 58 58 58 255
-0.013639906 -0.049616512 0.01325575 -2.2070378E-17 -0.99945563 0.03299253 58 58 58 255
0.03448281 0.007702496 0.01136362 -1.9666985E-15 0.03299253 0.99945563 58 58 58 255
0.039852805 -0.02449995 0.012426642 -1.9666985E-15 0.03299253 0.99945563 58 58 58 255
0.039852805 0.007702496 0.01136362 -1.9666985E-15 0.03299253 0.99945563 58 58 58 255
0.03448281 -0.02449995 0.012426642 -1.9666985E-15 0.03299253 0.99945563 58 58 58 255
0.020431876 -0.07108481 0.013964431 -1.9666985E-15 0.03299253 0.99945563 58 58 58 255
0.024011867 -0.049616512 0.01325575 -1.9666985E-15 0.03299253 0.99945563 58 58 58 255
-0.013639906 -0.049616512 0.01325575 -1.9666985E-15 0.03299253 0.99945563 58 58 58 255
-0.013639906 -0.07108481 0.013964431 -1.9666985E-15 0.03299253 0.99945563 58 58 58 255
0.024011867 -0.049054634 0.030276773 0.9230769 -0.384406 0.01268943 58 58 58 255
0.03448281 -0.02449995 0.012426642 0.9230769 -0.384406 0.01268943 58 58 58 255
0.03448281 -0.023938073 0.029447664 0.9230769 -0.384406 0.01268943 58 58 58 255
0.024011867 -0.049616512 0.01325575 0.9230769 -0.384406 0.01268943 58 58 58 255
0.039852805 -0.023938073 0.029447664 1.9743415E-15 -0.03299253 -0.99945563 58 58 58 255
0.03448281 -0.023938073 0.029447664 1.9743415E-15 -0.03299253 -0.99945563 58 58 58 255
0.039852805 0.0082643675 0.028384646 1.9743415E-15 -0.03299253 -0.99945563 58 58 58 255
0.020431876 -0.07052295 0.030985454 1.9743415E-15 -0.03299253 -0.99945563 58 58 58 255
0.024011867 -0.049054634 0.030276773 1.9743415E-15 -0.03299253 -0.99945563 58 58 58 255
-0.013639906 -0.049054634 0.030276773 1.9743415E-15 -0.03299253 -0.99945563 58 58 58 255
-0.013639906 -0.07052295 0.030985454 1.9743415E-15 -0.03299253 -0.99945563 58 58 58 255
0.03448281 0.0082643675 0.028384646 1.9743415E-15 -0.03299253 -0.99945563 58 58 58 255
-0.013639906 -0.07052295 0.030985454 1 1.3657697E-17 4.137377E-16 58 58 58 255
-0.013639906 -0.049616512 0.01325575 1 1.3657697E-17 4.137377E-16 58 58 58 255
-0.013639906 -0.049054634 0.030276773 1 1.3657697E-17 4.137377E-16 58 58 58 255
-0.013639906 -0.07108481 0.013964431 1 1.3657697E-17 4.137377E-16 58 58 58 255
0.020431876 -0.07108481 0.013964431 2.1326822E-17 0.99945563 -0.03299253 58 58 58 255
-0.013639906 -0.07052295 0.030985454 2.1326822E-17 0.99945563 -0.03299253 58 58 58 255
0.020431876 -0.07052295 0.030985454 2.1326822E-17 0.99945563 -0.03299253 58 58 58 255
-0.013639906 -0.07108481 0.013964431 2.1326822E-17 0.99945563 -0.03299253 58 58 58 255
0.039852805 -0.02449995 0.012426642 -0.92307705 0.38440576 -0.012689432 58 58 58 255
0.020431876 -0.07052295 0.030985454 -0.92307705 0.38440576 -0.012689432 58 58 58 255
0.039852805 -0.023938073 0.029447664 -0.92307705 0.38440576 -0.012689432 58 58 58 255
0.020431876 -0.07108481 0.013964431 -0.92307705 0.38440576 -0.012689432 58 58 58 255
0.039852805 0.007702496 0.01136362 -1 -2.1852318E-17 -6.619804E-16 58 58 58 255
0.039852805 -0.023938073 0.029447664 -1 -2.1852318E-17 -6.619804E-16 58 58 58 255
0.039852805 0.0082643675 0.028384646 -1 -2.1852318E-17 -6.619804E-16 58 58 58 255
0.039852805 -0.02449995 0.012426642 -1 -2.1852318E-17 -6.619804E-16 58 58 58 255
0.03448281 0.0082643675 0.028384646 -8.6040895E-18 -0.99945563 0.03299253 58 58 58 255
0.039852805 0.007702496 0.01136362 -8.6040895E-18 -0.99945563 0.03299253 58 58 58 255
0.039852805 0.0082643675 0.028384646 -8.6040895E-18 -0.99945563 0.03299253 58 58 58 255
0.03448281 0.007702496 0.01136362 -8.6040895E-18 -0.99945563 0.03299253 58 58 58 255
0.03448281 -0.023938073 0.029447664 1 2.1129704E-31 -0 58 58 58 255
0.03448281 0.007702496 0.01136362 1 2.1129704E-31 -0 58 58 58 255
0.03448281 0.0082643675 0.028384646 1 2.1129704E-31 -0 58 58 58 255
0.03448281 -0.02449995 0.012426642 1 2.1129704E-31 -0 58 58 58 255
0.026790477 -0.029042104 0.034989078 -1.9696362E-15 0.03299253 0.99945563 51 51 18 255
0.033761684 -0.047634218 0.03560281 -1.9696362E-15 0.03299253 0.99945563 51 51 18 255
0.03753048 -0.047634218 0.03560281 -1.9696362E-15 0.03299253 0.99945563 51 51 18 255
0.024906097 -0.0323042 0.03509676 -1.9696362E-15 0.03299253 0.99945563 51 51 18 255
0.0053104865 -0.029042104 0.034989078 -1.9696362E-15 0.03299253 0.99945563 51 51 18 255
0.0071948874 -0.0323042 0.03509676 -1.9696362E-15 0.03299253 0.99945563 51 51 18 255
-0.0016607192 -0.047634218 0.03560281 -1.9696362E-15 0.03299253 0.99945563 51 51 18 255
-0.005429512 -0.047634218 0.03560281 -1.9696362E-15 0.03299253 0.99945563 51 51 18 255
0.026790477 -0.0662263 0.036216546 -1.9696362E-15 0.03299253 0.99945563 51 51 18 255
0.024906097 -0.0629642 0.036108863 -1.9696362E-15 0.03299253 0.99945563 51 51 18 255
0.0053104865 -0.0662263 0.036216546 -1.9696362E-15 0.03299253 0.99945563 51 51 18 255
0.0071948874 -0.0629642 0.036108863 -1.9696362E-15 0.03299253 0.99945563 51 51 18 255
0.026790477 -0.0662263 0.036216546 2.0858623E-17 0.99945563 -0.03299253 51 51 18 255
0.0053104865 -0.0661082 0.039794598 2.0858623E-17 0.99945563 -0.03299253 51 51 18 255
0.026790477 -0.0661082 0.039794598 2.0858623E-17 0.99945563 -0.03299253 51 51 18 255
0.0053104865 -0.0662263 0.036216546 2.0858623E-17 0.99945563 -0.03299253 51 51 18 255
0.03753048 -0.047634218 0.03560281 -0.8660255 0.4997277 -0.01649626 51 51 18 255
0.026790477 -0.0661082 0.039794598 -0.8660255 0.4997277 -0.01649626 51 51 18 255
0.03753048 -0.047516104 0.039180864 -0.8660255 0.4997277 -0.01649626 51 51 18 255
0.026790477 -0.0662263 0.036216546 -0.8660255 0.4997277 -0.01649626 51 51 18 255
0.026790477 -0.029042104 0.034989078 -0.8660255 -0.4997277 0.01649626 51 51 18 255
0.03753048 -0.047516104 0.039180864 -0.8660255 -0.4997277 0.01649626 51 51 18 255
0.026790477 -0.028923988 0.038567126 -0.8660255 -0.4997277 0.01649626 51 51 18 255
0.03753048 -0.047634218 0.03560281 -0.8660255 -0.4997277 0.01649626 51 51 18 255
0.0053104865 -0.028923988 0.038567126 -2.087569E-17 -0.99945563 0.03299253 51 51 18 255
0.026790477 -0.029042104 0.034989078 -2.087569E-17 -0.99945563 0.03299253 51 51 18 255
0.026790477 -0.028923988 0.038567126 -2.087569E-17 -0.99945563 0.03299253 51 51 18 255
0.0053104865 -0.029042104 0.034989078 -2.087569E-17 -0.99945563 0.03299253 51 51 18 255
-0.005429512 -0.047516104 0.039180864 0.8660255 -0.4997277 0.01649626 51 51 18 255
0.0053104865 -0.029042104 0.034989078 0.8660255 -0.4997277 0.01649626 51 51 18 255
0.0053104865 -0.028923988 0.038567126 0.8660255 -0.4997277 0.01649626 51 51 18 255
-0.005429512 -0.047634218 0.03560281 0.8660255 -0.4997277 0.01649626 51 51 18 255
0.0053104865 -0.0661082 0.039794598 0.8660255 0.4997277 -0.01649626 51 51 18 255
-0.005429512 -0.047634218 0.03560281 0.8660255 0.4997277 -0.01649626 51 51 18 255
-0.005429512 -0.047516104 0.039180864 0.8660255 0.4997277 -0.01649626 51 51 18 255
0.0053104865 -0.0662263 0.036216546 0.8660255 0.4997277 -0.01649626 51 51 18 255
0.026790477 -0.0661082 0.039794598 1.962156E-15 -0.03299253 -0.99945563 51 51 18 255
0.033761684 -0.047516104 0.039180864 1.962156E-15 -0.03299253 -0.99945563 51 51 18 255
0.03753048 -0.047516104 0.039180864 1.962156E-15 -0.03299253 -0.99945563 51 51 18 255
0.024906097 -0.0628461 0.039686915 1.962156E-15 -0.03299253 -0.99945563 51 51 18 255
0.0053104865 -0.0661082 0.039794598 1.962156E-15 -0.03299253 -0.99945563 51 51 18 255
0.0071948874 -0.0628461 0.039686915 1.962156E-15 -0.03299253 -0.99945563 51 51 18 255
-0.0016607192 -0.047516104 0.039180864 1.962156E-15 -0.03299253 -0.99945563 51 51 18 255
-0.005429512 -0.047516104 0.039180864 1.962156E-15 -0.03299253 -0.99945563 51 51 18 255
0.026790477 -0.028923988 0.038567126 1.962156E-15 -0.03299253 -0.99945563 51 51 18 255
0.024906097 -0.03218609 0.038674813 1.962156E-15 -0.03299253 -0.99945563 51 51 18 255
0.0053104865 -0.028923988 0.038567126 1.962156E-15 -0.03299253 -0.99945563 51 51 18 255
0.0071948874 -0.03218609 0.038674813 1.962156E-15 -0.03299253 -0.99945563 51 51 18 255
0.0071948874 -0.0323042 0.03509676 -0.8660254 0.49972782 -0.01649627 51 51 18 255
-0.0016607192 -0.047516104 0.039180864 -0.8660254 0.49972782 -0.01649627 51 51 18 255
0.0071948874 -0.03218609 0.038674813 -0.8660254 0.49972782 -0.01649627 51 51 18 255
-0.0016607192 -0.047634218 0.03560281 -0.8660254 0.49972782 -0.01649627 51 51 18 255
0.024906097 -0.0323042 0.03509676 2.1040439E-17 0.99945563 -0.03299253 51 51 18 255
0.0071948874 -0.03218609 0.038674813 2.1040439E-17 0.99945563 -0.03299253 51 51 18 255
0.024906097 -0.03218609 0.038674813 2.1040439E-17 0.99945563 -0.03299253 51 51 18 255
0.0071948874 -0.0323042 0.03509676 2.1040439E-17 0.99945563 -0.03299253 51 51 18 255
-0.0016607192 -0.047634218 0.03560281 -0.8660254 -0.49972782 0.01649627 51 51 18 255
0.0071948874 -0.0628461 0.039686915 -0.8660254 -0.49972782 0.01649627 51 51 18 255
-0.0016607192 -0.047516104 0.039180864 -0.8660254 -0.49972782 0.01649627 51 51 18 255
0.0071948874 -0.0629642 0.036108863 -0.8660254 -0.49972782 0.01649627 51 51 18 255
0.033761684 -0.047516104 0.039180864 0.8660255 0.49972758 -0.01649626 51 51 18 255
0.024906097 -0.0323042 0.03509676 0.8660255 0.49972758 -0.01649626 51 51 18 255
0.024906097 -0.03218609 0.038674813 0.8660255 0.49972758 -0.01649626 51 51 18 255
0.033761684 -0.047634218 0.03560281 0.8660255 0.49972758 -0.01649626 51 51 18 255
0.0071948874 -0.0628461 0.039686915 -2.1275863E-17 -0.99945563 0.03299253 51 51 18 255
0.024906097 -0.0629642 0.036108863 -2.1275863E-17 -0.99945563 0.03299253 51 51 18 255
0.024906097 -0.0628461 0.039686915 -2.1275863E-17 -0.99945563 0.03299253 51 51 18 255
0.0071948874 -0.0629642 0.036108863 -2.1275863E-17 -0.99945563 0.03299253 51 51 18 255
0.024906097 -0.0628461 0.039686915 0.8660255 -0.4997277 0.01649626 51 51 18 255
0.033761684 -0.047634218 0.03560281 0.8660255 -0.4997277 0.01649626 51 51 18 255
0.033761684 -0.047516104 0.039180864 0.8660255 -0.4997277 0.01649626 51 51 18 255
0.024906097 -0.0629642 0.036108863 0.8660255 -0.4997277 0.01649626 51 51 18 255
-0.013639906 -0.06758018 0.011622673 -0.8660255 0.4997277 -0.01649626 58 58 58 255
-0.015429908 -0.06997018 0.03319327 -0.8660255 0.4997277 -0.01649626 58 58 58 255
-0.013639906 -0.06687151 0.033090983 -0.8660255 0.4997277 -0.01649626 58 58 58 255
-0.015429908 -0.070678875 0.011724961 -0.8660255 0.4997277 -0.01649626 58 58 58 255
-0.015429908 -0.064481504 0.011520385 -2.11223E-15 0.03299253 0.99945563 58 58 58 255
-0.015429908 -0.070678875 0.011724961 -2.11223E-15 0.03299253 0.99945563 58 58 58 255
-0.013639906 -0.06758018 0.011622673 -2.11223E-15 0.03299253 0.99945563 58 58 58 255
-0.019009907 -0.064481504 0.011520385 -2.11223E-15 0.03299253 0.99945563 58 58 58 255
-0.019009907 -0.070678875 0.011724961 -2.11223E-15 0.03299253 0.99945563 58 58 58 255
-0.020799905 -0.06758018 0.011622673 -2.11223E-15 0.03299253 0.99945563 58 58 58 255
-0.015429908 -0.070678875 0.011724961 2.112558E-17 0.99945563 -0.03299253 58 58 58 255
-0.019009907 -0.06997018 0.03319327 2.112558E-17 0.99945563 -0.03299253 58 58 58 255
-0.015429908 -0.06997018 0.03319327 2.112558E-17 0.99945563 -0.03299253 58 58 58 255
-0.019009907 -0.070678875 0.011724961 2.112558E-17 0.99945563 -0.03299253 58 58 58 255
-0.015429908 -0.06997018 0.03319327 2.1121002E-15 -0.03299253 -0.99945563 58 58 58 255
-0.015429908 -0.06377281 0.03298869 2.1121002E-15 -0.03299253 -0.99945563 58 58 58 255
-0.013639906 -0.06687151 0.033090983 2.1121002E-15 -0.03299253 -0.99945563 58 58 58 255
-0.019009907 -0.06997018 0.03319327 2.1121002E-15 -0.03299253 -0.99945563 58 58 58 255
-0.019009907 -0.06377281 0.03298869 2.1121002E-15 -0.03299253 -0.99945563 58 58 58 255
-0.020799905 -0.06687151 0.033090983 2.1121002E-15 -0.03299253 -0.99945563 58 58 58 255
-0.015429908 -0.064481504 0.011520385 -0.86602527 -0.49972787 0.016496269 58 58 58 255
-0.013639906 -0.06687151 0.033090983 -0.86602527 -0.49972787 0.016496269 58 58 58 255
-0.015429908 -0.06377281 0.03298869 -0.86602527 -0.49972787 0.016496269 58 58 58 255
-0.013639906 -0.06758018 0.011622673 -0.86602527 -0.49972787 0.016496269 58 58 58 255
-0.019009907 -0.06377281 0.03298869 -2.112558E-17 -0.99945563 0.03299253 58 58 58 255
-0.015429908 -0.064481504 0.011520385 -2.112558E-17 -0.99945563 0.03299253 58 58 58 255
-0.015429908 -0.06377281 0.03298869 -2.112558E-17 -0.99945563 0.03299253 58 58 58 255
-0.019009907 -0.064481504 0.011520385 -2.112558E-17 -0.99945563 0.03299253 58 58 58 255
-0.020799905 -0.06687151 0.033090983 0.8660255 -0.4997277 0.01649626 58 58 58 255
-0.019009907 -0.064481504 0.011520385 0.8660255 -0.4997277 0.01649626 58 58 58 255
-0.019009907 -0.06377281 0.03298869 0.8660255 -0.4997277 0.01649626 58 58 58 255
-0.020799905 -0.06758018 0.011622673 0.8660255 -0.4997277 0.01649626 58 58 58 255
-0.019009907 -0.06997018 0.03319327 0.8660256 0.49972746 -0.01649626 58 58 58 255
-0.020799905 -0.06758018 0.011622673 0.8660256 0.49972746 -0.01649626 58 58 58 255
-0.020799905 -0.06687151 0.033090983 0.8660256 0.49972746 -0.01649626 58 58 58 255
-0.019009907 -0.070678875 0.011724961 0.8660256 0.49972746 -0.01649626 58 58 58 255
0.01749133 -0.06393185 0.03076788 -1.8499545E-15 0.03299253 0.99945563 51 51 18 255
0.01749133 -0.066255845 0.030844597 -1.8499545E-15 0.03299253 0.99945563 51 51 18 255
0.01816258 -0.065093845 0.030806238 -1.8499545E-15 0.03299253 0.99945563 51 51 18 255
0.016148832 -0.06393185 0.03076788 -1.8499545E-15 0.03299253 0.99945563 51 51 18 255
0.016148832 -0.066255845 0.030844597 -1.8499545E-15 0.03299253 0.99945563 51 51 18 255
0.01547758 -0.065093845 0.030806238 -1.8499545E-15 0.03299253 0.99945563 51 51 18 255
0.016148832 -0.06607868 0.036211673 0.8660255 0.4997277 -0.01649626 51 51 18 255
0.01547758 -0.065093845 0.030806238 0.8660255 0.4997277 -0.01649626 51 51 18 255
0.01547758 -0.06491668 0.036173314 0.8660255 0.4997277 -0.01649626 51 51 18 255
0.016148832 -0.066255845 0.030844597 0.8660255 0.4997277 -0.01649626 51 51 18 255
0.01749133 -0.066255845 0.030844597 2.554034E-17 0.99945563 -0.03299253 51 51 18 255
0.016148832 -0.06607868 0.036211673 2.554034E-17 0.99945563 -0.03299253 51 51 18 255
0.01749133 -0.06607868 0.036211673 2.554034E-17 0.99945563 -0.03299253 51 51 18 255
0.016148832 -0.066255845 0.030844597 2.554034E-17 0.99945563 -0.03299253 51 51 18 255
0.01816258 -0.065093845 0.030806238 -0.8660255 0.4997277 -0.01649626 51 51 18 255
0.01749133 -0.06607868 0.036211673 -0.8660255 0.4997277 -0.01649626 51 51 18 255
0.01816258 -0.06491668 0.036173314 -0.8660255 0.4997277 -0.01649626 51 51 18 255
0.01749133 -0.066255845 0.030844597 -0.8660255 0.4997277 -0.01649626 51 51 18 255
0.01749133 -0.06393185 0.03076788 -0.8660255 -0.4997277 0.01649626 51 51 18 255
0.01816258 -0.06491668 0.036173314 -0.8660255 -0.4997277 0.01649626 51 51 18 255
0.01749133 -0.063754655 0.036134955 -0.8660255 -0.4997277 0.01649626 51 51 18 255
0.01816258 -0.065093845 0.030806238 -0.8660255 -0.4997277 0.01649626 51 51 18 255
0.016148832 -0.06393185 0.03076788 -2.096482E-17 -0.99945563 0.03299253 51 51 18 255
0.01749133 -0.063754655 0.036134955 -2.096482E-17 -0.99945563 0.03299253 51 51 18 255
0.016148832 -0.063754655 0.036134955 -2.096482E-17 -0.99945563 0.03299253 51 51 18 255
0.01749133 -0.06393185 0.03076788 -2.096482E-17 -0.99945563 0.03299253 51 51 18 255
0.01547758 -0.06491668 0.036173314 0.8660255 -0.4997277 0.01649626 51 51 18 255
0.016148832 -0.06393185 0.03076788 0.8660255 -0.4997277 0.01649626 51 51 18 255
0.016148832 -0.063754655 0.036134955 0.8660255 -0.4997277 0.01649626 51 51 18 255
0.01547758 -0.065093845 0.030806238 0.8660255 -0.4997277 0.01649626 51 51 18 255
0.01749133 -0.06607868 0.036211673 1.968747E-15 -0.03299253 -0.99945563 51 51 18 255
0.01749133 -0.063754655 0.036134955 1.968747E-15 -0.03299253 -0.99945563 51 51 18 255
0.01816258 -0.06491668 0.036173314 1.968747E-15 -0.03299253 -0.99945563 51 51 18 255
0.016148832 -0.06607868 0.036211673 1.968747E-15 -0.03299253 -0.99945563 51 51 18 255
0.016148832 -0.063754655 0.036134955 1.968747E-15 -0.03299253 -0.99945563 51 51 18 255
0.01547758 -0.06491668 0.036173314 1.968747E-15 -0.03299253 -0.99945563 51 51 18 255
0.015947249 0.009948036 0.054327928 -0.09378693 2.8178544E-15 -0.99559224 30 30 30 255
-0.0046289754 0.029948045 0.056266256 -0.09378693 2.8178544E-15 -0.99559224 30 30 30 255
0.015947249 0.029948045 0.054327928 -0.09378693 2.8178544E-15 -0.99559224 30 30 30 255
-0.0046289754 0.009948036 0.056266256 -0.09378693 2.8178544E-15 -0.99559224 30 30 30 255
-0.023703886 0.029948045 0.05426626 5.0626873E-16 -1 -5.4076904E-15 30 30 30 255
-0.021542955 0.029948045 0.0516033 5.0626873E-16 -1 -5.4076904E-15 30 30 30 255
-0.004609214 0.029948045 0.05322275 5.0626873E-16 -1 -5.4076904E-15 30 30 30 255
-0.04340588 0.029948045 0.01946544 5.0626873E-16 -1 -5.4076904E-15 30 30 30 255
-0.04017116 0.029948045 0.01946544 5.0626873E-16 -1 -5.4076904E-15 30 30 30 255
-0.029793404 0.029948045 -0.008866453 5.0626873E-16 -1 -5.4076904E-15 30 30 30 255
-0.026558677 0.029948045 -0.008866453 5.0626873E-16 -1 -5.4076904E-15 30 30 30 255
0.015947249 0.029948045 0.054327928 5.0626873E-16 -1 -5.4076904E-15 30 30 30 255
-0.0046289754 0.029948045 0.056266256 5.0626873E-16 -1 -5.4076904E-15 30 30 30 255
0.013622869 0.029948045 0.051664993 5.0626873E-16 -1 -5.4076904E-15 30 30 30 255
0.03485137 0.029948045 0.020400489 5.0626873E-16 -1 -5.4076904E-15 30 30 30 255
0.031715 0.029948045 0.020400489 5.0626873E-16 -1 -5.4076904E-15 30 30 30 255
0.019302187 0.029948045 -0.008698864 5.0626873E-16 -1 -5.4076904E-15 30 30 30 255
0.022438563 0.029948045 -0.008698864 5.0626873E-16 -1 -5.4076904E-15 30 30 30 255
0.03485137 0.009948036 0.020400489 -0.8735496 3.3261891E-15 -0.4867352 30 30 30 255
0.015947249 0.029948045 0.054327928 -0.8735496 3.3261891E-15 -0.4867352 30 30 30 255
0.03485137 0.029948045 0.020400489 -0.8735496 3.3261891E-15 -0.4867352 30 30 30 255
0.015947249 0.009948036 0.054327928 -0.8735496 3.3261891E-15 -0.4867352 30 30 30 255
0.015947249 0.009948036 0.054327928 -1.2268375E-15 1 1.9577225E-15 30 30 30 255
-0.023703886 0.009948036 0.05426626 -1.2268375E-15 1 1.9577225E-15 30 30 30 255
-0.0046289754 0.009948036 0.056266256 -1.2268375E-15 1 1.9577225E-15 30 30 30 255
-0.004609214 0.009948036 0.05322275 -1.2268375E-15 1 1.9577225E-15 30 30 30 255
0.013622869 0.009948036 0.051664993 -1.2268375E-15 1 1.9577225E-15 30 30 30 255
0.03485137 0.009948036 0.020400489 -1.2268375E-15 1 1.9577225E-15 30 30 30 255
0.031715 0.009948036 0.020400489 -1.2268375E-15 1 1.9577225E-15 30 30 30 255
0.019302187 0.009948036 -0.008698864 -1.2268375E-15 1 1.9577225E-15 30 30 30 255
0.022438563 0.009948036 -0.008698864 -1.2268375E-15 1 1.9577225E-15 30 30 30 255
-0.021542955 0.009948036 0.05160332 -1.2268375E-15 1 1.9577225E-15 30 30 30 255
-0.04340588 0.009948036 0.01946544 -1.2268375E-15 1 1.9577225E-15 30 30 30 255
-0.04017116 0.009948036 0.01946544 -1.2268375E-15 1 1.9577225E-15 30 30 30 255
-0.029793404 0.009948036 -0.008866453 -1.2268375E-15 1 1.9577225E-15 30 30 30 255
-0.026558677 0.009948036 -0.008866453 -1.2268375E-15 1 1.9577225E-15 30 30 30 255
-0.023703886 0.009948036 0.05426626 0.1042779 3.904478E-15 -0.9945482 30 30 30 255
-0.0046289754 0.029948045 0.056266256 0.1042779 3.904478E-15 -0.9945482 30 30 30 255
-0.0046289754 0.009948036 0.056266256 0.1042779 3.904478E-15 -0.9945482 30 30 30 255
-0.023703886 0.029948045 0.05426626 0.1042779 3.904478E-15 -0.9945482 30 30 30 255
-0.023703886 0.029948045 0.05426626 0.8702203 7.338193E-17 -0.4926627 30 30 30 255
-0.04340588 0.009948036 0.01946544 0.8702203 7.338193E-17 -0.4926627 30 30 30 255
-0.04340588 0.029948045 0.01946544 0.8702203 7.338193E-17 -0.4926627 30 30 30 255
-0.023703886 0.009948036 0.05426626 0.8702203 7.338193E-17 -0.4926627 30 30 30 255
-0.04340588 0.029948045 0.01946544 0.9013596 -1.5466155E-15 0.4330713 30 30 30 255
-0.029793404 0.009948036 -0.008866453 0.9013596 -1.5466155E-15 0.4330713 30 30 30 255
-0.029793404 0.029948045 -0.008866453 0.9013596 -1.5466155E-15 0.4330713 30 30 30 255
-0.04340588 0.009948036 0.01946544 0.9013596 -1.5466155E-15 0.4330713 30 30 30 255
-0.026558677 0.009948036 -0.008866453 -0.9013596 1.5537094E-15 -0.4330713 30 30 30 255
-0.04017116 0.029948045 0.01946544 -0.9013596 1.5537094E-15 -0.4330713 30 30 30 255
-0.026558677 0.029948045 -0.008866453 -0.9013596 1.5537094E-15 -0.4330713 30 30 30 255
-0.04017116 0.009948036 0.01946544 -0.9013596 1.5537094E-15 -0.4330713 30 30 30 255
-0.04017116 0.009948036 0.01946544 -0.8651686 3.184403E-07 0.501481 30 30 30 255
-0.021542955 0.029948045 0.0516033 -0.8651686 3.184403E-07 0.501481 30 30 30 255
-0.04017116 0.029948045 0.01946544 -0.8651686 3.184403E-07 0.501481 30 30 30 255
-0.021542955 0.009948036 0.05160332 -0.8651686 3.184403E-07 0.501481 30 30 30 255
-0.021542955 0.029948045 0.0516033 -0.0951996 6.321156E-07 0.9954582 30 30 30 255
-0.004609214 0.009948036 0.05322275 -0.0951996 6.321156E-07 0.9954582 30 30 30 255
-0.004609214 0.029948045 0.05322275 -0.0951996 6.321156E-07 0.9954582 30 30 30 255
-0.021542955 0.009948036 0.05160332 -0.0951996 6.321156E-07 0.9954582 30 30 30 255
-0.004609214 0.029948045 0.05322275 0.08513023 1.6736066E-15 0.99636984 30 30 30 255
0.013622869 0.009948036 0.051664993 0.08513023 1.6736066E-15 0.99636984 30 30 30 255
0.013622869 0.029948045 0.051664993 0.08513023 1.6736066E-15 0.99636984 30 30 30 255
-0.004609214 0.009948036 0.05322275 0.08513023 1.6736066E-15 0.99636984 30 30 30 255
0.013622869 0.029948045 0.051664993 0.86552685 -4.420306E-15 0.50086254 30 30 30 255
0.031715 0.009948036 0.020400489 0.86552685 -4.420306E-15 0.50086254 30 30 30 255
0.031715 0.029948045 0.020400489 0.86552685 -4.420306E-15 0.50086254 30 30 30 255
0.013622869 0.009948036 0.051664993 0.86552685 -4.420306E-15 0.50086254 30 30 30 255
0.031715 0.029948045 0.020400489 0.9198114 2.8531828E-15 -0.3923607 30 30 30 255
0.019302187 0.009948036 -0.008698864 0.9198114 2.8531828E-15 -0.3923607 30 30 30 255
0.019302187 0.029948045 -0.008698864 0.9198114 2.8531828E-15 -0.3923607 30 30 30 255
0.031715 0.009948036 0.020400489 0.9198114 2.8531828E-15 -0.3923607 30 30 30 255
0.022438563 0.009948036 -0.008698864 -0.9198114 -2.7483716E-15 0.3923607 30 30 30 255
0.03485137 0.029948045 0.020400489 -0.9198114 -2.7483716E-15 0.3923607 30 30 30 255
0.022438563 0.029948045 -0.008698864 -0.9198114 -2.7483716E-15 0.3923607 30 30 30 255
0.03485137 0.009948036 0.020400489 -0.9198114 -2.7483716E-15 0.3923607 30 30 30 255
0.0071246717 -0.049335603 0.021766262 2.225828E-17 0.99945563 -0.03299253 51 51 18 255
-0.009467588 -0.04901956 0.03134059 2.225828E-17 0.99945563 -0.03299253 51 51 18 255
0.0015939156 -0.04901956 0.03134059 2.225828E-17 0.99945563 -0.03299253 51 51 18 255
-0.014998336 -0.049335603 0.021766262 2.225828E-17 0.99945563 -0.03299253 51 51 18 255
0.0015939156 -0.04965166 0.012191919 2.225828E-17 0.99945563 -0.03299253 51 51 18 255
-0.009467588 -0.04965166 0.012191919 2.225828E-17 0.99945563 -0.03299253 51 51 18 255
0.0015939156 -0.04901956 0.03134059 1.7818812E-15 0.1692162 -0.98557895 51 51 18 255
-0.009841546 -0.04585368 0.03188415 1.7818812E-15 0.1692162 -0.98557895 51 51 18 255
0.0019678776 -0.04585368 0.03188415 1.7818812E-15 0.1692162 -0.98557895 51 51 18 255
-0.009467588 -0.04901956 0.03134059 1.7818812E-15 0.1692162 -0.98557895 51 51 18 255
0.007872557 -0.04619109 0.021662459 -0.84823775 0.18537168 -0.49611488 51 51 18 255
0.0015939156 -0.04901956 0.03134059 -0.84823775 0.18537168 -0.49611488 51 51 18 255
0.0019678776 -0.04585368 0.03188415 -0.84823775 0.18537168 -0.49611488 51 51 18 255
0.0071246717 -0.049335603 0.021766262 -0.84823775 0.18537168 -0.49611488 51 51 18 255
0.0019678776 -0.04652853 0.0114407595 -0.84823805 0.21768658 0.48280916 51 51 18 255
0.0071246717 -0.049335603 0.021766262 -0.84823805 0.21768658 0.48280916 51 51 18 255
0.007872557 -0.04619109 0.021662459 -0.84823805 0.21768658 0.48280916 51 51 18 255
0.0015939156 -0.04965166 0.012191919 -0.84823805 0.21768658 0.48280916 51 51 18 255
-0.009841546 -0.04652853 0.0114407595 -1.527856E-15 0.2338448 0.9722739 51 51 18 255
0.0015939156 -0.04965166 0.012191919 -1.527856E-15 0.2338448 0.9722739 51 51 18 255
0.0019678776 -0.04652853 0.0114407595 -1.527856E-15 0.2338448 0.9722739 51 51 18 255
-0.009467588 -0.04965166 0.012191919 -1.527856E-15 0.2338448 0.9722739 51 51 18 255
-0.014998336 -0.049335603 0.021766262 0.8482371 0.21768896 0.48280966 51 51 18 255
-0.009841546 -0.04652853 0.0114407595 0.8482371 0.21768896 0.48280966 51 51 18 255
-0.015746254 -0.04619109 0.021662459 0.8482371 0.21768896 0.48280966 51 51 18 255
-0.009467588 -0.04965166 0.012191919 0.8482371 0.21768896 0.48280966 51 51 18 255
-0.009467588 -0.04901956 0.03134059 0.8482368 0.18537399 -0.49611557 51 51 18 255
-0.015746254 -0.04619109 0.021662459 0.8482368 0.18537399 -0.49611557 51 51 18 255
-0.009841546 -0.04585368 0.03188415 0.8482368 0.18537399 -0.49611557 51 51 18 255
-0.014998336 -0.049335603 0.021766262 0.8482368 0.18537399 -0.49611557 51 51 18 255
-0.011589089 0.07108484 0.031052431 -1.894277E-17 -0.99945563 0.03299253 51 51 18 255
0.0113676675 0.07064756 0.01780556 -1.894277E-17 -0.99945563 0.03299253 51 51 18 255
0.003715395 0.07108484 0.031052431 -1.894277E-17 -0.99945563 0.03299253 51 51 18 255
-0.01924134 0.07064756 0.01780556 -1.894277E-17 -0.99945563 0.03299253 51 51 18 255
0.003715395 0.07021026 0.004558693 -1.894277E-17 -0.99945563 0.03299253 51 51 18 255
-0.011589089 0.07021026 0.004558693 -1.894277E-17 -0.99945563 0.03299253 51 51 18 255
0.003715395 0.07021026 0.004558693 -1.81099E-15 -0.3661073 0.9305726 51 51 18 255
-0.020086963 0.035675388 -0.0090280725 -1.81099E-15 -0.3661073 0.9305726 51 51 18 255
0.012213282 0.035675388 -0.0090280725 -1.81099E-15 -0.3661073 0.9305726 51 51 18 255
-0.011589089 0.07021026 0.004558693 -1.81099E-15 -0.3661073 0.9305726 51 51 18 255
0.003715395 0.07021026 0.004558693 -0.7950002 -0.3812504 0.4718292 51 51 18 255
0.028363394 0.036598284 0.018929541 -0.7950002 -0.3812504 0.4718292 51 51 18 255
0.0113676675 0.07064756 0.01780556 -0.7950002 -0.3812504 0.4718292 51 51 18 255
0.012213282 0.035675388 -0.0090280725 -0.7950002 -0.3812504 0.4718292 51 51 18 255
0.0113676675 0.07064756 0.01780556 -0.7950004 -0.4115371 -0.4456586 51 51 18 255
0.012213282 0.037521176 0.046887163 -0.7950004 -0.4115371 -0.4456586 51 51 18 255
0.003715395 0.07108484 0.031052431 -0.7950004 -0.4115371 -0.4456586 51 51 18 255
0.028363394 0.036598284 0.018929541 -0.7950004 -0.4115371 -0.4456586 51 51 18 255
-0.020086963 0.037521176 0.046887163 1.8515844E-15 -0.4266806 -0.9044024 51 51 18 255
0.003715395 0.07108484 0.031052431 1.8515844E-15 -0.4266806 -0.9044024 51 51 18 255
0.012213282 0.037521176 0.046887163 1.8515844E-15 -0.4266806 -0.9044024 51 51 18 255
-0.011589089 0.07108484 0.031052431 1.8515844E-15 -0.4266806 -0.9044024 51 51 18 255
-0.020086963 0.037521176 0.046887163 0.7950004 -0.4115372 -0.4456586 51 51 18 255
-0.01924134 0.07064756 0.01780556 0.7950004 -0.4115372 -0.4456586 51 51 18 255
-0.011589089 0.07108484 0.031052431 0.7950004 -0.4115372 -0.4456586 51 51 18 255
-0.036237106 0.036598284 0.018929541 0.7950004 -0.4115372 -0.4456586 51 51 18 255
-0.036237106 0.036598284 0.018929541 0.7950002 -0.3812505 0.4718291 51 51 18 255
-0.011589089 0.07021026 0.004558693 0.7950002 -0.3812505 0.4718291 51 51 18 255
-0.01924134 0.07064756 0.01780556 0.7950002 -0.3812505 0.4718291 51 51 18 255
-0.020086963 0.035675388 -0.0090280725 0.7950002 -0.3812505 0.4718291 51 51 18 255
0.012213282 0.035675388 -0.0090280725 -1.9757145E-15 -0.06317067 0.9980027 51 51 18 255
-0.021894814 0.0031442076 -0.011087201 -1.9757145E-15 -0.06317067 0.9980027 51 51 18 255
0.014021128 0.0031442076 -0.011087201 -1.9757145E-15 -0.06317067 0.9980027 51 51 18 255
-0.020086963 0.035675388 -0.0090280725 -1.9757145E-15 -0.06317067 0.9980027 51 51 18 255
0.012213282 0.035675388 -0.0090280725 -0.8620201 -0.07959091 0.5005863 51 51 18 255
0.031979136 0.0041704117 0.020000001 -0.8620201 -0.07959091 0.5005863 51 51 18 255
0.028363394 0.036598284 0.018929541 -0.8620201 -0.07959091 0.5005863 51 51 18 255
0.014021128 0.0031442076 -0.011087201 -0.8620201 -0.07959091 0.5005863 51 51 18 255
0.028363394 0.036598284 0.018929541 -0.86202013 -0.11243091 -0.4942476 51 51 18 255
0.014021128 0.0051966156 0.05108721 -0.86202013 -0.11243091 -0.4942476 51 51 18 255
0.012213282 0.037521176 0.046887163 -0.86202013 -0.11243091 -0.4942476 51 51 18 255
0.031979136 0.0041704117 0.020000001 -0.86202013 -0.11243091 -0.4942476 51 51 18 255
-0.021894814 0.0051966156 0.05108721 1.9728386E-15 -0.1288505 -0.99166405 51 51 18 255
0.012213282 0.037521176 0.046887163 1.9728386E-15 -0.1288505 -0.99166405 51 51 18 255
0.014021128 0.0051966156 0.05108721 1.9728386E-15 -0.1288505 -0.99166405 51 51 18 255
-0.020086963 0.037521176 0.046887163 1.9728386E-15 -0.1288505 -0.99166405 51 51 18 255
-0.021894814 0.0051966156 0.05108721 0.86202025 -0.11243048 -0.49424723 51 51 18 255
-0.036237106 0.036598284 0.018929541 0.86202025 -0.11243048 -0.49424723 51 51 18 255
-0.020086963 0.037521176 0.046887163 0.86202025 -0.11243048 -0.49424723 51 51 18 255
-0.039852794 0.0041704117 0.020000001 0.86202025 -0.11243048 -0.49424723 51 51 18 255
-0.039852794 0.0041704117 0.020000001 0.8620202 -0.07959055 0.5005861 51 51 18 255
-0.020086963 0.035675388 -0.0090280725 0.8620202 -0.07959055 0.5005861 51 51 18 255
-0.036237106 0.036598284 0.018929541 0.8620202 -0.07959055 0.5005861 51 51 18 255
-0.021894814 0.0031442076 -0.011087201 0.8620202 -0.07959055 0.5005861 51 51 18 255
-0.021894814 0.0031442076 -0.011087201 -1.942626E-15 0.301994 0.9533098 51 51 18 255
0.00954948 -0.024163982 -0.002436366 -1.942626E-15 0.301994 0.9533098 51 51 18 255
0.014021128 0.0031442076 -0.011087201 -1.942626E-15 0.301994 0.9533098 51 51 18 255
-0.017423147 -0.024163982 -0.002436366 -1.942626E-15 0.301994 0.9533098 51 51 18 255
0.014021128 0.0031442076 -0.011087201 -0.8337695 0.2861122 0.4721951 51 51 18 255
0.023035798 -0.023393324 0.020909896 -0.8337695 0.2861122 0.4721951 51 51 18 255
0.031979136 0.0041704117 0.020000001 -0.8337695 0.2861122 0.4721951 51 51 18 255
0.00954948 -0.024163982 -0.002436366 -0.8337695 0.2861122 0.4721951 51 51 18 255
0.031979136 0.0041704117 0.020000001 -0.8337695 0.2543486 -0.4900359 51 51 18 255
0.00954948 -0.022622637 0.04425616 -0.8337695 0.2543486 -0.4900359 51 51 18 255
0.014021128 0.0051966156 0.05108721 -0.8337695 0.2543486 -0.4900359 51 51 18 255
0.023035798 -0.023393324 0.020909896 -0.8337695 0.2543486 -0.4900359 51 51 18 255
0.00954948 -0.022622637 0.04425616 1.8840361E-15 0.2384671 -0.9711505 51 51 18 255
-0.021894814 0.0051966156 0.05108721 1.8840361E-15 0.2384671 -0.9711505 51 51 18 255
0.014021128 0.0051966156 0.05108721 1.8840361E-15 0.2384671 -0.9711505 51 51 18 255
-0.017423147 -0.022622637 0.04425616 1.8840361E-15 0.2384671 -0.9711505 51 51 18 255
-0.017423147 -0.022622637 0.04425616 0.8337697 0.254349 -0.49003544 51 51 18 255
-0.039852794 0.0041704117 0.020000001 0.8337697 0.254349 -0.49003544 51 51 18 255
-0.021894814 0.0051966156 0.05108721 0.8337697 0.254349 -0.49003544 51 51 18 255
-0.030909456 -0.023393324 0.020909896 0.8337697 0.254349 -0.49003544 51 51 18 255
-0.030909456 -0.023393324 0.020909896 0.8337697 0.2861125 0.4721946 51 51 18 255
-0.021894814 0.0031442076 -0.011087201 0.8337697 0.2861125 0.4721946 51 51 18 255
-0.039852794 0.0041704117 0.020000001 0.8337697 0.2861125 0.4721946 51 51 18 255
-0.017423147 -0.024163982 -0.002436366 0.8337697 0.2861125 0.4721946 51 51 18 255
0.00954948 -0.024163982 -0.002436366 -6.494708E-16 0.9525273 0.3044532 51 51 18 255
-0.012167118 -0.02710642 0.006769458 -6.494708E-16 0.9525273 0.3044532 51 51 18 255
0.0042934427 -0.02710642 0.006769458 -6.494708E-16 0.9525273 0.3044532 51 51 18 255
-0.017423147 -0.024163982 -0.002436366 -6.494708E-16 0.9525273 0.3044532 51 51 18 255
0.023035798 -0.023393324 0.020909896 -0.2907368 0.9469892 0.1366878 51 51 18 255
0.0042934427 -0.02710642 0.006769458 -0.2907368 0.9469892 0.1366878 51 51 18 255
0.012523725 -0.026636085 0.02101694 -0.2907368 0.9469892 0.1366878 51 51 18 255
0.00954948 -0.024163982 -0.002436366 -0.2907368 0.9469892 0.1366878 51 51 18 255
0.023035798 -0.023393324 0.020909896 -0.2907369 0.9359131 -0.1988435 51 51 18 255
0.0042934427 -0.026165783 0.03526445 -0.2907369 0.9359131 -0.1988435 51 51 18 255
0.00954948 -0.022622637 0.04425616 -0.2907369 0.9359131 -0.1988435 51 51 18 255
0.012523725 -0.026636085 0.02101694 -0.2907369 0.9359131 -0.1988435 51 51 18 255
0.0042934427 -0.026165783 0.03526445 6.7670246E-16 0.9303749 -0.3666095 51 51 18 255
-0.017423147 -0.022622637 0.04425616 6.7670246E-16 0.9303749 -0.3666095 51 51 18 255
0.00954948 -0.022622637 0.04425616 6.7670246E-16 0.9303749 -0.3666095 51 51 18 255
-0.012167118 -0.026165783 0.03526445 6.7670246E-16 0.9303749 -0.3666095 51 51 18 255
-0.012167118 -0.026165783 0.03526445 0.2907373 0.9359129 -0.1988436 51 51 18 255
-0.030909456 -0.023393324 0.020909896 0.2907373 0.9359129 -0.1988436 51 51 18 255
-0.017423147 -0.022622637 0.04425616 0.2907373 0.9359129 -0.1988436 51 51 18 255
-0.020397402 -0.026636085 0.02101694 0.2907373 0.9359129 -0.1988436 51 51 18 255
-0.012167118 -0.02710642 0.006769458 0.29073718 0.94698906 0.13668798 51 51 18 255
-0.030909456 -0.023393324 0.020909896 0.29073718 0.94698906 0.13668798 51 51 18 255
-0.020397402 -0.026636085 0.02101694 0.29073718 0.94698906 0.13668798 51 51 18 255
-0.017423147 -0.024163982 -0.002436366 0.29073718 0.94698906 0.13668798 51 51 18 255
-0.012167118 -0.02710642 0.006769458 -1.6664076E-15 0.2338469 0.97227347 51 51 18 255
0.0025288214 -0.04184383 0.010314028 -1.6664076E-15 0.2338469 0.97227347 51 51 18 255
0.0042934427 -0.02710642 0.006769458 -1.6664076E-15 0.2338469 0.97227347 51 51 18 255
-0.010402483 -0.04184383 0.010314028 -1.6664076E-15 0.2338469 0.97227347 51 51 18 255
0.0042934427 -0.02710642 0.006769458 -0.8482367 0.21768998 0.48280996 51 51 18 255
0.008994443 -0.041474365 0.02150676 -0.8482367 0.21768998 0.48280996 51 51 18 255
0.012523725 -0.026636085 0.02101694 -0.8482367 0.21768998 0.48280996 51 51 18 255
0.0025288214 -0.04184383 0.010314028 -0.8482367 0.21768998 0.48280996 51 51 18 255
0.012523725 -0.026636085 0.02101694 -0.8482369 0.18537544 -0.49611515 51 51 18 255
0.0025288214 -0.04110489 0.032699488 -0.8482369 0.18537544 -0.49611515 51 51 18 255
0.0042934427 -0.026165783 0.03526445 -0.8482369 0.18537544 -0.49611515 51 51 18 255
0.008994443 -0.041474365 0.02150676 -0.8482369 0.18537544 -0.49611515 51 51 18 255
0.0025288214 -0.04110489 0.032699488 1.8779544E-15 0.1692184 -0.9855786 51 51 18 255
-0.012167118 -0.026165783 0.03526445 1.8779544E-15 0.1692184 -0.9855786 51 51 18 255
0.0042934427 -0.026165783 0.03526445 1.8779544E-15 0.1692184 -0.9855786 51 51 18 255
-0.010402483 -0.04110489 0.032699488 1.8779544E-15 0.1692184 -0.9855786 51 51 18 255
-0.010402483 -0.04110489 0.032699488 0.84823656 0.18537568 -0.49611545 51 51 18 255
-0.020397402 -0.026636085 0.02101694 0.84823656 0.18537568 -0.49611545 51 51 18 255
-0.012167118 -0.026165783 0.03526445 0.84823656 0.18537568 -0.49611545 51 51 18 255
-0.016868124 -0.041474365 0.02150676 0.84823656 0.18537568 -0.49611545 51 51 18 255
-0.016868124 -0.041474365 0.02150676 0.8482365 0.2176902 0.4828103 51 51 18 255
-0.012167118 -0.02710642 0.006769458 0.8482365 0.2176902 0.4828103 51 51 18 255
-0.020397402 -0.026636085 0.02101694 0.8482365 0.2176902 0.4828103 51 51 18 255
-0.010402483 -0.04184383 0.010314028 0.8482365 0.2176902 0.4828103 51 51 18 255
3 0 1 2
3 1 0 3
3 4 5 6
3 5 4 7
3 8 9 10
3 9 8 11
3 12 13 14
3 13 12 15
3 16 17 18
3 17 16 19
3 20 21 22
3 21 20 23
3 24 25 26
3 25 24 27
3 28 29 30
3 29 28 31
3 29 31 32
3 32 31 33
3 32 33 34
3 32 34 35
3 36 37 38
3 37 36 39
3 40 41 42
3 41 40 43
3 41 43 44
3 44 43 45
3 45 43 46
3 47 42 41
3 48 49 50
3 49 48 51
3 52 53 54
3 53 52 55
3 56 57 58
3 57 56 59
3 60 61 62
3 61 60 63
3 64 65 66
3 65 64 67
3 68 69 70
3 69 68 71
3 72 73 74
3 73 72 75
3 75 72 76
3 75 76 77
3 77 76 78
3 78 76 79
3 73 80 74
3 80 73 81
3 80 81 82
3 82 81 83
3 82 83 78
3 82 78 79
3 84 85 86
3 85 84 87
3 88 89 90
3 89 88 91
3 92 93 94
3 93 92 95
3 96 97 98
3 97 96 99
3 100 101 102
3 101 100 103
3 104 105 106
3 105 104 107
3 108 109 110
3 109 108 111
3 111 108 112
3 111 112 113
3 113 112 114
3 114 112 115
3 109 116 110
3 116 109 117
3 116 117 118
3 118 117 119
3 118 119 114
3 118 114 115
3 120 121 122
3 121 120 123
3 124 125 126
3 125 124 127
3 128 129 130
3 129 128 131
3 132 133 134
3 133 132 135
3 136 137 138
3 137 136 139
3 140 141 142
3 141 140 143
3 144 145 146
3 145 144 147
3 148 149 150
3 149 148 151
3 149 151 152
3 152 151 153
3 154 155 156
3 155 154 157
3 158 159 160
3 159 158 161
3 159 161 162
3 162 161 163
3 164 165 166
3 165 164 167
3 168 169 170
3 169 168 171
3 172 173 174
3 173 172 175
3 176 177 178
3 177 176 179
3 180 181 182
3 181 180 183
3 181 183 184
3 184 183 185
3 186 187 188
3 187 186 189
3 190 191 192
3 191 190 193
3 194 195 196
3 195 194 197
3 198 199 200
3 199 198 201
3 202 203 204
3 203 202 205
3 206 207 208
3 207 206 209
3 210 211 212
3 211 210 213
3 211 213 214
3 214 213 215
3 216 217 218
3 217 216 219
3 220 221 222
3 221 220 223
3 221 223 224
3 224 223 225
3 224 225 226
3 220 227 228
3 227 220 222
3 227 222 229
3 227 229 230
3 230 229 231
3 230 231 232
3 230 232 233
3 234 235 236
3 235 234 237
3 238 239 240
3 239 238 241
3 241 238 242
3 242 238 243
3 242 243 244
3 244 243 245
3 245 243 246
3 239 247 248
3 247 239 241
3 248 247 249
3 248 249 250
3 250 249 251
3 252 253 254
3 253 252 255
3 256 257 258
3 257 256 259
3 260 261 262
3 261 260 263
3 264 265 266
3 265 264 267
3 268 269 270
3 269 268 271
3 272 273 274
3 273 272 275
3 276 277 278
3 277 276 279
3 280 281 282
3 281 280 283
3 284 285 286
3 285 284 287
3 288 289 290
3 289 288 291
3 292 293 294
3 293 292 295
3 295 292 296
3 295 296 297
3 298 299 300
3 299 298 301
3 302 303 304
3 303 302 305
3 306 307 308
3 307 306 309
3 310 311 312
3 311 310 313
3 314 315 316
3 315 314 317
3 318 319 320
3 319 318 321
3 322 323 324
3 323 322 325
3 323 325 326
3 326 325 327
3 328 329 330
3 329 328 331
3 332 333 334
3 333 332 335
3 336 337 338
3 337 336 339
3 340 341 342
3 341 340 343
3 344 345 346
3 345 344 347
3 348 349 350
3 349 348 351
3 352 353 354
3 353 352 355
3 356 357 358
3 357 356 359
3 360 361 362
3 361 360 363
3 364 365 366
3 365 364 367
3 368 369 370
3 369 368 371
3 372 373 374
3 373 372 375
3 376 377 378
3 377 376 379
3 380 381 382
3 381 380 383
3 384 385 386
3 385 384 387
3 388 389 390
3 389 388 391
3 392 393 394
3 393 392 395
3 396 397 398
3 397 396 399
3 400 401 402
3 401 400 403
3 404 405 406
3 405 404 407
3 408 409 410
3 409 408 411
3 412 413 414
3 413 412 415
3 416 417 418
3 417 416 419
3 420 421 422
3 421 420 423
3 424 425 426
3 425 424 427
3 428 429 430
3 429 428 431
3 432 433 434
3 433 432 435
3 436 437 438
3 437 436 439
3 440 441 442
3 441 440 443
3 444 445 446
3 445 444 447

