ply
format ascii 1.0
commentY29udmVydGVyIGJ5IENvZGVMZW9wYXJk
comment Original mesh name: 'C:\Program Files (x86)\Steam\steamapps\common\Stormworks\rom\meshes\component_spotlight_small_mounted_add.mesh'
comment SubMesh index: 1
comment SubMesh name: 'ID2'
comment Shader: Transparent (1)
element vertex 12
property float x
property float y
property float z
property float nx
property float ny
property float nz
property uchar red
property uchar green
property uchar blue
property uchar alpha
element face 4
property list uchar ushort vertex_index
end_header
-0.1066801 -0.05414561 -0.09176702 1 -2.848679E-14 -4.7168998E-14 255 255 0 255
-0.1066801 -0.05414561 0.09176702 1 -2.848679E-14 -4.7168998E-14 255 255 0 255
-0.1066801 -0.10711431 -4.511946E-17 1 -2.848679E-14 -4.7168998E-14 255 255 0 255
-0.1066801 0.053214595 -0.09176702 1 -2.848679E-14 -4.7168998E-14 255 255 0 255
-0.1066801 0.053214595 0.09176702 1 -2.848679E-14 -4.7168998E-14 255 255 0 255
-0.1066801 0.105959594 -2.1206147E-15 1 -2.848679E-14 -4.7168998E-14 255 255 0 255
-0.1066801 0.105959594 -2.1206147E-15 -1 2.848679E-14 4.7168998E-14 160 160 199 128
-0.1066801 0.053214595 -0.09176702 -1 2.848679E-14 4.7168998E-14 160 160 199 128
-0.1066801 0.053214595 0.09176702 -1 2.848679E-14 4.7168998E-14 160 160 199 128
-0.1066801 -0.05414561 0.09176702 -1 2.848679E-14 4.7168998E-14 160 160 199 128
-0.1066801 -0.05414561 -0.09176702 -1 2.848679E-14 4.7168998E-14 160 160 199 128
-0.1066801 -0.10711431 -4.511946E-17 -1 2.848679E-14 4.7168998E-14 160 160 199 128
3 6 7 8
3 8 7 9
3 7 10 9
3 11 9 10

