ply
format ascii 1.0
commentY29udmVydGVyIGJ5IENvZGVMZW9wYXJk
comment Original mesh name: 'C:\Program Files (x86)\Steam\steamapps\common\Stormworks\rom\meshes\component_button.mesh'
comment SubMesh index: 0
comment SubMesh name: 'ID11'
comment Shader: Opaque (0)
element vertex 56
property float x
property float y
property float z
property float nx
property float ny
property float nz
property uchar red
property uchar green
property uchar blue
property uchar alpha
element face 36
property list uchar ushort vertex_index
end_header
-0.07499999 0.07499999 0.105 1.387779E-17 -0 1 255 125 0 255
-0.07499999 -0.075 0.105 1.387779E-17 -0 1 255 125 0 255
0.075 0.07499999 0.105 1.387779E-17 -0 1 255 125 0 255
0.075 -0.075 0.105 1.387779E-17 -0 1 255 125 0 255
-0.07499999 -0.075 0.125 0 1 -0 255 125 0 255
0.075 -0.075 0.125 0 1 -0 255 125 0 255
-0.07499999 -0.075 0.105 0 1 -0 255 125 0 255
0.075 -0.075 0.105 0 1 -0 255 125 0 255
-0.07499999 0.07499999 0.105 1 -0 -1.387779E-17 255 125 0 255
-0.07499999 0.07499999 0.125 1 -0 -1.387779E-17 255 125 0 255
-0.07499999 -0.075 0.105 1 -0 -1.387779E-17 255 125 0 255
-0.07499999 -0.075 0.125 1 -0 -1.387779E-17 255 125 0 255
-0.07499999 0.07499999 0.125 0 -1 -0 255 125 0 255
-0.07499999 0.07499999 0.105 0 -1 -0 255 125 0 255
0.075 0.07499999 0.125 0 -1 -0 255 125 0 255
0.075 0.07499999 0.105 0 -1 -0 255 125 0 255
0.075 0.07499999 0.125 -1 -0 1.387779E-17 255 125 0 255
0.075 0.07499999 0.105 -1 -0 1.387779E-17 255 125 0 255
0.075 -0.075 0.125 -1 -0 1.387779E-17 255 125 0 255
0.075 -0.075 0.105 -1 -0 1.387779E-17 255 125 0 255
0.125 -0.125 0.125 -1.387779E-17 -0 -1 255 125 0 255
0.075 -0.075 0.125 -1.387779E-17 -0 -1 255 125 0 255
0.125 0.125 0.125 -1.387779E-17 -0 -1 255 125 0 255
-0.125 -0.125 0.125 -1.387779E-17 -0 -1 255 125 0 255
-0.07499999 -0.075 0.125 -1.387779E-17 -0 -1 255 125 0 255
-0.07499999 0.07499999 0.125 -1.387779E-17 -0 -1 255 125 0 255
0.075 0.07499999 0.125 -1.387779E-17 -0 -1 255 125 0 255
-0.125 0.125 0.125 -1.387779E-17 -0 -1 255 125 0 255
-0.125 -0.125 0.125 1.387779E-17 -0 1 255 125 0 255
-0.07499999 0.07499999 0.125 1.387779E-17 -0 1 255 125 0 255
-0.125 0.125 0.125 1.387779E-17 -0 1 255 125 0 255
0.075 0.07499999 0.125 1.387779E-17 -0 1 255 125 0 255
0.075 -0.075 0.125 1.387779E-17 -0 1 255 125 0 255
0.125 0.125 0.125 1.387779E-17 -0 1 255 125 0 255
-0.07499999 -0.075 0.125 1.387779E-17 -0 1 255 125 0 255
0.125 -0.125 0.125 1.387779E-17 -0 1 255 125 0 255
-0.07499999 -0.075 0.105 -1.387779E-17 -0 -1 86 86 86 255
0.075 0.07499999 0.105 -1.387779E-17 -0 -1 86 86 86 255
0.075 -0.075 0.105 -1.387779E-17 -0 -1 86 86 86 255
-0.07499999 0.07499999 0.105 -1.387779E-17 -0 -1 86 86 86 255
0.075 -0.075 0.125 0 -1 -0 86 86 86 255
-0.07499999 -0.075 0.105 0 -1 -0 86 86 86 255
0.075 -0.075 0.105 0 -1 -0 86 86 86 255
-0.07499999 -0.075 0.125 0 -1 -0 86 86 86 255
-0.07499999 0.07499999 0.125 -1 -0 1.387779E-17 86 86 86 255
-0.07499999 -0.075 0.105 -1 -0 1.387779E-17 86 86 86 255
-0.07499999 -0.075 0.125 -1 -0 1.387779E-17 86 86 86 255
-0.07499999 0.07499999 0.105 -1 -0 1.387779E-17 86 86 86 255
-0.07499999 0.07499999 0.105 0 1 -0 86 86 86 255
0.075 0.07499999 0.125 0 1 -0 86 86 86 255
0.075 0.07499999 0.105 0 1 -0 86 86 86 255
-0.07499999 0.07499999 0.125 0 1 -0 86 86 86 255
0.075 0.07499999 0.105 1 -0 -1.387779E-17 86 86 86 255
0.075 -0.075 0.125 1 -0 -1.387779E-17 86 86 86 255
0.075 -0.075 0.105 1 -0 -1.387779E-17 86 86 86 255
0.075 0.07499999 0.125 1 -0 -1.387779E-17 86 86 86 255
3 0 1 2
3 3 2 1
3 4 5 6
3 7 6 5
3 8 9 10
3 11 10 9
3 12 13 14
3 15 14 13
3 16 17 18
3 19 18 17
3 20 21 22
3 21 20 23
3 21 23 24
3 24 23 25
3 22 26 27
3 26 22 21
3 27 26 25
3 27 25 23
3 28 29 30
3 29 31 30
3 32 33 31
3 30 31 33
3 29 28 34
3 34 28 32
3 28 35 32
3 33 32 35
3 36 37 38
3 37 36 39
3 40 41 42
3 41 40 43
3 44 45 46
3 45 44 47
3 48 49 50
3 49 48 51
3 52 53 54
3 53 52 55

