ply
format ascii 1.0
commentY29udmVydGVyIGJ5IENvZGVMZW9wYXJk
comment Original mesh name: 'C:\Program Files (x86)\Steam\steamapps\common\Stormworks\rom\meshes\component_laser_missile.mesh'
comment SubMesh index: 0
comment SubMesh name: 'ID50'
comment Shader: Transparent (1)
element vertex 192
property float x
property float y
property float z
property float nx
property float ny
property float nz
property uchar red
property uchar green
property uchar blue
property uchar alpha
element face 26
property list uchar ushort vertex_index
end_header
0.01341553 -0.032387946 0.28124988 0 -0 -1 109 160 199 207
0.032387946 0.01341553 0.28124988 0 -0 -1 109 160 199 207
0.032387946 -0.01341553 0.28124988 0 -0 -1 109 160 199 207
0.01341553 0.032387946 0.28124988 0 -0 -1 109 160 199 207
-0.01341553 -0.032387946 0.28124988 0 -0 -1 109 160 199 207
-0.01341553 0.032387946 0.28124988 0 -0 -1 109 160 199 207
-0.032387946 -0.01341553 0.28124988 0 -0 -1 109 160 199 207
-0.032387946 0.01341553 0.28124988 0 -0 -1 109 160 199 207
-0.032387946 0.01341553 0.28124988 0 -0 1 109 160 199 207
-0.032387946 -0.01341553 0.28124988 0 -0 1 109 160 199 207
-0.01341553 0.032387946 0.28124988 0 -0 1 109 160 199 207
-0.01341553 -0.032387946 0.28124988 0 -0 1 109 160 199 207
0.01341553 0.032387946 0.28124988 0 -0 1 109 160 199 207
0.01341553 -0.032387946 0.28124988 0 -0 1 109 160 199 207
0.032387946 0.01341553 0.28124988 0 -0 1 109 160 199 207
0.032387946 -0.01341553 0.28124988 0 -0 1 109 160 199 207
-0.08838836 -0.051776703 0.28124988 0.649216 -1.577606E-29 -0.7606041 109 160 199 207
-0.05177671 0.051776674 0.31249985 0.649216 -1.577606E-29 -0.7606041 109 160 199 207
-0.05177671 -0.051776703 0.31249985 0.649216 -1.577606E-29 -0.7606041 109 160 199 207
-0.08838836 0.051776674 0.28124988 0.649216 -1.577606E-29 -0.7606041 109 160 199 207
-0.08838836 -0.051776703 0.28124988 0.544526 0.5445261 -0.637952 109 160 199 207
-0.05177671 -0.051776703 0.31249985 0.544526 0.5445261 -0.637952 109 160 199 207
-0.05177671 -0.08838834 0.28124988 0.544526 0.5445261 -0.637952 109 160 199 207
-0.08838836 0.051776674 0.28124988 0.544526 -0.544526 -0.6379521 109 160 199 207
-0.05177671 0.08838834 0.28124988 0.544526 -0.544526 -0.6379521 109 160 199 207
-0.05177671 0.051776674 0.31249985 0.544526 -0.544526 -0.6379521 109 160 199 207
-0.05177671 -0.051776703 0.31249985 0 -0 -1 109 160 199 207
0.051776726 0.051776674 0.31249985 0 -0 -1 109 160 199 207
0.051776726 -0.051776703 0.31249985 0 -0 -1 109 160 199 207
-0.05177671 0.051776674 0.31249985 0 -0 -1 109 160 199 207
-0.05177671 -0.08838834 0.28124988 0 0.64921606 -0.7606039 109 160 199 207
0.051776726 -0.051776703 0.31249985 0 0.64921606 -0.7606039 109 160 199 207
0.051776726 -0.08838834 0.28124988 0 0.64921606 -0.7606039 109 160 199 207
-0.05177671 -0.051776703 0.31249985 0 0.64921606 -0.7606039 109 160 199 207
-0.05177671 0.051776674 0.31249985 0 -0.649216 -0.7606041 109 160 199 207
0.051776726 0.08838834 0.28124988 0 -0.649216 -0.7606041 109 160 199 207
0.051776726 0.051776674 0.31249985 0 -0.649216 -0.7606041 109 160 199 207
-0.05177671 0.08838834 0.28124988 0 -0.649216 -0.7606041 109 160 199 207
0.051776726 -0.051776703 0.31249985 -0.64921606 -3.1552116E-29 -0.7606039 109 160 199 207
0.08838836 0.051776674 0.28124988 -0.64921606 -3.1552116E-29 -0.7606039 109 160 199 207
0.08838836 -0.051776703 0.28124988 -0.64921606 -3.1552116E-29 -0.7606039 109 160 199 207
0.051776726 0.051776674 0.31249985 -0.64921606 -3.1552116E-29 -0.7606039 109 160 199 207
0.051776726 -0.051776703 0.31249985 -0.5445261 0.5445261 -0.6379519 109 160 199 207
0.08838836 -0.051776703 0.28124988 -0.5445261 0.5445261 -0.6379519 109 160 199 207
0.051776726 -0.08838834 0.28124988 -0.5445261 0.5445261 -0.6379519 109 160 199 207
0.051776726 0.08838834 0.28124988 -0.5445261 -0.544526 -0.637952 109 160 199 207
0.08838836 0.051776674 0.28124988 -0.5445261 -0.544526 -0.637952 109 160 199 207
0.051776726 0.051776674 0.31249985 -0.5445261 -0.544526 -0.637952 109 160 199 207
-0.032387942 -0.013415551 0.28124985 -0.70710677 -0.70710677 -0 84 84 84 255
-0.013415539 -0.032387946 0.27124992 -0.70710677 -0.70710677 -0 84 84 84 255
-0.013415539 -0.032387946 0.28124985 -0.70710677 -0.70710677 -0 84 84 84 255
-0.032387942 -0.013415551 0.27124992 -0.70710677 -0.70710677 -0 84 84 84 255
-0.032387942 0.013415515 0.28124985 -1 -0 -0 84 84 84 255
-0.032387942 -0.013415551 0.27124992 -1 -0 -0 84 84 84 255
-0.032387942 -0.013415551 0.28124985 -1 -0 -0 84 84 84 255
-0.032387942 0.013415515 0.27124992 -1 -0 -0 84 84 84 255
0.013415515 -0.032387946 0.28124985 0 -1 -0 84 84 84 255
-0.013415539 -0.032387946 0.27124992 0 -1 -0 84 84 84 255
0.013415515 -0.032387946 0.27124992 0 -1 -0 84 84 84 255
-0.013415539 -0.032387946 0.28124985 0 -1 -0 84 84 84 255
-0.013415539 0.032387942 0.28124985 -0.70710677 0.70710677 -0 84 84 84 255
-0.032387942 0.013415515 0.27124992 -0.70710677 0.70710677 -0 84 84 84 255
-0.032387942 0.013415515 0.28124985 -0.70710677 0.70710677 -0 84 84 84 255
-0.013415539 0.032387942 0.27124992 -0.70710677 0.70710677 -0 84 84 84 255
0.032387946 -0.013415551 0.27124992 0.70710677 -0.70710677 -0 84 84 84 255
0.013415515 -0.032387946 0.28124985 0.70710677 -0.70710677 -0 84 84 84 255
0.013415515 -0.032387946 0.27124992 0.70710677 -0.70710677 -0 84 84 84 255
0.032387946 -0.013415551 0.28124985 0.70710677 -0.70710677 -0 84 84 84 255
-0.013415539 0.032387942 0.28124985 0 1 -0 84 84 84 255
0.013415515 0.032387942 0.27124992 0 1 -0 84 84 84 255
-0.013415539 0.032387942 0.27124992 0 1 -0 84 84 84 255
0.013415515 0.032387942 0.28124985 0 1 -0 84 84 84 255
0.032387946 0.013415515 0.27124992 1 -0 -0 84 84 84 255
0.032387946 -0.013415551 0.28124985 1 -0 -0 84 84 84 255
0.032387946 -0.013415551 0.27124992 1 -0 -0 84 84 84 255
0.032387946 0.013415515 0.28124985 1 -0 -0 84 84 84 255
0.013415515 0.032387942 0.27124992 0.70710677 0.70710677 -0 84 84 84 255
0.032387946 0.013415515 0.28124985 0.70710677 0.70710677 -0 84 84 84 255
0.032387946 0.013415515 0.27124992 0.70710677 0.70710677 -0 84 84 84 255
0.013415515 0.032387942 0.28124985 0.70710677 0.70710677 -0 84 84 84 255
0.013415515 -0.032387946 0.27124992 0 -0 -1 30 30 30 255
0.032387946 0.013415515 0.27124992 0 -0 -1 30 30 30 255
0.032387946 -0.013415551 0.27124992 0 -0 -1 30 30 30 255
0.013415515 0.032387942 0.27124992 0 -0 -1 30 30 30 255
-0.013415539 -0.032387946 0.27124992 0 -0 -1 30 30 30 255
-0.013415539 0.032387942 0.27124992 0 -0 -1 30 30 30 255
-0.032387942 -0.013415551 0.27124992 0 -0 -1 30 30 30 255
-0.032387942 0.013415515 0.27124992 0 -0 -1 30 30 30 255
0.08838836 -0.051776703 0.28124985 0 -0 -1 255 255 255 255
0.07838836 -0.047634576 0.28124985 0 -0 -1 255 255 255 255
0.08838836 0.05177668 0.28124985 0 -0 -1 255 255 255 255
0.051776703 -0.08838836 0.28124985 0 -0 -1 255 255 255 255
0.047634576 -0.07838836 0.28124985 0 -0 -1 255 255 255 255
-0.051776703 -0.08838836 0.28124985 0 -0 -1 255 255 255 255
-0.047634576 -0.07838836 0.28124985 0 -0 -1 255 255 255 255
-0.07838835 -0.047634576 0.28124985 0 -0 -1 255 255 255 255
-0.08838838 -0.051776703 0.28124985 0 -0 -1 255 255 255 255
-0.07838835 0.047634553 0.28124985 0 -0 -1 255 255 255 255
0.07838836 0.047634553 0.28124985 0 -0 -1 255 255 255 255
0.051776703 0.08838835 0.28124985 0 -0 -1 255 255 255 255
0.047634576 0.078388326 0.28124985 0 -0 -1 255 255 255 255
-0.051776703 0.08838835 0.28124985 0 -0 -1 255 255 255 255
-0.047634576 0.078388326 0.28124985 0 -0 -1 255 255 255 255
-0.08838838 0.05177668 0.28124985 0 -0 -1 255 255 255 255
0.051776703 -0.125 0.24999997 -0.70710677 0.70710677 -0 255 125 0 255
0.125 -0.051776703 -0.125 -0.70710677 0.70710677 -0 255 125 0 255
0.051776703 -0.125 -0.125 -0.70710677 0.70710677 -0 255 125 0 255
0.125 -0.051776703 0.24999997 -0.70710677 0.70710677 -0 255 125 0 255
0.051776703 0.125 -0.125 0 -0 1 255 125 0 255
0.125 -0.051776703 -0.125 0 -0 1 255 125 0 255
0.125 0.05177668 -0.125 0 -0 1 255 125 0 255
0.051776703 -0.125 -0.125 0 -0 1 255 125 0 255
-0.051776703 0.125 -0.125 0 -0 1 255 125 0 255
-0.051776703 -0.125 -0.125 0 -0 1 255 125 0 255
-0.12500001 0.05177668 -0.125 0 -0 1 255 125 0 255
-0.12500001 -0.051776703 -0.125 0 -0 1 255 125 0 255
-0.051776703 -0.125 0.24999997 0 1 -0 255 125 0 255
0.051776703 -0.125 -0.125 0 1 -0 255 125 0 255
-0.051776703 -0.125 -0.125 0 1 -0 255 125 0 255
0.051776703 -0.125 0.24999997 0 1 -0 255 125 0 255
0.051776703 -0.125 0.24999997 -0.5445261 0.5445261 -0.6379519 255 125 0 255
0.08838836 -0.051776703 0.28124985 -0.5445261 0.5445261 -0.6379519 255 125 0 255
0.125 -0.051776703 0.24999997 -0.5445261 0.5445261 -0.6379519 255 125 0 255
0.051776703 -0.08838836 0.28124985 -0.5445261 0.5445261 -0.6379519 255 125 0 255
0.125 0.05177668 0.24999997 -1 -0 -0 255 125 0 255
0.125 -0.051776703 -0.125 -1 -0 -0 255 125 0 255
0.125 -0.051776703 0.24999997 -1 -0 -0 255 125 0 255
0.125 0.05177668 -0.125 -1 -0 -0 255 125 0 255
0.051776703 0.125 0.24999997 -0.7071069 -0.7071067 -0 255 125 0 255
0.125 0.05177668 -0.125 -0.7071069 -0.7071067 -0 255 125 0 255
0.125 0.05177668 0.24999997 -0.7071069 -0.7071067 -0 255 125 0 255
0.051776703 0.125 -0.125 -0.7071069 -0.7071067 -0 255 125 0 255
0.051776703 0.125 0.24999997 0 -1 -0 255 125 0 255
-0.051776703 0.125 -0.125 0 -1 -0 255 125 0 255
0.051776703 0.125 -0.125 0 -1 -0 255 125 0 255
-0.051776703 0.125 0.24999997 0 -1 -0 255 125 0 255
-0.051776703 0.125 0.24999997 0.70710677 -0.70710677 -0 255 125 0 255
-0.12500001 0.05177668 -0.125 0.70710677 -0.70710677 -0 255 125 0 255
-0.051776703 0.125 -0.125 0.70710677 -0.70710677 -0 255 125 0 255
-0.12500001 0.05177668 0.24999997 0.70710677 -0.70710677 -0 255 125 0 255
-0.12500001 0.05177668 -0.125 1 -0 -0 255 125 0 255
-0.12500001 -0.051776703 0.24999997 1 -0 -0 255 125 0 255
-0.12500001 -0.051776703 -0.125 1 -0 -0 255 125 0 255
-0.12500001 0.05177668 0.24999997 1 -0 -0 255 125 0 255
-0.12500001 -0.051776703 0.24999997 0.7071067 0.7071069 -0 255 125 0 255
-0.051776703 -0.125 -0.125 0.7071067 0.7071069 -0 255 125 0 255
-0.12500001 -0.051776703 -0.125 0.7071067 0.7071069 -0 255 125 0 255
-0.051776703 -0.125 0.24999997 0.7071067 0.7071069 -0 255 125 0 255
-0.051776703 -0.125 0.24999997 0 0.64921606 -0.7606039 255 125 0 255
0.051776703 -0.08838836 0.28124985 0 0.64921606 -0.7606039 255 125 0 255
0.051776703 -0.125 0.24999997 0 0.64921606 -0.7606039 255 125 0 255
-0.051776703 -0.08838836 0.28124985 0 0.64921606 -0.7606039 255 125 0 255
0.08838836 -0.051776703 0.28124985 -0.64921606 3.1552116E-29 -0.7606039 255 125 0 255
0.125 0.05177668 0.24999997 -0.64921606 3.1552116E-29 -0.7606039 255 125 0 255
0.125 -0.051776703 0.24999997 -0.64921606 3.1552116E-29 -0.7606039 255 125 0 255
0.08838836 0.05177668 0.28124985 -0.64921606 3.1552116E-29 -0.7606039 255 125 0 255
0.08838836 0.05177668 0.28124985 -0.5445261 -0.544526 -0.637952 255 125 0 255
0.051776703 0.125 0.24999997 -0.5445261 -0.544526 -0.637952 255 125 0 255
0.125 0.05177668 0.24999997 -0.5445261 -0.544526 -0.637952 255 125 0 255
0.051776703 0.08838835 0.28124985 -0.5445261 -0.544526 -0.637952 255 125 0 255
-0.051776703 0.08838835 0.28124985 -8.672974E-18 -0.649216 -0.7606041 255 125 0 255
0.051776703 0.125 0.24999997 -8.672974E-18 -0.649216 -0.7606041 255 125 0 255
0.051776703 0.08838835 0.28124985 -8.672974E-18 -0.649216 -0.7606041 255 125 0 255
-0.051776703 0.125 0.24999997 -8.672974E-18 -0.649216 -0.7606041 255 125 0 255
-0.08838838 0.05177668 0.28124985 0.544526 -0.544526 -0.6379521 255 125 0 255
-0.051776703 0.125 0.24999997 0.544526 -0.544526 -0.6379521 255 125 0 255
-0.051776703 0.08838835 0.28124985 0.544526 -0.544526 -0.6379521 255 125 0 255
-0.12500001 0.05177668 0.24999997 0.544526 -0.544526 -0.6379521 255 125 0 255
-0.12500001 -0.051776703 0.24999997 0.649216 -0 -0.7606041 255 125 0 255
-0.08838838 0.05177668 0.28124985 0.649216 -0 -0.7606041 255 125 0 255
-0.08838838 -0.051776703 0.28124985 0.649216 -0 -0.7606041 255 125 0 255
-0.12500001 0.05177668 0.24999997 0.649216 -0 -0.7606041 255 125 0 255
-0.12500001 -0.051776703 0.24999997 0.544526 0.5445261 -0.637952 255 125 0 255
-0.051776703 -0.08838836 0.28124985 0.544526 0.5445261 -0.637952 255 125 0 255
-0.051776703 -0.125 0.24999997 0.544526 0.5445261 -0.637952 255 125 0 255
-0.08838838 -0.051776703 0.28124985 0.544526 0.5445261 -0.637952 255 125 0 255
0.047634576 -0.07838836 0.28124985 0 -0 -1 84 84 84 255
0.07838836 0.047634553 0.28124985 0 -0 -1 84 84 84 255
0.07838836 -0.047634576 0.28124985 0 -0 -1 84 84 84 255
0.047634576 0.078388326 0.28124985 0 -0 -1 84 84 84 255
0.032387946 -0.013415551 0.28124985 0 -0 -1 84 84 84 255
0.013415515 -0.032387946 0.28124985 0 -0 -1 84 84 84 255
-0.047634576 -0.07838836 0.28124985 0 -0 -1 84 84 84 255
-0.013415539 -0.032387946 0.28124985 0 -0 -1 84 84 84 255
-0.032387942 -0.013415551 0.28124985 0 -0 -1 84 84 84 255
-0.032387942 0.013415515 0.28124985 0 -0 -1 84 84 84 255
-0.047634576 0.078388326 0.28124985 0 -0 -1 84 84 84 255
-0.07838835 0.047634553 0.28124985 0 -0 -1 84 84 84 255
-0.07838835 -0.047634576 0.28124985 0 -0 -1 84 84 84 255
0.013415515 0.032387942 0.28124985 0 -0 -1 84 84 84 255
0.032387946 0.013415515 0.28124985 0 -0 -1 84 84 84 255
-0.013415539 0.032387942 0.28124985 0 -0 -1 84 84 84 255
3 0 1 2
3 1 0 3
3 3 0 4
3 3 4 5
3 5 4 6
3 5 6 7
3 8 9 10
3 9 11 10
3 10 11 12
3 11 13 12
3 12 13 14
3 15 14 13
3 16 17 18
3 17 16 19
3 20 21 22
3 23 24 25
3 26 27 28
3 27 26 29
3 30 31 32
3 31 30 33
3 34 35 36
3 35 34 37
3 38 39 40
3 39 38 41
3 42 43 44
3 45 46 47

