ply
format ascii 1.0
commentY29udmVydGVyIGJ5IENvZGVMZW9wYXJk
comment Original mesh name: 'C:\Program Files (x86)\Steam\steamapps\common\Stormworks\rom\meshes\component_engine_t1_b.mesh'
comment SubMesh index: 0
comment SubMesh name: 'ID14'
comment Shader: Opaque (0)
element vertex 128
property float x
property float y
property float z
property float nx
property float ny
property float nz
property uchar red
property uchar green
property uchar blue
property uchar alpha
element face 62
property list uchar ushort vertex_index
end_header
-2.8876446E-15 0.6922986 0.06569829 0.4472136 -0.8944272 1.27953195E-14 199 199 199 255
-0.095366456 0.64461535 0.33441383 0.4472136 -0.8944272 1.27953195E-14 199 199 199 255
-0.017006686 0.6837952 0.059635945 0.4472136 -0.8944272 1.27953195E-14 199 199 199 255
-0 0.6922986 0.35066172 0.4472136 -0.8944272 1.27953195E-14 199 199 199 255
-0.060697302 0.6922986 0.025141643 0.17114122 -0.8944272 0.41317147 199 199 199 255
-0.34545326 0.64461535 0.039867517 0.17114122 -0.8944272 0.41317147 199 199 199 255
-0.0616046 0.6837952 0.0071095577 0.17114122 -0.8944272 0.41317147 199 199 199 255
-0.3239692 0.6922986 0.13419242 0.17114122 -0.8944272 0.41317147 199 199 199 255
-0.025141643 0.6922986 -0.060697302 -0.41317147 -0.8944272 0.17114122 199 199 199 255
-0.039867517 0.64461535 -0.34545326 -0.41317147 -0.8944272 0.17114122 199 199 199 255
-0.0071095577 0.6837952 -0.0616046 -0.41317147 -0.8944272 0.17114122 199 199 199 255
-0.13419242 0.6922986 -0.3239692 -0.41317147 -0.8944272 0.17114122 199 199 199 255
-0.06569829 0.6922986 -2.9095264E-15 -1.2944272E-14 -0.8944272 0.4472136 199 199 199 255
-0.33441383 0.64461535 -0.095366456 -1.2944272E-14 -0.8944272 0.4472136 199 199 199 255
-0.059635945 0.6837952 -0.017006686 -1.2944272E-14 -0.8944272 0.4472136 199 199 199 255
-0.35066172 0.6922986 -1.1679381E-16 -1.2944272E-14 -0.8944272 0.4472136 199 199 199 255
0.046455707 0.6922986 0.046455707 0.31622776 -0.8944272 -0.31622776 199 199 199 255
0.16903204 0.64461535 0.3039006 0.31622776 -0.8944272 -0.31622776 199 199 199 255
0.030143443 0.6837952 0.05419453 0.31622776 -0.8944272 -0.31622776 199 199 199 255
0.24795529 0.6922986 0.24795529 0.31622776 -0.8944272 -0.31622776 199 199 199 255
0.025141643 0.6922986 -0.060697302 -0.41317147 -0.8944272 -0.17114122 199 199 199 255
0.21608174 0.64461535 -0.27246293 -0.41317147 -0.8944272 -0.17114122 199 199 199 255
0.038533814 0.6837952 -0.04858825 -0.41317147 -0.8944272 -0.17114122 199 199 199 255
0.13419242 0.6922986 -0.3239692 -0.41317147 -0.8944272 -0.17114122 199 199 199 255
0.060697302 0.6922986 0.025141643 0.17114122 -0.8944272 -0.41317147 199 199 199 255
0.27246293 0.64461535 0.21608174 0.17114122 -0.8944272 -0.41317147 199 199 199 255
0.04858825 0.6837952 0.038533814 0.17114122 -0.8944272 -0.41317147 199 199 199 255
0.3239692 0.6922986 0.13419242 0.17114122 -0.8944272 -0.41317147 199 199 199 255
-0.060697302 0.6922986 -0.025141643 -0.17114122 -0.8944272 0.41317147 199 199 199 255
-0.27246293 0.64461535 -0.21608174 -0.17114122 -0.8944272 0.41317147 199 199 199 255
-0.04858825 0.6837952 -0.038533814 -0.17114122 -0.8944272 0.41317147 199 199 199 255
-0.3239692 0.6922986 -0.13419242 -0.17114122 -0.8944272 0.41317147 199 199 199 255
2.9459965E-15 0.6922986 -0.06569829 -0.4472136 -0.8944272 -1.31925254E-14 199 199 199 255
0.095366456 0.64461535 -0.33441383 -0.4472136 -0.8944272 -1.31925254E-14 199 199 199 255
0.017006686 0.6837952 -0.059635945 -0.4472136 -0.8944272 -1.31925254E-14 199 199 199 255
3.1145018E-16 0.6922986 -0.35066172 -0.4472136 -0.8944272 -1.31925254E-14 199 199 199 255
0.060697302 0.6922986 -0.025141643 -0.17114122 -0.8944272 -0.41317147 199 199 199 255
0.34545326 0.64461535 -0.039867517 -0.17114122 -0.8944272 -0.41317147 199 199 199 255
0.0616046 0.6837952 -0.0071095577 -0.17114122 -0.8944272 -0.41317147 199 199 199 255
0.3239692 0.6922986 -0.13419242 -0.17114122 -0.8944272 -0.41317147 199 199 199 255
0.025141643 0.6922986 0.060697302 0.41317147 -0.8944272 -0.17114122 199 199 199 255
0.039867517 0.64461535 0.34545326 0.41317147 -0.8944272 -0.17114122 199 199 199 255
0.0071095577 0.6837952 0.0616046 0.41317147 -0.8944272 -0.17114122 199 199 199 255
0.13419242 0.6922986 0.3239692 0.41317147 -0.8944272 -0.17114122 199 199 199 255
-0.046455707 0.6922986 0.046455707 0.31622776 -0.8944272 0.31622776 199 199 199 255
-0.3039006 0.64461535 0.16903204 0.31622776 -0.8944272 0.31622776 199 199 199 255
-0.05419453 0.6837952 0.030143443 0.31622776 -0.8944272 0.31622776 199 199 199 255
-0.24795529 0.6922986 0.24795529 0.31622776 -0.8944272 0.31622776 199 199 199 255
-0.046455707 0.6922986 -0.046455707 -0.31622776 -0.8944272 0.31622776 199 199 199 255
-0.16903204 0.64461535 -0.3039006 -0.31622776 -0.8944272 0.31622776 199 199 199 255
-0.030143443 0.6837952 -0.05419453 -0.31622776 -0.8944272 0.31622776 199 199 199 255
-0.24795529 0.6922986 -0.24795529 -0.31622776 -0.8944272 0.31622776 199 199 199 255
0.046455707 0.6922986 -0.046455707 -0.31622776 -0.8944272 -0.31622776 199 199 199 255
0.3039006 0.64461535 -0.16903204 -0.31622776 -0.8944272 -0.31622776 199 199 199 255
0.05419453 0.6837952 -0.030143443 -0.31622776 -0.8944272 -0.31622776 199 199 199 255
0.24795529 0.6922986 -0.24795529 -0.31622776 -0.8944272 -0.31622776 199 199 199 255
0.06569829 0.6922986 2.9678783E-15 1.3341477E-14 -0.8944272 -0.4472136 199 199 199 255
0.33441383 0.64461535 0.095366456 1.3341477E-14 -0.8944272 -0.4472136 199 199 199 255
0.059635945 0.6837952 0.017006686 1.3341477E-14 -0.8944272 -0.4472136 199 199 199 255
0.35066172 0.6922986 4.282439E-16 1.3341477E-14 -0.8944272 -0.4472136 199 199 199 255
-1.4551915E-07 0.85 1.4551915E-07 0.7256718 -0.6189105 -0.3005831 255 125 0 255
-0.0367697 0.7890301 0.0367697 0.7256718 -0.6189105 -0.3005831 255 125 0 255
-0.05200014 0.7890301 1.4551915E-07 0.7256718 -0.6189105 -0.3005831 255 125 0 255
-1.4551915E-07 0.85 1.4551915E-07 0.7256718 -0.6189105 0.3005831 255 125 0 255
-0.05200014 0.7890301 1.4551915E-07 0.7256718 -0.6189105 0.3005831 255 125 0 255
-0.0367697 0.7890301 -0.036769398 0.7256718 -0.6189105 0.3005831 255 125 0 255
-0.0367697 0.7890301 0.0367697 0.3005831 -0.6189105 -0.7256718 255 125 0 255
-1.4551915E-07 0.85 1.4551915E-07 0.3005831 -0.6189105 -0.7256718 255 125 0 255
-1.4551915E-07 0.7890301 0.05200014 0.3005831 -0.6189105 -0.7256718 255 125 0 255
-0.05200014 0.7890301 1.4551915E-07 0.8925155 -0.2583484 -0.369692 255 125 0 255
-0.056568686 0.6922986 0.056568686 0.8925155 -0.2583484 -0.369692 255 125 0 255
-0.080000155 0.6922986 1.4551915E-07 0.8925155 -0.2583484 -0.369692 255 125 0 255
-0.0367697 0.7890301 0.0367697 0.8925155 -0.2583484 -0.369692 255 125 0 255
-0.0367697 0.7890301 -0.036769398 0.8925155 -0.2583484 0.369692 255 125 0 255
-0.080000155 0.6922986 1.4551915E-07 0.8925155 -0.2583484 0.369692 255 125 0 255
-0.056568686 0.6922986 -0.056568388 0.8925155 -0.2583484 0.369692 255 125 0 255
-0.05200014 0.7890301 1.4551915E-07 0.8925155 -0.2583484 0.369692 255 125 0 255
-0.0367697 0.7890301 -0.036769398 0.3005831 -0.6189105 0.7256718 255 125 0 255
-1.4551915E-07 0.7890301 -0.05199985 0.3005831 -0.6189105 0.7256718 255 125 0 255
-1.4551915E-07 0.85 1.4551915E-07 0.3005831 -0.6189105 0.7256718 255 125 0 255
-0.056568686 0.6922986 0.056568686 0.369692 -0.2583484 -0.8925155 255 125 0 255
-1.4551915E-07 0.7890301 0.05200014 0.369692 -0.2583484 -0.8925155 255 125 0 255
-1.4551915E-07 0.6922986 0.080000155 0.369692 -0.2583484 -0.8925155 255 125 0 255
-0.0367697 0.7890301 0.0367697 0.369692 -0.2583484 -0.8925155 255 125 0 255
-1.4551915E-07 0.85 1.4551915E-07 -0.3005831 -0.6189105 -0.7256718 255 125 0 255
0.036769398 0.7890301 0.0367697 -0.3005831 -0.6189105 -0.7256718 255 125 0 255
-1.4551915E-07 0.7890301 0.05200014 -0.3005831 -0.6189105 -0.7256718 255 125 0 255
-0.056568686 0.6922986 -0.056568388 0 1 -0 255 125 0 255
0.056568388 0.6922986 -0.056568388 0 1 -0 255 125 0 255
-1.4551915E-07 0.6922986 -0.07999984 0 1 -0 255 125 0 255
-0.080000155 0.6922986 1.4551915E-07 0 1 -0 255 125 0 255
0.07999984 0.6922986 1.4551915E-07 0 1 -0 255 125 0 255
-0.056568686 0.6922986 0.056568686 0 1 -0 255 125 0 255
0.056568388 0.6922986 0.056568686 0 1 -0 255 125 0 255
-1.4551915E-07 0.6922986 0.080000155 0 1 -0 255 125 0 255
-1.4551915E-07 0.7890301 -0.05199985 0.369692 -0.2583484 0.8925155 255 125 0 255
-0.056568686 0.6922986 -0.056568388 0.369692 -0.2583484 0.8925155 255 125 0 255
-1.4551915E-07 0.6922986 -0.07999984 0.369692 -0.2583484 0.8925155 255 125 0 255
-0.0367697 0.7890301 -0.036769398 0.369692 -0.2583484 0.8925155 255 125 0 255
-1.4551915E-07 0.7890301 -0.05199985 -0.3005831 -0.6189105 0.7256718 255 125 0 255
0.036769398 0.7890301 -0.036769398 -0.3005831 -0.6189105 0.7256718 255 125 0 255
-1.4551915E-07 0.85 1.4551915E-07 -0.3005831 -0.6189105 0.7256718 255 125 0 255
-1.4551915E-07 0.6922986 0.080000155 -0.369692 -0.2583484 -0.8925155 255 125 0 255
0.036769398 0.7890301 0.0367697 -0.369692 -0.2583484 -0.8925155 255 125 0 255
0.056568388 0.6922986 0.056568686 -0.369692 -0.2583484 -0.8925155 255 125 0 255
-1.4551915E-07 0.7890301 0.05200014 -0.369692 -0.2583484 -0.8925155 255 125 0 255
-1.4551915E-07 0.85 1.4551915E-07 -0.7256718 -0.6189105 -0.3005831 255 125 0 255
0.05199985 0.7890301 1.4551915E-07 -0.7256718 -0.6189105 -0.3005831 255 125 0 255
0.036769398 0.7890301 0.0367697 -0.7256718 -0.6189105 -0.3005831 255 125 0 255
0.05199985 0.7890301 1.4551915E-07 -0.8925155 -0.2583484 0.369692 255 125 0 255
0.056568388 0.6922986 -0.056568388 -0.8925155 -0.2583484 0.369692 255 125 0 255
0.07999984 0.6922986 1.4551915E-07 -0.8925155 -0.2583484 0.369692 255 125 0 255
0.036769398 0.7890301 -0.036769398 -0.8925155 -0.2583484 0.369692 255 125 0 255
0.036769398 0.7890301 -0.036769398 -0.369692 -0.2583484 0.8925155 255 125 0 255
-1.4551915E-07 0.6922986 -0.07999984 -0.369692 -0.2583484 0.8925155 255 125 0 255
0.056568388 0.6922986 -0.056568388 -0.369692 -0.2583484 0.8925155 255 125 0 255
-1.4551915E-07 0.7890301 -0.05199985 -0.369692 -0.2583484 0.8925155 255 125 0 255
0.036769398 0.7890301 0.0367697 -0.8925155 -0.2583484 -0.369692 255 125 0 255
0.07999984 0.6922986 1.4551915E-07 -0.8925155 -0.2583484 -0.369692 255 125 0 255
0.056568388 0.6922986 0.056568686 -0.8925155 -0.2583484 -0.369692 255 125 0 255
0.05199985 0.7890301 1.4551915E-07 -0.8925155 -0.2583484 -0.369692 255 125 0 255
-1.4551915E-07 0.85 1.4551915E-07 -0.7256718 -0.6189105 0.3005831 255 125 0 255
0.036769398 0.7890301 -0.036769398 -0.7256718 -0.6189105 0.3005831 255 125 0 255
0.05199985 0.7890301 1.4551915E-07 -0.7256718 -0.6189105 0.3005831 255 125 0 255
-0.025141643 0.6922986 0.060697302 0.41317147 -0.8944272 0.17114122 199 199 199 255
-0.21608174 0.64461535 0.27246293 0.41317147 -0.8944272 0.17114122 199 199 199 255
-0.038533814 0.6837952 0.04858825 0.41317147 -0.8944272 0.17114122 199 199 199 255
-0.13419242 0.6922986 0.3239692 0.41317147 -0.8944272 0.17114122 199 199 199 255
3 0 1 2
3 1 0 3
3 4 5 6
3 5 4 7
3 8 9 10
3 9 8 11
3 12 13 14
3 13 12 15
3 16 17 18
3 17 16 19
3 20 21 22
3 21 20 23
3 24 25 26
3 25 24 27
3 28 29 30
3 29 28 31
3 32 33 34
3 33 32 35
3 36 37 38
3 37 36 39
3 40 41 42
3 41 40 43
3 44 45 46
3 45 44 47
3 48 49 50
3 49 48 51
3 52 53 54
3 53 52 55
3 56 57 58
3 57 56 59
3 60 61 62
3 63 64 65
3 66 67 68
3 69 70 71
3 70 69 72
3 73 74 75
3 74 73 76
3 77 78 79
3 80 81 82
3 81 80 83
3 84 85 86
3 87 88 89
3 88 87 90
3 88 90 91
3 91 90 92
3 91 92 93
3 93 92 94
3 95 96 97
3 96 95 98
3 99 100 101
3 102 103 104
3 103 102 105
3 106 107 108
3 109 110 111
3 110 109 112
3 113 114 115
3 114 113 116
3 117 118 119
3 118 117 120
3 121 122 123
3 124 125 126
3 125 124 127

