ply
format ascii 1.0
commentY29udmVydGVyIGJ5IENvZGVMZW9wYXJk
comment Original mesh name: 'C:\Program Files (x86)\Steam\steamapps\common\Stormworks\rom\meshes\component_door_corner.mesh'
comment SubMesh index: 0
comment SubMesh name: 'ID32'
comment Shader: Opaque (0)
element vertex 66
property float x
property float y
property float z
property float nx
property float ny
property float nz
property uchar red
property uchar green
property uchar blue
property uchar alpha
element face 38
property list uchar ushort vertex_index
end_header
-0.074999996 -0.125 -0.024999999 0 1 -0 55 125 0 255
0.125 -0.125 -0.074999996 0 1 -0 55 125 0 255
-0.024999999 -0.125 -0.074999996 0 1 -0 55 125 0 255
0.125 -0.125 0.125 0 1 -0 55 125 0 255
-0.074999996 -0.125 0.125 0 1 -0 55 125 0 255
0.125 0.125 0.125 0 -1 -0 255 125 0 255
-0.024999999 0.125 -0.074999996 0 -1 -0 255 125 0 255
0.125 0.125 -0.074999996 0 -1 -0 255 125 0 255
-0.074999996 0.125 -0.024999999 0 -1 -0 255 125 0 255
-0.074999996 0.125 0.125 0 -1 -0 255 125 0 255
-0.045710675 0.125 -0.125 0 -0 1 199 199 199 255
0.125 1.588205E-14 -0.125 0 -0 1 199 199 199 255
0.125 0.125 -0.125 0 -0 1 199 199 199 255
-0.045710675 2.743263E-14 -0.125 0 -0 1 199 199 199 255
-0.045710675 0.125 -0.125 0.70710677 1.2965899E-17 0.70710677 199 199 199 255
-0.125 3.0320283E-14 -0.045710675 0.70710677 1.2965899E-17 0.70710677 199 199 199 255
-0.045710675 2.743263E-14 -0.125 0.70710677 1.2965899E-17 0.70710677 199 199 199 255
-0.125 0.125 -0.045710675 0.70710677 1.2965899E-17 0.70710677 199 199 199 255
-0.125 3.0320283E-14 -0.045710675 5.625995E-14 1 1.657827E-14 199 199 199 255
0.125 1.588205E-14 -0.125 5.625995E-14 1 1.657827E-14 199 199 199 255
-0.045710675 2.743263E-14 -0.125 5.625995E-14 1 1.657827E-14 199 199 199 255
-0.024999999 1.8769694E-14 -0.074999996 5.625995E-14 1 1.657827E-14 199 199 199 255
-0.074999996 2.1657342E-14 -0.024999999 5.625995E-14 1 1.657827E-14 199 199 199 255
-0.125 2.743263E-14 0.125 5.625995E-14 1 1.657827E-14 199 199 199 255
-0.074999996 2.1657342E-14 0.125 5.625995E-14 1 1.657827E-14 199 199 199 255
0.125 1.588205E-14 -0.074999996 5.625995E-14 1 1.657827E-14 199 199 199 255
-0.125 3.0320283E-14 -0.045710675 1 -0 -0 199 199 199 255
-0.125 0.125 0.125 1 -0 -0 199 199 199 255
-0.125 2.743263E-14 0.125 1 -0 -0 199 199 199 255
-0.125 0.125 -0.045710675 1 -0 -0 199 199 199 255
0.125 0.125 -0.074999996 -1 -0 -0 84 84 84 255
0.125 1.588205E-14 -0.125 -1 -0 -0 84 84 84 255
0.125 1.588205E-14 -0.074999996 -1 -0 -0 84 84 84 255
0.125 0.125 -0.125 -1 -0 -0 84 84 84 255
0.125 0.125 -0.074999996 0 -1 -0 84 84 84 255
-0.045710675 0.125 -0.125 0 -1 -0 84 84 84 255
0.125 0.125 -0.125 0 -1 -0 84 84 84 255
-0.024999999 0.125 -0.074999996 0 -1 -0 84 84 84 255
-0.125 0.125 -0.045710675 0 -1 -0 84 84 84 255
-0.074999996 0.125 -0.024999999 0 -1 -0 84 84 84 255
-0.125 0.125 0.125 0 -1 -0 84 84 84 255
-0.074999996 0.125 0.125 0 -1 -0 84 84 84 255
-0.125 2.743263E-14 0.125 0 -0 -1 84 84 84 255
-0.074999996 0.125 0.125 0 -0 -1 84 84 84 255
-0.074999996 2.1657342E-14 0.125 0 -0 -1 84 84 84 255
-0.125 0.125 0.125 0 -0 -1 84 84 84 255
-0.024999999 1.8769694E-14 -0.074999996 0.70710677 -0 0.70710677 84 84 84 255
-0.074999996 -0.125 -0.024999999 0.70710677 -0 0.70710677 84 84 84 255
-0.024999999 -0.125 -0.074999996 0.70710677 -0 0.70710677 84 84 84 255
-0.074999996 2.1657342E-14 -0.024999999 0.70710677 -0 0.70710677 84 84 84 255
-0.074999996 2.1657342E-14 -0.024999999 1 -0 -0 84 84 84 255
-0.074999996 -0.125 0.125 1 -0 -0 84 84 84 255
-0.074999996 -0.125 -0.024999999 1 -0 -0 84 84 84 255
-0.074999996 2.1657342E-14 0.125 1 -0 -0 84 84 84 255
-0.024999999 1.8769694E-14 -0.074999996 0 -0 1 84 84 84 255
0.125 -0.125 -0.074999996 0 -0 1 84 84 84 255
0.125 1.588205E-14 -0.074999996 0 -0 1 84 84 84 255
-0.024999999 -0.125 -0.074999996 0 -0 1 84 84 84 255
-0.074999996 -0.125 0.125 0 -0 -1 154 125 0 255
0.125 0.125 0.125 0 -0 -1 154 125 0 255
0.125 -0.125 0.125 0 -0 -1 154 125 0 255
-0.074999996 0.125 0.125 0 -0 -1 154 125 0 255
0.125 0.125 0.125 -1 -0 -0 154 125 0 255
0.125 -0.125 -0.074999996 -1 -0 -0 154 125 0 255
0.125 -0.125 0.125 -1 -0 -0 154 125 0 255
0.125 0.125 -0.074999996 -1 -0 -0 154 125 0 255
3 0 1 2
3 1 0 3
3 3 0 4
3 5 6 7
3 6 5 8
3 8 5 9
3 10 11 12
3 11 10 13
3 14 15 16
3 15 14 17
3 18 19 20
3 19 18 21
3 21 18 22
3 22 18 23
3 22 23 24
3 25 19 21
3 26 27 28
3 27 26 29
3 30 31 32
3 31 30 33
3 34 35 36
3 35 34 37
3 35 37 38
3 38 37 39
3 38 39 40
3 40 39 41
3 42 43 44
3 43 42 45
3 46 47 48
3 47 46 49
3 50 51 52
3 51 50 53
3 54 55 56
3 55 54 57
3 58 59 60
3 59 58 61
3 62 63 64
3 63 62 65

