ply
format ascii 1.0
commentY29udmVydGVyIGJ5IENvZGVMZW9wYXJk
comment Original mesh name: 'C:\Program Files (x86)\Steam\steamapps\common\Stormworks\rom\meshes\component_window_diamond_m_3x2x3.mesh'
comment SubMesh index: 0
comment SubMesh name: 'ID16'
comment Shader: Transparent (1)
element vertex 64
property float x
property float y
property float z
property float nx
property float ny
property float nz
property uchar red
property uchar green
property uchar blue
property uchar alpha
element face 4
property list uchar ushort vertex_index
end_header
-0.125 -0.35867006 -0.108670056 -0.57735026 0.57735026 -0.57735026 160 160 199 128
0.125 0.35867006 0.35867006 -0.57735026 0.57735026 -0.57735026 160 160 199 128
0.5923402 0.35867006 -0.108670056 -0.57735026 0.57735026 -0.57735026 160 160 199 128
-0.5923402 -0.35867006 0.35867006 -0.57735026 0.57735026 -0.57735026 160 160 199 128
0.125 0.35867006 0.32866988 0.5773502 -0.5773503 0.5773503 160 160 199 128
-0.15500006 -0.35867006 -0.108670056 0.5773502 -0.5773503 0.5773503 160 160 199 128
0.5623402 0.35867006 -0.108670056 0.5773502 -0.5773503 0.5773503 160 160 199 128
-0.5923402 -0.35867006 0.32866988 0.5773502 -0.5773503 0.5773503 160 160 199 128
-0.125 -0.37499997 -0.125 -0.57735026 0.57735026 -0.57735026 55 125 0 255
0.5923402 0.35867006 -0.108670056 -0.57735026 0.57735026 -0.57735026 55 125 0 255
0.625 0.37499997 -0.125 -0.57735026 0.57735026 -0.57735026 55 125 0 255
-0.125 -0.35867006 -0.108670056 -0.57735026 0.57735026 -0.57735026 55 125 0 255
-0.625 -0.37499997 0.37499997 -0.57735026 0.57735026 -0.57735026 55 125 0 255
-0.5923402 -0.35867006 0.35867006 -0.57735026 0.57735026 -0.57735026 55 125 0 255
0.125 0.37499997 0.37499997 -0.57735026 0.57735026 -0.57735026 55 125 0 255
0.125 0.35867006 0.35867006 -0.57735026 0.57735026 -0.57735026 55 125 0 255
-0.125 -0.35867006 -0.108670056 1.331102E-08 -1.348076E-08 -1 255 125 0 255
0.5623402 0.35867006 -0.108670056 1.331102E-08 -1.348076E-08 -1 255 125 0 255
0.5923402 0.35867006 -0.108670056 1.331102E-08 -1.348076E-08 -1 255 125 0 255
-0.15500006 -0.35867006 -0.108670056 1.331102E-08 -1.348076E-08 -1 255 125 0 255
-0.125 -0.35867006 -0.108670056 -1.749042E-10 -1 -2.615624E-10 255 125 0 255
-0.5923402 -0.35867006 0.32866988 -1.749042E-10 -1 -2.615624E-10 255 125 0 255
-0.15500006 -0.35867006 -0.108670056 -1.749042E-10 -1 -2.615624E-10 255 125 0 255
-0.5923402 -0.35867006 0.35867006 -1.749042E-10 -1 -2.615624E-10 255 125 0 255
0.53234005 0.35867006 -0.108670056 1.331102E-08 -1.382025E-08 -1 255 125 0 255
-0.18500012 -0.35867006 -0.108670056 1.331102E-08 -1.382025E-08 -1 255 125 0 255
0.125 0.35867006 0.32866988 2.531333E-09 1 2.444655E-09 255 125 0 255
0.5923402 0.35867006 -0.108670056 2.531333E-09 1 2.444655E-09 255 125 0 255
0.5623402 0.35867006 -0.108670056 2.531333E-09 1 2.444655E-09 255 125 0 255
0.125 0.35867006 0.35867006 2.531333E-09 1 2.444655E-09 255 125 0 255
-0.5923402 -0.35867006 0.35867006 -0.70710677 0.70710677 -7.3444295E-09 255 125 0 255
0.125 0.35867006 0.32866988 -0.70710677 0.70710677 -7.3444295E-09 255 125 0 255
-0.5923402 -0.35867006 0.32866988 -0.70710677 0.70710677 -7.3444295E-09 255 125 0 255
0.125 0.35867006 0.35867006 -0.70710677 0.70710677 -7.3444295E-09 255 125 0 255
-0.5923402 -0.35867006 0.29866996 -7.594209E-11 -1 -3.604765E-10 255 125 0 255
-0.18500012 -0.35867006 -0.108670056 -7.594209E-11 -1 -3.604765E-10 255 125 0 255
0.125 0.35867006 0.29866996 2.63027E-09 1 2.3456699E-09 255 125 0 255
0.53234005 0.35867006 -0.108670056 2.63027E-09 1 2.3456699E-09 255 125 0 255
0.125 0.35867006 0.29866996 -0.70710677 0.70710677 -7.344432E-09 255 125 0 255
-0.5923402 -0.35867006 0.29866996 -0.70710677 0.70710677 -7.344432E-09 255 125 0 255
0.5649998 0.37499997 -0.125 -6.015915E-15 6.49719E-15 1 255 125 0 255
-0.125 -0.37499997 -0.125 -6.015915E-15 6.49719E-15 1 255 125 0 255
0.625 0.37499997 -0.125 -6.015915E-15 6.49719E-15 1 255 125 0 255
-0.18500012 -0.37499997 -0.125 -6.015915E-15 6.49719E-15 1 255 125 0 255
0.625 0.37499997 -0.125 -3.569415E-13 -1 -3.168426E-13 255 125 0 255
0.125 0.37499997 0.31499985 -3.569415E-13 -1 -3.168426E-13 255 125 0 255
0.5649998 0.37499997 -0.125 -3.569415E-13 -1 -3.168426E-13 255 125 0 255
0.125 0.37499997 0.37499997 -3.569415E-13 -1 -3.168426E-13 255 125 0 255
0.125 0.37499997 0.31499985 0.5773502 -0.5773503 0.5773503 255 125 0 255
0.53234005 0.35867006 -0.108670056 0.5773502 -0.5773503 0.5773503 255 125 0 255
0.5649998 0.37499997 -0.125 0.5773502 -0.5773503 0.5773503 255 125 0 255
0.125 0.35867006 0.29866996 0.5773502 -0.5773503 0.5773503 255 125 0 255
-0.5923402 -0.35867006 0.29866996 0.5773502 -0.5773503 0.5773503 255 125 0 255
-0.625 -0.37499997 0.31499985 0.5773502 -0.5773503 0.5773503 255 125 0 255
-0.18500012 -0.37499997 -0.125 0.5773502 -0.5773503 0.5773503 255 125 0 255
-0.18500012 -0.35867006 -0.108670056 0.5773502 -0.5773503 0.5773503 255 125 0 255
-0.625 -0.37499997 0.31499985 0 1 -0 255 125 0 255
-0.125 -0.37499997 -0.125 0 1 -0 255 125 0 255
-0.18500012 -0.37499997 -0.125 0 1 -0 255 125 0 255
-0.625 -0.37499997 0.37499997 0 1 -0 255 125 0 255
0.125 0.37499997 0.31499985 0.70710677 -0.70710677 -2.3365527E-13 255 125 0 255
-0.625 -0.37499997 0.37499997 0.70710677 -0.70710677 -2.3365527E-13 255 125 0 255
-0.625 -0.37499997 0.31499985 0.70710677 -0.70710677 -2.3365527E-13 255 125 0 255
0.125 0.37499997 0.37499997 0.70710677 -0.70710677 -2.3365527E-13 255 125 0 255
3 0 1 2
3 1 0 3
3 4 5 6
3 5 4 7

