ply
format ascii 1.0
commentY29udmVydGVyIGJ5IENvZGVMZW9wYXJk
comment Original mesh name: 'C:\Program Files (x86)\Steam\steamapps\common\Stormworks\rom\meshes\component_transmission_block_cross_corner.mesh'
comment SubMesh index: 0
comment SubMesh name: 'ID2'
comment Shader: Opaque (0)
element vertex 60
property float x
property float y
property float z
property float nx
property float ny
property float nz
property uchar red
property uchar green
property uchar blue
property uchar alpha
element face 60
property list uchar ushort vertex_index
end_header
0.125 -0.125 0.125 -1 -0 -0 255 125 0 255
0.125 -0.0625 0.025888337 -1 -0 -0 255 125 0 255
0.125 -0.125 -0.125 -1 -0 -0 255 125 0 255
0.125 -0.025888337 0.0625 -1 -0 -0 255 125 0 255
0.125 0.125 0.125 -1 -0 -0 255 125 0 255
0.125 -0.0625 -0.025888337 -1 -0 -0 255 125 0 255
0.125 0.025888337 0.0625 -1 -0 -0 255 125 0 255
0.125 0.0625 0.025888337 -1 -0 -0 255 125 0 255
0.125 -0.025888337 -0.0625 -1 -0 -0 255 125 0 255
0.125 0.125 -0.125 -1 -0 -0 255 125 0 255
0.125 0.025888337 -0.0625 -1 -0 -0 255 125 0 255
0.125 0.0625 -0.025888337 -1 -0 -0 255 125 0 255
0.125 0.125 -0.125 0 -0 1 255 125 0 255
0.0625 0.025888337 -0.125 0 -0 1 255 125 0 255
0.125 -0.125 -0.125 0 -0 1 255 125 0 255
0.025888337 0.0625 -0.125 0 -0 1 255 125 0 255
-0.125 0.125 -0.125 0 -0 1 255 125 0 255
-0.025888337 0.0625 -0.125 0 -0 1 255 125 0 255
-0.0625 0.025888337 -0.125 0 -0 1 255 125 0 255
-0.0625 -0.025888337 -0.125 0 -0 1 255 125 0 255
0.025888337 -0.0625 -0.125 0 -0 1 255 125 0 255
-0.125 -0.125 -0.125 0 -0 1 255 125 0 255
0.0625 -0.025888337 -0.125 0 -0 1 255 125 0 255
-0.025888337 -0.0625 -0.125 0 -0 1 255 125 0 255
0.125 -0.125 0.125 0 -0 -1 255 125 0 255
0.0625 -0.025888337 0.125 0 -0 -1 255 125 0 255
0.125 0.125 0.125 0 -0 -1 255 125 0 255
0.025888337 -0.0625 0.125 0 -0 -1 255 125 0 255
-0.125 -0.125 0.125 0 -0 -1 255 125 0 255
-0.025888337 -0.0625 0.125 0 -0 -1 255 125 0 255
-0.0625 -0.025888337 0.125 0 -0 -1 255 125 0 255
-0.0625 0.025888337 0.125 0 -0 -1 255 125 0 255
0.025888337 0.0625 0.125 0 -0 -1 255 125 0 255
-0.125 0.125 0.125 0 -0 -1 255 125 0 255
0.0625 0.025888337 0.125 0 -0 -1 255 125 0 255
-0.025888337 0.0625 0.125 0 -0 -1 255 125 0 255
0.125 0.125 -0.125 0 -1 -0 255 125 0 255
0.025888337 0.125 -0.0625 0 -1 -0 255 125 0 255
-0.125 0.125 -0.125 0 -1 -0 255 125 0 255
0.0625 0.125 -0.025888337 0 -1 -0 255 125 0 255
0.125 0.125 0.125 0 -1 -0 255 125 0 255
0.0625 0.125 0.025888337 0 -1 -0 255 125 0 255
0.025888337 0.125 0.0625 0 -1 -0 255 125 0 255
-0.025888337 0.125 0.0625 0 -1 -0 255 125 0 255
-0.0625 0.125 -0.025888337 0 -1 -0 255 125 0 255
-0.125 0.125 0.125 0 -1 -0 255 125 0 255
-0.025888337 0.125 -0.0625 0 -1 -0 255 125 0 255
-0.0625 0.125 0.025888337 0 -1 -0 255 125 0 255
-0.125 -0.125 -0.125 1 -0 -0 255 125 0 255
-0.125 -0.0625 -0.025888337 1 -0 -0 255 125 0 255
-0.125 -0.125 0.125 1 -0 -0 255 125 0 255
-0.125 -0.025888337 -0.0625 1 -0 -0 255 125 0 255
-0.125 0.125 -0.125 1 -0 -0 255 125 0 255
-0.125 0.025888337 -0.0625 1 -0 -0 255 125 0 255
-0.125 0.0625 -0.025888337 1 -0 -0 255 125 0 255
-0.125 -0.025888337 0.0625 1 -0 -0 255 125 0 255
-0.125 0.125 0.125 1 -0 -0 255 125 0 255
-0.125 -0.0625 0.025888337 1 -0 -0 255 125 0 255
-0.125 0.025888337 0.0625 1 -0 -0 255 125 0 255
-0.125 0.0625 0.025888337 1 -0 -0 255 125 0 255
3 0 1 2
3 1 0 3
3 3 0 4
3 2 1 5
3 3 4 6
3 6 4 7
3 2 8 9
3 8 2 5
3 9 8 10
3 9 10 11
3 9 11 7
3 9 7 4
3 12 13 14
3 13 12 15
3 15 12 16
3 15 16 17
3 17 16 18
3 18 16 19
3 14 20 21
3 20 14 22
3 22 14 13
3 21 20 23
3 21 23 19
3 21 19 16
3 24 25 26
3 25 24 27
3 27 24 28
3 27 28 29
3 29 28 30
3 30 28 31
3 26 32 33
3 32 26 34
3 34 26 25
3 33 32 35
3 33 35 31
3 33 31 28
3 36 37 38
3 37 36 39
3 39 36 40
3 39 40 41
3 41 40 42
3 42 40 43
3 38 44 45
3 44 38 46
3 46 38 37
3 45 44 47
3 45 47 43
3 45 43 40
3 48 49 50
3 49 48 51
3 51 48 52
3 51 52 53
3 53 52 54
3 50 55 56
3 55 50 57
3 57 50 49
3 56 55 58
3 56 58 59
3 56 59 54
3 56 54 52

