ply
format ascii 1.0
commentY29udmVydGVyIGJ5IENvZGVMZW9wYXJk
comment Original mesh name: 'C:\Program Files (x86)\Steam\steamapps\common\Stormworks\rom\meshes\component_gate_clamp.mesh'
comment SubMesh index: 0
comment SubMesh name: 'ID18'
comment Shader: Opaque (0)
element vertex 140
property float x
property float y
property float z
property float nx
property float ny
property float nz
property uchar red
property uchar green
property uchar blue
property uchar alpha
element face 106
property list uchar ushort vertex_index
end_header
0.049999997 0.074999996 0.094999984 0 -0 -1 86 86 86 255
0.03999999 0.085 0.094999984 0 -0 -1 86 86 86 255
0.049999997 0.175 0.094999984 0 -0 -1 86 86 86 255
0.005 0.074999996 0.094999984 0 -0 -1 86 86 86 255
-0.03999999 0.085 0.094999984 0 -0 -1 86 86 86 255
-0.005 0.074999996 0.094999984 0 -0 -1 86 86 86 255
-0.049999997 0.074999996 0.094999984 0 -0 -1 86 86 86 255
-0.03999999 0.11999998 0.094999984 0 -0 -1 86 86 86 255
-0.03999999 0.13 0.094999984 0 -0 -1 86 86 86 255
-0.03999999 0.16499999 0.094999984 0 -0 -1 86 86 86 255
0.03999999 0.16499999 0.094999984 0 -0 -1 86 86 86 255
0.005 0.175 0.094999984 0 -0 -1 86 86 86 255
0.03999999 0.11999998 0.094999984 0 -0 -1 86 86 86 255
0.03999999 0.13 0.094999984 0 -0 -1 86 86 86 255
-0.005 0.175 0.094999984 0 -0 -1 86 86 86 255
-0.049999997 0.175 0.094999984 0 -0 -1 86 86 86 255
-0.02 0.13 0.094999984 0 -0 -1 86 86 86 255
-0.02 0.11999998 0.094999984 0 -0 -1 86 86 86 255
-0.02 0.105 0.094999984 0 -0 -1 86 86 86 255
0.02 0.11999998 0.094999984 0 -0 -1 86 86 86 255
0.02 0.105 0.094999984 0 -0 -1 86 86 86 255
0.02 0.13 0.094999984 0 -0 -1 86 86 86 255
0.02 0.14499998 0.094999984 0 -0 -1 86 86 86 255
-0.02 0.14499998 0.094999984 0 -0 -1 86 86 86 255
-0.005 0.061999995 0.094999984 0 -0 -1 86 86 86 255
0.005 0.061999995 0.094999984 0 -0 -1 86 86 86 255
0.005 0.18833861 0.094999984 0 -0 -1 86 86 86 255
-0.005 0.18833861 0.094999984 0 -0 -1 86 86 86 255
-0.024999999 -0.058000006 0.094999984 0 -0 -1 86 86 86 255
0.024999999 0.061999995 0.094999984 0 -0 -1 86 86 86 255
0.024999999 -0.058000006 0.094999984 0 -0 -1 86 86 86 255
-0.024999999 0.061999995 0.094999984 0 -0 -1 86 86 86 255
0.024999999 0.3083387 0.094999984 0 -0 -1 86 86 86 255
0.024999999 0.18833861 0.094999984 0 -0 -1 86 86 86 255
-0.024999999 0.3083387 0.094999984 0 -0 -1 86 86 86 255
-0.024999999 0.18833861 0.094999984 0 -0 -1 86 86 86 255
0.02 0.11999998 0.094999984 0 -0 -1 199 199 199 255
0.03999999 0.11999998 0.094999984 0 -0 -1 199 199 199 255
0.02 0.105 0.094999984 0 -0 -1 199 199 199 255
0.03999999 0.085 0.094999984 0 -0 -1 199 199 199 255
-0.03999999 0.085 0.094999984 0 -0 -1 199 199 199 255
-0.02 0.105 0.094999984 0 -0 -1 199 199 199 255
-0.02 0.11999998 0.094999984 0 -0 -1 199 199 199 255
-0.03999999 0.11999998 0.094999984 0 -0 -1 199 199 199 255
-0.03999999 0.13 0.094999984 0 -0 -1 199 199 199 255
-0.02 0.14499998 0.094999984 0 -0 -1 199 199 199 255
-0.02 0.13 0.094999984 0 -0 -1 199 199 199 255
0.02 0.13 0.094999984 0 -0 -1 199 199 199 255
0.03999999 0.16499999 0.094999984 0 -0 -1 199 199 199 255
0.03999999 0.13 0.094999984 0 -0 -1 199 199 199 255
0.02 0.14499998 0.094999984 0 -0 -1 199 199 199 255
-0.03999999 0.16499999 0.094999984 0 -0 -1 199 199 199 255
0.105 -0.105 -0.05499999 -0.70710677 5.642519E-17 -0.70710677 86 86 86 255
0.125 0.37499997 -0.074999996 -0.70710677 5.642519E-17 -0.70710677 86 86 86 255
0.125 -0.125 -0.074999996 -0.70710677 5.642519E-17 -0.70710677 86 86 86 255
0.105 0.35500005 -0.05499999 -0.70710677 5.642519E-17 -0.70710677 86 86 86 255
0.125 0.37499997 -0.074999996 -1 7.979727E-17 -0 86 86 86 255
0.125 -0.125 -0.125 -1 7.979727E-17 -0 86 86 86 255
0.125 -0.125 -0.074999996 -1 7.979727E-17 -0 86 86 86 255
0.125 0.37499997 -0.125 -1 7.979727E-17 -0 86 86 86 255
-0.105 -0.105 -0.05499999 5.4524702E-17 0.70710677 -0.70710677 86 86 86 255
0.125 -0.125 -0.074999996 5.4524702E-17 0.70710677 -0.70710677 86 86 86 255
-0.125 -0.125 -0.074999996 5.4524702E-17 0.70710677 -0.70710677 86 86 86 255
0.105 -0.105 -0.05499999 5.4524702E-17 0.70710677 -0.70710677 86 86 86 255
0.105 0.35500005 -0.05499999 -5.4524702E-17 -0.70710677 -0.70710677 86 86 86 255
-0.125 0.37499997 -0.074999996 -5.4524702E-17 -0.70710677 -0.70710677 86 86 86 255
0.125 0.37499997 -0.074999996 -5.4524702E-17 -0.70710677 -0.70710677 86 86 86 255
-0.105 0.35500005 -0.05499999 -5.4524702E-17 -0.70710677 -0.70710677 86 86 86 255
0.125 0.37499997 -0.074999996 -7.979727E-17 -1 -0 86 86 86 255
-0.125 0.37499997 -0.125 -7.979727E-17 -1 -0 86 86 86 255
0.125 0.37499997 -0.125 -7.979727E-17 -1 -0 86 86 86 255
-0.125 0.37499997 -0.074999996 -7.979727E-17 -1 -0 86 86 86 255
-0.125 -0.125 -0.074999996 7.979727E-17 1 -0 86 86 86 255
0.125 -0.125 -0.125 7.979727E-17 1 -0 86 86 86 255
-0.125 -0.125 -0.125 7.979727E-17 1 -0 86 86 86 255
0.125 -0.125 -0.074999996 7.979727E-17 1 -0 86 86 86 255
-0.125 0.37499997 -0.074999996 0.70710677 -5.642519E-17 -0.70710677 86 86 86 255
-0.105 -0.105 -0.05499999 0.70710677 -5.642519E-17 -0.70710677 86 86 86 255
-0.125 -0.125 -0.074999996 0.70710677 -5.642519E-17 -0.70710677 86 86 86 255
-0.105 0.35500005 -0.05499999 0.70710677 -5.642519E-17 -0.70710677 86 86 86 255
-0.125 0.37499997 -0.125 1 -7.979727E-17 -0 86 86 86 255
-0.125 -0.125 -0.074999996 1 -7.979727E-17 -0 86 86 86 255
-0.125 -0.125 -0.125 1 -7.979727E-17 -0 86 86 86 255
-0.125 0.37499997 -0.074999996 1 -7.979727E-17 -0 86 86 86 255
0.105 0.35500005 0.074999996 -7.979727E-17 -1 -0 255 125 0 255
-0.105 0.35500005 -0.05499999 -7.979727E-17 -1 -0 255 125 0 255
0.105 0.35500005 -0.05499999 -7.979727E-17 -1 -0 255 125 0 255
-0.105 0.35500005 0.074999996 -7.979727E-17 -1 -0 255 125 0 255
0.105 0.35500005 0.074999996 -1 7.979727E-17 -0 255 125 0 255
0.105 -0.105 -0.05499999 -1 7.979727E-17 -0 255 125 0 255
0.105 -0.105 0.074999996 -1 7.979727E-17 -0 255 125 0 255
0.105 0.35500005 -0.05499999 -1 7.979727E-17 -0 255 125 0 255
0.07969999 0.32969984 0.094999984 -5.8509416E-17 -0.62014675 -0.78448576 255 125 0 255
-0.105 0.35500005 0.074999996 -5.8509416E-17 -0.62014675 -0.78448576 255 125 0 255
0.105 0.35500005 0.074999996 -5.8509416E-17 -0.62014675 -0.78448576 255 125 0 255
-0.07969999 0.32969984 0.094999984 -5.8509416E-17 -0.62014675 -0.78448576 255 125 0 255
-0.105 0.35500005 -0.05499999 1 -7.979727E-17 -0 255 125 0 255
-0.105 -0.105 0.074999996 1 -7.979727E-17 -0 255 125 0 255
-0.105 -0.105 -0.05499999 1 -7.979727E-17 -0 255 125 0 255
-0.105 0.35500005 0.074999996 1 -7.979727E-17 -0 255 125 0 255
-0.105 -0.105 0.074999996 7.979727E-17 1 -0 255 125 0 255
0.105 -0.105 -0.05499999 7.979727E-17 1 -0 255 125 0 255
-0.105 -0.105 -0.05499999 7.979727E-17 1 -0 255 125 0 255
0.105 -0.105 0.074999996 7.979727E-17 1 -0 255 125 0 255
0.07969999 -0.07969999 0.094999984 -0.62014675 -9.179393E-16 -0.78448576 255 125 0 255
0.105 0.35500005 0.074999996 -0.62014675 -9.179393E-16 -0.78448576 255 125 0 255
0.105 -0.105 0.074999996 -0.62014675 -9.179393E-16 -0.78448576 255 125 0 255
0.07969999 0.32969984 0.094999984 -0.62014675 -9.179393E-16 -0.78448576 255 125 0 255
0.005 0.175 0.094999984 0 -0 -1 255 125 0 255
0.024999999 0.18833861 0.094999984 0 -0 -1 255 125 0 255
0.049999997 0.175 0.094999984 0 -0 -1 255 125 0 255
0.005 0.18833861 0.094999984 0 -0 -1 255 125 0 255
-0.049999997 0.175 0.094999984 0 -0 -1 255 125 0 255
-0.005 0.18833861 0.094999984 0 -0 -1 255 125 0 255
-0.005 0.175 0.094999984 0 -0 -1 255 125 0 255
-0.024999999 0.18833861 0.094999984 0 -0 -1 255 125 0 255
-0.024999999 0.3083387 0.094999984 0 -0 -1 255 125 0 255
0.07969999 -0.07969999 0.094999984 0 -0 -1 255 125 0 255
0.049999997 0.074999996 0.094999984 0 -0 -1 255 125 0 255
0.07969999 0.32969984 0.094999984 0 -0 -1 255 125 0 255
0.024999999 -0.058000006 0.094999984 0 -0 -1 255 125 0 255
-0.07969999 -0.07969999 0.094999984 0 -0 -1 255 125 0 255
-0.024999999 -0.058000006 0.094999984 0 -0 -1 255 125 0 255
-0.024999999 0.061999995 0.094999984 0 -0 -1 255 125 0 255
-0.049999997 0.074999996 0.094999984 0 -0 -1 255 125 0 255
0.024999999 0.3083387 0.094999984 0 -0 -1 255 125 0 255
-0.07969999 0.32969984 0.094999984 0 -0 -1 255 125 0 255
-0.005 0.074999996 0.094999984 0 -0 -1 255 125 0 255
-0.005 0.061999995 0.094999984 0 -0 -1 255 125 0 255
0.024999999 0.061999995 0.094999984 0 -0 -1 255 125 0 255
0.005 0.074999996 0.094999984 0 -0 -1 255 125 0 255
0.005 0.061999995 0.094999984 0 -0 -1 255 125 0 255
-0.105 -0.105 0.074999996 0.62014675 -5.219892E-17 -0.78448576 255 125 0 255
-0.07969999 0.32969984 0.094999984 0.62014675 -5.219892E-17 -0.78448576 255 125 0 255
-0.07969999 -0.07969999 0.094999984 0.62014675 -5.219892E-17 -0.78448576 255 125 0 255
-0.105 0.35500005 0.074999996 0.62014675 -5.219892E-17 -0.78448576 255 125 0 255
-0.105 -0.105 0.074999996 5.0086732E-17 0.62014675 -0.78448576 255 125 0 255
0.07969999 -0.07969999 0.094999984 5.0086732E-17 0.62014675 -0.78448576 255 125 0 255
0.105 -0.105 0.074999996 5.0086732E-17 0.62014675 -0.78448576 255 125 0 255
-0.07969999 -0.07969999 0.094999984 5.0086732E-17 0.62014675 -0.78448576 255 125 0 255
3 0 1 2
3 1 0 3
3 1 3 4
3 4 3 5
3 4 5 6
3 4 6 7
3 7 6 8
3 8 6 9
3 2 10 11
3 10 2 1
3 10 1 12
3 10 12 13
3 11 10 9
3 11 9 14
3 14 9 15
3 15 9 6
3 7 16 17
3 16 7 8
3 18 19 20
3 19 18 21
3 21 18 22
3 22 18 23
3 23 18 17
3 23 17 16
3 19 13 12
3 13 19 21
3 24 3 25
3 3 24 5
3 14 26 11
3 26 14 27
3 28 29 30
3 29 28 25
3 25 28 24
3 24 28 31
3 26 32 33
3 32 26 34
3 34 26 27
3 34 27 35
3 36 37 38
3 39 38 37
3 38 39 40
3 38 40 41
3 41 40 42
3 42 40 43
3 44 45 46
3 47 48 49
3 48 47 50
3 48 50 51
3 51 50 45
3 51 45 44
3 52 53 54
3 53 52 55
3 56 57 58
3 57 56 59
3 60 61 62
3 61 60 63
3 64 65 66
3 65 64 67
3 68 69 70
3 69 68 71
3 72 73 74
3 73 72 75
3 76 77 78
3 77 76 79
3 80 81 82
3 81 80 83
3 84 85 86
3 85 84 87
3 88 89 90
3 89 88 91
3 92 93 94
3 93 92 95
3 96 97 98
3 97 96 99
3 100 101 102
3 101 100 103
3 104 105 106
3 105 104 107
3 108 109 110
3 109 108 111
3 112 113 114
3 113 112 115
3 115 112 116
3 117 118 119
3 118 117 120
3 120 117 121
3 120 121 122
3 122 121 123
3 123 121 124
3 124 121 112
3 119 125 126
3 125 119 110
3 110 119 118
3 125 110 109
3 126 125 116
3 126 116 112
3 126 112 121
3 123 127 128
3 127 123 124
3 118 129 130
3 129 118 120
3 130 129 131
3 132 133 134
3 133 132 135
3 136 137 138
3 137 136 139

