ply
format ascii 1.0
commentY29udmVydGVyIGJ5IENvZGVMZW9wYXJk
comment Original mesh name: 'C:\Program Files (x86)\Steam\steamapps\common\Stormworks\rom\meshes\component_window_corner_full_medium.mesh'
comment SubMesh index: 0
comment SubMesh name: 'ID2'
comment Shader: Opaque (0)
element vertex 164
property float x
property float y
property float z
property float nx
property float ny
property float nz
property uchar red
property uchar green
property uchar blue
property uchar alpha
element face 72
property list uchar ushort vertex_index
end_header
-0.125 -0.37499997 0.31499985 1 -2.4736121E-15 -2.7021511E-15 255 125 0 255
-0.125 0.37499997 -0.37499997 1 -2.4736121E-15 -2.7021511E-15 255 125 0 255
-0.125 -0.37499997 0.37499997 1 -2.4736121E-15 -2.7021511E-15 255 125 0 255
-0.125 0.30085763 -0.36085775 1 -2.4736121E-15 -2.7021511E-15 255 125 0 255
-0.125 0.31499985 -0.37499997 1 -2.4736121E-15 -2.7021511E-15 255 125 0 255
0.06499999 0.185 -0.37499997 8.421052E-08 -1.5039821E-15 1 255 125 0 255
-0.125 0.31499985 -0.37499997 8.421052E-08 -1.5039821E-15 1 255 125 0 255
0.06499999 0.125 -0.37499997 8.421052E-08 -1.5039821E-15 1 255 125 0 255
-0.125 0.37499997 -0.37499997 8.421052E-08 -1.5039821E-15 1 255 125 0 255
-0.125 -0.37499997 0.31499985 1.28372205E-14 1 1.12264705E-14 255 125 0 255
0.125 -0.37499997 0.125 1.28372205E-14 1 1.12264705E-14 255 125 0 255
0.06499999 -0.37499997 0.125 1.28372205E-14 1 1.12264705E-14 255 125 0 255
-0.125 -0.37499997 0.37499997 1.28372205E-14 1 1.12264705E-14 255 125 0 255
-0.125 0.30085763 -0.36085775 0.5773496 0.5773506 0.5773506 255 125 0 255
-0.108670056 -0.35867006 0.28234002 0.5773496 0.5773506 0.5773506 255 125 0 255
-0.108670056 0.28452775 -0.36085775 0.5773496 0.5773506 0.5773506 255 125 0 255
-0.125 -0.37499997 0.31499985 0.5773496 0.5773506 0.5773506 255 125 0 255
-0.125 0.31499985 -0.37499997 0.57735 0.5773504 0.5773504 255 125 0 255
0.06499999 0.11085787 -0.36085775 0.57735 0.5773504 0.5773504 255 125 0 255
0.06499999 0.125 -0.37499997 0.57735 0.5773504 0.5773504 255 125 0 255
0.048670083 0.12718777 -0.36085775 0.57735 0.5773504 0.5773504 255 125 0 255
0.048670083 -0.35867006 0.125 0.5773503 0.57734966 0.5773507 255 125 0 255
0.06499999 -0.37499997 0.125 0.5773503 0.57734966 0.5773507 255 125 0 255
0.125 -0.37499997 -0.37499997 6.015929E-15 1 -7.219114E-16 255 125 0 255
0.06499999 -0.37499997 -0.37499997 6.015929E-15 1 -7.219114E-16 255 125 0 255
-0.108670056 0.31343395 -0.35976407 -1 -1.155097E-07 -1.13438404E-07 255 125 0 255
-0.108670056 -0.35867006 0.28234002 -1 -1.155097E-07 -1.13438404E-07 255 125 0 255
-0.108670056 -0.35867006 0.31234 -1 -1.155097E-07 -1.13438404E-07 255 125 0 255
-0.108670056 0.28452775 -0.36085775 -1 -1.155097E-07 -1.13438404E-07 255 125 0 255
0.048670083 0.12718777 -0.36085775 0.03778913 0.0377892 -0.9985709 255 125 0 255
-0.108670056 0.31343395 -0.35976407 0.03778913 0.0377892 -0.9985709 255 125 0 255
0.07867006 0.12609386 -0.35976407 0.03778913 0.0377892 -0.9985709 255 125 0 255
-0.108670056 0.28452775 -0.36085775 0.03778913 0.0377892 -0.9985709 255 125 0 255
0.06499999 -0.37499997 -0.37499997 1 3.6605622E-16 1.484627E-19 255 125 0 255
0.06499999 -0.35500005 -0.35500005 1 3.6605622E-16 1.484627E-19 255 125 0 255
0.06499999 -0.37499997 0.125 1 3.6605622E-16 1.484627E-19 255 125 0 255
0.06499999 0.125 -0.37499997 1 3.6605622E-16 1.484627E-19 255 125 0 255
0.06499999 0.076715715 -0.35500005 1 3.6605622E-16 1.484627E-19 255 125 0 255
0.06499999 0.11085787 -0.36085775 1 3.6605622E-16 1.484627E-19 255 125 0 255
0.06499999 -0.35500005 0.07671574 1 3.6605622E-16 1.484627E-19 255 125 0 255
0.07867006 -0.35867006 0.125 -2.6907547E-09 -1 -2.6907538E-09 255 125 0 255
-0.108670056 -0.35867006 0.28234002 -2.6907547E-09 -1 -2.6907538E-09 255 125 0 255
0.048670083 -0.35867006 0.125 -2.6907547E-09 -1 -2.6907538E-09 255 125 0 255
-0.108670056 -0.35867006 0.31234 -2.6907547E-09 -1 -2.6907538E-09 255 125 0 255
-0.108670056 0.34234017 -0.35867006 -1 -1.14774295E-07 -1.1412211E-07 255 125 0 255
-0.108670056 -0.35867006 0.34234017 -1 -1.14774295E-07 -1.1412211E-07 255 125 0 255
-0.108670056 0.34234017 -0.35867006 0.03778915 0.03778917 -0.9985709 255 125 0 255
0.108670056 0.125 -0.35867006 0.03778915 0.03778917 -0.9985709 255 125 0 255
0.07867006 0.12609386 -0.35976407 2.5553598E-07 -0.70710677 -0.70710677 255 125 0 255
0.048670083 -0.35867006 0.125 2.5553598E-07 -0.70710677 -0.70710677 255 125 0 255
0.048670083 0.12718777 -0.36085775 2.5553598E-07 -0.70710677 -0.70710677 255 125 0 255
0.07867006 -0.35867006 0.125 2.5553598E-07 -0.70710677 -0.70710677 255 125 0 255
0.108670056 -0.35867006 0.125 -2.690779E-09 -1 -2.690778E-09 255 125 0 255
-0.108670056 -0.35867006 0.34234017 -2.690779E-09 -1 -2.690778E-09 255 125 0 255
0.108670056 0.125 -0.35867006 2.5590447E-07 -0.70710677 -0.70710677 255 125 0 255
0.108670056 -0.35867006 0.125 2.5590447E-07 -0.70710677 -0.70710677 255 125 0 255
-0.108670056 0.34234017 -0.35867006 -0.5773503 -0.5773503 -0.5773501 55 125 0 255
0.125 0.125 -0.37499997 -0.5773503 -0.5773503 -0.5773501 55 125 0 255
0.108670056 0.125 -0.35867006 -0.5773503 -0.5773503 -0.5773501 55 125 0 255
0.06499999 0.185 -0.37499997 -0.5773503 -0.5773503 -0.5773501 55 125 0 255
-0.125 0.37499997 -0.37499997 -0.5773503 -0.5773503 -0.5773501 55 125 0 255
0.108670056 -0.35867006 0.125 -0.57735026 -0.57735026 -0.57735026 55 125 0 255
0.125 -0.37499997 0.125 -0.57735026 -0.57735026 -0.57735026 55 125 0 255
-0.125 -0.37499997 0.37499997 -0.57735026 -0.57735026 -0.57735026 55 125 0 255
-0.108670056 -0.35867006 0.34234017 -0.57735026 -0.57735026 -0.57735026 55 125 0 255
0.125 -0.37499997 0.125 -1 -3.609557E-16 -3.227799E-32 55 125 0 255
0.125 -0.35500005 0.07671574 -1 -3.609557E-16 -3.227799E-32 55 125 0 255
0.125 -0.37499997 -0.37499997 -1 -3.609557E-16 -3.227799E-32 55 125 0 255
0.125 0.125 -0.37499997 -1 -3.609557E-16 -3.227799E-32 55 125 0 255
0.125 0.076715715 -0.35500005 -1 -3.609557E-16 -3.227799E-32 55 125 0 255
0.125 -0.35500005 -0.35500005 -1 -3.609557E-16 -3.227799E-32 55 125 0 255
0.094999984 -0.35500005 -0.35500005 0 -0 -1 255 125 0 255
0.125 0.076715715 -0.35500005 0 -0 -1 255 125 0 255
0.125 -0.35500005 -0.35500005 0 -0 -1 255 125 0 255
0.094999984 0.076715715 -0.35500005 0 -0 -1 255 125 0 255
0.125 -0.35500005 0.07671574 0 -1 -0 255 125 0 255
0.094999984 -0.35500005 -0.35500005 0 -1 -0 255 125 0 255
0.125 -0.35500005 -0.35500005 0 -1 -0 255 125 0 255
0.094999984 -0.35500005 0.07671574 0 -1 -0 255 125 0 255
0.06499999 -0.35500005 -0.35500005 0 -0 -1 255 125 0 255
0.06499999 0.076715715 -0.35500005 0 -0 -1 255 125 0 255
0.125 0.076715715 -0.35500005 -2.6079528E-28 0.70710677 0.70710677 255 125 0 255
0.094999984 -0.35500005 0.07671574 -2.6079528E-28 0.70710677 0.70710677 255 125 0 255
0.125 -0.35500005 0.07671574 -2.6079528E-28 0.70710677 0.70710677 255 125 0 255
0.094999984 0.076715715 -0.35500005 -2.6079528E-28 0.70710677 0.70710677 255 125 0 255
0.06499999 -0.35500005 -0.35500005 0 -1 -0 255 125 0 255
0.06499999 -0.35500005 0.07671574 0 -1 -0 255 125 0 255
0.06499999 -0.35500005 0.07671574 -2.6079528E-28 0.70710677 0.70710677 255 125 0 255
0.06499999 0.076715715 -0.35500005 -2.6079528E-28 0.70710677 0.70710677 255 125 0 255
0.125 0.125 -0.37499997 -2.666667E-07 -1.5903071E-22 1 255 125 0 255
0.06499999 -0.37499997 -0.37499997 -2.666667E-07 -1.5903071E-22 1 255 125 0 255
0.125 -0.37499997 -0.37499997 -2.666667E-07 -1.5903071E-22 1 255 125 0 255
0.06499999 0.125 -0.37499997 -2.666667E-07 -1.5903071E-22 1 255 125 0 255
0.06499999 0.185 -0.37499997 -2.666667E-07 -1.5903071E-22 1 255 125 0 255
0.094999984 0.076715715 -0.35500005 1 4.1804792E-16 5.807578E-32 160 160 199 128
0.094999984 -0.35500005 0.07671574 1 4.1804792E-16 5.807578E-32 160 160 199 128
0.094999984 -0.35500005 -0.35500005 1 4.1804792E-16 5.807578E-32 160 160 199 128
-0.108670056 0.31343395 -0.35976407 0.5773502 0.5773503 0.5773503 160 160 199 128
0.07867006 -0.35867006 0.125 0.5773502 0.5773503 0.5773503 160 160 199 128
0.07867006 0.12609386 -0.35976407 0.5773502 0.5773503 0.5773503 160 160 199 128
-0.108670056 -0.35867006 0.31234 0.5773502 0.5773503 0.5773503 160 160 199 128
-0.108670056 -0.35867006 0.34234017 -0.57735026 -0.57735026 -0.57735026 160 160 199 128
0.108670056 0.125 -0.35867006 -0.57735026 -0.57735026 -0.57735026 160 160 199 128
0.108670056 -0.35867006 0.125 -0.57735026 -0.57735026 -0.57735026 160 160 199 128
-0.108670056 0.34234017 -0.35867006 -0.57735026 -0.57735026 -0.57735026 160 160 199 128
-0.125 0.31499985 -0.37499997 -1 2.4736121E-15 2.7021511E-15 160 160 199 128
-0.125 0.30085763 -0.36085775 -1 2.4736121E-15 2.7021511E-15 160 160 199 128
-0.125 0.37499997 -0.37499997 -1 2.4736121E-15 2.7021511E-15 160 160 199 128
-0.125 -0.37499997 0.31499985 -1 2.4736121E-15 2.7021511E-15 160 160 199 128
-0.125 -0.37499997 0.37499997 -1 2.4736121E-15 2.7021511E-15 160 160 199 128
-0.125 0.37499997 -0.37499997 -8.421052E-08 1.5039821E-15 -1 160 160 199 128
0.06499999 0.185 -0.37499997 -8.421052E-08 1.5039821E-15 -1 160 160 199 128
-0.125 0.31499985 -0.37499997 -8.421052E-08 1.5039821E-15 -1 160 160 199 128
0.06499999 0.125 -0.37499997 -8.421052E-08 1.5039821E-15 -1 160 160 199 128
-0.125 -0.37499997 0.37499997 -1.28372205E-14 -1 -1.12264705E-14 160 160 199 128
-0.125 -0.37499997 0.31499985 -1.28372205E-14 -1 -1.12264705E-14 160 160 199 128
0.125 -0.37499997 0.125 -1.28372205E-14 -1 -1.12264705E-14 160 160 199 128
0.06499999 -0.37499997 0.125 -1.28372205E-14 -1 -1.12264705E-14 160 160 199 128
-0.125 -0.37499997 0.31499985 -0.5773496 -0.5773506 -0.5773506 160 160 199 128
-0.125 0.30085763 -0.36085775 -0.5773496 -0.5773506 -0.5773506 160 160 199 128
-0.108670056 -0.35867006 0.28234002 -0.5773496 -0.5773506 -0.5773506 160 160 199 128
-0.108670056 0.28452775 -0.36085775 -0.5773496 -0.5773506 -0.5773506 160 160 199 128
0.048670083 0.12718777 -0.36085775 -0.57735 -0.5773504 -0.5773504 160 160 199 128
0.06499999 0.11085787 -0.36085775 -0.57735 -0.5773504 -0.5773504 160 160 199 128
-0.125 0.31499985 -0.37499997 -0.57735 -0.5773504 -0.5773504 160 160 199 128
0.06499999 0.125 -0.37499997 -0.57735 -0.5773504 -0.5773504 160 160 199 128
0.048670083 -0.35867006 0.125 -0.5773503 -0.57734966 -0.5773507 160 160 199 128
0.06499999 -0.37499997 0.125 -0.5773503 -0.57734966 -0.5773507 160 160 199 128
0.125 -0.37499997 -0.37499997 -6.015929E-15 -1 7.219114E-16 160 160 199 128
0.06499999 -0.37499997 -0.37499997 -6.015929E-15 -1 7.219114E-16 160 160 199 128
-0.108670056 0.28452775 -0.36085775 1 1.155097E-07 1.13438404E-07 160 160 199 128
-0.108670056 0.31343395 -0.35976407 1 1.155097E-07 1.13438404E-07 160 160 199 128
-0.108670056 -0.35867006 0.28234002 1 1.155097E-07 1.13438404E-07 160 160 199 128
-0.108670056 -0.35867006 0.31234 1 1.155097E-07 1.13438404E-07 160 160 199 128
-0.108670056 0.28452775 -0.36085775 -0.03778913 -0.0377892 0.9985709 160 160 199 128
0.048670083 0.12718777 -0.36085775 -0.03778913 -0.0377892 0.9985709 160 160 199 128
-0.108670056 0.31343395 -0.35976407 -0.03778913 -0.0377892 0.9985709 160 160 199 128
0.07867006 0.12609386 -0.35976407 -0.03778913 -0.0377892 0.9985709 160 160 199 128
0.06499999 0.076715715 -0.35500005 -1 -3.6605622E-16 -1.484627E-19 160 160 199 128
0.06499999 -0.35500005 0.07671574 -1 -3.6605622E-16 -1.484627E-19 160 160 199 128
0.06499999 0.11085787 -0.36085775 -1 -3.6605622E-16 -1.484627E-19 160 160 199 128
0.06499999 -0.35500005 -0.35500005 -1 -3.6605622E-16 -1.484627E-19 160 160 199 128
0.06499999 -0.37499997 0.125 -1 -3.6605622E-16 -1.484627E-19 160 160 199 128
0.06499999 0.125 -0.37499997 -1 -3.6605622E-16 -1.484627E-19 160 160 199 128
0.06499999 -0.37499997 -0.37499997 -1 -3.6605622E-16 -1.484627E-19 160 160 199 128
-0.108670056 -0.35867006 0.31234 2.6907547E-09 1 2.6907538E-09 160 160 199 128
0.07867006 -0.35867006 0.125 2.6907547E-09 1 2.6907538E-09 160 160 199 128
-0.108670056 -0.35867006 0.28234002 2.6907547E-09 1 2.6907538E-09 160 160 199 128
0.048670083 -0.35867006 0.125 2.6907547E-09 1 2.6907538E-09 160 160 199 128
-0.108670056 0.34234017 -0.35867006 1 1.14774295E-07 1.1412211E-07 160 160 199 128
-0.108670056 -0.35867006 0.34234017 1 1.14774295E-07 1.1412211E-07 160 160 199 128
-0.108670056 0.34234017 -0.35867006 -0.03778915 -0.03778917 0.9985709 160 160 199 128
0.108670056 0.125 -0.35867006 -0.03778915 -0.03778917 0.9985709 160 160 199 128
0.07867006 -0.35867006 0.125 -2.5553598E-07 0.70710677 0.70710677 160 160 199 128
0.07867006 0.12609386 -0.35976407 -2.5553598E-07 0.70710677 0.70710677 160 160 199 128
0.048670083 -0.35867006 0.125 -2.5553598E-07 0.70710677 0.70710677 160 160 199 128
0.048670083 0.12718777 -0.36085775 -2.5553598E-07 0.70710677 0.70710677 160 160 199 128
-0.108670056 -0.35867006 0.34234017 2.690779E-09 1 2.690778E-09 160 160 199 128
0.108670056 -0.35867006 0.125 2.690779E-09 1 2.690778E-09 160 160 199 128
0.108670056 -0.35867006 0.125 -2.5590447E-07 0.70710677 0.70710677 160 160 199 128
0.108670056 0.125 -0.35867006 -2.5590447E-07 0.70710677 0.70710677 160 160 199 128
0.125 0.076715715 -0.35500005 -1 -4.1804792E-16 -5.807578E-32 160 160 199 128
0.125 -0.35500005 -0.35500005 -1 -4.1804792E-16 -5.807578E-32 160 160 199 128
0.125 -0.35500005 0.07671574 -1 -4.1804792E-16 -5.807578E-32 160 160 199 128
3 0 1 2
3 1 0 3
3 1 3 4
3 5 6 7
3 6 5 8
3 9 10 11
3 10 9 12
3 13 14 15
3 14 13 16
3 17 18 19
3 18 17 13
3 18 13 20
3 20 13 15
3 21 16 22
3 16 21 14
3 11 23 24
3 23 11 10
3 25 26 27
3 26 25 28
3 29 30 31
3 30 29 32
3 18 21 22
3 21 18 20
3 33 34 35
3 34 33 36
3 34 36 37
3 37 36 38
3 35 39 38
3 39 35 34
3 38 39 37
3 40 41 42
3 41 40 43
3 44 27 45
3 27 44 25
3 31 46 47
3 46 31 30
3 48 49 50
3 49 48 51
3 52 43 40
3 43 52 53
3 54 51 48
3 51 54 55
3 56 57 58
3 57 56 59
3 59 56 60
3 61 57 62
3 57 61 58
3 63 56 64
3 56 63 60
3 65 66 67
3 66 65 68
3 66 68 69
3 67 70 68
3 70 67 66
3 68 70 69
3 63 61 62
3 61 63 64
3 71 72 73
3 72 71 74
3 75 76 77
3 76 75 78
3 79 74 71
3 74 79 80
3 81 82 83
3 82 81 84
3 78 85 76
3 85 78 86
3 84 87 82
3 87 84 88
3 89 90 91
3 90 89 92
3 92 89 93

