ply
format ascii 1.0
commentY29udmVydGVyIGJ5IENvZGVMZW9wYXJk
comment Original mesh name: 'C:\Program Files (x86)\Steam\steamapps\common\Stormworks\rom\meshes\component_player_sensor.mesh'
comment SubMesh index: 0
comment SubMesh name: 'ID3'
comment Shader: Opaque (0)
element vertex 504
property float x
property float y
property float z
property float nx
property float ny
property float nz
property uchar red
property uchar green
property uchar blue
property uchar alpha
element face 340
property list uchar ushort vertex_index
end_header
0.125 -0.125 0.125 -5.098617E-33 -8.326673E-17 -1 255 125 0 255
0.10238795 -0.042410474 0.125 -5.098617E-33 -8.326673E-17 -1 255 125 0 255
0.125 0.125 0.125 -5.098617E-33 -8.326673E-17 -1 255 125 0 255
0.04241048 -0.10238795 0.125 -5.098617E-33 -8.326673E-17 -1 255 125 0 255
-0.125 -0.125 0.125 -5.098617E-33 -8.326673E-17 -1 255 125 0 255
-0.042410474 -0.10238795 0.125 -5.098617E-33 -8.326673E-17 -1 255 125 0 255
-0.10238795 -0.042410474 0.125 -5.098617E-33 -8.326673E-17 -1 255 125 0 255
-0.10238795 0.04241048 0.125 -5.098617E-33 -8.326673E-17 -1 255 125 0 255
0.04241048 0.10238795 0.125 -5.098617E-33 -8.326673E-17 -1 255 125 0 255
-0.125 0.125 0.125 -5.098617E-33 -8.326673E-17 -1 255 125 0 255
0.10238795 0.04241048 0.125 -5.098617E-33 -8.326673E-17 -1 255 125 0 255
-0.042410474 0.10238795 0.125 -5.098617E-33 -8.326673E-17 -1 255 125 0 255
-0.125 -0.125 0.125 5.098617E-33 8.326673E-17 1 199 199 199 255
-0.10238795 0.04241048 0.125 5.098617E-33 8.326673E-17 1 199 199 199 255
-0.125 0.125 0.125 5.098617E-33 8.326673E-17 1 199 199 199 255
-0.042410474 0.10238795 0.125 5.098617E-33 8.326673E-17 1 199 199 199 255
0.04241048 0.10238795 0.125 5.098617E-33 8.326673E-17 1 199 199 199 255
0.10238795 -0.042410474 0.125 5.098617E-33 8.326673E-17 1 199 199 199 255
0.125 0.125 0.125 5.098617E-33 8.326673E-17 1 199 199 199 255
0.10238795 0.04241048 0.125 5.098617E-33 8.326673E-17 1 199 199 199 255
-0.10238795 -0.042410474 0.125 5.098617E-33 8.326673E-17 1 199 199 199 255
-0.042410474 -0.10238795 0.125 5.098617E-33 8.326673E-17 1 199 199 199 255
0.04241048 -0.10238795 0.125 5.098617E-33 8.326673E-17 1 199 199 199 255
0.125 -0.125 0.125 5.098617E-33 8.326673E-17 1 199 199 199 255
0.10238795 -0.042410474 0.105 -1.8801455E-30 8.3017403E-16 -1 86 86 86 255
0.08238795 -0.034126196 0.105 -1.8801455E-30 8.3017403E-16 -1 86 86 86 255
0.10238795 0.04241048 0.105 -1.8801455E-30 8.3017403E-16 -1 86 86 86 255
0.04241048 -0.10238795 0.105 -1.8801455E-30 8.3017403E-16 -1 86 86 86 255
0.034126222 -0.08238794 0.105 -1.8801455E-30 8.3017403E-16 -1 86 86 86 255
-0.042410474 -0.10238795 0.105 -1.8801455E-30 8.3017403E-16 -1 86 86 86 255
-0.034126196 -0.08238794 0.105 -1.8801455E-30 8.3017403E-16 -1 86 86 86 255
-0.08238794 -0.034126196 0.105 -1.8801455E-30 8.3017403E-16 -1 86 86 86 255
-0.10238795 -0.042410474 0.105 -1.8801455E-30 8.3017403E-16 -1 86 86 86 255
-0.08238794 0.034126222 0.105 -1.8801455E-30 8.3017403E-16 -1 86 86 86 255
0.08238795 0.034126222 0.105 -1.8801455E-30 8.3017403E-16 -1 86 86 86 255
0.04241048 0.10238795 0.105 -1.8801455E-30 8.3017403E-16 -1 86 86 86 255
0.034126222 0.08238795 0.105 -1.8801455E-30 8.3017403E-16 -1 86 86 86 255
-0.042410474 0.10238795 0.105 -1.8801455E-30 8.3017403E-16 -1 86 86 86 255
-0.034126196 0.08238795 0.105 -1.8801455E-30 8.3017403E-16 -1 86 86 86 255
-0.10238795 0.04241048 0.105 -1.8801455E-30 8.3017403E-16 -1 86 86 86 255
-0.042410474 -0.10238795 0.105 0 -1 -8.3017403E-16 86 86 86 255
0.04241048 -0.10238795 0.125 0 -1 -8.3017403E-16 86 86 86 255
-0.042410474 -0.10238795 0.125 0 -1 -8.3017403E-16 86 86 86 255
0.04241048 -0.10238795 0.105 0 -1 -8.3017403E-16 86 86 86 255
-0.042410474 -0.10238795 0.105 -0.70710677 -0.70710677 -5.8702157E-16 86 86 86 255
-0.10238795 -0.042410474 0.125 -0.70710677 -0.70710677 -5.8702157E-16 86 86 86 255
-0.10238795 -0.042410474 0.105 -0.70710677 -0.70710677 -5.8702157E-16 86 86 86 255
-0.042410474 -0.10238795 0.125 -0.70710677 -0.70710677 -5.8702157E-16 86 86 86 255
-0.10238795 -0.042410474 0.105 -1 -3.404401E-14 -2.638231E-29 86 86 86 255
-0.10238795 0.04241048 0.125 -1 -3.404401E-14 -2.638231E-29 86 86 86 255
-0.10238795 0.04241048 0.105 -1 -3.404401E-14 -2.638231E-29 86 86 86 255
-0.10238795 -0.042410474 0.125 -1 -3.404401E-14 -2.638231E-29 86 86 86 255
-0.042410474 0.10238795 0.105 -0.70710677 0.70710677 5.8702157E-16 86 86 86 255
-0.10238795 0.04241048 0.125 -0.70710677 0.70710677 5.8702157E-16 86 86 86 255
-0.042410474 0.10238795 0.125 -0.70710677 0.70710677 5.8702157E-16 86 86 86 255
-0.10238795 0.04241048 0.105 -0.70710677 0.70710677 5.8702157E-16 86 86 86 255
0.04241048 0.10238795 0.105 0 1 8.3017403E-16 86 86 86 255
-0.042410474 0.10238795 0.125 0 1 8.3017403E-16 86 86 86 255
0.04241048 0.10238795 0.125 0 1 8.3017403E-16 86 86 86 255
-0.042410474 0.10238795 0.105 0 1 8.3017403E-16 86 86 86 255
0.10238795 0.04241048 0.125 0.70710677 0.70710677 5.8702157E-16 86 86 86 255
0.04241048 0.10238795 0.105 0.70710677 0.70710677 5.8702157E-16 86 86 86 255
0.04241048 0.10238795 0.125 0.70710677 0.70710677 5.8702157E-16 86 86 86 255
0.10238795 0.04241048 0.105 0.70710677 0.70710677 5.8702157E-16 86 86 86 255
0.10238795 -0.042410474 0.125 1 3.404401E-14 2.638231E-29 86 86 86 255
0.10238795 0.04241048 0.105 1 3.404401E-14 2.638231E-29 86 86 86 255
0.10238795 0.04241048 0.125 1 3.404401E-14 2.638231E-29 86 86 86 255
0.10238795 -0.042410474 0.105 1 3.404401E-14 2.638231E-29 86 86 86 255
0.04241048 -0.10238795 0.125 0.70710677 -0.70710677 -5.8702157E-16 86 86 86 255
0.10238795 -0.042410474 0.105 0.70710677 -0.70710677 -5.8702157E-16 86 86 86 255
0.10238795 -0.042410474 0.125 0.70710677 -0.70710677 -5.8702157E-16 86 86 86 255
0.04241048 -0.10238795 0.105 0.70710677 -0.70710677 -5.8702157E-16 86 86 86 255
-0.10238795 -0.042410474 0.105 1.8801455E-30 -8.3017403E-16 1 199 199 199 255
-0.08238794 0.034126222 0.105 1.8801455E-30 -8.3017403E-16 1 199 199 199 255
-0.10238795 0.04241048 0.105 1.8801455E-30 -8.3017403E-16 1 199 199 199 255
-0.042410474 0.10238795 0.105 1.8801455E-30 -8.3017403E-16 1 199 199 199 255
-0.034126196 0.08238795 0.105 1.8801455E-30 -8.3017403E-16 1 199 199 199 255
0.034126222 0.08238795 0.105 1.8801455E-30 -8.3017403E-16 1 199 199 199 255
0.04241048 0.10238795 0.105 1.8801455E-30 -8.3017403E-16 1 199 199 199 255
0.08238795 0.034126222 0.105 1.8801455E-30 -8.3017403E-16 1 199 199 199 255
0.08238795 -0.034126196 0.105 1.8801455E-30 -8.3017403E-16 1 199 199 199 255
0.10238795 0.04241048 0.105 1.8801455E-30 -8.3017403E-16 1 199 199 199 255
-0.08238794 -0.034126196 0.105 1.8801455E-30 -8.3017403E-16 1 199 199 199 255
-0.042410474 -0.10238795 0.105 1.8801455E-30 -8.3017403E-16 1 199 199 199 255
-0.034126196 -0.08238794 0.105 1.8801455E-30 -8.3017403E-16 1 199 199 199 255
0.034126222 -0.08238794 0.105 1.8801455E-30 -8.3017403E-16 1 199 199 199 255
0.04241048 -0.10238795 0.105 1.8801455E-30 -8.3017403E-16 1 199 199 199 255
0.10238795 -0.042410474 0.105 1.8801455E-30 -8.3017403E-16 1 199 199 199 255
0.04241048 -0.10238795 0.105 0 1 8.3017403E-16 199 199 199 255
-0.042410474 -0.10238795 0.105 0 1 8.3017403E-16 199 199 199 255
0.04241048 -0.10238795 0.125 0 1 8.3017403E-16 199 199 199 255
-0.042410474 -0.10238795 0.125 0 1 8.3017403E-16 199 199 199 255
-0.042410474 -0.10238795 0.125 0.70710677 0.70710677 5.8702157E-16 199 199 199 255
-0.042410474 -0.10238795 0.105 0.70710677 0.70710677 5.8702157E-16 199 199 199 255
-0.10238795 -0.042410474 0.125 0.70710677 0.70710677 5.8702157E-16 199 199 199 255
-0.10238795 -0.042410474 0.105 0.70710677 0.70710677 5.8702157E-16 199 199 199 255
-0.10238795 -0.042410474 0.125 1 3.404401E-14 2.638231E-29 199 199 199 255
-0.10238795 -0.042410474 0.105 1 3.404401E-14 2.638231E-29 199 199 199 255
-0.10238795 0.04241048 0.125 1 3.404401E-14 2.638231E-29 199 199 199 255
-0.10238795 0.04241048 0.105 1 3.404401E-14 2.638231E-29 199 199 199 255
-0.10238795 0.04241048 0.105 0.70710677 -0.70710677 -5.8702157E-16 199 199 199 255
-0.042410474 0.10238795 0.105 0.70710677 -0.70710677 -5.8702157E-16 199 199 199 255
-0.10238795 0.04241048 0.125 0.70710677 -0.70710677 -5.8702157E-16 199 199 199 255
-0.042410474 0.10238795 0.125 0.70710677 -0.70710677 -5.8702157E-16 199 199 199 255
-0.042410474 0.10238795 0.105 0 -1 -8.3017403E-16 199 199 199 255
0.04241048 0.10238795 0.105 0 -1 -8.3017403E-16 199 199 199 255
-0.042410474 0.10238795 0.125 0 -1 -8.3017403E-16 199 199 199 255
0.04241048 0.10238795 0.125 0 -1 -8.3017403E-16 199 199 199 255
0.10238795 0.04241048 0.105 -0.70710677 -0.70710677 -5.8702157E-16 199 199 199 255
0.10238795 0.04241048 0.125 -0.70710677 -0.70710677 -5.8702157E-16 199 199 199 255
0.04241048 0.10238795 0.105 -0.70710677 -0.70710677 -5.8702157E-16 199 199 199 255
0.04241048 0.10238795 0.125 -0.70710677 -0.70710677 -5.8702157E-16 199 199 199 255
0.10238795 -0.042410474 0.105 -1 -3.404401E-14 -2.638231E-29 199 199 199 255
0.10238795 -0.042410474 0.125 -1 -3.404401E-14 -2.638231E-29 199 199 199 255
0.10238795 0.04241048 0.105 -1 -3.404401E-14 -2.638231E-29 199 199 199 255
0.10238795 0.04241048 0.125 -1 -3.404401E-14 -2.638231E-29 199 199 199 255
0.04241048 -0.10238795 0.105 -0.70710677 0.70710677 5.8702157E-16 199 199 199 255
0.04241048 -0.10238795 0.125 -0.70710677 0.70710677 5.8702157E-16 199 199 199 255
0.10238795 -0.042410474 0.105 -0.70710677 0.70710677 5.8702157E-16 199 199 199 255
0.10238795 -0.042410474 0.125 -0.70710677 0.70710677 5.8702157E-16 199 199 199 255
0.062387962 -0.02584193 0.125 -0.6480076 0.6480076 -0.4002154 199 199 199 255
0.022224057 -0.053653635 0.145 -0.6480076 0.6480076 -0.4002154 199 199 199 255
0.053653635 -0.022224057 0.145 -0.6480076 0.6480076 -0.4002154 199 199 199 255
0.02584193 -0.062387936 0.125 -0.6480076 0.6480076 -0.4002154 199 199 199 255
0.02584193 -0.062387936 0.125 0.6480076 -0.6480076 0.4002154 199 199 199 255
0.062387962 -0.02584193 0.125 0.6480076 -0.6480076 0.4002154 199 199 199 255
0.022224057 -0.053653635 0.145 0.6480076 -0.6480076 0.4002154 199 199 199 255
0.053653635 -0.022224057 0.145 0.6480076 -0.6480076 0.4002154 199 199 199 255
0.022224057 -0.053653635 0.145 -0.22329837 0.22329837 -0.94882846 199 199 199 255
0.023607595 -0.009778584 0.15499999 -0.22329837 0.22329837 -0.94882846 199 199 199 255
0.053653635 -0.022224057 0.145 -0.22329837 0.22329837 -0.94882846 199 199 199 255
0.009778596 -0.023607584 0.15499999 -0.22329837 0.22329837 -0.94882846 199 199 199 255
0.009778596 -0.023607584 0.15499999 0.22329837 -0.22329837 0.94882846 199 199 199 255
0.022224057 -0.053653635 0.145 0.22329837 -0.22329837 0.94882846 199 199 199 255
0.023607595 -0.009778584 0.15499999 0.22329837 -0.22329837 0.94882846 199 199 199 255
0.053653635 -0.022224057 0.145 0.22329837 -0.22329837 0.94882846 199 199 199 255
0.062387962 -0.02584193 0.125 -0.9164211 -5.885836E-14 -0.4002154 199 199 199 255
0.053653635 0 0.145 -0.9164211 -5.885836E-14 -0.4002154 199 199 199 255
0.062387962 0 0.125 -0.9164211 -5.885836E-14 -0.4002154 199 199 199 255
0.053653635 -0.022224057 0.145 -0.9164211 -5.885836E-14 -0.4002154 199 199 199 255
0.053653635 -0.022224057 0.145 0.9164211 5.885836E-14 0.4002154 199 199 199 255
0.062387962 -0.02584193 0.125 0.9164211 5.885836E-14 0.4002154 199 199 199 255
0.053653635 0 0.145 0.9164211 5.885836E-14 0.4002154 199 199 199 255
0.062387962 0 0.125 0.9164211 5.885836E-14 0.4002154 199 199 199 255
0.02584193 -0.062387936 0.125 -6.3605796E-24 0.9164211 -0.4002154 199 199 199 255
-0 -0.053653635 0.145 -6.3605796E-24 0.9164211 -0.4002154 199 199 199 255
0.022224057 -0.053653635 0.145 -6.3605796E-24 0.9164211 -0.4002154 199 199 199 255
-0 -0.062387936 0.125 -6.3605796E-24 0.9164211 -0.4002154 199 199 199 255
-0 -0.062387936 0.125 6.3605796E-24 -0.9164211 0.4002154 199 199 199 255
0.02584193 -0.062387936 0.125 6.3605796E-24 -0.9164211 0.4002154 199 199 199 255
-0 -0.053653635 0.145 6.3605796E-24 -0.9164211 0.4002154 199 199 199 255
0.022224057 -0.053653635 0.145 6.3605796E-24 -0.9164211 0.4002154 199 199 199 255
0.009778596 -0.023607584 0.15499999 -0.1001704 0.1001704 -0.9899151 199 199 199 255
0.006137986 -0.0025424408 0.15750001 -0.1001704 0.1001704 -0.9899151 199 199 199 255
0.023607595 -0.009778584 0.15499999 -0.1001704 0.1001704 -0.9899151 199 199 199 255
0.0025424408 -0.0061379513 0.15750001 -0.1001704 0.1001704 -0.9899151 199 199 199 255
0.0025424408 -0.0061379513 0.15750001 0.1001704 -0.1001704 0.9899151 199 199 199 255
0.009778596 -0.023607584 0.15499999 0.1001704 -0.1001704 0.9899151 199 199 199 255
0.006137986 -0.0025424408 0.15750001 0.1001704 -0.1001704 0.9899151 199 199 199 255
0.023607595 -0.009778584 0.15499999 0.1001704 -0.1001704 0.9899151 199 199 199 255
0.023607595 -0.009778584 0.15499999 -0.3157916 -6.3605796E-24 -0.9488286 199 199 199 255
0.053653635 0 0.145 -0.3157916 -6.3605796E-24 -0.9488286 199 199 199 255
0.053653635 -0.022224057 0.145 -0.3157916 -6.3605796E-24 -0.9488286 199 199 199 255
0.023607595 0 0.15499999 -0.3157916 -6.3605796E-24 -0.9488286 199 199 199 255
0.023607595 0 0.15499999 0.3157916 6.3605796E-24 0.9488286 199 199 199 255
0.023607595 -0.009778584 0.15499999 0.3157916 6.3605796E-24 0.9488286 199 199 199 255
0.053653635 0 0.145 0.3157916 6.3605796E-24 0.9488286 199 199 199 255
0.053653635 -0.022224057 0.145 0.3157916 6.3605796E-24 0.9488286 199 199 199 255
-0 -0.053653635 0.145 -3.1802898E-24 0.3157916 -0.9488286 199 199 199 255
0.009778596 -0.023607584 0.15499999 -3.1802898E-24 0.3157916 -0.9488286 199 199 199 255
0.022224057 -0.053653635 0.145 -3.1802898E-24 0.3157916 -0.9488286 199 199 199 255
-0 -0.023607584 0.15499999 -3.1802898E-24 0.3157916 -0.9488286 199 199 199 255
-0 -0.023607584 0.15499999 3.1802898E-24 -0.3157916 0.9488286 199 199 199 255
-0 -0.053653635 0.145 3.1802898E-24 -0.3157916 0.9488286 199 199 199 255
0.009778596 -0.023607584 0.15499999 3.1802898E-24 -0.3157916 0.9488286 199 199 199 255
0.022224057 -0.053653635 0.145 3.1802898E-24 -0.3157916 0.9488286 199 199 199 255
0.053653635 0.022224057 0.145 -0.9164211 1.5037121E-15 -0.4002154 199 199 199 255
0.062387962 0.02584193 0.125 -0.9164211 1.5037121E-15 -0.4002154 199 199 199 255
0.053653635 0.022224057 0.145 0.9164211 -1.5037121E-15 0.4002154 199 199 199 255
0.062387962 0.02584193 0.125 0.9164211 -1.5037121E-15 0.4002154 199 199 199 255
-0.022224057 -0.053653635 0.145 7.433121E-16 0.9164211 -0.4002154 199 199 199 255
-0.02584193 -0.062387936 0.125 7.433121E-16 0.9164211 -0.4002154 199 199 199 255
-0.02584193 -0.062387936 0.125 -7.433121E-16 -0.9164211 0.4002154 199 199 199 255
-0.022224057 -0.053653635 0.145 -7.433121E-16 -0.9164211 0.4002154 199 199 199 255
-0 -0.023607584 0.15499999 2.2942192E-17 0.1416623 -0.9899151 199 199 199 255
0.0025424408 -0.0061379513 0.15750001 2.2942192E-17 0.1416623 -0.9899151 199 199 199 255
0.009778596 -0.023607584 0.15499999 2.2942192E-17 0.1416623 -0.9899151 199 199 199 255
-0 -0.0061379513 0.15750001 2.2942192E-17 0.1416623 -0.9899151 199 199 199 255
-0 -0.0061379513 0.15750001 -2.2942192E-17 -0.1416623 0.9899151 199 199 199 255
-0 -0.023607584 0.15499999 -2.2942192E-17 -0.1416623 0.9899151 199 199 199 255
0.0025424408 -0.0061379513 0.15750001 -2.2942192E-17 -0.1416623 0.9899151 199 199 199 255
0.009778596 -0.023607584 0.15499999 -2.2942192E-17 -0.1416623 0.9899151 199 199 199 255
0.0025424408 -0.0061379513 0.15750001 -1.28802E-15 1.1310363E-14 -1 199 199 199 255
0.006137986 0 0.15750001 -1.28802E-15 1.1310363E-14 -1 199 199 199 255
0.006137986 -0.0025424408 0.15750001 -1.28802E-15 1.1310363E-14 -1 199 199 199 255
0.006137986 0.0025424408 0.15750001 -1.28802E-15 1.1310363E-14 -1 199 199 199 255
0.0025424408 0.006137986 0.15750001 -1.28802E-15 1.1310363E-14 -1 199 199 199 255
-0 -0.0061379513 0.15750001 -1.28802E-15 1.1310363E-14 -1 199 199 199 255
-0 0.006137986 0.15750001 -1.28802E-15 1.1310363E-14 -1 199 199 199 255
-0.0025424408 -0.0061379513 0.15750001 -1.28802E-15 1.1310363E-14 -1 199 199 199 255
-0.0025424408 0.006137986 0.15750001 -1.28802E-15 1.1310363E-14 -1 199 199 199 255
-0.0061379513 0.0025424408 0.15750001 -1.28802E-15 1.1310363E-14 -1 199 199 199 255
-0.0061379513 -0.0025424408 0.15750001 -1.28802E-15 1.1310363E-14 -1 199 199 199 255
-0.0061379513 0 0.15750001 -1.28802E-15 1.1310363E-14 -1 199 199 199 255
-0.0061379513 0 0.15750001 1.28802E-15 -1.1310363E-14 1 199 199 199 255
-0.0061379513 -0.0025424408 0.15750001 1.28802E-15 -1.1310363E-14 1 199 199 199 255
-0.0061379513 0.0025424408 0.15750001 1.28802E-15 -1.1310363E-14 1 199 199 199 255
-0.0025424408 -0.0061379513 0.15750001 1.28802E-15 -1.1310363E-14 1 199 199 199 255
-0.0025424408 0.006137986 0.15750001 1.28802E-15 -1.1310363E-14 1 199 199 199 255
-0 0.006137986 0.15750001 1.28802E-15 -1.1310363E-14 1 199 199 199 255
-0 -0.0061379513 0.15750001 1.28802E-15 -1.1310363E-14 1 199 199 199 255
0.0025424408 0.006137986 0.15750001 1.28802E-15 -1.1310363E-14 1 199 199 199 255
0.0025424408 -0.0061379513 0.15750001 1.28802E-15 -1.1310363E-14 1 199 199 199 255
0.006137986 0.0025424408 0.15750001 1.28802E-15 -1.1310363E-14 1 199 199 199 255
0.006137986 0 0.15750001 1.28802E-15 -1.1310363E-14 1 199 199 199 255
0.006137986 -0.0025424408 0.15750001 1.28802E-15 -1.1310363E-14 1 199 199 199 255
0.006137986 -0.0025424408 0.15750001 -0.1416623 -2.2942197E-17 -0.9899151 199 199 199 255
0.023607595 0 0.15499999 -0.1416623 -2.2942197E-17 -0.9899151 199 199 199 255
0.023607595 -0.009778584 0.15499999 -0.1416623 -2.2942197E-17 -0.9899151 199 199 199 255
0.006137986 0 0.15750001 -0.1416623 -2.2942197E-17 -0.9899151 199 199 199 255
0.006137986 0 0.15750001 0.1416623 2.2942197E-17 0.9899151 199 199 199 255
0.006137986 -0.0025424408 0.15750001 0.1416623 2.2942197E-17 0.9899151 199 199 199 255
0.023607595 0 0.15499999 0.1416623 2.2942197E-17 0.9899151 199 199 199 255
0.023607595 -0.009778584 0.15499999 0.1416623 2.2942197E-17 0.9899151 199 199 199 255
0.053653635 0.022224057 0.145 -0.3157916 3.954521E-15 -0.9488286 199 199 199 255
0.023607595 0.009778596 0.15499999 -0.3157916 3.954521E-15 -0.9488286 199 199 199 255
0.023607595 0.009778596 0.15499999 0.3157916 -3.954521E-15 0.9488286 199 199 199 255
0.053653635 0.022224057 0.145 0.3157916 -3.954521E-15 0.9488286 199 199 199 255
-0.009778584 -0.023607584 0.15499999 2.3479965E-15 0.3157916 -0.9488286 199 199 199 255
-0.022224057 -0.053653635 0.145 2.3479965E-15 0.3157916 -0.9488286 199 199 199 255
-0.022224057 -0.053653635 0.145 -2.3479965E-15 -0.3157916 0.9488286 199 199 199 255
-0.009778584 -0.023607584 0.15499999 -2.3479965E-15 -0.3157916 0.9488286 199 199 199 255
0.062387962 0.02584193 0.125 -0.6480076 -0.6480076 -0.4002154 199 199 199 255
0.022224057 0.053653635 0.145 -0.6480076 -0.6480076 -0.4002154 199 199 199 255
0.02584193 0.062387962 0.125 -0.6480076 -0.6480076 -0.4002154 199 199 199 255
0.053653635 0.022224057 0.145 -0.6480076 -0.6480076 -0.4002154 199 199 199 255
0.053653635 0.022224057 0.145 0.6480076 0.6480076 0.4002154 199 199 199 255
0.062387962 0.02584193 0.125 0.6480076 0.6480076 0.4002154 199 199 199 255
0.022224057 0.053653635 0.145 0.6480076 0.6480076 0.4002154 199 199 199 255
0.02584193 0.062387962 0.125 0.6480076 0.6480076 0.4002154 199 199 199 255
-0.022224057 -0.053653635 0.145 0.6480076 0.6480076 -0.4002154 199 199 199 255
-0.062387936 -0.02584193 0.125 0.6480076 0.6480076 -0.4002154 199 199 199 255
-0.053653635 -0.022224057 0.145 0.6480076 0.6480076 -0.4002154 199 199 199 255
-0.02584193 -0.062387936 0.125 0.6480076 0.6480076 -0.4002154 199 199 199 255
-0.02584193 -0.062387936 0.125 -0.6480076 -0.6480076 0.4002154 199 199 199 255
-0.022224057 -0.053653635 0.145 -0.6480076 -0.6480076 0.4002154 199 199 199 255
-0.062387936 -0.02584193 0.125 -0.6480076 -0.6480076 0.4002154 199 199 199 255
-0.053653635 -0.022224057 0.145 -0.6480076 -0.6480076 0.4002154 199 199 199 255
-0.0025424408 -0.0061379513 0.15750001 5.3914155E-15 0.1416623 -0.9899151 199 199 199 255
-0.009778584 -0.023607584 0.15499999 5.3914155E-15 0.1416623 -0.9899151 199 199 199 255
-0.009778584 -0.023607584 0.15499999 -5.3914155E-15 -0.1416623 0.9899151 199 199 199 255
-0.0025424408 -0.0061379513 0.15750001 -5.3914155E-15 -0.1416623 0.9899151 199 199 199 255
0.006137986 0.0025424408 0.15750001 -0.1001704 -0.1001704 -0.9899151 199 199 199 255
0.009778596 0.023607595 0.15499999 -0.1001704 -0.1001704 -0.9899151 199 199 199 255
0.023607595 0.009778596 0.15499999 -0.1001704 -0.1001704 -0.9899151 199 199 199 255
0.0025424408 0.006137986 0.15750001 -0.1001704 -0.1001704 -0.9899151 199 199 199 255
0.0025424408 0.006137986 0.15750001 0.1001704 0.1001704 0.9899151 199 199 199 255
0.006137986 0.0025424408 0.15750001 0.1001704 0.1001704 0.9899151 199 199 199 255
0.009778596 0.023607595 0.15499999 0.1001704 0.1001704 0.9899151 199 199 199 255
0.023607595 0.009778596 0.15499999 0.1001704 0.1001704 0.9899151 199 199 199 255
0.023607595 0.009778596 0.15499999 -0.1416623 5.414358E-15 -0.9899151 199 199 199 255
0.006137986 0.0025424408 0.15750001 -0.1416623 5.414358E-15 -0.9899151 199 199 199 255
0.006137986 0.0025424408 0.15750001 0.1416623 -5.414358E-15 0.9899151 199 199 199 255
0.023607595 0.009778596 0.15499999 0.1416623 -5.414358E-15 0.9899151 199 199 199 255
-0.009778584 -0.023607584 0.15499999 0.1001704 0.1001704 -0.9899151 199 199 199 255
-0.0061379513 -0.0025424408 0.15750001 0.1001704 0.1001704 -0.9899151 199 199 199 255
-0.0025424408 -0.0061379513 0.15750001 0.1001704 0.1001704 -0.9899151 199 199 199 255
-0.023607584 -0.009778584 0.15499999 0.1001704 0.1001704 -0.9899151 199 199 199 255
-0.023607584 -0.009778584 0.15499999 -0.1001704 -0.1001704 0.9899151 199 199 199 255
-0.009778584 -0.023607584 0.15499999 -0.1001704 -0.1001704 0.9899151 199 199 199 255
-0.0061379513 -0.0025424408 0.15750001 -0.1001704 -0.1001704 0.9899151 199 199 199 255
-0.0025424408 -0.0061379513 0.15750001 -0.1001704 -0.1001704 0.9899151 199 199 199 255
-0.023607584 -0.009778584 0.15499999 0.1416623 1.0759888E-14 -0.9899151 199 199 199 255
-0.0061379513 0 0.15750001 0.1416623 1.0759888E-14 -0.9899151 199 199 199 255
-0.0061379513 -0.0025424408 0.15750001 0.1416623 1.0759888E-14 -0.9899151 199 199 199 255
-0.023607584 0 0.15499999 0.1416623 1.0759888E-14 -0.9899151 199 199 199 255
-0.023607584 0 0.15499999 -0.1416623 -1.0759888E-14 0.9899151 199 199 199 255
-0.023607584 -0.009778584 0.15499999 -0.1416623 -1.0759888E-14 0.9899151 199 199 199 255
-0.0061379513 0 0.15750001 -0.1416623 -1.0759888E-14 0.9899151 199 199 199 255
-0.0061379513 -0.0025424408 0.15750001 -0.1416623 -1.0759888E-14 0.9899151 199 199 199 255
-0.0061379513 0.0025424408 0.15750001 0.1416623 -5.3455313E-15 -0.9899151 199 199 199 255
-0.023607584 0.009778596 0.15499999 0.1416623 -5.3455313E-15 -0.9899151 199 199 199 255
-0.023607584 0.009778596 0.15499999 -0.1416623 5.3455313E-15 0.9899151 199 199 199 255
-0.0061379513 0.0025424408 0.15750001 -0.1416623 5.3455313E-15 0.9899151 199 199 199 255
-0.0061379513 0.0025424408 0.15750001 0.1001704 -0.1001704 -0.9899151 199 199 199 255
-0.009778584 0.023607595 0.15499999 0.1001704 -0.1001704 -0.9899151 199 199 199 255
-0.0025424408 0.006137986 0.15750001 0.1001704 -0.1001704 -0.9899151 199 199 199 255
-0.023607584 0.009778596 0.15499999 0.1001704 -0.1001704 -0.9899151 199 199 199 255
-0.023607584 0.009778596 0.15499999 -0.1001704 0.1001704 0.9899151 199 199 199 255
-0.0061379513 0.0025424408 0.15750001 -0.1001704 0.1001704 0.9899151 199 199 199 255
-0.009778584 0.023607595 0.15499999 -0.1001704 0.1001704 0.9899151 199 199 199 255
-0.0025424408 0.006137986 0.15750001 -0.1001704 0.1001704 0.9899151 199 199 199 255
-0.0025424408 0.006137986 0.15750001 -6.882658E-17 -0.1416623 -0.9899151 199 199 199 255
-0 0.023607595 0.15499999 -6.882658E-17 -0.1416623 -0.9899151 199 199 199 255
-0 0.006137986 0.15750001 -6.882658E-17 -0.1416623 -0.9899151 199 199 199 255
-0.009778584 0.023607595 0.15499999 -6.882658E-17 -0.1416623 -0.9899151 199 199 199 255
-0.009778584 0.023607595 0.15499999 6.882658E-17 0.1416623 0.9899151 199 199 199 255
-0.0025424408 0.006137986 0.15750001 6.882658E-17 0.1416623 0.9899151 199 199 199 255
-0 0.023607595 0.15499999 6.882658E-17 0.1416623 0.9899151 199 199 199 255
-0 0.006137986 0.15750001 6.882658E-17 0.1416623 0.9899151 199 199 199 255
0.0025424408 0.006137986 0.15750001 5.3684736E-15 -0.1416623 -0.9899151 199 199 199 255
0.009778596 0.023607595 0.15499999 5.3684736E-15 -0.1416623 -0.9899151 199 199 199 255
0.0025424408 0.006137986 0.15750001 -5.3684736E-15 0.1416623 0.9899151 199 199 199 255
0.009778596 0.023607595 0.15499999 -5.3684736E-15 0.1416623 0.9899151 199 199 199 255
0.023607595 0.009778596 0.15499999 -0.22329837 -0.22329837 -0.94882846 199 199 199 255
0.022224057 0.053653635 0.145 -0.22329837 -0.22329837 -0.94882846 199 199 199 255
0.053653635 0.022224057 0.145 -0.22329837 -0.22329837 -0.94882846 199 199 199 255
0.009778596 0.023607595 0.15499999 -0.22329837 -0.22329837 -0.94882846 199 199 199 255
0.009778596 0.023607595 0.15499999 0.22329837 0.22329837 0.94882846 199 199 199 255
0.023607595 0.009778596 0.15499999 0.22329837 0.22329837 0.94882846 199 199 199 255
0.022224057 0.053653635 0.145 0.22329837 0.22329837 0.94882846 199 199 199 255
0.053653635 0.022224057 0.145 0.22329837 0.22329837 0.94882846 199 199 199 255
-0.022224057 -0.053653635 0.145 0.22329837 0.22329837 -0.94882846 199 199 199 255
-0.023607584 -0.009778584 0.15499999 0.22329837 0.22329837 -0.94882846 199 199 199 255
-0.009778584 -0.023607584 0.15499999 0.22329837 0.22329837 -0.94882846 199 199 199 255
-0.053653635 -0.022224057 0.145 0.22329837 0.22329837 -0.94882846 199 199 199 255
-0.053653635 -0.022224057 0.145 -0.22329837 -0.22329837 0.94882846 199 199 199 255
-0.022224057 -0.053653635 0.145 -0.22329837 -0.22329837 0.94882846 199 199 199 255
-0.023607584 -0.009778584 0.15499999 -0.22329837 -0.22329837 0.94882846 199 199 199 255
-0.009778584 -0.023607584 0.15499999 -0.22329837 -0.22329837 0.94882846 199 199 199 255
-0 0.053653635 0.145 7.319203E-16 -0.9164211 -0.4002154 199 199 199 255
0.02584193 0.062387962 0.125 7.319203E-16 -0.9164211 -0.4002154 199 199 199 255
0.022224057 0.053653635 0.145 7.319203E-16 -0.9164211 -0.4002154 199 199 199 255
-0 0.062387962 0.125 7.319203E-16 -0.9164211 -0.4002154 199 199 199 255
-0 0.062387962 0.125 -7.319203E-16 0.9164211 0.4002154 199 199 199 255
-0 0.053653635 0.145 -7.319203E-16 0.9164211 0.4002154 199 199 199 255
0.02584193 0.062387962 0.125 -7.319203E-16 0.9164211 0.4002154 199 199 199 255
0.022224057 0.053653635 0.145 -7.319203E-16 0.9164211 0.4002154 199 199 199 255
-0.053653635 0 0.145 0.9164211 6.035922E-14 -0.4002154 199 199 199 255
-0.062387936 -0.02584193 0.125 0.9164211 6.035922E-14 -0.4002154 199 199 199 255
-0.062387936 0 0.125 0.9164211 6.035922E-14 -0.4002154 199 199 199 255
-0.053653635 -0.022224057 0.145 0.9164211 6.035922E-14 -0.4002154 199 199 199 255
-0.053653635 -0.022224057 0.145 -0.9164211 -6.035922E-14 0.4002154 199 199 199 255
-0.053653635 0 0.145 -0.9164211 -6.035922E-14 0.4002154 199 199 199 255
-0.062387936 -0.02584193 0.125 -0.9164211 -6.035922E-14 0.4002154 199 199 199 255
-0.062387936 0 0.125 -0.9164211 -6.035922E-14 0.4002154 199 199 199 255
-0.053653635 -0.022224057 0.145 0.3157916 4.6136076E-15 -0.9488286 199 199 199 255
-0.023607584 0 0.15499999 0.3157916 4.6136076E-15 -0.9488286 199 199 199 255
-0.023607584 -0.009778584 0.15499999 0.3157916 4.6136076E-15 -0.9488286 199 199 199 255
-0.053653635 0 0.145 0.3157916 4.6136076E-15 -0.9488286 199 199 199 255
-0.053653635 0 0.145 -0.3157916 -4.6136076E-15 0.9488286 199 199 199 255
-0.053653635 -0.022224057 0.145 -0.3157916 -4.6136076E-15 0.9488286 199 199 199 255
-0.023607584 0 0.15499999 -0.3157916 -4.6136076E-15 0.9488286 199 199 199 255
-0.023607584 -0.009778584 0.15499999 -0.3157916 -4.6136076E-15 0.9488286 199 199 199 255
-0.023607584 0.009778596 0.15499999 0.3157916 -7.0027967E-16 -0.9488286 199 199 199 255
-0.053653635 0.022224057 0.145 0.3157916 -7.0027967E-16 -0.9488286 199 199 199 255
-0.053653635 0.022224057 0.145 -0.3157916 7.0027967E-16 0.9488286 199 199 199 255
-0.023607584 0.009778596 0.15499999 -0.3157916 7.0027967E-16 0.9488286 199 199 199 255
-0.023607584 0.009778596 0.15499999 0.22329837 -0.22329837 -0.94882846 199 199 199 255
-0.022224057 0.053653635 0.145 0.22329837 -0.22329837 -0.94882846 199 199 199 255
-0.009778584 0.023607595 0.15499999 0.22329837 -0.22329837 -0.94882846 199 199 199 255
-0.053653635 0.022224057 0.145 0.22329837 -0.22329837 -0.94882846 199 199 199 255
-0.053653635 0.022224057 0.145 -0.22329837 0.22329837 0.94882846 199 199 199 255
-0.023607584 0.009778596 0.15499999 -0.22329837 0.22329837 0.94882846 199 199 199 255
-0.022224057 0.053653635 0.145 -0.22329837 0.22329837 0.94882846 199 199 199 255
-0.009778584 0.023607595 0.15499999 -0.22329837 0.22329837 0.94882846 199 199 199 255
-0.009778584 0.023607595 0.15499999 3.1802898E-24 -0.3157916 -0.9488286 199 199 199 255
-0 0.053653635 0.145 3.1802898E-24 -0.3157916 -0.9488286 199 199 199 255
-0 0.023607595 0.15499999 3.1802898E-24 -0.3157916 -0.9488286 199 199 199 255
-0.022224057 0.053653635 0.145 3.1802898E-24 -0.3157916 -0.9488286 199 199 199 255
-0.022224057 0.053653635 0.145 -3.1802898E-24 0.3157916 0.9488286 199 199 199 255
-0.009778584 0.023607595 0.15499999 -3.1802898E-24 0.3157916 0.9488286 199 199 199 255
-0 0.053653635 0.145 -3.1802898E-24 0.3157916 0.9488286 199 199 199 255
-0 0.023607595 0.15499999 -3.1802898E-24 0.3157916 0.9488286 199 199 199 255
0.009778596 0.023607595 0.15499999 2.3891894E-15 -0.3157916 -0.9488286 199 199 199 255
0.022224057 0.053653635 0.145 2.3891894E-15 -0.3157916 -0.9488286 199 199 199 255
0.009778596 0.023607595 0.15499999 -2.3891894E-15 0.3157916 0.9488286 199 199 199 255
0.022224057 0.053653635 0.145 -2.3891894E-15 0.3157916 0.9488286 199 199 199 255
-0.02584193 0.062387962 0.125 -1.7087634E-17 -0.9164211 -0.4002154 199 199 199 255
-0.022224057 0.053653635 0.145 -1.7087634E-17 -0.9164211 -0.4002154 199 199 199 255
-0.02584193 0.062387962 0.125 1.7087634E-17 0.9164211 0.4002154 199 199 199 255
-0.022224057 0.053653635 0.145 1.7087634E-17 0.9164211 0.4002154 199 199 199 255
-0.053653635 0.022224057 0.145 0.9164211 -8.543804E-18 -0.4002154 199 199 199 255
-0.062387936 0.02584193 0.125 0.9164211 -8.543804E-18 -0.4002154 199 199 199 255
-0.053653635 0.022224057 0.145 -0.9164211 8.543804E-18 0.4002154 199 199 199 255
-0.062387936 0.02584193 0.125 -0.9164211 8.543804E-18 0.4002154 199 199 199 255
-0.062387936 0.02584193 0.125 0.6480076 -0.6480076 -0.4002154 199 199 199 255
-0.022224057 0.053653635 0.145 0.6480076 -0.6480076 -0.4002154 199 199 199 255
-0.053653635 0.022224057 0.145 0.6480076 -0.6480076 -0.4002154 199 199 199 255
-0.02584193 0.062387962 0.125 0.6480076 -0.6480076 -0.4002154 199 199 199 255
-0.02584193 0.062387962 0.125 -0.6480076 0.6480076 0.4002154 199 199 199 255
-0.062387936 0.02584193 0.125 -0.6480076 0.6480076 0.4002154 199 199 199 255
-0.022224057 0.053653635 0.145 -0.6480076 0.6480076 0.4002154 199 199 199 255
-0.053653635 0.022224057 0.145 -0.6480076 0.6480076 0.4002154 199 199 199 255
0.034126222 -0.08238794 0.125 -1.6381171E-16 1.7457171E-15 -1 86 86 86 255
0.08238795 0 0.125 -1.6381171E-16 1.7457171E-15 -1 86 86 86 255
0.08238795 -0.034126196 0.125 -1.6381171E-16 1.7457171E-15 -1 86 86 86 255
0.062387962 -0.02584193 0.125 -1.6381171E-16 1.7457171E-15 -1 86 86 86 255
0.08238795 0.034126222 0.125 -1.6381171E-16 1.7457171E-15 -1 86 86 86 255
0.02584193 -0.062387936 0.125 -1.6381171E-16 1.7457171E-15 -1 86 86 86 255
-0 -0.08238794 0.125 -1.6381171E-16 1.7457171E-15 -1 86 86 86 255
-0 -0.062387936 0.125 -1.6381171E-16 1.7457171E-15 -1 86 86 86 255
-0.034126196 -0.08238794 0.125 -1.6381171E-16 1.7457171E-15 -1 86 86 86 255
-0.02584193 -0.062387936 0.125 -1.6381171E-16 1.7457171E-15 -1 86 86 86 255
-0.062387936 -0.02584193 0.125 -1.6381171E-16 1.7457171E-15 -1 86 86 86 255
-0.08238794 -0.034126196 0.125 -1.6381171E-16 1.7457171E-15 -1 86 86 86 255
-0.062387936 0 0.125 -1.6381171E-16 1.7457171E-15 -1 86 86 86 255
-0.062387936 0.02584193 0.125 -1.6381171E-16 1.7457171E-15 -1 86 86 86 255
0.062387962 0.02584193 0.125 -1.6381171E-16 1.7457171E-15 -1 86 86 86 255
0.034126222 0.08238795 0.125 -1.6381171E-16 1.7457171E-15 -1 86 86 86 255
0.062387962 0 0.125 -1.6381171E-16 1.7457171E-15 -1 86 86 86 255
0.02584193 0.062387962 0.125 -1.6381171E-16 1.7457171E-15 -1 86 86 86 255
-0 0.08238795 0.125 -1.6381171E-16 1.7457171E-15 -1 86 86 86 255
-0 0.062387962 0.125 -1.6381171E-16 1.7457171E-15 -1 86 86 86 255
-0.02584193 0.062387962 0.125 -1.6381171E-16 1.7457171E-15 -1 86 86 86 255
-0.034126196 0.08238795 0.125 -1.6381171E-16 1.7457171E-15 -1 86 86 86 255
-0.08238794 0.034126222 0.125 -1.6381171E-16 1.7457171E-15 -1 86 86 86 255
-0.08238794 0 0.125 -1.6381171E-16 1.7457171E-15 -1 86 86 86 255
-0.08238794 0 0.125 1.6381171E-16 -1.7457171E-15 1 199 199 199 255
-0.08238794 -0.034126196 0.125 1.6381171E-16 -1.7457171E-15 1 199 199 199 255
-0.08238794 0.034126222 0.125 1.6381171E-16 -1.7457171E-15 1 199 199 199 255
-0.062387936 0.02584193 0.125 1.6381171E-16 -1.7457171E-15 1 199 199 199 255
-0.034126196 0.08238795 0.125 1.6381171E-16 -1.7457171E-15 1 199 199 199 255
-0.02584193 0.062387962 0.125 1.6381171E-16 -1.7457171E-15 1 199 199 199 255
-0 0.08238795 0.125 1.6381171E-16 -1.7457171E-15 1 199 199 199 255
-0 0.062387962 0.125 1.6381171E-16 -1.7457171E-15 1 199 199 199 255
0.02584193 0.062387962 0.125 1.6381171E-16 -1.7457171E-15 1 199 199 199 255
0.034126222 0.08238795 0.125 1.6381171E-16 -1.7457171E-15 1 199 199 199 255
0.062387962 0.02584193 0.125 1.6381171E-16 -1.7457171E-15 1 199 199 199 255
0.062387962 0 0.125 1.6381171E-16 -1.7457171E-15 1 199 199 199 255
0.062387962 -0.02584193 0.125 1.6381171E-16 -1.7457171E-15 1 199 199 199 255
0.08238795 0.034126222 0.125 1.6381171E-16 -1.7457171E-15 1 199 199 199 255
-0.062387936 0 0.125 1.6381171E-16 -1.7457171E-15 1 199 199 199 255
-0.062387936 -0.02584193 0.125 1.6381171E-16 -1.7457171E-15 1 199 199 199 255
-0.034126196 -0.08238794 0.125 1.6381171E-16 -1.7457171E-15 1 199 199 199 255
-0.02584193 -0.062387936 0.125 1.6381171E-16 -1.7457171E-15 1 199 199 199 255
-0 -0.062387936 0.125 1.6381171E-16 -1.7457171E-15 1 199 199 199 255
-0 -0.08238794 0.125 1.6381171E-16 -1.7457171E-15 1 199 199 199 255
0.02584193 -0.062387936 0.125 1.6381171E-16 -1.7457171E-15 1 199 199 199 255
0.034126222 -0.08238794 0.125 1.6381171E-16 -1.7457171E-15 1 199 199 199 255
0.08238795 0 0.125 1.6381171E-16 -1.7457171E-15 1 199 199 199 255
0.08238795 -0.034126196 0.125 1.6381171E-16 -1.7457171E-15 1 199 199 199 255
0.034126222 -0.08238794 0.105 0 1 1.0317023E-15 199 199 199 255
-0 -0.08238794 0.125 0 1 1.0317023E-15 199 199 199 255
0.034126222 -0.08238794 0.125 0 1 1.0317023E-15 199 199 199 255
-0.034126196 -0.08238794 0.125 0 1 1.0317023E-15 199 199 199 255
-0.034126196 -0.08238794 0.105 0 1 1.0317023E-15 199 199 199 255
-0.034126196 -0.08238794 0.105 0 -1 -1.0317023E-15 199 199 199 255
0.034126222 -0.08238794 0.105 0 -1 -1.0317023E-15 199 199 199 255
-0.034126196 -0.08238794 0.125 0 -1 -1.0317023E-15 199 199 199 255
-0 -0.08238794 0.125 0 -1 -1.0317023E-15 199 199 199 255
0.034126222 -0.08238794 0.125 0 -1 -1.0317023E-15 199 199 199 255
-0.034126196 -0.08238794 0.125 0.70710677 0.70710677 7.295233E-16 199 199 199 255
-0.08238794 -0.034126196 0.105 0.70710677 0.70710677 7.295233E-16 199 199 199 255
-0.08238794 -0.034126196 0.125 0.70710677 0.70710677 7.295233E-16 199 199 199 255
-0.034126196 -0.08238794 0.105 0.70710677 0.70710677 7.295233E-16 199 199 199 255
-0.034126196 -0.08238794 0.105 -0.70710677 -0.70710677 -7.295233E-16 199 199 199 255
-0.034126196 -0.08238794 0.125 -0.70710677 -0.70710677 -7.295233E-16 199 199 199 255
-0.08238794 -0.034126196 0.105 -0.70710677 -0.70710677 -7.295233E-16 199 199 199 255
-0.08238794 -0.034126196 0.125 -0.70710677 -0.70710677 -7.295233E-16 199 199 199 255
0.034126222 -0.08238794 0.105 -0.70710677 0.70710677 7.295233E-16 199 199 199 255
0.08238795 -0.034126196 0.125 -0.70710677 0.70710677 7.295233E-16 199 199 199 255
0.08238795 -0.034126196 0.105 -0.70710677 0.70710677 7.295233E-16 199 199 199 255
0.034126222 -0.08238794 0.125 -0.70710677 0.70710677 7.295233E-16 199 199 199 255
0.034126222 -0.08238794 0.125 0.70710677 -0.70710677 -7.295233E-16 199 199 199 255
0.034126222 -0.08238794 0.105 0.70710677 -0.70710677 -7.295233E-16 199 199 199 255
0.08238795 -0.034126196 0.125 0.70710677 -0.70710677 -7.295233E-16 199 199 199 255
0.08238795 -0.034126196 0.105 0.70710677 -0.70710677 -7.295233E-16 199 199 199 255
-0.08238794 0 0.125 1 4.230833E-14 4.4922966E-29 199 199 199 255
-0.08238794 0.034126222 0.105 1 4.230833E-14 4.4922966E-29 199 199 199 255
-0.08238794 0.034126222 0.125 1 4.230833E-14 4.4922966E-29 199 199 199 255
-0.08238794 -0.034126196 0.105 1 4.230833E-14 4.4922966E-29 199 199 199 255
-0.08238794 -0.034126196 0.125 1 4.230833E-14 4.4922966E-29 199 199 199 255
-0.08238794 -0.034126196 0.125 -1 -4.230833E-14 -4.4922966E-29 199 199 199 255
-0.08238794 0 0.125 -1 -4.230833E-14 -4.4922966E-29 199 199 199 255
-0.08238794 -0.034126196 0.105 -1 -4.230833E-14 -4.4922966E-29 199 199 199 255
-0.08238794 0.034126222 0.105 -1 -4.230833E-14 -4.4922966E-29 199 199 199 255
-0.08238794 0.034126222 0.125 -1 -4.230833E-14 -4.4922966E-29 199 199 199 255
0.08238795 -0.034126196 0.105 -1 -4.230833E-14 -4.4922966E-29 199 199 199 255
0.08238795 0.034126222 0.125 -1 -4.230833E-14 -4.4922966E-29 199 199 199 255
0.08238795 0.034126222 0.105 -1 -4.230833E-14 -4.4922966E-29 199 199 199 255
0.08238795 0 0.125 -1 -4.230833E-14 -4.4922966E-29 199 199 199 255
0.08238795 -0.034126196 0.125 -1 -4.230833E-14 -4.4922966E-29 199 199 199 255
0.08238795 -0.034126196 0.125 1 4.230833E-14 4.4922966E-29 199 199 199 255
0.08238795 -0.034126196 0.105 1 4.230833E-14 4.4922966E-29 199 199 199 255
0.08238795 0 0.125 1 4.230833E-14 4.4922966E-29 199 199 199 255
0.08238795 0.034126222 0.125 1 4.230833E-14 4.4922966E-29 199 199 199 255
0.08238795 0.034126222 0.105 1 4.230833E-14 4.4922966E-29 199 199 199 255
-0.08238794 0.034126222 0.105 0.70710677 -0.70710677 -7.295233E-16 199 199 199 255
-0.034126196 0.08238795 0.125 0.70710677 -0.70710677 -7.295233E-16 199 199 199 255
-0.08238794 0.034126222 0.125 0.70710677 -0.70710677 -7.295233E-16 199 199 199 255
-0.034126196 0.08238795 0.105 0.70710677 -0.70710677 -7.295233E-16 199 199 199 255
-0.034126196 0.08238795 0.105 -0.70710677 0.70710677 7.295233E-16 199 199 199 255
-0.08238794 0.034126222 0.105 -0.70710677 0.70710677 7.295233E-16 199 199 199 255
-0.034126196 0.08238795 0.125 -0.70710677 0.70710677 7.295233E-16 199 199 199 255
-0.08238794 0.034126222 0.125 -0.70710677 0.70710677 7.295233E-16 199 199 199 255
0.08238795 0.034126222 0.105 -0.70710677 -0.70710677 -7.295233E-16 199 199 199 255
0.034126222 0.08238795 0.125 -0.70710677 -0.70710677 -7.295233E-16 199 199 199 255
0.034126222 0.08238795 0.105 -0.70710677 -0.70710677 -7.295233E-16 199 199 199 255
0.08238795 0.034126222 0.125 -0.70710677 -0.70710677 -7.295233E-16 199 199 199 255
0.08238795 0.034126222 0.125 0.70710677 0.70710677 7.295233E-16 199 199 199 255
0.08238795 0.034126222 0.105 0.70710677 0.70710677 7.295233E-16 199 199 199 255
0.034126222 0.08238795 0.125 0.70710677 0.70710677 7.295233E-16 199 199 199 255
0.034126222 0.08238795 0.105 0.70710677 0.70710677 7.295233E-16 199 199 199 255
-0.034126196 0.08238795 0.105 0 -1 -1.0317023E-15 199 199 199 255
-0 0.08238795 0.125 0 -1 -1.0317023E-15 199 199 199 255
-0.034126196 0.08238795 0.125 0 -1 -1.0317023E-15 199 199 199 255
0.034126222 0.08238795 0.125 0 -1 -1.0317023E-15 199 199 199 255
0.034126222 0.08238795 0.105 0 -1 -1.0317023E-15 199 199 199 255
0.034126222 0.08238795 0.105 0 1 1.0317023E-15 199 199 199 255
-0.034126196 0.08238795 0.105 0 1 1.0317023E-15 199 199 199 255
0.034126222 0.08238795 0.125 0 1 1.0317023E-15 199 199 199 255
-0 0.08238795 0.125 0 1 1.0317023E-15 199 199 199 255
-0.034126196 0.08238795 0.125 0 1 1.0317023E-15 199 199 199 255
3 0 1 2
3 1 0 3
3 3 0 4
3 3 4 5
3 5 4 6
3 6 4 7
3 2 8 9
3 8 2 10
3 10 2 1
3 9 8 11
3 9 11 7
3 9 7 4
3 12 13 14
3 13 15 14
3 15 16 14
3 17 18 19
3 19 18 16
3 14 16 18
3 13 12 20
3 20 12 21
3 21 12 22
3 12 23 22
3 22 23 17
3 18 17 23
3 24 25 26
3 25 24 27
3 25 27 28
3 28 27 29
3 28 29 30
3 30 29 31
3 31 29 32
3 31 32 33
3 26 34 35
3 34 26 25
3 35 34 36
3 35 36 37
3 37 36 38
3 37 38 33
3 37 33 39
3 39 33 32
3 40 41 42
3 41 40 43
3 44 45 46
3 45 44 47
3 48 49 50
3 49 48 51
3 52 53 54
3 53 52 55
3 56 57 58
3 57 56 59
3 60 61 62
3 61 60 63
3 64 65 66
3 65 64 67
3 68 69 70
3 69 68 71
3 72 73 74
3 74 73 75
3 73 76 75
3 76 77 75
3 75 77 78
3 77 79 78
3 80 81 79
3 78 79 81
3 73 72 82
3 72 83 82
3 82 83 84
3 84 83 85
3 83 86 85
3 85 86 80
3 86 87 80
3 81 80 87
3 88 89 90
3 91 90 89
3 92 93 94
3 95 94 93
3 96 97 98
3 99 98 97
3 100 101 102
3 103 102 101
3 104 105 106
3 107 106 105
3 108 109 110
3 111 110 109
3 112 113 114
3 115 114 113
3 116 117 118
3 119 118 117
3 120 121 122
3 121 120 123
3 124 125 126
3 127 126 125
3 128 129 130
3 129 128 131
3 132 133 134
3 135 134 133
3 136 137 138
3 137 136 139
3 140 141 142
3 143 142 141
3 144 145 146
3 145 144 147
3 148 149 150
3 151 150 149
3 152 153 154
3 153 152 155
3 156 157 158
3 159 158 157
3 160 161 162
3 161 160 163
3 164 165 166
3 167 166 165
3 168 169 170
3 169 168 171
3 172 173 174
3 175 174 173
3 138 176 177
3 176 138 137
3 142 143 178
3 179 178 143
3 147 180 145
3 180 147 181
3 182 148 183
3 150 183 148
3 184 185 186
3 185 184 187
3 188 189 190
3 191 190 189
3 192 193 194
3 193 192 195
3 195 192 196
3 196 192 197
3 196 197 198
3 198 197 199
3 198 199 200
3 200 199 201
3 201 199 202
3 201 202 203
3 204 205 206
3 205 207 206
3 206 207 208
3 208 207 209
3 207 210 209
3 209 210 211
3 210 212 211
3 211 212 213
3 213 212 214
3 215 214 212
3 216 217 218
3 217 216 219
3 220 221 222
3 223 222 221
3 163 224 161
3 224 163 225
3 226 164 227
3 166 227 164
3 168 228 171
3 228 168 229
3 230 173 231
3 172 231 173
3 232 233 234
3 233 232 235
3 236 237 238
3 239 238 237
3 240 241 242
3 241 240 243
3 244 245 246
3 247 246 245
3 184 248 187
3 248 184 249
3 250 189 251
3 188 251 189
3 252 253 254
3 253 252 255
3 256 257 258
3 259 258 257
3 219 260 217
3 260 219 261
3 262 220 263
3 222 263 220
3 264 265 266
3 265 264 267
3 268 269 270
3 271 270 269
3 272 273 274
3 273 272 275
3 276 277 278
3 279 278 277
3 275 280 273
3 280 275 281
3 282 276 283
3 278 283 276
3 284 285 286
3 285 284 287
3 288 289 290
3 291 290 289
3 292 293 294
3 293 292 295
3 296 297 298
3 299 298 297
3 300 293 301
3 293 300 294
3 299 302 298
3 303 298 302
3 304 305 306
3 305 304 307
3 308 309 310
3 311 310 309
3 312 313 314
3 313 312 315
3 316 317 318
3 319 318 317
3 320 321 322
3 321 320 323
3 324 325 326
3 327 326 325
3 328 329 330
3 329 328 331
3 332 333 334
3 335 334 333
3 336 337 338
3 337 336 339
3 340 341 342
3 343 342 341
3 339 344 337
3 344 339 345
3 346 340 347
3 342 347 340
3 348 349 350
3 349 348 351
3 352 353 354
3 355 354 353
3 356 357 358
3 357 356 359
3 360 361 362
3 363 362 361
3 364 357 365
3 357 364 358
3 363 366 362
3 367 362 366
3 368 320 369
3 320 368 323
3 324 370 325
3 371 325 370
3 372 330 373
3 330 372 328
3 333 374 335
3 375 335 374
3 376 377 378
3 377 376 379
3 380 381 382
3 383 382 381
3 384 385 386
3 385 384 387
3 385 387 388
3 387 384 389
3 389 384 390
3 389 390 391
3 391 390 392
3 391 392 393
3 393 392 394
3 394 392 395
3 394 395 396
3 396 395 397
3 388 398 399
3 398 388 387
3 398 387 400
3 399 398 401
3 399 401 402
3 402 401 403
3 402 403 404
3 402 404 405
3 405 404 397
3 405 397 406
3 406 397 395
3 406 395 407
3 408 409 410
3 409 411 410
3 410 411 412
3 411 413 412
3 412 413 414
3 413 415 414
3 415 416 414
3 414 416 417
3 416 418 417
3 419 420 418
3 420 421 418
3 417 418 421
3 411 409 422
3 422 409 423
3 409 424 423
3 423 424 425
3 425 424 426
3 424 427 426
3 426 427 428
3 427 429 428
3 428 429 420
3 421 420 430
3 420 429 430
3 431 430 429
3 432 433 434
3 433 432 435
3 435 432 436
3 437 438 439
3 439 438 440
3 441 440 438
3 442 443 444
3 443 442 445
3 446 447 448
3 449 448 447
3 450 451 452
3 451 450 453
3 454 455 456
3 457 456 455
3 458 459 460
3 459 458 461
3 461 458 462
3 463 464 465
3 465 464 466
3 467 466 464
3 468 469 470
3 469 468 471
3 471 468 472
3 473 474 475
3 475 474 476
3 477 476 474
3 478 479 480
3 479 478 481
3 482 483 484
3 485 484 483
3 486 487 488
3 487 486 489
3 490 491 492
3 493 492 491
3 494 495 496
3 495 494 497
3 497 494 498
3 499 500 501
3 501 500 502
3 503 502 500

