ply
format ascii 1.0
commentY29udmVydGVyIGJ5IENvZGVMZW9wYXJk
comment Original mesh name: 'C:\Program Files (x86)\Steam\steamapps\common\Stormworks\rom\meshes\component_window_diamond_m_1x2x3.mesh'
comment SubMesh index: 0
comment SubMesh name: 'ID18'
comment Shader: Opaque (0)
element vertex 64
property float x
property float y
property float z
property float nx
property float ny
property float nz
property uchar red
property uchar green
property uchar blue
property uchar alpha
element face 40
property list uchar ushort vertex_index
end_header
0.37499997 0.125 -0.125 -3.569415E-13 -1 -3.168426E-13 255 125 0 255
-0.125 0.125 0.31499985 -3.569415E-13 -1 -3.168426E-13 255 125 0 255
0.31499985 0.125 -0.125 -3.569415E-13 -1 -3.168426E-13 255 125 0 255
-0.125 0.125 0.37499997 -3.569415E-13 -1 -3.168426E-13 255 125 0 255
0.31499985 0.125 -0.125 0.5773502 -0.5773503 0.5773503 255 125 0 255
0.28234002 0.108670056 -0.108670056 0.5773502 -0.5773503 0.5773503 255 125 0 255
0.06499986 -0.125 -0.125 0.5773502 -0.5773503 0.5773503 255 125 0 255
-0.125 0.125 0.31499985 0.5773502 -0.5773503 0.5773503 255 125 0 255
-0.125 0.108670056 0.29866996 0.5773502 -0.5773503 0.5773503 255 125 0 255
0.06499986 -0.108670056 -0.108670056 0.5773502 -0.5773503 0.5773503 255 125 0 255
-0.37499997 -0.125 0.31499985 0.5773502 -0.5773503 0.5773503 255 125 0 255
-0.34234017 -0.108670056 0.29866996 0.5773502 -0.5773503 0.5773503 255 125 0 255
0.31499985 0.125 -0.125 -6.0159177E-15 7.459743E-15 1 255 125 0 255
0.125 -0.125 -0.125 -6.0159177E-15 7.459743E-15 1 255 125 0 255
0.37499997 0.125 -0.125 -6.0159177E-15 7.459743E-15 1 255 125 0 255
0.06499986 -0.125 -0.125 -6.0159177E-15 7.459743E-15 1 255 125 0 255
-0.125 0.125 0.31499985 0.70710677 -0.70710677 -2.3388038E-13 255 125 0 255
-0.37499997 -0.125 0.37499997 0.70710677 -0.70710677 -2.3388038E-13 255 125 0 255
-0.37499997 -0.125 0.31499985 0.70710677 -0.70710677 -2.3388038E-13 255 125 0 255
-0.125 0.125 0.37499997 0.70710677 -0.70710677 -2.3388038E-13 255 125 0 255
-0.37499997 -0.125 0.31499985 0 1 -0 255 125 0 255
0.125 -0.125 -0.125 0 1 -0 255 125 0 255
0.06499986 -0.125 -0.125 0 1 -0 255 125 0 255
-0.37499997 -0.125 0.37499997 0 1 -0 255 125 0 255
-0.125 0.108670056 0.32866988 2.531333E-09 1 2.444655E-09 255 125 0 255
0.34234017 0.108670056 -0.108670056 2.531333E-09 1 2.444655E-09 255 125 0 255
0.3123402 0.108670056 -0.108670056 2.531333E-09 1 2.444655E-09 255 125 0 255
-0.125 0.108670056 0.35867006 2.531333E-09 1 2.444655E-09 255 125 0 255
0.125 -0.108670056 -0.108670056 1.331102E-08 -1.387126E-08 -1 255 125 0 255
0.3123402 0.108670056 -0.108670056 1.331102E-08 -1.387126E-08 -1 255 125 0 255
0.34234017 0.108670056 -0.108670056 1.331102E-08 -1.387126E-08 -1 255 125 0 255
0.09499993 -0.108670056 -0.108670056 1.331102E-08 -1.387126E-08 -1 255 125 0 255
-0.125 0.108670056 0.29866996 2.63027E-09 1 2.3456699E-09 255 125 0 255
0.28234002 0.108670056 -0.108670056 2.63027E-09 1 2.3456699E-09 255 125 0 255
-0.34234017 -0.108670056 0.35867006 -0.70710677 0.70710677 -7.3444277E-09 255 125 0 255
-0.125 0.108670056 0.32866988 -0.70710677 0.70710677 -7.3444277E-09 255 125 0 255
-0.34234017 -0.108670056 0.32866988 -0.70710677 0.70710677 -7.3444277E-09 255 125 0 255
-0.125 0.108670056 0.35867006 -0.70710677 0.70710677 -7.3444277E-09 255 125 0 255
0.125 -0.108670056 -0.108670056 -1.749042E-10 -1 -2.615624E-10 255 125 0 255
-0.34234017 -0.108670056 0.32866988 -1.749042E-10 -1 -2.615624E-10 255 125 0 255
0.09499993 -0.108670056 -0.108670056 -1.749042E-10 -1 -2.615624E-10 255 125 0 255
-0.34234017 -0.108670056 0.35867006 -1.749042E-10 -1 -2.615624E-10 255 125 0 255
0.28234002 0.108670056 -0.108670056 1.331102E-08 -1.499175E-08 -1 255 125 0 255
0.06499986 -0.108670056 -0.108670056 1.331102E-08 -1.499175E-08 -1 255 125 0 255
-0.125 0.108670056 0.29866996 -0.70710677 0.70710677 -7.344433E-09 255 125 0 255
-0.34234017 -0.108670056 0.29866996 -0.70710677 0.70710677 -7.344433E-09 255 125 0 255
-0.34234017 -0.108670056 0.29866996 -7.594209E-11 -1 -3.604765E-10 255 125 0 255
0.06499986 -0.108670056 -0.108670056 -7.594209E-11 -1 -3.604765E-10 255 125 0 255
0.125 -0.125 -0.125 -0.57735026 0.57735026 -0.57735026 55 125 0 255
0.34234017 0.108670056 -0.108670056 -0.57735026 0.57735026 -0.57735026 55 125 0 255
0.37499997 0.125 -0.125 -0.57735026 0.57735026 -0.57735026 55 125 0 255
0.125 -0.108670056 -0.108670056 -0.57735026 0.57735026 -0.57735026 55 125 0 255
-0.37499997 -0.125 0.37499997 -0.57735026 0.57735026 -0.57735026 55 125 0 255
-0.34234017 -0.108670056 0.35867006 -0.57735026 0.57735026 -0.57735026 55 125 0 255
-0.125 0.125 0.37499997 -0.57735026 0.57735026 -0.57735026 55 125 0 255
-0.125 0.108670056 0.35867006 -0.57735026 0.57735026 -0.57735026 55 125 0 255
-0.125 0.108670056 0.32866988 0.5773502 -0.5773503 0.5773503 160 160 199 128
0.09499993 -0.108670056 -0.108670056 0.5773502 -0.5773503 0.5773503 160 160 199 128
0.3123402 0.108670056 -0.108670056 0.5773502 -0.5773503 0.5773503 160 160 199 128
-0.34234017 -0.108670056 0.32866988 0.5773502 -0.5773503 0.5773503 160 160 199 128
-0.34234017 -0.108670056 0.35867006 -0.57735026 0.57735026 -0.57735026 160 160 199 128
0.34234017 0.108670056 -0.108670056 -0.57735026 0.57735026 -0.57735026 160 160 199 128
0.125 -0.108670056 -0.108670056 -0.57735026 0.57735026 -0.57735026 160 160 199 128
-0.125 0.108670056 0.35867006 -0.57735026 0.57735026 -0.57735026 160 160 199 128
3 0 1 2
3 1 0 3
3 4 5 6
3 5 4 7
3 5 7 8
3 6 9 10
3 9 6 5
3 10 9 11
3 10 11 8
3 10 8 7
3 12 13 14
3 13 12 15
3 16 17 18
3 17 16 19
3 20 21 22
3 21 20 23
3 24 25 26
3 25 24 27
3 28 29 30
3 29 28 31
3 32 26 33
3 26 32 24
3 34 35 36
3 35 34 37
3 38 39 40
3 39 38 41
3 31 42 29
3 42 31 43
3 36 44 45
3 44 36 35
3 40 46 47
3 46 40 39
3 48 49 50
3 49 48 51
3 51 48 52
3 51 52 53
3 49 54 50
3 54 49 55
3 54 55 53
3 54 53 52

