ply
format ascii 1.0
commentY29udmVydGVyIGJ5IENvZGVMZW9wYXJk
comment Original mesh name: 'C:\Program Files (x86)\Steam\steamapps\common\Stormworks\rom\meshes\component_heater.mesh'
comment SubMesh index: 0
comment SubMesh name: 'ID11'
comment Shader: Opaque (0)
element vertex 332
property float x
property float y
property float z
property float nx
property float ny
property float nz
property uchar red
property uchar green
property uchar blue
property uchar alpha
element face 214
property list uchar ushort vertex_index
end_header
-0.105 -0.26375002 0.105 0 -0 1 86 86 86 255
0.105 -0.28375 0.105 0 -0 1 86 86 86 255
0.105 -0.26375002 0.105 0 -0 1 86 86 86 255
-0.105 -0.28375 0.105 0 -0 1 86 86 86 255
-0.105 -0.28375 0.125 0 1 -0 86 86 86 255
0.105 -0.28375 0.105 0 1 -0 86 86 86 255
-0.105 -0.28375 0.105 0 1 -0 86 86 86 255
0.105 -0.28375 0.125 0 1 -0 86 86 86 255
0.105 -0.26375002 0.125 -1 -0 -0 86 86 86 255
0.105 -0.28375 0.105 -1 -0 -0 86 86 86 255
0.105 -0.28375 0.125 -1 -0 -0 86 86 86 255
0.105 -0.26375002 0.105 -1 -0 -0 86 86 86 255
0.105 -0.26375002 0.125 0 -1 -0 86 86 86 255
-0.105 -0.26375002 0.105 0 -1 -0 86 86 86 255
0.105 -0.26375002 0.105 0 -1 -0 86 86 86 255
-0.105 -0.26375002 0.125 0 -1 -0 86 86 86 255
-0.105 -0.28375 0.125 -1 -0 -0 86 86 86 255
-0.105 -0.35500005 0.105 -1 -0 -0 86 86 86 255
-0.105 -0.35500005 0.125 -1 -0 -0 86 86 86 255
-0.105 -0.28375 0.105 -1 -0 -0 86 86 86 255
-0.105 -0.28375 0.125 0 -0 -1 86 86 86 255
0.105 -0.26375002 0.125 0 -0 -1 86 86 86 255
0.105 -0.28375 0.125 0 -0 -1 86 86 86 255
-0.105 -0.26375002 0.125 0 -0 -1 86 86 86 255
0.105 -0.28375 0.105 1 3.039627E-14 -0 86 86 86 255
0.105 -0.35500005 0.125 1 3.039627E-14 -0 86 86 86 255
0.105 -0.35500005 0.105 1 3.039627E-14 -0 86 86 86 255
0.105 -0.28375 0.125 1 3.039627E-14 -0 86 86 86 255
-0.105 -0.19249998 0.125 -1 -0 -0 86 86 86 255
-0.105 -0.26375002 0.105 -1 -0 -0 86 86 86 255
-0.105 -0.26375002 0.125 -1 -0 -0 86 86 86 255
-0.105 -0.19249998 0.105 -1 -0 -0 86 86 86 255
0.105 -0.19249998 0.105 1 3.039627E-14 -0 86 86 86 255
0.105 -0.26375002 0.125 1 3.039627E-14 -0 86 86 86 255
0.105 -0.26375002 0.105 1 3.039627E-14 -0 86 86 86 255
0.105 -0.19249998 0.125 1 3.039627E-14 -0 86 86 86 255
0.105 -0.35500005 0.125 0 -1 -0 86 86 86 255
-0.105 -0.35500005 0.105 0 -1 -0 86 86 86 255
0.105 -0.35500005 0.105 0 -1 -0 86 86 86 255
-0.105 -0.35500005 0.125 0 -1 -0 86 86 86 255
-0.105 -0.1725 0.125 -1 -0 -0 86 86 86 255
-0.105 -0.1725 0.105 -1 -0 -0 86 86 86 255
-0.105 -0.19249998 0.125 0 1 -0 86 86 86 255
0.105 -0.19249998 0.105 0 1 -0 86 86 86 255
-0.105 -0.19249998 0.105 0 1 -0 86 86 86 255
0.105 -0.19249998 0.125 0 1 -0 86 86 86 255
-0.105 -0.10124998 0.125 -1 -0 -0 86 86 86 255
-0.105 -0.10124998 0.105 -1 -0 -0 86 86 86 255
-0.105 -0.19249998 0.125 0 -0 -1 86 86 86 255
0.105 -0.1725 0.125 0 -0 -1 86 86 86 255
0.105 -0.19249998 0.125 0 -0 -1 86 86 86 255
-0.105 -0.1725 0.125 0 -0 -1 86 86 86 255
0.105 -0.1725 0.125 -1 -0 -0 86 86 86 255
0.105 -0.19249998 0.105 -1 -0 -0 86 86 86 255
0.105 -0.19249998 0.125 -1 -0 -0 86 86 86 255
0.105 -0.1725 0.105 -1 -0 -0 86 86 86 255
-0.105 -0.1725 0.105 0 -0 1 86 86 86 255
0.105 -0.19249998 0.105 0 -0 1 86 86 86 255
0.105 -0.1725 0.105 0 -0 1 86 86 86 255
-0.105 -0.19249998 0.105 0 -0 1 86 86 86 255
-0.105 -0.08125 0.125 -1 -0 -0 86 86 86 255
-0.105 -0.08125 0.105 -1 -0 -0 86 86 86 255
-0.105 -0.10124998 0.125 0 1 -0 86 86 86 255
0.105 -0.10124998 0.105 0 1 -0 86 86 86 255
-0.105 -0.10124998 0.105 0 1 -0 86 86 86 255
0.105 -0.10124998 0.125 0 1 -0 86 86 86 255
0.105 -0.1725 0.125 0 -1 -0 86 86 86 255
-0.105 -0.1725 0.105 0 -1 -0 86 86 86 255
0.105 -0.1725 0.105 0 -1 -0 86 86 86 255
-0.105 -0.1725 0.125 0 -1 -0 86 86 86 255
-0.105 -0.01 0.125 -1 -0 -0 86 86 86 255
-0.105 -0.01 0.105 -1 -0 -0 86 86 86 255
-0.105 -0.10124998 0.125 0 -0 -1 86 86 86 255
0.105 -0.08125 0.125 0 -0 -1 86 86 86 255
0.105 -0.10124998 0.125 0 -0 -1 86 86 86 255
-0.105 -0.08125 0.125 0 -0 -1 86 86 86 255
0.105 -0.10124998 0.105 1 3.039627E-14 -0 86 86 86 255
0.105 -0.1725 0.125 1 3.039627E-14 -0 86 86 86 255
0.105 -0.1725 0.105 1 3.039627E-14 -0 86 86 86 255
0.105 -0.10124998 0.125 1 3.039627E-14 -0 86 86 86 255
0.105 -0.08125 0.125 -1 -0 -0 86 86 86 255
0.105 -0.10124998 0.105 -1 -0 -0 86 86 86 255
0.105 -0.10124998 0.125 -1 -0 -0 86 86 86 255
0.105 -0.08125 0.105 -1 -0 -0 86 86 86 255
-0.105 -0.08125 0.105 0 -0 1 86 86 86 255
0.105 -0.10124998 0.105 0 -0 1 86 86 86 255
0.105 -0.08125 0.105 0 -0 1 86 86 86 255
-0.105 -0.10124998 0.105 0 -0 1 86 86 86 255
0.105 -0.08125 0.125 0 -1 -0 86 86 86 255
-0.105 -0.08125 0.105 0 -1 -0 86 86 86 255
0.105 -0.08125 0.105 0 -1 -0 86 86 86 255
-0.105 -0.08125 0.125 0 -1 -0 86 86 86 255
-0.105 -0.01 0.125 0 1 -0 86 86 86 255
0.105 -0.01 0.105 0 1 -0 86 86 86 255
-0.105 -0.01 0.105 0 1 -0 86 86 86 255
0.105 -0.01 0.125 0 1 -0 86 86 86 255
-0.105 0.01 0.125 -1 -0 -0 86 86 86 255
-0.105 0.01 0.105 -1 -0 -0 86 86 86 255
0.105 -0.01 0.105 1 -0 -0 86 86 86 255
0.105 -0.08125 0.125 1 -0 -0 86 86 86 255
0.105 -0.08125 0.105 1 -0 -0 86 86 86 255
0.105 -0.01 0.125 1 -0 -0 86 86 86 255
-0.105 -0.01 0.125 0 -0 -1 86 86 86 255
0.105 0.01 0.125 0 -0 -1 86 86 86 255
0.105 -0.01 0.125 0 -0 -1 86 86 86 255
-0.105 0.01 0.125 0 -0 -1 86 86 86 255
0.105 0.01 0.125 -1 -0 -0 86 86 86 255
0.105 -0.01 0.105 -1 -0 -0 86 86 86 255
0.105 -0.01 0.125 -1 -0 -0 86 86 86 255
0.105 0.01 0.105 -1 -0 -0 86 86 86 255
-0.105 0.01 0.105 0 -0 1 86 86 86 255
0.105 -0.01 0.105 0 -0 1 86 86 86 255
0.105 0.01 0.105 0 -0 1 86 86 86 255
-0.105 -0.01 0.105 0 -0 1 86 86 86 255
-0.105 0.08125 0.125 -1 -0 -0 86 86 86 255
-0.105 0.08125 0.105 -1 -0 -0 86 86 86 255
0.105 0.01 0.125 0 -1 -0 86 86 86 255
-0.105 0.01 0.105 0 -1 -0 86 86 86 255
0.105 0.01 0.105 0 -1 -0 86 86 86 255
-0.105 0.01 0.125 0 -1 -0 86 86 86 255
-0.105 0.10124998 0.125 -1 -0 -0 86 86 86 255
-0.105 0.10124998 0.105 -1 -0 -0 86 86 86 255
-0.105 0.08125 0.125 0 1 -0 86 86 86 255
0.105 0.08125 0.105 0 1 -0 86 86 86 255
-0.105 0.08125 0.105 0 1 -0 86 86 86 255
0.105 0.08125 0.125 0 1 -0 86 86 86 255
0.105 0.08125 0.105 1 -6.079254E-14 -0 86 86 86 255
0.105 0.01 0.125 1 -6.079254E-14 -0 86 86 86 255
0.105 0.01 0.105 1 -6.079254E-14 -0 86 86 86 255
0.105 0.08125 0.125 1 -6.079254E-14 -0 86 86 86 255
-0.105 0.1725 0.125 -1 -0 -0 86 86 86 255
-0.105 0.1725 0.105 -1 -0 -0 86 86 86 255
-0.105 0.08125 0.125 0 -0 -1 86 86 86 255
0.105 0.10124998 0.125 0 -0 -1 86 86 86 255
0.105 0.08125 0.125 0 -0 -1 86 86 86 255
-0.105 0.10124998 0.125 0 -0 -1 86 86 86 255
0.105 0.10124998 0.125 -1 -0 -0 86 86 86 255
0.105 0.08125 0.105 -1 -0 -0 86 86 86 255
0.105 0.08125 0.125 -1 -0 -0 86 86 86 255
0.105 0.10124998 0.105 -1 -0 -0 86 86 86 255
-0.105 0.10124998 0.105 0 -0 1 86 86 86 255
0.105 0.08125 0.105 0 -0 1 86 86 86 255
0.105 0.10124998 0.105 0 -0 1 86 86 86 255
-0.105 0.08125 0.105 0 -0 1 86 86 86 255
0.105 0.10124998 0.125 0 -1 -0 86 86 86 255
-0.105 0.10124998 0.105 0 -1 -0 86 86 86 255
0.105 0.10124998 0.105 0 -1 -0 86 86 86 255
-0.105 0.10124998 0.125 0 -1 -0 86 86 86 255
-0.105 0.1725 0.125 0 1 -0 86 86 86 255
0.105 0.1725 0.105 0 1 -0 86 86 86 255
-0.105 0.1725 0.105 0 1 -0 86 86 86 255
0.105 0.1725 0.125 0 1 -0 86 86 86 255
-0.105 0.19249998 0.125 -1 -0 -0 86 86 86 255
-0.105 0.19249998 0.105 -1 -0 -0 86 86 86 255
0.105 0.1725 0.105 1 5.0660448E-14 -0 86 86 86 255
0.105 0.10124998 0.125 1 5.0660448E-14 -0 86 86 86 255
0.105 0.10124998 0.105 1 5.0660448E-14 -0 86 86 86 255
0.105 0.1725 0.125 1 5.0660448E-14 -0 86 86 86 255
-0.105 0.1725 0.125 0 -0 -1 86 86 86 255
0.105 0.19249998 0.125 0 -0 -1 86 86 86 255
0.105 0.1725 0.125 0 -0 -1 86 86 86 255
-0.105 0.19249998 0.125 0 -0 -1 86 86 86 255
0.105 0.19249998 0.125 -1 -0 -0 86 86 86 255
0.105 0.1725 0.105 -1 -0 -0 86 86 86 255
0.105 0.1725 0.125 -1 -0 -0 86 86 86 255
0.105 0.19249998 0.105 -1 -0 -0 86 86 86 255
-0.105 0.19249998 0.105 0 -0 1 86 86 86 255
0.105 0.1725 0.105 0 -0 1 86 86 86 255
0.105 0.19249998 0.105 0 -0 1 86 86 86 255
-0.105 0.1725 0.105 0 -0 1 86 86 86 255
-0.105 0.26375002 0.125 -1 -0 -0 86 86 86 255
-0.105 0.26375002 0.105 -1 -0 -0 86 86 86 255
0.105 0.19249998 0.125 0 -1 -0 86 86 86 255
-0.105 0.19249998 0.105 0 -1 -0 86 86 86 255
0.105 0.19249998 0.105 0 -1 -0 86 86 86 255
-0.105 0.19249998 0.125 0 -1 -0 86 86 86 255
-0.105 0.28375 0.125 -1 -0 -0 86 86 86 255
-0.105 0.28375 0.105 -1 -0 -0 86 86 86 255
-0.105 0.26375002 0.125 0 1 -0 86 86 86 255
0.105 0.26375002 0.105 0 1 -0 86 86 86 255
-0.105 0.26375002 0.105 0 1 -0 86 86 86 255
0.105 0.26375002 0.125 0 1 -0 86 86 86 255
0.105 0.26375002 0.105 1 -3.039627E-14 -0 86 86 86 255
0.105 0.19249998 0.125 1 -3.039627E-14 -0 86 86 86 255
0.105 0.19249998 0.105 1 -3.039627E-14 -0 86 86 86 255
0.105 0.26375002 0.125 1 -3.039627E-14 -0 86 86 86 255
-0.105 0.35500005 0.125 -1 -0 -0 86 86 86 255
-0.105 0.35500005 0.105 -1 -0 -0 86 86 86 255
-0.105 0.26375002 0.125 0 -0 -1 86 86 86 255
0.105 0.28375 0.125 0 -0 -1 86 86 86 255
0.105 0.26375002 0.125 0 -0 -1 86 86 86 255
-0.105 0.28375 0.125 0 -0 -1 86 86 86 255
0.105 0.28375 0.125 -1 -0 -0 86 86 86 255
0.105 0.26375002 0.105 -1 -0 -0 86 86 86 255
0.105 0.26375002 0.125 -1 -0 -0 86 86 86 255
0.105 0.28375 0.105 -1 -0 -0 86 86 86 255
-0.105 0.28375 0.105 0 -0 1 86 86 86 255
0.105 0.26375002 0.105 0 -0 1 86 86 86 255
0.105 0.28375 0.105 0 -0 1 86 86 86 255
-0.105 0.26375002 0.105 0 -0 1 86 86 86 255
0.105 0.28375 0.125 0 -1 -0 86 86 86 255
-0.105 0.28375 0.105 0 -1 -0 86 86 86 255
0.105 0.28375 0.105 0 -1 -0 86 86 86 255
-0.105 0.28375 0.125 0 -1 -0 86 86 86 255
-0.105 0.35500005 0.125 0 1 -0 86 86 86 255
0.105 0.35500005 0.105 0 1 -0 86 86 86 255
-0.105 0.35500005 0.105 0 1 -0 86 86 86 255
0.105 0.35500005 0.125 0 1 -0 86 86 86 255
0.105 0.35500005 0.105 1 -5.0660448E-14 -0 86 86 86 255
0.105 0.28375 0.125 1 -5.0660448E-14 -0 86 86 86 255
0.105 0.28375 0.105 1 -5.0660448E-14 -0 86 86 86 255
0.105 0.35500005 0.125 1 -5.0660448E-14 -0 86 86 86 255
0.105 -0.19249998 0.125 0 -0 -1 86 86 86 255
0.105 0.08125 0.125 0 -0 -1 86 86 86 255
0.105 -0.26375002 0.125 0 -0 -1 86 86 86 255
0.105 -0.1725 0.125 0 -0 -1 86 86 86 255
0.105 0.01 0.125 0 -0 -1 86 86 86 255
0.105 -0.10124998 0.125 0 -0 -1 86 86 86 255
0.105 -0.08125 0.125 0 -0 -1 86 86 86 255
0.105 -0.01 0.125 0 -0 -1 86 86 86 255
0.105 0.1725 0.125 0 -0 -1 86 86 86 255
0.105 0.26375002 0.125 0 -0 -1 86 86 86 255
0.105 0.10124998 0.125 0 -0 -1 86 86 86 255
0.105 0.19249998 0.125 0 -0 -1 86 86 86 255
0.105 -0.28375 0.125 0 -0 -1 86 86 86 255
0.105 0.35500005 0.125 0 -0 -1 86 86 86 255
0.105 -0.35500005 0.125 0 -0 -1 86 86 86 255
0.105 0.28375 0.125 0 -0 -1 86 86 86 255
0.125 -0.37499997 0.125 0 -0 -1 86 86 86 255
0.125 0.37499997 0.125 0 -0 -1 86 86 86 255
-0.125 -0.37499997 0.125 0 -0 -1 86 86 86 255
-0.105 -0.35500005 0.125 0 -0 -1 86 86 86 255
-0.105 -0.28375 0.125 0 -0 -1 86 86 86 255
-0.105 -0.26375002 0.125 0 -0 -1 86 86 86 255
-0.105 -0.19249998 0.125 0 -0 -1 86 86 86 255
-0.105 -0.1725 0.125 0 -0 -1 86 86 86 255
-0.105 -0.10124998 0.125 0 -0 -1 86 86 86 255
-0.105 -0.08125 0.125 0 -0 -1 86 86 86 255
-0.105 -0.01 0.125 0 -0 -1 86 86 86 255
-0.105 0.01 0.125 0 -0 -1 86 86 86 255
-0.105 0.08125 0.125 0 -0 -1 86 86 86 255
-0.105 0.10124998 0.125 0 -0 -1 86 86 86 255
-0.105 0.1725 0.125 0 -0 -1 86 86 86 255
-0.105 0.19249998 0.125 0 -0 -1 86 86 86 255
-0.105 0.26375002 0.125 0 -0 -1 86 86 86 255
-0.105 0.28375 0.125 0 -0 -1 86 86 86 255
-0.105 0.35500005 0.125 0 -0 -1 86 86 86 255
-0.125 0.37499997 0.125 0 -0 -1 86 86 86 255
0.05093551 -0.30341846 0.024999999 0.8285388 4.8162743E-16 -0.5599317 199 199 199 255
0.105 -0.28375 0.105 0.8285388 4.8162743E-16 -0.5599317 199 199 199 255
0.105 -0.35500005 0.105 0.8285388 4.8162743E-16 -0.5599317 199 199 199 255
0.05093551 0.30341846 0.024999999 0.8285388 4.8162743E-16 -0.5599317 199 199 199 255
0.105 -0.26375002 0.105 0.8285388 4.8162743E-16 -0.5599317 199 199 199 255
0.105 -0.19249998 0.105 0.8285388 4.8162743E-16 -0.5599317 199 199 199 255
0.105 -0.1725 0.105 0.8285388 4.8162743E-16 -0.5599317 199 199 199 255
0.105 -0.10124998 0.105 0.8285388 4.8162743E-16 -0.5599317 199 199 199 255
0.105 -0.08125 0.105 0.8285388 4.8162743E-16 -0.5599317 199 199 199 255
0.105 -0.01 0.105 0.8285388 4.8162743E-16 -0.5599317 199 199 199 255
0.105 0.01 0.105 0.8285388 4.8162743E-16 -0.5599317 199 199 199 255
0.105 0.08125 0.105 0.8285388 4.8162743E-16 -0.5599317 199 199 199 255
0.105 0.10124998 0.105 0.8285388 4.8162743E-16 -0.5599317 199 199 199 255
0.105 0.1725 0.105 0.8285388 4.8162743E-16 -0.5599317 199 199 199 255
0.105 0.19249998 0.105 0.8285388 4.8162743E-16 -0.5599317 199 199 199 255
0.105 0.26375002 0.105 0.8285388 4.8162743E-16 -0.5599317 199 199 199 255
0.105 0.28375 0.105 0.8285388 4.8162743E-16 -0.5599317 199 199 199 255
0.105 0.35500005 0.105 0.8285388 4.8162743E-16 -0.5599317 199 199 199 255
0.105 -0.35500005 0.105 -1.0667729E-17 -0.8404469 -0.5418939 199 199 199 255
-0.05093551 -0.30341846 0.024999999 -1.0667729E-17 -0.8404469 -0.5418939 199 199 199 255
0.05093551 -0.30341846 0.024999999 -1.0667729E-17 -0.8404469 -0.5418939 199 199 199 255
-0.105 -0.35500005 0.105 -1.0667729E-17 -0.8404469 -0.5418939 199 199 199 255
-0.05093551 -0.30341846 0.024999999 0 -0 -1 199 199 199 255
0.05093551 0.30341846 0.024999999 0 -0 -1 199 199 199 255
0.05093551 -0.30341846 0.024999999 0 -0 -1 199 199 199 255
-0.05093551 0.30341846 0.024999999 0 -0 -1 199 199 199 255
-0.105 0.35500005 0.105 1.841224E-17 0.8404469 -0.5418939 199 199 199 255
0.05093551 0.30341846 0.024999999 1.841224E-17 0.8404469 -0.5418939 199 199 199 255
-0.05093551 0.30341846 0.024999999 1.841224E-17 0.8404469 -0.5418939 199 199 199 255
0.105 0.35500005 0.105 1.841224E-17 0.8404469 -0.5418939 199 199 199 255
-0.105 -0.28375 0.105 -0.8285388 2.0264432E-18 -0.5599317 199 199 199 255
-0.05093551 -0.30341846 0.024999999 -0.8285388 2.0264432E-18 -0.5599317 199 199 199 255
-0.105 -0.35500005 0.105 -0.8285388 2.0264432E-18 -0.5599317 199 199 199 255
-0.05093551 0.30341846 0.024999999 -0.8285388 2.0264432E-18 -0.5599317 199 199 199 255
-0.105 -0.26375002 0.105 -0.8285388 2.0264432E-18 -0.5599317 199 199 199 255
-0.105 -0.19249998 0.105 -0.8285388 2.0264432E-18 -0.5599317 199 199 199 255
-0.105 -0.1725 0.105 -0.8285388 2.0264432E-18 -0.5599317 199 199 199 255
-0.105 -0.10124998 0.105 -0.8285388 2.0264432E-18 -0.5599317 199 199 199 255
-0.105 -0.08125 0.105 -0.8285388 2.0264432E-18 -0.5599317 199 199 199 255
-0.105 -0.01 0.105 -0.8285388 2.0264432E-18 -0.5599317 199 199 199 255
-0.105 0.01 0.105 -0.8285388 2.0264432E-18 -0.5599317 199 199 199 255
-0.105 0.08125 0.105 -0.8285388 2.0264432E-18 -0.5599317 199 199 199 255
-0.105 0.10124998 0.105 -0.8285388 2.0264432E-18 -0.5599317 199 199 199 255
-0.105 0.1725 0.105 -0.8285388 2.0264432E-18 -0.5599317 199 199 199 255
-0.105 0.19249998 0.105 -0.8285388 2.0264432E-18 -0.5599317 199 199 199 255
-0.105 0.26375002 0.105 -0.8285388 2.0264432E-18 -0.5599317 199 199 199 255
-0.105 0.28375 0.105 -0.8285388 2.0264432E-18 -0.5599317 199 199 199 255
-0.105 0.35500005 0.105 -0.8285388 2.0264432E-18 -0.5599317 199 199 199 255
-0.015999993 0.26341832 0.02957436 0 -0 1 86 86 86 255
0.01600001 -0.26341853 0.02957436 0 -0 1 86 86 86 255
0.01600001 0.26341832 0.02957436 0 -0 1 86 86 86 255
-0.015999993 -0.26341853 0.02957436 0 -0 1 86 86 86 255
0.032000013 0.26341832 0.057287183 0 -1 -0 86 86 86 255
-0.015999993 0.26341832 0.02957436 0 -1 -0 86 86 86 255
0.01600001 0.26341832 0.02957436 0 -1 -0 86 86 86 255
-0.031999987 0.26341832 0.057287183 0 -1 -0 86 86 86 255
0.01600001 0.26341832 0.08499997 0 -1 -0 86 86 86 255
-0.015999993 0.26341832 0.08499997 0 -1 -0 86 86 86 255
-0.015999993 0.26341832 0.02957436 0.8660254 -0 0.5 86 86 86 255
-0.031999987 -0.26341853 0.057287183 0.8660254 -0 0.5 86 86 86 255
-0.015999993 -0.26341853 0.02957436 0.8660254 -0 0.5 86 86 86 255
-0.031999987 0.26341832 0.057287183 0.8660254 -0 0.5 86 86 86 255
-0.031999987 -0.26341853 0.057287183 0 1 -0 86 86 86 255
0.01600001 -0.26341853 0.02957436 0 1 -0 86 86 86 255
-0.015999993 -0.26341853 0.02957436 0 1 -0 86 86 86 255
0.032000013 -0.26341853 0.057287183 0 1 -0 86 86 86 255
-0.015999993 -0.26341853 0.08499997 0 1 -0 86 86 86 255
0.01600001 -0.26341853 0.08499997 0 1 -0 86 86 86 255
0.032000013 0.26341832 0.057287183 -0.8660254 -0 0.5 86 86 86 255
0.01600001 -0.26341853 0.02957436 -0.8660254 -0 0.5 86 86 86 255
0.032000013 -0.26341853 0.057287183 -0.8660254 -0 0.5 86 86 86 255
0.01600001 0.26341832 0.02957436 -0.8660254 -0 0.5 86 86 86 255
-0.015999993 -0.26341853 0.08499997 0 -0 -1 86 86 86 255
0.01600001 0.26341832 0.08499997 0 -0 -1 86 86 86 255
0.01600001 -0.26341853 0.08499997 0 -0 -1 86 86 86 255
-0.015999993 0.26341832 0.08499997 0 -0 -1 86 86 86 255
-0.031999987 0.26341832 0.057287183 0.8660254 -0 -0.5 86 86 86 255
-0.015999993 -0.26341853 0.08499997 0.8660254 -0 -0.5 86 86 86 255
-0.031999987 -0.26341853 0.057287183 0.8660254 -0 -0.5 86 86 86 255
-0.015999993 0.26341832 0.08499997 0.8660254 -0 -0.5 86 86 86 255
0.01600001 0.26341832 0.08499997 -0.8660254 -0 -0.5 86 86 86 255
0.032000013 -0.26341853 0.057287183 -0.8660254 -0 -0.5 86 86 86 255
0.01600001 -0.26341853 0.08499997 -0.8660254 -0 -0.5 86 86 86 255
0.032000013 0.26341832 0.057287183 -0.8660254 -0 -0.5 86 86 86 255
3 0 1 2
3 1 0 3
3 4 5 6
3 5 4 7
3 8 9 10
3 9 8 11
3 12 13 14
3 13 12 15
3 16 17 18
3 17 16 19
3 20 21 22
3 21 20 23
3 24 25 26
3 25 24 27
3 28 29 30
3 29 28 31
3 32 33 34
3 33 32 35
3 30 19 16
3 19 30 29
3 36 37 38
3 37 36 39
3 40 31 28
3 31 40 41
3 42 43 44
3 43 42 45
3 46 41 40
3 41 46 47
3 48 49 50
3 49 48 51
3 52 53 54
3 53 52 55
3 56 57 58
3 57 56 59
3 60 47 46
3 47 60 61
3 62 63 64
3 63 62 65
3 66 67 68
3 67 66 69
3 70 61 60
3 61 70 71
3 72 73 74
3 73 72 75
3 76 77 78
3 77 76 79
3 80 81 82
3 81 80 83
3 84 85 86
3 85 84 87
3 88 89 90
3 89 88 91
3 92 93 94
3 93 92 95
3 96 71 70
3 71 96 97
3 98 99 100
3 99 98 101
3 102 103 104
3 103 102 105
3 106 107 108
3 107 106 109
3 110 111 112
3 111 110 113
3 114 97 96
3 97 114 115
3 116 117 118
3 117 116 119
3 120 115 114
3 115 120 121
3 122 123 124
3 123 122 125
3 126 127 128
3 127 126 129
3 130 121 120
3 121 130 131
3 132 133 134
3 133 132 135
3 136 137 138
3 137 136 139
3 140 141 142
3 141 140 143
3 144 145 146
3 145 144 147
3 148 149 150
3 149 148 151
3 152 131 130
3 131 152 153
3 154 155 156
3 155 154 157
3 158 159 160
3 159 158 161
3 162 163 164
3 163 162 165
3 166 167 168
3 167 166 169
3 170 153 152
3 153 170 171
3 172 173 174
3 173 172 175
3 176 171 170
3 171 176 177
3 178 179 180
3 179 178 181
3 182 183 184
3 183 182 185
3 186 177 176
3 177 186 187
3 188 189 190
3 189 188 191
3 192 193 194
3 193 192 195
3 196 197 198
3 197 196 199
3 200 201 202
3 201 200 203
3 204 205 206
3 205 204 207
3 208 209 210
3 209 208 211
3 212 213 214
3 213 212 215
3 213 215 216
3 216 215 217
3 216 217 218
3 216 218 219
3 220 221 222
3 221 220 223
3 224 225 226
3 225 224 222
3 225 222 227
3 222 224 214
3 222 214 213
3 227 222 221
3 228 226 229
3 226 228 230
3 226 230 231
3 231 230 232
3 232 230 233
3 233 230 234
3 234 230 235
3 235 230 236
3 236 230 237
3 237 230 238
3 238 230 239
3 239 230 240
3 240 230 241
3 241 230 242
3 242 230 243
3 243 230 244
3 244 230 245
3 245 230 246
3 229 225 247
3 225 229 226
3 247 225 246
3 247 246 230
3 248 249 250
3 249 248 251
3 249 251 252
3 252 251 253
3 253 251 254
3 254 251 255
3 255 251 256
3 256 251 257
3 257 251 258
3 258 251 259
3 259 251 260
3 260 251 261
3 261 251 262
3 262 251 263
3 263 251 264
3 264 251 265
3 266 267 268
3 267 266 269
3 270 271 272
3 271 270 273
3 274 275 276
3 275 274 277
3 278 279 280
3 279 278 281
3 281 278 282
3 281 282 283
3 281 283 284
3 281 284 285
3 281 285 286
3 281 286 287
3 281 287 288
3 281 288 289
3 281 289 290
3 281 290 291
3 281 291 292
3 281 292 293
3 281 293 294
3 281 294 295
3 296 297 298
3 297 296 299
3 300 301 302
3 301 300 303
3 303 300 304
3 303 304 305
3 306 307 308
3 307 306 309
3 310 311 312
3 311 310 313
3 313 310 314
3 313 314 315
3 316 317 318
3 317 316 319
3 320 321 322
3 321 320 323
3 324 325 326
3 325 324 327
3 328 329 330
3 329 328 331

