ply
format ascii 1.0
commentY29udmVydGVyIGJ5IENvZGVMZW9wYXJk
comment Original mesh name: 'C:\Program Files (x86)\Steam\steamapps\common\Stormworks\rom\meshes\component_air_intake.mesh'
comment SubMesh index: 0
comment SubMesh name: 'ID76'
comment Shader: Opaque (0)
element vertex 259
property float x
property float y
property float z
property float nx
property float ny
property float nz
property uchar red
property uchar green
property uchar blue
property uchar alpha
element face 165
property list uchar ushort vertex_index
end_header
-0.027176628 -0.11237046 0.01690965 -1.2789598E-08 -0.51313215 -0.85830957 255 255 255 255
0.027176628 0.125 -0.125 -1.2789598E-08 -0.51313215 -0.85830957 255 255 255 255
0.027176628 -0.11237046 0.01690965 -1.2789598E-08 -0.51313215 -0.85830957 255 255 255 255
-0.027176628 0.125 -0.125 -1.2789598E-08 -0.51313215 -0.85830957 255 255 255 255
-0.034172624 0.08250001 -0.105 -2.6656683E-28 -8.336421E-16 1 86 86 86 255
-0.025888335 0.0625 -0.105 -2.6656683E-28 -8.336421E-16 1 86 86 86 255
0.025888335 0.0625 -0.105 -2.6656683E-28 -8.336421E-16 1 86 86 86 255
-0.08250001 0.034172624 -0.105 -2.6656683E-28 -8.336421E-16 1 86 86 86 255
-0.0625 0.025888335 -0.105 -2.6656683E-28 -8.336421E-16 1 86 86 86 255
-0.08250001 -0.034172613 -0.105 -2.6656683E-28 -8.336421E-16 1 86 86 86 255
-0.0625 -0.025888335 -0.105 -2.6656683E-28 -8.336421E-16 1 86 86 86 255
-0.025888335 -0.062499985 -0.105 -2.6656683E-28 -8.336421E-16 1 86 86 86 255
-0.034172624 -0.08249997 -0.105 -2.6656683E-28 -8.336421E-16 1 86 86 86 255
0.034172613 -0.08249997 -0.105 -2.6656683E-28 -8.336421E-16 1 86 86 86 255
0.034172613 0.08250001 -0.105 -2.6656683E-28 -8.336421E-16 1 86 86 86 255
0.08249997 0.034172624 -0.105 -2.6656683E-28 -8.336421E-16 1 86 86 86 255
0.062499985 0.025888335 -0.105 -2.6656683E-28 -8.336421E-16 1 86 86 86 255
0.08249997 -0.034172613 -0.105 -2.6656683E-28 -8.336421E-16 1 86 86 86 255
0.062499985 -0.025888335 -0.105 -2.6656683E-28 -8.336421E-16 1 86 86 86 255
0.025888335 -0.062499985 -0.105 -2.6656683E-28 -8.336421E-16 1 86 86 86 255
0.08249997 -0.034172613 -0.105 1 -4.0378527E-13 -0 86 86 86 255
0.08249997 0.034172624 -0.125 1 -4.0378527E-13 -0 86 86 86 255
0.08249997 0.034172624 -0.105 1 -4.0378527E-13 -0 86 86 86 255
0.08249997 -0.034172613 -0.125 1 -4.0378527E-13 -0 86 86 86 255
0.08249997 0.034172624 -0.125 0.70710677 0.70710677 5.8947394E-16 86 86 86 255
0.034172613 0.08250001 -0.105 0.70710677 0.70710677 5.8947394E-16 86 86 86 255
0.08249997 0.034172624 -0.105 0.70710677 0.70710677 5.8947394E-16 86 86 86 255
0.034172613 0.08250001 -0.125 0.70710677 0.70710677 5.8947394E-16 86 86 86 255
0.034172613 0.08250001 -0.105 4.0378527E-13 1 8.336421E-16 86 86 86 255
-0.034172624 0.08250001 -0.125 4.0378527E-13 1 8.336421E-16 86 86 86 255
-0.034172624 0.08250001 -0.105 4.0378527E-13 1 8.336421E-16 86 86 86 255
0.034172613 0.08250001 -0.125 4.0378527E-13 1 8.336421E-16 86 86 86 255
-0.034172624 0.08250001 -0.125 -0.70710677 0.70710677 5.8947394E-16 86 86 86 255
-0.08250001 0.034172624 -0.105 -0.70710677 0.70710677 5.8947394E-16 86 86 86 255
-0.034172624 0.08250001 -0.105 -0.70710677 0.70710677 5.8947394E-16 86 86 86 255
-0.08250001 0.034172624 -0.125 -0.70710677 0.70710677 5.8947394E-16 86 86 86 255
-0.08250001 0.034172624 -0.125 -1 4.0378527E-13 -0 86 86 86 255
-0.08250001 -0.034172613 -0.105 -1 4.0378527E-13 -0 86 86 86 255
-0.08250001 0.034172624 -0.105 -1 4.0378527E-13 -0 86 86 86 255
-0.08250001 -0.034172613 -0.125 -1 4.0378527E-13 -0 86 86 86 255
-0.08250001 -0.034172613 -0.125 -0.70710677 -0.70710677 -5.8947394E-16 86 86 86 255
-0.034172624 -0.08249997 -0.105 -0.70710677 -0.70710677 -5.8947394E-16 86 86 86 255
-0.08250001 -0.034172613 -0.105 -0.70710677 -0.70710677 -5.8947394E-16 86 86 86 255
-0.034172624 -0.08249997 -0.125 -0.70710677 -0.70710677 -5.8947394E-16 86 86 86 255
-0.034172624 -0.08249997 -0.125 -4.0774627E-13 -1 -8.336421E-16 86 86 86 255
0.034172613 -0.08249997 -0.105 -4.0774627E-13 -1 -8.336421E-16 86 86 86 255
-0.034172624 -0.08249997 -0.105 -4.0774627E-13 -1 -8.336421E-16 86 86 86 255
0.034172613 -0.08249997 -0.125 -4.0774627E-13 -1 -8.336421E-16 86 86 86 255
0.034172613 -0.08249997 -0.105 0.70710677 -0.70710677 -5.8947394E-16 86 86 86 255
0.08249997 -0.034172613 -0.125 0.70710677 -0.70710677 -5.8947394E-16 86 86 86 255
0.08249997 -0.034172613 -0.105 0.70710677 -0.70710677 -5.8947394E-16 86 86 86 255
0.034172613 -0.08249997 -0.125 0.70710677 -0.70710677 -5.8947394E-16 86 86 86 255
-0.025888335 0.0625 -0.125 -4.0378527E-13 -1 -8.336421E-16 86 86 86 255
0.025888335 0.0625 -0.105 -4.0378527E-13 -1 -8.336421E-16 86 86 86 255
-0.025888335 0.0625 -0.105 -4.0378527E-13 -1 -8.336421E-16 86 86 86 255
0.025888335 0.0625 -0.125 -4.0378527E-13 -1 -8.336421E-16 86 86 86 255
0.025888335 0.0625 -0.125 -0.70710677 -0.70710677 -5.8947394E-16 86 86 86 255
0.062499985 0.025888335 -0.105 -0.70710677 -0.70710677 -5.8947394E-16 86 86 86 255
0.025888335 0.0625 -0.105 -0.70710677 -0.70710677 -5.8947394E-16 86 86 86 255
0.062499985 0.025888335 -0.125 -0.70710677 -0.70710677 -5.8947394E-16 86 86 86 255
-0.0625 0.025888335 -0.105 0.70710677 -0.70710677 -5.8947394E-16 86 86 86 255
-0.025888335 0.0625 -0.125 0.70710677 -0.70710677 -5.8947394E-16 86 86 86 255
-0.025888335 0.0625 -0.105 0.70710677 -0.70710677 -5.8947394E-16 86 86 86 255
-0.0625 0.025888335 -0.125 0.70710677 -0.70710677 -5.8947394E-16 86 86 86 255
0.062499985 0.025888335 -0.105 -1 4.0378527E-13 -0 86 86 86 255
0.062499985 -0.025888335 -0.125 -1 4.0378527E-13 -0 86 86 86 255
0.062499985 -0.025888335 -0.105 -1 4.0378527E-13 -0 86 86 86 255
0.062499985 0.025888335 -0.125 -1 4.0378527E-13 -0 86 86 86 255
-0.0625 -0.025888335 -0.125 1 -4.0378527E-13 -0 86 86 86 255
-0.0625 0.025888335 -0.105 1 -4.0378527E-13 -0 86 86 86 255
-0.0625 -0.025888335 -0.105 1 -4.0378527E-13 -0 86 86 86 255
-0.0625 0.025888335 -0.125 1 -4.0378527E-13 -0 86 86 86 255
0.062499985 -0.025888335 -0.105 -0.70710677 0.70710677 5.8947394E-16 86 86 86 255
0.025888335 -0.062499985 -0.125 -0.70710677 0.70710677 5.8947394E-16 86 86 86 255
0.025888335 -0.062499985 -0.105 -0.70710677 0.70710677 5.8947394E-16 86 86 86 255
0.062499985 -0.025888335 -0.125 -0.70710677 0.70710677 5.8947394E-16 86 86 86 255
-0.025888335 -0.062499985 -0.125 0.70710677 0.70710677 5.8947394E-16 86 86 86 255
-0.0625 -0.025888335 -0.105 0.70710677 0.70710677 5.8947394E-16 86 86 86 255
-0.025888335 -0.062499985 -0.105 0.70710677 0.70710677 5.8947394E-16 86 86 86 255
-0.0625 -0.025888335 -0.125 0.70710677 0.70710677 5.8947394E-16 86 86 86 255
0.025888335 -0.062499985 -0.105 4.0727095E-13 1 8.336421E-16 86 86 86 255
-0.025888335 -0.062499985 -0.125 4.0727095E-13 1 8.336421E-16 86 86 86 255
-0.025888335 -0.062499985 -0.105 4.0727095E-13 1 8.336421E-16 86 86 86 255
0.025888335 -0.062499985 -0.125 4.0727095E-13 1 8.336421E-16 86 86 86 255
-0.125 0.125 -0.125 2.734513E-16 -1.734723E-16 1 255 125 0 255
-0.034172624 0.08250001 -0.125 2.734513E-16 -1.734723E-16 1 255 125 0 255
0.125 0.125 -0.125 2.734513E-16 -1.734723E-16 1 255 125 0 255
-0.08250001 0.034172624 -0.125 2.734513E-16 -1.734723E-16 1 255 125 0 255
-0.125 -0.125 -0.125 2.734513E-16 -1.734723E-16 1 255 125 0 255
0.034172613 0.08250001 -0.125 2.734513E-16 -1.734723E-16 1 255 125 0 255
-0.08250001 -0.034172613 -0.125 2.734513E-16 -1.734723E-16 1 255 125 0 255
-0.034172624 -0.08249997 -0.125 2.734513E-16 -1.734723E-16 1 255 125 0 255
0.08249997 0.034172624 -0.125 2.734513E-16 -1.734723E-16 1 255 125 0 255
0.125 -0.125 -0.125 2.734513E-16 -1.734723E-16 1 255 125 0 255
0.08249997 -0.034172613 -0.125 2.734513E-16 -1.734723E-16 1 255 125 0 255
0.034172613 -0.08249997 -0.125 2.734513E-16 -1.734723E-16 1 255 125 0 255
-0.37499997 -0.11633474 -0.027634334 0.3412387 0.9362761 -0.08332576 255 125 0 255
-0.35450143 -0.12499997 -0.041053943 0.3412387 0.9362761 -0.08332576 255 125 0 255
-0.37499997 -0.12499997 -0.125 0.3412387 0.9362761 -0.08332576 255 125 0 255
-0.37499997 0.125 -0.125 1 3.394169E-14 -1.4901061E-08 255 125 0 255
-0.37499997 -0.11633474 -0.027634334 1 3.394169E-14 -1.4901061E-08 255 125 0 255
-0.37499997 -0.12499997 -0.125 1 3.394169E-14 -1.4901061E-08 255 125 0 255
-0.37499997 0.125 0.3461136 1 3.394169E-14 -1.4901061E-08 255 125 0 255
-0.35450143 -0.12499997 -0.041053943 -3.4475928E-14 1 -2.6112448E-13 255 125 0 255
0.37499997 -0.12499997 -0.125 -3.4475928E-14 1 -2.6112448E-13 255 125 0 255
-0.37499997 -0.12499997 -0.125 -3.4475928E-14 1 -2.6112448E-13 255 125 0 255
0.35450143 -0.12499997 -0.041053966 -3.4475928E-14 1 -2.6112448E-13 255 125 0 255
-0.32532343 0.125 0.37499997 1.1696319E-13 -1 4.2919037E-14 255 125 0 255
-0.37499997 0.125 -0.125 1.1696319E-13 -1 4.2919037E-14 255 125 0 255
-0.32532343 0.125 -0.125 1.1696319E-13 -1 4.2919037E-14 255 125 0 255
-0.37499997 0.125 0.3461136 1.1696319E-13 -1 4.2919037E-14 255 125 0 255
-0.37499997 0.125 0.37499997 1.1696319E-13 -1 4.2919037E-14 255 125 0 255
0.37499997 -0.11637045 -0.028035682 -0.3412387 0.9362761 -0.0833258 255 125 0 255
0.37499997 -0.12499997 -0.125 -0.3412387 0.9362761 -0.0833258 255 125 0 255
0.35450143 -0.12499997 -0.041053966 -0.3412387 0.9362761 -0.0833258 255 125 0 255
-0.32532343 0.125 0.37499997 -1 -9.0793035E-14 1.4901061E-08 255 125 0 255
-0.32532343 0.125 -0.125 -1 -9.0793035E-14 1.4901061E-08 255 125 0 255
-0.32532343 -0.11237046 0.016909655 -1 -9.0793035E-14 1.4901061E-08 255 125 0 255
-0.34500003 -0.12499997 -0.002142897 -8.233086E-09 0.8335046 -0.5525125 255 125 0 255
0.37499997 -0.11237046 0.016909646 -8.233086E-09 0.8335046 -0.5525125 255 125 0 255
0.34500003 -0.12499997 -0.0021429074 -8.233086E-09 0.8335046 -0.5525125 255 125 0 255
0.1996766 -0.11237046 0.016909648 -8.233086E-09 0.8335046 -0.5525125 255 125 0 255
-0.19967663 -0.11237046 0.016909653 -8.233086E-09 0.8335046 -0.5525125 255 125 0 255
-0.32532343 -0.11237046 0.016909655 -8.233086E-09 0.8335046 -0.5525125 255 125 0 255
-0.37499997 -0.11237046 0.016909655 -8.233086E-09 0.8335046 -0.5525125 255 125 0 255
0.32532343 -0.11237046 0.016909646 -8.233086E-09 0.8335046 -0.5525125 255 125 0 255
0.14532335 -0.11237046 0.016909648 -8.233086E-09 0.8335046 -0.5525125 255 125 0 255
0.027176628 -0.11237046 0.01690965 -8.233086E-09 0.8335046 -0.5525125 255 125 0 255
-0.027176628 -0.11237046 0.01690965 -8.233086E-09 0.8335046 -0.5525125 255 125 0 255
-0.14532338 -0.11237046 0.016909653 -8.233086E-09 0.8335046 -0.5525125 255 125 0 255
-0.32532343 0.125 0.37499997 -8.233086E-09 0.8335046 -0.5525125 255 125 0 255
-0.37499997 0.125 0.37499997 -8.233086E-09 0.8335046 -0.5525125 255 125 0 255
0.37499997 0.125 0.37499997 -8.233086E-09 0.8335046 -0.5525125 255 125 0 255
0.32532343 0.125 0.37499997 -8.233086E-09 0.8335046 -0.5525125 255 125 0 255
0.37499997 -0.11637045 -0.028035682 -1 -2.793032E-08 1.055647E-08 255 125 0 255
0.37499997 0.125 -0.125 -1 -2.793032E-08 1.055647E-08 255 125 0 255
0.37499997 -0.12499997 -0.125 -1 -2.793032E-08 1.055647E-08 255 125 0 255
0.37499997 0.125 0.33608896 -1 -2.793032E-08 1.055647E-08 255 125 0 255
-0.19967663 -0.11237046 0.016909653 -1.278964E-08 -0.51313215 -0.85830957 255 125 0 255
-0.2096766 -0.10337855 0.011533934 -1.278964E-08 -0.51313215 -0.85830957 255 125 0 255
-0.19967663 0.125 -0.125 -1.278964E-08 -0.51313215 -0.85830957 255 125 0 255
-0.32532343 -0.11237046 0.016909655 -1.278964E-08 -0.51313215 -0.85830957 255 125 0 255
-0.31532347 -0.10337855 0.0115339365 -1.278964E-08 -0.51313215 -0.85830957 255 125 0 255
-0.31532347 0.11600811 -0.119624265 -1.278964E-08 -0.51313215 -0.85830957 255 125 0 255
-0.2096766 0.11600811 -0.119624265 -1.278964E-08 -0.51313215 -0.85830957 255 125 0 255
-0.32532343 0.125 -0.125 -1.278964E-08 -0.51313215 -0.85830957 255 125 0 255
-0.14532338 0.125 0.37499997 -8.232983E-09 0.8335046 -0.5525125 255 125 0 255
-0.1996766 0.125 0.37499997 -8.232983E-09 0.8335046 -0.5525125 255 125 0 255
-0.027176628 -0.11237046 0.01690965 -1.2789688E-08 -0.51313215 -0.85830957 255 125 0 255
-0.03717663 -0.10337855 0.011533931 -1.2789688E-08 -0.51313215 -0.85830957 255 125 0 255
-0.027176628 0.125 -0.125 -1.2789688E-08 -0.51313215 -0.85830957 255 125 0 255
-0.14532338 -0.11237046 0.016909653 -1.2789688E-08 -0.51313215 -0.85830957 255 125 0 255
-0.13532338 -0.10337855 0.011533934 -1.2789688E-08 -0.51313215 -0.85830957 255 125 0 255
-0.13532338 0.11600811 -0.119624265 -1.2789688E-08 -0.51313215 -0.85830957 255 125 0 255
-0.03717663 0.11600811 -0.11962429 -1.2789688E-08 -0.51313215 -0.85830957 255 125 0 255
-0.14532338 0.125 -0.125 -1.2789688E-08 -0.51313215 -0.85830957 255 125 0 255
0.027176628 0.125 0.37499997 -8.233137E-09 0.8335046 -0.5525125 255 125 0 255
-0.027176628 0.125 0.37499997 -8.233137E-09 0.8335046 -0.5525125 255 125 0 255
0.14532335 -0.11237046 0.016909648 -1.4486708E-08 -0.51313215 -0.85830957 255 125 0 255
0.13532338 -0.10337855 0.011533928 -1.4486708E-08 -0.51313215 -0.85830957 255 125 0 255
0.14532335 0.125 -0.125 -1.4486708E-08 -0.51313215 -0.85830957 255 125 0 255
0.027176628 -0.11237046 0.01690965 -1.4486708E-08 -0.51313215 -0.85830957 255 125 0 255
0.03717663 -0.10337855 0.011533931 -1.4486708E-08 -0.51313215 -0.85830957 255 125 0 255
0.037176605 0.11600811 -0.11962429 -1.4486708E-08 -0.51313215 -0.85830957 255 125 0 255
0.028823359 0.125 -0.125 -1.4486708E-08 -0.51313215 -0.85830957 255 125 0 255
0.027176628 0.125 -0.125 -1.4486708E-08 -0.51313215 -0.85830957 255 125 0 255
0.13532338 0.11600811 -0.11962429 -1.4486708E-08 -0.51313215 -0.85830957 255 125 0 255
0.1996766 0.125 0.37499997 -8.233075E-09 0.8335046 -0.5525125 255 125 0 255
0.14532338 0.125 0.37499997 -8.233075E-09 0.8335046 -0.5525125 255 125 0 255
0.32532343 -0.11237046 0.016909646 -1.278964E-08 -0.51313215 -0.85830957 255 125 0 255
0.31532347 -0.10337855 0.011533926 -1.278964E-08 -0.51313215 -0.85830957 255 125 0 255
0.32532343 0.125 -0.125 -1.278964E-08 -0.51313215 -0.85830957 255 125 0 255
0.1996766 -0.11237046 0.016909648 -1.278964E-08 -0.51313215 -0.85830957 255 125 0 255
0.2096766 -0.10337855 0.011533928 -1.278964E-08 -0.51313215 -0.85830957 255 125 0 255
0.2096766 0.11600811 -0.11962429 -1.278964E-08 -0.51313215 -0.85830957 255 125 0 255
0.31532347 0.11600811 -0.11962429 -1.278964E-08 -0.51313215 -0.85830957 255 125 0 255
0.1996766 0.125 -0.125 -1.278964E-08 -0.51313215 -0.85830957 255 125 0 255
0.32532343 0.125 0.37499997 1 9.0793035E-14 -1.4901061E-08 255 125 0 255
0.32532343 -0.11237046 0.016909646 1 9.0793035E-14 -1.4901061E-08 255 125 0 255
0.32532343 0.125 -0.125 1 9.0793035E-14 -1.4901061E-08 255 125 0 255
0.37499997 0.125 0.33608896 -3.018235E-14 -1 3.6646918E-14 255 125 0 255
0.32532343 0.125 -0.125 -3.018235E-14 -1 3.6646918E-14 255 125 0 255
0.37499997 0.125 -0.125 -3.018235E-14 -1 3.6646918E-14 255 125 0 255
0.32532343 0.125 0.37499997 -3.018235E-14 -1 3.6646918E-14 255 125 0 255
0.37499997 0.125 0.37499997 -3.018235E-14 -1 3.6646918E-14 255 125 0 255
-0.1996766 0.125 0.37499997 1 8.471047E-14 -1.4901061E-08 255 125 0 255
-0.19967663 -0.11237046 0.016909653 1 8.471047E-14 -1.4901061E-08 255 125 0 255
-0.19967663 0.125 -0.125 1 8.471047E-14 -1.4901061E-08 255 125 0 255
-0.14532338 0.125 0.37499997 -1.328184E-14 -1 3.032028E-14 255 125 0 255
-0.19967663 0.125 -0.125 -1.328184E-14 -1 3.032028E-14 255 125 0 255
-0.14532338 0.125 -0.125 -1.328184E-14 -1 3.032028E-14 255 125 0 255
-0.1996766 0.125 0.37499997 -1.328184E-14 -1 3.032028E-14 255 125 0 255
-0.14532338 0.125 0.37499997 -1 -6.950404E-14 1.4901061E-08 255 125 0 255
-0.14532338 0.125 -0.125 -1 -6.950404E-14 1.4901061E-08 255 125 0 255
-0.14532338 -0.11237046 0.016909653 -1 -6.950404E-14 1.4901061E-08 255 125 0 255
-0.027176628 0.125 0.37499997 1 8.947811E-14 -1.4901061E-08 255 125 0 255
-0.027176628 -0.11237046 0.01690965 1 8.947811E-14 -1.4901061E-08 255 125 0 255
-0.027176628 0.125 -0.125 1 8.947811E-14 -1.4901061E-08 255 125 0 255
0.027176628 0.125 0.37499997 1.195366E-13 -1 1.5882049E-14 255 125 0 255
-0.027176628 0.125 -0.125 1.195366E-13 -1 1.5882049E-14 255 125 0 255
0.027176628 0.125 -0.125 1.195366E-13 -1 1.5882049E-14 255 125 0 255
-0.027176628 0.125 0.37499997 1.195366E-13 -1 1.5882049E-14 255 125 0 255
0.027176628 0.125 0.37499997 -1 -8.824479E-14 1.4901061E-08 255 125 0 255
0.027176628 0.125 -0.125 -1 -8.824479E-14 1.4901061E-08 255 125 0 255
0.027176628 -0.11237046 0.01690965 -1 -8.824479E-14 1.4901061E-08 255 125 0 255
0.14532338 0.125 0.37499997 1 8.906669E-14 -1.4901061E-08 255 125 0 255
0.14532335 -0.11237046 0.016909648 1 8.906669E-14 -1.4901061E-08 255 125 0 255
0.14532335 0.125 -0.125 1 8.906669E-14 -1.4901061E-08 255 125 0 255
0.1996766 0.125 0.37499997 -7.969107E-14 -1 2.310117E-14 255 125 0 255
0.14532335 0.125 -0.125 -7.969107E-14 -1 2.310117E-14 255 125 0 255
0.1996766 0.125 -0.125 -7.969107E-14 -1 2.310117E-14 255 125 0 255
0.14532338 0.125 0.37499997 -7.969107E-14 -1 2.310117E-14 255 125 0 255
0.1996766 0.125 0.37499997 -1 -8.906669E-14 1.4901061E-08 255 125 0 255
0.1996766 0.125 -0.125 -1 -8.906669E-14 1.4901061E-08 255 125 0 255
0.1996766 -0.11237046 0.016909648 -1 -8.906669E-14 1.4901061E-08 255 125 0 255
-0.37499997 -0.11633474 -0.027634334 0.3412387 0.9362761 -0.08332576 86 86 86 255
-0.34500003 -0.12499997 -0.002142897 0.3412387 0.9362761 -0.08332576 86 86 86 255
-0.35450143 -0.12499997 -0.041053943 0.3412387 0.9362761 -0.08332576 86 86 86 255
-0.37499997 -0.11237046 0.016909655 0.3412387 0.9362761 -0.08332576 86 86 86 255
-0.35450143 -0.12499997 -0.041053943 -7.5566527E-14 1 -1.495748E-13 86 86 86 255
0.34500003 -0.12499997 -0.0021429074 -7.5566527E-14 1 -1.495748E-13 86 86 86 255
0.35450143 -0.12499997 -0.041053966 -7.5566527E-14 1 -1.495748E-13 86 86 86 255
-0.34500003 -0.12499997 -0.002142897 -7.5566527E-14 1 -1.495748E-13 86 86 86 255
-0.37499997 0.125 0.3461136 1 2.1393019E-13 -1.490115E-08 86 86 86 255
-0.37499997 -0.11237046 0.016909655 1 2.1393019E-13 -1.490115E-08 86 86 86 255
-0.37499997 -0.11633474 -0.027634334 1 2.1393019E-13 -1.490115E-08 86 86 86 255
-0.37499997 0.125 0.37499997 1 2.1393019E-13 -1.490115E-08 86 86 86 255
0.34500003 -0.12499997 -0.0021429074 -0.3412387 0.9362761 -0.08332579 86 86 86 255
0.37499997 -0.11637045 -0.028035682 -0.3412387 0.9362761 -0.08332579 86 86 86 255
0.35450143 -0.12499997 -0.041053966 -0.3412387 0.9362761 -0.08332579 86 86 86 255
0.37499997 -0.11237046 0.016909646 -0.3412387 0.9362761 -0.08332579 86 86 86 255
0.37499997 -0.11237046 0.016909646 -1 3.4975628E-08 -1.11365495E-08 86 86 86 255
0.37499997 0.125 0.33608896 -1 3.4975628E-08 -1.11365495E-08 86 86 86 255
0.37499997 -0.11637045 -0.028035682 -1 3.4975628E-08 -1.11365495E-08 86 86 86 255
0.37499997 0.125 0.37499997 -1 3.4975628E-08 -1.11365495E-08 86 86 86 255
0.2096766 -0.10337855 0.011533928 -1.27896485E-08 -0.51313215 -0.85830957 86 86 86 255
0.31532347 0.11600811 -0.11962429 -1.27896485E-08 -0.51313215 -0.85830957 86 86 86 255
0.31532347 -0.10337855 0.011533926 -1.27896485E-08 -0.51313215 -0.85830957 86 86 86 255
0.2096766 0.11600811 -0.11962429 -1.27896485E-08 -0.51313215 -0.85830957 86 86 86 255
0.03717663 -0.10337855 0.011533931 -1.27896485E-08 -0.51313215 -0.85830957 86 86 86 255
0.13532338 0.11600811 -0.11962429 -1.27896485E-08 -0.51313215 -0.85830957 86 86 86 255
0.13532338 -0.10337855 0.011533928 -1.27896485E-08 -0.51313215 -0.85830957 86 86 86 255
0.037176605 0.11600811 -0.11962429 -1.27896485E-08 -0.51313215 -0.85830957 86 86 86 255
-0.19967663 -0.11237046 0.016909653 -1.278964E-08 -0.51313215 -0.85830957 255 255 255 255
-0.14532338 0.125 -0.125 -1.278964E-08 -0.51313215 -0.85830957 255 255 255 255
-0.14532338 -0.11237046 0.016909653 -1.278964E-08 -0.51313215 -0.85830957 255 255 255 255
-0.19967663 0.125 -0.125 -1.278964E-08 -0.51313215 -0.85830957 255 255 255 255
0.14532335 -0.11237046 0.016909648 -1.2789918E-08 -0.51313215 -0.85830957 255 255 255 255
0.1996766 0.125 -0.125 -1.2789918E-08 -0.51313215 -0.85830957 255 255 255 255
0.1996766 -0.11237046 0.016909648 -1.2789918E-08 -0.51313215 -0.85830957 255 255 255 255
0.14532335 0.125 -0.125 -1.2789918E-08 -0.51313215 -0.85830957 255 255 255 255
-0.31532347 -0.10337855 0.0115339365 -1.2789668E-08 -0.51313215 -0.85830957 86 86 86 255
-0.2096766 0.11600811 -0.119624265 -1.2789668E-08 -0.51313215 -0.85830957 86 86 86 255
-0.2096766 -0.10337855 0.011533934 -1.2789668E-08 -0.51313215 -0.85830957 86 86 86 255
-0.31532347 0.11600811 -0.119624265 -1.2789668E-08 -0.51313215 -0.85830957 86 86 86 255
-0.13532338 -0.10337855 0.011533934 -1.2789699E-08 -0.51313215 -0.85830957 86 86 86 255
-0.03717663 0.11600811 -0.11962429 -1.2789699E-08 -0.51313215 -0.85830957 86 86 86 255
-0.03717663 -0.10337855 0.011533931 -1.2789699E-08 -0.51313215 -0.85830957 86 86 86 255
-0.13532338 0.11600811 -0.119624265 -1.2789699E-08 -0.51313215 -0.85830957 86 86 86 255
3 0 1 2
3 1 0 3
3 4 5 6
3 5 4 7
3 5 7 8
3 8 7 9
3 8 9 10
3 10 9 11
3 11 9 12
3 11 12 13
3 14 6 15
3 6 14 4
3 15 6 16
3 15 16 17
3 17 16 18
3 17 18 19
3 17 19 13
3 13 19 11
3 20 21 22
3 21 20 23
3 24 25 26
3 25 24 27
3 28 29 30
3 29 28 31
3 32 33 34
3 33 32 35
3 36 37 38
3 37 36 39
3 40 41 42
3 41 40 43
3 44 45 46
3 45 44 47
3 48 49 50
3 49 48 51
3 52 53 54
3 53 52 55
3 56 57 58
3 57 56 59
3 60 61 62
3 61 60 63
3 64 65 66
3 65 64 67
3 68 69 70
3 69 68 71
3 72 73 74
3 73 72 75
3 76 77 78
3 77 76 79
3 80 81 82
3 81 80 83
3 84 85 86
3 85 84 87
3 87 84 88
3 86 85 89
3 87 88 90
3 90 88 91
3 86 92 93
3 92 86 89
3 93 92 94
3 93 94 95
3 93 95 91
3 93 91 88
3 96 97 98
3 99 100 101
3 100 99 102
3 103 104 105
3 104 103 106
3 107 108 109
3 108 107 110
3 110 107 111
3 112 113 114
3 115 116 117
3 118 119 120
3 119 118 121
3 121 118 122
3 122 118 123
3 123 118 124
3 119 121 125
3 121 122 126
3 126 122 127
3 127 122 128
3 128 122 129
3 123 124 130
3 130 124 131
3 125 132 119
3 132 125 133
3 134 135 136
3 135 134 137
3 138 139 140
3 139 138 141
3 139 141 142
3 142 141 143
3 140 144 145
3 144 140 139
3 145 144 143
3 145 143 141
3 122 146 129
3 146 122 147
3 148 149 150
3 149 148 151
3 149 151 152
3 152 151 153
3 150 154 155
3 154 150 149
3 155 154 153
3 155 153 151
3 128 156 127
3 156 128 157
3 158 159 160
3 159 158 161
3 159 161 162
3 162 161 163
3 163 161 164
3 164 161 165
3 160 166 164
3 166 160 159
3 164 166 163
3 126 167 121
3 167 126 168
3 169 170 171
3 170 169 172
3 170 172 173
3 173 172 174
3 171 175 176
3 175 171 170
3 176 175 174
3 176 174 172
3 177 178 179
3 180 181 182
3 181 180 183
3 183 180 184
3 185 186 187
3 188 189 190
3 189 188 191
3 192 193 194
3 195 196 197
3 198 199 200
3 199 198 201
3 202 203 204
3 205 206 207
3 208 209 210
3 209 208 211
3 212 213 214
3 215 216 217
3 216 215 218
3 219 220 221
3 220 219 222
3 223 224 225
3 224 223 226
3 227 228 229
3 228 227 230
3 231 232 233
3 232 231 234
3 235 236 237
3 236 235 238
3 239 240 241
3 240 239 242
3 243 244 245
3 244 243 246
3 247 248 249
3 248 247 250
3 251 252 253
3 252 251 254
3 255 256 257
3 256 255 258

