ply
format ascii 1.0
commentY29udmVydGVyIGJ5IENvZGVMZW9wYXJk
comment Original mesh name: 'C:\Program Files (x86)\Steam\steamapps\common\Stormworks\rom\meshes\component_radio_antenna_medium.mesh'
comment SubMesh index: 0
comment SubMesh name: 'ID2'
comment Shader: Opaque (0)
element vertex 84
property float x
property float y
property float z
property float nx
property float ny
property float nz
property uchar red
property uchar green
property uchar blue
property uchar alpha
element face 44
property list uchar ushort vertex_index
end_header
3.6095557E-16 0.009135125 -0.3300001 5.7032033E-15 -3.2927461E-15 1 86 86 86 255
0.007911248 -0.0045675626 -0.3300001 5.7032033E-15 -3.2927461E-15 1 86 86 86 255
0.007911248 0.0045675626 -0.3300001 5.7032033E-15 -3.2927461E-15 1 86 86 86 255
3.6095557E-16 -0.009135125 -0.3300001 5.7032033E-15 -3.2927461E-15 1 86 86 86 255
-0.007911248 0.0045675626 -0.3300001 5.7032033E-15 -3.2927461E-15 1 86 86 86 255
-0.007911248 -0.0045675626 -0.3300001 5.7032033E-15 -3.2927461E-15 1 86 86 86 255
-0.011301785 -0.0065250895 -0.31800008 0.4811628 0.8333984 0.2718999 86 86 86 255
3.6095557E-16 -0.009135125 -0.3300001 0.4811628 0.8333984 0.2718999 86 86 86 255
-0.007911248 -0.0045675626 -0.3300001 0.4811628 0.8333984 0.2718999 86 86 86 255
-0 -0.013050176 -0.31800008 0.4811628 0.8333984 0.2718999 86 86 86 255
3.6095557E-16 -0.009135125 -0.3300001 -0.4811628 0.8333984 0.2718999 86 86 86 255
0.011301785 -0.0065250895 -0.31800008 -0.4811628 0.8333984 0.2718999 86 86 86 255
0.007911248 -0.0045675626 -0.3300001 -0.4811628 0.8333984 0.2718999 86 86 86 255
-0 -0.013050176 -0.31800008 -0.4811628 0.8333984 0.2718999 86 86 86 255
0.011301785 0.0065250895 -0.31800008 -0.9623256 -4.284083E-15 0.2718999 86 86 86 255
0.007911248 -0.0045675626 -0.3300001 -0.9623256 -4.284083E-15 0.2718999 86 86 86 255
0.011301785 -0.0065250895 -0.31800008 -0.9623256 -4.284083E-15 0.2718999 86 86 86 255
0.007911248 0.0045675626 -0.3300001 -0.9623256 -4.284083E-15 0.2718999 86 86 86 255
0.011301785 0.0065250895 -0.31800008 -0.4811628 -0.8333984 0.2718999 86 86 86 255
3.6095557E-16 0.009135125 -0.3300001 -0.4811628 -0.8333984 0.2718999 86 86 86 255
0.007911248 0.0045675626 -0.3300001 -0.4811628 -0.8333984 0.2718999 86 86 86 255
-0 0.013050176 -0.31800008 -0.4811628 -0.8333984 0.2718999 86 86 86 255
-0 0.013050176 -0.31800008 0.4811628 -0.8333984 0.2718999 86 86 86 255
-0.007911248 0.0045675626 -0.3300001 0.4811628 -0.8333984 0.2718999 86 86 86 255
3.6095557E-16 0.009135125 -0.3300001 0.4811628 -0.8333984 0.2718999 86 86 86 255
-0.011301785 0.0065250895 -0.31800008 0.4811628 -0.8333984 0.2718999 86 86 86 255
-0.007911248 -0.0045675626 -0.3300001 0.9623256 -8.5431E-18 0.2718999 86 86 86 255
-0.011301785 0.0065250895 -0.31800008 0.9623256 -8.5431E-18 0.2718999 86 86 86 255
-0.011301785 -0.0065250895 -0.31800008 0.9623256 -8.5431E-18 0.2718999 86 86 86 255
-0.007911248 0.0045675626 -0.3300001 0.9623256 -8.5431E-18 0.2718999 86 86 86 255
-0.0050206827 -0.0028986938 0.32499322 0.4999761 0.8659841 -0.00976807 86 86 86 255
-0 -0.013050176 -0.31800008 0.4999761 0.8659841 -0.00976807 86 86 86 255
-0.011301785 -0.0065250895 -0.31800008 0.4999761 0.8659841 -0.00976807 86 86 86 255
-3.6095557E-16 -0.0057973876 0.32499322 0.4999761 0.8659841 -0.00976807 86 86 86 255
-0 -0.013050176 -0.31800008 -0.4999761 0.8659841 -0.00976807 86 86 86 255
0.0050206827 -0.0028986938 0.32499322 -0.4999761 0.8659841 -0.00976807 86 86 86 255
0.011301785 -0.0065250895 -0.31800008 -0.4999761 0.8659841 -0.00976807 86 86 86 255
-3.6095557E-16 -0.0057973876 0.32499322 -0.4999761 0.8659841 -0.00976807 86 86 86 255
0.0050206827 -0.0028986938 0.32499322 -0.9999523 9.76743E-17 -0.00976807 86 86 86 255
0.011301785 0.0065250895 -0.31800008 -0.9999523 9.76743E-17 -0.00976807 86 86 86 255
0.011301785 -0.0065250895 -0.31800008 -0.9999523 9.76743E-17 -0.00976807 86 86 86 255
0.0050206827 0.0028986938 0.32499322 -0.9999523 9.76743E-17 -0.00976807 86 86 86 255
0.0050206827 0.0028986938 0.32499322 -0.4999761 -0.8659841 -0.00976807 86 86 86 255
-0 0.013050176 -0.31800008 -0.4999761 -0.8659841 -0.00976807 86 86 86 255
0.011301785 0.0065250895 -0.31800008 -0.4999761 -0.8659841 -0.00976807 86 86 86 255
-3.6095557E-16 0.0057973876 0.32499322 -0.4999761 -0.8659841 -0.00976807 86 86 86 255
-3.6095557E-16 0.0057973876 0.32499322 0.4999761 -0.8659841 -0.00976807 86 86 86 255
-0.011301785 0.0065250895 -0.31800008 0.4999761 -0.8659841 -0.00976807 86 86 86 255
-0 0.013050176 -0.31800008 0.4999761 -0.8659841 -0.00976807 86 86 86 255
-0.0050206827 0.0028986938 0.32499322 0.4999761 -0.8659841 -0.00976807 86 86 86 255
-0.011301785 0.0065250895 -0.31800008 0.9999523 -5.7142965E-19 -0.00976807 86 86 86 255
-0.0050206827 -0.0028986938 0.32499322 0.9999523 -5.7142965E-19 -0.00976807 86 86 86 255
-0.011301785 -0.0065250895 -0.31800008 0.9999523 -5.7142965E-19 -0.00976807 86 86 86 255
-0.0050206827 0.0028986938 0.32499322 0.9999523 -5.7142965E-19 -0.00976807 86 86 86 255
-0.0033136508 -0.0019131372 0.32952356 0.4678897 0.8104088 -0.3525859 86 86 86 255
-3.6095557E-16 -0.0057973876 0.32499322 0.4678897 0.8104088 -0.3525859 86 86 86 255
-0.0050206827 -0.0028986938 0.32499322 0.4678897 0.8104088 -0.3525859 86 86 86 255
1.8047783E-16 -0.0038262734 0.32952356 0.4678897 0.8104088 -0.3525859 86 86 86 255
1.8047783E-16 -0.0038262734 0.32952356 -0.4678897 0.8104088 -0.3525859 86 86 86 255
0.0050206827 -0.0028986938 0.32499322 -0.4678897 0.8104088 -0.3525859 86 86 86 255
-3.6095557E-16 -0.0057973876 0.32499322 -0.4678897 0.8104088 -0.3525859 86 86 86 255
0.0033136508 -0.0019131372 0.32952356 -0.4678897 0.8104088 -0.3525859 86 86 86 255
0.0033136508 -0.0019131372 0.32952356 -0.9357794 -5.0495696E-15 -0.35258588 86 86 86 255
0.0050206827 0.0028986938 0.32499322 -0.9357794 -5.0495696E-15 -0.35258588 86 86 86 255
0.0050206827 -0.0028986938 0.32499322 -0.9357794 -5.0495696E-15 -0.35258588 86 86 86 255
0.0033136508 0.0019131372 0.32952356 -0.9357794 -5.0495696E-15 -0.35258588 86 86 86 255
0.0050206827 0.0028986938 0.32499322 -0.4678897 -0.8104088 -0.3525859 86 86 86 255
1.8047783E-16 0.0038262734 0.32952356 -0.4678897 -0.8104088 -0.3525859 86 86 86 255
-3.6095557E-16 0.0057973876 0.32499322 -0.4678897 -0.8104088 -0.3525859 86 86 86 255
0.0033136508 0.0019131372 0.32952356 -0.4678897 -0.8104088 -0.3525859 86 86 86 255
1.8047783E-16 0.0038262734 0.32952356 0.4678897 -0.8104088 -0.3525859 86 86 86 255
-0.0050206827 0.0028986938 0.32499322 0.4678897 -0.8104088 -0.3525859 86 86 86 255
-3.6095557E-16 0.0057973876 0.32499322 0.4678897 -0.8104088 -0.3525859 86 86 86 255
-0.0033136508 0.0019131372 0.32952356 0.4678897 -0.8104088 -0.3525859 86 86 86 255
-0.0050206827 0.0028986938 0.32499322 0.9357794 -5.055328E-15 -0.35258588 86 86 86 255
-0.0033136508 -0.0019131372 0.32952356 0.9357794 -5.055328E-15 -0.35258588 86 86 86 255
-0.0050206827 -0.0028986938 0.32499322 0.9357794 -5.055328E-15 -0.35258588 86 86 86 255
-0.0033136508 0.0019131372 0.32952356 0.9357794 -5.055328E-15 -0.35258588 86 86 86 255
1.8047783E-16 -0.0038262734 0.32952356 8.56561E-28 -3.144535E-14 -1 86 86 86 255
0.0033136508 0.0019131372 0.32952356 8.56561E-28 -3.144535E-14 -1 86 86 86 255
0.0033136508 -0.0019131372 0.32952356 8.56561E-28 -3.144535E-14 -1 86 86 86 255
1.8047783E-16 0.0038262734 0.32952356 8.56561E-28 -3.144535E-14 -1 86 86 86 255
-0.0033136508 -0.0019131372 0.32952356 8.56561E-28 -3.144535E-14 -1 86 86 86 255
-0.0033136508 0.0019131372 0.32952356 8.56561E-28 -3.144535E-14 -1 86 86 86 255
3 0 1 2
3 1 0 3
3 3 0 4
3 3 4 5
3 6 7 8
3 7 6 9
3 10 11 12
3 11 10 13
3 14 15 16
3 15 14 17
3 18 19 20
3 19 18 21
3 22 23 24
3 23 22 25
3 26 27 28
3 27 26 29
3 30 31 32
3 31 30 33
3 34 35 36
3 35 34 37
3 38 39 40
3 39 38 41
3 42 43 44
3 43 42 45
3 46 47 48
3 47 46 49
3 50 51 52
3 51 50 53
3 54 55 56
3 55 54 57
3 58 59 60
3 59 58 61
3 62 63 64
3 63 62 65
3 66 67 68
3 67 66 69
3 70 71 72
3 71 70 73
3 74 75 76
3 75 74 77
3 78 79 80
3 79 78 81
3 81 78 82
3 81 82 83

