ply
format ascii 1.0
commentY29udmVydGVyIGJ5IENvZGVMZW9wYXJk
comment Original mesh name: 'C:\Program Files (x86)\Steam\steamapps\common\Stormworks\rom\meshes\component_laser_distance_sensor.mesh'
comment SubMesh index: 1
comment SubMesh name: 'ID27'
comment Shader: Opaque (0)
element vertex 132
property float x
property float y
property float z
property float nx
property float ny
property float nz
property uchar red
property uchar green
property uchar blue
property uchar alpha
element face 82
property list uchar ushort vertex_index
end_header
0.013415523 -0.032387946 0.615 -5.914494E-29 -5.741387E-15 -1 160 160 199 128
0.032387946 0.013415544 0.615 -5.914494E-29 -5.741387E-15 -1 160 160 199 128
0.032387946 -0.013415523 0.615 -5.914494E-29 -5.741387E-15 -1 160 160 199 128
0.013415523 0.03238797 0.615 -5.914494E-29 -5.741387E-15 -1 160 160 199 128
-0.013415544 -0.032387946 0.615 -5.914494E-29 -5.741387E-15 -1 160 160 199 128
-0.013415544 0.03238797 0.615 -5.914494E-29 -5.741387E-15 -1 160 160 199 128
-0.03238797 -0.013415523 0.615 -5.914494E-29 -5.741387E-15 -1 160 160 199 128
-0.03238797 0.013415544 0.615 -5.914494E-29 -5.741387E-15 -1 160 160 199 128
-0.03238797 0.013415544 0.615 5.914494E-29 5.741387E-15 1 160 160 199 128
-0.03238797 -0.013415523 0.615 5.914494E-29 5.741387E-15 1 160 160 199 128
-0.013415544 0.03238797 0.615 5.914494E-29 5.741387E-15 1 160 160 199 128
-0.013415544 -0.032387946 0.615 5.914494E-29 5.741387E-15 1 160 160 199 128
0.013415523 0.03238797 0.615 5.914494E-29 5.741387E-15 1 160 160 199 128
0.013415523 -0.032387946 0.615 5.914494E-29 5.741387E-15 1 160 160 199 128
0.032387946 0.013415544 0.615 5.914494E-29 5.741387E-15 1 160 160 199 128
0.032387946 -0.013415523 0.615 5.914494E-29 5.741387E-15 1 160 160 199 128
0.01341553 -0.032387946 0.605 -5.93959E-29 -5.741387E-15 -1 30 30 30 255
0.032387946 0.01341553 0.605 -5.93959E-29 -5.741387E-15 -1 30 30 30 255
0.032387946 -0.01341553 0.605 -5.93959E-29 -5.741387E-15 -1 30 30 30 255
0.01341553 0.032387946 0.605 -5.93959E-29 -5.741387E-15 -1 30 30 30 255
-0.01341553 -0.032387946 0.605 -5.93959E-29 -5.741387E-15 -1 30 30 30 255
-0.01341553 0.032387946 0.605 -5.93959E-29 -5.741387E-15 -1 30 30 30 255
-0.032387946 -0.01341553 0.605 -5.93959E-29 -5.741387E-15 -1 30 30 30 255
-0.032387946 0.01341553 0.605 -5.93959E-29 -5.741387E-15 -1 30 30 30 255
-0.032387946 -0.01341553 0.615 -0.70710677 -0.70710677 4.0597726E-15 86 86 86 255
-0.01341553 -0.032387946 0.605 -0.70710677 -0.70710677 4.0597726E-15 86 86 86 255
-0.01341553 -0.032387946 0.615 -0.70710677 -0.70710677 4.0597726E-15 86 86 86 255
-0.032387946 -0.01341553 0.605 -0.70710677 -0.70710677 4.0597726E-15 86 86 86 255
0.01341553 -0.032387946 0.615 2.690581E-14 -1 5.741387E-15 86 86 86 255
-0.01341553 -0.032387946 0.605 2.690581E-14 -1 5.741387E-15 86 86 86 255
0.01341553 -0.032387946 0.605 2.690581E-14 -1 5.741387E-15 86 86 86 255
-0.01341553 -0.032387946 0.615 2.690581E-14 -1 5.741387E-15 86 86 86 255
-0.032387946 0.01341553 0.615 -1 2.690581E-14 -9.508076E-29 86 86 86 255
-0.032387946 -0.01341553 0.605 -1 2.690581E-14 -9.508076E-29 86 86 86 255
-0.032387946 -0.01341553 0.615 -1 2.690581E-14 -9.508076E-29 86 86 86 255
-0.032387946 0.01341553 0.605 -1 2.690581E-14 -9.508076E-29 86 86 86 255
0.032387946 -0.01341553 0.605 0.70710677 -0.70710677 4.0597726E-15 86 86 86 255
0.01341553 -0.032387946 0.615 0.70710677 -0.70710677 4.0597726E-15 86 86 86 255
0.01341553 -0.032387946 0.605 0.70710677 -0.70710677 4.0597726E-15 86 86 86 255
0.032387946 -0.01341553 0.615 0.70710677 -0.70710677 4.0597726E-15 86 86 86 255
-0.032387946 0.01341553 0.605 -0.70710677 0.70710677 -4.0597726E-15 86 86 86 255
-0.01341553 0.032387946 0.615 -0.70710677 0.70710677 -4.0597726E-15 86 86 86 255
-0.01341553 0.032387946 0.605 -0.70710677 0.70710677 -4.0597726E-15 86 86 86 255
-0.032387946 0.01341553 0.615 -0.70710677 0.70710677 -4.0597726E-15 86 86 86 255
0.032387946 0.01341553 0.605 1 -0 -5.93959E-29 86 86 86 255
0.032387946 -0.01341553 0.615 1 -0 -5.93959E-29 86 86 86 255
0.032387946 -0.01341553 0.605 1 -0 -5.93959E-29 86 86 86 255
0.032387946 0.01341553 0.615 1 -0 -5.93959E-29 86 86 86 255
-0.01341553 0.032387946 0.615 0 1 -5.741387E-15 86 86 86 255
0.01341553 0.032387946 0.605 0 1 -5.741387E-15 86 86 86 255
-0.01341553 0.032387946 0.605 0 1 -5.741387E-15 86 86 86 255
0.01341553 0.032387946 0.615 0 1 -5.741387E-15 86 86 86 255
0.01341553 0.032387946 0.605 0.70710677 0.70710677 -4.0597726E-15 86 86 86 255
0.032387946 0.01341553 0.615 0.70710677 0.70710677 -4.0597726E-15 86 86 86 255
0.032387946 0.01341553 0.605 0.70710677 0.70710677 -4.0597726E-15 86 86 86 255
0.01341553 0.032387946 0.615 0.70710677 0.70710677 -4.0597726E-15 86 86 86 255
0.125 -0.125 0.625 0 -5.05338E-15 -1 255 125 0 255
0.112387955 -0.04655261 0.625 0 -5.05338E-15 -1 255 125 0 255
0.125 0.125 0.625 0 -5.05338E-15 -1 255 125 0 255
0.04655261 -0.112387955 0.625 0 -5.05338E-15 -1 255 125 0 255
-0.125 -0.125 0.625 0 -5.05338E-15 -1 255 125 0 255
-0.04655261 -0.112387955 0.625 0 -5.05338E-15 -1 255 125 0 255
-0.112387955 -0.04655261 0.625 0 -5.05338E-15 -1 255 125 0 255
0.04655261 0.112387955 0.625 0 -5.05338E-15 -1 255 125 0 255
-0.125 0.125 0.625 0 -5.05338E-15 -1 255 125 0 255
0.112387955 0.04655261 0.625 0 -5.05338E-15 -1 255 125 0 255
-0.04655261 0.112387955 0.625 0 -5.05338E-15 -1 255 125 0 255
-0.112387955 0.04655261 0.625 0 -5.05338E-15 -1 255 125 0 255
0.09238795 0.03826835 0.615 1 1.886445E-14 -9.921779E-29 86 86 86 255
0.09238795 -0.03826835 0.625 1 1.886445E-14 -9.921779E-29 86 86 86 255
0.09238795 -0.03826835 0.615 1 1.886445E-14 -9.921779E-29 86 86 86 255
0.09238795 0.03826835 0.625 1 1.886445E-14 -9.921779E-29 86 86 86 255
0.09238795 -0.03826835 0.615 0.70710677 -0.70710677 3.7190345E-15 86 86 86 255
0.03826835 -0.09238795 0.625 0.70710677 -0.70710677 3.7190345E-15 86 86 86 255
0.03826835 -0.09238795 0.615 0.70710677 -0.70710677 3.7190345E-15 86 86 86 255
0.09238795 -0.03826835 0.625 0.70710677 -0.70710677 3.7190345E-15 86 86 86 255
0.03826835 -0.09238795 0.615 0 -5.25951E-15 -1 86 86 86 255
0.09238795 0.03826835 0.615 0 -5.25951E-15 -1 86 86 86 255
0.09238795 -0.03826835 0.615 0 -5.25951E-15 -1 86 86 86 255
0.03826835 0.09238795 0.615 0 -5.25951E-15 -1 86 86 86 255
0.032387946 -0.01341553 0.615 0 -5.25951E-15 -1 86 86 86 255
-0.03826835 -0.09238795 0.615 0 -5.25951E-15 -1 86 86 86 255
0.01341553 -0.032387946 0.615 0 -5.25951E-15 -1 86 86 86 255
-0.01341553 -0.032387946 0.615 0 -5.25951E-15 -1 86 86 86 255
-0.032387946 -0.01341553 0.615 0 -5.25951E-15 -1 86 86 86 255
-0.03826835 0.09238795 0.615 0 -5.25951E-15 -1 86 86 86 255
-0.09238795 0.03826835 0.615 0 -5.25951E-15 -1 86 86 86 255
-0.09238795 -0.03826835 0.615 0 -5.25951E-15 -1 86 86 86 255
0.032387946 0.01341553 0.615 0 -5.25951E-15 -1 86 86 86 255
0.01341553 0.032387946 0.615 0 -5.25951E-15 -1 86 86 86 255
-0.01341553 0.032387946 0.615 0 -5.25951E-15 -1 86 86 86 255
-0.032387946 0.01341553 0.615 0 -5.25951E-15 -1 86 86 86 255
0.03826835 0.09238795 0.625 0.70710677 0.70710677 -3.7190345E-15 86 86 86 255
0.09238795 0.03826835 0.615 0.70710677 0.70710677 -3.7190345E-15 86 86 86 255
0.03826835 0.09238795 0.615 0.70710677 0.70710677 -3.7190345E-15 86 86 86 255
0.09238795 0.03826835 0.625 0.70710677 0.70710677 -3.7190345E-15 86 86 86 255
0.03826835 -0.09238795 0.625 9.432227E-15 -1 5.25951E-15 86 86 86 255
-0.03826835 -0.09238795 0.615 9.432227E-15 -1 5.25951E-15 86 86 86 255
0.03826835 -0.09238795 0.615 9.432227E-15 -1 5.25951E-15 86 86 86 255
-0.03826835 -0.09238795 0.625 9.432227E-15 -1 5.25951E-15 86 86 86 255
-0.09238795 0.03826835 0.615 -0.70710677 0.70710677 -3.7190345E-15 86 86 86 255
-0.03826835 0.09238795 0.625 -0.70710677 0.70710677 -3.7190345E-15 86 86 86 255
-0.03826835 0.09238795 0.615 -0.70710677 0.70710677 -3.7190345E-15 86 86 86 255
-0.09238795 0.03826835 0.625 -0.70710677 0.70710677 -3.7190345E-15 86 86 86 255
-0.03826835 0.09238795 0.625 1.886445E-14 1 -5.25951E-15 86 86 86 255
0.03826835 0.09238795 0.615 1.886445E-14 1 -5.25951E-15 86 86 86 255
-0.03826835 0.09238795 0.615 1.886445E-14 1 -5.25951E-15 86 86 86 255
0.03826835 0.09238795 0.625 1.886445E-14 1 -5.25951E-15 86 86 86 255
-0.03826835 -0.09238795 0.615 -0.70710677 -0.70710677 3.7190345E-15 86 86 86 255
-0.09238795 -0.03826835 0.625 -0.70710677 -0.70710677 3.7190345E-15 86 86 86 255
-0.09238795 -0.03826835 0.615 -0.70710677 -0.70710677 3.7190345E-15 86 86 86 255
-0.03826835 -0.09238795 0.625 -0.70710677 -0.70710677 3.7190345E-15 86 86 86 255
-0.09238795 0.03826835 0.625 -1 2.829668E-14 -1.4882669E-28 86 86 86 255
-0.09238795 -0.03826835 0.615 -1 2.829668E-14 -1.4882669E-28 86 86 86 255
-0.09238795 -0.03826835 0.625 -1 2.829668E-14 -1.4882669E-28 86 86 86 255
-0.09238795 0.03826835 0.615 -1 2.829668E-14 -1.4882669E-28 86 86 86 255
0.112387955 -0.04655261 0.625 3.42669E-16 -4.8217194E-15 -1 255 255 255 255
0.09238795 -0.03826835 0.625 3.42669E-16 -4.8217194E-15 -1 255 255 255 255
0.112387955 0.04655261 0.625 3.42669E-16 -4.8217194E-15 -1 255 255 255 255
0.04655261 -0.112387955 0.625 3.42669E-16 -4.8217194E-15 -1 255 255 255 255
0.03826835 -0.09238795 0.625 3.42669E-16 -4.8217194E-15 -1 255 255 255 255
-0.04655261 -0.112387955 0.625 3.42669E-16 -4.8217194E-15 -1 255 255 255 255
-0.03826835 -0.09238795 0.625 3.42669E-16 -4.8217194E-15 -1 255 255 255 255
-0.09238795 -0.03826835 0.625 3.42669E-16 -4.8217194E-15 -1 255 255 255 255
-0.112387955 -0.04655261 0.625 3.42669E-16 -4.8217194E-15 -1 255 255 255 255
-0.112387955 0.04655261 0.625 3.42669E-16 -4.8217194E-15 -1 255 255 255 255
0.09238795 0.03826835 0.625 3.42669E-16 -4.8217194E-15 -1 255 255 255 255
0.04655261 0.112387955 0.625 3.42669E-16 -4.8217194E-15 -1 255 255 255 255
0.03826835 0.09238795 0.625 3.42669E-16 -4.8217194E-15 -1 255 255 255 255
-0.04655261 0.112387955 0.625 3.42669E-16 -4.8217194E-15 -1 255 255 255 255
-0.03826835 0.09238795 0.625 3.42669E-16 -4.8217194E-15 -1 255 255 255 255
-0.09238795 0.03826835 0.625 3.42669E-16 -4.8217194E-15 -1 255 255 255 255
3 16 17 18
3 17 16 19
3 19 16 20
3 19 20 21
3 21 20 22
3 21 22 23
3 24 25 26
3 25 24 27
3 28 29 30
3 29 28 31
3 32 33 34
3 33 32 35
3 36 37 38
3 37 36 39
3 40 41 42
3 41 40 43
3 44 45 46
3 45 44 47
3 48 49 50
3 49 48 51
3 52 53 54
3 53 52 55
3 56 57 58
3 57 56 59
3 59 56 60
3 59 60 61
3 61 60 62
3 58 63 64
3 63 58 65
3 65 58 57
3 64 63 66
3 64 66 67
3 64 67 62
3 64 62 60
3 68 69 70
3 69 68 71
3 72 73 74
3 73 72 75
3 76 77 78
3 77 76 79
3 79 76 80
3 80 76 81
3 80 81 82
3 82 81 83
3 83 81 84
3 84 81 85
3 85 81 86
3 86 81 87
3 79 88 85
3 88 79 80
3 85 88 89
3 85 89 90
3 85 90 91
3 85 91 84
3 92 93 94
3 93 92 95
3 96 97 98
3 97 96 99
3 100 101 102
3 101 100 103
3 104 105 106
3 105 104 107
3 108 109 110
3 109 108 111
3 112 113 114
3 113 112 115
3 116 117 118
3 117 116 119
3 117 119 120
3 120 119 121
3 120 121 122
3 122 121 123
3 123 121 124
3 123 124 125
3 118 126 127
3 126 118 117
3 127 126 128
3 127 128 129
3 129 128 130
3 129 130 131
3 129 131 125
3 125 131 123

