ply
format ascii 1.0
commentY29udmVydGVyIGJ5IENvZGVMZW9wYXJk
comment Original mesh name: 'C:\Program Files (x86)\Steam\steamapps\common\Stormworks\rom\meshes\component_hud_medium.mesh'
comment SubMesh index: 0
comment SubMesh name: 'ID4'
comment Shader: Transparent (1)
element vertex 176
property float x
property float y
property float z
property float nx
property float ny
property float nz
property uchar red
property uchar green
property uchar blue
property uchar alpha
element face 4
property list uchar ushort vertex_index
end_header
-0.355 0.37500003 0.114999995 -1.5376714E-14 2.8907943E-16 -1 160 160 199 128
0.35499993 -0.355 0.114999995 -1.5376714E-14 2.8907943E-16 -1 160 160 199 128
-0.355 -0.355 0.114999995 -1.5376714E-14 2.8907943E-16 -1 160 160 199 128
0.35499993 0.37500003 0.114999995 -1.5376714E-14 2.8907943E-16 -1 160 160 199 128
0.35499993 0.37500003 0.114999995 1.5376714E-14 -2.8907943E-16 1 160 160 199 128
-0.355 0.37500003 0.114999995 1.5376714E-14 -2.8907943E-16 1 160 160 199 128
0.35499993 -0.355 0.114999995 1.5376714E-14 -2.8907943E-16 1 160 160 199 128
-0.355 -0.355 0.114999995 1.5376714E-14 -2.8907943E-16 1 160 160 199 128
-0.36999997 -0.057912223 0.095 -6.4572833E-21 -2.10732E-08 1 86 86 86 255
-0.37499997 -0.34499997 0.09499998 -6.4572833E-21 -2.10732E-08 1 86 86 86 255
-0.36999997 -0.34499997 0.09499998 -6.4572833E-21 -2.10732E-08 1 86 86 86 255
-0.37499997 -0.057912223 0.095 -6.4572833E-21 -2.10732E-08 1 86 86 86 255
-0.37499997 -0.057912223 0.095 1.6177039E-13 0.5279341 -0.8492853 86 86 86 255
-0.36999997 -0.34499994 -0.08345998 1.6177039E-13 0.5279341 -0.8492853 86 86 86 255
-0.37499997 -0.34499994 -0.08345998 1.6177039E-13 0.5279341 -0.8492853 86 86 86 255
-0.36999997 -0.057912223 0.095 1.6177039E-13 0.5279341 -0.8492853 86 86 86 255
-0.36999997 -0.34499994 -0.08345998 -3.0642158E-13 -1 -2.10732E-08 86 86 86 255
-0.37499997 -0.34499997 0.09499998 -3.0642158E-13 -1 -2.10732E-08 86 86 86 255
-0.37499997 -0.34499994 -0.08345998 -3.0642158E-13 -1 -2.10732E-08 86 86 86 255
-0.36999997 -0.34499997 0.09499998 -3.0642158E-13 -1 -2.10732E-08 86 86 86 255
-0.36999997 -0.057912223 0.095 1 -3.0642158E-13 -0 86 86 86 255
-0.36999997 -0.34499997 0.09499998 1 -3.0642158E-13 -0 86 86 86 255
-0.36999997 -0.34499994 -0.08345998 1 -3.0642158E-13 -0 86 86 86 255
-0.35999998 -0.057912223 0.095 -1 3.0642158E-13 -0 86 86 86 255
-0.35999998 -0.32499996 -0.07102754 -1 3.0642158E-13 -0 86 86 86 255
-0.35999998 -0.32499996 0.095 -1 3.0642158E-13 -0 86 86 86 255
-0.355 -0.32499996 -0.07102754 -3.0642158E-13 -1 -1.853468E-08 86 86 86 255
-0.35999998 -0.32499996 0.095 -3.0642158E-13 -1 -1.853468E-08 86 86 86 255
-0.35999998 -0.32499996 -0.07102754 -3.0642158E-13 -1 -1.853468E-08 86 86 86 255
-0.355 -0.32499996 0.095 -3.0642158E-13 -1 -1.853468E-08 86 86 86 255
-0.355 -0.057912223 0.095 0 -0 1 86 86 86 255
-0.35999998 -0.32499996 0.095 0 -0 1 86 86 86 255
-0.355 -0.32499996 0.095 0 -0 1 86 86 86 255
-0.35999998 -0.057912223 0.095 0 -0 1 86 86 86 255
-0.35999998 -0.057912223 0.095 1.6177039E-13 0.5279341 -0.8492853 86 86 86 255
-0.355 -0.32499996 -0.07102754 1.6177039E-13 0.5279341 -0.8492853 86 86 86 255
-0.35999998 -0.32499996 -0.07102754 1.6177039E-13 0.5279341 -0.8492853 86 86 86 255
-0.355 -0.057912223 0.095 1.6177039E-13 0.5279341 -0.8492853 86 86 86 255
0.36000004 -0.057912223 0.095 1 -3.1215032E-13 1.36752995E-14 86 86 86 255
0.36000004 -0.32499996 0.09499998 1 -3.1215032E-13 1.36752995E-14 86 86 86 255
0.36000004 -0.32499996 -0.07102754 1 -3.1215032E-13 1.36752995E-14 86 86 86 255
0.35500005 -0.057912223 0.095 1.7640903E-13 0.5279341 -0.8492853 86 86 86 255
0.36000004 -0.32499996 -0.07102754 1.7640903E-13 0.5279341 -0.8492853 86 86 86 255
0.35500005 -0.32499996 -0.07102754 1.7640903E-13 0.5279341 -0.8492853 86 86 86 255
0.36000004 -0.057912223 0.095 1.7640903E-13 0.5279341 -0.8492853 86 86 86 255
0.36000004 -0.057912223 0.095 -1.36753054E-14 -2.10732E-08 1 86 86 86 255
0.35500005 -0.32499996 0.09499998 -1.36753054E-14 -2.10732E-08 1 86 86 86 255
0.36000004 -0.32499996 0.09499998 -1.36753054E-14 -2.10732E-08 1 86 86 86 255
0.35500005 -0.057912223 0.095 -1.36753054E-14 -2.10732E-08 1 86 86 86 255
0.35500005 -0.32499996 -0.07102754 -3.1215032E-13 -1 -1.853468E-08 86 86 86 255
0.36000004 -0.32499996 0.09499998 -3.1215032E-13 -1 -1.853468E-08 86 86 86 255
0.35500005 -0.32499996 0.09499998 -3.1215032E-13 -1 -1.853468E-08 86 86 86 255
0.36000004 -0.32499996 -0.07102754 -3.1215032E-13 -1 -1.853468E-08 86 86 86 255
-0.355 -0.35499996 -0.125 -3.0794676E-13 -1 -2.10732E-08 86 86 86 255
0.35500005 -0.355 0.125 -3.0794676E-13 -1 -2.10732E-08 86 86 86 255
-0.355 -0.355 0.125 -3.0794676E-13 -1 -2.10732E-08 86 86 86 255
0.35500005 -0.35499996 -0.125 -3.0794676E-13 -1 -2.10732E-08 86 86 86 255
0.35500005 0.014999998 0.10499998 1 -3.097377E-13 -9.899064E-15 86 86 86 255
0.35500005 -0.32499996 -0.07102754 1 -3.097377E-13 -9.899064E-15 86 86 86 255
0.35500005 -0.35499996 -0.125 1 -3.097377E-13 -9.899064E-15 86 86 86 255
0.35500005 -0.057912223 0.095 1 -3.097377E-13 -9.899064E-15 86 86 86 255
0.35500005 -0.355 0.125 1 -3.097377E-13 -9.899064E-15 86 86 86 255
0.35500005 -0.32499996 0.09499998 1 -3.097377E-13 -9.899064E-15 86 86 86 255
0.35500005 0.26499996 0.105000004 1 -3.097377E-13 -9.899064E-15 86 86 86 255
0.35500005 0.26499996 0.125 1 -3.097377E-13 -9.899064E-15 86 86 86 255
-0.37499997 -0.37499997 0.125 7.957548E-12 2.4406681E-08 -1 86 86 86 255
-0.355 -0.355 0.125 7.957548E-12 2.4406681E-08 -1 86 86 86 255
0.37499997 -0.37499997 0.125 7.957548E-12 2.4406681E-08 -1 86 86 86 255
-0.37499997 0.26499996 0.125 7.957548E-12 2.4406681E-08 -1 86 86 86 255
-0.355 0.26499996 0.125 7.957548E-12 2.4406681E-08 -1 86 86 86 255
0.35500005 -0.355 0.125 7.957548E-12 2.4406681E-08 -1 86 86 86 255
0.37499997 0.26499996 0.125 7.957548E-12 2.4406681E-08 -1 86 86 86 255
0.35500005 0.26499996 0.125 7.957548E-12 2.4406681E-08 -1 86 86 86 255
-0.355 -0.355 0.125 -1 3.0652333E-13 -2.658505E-15 86 86 86 255
-0.355 -0.32499996 -0.07102754 -1 3.0652333E-13 -2.658505E-15 86 86 86 255
-0.355 -0.35499996 -0.125 -1 3.0652333E-13 -2.658505E-15 86 86 86 255
-0.355 -0.32499996 0.095 -1 3.0652333E-13 -2.658505E-15 86 86 86 255
-0.355 -0.057912223 0.095 -1 3.0652333E-13 -2.658505E-15 86 86 86 255
-0.355 0.014999998 0.10499998 -1 3.0652333E-13 -2.658505E-15 86 86 86 255
-0.355 0.26499996 0.105000004 -1 3.0652333E-13 -2.658505E-15 86 86 86 255
-0.355 0.26499996 0.125 -1 3.0652333E-13 -2.658505E-15 86 86 86 255
0.37499997 -0.35499996 -0.125 -6.4572833E-21 -2.10732E-08 1 86 86 86 255
-0.37499997 -0.37499997 -0.125 -6.4572833E-21 -2.10732E-08 1 86 86 86 255
0.37499997 -0.37499997 -0.125 -6.4572833E-21 -2.10732E-08 1 86 86 86 255
-0.37499997 -0.35499996 -0.125 -6.4572833E-21 -2.10732E-08 1 86 86 86 255
0.35500005 -0.35499996 -0.125 -6.4572833E-21 -2.10732E-08 1 86 86 86 255
-0.355 -0.35499996 -0.125 -6.4572833E-21 -2.10732E-08 1 86 86 86 255
0.37499997 0.014999998 0.10499998 -1.6177039E-13 -0.5279341 0.8492853 86 86 86 255
0.35500005 -0.35499996 -0.125 -1.6177039E-13 -0.5279341 0.8492853 86 86 86 255
0.37499997 -0.35499996 -0.125 -1.6177039E-13 -0.5279341 0.8492853 86 86 86 255
0.35500005 0.014999998 0.10499998 -1.6177039E-13 -0.5279341 0.8492853 86 86 86 255
0.37499997 0.26499996 0.105000004 8.4598067E-16 -2.9502482E-08 1 86 86 86 255
0.35500005 0.014999998 0.10499998 8.4598067E-16 -2.9502482E-08 1 86 86 86 255
0.37499997 0.014999998 0.10499998 8.4598067E-16 -2.9502482E-08 1 86 86 86 255
0.35500005 0.26499996 0.105000004 8.4598067E-16 -2.9502482E-08 1 86 86 86 255
0.3577999 0.27499995 0.10780001 0.962964 -0.2696299 -6.4363532E-09 86 86 86 255
0.35500005 0.26499996 0.125 0.962964 -0.2696299 -6.4363532E-09 86 86 86 255
0.35500005 0.26499996 0.105000004 0.962964 -0.2696299 -6.4363532E-09 86 86 86 255
0.3577999 0.27499995 0.1222 0.962964 -0.2696299 -6.4363532E-09 86 86 86 255
-0.37499997 0.014999998 0.10499998 1 -3.0642158E-13 -0 86 86 86 255
-0.37499997 -0.34499994 -0.08345998 1 -3.0642158E-13 -0 86 86 86 255
-0.37499997 -0.35499996 -0.125 1 -3.0642158E-13 -0 86 86 86 255
-0.37499997 -0.057912223 0.095 1 -3.0642158E-13 -0 86 86 86 255
-0.37499997 -0.37499997 0.125 1 -3.0642158E-13 -0 86 86 86 255
-0.37499997 -0.37499997 -0.125 1 -3.0642158E-13 -0 86 86 86 255
-0.37499997 -0.34499997 0.09499998 1 -3.0642158E-13 -0 86 86 86 255
-0.37499997 0.26499996 0.105000004 1 -3.0642158E-13 -0 86 86 86 255
-0.37499997 0.26499996 0.125 1 -3.0642158E-13 -0 86 86 86 255
-0.37219998 0.27499995 0.1222 -7.533556E-14 -0.2696299 -0.962964 86 86 86 255
-0.355 0.26499996 0.125 -7.533556E-14 -0.2696299 -0.962964 86 86 86 255
-0.37499997 0.26499996 0.125 -7.533556E-14 -0.2696299 -0.962964 86 86 86 255
-0.35779998 0.27499995 0.1222 -7.533556E-14 -0.2696299 -0.962964 86 86 86 255
0.35500005 0.26499996 0.125 -8.990528E-14 -0.2696299 -0.962964 86 86 86 255
0.3721999 0.27499995 0.1222 -8.990528E-14 -0.2696299 -0.962964 86 86 86 255
0.37499997 0.26499996 0.125 -8.990528E-14 -0.2696299 -0.962964 86 86 86 255
0.3577999 0.27499995 0.1222 -8.990528E-14 -0.2696299 -0.962964 86 86 86 255
0.37499997 -0.37499997 0.125 -1 3.0680233E-13 1.3402919E-14 86 86 86 255
0.37499997 -0.35499996 -0.125 -1 3.0680233E-13 1.3402919E-14 86 86 86 255
0.37499997 -0.37499997 -0.125 -1 3.0680233E-13 1.3402919E-14 86 86 86 255
0.37499997 -0.34499994 -0.08345998 -1 3.0680233E-13 1.3402919E-14 86 86 86 255
0.37499997 -0.34499997 0.09499998 -1 3.0680233E-13 1.3402919E-14 86 86 86 255
0.37499997 -0.057912223 0.095 -1 3.0680233E-13 1.3402919E-14 86 86 86 255
0.37499997 0.014999998 0.10499998 -1 3.0680233E-13 1.3402919E-14 86 86 86 255
0.37499997 0.26499996 0.105000004 -1 3.0680233E-13 1.3402919E-14 86 86 86 255
0.37499997 0.26499996 0.125 -1 3.0680233E-13 1.3402919E-14 86 86 86 255
-0.355 0.26499996 0.105000004 -8.4599877E-16 -2.9502482E-08 1 86 86 86 255
-0.37499997 0.014999998 0.10499998 -8.4599877E-16 -2.9502482E-08 1 86 86 86 255
-0.355 0.014999998 0.10499998 -8.4599877E-16 -2.9502482E-08 1 86 86 86 255
-0.37499997 0.26499996 0.105000004 -8.4599877E-16 -2.9502482E-08 1 86 86 86 255
-0.355 0.014999998 0.10499998 -1.6177039E-13 -0.5279341 0.8492853 86 86 86 255
-0.37499997 -0.35499996 -0.125 -1.6177039E-13 -0.5279341 0.8492853 86 86 86 255
-0.355 -0.35499996 -0.125 -1.6177039E-13 -0.5279341 0.8492853 86 86 86 255
-0.37499997 0.014999998 0.10499998 -1.6177039E-13 -0.5279341 0.8492853 86 86 86 255
-0.355 0.26499996 0.125 -0.962964 -0.2696299 -6.4363532E-09 86 86 86 255
-0.35779998 0.27499995 0.10780001 -0.962964 -0.2696299 -6.4363532E-09 86 86 86 255
-0.355 0.26499996 0.105000004 -0.962964 -0.2696299 -6.4363532E-09 86 86 86 255
-0.35779998 0.27499995 0.1222 -0.962964 -0.2696299 -6.4363532E-09 86 86 86 255
0.3721999 0.27499995 0.10780001 -8.653654E-14 -0.2696299 0.962964 86 86 86 255
0.35500005 0.26499996 0.105000004 -8.653654E-14 -0.2696299 0.962964 86 86 86 255
0.37499997 0.26499996 0.105000004 -8.653654E-14 -0.2696299 0.962964 86 86 86 255
0.3577999 0.27499995 0.10780001 -8.653654E-14 -0.2696299 0.962964 86 86 86 255
0.3721999 0.27499995 0.10780001 -3.3148796E-13 -1 -2.926827E-08 86 86 86 255
0.3577999 0.27499995 0.1222 -3.3148796E-13 -1 -2.926827E-08 86 86 86 255
0.3577999 0.27499995 0.10780001 -3.3148796E-13 -1 -2.926827E-08 86 86 86 255
0.3721999 0.27499995 0.1222 -3.3148796E-13 -1 -2.926827E-08 86 86 86 255
-0.37219998 0.27499995 0.10780001 0.962964 -0.2696299 -6.4363532E-09 86 86 86 255
-0.37499997 0.26499996 0.125 0.962964 -0.2696299 -6.4363532E-09 86 86 86 255
-0.37499997 0.26499996 0.105000004 0.962964 -0.2696299 -6.4363532E-09 86 86 86 255
-0.37219998 0.27499995 0.1222 0.962964 -0.2696299 -6.4363532E-09 86 86 86 255
-0.35779998 0.27499995 0.10780001 -2.8135523E-13 -1 -2.926827E-08 86 86 86 255
-0.37219998 0.27499995 0.1222 -2.8135523E-13 -1 -2.926827E-08 86 86 86 255
-0.37219998 0.27499995 0.10780001 -2.8135523E-13 -1 -2.926827E-08 86 86 86 255
-0.35779998 0.27499995 0.1222 -2.8135523E-13 -1 -2.926827E-08 86 86 86 255
0.37499997 0.26499996 0.125 -0.962964 -0.2696299 -6.4363532E-09 86 86 86 255
0.3721999 0.27499995 0.10780001 -0.962964 -0.2696299 -6.4363532E-09 86 86 86 255
0.37499997 0.26499996 0.105000004 -0.962964 -0.2696299 -6.4363532E-09 86 86 86 255
0.3721999 0.27499995 0.1222 -0.962964 -0.2696299 -6.4363532E-09 86 86 86 255
-0.355 0.26499996 0.105000004 -7.87043E-14 -0.2696299 0.962964 86 86 86 255
-0.37219998 0.27499995 0.10780001 -7.87043E-14 -0.2696299 0.962964 86 86 86 255
-0.37499997 0.26499996 0.105000004 -7.87043E-14 -0.2696299 0.962964 86 86 86 255
-0.35779998 0.27499995 0.10780001 -7.87043E-14 -0.2696299 0.962964 86 86 86 255
0.37000003 -0.057912223 0.095 -1 3.0642158E-13 -0 86 86 86 255
0.37000003 -0.34499994 -0.08345998 -1 3.0642158E-13 -0 86 86 86 255
0.37000003 -0.34499997 0.09499998 -1 3.0642158E-13 -0 86 86 86 255
0.37499997 -0.057912223 0.095 -6.4572833E-21 -2.10732E-08 1 86 86 86 255
0.37000003 -0.34499997 0.09499998 -6.4572833E-21 -2.10732E-08 1 86 86 86 255
0.37499997 -0.34499997 0.09499998 -6.4572833E-21 -2.10732E-08 1 86 86 86 255
0.37000003 -0.057912223 0.095 -6.4572833E-21 -2.10732E-08 1 86 86 86 255
0.37000003 -0.057912223 0.095 1.6177039E-13 0.5279341 -0.8492853 86 86 86 255
0.37499997 -0.34499994 -0.08345998 1.6177039E-13 0.5279341 -0.8492853 86 86 86 255
0.37000003 -0.34499994 -0.08345998 1.6177039E-13 0.5279341 -0.8492853 86 86 86 255
0.37499997 -0.057912223 0.095 1.6177039E-13 0.5279341 -0.8492853 86 86 86 255
0.37499997 -0.34499994 -0.08345998 -3.0642158E-13 -1 -2.10732E-08 86 86 86 255
0.37000003 -0.34499997 0.09499998 -3.0642158E-13 -1 -2.10732E-08 86 86 86 255
0.37000003 -0.34499994 -0.08345998 -3.0642158E-13 -1 -2.10732E-08 86 86 86 255
0.37499997 -0.34499997 0.09499998 -3.0642158E-13 -1 -2.10732E-08 86 86 86 255
3 0 1 2
3 1 0 3
3 4 5 6
3 7 6 5

