ply
format ascii 1.0
commentY29udmVydGVyIGJ5IENvZGVMZW9wYXJk
comment Original mesh name: 'C:\Program Files (x86)\Steam\steamapps\common\Stormworks\rom\meshes\component_velocity_pivot_a.mesh'
comment SubMesh index: 0
comment SubMesh name: 'ID4'
comment Shader: Opaque (0)
element vertex 52
property float x
property float y
property float z
property float nx
property float ny
property float nz
property uchar red
property uchar green
property uchar blue
property uchar alpha
element face 34
property list uchar ushort vertex_index
end_header
-0.11480494 0.27716377 0.125 0 1 -0 84 84 84 255
0.11480494 0.27716377 0.06499999 0 1 -0 84 84 84 255
-0.11480494 0.27716377 0.06499999 0 1 -0 84 84 84 255
0.11480494 0.27716377 0.125 0 1 -0 84 84 84 255
-0.11480494 0.27716377 0.125 -0.70710677 0.70710677 -0 84 84 84 255
-0.27716377 0.11480494 0.06499999 -0.70710677 0.70710677 -0 84 84 84 255
-0.27716377 0.11480494 0.125 -0.70710677 0.70710677 -0 84 84 84 255
-0.11480494 0.27716377 0.06499999 -0.70710677 0.70710677 -0 84 84 84 255
0.11480494 0.27716377 0.125 0.7071066 0.7071069 -0 84 84 84 255
0.27716377 0.11480494 0.06499999 0.7071066 0.7071069 -0 84 84 84 255
0.11480494 0.27716377 0.06499999 0.7071066 0.7071069 -0 84 84 84 255
0.27716377 0.11480494 0.125 0.7071066 0.7071069 -0 84 84 84 255
0.11480494 -0.27716377 0.06499999 0 -0 -1 84 84 84 255
0.27716377 0.11480494 0.06499999 0 -0 -1 84 84 84 255
0.27716377 -0.11480494 0.06499999 0 -0 -1 84 84 84 255
0.11480494 0.27716377 0.06499999 0 -0 -1 84 84 84 255
-0.11480494 -0.27716377 0.06499999 0 -0 -1 84 84 84 255
-0.11480494 0.27716377 0.06499999 0 -0 -1 84 84 84 255
-0.27716377 -0.11480494 0.06499999 0 -0 -1 84 84 84 255
-0.27716377 0.11480494 0.06499999 0 -0 -1 84 84 84 255
-0.27716377 0.11480494 0.125 -1 -0 -0 84 84 84 255
-0.27716377 -0.11480494 0.06499999 -1 -0 -0 84 84 84 255
-0.27716377 -0.11480494 0.125 -1 -0 -0 84 84 84 255
-0.27716377 0.11480494 0.06499999 -1 -0 -0 84 84 84 255
0.27716377 0.11480494 0.06499999 1 -0 -0 84 84 84 255
0.27716377 -0.11480494 0.125 1 -0 -0 84 84 84 255
0.27716377 -0.11480494 0.06499999 1 -0 -0 84 84 84 255
0.27716377 0.11480494 0.125 1 -0 -0 84 84 84 255
-0.27716377 -0.11480494 0.125 -0.7071069 -0.7071066 -0 84 84 84 255
-0.11480494 -0.27716377 0.06499999 -0.7071069 -0.7071066 -0 84 84 84 255
-0.11480494 -0.27716377 0.125 -0.7071069 -0.7071066 -0 84 84 84 255
-0.27716377 -0.11480494 0.06499999 -0.7071069 -0.7071066 -0 84 84 84 255
0.27716377 -0.11480494 0.06499999 0.70710677 -0.70710677 -0 84 84 84 255
0.11480494 -0.27716377 0.125 0.70710677 -0.70710677 -0 84 84 84 255
0.11480494 -0.27716377 0.06499999 0.70710677 -0.70710677 -0 84 84 84 255
0.27716377 -0.11480494 0.125 0.70710677 -0.70710677 -0 84 84 84 255
0.11480494 -0.27716377 0.125 0 -1 -0 84 84 84 255
-0.11480494 -0.27716377 0.06499999 0 -1 -0 84 84 84 255
0.11480494 -0.27716377 0.06499999 0 -1 -0 84 84 84 255
-0.11480494 -0.27716377 0.125 0 -1 -0 84 84 84 255
0.37499997 -0.37499997 0.125 0 -0 -1 255 125 0 255
0.27716377 -0.11480494 0.125 0 -0 -1 255 125 0 255
0.37499997 0.37499997 0.125 0 -0 -1 255 125 0 255
0.11480494 -0.27716377 0.125 0 -0 -1 255 125 0 255
-0.37499997 -0.37499997 0.125 0 -0 -1 255 125 0 255
-0.11480494 -0.27716377 0.125 0 -0 -1 255 125 0 255
-0.27716377 -0.11480494 0.125 0 -0 -1 255 125 0 255
-0.27716377 0.11480494 0.125 0 -0 -1 255 125 0 255
0.11480494 0.27716377 0.125 0 -0 -1 255 125 0 255
-0.37499997 0.37499997 0.125 0 -0 -1 255 125 0 255
0.27716377 0.11480494 0.125 0 -0 -1 255 125 0 255
-0.11480494 0.27716377 0.125 0 -0 -1 255 125 0 255
3 0 1 2
3 1 0 3
3 4 5 6
3 5 4 7
3 8 9 10
3 9 8 11
3 12 13 14
3 13 12 15
3 15 12 16
3 15 16 17
3 17 16 18
3 17 18 19
3 20 21 22
3 21 20 23
3 24 25 26
3 25 24 27
3 28 29 30
3 29 28 31
3 32 33 34
3 33 32 35
3 36 37 38
3 37 36 39
3 40 41 42
3 41 40 43
3 43 40 44
3 43 44 45
3 45 44 46
3 46 44 47
3 42 48 49
3 48 42 50
3 50 42 41
3 49 48 51
3 49 51 47
3 49 47 44

