ply
format ascii 1.0
commentY29udmVydGVyIGJ5IENvZGVMZW9wYXJk
comment Original mesh name: 'C:\Program Files (x86)\Steam\steamapps\common\Stormworks\rom\meshes\component_window_diamond_xl_3x4x5.mesh'
comment SubMesh index: 0
comment SubMesh name: 'ID18'
comment Shader: Opaque (0)
element vertex 64
property float x
property float y
property float z
property float nx
property float ny
property float nz
property uchar red
property uchar green
property uchar blue
property uchar alpha
element face 40
property list uchar ushort vertex_index
end_header
0.8149998 0.37499997 -0.37499997 -1.9999959E-07 2.159996E-07 1 255 125 0 255
0.125 -0.37499997 -0.37499997 -1.9999959E-07 2.159996E-07 1 255 125 0 255
0.8749999 0.37499997 -0.37499997 -1.9999959E-07 2.159996E-07 1 255 125 0 255
0.06499986 -0.37499997 -0.37499997 -1.9999959E-07 2.159996E-07 1 255 125 0 255
0.8749999 0.37499997 -0.37499997 1.380412E-12 -1 1.507226E-12 255 125 0 255
-0.125 0.37499997 0.5649998 1.380412E-12 -1 1.507226E-12 255 125 0 255
0.8149998 0.37499997 -0.37499997 1.380412E-12 -1 1.507226E-12 255 125 0 255
-0.125 0.37499997 0.625 1.380412E-12 -1 1.507226E-12 255 125 0 255
0.8149998 0.37499997 -0.37499997 0.5773502 -0.5773503 0.5773503 255 125 0 255
0.78234005 0.35867006 -0.35867006 0.5773502 -0.5773503 0.5773503 255 125 0 255
0.06499986 -0.37499997 -0.37499997 0.5773502 -0.5773503 0.5773503 255 125 0 255
-0.125 0.37499997 0.5649998 0.5773502 -0.5773503 0.5773503 255 125 0 255
-0.125 0.35867006 0.54866993 0.5773502 -0.5773503 0.5773503 255 125 0 255
0.06499986 -0.35867006 -0.35867006 0.5773502 -0.5773503 0.5773503 255 125 0 255
-0.8749999 -0.37499997 0.5649998 0.5773502 -0.5773503 0.5773503 255 125 0 255
-0.8423401 -0.35867006 0.54866993 0.5773502 -0.5773503 0.5773503 255 125 0 255
-0.8749999 -0.37499997 0.5649998 0 1 -0 255 125 0 255
0.125 -0.37499997 -0.37499997 0 1 -0 255 125 0 255
0.06499986 -0.37499997 -0.37499997 0 1 -0 255 125 0 255
-0.8749999 -0.37499997 0.625 0 1 -0 255 125 0 255
-0.125 0.37499997 0.5649998 0.70710677 -0.70710677 -2.3815726E-13 255 125 0 255
-0.8749999 -0.37499997 0.625 0.70710677 -0.70710677 -2.3815726E-13 255 125 0 255
-0.8749999 -0.37499997 0.5649998 0.70710677 -0.70710677 -2.3815726E-13 255 125 0 255
-0.125 0.37499997 0.625 0.70710677 -0.70710677 -2.3815726E-13 255 125 0 255
0.125 -0.35867006 -0.35867006 2.606075E-09 -1 2.6032259E-09 255 125 0 255
-0.8423401 -0.35867006 0.5786699 2.606075E-09 -1 2.6032259E-09 255 125 0 255
0.09499993 -0.35867006 -0.35867006 2.606075E-09 -1 2.6032259E-09 255 125 0 255
-0.8423401 -0.35867006 0.60867006 2.606075E-09 -1 2.6032259E-09 255 125 0 255
-0.8423401 -0.35867006 0.60867006 -0.70710677 0.70710677 -4.2032893E-09 255 125 0 255
-0.125 0.35867006 0.5786699 -0.70710677 0.70710677 -4.2032893E-09 255 125 0 255
-0.8423401 -0.35867006 0.5786699 -0.70710677 0.70710677 -4.2032893E-09 255 125 0 255
-0.125 0.35867006 0.60867006 -0.70710677 0.70710677 -4.2032893E-09 255 125 0 255
-0.8423401 -0.35867006 0.54866993 2.6091098E-09 -1 2.600191E-09 255 125 0 255
0.06499986 -0.35867006 -0.35867006 2.6091098E-09 -1 2.600191E-09 255 125 0 255
0.125 -0.35867006 -0.35867006 2.0025749E-07 -2.083601E-07 -1 255 125 0 255
0.81234014 0.35867006 -0.35867006 2.0025749E-07 -2.083601E-07 -1 255 125 0 255
0.8423401 0.35867006 -0.35867006 2.0025749E-07 -2.083601E-07 -1 255 125 0 255
0.09499993 -0.35867006 -0.35867006 2.0025749E-07 -2.083601E-07 -1 255 125 0 255
-0.125 0.35867006 0.5786699 2.7885607E-09 1 2.7856477E-09 255 125 0 255
0.8423401 0.35867006 -0.35867006 2.7885607E-09 1 2.7856477E-09 255 125 0 255
0.81234014 0.35867006 -0.35867006 2.7885607E-09 1 2.7856477E-09 255 125 0 255
-0.125 0.35867006 0.60867006 2.7885607E-09 1 2.7856477E-09 255 125 0 255
-0.125 0.35867006 0.54866993 -0.70710677 0.70710677 -4.2032733E-09 255 125 0 255
-0.8423401 -0.35867006 0.54866993 -0.70710677 0.70710677 -4.2032733E-09 255 125 0 255
0.78234005 0.35867006 -0.35867006 2.0025749E-07 -2.245653E-07 -1 255 125 0 255
0.06499986 -0.35867006 -0.35867006 2.0025749E-07 -2.245653E-07 -1 255 125 0 255
-0.125 0.35867006 0.54866993 2.791664E-09 1 2.782545E-09 255 125 0 255
0.78234005 0.35867006 -0.35867006 2.791664E-09 1 2.782545E-09 255 125 0 255
0.125 -0.37499997 -0.37499997 -0.57735026 0.57735026 -0.57735026 55 125 0 255
0.125 -0.35867006 -0.35867006 -0.57735026 0.57735026 -0.57735026 55 125 0 255
0.8749999 0.37499997 -0.37499997 -0.57735026 0.57735026 -0.57735026 55 125 0 255
-0.8749999 -0.37499997 0.625 -0.57735026 0.57735026 -0.57735026 55 125 0 255
-0.8423401 -0.35867006 0.60867006 -0.57735026 0.57735026 -0.57735026 55 125 0 255
-0.125 0.35867006 0.60867006 -0.57735026 0.57735026 -0.57735026 55 125 0 255
0.8423401 0.35867006 -0.35867006 -0.57735026 0.57735026 -0.57735026 55 125 0 255
-0.125 0.37499997 0.625 -0.57735026 0.57735026 -0.57735026 55 125 0 255
-0.125 0.35867006 0.5786699 0.57735026 -0.57735026 0.57735026 160 160 199 128
0.09499993 -0.35867006 -0.35867006 0.57735026 -0.57735026 0.57735026 160 160 199 128
0.81234014 0.35867006 -0.35867006 0.57735026 -0.57735026 0.57735026 160 160 199 128
-0.8423401 -0.35867006 0.5786699 0.57735026 -0.57735026 0.57735026 160 160 199 128
-0.8423401 -0.35867006 0.60867006 -0.57735026 0.57735026 -0.57735026 160 160 199 128
0.8423401 0.35867006 -0.35867006 -0.57735026 0.57735026 -0.57735026 160 160 199 128
0.125 -0.35867006 -0.35867006 -0.57735026 0.57735026 -0.57735026 160 160 199 128
-0.125 0.35867006 0.60867006 -0.57735026 0.57735026 -0.57735026 160 160 199 128
3 0 1 2
3 1 0 3
3 4 5 6
3 5 4 7
3 8 9 10
3 9 8 11
3 9 11 12
3 10 13 14
3 13 10 9
3 14 13 15
3 14 15 12
3 14 12 11
3 16 17 18
3 17 16 19
3 20 21 22
3 21 20 23
3 24 25 26
3 25 24 27
3 28 29 30
3 29 28 31
3 26 32 33
3 32 26 25
3 34 35 36
3 35 34 37
3 38 39 40
3 39 38 41
3 30 42 43
3 42 30 29
3 37 44 35
3 44 37 45
3 46 40 47
3 40 46 38
3 48 49 50
3 49 48 51
3 49 51 52
3 52 51 53
3 50 54 55
3 54 50 49
3 55 54 53
3 55 53 51

