ply
format ascii 1.0
commentY29udmVydGVyIGJ5IENvZGVMZW9wYXJk
comment Original mesh name: 'C:\Program Files (x86)\Steam\steamapps\common\Stormworks\rom\meshes\component_flare_cover.mesh'
comment SubMesh index: 0
comment SubMesh name: 'ID3'
comment Shader: Opaque (0)
element vertex 160
property float x
property float y
property float z
property float nx
property float ny
property float nz
property uchar red
property uchar green
property uchar blue
property uchar alpha
element face 88
property list uchar ushort vertex_index
end_header
0.029353457 0.07086554 -0.094999984 0 -0 1 199 199 199 255
0.07086554 -0.029353457 -0.094999984 0 -0 1 199 199 199 255
0.07086554 0.029353455 -0.094999984 0 -0 1 199 199 199 255
0.029353457 -0.07086554 -0.094999984 0 -0 1 199 199 199 255
-0.029353455 0.07086554 -0.094999984 0 -0 1 199 199 199 255
-0.029353455 -0.07086554 -0.094999984 0 -0 1 199 199 199 255
-0.07086554 -0.029353457 -0.094999984 0 -0 1 199 199 199 255
-0.07086554 0.029353455 -0.094999984 0 -0 1 199 199 199 255
-0.07086554 -0.029353457 0.069000006 0.70710677 0.70710677 -0 199 199 199 255
-0.029353455 -0.07086554 0.125 0.70710677 0.70710677 -0 199 199 199 255
-0.029353455 -0.07086554 0.069000006 0.70710677 0.70710677 -0 199 199 199 255
-0.07086554 -0.029353457 0.125 0.70710677 0.70710677 -0 199 199 199 255
-0.029353455 -0.07086554 0.125 0 1 -0 199 199 199 255
0.029353457 -0.07086554 0.069000006 0 1 -0 199 199 199 255
-0.029353455 -0.07086554 0.069000006 0 1 -0 199 199 199 255
0.029353457 -0.07086554 0.125 0 1 -0 199 199 199 255
-0.07086554 0.029353455 0.069000006 1 -0 -0 199 199 199 255
-0.07086554 -0.029353457 0.125 1 -0 -0 199 199 199 255
-0.07086554 -0.029353457 0.069000006 1 -0 -0 199 199 199 255
-0.07086554 0.029353455 0.125 1 -0 -0 199 199 199 255
0.07086554 -0.029353457 0.125 0 -0 -1 199 199 199 255
0.029353457 0.07086554 0.125 0 -0 -1 199 199 199 255
0.07086554 0.029353455 0.125 0 -0 -1 199 199 199 255
0.029353457 -0.07086554 0.125 0 -0 -1 199 199 199 255
-0.029353455 -0.07086554 0.125 0 -0 -1 199 199 199 255
-0.029353455 0.07086554 0.125 0 -0 -1 199 199 199 255
-0.07086554 -0.029353457 0.125 0 -0 -1 199 199 199 255
-0.07086554 0.029353455 0.125 0 -0 -1 199 199 199 255
-0.07086554 -0.029353457 0.125 0.6736813 0.6736813 -0.3038206 199 199 199 255
-0.024069846 -0.058109745 0.16499999 0.6736813 0.6736813 -0.3038206 199 199 199 255
-0.029353455 -0.07086554 0.125 0.6736813 0.6736813 -0.3038206 199 199 199 255
-0.058109727 -0.024069851 0.16499999 0.6736813 0.6736813 -0.3038206 199 199 199 255
0.07086554 -0.029353457 0.125 -0.70710677 0.70710677 -0 199 199 199 255
0.029353457 -0.07086554 0.069000006 -0.70710677 0.70710677 -0 199 199 199 255
0.029353457 -0.07086554 0.125 -0.70710677 0.70710677 -0 199 199 199 255
0.07086554 -0.029353457 0.069000006 -0.70710677 0.70710677 -0 199 199 199 255
-0.024069846 -0.058109745 0.16499999 -3.4722147E-19 0.9527293 -0.3038206 199 199 199 255
0.029353457 -0.07086554 0.125 -3.4722147E-19 0.9527293 -0.3038206 199 199 199 255
-0.029353455 -0.07086554 0.125 -3.4722147E-19 0.9527293 -0.3038206 199 199 199 255
0.024069851 -0.058109745 0.16499999 -3.4722147E-19 0.9527293 -0.3038206 199 199 199 255
-0.029353455 0.07086554 0.069000006 0.70710677 -0.70710677 -0 199 199 199 255
-0.07086554 0.029353455 0.125 0.70710677 -0.70710677 -0 199 199 199 255
-0.07086554 0.029353455 0.069000006 0.70710677 -0.70710677 -0 199 199 199 255
-0.029353455 0.07086554 0.125 0.70710677 -0.70710677 -0 199 199 199 255
-0.07086554 0.029353455 0.125 0.9527293 -3.593892E-18 -0.3038206 199 199 199 255
-0.058109727 -0.024069851 0.16499999 0.9527293 -3.593892E-18 -0.3038206 199 199 199 255
-0.07086554 -0.029353457 0.125 0.9527293 -3.593892E-18 -0.3038206 199 199 199 255
-0.058109727 0.024069846 0.16499999 0.9527293 -3.593892E-18 -0.3038206 199 199 199 255
0.029353457 0.07086554 0.125 -0.70710677 -0.70710677 -0 199 199 199 255
0.07086554 0.029353455 0.069000006 -0.70710677 -0.70710677 -0 199 199 199 255
0.07086554 0.029353455 0.125 -0.70710677 -0.70710677 -0 199 199 199 255
0.029353457 0.07086554 0.069000006 -0.70710677 -0.70710677 -0 199 199 199 255
0.07086554 0.029353455 0.125 -1 2.459373E-14 -0 199 199 199 255
0.07086554 -0.029353457 0.069000006 -1 2.459373E-14 -0 199 199 199 255
0.07086554 -0.029353457 0.125 -1 2.459373E-14 -0 199 199 199 255
0.07086554 0.029353455 0.069000006 -1 2.459373E-14 -0 199 199 199 255
0.029353457 0.07086554 0.125 -1.2296869E-14 -1 -0 199 199 199 255
-0.029353455 0.07086554 0.069000006 -1.2296869E-14 -1 -0 199 199 199 255
0.029353457 0.07086554 0.069000006 -1.2296869E-14 -1 -0 199 199 199 255
-0.029353455 0.07086554 0.125 -1.2296869E-14 -1 -0 199 199 199 255
-0.024069846 -0.058109745 0.16499999 0.4009336 0.4009336 -0.8237139 199 199 199 255
-0.029054884 -0.012034928 0.18499994 0.4009336 0.4009336 -0.8237139 199 199 199 255
-0.012034923 -0.02905488 0.18499994 0.4009336 0.4009336 -0.8237139 199 199 199 255
-0.058109727 -0.024069851 0.16499999 0.4009336 0.4009336 -0.8237139 199 199 199 255
0.024069851 -0.058109745 0.16499999 -0.6736813 0.6736813 -0.3038206 199 199 199 255
0.07086554 -0.029353457 0.125 -0.6736813 0.6736813 -0.3038206 199 199 199 255
0.029353457 -0.07086554 0.125 -0.6736813 0.6736813 -0.3038206 199 199 199 255
0.058109745 -0.024069851 0.16499999 -0.6736813 0.6736813 -0.3038206 199 199 199 255
-0.024069846 -0.058109745 0.16499999 7.631221E-18 0.5670057 -0.8237139 199 199 199 255
0.012034928 -0.02905488 0.18499994 7.631221E-18 0.5670057 -0.8237139 199 199 199 255
0.024069851 -0.058109745 0.16499999 7.631221E-18 0.5670057 -0.8237139 199 199 199 255
-0.012034923 -0.02905488 0.18499994 7.631221E-18 0.5670057 -0.8237139 199 199 199 255
-0.07086554 0.029353455 0.125 0.6736813 -0.6736813 -0.3038206 199 199 199 255
-0.024069846 0.058109727 0.16499999 0.6736813 -0.6736813 -0.3038206 199 199 199 255
-0.058109727 0.024069846 0.16499999 0.6736813 -0.6736813 -0.3038206 199 199 199 255
-0.029353455 0.07086554 0.125 0.6736813 -0.6736813 -0.3038206 199 199 199 255
-0.058109727 -0.024069851 0.16499999 0.5670057 -1.263088E-18 -0.8237139 199 199 199 255
-0.029054884 0.012034923 0.18499994 0.5670057 -1.263088E-18 -0.8237139 199 199 199 255
-0.029054884 -0.012034928 0.18499994 0.5670057 -1.263088E-18 -0.8237139 199 199 199 255
-0.058109727 0.024069846 0.16499999 0.5670057 -1.263088E-18 -0.8237139 199 199 199 255
0.058109745 0.024069846 0.16499999 -0.6736813 -0.6736813 -0.3038206 199 199 199 255
0.029353457 0.07086554 0.125 -0.6736813 -0.6736813 -0.3038206 199 199 199 255
0.07086554 0.029353455 0.125 -0.6736813 -0.6736813 -0.3038206 199 199 199 255
0.024069851 0.058109727 0.16499999 -0.6736813 -0.6736813 -0.3038206 199 199 199 255
0.058109745 -0.024069851 0.16499999 -0.9527293 1.9753679E-14 -0.3038206 199 199 199 255
0.07086554 0.029353455 0.125 -0.9527293 1.9753679E-14 -0.3038206 199 199 199 255
0.07086554 -0.029353457 0.125 -0.9527293 1.9753679E-14 -0.3038206 199 199 199 255
0.058109745 0.024069846 0.16499999 -0.9527293 1.9753679E-14 -0.3038206 199 199 199 255
0.024069851 0.058109727 0.16499999 -1.275134E-14 -0.9527293 -0.3038206 199 199 199 255
-0.029353455 0.07086554 0.125 -1.275134E-14 -0.9527293 -0.3038206 199 199 199 255
0.029353457 0.07086554 0.125 -1.275134E-14 -0.9527293 -0.3038206 199 199 199 255
-0.024069846 0.058109727 0.16499999 -1.275134E-14 -0.9527293 -0.3038206 199 199 199 255
0.012034928 -0.02905488 0.18499994 0 -0 -1 199 199 199 255
0.02905488 0.012034923 0.18499994 0 -0 -1 199 199 199 255
0.02905488 -0.012034928 0.18499994 0 -0 -1 199 199 199 255
0.012034928 0.029054884 0.18499994 0 -0 -1 199 199 199 255
-0.012034923 -0.02905488 0.18499994 0 -0 -1 199 199 199 255
-0.012034923 0.029054884 0.18499994 0 -0 -1 199 199 199 255
-0.029054884 -0.012034928 0.18499994 0 -0 -1 199 199 199 255
-0.029054884 0.012034923 0.18499994 0 -0 -1 199 199 199 255
0.024069851 -0.058109745 0.16499999 -0.4009336 0.4009336 -0.8237139 199 199 199 255
0.02905488 -0.012034928 0.18499994 -0.4009336 0.4009336 -0.8237139 199 199 199 255
0.058109745 -0.024069851 0.16499999 -0.4009336 0.4009336 -0.8237139 199 199 199 255
0.012034928 -0.02905488 0.18499994 -0.4009336 0.4009336 -0.8237139 199 199 199 255
-0.029054884 0.012034923 0.18499994 0.4009336 -0.4009336 -0.8237139 199 199 199 255
-0.024069846 0.058109727 0.16499999 0.4009336 -0.4009336 -0.8237139 199 199 199 255
-0.012034923 0.029054884 0.18499994 0.4009336 -0.4009336 -0.8237139 199 199 199 255
-0.058109727 0.024069846 0.16499999 0.4009336 -0.4009336 -0.8237139 199 199 199 255
0.02905488 0.012034923 0.18499994 -0.4009336 -0.4009336 -0.8237139 199 199 199 255
0.024069851 0.058109727 0.16499999 -0.4009336 -0.4009336 -0.8237139 199 199 199 255
0.058109745 0.024069846 0.16499999 -0.4009336 -0.4009336 -0.8237139 199 199 199 255
0.012034928 0.029054884 0.18499994 -0.4009336 -0.4009336 -0.8237139 199 199 199 255
0.058109745 -0.024069851 0.16499999 -0.5670057 6.808638E-15 -0.8237139 199 199 199 255
0.02905488 0.012034923 0.18499994 -0.5670057 6.808638E-15 -0.8237139 199 199 199 255
0.058109745 0.024069846 0.16499999 -0.5670057 6.808638E-15 -0.8237139 199 199 199 255
0.02905488 -0.012034928 0.18499994 -0.5670057 6.808638E-15 -0.8237139 199 199 199 255
0.012034928 0.029054884 0.18499994 -6.8060753E-15 -0.5670057 -0.8237139 199 199 199 255
-0.024069846 0.058109727 0.16499999 -6.8060753E-15 -0.5670057 -0.8237139 199 199 199 255
0.024069851 0.058109727 0.16499999 -6.8060753E-15 -0.5670057 -0.8237139 199 199 199 255
-0.012034923 0.029054884 0.18499994 -6.8060753E-15 -0.5670057 -0.8237139 199 199 199 255
0.029353457 0.07086554 0.069000006 0 -0 1 58 58 58 255
0.07086554 -0.029353457 0.069000006 0 -0 1 58 58 58 255
0.07086554 0.029353455 0.069000006 0 -0 1 58 58 58 255
0.029353457 -0.07086554 0.069000006 0 -0 1 58 58 58 255
-0.029353455 0.07086554 0.069000006 0 -0 1 58 58 58 255
-0.029353455 -0.07086554 0.069000006 0 -0 1 58 58 58 255
-0.07086554 -0.029353457 0.069000006 0 -0 1 58 58 58 255
-0.07086554 0.029353455 0.069000006 0 -0 1 58 58 58 255
0.07086554 0.029353455 0.069000006 -1 2.459373E-14 -0 58 58 58 255
0.07086554 -0.029353457 -0.094999984 -1 2.459373E-14 -0 58 58 58 255
0.07086554 -0.029353457 0.069000006 -1 2.459373E-14 -0 58 58 58 255
0.07086554 0.029353455 -0.094999984 -1 2.459373E-14 -0 58 58 58 255
0.07086554 -0.029353457 0.069000006 -0.70710677 0.70710677 -0 58 58 58 255
0.029353457 -0.07086554 -0.094999984 -0.70710677 0.70710677 -0 58 58 58 255
0.029353457 -0.07086554 0.069000006 -0.70710677 0.70710677 -0 58 58 58 255
0.07086554 -0.029353457 -0.094999984 -0.70710677 0.70710677 -0 58 58 58 255
0.029353457 0.07086554 0.069000006 -0.70710677 -0.70710677 -0 58 58 58 255
0.07086554 0.029353455 -0.094999984 -0.70710677 -0.70710677 -0 58 58 58 255
0.07086554 0.029353455 0.069000006 -0.70710677 -0.70710677 -0 58 58 58 255
0.029353457 0.07086554 -0.094999984 -0.70710677 -0.70710677 -0 58 58 58 255
-0.029353455 -0.07086554 0.069000006 0 1 -0 58 58 58 255
0.029353457 -0.07086554 -0.094999984 0 1 -0 58 58 58 255
-0.029353455 -0.07086554 -0.094999984 0 1 -0 58 58 58 255
0.029353457 -0.07086554 0.069000006 0 1 -0 58 58 58 255
0.029353457 0.07086554 0.069000006 -1.2296869E-14 -1 -0 58 58 58 255
-0.029353455 0.07086554 -0.094999984 -1.2296869E-14 -1 -0 58 58 58 255
0.029353457 0.07086554 -0.094999984 -1.2296869E-14 -1 -0 58 58 58 255
-0.029353455 0.07086554 0.069000006 -1.2296869E-14 -1 -0 58 58 58 255
-0.07086554 -0.029353457 -0.094999984 0.70710677 0.70710677 -0 58 58 58 255
-0.029353455 -0.07086554 0.069000006 0.70710677 0.70710677 -0 58 58 58 255
-0.029353455 -0.07086554 -0.094999984 0.70710677 0.70710677 -0 58 58 58 255
-0.07086554 -0.029353457 0.069000006 0.70710677 0.70710677 -0 58 58 58 255
-0.029353455 0.07086554 -0.094999984 0.70710677 -0.70710677 -0 58 58 58 255
-0.07086554 0.029353455 0.069000006 0.70710677 -0.70710677 -0 58 58 58 255
-0.07086554 0.029353455 -0.094999984 0.70710677 -0.70710677 -0 58 58 58 255
-0.029353455 0.07086554 0.069000006 0.70710677 -0.70710677 -0 58 58 58 255
-0.07086554 0.029353455 -0.094999984 1 -0 -0 58 58 58 255
-0.07086554 -0.029353457 0.069000006 1 -0 -0 58 58 58 255
-0.07086554 -0.029353457 -0.094999984 1 -0 -0 58 58 58 255
-0.07086554 0.029353455 0.069000006 1 -0 -0 58 58 58 255
3 0 1 2
3 1 0 3
3 3 0 4
3 3 4 5
3 5 4 6
3 6 4 7
3 8 9 10
3 9 8 11
3 12 13 14
3 13 12 15
3 16 17 18
3 17 16 19
3 20 21 22
3 21 20 23
3 21 23 24
3 21 24 25
3 25 24 26
3 25 26 27
3 28 29 30
3 29 28 31
3 32 33 34
3 33 32 35
3 36 37 38
3 37 36 39
3 40 41 42
3 41 40 43
3 44 45 46
3 45 44 47
3 48 49 50
3 49 48 51
3 52 53 54
3 53 52 55
3 56 57 58
3 57 56 59
3 60 61 62
3 61 60 63
3 64 65 66
3 65 64 67
3 68 69 70
3 69 68 71
3 72 73 74
3 73 72 75
3 76 77 78
3 77 76 79
3 80 81 82
3 81 80 83
3 84 85 86
3 85 84 87
3 88 89 90
3 89 88 91
3 92 93 94
3 93 92 95
3 95 92 96
3 95 96 97
3 97 96 98
3 97 98 99
3 100 101 102
3 101 100 103
3 104 105 106
3 105 104 107
3 108 109 110
3 109 108 111
3 112 113 114
3 113 112 115
3 116 117 118
3 117 116 119
3 120 121 122
3 121 120 123
3 123 120 124
3 123 124 125
3 125 124 126
3 126 124 127
3 128 129 130
3 129 128 131
3 132 133 134
3 133 132 135
3 136 137 138
3 137 136 139
3 140 141 142
3 141 140 143
3 144 145 146
3 145 144 147
3 148 149 150
3 149 148 151
3 152 153 154
3 153 152 155
3 156 157 158
3 157 156 159

