ply
format ascii 1.0
commentY29udmVydGVyIGJ5IENvZGVMZW9wYXJk
comment Original mesh name: 'C:\Program Files (x86)\Steam\steamapps\common\Stormworks\rom\meshes\component_laser_detection.mesh'
comment SubMesh index: 0
comment SubMesh name: 'ID28'
comment Shader: Transparent (1)
element vertex 84
property float x
property float y
property float z
property float nx
property float ny
property float nz
property uchar red
property uchar green
property uchar blue
property uchar alpha
element face 12
property list uchar ushort vertex_index
end_header
0.03955115 -0.09548492 0.355 3.460009E-17 -5.7588063E-15 -1 160 160 199 128
0.09548494 0.039551176 0.355 3.460009E-17 -5.7588063E-15 -1 160 160 199 128
0.09548494 -0.03955115 0.355 3.460009E-17 -5.7588063E-15 -1 160 160 199 128
0.039551176 0.09548494 0.355 3.460009E-17 -5.7588063E-15 -1 160 160 199 128
-0.03955115 0.09548494 0.355 3.460009E-17 -5.7588063E-15 -1 160 160 199 128
-0.03955115 -0.09548494 0.355 3.460009E-17 -5.7588063E-15 -1 160 160 199 128
-0.09548492 -0.039551128 0.355 3.460009E-17 -5.7588063E-15 -1 160 160 199 128
-0.09548494 0.039551176 0.355 3.460009E-17 -5.7588063E-15 -1 160 160 199 128
-0.09548494 0.039551176 0.355 -3.460009E-17 5.7588063E-15 1 160 160 199 128
-0.09548492 -0.039551128 0.355 -3.460009E-17 5.7588063E-15 1 160 160 199 128
-0.03955115 0.09548494 0.355 -3.460009E-17 5.7588063E-15 1 160 160 199 128
-0.03955115 -0.09548494 0.355 -3.460009E-17 5.7588063E-15 1 160 160 199 128
0.03955115 -0.09548492 0.355 -3.460009E-17 5.7588063E-15 1 160 160 199 128
0.039551176 0.09548494 0.355 -3.460009E-17 5.7588063E-15 1 160 160 199 128
0.09548494 0.039551176 0.355 -3.460009E-17 5.7588063E-15 1 160 160 199 128
0.09548494 -0.03955115 0.355 -3.460009E-17 5.7588063E-15 1 160 160 199 128
0.017638015 -0.04258193 0.333 0 -0 -1 30 30 30 255
0.04258193 0.017638015 0.333 0 -0 -1 30 30 30 255
0.04258193 -0.017638015 0.333 0 -0 -1 30 30 30 255
0.017638015 0.04258193 0.333 0 -0 -1 30 30 30 255
-0.017638015 -0.04258193 0.333 0 -0 -1 30 30 30 255
-0.017638015 0.04258193 0.333 0 -0 -1 30 30 30 255
-0.04258193 -0.017638015 0.333 0 -0 -1 30 30 30 255
-0.04258193 0.017638015 0.333 0 -0 -1 30 30 30 255
0.03955115 -0.09548494 0.375 0 -1 -0 84 84 84 255
-0.03955115 -0.09548494 0.333 0 -1 -0 84 84 84 255
0.03955115 -0.09548494 0.333 0 -1 -0 84 84 84 255
-0.03955115 -0.09548494 0.375 0 -1 -0 84 84 84 255
0.09548494 -0.03955115 0.333 0.70710677 -0.70710677 -0 84 84 84 255
0.03955115 -0.09548494 0.375 0.70710677 -0.70710677 -0 84 84 84 255
0.03955115 -0.09548494 0.333 0.70710677 -0.70710677 -0 84 84 84 255
0.09548494 -0.03955115 0.375 0.70710677 -0.70710677 -0 84 84 84 255
-0.09548494 -0.03955115 0.375 -0.70710677 -0.70710677 5.67199E-17 84 84 84 255
-0.03955115 -0.09548494 0.333 -0.70710677 -0.70710677 5.67199E-17 84 84 84 255
-0.03955115 -0.09548494 0.375 -0.70710677 -0.70710677 5.67199E-17 84 84 84 255
-0.09548494 -0.03955115 0.333 -0.70710677 -0.70710677 5.67199E-17 84 84 84 255
0.03955115 -0.09548494 0.333 -1.05239E-32 -5.611445E-32 -1 84 84 84 255
0.09548494 0.03955115 0.333 -1.05239E-32 -5.611445E-32 -1 84 84 84 255
0.09548494 -0.03955115 0.333 -1.05239E-32 -5.611445E-32 -1 84 84 84 255
0.04258193 -0.017638015 0.333 -1.05239E-32 -5.611445E-32 -1 84 84 84 255
0.017638015 -0.04258193 0.333 -1.05239E-32 -5.611445E-32 -1 84 84 84 255
-0.03955115 -0.09548494 0.333 -1.05239E-32 -5.611445E-32 -1 84 84 84 255
-0.017638015 -0.04258193 0.333 -1.05239E-32 -5.611445E-32 -1 84 84 84 255
-0.04258193 -0.017638015 0.333 -1.05239E-32 -5.611445E-32 -1 84 84 84 255
-0.09548494 -0.03955115 0.333 -1.05239E-32 -5.611445E-32 -1 84 84 84 255
-0.04258193 0.017638015 0.333 -1.05239E-32 -5.611445E-32 -1 84 84 84 255
0.04258193 0.017638015 0.333 -1.05239E-32 -5.611445E-32 -1 84 84 84 255
0.03955115 0.09548494 0.333 -1.05239E-32 -5.611445E-32 -1 84 84 84 255
0.017638015 0.04258193 0.333 -1.05239E-32 -5.611445E-32 -1 84 84 84 255
-0.03955115 0.09548494 0.333 -1.05239E-32 -5.611445E-32 -1 84 84 84 255
-0.017638015 0.04258193 0.333 -1.05239E-32 -5.611445E-32 -1 84 84 84 255
-0.09548494 0.03955115 0.333 -1.05239E-32 -5.611445E-32 -1 84 84 84 255
0.09548494 0.03955115 0.333 1 -0 -0 84 84 84 255
0.09548494 -0.03955115 0.375 1 -0 -0 84 84 84 255
0.09548494 -0.03955115 0.333 1 -0 -0 84 84 84 255
0.09548494 0.03955115 0.375 1 -0 -0 84 84 84 255
-0.09548494 0.03955115 0.375 -1 -0 -0 84 84 84 255
-0.09548494 -0.03955115 0.333 -1 -0 -0 84 84 84 255
-0.09548494 -0.03955115 0.375 -1 -0 -0 84 84 84 255
-0.09548494 0.03955115 0.333 -1 -0 -0 84 84 84 255
-0.03955115 0.09548494 0.375 -0.70710677 0.70710677 -2.8690366E-17 84 84 84 255
-0.09548494 0.03955115 0.333 -0.70710677 0.70710677 -2.8690366E-17 84 84 84 255
-0.09548494 0.03955115 0.375 -0.70710677 0.70710677 -2.8690366E-17 84 84 84 255
-0.03955115 0.09548494 0.333 -0.70710677 0.70710677 -2.8690366E-17 84 84 84 255
-0.03955115 0.09548494 0.375 0 1 -0 84 84 84 255
0.03955115 0.09548494 0.333 0 1 -0 84 84 84 255
-0.03955115 0.09548494 0.333 0 1 -0 84 84 84 255
0.03955115 0.09548494 0.375 0 1 -0 84 84 84 255
0.03955115 0.09548494 0.333 0.70710677 0.70710677 -0 84 84 84 255
0.09548494 0.03955115 0.375 0.70710677 0.70710677 -0 84 84 84 255
0.09548494 0.03955115 0.333 0.70710677 0.70710677 -0 84 84 84 255
0.03955115 0.09548494 0.375 0.70710677 0.70710677 -0 84 84 84 255
0.125 -0.125 0.375 0 -0 -1 255 125 0 255
0.09548494 -0.03955115 0.375 0 -0 -1 255 125 0 255
0.125 0.125 0.375 0 -0 -1 255 125 0 255
0.03955115 -0.09548494 0.375 0 -0 -1 255 125 0 255
-0.125 -0.125 0.375 0 -0 -1 255 125 0 255
-0.03955115 -0.09548494 0.375 0 -0 -1 255 125 0 255
-0.09548494 -0.03955115 0.375 0 -0 -1 255 125 0 255
-0.09548494 0.03955115 0.375 0 -0 -1 255 125 0 255
0.03955115 0.09548494 0.375 0 -0 -1 255 125 0 255
-0.125 0.125 0.375 0 -0 -1 255 125 0 255
0.09548494 0.03955115 0.375 0 -0 -1 255 125 0 255
-0.03955115 0.09548494 0.375 0 -0 -1 255 125 0 255
3 0 1 2
3 1 0 3
3 3 0 4
3 4 0 5
3 4 5 6
3 4 6 7
3 8 9 10
3 9 11 10
3 11 12 10
3 10 12 13
3 13 12 14
3 15 14 12

