ply
format ascii 1.0
commentY29udmVydGVyIGJ5IENvZGVMZW9wYXJk
comment Original mesh name: 'C:\Program Files (x86)\Steam\steamapps\common\Stormworks\rom\meshes\component_warhead_medium.mesh'
comment SubMesh index: 0
comment SubMesh name: 'ID2'
comment Shader: Opaque (0)
element vertex 176
property float x
property float y
property float z
property float nx
property float ny
property float nz
property uchar red
property uchar green
property uchar blue
property uchar alpha
element face 92
property list uchar ushort vertex_index
end_header
-0.22949998 -0.38250008 0.93660986 0.3174646 0.3174646 -0.8935505 84 84 84 255
-0.057805084 -0.023943651 1.125 0.3174646 0.3174646 -0.8935505 84 84 84 255
-0.023943651 -0.057805084 1.125 0.3174646 0.3174646 -0.8935505 84 84 84 255
-0.38250008 -0.22949998 0.93660986 0.3174646 0.3174646 -0.8935505 84 84 84 255
-0.33749995 -0.5625 0.71422 0.5214927 0.5214927 -0.6753449 84 84 84 255
-0.38250008 -0.22949998 0.93660986 0.5214927 0.5214927 -0.6753449 84 84 84 255
-0.22949998 -0.38250008 0.93660986 0.5214927 0.5214927 -0.6753449 84 84 84 255
-0.5625 -0.33749995 0.71422 0.5214927 0.5214927 -0.6753449 84 84 84 255
-0.38250008 -0.22949998 0.93660986 0.50185156 5.1237056E-18 -0.8649537 84 84 84 255
-0.057805084 0.023943651 1.125 0.50185156 5.1237056E-18 -0.8649537 84 84 84 255
-0.057805084 -0.023943651 1.125 0.50185156 5.1237056E-18 -0.8649537 84 84 84 255
-0.38250008 0.22949998 0.93660986 0.50185156 5.1237056E-18 -0.8649537 84 84 84 255
0.023943651 -0.057805084 1.125 -5.519285E-16 -1.332473E-15 -1 84 84 84 255
0.057805084 0.023943651 1.125 -5.519285E-16 -1.332473E-15 -1 84 84 84 255
0.057805084 -0.023943651 1.125 -5.519285E-16 -1.332473E-15 -1 84 84 84 255
0.023943651 0.057805084 1.125 -5.519285E-16 -1.332473E-15 -1 84 84 84 255
-0.023943651 -0.057805084 1.125 -5.519285E-16 -1.332473E-15 -1 84 84 84 255
-0.023943651 0.057805084 1.125 -5.519285E-16 -1.332473E-15 -1 84 84 84 255
-0.057805084 -0.023943651 1.125 -5.519285E-16 -1.332473E-15 -1 84 84 84 255
-0.057805084 0.023943651 1.125 -5.519285E-16 -1.332473E-15 -1 84 84 84 255
-0.22949998 -0.38250008 0.93660986 -1.1211349E-16 0.50185156 -0.8649537 84 84 84 255
0.023943651 -0.057805084 1.125 -1.1211349E-16 0.50185156 -0.8649537 84 84 84 255
0.22949998 -0.38250008 0.93660986 -1.1211349E-16 0.50185156 -0.8649537 84 84 84 255
-0.023943651 -0.057805084 1.125 -1.1211349E-16 0.50185156 -0.8649537 84 84 84 255
-0.5625 0.33749995 0.71422 0.777296 -1.5837549E-17 -0.62913495 84 84 84 255
-0.38250008 -0.22949998 0.93660986 0.777296 -1.5837549E-17 -0.62913495 84 84 84 255
-0.5625 -0.33749995 0.71422 0.777296 -1.5837549E-17 -0.62913495 84 84 84 255
-0.38250008 0.22949998 0.93660986 0.777296 -1.5837549E-17 -0.62913495 84 84 84 255
-0.22949998 -0.38250008 0.93660986 -3.5147347E-18 0.777296 -0.62913495 84 84 84 255
0.33749995 -0.5625 0.71422 -3.5147347E-18 0.777296 -0.62913495 84 84 84 255
-0.33749995 -0.5625 0.71422 -3.5147347E-18 0.777296 -0.62913495 84 84 84 255
0.22949998 -0.38250008 0.93660986 -3.5147347E-18 0.777296 -0.62913495 84 84 84 255
-0.057805084 0.023943651 1.125 0.3174646 -0.3174646 -0.8935505 84 84 84 255
-0.22949998 0.38250008 0.93660986 0.3174646 -0.3174646 -0.8935505 84 84 84 255
-0.023943651 0.057805084 1.125 0.3174646 -0.3174646 -0.8935505 84 84 84 255
-0.38250008 0.22949998 0.93660986 0.3174646 -0.3174646 -0.8935505 84 84 84 255
0.023943651 0.057805084 1.125 1.1297357E-17 -0.50185156 -0.8649537 84 84 84 255
-0.22949998 0.38250008 0.93660986 1.1297357E-17 -0.50185156 -0.8649537 84 84 84 255
0.22949998 0.38250008 0.93660986 1.1297357E-17 -0.50185156 -0.8649537 84 84 84 255
-0.023943651 0.057805084 1.125 1.1297357E-17 -0.50185156 -0.8649537 84 84 84 255
0.057805084 0.023943651 1.125 -0.3174646 -0.3174646 -0.8935505 84 84 84 255
0.22949998 0.38250008 0.93660986 -0.3174646 -0.3174646 -0.8935505 84 84 84 255
0.38250008 0.22949998 0.93660986 -0.3174646 -0.3174646 -0.8935505 84 84 84 255
0.023943651 0.057805084 1.125 -0.3174646 -0.3174646 -0.8935505 84 84 84 255
0.057805084 -0.023943651 1.125 -0.50185156 -3.8287127E-17 -0.8649537 84 84 84 255
0.38250008 0.22949998 0.93660986 -0.50185156 -3.8287127E-17 -0.8649537 84 84 84 255
0.38250008 -0.22949998 0.93660986 -0.50185156 -3.8287127E-17 -0.8649537 84 84 84 255
0.057805084 0.023943651 1.125 -0.50185156 -3.8287127E-17 -0.8649537 84 84 84 255
0.22949998 -0.38250008 0.93660986 -0.3174646 0.3174646 -0.8935505 84 84 84 255
0.057805084 -0.023943651 1.125 -0.3174646 0.3174646 -0.8935505 84 84 84 255
0.38250008 -0.22949998 0.93660986 -0.3174646 0.3174646 -0.8935505 84 84 84 255
0.023943651 -0.057805084 1.125 -0.3174646 0.3174646 -0.8935505 84 84 84 255
-0.38250008 0.22949998 0.93660986 0.5214927 -0.5214927 -0.6753449 84 84 84 255
-0.33749995 0.5625 0.71422 0.5214927 -0.5214927 -0.6753449 84 84 84 255
-0.22949998 0.38250008 0.93660986 0.5214927 -0.5214927 -0.6753449 84 84 84 255
-0.5625 0.33749995 0.71422 0.5214927 -0.5214927 -0.6753449 84 84 84 255
0.33749995 -0.5625 0.71422 -0.5214927 0.5214927 -0.6753449 84 84 84 255
0.38250008 -0.22949998 0.93660986 -0.5214927 0.5214927 -0.6753449 84 84 84 255
0.5625 -0.33749995 0.71422 -0.5214927 0.5214927 -0.6753449 84 84 84 255
0.22949998 -0.38250008 0.93660986 -0.5214927 0.5214927 -0.6753449 84 84 84 255
0.22949998 0.38250008 0.93660986 -3.5147347E-18 -0.777296 -0.62913495 84 84 84 255
-0.33749995 0.5625 0.71422 -3.5147347E-18 -0.777296 -0.62913495 84 84 84 255
0.33749995 0.5625 0.71422 -3.5147347E-18 -0.777296 -0.62913495 84 84 84 255
-0.22949998 0.38250008 0.93660986 -3.5147347E-18 -0.777296 -0.62913495 84 84 84 255
0.38250008 0.22949998 0.93660986 -0.5214927 -0.5214927 -0.6753449 84 84 84 255
0.33749995 0.5625 0.71422 -0.5214927 -0.5214927 -0.6753449 84 84 84 255
0.5625 0.33749995 0.71422 -0.5214927 -0.5214927 -0.6753449 84 84 84 255
0.22949998 0.38250008 0.93660986 -0.5214927 -0.5214927 -0.6753449 84 84 84 255
0.38250008 -0.22949998 0.93660986 -0.777296 -5.1420715E-18 -0.62913495 84 84 84 255
0.5625 0.33749995 0.71422 -0.777296 -5.1420715E-18 -0.62913495 84 84 84 255
0.5625 -0.33749995 0.71422 -0.777296 -5.1420715E-18 -0.62913495 84 84 84 255
0.38250008 0.22949998 0.93660986 -0.777296 -5.1420715E-18 -0.62913495 84 84 84 255
0.33749995 0.5625 0.71422 1.101682E-18 -0.97224456 -0.2339666 255 255 255 255
-0.37499997 0.625 0.45450222 1.101682E-18 -0.97224456 -0.2339666 255 255 255 255
0.37499997 0.625 0.45450222 1.101682E-18 -0.97224456 -0.2339666 255 255 255 255
-0.33749995 0.5625 0.71422 1.101682E-18 -0.97224456 -0.2339666 255 255 255 255
0.5625 0.33749995 0.71422 -0.68227196 -0.68227196 -0.26269737 255 255 255 255
0.37499997 0.625 0.45450222 -0.68227196 -0.68227196 -0.26269737 255 255 255 255
0.625 0.37499997 0.45450222 -0.68227196 -0.68227196 -0.26269737 255 255 255 255
0.33749995 0.5625 0.71422 -0.68227196 -0.68227196 -0.26269737 255 255 255 255
-0.33749995 0.5625 0.71422 0.68227196 -0.68227196 -0.26269737 255 255 255 255
-0.625 0.37499997 0.45450222 0.68227196 -0.68227196 -0.26269737 255 255 255 255
-0.37499997 0.625 0.45450222 0.68227196 -0.68227196 -0.26269737 255 255 255 255
-0.5625 0.33749995 0.71422 0.68227196 -0.68227196 -0.26269737 255 255 255 255
0.5625 -0.33749995 0.71422 -0.97224456 2.5758272E-18 -0.2339666 255 255 255 255
0.625 0.37499997 0.45450222 -0.97224456 2.5758272E-18 -0.2339666 255 255 255 255
0.625 -0.37499997 0.45450222 -0.97224456 2.5758272E-18 -0.2339666 255 255 255 255
0.5625 0.33749995 0.71422 -0.97224456 2.5758272E-18 -0.2339666 255 255 255 255
-0.625 0.37499997 0.45450222 0.97224456 2.5758272E-18 -0.2339666 255 255 255 255
-0.5625 -0.33749995 0.71422 0.97224456 2.5758272E-18 -0.2339666 255 255 255 255
-0.625 -0.37499997 0.45450222 0.97224456 2.5758272E-18 -0.2339666 255 255 255 255
-0.5625 0.33749995 0.71422 0.97224456 2.5758272E-18 -0.2339666 255 255 255 255
0.33749995 -0.5625 0.71422 -0.68227196 0.68227196 -0.26269737 255 255 255 255
0.625 -0.37499997 0.45450222 -0.68227196 0.68227196 -0.26269737 255 255 255 255
0.37499997 -0.625 0.45450222 -0.68227196 0.68227196 -0.26269737 255 255 255 255
0.5625 -0.33749995 0.71422 -0.68227196 0.68227196 -0.26269737 255 255 255 255
-0.5625 -0.33749995 0.71422 0.68227196 0.68227196 -0.26269737 255 255 255 255
-0.37499997 -0.625 0.45450222 0.68227196 0.68227196 -0.26269737 255 255 255 255
-0.625 -0.37499997 0.45450222 0.68227196 0.68227196 -0.26269737 255 255 255 255
-0.33749995 -0.5625 0.71422 0.68227196 0.68227196 -0.26269737 255 255 255 255
-0.33749995 -0.5625 0.71422 9.378879E-19 0.97224456 -0.2339666 255 255 255 255
0.37499997 -0.625 0.45450222 9.378879E-19 0.97224456 -0.2339666 255 255 255 255
-0.37499997 -0.625 0.45450222 9.378879E-19 0.97224456 -0.2339666 255 255 255 255
0.33749995 -0.5625 0.71422 9.378879E-19 0.97224456 -0.2339666 255 255 255 255
-0.625 0.37499997 -0.6552001 1 -0 -0 255 125 0 255
-0.625 -0.37499997 0.45450222 1 -0 -0 255 125 0 255
-0.625 -0.37499997 -0.6552001 1 -0 -0 255 125 0 255
-0.625 0.37499997 0.45450222 1 -0 -0 255 125 0 255
-0.37499997 0.625 0.45450222 0.70710677 -0.70710677 -0 255 125 0 255
-0.625 0.37499997 -0.6552001 0.70710677 -0.70710677 -0 255 125 0 255
-0.37499997 0.625 -0.6552001 0.70710677 -0.70710677 -0 255 125 0 255
-0.625 0.37499997 0.45450222 0.70710677 -0.70710677 -0 255 125 0 255
-0.625 -0.37499997 0.45450222 0.70710677 0.70710677 -0 255 125 0 255
-0.37499997 -0.625 -0.6552001 0.70710677 0.70710677 -0 255 125 0 255
-0.625 -0.37499997 -0.6552001 0.70710677 0.70710677 -0 255 125 0 255
-0.37499997 -0.625 0.45450222 0.70710677 0.70710677 -0 255 125 0 255
0.37499997 0.625 0.45450222 0 -1 -0 255 125 0 255
-0.37499997 0.625 -0.6552001 0 -1 -0 255 125 0 255
0.37499997 0.625 -0.6552001 0 -1 -0 255 125 0 255
-0.37499997 0.625 0.45450222 0 -1 -0 255 125 0 255
-0.37499997 -0.625 0.45450222 0 1 -0 255 125 0 255
0.37499997 -0.625 -0.6552001 0 1 -0 255 125 0 255
-0.37499997 -0.625 -0.6552001 0 1 -0 255 125 0 255
0.37499997 -0.625 0.45450222 0 1 -0 255 125 0 255
0.625 0.37499997 0.45450222 -0.70710677 -0.70710677 -0 255 125 0 255
0.37499997 0.625 -0.6552001 -0.70710677 -0.70710677 -0 255 125 0 255
0.625 0.37499997 -0.6552001 -0.70710677 -0.70710677 -0 255 125 0 255
0.37499997 0.625 0.45450222 -0.70710677 -0.70710677 -0 255 125 0 255
0.37499997 -0.625 0.45450222 -0.70710677 0.70710677 -0 255 125 0 255
0.625 -0.37499997 -0.6552001 -0.70710677 0.70710677 -0 255 125 0 255
0.37499997 -0.625 -0.6552001 -0.70710677 0.70710677 -0 255 125 0 255
0.625 -0.37499997 0.45450222 -0.70710677 0.70710677 -0 255 125 0 255
0.625 0.37499997 0.45450222 -1 -0 -0 255 125 0 255
0.625 -0.37499997 -0.6552001 -1 -0 -0 255 125 0 255
0.625 -0.37499997 0.45450222 -1 -0 -0 255 125 0 255
0.625 0.37499997 -0.6552001 -1 -0 -0 255 125 0 255
0.37499997 0.625 -1.125 0 -0 1 84 84 84 255
0.625 -0.37499997 -1.125 0 -0 1 84 84 84 255
0.625 0.37499997 -1.125 0 -0 1 84 84 84 255
0.37499997 -0.625 -1.125 0 -0 1 84 84 84 255
-0.37499997 0.625 -1.125 0 -0 1 84 84 84 255
-0.37499997 -0.625 -1.125 0 -0 1 84 84 84 255
-0.625 0.37499997 -1.125 0 -0 1 84 84 84 255
-0.625 -0.37499997 -1.125 0 -0 1 84 84 84 255
-0.37499997 0.625 -0.6552001 0.70710677 -0.70710677 -0 84 84 84 255
-0.625 0.37499997 -1.125 0.70710677 -0.70710677 -0 84 84 84 255
-0.37499997 0.625 -1.125 0.70710677 -0.70710677 -0 84 84 84 255
-0.625 0.37499997 -0.6552001 0.70710677 -0.70710677 -0 84 84 84 255
-0.625 0.37499997 -1.125 1 -0 -0 84 84 84 255
-0.625 -0.37499997 -0.6552001 1 -0 -0 84 84 84 255
-0.625 -0.37499997 -1.125 1 -0 -0 84 84 84 255
-0.625 0.37499997 -0.6552001 1 -0 -0 84 84 84 255
-0.625 -0.37499997 -0.6552001 0.70710677 0.70710677 -0 84 84 84 255
-0.37499997 -0.625 -1.125 0.70710677 0.70710677 -0 84 84 84 255
-0.625 -0.37499997 -1.125 0.70710677 0.70710677 -0 84 84 84 255
-0.37499997 -0.625 -0.6552001 0.70710677 0.70710677 -0 84 84 84 255
-0.37499997 -0.625 -0.6552001 0 1 -0 84 84 84 255
0.37499997 -0.625 -1.125 0 1 -0 84 84 84 255
-0.37499997 -0.625 -1.125 0 1 -0 84 84 84 255
0.37499997 -0.625 -0.6552001 0 1 -0 84 84 84 255
0.37499997 -0.625 -0.6552001 -0.70710677 0.70710677 -0 84 84 84 255
0.625 -0.37499997 -1.125 -0.70710677 0.70710677 -0 84 84 84 255
0.37499997 -0.625 -1.125 -0.70710677 0.70710677 -0 84 84 84 255
0.625 -0.37499997 -0.6552001 -0.70710677 0.70710677 -0 84 84 84 255
0.625 0.37499997 -0.6552001 -1 -0 -0 84 84 84 255
0.625 -0.37499997 -1.125 -1 -0 -0 84 84 84 255
0.625 -0.37499997 -0.6552001 -1 -0 -0 84 84 84 255
0.625 0.37499997 -1.125 -1 -0 -0 84 84 84 255
0.625 0.37499997 -0.6552001 -0.70710677 -0.70710677 -0 84 84 84 255
0.37499997 0.625 -1.125 -0.70710677 -0.70710677 -0 84 84 84 255
0.625 0.37499997 -1.125 -0.70710677 -0.70710677 -0 84 84 84 255
0.37499997 0.625 -0.6552001 -0.70710677 -0.70710677 -0 84 84 84 255
0.37499997 0.625 -0.6552001 0 -1 -0 84 84 84 255
-0.37499997 0.625 -1.125 0 -1 -0 84 84 84 255
0.37499997 0.625 -1.125 0 -1 -0 84 84 84 255
-0.37499997 0.625 -0.6552001 0 -1 -0 84 84 84 255
3 0 1 2
3 1 0 3
3 4 5 6
3 5 4 7
3 8 9 10
3 9 8 11
3 12 13 14
3 13 12 15
3 15 12 16
3 15 16 17
3 17 16 18
3 17 18 19
3 20 21 22
3 21 20 23
3 24 25 26
3 25 24 27
3 28 29 30
3 29 28 31
3 32 33 34
3 33 32 35
3 36 37 38
3 37 36 39
3 40 41 42
3 41 40 43
3 44 45 46
3 45 44 47
3 48 49 50
3 49 48 51
3 52 53 54
3 53 52 55
3 56 57 58
3 57 56 59
3 60 61 62
3 61 60 63
3 64 65 66
3 65 64 67
3 68 69 70
3 69 68 71
3 72 73 74
3 73 72 75
3 76 77 78
3 77 76 79
3 80 81 82
3 81 80 83
3 84 85 86
3 85 84 87
3 88 89 90
3 89 88 91
3 92 93 94
3 93 92 95
3 96 97 98
3 97 96 99
3 100 101 102
3 101 100 103
3 104 105 106
3 105 104 107
3 108 109 110
3 109 108 111
3 112 113 114
3 113 112 115
3 116 117 118
3 117 116 119
3 120 121 122
3 121 120 123
3 124 125 126
3 125 124 127
3 128 129 130
3 129 128 131
3 132 133 134
3 133 132 135
3 136 137 138
3 137 136 139
3 139 136 140
3 139 140 141
3 141 140 142
3 141 142 143
3 144 145 146
3 145 144 147
3 148 149 150
3 149 148 151
3 152 153 154
3 153 152 155
3 156 157 158
3 157 156 159
3 160 161 162
3 161 160 163
3 164 165 166
3 165 164 167
3 168 169 170
3 169 168 171
3 172 173 174
3 173 172 175

