ply
format ascii 1.0
commentY29udmVydGVyIGJ5IENvZGVMZW9wYXJk
comment Original mesh name: 'C:\Program Files (x86)\Steam\steamapps\common\Stormworks\rom\meshes\component_window_angle_xl_2x4x4.mesh'
comment SubMesh index: 1
comment SubMesh name: 'ID24'
comment Shader: Opaque (0)
element vertex 68
property float x
property float y
property float z
property float nx
property float ny
property float nz
property uchar red
property uchar green
property uchar blue
property uchar alpha
element face 40
property list uchar ushort vertex_index
end_header
-0.610858 0.35214278 0.5825736 0.70710677 -1.13058796E-20 0.70710677 160 160 199 128
0.3325736 -0.102142766 -0.36085775 0.70710677 -1.13058796E-20 0.70710677 160 160 199 128
0.3325736 0.35214278 -0.36085775 0.70710677 -1.13058796E-20 0.70710677 160 160 199 128
-0.610858 -0.102142766 0.5825736 0.70710677 -1.13058796E-20 0.70710677 160 160 199 128
-0.6108578 -0.1033314 0.6108578 -0.70710677 -1.2434869E-16 -0.70710677 160 160 199 128
0.36085775 0.35333124 -0.36085775 -0.70710677 -1.2434869E-16 -0.70710677 160 160 199 128
0.36085775 -0.1033314 -0.36085775 -0.70710677 -1.2434869E-16 -0.70710677 160 160 199 128
-0.6108578 0.35333124 0.6108578 -0.70710677 -1.2434869E-16 -0.70710677 160 160 199 128
0.37499997 -0.12499997 -0.37499997 -0.70710677 5.1863596E-17 -0.70710677 55 125 0 255
0.36085775 -0.1033314 -0.36085775 -0.70710677 5.1863596E-17 -0.70710677 55 125 0 255
0.37499997 0.37499997 -0.37499997 -0.70710677 5.1863596E-17 -0.70710677 55 125 0 255
-0.625 -0.12499997 0.625 -0.70710677 5.1863596E-17 -0.70710677 55 125 0 255
-0.6108578 -0.1033314 0.6108578 -0.70710677 5.1863596E-17 -0.70710677 55 125 0 255
-0.6108578 0.35333124 0.6108578 -0.70710677 5.1863596E-17 -0.70710677 55 125 0 255
0.36085775 0.35333124 -0.36085775 -0.70710677 5.1863596E-17 -0.70710677 55 125 0 255
-0.625 0.37499997 0.625 -0.70710677 5.1863596E-17 -0.70710677 55 125 0 255
-0.625 -0.12499997 0.5649998 1 -0 -0 255 125 0 255
-0.625 0.37499997 0.625 1 -0 -0 255 125 0 255
-0.625 -0.12499997 0.625 1 -0 -0 255 125 0 255
-0.625 0.37499997 0.5649998 1 -0 -0 255 125 0 255
-0.625 -0.12499997 0.5649998 4.585088E-13 1 2.1527569E-13 255 125 0 255
0.37499997 -0.12499997 -0.37499997 4.585088E-13 1 2.1527569E-13 255 125 0 255
0.31500012 -0.12499997 -0.37499997 4.585088E-13 1 2.1527569E-13 255 125 0 255
-0.625 -0.12499997 0.625 4.585088E-13 1 2.1527569E-13 255 125 0 255
0.31500012 0.37499997 -0.37499997 0.7071067 -5.1909752E-17 0.7071068 255 125 0 255
0.3008579 0.35333124 -0.36085775 0.7071067 -5.1909752E-17 0.7071068 255 125 0 255
0.31500012 -0.12499997 -0.37499997 0.7071067 -5.1909752E-17 0.7071068 255 125 0 255
-0.625 0.37499997 0.5649998 0.7071067 -5.1909752E-17 0.7071068 255 125 0 255
-0.610858 0.35333124 0.5508579 0.7071067 -5.1909752E-17 0.7071068 255 125 0 255
-0.610858 -0.1033314 0.5508579 0.7071067 -5.1909752E-17 0.7071068 255 125 0 255
0.3008579 -0.1033314 -0.36085775 0.7071067 -5.1909752E-17 0.7071068 255 125 0 255
-0.625 -0.12499997 0.5649998 0.7071067 -5.1909752E-17 0.7071068 255 125 0 255
-0.625 0.37499997 0.625 0 -1 -0 255 125 0 255
0.31500012 0.37499997 -0.37499997 0 -1 -0 255 125 0 255
0.37499997 0.37499997 -0.37499997 0 -1 -0 255 125 0 255
-0.625 0.37499997 0.5649998 0 -1 -0 255 125 0 255
0.31500012 0.37499997 -0.37499997 0 -0 1 255 125 0 255
0.37499997 -0.12499997 -0.37499997 0 -0 1 255 125 0 255
0.37499997 0.37499997 -0.37499997 0 -0 1 255 125 0 255
0.31500012 -0.12499997 -0.37499997 0 -0 1 255 125 0 255
0.3325736 -0.102142766 -0.36085775 0 -0 -1 255 125 0 255
0.36085775 0.35333124 -0.36085775 0 -0 -1 255 125 0 255
0.36085775 -0.1033314 -0.36085775 0 -0 -1 255 125 0 255
0.3325736 0.35214278 -0.36085775 0 -0 -1 255 125 0 255
-0.6108578 -0.1033314 0.6108578 -0.0419504 -0.9982386 -0.0419504 255 125 0 255
0.3325736 -0.102142766 -0.36085775 -0.0419504 -0.9982386 -0.0419504 255 125 0 255
0.36085775 -0.1033314 -0.36085775 -0.0419504 -0.9982386 -0.0419504 255 125 0 255
-0.610858 -0.102142766 0.5825736 -0.0419504 -0.9982386 -0.0419504 255 125 0 255
0.3008579 -0.1033314 -0.36085775 0 -0 -1 255 125 0 255
0.3008579 0.35333124 -0.36085775 0 -0 -1 255 125 0 255
-0.610858 0.35214278 0.5825736 -0.04194828 0.99823874 -0.04194828 255 125 0 255
0.36085775 0.35333124 -0.36085775 -0.04194828 0.99823874 -0.04194828 255 125 0 255
0.3325736 0.35214278 -0.36085775 -0.04194828 0.99823874 -0.04194828 255 125 0 255
-0.6108578 0.35333124 0.6108578 -0.04194828 0.99823874 -0.04194828 255 125 0 255
-0.6108578 0.35333124 0.6108578 -1 3.194637E-23 8.980288E-06 255 125 0 255
-0.610858 -0.102142766 0.5825736 -1 3.194637E-23 8.980288E-06 255 125 0 255
-0.6108578 -0.1033314 0.6108578 -1 3.194637E-23 8.980288E-06 255 125 0 255
-0.610858 0.35214278 0.5825736 -1 3.194637E-23 8.980288E-06 255 125 0 255
-0.610858 -0.102142766 0.5825736 0.037425287 -0.99859834 0.037425295 255 125 0 255
0.3008579 -0.1033314 -0.36085775 0.037425287 -0.99859834 0.037425295 255 125 0 255
0.3325736 -0.102142766 -0.36085775 0.037425287 -0.99859834 0.037425295 255 125 0 255
-0.610858 -0.1033314 0.5508579 0.037425287 -0.99859834 0.037425295 255 125 0 255
-0.610858 0.35333124 0.5508579 0.037423395 0.99859846 0.037423406 255 125 0 255
0.3325736 0.35214278 -0.36085775 0.037423395 0.99859846 0.037423406 255 125 0 255
0.3008579 0.35333124 -0.36085775 0.037423395 0.99859846 0.037423406 255 125 0 255
-0.610858 0.35214278 0.5825736 0.037423395 0.99859846 0.037423406 255 125 0 255
-0.610858 0.35333124 0.5508579 -1 1.619838E-25 -8.207101E-08 255 125 0 255
-0.610858 -0.1033314 0.5508579 -1 1.619838E-25 -8.207101E-08 255 125 0 255
3 8 9 10
3 9 8 11
3 9 11 12
3 12 11 13
3 10 14 15
3 14 10 9
3 15 14 13
3 15 13 11
3 16 17 18
3 17 16 19
3 20 21 22
3 21 20 23
3 24 25 26
3 25 24 27
3 25 27 28
3 28 27 29
3 26 30 31
3 30 26 25
3 31 30 29
3 31 29 27
3 32 33 34
3 33 32 35
3 36 37 38
3 37 36 39
3 40 41 42
3 41 40 43
3 44 45 46
3 45 44 47
3 48 43 40
3 43 48 49
3 50 51 52
3 51 50 53
3 54 55 56
3 55 54 57
3 58 59 60
3 59 58 61
3 62 63 64
3 63 62 65
3 55 66 67
3 66 55 57

