ply
format ascii 1.0
commentY29udmVydGVyIGJ5IENvZGVMZW9wYXJk
comment Original mesh name: 'C:\Program Files (x86)\Steam\steamapps\common\Stormworks\rom\meshes\component_drill_head_end_dynamic.mesh'
comment SubMesh index: 0
comment SubMesh name: 'ID52'
comment Shader: Opaque (0)
element vertex 538
property float x
property float y
property float z
property float nx
property float ny
property float nz
property uchar red
property uchar green
property uchar blue
property uchar alpha
element face 260
property list uchar ushort vertex_index
end_header
-0.19853884 -1.7427456E-05 0.09715642 0.58312 0.5745286 -0.5743588 154 125 0 255
-0.1658574 -2.2261333E-05 0.13033156 0.58312 0.5745286 -0.5743588 154 125 0 255
-0.1658574 -0.03270255 0.0976416 0.58312 0.5745286 -0.5743588 154 125 0 255
-0.1658574 0.032667674 0.09765126 0.5831216 -0.574358 -0.5745277 154 125 0 255
-0.1658574 -2.2261333E-05 0.13033156 0.5831216 -0.574358 -0.5745277 154 125 0 255
-0.19853884 -1.7427456E-05 0.09715642 0.5831216 -0.574358 -0.5745277 154 125 0 255
-0.19853884 -1.7427456E-05 0.09715642 0.5715786 0.58012885 0.58030015 154 125 0 255
-0.1658574 -0.03270255 0.0976416 0.5715786 0.58012885 0.58030015 154 125 0 255
-0.1658574 -1.25961205E-05 0.06496131 0.5715786 0.58012885 0.58030015 154 125 0 255
-0.1658574 0.032667674 0.09765126 0.5715805 -0.5802994 0.5801279 154 125 0 255
-0.19853884 -1.7427456E-05 0.09715642 0.5715805 -0.5802994 0.5801279 154 125 0 255
-0.1658574 -1.25961205E-05 0.06496131 0.5715805 -0.5802994 0.5801279 154 125 0 255
-0.092274636 0.09019352 0.20621358 0.97452694 -0.15438998 -0.16266808 154 125 0 255
-0.08799537 0.085443236 0.23635882 0.97452694 -0.15438998 -0.16266808 154 125 0 255
-0.094778955 0.06186988 0.21809283 0.97452694 -0.15438998 -0.16266808 154 125 0 255
-0.094778955 0.06186988 0.21809283 0.2870306 0.5337533 -0.7954376 154 125 0 255
-0.08799537 0.085443236 0.23635882 0.2870306 0.5337533 -0.7954376 154 125 0 255
-0.06645551 0.064350106 0.22997749 0.2870306 0.5337533 -0.7954376 154 125 0 255
-0.08799537 0.085443236 0.23635882 0.15877458 -0.9715667 -0.17563778 154 125 0 255
-0.092274636 0.09019352 0.20621358 0.15877458 -0.9715667 -0.17563778 154 125 0 255
-0.0639512 0.092673674 0.21809828 0.15877458 -0.9715667 -0.17563778 154 125 0 255
-0.08799537 0.085443236 0.23635882 -0.5218814 -0.2902704 -0.8021115 154 125 0 255
-0.0639512 0.092673674 0.21809828 -0.5218814 -0.2902704 -0.8021115 154 125 0 255
-0.06645551 0.064350106 0.22997749 -0.5218814 -0.2902704 -0.8021115 154 125 0 255
-0.08546952 -0.08802156 0.23551467 -0.5336376 0.2871476 -0.7954729 154 125 0 255
-0.06437533 -0.066480786 0.2291395 -0.5336376 0.2871476 -0.7954729 154 125 0 255
-0.061893318 -0.09480247 0.21725099 -0.5336376 0.2871476 -0.7954729 154 125 0 255
-0.08546952 -0.08802156 0.23551467 0.1544141 0.9745513 -0.162499 154 125 0 255
-0.061893318 -0.09480247 0.21725099 0.1544141 0.9745513 -0.162499 154 125 0 255
-0.090215184 -0.092296384 0.20536797 0.1544141 0.9745513 -0.162499 154 125 0 255
-0.092697196 -0.06397469 0.21725646 0.2903871 -0.5217678 -0.8021432 154 125 0 255
-0.06437533 -0.066480786 0.2291395 0.2903871 -0.5217678 -0.8021432 154 125 0 255
-0.08546952 -0.08802156 0.23551467 0.2903871 -0.5217678 -0.8021432 154 125 0 255
-0.092697196 -0.06397469 0.21725646 0.9715935 0.15880139 -0.17546529 154 125 0 255
-0.08546952 -0.08802156 0.23551467 0.9715935 0.15880139 -0.17546529 154 125 0 255
-0.090215184 -0.092296384 0.20536797 0.9715935 0.15880139 -0.17546529 154 125 0 255
3.0382562E-06 -0.16527545 0.13030723 0.5744428 0.5832067 -0.5743566 154 125 0 255
3.12245E-06 -0.19795196 0.09712728 0.5744428 0.5832067 -0.5743566 154 125 0 255
-0.032682076 -0.16527061 0.09762213 0.5744428 0.5832067 -0.5743566 154 125 0 255
3.0382562E-06 -0.16527545 0.13030723 -0.5744437 0.5832047 -0.5743576 154 125 0 255
0.03268815 -0.16527061 0.09762213 -0.5744437 0.5832047 -0.5743576 154 125 0 255
3.12245E-06 -0.19795196 0.09712728 -0.5744437 0.5832047 -0.5743576 154 125 0 255
-0.032682076 -0.16527061 0.09762213 0.5802136 0.5714947 0.5802982 154 125 0 255
3.12245E-06 -0.19795196 0.09712728 0.5802136 0.5714947 0.5802982 154 125 0 255
3.0475678E-06 -0.16526577 0.064937 0.5802136 0.5714947 0.5802982 154 125 0 255
3.0475678E-06 -0.16526577 0.064937 -0.5802144 0.571493 0.5802991 154 125 0 255
3.12245E-06 -0.19795196 0.09712728 -0.5802144 0.571493 0.5802991 154 125 0 255
0.03268815 -0.16527061 0.09762213 -0.5802144 0.571493 0.5802991 154 125 0 255
-0.117453225 0.1168436 0.13033156 0.006135224 -0.81843686 -0.5745636 154 125 0 255
-0.1405625 0.13995774 0.09715982 0.006135224 -0.81843686 -0.5745636 154 125 0 255
-0.094341315 0.13996024 0.097649835 0.006135224 -0.81843686 -0.5745636 154 125 0 255
-0.1405625 0.13995774 0.09715982 0.81852096 -0.0060525103 -0.57444465 154 125 0 255
-0.117453225 0.1168436 0.13033156 0.81852096 -0.0060525103 -0.57444465 154 125 0 255
-0.14056517 0.09373659 0.09764303 0.81852096 -0.0060525103 -0.57444465 154 125 0 255
-0.094341315 0.13996024 0.097649835 -0.0061061517 -0.81452703 0.58009344 154 125 0 255
-0.1405625 0.13995774 0.09715982 -0.0061061517 -0.81452703 0.58009344 154 125 0 255
-0.117453255 0.11685325 0.06496133 -0.0061061517 -0.81452703 0.58009344 154 125 0 255
-0.1405625 0.13995774 0.09715982 0.8144409 0.006018709 0.5802153 154 125 0 255
-0.14056517 0.09373659 0.09764303 0.8144409 0.006018709 0.5802153 154 125 0 255
-0.117453255 0.11685325 0.06496133 0.8144409 0.006018709 0.5802153 154 125 0 255
0.090215236 0.09223567 0.20539519 -0.97159374 -0.15875201 -0.17550921 154 125 0 255
0.092697345 0.063910455 0.21727532 -0.97159374 -0.15875201 -0.17550921 154 125 0 255
0.08546965 0.08795202 0.2355406 -0.97159374 -0.15875201 -0.17550921 154 125 0 255
0.08546965 0.08795202 0.2355406 -0.1544097 -0.9745045 -0.1627842 154 125 0 255
0.061893348 0.094738156 0.21727896 -0.1544097 -0.9745045 -0.1627842 154 125 0 255
0.090215236 0.09223567 0.20539519 -0.1544097 -0.9745045 -0.1627842 154 125 0 255
0.064375356 0.066413045 0.22915912 -0.29038656 0.52200216 -0.80199087 154 125 0 255
0.08546965 0.08795202 0.2355406 -0.29038656 0.52200216 -0.80199087 154 125 0 255
0.092697345 0.063910455 0.21727532 -0.29038656 0.52200216 -0.80199087 154 125 0 255
0.061893348 0.094738156 0.21727896 0.533636 -0.2869137 -0.7955584 154 125 0 255
0.08546965 0.08795202 0.2355406 0.533636 -0.2869137 -0.7955584 154 125 0 255
0.064375356 0.066413045 0.22915912 0.533636 -0.2869137 -0.7955584 154 125 0 255
0.16466692 -6.5758663E-06 0.06496128 -0.5715787 0.5801285 0.5803006 154 125 0 255
0.16466697 -0.032696504 0.09764158 -0.5715787 0.5801285 0.5803006 154 125 0 255
0.1973485 -1.1263807E-05 0.09715636 -0.5715787 0.5801285 0.5803006 154 125 0 255
0.1973485 -1.1263807E-05 0.09715636 -0.58312 0.5745278 -0.5743595 154 125 0 255
0.16466697 -0.032696504 0.09764158 -0.58312 0.5745278 -0.5743595 154 125 0 255
0.16466686 -1.624108E-05 0.13033152 -0.58312 0.5745278 -0.5743595 154 125 0 255
0.16466707 0.032673694 0.097651236 -0.5715777 -0.5802994 0.5801306 154 125 0 255
0.16466692 -6.5758663E-06 0.06496128 -0.5715777 -0.5802994 0.5801306 154 125 0 255
0.1973485 -1.1263807E-05 0.09715636 -0.5715777 -0.5802994 0.5801306 154 125 0 255
0.16466707 0.032673694 0.097651236 -0.5831188 -0.5743578 -0.5745308 154 125 0 255
0.1973485 -1.1263807E-05 0.09715636 -0.5831188 -0.5743578 -0.5745308 154 125 0 255
0.16466686 -1.624108E-05 0.13033152 -0.5831188 -0.5743578 -0.5745308 154 125 0 255
0.09332315 0.13953666 0.09766701 0.006106251 -0.8145265 0.5800942 154 125 0 255
0.11643496 0.116429605 0.06497846 0.006106251 -0.8145265 0.5800942 154 125 0 255
0.13954413 0.13953418 0.09717697 0.006106251 -0.8145265 0.5800942 154 125 0 255
0.11643492 0.116419956 0.1303487 -0.006135534 -0.8184363 -0.5745645 154 125 0 255
0.09332315 0.13953666 0.09766701 -0.006135534 -0.8184363 -0.5745645 154 125 0 255
0.13954413 0.13953418 0.09717697 -0.006135534 -0.8184363 -0.5745645 154 125 0 255
0.13954413 0.13953418 0.09717697 -0.8144423 0.006019773 0.5802133 154 125 0 255
0.11643496 0.116429605 0.06497846 -0.8144423 0.006019773 0.5802133 154 125 0 255
0.13954674 0.09331292 0.09766018 -0.8144423 0.006019773 0.5802133 154 125 0 255
0.13954413 0.13953418 0.09717697 -0.8185222 -0.006051321 -0.574443 154 125 0 255
0.13954674 0.09331292 0.09766018 -0.8185222 -0.006051321 -0.574443 154 125 0 255
0.11643492 0.116419956 0.1303487 -0.8185222 -0.006051321 -0.574443 154 125 0 255
0.11643915 -0.116454214 0.13031434 -0.006136708 0.8186067 -0.5743217 154 125 0 255
0.1395487 -0.13955851 0.09713579 -0.006136708 0.8186067 -0.5743217 154 125 0 255
0.09332749 -0.13956122 0.09762581 -0.006136708 0.8186067 -0.5743217 154 125 0 255
0.09332749 -0.13956122 0.09762581 0.006104989 0.8143556 0.5803341 154 125 0 255
0.1395487 -0.13955851 0.09713579 0.006104989 0.8143556 0.5803341 154 125 0 255
0.11643918 -0.116444506 0.06494411 0.006104989 0.8143556 0.5803341 154 125 0 255
0.13955109 -0.093337506 0.09763264 -0.8185194 0.006217113 -0.5744452 154 125 0 255
0.1395487 -0.13955851 0.09713579 -0.8185194 0.006217113 -0.5744452 154 125 0 255
0.11643915 -0.116454214 0.13031434 -0.8185194 0.006217113 -0.5744452 154 125 0 255
0.13955109 -0.093337506 0.09763264 -0.8144393 -0.006194843 0.5802157 154 125 0 255
0.11643918 -0.116444506 0.06494411 -0.8144393 -0.006194843 0.5802157 154 125 0 255
0.1395487 -0.13955851 0.09713579 -0.8144393 -0.006194843 0.5802157 154 125 0 255
-0.117453225 0.1168436 0.13033156 0.7071052 -0.7071084 -0.0001046053 154 125 0 255
-0.117453255 0.11685325 0.06496133 0.7071052 -0.7071084 -0.0001046053 154 125 0 255
-0.094341315 0.13996024 0.097649835 0.7071052 -0.7071084 -0.0001046053 154 125 0 255
-0.14056517 0.09373659 0.09764303 0.7071052 -0.7071084 -0.0001046053 154 125 0 255
-3.0148428E-06 0.1652487 0.13035582 0.5744433 -0.5830351 -0.5745302 154 125 0 255
-0.03268815 0.16525355 0.09767072 0.5744433 -0.5830351 -0.5745302 154 125 0 255
-3.1067295E-06 0.19793507 0.09718552 0.5744433 -0.5830351 -0.5745302 154 125 0 255
-3.0148428E-06 0.1652487 0.13035582 -0.57444257 -0.58303696 -0.57452893 154 125 0 255
-3.1067295E-06 0.19793507 0.09718552 -0.57444257 -0.58303696 -0.57452893 154 125 0 255
0.032682102 0.16525353 0.09767072 -0.57444257 -0.58303696 -0.57452893 154 125 0 255
-3.1067295E-06 0.19793507 0.09718552 0.5802146 -0.5716644 0.58013 154 125 0 255
-0.03268815 0.16525355 0.09767072 0.5802146 -0.5716644 0.58013 154 125 0 255
-3.0300139E-06 0.16525838 0.06498559 0.5802146 -0.5716644 0.58013 154 125 0 255
-3.1067295E-06 0.19793507 0.09718552 -0.5802135 -0.5716663 0.5801292 154 125 0 255
-3.0300139E-06 0.16525838 0.06498559 -0.5802135 -0.5716663 0.5801292 154 125 0 255
0.032682102 0.16525353 0.09767072 -0.5802135 -0.5716663 0.5801292 154 125 0 255
-0.14056504 -0.09375429 0.09762553 0.7071081 0.7071054 0.0001048103 154 125 0 255
-0.117453225 -0.11687103 0.13030723 0.7071081 0.7071054 0.0001048103 154 125 0 255
-0.1174532 -0.11686136 0.064937 0.7071081 0.7071054 0.0001048103 154 125 0 255
-0.09434138 -0.1399781 0.09761869 0.7071081 0.7071054 0.0001048103 154 125 0 255
-0.020332558 -0.11079317 0.21724957 0.5743621 -0.1635735 -0.8020922 154 125 0 255
0.0014648682 -0.09253918 0.22913565 0.5743621 -0.1635735 -0.8020922 154 125 0 255
0.0017799939 -0.122686915 0.23550946 0.5743621 -0.1635735 -0.8020922 154 125 0 255
0.0014648682 -0.09253918 0.22913565 -0.5802986 -0.1742581 -0.7955423 154 125 0 255
0.0232476 -0.11081005 0.21724862 -0.5802986 -0.1742581 -0.7955423 154 125 0 255
0.0017799939 -0.122686915 0.23550946 -0.5802986 -0.1742581 -0.7955423 154 125 0 255
0.0017799939 -0.122686915 0.23550946 0.5747486 0.7993177 -0.1753715 154 125 0 255
0.0014501977 -0.12906408 0.20536251 0.5747486 0.7993177 -0.1753715 154 125 0 255
-0.020332558 -0.11079317 0.21724957 0.5747486 0.7993177 -0.1753715 154 125 0 255
0.0017799939 -0.122686915 0.23550946 -0.5799079 0.7983058 -0.162526 154 125 0 255
0.0232476 -0.11081005 0.21724862 -0.5799079 0.7983058 -0.162526 154 125 0 255
0.0014501977 -0.12906408 0.20536251 -0.5799079 0.7983058 -0.162526 154 125 0 255
-0.12904601 -0.0014805126 0.20620006 0.7982814 0.5799326 -0.1625575 154 125 0 255
-0.12266439 -0.0018147745 0.23634617 0.7982814 0.5799326 -0.1625575 154 125 0 255
-0.11079022 -0.023279674 0.21808027 0.7982814 0.5799326 -0.1625575 154 125 0 255
-0.12266439 -0.0018147745 0.23634617 -0.1743799 0.5804182 -0.7954284 154 125 0 255
-0.09251759 -0.001498708 0.22996779 -0.1743799 0.5804182 -0.7954284 154 125 0 255
-0.11079022 -0.023279674 0.21808027 -0.1743799 0.5804182 -0.7954284 154 125 0 255
-0.110773355 0.020300454 0.21808761 0.7992912 -0.5747236 -0.1755742 154 125 0 255
-0.12266439 -0.0018147745 0.23634617 0.7992912 -0.5747236 -0.1755742 154 125 0 255
-0.12904601 -0.0014805126 0.20620006 0.7992912 -0.5747236 -0.1755742 154 125 0 255
-0.12266439 -0.0018147745 0.23634617 -0.1636963 -0.5742461 -0.8021502 154 125 0 255
-0.110773355 0.020300454 0.21808761 -0.1636963 -0.5742461 -0.8021502 154 125 0 255
-0.09251759 -0.001498708 0.22996779 -0.1636963 -0.5742461 -0.8021502 154 125 0 255
0.12265212 0.0017454082 0.23552783 -0.7992943 0.57477057 -0.17540681 154 125 0 255
0.12903382 0.0014200979 0.20538178 -0.7992943 0.57477057 -0.17540681 154 125 0 255
0.11076126 -0.020364454 0.2172629 -0.7992943 0.57477057 -0.17540681 154 125 0 255
0.11077792 0.023215698 0.21726838 -0.7982792 -0.5798867 -0.1627319 154 125 0 255
0.12903382 0.0014200979 0.20538178 -0.7982792 -0.5798867 -0.1627319 154 125 0 255
0.12265212 0.0017454082 0.23552783 -0.7982792 -0.5798867 -0.1627319 154 125 0 255
0.09250534 0.0014311715 0.22914949 0.1636925 0.5744819 -0.8019821 154 125 0 255
0.12265212 0.0017454082 0.23552783 0.1636925 0.5744819 -0.8019821 154 125 0 255
0.11076126 -0.020364454 0.2172629 0.1636925 0.5744819 -0.8019821 154 125 0 255
0.09250534 0.0014311715 0.22914949 0.1743782 -0.580181 -0.7956018 154 125 0 255
0.11077792 0.023215698 0.21726838 0.1743782 -0.580181 -0.7956018 154 125 0 255
0.12265212 0.0017454082 0.23552783 0.1743782 -0.580181 -0.7956018 154 125 0 255
-0.001779958 0.122617245 0.2355456 -0.57436293 0.16380869 -0.80204356 154 125 0 255
0.020332599 0.110729 0.2172822 -0.57436293 0.16380869 -0.80204356 154 125 0 255
-0.0014648201 0.09247131 0.22916296 -0.57436293 0.16380869 -0.80204356 154 125 0 255
-0.001779958 0.122617245 0.2355456 -0.5747473 -0.79926586 -0.17561178 154 125 0 255
-0.0014501641 0.12900344 0.20540063 -0.5747473 -0.79926586 -0.17561178 154 125 0 255
0.020332599 0.110729 0.2172822 -0.5747473 -0.79926586 -0.17561178 154 125 0 255
-0.023247583 0.11074574 0.21728133 0.5802978 0.174492 -0.7954917 154 125 0 255
-0.001779958 0.122617245 0.2355456 0.5802978 0.174492 -0.7954917 154 125 0 255
-0.0014648201 0.09247131 0.22916296 0.5802978 0.174492 -0.7954917 154 125 0 255
-0.001779958 0.122617245 0.2355456 0.57991 -0.7982555 -0.1627655 154 125 0 255
-0.023247583 0.11074574 0.21728133 0.57991 -0.7982555 -0.1627655 154 125 0 255
-0.0014501641 0.12900344 0.20540063 0.57991 -0.7982555 -0.1627655 154 125 0 255
0.06428564 0.02662613 0.012610252 1.239177E-07 -0.0001475603 1 154 125 0 255
0.026627988 -0.064287476 0.012596839 1.239177E-07 -0.0001475603 1 154 125 0 255
0.06428564 -0.026629843 0.012602393 1.239177E-07 -0.0001475603 1 154 125 0 255
0.026627988 0.064283766 0.012615814 1.239177E-07 -0.0001475603 1 154 125 0 255
-0.026627962 -0.064287476 0.012596847 1.239177E-07 -0.0001475603 1 154 125 0 255
-0.026628012 0.064283766 0.01261582 1.239177E-07 -0.0001475603 1 154 125 0 255
-0.06428564 -0.026629843 0.012602407 1.239177E-07 -0.0001475603 1 154 125 0 255
-0.06428564 0.02662613 0.012610268 1.239177E-07 -0.0001475603 1 154 125 0 255
0.03550399 0.0857143 2.9151706E-05 0.3581954 0.3580678 0.8622549 154 125 0 255
0.06428564 0.02662613 0.012610252 0.3581954 0.3580678 0.8622549 154 125 0 255
0.08571425 0.035503965 2.1737163E-05 0.3581954 0.3580678 0.8622549 154 125 0 255
0.026627988 0.064283766 0.012615814 0.3581954 0.3580678 0.8622549 154 125 0 255
-0.03550399 0.0857143 2.9160112E-05 1.411825E-07 0.5064361 0.8622775 154 125 0 255
0.026627988 0.064283766 0.012615814 1.411825E-07 0.5064361 0.8622775 154 125 0 255
0.03550399 0.0857143 2.9151706E-05 1.411825E-07 0.5064361 0.8622775 154 125 0 255
-0.026628012 0.064283766 0.01261582 1.411825E-07 0.5064361 0.8622775 154 125 0 255
-0.03550399 0.0857143 2.9160112E-05 -0.3581956 0.3580679 0.8622548 154 125 0 255
-0.06428564 0.02662613 0.012610268 -0.3581956 0.3580679 0.8622548 154 125 0 255
-0.026628012 0.064283766 0.01261582 -0.3581956 0.3580679 0.8622548 154 125 0 255
-0.0857142 0.03550399 2.1756061E-05 -0.3581956 0.3580679 0.8622548 154 125 0 255
-0.06428564 0.02662613 0.012610268 -0.5065653 -0.0001271907 0.8622016 154 125 0 255
-0.0857142 -0.035503965 1.1279506E-05 -0.5065653 -0.0001271907 0.8622016 154 125 0 255
-0.06428564 -0.026629843 0.012602407 -0.5065653 -0.0001271907 0.8622016 154 125 0 255
-0.0857142 0.03550399 2.1756061E-05 -0.5065653 -0.0001271907 0.8622016 154 125 0 255
-0.06428564 -0.026629843 0.012602407 -0.3581957 -0.3583232 0.8621487 154 125 0 255
-0.03550399 -0.085714154 3.863502E-06 -0.3581957 -0.3583232 0.8621487 154 125 0 255
-0.026627962 -0.064287476 0.012596847 -0.3581957 -0.3583232 0.8621487 154 125 0 255
-0.0857142 -0.035503965 1.1279506E-05 -0.3581957 -0.3583232 0.8621487 154 125 0 255
0.026627988 -0.064287476 0.012596839 7.823256E-08 -0.5066929 0.8621266 154 125 0 255
-0.03550399 -0.085714154 3.863502E-06 7.823256E-08 -0.5066929 0.8621266 154 125 0 255
0.03550399 -0.085714154 3.855072E-06 7.823256E-08 -0.5066929 0.8621266 154 125 0 255
-0.026627962 -0.064287476 0.012596847 7.823256E-08 -0.5066929 0.8621266 154 125 0 255
0.06428564 -0.026629843 0.012602393 0.3581962 -0.3583233 0.8621484 154 125 0 255
0.03550399 -0.085714154 3.855072E-06 0.3581962 -0.3583233 0.8621484 154 125 0 255
0.085714154 -0.035503965 1.1257535E-05 0.3581962 -0.3583233 0.8621484 154 125 0 255
0.026627988 -0.064287476 0.012596839 0.3581962 -0.3583233 0.8621484 154 125 0 255
0.06428564 0.02662613 0.012610252 0.5065655 -0.0001276027 0.8622015 154 125 0 255
0.085714154 -0.035503965 1.1257535E-05 0.5065655 -0.0001276027 0.8622015 154 125 0 255
0.08571425 0.035503965 2.1737163E-05 0.5065655 -0.0001276027 0.8622015 154 125 0 255
0.06428564 -0.026629843 0.012602393 0.5065655 -0.0001276027 0.8622015 154 125 0 255
-0.09434138 -0.1399781 0.09761869 -0.006104769 0.8143549 0.58033496 154 125 0 255
-0.1174532 -0.11686136 0.064937 -0.006104769 0.8143549 0.58033496 154 125 0 255
-0.14056247 -0.1399754 0.09712868 -0.006104769 0.8143549 0.58033496 154 125 0 255
-0.14056504 -0.09375429 0.09762553 0.8144414 -0.0061917817 0.5802129 154 125 0 255
-0.14056247 -0.1399754 0.09712868 0.8144414 -0.0061917817 0.5802129 154 125 0 255
-0.1174532 -0.11686136 0.064937 0.8144414 -0.0061917817 0.5802129 154 125 0 255
-0.117453225 -0.11687103 0.13030723 0.0061367 0.8186061 -0.5743226 154 125 0 255
-0.09434138 -0.1399781 0.09761869 0.0061367 0.8186061 -0.5743226 154 125 0 255
-0.14056247 -0.1399754 0.09712868 0.0061367 0.8186061 -0.5743226 154 125 0 255
-0.14056504 -0.09375429 0.09762553 0.8185217 0.00622015 -0.5744419 154 125 0 255
-0.117453225 -0.11687103 0.13030723 0.8185217 0.00622015 -0.5744419 154 125 0 255
-0.14056247 -0.1399754 0.09712868 0.8185217 0.00622015 -0.5744419 154 125 0 255
-0.14200917 0.058409862 0.16852388 0.5026555 -0.5025523 -0.7034051 154 125 0 255
-0.06904908 0.16524665 0.14433119 0.5026555 -0.5025523 -0.7034051 154 125 0 255
-0.059383415 0.14103554 0.16853604 0.5026555 -0.5025523 -0.7034051 154 125 0 255
-0.1658574 0.06843842 0.1443169 0.5026555 -0.5025523 -0.7034051 154 125 0 255
-0.1658574 0.06843842 0.1443169 0.7123874 0.0001036203 -0.7017864 154 125 0 255
-0.14200917 -0.058440544 0.16850664 0.7123874 0.0001036203 -0.7017864 154 125 0 255
-0.1658574 -0.0684692 0.14429669 0.7123874 0.0001036203 -0.7017864 154 125 0 255
-0.14200917 0.058409862 0.16852388 0.7123874 0.0001036203 -0.7017864 154 125 0 255
-0.06904908 0.16525954 0.057170853 0.7071064 -0.7071071 -0.0001046195 154 125 0 255
-0.094341315 0.13996024 0.097649835 0.7071064 -0.7071071 -0.0001046195 154 125 0 255
-0.117453255 0.11685325 0.06496133 0.7071064 -0.7071071 -0.0001046195 154 125 0 255
-0.06904908 0.16524665 0.14433119 0.7071064 -0.7071071 -0.0001046195 154 125 0 255
-0.117453225 0.1168436 0.13033156 0.7071064 -0.7071071 -0.0001046195 154 125 0 255
-0.1658574 0.06843842 0.1443169 0.7071064 -0.7071071 -0.0001046195 154 125 0 255
-0.1658574 0.068451315 0.0571566 0.7071064 -0.7071071 -0.0001046195 154 125 0 255
-0.14056517 0.09373659 0.09764303 0.7071064 -0.7071071 -0.0001046195 154 125 0 255
0.057467014 0.14103554 0.16853604 -9.6265424E-08 -0.70701605 -0.7071974 154 125 0 255
-0.06904908 0.16524665 0.14433119 -9.6265424E-08 -0.70701605 -0.7071974 154 125 0 255
0.06785861 0.16524665 0.14433116 -9.6265424E-08 -0.70701605 -0.7071974 154 125 0 255
-0.059383415 0.14103554 0.16853604 -9.6265424E-08 -0.70701605 -0.7071974 154 125 0 255
-0.059383415 0.14103554 0.16853604 0.7071063 -0.7071072 -0.0001054995 154 125 0 255
-0.14200917 0.058405574 0.19757731 0.7071063 -0.7071072 -0.0001054995 154 125 0 255
-0.14200917 0.058409862 0.16852388 0.7071063 -0.7071072 -0.0001054995 154 125 0 255
-0.059383444 0.14103116 0.19758952 0.7071063 -0.7071072 -0.0001054995 154 125 0 255
-0.1658574 -0.06845629 0.05713641 1 7.705769E-08 -8.6527386E-08 154 125 0 255
-0.1658574 0.06843842 0.1443169 1 7.705769E-08 -8.6527386E-08 154 125 0 255
-0.1658574 -0.0684692 0.14429669 1 7.705769E-08 -8.6527386E-08 154 125 0 255
-0.1658574 0.068451315 0.0571566 1 7.705769E-08 -8.6527386E-08 154 125 0 255
-0.14200917 -0.058440544 0.16850664 1 1.072379E-07 -1.7884831E-07 154 125 0 255
-0.14200917 0.058405574 0.19757731 1 1.072379E-07 -1.7884831E-07 154 125 0 255
-0.14200915 -0.058444835 0.19756009 1 1.072379E-07 -1.7884831E-07 154 125 0 255
-0.14200917 0.058409862 0.16852388 1 1.072379E-07 -1.7884831E-07 154 125 0 255
-0.06904904 -0.16527751 0.14428239 0.5026026 0.5027067 -0.7033325 154 125 0 255
-0.14200917 -0.058440544 0.16850664 0.5026026 0.5027067 -0.7033325 154 125 0 255
-0.059383415 -0.14106628 0.16849442 0.5026026 0.5027067 -0.7033325 154 125 0 255
-0.1658574 -0.0684692 0.14429669 0.5026026 0.5027067 -0.7033325 154 125 0 255
-0.06904908 0.16525954 0.057170853 0.44404718 -0.44416228 0.77816576 154 125 0 255
-0.116490945 0.048249558 0.017455705 0.44404718 -0.44416228 0.77816576 154 125 0 255
-0.04825215 0.116488375 0.017465767 0.44404718 -0.44416228 0.77816576 154 125 0 255
-0.1658574 0.068451315 0.0571566 0.44404718 -0.44416228 0.77816576 154 125 0 255
0.06785861 0.16524665 0.14433116 -6.425517E-08 -1 -0.000147891 154 125 0 255
-0.06904908 0.16525954 0.057170853 -6.425517E-08 -1 -0.000147891 154 125 0 255
0.06785861 0.16525953 0.057170853 -6.425517E-08 -1 -0.000147891 154 125 0 255
-0.06904908 0.16524665 0.14433119 -6.425517E-08 -1 -0.000147891 154 125 0 255
0.14009288 0.058409862 0.16852386 -0.4973548 -0.4972507 -0.7109008 154 125 0 255
0.06785861 0.16524665 0.14433116 -0.4973548 -0.4972507 -0.7109008 154 125 0 255
0.164667 0.06843842 0.14431685 -0.4973548 -0.4972507 -0.7109008 154 125 0 255
0.057467014 0.14103554 0.16853604 -0.4973548 -0.4972507 -0.7109008 154 125 0 255
0.05746704 0.14103116 0.19758947 -6.42524E-08 -1 -0.0001507133 154 125 0 255
-0.059383415 0.14103554 0.16853604 -6.42524E-08 -1 -0.0001507133 154 125 0 255
0.057467014 0.14103554 0.16853604 -6.42524E-08 -1 -0.0001507133 154 125 0 255
-0.059383444 0.14103116 0.19758952 -6.42524E-08 -1 -0.0001507133 154 125 0 255
-0.08306589 0.033749994 0.23630725 0.3875605 -0.3874377 -0.8364741 154 125 0 255
-0.059383444 0.14103116 0.19758952 0.3875605 -0.3874377 -0.8364741 154 125 0 255
-0.035308514 0.08150735 0.23631425 0.3875605 -0.3874377 -0.8364741 154 125 0 255
-0.14200917 0.058405574 0.19757731 0.3875605 -0.3874377 -0.8364741 154 125 0 255
-0.116490945 0.048249558 0.017455705 0.6266639 -0.0001149324 0.7792896 154 125 0 255
-0.1658574 -0.06845629 0.05713641 0.6266639 -0.0001149324 0.7792896 154 125 0 255
-0.116490945 -0.04825466 0.017441463 0.6266639 -0.0001149324 0.7792896 154 125 0 255
-0.1658574 0.068451315 0.0571566 0.6266639 -0.0001149324 0.7792896 154 125 0 255
-0.1658574 -0.06845629 0.05713641 0.7071067 0.7071069 0.0001045198 154 125 0 255
-0.14056504 -0.09375429 0.09762553 0.7071067 0.7071069 0.0001045198 154 125 0 255
-0.1174532 -0.11686136 0.064937 0.7071067 0.7071069 0.0001045198 154 125 0 255
-0.1658574 -0.0684692 0.14429669 0.7071067 0.7071069 0.0001045198 154 125 0 255
-0.117453225 -0.11687103 0.13030723 0.7071067 0.7071069 0.0001045198 154 125 0 255
-0.06904904 -0.16527751 0.14428239 0.7071067 0.7071069 0.0001045198 154 125 0 255
-0.06904906 -0.1652646 0.05712211 0.7071067 0.7071069 0.0001045198 154 125 0 255
-0.09434138 -0.1399781 0.09761869 0.7071067 0.7071069 0.0001045198 154 125 0 255
-0.08306593 -0.033789136 0.23629728 0.54917204 0.00012335982 -0.8357094 154 125 0 255
-0.14200917 0.058405574 0.19757731 0.54917204 0.00012335982 -0.8357094 154 125 0 255
-0.08306589 0.033749994 0.23630725 0.54917204 0.00012335982 -0.8357094 154 125 0 255
-0.14200915 -0.058444835 0.19756009 0.54917204 0.00012335982 -0.8357094 154 125 0 255
-0.14200917 -0.058440544 0.16850664 0.7071067 0.7071069 0.0001042587 154 125 0 255
-0.059383392 -0.14107057 0.19754788 0.7071067 0.7071069 0.0001042587 154 125 0 255
-0.059383415 -0.14106628 0.16849442 0.7071067 0.7071069 0.0001042587 154 125 0 255
-0.14200915 -0.058444835 0.19756009 0.7071067 0.7071069 0.0001042587 154 125 0 255
-0.06904904 -0.16527751 0.14428239 -5.4186757E-09 0.7071188 -0.7070948 154 125 0 255
0.05746704 -0.14106628 0.16849442 -5.4186757E-09 0.7071188 -0.7070948 154 125 0 255
0.06785863 -0.16527751 0.14428239 -5.4186757E-09 0.7071188 -0.7070948 154 125 0 255
-0.059383415 -0.14106628 0.16849442 -5.4186757E-09 0.7071188 -0.7070948 154 125 0 255
-0.046322055 0.11183134 3.3015553E-05 0.6831231 -0.6831611 0.2581351 154 125 0 255
-0.116490945 0.048249558 0.017455705 0.6831231 -0.6831611 0.2581351 154 125 0 255
-0.111831315 0.046322055 2.3357066E-05 0.6831231 -0.6831611 0.2581351 154 125 0 255
-0.04825215 0.116488375 0.017465767 0.6831231 -0.6831611 0.2581351 154 125 0 255
-0.06904908 0.16525954 0.057170853 5.735512E-08 -0.6313444 0.7755026 154 125 0 255
0.04825212 0.11648835 0.017465753 5.735512E-08 -0.6313444 0.7755026 154 125 0 255
0.06785861 0.16525953 0.057170853 5.735512E-08 -0.6313444 0.7755026 154 125 0 255
-0.04825215 0.116488375 0.017465767 5.735512E-08 -0.6313444 0.7755026 154 125 0 255
0.164667 0.06843842 0.14431685 -0.7071061 -0.7071074 -0.0001047447 154 125 0 255
0.06785861 0.16525953 0.057170853 -0.7071061 -0.7071074 -0.0001047447 154 125 0 255
0.16466706 0.06845129 0.057156548 -0.7071061 -0.7071074 -0.0001047447 154 125 0 255
0.06785861 0.16524665 0.14433116 -0.7071061 -0.7071074 -0.0001047447 154 125 0 255
0.1400927 0.058405545 0.1975773 -0.7071063 -0.7071072 -0.0001076366 154 125 0 255
0.057467014 0.14103554 0.16853604 -0.7071063 -0.7071072 -0.0001076366 154 125 0 255
0.14009288 0.058409862 0.16852386 -0.7071063 -0.7071072 -0.0001076366 154 125 0 255
0.05746704 0.14103116 0.19758947 -0.7071063 -0.7071072 -0.0001076366 154 125 0 255
0.14009291 -0.058440544 0.16850662 -0.7018368 0.0001047926 -0.7123377 154 125 0 255
0.16466706 -1.5397654E-05 0.1442965 -0.7018368 0.0001047926 -0.7123377 154 125 0 255
0.16466707 -0.06846923 0.14429666 -0.7018368 0.0001047926 -0.7123377 154 125 0 255
0.164667 0.06843842 0.14431685 -0.7018368 0.0001047926 -0.7123377 154 125 0 255
0.14009288 0.058409862 0.16852386 -0.7018368 0.0001047926 -0.7123377 154 125 0 255
0.032230593 0.08150735 0.23631425 -1.5354941E-07 -0.5453279 -0.8382228 154 125 0 255
-0.059383444 0.14103116 0.19758952 -1.5354941E-07 -0.5453279 -0.8382228 154 125 0 255
0.05746704 0.14103116 0.19758947 -1.5354941E-07 -0.5453279 -0.8382228 154 125 0 255
-0.035308514 0.08150735 0.23631425 -1.5354941E-07 -0.5453279 -0.8382228 154 125 0 255
-0.08306589 0.033749994 0.23630725 0.7071071 -0.7071065 -0.0001030684 154 125 0 255
-0.035308514 0.081504434 0.25665173 0.7071071 -0.7071065 -0.0001030684 154 125 0 255
-0.08306589 0.033746973 0.25664464 0.7071071 -0.7071065 -0.0001030684 154 125 0 255
-0.035308514 0.08150735 0.23631425 0.7071071 -0.7071065 -0.0001030684 154 125 0 255
-0.116490945 -0.04825466 0.017441463 0.444093 0.4439782 0.7782447 154 125 0 255
-0.06904906 -0.1652646 0.05712211 0.444093 0.4439782 0.7782447 154 125 0 255
-0.04825212 -0.116493486 0.017431388 0.444093 0.4439782 0.7782447 154 125 0 255
-0.1658574 -0.06845629 0.05713641 0.444093 0.4439782 0.7782447 154 125 0 255
-0.11183134 -0.046322025 9.686104E-06 0.9660819 -3.8127728E-05 0.2582358 154 125 0 255
-0.116490945 0.048249558 0.017455705 0.9660819 -3.8127728E-05 0.2582358 154 125 0 255
-0.116490945 -0.04825466 0.017441463 0.9660819 -3.8127728E-05 0.2582358 154 125 0 255
-0.111831315 0.046322055 2.3357066E-05 0.9660819 -3.8127728E-05 0.2582358 154 125 0 255
-0.06904906 -0.1652646 0.05712211 6.425517E-08 1 0.0001478702 154 125 0 255
0.06785863 -0.16527751 0.14428239 6.425517E-08 1 0.0001478702 154 125 0 255
0.06785863 -0.16526464 0.057122078 6.425517E-08 1 0.0001478702 154 125 0 255
-0.06904904 -0.16527751 0.14428239 6.425517E-08 1 0.0001478702 154 125 0 255
-0.08306593 -0.033789136 0.23629728 1 -4.9024028E-08 -4.540178E-07 154 125 0 255
-0.08306589 0.033746973 0.25664464 1 -4.9024028E-08 -4.540178E-07 154 125 0 255
-0.08306589 -0.033792134 0.25663474 1 -4.9024028E-08 -4.540178E-07 154 125 0 255
-0.08306589 0.033749994 0.23630725 1 -4.9024028E-08 -4.540178E-07 154 125 0 255
-0.059383392 -0.14107057 0.19754788 0.387523 0.3876467 -0.8363946 154 125 0 255
-0.08306593 -0.033789136 0.23629728 0.387523 0.3876467 -0.8363946 154 125 0 255
-0.035308514 -0.081546485 0.2362902 0.387523 0.3876467 -0.8363946 154 125 0 255
-0.14200915 -0.058444835 0.19756009 0.387523 0.3876467 -0.8363946 154 125 0 255
-0.059383415 -0.14106628 0.16849442 6.425234E-08 1 0.0001479193 154 125 0 255
0.05746704 -0.14107057 0.19754785 6.425234E-08 1 0.0001479193 154 125 0 255
0.05746704 -0.14106628 0.16849442 6.425234E-08 1 0.0001479193 154 125 0 255
-0.059383392 -0.14107057 0.19754788 6.425234E-08 1 0.0001479193 154 125 0 255
0.06785863 -0.16527751 0.14428239 -0.49730188 0.4974076 -0.710828 154 125 0 255
0.14009291 -0.058440544 0.16850662 -0.49730188 0.4974076 -0.710828 154 125 0 255
0.16466707 -0.06846923 0.14429666 -0.49730188 0.4974076 -0.710828 154 125 0 255
0.05746704 -0.14106628 0.16849442 -0.49730188 0.4974076 -0.710828 154 125 0 255
0.04825212 0.11648835 0.017465753 -2.9246655E-08 -0.96612036 0.25809202 154 125 0 255
-0.046322055 0.11183134 3.3015553E-05 -2.9246655E-08 -0.96612036 0.25809202 154 125 0 255
0.046322055 0.11183134 3.30041E-05 -2.9246655E-08 -0.96612036 0.25809202 154 125 0 255
-0.04825215 0.116488375 0.017465767 -2.9246655E-08 -0.96612036 0.25809202 154 125 0 255
0.11183123 0.046322025 2.3328568E-05 1.272532E-07 -0.0001475639 1 154 125 0 255
0.08571425 0.035503965 2.1737163E-05 1.272532E-07 -0.0001475639 1 154 125 0 255
0.11183121 -0.046322025 9.6571475E-06 1.272532E-07 -0.0001475639 1 154 125 0 255
0.046322055 0.11183134 3.30041E-05 1.272532E-07 -0.0001475639 1 154 125 0 255
0.03550399 0.0857143 2.9151706E-05 1.272532E-07 -0.0001475639 1 154 125 0 255
-0.046322055 0.11183134 3.3015553E-05 1.272532E-07 -0.0001475639 1 154 125 0 255
-0.03550399 0.0857143 2.9160112E-05 1.272532E-07 -0.0001475639 1 154 125 0 255
-0.0857142 0.03550399 2.1756061E-05 1.272532E-07 -0.0001475639 1 154 125 0 255
-0.111831315 0.046322055 2.3357066E-05 1.272532E-07 -0.0001475639 1 154 125 0 255
-0.0857142 -0.035503965 1.1279506E-05 1.272532E-07 -0.0001475639 1 154 125 0 255
0.085714154 -0.035503965 1.1257535E-05 1.272532E-07 -0.0001475639 1 154 125 0 255
0.046322078 -0.11183129 0 1.272532E-07 -0.0001475639 1 154 125 0 255
0.03550399 -0.085714154 3.855072E-06 1.272532E-07 -0.0001475639 1 154 125 0 255
-0.046322055 -0.11183126 1.0846598E-08 1.272532E-07 -0.0001475639 1 154 125 0 255
-0.03550399 -0.085714154 3.863502E-06 1.272532E-07 -0.0001475639 1 154 125 0 255
-0.11183134 -0.046322025 9.686104E-06 1.272532E-07 -0.0001475639 1 154 125 0 255
0.06785861 0.16525953 0.057170853 -0.4486804 -0.4487951 0.7728317 154 125 0 255
0.11649088 0.048249558 0.017455677 -0.4486804 -0.4487951 0.7728317 154 125 0 255
0.16466706 0.06845129 0.057156548 -0.4486804 -0.4487951 0.7728317 154 125 0 255
0.04825212 0.11648835 0.017465753 -0.4486804 -0.4487951 0.7728317 154 125 0 255
0.16466706 -1.5397654E-05 0.1442965 -1 3.769484E-07 9.382478E-07 154 125 0 255
0.16466686 -0.06845632 0.05713636 -1 3.769484E-07 9.382478E-07 154 125 0 255
0.16466707 -0.06846923 0.14429666 -1 3.769484E-07 9.382478E-07 154 125 0 255
0.16466706 0.06845129 0.057156548 -1 3.769484E-07 9.382478E-07 154 125 0 255
0.164667 0.06843842 0.14431685 -1 3.769484E-07 9.382478E-07 154 125 0 255
0.1400927 0.058405545 0.1975773 -1 -2.1312461E-07 -6.1641103E-06 154 125 0 255
0.14009291 -0.058440544 0.16850662 -1 -2.1312461E-07 -6.1641103E-06 154 125 0 255
0.14009272 -0.05844486 0.19756004 -1 -2.1312461E-07 -6.1641103E-06 154 125 0 255
0.14009288 0.058409862 0.16852386 -1 -2.1312461E-07 -6.1641103E-06 154 125 0 255
0.079988055 0.033749968 0.23630722 -0.3838222 -0.3836986 -0.8399142 154 125 0 255
0.05746704 0.14103116 0.19758947 -0.3838222 -0.3836986 -0.8399142 154 125 0 255
0.1400927 0.058405545 0.1975773 -0.3838222 -0.3836986 -0.8399142 154 125 0 255
0.032230593 0.08150735 0.23631425 -0.3838222 -0.3836986 -0.8399142 154 125 0 255
0.032230593 0.08150735 0.23631425 -6.414876E-08 -1 -0.0001434562 154 125 0 255
-0.035308514 0.081504434 0.25665173 -6.414876E-08 -1 -0.0001434562 154 125 0 255
-0.035308514 0.08150735 0.23631425 -6.414876E-08 -1 -0.0001434562 154 125 0 255
0.032230616 0.081504434 0.25665173 -6.414876E-08 -1 -0.0001434562 154 125 0 255
0.032230616 -0.08154952 0.25662762 -2.588784E-07 0.0001473699 -1 154 125 0 255
0.07998793 0.033746973 0.25664464 -2.588784E-07 0.0001473699 -1 154 125 0 255
0.07998808 -0.033792134 0.25663474 -2.588784E-07 0.0001473699 -1 154 125 0 255
0.032230616 0.081504434 0.25665173 -2.588784E-07 0.0001473699 -1 154 125 0 255
-0.035308514 -0.08154952 0.25662762 -2.588784E-07 0.0001473699 -1 154 125 0 255
-0.035308514 0.081504434 0.25665173 -2.588784E-07 0.0001473699 -1 154 125 0 255
-0.08306589 -0.033792134 0.25663474 -2.588784E-07 0.0001473699 -1 154 125 0 255
-0.08306589 0.033746973 0.25664464 -2.588784E-07 0.0001473699 -1 154 125 0 255
-0.04215724 0.016857015 0.2818229 0.3709317 -0.3708053 -0.8514183 154 125 0 255
-0.035308514 0.081504434 0.25665173 0.3709317 -0.3708053 -0.8514183 154 125 0 255
-0.018278537 0.040735703 0.28182644 0.3709317 -0.3708053 -0.8514183 154 125 0 255
-0.08306589 0.033746973 0.25664464 0.3709317 -0.3708053 -0.8514183 154 125 0 255
0.04825215 -0.116493486 0.017431375 1.3847149E-07 0.631207 0.7756144 154 125 0 255
-0.06904906 -0.1652646 0.05712211 1.3847149E-07 0.631207 0.7756144 154 125 0 255
0.06785863 -0.16526464 0.057122078 1.3847149E-07 0.631207 0.7756144 154 125 0 255
-0.04825212 -0.116493486 0.017431388 1.3847149E-07 0.631207 0.7756144 154 125 0 255
-0.046322055 -0.11183126 1.0846598E-08 0.683123 0.6830851 0.2583366 154 125 0 255
-0.116490945 -0.04825466 0.017441463 0.683123 0.6830851 0.2583366 154 125 0 255
-0.04825212 -0.116493486 0.017431388 0.683123 0.6830851 0.2583366 154 125 0 255
-0.11183134 -0.046322025 9.686104E-06 0.683123 0.6830851 0.2583366 154 125 0 255
0.06785863 -0.16527751 0.14428239 -0.7071066 0.7071069 0.0001053968 154 125 0 255
0.16466686 -0.06845632 0.05713636 -0.7071066 0.7071069 0.0001053968 154 125 0 255
0.06785863 -0.16526464 0.057122078 -0.7071066 0.7071069 0.0001053968 154 125 0 255
0.16466707 -0.06846923 0.14429666 -0.7071066 0.7071069 0.0001053968 154 125 0 255
-0.08306589 -0.033792134 0.25663474 0.5241893 0.0001249251 -0.8516017 154 125 0 255
-0.04215724 0.016857015 0.2818229 0.5241893 0.0001249251 -0.8516017 154 125 0 255
-0.04215724 -0.016912526 0.28181782 0.5241893 0.0001249251 -0.8516017 154 125 0 255
-0.08306589 0.033746973 0.25664464 0.5241893 0.0001249251 -0.8516017 154 125 0 255
-0.08306593 -0.033789136 0.23629728 0.7071066 0.707107 0.0001040983 154 125 0 255
-0.035308514 -0.08154952 0.25662762 0.7071066 0.707107 0.0001040983 154 125 0 255
-0.035308514 -0.081546485 0.2362902 0.7071066 0.707107 0.0001040983 154 125 0 255
-0.08306589 -0.033792134 0.25663474 0.7071066 0.707107 0.0001040983 154 125 0 255
-0.059383392 -0.14107057 0.19754788 -1.607309E-07 0.5454999 -0.8381109 154 125 0 255
0.032230616 -0.081546485 0.23629019 -1.607309E-07 0.5454999 -0.8381109 154 125 0 255
0.05746704 -0.14107057 0.19754785 -1.607309E-07 0.5454999 -0.8381109 154 125 0 255
-0.035308514 -0.081546485 0.2362902 -1.607309E-07 0.5454999 -0.8381109 154 125 0 255
0.05746704 -0.14107057 0.19754785 -0.7071066 0.707107 0.0001027249 154 125 0 255
0.14009291 -0.058440544 0.16850662 -0.7071066 0.707107 0.0001027249 154 125 0 255
0.05746704 -0.14106628 0.16849442 -0.7071066 0.707107 0.0001027249 154 125 0 255
0.14009272 -0.05844486 0.19756004 -0.7071066 0.707107 0.0001027249 154 125 0 255
0.11649088 0.048249558 0.017455677 -0.6831235 -0.6831608 0.2581348 154 125 0 255
0.046322055 0.11183134 3.30041E-05 -0.6831235 -0.6831608 0.2581348 154 125 0 255
0.11183123 0.046322025 2.3328568E-05 -0.6831235 -0.6831608 0.2581348 154 125 0 255
0.04825212 0.11648835 0.017465753 -0.6831235 -0.6831608 0.2581348 154 125 0 255
-0.046322055 -0.11183126 1.0846598E-08 9.4083596E-08 0.9660436 0.258379 154 125 0 255
0.04825215 -0.116493486 0.017431375 9.4083596E-08 0.9660436 0.258379 154 125 0 255
0.046322078 -0.11183129 0 9.4083596E-08 0.9660436 0.258379 154 125 0 255
-0.04825212 -0.116493486 0.017431388 9.4083596E-08 0.9660436 0.258379 154 125 0 255
0.11649088 -0.04825469 0.017441435 -0.68312347 0.68308437 0.25833696 154 125 0 255
0.046322078 -0.11183129 0 -0.68312347 0.68308437 0.25833696 154 125 0 255
0.04825215 -0.116493486 0.017431375 -0.68312347 0.68308437 0.25833696 154 125 0 255
0.11183121 -0.046322025 9.6571475E-06 -0.68312347 0.68308437 0.25833696 154 125 0 255
0.11649088 0.048249558 0.017455677 -0.9660818 -3.7836988E-05 0.2582361 154 125 0 255
0.11183121 -0.046322025 9.6571475E-06 -0.9660818 -3.7836988E-05 0.2582361 154 125 0 255
0.11649088 -0.04825469 0.017441435 -0.9660818 -3.7836988E-05 0.2582361 154 125 0 255
0.11183123 0.046322025 2.3328568E-05 -0.9660818 -3.7836988E-05 0.2582361 154 125 0 255
0.11649088 0.048249558 0.017455677 -0.6359313 -0.0001132773 0.7717457 154 125 0 255
0.16466686 -0.06845632 0.05713636 -0.6359313 -0.0001132773 0.7717457 154 125 0 255
0.16466706 0.06845129 0.057156548 -0.6359313 -0.0001132773 0.7717457 154 125 0 255
0.11649088 -0.04825469 0.017441435 -0.6359313 -0.0001132773 0.7717457 154 125 0 255
0.07998795 -0.03378916 0.23629726 -0.5416956 0.0001241734 -0.8405747 154 125 0 255
0.1400927 0.058405545 0.1975773 -0.5416956 0.0001241734 -0.8405747 154 125 0 255
0.14009272 -0.05844486 0.19756004 -0.5416956 0.0001241734 -0.8405747 154 125 0 255
0.079988055 0.033749968 0.23630722 -0.5416956 0.0001241734 -0.8405747 154 125 0 255
0.032230616 0.081504434 0.25665173 -0.7071071 -0.7071064 -0.0001049469 154 125 0 255
0.079988055 0.033749968 0.23630722 -0.7071071 -0.7071064 -0.0001049469 154 125 0 255
0.07998793 0.033746973 0.25664464 -0.7071071 -0.7071064 -0.0001049469 154 125 0 255
0.032230593 0.08150735 0.23631425 -0.7071071 -0.7071064 -0.0001049469 154 125 0 255
0.01549102 0.040735703 0.2818262 -2.921341E-07 -0.5254028 -0.8508536 154 125 0 255
-0.035308514 0.081504434 0.25665173 -2.921341E-07 -0.5254028 -0.8508536 154 125 0 255
0.032230616 0.081504434 0.25665173 -2.921341E-07 -0.5254028 -0.8508536 154 125 0 255
-0.018278537 0.040735703 0.28182644 -2.921341E-07 -0.5254028 -0.8508536 154 125 0 255
0.07998793 0.033746973 0.25664464 -1 -4.944202E-07 -1.05422E-07 154 125 0 255
0.07998795 -0.03378916 0.23629726 -1 -4.944202E-07 -1.05422E-07 154 125 0 255
0.07998808 -0.033792134 0.25663474 -1 -4.944202E-07 -1.05422E-07 154 125 0 255
0.079988055 0.033749968 0.23630722 -1 -4.944202E-07 -1.05422E-07 154 125 0 255
0.032230616 -0.08154952 0.25662762 -0.7071065 0.707107 0.0001064699 154 125 0 255
0.07998795 -0.03378916 0.23629726 -0.7071065 0.707107 0.0001064699 154 125 0 255
0.032230616 -0.081546485 0.23629019 -0.7071065 0.707107 0.0001064699 154 125 0 255
0.07998808 -0.033792134 0.25663474 -0.7071065 0.707107 0.0001064699 154 125 0 255
-0.035308514 -0.081546485 0.2362902 6.417273E-08 1 0.000148294 154 125 0 255
0.032230616 -0.08154952 0.25662762 6.417273E-08 1 0.000148294 154 125 0 255
0.032230616 -0.081546485 0.23629019 6.417273E-08 1 0.000148294 154 125 0 255
-0.035308514 -0.08154952 0.25662762 6.417273E-08 1 0.000148294 154 125 0 255
0.015491035 -0.04079123 0.28181452 4.9534515E-07 0.0001473724 -1 154 125 0 255
0.039369695 0.01685701 0.2818229 4.9534515E-07 0.0001473724 -1 154 125 0 255
0.039369717 -0.016912531 0.28181782 4.9534515E-07 0.0001473724 -1 154 125 0 255
0.01549102 0.040735703 0.2818262 4.9534515E-07 0.0001473724 -1 154 125 0 255
-0.018278545 -0.04079123 0.28181425 4.9534515E-07 0.0001473724 -1 154 125 0 255
-0.018278537 0.040735703 0.28182644 4.9534515E-07 0.0001473724 -1 154 125 0 255
-0.04215724 0.016857015 0.2818229 4.9534515E-07 0.0001473724 -1 154 125 0 255
-0.04215724 -0.016912526 0.28181782 4.9534515E-07 0.0001473724 -1 154 125 0 255
0.11649088 -0.04825469 0.017441435 -0.4487274 0.4486131 0.7729101 154 125 0 255
0.06785863 -0.16526464 0.057122078 -0.4487274 0.4486131 0.7729101 154 125 0 255
0.16466686 -0.06845632 0.05713636 -0.4487274 0.4486131 0.7729101 154 125 0 255
0.04825215 -0.116493486 0.017431375 -0.4487274 0.4486131 0.7729101 154 125 0 255
-0.035308514 -0.08154952 0.25662762 0.3709444 0.3710713 -0.8512968 154 125 0 255
-0.04215724 -0.016912526 0.28181782 0.3709444 0.3710713 -0.8512968 154 125 0 255
-0.018278545 -0.04079123 0.28181425 0.3709444 0.3710713 -0.8512968 154 125 0 255
-0.08306589 -0.033792134 0.25663474 0.3709444 0.3710713 -0.8512968 154 125 0 255
0.05746704 -0.14107057 0.19754785 -0.3837852 0.3839089 -0.839835 154 125 0 255
0.07998795 -0.03378916 0.23629726 -0.3837852 0.3839089 -0.839835 154 125 0 255
0.14009272 -0.05844486 0.19756004 -0.3837852 0.3839089 -0.839835 154 125 0 255
0.032230616 -0.081546485 0.23629019 -0.3837852 0.3839089 -0.839835 154 125 0 255
0.039369695 0.01685701 0.2818229 -0.3722867 -0.3721606 -0.8502347 154 125 0 255
0.032230616 0.081504434 0.25665173 -0.3722867 -0.3721606 -0.8502347 154 125 0 255
0.07998793 0.033746973 0.25664464 -0.3722867 -0.3721606 -0.8502347 154 125 0 255
0.01549102 0.040735703 0.2818262 -0.3722867 -0.3721606 -0.8502347 154 125 0 255
0.039369717 -0.016912531 0.28181782 -0.52690136 0.00012483729 -0.84992635 154 125 0 255
0.07998793 0.033746973 0.25664464 -0.52690136 0.00012483729 -0.84992635 154 125 0 255
0.07998808 -0.033792134 0.25663474 -0.52690136 0.00012483729 -0.84992635 154 125 0 255
0.039369695 0.01685701 0.2818229 -0.52690136 0.00012483729 -0.84992635 154 125 0 255
0.032230616 -0.08154952 0.25662762 -0.3723003 0.3724247 -0.8501131 154 125 0 255
0.039369717 -0.016912531 0.28181782 -0.3723003 0.3724247 -0.8501131 154 125 0 255
0.07998808 -0.033792134 0.25663474 -0.3723003 0.3724247 -0.8501131 154 125 0 255
0.015491035 -0.04079123 0.28181452 -0.3723003 0.3724247 -0.8501131 154 125 0 255
-0.035308514 -0.08154952 0.25662762 1.016468E-06 0.5256817 -0.8506813 154 125 0 255
0.015491035 -0.04079123 0.28181452 1.016468E-06 0.5256817 -0.8506813 154 125 0 255
0.032230616 -0.08154952 0.25662762 1.016468E-06 0.5256817 -0.8506813 154 125 0 255
-0.018278545 -0.04079123 0.28181425 1.016468E-06 0.5256817 -0.8506813 154 125 0 255
0.09477049 -0.06192525 0.21725582 -0.9745281 0.1544364 -0.1626175 154 125 0 255
0.09226617 -0.09024536 0.20536825 -0.9745281 0.1544364 -0.1626175 154 125 0 255
0.08798701 -0.08550414 0.235515 -0.9745281 0.1544364 -0.1626175 154 125 0 255
0.06644711 -0.06440906 0.2291398 -0.2870297 -0.5335207 -0.7955939 154 125 0 255
0.09477049 -0.06192525 0.21725582 -0.2870297 -0.5335207 -0.7955939 154 125 0 255
0.08798701 -0.08550414 0.235515 -0.2870297 -0.5335207 -0.7955939 154 125 0 255
0.08798701 -0.08550414 0.235515 -0.15877828 0.97161895 -0.17534518 154 125 0 255
0.09226617 -0.09024536 0.20536825 -0.15877828 0.97161895 -0.17534518 154 125 0 255
0.06394284 -0.092729166 0.21725222 -0.15877828 0.97161895 -0.17534518 154 125 0 255
0.06394284 -0.092729166 0.21725222 0.5218837 0.2905071 -0.8020243 154 125 0 255
0.06644711 -0.06440906 0.2291398 0.5218837 0.2905071 -0.8020243 154 125 0 255
0.08798701 -0.08550414 0.235515 0.5218837 0.2905071 -0.8020243 154 125 0 255
3 0 1 2
3 3 4 5
3 6 7 8
3 9 10 11
3 12 13 14
3 15 16 17
3 18 19 20
3 21 22 23
3 24 25 26
3 27 28 29
3 30 31 32
3 33 34 35
3 36 37 38
3 39 40 41
3 42 43 44
3 45 46 47
3 48 49 50
3 51 52 53
3 54 55 56
3 57 58 59
3 60 61 62
3 63 64 65
3 66 67 68
3 69 70 71
3 72 73 74
3 75 76 77
3 78 79 80
3 81 82 83
3 84 85 86
3 87 88 89
3 90 91 92
3 93 94 95
3 96 97 98
3 99 100 101
3 102 103 104
3 105 106 107
3 108 109 110
3 108 111 109
3 112 113 114
3 115 116 117
3 118 119 120
3 121 122 123
3 124 125 126
3 126 125 127
3 128 129 130
3 131 132 133
3 134 135 136
3 137 138 139
3 140 141 142
3 143 144 145
3 146 147 148
3 149 150 151
3 152 153 154
3 155 156 157
3 158 159 160
3 161 162 163
3 164 165 166
3 167 168 169
3 170 171 172
3 173 174 175
3 176 177 178
3 177 176 179
3 177 179 180
3 180 179 181
3 180 181 182
3 182 181 183
3 184 185 186
3 185 184 187
3 188 189 190
3 189 188 191
3 192 193 194
3 193 192 195
3 196 197 198
3 197 196 199
3 200 201 202
3 201 200 203
3 204 205 206
3 205 204 207
3 208 209 210
3 209 208 211
3 212 213 214
3 213 212 215
3 216 217 218
3 219 220 221
3 222 223 224
3 225 226 227
3 228 229 230
3 229 228 231
3 232 233 234
3 233 232 235
3 236 237 238
3 237 236 239
3 237 239 240
3 240 239 241
3 242 243 241
3 243 242 238
3 238 242 236
3 241 243 240
3 244 245 246
3 245 244 247
3 248 249 250
3 249 248 251
3 252 253 254
3 253 252 255
3 256 257 258
3 257 256 259
3 260 261 262
3 261 260 263
3 264 265 266
3 265 264 267
3 268 269 270
3 269 268 271
3 272 273 274
3 273 272 275
3 276 277 278
3 277 276 279
3 280 281 282
3 281 280 283
3 284 285 286
3 285 284 287
3 288 289 290
3 289 288 291
3 289 291 292
3 292 291 293
3 294 295 293
3 295 294 290
3 290 294 288
3 293 295 292
3 296 297 298
3 297 296 299
3 300 301 302
3 301 300 303
3 304 305 306
3 305 304 307
3 308 309 310
3 309 308 311
3 312 313 314
3 313 312 315
3 316 317 318
3 317 316 319
3 320 321 322
3 321 320 323
3 324 325 326
3 325 324 327
3 327 324 328
3 329 330 331
3 330 329 332
3 333 334 335
3 334 333 336
3 337 338 339
3 338 337 340
3 341 342 343
3 342 341 344
3 345 346 347
3 346 345 348
3 349 350 351
3 350 349 352
3 353 354 355
3 354 353 356
3 357 358 359
3 358 357 360
3 361 362 363
3 362 361 364
3 365 366 367
3 366 365 368
3 369 370 371
3 370 369 372
3 370 372 373
3 373 372 374
3 373 374 375
3 375 374 376
3 376 374 377
3 376 377 378
3 371 379 380
3 379 371 370
3 380 379 381
3 380 381 382
3 382 381 383
3 382 383 378
3 382 378 384
3 384 378 377
3 385 386 387
3 386 385 388
3 389 390 391
3 390 389 392
3 392 389 393
3 394 395 396
3 395 394 397
3 398 399 400
3 399 398 401
3 402 403 404
3 403 402 405
3 406 407 408
3 407 406 409
3 409 406 410
3 409 410 411
3 411 410 412
3 411 412 413
3 414 415 416
3 415 414 417
3 418 419 420
3 419 418 421
3 422 423 424
3 423 422 425
3 426 427 428
3 427 426 429
3 430 431 432
3 431 430 433
3 434 435 436
3 435 434 437
3 438 439 440
3 439 438 441
3 442 443 444
3 443 442 445
3 446 447 448
3 447 446 449
3 450 451 452
3 451 450 453
3 454 455 456
3 455 454 457
3 458 459 460
3 459 458 461
3 462 463 464
3 463 462 465
3 466 467 468
3 467 466 469
3 470 471 472
3 471 470 473
3 474 475 476
3 475 474 477
3 478 479 480
3 479 478 481
3 482 483 484
3 483 482 485
3 486 487 488
3 487 486 489
3 490 491 492
3 491 490 493
3 493 490 494
3 493 494 495
3 495 494 496
3 496 494 497
3 498 499 500
3 499 498 501
3 502 503 504
3 503 502 505
3 506 507 508
3 507 506 509
3 510 511 512
3 511 510 513
3 514 515 516
3 515 514 517
3 518 519 520
3 519 518 521
3 522 523 524
3 523 522 525
3 526 527 528
3 529 530 531
3 532 533 534
3 535 536 537

