ply
format ascii 1.0
commentY29udmVydGVyIGJ5IENvZGVMZW9wYXJk
comment Original mesh name: 'C:\Program Files (x86)\Steam\steamapps\common\Stormworks\rom\meshes\component_seat_bed.mesh'
comment SubMesh index: 0
comment SubMesh name: 'ID49'
comment Shader: Opaque (0)
element vertex 381
property float x
property float y
property float z
property float nx
property float ny
property float nz
property uchar red
property uchar green
property uchar blue
property uchar alpha
element face 183
property list uchar ushort vertex_index
end_header
-0.34688547 -0.24922147 0.023024293 1 -0 -0 255 255 255 255
-0.34688547 -0.47237194 0.041024297 1 -0 -0 255 255 255 255
-0.34688547 -0.48737186 0.023024293 1 -0 -0 255 255 255 255
-0.34688547 -0.24922147 0.041024297 1 -0 -0 255 255 255 255
-0.29020157 -0.8097291 0.094417125 0.05407876 0.99853665 -0 55 125 0 255
0.27244598 -0.84020096 0.07540795 0.05407876 0.99853665 -0 55 125 0 255
-0.29020157 -0.8097291 0.07540795 0.05407876 0.99853665 -0 55 125 0 255
0.27244598 -0.84020096 0.094417125 0.05407876 0.99853665 -0 55 125 0 255
-0.27244598 -0.48188168 0.07540795 0.99853665 -0.05407891 2.66044E-30 55 125 0 255
-0.29020157 -0.8097291 0.094417125 0.99853665 -0.05407891 2.66044E-30 55 125 0 255
-0.29020157 -0.8097291 0.07540795 0.99853665 -0.05407891 2.66044E-30 55 125 0 255
-0.27244598 -0.48188168 0.094417125 0.99853665 -0.05407891 2.66044E-30 55 125 0 255
-0.29020157 -0.8097291 0.094417125 0.035029624 0.64680535 -0.76185024 55 125 0 255
0.24247687 -0.8204934 0.10977072 0.035029624 0.64680535 -0.76185024 55 125 0 255
0.27244598 -0.84020096 0.094417125 0.035029624 0.64680535 -0.76185024 55 125 0 255
-0.25827938 -0.79337347 0.10977072 0.035029624 0.64680535 -0.76185024 55 125 0 255
0.2962765 -0.5481134 0.094417125 -0.99668825 0.08131675 -2.8684858E-16 55 125 0 255
0.27244598 -0.84020096 0.07540795 -0.99668825 0.08131675 -2.8684858E-16 55 125 0 255
0.27244598 -0.84020096 0.094417125 -0.99668825 0.08131675 -2.8684858E-16 55 125 0 255
-0.29020157 -0.8097291 0.07540795 0.04240076 0.7829086 0.6206902 55 125 0 255
0.24362938 -0.8212512 0.05347429 0.04240076 0.7829086 0.6206902 55 125 0 255
-0.2595072 -0.7940024 0.05347429 0.04240076 0.7829086 0.6206902 55 125 0 255
0.27244598 -0.84020096 0.07540795 0.04240076 0.7829086 0.6206902 55 125 0 255
-0.27244598 -0.48188168 0.07540795 0.5919203 -0.0320573 0.8053587 55 125 0 255
-0.2595072 -0.7940024 0.05347429 0.5919203 -0.0320573 0.8053587 55 125 0 255
-0.2436296 -0.5008313 0.05347429 0.5919203 -0.0320573 0.8053587 55 125 0 255
-0.29020157 -0.8097291 0.07540795 0.5919203 -0.0320573 0.8053587 55 125 0 255
-0.27244598 -0.48188168 0.094417125 0.0024528794 -0.9999969 -2.1284238E-18 55 125 0 255
-0.27244598 -0.48188168 0.07540795 0.0024528794 -0.9999969 -2.1284238E-18 55 125 0 255
-0.06016551 -0.48136097 0.094417125 0.0024528794 -0.9999969 -2.1284238E-18 55 125 0 255
-0.25827938 -0.79337347 0.10977072 0.44327882 -0.024007112 -0.8960623 55 125 0 255
-0.27244598 -0.48188168 0.094417125 0.44327882 -0.024007112 -0.8960623 55 125 0 255
-0.24247696 -0.501589 0.10977072 0.44327882 -0.024007112 -0.8960623 55 125 0 255
-0.29020157 -0.8097291 0.094417125 0.44327882 -0.024007112 -0.8960623 55 125 0 255
-0.25827938 -0.79337347 0.10977072 0.01342662 0.24791682 -0.9686883 55 125 0 255
0.14306131 -0.7551181 0.12512428 0.01342662 0.24791682 -0.9686883 55 125 0 255
0.24247687 -0.8204934 0.10977072 0.01342662 0.24791682 -0.9686883 55 125 0 255
0.24247687 -0.8204934 0.10977072 -0.4369991 0.03565343 -0.898755 55 125 0 255
0.2962765 -0.5481134 0.094417125 -0.4369991 0.03565343 -0.898755 55 125 0 255
0.27244598 -0.84020096 0.094417125 -0.4369991 0.03565343 -0.898755 55 125 0 255
0.2962765 -0.5481134 0.094417125 -0.7327065 0.1035537 -0.6726201 55 125 0 255
0.28543502 -0.74829537 0.07540795 -0.7327065 0.1035537 -0.6726201 55 125 0 255
0.27244598 -0.84020096 0.07540795 -0.7327065 0.1035537 -0.6726201 55 125 0 255
0.24362938 -0.8212512 0.05347429 -0.5696353 0.08050678 0.8179452 55 125 0 255
0.27244598 -0.84020096 0.07540795 -0.5696353 0.08050678 0.8179452 55 125 0 255
0.28543502 -0.74829537 0.07540795 -0.5696353 0.08050678 0.8179452 55 125 0 255
-0.27244598 -0.48188168 0.07540795 -0.01653977 -0.7672481 0.641137 55 125 0 255
-0.2436296 -0.5008313 0.05347429 -0.01653977 -0.7672481 0.641137 55 125 0 255
0.096183494 -0.48982832 0.07540795 -0.01653977 -0.7672481 0.641137 55 125 0 255
-0.06016551 -0.48136097 0.094417125 -0.02081728 -0.9656734 0.2589237 55 125 0 255
-0.27244598 -0.48188168 0.07540795 -0.02081728 -0.9656734 0.2589237 55 125 0 255
0.096183494 -0.48982832 0.07540795 -0.02081728 -0.9656734 0.2589237 55 125 0 255
-0.27244598 -0.48188168 0.094417125 0.001504 -0.6131551 -0.7899611 55 125 0 255
-0.06016551 -0.48136097 0.094417125 0.001504 -0.6131551 -0.7899611 55 125 0 255
-0.24247696 -0.501589 0.10977072 0.001504 -0.6131551 -0.7899611 55 125 0 255
-0.25827938 -0.79337347 0.10977072 0.1873867 -0.01014847 -0.9822338 55 125 0 255
-0.24247696 -0.501589 0.10977072 0.1873867 -0.01014847 -0.9822338 55 125 0 255
-0.20568778 -0.7275928 0.119124286 0.1873867 -0.01014847 -0.9822338 55 125 0 255
-0.25827938 -0.79337347 0.10977072 0.02653732 0.1199006 -0.99243116 55 125 0 255
-0.20568778 -0.7275928 0.119124286 0.02653732 0.1199006 -0.99243116 55 125 0 255
0.14306131 -0.7551181 0.12512428 0.02653732 0.1199006 -0.99243116 55 125 0 255
0.24247687 -0.8204934 0.10977072 -0.1474914 0.007987865 -0.9890311 55 125 0 255
0.15238479 -0.58296525 0.12512428 -0.1474914 0.007987865 -0.9890311 55 125 0 255
0.25827938 -0.52870905 0.10977072 -0.1474914 0.007987865 -0.9890311 55 125 0 255
0.14306131 -0.7551181 0.12512428 -0.1474914 0.007987865 -0.9890311 55 125 0 255
0.24247687 -0.8204934 0.10977072 -0.3658549 0.01981404 -0.930461 55 125 0 255
0.25827938 -0.52870905 0.10977072 -0.3658549 0.01981404 -0.930461 55 125 0 255
0.2962765 -0.5481134 0.094417125 -0.3658549 0.01981404 -0.930461 55 125 0 255
0.29020157 -0.51235354 0.07540795 -0.9414404 0.01901924 0.3366426 55 125 0 255
0.28543502 -0.74829537 0.07540795 -0.9414404 0.01901924 0.3366426 55 125 0 255
0.2962765 -0.5481134 0.094417125 -0.9414404 0.01901924 0.3366426 55 125 0 255
0.24362938 -0.8212512 0.05347429 -0.5011579 0.02714176 0.8649301 55 125 0 255
0.28543502 -0.74829537 0.07540795 -0.5011579 0.02714176 0.8649301 55 125 0 255
0.25950697 -0.5280802 0.05347429 -0.5011579 0.02714176 0.8649301 55 125 0 255
-0.06016551 -0.48136097 0.094417125 -0.08482742 -0.9589632 -0.2705435 55 125 0 255
0.096183494 -0.48982832 0.07540795 -0.08482742 -0.9589632 -0.2705435 55 125 0 255
0.29020157 -0.51235354 0.094417125 -0.08482742 -0.9589632 -0.2705435 55 125 0 255
-0.24247696 -0.501589 0.10977072 -0.034394257 -0.38882273 -0.9206703 55 125 0 255
-0.06016551 -0.48136097 0.094417125 -0.034394257 -0.38882273 -0.9206703 55 125 0 255
0.29020157 -0.51235354 0.094417125 -0.034394257 -0.38882273 -0.9206703 55 125 0 255
-0.24247696 -0.501589 0.10977072 0.07464519 -0.02910292 -0.9967854 55 125 0 255
-0.14306144 -0.56696457 0.119124286 0.07464519 -0.02910292 -0.9967854 55 125 0 255
-0.20568778 -0.7275928 0.119124286 0.07464519 -0.02910292 -0.9967854 55 125 0 255
-0.20568778 -0.7275928 0.119124286 0.01712856 -0.0009276512 -0.9998529 55 125 0 255
0.15238479 -0.58296525 0.12512428 0.01712856 -0.0009276512 -0.9998529 55 125 0 255
0.14306131 -0.7551181 0.12512428 0.01712856 -0.0009276512 -0.9998529 55 125 0 255
-0.14306144 -0.56696457 0.119124286 0.004325756 -0.2800956 -0.9599624 55 125 0 255
0.25827938 -0.52870905 0.10977072 0.004325756 -0.2800956 -0.9599624 55 125 0 255
0.15238479 -0.58296525 0.12512428 0.004325756 -0.2800956 -0.9599624 55 125 0 255
0.25827938 -0.52870905 0.10977072 -0.4036681 -0.06857544 -0.9123319 55 125 0 255
0.29020157 -0.51235354 0.094417125 -0.4036681 -0.06857544 -0.9123319 55 125 0 255
0.2962765 -0.5481134 0.094417125 -0.4036681 -0.06857544 -0.9123319 55 125 0 255
0.25950697 -0.5280802 0.05347429 -0.585358 0.01182557 0.8106887 55 125 0 255
0.28543502 -0.74829537 0.07540795 -0.585358 0.01182557 0.8106887 55 125 0 255
0.29020157 -0.51235354 0.07540795 -0.585358 0.01182557 0.8106887 55 125 0 255
0.29020157 -0.51235354 0.07540795 -0.98587525 -0.16748118 -1.1091748E-16 55 125 0 255
0.2962765 -0.5481134 0.094417125 -0.98587525 -0.16748118 -1.1091748E-16 55 125 0 255
0.29020157 -0.51235354 0.094417125 -0.98587525 -0.16748118 -1.1091748E-16 55 125 0 255
0.29020157 -0.51235354 0.094417125 -0.115324 -0.9933279 -0 55 125 0 255
0.096183494 -0.48982832 0.07540795 -0.115324 -0.9933279 -0 55 125 0 255
0.29020157 -0.51235354 0.07540795 -0.115324 -0.9933279 -0 55 125 0 255
-0.24247696 -0.501589 0.10977072 -0.03502991 -0.6468065 -0.7618492 55 125 0 255
0.29020157 -0.51235354 0.094417125 -0.03502991 -0.6468065 -0.7618492 55 125 0 255
0.25827938 -0.52870905 0.10977072 -0.03502991 -0.6468065 -0.7618492 55 125 0 255
-0.24247696 -0.501589 0.10977072 -0.00834301 -0.1540487 -0.988028 55 125 0 255
0.25827938 -0.52870905 0.10977072 -0.00834301 -0.1540487 -0.988028 55 125 0 255
-0.14306144 -0.56696457 0.119124286 -0.00834301 -0.1540487 -0.988028 55 125 0 255
-0.20568778 -0.7275928 0.119124286 0.01988375 -0.0077523417 -0.9997722 55 125 0 255
-0.14306144 -0.56696457 0.119124286 0.01988375 -0.0077523417 -0.9997722 55 125 0 255
0.15238479 -0.58296525 0.12512428 0.01988375 -0.0077523417 -0.9997722 55 125 0 255
0.096183494 -0.48982832 0.07540795 -0.08684975 -0.7480689 0.6579134 55 125 0 255
0.25950697 -0.5280802 0.05347429 -0.08684975 -0.7480689 0.6579134 55 125 0 255
0.29020157 -0.51235354 0.07540795 -0.08684975 -0.7480689 0.6579134 55 125 0 255
-0.2436296 -0.5008313 0.05347429 -0.032363106 -0.59756845 0.8011644 55 125 0 255
0.25950697 -0.5280802 0.05347429 -0.032363106 -0.59756845 0.8011644 55 125 0 255
0.096183494 -0.48982832 0.07540795 -0.032363106 -0.59756845 0.8011644 55 125 0 255
-0.34688547 0.84688544 0.1251242 0 1 -0 84 84 84 255
0.34688547 0.84688544 0.023024082 0 1 -0 84 84 84 255
-0.34688547 0.84688544 0.023024082 0 1 -0 84 84 84 255
0.34688547 0.84688544 0.1251242 0 1 -0 84 84 84 255
0.34688547 0.84688544 0.1251242 0 -1 -0 84 84 84 255
-0.34688547 0.84688544 0.1251242 0 -1 -0 84 84 84 255
0.34688547 0.84688544 0.023024082 0 -1 -0 84 84 84 255
-0.34688547 0.84688544 0.023024082 0 -1 -0 84 84 84 255
-0.34688547 -0.37499997 0.1251242 -1 -0 -0 84 84 84 255
-0.34688547 -0.84688544 0.023024082 -1 -0 -0 84 84 84 255
-0.34688547 -0.84688544 0.1251242 -1 -0 -0 84 84 84 255
-0.34688547 -0.22500004 0.045124114 -1 -0 -0 84 84 84 255
-0.34688547 0.84688544 0.023024082 -1 -0 -0 84 84 84 255
-0.34688547 0.22500004 0.045124114 -1 -0 -0 84 84 84 255
-0.34688547 0.37499997 0.1251242 -1 -0 -0 84 84 84 255
-0.34688547 0.84688544 0.1251242 -1 -0 -0 84 84 84 255
-0.34688547 0.84688544 0.1251242 1 -0 -0 84 84 84 255
-0.34688547 0.37499997 0.1251242 1 -0 -0 84 84 84 255
-0.34688547 0.84688544 0.023024082 1 -0 -0 84 84 84 255
-0.34688547 0.22500004 0.045124114 1 -0 -0 84 84 84 255
-0.34688547 -0.22500004 0.045124114 1 -0 -0 84 84 84 255
-0.34688547 -0.84688544 0.023024082 1 -0 -0 84 84 84 255
-0.34688547 -0.37499997 0.1251242 1 -0 -0 84 84 84 255
-0.34688547 -0.84688544 0.1251242 1 -0 -0 84 84 84 255
-0.37499997 0.37499997 0.1251242 0 -0 -1 84 84 84 255
-0.34688547 0.84688544 0.1251242 0 -0 -1 84 84 84 255
-0.34688547 0.37499997 0.1251242 0 -0 -1 84 84 84 255
0.34688547 0.37499997 0.1251242 0 -0 -1 84 84 84 255
0.37499997 0.8749999 0.1251242 0 -0 -1 84 84 84 255
0.37499997 0.37499997 0.1251242 0 -0 -1 84 84 84 255
0.34688547 0.84688544 0.1251242 0 -0 -1 84 84 84 255
-0.37499997 0.8749999 0.1251242 0 -0 -1 84 84 84 255
-0.37499997 0.37499997 0.1251242 0 -0 1 84 84 84 255
-0.34688547 0.84688544 0.1251242 0 -0 1 84 84 84 255
-0.37499997 0.8749999 0.1251242 0 -0 1 84 84 84 255
0.34688547 0.84688544 0.1251242 0 -0 1 84 84 84 255
0.37499997 0.8749999 0.1251242 0 -0 1 84 84 84 255
0.34688547 0.37499997 0.1251242 0 -0 1 84 84 84 255
0.37499997 0.37499997 0.1251242 0 -0 1 84 84 84 255
-0.34688547 0.37499997 0.1251242 0 -0 1 84 84 84 255
0.34688547 -0.84688544 0.023024082 1 -0 -0 84 84 84 255
0.34688547 -0.22500004 0.045124114 1 -0 -0 84 84 84 255
0.34688547 -0.84688544 0.1251242 1 -0 -0 84 84 84 255
0.34688547 0.84688544 0.023024082 1 -0 -0 84 84 84 255
0.34688547 -0.37499997 0.1251242 1 -0 -0 84 84 84 255
0.34688547 0.22500004 0.045124114 1 -0 -0 84 84 84 255
0.34688547 0.37499997 0.1251242 1 -0 -0 84 84 84 255
0.34688547 0.84688544 0.1251242 1 -0 -0 84 84 84 255
0.34688547 0.84688544 0.1251242 -1 -0 -0 84 84 84 255
0.34688547 0.84688544 0.023024082 -1 -0 -0 84 84 84 255
0.34688547 0.37499997 0.1251242 -1 -0 -0 84 84 84 255
0.34688547 0.22500004 0.045124114 -1 -0 -0 84 84 84 255
0.34688547 -0.22500004 0.045124114 -1 -0 -0 84 84 84 255
0.34688547 -0.37499997 0.1251242 -1 -0 -0 84 84 84 255
0.34688547 -0.84688544 0.1251242 -1 -0 -0 84 84 84 255
0.34688547 -0.84688544 0.023024082 -1 -0 -0 84 84 84 255
-0.37499997 0.22500004 0.045124114 8.528811E-17 0.47058874 -0.8823526 84 84 84 255
-0.34688547 0.37499997 0.1251242 8.528811E-17 0.47058874 -0.8823526 84 84 84 255
-0.34688547 0.22500004 0.045124114 8.528811E-17 0.47058874 -0.8823526 84 84 84 255
-0.37499997 0.37499997 0.1251242 8.528811E-17 0.47058874 -0.8823526 84 84 84 255
-0.37499997 0.37499997 0.1251242 -8.528811E-17 -0.47058874 0.8823526 84 84 84 255
-0.37499997 0.22500004 0.045124114 -8.528811E-17 -0.47058874 0.8823526 84 84 84 255
-0.34688547 0.37499997 0.1251242 -8.528811E-17 -0.47058874 0.8823526 84 84 84 255
-0.34688547 0.22500004 0.045124114 -8.528811E-17 -0.47058874 0.8823526 84 84 84 255
0.34688547 -0.84688544 0.1251242 0 -1 -0 84 84 84 255
-0.34688547 -0.84688544 0.023024082 0 -1 -0 84 84 84 255
0.34688547 -0.84688544 0.023024082 0 -1 -0 84 84 84 255
-0.34688547 -0.84688544 0.1251242 0 -1 -0 84 84 84 255
-0.34688547 -0.84688544 0.1251242 0 1 -0 84 84 84 255
0.34688547 -0.84688544 0.1251242 0 1 -0 84 84 84 255
-0.34688547 -0.84688544 0.023024082 0 1 -0 84 84 84 255
0.34688547 -0.84688544 0.023024082 0 1 -0 84 84 84 255
0.37499997 -0.8749999 0.1251242 0 -0 -1 84 84 84 255
0.34688547 -0.84688544 0.1251242 0 -0 -1 84 84 84 255
0.37499997 -0.37499997 0.1251242 0 -0 -1 84 84 84 255
-0.37499997 -0.8749999 0.1251242 0 -0 -1 84 84 84 255
-0.34688547 -0.84688544 0.1251242 0 -0 -1 84 84 84 255
-0.34688547 -0.37499997 0.1251242 0 -0 -1 84 84 84 255
-0.37499997 -0.37499997 0.1251242 0 -0 -1 84 84 84 255
0.34688547 -0.37499997 0.1251242 0 -0 -1 84 84 84 255
0.34688547 -0.84688544 0.1251242 0 -0 1 84 84 84 255
0.37499997 -0.37499997 0.1251242 0 -0 1 84 84 84 255
0.34688547 -0.37499997 0.1251242 0 -0 1 84 84 84 255
-0.37499997 -0.37499997 0.1251242 0 -0 1 84 84 84 255
-0.37499997 -0.8749999 0.1251242 0 -0 1 84 84 84 255
-0.34688547 -0.37499997 0.1251242 0 -0 1 84 84 84 255
-0.34688547 -0.84688544 0.1251242 0 -0 1 84 84 84 255
0.37499997 -0.8749999 0.1251242 0 -0 1 84 84 84 255
-0.37499997 -0.37499997 0.1251242 8.528811E-17 -0.47058874 -0.8823526 84 84 84 255
-0.34688547 -0.22500004 0.045124114 8.528811E-17 -0.47058874 -0.8823526 84 84 84 255
-0.34688547 -0.37499997 0.1251242 8.528811E-17 -0.47058874 -0.8823526 84 84 84 255
-0.37499997 -0.22500004 0.045124114 8.528811E-17 -0.47058874 -0.8823526 84 84 84 255
-0.37499997 -0.22500004 0.045124114 -8.528811E-17 0.47058874 0.8823526 84 84 84 255
-0.37499997 -0.37499997 0.1251242 -8.528811E-17 0.47058874 0.8823526 84 84 84 255
-0.34688547 -0.22500004 0.045124114 -8.528811E-17 0.47058874 0.8823526 84 84 84 255
-0.34688547 -0.37499997 0.1251242 -8.528811E-17 0.47058874 0.8823526 84 84 84 255
-0.37499997 -0.22500004 0.045124114 0 -0 -1 84 84 84 255
-0.34688547 0.22500004 0.045124114 0 -0 -1 84 84 84 255
-0.34688547 -0.22500004 0.045124114 0 -0 -1 84 84 84 255
-0.37499997 0.22500004 0.045124114 0 -0 -1 84 84 84 255
-0.37499997 0.22500004 0.045124114 0 -0 1 84 84 84 255
-0.37499997 -0.22500004 0.045124114 0 -0 1 84 84 84 255
-0.34688547 0.22500004 0.045124114 0 -0 1 84 84 84 255
-0.34688547 -0.22500004 0.045124114 0 -0 1 84 84 84 255
0.34688547 0.22500004 0.045124114 -8.528811E-17 0.47058874 -0.8823526 84 84 84 255
0.37499997 0.37499997 0.1251242 -8.528811E-17 0.47058874 -0.8823526 84 84 84 255
0.37499997 0.22500004 0.045124114 -8.528811E-17 0.47058874 -0.8823526 84 84 84 255
0.34688547 0.37499997 0.1251242 -8.528811E-17 0.47058874 -0.8823526 84 84 84 255
0.34688547 0.37499997 0.1251242 8.528811E-17 -0.47058874 0.8823526 84 84 84 255
0.34688547 0.22500004 0.045124114 8.528811E-17 -0.47058874 0.8823526 84 84 84 255
0.37499997 0.37499997 0.1251242 8.528811E-17 -0.47058874 0.8823526 84 84 84 255
0.37499997 0.22500004 0.045124114 8.528811E-17 -0.47058874 0.8823526 84 84 84 255
0.34688547 -0.22500004 0.045124114 0 -0 -1 84 84 84 255
0.37499997 0.22500004 0.045124114 0 -0 -1 84 84 84 255
0.37499997 -0.22500004 0.045124114 0 -0 -1 84 84 84 255
0.34688547 0.22500004 0.045124114 0 -0 -1 84 84 84 255
0.34688547 0.22500004 0.045124114 0 -0 1 84 84 84 255
0.34688547 -0.22500004 0.045124114 0 -0 1 84 84 84 255
0.37499997 0.22500004 0.045124114 0 -0 1 84 84 84 255
0.37499997 -0.22500004 0.045124114 0 -0 1 84 84 84 255
0.34688547 -0.37499997 0.1251242 8.528811E-17 -0.47058874 -0.8823526 84 84 84 255
0.37499997 -0.22500004 0.045124114 8.528811E-17 -0.47058874 -0.8823526 84 84 84 255
0.37499997 -0.37499997 0.1251242 8.528811E-17 -0.47058874 -0.8823526 84 84 84 255
0.34688547 -0.22500004 0.045124114 8.528811E-17 -0.47058874 -0.8823526 84 84 84 255
0.34688547 -0.22500004 0.045124114 -8.528811E-17 0.47058874 0.8823526 84 84 84 255
0.34688547 -0.37499997 0.1251242 -8.528811E-17 0.47058874 0.8823526 84 84 84 255
0.37499997 -0.22500004 0.045124114 -8.528811E-17 0.47058874 0.8823526 84 84 84 255
0.37499997 -0.37499997 0.1251242 -8.528811E-17 0.47058874 0.8823526 84 84 84 255
-0.37499997 -0.37499997 -0.1250001 1 -0 -0 84 84 84 255
-0.37499997 -0.22500004 0.045124114 1 -0 -0 84 84 84 255
-0.37499997 -0.37499997 0.1251242 1 -0 -0 84 84 84 255
-0.37499997 0.37499997 -0.1250001 1 -0 -0 84 84 84 255
-0.37499997 0.22500004 0.045124114 1 -0 -0 84 84 84 255
-0.37499997 0.37499997 0.1251242 1 -0 -0 84 84 84 255
-0.37499997 0.37499997 0.1251242 -1 -0 -0 84 84 84 255
-0.37499997 0.37499997 -0.1250001 -1 -0 -0 84 84 84 255
-0.37499997 0.22500004 0.045124114 -1 -0 -0 84 84 84 255
-0.37499997 -0.22500004 0.045124114 -1 -0 -0 84 84 84 255
-0.37499997 -0.37499997 -0.1250001 -1 -0 -0 84 84 84 255
-0.37499997 -0.37499997 0.1251242 -1 -0 -0 84 84 84 255
0.37499997 -0.22500004 0.045124114 -1 -0 -0 84 84 84 255
0.37499997 -0.37499997 -0.1250001 -1 -0 -0 84 84 84 255
0.37499997 -0.37499997 0.1251242 -1 -0 -0 84 84 84 255
0.37499997 0.37499997 -0.1250001 -1 -0 -0 84 84 84 255
0.37499997 0.22500004 0.045124114 -1 -0 -0 84 84 84 255
0.37499997 0.37499997 0.1251242 -1 -0 -0 84 84 84 255
0.37499997 0.37499997 0.1251242 1 -0 -0 84 84 84 255
0.37499997 0.22500004 0.045124114 1 -0 -0 84 84 84 255
0.37499997 0.37499997 -0.1250001 1 -0 -0 84 84 84 255
0.37499997 -0.22500004 0.045124114 1 -0 -0 84 84 84 255
0.37499997 -0.37499997 -0.1250001 1 -0 -0 84 84 84 255
0.37499997 -0.37499997 0.1251242 1 -0 -0 84 84 84 255
-0.31499985 -0.8045412 0.05347429 0 -0 -1 255 125 0 255
0.31500012 -0.478378 0.05347429 0 -0 -1 255 125 0 255
0.31500012 -0.8045412 0.05347429 0 -0 -1 255 125 0 255
-0.31499985 -0.48737186 0.05347429 0 -0 -1 255 125 0 255
0.31500012 -0.8045412 0.05347429 -0.6906383 -5.429187E-19 -0.72320026 255 125 0 255
0.34688577 -0.478378 0.023024293 -0.6906383 -5.429187E-19 -0.72320026 255 125 0 255
0.34688577 -0.84688544 0.023024293 -0.6906383 -5.429187E-19 -0.72320026 255 125 0 255
0.31500012 -0.478378 0.05347429 -0.6906383 -5.429187E-19 -0.72320026 255 125 0 255
-0.34688547 -0.84688544 0.023024293 0 0.5838257 -0.811879 255 125 0 255
0.31500012 -0.8045412 0.05347429 0 0.5838257 -0.811879 255 125 0 255
0.34688577 -0.84688544 0.023024293 0 0.5838257 -0.811879 255 125 0 255
-0.31499985 -0.8045412 0.05347429 0 0.5838257 -0.811879 255 125 0 255
-0.34688547 -0.84688544 0.023024293 0.6906383 -0 -0.72320026 255 125 0 255
-0.31499985 -0.48737186 0.05347429 0.6906383 -0 -0.72320026 255 125 0 255
-0.31499985 -0.8045412 0.05347429 0.6906383 -0 -0.72320026 255 125 0 255
-0.31499985 -0.24922147 0.05347429 0.6906383 -0 -0.72320026 255 125 0 255
-0.34688547 0.8468858 0.023024293 0.6906383 -0 -0.72320026 255 125 0 255
-0.34688547 0.8468858 0.023024293 0.9562212 0.019705107 -0.29198048 255 125 0 255
-0.31499985 0.19530363 0.0834743 0.9562212 0.019705107 -0.29198048 255 125 0 255
-0.31499985 -0.24922147 0.05347429 0.9562212 0.019705107 -0.29198048 255 125 0 255
-0.34688547 0.8468858 0.023024293 0.6642035 -0.0367663 -0.74664706 255 125 0 255
-0.31499985 0.80454135 0.05347429 0.6642035 -0.0367663 -0.74664706 255 125 0 255
-0.31499985 0.19530363 0.0834743 0.6642035 -0.0367663 -0.74664706 255 125 0 255
-0.31499985 0.19530363 0.0834743 -0.01717061 0.06732469 -0.9975833 255 125 0 255
0.31500012 0.35597995 0.0834743 -0.01717061 0.06732469 -0.9975833 255 125 0 255
-0.31499985 -0.24922147 0.05347429 -0.01717061 0.06732469 -0.9975833 255 125 0 255
0.31500012 0.80454135 0.05347429 0 -0.5838257 -0.811879 255 125 0 255
-0.34688547 0.8468858 0.023024293 0 -0.5838257 -0.811879 255 125 0 255
0.34688577 0.8468858 0.023024293 0 -0.5838257 -0.811879 255 125 0 255
-0.31499985 0.80454135 0.05347429 0 -0.5838257 -0.811879 255 125 0 255
-0.31499985 0.80454135 0.05347429 0.01254255 -0.04917842 -0.9987113 255 125 0 255
0.31500012 0.35597995 0.0834743 0.01254255 -0.04917842 -0.9987113 255 125 0 255
-0.31499985 0.19530363 0.0834743 0.01254255 -0.04917842 -0.9987113 255 125 0 255
-0.31499985 -0.24922147 0.05347429 0.0012662469 0.048194516 -0.9988371 255 125 0 255
0.31500012 0.35597995 0.0834743 0.0012662469 0.048194516 -0.9988371 255 125 0 255
0.31500012 -0.2657739 0.05347429 0.0012662469 0.048194516 -0.9988371 255 125 0 255
0.31500012 0.80454135 0.05347429 -0.6538757 -0.05048913 -0.7549155 255 125 0 255
0.34688577 0.8468858 0.023024293 -0.6538757 -0.05048913 -0.7549155 255 125 0 255
0.31500012 0.35597995 0.0834743 -0.6538757 -0.05048913 -0.7549155 255 125 0 255
-0.31499985 0.80454135 0.05347429 0 -0.066731416 -0.9977709 255 125 0 255
0.31500012 0.80454135 0.05347429 0 -0.066731416 -0.9977709 255 125 0 255
0.31500012 0.35597995 0.0834743 0 -0.066731416 -0.9977709 255 125 0 255
0.31500012 0.35597995 0.0834743 -0.69021827 0.034873635 -0.7227603 255 125 0 255
0.34688577 -0.2657739 0.023024293 -0.69021827 0.034873635 -0.7227603 255 125 0 255
0.31500012 -0.2657739 0.05347429 -0.69021827 0.034873635 -0.7227603 255 125 0 255
0.34688577 0.8468858 0.023024293 -0.8844967 -4.336757E-19 -0.4665465 255 125 0 255
0.34688577 -0.2657739 0.023024293 -0.8844967 -4.336757E-19 -0.4665465 255 125 0 255
0.31500012 0.35597995 0.0834743 -0.8844967 -4.336757E-19 -0.4665465 255 125 0 255
0.31500012 -0.478378 0.05347429 -0.52160424 0.65543747 -0.54619646 154 125 0 255
0.34688577 -0.46337807 0.041024297 -0.52160424 0.65543747 -0.54619646 154 125 0 255
0.34688577 -0.478378 0.023024293 -0.52160424 0.65543747 -0.54619646 154 125 0 255
0.31500012 -0.46337807 0.07147431 -0.52160424 0.65543747 -0.54619646 154 125 0 255
0.31500012 -0.46337807 0.07147431 -0.01096649 0.768176 -0.6401448 154 125 0 255
0.31500012 -0.478378 0.05347429 -0.01096649 0.768176 -0.6401448 154 125 0 255
-0.31499985 -0.48737186 0.05347429 -0.01096649 0.768176 -0.6401448 154 125 0 255
0.31500012 -0.46337807 0.07147431 -0.6844658 0.133399 -0.7167365 154 125 0 255
0.34688577 -0.29977384 0.07147431 -0.6844658 0.133399 -0.7167365 154 125 0 255
0.34688577 -0.46337807 0.041024297 -0.6844658 0.133399 -0.7167365 154 125 0 255
-0.31499985 -0.47237194 0.0854743 -0.0223526 0.9052331 -0.424327 154 125 0 255
0.31500012 -0.46337807 0.07147431 -0.0223526 0.9052331 -0.424327 154 125 0 255
-0.31499985 -0.48737186 0.05347429 -0.0223526 0.9052331 -0.424327 154 125 0 255
0.31500012 -0.29977384 0.07147431 0 -0 -1 154 125 0 255
0.34688577 -0.29977384 0.07147431 0 -0 -1 154 125 0 255
0.31500012 -0.46337807 0.07147431 0 -0 -1 154 125 0 255
-0.31499985 -0.47237194 0.0854743 -0.02297426 0.05548814 -0.998195 154 125 0 255
0.11458219 -0.29450816 0.0854743 -0.02297426 0.05548814 -0.998195 154 125 0 255
0.31500012 -0.46337807 0.07147431 -0.02297426 0.05548814 -0.998195 154 125 0 255
-0.31499985 -0.47237194 0.0854743 0.50922006 0.7792711 -0.36528248 154 125 0 255
-0.31499985 -0.48737186 0.05347429 0.50922006 0.7792711 -0.36528248 154 125 0 255
-0.34688547 -0.47237194 0.041024297 0.50922006 0.7792711 -0.36528248 154 125 0 255
0.11458219 -0.29450816 0.0854743 -0.06968421 2.469725E-17 -0.997569 154 125 0 255
0.31500012 -0.29977384 0.07147431 -0.06968421 2.469725E-17 -0.997569 154 125 0 255
0.31500012 -0.46337807 0.07147431 -0.06968421 2.469725E-17 -0.997569 154 125 0 255
0.31500012 -0.2657739 0.05347429 0 -0.4678888 -0.8837874 154 125 0 255
0.34688577 -0.29977384 0.07147431 0 -0.4678888 -0.8837874 154 125 0 255
0.31500012 -0.29977384 0.07147431 0 -0.4678888 -0.8837874 154 125 0 255
-0.31499985 -0.28322142 0.07147431 0.03054729 -0.07377877 -0.99680674 154 125 0 255
0.11458219 -0.29450816 0.0854743 0.03054729 -0.07377877 -0.99680674 154 125 0 255
-0.31499985 -0.47237194 0.0854743 0.03054729 -0.07377877 -0.99680674 154 125 0 255
-0.31499985 -0.48737186 0.05347429 0.52160424 0.65543747 -0.5461965 154 125 0 255
-0.34688547 -0.48737186 0.023024293 0.52160424 0.65543747 -0.5461965 154 125 0 255
-0.34688547 -0.47237194 0.041024297 0.52160424 0.65543747 -0.5461965 154 125 0 255
-0.34688547 -0.28322142 0.041024297 0.8125591 -0 -0.5828788 154 125 0 255
-0.31499985 -0.47237194 0.0854743 0.8125591 -0 -0.5828788 154 125 0 255
-0.34688547 -0.47237194 0.041024297 0.8125591 -0 -0.5828788 154 125 0 255
0.11458219 -0.29450816 0.0854743 -0.07382713 -0.4666119 -0.8813756 154 125 0 255
0.31500012 -0.2657739 0.05347429 -0.07382713 -0.4666119 -0.8813756 154 125 0 255
0.31500012 -0.29977384 0.07147431 -0.07382713 -0.4666119 -0.8813756 154 125 0 255
0.34688577 -0.29977384 0.07147431 -0.48095024 -0.7176684 -0.5036258 154 125 0 255
0.31500012 -0.2657739 0.05347429 -0.48095024 -0.7176684 -0.5036258 154 125 0 255
0.34688577 -0.2657739 0.023024293 -0.48095024 -0.7176684 -0.5036258 154 125 0 255
-0.34688547 -0.28322142 0.041024297 0.68965125 -0.053451236 -0.72216636 154 125 0 255
-0.31499985 -0.28322142 0.07147431 0.68965125 -0.053451236 -0.72216636 154 125 0 255
-0.31499985 -0.47237194 0.0854743 0.68965125 -0.053451236 -0.72216636 154 125 0 255
0.11458219 -0.29450816 0.0854743 0.001861979 -0.7498218 -0.6616372 154 125 0 255
-0.31499985 -0.28322142 0.07147431 0.001861979 -0.7498218 -0.6616372 154 125 0 255
0.31500012 -0.2657739 0.05347429 0.001861979 -0.7498218 -0.6616372 154 125 0 255
-0.34688547 -0.24922147 0.041024297 0.6906385 -0 -0.7232002 154 125 0 255
-0.31499985 -0.28322142 0.07147431 0.6906385 -0 -0.7232002 154 125 0 255
-0.34688547 -0.28322142 0.041024297 0.6906385 -0 -0.7232002 154 125 0 255
-0.31499985 -0.24922147 0.05347429 -0.01229223 -0.4678534 -0.8837206 154 125 0 255
0.31500012 -0.2657739 0.05347429 -0.01229223 -0.4678534 -0.8837206 154 125 0 255
-0.31499985 -0.28322142 0.07147431 -0.01229223 -0.4678534 -0.8837206 154 125 0 255
-0.34688547 -0.24922147 0.041024297 0.3262052 -0.4422948 -0.8354433 154 125 0 255
-0.31499985 -0.24922147 0.05347429 0.3262052 -0.4422948 -0.8354433 154 125 0 255
-0.31499985 -0.28322142 0.07147431 0.3262052 -0.4422948 -0.8354433 154 125 0 255
-0.31499985 -0.24922147 0.05347429 0 -1 -0 154 125 0 255
-0.34688547 -0.24922147 0.041024297 0 -1 -0 154 125 0 255
-0.34688547 -0.24922147 0.023024293 0 -1 -0 154 125 0 255
0.34688577 -0.46337807 0.041024297 -1 -0 -0 255 255 255 255
0.34688577 -0.2657739 0.023024293 -1 -0 -0 255 255 255 255
0.34688577 -0.478378 0.023024293 -1 -0 -0 255 255 255 255
0.34688577 -0.29977384 0.07147431 -1 -0 -0 255 255 255 255
3 0 1 2
3 1 0 3
3 4 5 6
3 5 4 7
3 8 9 10
3 9 8 11
3 12 13 14
3 13 12 15
3 16 17 18
3 19 20 21
3 20 19 22
3 23 24 25
3 24 23 26
3 27 28 29
3 30 31 32
3 31 30 33
3 34 35 36
3 37 38 39
3 40 41 42
3 43 44 45
3 46 47 48
3 49 50 51
3 52 53 54
3 55 56 57
3 58 59 60
3 61 62 63
3 62 61 64
3 65 66 67
3 68 69 70
3 71 72 73
3 74 75 76
3 77 78 79
3 80 81 82
3 83 84 85
3 86 87 88
3 89 90 91
3 92 93 94
3 95 96 97
3 98 99 100
3 101 102 103
3 104 105 106
3 107 108 109
3 110 111 112
3 113 114 115
3 116 117 118
3 117 116 119
3 120 121 122
3 123 122 121
3 124 125 126
3 125 124 127
3 125 127 128
3 128 127 129
3 128 129 130
3 128 130 131
3 132 133 134
3 133 135 134
3 135 136 134
3 134 136 137
3 136 138 137
3 139 137 138
3 140 141 142
3 143 144 145
3 144 143 146
3 144 146 147
3 147 146 141
3 147 141 140
3 148 149 150
3 149 151 150
3 150 151 152
3 151 153 152
3 154 152 153
3 155 149 148
3 156 157 158
3 157 156 159
3 158 157 160
3 157 159 161
3 161 159 162
3 162 159 163
3 164 165 166
3 166 165 167
3 167 165 168
3 169 168 170
3 165 171 168
3 170 168 171
3 172 173 174
3 173 172 175
3 176 177 178
3 179 178 177
3 180 181 182
3 181 180 183
3 184 185 186
3 187 186 185
3 188 189 190
3 189 188 191
3 189 191 192
3 192 191 193
3 193 191 194
3 195 190 189
3 196 197 198
3 199 200 201
3 201 200 202
3 202 200 196
3 200 203 196
3 197 196 203
3 204 205 206
3 205 204 207
3 208 209 210
3 211 210 209
3 212 213 214
3 213 212 215
3 216 217 218
3 219 218 217
3 220 221 222
3 221 220 223
3 224 225 226
3 227 226 225
3 228 229 230
3 229 228 231
3 232 233 234
3 235 234 233
3 236 237 238
3 237 236 239
3 240 241 242
3 243 242 241
3 244 245 246
3 245 244 247
3 245 247 248
3 248 247 249
3 250 251 252
3 252 251 253
3 251 254 253
3 255 253 254
3 256 257 258
3 257 256 259
3 259 256 260
3 259 260 261
3 262 263 264
3 263 265 264
3 264 265 266
3 267 266 265
3 268 269 270
3 269 268 271
3 272 273 274
3 273 272 275
3 276 277 278
3 277 276 279
3 280 281 282
3 281 280 283
3 283 280 284
3 285 286 287
3 288 289 290
3 291 292 293
3 294 295 296
3 295 294 297
3 298 299 300
3 301 302 303
3 304 305 306
3 307 308 309
3 310 311 312
3 313 314 315
3 316 317 318
3 317 316 319
3 320 321 322
3 323 324 325
3 326 327 328
3 329 330 331
3 332 333 334
3 335 336 337
3 338 339 340
3 341 342 343
3 344 345 346
3 347 348 349
3 350 351 352
3 353 354 355
3 356 357 358
3 359 360 361
3 362 363 364
3 365 366 367
3 368 369 370
3 371 372 373
3 374 375 376
3 377 378 379
3 378 377 380

