ply
format ascii 1.0
commentY29udmVydGVyIGJ5IENvZGVMZW9wYXJk
comment Original mesh name: 'C:\Program Files (x86)\Steam\steamapps\common\Stormworks\rom\meshes\component_electric_diode.mesh'
comment SubMesh index: 0
comment SubMesh name: 'ID18'
comment Shader: Opaque (0)
element vertex 136
property float x
property float y
property float z
property float nx
property float ny
property float nz
property uchar red
property uchar green
property uchar blue
property uchar alpha
element face 76
property list uchar ushort vertex_index
end_header
0.105 0.2949999 0.035000004 -1 -0 -0 199 199 199 255
0.105 -0.04500001 -0.04500001 -1 -0 -0 199 199 199 255
0.105 -0.04500001 0.035000004 -1 -0 -0 199 199 199 255
0.105 0.2949999 -0.04500001 -1 -0 -0 199 199 199 255
-0.105 0.2949999 -0.04500001 1 -0 -0 199 199 199 255
-0.105 -0.04500001 0.035000004 1 -0 -0 199 199 199 255
-0.105 -0.04500001 -0.04500001 1 -0 -0 199 199 199 255
-0.105 0.2949999 0.035000004 1 -0 -0 199 199 199 255
-0.04500001 -0.04500001 0.094999984 0 -0 -1 199 199 199 255
0.04500001 0.2949999 0.094999984 0 -0 -1 199 199 199 255
0.04500001 -0.04500001 0.094999984 0 -0 -1 199 199 199 255
-0.04500001 0.2949999 0.094999984 0 -0 -1 199 199 199 255
-0.125 0.37499997 -0.105 0.3015113 -0.3015113 -0.904534 255 125 0 255
-0.085 0.35500005 -0.085 0.3015113 -0.3015113 -0.904534 255 125 0 255
-0.105 0.3350001 -0.085 0.3015113 -0.3015113 -0.904534 255 125 0 255
-0.125 0.37499997 -0.105 0.70710677 -0 -0.70710677 255 125 0 255
-0.105 -0.085 -0.085 0.70710677 -0 -0.70710677 255 125 0 255
-0.125 -0.125 -0.105 0.70710677 -0 -0.70710677 255 125 0 255
-0.105 0.3350001 -0.085 0.70710677 -0 -0.70710677 255 125 0 255
0.085 0.35500005 -0.085 -2.2165448E-18 -0.70710677 -0.70710677 255 125 0 255
-0.125 0.37499997 -0.105 -2.2165448E-18 -0.70710677 -0.70710677 255 125 0 255
0.125 0.37499997 -0.105 -2.2165448E-18 -0.70710677 -0.70710677 255 125 0 255
-0.085 0.35500005 -0.085 -2.2165448E-18 -0.70710677 -0.70710677 255 125 0 255
-0.125 0.37499997 -0.125 1 -0 -0 255 125 0 255
-0.125 -0.125 -0.105 1 -0 -0 255 125 0 255
-0.125 -0.125 -0.125 1 -0 -0 255 125 0 255
-0.125 0.37499997 -0.105 1 -0 -0 255 125 0 255
-0.125 -0.125 -0.105 0.3015113 0.3015113 -0.904534 255 125 0 255
-0.105 -0.085 -0.085 0.3015113 0.3015113 -0.904534 255 125 0 255
-0.085 -0.105 -0.085 0.3015113 0.3015113 -0.904534 255 125 0 255
0.125 0.37499997 -0.105 0 -1 -0 255 125 0 255
-0.125 0.37499997 -0.125 0 -1 -0 255 125 0 255
0.125 0.37499997 -0.125 0 -1 -0 255 125 0 255
-0.125 0.37499997 -0.105 0 -1 -0 255 125 0 255
0.085 0.35500005 -0.085 -0.3015113 -0.3015113 -0.904534 255 125 0 255
0.125 0.37499997 -0.105 -0.3015113 -0.3015113 -0.904534 255 125 0 255
0.105 0.3350001 -0.085 -0.3015113 -0.3015113 -0.904534 255 125 0 255
-0.125 -0.125 -0.105 0 -0 -1 255 125 0 255
0.125 0.37499997 -0.105 0 -0 -1 255 125 0 255
0.125 -0.125 -0.105 0 -0 -1 255 125 0 255
-0.125 0.37499997 -0.105 0 -0 -1 255 125 0 255
-0.125 -0.125 -0.105 0 1 -0 255 125 0 255
0.125 -0.125 -0.125 0 1 -0 255 125 0 255
-0.125 -0.125 -0.125 0 1 -0 255 125 0 255
0.125 -0.125 -0.105 0 1 -0 255 125 0 255
-0.125 -0.125 -0.105 -2.2165448E-18 0.70710677 -0.70710677 255 125 0 255
0.085 -0.105 -0.085 -2.2165448E-18 0.70710677 -0.70710677 255 125 0 255
0.125 -0.125 -0.105 -2.2165448E-18 0.70710677 -0.70710677 255 125 0 255
-0.085 -0.105 -0.085 -2.2165448E-18 0.70710677 -0.70710677 255 125 0 255
0.125 0.37499997 -0.105 -1 -0 -0 255 125 0 255
0.125 -0.125 -0.125 -1 -0 -0 255 125 0 255
0.125 -0.125 -0.105 -1 -0 -0 255 125 0 255
0.125 0.37499997 -0.125 -1 -0 -0 255 125 0 255
0.105 -0.085 -0.085 -0.70710677 -0 -0.70710677 255 125 0 255
0.125 0.37499997 -0.105 -0.70710677 -0 -0.70710677 255 125 0 255
0.125 -0.125 -0.105 -0.70710677 -0 -0.70710677 255 125 0 255
0.105 0.3350001 -0.085 -0.70710677 -0 -0.70710677 255 125 0 255
0.085 -0.105 -0.085 -0.3015113 0.3015113 -0.904534 255 125 0 255
0.105 -0.085 -0.085 -0.3015113 0.3015113 -0.904534 255 125 0 255
0.125 -0.125 -0.105 -0.3015113 0.3015113 -0.904534 255 125 0 255
0.085 -0.085 0.094999984 0 -0 -1 86 86 86 255
0.04500001 -0.04500001 0.094999984 0 -0 -1 86 86 86 255
0.085 0.3350001 0.094999984 0 -0 -1 86 86 86 255
-0.085 -0.085 0.094999984 0 -0 -1 86 86 86 255
-0.04500001 -0.04500001 0.094999984 0 -0 -1 86 86 86 255
-0.04500001 0.2949999 0.094999984 0 -0 -1 86 86 86 255
0.04500001 0.2949999 0.094999984 0 -0 -1 86 86 86 255
-0.085 0.3350001 0.094999984 0 -0 -1 86 86 86 255
-0.085 -0.105 0.074999996 0 0.70710677 -0.70710677 86 86 86 255
0.085 -0.085 0.094999984 0 0.70710677 -0.70710677 86 86 86 255
0.085 -0.105 0.074999996 0 0.70710677 -0.70710677 86 86 86 255
-0.085 -0.085 0.094999984 0 0.70710677 -0.70710677 86 86 86 255
-0.105 0.3350001 0.074999996 0.70710677 -0 -0.70710677 86 86 86 255
-0.085 -0.085 0.094999984 0.70710677 -0 -0.70710677 86 86 86 255
-0.105 -0.085 0.074999996 0.70710677 -0 -0.70710677 86 86 86 255
-0.085 0.3350001 0.094999984 0.70710677 -0 -0.70710677 86 86 86 255
-0.085 0.3350001 0.094999984 0 -0.70710677 -0.70710677 86 86 86 255
0.085 0.35500005 0.074999996 0 -0.70710677 -0.70710677 86 86 86 255
0.085 0.3350001 0.094999984 0 -0.70710677 -0.70710677 86 86 86 255
-0.085 0.35500005 0.074999996 0 -0.70710677 -0.70710677 86 86 86 255
0.085 0.3350001 0.094999984 -0.70710677 -0 -0.70710677 86 86 86 255
0.105 -0.085 0.074999996 -0.70710677 -0 -0.70710677 86 86 86 255
0.085 -0.085 0.094999984 -0.70710677 -0 -0.70710677 86 86 86 255
0.105 0.3350001 0.074999996 -0.70710677 -0 -0.70710677 86 86 86 255
0.105 -0.085 0.074999996 -0.57735026 0.57735026 -0.57735026 86 86 86 255
0.085 -0.105 0.074999996 -0.57735026 0.57735026 -0.57735026 86 86 86 255
0.085 -0.085 0.094999984 -0.57735026 0.57735026 -0.57735026 86 86 86 255
-0.085 -0.105 0.074999996 0 1 -0 86 86 86 255
0.085 -0.105 -0.085 0 1 -0 86 86 86 255
-0.085 -0.105 -0.085 0 1 -0 86 86 86 255
0.085 -0.105 0.074999996 0 1 -0 86 86 86 255
-0.085 -0.085 0.094999984 0.57735026 0.57735026 -0.57735026 86 86 86 255
-0.085 -0.105 0.074999996 0.57735026 0.57735026 -0.57735026 86 86 86 255
-0.105 -0.085 0.074999996 0.57735026 0.57735026 -0.57735026 86 86 86 255
-0.105 -0.085 -0.085 1 -0 -0 86 86 86 255
-0.105 -0.04500001 -0.04500001 1 -0 -0 86 86 86 255
-0.105 -0.085 0.074999996 1 -0 -0 86 86 86 255
-0.105 0.3350001 -0.085 1 -0 -0 86 86 86 255
-0.105 0.2949999 -0.04500001 1 -0 -0 86 86 86 255
-0.105 0.2949999 0.035000004 1 -0 -0 86 86 86 255
-0.105 -0.04500001 0.035000004 1 -0 -0 86 86 86 255
-0.105 0.3350001 0.074999996 1 -0 -0 86 86 86 255
-0.085 0.35500005 0.074999996 0.57735026 -0.57735026 -0.57735026 86 86 86 255
-0.085 0.3350001 0.094999984 0.57735026 -0.57735026 -0.57735026 86 86 86 255
-0.105 0.3350001 0.074999996 0.57735026 -0.57735026 -0.57735026 86 86 86 255
0.085 0.35500005 0.074999996 0 -1 -0 86 86 86 255
-0.085 0.35500005 -0.085 0 -1 -0 86 86 86 255
0.085 0.35500005 -0.085 0 -1 -0 86 86 86 255
-0.085 0.35500005 0.074999996 0 -1 -0 86 86 86 255
0.085 0.35500005 0.074999996 -0.57735026 -0.57735026 -0.57735026 86 86 86 255
0.105 0.3350001 0.074999996 -0.57735026 -0.57735026 -0.57735026 86 86 86 255
0.085 0.3350001 0.094999984 -0.57735026 -0.57735026 -0.57735026 86 86 86 255
0.105 -0.085 0.074999996 -1 -0 -0 86 86 86 255
0.105 -0.04500001 0.035000004 -1 -0 -0 86 86 86 255
0.105 -0.085 -0.085 -1 -0 -0 86 86 86 255
0.105 0.3350001 0.074999996 -1 -0 -0 86 86 86 255
0.105 0.2949999 0.035000004 -1 -0 -0 86 86 86 255
0.105 0.2949999 -0.04500001 -1 -0 -0 86 86 86 255
0.105 -0.04500001 -0.04500001 -1 -0 -0 86 86 86 255
0.105 0.3350001 -0.085 -1 -0 -0 86 86 86 255
0.105 -0.085 0.074999996 -0.70710677 0.70710677 -0 86 86 86 255
0.085 -0.105 -0.085 -0.70710677 0.70710677 -0 86 86 86 255
0.085 -0.105 0.074999996 -0.70710677 0.70710677 -0 86 86 86 255
0.105 -0.085 -0.085 -0.70710677 0.70710677 -0 86 86 86 255
-0.105 -0.085 -0.085 0.70710677 0.70710677 -0 86 86 86 255
-0.085 -0.105 0.074999996 0.70710677 0.70710677 -0 86 86 86 255
-0.085 -0.105 -0.085 0.70710677 0.70710677 -0 86 86 86 255
-0.105 -0.085 0.074999996 0.70710677 0.70710677 -0 86 86 86 255
-0.085 0.35500005 -0.085 0.70710677 -0.70710677 -0 86 86 86 255
-0.105 0.3350001 0.074999996 0.70710677 -0.70710677 -0 86 86 86 255
-0.105 0.3350001 -0.085 0.70710677 -0.70710677 -0 86 86 86 255
-0.085 0.35500005 0.074999996 0.70710677 -0.70710677 -0 86 86 86 255
0.085 0.35500005 0.074999996 -0.70710677 -0.70710677 -0 86 86 86 255
0.105 0.3350001 -0.085 -0.70710677 -0.70710677 -0 86 86 86 255
0.105 0.3350001 0.074999996 -0.70710677 -0.70710677 -0 86 86 86 255
0.085 0.35500005 -0.085 -0.70710677 -0.70710677 -0 86 86 86 255
3 0 1 2
3 1 0 3
3 4 5 6
3 5 4 7
3 8 9 10
3 9 8 11
3 12 13 14
3 15 16 17
3 16 15 18
3 19 20 21
3 20 19 22
3 23 24 25
3 24 23 26
3 27 28 29
3 30 31 32
3 31 30 33
3 34 35 36
3 37 38 39
3 38 37 40
3 41 42 43
3 42 41 44
3 45 46 47
3 46 45 48
3 49 50 51
3 50 49 52
3 53 54 55
3 54 53 56
3 57 58 59
3 60 61 62
3 61 60 63
3 61 63 64
3 64 63 65
3 62 66 67
3 66 62 61
3 67 66 65
3 67 65 63
3 68 69 70
3 69 68 71
3 72 73 74
3 73 72 75
3 76 77 78
3 77 76 79
3 80 81 82
3 81 80 83
3 84 85 86
3 87 88 89
3 88 87 90
3 91 92 93
3 94 95 96
3 95 94 97
3 95 97 98
3 98 97 99
3 96 100 101
3 100 96 95
3 101 100 99
3 101 99 97
3 102 103 104
3 105 106 107
3 106 105 108
3 109 110 111
3 112 113 114
3 113 112 115
3 113 115 116
3 116 115 117
3 114 118 119
3 118 114 113
3 119 118 117
3 119 117 115
3 120 121 122
3 121 120 123
3 124 125 126
3 125 124 127
3 128 129 130
3 129 128 131
3 132 133 134
3 133 132 135

