ply
format ascii 1.0
commentY29udmVydGVyIGJ5IENvZGVMZW9wYXJk
comment Original mesh name: 'C:\Program Files (x86)\Steam\steamapps\common\Stormworks\rom\meshes\component_gyro.mesh'
comment SubMesh index: 0
comment SubMesh name: 'ID68'
comment Shader: Opaque (0)
element vertex 580
property float x
property float y
property float z
property float nx
property float ny
property float nz
property uchar red
property uchar green
property uchar blue
property uchar alpha
element face 362
property list uchar ushort vertex_index
end_header
0.087386586 -0.21096987 0.094999984 -3.650935E-16 3.650935E-16 -1 199 199 199 255
0.21096987 0.087386586 0.094999984 -3.650935E-16 3.650935E-16 -1 199 199 199 255
0.21096987 -0.087386586 0.094999984 -3.650935E-16 3.650935E-16 -1 199 199 199 255
0.11096988 -0.045965232 0.094999984 -3.650935E-16 3.650935E-16 -1 199 199 199 255
0.045965232 -0.11096988 0.094999984 -3.650935E-16 3.650935E-16 -1 199 199 199 255
-0.087386586 -0.21096987 0.094999984 -3.650935E-16 3.650935E-16 -1 199 199 199 255
-0.045965232 -0.11096988 0.094999984 -3.650935E-16 3.650935E-16 -1 199 199 199 255
-0.11096988 -0.045965232 0.094999984 -3.650935E-16 3.650935E-16 -1 199 199 199 255
-0.21096987 -0.087386586 0.094999984 -3.650935E-16 3.650935E-16 -1 199 199 199 255
-0.11096988 0.045965232 0.094999984 -3.650935E-16 3.650935E-16 -1 199 199 199 255
0.11096988 0.045965232 0.094999984 -3.650935E-16 3.650935E-16 -1 199 199 199 255
0.087386586 0.21096987 0.094999984 -3.650935E-16 3.650935E-16 -1 199 199 199 255
0.045965232 0.11096988 0.094999984 -3.650935E-16 3.650935E-16 -1 199 199 199 255
-0.087386586 0.21096987 0.094999984 -3.650935E-16 3.650935E-16 -1 199 199 199 255
-0.045965232 0.11096988 0.094999984 -3.650935E-16 3.650935E-16 -1 199 199 199 255
-0.21096987 0.087386586 0.094999984 -3.650935E-16 3.650935E-16 -1 199 199 199 255
0.21096987 0.087386586 0.094999984 -1 -1.239169E-14 -0 199 199 199 255
0.21096987 -0.087386586 0.024999999 -1 -1.239169E-14 -0 199 199 199 255
0.21096987 -0.087386586 0.094999984 -1 -1.239169E-14 -0 199 199 199 255
0.21096987 0.087386586 0.024999999 -1 -1.239169E-14 -0 199 199 199 255
0.087386586 -0.21096987 0.094999984 -0.70710677 0.70710677 -0 199 199 199 255
0.21096987 -0.087386586 0.024999999 -0.70710677 0.70710677 -0 199 199 199 255
0.087386586 -0.21096987 0.024999999 -0.70710677 0.70710677 -0 199 199 199 255
0.21096987 -0.087386586 0.094999984 -0.70710677 0.70710677 -0 199 199 199 255
-0.087386586 -0.21096987 0.094999984 -1.652225E-14 1 -0 199 199 199 255
0.087386586 -0.21096987 0.024999999 -1.652225E-14 1 -0 199 199 199 255
-0.087386586 -0.21096987 0.024999999 -1.652225E-14 1 -0 199 199 199 255
0.087386586 -0.21096987 0.094999984 -1.652225E-14 1 -0 199 199 199 255
-0.21096987 -0.087386586 0.024999999 0.70710677 0.70710677 3.8122893E-29 199 199 199 255
-0.087386586 -0.21096987 0.094999984 0.70710677 0.70710677 3.8122893E-29 199 199 199 255
-0.087386586 -0.21096987 0.024999999 0.70710677 0.70710677 3.8122893E-29 199 199 199 255
-0.21096987 -0.087386586 0.094999984 0.70710677 0.70710677 3.8122893E-29 199 199 199 255
-0.21096987 0.087386586 0.024999999 1 -0 -0 199 199 199 255
-0.21096987 -0.087386586 0.094999984 1 -0 -0 199 199 199 255
-0.21096987 -0.087386586 0.024999999 1 -0 -0 199 199 199 255
-0.21096987 0.087386586 0.094999984 1 -0 -0 199 199 199 255
-0.087386586 0.21096987 0.024999999 0.70710677 -0.70710677 -0 199 199 199 255
-0.21096987 0.087386586 0.094999984 0.70710677 -0.70710677 -0 199 199 199 255
-0.21096987 0.087386586 0.024999999 0.70710677 -0.70710677 -0 199 199 199 255
-0.087386586 0.21096987 0.094999984 0.70710677 -0.70710677 -0 199 199 199 255
0.087386586 0.21096987 0.094999984 8.261123E-15 -1 -0 199 199 199 255
-0.087386586 0.21096987 0.024999999 8.261123E-15 -1 -0 199 199 199 255
0.087386586 0.21096987 0.024999999 8.261123E-15 -1 -0 199 199 199 255
-0.087386586 0.21096987 0.094999984 8.261123E-15 -1 -0 199 199 199 255
0.087386586 0.21096987 0.094999984 -0.70710677 -0.70710677 -0 199 199 199 255
0.21096987 0.087386586 0.024999999 -0.70710677 -0.70710677 -0 199 199 199 255
0.21096987 0.087386586 0.094999984 -0.70710677 -0.70710677 -0 199 199 199 255
0.087386586 0.21096987 0.024999999 -0.70710677 -0.70710677 -0 199 199 199 255
0.045965232 -0.11096988 0.04500001 0 -0 -1 86 86 86 255
0.11096988 0.045965232 0.04500001 0 -0 -1 86 86 86 255
0.11096988 -0.045965232 0.04500001 0 -0 -1 86 86 86 255
0.045965232 0.11096988 0.04500001 0 -0 -1 86 86 86 255
-0.045965232 0.11096988 0.04500001 0 -0 -1 86 86 86 255
-0.045965232 -0.11096988 0.04500001 0 -0 -1 86 86 86 255
-0.11096988 0.045965232 0.04500001 0 -0 -1 86 86 86 255
-0.11096988 -0.045965232 0.04500001 0 -0 -1 86 86 86 255
0.11096988 -0.045965232 0.094999984 0.70710677 -0.70710677 5.105322E-15 86 86 86 255
0.045965232 -0.11096988 0.04500001 0.70710677 -0.70710677 5.105322E-15 86 86 86 255
0.11096988 -0.045965232 0.04500001 0.70710677 -0.70710677 5.105322E-15 86 86 86 255
0.045965232 -0.11096988 0.094999984 0.70710677 -0.70710677 5.105322E-15 86 86 86 255
0.045965232 -0.11096988 0.094999984 3.14112E-14 -1 4.535787E-28 86 86 86 255
-0.045965232 -0.11096988 0.04500001 3.14112E-14 -1 4.535787E-28 86 86 86 255
0.045965232 -0.11096988 0.04500001 3.14112E-14 -1 4.535787E-28 86 86 86 255
-0.045965232 -0.11096988 0.094999984 3.14112E-14 -1 4.535787E-28 86 86 86 255
-0.11096988 -0.045965232 0.094999984 -0.70710677 -0.70710677 -1.0210649E-14 86 86 86 255
-0.045965232 -0.11096988 0.04500001 -0.70710677 -0.70710677 -1.0210649E-14 86 86 86 255
-0.045965232 -0.11096988 0.094999984 -0.70710677 -0.70710677 -1.0210649E-14 86 86 86 255
-0.11096988 -0.045965232 0.04500001 -0.70710677 -0.70710677 -1.0210649E-14 86 86 86 255
-0.11096988 0.045965232 0.094999984 -1 -0 -1.4438229E-14 86 86 86 255
-0.11096988 -0.045965232 0.04500001 -1 -0 -1.4438229E-14 86 86 86 255
-0.11096988 -0.045965232 0.094999984 -1 -0 -1.4438229E-14 86 86 86 255
-0.11096988 0.045965232 0.04500001 -1 -0 -1.4438229E-14 86 86 86 255
-0.045965232 0.11096988 0.094999984 -0.70710677 0.70710677 -5.105322E-15 86 86 86 255
-0.11096988 0.045965232 0.04500001 -0.70710677 0.70710677 -5.105322E-15 86 86 86 255
-0.11096988 0.045965232 0.094999984 -0.70710677 0.70710677 -5.105322E-15 86 86 86 255
-0.045965232 0.11096988 0.04500001 -0.70710677 0.70710677 -5.105322E-15 86 86 86 255
-0.045965232 0.11096988 0.094999984 -1.57056E-14 1 -1.133947E-28 86 86 86 255
0.045965232 0.11096988 0.04500001 -1.57056E-14 1 -1.133947E-28 86 86 86 255
-0.045965232 0.11096988 0.04500001 -1.57056E-14 1 -1.133947E-28 86 86 86 255
0.045965232 0.11096988 0.094999984 -1.57056E-14 1 -1.133947E-28 86 86 86 255
0.045965232 0.11096988 0.04500001 0.70710677 0.70710677 5.105322E-15 86 86 86 255
0.11096988 0.045965232 0.094999984 0.70710677 0.70710677 5.105322E-15 86 86 86 255
0.11096988 0.045965232 0.04500001 0.70710677 0.70710677 5.105322E-15 86 86 86 255
0.045965232 0.11096988 0.094999984 0.70710677 0.70710677 5.105322E-15 86 86 86 255
0.11096988 0.045965232 0.04500001 1 1.57056E-14 -0 86 86 86 255
0.11096988 -0.045965232 0.094999984 1 1.57056E-14 -0 86 86 86 255
0.11096988 -0.045965232 0.04500001 1 1.57056E-14 -0 86 86 86 255
0.11096988 0.045965232 0.094999984 1 1.57056E-14 -0 86 86 86 255
-0.625 0.37499997 -0.125 1 -0 -0 86 86 86 255
-0.625 -0.37499997 -0.074999996 1 -0 -0 86 86 86 255
-0.625 -0.37499997 -0.125 1 -0 -0 86 86 86 255
-0.625 0.37499997 -0.074999996 1 -0 -0 86 86 86 255
0.625 0.37499997 -0.074999996 0 -1 -0 86 86 86 255
-0.625 0.37499997 -0.125 0 -1 -0 86 86 86 255
0.625 0.37499997 -0.125 0 -1 -0 86 86 86 255
-0.625 0.37499997 -0.074999996 0 -1 -0 86 86 86 255
-0.625 -0.37499997 -0.074999996 0.70710677 -0 -0.70710677 86 86 86 255
-0.605 0.35500005 -0.05499999 0.70710677 -0 -0.70710677 86 86 86 255
-0.605 -0.35500005 -0.05499999 0.70710677 -0 -0.70710677 86 86 86 255
-0.625 0.37499997 -0.074999996 0.70710677 -0 -0.70710677 86 86 86 255
-0.625 -0.37499997 -0.074999996 0 1 -0 86 86 86 255
0.625 -0.37499997 -0.125 0 1 -0 86 86 86 255
-0.625 -0.37499997 -0.125 0 1 -0 86 86 86 255
0.625 -0.37499997 -0.074999996 0 1 -0 86 86 86 255
0.625 0.37499997 -0.074999996 -1 -0 -0 86 86 86 255
0.625 -0.37499997 -0.125 -1 -0 -0 86 86 86 255
0.625 -0.37499997 -0.074999996 -1 -0 -0 86 86 86 255
0.625 0.37499997 -0.125 -1 -0 -0 86 86 86 255
0.605 0.35500005 -0.05499999 5.3549765E-19 -0.70710677 -0.70710677 86 86 86 255
-0.625 0.37499997 -0.074999996 5.3549765E-19 -0.70710677 -0.70710677 86 86 86 255
0.625 0.37499997 -0.074999996 5.3549765E-19 -0.70710677 -0.70710677 86 86 86 255
-0.605 0.35500005 -0.05499999 5.3549765E-19 -0.70710677 -0.70710677 86 86 86 255
-0.605 -0.35500005 -0.05499999 5.3549765E-19 0.70710677 -0.70710677 86 86 86 255
0.625 -0.37499997 -0.074999996 5.3549765E-19 0.70710677 -0.70710677 86 86 86 255
-0.625 -0.37499997 -0.074999996 5.3549765E-19 0.70710677 -0.70710677 86 86 86 255
0.605 -0.35500005 -0.05499999 5.3549765E-19 0.70710677 -0.70710677 86 86 86 255
0.605 -0.35500005 -0.05499999 -0.70710677 -0 -0.70710677 86 86 86 255
0.625 0.37499997 -0.074999996 -0.70710677 -0 -0.70710677 86 86 86 255
0.625 -0.37499997 -0.074999996 -0.70710677 -0 -0.70710677 86 86 86 255
0.605 0.35500005 -0.05499999 -0.70710677 -0 -0.70710677 86 86 86 255
-0.505 -0.35500005 0.074999996 0.70710677 -0 -0.70710677 255 125 0 255
-0.485 -0.235 0.094999984 0.70710677 -0 -0.70710677 255 125 0 255
-0.485 -0.3350001 0.094999984 0.70710677 -0 -0.70710677 255 125 0 255
-0.505 -0.25499997 0.074999996 0.70710677 -0 -0.70710677 255 125 0 255
-0.505 -0.25499997 0.05499999 1 -0 -0 255 125 0 255
-0.505 -0.35500005 0.074999996 1 -0 -0 255 125 0 255
-0.505 -0.35500005 0.05499999 1 -0 -0 255 125 0 255
-0.505 -0.25499997 0.074999996 1 -0 -0 255 125 0 255
-0.5850001 -0.235 0.094999984 0 0.70710677 -0.70710677 255 125 0 255
-0.505 -0.25499997 0.074999996 0 0.70710677 -0.70710677 255 125 0 255
-0.605 -0.25499997 0.074999996 0 0.70710677 -0.70710677 255 125 0 255
-0.485 -0.235 0.094999984 0 0.70710677 -0.70710677 255 125 0 255
0.485 -0.235 0.094999984 -2.692705E-17 4.761681E-17 -1 255 125 0 255
0.5850001 0.235 0.094999984 -2.692705E-17 4.761681E-17 -1 255 125 0 255
0.5850001 -0.235 0.094999984 -2.692705E-17 4.761681E-17 -1 255 125 0 255
0.485 0.235 0.094999984 -2.692705E-17 4.761681E-17 -1 255 125 0 255
0.485 -0.3350001 0.094999984 -2.692705E-17 4.761681E-17 -1 255 125 0 255
0.485 0.3350001 0.094999984 -2.692705E-17 4.761681E-17 -1 255 125 0 255
0.28096995 -0.116381526 0.094999984 -2.692705E-17 4.761681E-17 -1 255 125 0 255
0.116381526 -0.28096995 0.094999984 -2.692705E-17 4.761681E-17 -1 255 125 0 255
-0.485 -0.3350001 0.094999984 -2.692705E-17 4.761681E-17 -1 255 125 0 255
-0.116381526 -0.28096995 0.094999984 -2.692705E-17 4.761681E-17 -1 255 125 0 255
-0.28096995 -0.116381526 0.094999984 -2.692705E-17 4.761681E-17 -1 255 125 0 255
-0.28096995 0.116381526 0.094999984 -2.692705E-17 4.761681E-17 -1 255 125 0 255
0.116381526 0.28096995 0.094999984 -2.692705E-17 4.761681E-17 -1 255 125 0 255
-0.485 0.3350001 0.094999984 -2.692705E-17 4.761681E-17 -1 255 125 0 255
0.28096995 0.116381526 0.094999984 -2.692705E-17 4.761681E-17 -1 255 125 0 255
-0.116381526 0.28096995 0.094999984 -2.692705E-17 4.761681E-17 -1 255 125 0 255
-0.485 -0.235 0.094999984 -2.692705E-17 4.761681E-17 -1 255 125 0 255
-0.485 0.235 0.094999984 -2.692705E-17 4.761681E-17 -1 255 125 0 255
-0.5850001 -0.235 0.094999984 -2.692705E-17 4.761681E-17 -1 255 125 0 255
-0.5850001 0.235 0.094999984 -2.692705E-17 4.761681E-17 -1 255 125 0 255
-0.485 -0.3350001 0.094999984 4.132425E-19 0.70710677 -0.70710677 255 125 0 255
0.505 -0.35500005 0.074999996 4.132425E-19 0.70710677 -0.70710677 255 125 0 255
-0.505 -0.35500005 0.074999996 4.132425E-19 0.70710677 -0.70710677 255 125 0 255
0.485 -0.3350001 0.094999984 4.132425E-19 0.70710677 -0.70710677 255 125 0 255
-0.505 -0.35500005 0.05499999 0 1 -0 255 125 0 255
0.525 -0.35500005 0.035000004 0 1 -0 255 125 0 255
-0.525 -0.35500005 0.035000004 0 1 -0 255 125 0 255
0.505 -0.35500005 0.05499999 0 1 -0 255 125 0 255
-0.505 -0.35500005 0.074999996 0 1 -0 255 125 0 255
0.505 -0.35500005 0.074999996 0 1 -0 255 125 0 255
-0.605 -0.35500005 0.035000004 0 1 -0 255 125 0 255
0.605 -0.35500005 -0.05499999 0 1 -0 255 125 0 255
-0.605 -0.35500005 -0.05499999 0 1 -0 255 125 0 255
0.605 -0.35500005 0.035000004 0 1 -0 255 125 0 255
-0.525 -0.27499992 0.035000004 0.70710677 -2.4905558E-18 -0.70710677 255 125 0 255
-0.505 -0.35500005 0.05499999 0.70710677 -2.4905558E-18 -0.70710677 255 125 0 255
-0.525 -0.35500005 0.035000004 0.70710677 -2.4905558E-18 -0.70710677 255 125 0 255
-0.505 -0.25499997 0.05499999 0.70710677 -2.4905558E-18 -0.70710677 255 125 0 255
-0.605 -0.25499997 0.074999996 0 1 -0 255 125 0 255
-0.505 -0.25499997 0.05499999 0 1 -0 255 125 0 255
-0.605 -0.25499997 0.05499999 0 1 -0 255 125 0 255
-0.505 -0.25499997 0.074999996 0 1 -0 255 125 0 255
-0.605 0.25499997 0.074999996 0.70710677 -0 -0.70710677 255 125 0 255
-0.5850001 -0.235 0.094999984 0.70710677 -0 -0.70710677 255 125 0 255
-0.605 -0.25499997 0.074999996 0.70710677 -0 -0.70710677 255 125 0 255
-0.5850001 0.235 0.094999984 0.70710677 -0 -0.70710677 255 125 0 255
-0.485 0.235 0.094999984 -9.574093E-15 -0.70710677 -0.70710677 255 125 0 255
-0.605 0.25499997 0.074999996 -9.574093E-15 -0.70710677 -0.70710677 255 125 0 255
-0.505 0.25499997 0.074999996 -9.574093E-15 -0.70710677 -0.70710677 255 125 0 255
-0.5850001 0.235 0.094999984 -9.574093E-15 -0.70710677 -0.70710677 255 125 0 255
-0.485 0.235 0.094999984 0.70710677 -1.3397198E-14 -0.70710677 255 125 0 255
-0.505 0.35500005 0.074999996 0.70710677 -1.3397198E-14 -0.70710677 255 125 0 255
-0.485 0.3350001 0.094999984 0.70710677 -1.3397198E-14 -0.70710677 255 125 0 255
-0.505 0.25499997 0.074999996 0.70710677 -1.3397198E-14 -0.70710677 255 125 0 255
0.485 0.3350001 0.094999984 -4.228221E-31 -0.70710677 -0.70710677 255 125 0 255
-0.505 0.35500005 0.074999996 -4.228221E-31 -0.70710677 -0.70710677 255 125 0 255
0.505 0.35500005 0.074999996 -4.228221E-31 -0.70710677 -0.70710677 255 125 0 255
-0.485 0.3350001 0.094999984 -4.228221E-31 -0.70710677 -0.70710677 255 125 0 255
0.485 0.235 0.094999984 -0.70710677 -2.5528197E-15 -0.70710677 255 125 0 255
0.505 0.35500005 0.074999996 -0.70710677 -2.5528197E-15 -0.70710677 255 125 0 255
0.505 0.25499997 0.074999996 -0.70710677 -2.5528197E-15 -0.70710677 255 125 0 255
0.485 0.3350001 0.094999984 -0.70710677 -2.5528197E-15 -0.70710677 255 125 0 255
0.5850001 0.235 0.094999984 0 -0.70710677 -0.70710677 255 125 0 255
0.505 0.25499997 0.074999996 0 -0.70710677 -0.70710677 255 125 0 255
0.605 0.25499997 0.074999996 0 -0.70710677 -0.70710677 255 125 0 255
0.485 0.235 0.094999984 0 -0.70710677 -0.70710677 255 125 0 255
0.5850001 -0.235 0.094999984 -0.70710677 -5.4080735E-16 -0.70710677 255 125 0 255
0.605 0.25499997 0.074999996 -0.70710677 -5.4080735E-16 -0.70710677 255 125 0 255
0.605 -0.25499997 0.074999996 -0.70710677 -5.4080735E-16 -0.70710677 255 125 0 255
0.5850001 0.235 0.094999984 -0.70710677 -5.4080735E-16 -0.70710677 255 125 0 255
0.485 -0.235 0.094999984 5.1097237E-15 0.70710677 -0.70710677 255 125 0 255
0.605 -0.25499997 0.074999996 5.1097237E-15 0.70710677 -0.70710677 255 125 0 255
0.505 -0.25499997 0.074999996 5.1097237E-15 0.70710677 -0.70710677 255 125 0 255
0.5850001 -0.235 0.094999984 5.1097237E-15 0.70710677 -0.70710677 255 125 0 255
0.485 -0.3350001 0.094999984 -0.70710677 7.64212E-15 -0.70710677 255 125 0 255
0.505 -0.25499997 0.074999996 -0.70710677 7.64212E-15 -0.70710677 255 125 0 255
0.505 -0.35500005 0.074999996 -0.70710677 7.64212E-15 -0.70710677 255 125 0 255
0.485 -0.235 0.094999984 -0.70710677 7.64212E-15 -0.70710677 255 125 0 255
-0.525 -0.35500005 0.035000004 0 -0 -1 255 125 0 255
-0.5349999 -0.34500003 0.035000004 0 -0 -1 255 125 0 255
-0.525 -0.27499992 0.035000004 0 -0 -1 255 125 0 255
-0.605 -0.35500005 0.035000004 0 -0 -1 255 125 0 255
-0.595 -0.34500003 0.035000004 0 -0 -1 255 125 0 255
-0.595 -0.28499994 0.035000004 0 -0 -1 255 125 0 255
-0.5349999 -0.28499994 0.035000004 0 -0 -1 255 125 0 255
-0.605 -0.27499992 0.035000004 0 -0 -1 255 125 0 255
0.505 -0.25499997 0.074999996 -1 -0 -0 255 125 0 255
0.505 -0.35500005 0.05499999 -1 -0 -0 255 125 0 255
0.505 -0.35500005 0.074999996 -1 -0 -0 255 125 0 255
0.505 -0.25499997 0.05499999 -1 -0 -0 255 125 0 255
0.505 -0.25499997 0.05499999 -0.70710677 -9.9622225E-18 -0.70710677 255 125 0 255
0.525 -0.35500005 0.035000004 -0.70710677 -9.9622225E-18 -0.70710677 255 125 0 255
0.505 -0.35500005 0.05499999 -0.70710677 -9.9622225E-18 -0.70710677 255 125 0 255
0.525 -0.27499992 0.035000004 -0.70710677 -9.9622225E-18 -0.70710677 255 125 0 255
0.605 -0.35500005 0.035000004 0 -0 -1 255 125 0 255
0.595 -0.34500003 0.035000004 0 -0 -1 255 125 0 255
0.605 -0.27499992 0.035000004 0 -0 -1 255 125 0 255
0.525 -0.35500005 0.035000004 0 -0 -1 255 125 0 255
0.5349999 -0.34500003 0.035000004 0 -0 -1 255 125 0 255
0.5349999 -0.28499994 0.035000004 0 -0 -1 255 125 0 255
0.595 -0.28499994 0.035000004 0 -0 -1 255 125 0 255
0.525 -0.27499992 0.035000004 0 -0 -1 255 125 0 255
0.605 0.25499997 0.074999996 -1 -2.010895E-16 4.439173E-15 255 125 0 255
0.605 -0.25499997 0.05499999 -1 -2.010895E-16 4.439173E-15 255 125 0 255
0.605 -0.25499997 0.074999996 -1 -2.010895E-16 4.439173E-15 255 125 0 255
0.605 -0.27499992 0.035000004 -1 -2.010895E-16 4.439173E-15 255 125 0 255
0.605 -0.35500005 -0.05499999 -1 -2.010895E-16 4.439173E-15 255 125 0 255
0.605 -0.35500005 0.035000004 -1 -2.010895E-16 4.439173E-15 255 125 0 255
0.605 0.35500005 -0.05499999 -1 -2.010895E-16 4.439173E-15 255 125 0 255
0.605 0.25499997 0.05499999 -1 -2.010895E-16 4.439173E-15 255 125 0 255
0.605 0.27499992 0.035000004 -1 -2.010895E-16 4.439173E-15 255 125 0 255
0.605 0.35500005 0.035000004 -1 -2.010895E-16 4.439173E-15 255 125 0 255
-0.605 0.35500005 -0.05499999 1 6.9789903E-16 1.3826931E-15 255 125 0 255
-0.605 -0.35500005 0.035000004 1 6.9789903E-16 1.3826931E-15 255 125 0 255
-0.605 -0.35500005 -0.05499999 1 6.9789903E-16 1.3826931E-15 255 125 0 255
-0.605 -0.27499992 0.035000004 1 6.9789903E-16 1.3826931E-15 255 125 0 255
-0.605 -0.25499997 0.05499999 1 6.9789903E-16 1.3826931E-15 255 125 0 255
-0.605 -0.25499997 0.074999996 1 6.9789903E-16 1.3826931E-15 255 125 0 255
-0.605 0.25499997 0.05499999 1 6.9789903E-16 1.3826931E-15 255 125 0 255
-0.605 0.27499992 0.035000004 1 6.9789903E-16 1.3826931E-15 255 125 0 255
-0.605 0.35500005 0.035000004 1 6.9789903E-16 1.3826931E-15 255 125 0 255
-0.605 0.25499997 0.074999996 1 6.9789903E-16 1.3826931E-15 255 125 0 255
-0.605 -0.25499997 0.05499999 -2.4905558E-18 0.70710677 -0.70710677 255 125 0 255
-0.525 -0.27499992 0.035000004 -2.4905558E-18 0.70710677 -0.70710677 255 125 0 255
-0.605 -0.27499992 0.035000004 -2.4905558E-18 0.70710677 -0.70710677 255 125 0 255
-0.505 -0.25499997 0.05499999 -2.4905558E-18 0.70710677 -0.70710677 255 125 0 255
-0.505 0.25499997 0.074999996 -7.219114E-15 -1 3.6095567E-14 255 125 0 255
-0.605 0.25499997 0.05499999 -7.219114E-15 -1 3.6095567E-14 255 125 0 255
-0.505 0.25499997 0.05499999 -7.219114E-15 -1 3.6095567E-14 255 125 0 255
-0.605 0.25499997 0.074999996 -7.219114E-15 -1 3.6095567E-14 255 125 0 255
-0.505 0.35500005 0.05499999 1 -7.219114E-15 -3.6095567E-14 255 125 0 255
-0.505 0.25499997 0.074999996 1 -7.219114E-15 -3.6095567E-14 255 125 0 255
-0.505 0.25499997 0.05499999 1 -7.219114E-15 -3.6095567E-14 255 125 0 255
-0.505 0.35500005 0.074999996 1 -7.219114E-15 -3.6095567E-14 255 125 0 255
0.505 0.35500005 0.05499999 0 -1 -0 255 125 0 255
-0.525 0.35500005 0.035000004 0 -1 -0 255 125 0 255
0.525 0.35500005 0.035000004 0 -1 -0 255 125 0 255
-0.505 0.35500005 0.05499999 0 -1 -0 255 125 0 255
0.505 0.35500005 0.074999996 0 -1 -0 255 125 0 255
-0.505 0.35500005 0.074999996 0 -1 -0 255 125 0 255
0.605 0.35500005 0.035000004 0 -1 -0 255 125 0 255
-0.605 0.35500005 -0.05499999 0 -1 -0 255 125 0 255
0.605 0.35500005 -0.05499999 0 -1 -0 255 125 0 255
-0.605 0.35500005 0.035000004 0 -1 -0 255 125 0 255
0.505 0.35500005 0.074999996 -1 -0 -0 255 125 0 255
0.505 0.25499997 0.05499999 -1 -0 -0 255 125 0 255
0.505 0.25499997 0.074999996 -1 -0 -0 255 125 0 255
0.505 0.35500005 0.05499999 -1 -0 -0 255 125 0 255
0.605 0.25499997 0.074999996 0 -1 -0 255 125 0 255
0.505 0.25499997 0.05499999 0 -1 -0 255 125 0 255
0.605 0.25499997 0.05499999 0 -1 -0 255 125 0 255
0.505 0.25499997 0.074999996 0 -1 -0 255 125 0 255
0.505 -0.25499997 0.074999996 0 1 -0 255 125 0 255
0.605 -0.25499997 0.05499999 0 1 -0 255 125 0 255
0.505 -0.25499997 0.05499999 0 1 -0 255 125 0 255
0.605 -0.25499997 0.074999996 0 1 -0 255 125 0 255
0.525 -0.27499992 0.035000004 -4.9811104E-18 0.70710677 -0.70710677 255 125 0 255
0.605 -0.25499997 0.05499999 -4.9811104E-18 0.70710677 -0.70710677 255 125 0 255
0.605 -0.27499992 0.035000004 -4.9811104E-18 0.70710677 -0.70710677 255 125 0 255
0.505 -0.25499997 0.05499999 -4.9811104E-18 0.70710677 -0.70710677 255 125 0 255
0.605 0.25499997 0.05499999 -7.471666E-18 -0.70710677 -0.70710677 255 125 0 255
0.525 0.27499992 0.035000004 -7.471666E-18 -0.70710677 -0.70710677 255 125 0 255
0.605 0.27499992 0.035000004 -7.471666E-18 -0.70710677 -0.70710677 255 125 0 255
0.505 0.25499997 0.05499999 -7.471666E-18 -0.70710677 -0.70710677 255 125 0 255
0.605 0.27499992 0.035000004 0 -0 -1 255 125 0 255
0.595 0.28499994 0.035000004 0 -0 -1 255 125 0 255
0.605 0.35500005 0.035000004 0 -0 -1 255 125 0 255
0.525 0.27499992 0.035000004 0 -0 -1 255 125 0 255
0.5349999 0.28499994 0.035000004 0 -0 -1 255 125 0 255
0.5349999 0.34500003 0.035000004 0 -0 -1 255 125 0 255
0.595 0.34500003 0.035000004 0 -0 -1 255 125 0 255
0.525 0.35500005 0.035000004 0 -0 -1 255 125 0 255
-0.525 0.27499992 0.035000004 0 -0 -1 255 125 0 255
-0.5349999 0.28499994 0.035000004 0 -0 -1 255 125 0 255
-0.525 0.35500005 0.035000004 0 -0 -1 255 125 0 255
-0.605 0.27499992 0.035000004 0 -0 -1 255 125 0 255
-0.595 0.28499994 0.035000004 0 -0 -1 255 125 0 255
-0.595 0.34500003 0.035000004 0 -0 -1 255 125 0 255
-0.5349999 0.34500003 0.035000004 0 -0 -1 255 125 0 255
-0.605 0.35500005 0.035000004 0 -0 -1 255 125 0 255
-0.605 0.25499997 0.05499999 0 -0.70710677 -0.70710677 255 125 0 255
-0.525 0.27499992 0.035000004 0 -0.70710677 -0.70710677 255 125 0 255
-0.505 0.25499997 0.05499999 0 -0.70710677 -0.70710677 255 125 0 255
-0.605 0.27499992 0.035000004 0 -0.70710677 -0.70710677 255 125 0 255
-0.525 0.27499992 0.035000004 0.70710677 -2.4905558E-18 -0.70710677 255 125 0 255
-0.505 0.35500005 0.05499999 0.70710677 -2.4905558E-18 -0.70710677 255 125 0 255
-0.505 0.25499997 0.05499999 0.70710677 -2.4905558E-18 -0.70710677 255 125 0 255
-0.525 0.35500005 0.035000004 0.70710677 -2.4905558E-18 -0.70710677 255 125 0 255
0.505 0.25499997 0.05499999 -0.70710677 -0 -0.70710677 255 125 0 255
0.525 0.35500005 0.035000004 -0.70710677 -0 -0.70710677 255 125 0 255
0.525 0.27499992 0.035000004 -0.70710677 -0 -0.70710677 255 125 0 255
0.505 0.35500005 0.05499999 -0.70710677 -0 -0.70710677 255 125 0 255
0.5549998 0.3049999 0.035000004 0 -0 -1 199 199 199 255
0.5750001 0.3250001 0.035000004 0 -0 -1 199 199 199 255
0.5750001 0.3049999 0.035000004 0 -0 -1 199 199 199 255
0.5549998 0.3250001 0.035000004 0 -0 -1 199 199 199 255
0.5750001 0.3250001 0.035000004 -1 -0 -0 199 199 199 255
0.5750001 0.3049999 0.015 -1 -0 -0 199 199 199 255
0.5750001 0.3049999 0.035000004 -1 -0 -0 199 199 199 255
0.5750001 0.3250001 0.015 -1 -0 -0 199 199 199 255
0.5549998 0.3049999 0.035000004 0 1 -0 199 199 199 255
0.5750001 0.3049999 0.015 0 1 -0 199 199 199 255
0.5549998 0.3049999 0.015 0 1 -0 199 199 199 255
0.5750001 0.3049999 0.035000004 0 1 -0 199 199 199 255
0.5549998 0.3250001 0.015 1 -0 -0 199 199 199 255
0.5549998 0.3049999 0.035000004 1 -0 -0 199 199 199 255
0.5549998 0.3049999 0.015 1 -0 -0 199 199 199 255
0.5549998 0.3250001 0.035000004 1 -0 -0 199 199 199 255
0.5750001 0.3250001 0.035000004 0 -1 -0 199 199 199 255
0.5549998 0.3250001 0.015 0 -1 -0 199 199 199 255
0.5750001 0.3250001 0.015 0 -1 -0 199 199 199 255
0.5549998 0.3250001 0.035000004 0 -1 -0 199 199 199 255
0.595 0.28499994 0.015 0 -0 -1 86 86 86 255
0.5750001 0.3049999 0.015 0 -0 -1 86 86 86 255
0.595 0.34500003 0.015 0 -0 -1 86 86 86 255
0.5349999 0.28499994 0.015 0 -0 -1 86 86 86 255
0.5549998 0.3049999 0.015 0 -0 -1 86 86 86 255
0.5549998 0.3250001 0.015 0 -0 -1 86 86 86 255
0.5750001 0.3250001 0.015 0 -0 -1 86 86 86 255
0.5349999 0.34500003 0.015 0 -0 -1 86 86 86 255
0.595 0.34500003 0.015 1 -0 -0 86 86 86 255
0.595 0.28499994 0.035000004 1 -0 -0 86 86 86 255
0.595 0.28499994 0.015 1 -0 -0 86 86 86 255
0.595 0.34500003 0.035000004 1 -0 -0 86 86 86 255
0.595 0.28499994 0.035000004 0 -1 -0 86 86 86 255
0.5349999 0.28499994 0.015 0 -1 -0 86 86 86 255
0.595 0.28499994 0.015 0 -1 -0 86 86 86 255
0.5349999 0.28499994 0.035000004 0 -1 -0 86 86 86 255
0.5349999 0.34500003 0.035000004 -1 -0 -0 86 86 86 255
0.5349999 0.28499994 0.015 -1 -0 -0 86 86 86 255
0.5349999 0.28499994 0.035000004 -1 -0 -0 86 86 86 255
0.5349999 0.34500003 0.015 -1 -0 -0 86 86 86 255
0.5349999 0.34500003 0.035000004 0 1 -0 86 86 86 255
0.595 0.34500003 0.015 0 1 -0 86 86 86 255
0.5349999 0.34500003 0.015 0 1 -0 86 86 86 255
0.595 0.34500003 0.035000004 0 1 -0 86 86 86 255
0.5549998 -0.3250001 0.035000004 0 -0 -1 199 199 199 255
0.5750001 -0.3049999 0.035000004 0 -0 -1 199 199 199 255
0.5750001 -0.3250001 0.035000004 0 -0 -1 199 199 199 255
0.5549998 -0.3049999 0.035000004 0 -0 -1 199 199 199 255
0.5549998 -0.3049999 0.015 1 -0 -0 199 199 199 255
0.5549998 -0.3250001 0.035000004 1 -0 -0 199 199 199 255
0.5549998 -0.3250001 0.015 1 -0 -0 199 199 199 255
0.5549998 -0.3049999 0.035000004 1 -0 -0 199 199 199 255
0.5750001 -0.3049999 0.035000004 0 -1 -0 199 199 199 255
0.5549998 -0.3049999 0.015 0 -1 -0 199 199 199 255
0.5750001 -0.3049999 0.015 0 -1 -0 199 199 199 255
0.5549998 -0.3049999 0.035000004 0 -1 -0 199 199 199 255
0.5750001 -0.3049999 0.035000004 -1 -0 -0 199 199 199 255
0.5750001 -0.3250001 0.015 -1 -0 -0 199 199 199 255
0.5750001 -0.3250001 0.035000004 -1 -0 -0 199 199 199 255
0.5750001 -0.3049999 0.015 -1 -0 -0 199 199 199 255
0.5549998 -0.3250001 0.035000004 0 1 -0 199 199 199 255
0.5750001 -0.3250001 0.015 0 1 -0 199 199 199 255
0.5549998 -0.3250001 0.015 0 1 -0 199 199 199 255
0.5750001 -0.3250001 0.035000004 0 1 -0 199 199 199 255
-0.5750001 -0.3250001 0.035000004 0 -0 -1 199 199 199 255
-0.5549998 -0.3049999 0.035000004 0 -0 -1 199 199 199 255
-0.5549998 -0.3250001 0.035000004 0 -0 -1 199 199 199 255
-0.5750001 -0.3049999 0.035000004 0 -0 -1 199 199 199 255
-0.5549998 -0.3049999 0.035000004 -1 -0 -0 199 199 199 255
-0.5549998 -0.3250001 0.015 -1 -0 -0 199 199 199 255
-0.5549998 -0.3250001 0.035000004 -1 -0 -0 199 199 199 255
-0.5549998 -0.3049999 0.015 -1 -0 -0 199 199 199 255
-0.5750001 -0.3250001 0.035000004 0 1 -0 199 199 199 255
-0.5549998 -0.3250001 0.015 0 1 -0 199 199 199 255
-0.5750001 -0.3250001 0.015 0 1 -0 199 199 199 255
-0.5549998 -0.3250001 0.035000004 0 1 -0 199 199 199 255
-0.5750001 -0.3049999 0.015 1 -0 -0 199 199 199 255
-0.5750001 -0.3250001 0.035000004 1 -0 -0 199 199 199 255
-0.5750001 -0.3250001 0.015 1 -0 -0 199 199 199 255
-0.5750001 -0.3049999 0.035000004 1 -0 -0 199 199 199 255
-0.5549998 -0.3049999 0.035000004 0 -1 -0 199 199 199 255
-0.5750001 -0.3049999 0.015 0 -1 -0 199 199 199 255
-0.5549998 -0.3049999 0.015 0 -1 -0 199 199 199 255
-0.5750001 -0.3049999 0.035000004 0 -1 -0 199 199 199 255
-0.5750001 0.3049999 0.035000004 0 -0 -1 199 199 199 255
-0.5549998 0.3250001 0.035000004 0 -0 -1 199 199 199 255
-0.5549998 0.3049999 0.035000004 0 -0 -1 199 199 199 255
-0.5750001 0.3250001 0.035000004 0 -0 -1 199 199 199 255
-0.5750001 0.3049999 0.035000004 0 1 -0 199 199 199 255
-0.5549998 0.3049999 0.015 0 1 -0 199 199 199 255
-0.5750001 0.3049999 0.015 0 1 -0 199 199 199 255
-0.5549998 0.3049999 0.035000004 0 1 -0 199 199 199 255
-0.5750001 0.3250001 0.015 1 -0 -0 199 199 199 255
-0.5750001 0.3049999 0.035000004 1 -0 -0 199 199 199 255
-0.5750001 0.3049999 0.015 1 -0 -0 199 199 199 255
-0.5750001 0.3250001 0.035000004 1 -0 -0 199 199 199 255
-0.5549998 0.3250001 0.035000004 0 -1 -0 199 199 199 255
-0.5750001 0.3250001 0.015 0 -1 -0 199 199 199 255
-0.5549998 0.3250001 0.015 0 -1 -0 199 199 199 255
-0.5750001 0.3250001 0.035000004 0 -1 -0 199 199 199 255
-0.5549998 0.3250001 0.035000004 -1 -0 -0 199 199 199 255
-0.5549998 0.3049999 0.015 -1 -0 -0 199 199 199 255
-0.5549998 0.3049999 0.035000004 -1 -0 -0 199 199 199 255
-0.5549998 0.3250001 0.015 -1 -0 -0 199 199 199 255
-0.5349999 0.28499994 0.015 0 -0 -1 86 86 86 255
-0.5549998 0.3049999 0.015 0 -0 -1 86 86 86 255
-0.5349999 0.34500003 0.015 0 -0 -1 86 86 86 255
-0.595 0.28499994 0.015 0 -0 -1 86 86 86 255
-0.5750001 0.3049999 0.015 0 -0 -1 86 86 86 255
-0.5750001 0.3250001 0.015 0 -0 -1 86 86 86 255
-0.5549998 0.3250001 0.015 0 -0 -1 86 86 86 255
-0.595 0.34500003 0.015 0 -0 -1 86 86 86 255
-0.595 0.34500003 0.035000004 0 1 -0 86 86 86 255
-0.5349999 0.34500003 0.015 0 1 -0 86 86 86 255
-0.595 0.34500003 0.015 0 1 -0 86 86 86 255
-0.5349999 0.34500003 0.035000004 0 1 -0 86 86 86 255
-0.5349999 0.34500003 0.015 1 -0 -0 86 86 86 255
-0.5349999 0.28499994 0.035000004 1 -0 -0 86 86 86 255
-0.5349999 0.28499994 0.015 1 -0 -0 86 86 86 255
-0.5349999 0.34500003 0.035000004 1 -0 -0 86 86 86 255
-0.5349999 0.28499994 0.035000004 0 -1 -0 86 86 86 255
-0.595 0.28499994 0.015 0 -1 -0 86 86 86 255
-0.5349999 0.28499994 0.015 0 -1 -0 86 86 86 255
-0.595 0.28499994 0.035000004 0 -1 -0 86 86 86 255
-0.595 0.34500003 0.035000004 -1 -0 -0 86 86 86 255
-0.595 0.28499994 0.015 -1 -0 -0 86 86 86 255
-0.595 0.28499994 0.035000004 -1 -0 -0 86 86 86 255
-0.595 0.34500003 0.015 -1 -0 -0 86 86 86 255
-0.5349999 -0.34500003 0.015 0 -0 -1 86 86 86 255
-0.5549998 -0.3250001 0.015 0 -0 -1 86 86 86 255
-0.5349999 -0.28499994 0.015 0 -0 -1 86 86 86 255
-0.595 -0.34500003 0.015 0 -0 -1 86 86 86 255
-0.5750001 -0.3250001 0.015 0 -0 -1 86 86 86 255
-0.5750001 -0.3049999 0.015 0 -0 -1 86 86 86 255
-0.5549998 -0.3049999 0.015 0 -0 -1 86 86 86 255
-0.595 -0.28499994 0.015 0 -0 -1 86 86 86 255
-0.595 -0.28499994 0.035000004 0 1 -0 86 86 86 255
-0.5349999 -0.28499994 0.015 0 1 -0 86 86 86 255
-0.595 -0.28499994 0.015 0 1 -0 86 86 86 255
-0.5349999 -0.28499994 0.035000004 0 1 -0 86 86 86 255
-0.5349999 -0.28499994 0.015 1 -0 -0 86 86 86 255
-0.5349999 -0.34500003 0.035000004 1 -0 -0 86 86 86 255
-0.5349999 -0.34500003 0.015 1 -0 -0 86 86 86 255
-0.5349999 -0.28499994 0.035000004 1 -0 -0 86 86 86 255
-0.5349999 -0.34500003 0.035000004 0 -1 -0 86 86 86 255
-0.595 -0.34500003 0.015 0 -1 -0 86 86 86 255
-0.5349999 -0.34500003 0.015 0 -1 -0 86 86 86 255
-0.595 -0.34500003 0.035000004 0 -1 -0 86 86 86 255
-0.595 -0.28499994 0.035000004 -1 -0 -0 86 86 86 255
-0.595 -0.34500003 0.015 -1 -0 -0 86 86 86 255
-0.595 -0.34500003 0.035000004 -1 -0 -0 86 86 86 255
-0.595 -0.28499994 0.015 -1 -0 -0 86 86 86 255
0.595 -0.34500003 0.015 0 -0 -1 86 86 86 255
0.5750001 -0.3250001 0.015 0 -0 -1 86 86 86 255
0.595 -0.28499994 0.015 0 -0 -1 86 86 86 255
0.5349999 -0.34500003 0.015 0 -0 -1 86 86 86 255
0.5549998 -0.3250001 0.015 0 -0 -1 86 86 86 255
0.5549998 -0.3049999 0.015 0 -0 -1 86 86 86 255
0.5750001 -0.3049999 0.015 0 -0 -1 86 86 86 255
0.5349999 -0.28499994 0.015 0 -0 -1 86 86 86 255
0.595 -0.34500003 0.035000004 0 -1 -0 86 86 86 255
0.5349999 -0.34500003 0.015 0 -1 -0 86 86 86 255
0.595 -0.34500003 0.015 0 -1 -0 86 86 86 255
0.5349999 -0.34500003 0.035000004 0 -1 -0 86 86 86 255
0.5349999 -0.28499994 0.035000004 -1 -0 -0 86 86 86 255
0.5349999 -0.34500003 0.015 -1 -0 -0 86 86 86 255
0.5349999 -0.34500003 0.035000004 -1 -0 -0 86 86 86 255
0.5349999 -0.28499994 0.015 -1 -0 -0 86 86 86 255
0.5349999 -0.28499994 0.035000004 0 1 -0 86 86 86 255
0.595 -0.28499994 0.015 0 1 -0 86 86 86 255
0.5349999 -0.28499994 0.015 0 1 -0 86 86 86 255
0.595 -0.28499994 0.035000004 0 1 -0 86 86 86 255
0.595 -0.28499994 0.015 1 -0 -0 86 86 86 255
0.595 -0.34500003 0.035000004 1 -0 -0 86 86 86 255
0.595 -0.34500003 0.015 1 -0 -0 86 86 86 255
0.595 -0.28499994 0.035000004 1 -0 -0 86 86 86 255
0.09567085 0.23096986 0.04500001 -4.766333E-15 0.70710677 -0.70710677 86 86 86 255
-0.116381526 0.28096995 0.094999984 -4.766333E-15 0.70710677 -0.70710677 86 86 86 255
0.116381526 0.28096995 0.094999984 -4.766333E-15 0.70710677 -0.70710677 86 86 86 255
-0.09567085 0.23096986 0.04500001 -4.766333E-15 0.70710677 -0.70710677 86 86 86 255
0.23096986 0.09567085 0.04500001 0.49999994 0.49999994 -0.70710677 86 86 86 255
0.116381526 0.28096995 0.094999984 0.49999994 0.49999994 -0.70710677 86 86 86 255
0.28096995 0.116381526 0.094999984 0.49999994 0.49999994 -0.70710677 86 86 86 255
0.09567085 0.23096986 0.04500001 0.49999994 0.49999994 -0.70710677 86 86 86 255
-0.09567085 0.23096986 0.04500001 -7.545782E-15 1 -0 86 86 86 255
0.09567085 0.23096986 0.024999999 -7.545782E-15 1 -0 86 86 86 255
-0.09567085 0.23096986 0.024999999 -7.545782E-15 1 -0 86 86 86 255
0.09567085 0.23096986 0.04500001 -7.545782E-15 1 -0 86 86 86 255
-0.23096986 0.09567085 0.04500001 -0.49999994 0.49999994 -0.70710677 86 86 86 255
-0.116381526 0.28096995 0.094999984 -0.49999994 0.49999994 -0.70710677 86 86 86 255
-0.09567085 0.23096986 0.04500001 -0.49999994 0.49999994 -0.70710677 86 86 86 255
-0.28096995 0.116381526 0.094999984 -0.49999994 0.49999994 -0.70710677 86 86 86 255
0.23096986 -0.09567085 0.04500001 0.70710677 8.457117E-15 -0.70710677 86 86 86 255
0.28096995 0.116381526 0.094999984 0.70710677 8.457117E-15 -0.70710677 86 86 86 255
0.28096995 -0.116381526 0.094999984 0.70710677 8.457117E-15 -0.70710677 86 86 86 255
0.23096986 0.09567085 0.04500001 0.70710677 8.457117E-15 -0.70710677 86 86 86 255
0.09567085 0.23096986 0.024999999 0.70710677 0.70710677 -0 86 86 86 255
0.23096986 0.09567085 0.04500001 0.70710677 0.70710677 -0 86 86 86 255
0.23096986 0.09567085 0.024999999 0.70710677 0.70710677 -0 86 86 86 255
0.09567085 0.23096986 0.04500001 0.70710677 0.70710677 -0 86 86 86 255
0.23096986 -0.09567085 0.024999999 -3.334796E-16 3.334796E-16 -1 86 86 86 255
0.21096987 -0.087386586 0.024999999 -3.334796E-16 3.334796E-16 -1 86 86 86 255
0.23096986 0.09567085 0.024999999 -3.334796E-16 3.334796E-16 -1 86 86 86 255
0.09567085 -0.23096986 0.024999999 -3.334796E-16 3.334796E-16 -1 86 86 86 255
0.087386586 -0.21096987 0.024999999 -3.334796E-16 3.334796E-16 -1 86 86 86 255
-0.09567085 -0.23096986 0.024999999 -3.334796E-16 3.334796E-16 -1 86 86 86 255
-0.087386586 -0.21096987 0.024999999 -3.334796E-16 3.334796E-16 -1 86 86 86 255
-0.21096987 -0.087386586 0.024999999 -3.334796E-16 3.334796E-16 -1 86 86 86 255
-0.23096986 -0.09567085 0.024999999 -3.334796E-16 3.334796E-16 -1 86 86 86 255
-0.21096987 0.087386586 0.024999999 -3.334796E-16 3.334796E-16 -1 86 86 86 255
0.21096987 0.087386586 0.024999999 -3.334796E-16 3.334796E-16 -1 86 86 86 255
0.09567085 0.23096986 0.024999999 -3.334796E-16 3.334796E-16 -1 86 86 86 255
0.087386586 0.21096987 0.024999999 -3.334796E-16 3.334796E-16 -1 86 86 86 255
-0.09567085 0.23096986 0.024999999 -3.334796E-16 3.334796E-16 -1 86 86 86 255
-0.087386586 0.21096987 0.024999999 -3.334796E-16 3.334796E-16 -1 86 86 86 255
-0.23096986 0.09567085 0.024999999 -3.334796E-16 3.334796E-16 -1 86 86 86 255
-0.09567085 0.23096986 0.04500001 -0.70710677 0.70710677 2.532402E-16 86 86 86 255
-0.23096986 0.09567085 0.024999999 -0.70710677 0.70710677 2.532402E-16 86 86 86 255
-0.23096986 0.09567085 0.04500001 -0.70710677 0.70710677 2.532402E-16 86 86 86 255
-0.09567085 0.23096986 0.024999999 -0.70710677 0.70710677 2.532402E-16 86 86 86 255
-0.28096995 -0.116381526 0.094999984 -0.70710677 -0 -0.70710677 86 86 86 255
-0.23096986 0.09567085 0.04500001 -0.70710677 -0 -0.70710677 86 86 86 255
-0.23096986 -0.09567085 0.04500001 -0.70710677 -0 -0.70710677 86 86 86 255
-0.28096995 0.116381526 0.094999984 -0.70710677 -0 -0.70710677 86 86 86 255
0.116381526 -0.28096995 0.094999984 0.49999994 -0.49999994 -0.70710677 86 86 86 255
0.23096986 -0.09567085 0.04500001 0.49999994 -0.49999994 -0.70710677 86 86 86 255
0.28096995 -0.116381526 0.094999984 0.49999994 -0.49999994 -0.70710677 86 86 86 255
0.09567085 -0.23096986 0.04500001 0.49999994 -0.49999994 -0.70710677 86 86 86 255
0.23096986 0.09567085 0.024999999 1 1.131867E-14 -5.517E-42 86 86 86 255
0.23096986 -0.09567085 0.04500001 1 1.131867E-14 -5.517E-42 86 86 86 255
0.23096986 -0.09567085 0.024999999 1 1.131867E-14 -5.517E-42 86 86 86 255
0.23096986 0.09567085 0.04500001 1 1.131867E-14 -5.517E-42 86 86 86 255
0.09567085 -0.23096986 0.04500001 1.5091559E-14 -1 -0 86 86 86 255
-0.09567085 -0.23096986 0.024999999 1.5091559E-14 -1 -0 86 86 86 255
0.09567085 -0.23096986 0.024999999 1.5091559E-14 -1 -0 86 86 86 255
-0.09567085 -0.23096986 0.04500001 1.5091559E-14 -1 -0 86 86 86 255
-0.23096986 -0.09567085 0.04500001 -0.70710677 -0.70710677 -2.532402E-16 86 86 86 255
-0.09567085 -0.23096986 0.024999999 -0.70710677 -0.70710677 -2.532402E-16 86 86 86 255
-0.09567085 -0.23096986 0.04500001 -0.70710677 -0.70710677 -2.532402E-16 86 86 86 255
-0.23096986 -0.09567085 0.024999999 -0.70710677 -0.70710677 -2.532402E-16 86 86 86 255
-0.23096986 0.09567085 0.04500001 -1 -0 -0 86 86 86 255
-0.23096986 -0.09567085 0.024999999 -1 -0 -0 86 86 86 255
-0.23096986 -0.09567085 0.04500001 -1 -0 -0 86 86 86 255
-0.23096986 0.09567085 0.024999999 -1 -0 -0 86 86 86 255
0.23096986 -0.09567085 0.04500001 0.70710677 -0.70710677 -4.6064123E-28 86 86 86 255
0.09567085 -0.23096986 0.024999999 0.70710677 -0.70710677 -4.6064123E-28 86 86 86 255
0.23096986 -0.09567085 0.024999999 0.70710677 -0.70710677 -4.6064123E-28 86 86 86 255
0.09567085 -0.23096986 0.04500001 0.70710677 -0.70710677 -4.6064123E-28 86 86 86 255
-0.116381526 -0.28096995 0.094999984 -0.49999994 -0.49999994 -0.70710677 86 86 86 255
-0.23096986 -0.09567085 0.04500001 -0.49999994 -0.49999994 -0.70710677 86 86 86 255
-0.09567085 -0.23096986 0.04500001 -0.49999994 -0.49999994 -0.70710677 86 86 86 255
-0.28096995 -0.116381526 0.094999984 -0.49999994 -0.49999994 -0.70710677 86 86 86 255
-0.116381526 -0.28096995 0.094999984 9.5415915E-15 -0.70710677 -0.70710677 86 86 86 255
0.09567085 -0.23096986 0.04500001 9.5415915E-15 -0.70710677 -0.70710677 86 86 86 255
0.116381526 -0.28096995 0.094999984 9.5415915E-15 -0.70710677 -0.70710677 86 86 86 255
-0.09567085 -0.23096986 0.04500001 9.5415915E-15 -0.70710677 -0.70710677 86 86 86 255
3 0 1 2
3 1 0 3
3 3 0 4
3 4 0 5
3 4 5 6
3 6 5 7
3 7 5 8
3 7 8 9
3 1 10 11
3 10 1 3
3 11 10 12
3 11 12 13
3 13 12 14
3 13 14 9
3 13 9 15
3 15 9 8
3 16 17 18
3 17 16 19
3 20 21 22
3 21 20 23
3 24 25 26
3 25 24 27
3 28 29 30
3 29 28 31
3 32 33 34
3 33 32 35
3 36 37 38
3 37 36 39
3 40 41 42
3 41 40 43
3 44 45 46
3 45 44 47
3 48 49 50
3 49 48 51
3 51 48 52
3 52 48 53
3 52 53 54
3 54 53 55
3 56 57 58
3 57 56 59
3 60 61 62
3 61 60 63
3 64 65 66
3 65 64 67
3 68 69 70
3 69 68 71
3 72 73 74
3 73 72 75
3 76 77 78
3 77 76 79
3 80 81 82
3 81 80 83
3 84 85 86
3 85 84 87
3 88 89 90
3 89 88 91
3 92 93 94
3 93 92 95
3 96 97 98
3 97 96 99
3 100 101 102
3 101 100 103
3 104 105 106
3 105 104 107
3 108 109 110
3 109 108 111
3 112 113 114
3 113 112 115
3 116 117 118
3 117 116 119
3 120 121 122
3 121 120 123
3 124 125 126
3 125 124 127
3 128 129 130
3 129 128 131
3 132 133 134
3 133 132 135
3 135 132 136
3 135 136 137
3 137 136 138
3 138 136 139
3 139 136 140
3 139 140 141
3 141 140 142
3 142 140 143
3 137 144 145
3 144 137 146
3 146 137 138
3 145 144 147
3 145 147 143
3 145 143 140
3 145 140 148
3 145 148 149
3 149 148 150
3 149 150 151
3 152 153 154
3 153 152 155
3 156 157 158
3 157 156 159
3 159 156 160
3 159 160 161
3 162 163 164
3 163 162 165
3 165 162 158
3 165 158 157
3 166 167 168
3 167 166 169
3 170 171 172
3 171 170 173
3 174 175 176
3 175 174 177
3 178 179 180
3 179 178 181
3 182 183 184
3 183 182 185
3 186 187 188
3 187 186 189
3 190 191 192
3 191 190 193
3 194 195 196
3 195 194 197
3 198 199 200
3 199 198 201
3 202 203 204
3 203 202 205
3 206 207 208
3 207 206 209
3 210 211 212
3 211 210 213
3 211 213 214
3 214 213 215
3 212 216 217
3 216 212 211
3 217 216 215
3 217 215 213
3 218 219 220
3 219 218 221
3 222 223 224
3 223 222 225
3 226 227 228
3 227 226 229
3 227 229 230
3 230 229 231
3 228 232 233
3 232 228 227
3 233 232 231
3 233 231 229
3 234 235 236
3 237 238 239
3 238 237 240
3 240 237 235
3 240 235 241
3 241 235 234
3 240 241 242
3 240 242 243
3 244 245 246
3 245 244 247
3 247 244 248
3 248 244 249
3 249 244 250
3 250 244 251
3 251 244 252
3 253 249 250
3 254 255 256
3 255 254 257
3 258 259 260
3 259 258 261
3 262 263 264
3 263 262 265
3 266 267 268
3 267 266 269
3 269 266 270
3 269 270 271
3 272 273 274
3 273 272 275
3 275 272 268
3 275 268 267
3 276 277 278
3 277 276 279
3 280 281 282
3 281 280 283
3 284 285 286
3 285 284 287
3 288 289 290
3 289 288 291
3 292 293 294
3 293 292 295
3 296 297 298
3 297 296 299
3 297 299 300
3 300 299 301
3 298 302 303
3 302 298 297
3 303 302 301
3 303 301 299
3 304 305 306
3 305 304 307
3 305 307 308
3 308 307 309
3 306 310 311
3 310 306 305
3 311 310 309
3 311 309 307
3 312 313 314
3 313 312 315
3 316 317 318
3 317 316 319
3 320 321 322
3 321 320 323
3 324 325 326
3 325 324 327
3 328 329 330
3 329 328 331
3 332 333 334
3 333 332 335
3 336 337 338
3 337 336 339
3 340 341 342
3 341 340 343
3 344 345 346
3 345 344 347
3 345 347 348
3 348 347 349
3 346 350 351
3 350 346 345
3 351 350 349
3 351 349 347
3 352 353 354
3 353 352 355
3 356 357 358
3 357 356 359
3 360 361 362
3 361 360 363
3 364 365 366
3 365 364 367
3 368 369 370
3 369 368 371
3 372 373 374
3 373 372 375
3 376 377 378
3 377 376 379
3 380 381 382
3 381 380 383
3 384 385 386
3 385 384 387
3 388 389 390
3 389 388 391
3 392 393 394
3 393 392 395
3 396 397 398
3 397 396 399
3 400 401 402
3 401 400 403
3 404 405 406
3 405 404 407
3 408 409 410
3 409 408 411
3 412 413 414
3 413 412 415
3 416 417 418
3 417 416 419
3 420 421 422
3 421 420 423
3 424 425 426
3 425 424 427
3 428 429 430
3 429 428 431
3 429 431 432
3 432 431 433
3 430 434 435
3 434 430 429
3 435 434 433
3 435 433 431
3 436 437 438
3 437 436 439
3 440 441 442
3 441 440 443
3 444 445 446
3 445 444 447
3 448 449 450
3 449 448 451
3 452 453 454
3 453 452 455
3 453 455 456
3 456 455 457
3 454 458 459
3 458 454 453
3 459 458 457
3 459 457 455
3 460 461 462
3 461 460 463
3 464 465 466
3 465 464 467
3 468 469 470
3 469 468 471
3 472 473 474
3 473 472 475
3 476 477 478
3 477 476 479
3 477 479 480
3 480 479 481
3 478 482 483
3 482 478 477
3 483 482 481
3 483 481 479
3 484 485 486
3 485 484 487
3 488 489 490
3 489 488 491
3 492 493 494
3 493 492 495
3 496 497 498
3 497 496 499
3 500 501 502
3 501 500 503
3 504 505 506
3 505 504 507
3 508 509 510
3 509 508 511
3 512 513 514
3 513 512 515
3 516 517 518
3 517 516 519
3 520 521 522
3 521 520 523
3 524 525 526
3 525 524 527
3 525 527 528
3 528 527 529
3 528 529 530
3 530 529 531
3 531 529 532
3 531 532 533
3 526 534 535
3 534 526 525
3 535 534 536
3 535 536 537
3 537 536 538
3 537 538 533
3 537 533 539
3 539 533 532
3 540 541 542
3 541 540 543
3 544 545 546
3 545 544 547
3 548 549 550
3 549 548 551
3 552 553 554
3 553 552 555
3 556 557 558
3 557 556 559
3 560 561 562
3 561 560 563
3 564 565 566
3 565 564 567
3 568 569 570
3 569 568 571
3 572 573 574
3 573 572 575
3 576 577 578
3 577 576 579

