ply
format ascii 1.0
commentY29udmVydGVyIGJ5IENvZGVMZW9wYXJk
comment Original mesh name: 'C:\Program Files (x86)\Steam\steamapps\common\Stormworks\rom\meshes\component_heavy_rotor_blade.mesh'
comment SubMesh index: 0
comment SubMesh name: 'ID3'
comment Shader: Opaque (0)
element vertex 218
property float x
property float y
property float z
property float nx
property float ny
property float nz
property uchar red
property uchar green
property uchar blue
property uchar alpha
element face 110
property list uchar ushort vertex_index
end_header
1.125 -0.08660248 0.05000003 5.7493574E-14 -0 -1 86 86 86 255
0.62499994 0.08660261 0.05000004 5.7493574E-14 -0 -1 86 86 86 255
1.125 0.08660261 0.05000004 5.7493574E-14 -0 -1 86 86 86 255
0.62499994 -0.08660248 0.05000003 5.7493574E-14 -0 -1 86 86 86 255
0.4750002 4.656613E-08 0.10000006 -0.3162278 -5.7291007E-08 -0.94868326 86 86 86 255
0.62499994 0.08660261 0.05000004 -0.3162278 -5.7291007E-08 -0.94868326 86 86 86 255
0.62499994 -0.08660248 0.05000003 -0.3162278 -5.7291007E-08 -0.94868326 86 86 86 255
0.62499994 0.08660261 0.05000004 3.219095E-14 -0.19611612 -0.9805806 86 86 86 255
0.62499994 0.2366027 0.019999966 3.219095E-14 -0.19611612 -0.9805806 86 86 86 255
1.125 0.08660261 0.05000004 3.219095E-14 -0.19611612 -0.9805806 86 86 86 255
0.4750002 0.08660261 0.05000004 3.219095E-14 -0.19611612 -0.9805806 86 86 86 255
1.9250002 -0.08660248 0.05000003 6.081229E-14 -0 -1 86 86 86 255
1.9250002 0.08660261 0.05000004 6.081229E-14 -0 -1 86 86 86 255
0.62499994 -0.2952108 -0.100499995 1.012125E-13 0.5850775 -0.8109774 86 86 86 255
0.62499994 -0.08660248 0.05000003 1.012125E-13 0.5850775 -0.8109774 86 86 86 255
1.125 -0.08660248 0.05000003 1.012125E-13 0.5850775 -0.8109774 86 86 86 255
0.4750002 -0.08660248 0.05000003 1.012125E-13 0.5850775 -0.8109774 86 86 86 255
0.62499994 0.08660261 0.05000004 1.16308E-14 -0.5 -0.8660254 86 86 86 255
0.4750002 0.043301426 0.07499999 1.16308E-14 -0.5 -0.8660254 86 86 86 255
0.4750002 0.08660261 0.05000004 1.16308E-14 -0.5 -0.8660254 86 86 86 255
0.4750002 4.656613E-08 0.10000006 1.16308E-14 -0.5 -0.8660254 86 86 86 255
0.4750002 4.656613E-08 0.10000006 8.102726E-14 0.49999994 -0.8660254 86 86 86 255
0.62499994 -0.08660248 0.05000003 8.102726E-14 0.49999994 -0.8660254 86 86 86 255
0.4750002 -0.08660248 0.05000003 8.102726E-14 0.49999994 -0.8660254 86 86 86 255
0.62499994 0.2366027 0.019999966 0.02178192 -0.125758 -0.9918218 86 86 86 255
1.125 0.32320502 0.019999966 0.02178192 -0.125758 -0.9918218 86 86 86 255
1.125 0.08660261 0.05000004 0.02178192 -0.125758 -0.9918218 86 86 86 255
0.4750002 0.08660248 -0.049999915 0.7071068 -0.7071067 -2.8645504E-08 86 86 86 255
0.62499994 0.2366027 0.019999966 0.7071068 -0.7071067 -2.8645504E-08 86 86 86 255
0.4750002 0.08660261 0.05000004 0.7071068 -0.7071067 -2.8645504E-08 86 86 86 255
0.62499994 0.2366027 -0.020000037 0.7071068 -0.7071067 -2.8645504E-08 86 86 86 255
1.9250002 0.08660261 0.05000004 5.5829588E-14 -0.12578787 -0.99205714 86 86 86 255
1.125 0.32320502 0.019999966 5.5829588E-14 -0.12578787 -0.99205714 86 86 86 255
1.9250002 0.32320502 0.019999966 5.5829588E-14 -0.12578787 -0.99205714 86 86 86 255
1.125 0.08660261 0.05000004 5.5829588E-14 -0.12578787 -0.99205714 86 86 86 255
2.7 0.08660261 0.05000004 5.890437E-14 -0 -1 86 86 86 255
2.7 -0.08660248 0.05000003 5.890437E-14 -0 -1 86 86 86 255
1.125 -0.08660248 0.05000003 5.4531507E-14 0.081926286 -0.9966384 86 86 86 255
1.9250002 -0.08660248 0.05000003 5.4531507E-14 0.081926286 -0.9966384 86 86 86 255
1.9250002 -0.573205 0.010000006 5.4531507E-14 0.081926286 -0.9966384 86 86 86 255
1.125 -0.08660248 0.05000003 0.1296689 0.35667726 -0.9251849 86 86 86 255
1.125 -0.4199185 -0.0785 0.1296689 0.35667726 -0.9251849 86 86 86 255
0.62499994 -0.2952108 -0.100499995 0.1296689 0.35667726 -0.9251849 86 86 86 255
0.62499994 -0.29521084 -0.11049999 0.8118997 0.583797 -0 86 86 86 255
0.4750002 -0.08660248 0.05000003 0.8118997 0.583797 -0 86 86 86 255
0.62499994 -0.2952108 -0.100499995 0.8118997 0.583797 -0 86 86 86 255
0.4750002 -0.086602524 -0.049999975 0.8118997 0.583797 -0 86 86 86 255
0.37500057 0.08660261 0.05000004 1.082867E-14 -0.5 -0.8660254 86 86 86 255
0.37500057 0.043301426 0.07499999 1.082867E-14 -0.5 -0.8660254 86 86 86 255
0.37500057 4.656613E-08 0.10000006 1.082867E-14 -0.5 -0.8660254 86 86 86 255
0.37500057 4.656613E-08 0.10000006 9.918163E-14 0.49999994 -0.8660254 86 86 86 255
0.37500057 -0.08660248 0.05000003 9.918163E-14 0.49999994 -0.8660254 86 86 86 255
1.125 0.32320502 -0.02000006 0.170664 -0.9853293 2.8645504E-08 86 86 86 255
0.62499994 0.2366027 0.019999966 0.170664 -0.9853293 2.8645504E-08 86 86 86 255
0.62499994 0.2366027 -0.020000037 0.170664 -0.9853293 2.8645504E-08 86 86 86 255
1.125 0.32320502 0.019999966 0.170664 -0.9853293 2.8645504E-08 86 86 86 255
0.62499994 0.2366027 -0.020000037 -5.2479908E-14 -0.19611609 0.9805806 86 86 86 255
0.62499994 0.08660248 -0.049999915 -5.2479908E-14 -0.19611609 0.9805806 86 86 86 255
1.125 0.08660248 -0.049999915 -5.2479908E-14 -0.19611609 0.9805806 86 86 86 255
0.4750002 0.08660248 -0.049999915 -5.2479908E-14 -0.19611609 0.9805806 86 86 86 255
0.4750002 0.08660248 -0.049999915 -1.008577E-13 -1 -0 86 86 86 255
0.37500057 0.08660261 0.05000004 -1.008577E-13 -1 -0 86 86 86 255
0.37500057 0.08660248 -0.049999915 -1.008577E-13 -1 -0 86 86 86 255
0.4750002 0.08660261 0.05000004 -1.008577E-13 -1 -0 86 86 86 255
1.9250002 0.32320502 -0.02000006 -6.699851E-14 -1 -0 86 86 86 255
1.125 0.32320502 0.019999966 -6.699851E-14 -1 -0 86 86 86 255
1.125 0.32320502 -0.02000006 -6.699851E-14 -1 -0 86 86 86 255
1.9250002 0.32320502 0.019999966 -6.699851E-14 -1 -0 86 86 86 255
1.9250002 0.08660261 0.05000004 -0.009472222 -0.12578212 -0.9920126 86 86 86 255
2.7 0.26484248 0.01999992 -0.009472222 -0.12578212 -0.9920126 86 86 86 255
2.7 0.18768957 0.02978265 -0.009472222 -0.12578212 -0.9920126 86 86 86 255
1.9250002 0.32320502 0.019999966 -0.009472222 -0.12578212 -0.9920126 86 86 86 255
1.9250002 -0.08660248 0.05000003 7.723393E-14 0.12660642 -0.991953 86 86 86 255
2.7 -0.08660248 0.05000003 7.723393E-14 0.12660642 -0.991953 86 86 86 255
2.7 -0.2978051 0.02304347 7.723393E-14 0.12660642 -0.991953 86 86 86 255
1.9250002 0.08660261 0.05000004 3.901514E-14 -0.19611612 -0.9805806 86 86 86 255
2.7 0.18768957 0.02978265 3.901514E-14 -0.19611612 -0.9805806 86 86 86 255
2.7 0.08660261 0.05000004 3.901514E-14 -0.19611612 -0.9805806 86 86 86 255
1.9250002 -0.573205 0.010000006 -0.01233823 0.08192004 -0.99656254 86 86 86 255
2.7 -0.2978051 0.02304347 -0.01233823 0.08192004 -0.99656254 86 86 86 255
2.7 -0.4564798 0.010000006 -0.01233823 0.08192004 -0.99656254 86 86 86 255
1.9250002 -0.08660248 0.05000003 -0.01233823 0.08192004 -0.99656254 86 86 86 255
1.125 -0.08660248 0.05000003 0.1696489 0.35450003 -0.91953737 86 86 86 255
1.9250002 -0.573205 0.010000006 0.1696489 0.35450003 -0.91953737 86 86 86 255
1.125 -0.4199185 -0.0785 0.1696489 0.35450003 -0.91953737 86 86 86 255
0.62499994 -0.29521084 -0.11049999 0.24200168 0.9702758 -0 86 86 86 255
1.125 -0.4199185 -0.0785 0.24200168 0.9702758 -0 86 86 86 255
1.125 -0.4199185 -0.08850001 0.24200168 0.9702758 -0 86 86 86 255
0.62499994 -0.2952108 -0.100499995 0.24200168 0.9702758 -0 86 86 86 255
0.62499994 -0.29521084 -0.11049999 -8.070776E-14 -0.2785396 0.9604248 86 86 86 255
0.62499994 -0.086602524 -0.049999975 -8.070776E-14 -0.2785396 0.9604248 86 86 86 255
0.4750002 -0.086602524 -0.049999975 -8.070776E-14 -0.2785396 0.9604248 86 86 86 255
1.125 -0.086602524 -0.049999975 -8.070776E-14 -0.2785396 0.9604248 86 86 86 255
0.37500057 -0.08660248 0.05000003 8.836467E-14 1 -0 86 86 86 255
0.4750002 -0.086602524 -0.049999975 8.836467E-14 1 -0 86 86 86 255
0.37500057 -0.086602524 -0.049999975 8.836467E-14 1 -0 86 86 86 255
0.4750002 -0.08660248 0.05000003 8.836467E-14 1 -0 86 86 86 255
0.62499994 0.2366027 -0.020000037 0.021781921 -0.12575799 0.9918218 86 86 86 255
1.125 0.08660248 -0.049999915 0.021781921 -0.12575799 0.9918218 86 86 86 255
1.125 0.32320502 -0.02000006 0.021781921 -0.12575799 0.9918218 86 86 86 255
0.62499994 0.08660248 -0.049999915 -5.966186E-14 -0 1 86 86 86 255
1.125 -0.086602524 -0.049999975 -5.966186E-14 -0 1 86 86 86 255
1.125 0.08660248 -0.049999915 -5.966186E-14 -0 1 86 86 86 255
0.62499994 -0.086602524 -0.049999975 -5.966186E-14 -0 1 86 86 86 255
0.62499994 0.08660248 -0.049999915 -5.6029244E-14 -0.49999994 0.8660254 86 86 86 255
0.4750002 0.08660248 -0.049999915 -5.6029244E-14 -0.49999994 0.8660254 86 86 86 255
0.4750002 4.656613E-08 -0.1 -5.6029244E-14 -0.49999994 0.8660254 86 86 86 255
0.37500057 0.08660248 -0.049999915 -1.1168711E-13 -0.49999994 0.8660254 86 86 86 255
0.37500057 4.656613E-08 -0.1 -1.1168711E-13 -0.49999994 0.8660254 86 86 86 255
1.125 0.32320502 -0.02000006 -7.514922E-14 -0.1257878 0.9920572 86 86 86 255
1.9250002 0.08660248 -0.049999915 -7.514922E-14 -0.1257878 0.9920572 86 86 86 255
1.9250002 0.32320502 -0.02000006 -7.514922E-14 -0.1257878 0.9920572 86 86 86 255
1.125 0.08660248 -0.049999915 -7.514922E-14 -0.1257878 0.9920572 86 86 86 255
2.7 0.26484248 0.01999992 -0.07509393 -0.99717647 8.593651E-08 86 86 86 255
1.9250002 0.32320502 -0.02000006 -0.07509393 -0.99717647 8.593651E-08 86 86 86 255
2.7 0.2648424 -0.020000082 -0.07509393 -0.99717647 8.593651E-08 86 86 86 255
1.9250002 0.32320502 0.019999966 -0.07509393 -0.99717647 8.593651E-08 86 86 86 255
1.9250002 -0.573205 0.010000006 -0.1489334 0.98884714 -2.8645504E-08 86 86 86 255
2.7 -0.4564798 0 -0.1489334 0.98884714 -2.8645504E-08 86 86 86 255
1.9250002 -0.573205 -1.1641532E-08 -0.1489334 0.98884714 -2.8645504E-08 86 86 86 255
2.7 -0.4564798 0.010000006 -0.1489334 0.98884714 -2.8645504E-08 86 86 86 255
1.125 -0.4199185 -0.0785 0.18818481 0.9821337 -2.8645507E-08 86 86 86 255
1.9250002 -0.573205 -1.1641532E-08 0.18818481 0.9821337 -2.8645507E-08 86 86 86 255
1.125 -0.4199185 -0.08850001 0.18818481 0.9821337 -2.8645507E-08 86 86 86 255
1.9250002 -0.573205 0.010000006 0.18818481 0.9821337 -2.8645507E-08 86 86 86 255
0.62499994 -0.29521084 -0.11049999 -0.07213962 -0.11444416 0.9908069 86 86 86 255
1.125 -0.4199185 -0.08850001 -0.07213962 -0.11444416 0.9908069 86 86 86 255
1.125 -0.086602524 -0.049999975 -0.07213962 -0.11444416 0.9908069 86 86 86 255
0.4750002 4.656613E-08 -0.1 -1.203186E-14 0.5 0.8660254 86 86 86 255
0.4750002 -0.086602524 -0.049999975 -1.203186E-14 0.5 0.8660254 86 86 86 255
0.62499994 -0.086602524 -0.049999975 -1.203186E-14 0.5 0.8660254 86 86 86 255
0.4750002 -0.043301143 -0.07500006 -1.203186E-14 0.5 0.8660254 86 86 86 255
0.37500057 4.656613E-08 -0.1 -1.082867E-14 0.5 0.8660254 86 86 86 255
0.37500057 -0.086602524 -0.049999975 -1.082867E-14 0.5 0.8660254 86 86 86 255
0.37500057 -0.043301143 -0.07500006 -1.082867E-14 0.5 0.8660254 86 86 86 255
0.4750002 4.656613E-08 -0.1 -0.3162278 5.7291007E-08 0.94868326 86 86 86 255
0.62499994 -0.086602524 -0.049999975 -0.3162278 5.7291007E-08 0.94868326 86 86 86 255
0.62499994 0.08660248 -0.049999915 -0.3162278 5.7291007E-08 0.94868326 86 86 86 255
1.9250002 -0.086602524 -0.049999975 -6.532122E-14 -0 1 86 86 86 255
1.9250002 0.08660248 -0.049999915 -6.532122E-14 -0 1 86 86 86 255
1.9250002 0.32320502 -0.02000006 -0.009472222 -0.12578215 0.9920126 86 86 86 255
2.7 0.18768944 -0.0297826 -0.009472222 -0.12578215 0.9920126 86 86 86 255
2.7 0.2648424 -0.020000082 -0.009472222 -0.12578215 0.9920126 86 86 86 255
1.9250002 0.08660248 -0.049999915 -0.009472222 -0.12578215 0.9920126 86 86 86 255
1.9250002 -0.086602524 -0.049999975 -0.015393107 0.10220297 0.99464446 86 86 86 255
2.7 -0.4564798 0 -0.015393107 0.10220297 0.99464446 86 86 86 255
2.7 -0.29780507 -0.016304338 -0.015393107 0.10220297 0.99464446 86 86 86 255
1.9250002 -0.573205 -1.1641532E-08 -0.015393107 0.10220297 0.99464446 86 86 86 255
1.125 -0.4199185 -0.08850001 -0.13074788 -0.11375807 0.9848675 86 86 86 255
1.9250002 -0.573205 -1.1641532E-08 -0.13074788 -0.11375807 0.9848675 86 86 86 255
1.125 -0.086602524 -0.049999975 -0.13074788 -0.11375807 0.9848675 86 86 86 255
1.125 -0.086602524 -0.049999975 -5.220728E-14 0.102215126 0.99476236 86 86 86 255
1.9250002 -0.573205 -1.1641532E-08 -5.220728E-14 0.102215126 0.99476236 86 86 86 255
1.9250002 -0.086602524 -0.049999975 -5.220728E-14 0.102215126 0.99476236 86 86 86 255
2.7 -0.086602524 -0.049999975 -5.135282E-14 -0 1 86 86 86 255
2.7 0.08660248 -0.049999915 -5.135282E-14 -0 1 86 86 86 255
1.9250002 0.08660248 -0.049999915 -4.632212E-14 -0.19611609 0.9805806 86 86 86 255
2.7 0.08660248 -0.049999915 -4.632212E-14 -0.19611609 0.9805806 86 86 86 255
2.7 0.18768944 -0.0297826 -4.632212E-14 -0.19611609 0.9805806 86 86 86 255
1.9250002 -0.086602524 -0.049999975 -5.004552E-14 0.15754935 0.98751116 86 86 86 255
2.7 -0.29780507 -0.016304338 -5.004552E-14 0.15754935 0.98751116 86 86 86 255
2.7 -0.086602524 -0.049999975 -5.004552E-14 0.15754935 0.98751116 86 86 86 255
3.125 0.08660261 0.05000004 -1 6.668732E-14 -5.7752915E-14 255 255 255 255
3.125 -0.086602524 -0.049999975 -1 6.668732E-14 -5.7752915E-14 255 255 255 255
3.125 -0.08660248 0.05000003 -1 6.668732E-14 -5.7752915E-14 255 255 255 255
3.125 0.08660248 -0.049999915 -1 6.668732E-14 -5.7752915E-14 255 255 255 255
2.7 0.08660248 -0.049999915 -6.271514E-14 -0 1 255 255 255 255
3.125 -0.086602524 -0.049999975 -6.271514E-14 -0 1 255 255 255 255
3.125 0.08660248 -0.049999915 -6.271514E-14 -0 1 255 255 255 255
2.7 -0.086602524 -0.049999975 -6.271514E-14 -0 1 255 255 255 255
3.125 -0.08660248 0.05000003 -0.98751116 0.15754929 1.4322752E-08 255 255 255 255
3.075 -0.3999999 -1.1641532E-08 -0.98751116 0.15754929 1.4322752E-08 255 255 255 255
3.075 -0.39999992 0.009999994 -0.98751116 0.15754929 1.4322752E-08 255 255 255 255
3.125 -0.086602524 -0.049999975 -0.98751116 0.15754929 1.4322752E-08 255 255 255 255
3.125 -0.08660248 0.05000003 6.762322E-14 -0 -1 255 255 255 255
2.7 0.08660261 0.05000004 6.762322E-14 -0 -1 255 255 255 255
3.125 0.08660261 0.05000004 6.762322E-14 -0 -1 255 255 255 255
2.7 -0.08660248 0.05000003 6.762322E-14 -0 -1 255 255 255 255
3.075 0.2366027 0.019999966 -0.9486833 -0.31622776 -1.4322752E-08 255 255 255 255
3.125 0.08660248 -0.049999915 -0.9486833 -0.31622776 -1.4322752E-08 255 255 255 255
3.125 0.08660261 0.05000004 -0.9486833 -0.31622776 -1.4322752E-08 255 255 255 255
3.075 0.2366027 -0.020000037 -0.9486833 -0.31622776 -1.4322752E-08 255 255 255 255
2.7 -0.086602524 -0.049999975 -4.513911E-14 0.15754935 0.98751116 255 255 255 255
3.075 -0.3999999 -1.1641532E-08 -4.513911E-14 0.15754935 0.98751116 255 255 255 255
3.125 -0.086602524 -0.049999975 -4.513911E-14 0.15754935 0.98751116 255 255 255 255
2.7 -0.29780507 -0.016304338 -4.513911E-14 0.15754935 0.98751116 255 255 255 255
3.075 0.2366027 -0.020000037 -9.598568E-14 -0.19611609 0.9805806 255 255 255 255
2.7 0.08660248 -0.049999915 -9.598568E-14 -0.19611609 0.9805806 255 255 255 255
3.125 0.08660248 -0.049999915 -9.598568E-14 -0.19611609 0.9805806 255 255 255 255
2.7 0.18768944 -0.0297826 -9.598568E-14 -0.19611609 0.9805806 255 255 255 255
2.7 -0.4564798 0.010000006 -0.1489334 0.98884714 -2.8645504E-08 255 255 255 255
3.075 -0.3999999 -1.1641532E-08 -0.1489334 0.98884714 -2.8645504E-08 255 255 255 255
2.7 -0.4564798 0 -0.1489334 0.98884714 -2.8645504E-08 255 255 255 255
3.075 -0.39999992 0.009999994 -0.1489334 0.98884714 -2.8645504E-08 255 255 255 255
3.075 -0.39999992 0.009999994 7.1219316E-14 0.12660642 -0.991953 255 255 255 255
2.7 -0.08660248 0.05000003 7.1219316E-14 0.12660642 -0.991953 255 255 255 255
3.125 -0.08660248 0.05000003 7.1219316E-14 0.12660642 -0.991953 255 255 255 255
2.7 -0.2978051 0.02304347 7.1219316E-14 0.12660642 -0.991953 255 255 255 255
2.7 0.08660261 0.05000004 4.350894E-14 -0.19611612 -0.9805806 255 255 255 255
3.075 0.2366027 0.019999966 4.350894E-14 -0.19611612 -0.9805806 255 255 255 255
3.125 0.08660261 0.05000004 4.350894E-14 -0.19611612 -0.9805806 255 255 255 255
2.7 0.18768957 0.02978265 4.350894E-14 -0.19611612 -0.9805806 255 255 255 255
3.075 0.2366027 0.019999966 -0.07509393 -0.99717647 8.593651E-08 255 255 255 255
2.7 0.2648424 -0.020000082 -0.07509393 -0.99717647 8.593651E-08 255 255 255 255
3.075 0.2366027 -0.020000037 -0.07509393 -0.99717647 8.593651E-08 255 255 255 255
2.7 0.26484248 0.01999992 -0.07509393 -0.99717647 8.593651E-08 255 255 255 255
2.7 -0.4564798 0 -0.015393107 0.10220297 0.99464446 255 255 255 255
3.075 -0.3999999 -1.1641532E-08 -0.015393107 0.10220297 0.99464446 255 255 255 255
2.7 -0.29780507 -0.016304338 -0.015393107 0.10220297 0.99464446 255 255 255 255
2.7 0.18768944 -0.0297826 -0.009472222 -0.12578215 0.9920126 255 255 255 255
3.075 0.2366027 -0.020000037 -0.009472222 -0.12578215 0.9920126 255 255 255 255
2.7 0.2648424 -0.020000082 -0.009472222 -0.12578215 0.9920126 255 255 255 255
2.7 -0.2978051 0.02304347 -0.01233823 0.08192004 -0.99656254 255 255 255 255
3.075 -0.39999992 0.009999994 -0.01233823 0.08192004 -0.99656254 255 255 255 255
2.7 -0.4564798 0.010000006 -0.01233823 0.08192004 -0.99656254 255 255 255 255
2.7 0.26484248 0.01999992 -0.009472222 -0.12578212 -0.9920126 255 255 255 255
3.075 0.2366027 0.019999966 -0.009472222 -0.12578212 -0.9920126 255 255 255 255
2.7 0.18768957 0.02978265 -0.009472222 -0.12578212 -0.9920126 255 255 255 255
3 0 1 2
3 1 0 3
3 4 5 6
3 7 8 9
3 8 7 10
3 11 2 12
3 2 11 0
3 13 14 15
3 14 13 16
3 17 18 19
3 18 17 20
3 21 22 23
3 24 25 26
3 27 28 29
3 28 27 30
3 31 32 33
3 32 31 34
3 11 35 36
3 35 11 12
3 37 38 39
3 40 41 42
3 43 44 45
3 44 43 46
3 18 47 19
3 47 18 20
3 47 20 48
3 48 20 49
3 50 23 51
3 23 50 21
3 52 53 54
3 53 52 55
3 56 57 58
3 57 56 59
3 60 61 62
3 61 60 63
3 64 65 66
3 65 64 67
3 68 69 70
3 69 68 71
3 72 73 74
3 75 76 77
3 78 79 80
3 79 78 81
3 82 83 84
3 85 86 87
3 86 85 88
3 89 90 91
3 90 89 92
3 93 94 95
3 94 93 96
3 97 98 99
3 100 101 102
3 101 100 103
3 104 105 106
3 106 107 108
3 107 106 105
3 109 110 111
3 110 109 112
3 113 114 115
3 114 113 116
3 117 118 119
3 118 117 120
3 121 122 123
3 122 121 124
3 125 126 127
3 128 129 130
3 129 128 131
3 132 131 128
3 131 132 129
3 129 132 133
3 133 132 134
3 135 136 137
3 102 138 139
3 138 102 101
3 140 141 142
3 141 140 143
3 144 145 146
3 145 144 147
3 148 149 150
3 151 152 153
3 139 154 155
3 154 139 138
3 156 157 158
3 159 160 161
3 162 163 164
3 163 162 165
3 166 167 168
3 167 166 169
3 170 171 172
3 171 170 173
3 174 175 176
3 175 174 177
3 178 179 180
3 179 178 181
3 182 183 184
3 183 182 185
3 186 187 188
3 187 186 189
3 190 191 192
3 191 190 193
3 194 195 196
3 195 194 197
3 198 199 200
3 199 198 201
3 202 203 204
3 203 202 205
3 206 207 208
3 209 210 211
3 212 213 214
3 215 216 217

