ply
format ascii 1.0
commentY29udmVydGVyIGJ5IENvZGVMZW9wYXJk
comment Original mesh name: 'C:\Program Files (x86)\Steam\steamapps\common\Stormworks\rom\meshes\arid_mainland\arid_island_27_15.mesh'
comment SubMesh index: 0
comment SubMesh name: ''
comment Shader: Opaque (0)
element vertex 222
property float x
property float y
property float z
property float nx
property float ny
property float nz
property uchar red
property uchar green
property uchar blue
property uchar alpha
element face 74
property list uchar ushort vertex_index
end_header
254.41992 -498.5 -84.47414 -0.087489 -0.69261205 -0.7159849 188 157 125 255
253.91797 -500 -82.96178 -0.087489 -0.69261205 -0.7159849 188 157 125 255
246.1289 -500 -82.00973 -0.087489 -0.69261205 -0.7159849 188 157 125 255
254.41992 -498.5 -84.47414 -0.087489 -0.69261205 -0.7159849 188 157 125 255
246.1289 -500 -82.00973 -0.087489 -0.69261205 -0.7159849 188 157 125 255
247.46875 -493.60303 -88.36167 -0.087489 -0.69261205 -0.7159849 188 157 125 255
368.98047 -435.6953 -153.57912 -0.32249674 -0.6403275 -0.69712013 188 157 125 255
333.6289 -485.87695 -91.13166 -0.32249677 -0.6403276 -0.6971201 188 157 125 255
308.92773 -480.23926 -84.88275 -0.32249674 -0.6403276 -0.69712013 188 157 125 255
280.38867 -394.9922 -227.01828 0.015449311 -0.5018823 -0.86479795 188 157 125 255
307.92773 -354.24805 -250.17215 0.015449308 -0.5018823 -0.86479795 188 157 125 255
332.63477 -395.5254 -225.77557 0.015449308 -0.5018823 -0.86479795 188 157 125 255
63.791016 -500 -72.25869 -0.03723097 -0.6505809 -0.7585238 188 157 125 255
77.30469 -480.38525 -89.74536 -0.03723097 -0.6505809 -0.7585238 188 157 125 255
92.51758 -500 -73.66865 -0.03723097 -0.6505809 -0.7585238 188 157 125 255
332.63477 -395.5254 -225.77557 0.002680306 -0.8732669 -0.4872349 188 157 125 255
368.98047 -435.6953 -153.57912 0.0026803059 -0.8732669 -0.48723483 188 157 125 255
280.38867 -394.9922 -227.01828 0.0026803059 -0.8732669 -0.48723486 188 157 125 255
254.41992 -498.5 -84.47414 0.22079921 -0.6748482 -0.7041503 188 157 125 255
261.8711 -420.81104 -156.59328 0.22079922 -0.67484814 -0.7041503 188 157 125 255
308.92773 -480.23926 -84.88275 0.22079922 -0.67484814 -0.7041503 188 157 125 255
199.89062 -500 -90.94393 0.00784538 -0.7488538 -0.6626888 188 157 125 255
199.32227 -500 -90.95065 0.00784538 -0.7488538 -0.6626888 188 157 125 255
199.70117 -499.64453 -91.34786 0.00784538 -0.7488538 -0.6626888 188 157 125 255
155.71094 -357.34277 -250.22537 0.0425641 -0.41831097 -0.9073061 188 157 125 255
242.3711 -350.41113 -249.3559 0.0425641 -0.41831097 -0.9073061 188 157 125 255
280.38867 -394.9922 -227.01828 0.0425641 -0.41831097 -0.9073061 188 157 125 255
255.78906 -500 -82.40608 0.19519578 -0.7279571 -0.6572496 188 157 125 255
253.91797 -500 -82.96178 0.19519578 -0.7279571 -0.6572496 188 157 125 255
254.41992 -498.5 -84.47414 0.19519578 -0.7279571 -0.6572496 188 157 125 255
261.8711 -420.81104 -156.59328 -0.117735796 -0.92195904 -0.36895773 188 157 125 255
280.38867 -394.9922 -227.01828 -0.1177358 -0.92195904 -0.36895773 188 157 125 255
368.98047 -435.6953 -153.57912 -0.117735796 -0.92195904 -0.3689577 188 157 125 255
307.92773 -354.24805 -250.17215 -0.03868523 -0.4738053 -0.8797795 188 157 125 255
280.38867 -394.9922 -227.01828 -0.038685232 -0.47380537 -0.87977946 188 157 125 255
242.3711 -350.41113 -249.3559 -0.03868523 -0.47380534 -0.8797795 188 157 125 255
261.8711 -420.81104 -156.59328 -0.20088463 -0.9015046 -0.3833209 188 157 125 255
155.71094 -357.34277 -250.22537 -0.20088463 -0.9015046 -0.3833209 188 157 125 255
280.38867 -394.9922 -227.01828 -0.20088464 -0.9015046 -0.38332093 188 157 125 255
-432.92773 -500 -210.00638 0.3623959 -0.5389899 -0.76036775 188 157 125 255
-447.8828 -500 -217.13326 0.3623959 -0.5389899 -0.76036775 188 157 125 255
-443.07422 -450.08447 -250.22466 0.3623959 -0.5389899 -0.76036775 188 157 125 255
-432.92773 -500 -210.00638 0.19750366 -0.5903977 -0.78257453 188 157 125 255
-443.07422 -450.08447 -250.22466 0.19750366 -0.5903977 -0.78257453 188 157 125 255
-409.49805 -500 -204.09285 0.19750366 -0.5903977 -0.78257453 188 157 125 255
261.8711 -420.81104 -156.59328 -0.051172543 -0.61249536 -0.7888161 188 157 125 255
199.70117 -499.64453 -91.34786 -0.05117254 -0.61249536 -0.78881603 188 157 125 255
126.29297 -438.02197 -134.43413 -0.051172543 -0.61249536 -0.7888161 188 157 125 255
320.07422 -500 -67.77523 -0.094134435 -0.6814413 -0.72579366 188 157 125 255
303.875 -500 -65.67411 -0.094134435 -0.6814413 -0.72579366 188 157 125 255
308.92773 -480.23926 -84.88275 -0.094134435 -0.6814413 -0.72579366 188 157 125 255
397.2539 -482.34033 -249.70337 -0.8894214 -0.4552738 -0.04068513 188 157 125 255
368.98047 -435.6953 -153.57912 -0.8894214 -0.45527378 -0.040685125 188 157 125 255
357.90625 -405.44824 -249.92001 -0.88942134 -0.45527378 -0.04068513 188 157 125 255
255.78906 -500 -82.40608 0.23213379 -0.70785356 -0.6671261 188 157 125 255
254.41992 -498.5 -84.47414 0.23213379 -0.70785356 -0.6671261 188 157 125 255
308.92773 -480.23926 -84.88275 0.23213379 -0.70785356 -0.6671261 188 157 125 255
255.78906 -500 -82.40608 0.23213379 -0.70785356 -0.6671261 188 157 125 255
308.92773 -480.23926 -84.88275 0.23213379 -0.70785356 -0.6671261 188 157 125 255
303.875 -500 -65.67411 0.23213379 -0.70785356 -0.6671261 188 157 125 255
368.98047 -435.6953 -153.57912 -0.093775734 -0.795936 -0.5980735 188 157 125 255
308.92773 -480.23926 -84.88275 -0.09377573 -0.795936 -0.5980735 188 157 125 255
261.8711 -420.81104 -156.59328 -0.093775734 -0.795936 -0.5980735 188 157 125 255
332.63477 -395.5254 -225.77557 -0.51861113 -0.830982 -0.20127419 188 157 125 255
357.90625 -405.44824 -249.92001 -0.51861113 -0.830982 -0.20127422 188 157 125 255
368.98047 -435.6953 -153.57912 -0.51861113 -0.830982 -0.20127419 188 157 125 255
307.92773 -354.24805 -250.17215 -0.6490291 -0.6355928 -0.41807047 188 157 125 255
357.90625 -405.44824 -249.92001 -0.64902914 -0.6355928 -0.4180705 188 157 125 255
332.63477 -395.5254 -225.77557 -0.64902914 -0.6355928 -0.4180705 188 157 125 255
-9.669922 -500 -79.38388 0.03080173 -0.705896 -0.7076455 188 157 125 255
-12.734375 -500 -79.51725 0.03080173 -0.705896 -0.7076455 188 157 125 255
-11.027344 -498.14893 -81.289444 0.03080173 -0.705896 -0.7076455 188 157 125 255
247.46875 -493.60303 -88.36167 0.13187182 -0.6916736 -0.7100687 188 157 125 255
199.70117 -499.64453 -91.34786 0.13187182 -0.6916736 -0.7100687 188 157 125 255
261.8711 -420.81104 -156.59328 0.13187182 -0.69167346 -0.7100687 188 157 125 255
199.70117 -499.64453 -91.34786 -0.17169502 -0.64716595 -0.74276304 188 157 125 255
199.32227 -500 -90.95065 -0.17169502 -0.64716595 -0.74276304 188 157 125 255
133.19531 -500 -75.66516 -0.17169502 -0.64716595 -0.74276304 188 157 125 255
199.70117 -499.64453 -91.34786 -0.17169502 -0.64716595 -0.74276304 188 157 125 255
133.19531 -500 -75.66516 -0.17169502 -0.64716595 -0.74276304 188 157 125 255
131.96875 -483.57324 -89.694046 -0.17169502 -0.64716595 -0.74276304 188 157 125 255
-357.17383 -500 -184.88503 0.29081807 -0.5365183 -0.792195 188 157 125 255
-409.49805 -500 -204.09285 0.29081807 -0.5365183 -0.792195 188 157 125 255
-443.07422 -450.08447 -250.22466 0.29081807 -0.5365183 -0.792195 188 157 125 255
77.30469 -480.38525 -89.74536 -0.04360921 -0.75820935 -0.65055114 188 157 125 255
52.88672 -403.66895 -177.52039 -0.04360921 -0.75820935 -0.65055114 188 157 125 255
92.427734 -443.6211 -133.60721 -0.04360921 -0.75820935 -0.65055114 188 157 125 255
77.30469 -480.38525 -89.74536 0.11830269 -0.70495087 -0.69932026 188 157 125 255
63.791016 -500 -72.25869 0.11830269 -0.70495087 -0.69932026 188 157 125 255
32.529297 -500 -77.547104 0.11830269 -0.70495087 -0.69932026 188 157 125 255
77.30469 -480.38525 -89.74536 0.11830269 -0.70495087 -0.69932026 188 157 125 255
32.529297 -500 -77.547104 0.11830269 -0.70495087 -0.69932026 188 157 125 255
32.626953 -498.8369 -78.70307 0.11830269 -0.70495087 -0.69932026 188 157 125 255
246.1289 -500 -82.00973 0.13316771 -0.7122403 -0.689188 188 157 125 255
199.89062 -500 -90.94393 0.13316771 -0.7122403 -0.689188 188 157 125 255
199.70117 -499.64453 -91.34786 0.13316771 -0.7122403 -0.689188 188 157 125 255
246.1289 -500 -82.00973 0.13316771 -0.7122403 -0.689188 188 157 125 255
199.70117 -499.64453 -91.34786 0.13316771 -0.7122403 -0.689188 188 157 125 255
247.46875 -493.60303 -88.36167 0.13316771 -0.7122403 -0.689188 188 157 125 255
254.41992 -498.5 -84.47414 -0.06513792 -0.67554015 -0.7344403 188 157 125 255
247.46875 -493.60303 -88.36167 -0.065137915 -0.6755401 -0.7344403 188 157 125 255
261.8711 -420.81104 -156.59328 -0.06513792 -0.67554015 -0.7344403 188 157 125 255
-447.8828 -500 -217.13326 0.32200718 -0.54447305 -0.77450657 188 157 125 255
-454.3672 -500 -219.82953 0.32200718 -0.54447305 -0.77450657 188 157 125 255
-443.07422 -450.08447 -250.22466 0.32200718 -0.54447305 -0.77450657 188 157 125 255
-357.17383 -500 -184.88503 0.22304758 -0.61071897 -0.75978434 188 157 125 255
-443.07422 -450.08447 -250.22466 0.22304758 -0.61071897 -0.75978434 188 157 125 255
-275.02148 -500 -160.76758 0.22304758 -0.61071897 -0.75978434 188 157 125 255
-33.609375 -500 -99.01655 0.41038495 -0.7990879 -0.4393662 188 157 125 255
-32.070312 -498.82373 -99.71782 0.41038495 -0.7990879 -0.4393662 188 157 125 255
-32.6875 -500 -98.15566 0.41038495 -0.7990879 -0.4393662 188 157 125 255
356.90625 -500 -80.80495 -0.14585385 -0.7292208 -0.6685534 188 157 125 255
336.7793 -500 -76.41428 -0.14585385 -0.7292208 -0.6685534 188 157 125 255
333.6289 -485.87695 -91.13166 -0.14585385 -0.7292208 -0.6685534 188 157 125 255
356.90625 -500 -80.80495 -0.14585385 -0.7292208 -0.6685534 188 157 125 255
333.6289 -485.87695 -91.13166 -0.14585385 -0.7292208 -0.6685534 188 157 125 255
368.98047 -435.6953 -153.57912 -0.14585385 -0.7292208 -0.6685534 188 157 125 255
333.6289 -485.87695 -91.13166 -0.3202789 -0.71683437 -0.6193301 188 157 125 255
336.7793 -500 -76.41428 -0.3202789 -0.71683437 -0.6193301 188 157 125 255
320.07422 -500 -67.77523 -0.3202789 -0.71683437 -0.6193301 188 157 125 255
333.6289 -485.87695 -91.13166 -0.3202789 -0.71683437 -0.6193301 188 157 125 255
320.07422 -500 -67.77523 -0.3202789 -0.71683437 -0.6193301 188 157 125 255
308.92773 -480.23926 -84.88275 -0.3202789 -0.71683437 -0.6193301 188 157 125 255
92.51758 -500 -73.66865 -0.03723095 -0.6505809 -0.7585238 188 157 125 255
77.30469 -480.38525 -89.74536 -0.03723095 -0.6505809 -0.7585238 188 157 125 255
131.96875 -483.57324 -89.694046 -0.03723095 -0.6505809 -0.7585238 188 157 125 255
92.51758 -500 -73.66865 -0.03723095 -0.6505809 -0.7585238 188 157 125 255
131.96875 -483.57324 -89.694046 -0.03723095 -0.6505809 -0.7585238 188 157 125 255
133.19531 -500 -75.66516 -0.03723095 -0.6505809 -0.7585238 188 157 125 255
126.29297 -438.02197 -134.43413 0.0968075 -0.69126725 -0.71608514 188 157 125 255
131.96875 -483.57324 -89.694046 0.09680749 -0.69126725 -0.71608514 188 157 125 255
92.427734 -443.6211 -133.60721 0.09680749 -0.69126725 -0.71608514 188 157 125 255
37.04883 -446.01562 -131.20107 0.3096484 -0.75212437 -0.58174455 188 157 125 255
-32.070312 -498.82373 -99.71782 0.3096484 -0.75212437 -0.58174455 188 157 125 255
-24.152344 -477.6504 -122.87748 0.3096484 -0.75212437 -0.58174455 188 157 125 255
-475.41406 -500 -242.02083 0.5570248 -0.47308126 -0.68258154 188 157 125 255
-485.23438 -500 -250.03505 0.5570248 -0.47308126 -0.68258154 188 157 125 255
-443.07422 -450.08447 -250.22466 0.5570248 -0.47308126 -0.68258154 188 157 125 255
52.88672 -403.66895 -177.52039 0.04835448 -0.7453606 -0.6649055 188 157 125 255
77.30469 -480.38525 -89.74536 0.048354484 -0.7453606 -0.6649055 188 157 125 255
37.04883 -446.01562 -131.20107 0.048354484 -0.7453606 -0.6649055 188 157 125 255
261.8711 -420.81104 -156.59328 0.05046799 -0.8443543 -0.5334029 188 157 125 255
-167.67383 -387.33594 -250.22466 0.050467994 -0.8443544 -0.5334029 188 157 125 255
69.603516 -373.15332 -250.22466 0.05046799 -0.8443544 -0.5334029 188 157 125 255
-443.07422 -450.08447 -250.22466 0.16570242 -0.7272557 -0.6660645 188 157 125 255
-167.67383 -387.33594 -250.22466 0.16570242 -0.72725564 -0.66606456 188 157 125 255
52.88672 -403.66895 -177.52039 0.16570242 -0.72725564 -0.66606444 188 157 125 255
-47.42578 -500 -106.369995 0.16765854 -0.6926953 -0.70147264 188 157 125 255
-275.02148 -500 -160.76758 0.16765854 -0.6926953 -0.70147264 188 157 125 255
-443.07422 -450.08447 -250.22466 0.16765854 -0.6926953 -0.70147264 188 157 125 255
-47.42578 -500 -106.369995 0.16765854 -0.6926953 -0.70147264 188 157 125 255
-443.07422 -450.08447 -250.22466 0.16765854 -0.6926953 -0.70147264 188 157 125 255
-24.152344 -477.6504 -122.87748 0.16765854 -0.6926953 -0.70147264 188 157 125 255
37.04883 -446.01562 -131.20107 0.30964637 -0.7521216 -0.5817492 188 157 125 255
-24.152344 -477.6504 -122.87748 0.30964637 -0.7521216 -0.5817492 188 157 125 255
52.88672 -403.66895 -177.52039 0.3096464 -0.7521217 -0.58174914 188 157 125 255
402.26953 -500 -105.69952 -0.87913996 -0.47575662 -0.027721593 188 157 125 255
368.98047 -435.6953 -153.57912 -0.87913996 -0.47575662 -0.027721593 188 157 125 255
397.2539 -482.34033 -249.70337 -0.87913996 -0.47575662 -0.027721593 188 157 125 255
402.26953 -500 -105.69952 -0.87913996 -0.47575662 -0.027721593 188 157 125 255
397.2539 -482.34033 -249.70337 -0.87913996 -0.47575662 -0.027721593 188 157 125 255
405.0996 -500 -195.43904 -0.87913996 -0.47575662 -0.027721593 188 157 125 255
261.8711 -420.81104 -156.59328 -0.0020652714 -0.78360426 -0.6212569 188 157 125 255
126.29297 -438.02197 -134.43413 -0.0020652714 -0.78360426 -0.6212568 188 157 125 255
52.88672 -403.66895 -177.52039 -0.0020652714 -0.7836042 -0.6212569 188 157 125 255
199.70117 -499.64453 -91.34786 -0.18303591 -0.7004035 -0.6898788 188 157 125 255
131.96875 -483.57324 -89.694046 -0.18303593 -0.7004035 -0.6898788 188 157 125 255
126.29297 -438.02197 -134.43413 -0.18303593 -0.70040345 -0.6898788 188 157 125 255
356.90625 -500 -80.80495 -0.24108228 -0.70706886 -0.66478044 188 157 125 255
368.98047 -435.6953 -153.57912 -0.24108228 -0.70706886 -0.66478044 188 157 125 255
383.22266 -500 -90.34882 -0.24108228 -0.70706886 -0.66478044 188 157 125 255
-32.070312 -498.82373 -99.71782 0.30965334 -0.75212395 -0.58174247 188 157 125 255
-33.609375 -500 -99.01655 0.30965334 -0.75212395 -0.58174247 188 157 125 255
-47.42578 -500 -106.369995 0.30965334 -0.75212395 -0.58174247 188 157 125 255
-32.070312 -498.82373 -99.71782 0.30965334 -0.75212395 -0.58174247 188 157 125 255
-47.42578 -500 -106.369995 0.30965334 -0.75212395 -0.58174247 188 157 125 255
-24.152344 -477.6504 -122.87748 0.30965334 -0.75212395 -0.58174247 188 157 125 255
-32.070312 -498.82373 -99.71782 0.41037992 -0.79908895 -0.43936905 188 157 125 255
37.04883 -446.01562 -131.20107 0.41037992 -0.799089 -0.43936905 188 157 125 255
-11.027344 -498.14893 -81.289444 0.41037992 -0.79908895 -0.43936902 188 157 125 255
402.26953 -500 -105.69952 -0.4653556 -0.6708409 -0.5774224 188 157 125 255
383.22266 -500 -90.34882 -0.4653556 -0.6708409 -0.5774224 188 157 125 255
368.98047 -435.6953 -153.57912 -0.4653556 -0.6708409 -0.5774224 188 157 125 255
-32.6875 -500 -98.15566 0.41037995 -0.79908895 -0.439369 188 157 125 255
-32.070312 -498.82373 -99.71782 0.41037995 -0.79908895 -0.439369 188 157 125 255
-11.027344 -498.14893 -81.289444 0.41037995 -0.79908895 -0.439369 188 157 125 255
-32.6875 -500 -98.15566 0.41037995 -0.79908895 -0.439369 188 157 125 255
-11.027344 -498.14893 -81.289444 0.41037995 -0.79908895 -0.439369 188 157 125 255
-12.734375 -500 -79.51725 0.41037995 -0.79908895 -0.439369 188 157 125 255
32.626953 -498.8369 -78.70307 0.030798636 -0.7058946 -0.707647 188 157 125 255
-11.027344 -498.14893 -81.289444 0.030798635 -0.7058946 -0.707647 188 157 125 255
37.04883 -446.01562 -131.20107 0.030798636 -0.7058946 -0.70764697 188 157 125 255
32.529297 -500 -77.547104 0.030798504 -0.7058973 -0.7076443 188 157 125 255
-9.669922 -500 -79.38388 0.030798504 -0.7058973 -0.7076443 188 157 125 255
-11.027344 -498.14893 -81.289444 0.030798504 -0.7058973 -0.7076443 188 157 125 255
32.529297 -500 -77.547104 0.030798504 -0.7058973 -0.7076443 188 157 125 255
-11.027344 -498.14893 -81.289444 0.030798504 -0.7058973 -0.7076443 188 157 125 255
32.626953 -498.8369 -78.70307 0.030798504 -0.7058973 -0.7076443 188 157 125 255
77.30469 -480.38525 -89.74536 0.11830088 -0.7049483 -0.6993231 188 157 125 255
32.626953 -498.8369 -78.70307 0.11830088 -0.7049483 -0.69932306 188 157 125 255
37.04883 -446.01562 -131.20107 0.11830087 -0.7049483 -0.6993231 188 157 125 255
126.29297 -438.02197 -134.43413 0.09680752 -0.69126725 -0.7160851 188 157 125 255
92.427734 -443.6211 -133.60721 0.09680752 -0.69126725 -0.716085 188 157 125 255
52.88672 -403.66895 -177.52039 0.096807525 -0.6912674 -0.716085 188 157 125 255
77.30469 -480.38525 -89.74536 -0.043609377 -0.7582093 -0.6505512 188 157 125 255
92.427734 -443.6211 -133.60721 -0.043609377 -0.7582093 -0.6505512 188 157 125 255
131.96875 -483.57324 -89.694046 -0.043609377 -0.7582093 -0.6505512 188 157 125 255
155.71094 -357.34277 -250.22537 0.1361443 -0.7415067 -0.6569874 188 157 125 255
261.8711 -420.81104 -156.59328 0.13614428 -0.7415067 -0.6569874 188 157 125 255
69.603516 -373.15332 -250.22466 0.13614428 -0.7415067 -0.6569875 188 157 125 255
261.8711 -420.81104 -156.59328 -0.0851436 -0.9957678 0.03459886 188 157 125 255
52.88672 -403.66895 -177.52039 -0.0851436 -0.99576783 0.03459886 188 157 125 255
-167.67383 -387.33594 -250.22466 -0.08514362 -0.99576783 0.03459886 188 157 125 255
-475.41406 -500 -242.02083 0.62676394 -0.50378066 -0.594451 188 157 125 255
-443.07422 -450.08447 -250.22466 0.62676394 -0.50378066 -0.594451 188 157 125 255
-454.3672 -500 -219.82953 0.62676394 -0.50378066 -0.594451 188 157 125 255
405.0996 -500 -195.43904 -0.777948 -0.62186384 -0.08990107 188 157 125 255
397.2539 -482.34033 -249.70337 -0.777948 -0.62186384 -0.08990107 188 157 125 255
411.36914 -500 -249.69382 -0.777948 -0.62186384 -0.08990107 188 157 125 255
-24.152344 -477.6504 -122.87748 0.16765857 -0.69269526 -0.70147264 188 157 125 255
-443.07422 -450.08447 -250.22466 0.16765858 -0.6926953 -0.70147264 188 157 125 255
52.88672 -403.66895 -177.52039 0.16765858 -0.6926953 -0.70147264 188 157 125 255
3 0 1 2
3 3 4 5
3 6 7 8
3 9 10 11
3 12 13 14
3 15 16 17
3 18 19 20
3 21 22 23
3 24 25 26
3 27 28 29
3 30 31 32
3 33 34 35
3 36 37 38
3 39 40 41
3 42 43 44
3 45 46 47
3 48 49 50
3 51 52 53
3 54 55 56
3 57 58 59
3 60 61 62
3 63 64 65
3 66 67 68
3 69 70 71
3 72 73 74
3 75 76 77
3 78 79 80
3 81 82 83
3 84 85 86
3 87 88 89
3 90 91 92
3 93 94 95
3 96 97 98
3 99 100 101
3 102 103 104
3 105 106 107
3 108 109 110
3 111 112 113
3 114 115 116
3 117 118 119
3 120 121 122
3 123 124 125
3 126 127 128
3 129 130 131
3 132 133 134
3 135 136 137
3 138 139 140
3 141 142 143
3 144 145 146
3 147 148 149
3 150 151 152
3 153 154 155
3 156 157 158
3 159 160 161
3 162 163 164
3 165 166 167
3 168 169 170
3 171 172 173
3 174 175 176
3 177 178 179
3 180 181 182
3 183 184 185
3 186 187 188
3 189 190 191
3 192 193 194
3 195 196 197
3 198 199 200
3 201 202 203
3 204 205 206
3 207 208 209
3 210 211 212
3 213 214 215
3 216 217 218
3 219 220 221

