ply
format ascii 1.0
commentY29udmVydGVyIGJ5IENvZGVMZW9wYXJk
comment Original mesh name: 'C:\Program Files (x86)\Steam\steamapps\common\Stormworks\rom\meshes\arid_mainland\arid_island_20_3.mesh'
comment SubMesh index: 0
comment SubMesh name: ''
comment Shader: Opaque (0)
element vertex 477
property float x
property float y
property float z
property float nx
property float ny
property float nz
property uchar red
property uchar green
property uchar blue
property uchar alpha
element face 159
property list uchar ushort vertex_index
end_header
-439.57422 436.44775 44.340355 -0.31224027 0.7935967 -0.5222166 88 62 45 255
-381.45117 473.7173 66.22579 -0.31224027 0.79359674 -0.5222166 88 62 45 255
-387.2754 446.8999 28.95346 -0.31224027 0.79359674 -0.5222166 88 62 45 255
-439.57422 436.44775 44.340355 -0.31815484 0.79733306 -0.51287186 88 62 45 255
-450.36328 451.0337 73.70992 -0.31815484 0.79733306 -0.51287186 88 62 45 255
-381.45117 473.7173 66.22579 -0.3181548 0.797333 -0.51287186 88 62 45 255
-195.13086 425.4048 -275.22745 -0.8338379 0.07899624 -0.5463277 88 62 45 255
-311.5293 428.95996 -97.058815 -0.8338379 0.07899624 -0.5463277 88 62 45 255
-190.30078 475.7539 -275.31778 -0.8338379 0.07899624 -0.5463277 88 62 45 255
-243.7168 398.97168 -274.86166 -0.45551673 0.8329316 -0.31421238 88 62 45 255
-311.5293 428.95996 -97.058815 -0.45551673 0.8329316 -0.31421238 88 62 45 255
-195.13086 425.4048 -275.22745 -0.45551673 0.8329316 -0.31421235 88 62 45 255
-387.2754 446.8999 28.95346 0.039269216 0.8837663 -0.46627787 88 62 45 255
-353.35547 425.6714 -8.424858 0.03926922 0.8837663 -0.46627787 88 62 45 255
-482.96875 424.5796 -21.410786 0.039269216 0.8837663 -0.46627784 88 62 45 255
-482.96875 424.5796 -21.410786 0.13592166 0.9554028 -0.26216564 88 62 45 255
-500 435.39893 9.188256 0.13592166 0.9554028 -0.26216564 88 62 45 255
-500 439.44922 23.94787 0.13592166 0.9554028 -0.26216564 88 62 45 255
-482.96875 424.5796 -21.410786 0.13592166 0.9554028 -0.26216564 88 62 45 255
-500 439.44922 23.94787 0.13592166 0.9554028 -0.26216564 88 62 45 255
-439.57422 436.44775 44.340355 0.13592166 0.9554028 -0.26216564 88 62 45 255
-439.57422 436.44775 44.340355 -0.10821268 0.8739607 -0.47379613 88 62 45 255
-489.58008 436.76367 56.343533 -0.10821268 0.8739607 -0.4737961 88 62 45 255
-450.36328 451.0337 73.70992 -0.10821268 0.8739607 -0.4737962 88 62 45 255
-500 439.44922 23.94787 0.024253454 0.99690074 0.074837334 88 62 45 255
-500 438.58398 35.468945 0.024253454 0.99690074 0.074837334 88 62 45 255
-489.58008 436.76367 56.343533 0.024253454 0.99690074 0.074837334 88 62 45 255
-500 439.44922 23.94787 0.024253454 0.99690074 0.074837334 88 62 45 255
-489.58008 436.76367 56.343533 0.024253454 0.99690074 0.074837334 88 62 45 255
-439.57422 436.44775 44.340355 0.024253454 0.99690074 0.074837334 88 62 45 255
-489.58008 436.76367 56.343533 0.21805182 0.45284826 -0.8645125 88 62 45 255
-500 445.7754 58.43597 0.21805182 0.45284826 -0.8645125 88 62 45 255
-500 455.71484 63.64227 0.21805182 0.45284826 -0.8645125 88 62 45 255
-489.58008 436.76367 56.343533 0.21805182 0.45284826 -0.8645125 88 62 45 255
-500 455.71484 63.64227 0.21805182 0.45284826 -0.8645125 88 62 45 255
-450.36328 451.0337 73.70992 0.21805182 0.45284826 -0.8645125 88 62 45 255
-500 455.71484 63.64227 0.21769714 0.3438466 -0.9134427 88 62 45 255
-500 473.64355 70.391136 0.21769714 0.3438466 -0.9134427 88 62 45 255
-487.41992 489.94336 79.525 0.21769714 0.3438466 -0.9134427 88 62 45 255
-500 455.71484 63.64227 0.21769714 0.3438466 -0.9134427 88 62 45 255
-487.41992 489.94336 79.525 0.21769714 0.3438466 -0.9134427 88 62 45 255
-450.36328 451.0337 73.70992 0.21769714 0.3438466 -0.9134427 88 62 45 255
-500 493.83203 75.08769 0.3879208 0.23926087 -0.8900964 88 62 45 255
-500 499.6162 76.642555 0.3879208 0.23926087 -0.8900964 88 62 45 255
-487.41992 489.94336 79.525 0.3879208 0.23926087 -0.8900964 88 62 45 255
-464.75977 407.40918 -85.06797 0.21750529 0.9562375 -0.19570711 88 62 45 255
-500 412.78467 -97.96983 0.21750529 0.9562375 -0.19570711 88 62 45 255
-500 420.1338 -62.062042 0.21750529 0.9562375 -0.19570711 88 62 45 255
-464.75977 407.40918 -85.06797 0.21750529 0.9562375 -0.19570711 88 62 45 255
-500 420.1338 -62.062042 0.21750529 0.9562375 -0.19570711 88 62 45 255
-482.96875 424.5796 -21.410786 0.21750529 0.9562375 -0.19570711 88 62 45 255
-324.45508 500 -22.005863 -0.92489994 0.18350089 -0.3329979 88 62 45 255
-311.5293 428.95996 -97.058815 -0.92489994 0.18350089 -0.3329979 88 62 45 255
-344.74805 480.34912 23.527912 -0.92489994 0.18350089 -0.3329979 88 62 45 255
-324.45508 500 -22.005863 -0.92489994 0.18350089 -0.3329979 88 62 45 255
-344.74805 480.34912 23.527912 -0.92489994 0.18350089 -0.3329979 88 62 45 255
-334.2246 500 5.1279616 -0.92489994 0.18350089 -0.3329979 88 62 45 255
-482.96875 424.5796 -21.410786 0.059139498 0.7544179 -0.65372485 88 62 45 255
-353.35547 425.6714 -8.424858 0.059139498 0.7544179 -0.65372485 88 62 45 255
-393.03125 409.3999 -30.792282 0.059139494 0.75441784 -0.65372485 88 62 45 255
-500 401.9795 -167.14868 0.20289104 0.9674718 -0.15110779 88 62 45 255
-500 412.78467 -97.96983 0.20289104 0.9674718 -0.15110779 88 62 45 255
-464.75977 407.40918 -85.06797 0.20289104 0.9674718 -0.15110779 88 62 45 255
-243.7168 398.97168 -274.86166 -0.05367531 0.98109305 -0.18594466 88 62 45 255
-346.19336 393.51855 -274.05237 -0.053675305 0.98109305 -0.18594466 88 62 45 255
-311.5293 428.95996 -97.058815 -0.053675305 0.98109305 -0.18594462 88 62 45 255
-448.23828 394.6997 -273.0946 -0.14492488 0.9862518 -0.07939896 88 62 45 255
-464.75977 407.40918 -85.06797 -0.14492488 0.9862518 -0.07939896 88 62 45 255
-311.5293 428.95996 -97.058815 -0.1449249 0.9862518 -0.07939896 88 62 45 255
-500 400.73633 -185.61221 -0.13794735 0.97913957 -0.14918534 88 62 45 255
-448.23828 394.6997 -273.0946 -0.13794735 0.97913957 -0.14918534 88 62 45 255
-495.55078 388.15723 -272.28363 -0.13794735 0.97913957 -0.14918534 88 62 45 255
-500 400.73633 -185.61221 -0.13794735 0.97913957 -0.14918534 88 62 45 255
-495.55078 388.15723 -272.28363 -0.13794735 0.97913957 -0.14918534 88 62 45 255
-500 394.60986 -225.82065 -0.13794735 0.97913957 -0.14918534 88 62 45 255
-311.5293 428.95996 -97.058815 -0.835282 0.15952957 -0.5261694 88 62 45 255
-293.80078 500 -103.66446 -0.835282 0.15952957 -0.5261694 88 62 45 255
-228.93945 500 -206.6302 -0.835282 0.15952957 -0.5261694 88 62 45 255
-311.5293 428.95996 -97.058815 -0.835282 0.15952957 -0.5261694 88 62 45 255
-228.93945 500 -206.6302 -0.835282 0.15952957 -0.5261694 88 62 45 255
-190.30078 475.7539 -275.31778 -0.835282 0.15952957 -0.5261694 88 62 45 255
-500 442.1411 50.205906 0.53897613 0.8188046 -0.19764532 88 62 45 255
-489.58008 436.76367 56.343533 0.53897613 0.8188046 -0.19764532 88 62 45 255
-500 438.58398 35.468945 0.53897613 0.8188046 -0.19764532 88 62 45 255
-207.39062 500 -268.05545 -0.65003127 -0.2424445 -0.72019446 88 62 45 255
-199.34961 500 -275.31247 -0.65003127 -0.2424445 -0.72019446 88 62 45 255
-190.30078 475.7539 -275.31778 -0.65003127 -0.2424445 -0.72019446 88 62 45 255
-450.36328 451.0337 73.70992 0.09706188 0.23691015 -0.9666709 88 62 45 255
-487.41992 489.94336 79.525 0.09706188 0.23691016 -0.9666709 88 62 45 255
-399.80078 485.79443 87.30592 0.09706187 0.23691015 -0.9666709 88 62 45 255
-500 442.1411 50.205906 0.5789403 0.74587756 -0.3293855 88 62 45 255
-500 445.7754 58.43597 0.5789403 0.74587756 -0.3293855 88 62 45 255
-489.58008 436.76367 56.343533 0.5789403 0.74587756 -0.3293855 88 62 45 255
-460.07617 500 83.945595 0.17758241 -0.05083572 -0.9827921 88 62 45 255
-487.41992 489.94336 79.525 0.17758241 -0.05083572 -0.9827921 88 62 45 255
-487.14062 500 79.05545 0.17758241 -0.05083572 -0.9827921 88 62 45 255
-393.03125 409.3999 -30.792282 0.13994284 0.9653305 -0.22034784 88 62 45 255
-464.75977 407.40918 -85.06797 0.13994284 0.9653305 -0.22034788 88 62 45 255
-482.96875 424.5796 -21.410786 0.13994285 0.9653305 -0.22034787 88 62 45 255
-500 394.60986 -225.82065 0.11322147 0.98554534 -0.12602071 88 62 45 255
-495.55078 388.15723 -272.28363 0.11322147 0.98554534 -0.12602071 88 62 45 255
-500 388.6787 -272.20386 0.11322147 0.98554534 -0.12602071 88 62 45 255
-311.5293 428.95996 -97.058815 0.0094848685 0.98013145 -0.19812216 88 62 45 255
-346.19336 393.51855 -274.05237 0.0094848685 0.98013145 -0.19812217 88 62 45 255
-448.23828 394.6997 -273.0946 0.009484868 0.98013145 -0.19812219 88 62 45 255
-464.75977 407.40918 -85.06797 -0.12783433 0.9828522 0.13289027 88 62 45 255
-393.03125 409.3999 -30.792282 -0.12783433 0.9828522 0.13289027 88 62 45 255
-311.5293 428.95996 -97.058815 -0.12783433 0.9828523 0.13289027 88 62 45 255
-311.5293 428.95996 -97.058815 -0.32011646 0.94022715 -0.116182506 88 62 45 255
-393.03125 409.3999 -30.792282 -0.3201164 0.94022715 -0.11618249 88 62 45 255
-353.35547 425.6714 -8.424858 -0.32011646 0.9402272 -0.11618251 88 62 45 255
-500 400.73633 -185.61221 0.0027891274 0.99773586 -0.067196205 88 62 45 255
-500 401.9795 -167.14868 0.0027891274 0.99773586 -0.067196205 88 62 45 255
-464.75977 407.40918 -85.06797 0.0027891274 0.99773586 -0.067196205 88 62 45 255
-500 400.73633 -185.61221 0.0027891274 0.99773586 -0.067196205 88 62 45 255
-464.75977 407.40918 -85.06797 0.0027891274 0.99773586 -0.067196205 88 62 45 255
-448.23828 394.6997 -273.0946 0.0027891274 0.99773586 -0.067196205 88 62 45 255
-128.42383 444.43604 21.857698 -0.994338 0.09836334 -0.040206227 88 62 45 255
-122.28711 467.063 -74.52827 -0.994338 0.09836334 -0.04020622 88 62 45 255
-126.66211 402.90576 -123.32469 -0.994338 0.09836334 -0.04020622 88 62 45 255
-270.7793 500 -246.1552 0.99935335 -0.03377712 -0.012330044 88 62 45 255
-273.77734 437.64502 -318.30652 0.99935335 -0.03377712 -0.012330044 88 62 45 255
-272.55273 474.61328 -320.3751 0.99935335 -0.03377712 -0.012330044 88 62 45 255
-270.7793 500 -246.1552 0.99935335 -0.03377712 -0.012330044 88 62 45 255
-272.55273 474.61328 -320.3751 0.99935335 -0.03377712 -0.012330044 88 62 45 255
-270.9922 500 -263.49466 0.99935335 -0.03377712 -0.012330044 88 62 45 255
-270.9922 500 -263.49466 0.9876574 -0.15131618 0.040450744 88 62 45 255
-272.55273 474.61328 -320.3751 0.9876574 -0.15131618 0.040450744 88 62 45 255
-268.57422 500 -322.55472 0.9876574 -0.15131618 0.040450744 88 62 45 255
-143.92188 500 -282.27032 -0.7940038 -0.5910023 -0.14238784 88 62 45 255
-136.9082 500 -321.3836 -0.7940038 -0.5910023 -0.14238784 88 62 45 255
-125.48828 485.13818 -323.37277 -0.7940038 -0.5910023 -0.14238784 88 62 45 255
-165.70703 383.4253 -319.0345 -0.015443262 0.9978752 -0.06329805 88 62 45 255
-222.46289 382.4331 -320.82883 -0.015443262 0.9978752 -0.06329805 88 62 45 255
-233.88867 396.5874 -94.90512 -0.015443261 0.9978752 -0.06329805 88 62 45 255
-126.66211 402.90576 -123.32469 -0.3135091 0.94241476 -0.116474785 88 62 45 255
-214.00781 388.96582 -1.0097396 -0.31350908 0.94241476 -0.11647478 88 62 45 255
-191.32617 396.8286 1.5618365 -0.31350908 0.94241476 -0.11647478 88 62 45 255
-218.30078 425.94482 56.234417 0.34294584 0.1966587 -0.91853875 88 62 45 255
-239.9336 428.54834 48.714973 0.3429458 0.19665867 -0.91853875 88 62 45 255
-239.3457 479.2788 59.796165 0.34294584 0.19665869 -0.91853875 88 62 45 255
-181.11914 500 18.642912 -0.518478 -0.25957248 -0.8147409 88 62 45 255
-155.11523 500 2.0937772 -0.518478 -0.25957248 -0.8147409 88 62 45 255
-146.22461 487.1577 0.5278987 -0.518478 -0.25957248 -0.8147409 88 62 45 255
-233.88867 396.5874 -94.90512 0.807975 0.58920354 0.0039465735 88 62 45 255
-222.46289 382.4331 -320.82883 0.807975 0.58920354 0.0039465735 88 62 45 255
-264.13477 437.96582 -80.44511 0.807975 0.5892035 0.0039465735 88 62 45 255
-246.90625 429.64404 43.075306 0.454127 0.7922527 -0.4075588 88 62 45 255
-239.9336 428.54834 48.714973 0.454127 0.7922527 -0.40755877 88 62 45 255
-211.18164 394.49805 14.562817 0.454127 0.7922527 -0.4075588 88 62 45 255
-171.5332 447.3921 52.703617 -0.12483578 -0.30559117 -0.94394386 88 62 45 255
-164.9336 411.96387 63.300156 -0.124835774 -0.30559117 -0.94394386 88 62 45 255
-181.36719 414.98486 64.49549 -0.124835774 -0.30559117 -0.94394386 88 62 45 255
-192.90625 500 35.598663 -0.47143406 -0.81875944 -0.32769337 88 62 45 255
-181.11914 500 18.642912 -0.47143406 -0.81875944 -0.32769337 88 62 45 255
-146.22461 487.1577 0.5278987 -0.47143406 -0.81875944 -0.32769337 88 62 45 255
-192.90625 500 35.598663 -0.47143406 -0.81875944 -0.32769337 88 62 45 255
-146.22461 487.1577 0.5278987 -0.47143406 -0.81875944 -0.32769337 88 62 45 255
-188.83203 490.04053 54.623272 -0.47143406 -0.81875944 -0.32769337 88 62 45 255
-188.83203 490.04053 54.623272 -0.154765 -0.018314395 -0.98778147 88 62 45 255
-160.08594 452.86914 50.80849 -0.15476501 -0.018314397 -0.98778147 88 62 45 255
-171.5332 447.3921 52.703617 -0.15476501 -0.018314395 -0.98778147 88 62 45 255
-98.45703 429.41553 -319.5423 -0.99068063 -0.11070581 -0.079349115 88 62 45 255
-122.28711 467.063 -74.52827 -0.9906805 -0.11070579 -0.079349115 88 62 45 255
-101.197266 456.1997 -322.68176 -0.99068063 -0.1107058 -0.079349115 88 62 45 255
-257.32812 439.19922 37.089165 0.69439363 0.7166521 -0.06501682 88 62 45 255
-246.90625 429.64404 43.075306 0.69439363 0.7166521 -0.06501682 88 62 45 255
-261.24414 439.89307 2.9252737 0.69439363 0.7166521 -0.06501682 88 62 45 255
-261.24414 439.89307 2.9252737 0.65301526 0.756281 -0.040125616 88 62 45 255
-246.90625 429.64404 43.075306 0.65301526 0.756281 -0.040125612 88 62 45 255
-264.13477 437.96582 -80.44511 0.65301526 0.756281 -0.040125612 88 62 45 255
-191.32617 396.8286 1.5618365 -0.46057016 0.66890657 -0.58347166 88 62 45 255
-211.18164 394.49805 14.562817 -0.46057016 0.66890657 -0.58347166 88 62 45 255
-218.30078 425.94482 56.234417 -0.4605701 0.6689066 -0.5834716 88 62 45 255
-218.30078 425.94482 56.234417 0.33349425 0.8904415 -0.30966994 88 62 45 255
-181.36719 414.98486 64.49549 0.33349425 0.8904415 -0.30966994 88 62 45 255
-191.32617 396.8286 1.5618365 0.33349428 0.8904415 -0.30966994 88 62 45 255
-191.32617 396.8286 1.5618365 0.53971565 0.78225714 -0.31109592 88 62 45 255
-181.36719 414.98486 64.49549 0.53971565 0.78225714 -0.31109592 88 62 45 255
-167.11719 400.7417 53.40212 0.5397157 0.7822572 -0.31109595 88 62 45 255
-129.06445 456.3042 22.976837 -0.996129 -0.0468146 -0.074400805 88 62 45 255
-122.28711 467.063 -74.52827 -0.9961289 -0.04681459 -0.0744008 88 62 45 255
-128.42383 444.43604 21.857698 -0.996129 -0.0468146 -0.0744008 88 62 45 255
-220.43164 500 19.564283 0.080713876 -0.9079587 0.41121304 88 62 45 255
-246.55273 500 24.69151 0.080713876 -0.9079587 0.41121304 88 62 45 255
-246.74023 499.98145 24.687317 0.080713876 -0.9079587 0.41121304 88 62 45 255
-220.43164 500 19.564283 0.080713876 -0.9079587 0.41121304 88 62 45 255
-246.74023 499.98145 24.687317 0.080713876 -0.9079587 0.41121304 88 62 45 255
-259.5703 492.14404 9.900473 0.080713876 -0.9079587 0.41121304 88 62 45 255
-259.5703 492.14404 9.900473 0.6431672 -0.748542 -0.16130954 88 62 45 255
-246.74023 499.98145 24.687317 0.64316726 -0.748542 -0.16130957 88 62 45 255
-250.83594 494.65527 33.071995 0.64316726 -0.74854195 -0.16130957 88 62 45 255
-133.34961 449.8828 32.30087 -0.558565 -0.35503325 -0.74963766 88 62 45 255
-160.08594 452.86914 50.80849 -0.55856496 -0.35503322 -0.7496376 88 62 45 255
-188.83203 490.04053 54.623272 -0.55856496 -0.35503328 -0.7496376 88 62 45 255
-214.00781 388.96582 -1.0097396 0.48484346 0.79267275 -0.36958987 88 62 45 255
-246.90625 429.64404 43.075306 0.48484343 0.79267275 -0.36958987 88 62 45 255
-211.18164 394.49805 14.562817 0.48484343 0.79267275 -0.36958987 88 62 45 255
-239.3457 479.2788 59.796165 0.37163317 -0.72661024 -0.5778636 88 62 45 255
-250.83594 494.65527 33.071995 0.37163314 -0.72661024 -0.5778636 88 62 45 255
-208.28711 496.28418 58.38736 0.37163317 -0.72661024 -0.5778636 88 62 45 255
-246.74023 499.98145 24.687317 0.10100771 -0.96987873 -0.22165877 88 62 45 255
-246.55273 500 24.69151 0.10100771 -0.96987873 -0.22165877 88 62 45 255
-202.6875 500 44.680298 0.10100771 -0.96987873 -0.22165877 88 62 45 255
-246.74023 499.98145 24.687317 0.10100771 -0.96987873 -0.22165877 88 62 45 255
-202.6875 500 44.680298 0.10100771 -0.96987873 -0.22165877 88 62 45 255
-208.28711 496.28418 58.38736 0.10100771 -0.96987873 -0.22165877 88 62 45 255
-188.83203 490.04053 54.623272 -0.6069751 -0.6598497 -0.4429217 88 62 45 255
-146.22461 487.1577 0.5278987 -0.60697514 -0.6598497 -0.4429217 88 62 45 255
-129.06445 456.3042 22.976837 -0.6069751 -0.6598497 -0.4429217 88 62 45 255
-129.06445 456.3042 22.976837 -0.8288997 -0.54682153 -0.117947206 88 62 45 255
-146.22461 487.1577 0.5278987 -0.8288997 -0.5468215 -0.117947206 88 62 45 255
-122.28711 467.063 -74.52827 -0.82889974 -0.5468215 -0.1179472 88 62 45 255
-222.46289 382.4331 -320.82883 0.51004016 0.85325456 -0.1087 88 62 45 255
-257.78516 403.71387 -319.52194 0.51004016 0.85325456 -0.1087 88 62 45 255
-264.13477 437.96582 -80.44511 0.51004016 0.85325456 -0.10869999 88 62 45 255
-261.80273 500 -125.730965 0.9894766 -0.107717924 -0.096606106 88 62 45 255
-264.13477 437.96582 -80.44511 0.9894766 -0.107717924 -0.096606106 88 62 45 255
-268.8047 500 -197.45114 0.9894766 -0.107717924 -0.096606106 88 62 45 255
-133.34961 449.8828 32.30087 -0.9062196 -0.009111326 -0.42270905 88 62 45 255
-129.06445 456.3042 22.976837 -0.9062196 -0.009111326 -0.42270905 88 62 45 255
-128.42383 444.43604 21.857698 -0.9062196 -0.009111325 -0.42270905 88 62 45 255
-171.5332 447.3921 52.703617 -0.40433443 0.6090006 -0.6823723 88 62 45 255
-160.08594 452.86914 50.80849 -0.4043344 0.6090006 -0.6823723 88 62 45 255
-133.34961 449.8828 32.30087 -0.4043344 0.6090006 -0.6823723 88 62 45 255
-122.28711 467.063 -74.52827 -0.84806544 -0.5276231 -0.048977476 88 62 45 255
-108.953125 468.82324 -324.39508 -0.84806544 -0.5276231 -0.048977476 88 62 45 255
-101.197266 456.1997 -322.68176 -0.8480655 -0.5276231 -0.048977476 88 62 45 255
-125.48828 485.13818 -323.37277 -0.7030367 -0.70988107 -0.042521685 88 62 45 255
-108.953125 468.82324 -324.39508 -0.7030368 -0.7098811 -0.04252169 88 62 45 255
-122.28711 467.063 -74.52827 -0.7030367 -0.7098811 -0.04252169 88 62 45 255
-191.32617 396.8286 1.5618365 -0.2871403 0.91786826 -0.27398598 88 62 45 255
-214.00781 388.96582 -1.0097396 -0.28714028 0.9178682 -0.27398592 88 62 45 255
-211.18164 394.49805 14.562817 -0.28714034 0.91786826 -0.27398598 88 62 45 255
-128.42383 444.43604 21.857698 -0.86197203 0.48454356 -0.14906962 88 62 45 255
-126.66211 402.90576 -123.32469 -0.861972 0.48454356 -0.14906964 88 62 45 255
-150.91406 410.3794 41.203842 -0.861972 0.4845436 -0.14906962 88 62 45 255
-171.5332 447.3921 52.703617 -0.0894578 0.031184658 -0.9955023 88 62 45 255
-218.30078 425.94482 56.234417 -0.0894578 0.031184657 -0.9955023 88 62 45 255
-239.3457 479.2788 59.796165 -0.089457795 0.031184658 -0.9955023 88 62 45 255
-171.5332 447.3921 52.703617 -0.076867536 0.05792747 -0.9953571 88 62 45 255
-239.3457 479.2788 59.796165 -0.076867536 0.05792748 -0.9953571 88 62 45 255
-208.28711 496.28418 58.38736 -0.07686755 0.05792748 -0.9953571 88 62 45 255
-214.00781 388.96582 -1.0097396 0.72005355 0.687149 -0.096690945 88 62 45 255
-233.88867 396.5874 -94.90512 0.72005355 0.687149 -0.096690945 88 62 45 255
-246.90625 429.64404 43.075306 0.72005355 0.687149 -0.096690945 88 62 45 255
-126.66211 402.90576 -123.32469 -0.12505563 0.99201286 -0.016481703 88 62 45 255
-191.32617 396.8286 1.5618365 -0.12505563 0.99201286 -0.016481705 88 62 45 255
-167.11719 400.7417 53.40212 -0.12505561 0.99201286 -0.016481701 88 62 45 255
-167.11719 400.7417 53.40212 -0.6856008 0.5520305 -0.4745669 88 62 45 255
-164.9336 411.96387 63.300156 -0.6856008 0.5520305 -0.4745669 88 62 45 255
-150.91406 410.3794 41.203842 -0.6856008 0.5520305 -0.4745669 88 62 45 255
-164.9336 411.96387 63.300156 -0.8116118 0.240916 -0.53220856 88 62 45 255
-133.34961 449.8828 32.30087 -0.8116117 0.240916 -0.5322085 88 62 45 255
-150.91406 410.3794 41.203842 -0.8116117 0.240916 -0.53220856 88 62 45 255
-261.4043 500 -113.80025 0.9975432 -0.06170699 -0.033162996 88 62 45 255
-261.24414 439.89307 2.9252737 0.9975432 -0.06170699 -0.033162996 88 62 45 255
-264.13477 437.96582 -80.44511 0.9975432 -0.06170699 -0.033162996 88 62 45 255
-261.4043 500 -113.80025 0.9975432 -0.06170699 -0.033162996 88 62 45 255
-264.13477 437.96582 -80.44511 0.9975432 -0.06170699 -0.033162996 88 62 45 255
-261.80273 500 -125.730965 0.9975432 -0.06170699 -0.033162996 88 62 45 255
-151.48828 500 -24.168182 -0.7952021 -0.6026388 -0.066933624 88 62 45 255
-148.57227 500 -58.79768 -0.7952021 -0.6026388 -0.066933624 88 62 45 255
-122.28711 467.063 -74.52827 -0.7952021 -0.6026388 -0.066933624 88 62 45 255
-261.4043 500 -113.80025 0.9994169 -0.029772036 -0.016720839 88 62 45 255
-260.39648 500 -53.487026 0.9994169 -0.029772036 -0.016720839 88 62 45 255
-259.5703 492.14404 9.900473 0.9994169 -0.029772036 -0.016720839 88 62 45 255
-261.4043 500 -113.80025 0.9994169 -0.029772036 -0.016720839 88 62 45 255
-259.5703 492.14404 9.900473 0.9994169 -0.029772036 -0.016720839 88 62 45 255
-261.24414 439.89307 2.9252737 0.9994169 -0.029772036 -0.016720839 88 62 45 255
-259.5703 492.14404 9.900473 0.93496555 0.017358512 -0.35431343 88 62 45 255
-250.83594 494.65527 33.071995 0.93496555 0.017358512 -0.3543134 88 62 45 255
-261.24414 439.89307 2.9252737 0.93496555 0.017358508 -0.35431343 88 62 45 255
-250.83594 494.65527 33.071995 0.9855742 -0.1237552 -0.11544805 88 62 45 255
-257.32812 439.19922 37.089165 0.9855741 -0.12375519 -0.11544804 88 62 45 255
-261.24414 439.89307 2.9252737 0.9855742 -0.1237552 -0.11544805 88 62 45 255
-150.91406 410.3794 41.203842 -0.5732955 0.81031764 -0.121316195 88 62 45 255
-126.66211 402.90576 -123.32469 -0.5732955 0.8103177 -0.12131619 88 62 45 255
-167.11719 400.7417 53.40212 -0.5732955 0.81031764 -0.12131618 88 62 45 255
-122.28711 467.063 -74.52827 -0.9802079 0.15777248 -0.11958345 88 62 45 255
-98.45703 429.41553 -319.5423 -0.9802079 0.15777248 -0.11958346 88 62 45 255
-126.66211 402.90576 -123.32469 -0.9802079 0.15777248 -0.11958345 88 62 45 255
-115.1543 400.9834 -317.489 -0.32716358 0.9445304 -0.028742464 88 62 45 255
-165.70703 383.4253 -319.0345 -0.32716364 0.9445304 -0.028742464 88 62 45 255
-126.66211 402.90576 -123.32469 -0.32716364 0.9445305 -0.028742464 88 62 45 255
-155.98438 500 -94.68519 -0.7358728 -0.65984344 0.15198007 88 62 45 255
-122.28711 467.063 -74.52827 -0.7358728 -0.65984344 0.15198007 88 62 45 255
-148.57227 500 -58.79768 -0.7358728 -0.65984344 0.15198007 88 62 45 255
-270.7793 500 -246.1552 0.99917865 -0.0011692885 -0.040503334 88 62 45 255
-268.8047 500 -197.45114 0.99917865 -0.0011692885 -0.040503334 88 62 45 255
-264.13477 437.96582 -80.44511 0.99917865 -0.0011692885 -0.040503334 88 62 45 255
-270.7793 500 -246.1552 0.99917865 -0.0011692885 -0.040503334 88 62 45 255
-264.13477 437.96582 -80.44511 0.99917865 -0.0011692885 -0.040503334 88 62 45 255
-273.77734 437.64502 -318.30652 0.99917865 -0.0011692885 -0.040503334 88 62 45 255
-133.34961 449.8828 32.30087 -0.4277646 -0.33124363 -0.84100837 88 62 45 255
-164.9336 411.96387 63.300156 -0.42776465 -0.3312436 -0.84100837 88 62 45 255
-171.5332 447.3921 52.703617 -0.42776465 -0.33124366 -0.84100837 88 62 45 255
-239.3457 479.2788 59.796165 0.9301604 0.068011925 -0.3607991 88 62 45 255
-239.9336 428.54834 48.714973 0.9301604 0.06801194 -0.36079913 88 62 45 255
-250.83594 494.65527 33.071995 0.9301604 0.06801194 -0.36079913 88 62 45 255
-211.18164 394.49805 14.562817 0.2846147 0.7879625 -0.54599416 88 62 45 255
-239.9336 428.54834 48.714973 0.28461474 0.7879625 -0.54599416 88 62 45 255
-218.30078 425.94482 56.234417 0.28461474 0.78796244 -0.54599416 88 62 45 255
-181.36719 414.98486 64.49549 0.0982012 -0.36645833 -0.92523766 88 62 45 255
-218.30078 425.94482 56.234417 0.0982012 -0.36645836 -0.92523766 88 62 45 255
-171.5332 447.3921 52.703617 0.09820121 -0.36645836 -0.92523766 88 62 45 255
-192.90625 500 35.598663 -0.34827822 -0.8590482 -0.3751512 88 62 45 255
-188.83203 490.04053 54.623272 -0.34827822 -0.8590482 -0.3751512 88 62 45 255
-208.28711 496.28418 58.38736 -0.34827822 -0.8590482 -0.3751512 88 62 45 255
-192.90625 500 35.598663 -0.34827822 -0.8590482 -0.3751512 88 62 45 255
-208.28711 496.28418 58.38736 -0.34827822 -0.8590482 -0.3751512 88 62 45 255
-202.6875 500 44.680298 -0.34827822 -0.8590482 -0.3751512 88 62 45 255
-239.9336 428.54834 48.714973 0.63372046 0.22813922 -0.73915553 88 62 45 255
-246.90625 429.64404 43.075306 0.63372046 0.22813922 -0.73915553 88 62 45 255
-257.32812 439.19922 37.089165 0.63372046 0.22813924 -0.73915553 88 62 45 255
-239.9336 428.54834 48.714973 0.49951363 -0.12062646 -0.85786676 88 62 45 255
-257.32812 439.19922 37.089165 0.49951363 -0.12062647 -0.8578668 88 62 45 255
-250.83594 494.65527 33.071995 0.4995136 -0.12062646 -0.85786676 88 62 45 255
-208.28711 496.28418 58.38736 0.27940762 -0.8663996 -0.41386378 88 62 45 255
-250.83594 494.65527 33.071995 0.27940762 -0.8663995 -0.41386378 88 62 45 255
-246.74023 499.98145 24.687317 0.27940762 -0.8663995 -0.41386378 88 62 45 255
-181.36719 414.98486 64.49549 0.06513588 0.65291446 -0.75462574 88 62 45 255
-164.9336 411.96387 63.300156 0.06513589 0.65291446 -0.75462574 88 62 45 255
-167.11719 400.7417 53.40212 0.065135896 0.65291446 -0.75462574 88 62 45 255
-264.13477 437.96582 -80.44511 0.9034391 0.4270994 -0.037199616 88 62 45 255
-257.78516 403.71387 -319.52194 0.90343916 0.42709944 -0.03719962 88 62 45 255
-273.77734 437.64502 -318.30652 0.9034391 0.42709944 -0.037199616 88 62 45 255
-188.83203 490.04053 54.623272 -0.60807073 -0.49522442 -0.62048584 88 62 45 255
-129.06445 456.3042 22.976837 -0.60807073 -0.49522445 -0.62048584 88 62 45 255
-133.34961 449.8828 32.30087 -0.60807073 -0.49522442 -0.62048584 88 62 45 255
-122.28711 467.063 -74.52827 -0.6847232 -0.7274717 -0.04403494 88 62 45 255
-155.98438 500 -94.68519 -0.6847232 -0.7274717 -0.04403494 88 62 45 255
-143.92188 500 -282.27032 -0.6847232 -0.7274717 -0.04403494 88 62 45 255
-122.28711 467.063 -74.52827 -0.6847232 -0.7274717 -0.04403494 88 62 45 255
-143.92188 500 -282.27032 -0.6847232 -0.7274717 -0.04403494 88 62 45 255
-125.48828 485.13818 -323.37277 -0.6847232 -0.7274717 -0.04403494 88 62 45 255
-208.28711 496.28418 58.38736 -0.20145747 -0.037659306 -0.97877306 88 62 45 255
-188.83203 490.04053 54.623272 -0.20145747 -0.037659306 -0.97877306 88 62 45 255
-171.5332 447.3921 52.703617 -0.20145747 -0.037659306 -0.97877306 88 62 45 255
-150.91406 410.3794 41.203842 -0.8197747 0.24817118 -0.51612073 88 62 45 255
-133.34961 449.8828 32.30087 -0.8197746 0.24817118 -0.51612073 88 62 45 255
-128.42383 444.43604 21.857698 -0.8197746 0.24817118 -0.51612073 88 62 45 255
-126.66211 402.90576 -123.32469 -0.86270356 0.50258785 -0.056107208 88 62 45 255
-98.45703 429.41553 -319.5423 -0.86270356 0.50258774 -0.056107204 88 62 45 255
-115.1543 400.9834 -317.489 -0.86270356 0.50258774 -0.056107204 88 62 45 255
-214.00781 388.96582 -1.0097396 -0.03526184 0.99547225 0.08827 88 62 45 255
-126.66211 402.90576 -123.32469 -0.03526184 0.99547225 0.08827 88 62 45 255
-233.88867 396.5874 -94.90512 -0.03526184 0.99547225 0.08827001 88 62 45 255
-260.39648 500 -53.487026 0.22435482 -0.9667468 -0.12274229 88 62 45 255
-220.43164 500 19.564283 0.22435482 -0.9667468 -0.12274229 88 62 45 255
-259.5703 492.14404 9.900473 0.22435482 -0.9667468 -0.12274229 88 62 45 255
-155.11523 500 2.0937772 -0.82331866 -0.5560765 -0.11368952 88 62 45 255
-151.48828 500 -24.168182 -0.82331866 -0.5560765 -0.11368952 88 62 45 255
-122.28711 467.063 -74.52827 -0.82331866 -0.5560765 -0.11368952 88 62 45 255
-155.11523 500 2.0937772 -0.82331866 -0.5560765 -0.11368952 88 62 45 255
-122.28711 467.063 -74.52827 -0.82331866 -0.5560765 -0.11368952 88 62 45 255
-146.22461 487.1577 0.5278987 -0.82331866 -0.5560765 -0.11368952 88 62 45 255
-246.90625 429.64404 43.075306 0.79354334 0.60447955 -0.06995224 88 62 45 255
-233.88867 396.5874 -94.90512 0.79354334 0.6044797 -0.06995224 88 62 45 255
-264.13477 437.96582 -80.44511 0.79354334 0.6044796 -0.069952235 88 62 45 255
-126.66211 402.90576 -123.32469 -0.080478474 0.9933101 -0.08281407 88 62 45 255
-165.70703 383.4253 -319.0345 -0.08047848 0.9933101 -0.082814075 88 62 45 255
-233.88867 396.5874 -94.90512 -0.080478474 0.9933101 -0.08281407 88 62 45 255
-500 432.0039 -35.713455 0.5101275 0.84318113 -0.16975127 88 62 45 255
-482.96875 424.5796 -21.410786 0.5101275 0.84318113 -0.16975127 88 62 45 255
-500 430.28027 -44.274506 0.5101275 0.84318113 -0.16975127 88 62 45 255
-500 433.51367 -28.399979 0.47818625 0.87715584 -0.04399454 88 62 45 255
-500 435.39893 9.188256 0.47818625 0.87715584 -0.04399454 88 62 45 255
-482.96875 424.5796 -21.410786 0.47818625 0.87715584 -0.04399454 88 62 45 255
-500 493.83203 75.08769 0.3821959 0.20938592 -0.9000466 88 62 45 255
-487.41992 489.94336 79.525 0.3821959 0.20938592 -0.9000466 88 62 45 255
-500 473.64355 70.391136 0.3821959 0.20938592 -0.9000466 88 62 45 255
-500 500 76.62261 0.1856366 -0.05099026 -0.9812946 88 62 45 255
-487.14062 500 79.05545 0.1856366 -0.05099026 -0.9812946 88 62 45 255
-487.41992 489.94336 79.525 0.1856366 -0.05099026 -0.9812946 88 62 45 255
-500 500 76.62261 0.1856366 -0.05099026 -0.9812946 88 62 45 255
-487.41992 489.94336 79.525 0.1856366 -0.05099026 -0.9812946 88 62 45 255
-500 499.6162 76.642555 0.1856366 -0.05099026 -0.9812946 88 62 45 255
-500 430.28027 -44.274506 0.6910066 0.6278697 -0.3581752 88 62 45 255
-482.96875 424.5796 -21.410786 0.6910066 0.6278697 -0.3581752 88 62 45 255
-500 420.1338 -62.062042 0.6910066 0.6278697 -0.3581752 88 62 45 255
-500 433.51367 -28.399979 0.51241106 0.84101063 -0.17359719 88 62 45 255
-482.96875 424.5796 -21.410786 0.51241106 0.84101063 -0.17359719 88 62 45 255
-500 432.0039 -35.713455 0.51241106 0.84101063 -0.17359719 88 62 45 255
-381.45117 473.7173 66.22579 -0.5965814 0.6927361 -0.40522507 88 62 45 255
-344.74805 480.34912 23.527912 -0.5965814 0.69273615 -0.4052251 88 62 45 255
-387.2754 446.8999 28.95346 -0.59658134 0.69273615 -0.4052251 88 62 45 255
-399.80078 485.79443 87.30592 -0.582908 0.37373695 -0.7214838 88 62 45 255
-391.0078 500 87.5612 -0.582908 0.37373695 -0.7214838 88 62 45 255
-376.60352 500 75.92297 -0.582908 0.37373695 -0.7214838 88 62 45 255
-399.80078 485.79443 87.30592 -0.582908 0.37373695 -0.7214838 88 62 45 255
-376.60352 500 75.92297 -0.582908 0.37373695 -0.7214838 88 62 45 255
-381.45117 473.7173 66.22579 -0.582908 0.37373695 -0.7214838 88 62 45 255
-407.98828 500 89.00412 -0.08446259 0.07013727 -0.99395514 88 62 45 255
-391.0078 500 87.5612 -0.08446259 0.07013727 -0.99395514 88 62 45 255
-399.80078 485.79443 87.30592 -0.08446259 0.07013727 -0.99395514 88 62 45 255
-450.36328 451.0337 73.70992 -0.29915583 0.6920963 -0.6568931 88 62 45 255
-399.80078 485.79443 87.30592 -0.29915586 0.69209623 -0.6568931 88 62 45 255
-381.45117 473.7173 66.22579 -0.29915586 0.6920963 -0.656893 88 62 45 255
-482.96875 424.5796 -21.410786 -0.20706025 0.97751874 -0.039788865 88 62 45 255
-439.57422 436.44775 44.340355 -0.20706025 0.97751874 -0.03978886 88 62 45 255
-387.2754 446.8999 28.95346 -0.20706026 0.97751874 -0.03978886 88 62 45 255
-487.41992 489.94336 79.525 0.095217586 0.17209145 -0.98046833 88 62 45 255
-460.07617 500 83.945595 0.095217586 0.17209145 -0.98046833 88 62 45 255
-407.98828 500 89.00412 0.095217586 0.17209145 -0.98046833 88 62 45 255
-487.41992 489.94336 79.525 0.095217586 0.17209145 -0.98046833 88 62 45 255
-407.98828 500 89.00412 0.095217586 0.17209145 -0.98046833 88 62 45 255
-399.80078 485.79443 87.30592 0.095217586 0.17209145 -0.98046833 88 62 45 255
-344.66797 500 25.602234 -0.9145234 0.04615141 -0.4018916 88 62 45 255
-344.74805 480.34912 23.527912 -0.9145234 0.04615141 -0.4018916 88 62 45 255
-354.32617 500 47.576965 -0.9145234 0.04615141 -0.4018916 88 62 45 255
-344.74805 480.34912 23.527912 -0.8488354 0.35991275 -0.3872224 88 62 45 255
-311.5293 428.95996 -97.058815 -0.8488354 0.3599127 -0.3872224 88 62 45 255
-353.35547 425.6714 -8.424858 -0.84883547 0.35991272 -0.38722238 88 62 45 255
-344.74805 480.34912 23.527912 -0.48304737 0.49722087 -0.7207195 88 62 45 255
-353.35547 425.6714 -8.424858 -0.48304737 0.49722087 -0.7207195 88 62 45 255
-387.2754 446.8999 28.95346 -0.48304737 0.49722087 -0.7207195 88 62 45 255
-207.39062 500 -268.05545 -0.8212265 -0.49253482 -0.288091 88 62 45 255
-190.30078 475.7539 -275.31778 -0.8212265 -0.49253482 -0.288091 88 62 45 255
-228.93945 500 -206.6302 -0.8212265 -0.49253482 -0.288091 88 62 45 255
-293.80078 500 -103.66446 -0.9178494 0.19702038 -0.34458005 88 62 45 255
-311.5293 428.95996 -97.058815 -0.9178494 0.19702038 -0.34458005 88 62 45 255
-324.45508 500 -22.005863 -0.9178494 0.19702038 -0.34458005 88 62 45 255
-381.45117 473.7173 66.22579 -0.7366582 0.34951165 -0.57894397 88 62 45 255
-376.60352 500 75.92297 -0.7366582 0.34951165 -0.57894397 88 62 45 255
-354.32617 500 47.576965 -0.7366582 0.34951165 -0.57894397 88 62 45 255
-381.45117 473.7173 66.22579 -0.7366582 0.34951165 -0.57894397 88 62 45 255
-354.32617 500 47.576965 -0.7366582 0.34951165 -0.57894397 88 62 45 255
-344.74805 480.34912 23.527912 -0.7366582 0.34951165 -0.57894397 88 62 45 255
-344.66797 500 25.602234 -0.88962686 0.05152635 -0.45377207 88 62 45 255
-334.2246 500 5.1279616 -0.88962686 0.05152635 -0.45377207 88 62 45 255
-344.74805 480.34912 23.527912 -0.88962686 0.05152635 -0.45377207 88 62 45 255
-152.91602 500 -277.53867 0.23668669 0.5000009 -0.8330537 88 62 45 255
-151.11133 494.95752 -280.05228 0.23668669 0.5000009 -0.8330537 88 62 45 255
-161.83203 500 -280.07178 0.23668669 0.5000009 -0.8330537 88 62 45 255
-44.16992 500 -229.26468 0.338098 0.6641464 -0.6667828 88 62 45 255
-21.076172 500 -217.55492 0.338098 0.6641464 -0.6667828 88 62 45 255
-62.839844 458.9077 -279.66153 0.338098 0.6641464 -0.6667828 88 62 45 255
30.21289 425.1416 -279.07135 0.23658572 0.7047794 -0.6688148 88 62 45 255
189.01953 500 -144.01144 0.23658572 0.7047794 -0.6688148 88 62 45 255
220.61914 500 -132.83353 0.23658572 0.7047794 -0.6688148 88 62 45 255
30.21289 425.1416 -279.07135 0.23658572 0.7047794 -0.6688148 88 62 45 255
220.61914 500 -132.83353 0.23658572 0.7047794 -0.6688148 88 62 45 255
125.82617 393.75293 -278.32587 0.23658572 0.7047794 -0.6688148 88 62 45 255
-62.839844 458.9077 -279.66153 0.26599023 0.72184706 -0.6388944 88 62 45 255
4.1015625 500 -205.36441 0.26599023 0.72184706 -0.6388944 88 62 45 255
91.11719 500 -169.13715 0.26599023 0.72184706 -0.6388944 88 62 45 255
-62.839844 458.9077 -279.66153 0.26599023 0.72184706 -0.6388944 88 62 45 255
91.11719 500 -169.13715 0.26599023 0.72184706 -0.6388944 88 62 45 255
30.21289 425.1416 -279.07135 0.26599023 0.72184706 -0.6388944 88 62 45 255
500 500 -270.31293 -0.22020069 0.81581545 -0.5347493 88 62 45 255
500 496.40234 -275.80148 -0.22020069 0.81581545 -0.5347493 88 62 45 255
125.82617 393.75293 -278.32587 -0.22020069 0.81581545 -0.5347493 88 62 45 255
500 500 -270.31293 -0.22020069 0.81581545 -0.5347493 88 62 45 255
125.82617 393.75293 -278.32587 -0.22020069 0.81581545 -0.5347493 88 62 45 255
281.9121 500 -180.50917 -0.22020069 0.81581545 -0.5347493 88 62 45 255
258.03906 500 -151.2803 -0.23197867 0.85133344 -0.47055 88 62 45 255
125.82617 393.75293 -278.32587 -0.23197867 0.85133344 -0.47055 88 62 45 255
220.61914 500 -132.83353 -0.23197867 0.85133344 -0.47055 88 62 45 255
-103.171875 500 -265.41925 0.40633258 0.6286357 -0.6631071 88 62 45 255
-44.16992 500 -229.26468 0.40633258 0.6286357 -0.6631071 88 62 45 255
-62.839844 458.9077 -279.66153 0.40633258 0.6286357 -0.6631071 88 62 45 255
-103.171875 500 -265.41925 0.20572427 0.49458683 -0.8444297 88 62 45 255
-62.839844 458.9077 -279.66153 0.20572427 0.49458683 -0.8444297 88 62 45 255
-151.11133 494.95752 -280.05228 0.20572427 0.49458683 -0.8444297 88 62 45 255
-103.171875 500 -265.41925 0.20572427 0.49458683 -0.8444297 88 62 45 255
-151.11133 494.95752 -280.05228 0.20572427 0.49458683 -0.8444297 88 62 45 255
-152.91602 500 -277.53867 0.20572427 0.49458683 -0.8444297 88 62 45 255
-21.076172 500 -217.55492 0.32112986 0.6760202 -0.6632287 88 62 45 255
4.1015625 500 -205.36441 0.32112986 0.6760202 -0.6632287 88 62 45 255
-62.839844 458.9077 -279.66153 0.32112986 0.6760202 -0.6632287 88 62 45 255
281.9121 500 -180.50917 -0.3892322 0.864531 -0.3179379 88 62 45 255
125.82617 393.75293 -278.32587 -0.3892322 0.864531 -0.3179379 88 62 45 255
258.03906 500 -151.2803 -0.3892322 0.864531 -0.3179379 88 62 45 255
189.01953 500 -144.01144 0.15756854 0.7734473 -0.61396366 88 62 45 255
30.21289 425.1416 -279.07135 0.15756854 0.7734473 -0.61396366 88 62 45 255
91.11719 500 -169.13715 0.15756854 0.7734473 -0.61396366 88 62 45 255
3 0 1 2
3 3 4 5
3 6 7 8
3 9 10 11
3 12 13 14
3 15 16 17
3 18 19 20
3 21 22 23
3 24 25 26
3 27 28 29
3 30 31 32
3 33 34 35
3 36 37 38
3 39 40 41
3 42 43 44
3 45 46 47
3 48 49 50
3 51 52 53
3 54 55 56
3 57 58 59
3 60 61 62
3 63 64 65
3 66 67 68
3 69 70 71
3 72 73 74
3 75 76 77
3 78 79 80
3 81 82 83
3 84 85 86
3 87 88 89
3 90 91 92
3 93 94 95
3 96 97 98
3 99 100 101
3 102 103 104
3 105 106 107
3 108 109 110
3 111 112 113
3 114 115 116
3 117 118 119
3 120 121 122
3 123 124 125
3 126 127 128
3 129 130 131
3 132 133 134
3 135 136 137
3 138 139 140
3 141 142 143
3 144 145 146
3 147 148 149
3 150 151 152
3 153 154 155
3 156 157 158
3 159 160 161
3 162 163 164
3 165 166 167
3 168 169 170
3 171 172 173
3 174 175 176
3 177 178 179
3 180 181 182
3 183 184 185
3 186 187 188
3 189 190 191
3 192 193 194
3 195 196 197
3 198 199 200
3 201 202 203
3 204 205 206
3 207 208 209
3 210 211 212
3 213 214 215
3 216 217 218
3 219 220 221
3 222 223 224
3 225 226 227
3 228 229 230
3 231 232 233
3 234 235 236
3 237 238 239
3 240 241 242
3 243 244 245
3 246 247 248
3 249 250 251
3 252 253 254
3 255 256 257
3 258 259 260
3 261 262 263
3 264 265 266
3 267 268 269
3 270 271 272
3 273 274 275
3 276 277 278
3 279 280 281
3 282 283 284
3 285 286 287
3 288 289 290
3 291 292 293
3 294 295 296
3 297 298 299
3 300 301 302
3 303 304 305
3 306 307 308
3 309 310 311
3 312 313 314
3 315 316 317
3 318 319 320
3 321 322 323
3 324 325 326
3 327 328 329
3 330 331 332
3 333 334 335
3 336 337 338
3 339 340 341
3 342 343 344
3 345 346 347
3 348 349 350
3 351 352 353
3 354 355 356
3 357 358 359
3 360 361 362
3 363 364 365
3 366 367 368
3 369 370 371
3 372 373 374
3 375 376 377
3 378 379 380
3 381 382 383
3 384 385 386
3 387 388 389
3 390 391 392
3 393 394 395
3 396 397 398
3 399 400 401
3 402 403 404
3 405 406 407
3 408 409 410
3 411 412 413
3 414 415 416
3 417 418 419
3 420 421 422
3 423 424 425
3 426 427 428
3 429 430 431
3 432 433 434
3 435 436 437
3 438 439 440
3 441 442 443
3 444 445 446
3 447 448 449
3 450 451 452
3 453 454 455
3 456 457 458
3 459 460 461
3 462 463 464
3 465 466 467
3 468 469 470
3 471 472 473
3 474 475 476

