ply
format ascii 1.0
commentY29udmVydGVyIGJ5IENvZGVMZW9wYXJk
comment Original mesh name: 'C:\Program Files (x86)\Steam\steamapps\common\Stormworks\rom\meshes\arid_mainland\arid_island_2_6.mesh'
comment SubMesh index: 0
comment SubMesh name: ''
comment Shader: Opaque (0)
element vertex 21
property float x
property float y
property float z
property float nx
property float ny
property float nz
property uchar red
property uchar green
property uchar blue
property uchar alpha
element face 7
property list uchar ushort vertex_index
end_header
-378.66553 500 -389.6085 -0.37197617 0.89905256 -0.2309507 88 62 45 255
-386.94556 491.98804 -407.4618 -0.37197617 0.89905256 -0.2309507 88 62 45 255
-384.65698 500 -379.95865 -0.37197617 0.89905256 -0.2309507 88 62 45 255
-426.43433 484.87256 -406.78873 -0.17570837 0.9510832 -0.2541011 88 62 45 255
-432.0039 500 -346.31653 -0.17570837 0.9510832 -0.2541011 88 62 45 255
-394.24878 500 -372.42355 -0.17570837 0.9510832 -0.2541011 88 62 45 255
-426.43433 484.87256 -406.78873 -0.17570837 0.9510832 -0.2541011 88 62 45 255
-394.24878 500 -372.42355 -0.17570837 0.9510832 -0.2541011 88 62 45 255
-386.94556 491.98804 -407.4618 -0.17570837 0.9510832 -0.2541011 88 62 45 255
-447.80835 500 -405.13837 0.5632344 0.81232125 -0.15133145 88 62 45 255
-432.0039 500 -346.31653 0.5632344 0.81232125 -0.15133145 88 62 45 255
-426.43433 484.87256 -406.78873 0.5632344 0.81232125 -0.15133145 88 62 45 255
-388.26123 500 -378.05673 -0.1404336 0.9536542 -0.26612386 88 62 45 255
-384.65698 500 -379.95865 -0.1404336 0.9536542 -0.26612386 88 62 45 255
-386.94556 491.98804 -407.4618 -0.1404336 0.9536542 -0.26612386 88 62 45 255
-378.66553 500 -389.6085 -0.55986613 0.8213878 -0.10895856 88 62 45 255
-375.19702 500 -407.43167 -0.55986613 0.8213878 -0.10895856 88 62 45 255
-386.94556 491.98804 -407.4618 -0.55986613 0.8213878 -0.10895856 88 62 45 255
-388.26123 500 -378.05673 -0.24927326 0.93148416 -0.26495302 88 62 45 255
-386.94556 491.98804 -407.4618 -0.24927326 0.93148416 -0.26495302 88 62 45 255
-394.24878 500 -372.42355 -0.24927326 0.93148416 -0.26495302 88 62 45 255
3 0 1 2
3 3 4 5
3 6 7 8
3 9 10 11
3 12 13 14
3 15 16 17
3 18 19 20

