ply
format ascii 1.0
commentY29udmVydGVyIGJ5IENvZGVMZW9wYXJk
comment Original mesh name: 'C:\Program Files (x86)\Steam\steamapps\common\Stormworks\rom\meshes\arid_mainland\arid_island_21_3.mesh'
comment SubMesh index: 0
comment SubMesh name: ''
comment Shader: Opaque (0)
element vertex 474
property float x
property float y
property float z
property float nx
property float ny
property float nz
property uchar red
property uchar green
property uchar blue
property uchar alpha
element face 158
property list uchar ushort vertex_index
end_header
373.5996 500 -254.8654 0.98303527 -0.054451726 -0.1751479 88 62 45 255
370.17383 492.7627 -271.83975 0.98303527 -0.054451726 -0.1751479 88 62 45 255
370.5586 500 -271.9317 0.98303527 -0.054451726 -0.1751479 88 62 45 255
433.61133 468.33936 -55.644203 0.7793119 0.58655316 -0.22051825 88 62 45 255
414.97656 500 -37.285744 0.7793119 0.58655316 -0.22051825 88 62 45 255
415.41992 500 -35.71857 0.7793119 0.58655316 -0.22051825 88 62 45 255
433.61133 468.33936 -55.644203 0.7793119 0.58655316 -0.22051825 88 62 45 255
415.41992 500 -35.71857 0.7793119 0.58655316 -0.22051825 88 62 45 255
462.41992 461.53467 28.070185 0.7793119 0.58655316 -0.22051825 88 62 45 255
450.90234 500 55.67373 0.71750313 0.5499408 -0.4274978 88 62 45 255
487.10156 456.93115 61.026123 0.71750313 0.5499408 -0.4274978 88 62 45 255
437.0996 500 32.506607 0.71750313 0.5499408 -0.4274978 88 62 45 255
500 435.39893 9.188256 0.13592166 0.9554028 -0.26216564 88 62 45 255
493.08398 439.79248 21.613853 0.13592166 0.9554028 -0.26216564 88 62 45 255
500 439.44922 23.94787 0.13592166 0.9554028 -0.26216564 88 62 45 255
500 439.44922 23.94787 0.024253454 0.99690074 0.074837334 88 62 45 255
493.08398 439.79248 21.613853 0.024253454 0.99690074 0.074837334 88 62 45 255
500 438.58398 35.468945 0.024253454 0.99690074 0.074837334 88 62 45 255
500 445.7754 58.43597 0.21805182 0.45284826 -0.8645125 88 62 45 255
487.10156 456.93115 61.026123 0.21805182 0.45284826 -0.8645125 88 62 45 255
500 455.71484 63.64227 0.21805182 0.45284826 -0.8645125 88 62 45 255
500 455.71484 63.64227 0.21769714 0.3438466 -0.9134427 88 62 45 255
487.10156 456.93115 61.026123 0.21769714 0.3438466 -0.9134427 88 62 45 255
500 473.64355 70.391136 0.21769714 0.3438466 -0.9134427 88 62 45 255
500 493.83203 75.08769 0.3879208 0.23926087 -0.8900964 88 62 45 255
480.04688 500 68.049416 0.3879208 0.23926087 -0.8900964 88 62 45 255
499.5 500 76.52819 0.3879208 0.23926087 -0.8900964 88 62 45 255
500 493.83203 75.08769 0.3879208 0.23926087 -0.8900964 88 62 45 255
499.5 500 76.52819 0.3879208 0.23926087 -0.8900964 88 62 45 255
500 499.6162 76.642555 0.3879208 0.23926087 -0.8900964 88 62 45 255
500 412.78467 -97.96983 0.21750529 0.9562375 -0.19570711 88 62 45 255
482.23047 415.49512 -104.47547 0.21750529 0.9562375 -0.19570711 88 62 45 255
500 420.1338 -62.062042 0.21750529 0.9562375 -0.19570711 88 62 45 255
370.17383 492.7627 -271.83975 0.81210613 0.5460173 -0.20578788 88 62 45 255
430.6504 453.49414 -137.37337 0.8121062 0.5460173 -0.2057879 88 62 45 255
417.5664 441.2378 -221.52744 0.8121062 0.5460173 -0.2057879 88 62 45 255
500 401.9795 -167.14868 0.20289104 0.9674718 -0.15110779 88 62 45 255
495.40625 401.27197 -177.84833 0.20289104 0.9674718 -0.15110779 88 62 45 255
482.23047 415.49512 -104.47547 0.20289104 0.9674718 -0.15110779 88 62 45 255
500 401.9795 -167.14868 0.20289104 0.9674718 -0.15110779 88 62 45 255
482.23047 415.49512 -104.47547 0.20289104 0.9674718 -0.15110779 88 62 45 255
500 412.78467 -97.96983 0.20289104 0.9674718 -0.15110779 88 62 45 255
413.79688 500 -139.67076 0.9386193 0.3363714 -0.076473154 88 62 45 255
415.8125 500 -114.93128 0.9386193 0.3363714 -0.076473154 88 62 45 255
431.17188 462.0078 -93.5146 0.9386193 0.3363714 -0.076473154 88 62 45 255
413.79688 500 -139.67076 0.9386193 0.3363714 -0.076473154 88 62 45 255
431.17188 462.0078 -93.5146 0.9386193 0.3363714 -0.076473154 88 62 45 255
430.6504 453.49414 -137.37337 0.9386193 0.3363714 -0.076473154 88 62 45 255
472.04297 391.9546 -271.70264 0.47843373 0.8541259 -0.20388712 88 62 45 255
414.70703 424.13477 -271.4348 0.47843376 0.854126 -0.20388713 88 62 45 255
495.40625 401.27197 -177.84833 0.47843373 0.8541259 -0.20388713 88 62 45 255
500 400.73633 -185.61221 -0.13794735 0.97913957 -0.14918534 88 62 45 255
500 394.60986 -225.82065 -0.13794735 0.97913957 -0.14918534 88 62 45 255
495.40625 401.27197 -177.84833 -0.13794735 0.97913957 -0.14918534 88 62 45 255
415.8125 500 -114.93128 0.9417011 0.31669897 -0.11358148 88 62 45 255
418.82617 500 -89.940544 0.9417011 0.31669897 -0.11358148 88 62 45 255
433.61133 468.33936 -55.644203 0.9417011 0.31669897 -0.11358148 88 62 45 255
415.8125 500 -114.93128 0.9417011 0.31669897 -0.11358148 88 62 45 255
433.61133 468.33936 -55.644203 0.9417011 0.31669897 -0.11358148 88 62 45 255
431.17188 462.0078 -93.5146 0.9417011 0.31669897 -0.11358148 88 62 45 255
462.41992 461.53467 28.070185 0.53897613 0.8188046 -0.19764532 88 62 45 255
500 442.1411 50.205906 0.53897613 0.8188046 -0.19764532 88 62 45 255
500 438.58398 35.468945 0.53897613 0.8188046 -0.19764532 88 62 45 255
462.41992 461.53467 28.070185 0.53897613 0.8188046 -0.19764532 88 62 45 255
500 438.58398 35.468945 0.53897613 0.8188046 -0.19764532 88 62 45 255
493.08398 439.79248 21.613853 0.53897613 0.8188046 -0.19764532 88 62 45 255
500 442.1411 50.205906 0.5789403 0.74587756 -0.3293855 88 62 45 255
462.41992 461.53467 28.070185 0.5789403 0.74587756 -0.3293855 88 62 45 255
487.10156 456.93115 61.026123 0.5789403 0.74587756 -0.3293855 88 62 45 255
500 442.1411 50.205906 0.5789403 0.74587756 -0.3293855 88 62 45 255
487.10156 456.93115 61.026123 0.5789403 0.74587756 -0.3293855 88 62 45 255
500 445.7754 58.43597 0.5789403 0.74587756 -0.3293855 88 62 45 255
482.23047 415.49512 -104.47547 0.7248418 0.6379145 -0.26013362 88 62 45 255
414.70703 424.13477 -271.4348 0.72484183 0.6379144 -0.26013362 88 62 45 255
417.5664 441.2378 -221.52744 0.72484183 0.6379144 -0.26013365 88 62 45 255
495.40625 401.27197 -177.84833 0.38536933 0.9163694 -0.10843233 88 62 45 255
414.70703 424.13477 -271.4348 0.38536936 0.91636944 -0.108432345 88 62 45 255
482.23047 415.49512 -104.47547 0.3853694 0.9163694 -0.10843234 88 62 45 255
495.40625 401.27197 -177.84833 0.11322147 0.98554534 -0.12602071 88 62 45 255
500 394.60986 -225.82065 0.11322147 0.98554534 -0.12602071 88 62 45 255
500 388.6787 -272.20386 0.11322147 0.98554534 -0.12602071 88 62 45 255
495.40625 401.27197 -177.84833 0.11322147 0.98554534 -0.12602071 88 62 45 255
500 388.6787 -272.20386 0.11322147 0.98554534 -0.12602071 88 62 45 255
472.04297 391.9546 -271.70264 0.11322147 0.98554534 -0.12602071 88 62 45 255
500 400.73633 -185.61221 0.0027891274 0.99773586 -0.067196205 88 62 45 255
495.40625 401.27197 -177.84833 0.0027891274 0.99773586 -0.067196205 88 62 45 255
500 401.9795 -167.14868 0.0027891274 0.99773586 -0.067196205 88 62 45 255
414.97656 500 -37.285744 0.8758281 0.4783546 0.064047106 88 62 45 255
433.61133 468.33936 -55.644203 0.8758281 0.4783546 0.064047106 88 62 45 255
418.82617 500 -89.940544 0.8758281 0.4783546 0.064047106 88 62 45 255
434.47656 500 28.451113 0.785615 0.5730401 -0.23331113 88 62 45 255
462.41992 461.53467 28.070185 0.785615 0.5730401 -0.23331113 88 62 45 255
415.41992 500 -35.71857 0.785615 0.5730401 -0.23331113 88 62 45 255
430.6504 453.49414 -137.37337 0.6626359 0.71953094 -0.20781918 88 62 45 255
482.23047 415.49512 -104.47547 0.6626359 0.71953094 -0.2078192 88 62 45 255
417.5664 441.2378 -221.52744 0.6626359 0.71953094 -0.20781921 88 62 45 255
431.17188 462.0078 -93.5146 0.5101275 0.84318113 -0.16975127 88 62 45 255
500 432.0039 -35.713455 0.5101275 0.84318113 -0.16975127 88 62 45 255
500 430.28027 -44.274506 0.5101275 0.84318113 -0.16975127 88 62 45 255
431.17188 462.0078 -93.5146 0.5101275 0.84318113 -0.16975127 88 62 45 255
500 430.28027 -44.274506 0.5101275 0.84318113 -0.16975127 88 62 45 255
430.6504 453.49414 -137.37337 0.5101275 0.84318113 -0.16975127 88 62 45 255
500 433.51367 -28.399979 0.47818625 0.87715584 -0.04399454 88 62 45 255
433.61133 468.33936 -55.644203 0.47818625 0.87715584 -0.04399454 88 62 45 255
493.08398 439.79248 21.613853 0.47818625 0.87715584 -0.04399454 88 62 45 255
500 433.51367 -28.399979 0.47818625 0.87715584 -0.04399454 88 62 45 255
493.08398 439.79248 21.613853 0.47818625 0.87715584 -0.04399454 88 62 45 255
500 435.39893 9.188256 0.47818625 0.87715584 -0.04399454 88 62 45 255
383.55273 435.41064 -271.40497 0.80218387 0.18280746 -0.5684034 88 62 45 255
370.17383 492.7627 -271.83975 0.80218387 0.18280748 -0.5684034 88 62 45 255
417.5664 441.2378 -221.52744 0.8021838 0.18280746 -0.5684034 88 62 45 255
462.41992 461.53467 28.070185 0.55630535 0.8215731 -0.124667674 88 62 45 255
493.08398 439.79248 21.613853 0.55630535 0.8215731 -0.12466768 88 62 45 255
433.61133 468.33936 -55.644203 0.5563053 0.82157314 -0.124667674 88 62 45 255
437.0996 500 32.506607 0.7151772 0.52413726 -0.46238708 88 62 45 255
487.10156 456.93115 61.026123 0.7151772 0.52413726 -0.46238708 88 62 45 255
462.41992 461.53467 28.070185 0.7151772 0.52413726 -0.46238708 88 62 45 255
437.0996 500 32.506607 0.7151772 0.52413726 -0.46238708 88 62 45 255
462.41992 461.53467 28.070185 0.7151772 0.52413726 -0.46238708 88 62 45 255
434.47656 500 28.451113 0.7151772 0.52413726 -0.46238708 88 62 45 255
480.04688 500 68.049416 0.3821959 0.20938592 -0.9000466 88 62 45 255
500 493.83203 75.08769 0.3821959 0.20938592 -0.9000466 88 62 45 255
500 473.64355 70.391136 0.3821959 0.20938592 -0.9000466 88 62 45 255
480.04688 500 68.049416 0.3821959 0.20938592 -0.9000466 88 62 45 255
500 473.64355 70.391136 0.3821959 0.20938592 -0.9000466 88 62 45 255
487.10156 456.93115 61.026123 0.3821959 0.20938592 -0.9000466 88 62 45 255
480.04688 500 68.049416 0.3821959 0.20938592 -0.9000466 88 62 45 255
487.10156 456.93115 61.026123 0.3821959 0.20938592 -0.9000466 88 62 45 255
450.90234 500 55.67373 0.3821959 0.20938592 -0.9000466 88 62 45 255
370.17383 492.7627 -271.83975 0.8977013 0.30984598 -0.31325334 88 62 45 255
373.5996 500 -254.8654 0.8977013 0.30984598 -0.31325334 88 62 45 255
413.79688 500 -139.67076 0.8977013 0.30984598 -0.31325334 88 62 45 255
370.17383 492.7627 -271.83975 0.8977013 0.30984598 -0.31325334 88 62 45 255
413.79688 500 -139.67076 0.8977013 0.30984598 -0.31325334 88 62 45 255
430.6504 453.49414 -137.37337 0.8977013 0.30984598 -0.31325334 88 62 45 255
500 500 76.62261 0.1856366 -0.05099026 -0.9812946 88 62 45 255
500 499.6162 76.642555 0.1856366 -0.05099026 -0.9812946 88 62 45 255
499.5 500 76.52819 0.1856366 -0.05099026 -0.9812946 88 62 45 255
414.70703 424.13477 -271.4348 0.3217595 0.889882 -0.3233895 88 62 45 255
383.55273 435.41064 -271.40497 0.3217595 0.889882 -0.32338947 88 62 45 255
417.5664 441.2378 -221.52744 0.32175946 0.889882 -0.32338947 88 62 45 255
500 430.28027 -44.274506 0.6910066 0.6278697 -0.3581752 88 62 45 255
500 420.1338 -62.062042 0.6910066 0.6278697 -0.3581752 88 62 45 255
482.23047 415.49512 -104.47547 0.6910066 0.6278697 -0.3581752 88 62 45 255
500 430.28027 -44.274506 0.6910066 0.6278697 -0.3581752 88 62 45 255
482.23047 415.49512 -104.47547 0.6910066 0.6278697 -0.3581752 88 62 45 255
430.6504 453.49414 -137.37337 0.6910066 0.6278697 -0.3581752 88 62 45 255
500 433.51367 -28.399979 0.51241106 0.84101063 -0.17359719 88 62 45 255
500 432.0039 -35.713455 0.51241106 0.84101063 -0.17359719 88 62 45 255
431.17188 462.0078 -93.5146 0.51241106 0.84101063 -0.17359719 88 62 45 255
500 433.51367 -28.399979 0.51241106 0.84101063 -0.17359719 88 62 45 255
431.17188 462.0078 -93.5146 0.51241106 0.84101063 -0.17359719 88 62 45 255
433.61133 468.33936 -55.644203 0.51241106 0.84101063 -0.17359719 88 62 45 255
-367.47656 396.7827 -18.415201 -0.81959397 0.57283896 -0.011010789 88 62 45 255
-351.6328 419.79102 -0.8149249 -0.8195939 0.57283896 -0.011010789 88 62 45 255
-322.51172 460.8955 -29.996153 -0.81959397 0.57283896 -0.011010789 88 62 45 255
-328.9336 500 6.3984237 -0.63606775 -0.04696799 -0.7702024 88 62 45 255
-322.60156 500 1.1679006 -0.63606775 -0.04696799 -0.7702024 88 62 45 255
-322.39258 477.59912 2.3619452 -0.63606775 -0.04696799 -0.7702024 88 62 45 255
-412.44336 332.66992 -6.8342557 -0.788919 0.51101863 -0.34127226 88 62 45 255
-427.82227 316.9458 5.173706 -0.78891903 0.5110187 -0.3412723 88 62 45 255
-386.29102 383.6499 9.050098 -0.788919 0.51101863 -0.3412723 88 62 45 255
-322.51172 460.8955 -29.996153 -0.8635531 0.44934958 -0.22882508 88 62 45 255
-351.6328 419.79102 -0.8149249 -0.8635531 0.44934958 -0.22882505 88 62 45 255
-322.39258 477.59912 2.3619452 -0.86355317 0.4493496 -0.22882508 88 62 45 255
-322.39258 477.59912 2.3619452 -0.54777884 0.31955084 -0.77319187 88 62 45 255
-351.6328 419.79102 -0.8149249 -0.54777884 0.31955087 -0.7731918 88 62 45 255
-344.7246 459.2881 10.615197 -0.54777884 0.31955087 -0.7731918 88 62 45 255
-380.39258 500 16.901768 -0.10271553 -0.023212874 -0.99443996 88 62 45 255
-349.75195 500 13.736905 -0.10271553 -0.023212874 -0.99443996 88 62 45 255
-373.09375 442.15967 17.498022 -0.10271553 -0.023212874 -0.99443996 88 62 45 255
-328.9336 500 6.3984237 -0.3846254 0.053725667 -0.9215079 88 62 45 255
-322.39258 477.59912 2.3619452 -0.3846254 0.053725667 -0.9215079 88 62 45 255
-344.7246 459.2881 10.615197 -0.3846254 0.053725667 -0.9215079 88 62 45 255
-328.9336 500 6.3984237 -0.3846254 0.053725667 -0.9215079 88 62 45 255
-344.7246 459.2881 10.615197 -0.3846254 0.053725667 -0.9215079 88 62 45 255
-340.66016 500 11.292821 -0.3846254 0.053725667 -0.9215079 88 62 45 255
-500 237.82764 8.337154 -0.58320445 0.48474127 -0.6518423 88 62 45 255
-455.95898 289.41064 7.292759 -0.58320445 0.48474127 -0.6518423 88 62 45 255
-500 231.31494 3.4928887 -0.58320445 0.48474127 -0.6518423 88 62 45 255
-351.6328 419.79102 -0.8149249 -0.6826461 0.5124796 -0.5209213 88 62 45 255
-412.44336 332.66992 -6.8342557 -0.6826461 0.5124796 -0.5209213 88 62 45 255
-386.29102 383.6499 9.050098 -0.6826461 0.5124796 -0.5209213 88 62 45 255
-344.7246 459.2881 10.615197 -0.55225164 0.31942546 -0.7700555 88 62 45 255
-351.6328 419.79102 -0.8149249 -0.55225164 0.31942546 -0.7700555 88 62 45 255
-386.29102 383.6499 9.050098 -0.55225164 0.31942546 -0.7700555 88 62 45 255
-313.5371 494.07666 -18.371313 -0.93841976 0.30838227 -0.1557841 88 62 45 255
-322.51172 460.8955 -29.996153 -0.93841976 0.30838227 -0.15578407 88 62 45 255
-322.39258 477.59912 2.3619452 -0.93841976 0.3083823 -0.1557841 88 62 45 255
-322.60156 500 1.1679006 -0.9102046 -0.030478297 -0.41303584 88 62 45 255
-314.71875 500 -16.205154 -0.9102046 -0.030478297 -0.41303584 88 62 45 255
-313.5371 494.07666 -18.371313 -0.9102046 -0.030478297 -0.41303584 88 62 45 255
-322.60156 500 1.1679006 -0.9102046 -0.030478297 -0.41303584 88 62 45 255
-313.5371 494.07666 -18.371313 -0.9102046 -0.030478297 -0.41303584 88 62 45 255
-322.39258 477.59912 2.3619452 -0.9102046 -0.030478297 -0.41303584 88 62 45 255
-455.95898 289.41064 7.292759 -0.6985264 0.70386297 -0.12898742 88 62 45 255
-427.82227 316.9458 5.173706 -0.6985264 0.70386297 -0.12898742 88 62 45 255
-466.51172 271.1543 -35.184032 -0.6985264 0.703863 -0.12898743 88 62 45 255
-373.09375 442.15967 17.498022 -0.34869128 0.21052203 -0.91328794 88 62 45 255
-344.7246 459.2881 10.615197 -0.34869128 0.210522 -0.91328794 88 62 45 255
-386.29102 383.6499 9.050098 -0.3486913 0.21052206 -0.913288 88 62 45 255
-340.66016 500 11.292821 -0.25942257 0.041951165 -0.96485233 88 62 45 255
-344.7246 459.2881 10.615197 -0.25942257 0.041951165 -0.96485233 88 62 45 255
-373.09375 442.15967 17.498022 -0.25942257 0.041951165 -0.96485233 88 62 45 255
-340.66016 500 11.292821 -0.25942257 0.041951165 -0.96485233 88 62 45 255
-373.09375 442.15967 17.498022 -0.25942257 0.041951165 -0.96485233 88 62 45 255
-349.75195 500 13.736905 -0.25942257 0.041951165 -0.96485233 88 62 45 255
-427.82227 316.9458 5.173706 -0.7359715 0.67438054 -0.059638634 88 62 45 255
-454.9746 282.94775 -44.189995 -0.7359715 0.6743805 -0.05963863 88 62 45 255
-466.51172 271.1543 -35.184032 -0.73597157 0.6743805 -0.05963863 88 62 45 255
-500 232.12549 -66.79538 -0.698547 0.70384485 -0.12897447 88 62 45 255
-455.95898 289.41064 7.292759 -0.698547 0.70384485 -0.12897447 88 62 45 255
-466.51172 271.1543 -35.184032 -0.698547 0.70384485 -0.12897447 88 62 45 255
-500 232.12549 -66.79538 -0.698547 0.70384485 -0.12897447 88 62 45 255
-466.51172 271.1543 -35.184032 -0.698547 0.70384485 -0.12897447 88 62 45 255
-500 231.5166 -70.118095 -0.698547 0.70384485 -0.12897447 88 62 45 255
-412.44336 332.66992 -6.8342557 -0.8001233 0.5850671 0.13228473 88 62 45 255
-367.47656 396.7827 -18.415201 -0.8001232 0.5850671 0.13228472 88 62 45 255
-410.00977 347.06055 -55.770947 -0.8001233 0.5850671 0.13228476 88 62 45 255
-500 231.31494 3.4928887 -0.79710495 0.60380054 0.006965805 88 62 45 255
-455.95898 289.41064 7.292759 -0.79710495 0.60380054 0.006965805 88 62 45 255
-500 232.12549 -66.79538 -0.79710495 0.60380054 0.006965805 88 62 45 255
-318.56445 500 -42.167774 -0.95947397 -0.2433285 0.14212991 88 62 45 255
-313.5371 494.07666 -18.371313 -0.95947397 -0.2433285 0.14212991 88 62 45 255
-314.71875 500 -16.205154 -0.95947397 -0.2433285 0.14212991 88 62 45 255
-313.5371 494.07666 -18.371313 -0.9044716 0.09929413 0.41481537 88 62 45 255
-371.59375 440.41064 -132.11629 -0.9044716 0.09929413 0.41481534 88 62 45 255
-322.51172 460.8955 -29.996153 -0.9044716 0.09929412 0.41481534 88 62 45 255
-367.47656 396.7827 -18.415201 -0.8001232 0.5850671 0.13228472 88 62 45 255
-322.51172 460.8955 -29.996153 -0.8001233 0.5850671 0.13228472 88 62 45 255
-366.25977 403.97803 -42.883553 -0.8001232 0.5850671 0.13228472 88 62 45 255
-412.44336 332.66992 -6.8342557 -0.819594 0.5728389 -0.011010697 88 62 45 255
-351.6328 419.79102 -0.8149249 -0.819594 0.57283896 -0.011010698 88 62 45 255
-367.47656 396.7827 -18.415201 -0.81959397 0.57283896 -0.011010697 88 62 45 255
-371.59375 440.41064 -132.11629 -0.8968323 0.4423213 0.006618326 88 62 45 255
-343.16992 500 -262.81436 -0.8968323 0.4423213 0.006618326 88 62 45 255
-343.8828 500 -359.62 -0.8968323 0.4423213 0.006618326 88 62 45 255
-371.59375 440.41064 -132.11629 -0.8968323 0.4423213 0.006618326 88 62 45 255
-343.8828 500 -359.62 -0.8968323 0.4423213 0.006618326 88 62 45 255
-360.33594 466.6421 -359.62 -0.8968323 0.4423213 0.006618326 88 62 45 255
-412.44336 332.66992 -6.8342557 -0.7359979 0.6743546 -0.05960626 88 62 45 255
-454.9746 282.94775 -44.189995 -0.7359979 0.6743546 -0.05960626 88 62 45 255
-427.82227 316.9458 5.173706 -0.7359979 0.6743546 -0.05960626 88 62 45 255
-410.00977 347.06055 -55.770947 -0.79994243 0.5895893 0.111698575 88 62 45 255
-366.25977 403.97803 -42.883553 -0.79994243 0.58958924 0.11169858 88 62 45 255
-367.80273 407.66992 -73.409325 -0.7999424 0.58958924 0.11169857 88 62 45 255
-454.9746 282.94775 -44.189995 -0.8001376 0.58505297 0.13226086 88 62 45 255
-410.00977 347.06055 -55.770947 -0.8001375 0.58505297 0.13226086 88 62 45 255
-453.75977 290.14258 -68.65834 -0.8001375 0.58505297 0.13226086 88 62 45 255
-364.22656 500 -122.64448 -0.7733909 -0.005138533 0.6339086 88 62 45 255
-371.59375 440.41064 -132.11629 -0.7733909 -0.005138533 0.6339086 88 62 45 255
-350.75586 500 -106.209305 -0.7733909 -0.005138533 0.6339086 88 62 45 255
-500 262.28906 -221.94753 -0.8314785 0.5449718 0.10793185 88 62 45 255
-500 233.73145 -77.74336 -0.8314785 0.5449718 0.10793185 88 62 45 255
-371.59375 440.41064 -132.11629 -0.8314785 0.5449718 0.10793185 88 62 45 255
-360.33594 466.6421 -359.62 -0.81708544 0.5759313 0.025970178 88 62 45 255
-500 264.77734 -277.12 -0.81708544 0.5759313 0.025970178 88 62 45 255
-500 262.28906 -221.94753 -0.81708544 0.5759313 0.025970178 88 62 45 255
-360.33594 466.6421 -359.62 -0.81708544 0.5759313 0.025970178 88 62 45 255
-500 262.28906 -221.94753 -0.81708544 0.5759313 0.025970178 88 62 45 255
-371.59375 440.41064 -132.11629 -0.81708544 0.5759313 0.025970178 88 62 45 255
-500 265.4712 -359.62 -0.843356 0.53685004 -0.023293512 88 62 45 255
-500 267.99512 -301.45496 -0.843356 0.53685004 -0.023293512 88 62 45 255
-449.8496 344.2539 -359.62 -0.843356 0.53685004 -0.023293512 88 62 45 255
-331.58203 500 -83.550095 -0.76329905 -0.013879387 0.64589626 88 62 45 255
-350.75586 500 -106.209305 -0.76329905 -0.013879387 0.64589626 88 62 45 255
-371.59375 440.41064 -132.11629 -0.76329905 -0.013879387 0.64589626 88 62 45 255
-331.58203 500 -83.550095 -0.886917 0.36814803 0.27900746 88 62 45 255
-371.59375 440.41064 -132.11629 -0.886917 0.36814803 0.27900746 88 62 45 255
-313.5371 494.07666 -18.371313 -0.886917 0.36814803 0.27900746 88 62 45 255
-331.58203 500 -83.550095 -0.886917 0.36814803 0.27900746 88 62 45 255
-313.5371 494.07666 -18.371313 -0.886917 0.36814803 0.27900746 88 62 45 255
-318.56445 500 -42.167774 -0.886917 0.36814803 0.27900746 88 62 45 255
-412.44336 332.66992 -6.8342557 -0.80013365 0.58505386 0.13228029 88 62 45 255
-410.00977 347.06055 -55.770947 -0.8001337 0.5850538 0.13228029 88 62 45 255
-454.9746 282.94775 -44.189995 -0.8001337 0.58505386 0.13228029 88 62 45 255
-454.9746 282.94775 -44.189995 -0.7359767 0.67437345 -0.059654493 88 62 45 255
-500 231.32373 -72.296265 -0.7359767 0.67437345 -0.059654493 88 62 45 255
-500 231.5166 -70.118095 -0.7359767 0.67437345 -0.059654493 88 62 45 255
-454.9746 282.94775 -44.189995 -0.7359767 0.67437345 -0.059654493 88 62 45 255
-500 231.5166 -70.118095 -0.7359767 0.67437345 -0.059654493 88 62 45 255
-466.51172 271.1543 -35.184032 -0.7359767 0.67437345 -0.059654493 88 62 45 255
-364.22656 500 -122.64448 -0.9785454 0.14435415 -0.14700575 88 62 45 255
-343.16992 500 -262.81436 -0.9785454 0.14435415 -0.14700575 88 62 45 255
-371.59375 440.41064 -132.11629 -0.9785454 0.14435415 -0.14700575 88 62 45 255
-410.00977 347.06055 -55.770947 -0.7033642 0.60051304 0.3803456 88 62 45 255
-367.80273 407.66992 -73.409325 -0.7033642 0.60051304 0.3803456 88 62 45 255
-371.59375 440.41064 -132.11629 -0.7033642 0.60051304 0.3803456 88 62 45 255
-367.80273 407.66992 -73.409325 -0.8338065 0.45747706 0.3090008 88 62 45 255
-322.51172 460.8955 -29.996153 -0.8338065 0.45747703 0.30900076 88 62 45 255
-371.59375 440.41064 -132.11629 -0.8338065 0.45747706 0.30900076 88 62 45 255
-500 233.73145 -77.74336 -0.7510171 0.55902696 0.3513718 88 62 45 255
-500 231.91016 -74.84604 -0.7510171 0.55902696 0.3513718 88 62 45 255
-453.75977 290.14258 -68.65834 -0.7510171 0.55902696 0.3513718 88 62 45 255
-500 233.73145 -77.74336 -0.7510171 0.55902696 0.3513718 88 62 45 255
-453.75977 290.14258 -68.65834 -0.7510171 0.55902696 0.3513718 88 62 45 255
-371.59375 440.41064 -132.11629 -0.7510171 0.55902696 0.3513718 88 62 45 255
-366.25977 403.97803 -42.883553 -0.79994243 0.5895893 0.11169858 88 62 45 255
-322.51172 460.8955 -29.996153 -0.79994243 0.58958924 0.111698575 88 62 45 255
-367.80273 407.66992 -73.409325 -0.7999424 0.58958924 0.111698575 88 62 45 255
-367.47656 396.7827 -18.415201 -0.8001233 0.5850671 0.13228472 88 62 45 255
-366.25977 403.97803 -42.883553 -0.8001233 0.5850671 0.13228472 88 62 45 255
-410.00977 347.06055 -55.770947 -0.8001233 0.5850671 0.13228472 88 62 45 255
-453.75977 290.14258 -68.65834 -0.791887 0.54734516 0.270792 88 62 45 255
-410.00977 347.06055 -55.770947 -0.7918869 0.5473452 0.270792 88 62 45 255
-371.59375 440.41064 -132.11629 -0.7918869 0.5473452 0.270792 88 62 45 255
-500 231.32373 -72.296265 -0.78263664 0.60665053 0.13948105 88 62 45 255
-454.9746 282.94775 -44.189995 -0.78263664 0.60665053 0.13948105 88 62 45 255
-453.75977 290.14258 -68.65834 -0.78263664 0.60665053 0.13948105 88 62 45 255
-500 231.32373 -72.296265 -0.78263664 0.60665053 0.13948105 88 62 45 255
-453.75977 290.14258 -68.65834 -0.78263664 0.60665053 0.13948105 88 62 45 255
-500 231.91016 -74.84604 -0.78263664 0.60665053 0.13948105 88 62 45 255
-449.8496 344.2539 -359.62 -0.80470186 0.588556 0.07782497 88 62 45 255
-500 267.99512 -301.45496 -0.80470186 0.588556 0.07782497 88 62 45 255
-500 264.77734 -277.12 -0.80470186 0.588556 0.07782497 88 62 45 255
-449.8496 344.2539 -359.62 -0.80470186 0.588556 0.07782497 88 62 45 255
-500 264.77734 -277.12 -0.80470186 0.588556 0.07782497 88 62 45 255
-360.33594 466.6421 -359.62 -0.80470186 0.588556 0.07782497 88 62 45 255
-373.09375 442.15967 17.498022 0.06434858 -0.015981965 -0.9977995 190 145 98 255
-434.56445 351.5 14.985831 0.06434857 -0.015981965 -0.9977995 190 145 98 255
-412.03906 445.35938 14.935118 0.06434857 -0.015981965 -0.9977995 190 145 98 255
-389.55078 500 15.650379 0.07828653 -0.009568617 -0.996885 190 145 98 255
-373.09375 442.15967 17.498022 0.07828653 -0.009568617 -0.996885 190 145 98 255
-402.8164 500 14.60868 0.07828653 -0.009568617 -0.996885 190 145 98 255
-386.29102 383.6499 9.050098 -0.25991064 0.21650924 -0.94104743 190 145 98 255
-427.82227 316.9458 5.173706 -0.25991064 0.21650924 -0.9410474 190 145 98 255
-434.56445 351.5 14.985831 -0.25991064 0.21650922 -0.94104743 190 145 98 255
-500 267.43262 11.996604 -0.16492814 0.12099657 -0.97885567 190 145 98 255
-455.95898 289.41064 7.292759 -0.16492814 0.12099657 -0.97885567 190 145 98 255
-500 237.82764 8.337154 -0.16492814 0.12099657 -0.97885567 190 145 98 255
-386.29102 383.6499 9.050098 -0.24502824 0.19247028 -0.9502191 190 145 98 255
-434.56445 351.5 14.985831 -0.24502826 0.1924703 -0.9502191 190 145 98 255
-373.09375 442.15967 17.498022 -0.24502826 0.19247028 -0.9502191 190 145 98 255
-500 267.43262 11.996604 -0.19604674 0.18682657 -0.96263254 190 145 98 255
-500 279.43652 14.326312 -0.19604674 0.18682657 -0.96263254 190 145 98 255
-434.56445 351.5 14.985831 -0.19604674 0.18682657 -0.96263254 190 145 98 255
-500 267.43262 11.996604 -0.19604674 0.18682657 -0.96263254 190 145 98 255
-434.56445 351.5 14.985831 -0.19604674 0.18682657 -0.96263254 190 145 98 255
-455.95898 289.41064 7.292759 -0.19604674 0.18682657 -0.96263254 190 145 98 255
-434.56445 351.5 14.985831 -0.2778794 0.2118442 -0.9369659 190 145 98 255
-427.82227 316.9458 5.173706 -0.2778794 0.21184419 -0.9369659 190 145 98 255
-455.95898 289.41064 7.292759 -0.2778794 0.2118442 -0.9369659 190 145 98 255
-434.56445 351.5 14.985831 0.023188667 -0.011907247 -0.99966025 190 145 98 255
-500 279.43652 14.326312 0.023188667 -0.011907247 -0.99966025 190 145 98 255
-500 319.6831 13.846924 0.023188667 -0.011907247 -0.99966025 190 145 98 255
-434.56445 351.5 14.985831 0.023188667 -0.011907247 -0.99966025 190 145 98 255
-500 319.6831 13.846924 0.023188667 -0.011907247 -0.99966025 190 145 98 255
-484.5293 367.95996 13.630756 0.023188667 -0.011907247 -0.99966025 190 145 98 255
-453.96875 500 16.266676 -0.063623495 -0.004600051 -0.9979633 190 145 98 255
-456.54883 495.43848 16.452208 -0.063623495 -0.004600051 -0.9979633 190 145 98 255
-454.9414 500 16.32869 -0.063623495 -0.004600051 -0.9979633 190 145 98 255
-453.96875 500 16.266676 -0.09027344 0.010560723 -0.995861 190 145 98 255
-450.81055 500 15.9805155 -0.09027344 0.010560723 -0.995861 190 145 98 255
-456.54883 495.43848 16.452208 -0.09027344 0.010560723 -0.995861 190 145 98 255
-456.54883 495.43848 16.452208 -0.105342865 0.029707437 -0.9939921 190 145 98 255
-450.81055 500 15.9805155 -0.105342865 0.029707437 -0.9939921 190 145 98 255
-428.59375 500 13.625979 -0.105342865 0.029707437 -0.9939921 190 145 98 255
-456.54883 495.43848 16.452208 -0.105342865 0.029707437 -0.9939921 190 145 98 255
-428.59375 500 13.625979 -0.105342865 0.029707437 -0.9939921 190 145 98 255
-436.37305 472.5874 13.631056 -0.105342865 0.029707437 -0.9939921 190 145 98 255
-456.54883 495.43848 16.452208 -0.09704643 0.03710598 -0.9945879 190 145 98 255
-436.37305 472.5874 13.631056 -0.09704643 0.037105978 -0.9945879 190 145 98 255
-477.07227 441.97266 16.460037 -0.097046435 0.03710598 -0.9945879 190 145 98 255
-427.56445 468.11768 13.631112 0.059095226 -0.016878875 -0.99810964 190 145 98 255
-418.50977 500 13.628023 0.059095226 -0.016878875 -0.99810964 190 145 98 255
-412.68945 500 13.972602 0.059095226 -0.016878875 -0.99810964 190 145 98 255
-427.56445 468.11768 13.631112 0.059095226 -0.016878875 -0.99810964 190 145 98 255
-412.68945 500 13.972602 0.059095226 -0.016878875 -0.99810964 190 145 98 255
-412.03906 445.35938 14.935118 0.059095226 -0.016878875 -0.99810964 190 145 98 255
-434.56445 351.5 14.985831 0.028449493 -0.013318917 -0.9995065 190 145 98 255
-451.96094 416.32324 13.626839 0.028449493 -0.013318917 -0.9995065 190 145 98 255
-427.56445 468.11768 13.631112 0.028449494 -0.013318917 -0.9995065 190 145 98 255
-434.56445 351.5 14.985831 0.022166695 -0.015007943 -0.9996417 190 145 98 255
-484.5293 367.95996 13.630756 0.022166695 -0.015007944 -0.9996417 190 145 98 255
-451.96094 416.32324 13.626839 0.022166695 -0.015007943 -0.9996417 190 145 98 255
-500 319.6831 13.846924 0.010908192 -0.007972925 -0.9999087 190 145 98 255
-500 346.771 13.630936 0.010908192 -0.007972925 -0.9999087 190 145 98 255
-484.5293 367.95996 13.630756 0.010908192 -0.007972925 -0.9999087 190 145 98 255
-500 381.42236 16.349588 -0.3562786 -0.009270661 -0.93433374 190 145 98 255
-492.66602 373.58936 13.630778 -0.3562786 -0.009270661 -0.93433374 190 145 98 255
-500 373.76807 16.425577 -0.3562786 -0.009270661 -0.93433374 190 145 98 255
-454.9414 500 16.32869 -0.09090835 0.005073375 -0.9958464 190 145 98 255
-456.54883 495.43848 16.452208 -0.09090835 0.005073375 -0.9958464 190 145 98 255
-456.93945 500 16.51106 -0.09090835 0.005073375 -0.9958464 190 145 98 255
-500 500 19.52923 -0.0728837 -0.021661906 -0.9971052 190 145 98 255
-460.52344 500 16.643652 -0.0728837 -0.021661906 -0.9971052 190 145 98 255
-456.54883 495.43848 16.452208 -0.0728837 -0.021661906 -0.9971052 190 145 98 255
-500 500 19.52923 -0.0728837 -0.021661906 -0.9971052 190 145 98 255
-456.54883 495.43848 16.452208 -0.0728837 -0.021661906 -0.9971052 190 145 98 255
-500 492.5752 19.690536 -0.0728837 -0.021661906 -0.9971052 190 145 98 255
-460.52344 500 16.643652 -0.03696108 0.009731457 -0.99926925 190 145 98 255
-456.93945 500 16.51106 -0.03696108 0.009731457 -0.99926925 190 145 98 255
-456.54883 495.43848 16.452208 -0.03696108 0.009731457 -0.99926925 190 145 98 255
-456.54883 495.43848 16.452208 -0.18703873 0.07165204 -0.979736 190 145 98 255
-477.07227 441.97266 16.460037 -0.18703873 0.07165203 -0.9797359 190 145 98 255
-495.17578 445.39014 20.166157 -0.18703876 0.07165204 -0.979736 190 145 98 255
-402.8164 500 14.60868 0.06427981 -0.016811559 -0.9977903 190 145 98 255
-373.09375 442.15967 17.498022 0.06427981 -0.016811559 -0.9977903 190 145 98 255
-412.03906 445.35938 14.935118 0.06427981 -0.016811559 -0.9977903 190 145 98 255
-402.8164 500 14.60868 0.06427981 -0.016811559 -0.9977903 190 145 98 255
-412.03906 445.35938 14.935118 0.06427981 -0.016811559 -0.9977903 190 145 98 255
-412.68945 500 13.972602 0.06427981 -0.016811559 -0.9977903 190 145 98 255
-427.56445 468.11768 13.631112 0.06142785 -0.0152811315 -0.9979946 190 145 98 255
-412.03906 445.35938 14.935118 0.06142785 -0.015281131 -0.9979946 190 145 98 255
-434.56445 351.5 14.985831 0.06142785 -0.0152811315 -0.9979946 190 145 98 255
-380.39258 500 16.901768 0.13536602 0.006868149 -0.99077183 190 145 98 255
-373.09375 442.15967 17.498022 0.13536602 0.006868149 -0.99077183 190 145 98 255
-389.55078 500 15.650379 0.13536602 0.006868149 -0.99077183 190 145 98 255
-500 436.60547 20.824415 -0.119279645 -0.008888131 -0.9928209 190 145 98 255
-500 444.8838 20.750278 -0.119279645 -0.008888131 -0.9928209 190 145 98 255
-495.17578 445.39014 20.166157 -0.119279645 -0.008888131 -0.9928209 190 145 98 255
-500 366.79004 16.282349 -0.6561677 0.4809815 -0.58146423 190 145 98 255
-492.66602 373.58936 13.630778 -0.6561677 0.4809815 -0.58146423 190 145 98 255
-500 363.58447 13.630878 -0.6561677 0.4809815 -0.58146423 190 145 98 255
-500 373.76807 16.425577 -0.3556225 0.019172203 -0.934433 190 145 98 255
-492.66602 373.58936 13.630778 -0.3556225 0.019172203 -0.934433 190 145 98 255
-500 366.79004 16.282349 -0.3556225 0.019172203 -0.934433 190 145 98 255
-436.37305 472.5874 13.631056 -0.0010211829 0.00058349234 -0.9999993 190 145 98 255
-460.43555 421.64062 13.625902 -0.0010211829 0.00058349245 -0.9999993 190 145 98 255
-492.66602 373.58936 13.630778 -0.0010211829 0.0005834924 -0.9999993 190 145 98 255
-500 420.0703 20.262714 -0.25275517 0.09747044 -0.9626081 190 145 98 255
-477.07227 441.97266 16.460037 -0.25275517 0.09747044 -0.9626081 190 145 98 255
-492.66602 373.58936 13.630778 -0.25275517 0.09747044 -0.9626081 190 145 98 255
-500 420.0703 20.262714 -0.25275517 0.09747044 -0.9626081 190 145 98 255
-492.66602 373.58936 13.630778 -0.25275517 0.09747044 -0.9626081 190 145 98 255
-500 381.42236 16.349588 -0.25275517 0.09747044 -0.9626081 190 145 98 255
-500 463.19434 21.133694 -0.071024165 -0.048938192 -0.9962734 190 145 98 255
-500 492.5752 19.690536 -0.071024165 -0.048938192 -0.9962734 190 145 98 255
-456.54883 495.43848 16.452208 -0.071024165 -0.048938192 -0.9962734 190 145 98 255
-500 420.0703 20.262714 -0.19440535 0.033304673 -0.9803557 190 145 98 255
-500 436.60547 20.824415 -0.19440535 0.033304673 -0.9803557 190 145 98 255
-495.17578 445.39014 20.166157 -0.19440535 0.033304673 -0.9803557 190 145 98 255
-500 420.0703 20.262714 -0.19440535 0.033304673 -0.9803557 190 145 98 255
-495.17578 445.39014 20.166157 -0.19440535 0.033304673 -0.9803557 190 145 98 255
-477.07227 441.97266 16.460037 -0.19440535 0.033304673 -0.9803557 190 145 98 255
-492.66602 373.58936 13.630778 -0.12030324 0.06841208 -0.9903772 190 145 98 255
-477.07227 441.97266 16.460037 -0.120303236 0.06841208 -0.9903772 190 145 98 255
-436.37305 472.5874 13.631056 -0.12030323 0.06841208 -0.9903772 190 145 98 255
-500 463.19434 21.133694 -0.12232839 0.020778615 -0.99227214 190 145 98 255
-456.54883 495.43848 16.452208 -0.12232839 0.020778615 -0.99227214 190 145 98 255
-495.17578 445.39014 20.166157 -0.12232839 0.020778615 -0.99227214 190 145 98 255
-500 463.19434 21.133694 -0.12232839 0.020778615 -0.99227214 190 145 98 255
-495.17578 445.39014 20.166157 -0.12232839 0.020778615 -0.99227214 190 145 98 255
-500 444.8838 20.750278 -0.12232839 0.020778615 -0.99227214 190 145 98 255
-422.7207 500 13.6281805 0.00037475675 -0.0002915302 -0.9999999 41 31 29 255
-436.37305 472.5874 13.631056 0.00037475675 -0.0002915302 -0.9999999 41 31 29 255
-428.59375 500 13.625979 0.00037475675 -0.0002915302 -0.9999999 41 31 29 255
-422.7207 500 13.6281805 -3.740678E-05 -8.62545E-05 -1 41 31 29 255
-418.50977 500 13.628023 -3.740678E-05 -8.62545E-05 -1 41 31 29 255
-427.56445 468.11768 13.631112 -3.740678E-05 -8.62545E-05 -1 41 31 29 255
-422.7207 500 13.6281805 -3.740678E-05 -8.62545E-05 -1 41 31 29 255
-427.56445 468.11768 13.631112 -3.740678E-05 -8.62545E-05 -1 41 31 29 255
-436.37305 472.5874 13.631056 -3.740678E-05 -8.62545E-05 -1 41 31 29 255
-427.56445 468.11768 13.631112 4.653557E-05 7.918542E-05 -1 41 31 29 255
-460.43555 421.64062 13.625902 4.653557E-05 7.918542E-05 -1 41 31 29 255
-436.37305 472.5874 13.631056 4.653557E-05 7.918542E-05 -1 41 31 29 255
-500 352.77197 13.630936 -6.340697E-06 -5.3540707E-06 -1 41 31 29 255
-500 363.58447 13.630878 -6.340697E-06 -5.3540707E-06 -1 41 31 29 255
-492.66602 373.58936 13.630778 -6.340697E-06 -5.3540707E-06 -1 41 31 29 255
-500 352.77197 13.630936 -6.340697E-06 -5.3540707E-06 -1 41 31 29 255
-492.66602 373.58936 13.630778 -6.340697E-06 -5.3540707E-06 -1 41 31 29 255
-484.5293 367.95996 13.630756 -6.340697E-06 -5.3540707E-06 -1 41 31 29 255
-500 352.77197 13.630936 -1.1617989E-05 2.144833E-08 -1 41 31 29 255
-484.5293 367.95996 13.630756 -1.1617989E-05 2.144833E-08 -1 41 31 29 255
-500 346.771 13.630936 -1.1617989E-05 2.144833E-08 -1 41 31 29 255
-451.96094 416.32324 13.626839 4.1960637E-05 -0.00010927133 -1 41 31 29 255
-484.5293 367.95996 13.630756 4.1960637E-05 -0.000109271314 -1 41 31 29 255
-460.43555 421.64062 13.625902 4.1960637E-05 -0.00010927132 -1 41 31 29 255
-427.56445 468.11768 13.631112 0.00012527082 2.3497658E-05 -1 41 31 29 255
-451.96094 416.32324 13.626839 0.0001252708 2.3497658E-05 -1 41 31 29 255
-460.43555 421.64062 13.625902 0.00012527082 2.3497658E-05 -1 41 31 29 255
-484.5293 367.95996 13.630756 -4.9751787E-05 -6.810795E-05 -1 41 31 29 255
-492.66602 373.58936 13.630778 -4.975179E-05 -6.810795E-05 -1 41 31 29 255
-460.43555 421.64062 13.625902 -4.9751787E-05 -6.810795E-05 -1 41 31 29 255
3 0 1 2
3 3 4 5
3 6 7 8
3 9 10 11
3 12 13 14
3 15 16 17
3 18 19 20
3 21 22 23
3 24 25 26
3 27 28 29
3 30 31 32
3 33 34 35
3 36 37 38
3 39 40 41
3 42 43 44
3 45 46 47
3 48 49 50
3 51 52 53
3 54 55 56
3 57 58 59
3 60 61 62
3 63 64 65
3 66 67 68
3 69 70 71
3 72 73 74
3 75 76 77
3 78 79 80
3 81 82 83
3 84 85 86
3 87 88 89
3 90 91 92
3 93 94 95
3 96 97 98
3 99 100 101
3 102 103 104
3 105 106 107
3 108 109 110
3 111 112 113
3 114 115 116
3 117 118 119
3 120 121 122
3 123 124 125
3 126 127 128
3 129 130 131
3 132 133 134
3 135 136 137
3 138 139 140
3 141 142 143
3 144 145 146
3 147 148 149
3 150 151 152
3 153 154 155
3 156 157 158
3 159 160 161
3 162 163 164
3 165 166 167
3 168 169 170
3 171 172 173
3 174 175 176
3 177 178 179
3 180 181 182
3 183 184 185
3 186 187 188
3 189 190 191
3 192 193 194
3 195 196 197
3 198 199 200
3 201 202 203
3 204 205 206
3 207 208 209
3 210 211 212
3 213 214 215
3 216 217 218
3 219 220 221
3 222 223 224
3 225 226 227
3 228 229 230
3 231 232 233
3 234 235 236
3 237 238 239
3 240 241 242
3 243 244 245
3 246 247 248
3 249 250 251
3 252 253 254
3 255 256 257
3 258 259 260
3 261 262 263
3 264 265 266
3 267 268 269
3 270 271 272
3 273 274 275
3 276 277 278
3 279 280 281
3 282 283 284
3 285 286 287
3 288 289 290
3 291 292 293
3 294 295 296
3 297 298 299
3 300 301 302
3 303 304 305
3 306 307 308
3 309 310 311
3 312 313 314
3 315 316 317
3 318 319 320
3 321 322 323
3 324 325 326
3 327 328 329
3 330 331 332
3 333 334 335
3 336 337 338
3 339 340 341
3 342 343 344
3 345 346 347
3 348 349 350
3 351 352 353
3 354 355 356
3 357 358 359
3 360 361 362
3 363 364 365
3 366 367 368
3 369 370 371
3 372 373 374
3 375 376 377
3 378 379 380
3 381 382 383
3 384 385 386
3 387 388 389
3 390 391 392
3 393 394 395
3 396 397 398
3 399 400 401
3 402 403 404
3 405 406 407
3 408 409 410
3 411 412 413
3 414 415 416
3 417 418 419
3 420 421 422
3 423 424 425
3 426 427 428
3 429 430 431
3 432 433 434
3 435 436 437
3 438 439 440
3 441 442 443
3 444 445 446
3 447 448 449
3 450 451 452
3 453 454 455
3 456 457 458
3 459 460 461
3 462 463 464
3 465 466 467
3 468 469 470
3 471 472 473

