ply
format ascii 1.0
commentY29udmVydGVyIGJ5IENvZGVMZW9wYXJk
comment Original mesh name: 'C:\Program Files (x86)\Steam\steamapps\common\Stormworks\rom\meshes\arid_mainland\arid_island_13_15.mesh'
comment SubMesh index: 0
comment SubMesh name: ''
comment Shader: Opaque (0)
element vertex 111
property float x
property float y
property float z
property float nx
property float ny
property float nz
property uchar red
property uchar green
property uchar blue
property uchar alpha
element face 37
property list uchar ushort vertex_index
end_header
442.86426 -390.646 -134.38728 0.7425137 -0.45058098 -0.4956311 88 62 45 255
362.02637 -451.35254 -200.30305 0.7425137 -0.45058095 -0.4956311 88 62 45 255
397.2744 -364.49414 -226.46083 0.7425137 -0.45058098 -0.4956311 88 62 45 255
350.11133 -409.67822 -305.91205 0.8622429 -0.4303444 -0.26709732 88 62 45 255
397.2744 -364.49414 -226.46083 0.8622428 -0.43034437 -0.26709732 88 62 45 255
362.02637 -451.35254 -200.30305 0.8622429 -0.4303444 -0.26709732 88 62 45 255
397.2744 -364.49414 -226.46083 0.84065557 -0.49629146 -0.21677858 88 62 45 255
350.11133 -409.67822 -305.91205 0.8406556 -0.49629146 -0.21677855 88 62 45 255
396.90527 -330.41504 -305.91205 0.84065557 -0.49629143 -0.21677855 88 62 45 255
451.01465 -339.65283 -199.71236 0.4991335 -0.83656424 -0.22588941 88 62 45 255
397.2744 -364.49414 -226.46083 0.49913347 -0.83656424 -0.22588941 88 62 45 255
477.93164 -307.45215 -259.48752 0.4991335 -0.83656424 -0.22588943 88 62 45 255
397.2744 -364.49414 -226.46083 0.43796396 -0.82545894 -0.35609692 88 62 45 255
396.90527 -330.41504 -305.91205 0.437964 -0.82545894 -0.35609695 88 62 45 255
477.93164 -307.45215 -259.48752 0.437964 -0.82545894 -0.35609695 88 62 45 255
500 -298.68848 -270.44626 0.3042563 -0.94213897 -0.14072074 88 62 45 255
500 -300.4961 -258.34402 0.3042563 -0.94213897 -0.14072074 88 62 45 255
477.93164 -307.45215 -259.48752 0.3042563 -0.94213897 -0.14072074 88 62 45 255
459.43652 -460.47168 -83.92962 0.7465925 -0.18393366 -0.63934964 88 62 45 255
413.5 -500 -126.20003 0.7465925 -0.18393366 -0.63934964 88 62 45 255
362.4287 -500 -185.83817 0.7465925 -0.18393366 -0.63934964 88 62 45 255
459.43652 -460.47168 -83.92962 0.7465925 -0.18393366 -0.63934964 88 62 45 255
362.4287 -500 -185.83817 0.7465925 -0.18393366 -0.63934964 88 62 45 255
362.02637 -451.35254 -200.30305 0.7465925 -0.18393366 -0.63934964 88 62 45 255
500 -392.40967 -71.735634 0.4700312 -0.6604881 -0.5855136 88 62 45 255
499.3916 -392.29834 -72.34941 0.4700312 -0.6604881 -0.5855136 88 62 45 255
500 -391.89697 -72.31365 0.4700312 -0.6604881 -0.5855136 88 62 45 255
500 -462.563 -43.65974 0.6635059 -0.3029853 -0.68407583 88 62 45 255
459.43652 -460.47168 -83.92962 0.6635059 -0.3029853 -0.68407583 88 62 45 255
500 -440.5244 -53.420853 0.6635059 -0.3029853 -0.68407583 88 62 45 255
500 -370.1631 -97.64182 0.35643938 -0.81850386 -0.45055777 88 62 45 255
487.4004 -374.76904 -99.24233 0.35643938 -0.81850386 -0.45055777 88 62 45 255
500 -356.47852 -122.50224 0.35643938 -0.81850386 -0.45055777 88 62 45 255
479.96387 -500 -60.53301 0.7054738 -0.05199884 -0.70682585 88 62 45 255
437.29102 -500 -103.12507 0.7054738 -0.05199884 -0.70682585 88 62 45 255
459.43652 -460.47168 -83.92962 0.7054738 -0.05199884 -0.70682585 88 62 45 255
442.86426 -390.646 -134.38728 0.72462356 -0.2823052 -0.62866884 88 62 45 255
459.43652 -460.47168 -83.92962 0.72462356 -0.28230518 -0.6286688 88 62 45 255
362.02637 -451.35254 -200.30305 0.72462356 -0.2823052 -0.6286687 88 62 45 255
348.25293 -500 -225.12027 0.9365778 -0.09274897 -0.3379638 88 62 45 255
362.02637 -451.35254 -200.30305 0.9365778 -0.09274897 -0.3379638 88 62 45 255
362.4287 -500 -185.83817 0.9365778 -0.09274897 -0.3379638 88 62 45 255
459.43652 -460.47168 -83.92962 0.7009007 -0.30093908 -0.6466636 88 62 45 255
442.86426 -390.646 -134.38728 0.70090073 -0.3009391 -0.64666367 88 62 45 255
499.3916 -392.29834 -72.34941 0.7009007 -0.30093914 -0.6466636 88 62 45 255
479.96387 -500 -60.53301 0.7019943 -0.05568586 -0.7100021 88 62 45 255
459.43652 -460.47168 -83.92962 0.7019943 -0.05568586 -0.7100021 88 62 45 255
500 -462.563 -43.65974 0.7019943 -0.05568586 -0.7100021 88 62 45 255
479.96387 -500 -60.53301 0.7019943 -0.05568586 -0.7100021 88 62 45 255
500 -462.563 -43.65974 0.7019943 -0.05568586 -0.7100021 88 62 45 255
500 -500 -40.72338 0.7019943 -0.05568586 -0.7100021 88 62 45 255
500 -338.58887 -156.60709 0.46334878 -0.7256638 -0.50864524 88 62 45 255
500 -347.7168 -143.58427 0.46334878 -0.7256638 -0.50864524 88 62 45 255
442.86426 -390.646 -134.38728 0.46334878 -0.7256638 -0.50864524 88 62 45 255
500 -338.58887 -156.60709 0.46334878 -0.7256638 -0.50864524 88 62 45 255
442.86426 -390.646 -134.38728 0.46334878 -0.7256638 -0.50864524 88 62 45 255
451.01465 -339.65283 -199.71236 0.46334878 -0.7256638 -0.50864524 88 62 45 255
500 -440.5244 -53.420853 0.659723 -0.26734704 -0.70234686 88 62 45 255
459.43652 -460.47168 -83.92962 0.659723 -0.26734704 -0.70234686 88 62 45 255
499.3916 -392.29834 -72.34941 0.659723 -0.26734704 -0.70234686 88 62 45 255
500 -440.5244 -53.420853 0.659723 -0.26734704 -0.70234686 88 62 45 255
499.3916 -392.29834 -72.34941 0.659723 -0.26734704 -0.70234686 88 62 45 255
500 -392.40967 -71.735634 0.659723 -0.26734704 -0.70234686 88 62 45 255
499.3916 -392.29834 -72.34941 0.6427315 -0.4783609 -0.5983871 88 62 45 255
442.86426 -390.646 -134.38728 0.6427314 -0.4783609 -0.5983872 88 62 45 255
487.4004 -374.76904 -99.24233 0.6427314 -0.47836095 -0.5983871 88 62 45 255
437.29102 -500 -103.12507 0.6956217 -0.04143543 -0.7172124 88 62 45 255
413.5 -500 -126.20003 0.6956217 -0.04143543 -0.7172124 88 62 45 255
459.43652 -460.47168 -83.92962 0.6956217 -0.04143543 -0.7172124 88 62 45 255
341.23828 -500 -305.90503 0.9951928 -0.09776488 0.005770106 88 62 45 255
350.11133 -409.67822 -305.91205 0.9951928 -0.09776488 0.005770106 88 62 45 255
340.99512 -500 -263.95294 0.9951928 -0.09776488 0.005770106 88 62 45 255
500 -319.01172 -210.58882 0.2983777 -0.88990307 -0.3450263 88 62 45 255
451.01465 -339.65283 -199.71236 0.2983777 -0.88990307 -0.3450263 88 62 45 255
477.93164 -307.45215 -259.48752 0.2983777 -0.88990307 -0.3450263 88 62 45 255
500 -319.01172 -210.58882 0.2983777 -0.88990307 -0.3450263 88 62 45 255
477.93164 -307.45215 -259.48752 0.2983777 -0.88990307 -0.3450263 88 62 45 255
500 -300.4961 -258.34402 0.2983777 -0.88990307 -0.3450263 88 62 45 255
442.86426 -390.646 -134.38728 0.55211705 -0.6892518 -0.4691468 88 62 45 255
397.2744 -364.49414 -226.46083 0.55211705 -0.6892518 -0.4691468 88 62 45 255
451.01465 -339.65283 -199.71236 0.55211705 -0.6892518 -0.4691468 88 62 45 255
396.90527 -330.41504 -305.91205 0.32392702 -0.9407799 -0.100021675 88 62 45 255
500 -294.91797 -305.91205 0.32392702 -0.9407799 -0.100021675 88 62 45 255
500 -298.68848 -270.44626 0.32392702 -0.9407799 -0.100021675 88 62 45 255
396.90527 -330.41504 -305.91205 0.32392702 -0.9407799 -0.100021675 88 62 45 255
500 -298.68848 -270.44626 0.32392702 -0.9407799 -0.100021675 88 62 45 255
477.93164 -307.45215 -259.48752 0.32392702 -0.9407799 -0.100021675 88 62 45 255
442.86426 -390.646 -134.38728 0.534269 -0.78058517 -0.32441232 88 62 45 255
500 -347.7168 -143.58427 0.534269 -0.78058517 -0.32441232 88 62 45 255
500 -356.47852 -122.50224 0.534269 -0.78058517 -0.32441232 88 62 45 255
442.86426 -390.646 -134.38728 0.534269 -0.78058517 -0.32441232 88 62 45 255
500 -356.47852 -122.50224 0.534269 -0.78058517 -0.32441232 88 62 45 255
487.4004 -374.76904 -99.24233 0.534269 -0.78058517 -0.32441232 88 62 45 255
500 -372.08057 -92.71436 0.36069974 -0.86918855 -0.33824104 88 62 45 255
487.4004 -374.76904 -99.24233 0.36069974 -0.86918855 -0.33824104 88 62 45 255
500 -370.1631 -97.64182 0.36069974 -0.86918855 -0.33824104 88 62 45 255
348.25293 -500 -225.12027 0.96664995 -0.18150018 -0.18068059 88 62 45 255
340.99512 -500 -263.95294 0.96664995 -0.18150018 -0.18068059 88 62 45 255
350.11133 -409.67822 -305.91205 0.96664995 -0.18150018 -0.18068059 88 62 45 255
348.25293 -500 -225.12027 0.96664995 -0.18150018 -0.18068059 88 62 45 255
350.11133 -409.67822 -305.91205 0.96664995 -0.18150018 -0.18068059 88 62 45 255
362.02637 -451.35254 -200.30305 0.96664995 -0.18150018 -0.18068059 88 62 45 255
500 -338.58887 -156.60709 0.3051484 -0.8952483 -0.32467666 88 62 45 255
451.01465 -339.65283 -199.71236 0.3051484 -0.8952483 -0.32467666 88 62 45 255
500 -319.01172 -210.58882 0.3051484 -0.8952483 -0.32467666 88 62 45 255
500 -391.89697 -72.31365 0.45717847 -0.6379556 -0.61967766 88 62 45 255
499.3916 -392.29834 -72.34941 0.45717847 -0.6379556 -0.61967766 88 62 45 255
487.4004 -374.76904 -99.24233 0.45717847 -0.6379556 -0.61967766 88 62 45 255
500 -391.89697 -72.31365 0.45717847 -0.6379556 -0.61967766 88 62 45 255
487.4004 -374.76904 -99.24233 0.45717847 -0.6379556 -0.61967766 88 62 45 255
500 -372.08057 -92.71436 0.45717847 -0.6379556 -0.61967766 88 62 45 255
3 0 1 2
3 3 4 5
3 6 7 8
3 9 10 11
3 12 13 14
3 15 16 17
3 18 19 20
3 21 22 23
3 24 25 26
3 27 28 29
3 30 31 32
3 33 34 35
3 36 37 38
3 39 40 41
3 42 43 44
3 45 46 47
3 48 49 50
3 51 52 53
3 54 55 56
3 57 58 59
3 60 61 62
3 63 64 65
3 66 67 68
3 69 70 71
3 72 73 74
3 75 76 77
3 78 79 80
3 81 82 83
3 84 85 86
3 87 88 89
3 90 91 92
3 93 94 95
3 96 97 98
3 99 100 101
3 102 103 104
3 105 106 107
3 108 109 110

