ply
format ascii 1.0
commentY29udmVydGVyIGJ5IENvZGVMZW9wYXJk
comment Original mesh name: 'C:\Program Files (x86)\Steam\steamapps\common\Stormworks\rom\meshes\arid_mainland\arid_island_23_15.mesh'
comment SubMesh index: 0
comment SubMesh name: ''
comment Shader: Opaque (0)
element vertex 153
property float x
property float y
property float z
property float nx
property float ny
property float nz
property uchar red
property uchar green
property uchar blue
property uchar alpha
element face 51
property list uchar ushort vertex_index
end_header
-295.66016 -406.0464 -179.81985 -0.5477333 -0.6084514 -0.5742604 188 157 125 255
-248.04297 -382.9839 -249.67325 -0.54773337 -0.6084514 -0.5742604 188 157 125 255
-239.6543 -443.65723 -193.38821 -0.5477333 -0.6084514 -0.5742604 188 157 125 255
-371.97852 -500 -52.27966 -0.14029257 -0.5385912 -0.8308053 188 157 125 255
-312.26953 -475.52832 -78.2267 -0.14029257 -0.5385912 -0.8308053 188 157 125 255
-318.76562 -500 -61.26517 -0.14029257 -0.5385912 -0.8308053 188 157 125 255
500 -459.79102 -187.27284 0.33635566 -0.8710951 -0.3578523 188 157 125 255
408.66992 -500 -175.23836 0.33635566 -0.8710951 -0.3578523 188 157 125 255
384.7422 -500 -197.72899 0.33635566 -0.8710951 -0.3578523 188 157 125 255
500 -459.79102 -187.27284 0.33635566 -0.8710951 -0.3578523 188 157 125 255
384.7422 -500 -197.72899 0.33635566 -0.8710951 -0.3578523 188 157 125 255
450.42383 -453.48633 -249.21895 0.33635566 -0.8710951 -0.3578523 188 157 125 255
500 -459.79102 -187.27284 0.33635566 -0.8710951 -0.3578523 188 157 125 255
450.42383 -453.48633 -249.21895 0.33635566 -0.8710951 -0.3578523 188 157 125 255
500 -453.09814 -203.56447 0.33635566 -0.8710951 -0.3578523 188 157 125 255
361.3164 -500 -203.43326 0.08895198 -0.8104155 -0.57906324 188 157 125 255
327.58203 -500 -208.61548 0.08895198 -0.8104155 -0.57906324 188 157 125 255
309.99805 -472.55225 -249.73067 0.08895198 -0.8104155 -0.57906324 188 157 125 255
361.3164 -500 -203.43326 0.08895198 -0.8104155 -0.57906324 188 157 125 255
309.99805 -472.55225 -249.73067 0.08895198 -0.8104155 -0.57906324 188 157 125 255
381.46094 -464.708 -249.73067 0.08895198 -0.8104155 -0.57906324 188 157 125 255
-202.20117 -500 -160.92168 -0.73484963 -0.63132274 -0.24784589 188 157 125 255
-239.6543 -443.65723 -193.38821 -0.73484963 -0.63132274 -0.24784589 188 157 125 255
-211.33984 -454.51855 -249.67336 -0.73484963 -0.63132274 -0.24784589 188 157 125 255
-202.20117 -500 -160.92168 -0.73484963 -0.63132274 -0.24784589 188 157 125 255
-211.33984 -454.51855 -249.67336 -0.73484963 -0.63132274 -0.24784589 188 157 125 255
-198 -500 -173.37558 -0.73484963 -0.63132274 -0.24784589 188 157 125 255
-248.04297 -382.9839 -249.67325 -0.7093209 -0.36392167 -0.60367614 188 157 125 255
-295.66016 -406.0464 -179.81985 -0.7093209 -0.36392164 -0.60367614 188 157 125 255
-284.74414 -311.44922 -249.67317 -0.7093209 -0.36392164 -0.60367614 188 157 125 255
-413.4297 -500 -47.763115 -0.019102236 -0.55610806 -0.8308904 188 157 125 255
-476.40234 -500 -46.315292 -0.019102236 -0.55610806 -0.8308904 188 157 125 255
-481.25195 -453.41064 -77.38585 -0.019102236 -0.55610806 -0.8308904 188 157 125 255
-396.75977 -464.46924 -77.806274 -0.085004404 -0.619785 -0.78015435 188 157 125 255
-397.66797 -500 -49.480442 -0.085004404 -0.619785 -0.78015435 188 157 125 255
-413.4297 -500 -47.763115 -0.085004404 -0.619785 -0.78015435 188 157 125 255
-396.75977 -464.46924 -77.806274 -0.085004404 -0.619785 -0.78015435 188 157 125 255
-413.4297 -500 -47.763115 -0.085004404 -0.619785 -0.78015435 188 157 125 255
-481.25195 -453.41064 -77.38585 -0.085004404 -0.619785 -0.78015435 188 157 125 255
-253.6582 -500 -111.94374 -0.47863263 -0.57082707 -0.66713357 188 157 125 255
-253.60156 -499.75684 -112.19267 -0.47863263 -0.57082707 -0.66713357 188 157 125 255
-253.4414 -500 -112.09966 -0.47863263 -0.57082707 -0.66713357 188 157 125 255
-476.40234 -500 -46.315292 0.034588188 -0.5520075 -0.8331215 188 157 125 255
-500 -500 -47.295055 0.034588188 -0.5520075 -0.8331215 188 157 125 255
-500 -474.18018 -64.40272 0.034588188 -0.5520075 -0.8331215 188 157 125 255
-476.40234 -500 -46.315292 0.034588188 -0.5520075 -0.8331215 188 157 125 255
-500 -474.18018 -64.40272 0.034588188 -0.5520075 -0.8331215 188 157 125 255
-481.25195 -453.41064 -77.38585 0.034588188 -0.5520075 -0.8331215 188 157 125 255
500 -425.20264 -249.52579 0.4360133 -0.7693252 -0.466938 188 157 125 255
500 -453.09814 -203.56447 0.4360133 -0.7693252 -0.466938 188 157 125 255
450.42383 -453.48633 -249.21895 0.4360133 -0.7693252 -0.466938 188 157 125 255
-300.71875 -500 -68.96159 -0.34609497 -0.47064868 -0.81160825 188 157 125 255
-318.76562 -500 -61.26517 -0.34609497 -0.47064868 -0.81160825 188 157 125 255
-312.26953 -475.52832 -78.2267 -0.34609497 -0.47064868 -0.81160825 188 157 125 255
361.3164 -500 -203.43326 0.1368936 -0.81561506 -0.5621674 188 157 125 255
381.46094 -464.708 -249.73067 0.1368936 -0.81561506 -0.5621674 188 157 125 255
450.42383 -453.48633 -249.21895 0.1368936 -0.81561506 -0.5621674 188 157 125 255
361.3164 -500 -203.43326 0.1368936 -0.81561506 -0.5621674 188 157 125 255
450.42383 -453.48633 -249.21895 0.1368936 -0.81561506 -0.5621674 188 157 125 255
384.7422 -500 -197.72899 0.1368936 -0.81561506 -0.5621674 188 157 125 255
-252.36133 -500 -113.08129 -0.51920295 -0.6588425 -0.54438484 188 157 125 255
-253.60156 -499.75684 -112.19267 -0.51920295 -0.6588425 -0.54438484 188 157 125 255
-239.6543 -443.65723 -193.38821 -0.51920295 -0.6588425 -0.54438484 188 157 125 255
-252.36133 -500 -113.08129 -0.51920295 -0.6588425 -0.54438484 188 157 125 255
-239.6543 -443.65723 -193.38821 -0.51920295 -0.6588425 -0.54438484 188 157 125 255
-202.20117 -500 -160.92168 -0.51920295 -0.6588425 -0.54438484 188 157 125 255
-248.04297 -382.9839 -249.67325 -0.8372656 -0.42958325 -0.33829635 188 157 125 255
-211.33984 -454.51855 -249.67336 -0.8372656 -0.42958325 -0.3382963 188 157 125 255
-239.6543 -443.65723 -193.38821 -0.8372656 -0.42958325 -0.33829635 188 157 125 255
-500 -443.32812 -88.23452 0.09079795 -0.6463604 -0.7576106 188 157 125 255
-481.25195 -453.41064 -77.38585 0.09079795 -0.6463604 -0.7576106 188 157 125 255
-500 -455.98926 -77.43271 0.09079795 -0.6463604 -0.7576106 188 157 125 255
-500 -455.98926 -77.43271 0.08185189 -0.5803638 -0.8102334 188 157 125 255
-481.25195 -453.41064 -77.38585 0.08185189 -0.5803638 -0.8102334 188 157 125 255
-500 -474.18018 -64.40272 0.08185189 -0.5803638 -0.8102334 188 157 125 255
-312.26953 -475.52832 -78.2267 -0.08500441 -0.61978495 -0.78015435 188 157 125 255
-371.97852 -500 -52.27966 -0.08500441 -0.61978495 -0.78015435 188 157 125 255
-397.66797 -500 -49.480442 -0.08500441 -0.61978495 -0.78015435 188 157 125 255
-312.26953 -475.52832 -78.2267 -0.08500441 -0.61978495 -0.78015435 188 157 125 255
-397.66797 -500 -49.480442 -0.08500441 -0.61978495 -0.78015435 188 157 125 255
-396.75977 -464.46924 -77.806274 -0.08500441 -0.61978495 -0.78015435 188 157 125 255
-253.60156 -499.75684 -112.19267 -0.57882947 -0.5131637 -0.63373464 188 157 125 255
-253.6582 -500 -111.94374 -0.57882947 -0.5131637 -0.63373464 188 157 125 255
-300.71875 -500 -68.96159 -0.57882947 -0.5131637 -0.63373464 188 157 125 255
-253.60156 -499.75684 -112.19267 -0.57882947 -0.5131637 -0.63373464 188 157 125 255
-300.71875 -500 -68.96159 -0.57882947 -0.5131637 -0.63373464 188 157 125 255
-312.26953 -475.52832 -78.2267 -0.57882947 -0.5131637 -0.63373464 188 157 125 255
-500 -363.06934 -194.73505 -0.0058008754 -0.8312653 -0.5558457 188 157 125 255
-436.26172 -380.89404 -168.74342 -0.0058008754 -0.8312653 -0.5558457 188 157 125 255
-500 -395.3047 -146.52731 -0.0058008754 -0.8312653 -0.5558457 188 157 125 255
-436.26172 -380.89404 -168.74342 -0.187744 -0.7961697 -0.5752095 188 157 125 255
-295.66016 -406.0464 -179.81985 -0.18774399 -0.79616964 -0.57520956 188 157 125 255
-312.26953 -475.52832 -78.2267 -0.187744 -0.7961697 -0.57520956 188 157 125 255
-146.9082 -500 -207.11983 -0.20997202 -0.80990094 -0.5476972 188 157 125 255
-211.33984 -454.51855 -249.67336 -0.20997202 -0.80990094 -0.5476972 188 157 125 255
-35.86328 -500 -249.69151 -0.20997202 -0.80990094 -0.5476972 188 157 125 255
-396.75977 -464.46924 -77.806274 -0.10193257 -0.75411236 -0.64878684 188 157 125 255
-436.26172 -380.89404 -168.74342 -0.10193257 -0.75411236 -0.6487868 188 157 125 255
-312.26953 -475.52832 -78.2267 -0.10193257 -0.75411236 -0.6487868 188 157 125 255
241.55273 -500 -221.74075 0.08832254 -0.81059235 -0.578912 188 157 125 255
309.99805 -472.55225 -249.73067 0.08832254 -0.81059235 -0.578912 188 157 125 255
327.58203 -500 -208.61548 0.08832254 -0.81059235 -0.578912 188 157 125 255
-396.75977 -464.46924 -77.806274 -0.10193256 -0.75411236 -0.6487868 188 157 125 255
-481.25195 -453.41064 -77.38585 -0.10193256 -0.75411236 -0.6487868 188 157 125 255
-436.26172 -380.89404 -168.74342 -0.101932555 -0.75411236 -0.6487868 188 157 125 255
-436.26172 -380.89404 -168.74342 -0.16577849 -0.5733547 -0.8023602 188 157 125 255
-284.74414 -311.44922 -249.67317 -0.16577847 -0.5733548 -0.8023602 188 157 125 255
-295.66016 -406.0464 -179.81985 -0.16577847 -0.5733547 -0.8023602 188 157 125 255
-6.935547 -500 -249.69452 0.14859426 -0.7271893 -0.6701607 188 157 125 255
141.14258 -469.72705 -249.70992 0.14859426 -0.7271893 -0.6701607 188 157 125 255
127.61133 -500 -219.86111 0.14859426 -0.7271893 -0.6701607 188 157 125 255
-312.26953 -475.52832 -78.2267 -0.5665506 -0.634076 -0.5262775 188 157 125 255
-295.66016 -406.0464 -179.81985 -0.5665507 -0.634076 -0.5262775 188 157 125 255
-253.60156 -499.75684 -112.19267 -0.5665506 -0.634076 -0.5262775 188 157 125 255
-253.4414 -500 -112.09966 -0.544147 -0.58782864 -0.598633 188 157 125 255
-253.60156 -499.75684 -112.19267 -0.544147 -0.58782864 -0.598633 188 157 125 255
-252.36133 -500 -113.08129 -0.544147 -0.58782864 -0.598633 188 157 125 255
-146.9082 -500 -207.11983 -0.29721847 -0.8421083 -0.45001647 188 157 125 255
-198 -500 -173.37558 -0.29721847 -0.8421083 -0.45001647 188 157 125 255
-211.33984 -454.51855 -249.67336 -0.29721847 -0.8421083 -0.45001647 188 157 125 255
408.66992 -500 -175.23836 0.21828263 -0.6994758 -0.68050444 188 157 125 255
500 -459.79102 -187.27284 0.21828263 -0.6994758 -0.68050444 188 157 125 255
500 -497.84717 -148.1555 0.21828263 -0.6994758 -0.68050444 188 157 125 255
408.66992 -500 -175.23836 0.21828263 -0.6994758 -0.68050444 188 157 125 255
500 -497.84717 -148.1555 0.21828263 -0.6994758 -0.68050444 188 157 125 255
499.2578 -500 -146.18085 0.21828263 -0.6994758 -0.68050444 188 157 125 255
309.99805 -472.55225 -249.73067 -0.011788513 -0.69937557 -0.71465725 188 157 125 255
241.55273 -500 -221.74075 -0.011788513 -0.69937557 -0.71465725 188 157 125 255
127.61133 -500 -219.86111 -0.011788513 -0.69937557 -0.71465725 188 157 125 255
309.99805 -472.55225 -249.73067 -0.011788513 -0.69937557 -0.71465725 188 157 125 255
127.61133 -500 -219.86111 -0.011788513 -0.69937557 -0.71465725 188 157 125 255
141.14258 -469.72705 -249.70992 -0.011788513 -0.69937557 -0.71465725 188 157 125 255
-436.26172 -380.89404 -168.74342 -0.06343928 -0.6955814 -0.715641 188 157 125 255
-475.85547 -294.01904 -249.67317 -0.06343927 -0.6955813 -0.71564096 188 157 125 255
-284.74414 -311.44922 -249.67317 -0.06343928 -0.6955814 -0.715641 188 157 125 255
-481.25195 -453.41064 -77.38585 -0.04707549 -0.7709581 -0.6351436 188 157 125 255
-500 -443.32812 -88.23452 -0.04707549 -0.7709581 -0.6351436 188 157 125 255
-500 -395.3047 -146.52731 -0.04707549 -0.7709581 -0.6351436 188 157 125 255
-481.25195 -453.41064 -77.38585 -0.04707549 -0.7709581 -0.6351436 188 157 125 255
-500 -395.3047 -146.52731 -0.04707549 -0.7709581 -0.6351436 188 157 125 255
-436.26172 -380.89404 -168.74342 -0.04707549 -0.7709581 -0.6351436 188 157 125 255
-500 -363.06934 -194.73505 0.12726288 -0.6444135 -0.75401294 188 157 125 255
-500 -298.7871 -249.67317 0.12726288 -0.6444135 -0.75401294 188 157 125 255
-475.85547 -294.01904 -249.67317 0.12726288 -0.6444135 -0.75401294 188 157 125 255
-500 -363.06934 -194.73505 0.12726288 -0.6444135 -0.75401294 188 157 125 255
-475.85547 -294.01904 -249.67317 0.12726288 -0.6444135 -0.75401294 188 157 125 255
-436.26172 -380.89404 -168.74342 0.12726288 -0.6444135 -0.75401294 188 157 125 255
-239.6543 -443.65723 -193.38821 -0.556532 -0.6357693 -0.5348547 188 157 125 255
-253.60156 -499.75684 -112.19267 -0.55653197 -0.6357693 -0.5348547 188 157 125 255
-295.66016 -406.0464 -179.81985 -0.55653197 -0.63576925 -0.53485477 188 157 125 255
499.2578 -500 -146.18085 0.34591228 -0.6962319 -0.628972 188 157 125 255
500 -497.84717 -148.1555 0.34591228 -0.6962319 -0.628972 188 157 125 255
500 -500 -145.77248 0.34591228 -0.6962319 -0.628972 188 157 125 255
3 0 1 2
3 3 4 5
3 6 7 8
3 9 10 11
3 12 13 14
3 15 16 17
3 18 19 20
3 21 22 23
3 24 25 26
3 27 28 29
3 30 31 32
3 33 34 35
3 36 37 38
3 39 40 41
3 42 43 44
3 45 46 47
3 48 49 50
3 51 52 53
3 54 55 56
3 57 58 59
3 60 61 62
3 63 64 65
3 66 67 68
3 69 70 71
3 72 73 74
3 75 76 77
3 78 79 80
3 81 82 83
3 84 85 86
3 87 88 89
3 90 91 92
3 93 94 95
3 96 97 98
3 99 100 101
3 102 103 104
3 105 106 107
3 108 109 110
3 111 112 113
3 114 115 116
3 117 118 119
3 120 121 122
3 123 124 125
3 126 127 128
3 129 130 131
3 132 133 134
3 135 136 137
3 138 139 140
3 141 142 143
3 144 145 146
3 147 148 149
3 150 151 152

