ply
format ascii 1.0
commentY29udmVydGVyIGJ5IENvZGVMZW9wYXJk
comment Original mesh name: 'C:\Program Files (x86)\Steam\steamapps\common\Stormworks\rom\meshes\cloud_08.mesh'
comment SubMesh index: 0
comment SubMesh name: ''
comment Shader: Opaque (0)
element vertex 288
property float x
property float y
property float z
property float nx
property float ny
property float nz
property uchar red
property uchar green
property uchar blue
property uchar alpha
element face 98
property list uchar ushort vertex_index
end_header
1.2042103 -7.6668696 -0.85391366 -0.10103283 -0.11282842 0.98846453 77 73 69 255
1.4542351 -5.131976 -0.5390123 -0.101032816 -0.1128284 0.98846453 77 73 69 255
0.22598839 -6.355961 -0.8042657 -0.10103283 -0.1128284 0.98846453 77 73 69 255
0.22598839 -6.355961 -0.8042657 -0.5021546 0.3307429 0.79903066 77 73 69 255
1.4542351 -5.131976 -0.5390123 -0.5021546 0.33074284 0.7990306 77 73 69 255
0.2861519 -2.2958012 -2.4470763 -0.50215465 0.33074287 0.79903054 77 73 69 255
2.177309 -4.2846584 -1.5403692 -0.42116913 0.24431764 0.873456 77 73 69 255
3.581005 -1.5357103 -1.6324424 -0.42116913 0.24431764 0.87345606 77 73 69 255
0.81957054 -1.4249611 -2.994948 -0.42116913 0.24431764 0.873456 77 73 69 255
0.687233 10.637717 -0.4416592 0.09890859 0.066997804 0.99283856 77 73 69 255
0.08094978 9.720387 -0.31935704 0.098908596 0.06699781 0.99283856 77 73 69 255
0.50697327 9.211007 -0.32742512 0.0989086 0.06699782 0.99283856 77 73 69 255
0.08094978 9.720387 -0.31935704 -0.32976675 -0.2900314 0.8984073 77 73 69 255
0.69218063 8.727115 -0.4156592 -0.32976678 -0.2900314 0.8984073 77 73 69 255
0.50697327 9.211007 -0.32742512 -0.32976678 -0.2900314 0.8984073 77 73 69 255
3.581005 -1.5357103 -1.6324424 -0.44167504 0.021601014 0.896915 77 73 69 255
2.136156 1.1320076 -2.4081914 -0.44167504 0.021601016 0.896915 77 73 69 255
0.81957054 -1.4249611 -2.994948 -0.44167507 0.021601016 0.896915 77 73 69 255
-0.5858822 -0.36290646 -1.4170625 -0.18242 0.3326519 0.9252382 77 73 69 255
2.0580368 2.7409124 -2.0117068 -0.18242 0.33265194 0.9252382 77 73 69 255
-0.22159004 1.9974546 -2.1938615 -0.18242 0.33265188 0.92523813 77 73 69 255
-0.22159004 1.9974546 -2.1938615 -0.012143447 -0.20267196 0.9791714 77 73 69 255
2.0580368 2.7409124 -2.0117068 -0.012143445 -0.20267195 0.9791714 77 73 69 255
-0.5529804 3.8497381 -1.8145798 -0.012143447 -0.20267195 0.97917134 77 73 69 255
2.9119148 3.2738676 -0.8102389 -0.29256096 -0.59906197 0.74534076 77 73 69 255
1.2019634 4.137883 -0.7869829 -0.29256096 -0.59906197 0.74534076 77 73 69 255
-0.7400284 4.3986635 -1.3396553 -0.292561 -0.5990619 0.7453408 77 73 69 255
0.08587456 5.7943716 -1.1046112 -0.2737211 6.466094E-08 0.9618091 77 73 69 255
-0.7400284 4.3986635 -1.3396553 -0.2737211 6.466093E-08 0.9618091 77 73 69 255
1.2019634 4.137883 -0.7869829 -0.2737211 6.466093E-08 0.9618091 77 73 69 255
2.0930004 -6.3420696 0.5138104 -0.9994557 0.031643324 -0.009326337 77 73 69 255
2.2526474 -1.5048552 -0.18250895 -0.9994557 0.03164333 -0.009326338 77 73 69 255
2.177309 -4.2846584 -1.5403692 -0.9994557 0.031643327 -0.009326338 77 73 69 255
2.177309 -4.2846584 -1.5403692 -0.6920196 0.3318948 -0.6410575 77 73 69 255
2.2526474 -1.5048552 -0.18250895 -0.6920196 0.33189481 -0.6410575 77 73 69 255
3.581005 -1.5357103 -1.6324424 -0.6920196 0.33189481 -0.64105743 77 73 69 255
2.352869 3.1894178 0.58776784 -0.99783766 0.01066132 0.06485683 77 73 69 255
2.136156 1.1320076 -2.4081914 -0.9978376 0.010661319 0.06485681 77 73 69 255
2.2526474 -1.5048552 -0.18250895 -0.99783766 0.010661321 0.06485683 77 73 69 255
2.2526474 -1.5048552 -0.18250895 -0.6384605 -0.51271266 -0.5740156 77 73 69 255
2.136156 1.1320076 -2.4081914 -0.6384605 -0.51271266 -0.57401556 77 73 69 255
3.581005 -1.5357103 -1.6324424 -0.6384606 -0.51271266 -0.5740156 77 73 69 255
-1.5020943 -3.394205 -0.4123075 0.47106013 0.14597331 0.8699392 77 73 69 255
-0.5858822 -0.36290646 -1.4170625 0.47106013 0.14597332 0.8699392 77 73 69 255
-2.9360447 3.0357332 -0.71476746 0.4710601 0.1459733 0.86993915 77 73 69 255
-2.9360447 3.0357332 -0.71476746 0.525148 0.19181222 0.82911265 77 73 69 255
-0.5858822 -0.36290646 -1.4170625 0.525148 0.19181219 0.82911265 77 73 69 255
-0.22159004 1.9974546 -2.1938615 0.52514786 0.19181217 0.82911265 77 73 69 255
-1.3068047 6.177392 -0.45373797 0.48481667 -0.31908244 0.81433356 77 73 69 255
-2.9360447 3.0357332 -0.71476746 0.48481667 -0.3190824 0.81433356 77 73 69 255
-0.5529804 3.8497381 -1.8145798 0.48481664 -0.31908238 0.81433356 77 73 69 255
-0.5529804 3.8497381 -1.8145798 0.44546437 -0.10242403 0.8894215 77 73 69 255
-2.9360447 3.0357332 -0.71476746 0.44546437 -0.10242403 0.8894215 77 73 69 255
-0.22159004 1.9974546 -2.1938615 0.44546437 -0.10242405 0.8894215 77 73 69 255
-0.4831276 -9.302831 0.19560146 -0.73635864 0.65774244 -0.15859035 77 73 69 255
2.0930004 -6.3420696 0.5138104 -0.7363586 0.65774244 -0.15859033 77 73 69 255
1.2042103 -7.6668696 -0.85391366 -0.73635864 0.65774244 -0.15859035 77 73 69 255
1.2042103 -7.6668696 -0.85391366 -0.84592295 0.017220402 0.533027 77 73 69 255
2.0930004 -6.3420696 0.5138104 -0.84592295 0.017220398 0.53302693 77 73 69 255
1.4542351 -5.131976 -0.5390123 -0.84592295 0.017220402 0.533027 77 73 69 255
-0.97634315 -8.467106 -0.86983174 0.5838362 -0.35517815 0.7300574 77 73 69 255
1.2042103 -7.6668696 -0.85391366 0.0051772166 -0.03398729 0.99940884 77 73 69 255
0.22598839 -6.355961 -0.8042657 0.0051772175 -0.033987295 0.99940884 77 73 69 255
-1.4006596 -8.467106 0.015289307 0.5220351 -0.07231482 0.8498529 77 73 69 255
0.22598839 -6.355961 -0.8042657 0.35753492 0.08553696 0.9299743 77 73 69 255
-1.5020943 -3.394205 -0.4123075 0.35753492 0.08553696 0.9299743 77 73 69 255
-1.5020943 -3.394205 -0.4123075 0.64129245 0.27961075 0.7145361 77 73 69 255
0.22598839 -6.355961 -0.8042657 0.64129245 0.27961075 0.7145361 77 73 69 255
0.2861519 -2.2958012 -2.4470763 0.64129245 0.27961075 0.7145361 77 73 69 255
0.8457203 5.183736 0.2914846 -0.786004 -0.55291414 0.27655685 77 73 69 255
1.2019634 4.137883 -0.7869829 -0.78600407 -0.5529141 0.27655682 77 73 69 255
2.352869 3.1894178 0.58776784 -0.78600395 -0.5529142 0.27655682 77 73 69 255
2.352869 3.1894178 0.58776784 -0.44148493 -0.8675671 -0.22895087 77 73 69 255
1.2019634 4.137883 -0.7869829 -0.44148493 -0.8675671 -0.22895087 77 73 69 255
2.9119148 3.2738676 -0.8102389 -0.44148496 -0.86756706 -0.22895089 77 73 69 255
0.08587456 5.7943716 -1.1046112 0.28725326 -0.41913134 0.8612865 77 73 69 255
-0.5713196 6.9912176 -0.30299807 0.28725323 -0.41913134 0.8612865 77 73 69 255
-1.3068047 6.177392 -0.45373797 0.28725323 -0.41913134 0.86128664 77 73 69 255
0.08587456 5.7943716 -1.1046112 0.32036585 -0.33856723 0.88472474 77 73 69 255
-1.3068047 6.177392 -0.45373797 0.32036585 -0.33856723 0.88472474 77 73 69 255
-0.7400284 4.3986635 -1.3396553 0.32036585 -0.33856723 0.88472486 77 73 69 255
0.18200874 8.244483 -0.06465125 -0.8942901 -0.1446512 0.4234635 77 73 69 255
0.08587456 5.7943716 -1.1046112 -0.8942901 -0.14465122 0.4234635 77 73 69 255
0.8457203 5.183736 0.2914846 -0.8942901 -0.1446512 0.42346346 77 73 69 255
0.8457203 5.183736 0.2914846 -0.82746094 -0.51429474 0.22540899 77 73 69 255
0.08587456 5.7943716 -1.1046112 -0.82746094 -0.5142948 0.22540903 77 73 69 255
1.2019634 4.137883 -0.7869829 -0.82746094 -0.51429486 0.225409 77 73 69 255
0.03484726 13.4485655 -0.2645762 0.2642106 0.0005609293 0.9644649 77 73 69 255
-0.24427986 9.748548 -0.18595862 0.2642106 0.00056092936 0.96446484 77 73 69 255
0.687233 10.637717 -0.4416592 0.26421058 0.00056092924 0.96446484 77 73 69 255
0.687233 10.637717 -0.4416592 0.36781204 -0.12015551 0.9221046 77 73 69 255
-0.24427986 9.748548 -0.18595862 0.36781207 -0.12015551 0.9221046 77 73 69 255
0.08094978 9.720387 -0.31935704 0.36781207 -0.12015551 0.9221046 77 73 69 255
0.03484726 13.4485655 -0.2645762 -0.93226826 -0.19727133 -0.3032487 77 73 69 255
0.687233 10.637717 -0.4416592 -0.93226826 -0.19727135 -0.30324873 77 73 69 255
0.79361916 9.287875 0.10940838 -0.93226826 -0.19727135 -0.3032487 77 73 69 255
0.79361916 9.287875 0.10940838 -0.83861405 0.1479309 0.5242547 77 73 69 255
0.687233 10.637717 -0.4416592 -0.83861405 0.14793088 0.5242547 77 73 69 255
0.50697327 9.211007 -0.32742512 -0.83861405 0.14793089 0.5242547 77 73 69 255
0.18200874 8.244483 -0.06465125 0.42637706 0.19213533 0.88390416 77 73 69 255
0.69218063 8.727115 -0.4156592 0.4263771 0.19213532 0.88390416 77 73 69 255
-0.24427986 9.748548 -0.18595862 0.4263771 0.19213532 0.88390416 77 73 69 255
-0.24427986 9.748548 -0.18595862 0.3862743 0.14945315 0.9101955 77 73 69 255
0.69218063 8.727115 -0.4156592 0.38627428 0.14945315 0.9101955 77 73 69 255
0.08094978 9.720387 -0.31935704 0.3862743 0.14945315 0.9101955 77 73 69 255
0.18200874 8.244483 -0.06465125 -0.7599118 0.51220477 -0.40022546 77 73 69 255
0.79361916 9.287875 0.10940838 -0.7599118 0.51220477 -0.40022546 77 73 69 255
0.69218063 8.727115 -0.4156592 -0.7599118 0.51220477 -0.40022546 77 73 69 255
0.69218063 8.727115 -0.4156592 -0.73958397 -0.3838827 0.5528559 77 73 69 255
0.79361916 9.287875 0.10940838 -0.73958397 -0.38388273 0.5528559 77 73 69 255
0.50697327 9.211007 -0.32742512 -0.73958397 -0.38388273 0.5528559 77 73 69 255
0.81957054 -1.4249611 -2.994948 0.09617882 0.48716912 0.86799526 77 73 69 255
0.2861519 -2.2958012 -2.4470763 0.09617881 0.48716906 0.8679953 77 73 69 255
2.177309 -4.2846584 -1.5403692 0.096178815 0.48716912 0.8679954 77 73 69 255
2.177309 -4.2846584 -1.5403692 0.2946159 0.61398184 0.7322758 77 73 69 255
0.2861519 -2.2958012 -2.4470763 0.2946159 0.61398184 0.7322758 77 73 69 255
1.4542351 -5.131976 -0.5390123 0.29461586 0.61398184 0.7322757 77 73 69 255
2.0930004 -6.3420696 0.5138104 0.15844223 0.69436616 0.70196277 77 73 69 255
2.177309 -4.2846584 -1.5403692 0.15844221 0.6943661 0.7019628 77 73 69 255
1.4542351 -5.131976 -0.5390123 0.15844221 0.69436616 0.7019628 77 73 69 255
-1.5020943 -3.394205 -0.4123075 0.76758814 -0.06930319 0.63718563 77 73 69 255
0.2861519 -2.2958012 -2.4470763 0.76758814 -0.0693032 0.63718563 77 73 69 255
0.81957054 -1.4249611 -2.994948 0.7675881 -0.069303185 0.63718563 77 73 69 255
0.81957054 -1.4249611 -2.994948 0.5086608 -0.4327134 0.7443275 77 73 69 255
2.136156 1.1320076 -2.4081914 0.50866073 -0.43271333 0.7443275 77 73 69 255
-0.5858822 -0.36290646 -1.4170625 0.5086608 -0.43271333 0.7443274 77 73 69 255
-0.5858822 -0.36290646 -1.4170625 0.42893583 -0.19645596 0.88171375 77 73 69 255
2.136156 1.1320076 -2.4081914 0.42893574 -0.19645591 0.88171375 77 73 69 255
2.0580368 2.7409124 -2.0117068 0.42893574 -0.19645591 0.88171375 77 73 69 255
-1.5020943 -3.394205 -0.4123075 0.745293 -0.0042732237 0.66672343 77 73 69 255
0.81957054 -1.4249611 -2.994948 0.745293 -0.0042732237 0.6667234 77 73 69 255
-0.5858822 -0.36290646 -1.4170625 0.745293 -0.0042732237 0.66672343 77 73 69 255
2.352869 3.1894178 0.58776784 -0.98890454 -0.07901514 0.12579563 77 73 69 255
2.0580368 2.7409124 -2.0117068 -0.98890454 -0.079015136 0.12579563 77 73 69 255
2.136156 1.1320076 -2.4081914 -0.98890454 -0.07901514 0.12579563 77 73 69 255
2.0580368 2.7409124 -2.0117068 -0.29005626 -0.78127223 0.5527034 77 73 69 255
2.9119148 3.2738676 -0.8102389 -0.29005626 -0.78127223 0.5527034 77 73 69 255
-0.5529804 3.8497381 -1.8145798 -0.29005623 -0.7812722 0.55270344 77 73 69 255
-0.5529804 3.8497381 -1.8145798 -0.30609035 -0.6803973 0.66585904 77 73 69 255
2.9119148 3.2738676 -0.8102389 -0.30609038 -0.6803973 0.66585904 77 73 69 255
-0.7400284 4.3986635 -1.3396553 -0.30609038 -0.6803972 0.66585904 77 73 69 255
2.352869 3.1894178 0.58776784 -0.41075686 0.9051358 -0.10958098 77 73 69 255
2.9119148 3.2738676 -0.8102389 -0.41075686 0.9051358 -0.109580986 77 73 69 255
2.0580368 2.7409124 -2.0117068 -0.41075692 0.9051358 -0.109580986 77 73 69 255
-1.3068047 6.177392 -0.45373797 -0.959171 -0.2768637 -0.05777072 77 73 69 255
-0.5529804 3.8497381 -1.8145798 -0.959171 -0.27686372 -0.057770725 77 73 69 255
-0.7400284 4.3986635 -1.3396553 -0.959171 -0.27686372 -0.057770733 77 73 69 255
-1.5020943 -3.394205 -0.4123075 0.72061336 -0.043915294 -0.691945 77 73 69 255
-0.10782623 -6.840498 1.2584524 0.7206133 -0.0439153 -0.6919451 77 73 69 255
-1.4006596 -8.467106 0.015289307 0.72061336 -0.043915294 -0.691945 77 73 69 255
-0.47873688 0.74800396 2.3941238 0.24235491 -0.14940825 -0.9586143 77 73 69 255
-0.7300987 -1.1351967 2.624089 0.24235488 -0.14940827 -0.9586142 77 73 69 255
-2.2884598 2.0941362 1.7267861 0.24235491 -0.14940825 -0.9586143 77 73 69 255
-1.3068047 6.177392 -0.45373797 0.3898994 -0.12641233 -0.9121395 77 73 69 255
-0.24401665 4.168641 0.2789476 0.38989937 -0.12641233 -0.9121395 77 73 69 255
-2.9360447 3.0357332 -0.71476746 0.38989937 -0.12641233 -0.9121394 77 73 69 255
-2.9360447 3.0357332 -0.71476746 0.4798031 -0.52074426 -0.70612633 77 73 69 255
-0.24401665 4.168641 0.2789476 0.47980312 -0.52074426 -0.7061263 77 73 69 255
-0.2579174 1.7268572 2.0702357 0.47980312 -0.52074426 -0.7061263 77 73 69 255
0.18200874 8.244483 -0.06465125 0.044012573 0.13923514 -0.98928076 77 73 69 255
-0.050647736 9.586658 0.11389935 0.044012584 0.13923517 -0.9892808 77 73 69 255
0.79361916 9.287875 0.10940838 0.044012573 0.13923515 -0.98928076 77 73 69 255
0.03484726 13.4485655 -0.2645762 -0.03947476 -0.0965941 -0.99454075 77 73 69 255
0.79361916 9.287875 0.10940838 -0.03947476 -0.096594095 -0.99454075 77 73 69 255
-0.050647736 9.586658 0.11389935 -0.03947476 -0.096594095 -0.99454075 77 73 69 255
0.8044777 2.5804968 1.039907 -0.07235884 -0.46942428 -0.8800029 77 73 69 255
-0.24401665 4.168641 0.2789476 -0.07235884 -0.46942425 -0.88000286 77 73 69 255
2.352869 3.1894178 0.58776784 -0.07235884 -0.46942428 -0.88000286 77 73 69 255
2.352869 3.1894178 0.58776784 0.08733762 -0.08149739 -0.99283946 77 73 69 255
-0.24401665 4.168641 0.2789476 0.08733762 -0.08149739 -0.99283946 77 73 69 255
0.8457203 5.183736 0.2914846 0.08733762 -0.08149739 -0.99283946 77 73 69 255
0.8044777 2.5804968 1.039907 -0.25919122 -0.05682422 -0.964153 77 73 69 255
2.352869 3.1894178 0.58776784 -0.25919122 -0.056824215 -0.96415293 77 73 69 255
1.9516392 0.91483116 0.8296869 -0.2591912 -0.05682422 -0.964153 77 73 69 255
2.352869 3.1894178 0.58776784 -0.8632265 0.09963522 -0.49488673 77 73 69 255
2.2526474 -1.5048552 -0.18250895 -0.86322653 0.09963523 -0.49488667 77 73 69 255
1.9516392 0.91483116 0.8296869 -0.8632265 0.09963521 -0.49488667 77 73 69 255
2.2526474 -1.5048552 -0.18250895 -0.64627653 0.2246735 -0.7292794 77 73 69 255
1.2295723 -1.2839699 0.7921741 -0.64627653 0.2246735 -0.7292794 77 73 69 255
1.9516392 0.91483116 0.8296869 -0.6462766 0.2246735 -0.7292794 77 73 69 255
-0.10782623 -6.840498 1.2584524 -0.33315164 0.06584395 -0.94057137 77 73 69 255
1.2684059 -5.4378433 0.8691819 -0.3331516 0.06584395 -0.9405714 77 73 69 255
2.0930004 -6.3420696 0.5138104 -0.3331516 0.06584394 -0.94057137 77 73 69 255
2.0930004 -6.3420696 0.5138104 -0.49115258 -0.10820988 -0.8643261 77 73 69 255
1.2684059 -5.4378433 0.8691819 -0.4911527 -0.108209886 -0.8643261 77 73 69 255
2.2526474 -1.5048552 -0.18250895 -0.4911527 -0.108209886 -0.8643261 77 73 69 255
1.2684059 -5.4378433 0.8691819 -0.9398259 0.28541142 0.18779689 77 73 69 255
1.999857 -3.4706564 1.5400157 -0.9398259 0.28541142 0.1877969 77 73 69 255
2.2526474 -1.5048552 -0.18250895 -0.9398259 0.28541142 0.1877969 77 73 69 255
2.2526474 -1.5048552 -0.18250895 -0.667288 -0.44046357 -0.60059863 77 73 69 255
1.999857 -3.4706564 1.5400157 -0.667288 -0.4404635 -0.60059863 77 73 69 255
1.2295723 -1.2839699 0.7921741 -0.66728795 -0.4404635 -0.60059863 77 73 69 255
2.0930004 -6.3420696 0.5138104 -0.37452832 0.41498753 -0.8291646 77 73 69 255
-0.4831276 -9.302831 0.19560146 -0.3745283 0.41498753 -0.8291645 77 73 69 255
-0.10782623 -6.840498 1.2584524 -0.37452835 0.41498753 -0.8291646 77 73 69 255
-1.3068047 6.177392 -0.45373797 0.29033026 -0.08585106 -0.9530677 77 73 69 255
-0.5713196 6.9912176 -0.30299807 0.29033026 -0.08585106 -0.9530677 77 73 69 255
0.8457203 5.183736 0.2914846 0.2903303 -0.085851066 -0.9530677 77 73 69 255
0.18200874 8.244483 -0.06465125 0.3507419 -0.032839544 -0.9358962 77 73 69 255
0.8457203 5.183736 0.2914846 0.3507419 -0.032839544 -0.9358962 77 73 69 255
-0.5713196 6.9912176 -0.30299807 0.3507419 -0.03283954 -0.9358962 77 73 69 255
0.18200874 8.244483 -0.06465125 0.35647276 -0.37686443 0.8549271 77 73 69 255
-0.5713196 6.9912176 -0.30299807 0.3564728 -0.37686443 0.8549271 77 73 69 255
0.08587456 5.7943716 -1.1046112 0.3564728 -0.37686446 0.8549271 77 73 69 255
-0.24401665 4.168641 0.2789476 0.22302897 -0.2277219 -0.9478401 77 73 69 255
-1.3068047 6.177392 -0.45373797 0.22302897 -0.2277219 -0.9478401 77 73 69 255
0.8457203 5.183736 0.2914846 0.22302897 -0.2277219 -0.9478401 77 73 69 255
1.2684059 -5.4378433 0.8691819 0.15999708 0.26478976 -0.9509402 77 73 69 255
-0.062763214 -3.1101522 1.2933583 0.15999708 0.26478976 -0.9509402 77 73 69 255
1.999857 -3.4706564 1.5400157 0.15999709 0.2647898 -0.9509402 77 73 69 255
1.2295723 -1.2839699 0.7921741 0.06059825 -0.30382422 -0.95079905 77 73 69 255
1.999857 -3.4706564 1.5400157 0.06059825 -0.30382425 -0.9507989 77 73 69 255
-0.062763214 -3.1101522 1.2933583 0.06059825 -0.30382422 -0.95079905 77 73 69 255
-0.062763214 -3.1101522 1.2933583 -0.4992642 0.11772777 -0.85841453 77 73 69 255
-0.2579174 1.7268572 2.0702357 -0.4992642 0.11772777 -0.8584145 77 73 69 255
1.2295723 -1.2839699 0.7921741 -0.4992642 0.11772776 -0.85841453 77 73 69 255
-0.2579174 1.7268572 2.0702357 -0.6840052 -0.02851376 -0.7289196 77 73 69 255
0.8044777 2.5804968 1.039907 -0.6840052 -0.028513756 -0.7289197 77 73 69 255
1.2295723 -1.2839699 0.7921741 -0.6840052 -0.02851376 -0.7289197 77 73 69 255
0.8044777 2.5804968 1.039907 -0.10655578 0.05193239 -0.99294966 77 73 69 255
1.9516392 0.91483116 0.8296869 -0.10655578 0.051932395 -0.99294966 77 73 69 255
1.2295723 -1.2839699 0.7921741 -0.106555775 0.05193239 -0.99294966 77 73 69 255
-0.2579174 1.7268572 2.0702357 -0.29472136 -0.56413925 -0.7712887 77 73 69 255
-0.24401665 4.168641 0.2789476 -0.29472136 -0.5641393 -0.7712887 77 73 69 255
0.8044777 2.5804968 1.039907 -0.29472134 -0.5641392 -0.7712887 77 73 69 255
-2.2884598 2.0941362 1.7267861 0.44233012 -0.035550587 -0.8961474 77 73 69 255
-0.7300987 -1.1351967 2.624089 0.44233012 -0.035550587 -0.8961474 77 73 69 255
-2.5751534 -0.3222208 1.6811342 0.44233012 -0.03555059 -0.89614743 77 73 69 255
-0.062763214 -3.1101522 1.2933583 0.71647966 0.2590199 -0.6477388 77 73 69 255
-1.5020943 -3.394205 -0.4123075 0.7164796 0.2590199 -0.6477388 77 73 69 255
-1.4280777 -1.3007622 0.5066955 0.7164796 0.25901988 -0.6477388 77 73 69 255
-1.5020943 -3.394205 -0.4123075 0.86979955 0.1722254 -0.4623712 77 73 69 255
-2.9360447 3.0357332 -0.71476746 0.86979955 0.1722254 -0.4623712 77 73 69 255
-1.4280777 -1.3007622 0.5066955 0.86979955 0.1722254 -0.46237114 77 73 69 255
-0.2579174 1.7268572 2.0702357 -0.8679017 0.04749987 -0.49445978 77 73 69 255
-0.062763214 -3.1101522 1.2933583 -0.8679016 0.047499876 -0.49445984 77 73 69 255
-0.7300987 -1.1351967 2.624089 -0.8679016 0.04749988 -0.49445984 77 73 69 255
-0.47873688 0.74800396 2.3941238 -0.8679016 0.047499873 -0.49445984 77 73 69 255
-2.9360447 3.0357332 -0.71476746 -0.053659607 -0.82404625 -0.5639755 77 73 69 255
-0.2579174 1.7268572 2.0702357 -0.05365961 -0.8240463 -0.5639755 77 73 69 255
-0.47873688 0.74800396 2.3941238 -0.053659614 -0.8240463 -0.5639755 77 73 69 255
-2.2884598 2.0941362 1.7267861 -0.053659607 -0.82404625 -0.56397545 77 73 69 255
-0.062763214 -3.1101522 1.2933583 0.8190276 0.4841745 -0.30784565 77 73 69 255
-1.4280777 -1.3007622 0.5066955 0.81902754 0.48417443 -0.30784565 77 73 69 255
-0.7300987 -1.1351967 2.624089 0.81902754 0.4841744 -0.30784562 77 73 69 255
-1.4280777 -1.3007622 0.5066955 0.6721349 -0.093623266 0.7344858 77 73 69 255
-2.2884598 2.0941362 1.7267861 0.67213494 -0.09362328 0.7344858 77 73 69 255
-2.5751534 -0.3222208 1.6811342 0.6721349 -0.093623266 0.73448575 77 73 69 255
-1.4280777 -1.3007622 0.5066955 0.9468312 0.29001668 -0.1392875 77 73 69 255
-2.9360447 3.0357332 -0.71476746 0.9468312 0.29001668 -0.13928749 77 73 69 255
-2.2884598 2.0941362 1.7267861 0.9468312 0.29001665 -0.13928749 77 73 69 255
-0.7300987 -1.1351967 2.624089 0.48737633 0.843278 -0.22659777 77 73 69 255
-1.4280777 -1.3007622 0.5066955 0.48737633 0.843278 -0.22659779 77 73 69 255
-2.5751534 -0.3222208 1.6811342 0.48737633 0.843278 -0.22659779 77 73 69 255
-0.10782623 -6.840498 1.2584524 0.37065834 0.0042130183 -0.92875975 77 73 69 255
-0.062763214 -3.1101522 1.2933583 0.37065834 0.0042130183 -0.92875975 77 73 69 255
0.5772667 -5.30188 1.538847 0.37065834 0.0042130183 -0.92875975 77 73 69 255
-0.062763214 -3.1101522 1.2933583 -0.6961384 -0.27744988 -0.6621276 77 73 69 255
1.2684059 -5.4378433 0.8691819 -0.6961384 -0.27744985 -0.6621276 77 73 69 255
0.5772667 -5.30188 1.538847 -0.6961384 -0.27744988 -0.6621276 77 73 69 255
1.2684059 -5.4378433 0.8691819 -0.5985607 0.39366177 -0.6976787 77 73 69 255
-0.10782623 -6.840498 1.2584524 -0.5985607 0.39366177 -0.6976787 77 73 69 255
0.5772667 -5.30188 1.538847 -0.5985607 0.3936618 -0.6976787 77 73 69 255
-0.062763214 -3.1101522 1.2933583 -0.243729 0.012018851 -0.96976894 77 73 69 255
-0.10782623 -6.840498 1.2584524 -0.24372903 0.012018853 -0.96976894 77 73 69 255
-1.6739407 -4.5671244 1.6802328 -0.243729 0.012018851 -0.96976894 77 73 69 255
-0.10782623 -6.840498 1.2584524 0.802637 0.4897692 0.34044087 77 73 69 255
-1.5020943 -3.394205 -0.4123075 0.802637 0.4897692 0.34044087 77 73 69 255
-1.6739407 -4.5671244 1.6802328 0.802637 0.48976913 0.34044084 77 73 69 255
-1.5020943 -3.394205 -0.4123075 0.57532585 -0.7327295 -0.36346608 77 73 69 255
-0.062763214 -3.1101522 1.2933583 0.57532585 -0.7327295 -0.3634661 77 73 69 255
-1.6739407 -4.5671244 1.6802328 0.5753259 -0.7327295 -0.3634661 77 73 69 255
0.18200874 8.244483 -0.06465125 0.869108 0.21021476 -0.44772872 77 73 69 255
-0.24427986 9.748548 -0.18595862 0.869108 0.21021473 -0.44772872 77 73 69 255
-0.050647736 9.586658 0.11389935 0.869108 0.21021476 -0.44772878 77 73 69 255
0.03484726 13.4485655 -0.2645762 0.81912106 -0.07388075 -0.56884307 77 73 69 255
-0.050647736 9.586658 0.11389935 0.819121 -0.07388075 -0.568843 77 73 69 255
-0.24427986 9.748548 -0.18595862 0.81912106 -0.073880754 -0.56884307 77 73 69 255
-0.97634315 -8.467106 -0.86983174 0.5838362 -0.35517815 0.7300574 77 73 69 255
0.22598839 -6.355961 -0.8042657 0.0051772175 -0.033987295 0.99940884 77 73 69 255
-1.4006596 -8.467106 0.015289307 0.5220351 -0.07231482 0.8498529 77 73 69 255
-0.4831276 -9.302831 0.19560146 -0.030698549 0.77949923 0.6256505 77 73 69 255
1.2042103 -7.6668696 -0.85391366 -0.030698549 0.7794993 0.62565047 77 73 69 255
-0.97634315 -8.467106 -0.86983174 -0.030698545 0.77949923 0.6256505 77 73 69 255
-1.4006596 -8.467106 0.015289307 -0.030698545 0.7794993 0.62565047 77 73 69 255
-1.4006596 -8.467106 0.015289307 0.43878895 0.2989052 -0.8474196 77 73 69 255
-0.10782623 -6.840498 1.2584524 0.43878895 0.29890522 -0.8474196 77 73 69 255
-0.4831276 -9.302831 0.19560146 0.43878898 0.2989052 -0.8474196 77 73 69 255
3 0 1 2
3 3 4 5
3 6 7 8
3 9 10 11
3 12 13 14
3 15 16 17
3 18 19 20
3 21 22 23
3 24 25 26
3 27 28 29
3 30 31 32
3 33 34 35
3 36 37 38
3 39 40 41
3 42 43 44
3 45 46 47
3 48 49 50
3 51 52 53
3 54 55 56
3 57 58 59
3 60 61 62
3 63 64 65
3 66 67 68
3 69 70 71
3 72 73 74
3 75 76 77
3 78 79 80
3 81 82 83
3 84 85 86
3 87 88 89
3 90 91 92
3 93 94 95
3 96 97 98
3 99 100 101
3 102 103 104
3 105 106 107
3 108 109 110
3 111 112 113
3 114 115 116
3 117 118 119
3 120 121 122
3 123 124 125
3 126 127 128
3 129 130 131
3 132 133 134
3 135 136 137
3 138 139 140
3 141 142 143
3 144 145 146
3 147 148 149
3 150 151 152
3 153 154 155
3 156 157 158
3 159 160 161
3 162 163 164
3 165 166 167
3 168 169 170
3 171 172 173
3 174 175 176
3 177 178 179
3 180 181 182
3 183 184 185
3 186 187 188
3 189 190 191
3 192 193 194
3 195 196 197
3 198 199 200
3 201 202 203
3 204 205 206
3 207 208 209
3 210 211 212
3 213 214 215
3 216 217 218
3 219 220 221
3 222 223 224
3 225 226 227
3 228 229 230
3 231 232 233
3 234 235 236
3 234 236 237
3 238 239 240
3 238 240 241
3 242 243 244
3 245 246 247
3 248 249 250
3 251 252 253
3 254 255 256
3 257 258 259
3 260 261 262
3 263 264 265
3 266 267 268
3 269 270 271
3 272 273 274
3 275 276 277
3 278 279 280
3 281 282 283
3 281 283 284
3 285 286 287

