ply
format ascii 1.0
commentY29udmVydGVyIGJ5IENvZGVMZW9wYXJk
comment Original mesh name: 'C:\Program Files (x86)\Steam\steamapps\common\Stormworks\rom\meshes\cloud_03.mesh'
comment SubMesh index: 0
comment SubMesh name: ''
comment Shader: Opaque (0)
element vertex 110
property float x
property float y
property float z
property float nx
property float ny
property float nz
property uchar red
property uchar green
property uchar blue
property uchar alpha
element face 38
property list uchar ushort vertex_index
end_header
0.24290085 2.6003642 0.09341019 -0.55895424 -0.04664337 0.8278856 77 73 69 255
-0.3258009 0.39071083 -0.41504684 -0.55895424 -0.046643373 0.8278856 77 73 69 255
0.33494484 1.4973469 0.09341019 -0.55895424 -0.046643365 0.8278856 77 73 69 255
0.40529478 -2.588251 0.09341019 0.24974656 0.100381404 0.9630941 77 73 69 255
0.6487379 -0.8481951 -0.15108149 0.24974655 0.100381404 0.9630941 77 73 69 255
-0.22429132 -1.0218534 0.09341019 0.24974656 0.100381404 0.9630941 77 73 69 255
0.4740045 0.5444088 -0.1696325 -0.53568405 -0.20296739 0.8196627 77 73 69 255
-0.017883062 0.13900185 -0.5914902 -0.535684 -0.20296739 0.8196627 77 73 69 255
0.45678794 -0.44943714 -0.42698333 -0.53568405 -0.20296742 0.8196627 77 73 69 255
0.8110237 -0.4621973 0.09341019 -0.82167697 -0.12409728 0.5562795 77 73 69 255
0.6205925 0.7986946 0.09341019 -0.817561 -0.12689213 0.5616872 77 73 69 255
0.45678794 -0.44943714 -0.42698333 -0.8209199 -0.12461408 0.5572807 77 73 69 255
0.4740045 0.5444088 -0.1696325 -0.80359215 -0.13611364 0.57940716 77 73 69 255
-0.22429132 -1.0218534 0.09341019 0.86631155 0.4756509 0.1525143 77 73 69 255
-0.23632598 -0.85928917 -0.3452285 0.86631155 0.4756509 0.1525143 77 73 69 255
-0.5247884 -0.47455692 0.09341019 0.86631155 0.4756509 0.1525143 77 73 69 255
-0.23632598 -0.85928917 -0.3452285 0.40545782 -0.5383124 0.73879886 77 73 69 255
0.45678794 -0.44943714 -0.42698333 0.40545782 -0.5383124 0.73879886 77 73 69 255
-0.5247884 -0.47455692 0.09341019 0.40545776 -0.5383123 0.73879886 77 73 69 255
0.33494484 1.4973469 0.09341019 -0.6532901 -0.26710093 0.7084273 77 73 69 255
0.12010205 1.0113602 -0.2879445 -0.65329003 -0.26710096 0.70842737 77 73 69 255
0.6205925 0.7986946 0.09341019 -0.65329003 -0.26710096 0.70842737 77 73 69 255
0.8110237 -0.4621973 0.09341019 -0.925367 0.1765938 0.3354261 77 73 69 255
0.6487379 -0.8481951 -0.15108149 -0.925367 0.17659378 0.33542606 77 73 69 255
0.40529478 -2.588251 0.09341019 -0.92536694 0.1765938 0.3354261 77 73 69 255
-0.5247884 -0.47455692 0.09341019 0.9697074 -0.24209863 -0.032491323 77 73 69 255
-0.3258009 0.39071083 -0.41504684 0.96970755 -0.24209861 -0.032491323 77 73 69 255
0.24290085 2.6003642 0.09341019 0.96970755 -0.24209861 -0.032491323 77 73 69 255
0.45678794 -0.44943714 -0.42698333 -0.19218323 0.49413663 0.84787655 77 73 69 255
-0.23632598 -0.85928917 -0.3452285 -0.19218326 0.49413672 0.84787655 77 73 69 255
0.6487379 -0.8481951 -0.15108149 -0.19218324 0.49413666 0.84787655 77 73 69 255
-0.23632598 -0.85928917 -0.3452285 -0.08809874 0.933239 0.34828663 77 73 69 255
-0.22429132 -1.0218534 0.09341019 -0.08809875 0.933239 0.34828663 77 73 69 255
0.6487379 -0.8481951 -0.15108149 -0.08809875 0.933239 0.3482867 77 73 69 255
0.4740045 0.5444088 -0.1696325 -0.53767437 -0.19996658 0.8190969 77 73 69 255
0.12010205 1.0113602 -0.2879445 -0.5376743 -0.19996656 0.81909686 77 73 69 255
-0.017883062 0.13900185 -0.5914902 -0.53767437 -0.19996655 0.8190969 77 73 69 255
0.45678794 -0.44943714 -0.42698333 -0.8267232 -0.008734506 0.56254095 77 73 69 255
0.6487379 -0.8481951 -0.15108149 -0.8267232 -0.008734507 0.56254095 77 73 69 255
0.8110237 -0.4621973 0.09341019 -0.8267232 -0.008734507 0.56254107 77 73 69 255
0.6205925 0.7986946 0.09341019 -0.65667474 -0.3252939 0.68041325 77 73 69 255
0.12010205 1.0113602 -0.2879445 -0.65667474 -0.3252939 0.68041325 77 73 69 255
0.4740045 0.5444088 -0.1696325 -0.65667474 -0.3252939 0.6804133 77 73 69 255
-0.017883062 0.13900185 -0.5914902 0.23172055 -0.35217977 0.9067938 77 73 69 255
0.12010205 1.0113602 -0.2879445 0.2317205 -0.35217974 0.9067938 77 73 69 255
-0.3258009 0.39071083 -0.41504684 0.23172055 -0.35217977 0.9067938 77 73 69 255
0.12010205 1.0113602 -0.2879445 0.7268085 -0.5931054 0.34637466 77 73 69 255
0.33494484 1.4973469 0.09341019 0.72680855 -0.5931054 0.34637472 77 73 69 255
-0.3258009 0.39071083 -0.41504684 0.7268085 -0.5931053 0.34637466 77 73 69 255
-0.5247884 -0.47455692 0.09341019 0.3881692 0.52489144 0.7575049 77 73 69 255
0.45678794 -0.44943714 -0.42698333 0.3881692 0.52489144 0.75750494 77 73 69 255
-0.017883062 0.13900185 -0.5914902 0.3881692 0.52489144 0.7575049 77 73 69 255
-0.5247884 -0.47455692 0.09341019 0.6376809 0.27595782 0.71917343 77 73 69 255
-0.017883062 0.13900185 -0.5914902 0.6376809 0.27595782 0.71917343 77 73 69 255
-0.3258009 0.39071083 -0.41504684 0.6376809 0.2759578 0.7191734 77 73 69 255
0.24290085 2.6003642 0.09341019 -0.5228079 -0.04362695 -0.85133344 77 73 69 255
0.33494484 1.4973469 0.09341019 -0.52280784 -0.043626953 -0.85133344 77 73 69 255
-0.19984102 0.39071083 0.4785341 -0.5228078 -0.04362695 -0.85133344 77 73 69 255
0.40529478 -2.588251 0.09341019 0.24974647 0.10038136 -0.9630941 77 73 69 255
-0.22429132 -1.0218534 0.09341019 0.24974649 0.10038135 -0.9630941 77 73 69 255
0.6487379 -0.8481951 0.33790183 0.24974652 0.10038136 -0.9630941 77 73 69 255
0.4740045 0.5444088 0.80875593 0.34109622 0.17525361 -0.92354727 77 73 69 255
0.45678794 -0.44943714 0.6138037 0.3410962 0.17525361 -0.92354727 77 73 69 255
0.10807693 0.13900185 0.596676 0.3410962 0.17525361 -0.92354727 77 73 69 255
0.8110237 -0.4621973 0.09341019 -0.821677 -0.12409732 -0.5562794 77 73 69 255
0.45678794 -0.44943714 0.6138037 -0.89332825 -0.06797763 -0.44423372 77 73 69 255
0.6205925 0.7986946 0.09341019 -0.9439864 -0.013577771 -0.32970476 77 73 69 255
0.4740045 0.5444088 0.80875593 -0.9818017 0.05279209 -0.182424 77 73 69 255
-0.22429132 -1.0218534 0.09341019 0.86631155 0.47565085 -0.15251447 77 73 69 255
-0.5247884 -0.47455692 0.09341019 0.86631155 0.47565085 -0.15251446 77 73 69 255
-0.23632598 -0.85928917 0.5320489 0.86631155 0.4756509 -0.15251447 77 73 69 255
-0.23632598 -0.85928917 0.5320489 0.40545776 -0.5383123 -0.73879886 77 73 69 255
-0.5247884 -0.47455692 0.09341019 0.40545782 -0.5383123 -0.73879886 77 73 69 255
0.45678794 -0.44943714 0.6138037 0.40545782 -0.5383123 -0.7387989 77 73 69 255
0.33494484 1.4973469 0.09341019 -0.69810855 -0.28542492 -0.65664077 77 73 69 255
0.6205925 0.7986946 0.09341019 -0.69810855 -0.28542492 -0.6566407 77 73 69 255
0.12010205 1.0113602 0.5330664 -0.69810855 -0.28542495 -0.65664077 77 73 69 255
0.8110237 -0.4621973 0.09341019 -0.925367 0.17659377 -0.3354261 77 73 69 255
0.40529478 -2.588251 0.09341019 -0.92536694 0.17659378 -0.3354261 77 73 69 255
0.6487379 -0.8481951 0.33790183 -0.925367 0.17659377 -0.33542606 77 73 69 255
-0.5247884 -0.47455692 0.09341019 0.93563324 -0.23359151 -0.26462317 77 73 69 255
0.24290085 2.6003642 0.09341019 0.93563324 -0.23359156 -0.26462317 77 73 69 255
-0.19984102 0.39071083 0.4785341 0.93563324 -0.23359154 -0.26462314 77 73 69 255
0.45678794 -0.44943714 0.6138037 -0.19218323 0.49413654 -0.84787655 77 73 69 255
0.6487379 -0.8481951 0.33790183 -0.19218326 0.49413663 -0.84787655 77 73 69 255
-0.23632598 -0.85928917 0.5320489 -0.19218326 0.49413663 -0.84787655 77 73 69 255
-0.23632598 -0.85928917 0.5320489 -0.08809874 0.933239 -0.34828663 77 73 69 255
0.6487379 -0.8481951 0.33790183 -0.08809875 0.933239 -0.34828666 77 73 69 255
-0.22429132 -1.0218534 0.09341019 -0.08809875 0.93323904 -0.34828663 77 73 69 255
0.4740045 0.5444088 0.80875593 0.5556636 -0.06807959 -0.8286152 77 73 69 255
0.10807693 0.13900185 0.596676 0.5556635 -0.06807958 -0.82861525 77 73 69 255
0.12010205 1.0113602 0.5330664 0.5556636 -0.068079576 -0.82861525 77 73 69 255
0.45678794 -0.44943714 0.6138037 -0.8267237 -0.008734445 -0.5625403 77 73 69 255
0.8110237 -0.4621973 0.09341019 -0.8267237 -0.008734445 -0.5625403 77 73 69 255
0.6487379 -0.8481951 0.33790183 -0.8267237 -0.008734445 -0.56254035 77 73 69 255
0.6205925 0.7986946 0.09341019 -0.62045324 -0.69014734 -0.3724707 77 73 69 255
0.4740045 0.5444088 0.80875593 -0.62045324 -0.69014734 -0.37247074 77 73 69 255
0.12010205 1.0113602 0.5330664 -0.62045324 -0.69014734 -0.37247074 77 73 69 255
0.10807693 0.13900185 0.596676 0.3043509 -0.073446214 -0.9497242 77 73 69 255
-0.19984102 0.39071083 0.4785341 0.3043509 -0.07344622 -0.9497242 77 73 69 255
0.12010205 1.0113602 0.5330664 0.30435094 -0.07344622 -0.9497242 77 73 69 255
0.12010205 1.0113602 0.5330664 0.88926685 -0.45263374 -0.06578185 77 73 69 255
-0.19984102 0.39071083 0.4785341 0.88926685 -0.45263374 -0.06578185 77 73 69 255
0.33494484 1.4973469 0.09341019 0.88926685 -0.45263368 -0.06578185 77 73 69 255
-0.5247884 -0.47455692 0.09341019 0.4497128 0.24147193 -0.8599126 77 73 69 255
0.10807693 0.13900185 0.596676 0.44971278 0.24147193 -0.8599126 77 73 69 255
0.45678794 -0.44943714 0.6138037 0.4497129 0.24147195 -0.8599126 77 73 69 255
-0.5247884 -0.47455692 0.09341019 0.48684278 0.19603524 -0.8512076 77 73 69 255
-0.19984102 0.39071083 0.4785341 0.48684278 0.19603525 -0.8512076 77 73 69 255
0.10807693 0.13900185 0.596676 0.48684275 0.19603519 -0.85120755 77 73 69 255
3 0 1 2
3 3 4 5
3 6 7 8
3 9 10 11
3 10 12 11
3 13 14 15
3 16 17 18
3 19 20 21
3 22 23 24
3 25 26 27
3 28 29 30
3 31 32 33
3 34 35 36
3 37 38 39
3 40 41 42
3 43 44 45
3 46 47 48
3 49 50 51
3 52 53 54
3 55 56 57
3 58 59 60
3 61 62 63
3 64 65 66
3 66 65 67
3 68 69 70
3 71 72 73
3 74 75 76
3 77 78 79
3 80 81 82
3 83 84 85
3 86 87 88
3 89 90 91
3 92 93 94
3 95 96 97
3 98 99 100
3 101 102 103
3 104 105 106
3 107 108 109

