ply
format ascii 1.0
commentY29udmVydGVyIGJ5IENvZGVMZW9wYXJk
comment Original mesh name: 'C:\Program Files (x86)\Steam\steamapps\common\Stormworks\rom\meshes\component_gun_m_bore_evacuator_additive_a.mesh'
comment SubMesh index: 0
comment SubMesh name: 'ID28'
comment Shader: Emissive (2)
element vertex 312
property float x
property float y
property float z
property float nx
property float ny
property float nz
property uchar red
property uchar green
property uchar blue
property uchar alpha
element face 214
property list uchar ushort vertex_index
end_header
0.043492418 0.105 0.14999996 -0.70710677 -0.70710677 -0 255 255 0 255
0.105 0.043492418 -0.36 -0.70710677 -0.70710677 -0 255 255 0 255
0.105 0.043492418 0.14999996 -0.70710677 -0.70710677 -0 255 255 0 255
0.043492418 0.105 -0.36 -0.70710677 -0.70710677 -0 255 255 0 255
0.105 -0.043492418 0.14999996 0 -0 -1 255 255 0 255
0.094999984 -0.039350286 0.14999996 0 -0 -1 255 255 0 255
0.105 0.043492418 0.14999996 0 -0 -1 255 255 0 255
0.043492418 -0.105 0.14999996 0 -0 -1 255 255 0 255
0.039350286 -0.094999984 0.14999996 0 -0 -1 255 255 0 255
-0.043492418 -0.105 0.14999996 0 -0 -1 255 255 0 255
-0.039350286 -0.094999984 0.14999996 0 -0 -1 255 255 0 255
-0.094999984 -0.039350286 0.14999996 0 -0 -1 255 255 0 255
-0.105 -0.043492418 0.14999996 0 -0 -1 255 255 0 255
-0.094999984 0.039350286 0.14999996 0 -0 -1 255 255 0 255
0.094999984 0.039350286 0.14999996 0 -0 -1 255 255 0 255
0.043492418 0.105 0.14999996 0 -0 -1 255 255 0 255
0.039350286 0.094999984 0.14999996 0 -0 -1 255 255 0 255
-0.043492418 0.105 0.14999996 0 -0 -1 255 255 0 255
-0.039350286 0.094999984 0.14999996 0 -0 -1 255 255 0 255
-0.105 0.043492418 0.14999996 0 -0 -1 255 255 0 255
0.043492418 0.105 0.14999996 0 -1 -0 255 255 0 255
-0.043492418 0.105 -0.36 0 -1 -0 255 255 0 255
0.043492418 0.105 -0.36 0 -1 -0 255 255 0 255
-0.043492418 0.105 0.14999996 0 -1 -0 255 255 0 255
0.105 0.043492418 -0.36 0 -0 1 255 255 0 255
0.094999984 0.039350286 -0.36 0 -0 1 255 255 0 255
0.105 -0.043492418 -0.36 0 -0 1 255 255 0 255
0.043492418 0.105 -0.36 0 -0 1 255 255 0 255
0.039350286 0.094999984 -0.36 0 -0 1 255 255 0 255
-0.043492418 0.105 -0.36 0 -0 1 255 255 0 255
-0.039350286 0.094999984 -0.36 0 -0 1 255 255 0 255
-0.094999984 0.039350286 -0.36 0 -0 1 255 255 0 255
-0.105 0.043492418 -0.36 0 -0 1 255 255 0 255
-0.094999984 -0.039350286 -0.36 0 -0 1 255 255 0 255
0.094999984 -0.039350286 -0.36 0 -0 1 255 255 0 255
0.043492418 -0.105 -0.36 0 -0 1 255 255 0 255
0.039350286 -0.094999984 -0.36 0 -0 1 255 255 0 255
-0.043492418 -0.105 -0.36 0 -0 1 255 255 0 255
-0.039350286 -0.094999984 -0.36 0 -0 1 255 255 0 255
-0.105 -0.043492418 -0.36 0 -0 1 255 255 0 255
0.105 0.043492418 0.14999996 -1 -0 -0 255 255 0 255
0.105 -0.043492418 -0.36 -1 -0 -0 255 255 0 255
0.105 -0.043492418 0.14999996 -1 -0 -0 255 255 0 255
0.105 0.043492418 -0.36 -1 -0 -0 255 255 0 255
-0.043492418 0.105 -0.36 0.70710677 -0.70710677 -0 255 255 0 255
-0.105 0.043492418 0.14999996 0.70710677 -0.70710677 -0 255 255 0 255
-0.105 0.043492418 -0.36 0.70710677 -0.70710677 -0 255 255 0 255
-0.043492418 0.105 0.14999996 0.70710677 -0.70710677 -0 255 255 0 255
0.105 -0.043492418 0.14999996 -0.70710677 0.70710677 -0 255 255 0 255
0.043492418 -0.105 -0.36 -0.70710677 0.70710677 -0 255 255 0 255
0.043492418 -0.105 0.14999996 -0.70710677 0.70710677 -0 255 255 0 255
0.105 -0.043492418 -0.36 -0.70710677 0.70710677 -0 255 255 0 255
-0.043492418 -0.105 0.14999996 0 1 -0 255 255 0 255
0.043492418 -0.105 -0.36 0 1 -0 255 255 0 255
-0.043492418 -0.105 -0.36 0 1 -0 255 255 0 255
0.043492418 -0.105 0.14999996 0 1 -0 255 255 0 255
-0.105 -0.043492418 -0.36 0.70710677 0.70710677 -0 255 255 0 255
-0.043492418 -0.105 0.14999996 0.70710677 0.70710677 -0 255 255 0 255
-0.043492418 -0.105 -0.36 0.70710677 0.70710677 -0 255 255 0 255
-0.105 -0.043492418 0.14999996 0.70710677 0.70710677 -0 255 255 0 255
-0.105 0.043492418 -0.36 1 -0 -0 255 255 0 255
-0.105 -0.043492418 0.14999996 1 -0 -0 255 255 0 255
-0.105 -0.043492418 -0.36 1 -0 -0 255 255 0 255
-0.105 0.043492418 0.14999996 1 -0 -0 255 255 0 255
0.031066028 -0.074999996 0.16499996 0 -0 -1 255 255 0 255
0.074999996 0.031066028 0.16499996 0 -0 -1 255 255 0 255
0.074999996 -0.031066028 0.16499996 0 -0 -1 255 255 0 255
0.037078056 -0.015358234 0.16499996 0 -0 -1 255 255 0 255
0.015358234 -0.037078056 0.16499996 0 -0 -1 255 255 0 255
-0.031066028 -0.074999996 0.16499996 0 -0 -1 255 255 0 255
-0.015358234 -0.037078056 0.16499996 0 -0 -1 255 255 0 255
-0.037078056 -0.015358234 0.16499996 0 -0 -1 255 255 0 255
-0.074999996 -0.031066028 0.16499996 0 -0 -1 255 255 0 255
-0.037078056 0.015358234 0.16499996 0 -0 -1 255 255 0 255
0.037078056 0.015358234 0.16499996 0 -0 -1 255 255 0 255
0.031066028 0.074999996 0.16499996 0 -0 -1 255 255 0 255
0.015358234 0.037078056 0.16499996 0 -0 -1 255 255 0 255
-0.031066028 0.074999996 0.16499996 0 -0 -1 255 255 0 255
-0.015358234 0.037078056 0.16499996 0 -0 -1 255 255 0 255
-0.074999996 0.031066028 0.16499996 0 -0 -1 255 255 0 255
0.015358234 -0.037078056 0.08999989 0 -0 -1 255 255 0 255
0.037078056 0.015358234 0.08999989 0 -0 -1 255 255 0 255
0.037078056 -0.015358234 0.08999989 0 -0 -1 255 255 0 255
0.015358234 0.037078056 0.08999989 0 -0 -1 255 255 0 255
-0.015358234 -0.037078056 0.08999989 0 -0 -1 255 255 0 255
-0.015358234 0.037078056 0.08999989 0 -0 -1 255 255 0 255
-0.037078056 -0.015358234 0.08999989 0 -0 -1 255 255 0 255
-0.037078056 0.015358234 0.08999989 0 -0 -1 255 255 0 255
0.015358234 -0.037078056 0.16499996 1.096242E-30 -1 1.925095E-14 255 255 0 255
-0.015358234 -0.037078056 0.08999989 1.096242E-30 -1 1.925095E-14 255 255 0 255
0.015358234 -0.037078056 0.08999989 1.096242E-30 -1 1.925095E-14 255 255 0 255
-0.015358234 -0.037078056 0.16499996 1.096242E-30 -1 1.925095E-14 255 255 0 255
-0.015358234 -0.037078056 0.16499996 -0.70710677 -0.70710677 -1.3605158E-14 255 255 0 255
-0.037078056 -0.015358234 0.08999989 -0.70710677 -0.70710677 -1.3605158E-14 255 255 0 255
-0.015358234 -0.037078056 0.08999989 -0.70710677 -0.70710677 -1.3605158E-14 255 255 0 255
-0.037078056 -0.015358234 0.16499996 -0.70710677 -0.70710677 -1.3605158E-14 255 255 0 255
-0.037078056 -0.015358234 0.16499996 -1 -0 -0 255 255 0 255
-0.037078056 0.015358234 0.08999989 -1 -0 -0 255 255 0 255
-0.037078056 -0.015358234 0.08999989 -1 -0 -0 255 255 0 255
-0.037078056 0.015358234 0.16499996 -1 -0 -0 255 255 0 255
-0.015358234 0.037078056 0.16499996 -0.70710677 0.70710677 -2.7219326E-14 255 255 0 255
-0.037078056 0.015358234 0.08999989 -0.70710677 0.70710677 -2.7219326E-14 255 255 0 255
-0.037078056 0.015358234 0.16499996 -0.70710677 0.70710677 -2.7219326E-14 255 255 0 255
-0.015358234 0.037078056 0.08999989 -0.70710677 0.70710677 -2.7219326E-14 255 255 0 255
-0.015358234 0.037078056 0.16499996 0 1 -0 255 255 0 255
0.015358234 0.037078056 0.08999989 0 1 -0 255 255 0 255
-0.015358234 0.037078056 0.08999989 0 1 -0 255 255 0 255
0.015358234 0.037078056 0.16499996 0 1 -0 255 255 0 255
0.015358234 0.037078056 0.16499996 0.70710677 0.70710677 2.7219326E-14 255 255 0 255
0.037078056 0.015358234 0.08999989 0.70710677 0.70710677 2.7219326E-14 255 255 0 255
0.015358234 0.037078056 0.08999989 0.70710677 0.70710677 2.7219326E-14 255 255 0 255
0.037078056 0.015358234 0.16499996 0.70710677 0.70710677 2.7219326E-14 255 255 0 255
0.037078056 0.015358234 0.08999989 1 -0 -0 255 255 0 255
0.037078056 -0.015358234 0.16499996 1 -0 -0 255 255 0 255
0.037078056 -0.015358234 0.08999989 1 -0 -0 255 255 0 255
0.037078056 0.015358234 0.16499996 1 -0 -0 255 255 0 255
0.037078056 -0.015358234 0.16499996 0.70710677 -0.70710677 4.0833497E-14 255 255 0 255
0.015358234 -0.037078056 0.08999989 0.70710677 -0.70710677 4.0833497E-14 255 255 0 255
0.037078056 -0.015358234 0.08999989 0.70710677 -0.70710677 4.0833497E-14 255 255 0 255
0.015358234 -0.037078056 0.16499996 0.70710677 -0.70710677 4.0833497E-14 255 255 0 255
0.015358234 -0.037078056 0.37499997 -1.487963E-31 -1 -6.8753457E-15 255 255 0 255
-0.015358234 -0.037078056 0.37499997 -1.487963E-31 -1 -6.8753457E-15 255 255 0 255
-0.015358234 -0.037078056 0.37499997 -0.70710677 -0.70710677 4.86267E-15 255 255 0 255
-0.037078056 -0.015358234 0.37499997 -0.70710677 -0.70710677 4.86267E-15 255 255 0 255
-0.037078056 0.015358234 0.37499997 -1 -0 -0 255 255 0 255
-0.037078056 -0.015358234 0.37499997 -1 -0 -0 255 255 0 255
-0.015358234 0.037078056 0.37499997 -0.70710677 0.70710677 9.723044E-15 255 255 0 255
-0.037078056 0.015358234 0.37499997 -0.70710677 0.70710677 9.723044E-15 255 255 0 255
-0.015358234 0.037078056 0.37499997 0 1 -0 255 255 0 255
0.015358234 0.037078056 0.37499997 0 1 -0 255 255 0 255
0.015358234 0.037078056 0.37499997 0.70710677 0.70710677 -9.723044E-15 255 255 0 255
0.037078056 0.015358234 0.37499997 0.70710677 0.70710677 -9.723044E-15 255 255 0 255
0.037078056 0.015358234 0.37499997 1 -0 -0 255 255 0 255
0.037078056 -0.015358234 0.37499997 1 -0 -0 255 255 0 255
0.037078056 -0.015358234 0.37499997 0.70710677 -0.70710677 -1.4583417E-14 255 255 0 255
0.015358234 -0.037078056 0.37499997 0.70710677 -0.70710677 -1.4583417E-14 255 255 0 255
-0.094999984 0.039350286 -0.37499997 1 -0 -0 255 255 0 255
-0.094999984 -0.039350286 -0.36 1 -0 -0 255 255 0 255
-0.094999984 -0.039350286 -0.37499997 1 -0 -0 255 255 0 255
-0.094999984 0.039350286 -0.36 1 -0 -0 255 255 0 255
-0.094999984 -0.039350286 -0.37499997 0.70710677 0.70710677 -0 255 255 0 255
-0.039350286 -0.094999984 -0.36 0.70710677 0.70710677 -0 255 255 0 255
-0.039350286 -0.094999984 -0.37499997 0.70710677 0.70710677 -0 255 255 0 255
-0.094999984 -0.039350286 -0.36 0.70710677 0.70710677 -0 255 255 0 255
0.039350286 0.094999984 -0.37499997 0 -0 1 255 255 0 255
0.094999984 -0.039350286 -0.37499997 0 -0 1 255 255 0 255
0.094999984 0.039350286 -0.37499997 0 -0 1 255 255 0 255
0.039350286 -0.094999984 -0.37499997 0 -0 1 255 255 0 255
0.037078056 0.015358234 -0.37499997 0 -0 1 255 255 0 255
-0.039350286 0.094999984 -0.37499997 0 -0 1 255 255 0 255
0.015358234 0.037078056 -0.37499997 0 -0 1 255 255 0 255
-0.015358234 0.037078056 -0.37499997 0 -0 1 255 255 0 255
-0.037078056 0.015358234 -0.37499997 0 -0 1 255 255 0 255
-0.037078056 -0.015358234 -0.37499997 0 -0 1 255 255 0 255
-0.039350286 -0.094999984 -0.37499997 0 -0 1 255 255 0 255
-0.094999984 -0.039350286 -0.37499997 0 -0 1 255 255 0 255
-0.094999984 0.039350286 -0.37499997 0 -0 1 255 255 0 255
0.037078056 -0.015358234 -0.37499997 0 -0 1 255 255 0 255
0.015358234 -0.037078056 -0.37499997 0 -0 1 255 255 0 255
-0.015358234 -0.037078056 -0.37499997 0 -0 1 255 255 0 255
-0.039350286 0.094999984 -0.37499997 0.70710677 -0.70710677 1.1255149E-16 255 255 0 255
-0.094999984 0.039350286 -0.36 0.70710677 -0.70710677 1.1255149E-16 255 255 0 255
-0.094999984 0.039350286 -0.37499997 0.70710677 -0.70710677 1.1255149E-16 255 255 0 255
-0.039350286 0.094999984 -0.36 0.70710677 -0.70710677 1.1255149E-16 255 255 0 255
-0.039350286 -0.094999984 -0.36 0 1 -0 255 255 0 255
0.039350286 -0.094999984 -0.37499997 0 1 -0 255 255 0 255
-0.039350286 -0.094999984 -0.37499997 0 1 -0 255 255 0 255
0.039350286 -0.094999984 -0.36 0 1 -0 255 255 0 255
0.094999984 -0.039350286 -0.36 -0.70710677 0.70710677 -0 255 255 0 255
0.039350286 -0.094999984 -0.37499997 -0.70710677 0.70710677 -0 255 255 0 255
0.039350286 -0.094999984 -0.36 -0.70710677 0.70710677 -0 255 255 0 255
0.094999984 -0.039350286 -0.37499997 -0.70710677 0.70710677 -0 255 255 0 255
0.094999984 0.039350286 -0.36 -1 -0 -0 255 255 0 255
0.094999984 -0.039350286 -0.37499997 -1 -0 -0 255 255 0 255
0.094999984 -0.039350286 -0.36 -1 -0 -0 255 255 0 255
0.094999984 0.039350286 -0.37499997 -1 -0 -0 255 255 0 255
0.039350286 0.094999984 -0.36 -0.70710677 -0.70710677 -0 255 255 0 255
0.094999984 0.039350286 -0.37499997 -0.70710677 -0.70710677 -0 255 255 0 255
0.094999984 0.039350286 -0.36 -0.70710677 -0.70710677 -0 255 255 0 255
0.039350286 0.094999984 -0.37499997 -0.70710677 -0.70710677 -0 255 255 0 255
0.039350286 0.094999984 -0.36 0 -1 -0 255 255 0 255
-0.039350286 0.094999984 -0.37499997 0 -1 -0 255 255 0 255
0.039350286 0.094999984 -0.37499997 0 -1 -0 255 255 0 255
-0.039350286 0.094999984 -0.36 0 -1 -0 255 255 0 255
0.026923873 -0.06499999 0.37499997 0 -0 -1 255 255 0 255
0.06499999 0.026923873 0.37499997 0 -0 -1 255 255 0 255
0.06499999 -0.026923873 0.37499997 0 -0 -1 255 255 0 255
0.037078056 -0.015358234 0.37499997 0 -0 -1 255 255 0 255
0.015358234 -0.037078056 0.37499997 0 -0 -1 255 255 0 255
-0.026923873 -0.06499999 0.37499997 0 -0 -1 255 255 0 255
-0.015358234 -0.037078056 0.37499997 0 -0 -1 255 255 0 255
-0.037078056 -0.015358234 0.37499997 0 -0 -1 255 255 0 255
-0.06499999 -0.026923873 0.37499997 0 -0 -1 255 255 0 255
-0.037078056 0.015358234 0.37499997 0 -0 -1 255 255 0 255
0.037078056 0.015358234 0.37499997 0 -0 -1 255 255 0 255
0.026923873 0.06499999 0.37499997 0 -0 -1 255 255 0 255
0.015358234 0.037078056 0.37499997 0 -0 -1 255 255 0 255
-0.026923873 0.06499999 0.37499997 0 -0 -1 255 255 0 255
-0.015358234 0.037078056 0.37499997 0 -0 -1 255 255 0 255
-0.06499999 0.026923873 0.37499997 0 -0 -1 255 255 0 255
-0.074999996 -0.031066028 0.365 0.7071059 -3.761516E-18 -0.7071077 255 255 0 255
-0.06499999 0.026923873 0.37499997 0.7071059 -3.761516E-18 -0.7071077 255 255 0 255
-0.06499999 -0.026923873 0.37499997 0.7071059 -3.761516E-18 -0.7071077 255 255 0 255
-0.074999996 0.031066028 0.365 0.7071059 -3.761516E-18 -0.7071077 255 255 0 255
-0.06499999 0.026923873 0.37499997 0.49999902 -0.49999902 -0.70710814 255 255 0 255
-0.031066028 0.074999996 0.365 0.49999902 -0.49999902 -0.70710814 255 255 0 255
-0.026923873 0.06499999 0.37499997 0.49999902 -0.49999902 -0.70710814 255 255 0 255
-0.074999996 0.031066028 0.365 0.49999902 -0.49999902 -0.70710814 255 255 0 255
0.026923873 0.06499999 0.37499997 0 -0.7071059 -0.7071077 255 255 0 255
-0.031066028 0.074999996 0.365 0 -0.7071059 -0.7071077 255 255 0 255
0.031066028 0.074999996 0.365 0 -0.7071059 -0.7071077 255 255 0 255
-0.026923873 0.06499999 0.37499997 0 -0.7071059 -0.7071077 255 255 0 255
0.06499999 0.026923873 0.37499997 -0.49999902 -0.49999902 -0.70710814 255 255 0 255
0.031066028 0.074999996 0.365 -0.49999902 -0.49999902 -0.70710814 255 255 0 255
0.074999996 0.031066028 0.365 -0.49999902 -0.49999902 -0.70710814 255 255 0 255
0.026923873 0.06499999 0.37499997 -0.49999902 -0.49999902 -0.70710814 255 255 0 255
0.06499999 -0.026923873 0.37499997 -0.7071059 -1.533864E-20 -0.7071077 255 255 0 255
0.074999996 0.031066028 0.365 -0.7071059 -1.533864E-20 -0.7071077 255 255 0 255
0.074999996 -0.031066028 0.365 -0.7071059 -1.533864E-20 -0.7071077 255 255 0 255
0.06499999 0.026923873 0.37499997 -0.7071059 -1.533864E-20 -0.7071077 255 255 0 255
0.031066028 -0.074999996 0.365 -0.49999902 0.49999902 -0.70710814 255 255 0 255
0.06499999 -0.026923873 0.37499997 -0.49999902 0.49999902 -0.70710814 255 255 0 255
0.074999996 -0.031066028 0.365 -0.49999902 0.49999902 -0.70710814 255 255 0 255
0.026923873 -0.06499999 0.37499997 -0.49999902 0.49999902 -0.70710814 255 255 0 255
-0.031066028 -0.074999996 0.365 0 0.7071059 -0.7071077 255 255 0 255
0.026923873 -0.06499999 0.37499997 0 0.7071059 -0.7071077 255 255 0 255
0.031066028 -0.074999996 0.365 0 0.7071059 -0.7071077 255 255 0 255
-0.026923873 -0.06499999 0.37499997 0 0.7071059 -0.7071077 255 255 0 255
-0.031066028 -0.074999996 0.365 0.49999902 0.49999902 -0.70710814 255 255 0 255
-0.06499999 -0.026923873 0.37499997 0.49999902 0.49999902 -0.70710814 255 255 0 255
-0.026923873 -0.06499999 0.37499997 0.49999902 0.49999902 -0.70710814 255 255 0 255
-0.074999996 -0.031066028 0.365 0.49999902 0.49999902 -0.70710814 255 255 0 255
-0.074999996 0.031066028 0.16499996 1 -0 -0 255 255 0 255
-0.074999996 -0.031066028 0.365 1 -0 -0 255 255 0 255
-0.074999996 -0.031066028 0.16499996 1 -0 -0 255 255 0 255
-0.074999996 0.031066028 0.365 1 -0 -0 255 255 0 255
-0.031066028 0.074999996 0.16499996 0.70710677 -0.70710677 -2.5475956E-15 255 255 0 255
-0.074999996 0.031066028 0.365 0.70710677 -0.70710677 -2.5475956E-15 255 255 0 255
-0.074999996 0.031066028 0.16499996 0.70710677 -0.70710677 -2.5475956E-15 255 255 0 255
-0.031066028 0.074999996 0.365 0.70710677 -0.70710677 -2.5475956E-15 255 255 0 255
0.031066028 0.074999996 0.365 0 -1 -7.219113E-15 255 255 0 255
-0.031066028 0.074999996 0.16499996 0 -1 -7.219113E-15 255 255 0 255
0.031066028 0.074999996 0.16499996 0 -1 -7.219113E-15 255 255 0 255
-0.031066028 0.074999996 0.365 0 -1 -7.219113E-15 255 255 0 255
0.031066028 0.074999996 0.365 -0.70710677 -0.70710677 -2.5475956E-15 255 255 0 255
0.074999996 0.031066028 0.16499996 -0.70710677 -0.70710677 -2.5475956E-15 255 255 0 255
0.074999996 0.031066028 0.365 -0.70710677 -0.70710677 -2.5475956E-15 255 255 0 255
0.031066028 0.074999996 0.16499996 -0.70710677 -0.70710677 -2.5475956E-15 255 255 0 255
0.074999996 0.031066028 0.365 -1 -0 -0 255 255 0 255
0.074999996 -0.031066028 0.16499996 -1 -0 -0 255 255 0 255
0.074999996 -0.031066028 0.365 -1 -0 -0 255 255 0 255
0.074999996 0.031066028 0.16499996 -1 -0 -0 255 255 0 255
0.074999996 -0.031066028 0.365 -0.70710677 0.70710677 2.5526598E-15 255 255 0 255
0.031066028 -0.074999996 0.16499996 -0.70710677 0.70710677 2.5526598E-15 255 255 0 255
0.031066028 -0.074999996 0.365 -0.70710677 0.70710677 2.5526598E-15 255 255 0 255
0.074999996 -0.031066028 0.16499996 -0.70710677 0.70710677 2.5526598E-15 255 255 0 255
-0.031066028 -0.074999996 0.365 0 1 7.219113E-15 255 255 0 255
0.031066028 -0.074999996 0.16499996 0 1 7.219113E-15 255 255 0 255
-0.031066028 -0.074999996 0.16499996 0 1 7.219113E-15 255 255 0 255
0.031066028 -0.074999996 0.365 0 1 7.219113E-15 255 255 0 255
-0.031066028 -0.074999996 0.16499996 0.70710677 0.70710677 2.5526598E-15 255 255 0 255
-0.074999996 -0.031066028 0.365 0.70710677 0.70710677 2.5526598E-15 255 255 0 255
-0.031066028 -0.074999996 0.365 0.70710677 0.70710677 2.5526598E-15 255 255 0 255
-0.074999996 -0.031066028 0.16499996 0.70710677 0.70710677 2.5526598E-15 255 255 0 255
-0.039350286 -0.094999984 0.16499996 0 1 -0 255 255 0 255
0.039350286 -0.094999984 0.14999996 0 1 -0 255 255 0 255
-0.039350286 -0.094999984 0.14999996 0 1 -0 255 255 0 255
0.039350286 -0.094999984 0.16499996 0 1 -0 255 255 0 255
-0.094999984 -0.039350286 0.14999996 0.70710677 0.70710677 -0 255 255 0 255
-0.039350286 -0.094999984 0.16499996 0.70710677 0.70710677 -0 255 255 0 255
-0.039350286 -0.094999984 0.14999996 0.70710677 0.70710677 -0 255 255 0 255
-0.094999984 -0.039350286 0.16499996 0.70710677 0.70710677 -0 255 255 0 255
0.094999984 -0.039350286 0.16499996 0 -0 -1 255 255 0 255
0.074999996 -0.031066028 0.16499996 0 -0 -1 255 255 0 255
0.094999984 0.039350286 0.16499996 0 -0 -1 255 255 0 255
0.039350286 -0.094999984 0.16499996 0 -0 -1 255 255 0 255
0.031066028 -0.074999996 0.16499996 0 -0 -1 255 255 0 255
-0.039350286 -0.094999984 0.16499996 0 -0 -1 255 255 0 255
-0.031066028 -0.074999996 0.16499996 0 -0 -1 255 255 0 255
-0.074999996 -0.031066028 0.16499996 0 -0 -1 255 255 0 255
-0.094999984 -0.039350286 0.16499996 0 -0 -1 255 255 0 255
-0.074999996 0.031066028 0.16499996 0 -0 -1 255 255 0 255
0.074999996 0.031066028 0.16499996 0 -0 -1 255 255 0 255
0.039350286 0.094999984 0.16499996 0 -0 -1 255 255 0 255
0.031066028 0.074999996 0.16499996 0 -0 -1 255 255 0 255
-0.039350286 0.094999984 0.16499996 0 -0 -1 255 255 0 255
-0.031066028 0.074999996 0.16499996 0 -0 -1 255 255 0 255
-0.094999984 0.039350286 0.16499996 0 -0 -1 255 255 0 255
0.094999984 -0.039350286 0.16499996 -0.70710677 0.70710677 -0 255 255 0 255
0.039350286 -0.094999984 0.14999996 -0.70710677 0.70710677 -0 255 255 0 255
0.039350286 -0.094999984 0.16499996 -0.70710677 0.70710677 -0 255 255 0 255
0.094999984 -0.039350286 0.14999996 -0.70710677 0.70710677 -0 255 255 0 255
-0.094999984 0.039350286 0.14999996 1 -0 -0 255 255 0 255
-0.094999984 -0.039350286 0.16499996 1 -0 -0 255 255 0 255
-0.094999984 -0.039350286 0.14999996 1 -0 -0 255 255 0 255
-0.094999984 0.039350286 0.16499996 1 -0 -0 255 255 0 255
-0.039350286 0.094999984 0.14999996 0.70710677 -0.70710677 -1.1255118E-16 255 255 0 255
-0.094999984 0.039350286 0.16499996 0.70710677 -0.70710677 -1.1255118E-16 255 255 0 255
-0.094999984 0.039350286 0.14999996 0.70710677 -0.70710677 -1.1255118E-16 255 255 0 255
-0.039350286 0.094999984 0.16499996 0.70710677 -0.70710677 -1.1255118E-16 255 255 0 255
0.039350286 0.094999984 0.16499996 0 -1 -0 255 255 0 255
-0.039350286 0.094999984 0.14999996 0 -1 -0 255 255 0 255
0.039350286 0.094999984 0.14999996 0 -1 -0 255 255 0 255
-0.039350286 0.094999984 0.16499996 0 -1 -0 255 255 0 255
0.039350286 0.094999984 0.16499996 -0.70710677 -0.70710677 -0 255 255 0 255
0.094999984 0.039350286 0.14999996 -0.70710677 -0.70710677 -0 255 255 0 255
0.094999984 0.039350286 0.16499996 -0.70710677 -0.70710677 -0 255 255 0 255
0.039350286 0.094999984 0.14999996 -0.70710677 -0.70710677 -0 255 255 0 255
0.094999984 0.039350286 0.16499996 -1 -0 -0 255 255 0 255
0.094999984 -0.039350286 0.14999996 -1 -0 -0 255 255 0 255
0.094999984 -0.039350286 0.16499996 -1 -0 -0 255 255 0 255
0.094999984 0.039350286 0.14999996 -1 -0 -0 255 255 0 255
3 0 1 2
3 1 0 3
3 4 5 6
3 5 4 7
3 5 7 8
3 8 7 9
3 8 9 10
3 10 9 11
3 11 9 12
3 11 12 13
3 6 14 15
3 14 6 5
3 15 14 16
3 15 16 17
3 17 16 18
3 17 18 13
3 17 13 19
3 19 13 12
3 20 21 22
3 21 20 23
3 24 25 26
3 25 24 27
3 25 27 28
3 28 27 29
3 28 29 30
3 30 29 31
3 31 29 32
3 31 32 33
3 26 34 35
3 34 26 25
3 35 34 36
3 35 36 37
3 37 36 38
3 37 38 33
3 37 33 39
3 39 33 32
3 40 41 42
3 41 40 43
3 44 45 46
3 45 44 47
3 48 49 50
3 49 48 51
3 52 53 54
3 53 52 55
3 56 57 58
3 57 56 59
3 60 61 62
3 61 60 63
3 64 65 66
3 65 64 67
3 67 64 68
3 68 64 69
3 68 69 70
3 70 69 71
3 71 69 72
3 71 72 73
3 65 74 75
3 74 65 67
3 75 74 76
3 75 76 77
3 77 76 78
3 77 78 73
3 77 73 79
3 79 73 72
3 80 81 82
3 81 80 83
3 83 80 84
3 83 84 85
3 85 84 86
3 85 86 87
3 88 89 90
3 89 88 91
3 92 93 94
3 93 92 95
3 96 97 98
3 97 96 99
3 100 101 102
3 101 100 103
3 104 105 106
3 105 104 107
3 108 109 110
3 109 108 111
3 112 113 114
3 113 112 115
3 116 117 118
3 117 116 119
3 120 91 88
3 91 120 121
3 122 95 92
3 95 122 123
3 124 96 125
3 96 124 99
3 126 102 127
3 102 126 100
3 128 107 104
3 107 128 129
3 130 111 108
3 111 130 131
3 113 132 133
3 132 113 115
3 134 119 116
3 119 134 135
3 136 137 138
3 137 136 139
3 140 141 142
3 141 140 143
3 144 145 146
3 145 144 147
3 147 144 148
3 148 144 149
3 148 149 150
3 150 149 151
3 151 149 152
3 152 149 153
3 153 149 154
3 154 149 155
3 155 149 156
3 147 157 154
3 157 147 148
3 154 157 158
3 154 158 159
3 154 159 153
3 160 161 162
3 161 160 163
3 164 165 166
3 165 164 167
3 168 169 170
3 169 168 171
3 172 173 174
3 173 172 175
3 176 177 178
3 177 176 179
3 180 181 182
3 181 180 183
3 184 185 186
3 185 184 187
3 187 184 188
3 188 184 189
3 188 189 190
3 190 189 191
3 191 189 192
3 191 192 193
3 185 194 195
3 194 185 187
3 195 194 196
3 195 196 197
3 197 196 198
3 197 198 193
3 197 193 199
3 199 193 192
3 200 201 202
3 201 200 203
3 204 205 206
3 205 204 207
3 208 209 210
3 209 208 211
3 212 213 214
3 213 212 215
3 216 217 218
3 217 216 219
3 220 221 222
3 221 220 223
3 224 225 226
3 225 224 227
3 228 229 230
3 229 228 231
3 232 233 234
3 233 232 235
3 236 237 238
3 237 236 239
3 240 241 242
3 241 240 243
3 244 245 246
3 245 244 247
3 248 249 250
3 249 248 251
3 252 253 254
3 253 252 255
3 256 257 258
3 257 256 259
3 260 261 262
3 261 260 263
3 264 265 266
3 265 264 267
3 268 269 270
3 269 268 271
3 272 273 274
3 273 272 275
3 273 275 276
3 276 275 277
3 276 277 278
3 278 277 279
3 279 277 280
3 279 280 281
3 274 282 283
3 282 274 273
3 283 282 284
3 283 284 285
3 285 284 286
3 285 286 281
3 285 281 287
3 287 281 280
3 288 289 290
3 289 288 291
3 292 293 294
3 293 292 295
3 296 297 298
3 297 296 299
3 300 301 302
3 301 300 303
3 304 305 306
3 305 304 307
3 308 309 310
3 309 308 311

