ply
format ascii 1.0
commentY29udmVydGVyIGJ5IENvZGVMZW9wYXJk
comment Original mesh name: 'C:\Program Files (x86)\Steam\steamapps\common\Stormworks\rom\meshes\component_inventory_equipment_c4_detonator.mesh'
comment SubMesh index: 0
comment SubMesh name: 'ID80'
comment Shader: Opaque (0)
element vertex 542
property float x
property float y
property float z
property float nx
property float ny
property float nz
property uchar red
property uchar green
property uchar blue
property uchar alpha
element face 312
property list uchar ushort vertex_index
end_header
-0.046529904 -0.030979132 0.025160009 1.566648E-16 -5.6305405E-13 -1 141 141 141 255
-0.046529904 -0.020586824 0.025160009 1.566648E-16 -5.6305405E-13 -1 141 141 141 255
-0.04352988 -0.025782978 0.025160009 1.566648E-16 -5.6305405E-13 -1 141 141 141 255
-0.052529886 -0.030979132 0.025160009 1.566648E-16 -5.6305405E-13 -1 141 141 141 255
-0.052529886 -0.020586824 0.025160009 1.566648E-16 -5.6305405E-13 -1 141 141 141 255
-0.05552988 -0.025782978 0.025160009 1.566648E-16 -5.6305405E-13 -1 141 141 141 255
-0.046529904 -0.020586824 0.025160009 0 -1 5.625833E-13 141 141 141 255
-0.052529886 -0.020586824 0.023160009 0 -1 5.625833E-13 141 141 141 255
-0.046529904 -0.020586824 0.023160009 0 -1 5.625833E-13 141 141 141 255
-0.052529886 -0.020586824 0.025160009 0 -1 5.625833E-13 141 141 141 255
-0.04352988 -0.025782978 0.025160009 -0.86602545 -0.49999994 2.816176E-13 141 141 141 255
-0.046529904 -0.020586824 0.023160009 -0.86602545 -0.49999994 2.816176E-13 141 141 141 255
-0.04352988 -0.025782978 0.023160009 -0.86602545 -0.49999994 2.816176E-13 141 141 141 255
-0.046529904 -0.020586824 0.025160009 -0.86602545 -0.49999994 2.816176E-13 141 141 141 255
-0.046529904 -0.030979132 0.025160009 -0.8660255 0.49999976 -2.820488E-13 141 141 141 255
-0.04352988 -0.025782978 0.023160009 -0.8660255 0.49999976 -2.820488E-13 141 141 141 255
-0.046529904 -0.030979132 0.023160009 -0.8660255 0.49999976 -2.820488E-13 141 141 141 255
-0.04352988 -0.025782978 0.025160009 -0.8660255 0.49999976 -2.820488E-13 141 141 141 255
-0.052529886 -0.030979132 0.025160009 0 1 -5.639933E-13 141 141 141 255
-0.046529904 -0.030979132 0.023160009 0 1 -5.639933E-13 141 141 141 255
-0.052529886 -0.030979132 0.023160009 0 1 -5.639933E-13 141 141 141 255
-0.046529904 -0.030979132 0.025160009 0 1 -5.639933E-13 141 141 141 255
-0.05552988 -0.025782978 0.023160009 0.8660255 0.49999976 -2.8210867E-13 141 141 141 255
-0.052529886 -0.030979132 0.025160009 0.8660255 0.49999976 -2.8210867E-13 141 141 141 255
-0.052529886 -0.030979132 0.023160009 0.8660255 0.49999976 -2.8210867E-13 141 141 141 255
-0.05552988 -0.025782978 0.025160009 0.8660255 0.49999976 -2.8210867E-13 141 141 141 255
-0.052529886 -0.020586824 0.023160009 0.86602545 -0.49999994 2.8161834E-13 141 141 141 255
-0.05552988 -0.025782978 0.025160009 0.86602545 -0.49999994 2.8161834E-13 141 141 141 255
-0.05552988 -0.025782978 0.023160009 0.86602545 -0.49999994 2.8161834E-13 141 141 141 255
-0.052529886 -0.020586824 0.025160009 0.86602545 -0.49999994 2.8161834E-13 141 141 141 255
-0.04350146 0.012801031 -0.0008635009 -8.0780275E-17 5.629438E-13 1 30 30 30 255
-0.03150146 0.00180103 -0.0008635009 -8.0780275E-17 5.629438E-13 1 30 30 30 255
-0.03150146 0.012801031 -0.0008635009 -8.0780275E-17 5.629438E-13 1 30 30 30 255
-0.04350146 0.00180103 -0.0008635009 -8.0780275E-17 5.629438E-13 1 30 30 30 255
-0.04350146 -0.0036989688 0.008662779 -7.7720395E-17 0.8660255 0.49999988 30 30 30 255
-0.03150146 0.00180103 -0.0008635009 -7.7720395E-17 0.8660255 0.49999988 30 30 30 255
-0.04350146 0.00180103 -0.0008635009 -7.7720395E-17 0.8660255 0.49999988 30 30 30 255
-0.03150146 -0.0036989688 0.008662779 -7.7720395E-17 0.8660255 0.49999988 30 30 30 255
-0.03150146 0.018301029 0.008662779 -9.326448E-17 -0.8660255 0.49999988 30 30 30 255
-0.04350146 0.012801031 -0.0008635009 -9.326448E-17 -0.8660255 0.49999988 30 30 30 255
-0.03150146 0.012801031 -0.0008635009 -9.326448E-17 -0.8660255 0.49999988 30 30 30 255
-0.04350146 0.018301029 0.008662779 -9.326448E-17 -0.8660255 0.49999988 30 30 30 255
-0.04650145 0.011756028 0.00094649213 0.5165915 4.820661E-13 0.856232 30 30 30 255
-0.04350146 0.00180103 -0.0008635009 0.5165915 4.820661E-13 0.856232 30 30 30 255
-0.04350146 0.012801031 -0.0008635009 0.5165915 4.820661E-13 0.856232 30 30 30 255
-0.04650145 0.0028460291 0.00094649213 0.5165915 4.820661E-13 0.856232 30 30 30 255
-0.04650145 0.0028460291 0.00094649213 0.5165913 0.7415188 0.428116 30 30 30 255
-0.04350146 -0.0036989688 0.008662779 0.5165913 0.7415188 0.428116 30 30 30 255
-0.04350146 0.00180103 -0.0008635009 0.5165913 0.7415188 0.428116 30 30 30 255
-0.04650145 -0.0016089706 0.008662779 0.5165913 0.7415188 0.428116 30 30 30 255
-0.04350146 0.00180103 0.018189056 4.759874E-17 0.8660254 -0.5 30 30 30 255
-0.03150146 -0.0036989688 0.008662779 4.759874E-17 0.8660254 -0.5 30 30 30 255
-0.04350146 -0.0036989688 0.008662779 4.759874E-17 0.8660254 -0.5 30 30 30 255
-0.03150146 0.00180103 0.018189056 4.759874E-17 0.8660254 -0.5 30 30 30 255
-0.03150146 0.012801031 0.018189056 8.076942E-17 -0.8660254 -0.5 30 30 30 255
-0.04350146 0.018301029 0.008662779 8.076942E-17 -0.8660254 -0.5 30 30 30 255
-0.03150146 0.018301029 0.008662779 8.076942E-17 -0.8660254 -0.5 30 30 30 255
-0.04350146 0.012801031 0.018189056 8.076942E-17 -0.8660254 -0.5 30 30 30 255
-0.04350146 0.018301029 0.008662779 0.5165916 -0.7415186 0.4281159 30 30 30 255
-0.04650145 0.011756028 0.00094649213 0.5165916 -0.7415186 0.4281159 30 30 30 255
-0.04350146 0.012801031 -0.0008635009 0.5165916 -0.7415186 0.4281159 30 30 30 255
-0.04650145 0.01621103 0.008662779 0.5165916 -0.7415186 0.4281159 30 30 30 255
-0.04650145 0.0028460291 0.00094649213 1 -0 -0 30 30 30 255
-0.04650145 0.0028460291 0.016379066 1 -0 -0 30 30 30 255
-0.04650145 -0.0016089706 0.008662779 1 -0 -0 30 30 30 255
-0.04650145 0.011756028 0.00094649213 1 -0 -0 30 30 30 255
-0.04650145 0.011756028 0.016379066 1 -0 -0 30 30 30 255
-0.04650145 0.01621103 0.008662779 1 -0 -0 30 30 30 255
-0.04650145 0.0028460291 0.016379066 0.5165912 0.7415188 -0.4281161 30 30 30 255
-0.04350146 -0.0036989688 0.008662779 0.5165912 0.7415188 -0.4281161 30 30 30 255
-0.04650145 -0.0016089706 0.008662779 0.5165912 0.7415188 -0.4281161 30 30 30 255
-0.04350146 0.00180103 0.018189056 0.5165912 0.7415188 -0.4281161 30 30 30 255
-0.04350146 0.00180103 0.018189056 1.174986E-16 -5.63096E-13 -1 30 30 30 255
-0.03150146 0.012801031 0.018189056 1.174986E-16 -5.63096E-13 -1 30 30 30 255
-0.03150146 0.00180103 0.018189056 1.174986E-16 -5.63096E-13 -1 30 30 30 255
-0.04350146 0.012801031 0.018189056 1.174986E-16 -5.63096E-13 -1 30 30 30 255
-0.04350146 0.012801031 0.018189056 0.5165915 -0.7415186 -0.428116 30 30 30 255
-0.04650145 0.01621103 0.008662779 0.5165915 -0.7415186 -0.428116 30 30 30 255
-0.04350146 0.018301029 0.008662779 0.5165915 -0.7415186 -0.428116 30 30 30 255
-0.04650145 0.011756028 0.016379066 0.5165915 -0.7415186 -0.428116 30 30 30 255
-0.04650145 0.0028460291 0.016379066 0.5165911 -4.821846E-13 -0.8562322 30 30 30 255
-0.04350146 0.012801031 0.018189056 0.5165911 -4.821846E-13 -0.8562322 30 30 30 255
-0.04350146 0.00180103 0.018189056 0.5165911 -4.821846E-13 -0.8562322 30 30 30 255
-0.04650145 0.011756028 0.016379066 0.5165911 -4.821846E-13 -0.8562322 30 30 30 255
0.040510915 0.021344587 0.026 -0.98670495 2.2794318E-13 -0.1625218 30 30 30 255
0.045616977 0.04134458 -0.004999986 -0.98670495 2.2794318E-13 -0.1625218 30 30 30 255
0.045616977 0.021344587 -0.004999986 -0.98670495 2.2794318E-13 -0.1625218 30 30 30 255
0.040510915 0.04134458 0.026 -0.98670495 2.2794318E-13 -0.1625218 30 30 30 255
0.042480614 0.021344587 -0.004999986 2.310117E-13 1 1.734723E-17 30 30 30 255
0.040510915 0.021344587 0.026 2.310117E-13 1 1.734723E-17 30 30 30 255
0.045616977 0.021344587 -0.004999986 2.310117E-13 1 1.734723E-17 30 30 30 255
0.03818654 0.021344587 0.023337062 2.310117E-13 1 1.734723E-17 30 30 30 255
0.0003011972 0.021344587 0.030999988 2.310117E-13 1 1.734723E-17 30 30 30 255
0.00032095838 0.021344587 0.027956484 2.310117E-13 1 1.734723E-17 30 30 30 255
-0.030669326 0.021344587 0.023337062 2.310117E-13 1 1.734723E-17 30 30 30 255
-0.03283023 0.021344587 0.026 2.310117E-13 1 1.734723E-17 30 30 30 255
-0.040934563 0.021344587 -0.004999986 2.310117E-13 1 1.734723E-17 30 30 30 255
-0.044169273 0.021344587 -0.004999986 2.310117E-13 1 1.734723E-17 30 30 30 255
0.0003011972 0.021344587 0.030999988 -0.123397395 2.8523455E-14 -0.99235725 30 30 30 255
0.040510915 0.04134458 0.026 -0.123397395 2.8523455E-14 -0.99235725 30 30 30 255
0.040510915 0.021344587 0.026 -0.123397395 2.8523455E-14 -0.99235725 30 30 30 255
0.040510915 0.04134458 0.026 -2.310117E-13 -1 -1.734723E-17 30 30 30 255
0.042480614 0.04134458 -0.004999986 -2.310117E-13 -1 -1.734723E-17 30 30 30 255
0.045616977 0.04134458 -0.004999986 -2.310117E-13 -1 -1.734723E-17 30 30 30 255
0.03818654 0.04134458 0.023337062 -2.310117E-13 -1 -1.734723E-17 30 30 30 255
-0.0006988008 0.04134458 0.030999988 -2.310117E-13 -1 -1.734723E-17 30 30 30 255
-0.0006790396 0.04134458 0.027956484 -2.310117E-13 -1 -1.734723E-17 30 30 30 255
-0.030669326 0.04134458 0.023337062 -2.310117E-13 -1 -1.734723E-17 30 30 30 255
-0.03283023 0.04134458 0.026 -2.310117E-13 -1 -1.734723E-17 30 30 30 255
-0.040934563 0.04134458 -0.004999986 -2.310117E-13 -1 -1.734723E-17 30 30 30 255
-0.044169273 0.04134458 -0.004999986 -2.310117E-13 -1 -1.734723E-17 30 30 30 255
-0.030669326 0.021344587 0.023337062 -0.9402099 2.172146E-13 0.3405955 30 30 30 255
-0.040934563 0.04134458 -0.004999986 -0.9402099 2.172146E-13 0.3405955 30 30 30 255
-0.040934563 0.021344587 -0.004999986 -0.9402099 2.172146E-13 0.3405955 30 30 30 255
-0.030669326 0.04134458 0.023337062 -0.9402099 2.172146E-13 0.3405955 30 30 30 255
-0.044169273 0.021344587 -0.004999986 -2.310117E-13 -1.734723E-17 1 30 30 30 255
-0.040934563 0.04134458 -0.004999986 -2.310117E-13 -1.734723E-17 1 30 30 30 255
-0.044169273 0.04134458 -0.004999986 -2.310117E-13 -1.734723E-17 1 30 30 30 255
-0.040934563 0.021344587 -0.004999986 -2.310117E-13 -1.734723E-17 1 30 30 30 255
-0.03283023 0.04134458 0.026 0.9391464 -2.1693246E-13 -0.34351698 30 30 30 255
-0.044169273 0.021344587 -0.004999986 0.9391464 -2.1693246E-13 -0.34351698 30 30 30 255
-0.044169273 0.04134458 -0.004999986 0.9391464 -2.1693246E-13 -0.34351698 30 30 30 255
-0.03283023 0.021344587 0.026 0.9391464 -2.1693246E-13 -0.34351698 30 30 30 255
-0.03283023 0.021344587 0.026 0.1492241 -3.4416334E-14 -0.9888034 30 30 30 255
-0.03283023 0.04134458 0.026 0.1492241 -3.4416334E-14 -0.9888034 30 30 30 255
0.0003011972 0.021344587 0.030999988 0.1492241 -3.4416334E-14 -0.9888034 30 30 30 255
0.03818654 0.04134458 0.023337062 0.98871255 -2.2840676E-13 0.1498252 30 30 30 255
0.042480614 0.021344587 -0.004999986 0.98871255 -2.2840676E-13 0.1498252 30 30 30 255
0.042480614 0.04134458 -0.004999986 0.98871255 -2.2840676E-13 0.1498252 30 30 30 255
0.03818654 0.021344587 0.023337062 0.98871255 -2.2840676E-13 0.1498252 30 30 30 255
0.03818654 0.021344587 0.023337062 0.1210975 -2.8022152E-14 0.9926406 30 30 30 255
0.03818654 0.04134458 0.023337062 0.1210975 -2.8022152E-14 0.9926406 30 30 30 255
0.00032095838 0.021344587 0.027956484 0.1210975 -2.8022152E-14 0.9926406 30 30 30 255
0.00032095838 0.021344587 0.027956484 -0.1474275 -0.007371363 0.9890454 30 30 30 255
-0.0006790396 0.04134458 0.027956484 -0.1474275 -0.007371363 0.9890454 30 30 30 255
-0.030669326 0.021344587 0.023337062 -0.1474275 -0.007371363 0.9890454 30 30 30 255
0.0003011972 0.021344587 0.030999988 -0.120444894 -0.006022232 -0.9927017 30 30 30 255
-0.0006988008 0.04134458 0.030999988 -0.120444894 -0.006022232 -0.9927017 30 30 30 255
0.040510915 0.04134458 0.026 -0.120444894 -0.006022232 -0.9927017 30 30 30 255
0.0003011972 0.021344587 0.030999988 0.1537555 0.0076877642 -0.988079 30 30 30 255
-0.03283023 0.04134458 0.026 0.1537555 0.0076877642 -0.988079 30 30 30 255
-0.0006988008 0.04134458 0.030999988 0.1537555 0.0076877642 -0.988079 30 30 30 255
-0.030669326 0.021344587 0.023337062 -0.1522353 3.5150986E-14 0.98834425 30 30 30 255
-0.0006790396 0.04134458 0.027956484 -0.1522353 3.5150986E-14 0.98834425 30 30 30 255
-0.030669326 0.04134458 0.023337062 -0.1522353 3.5150986E-14 0.98834425 30 30 30 255
0.00032095838 0.021344587 0.027956484 0.1180236 0.005901172 0.9929933 30 30 30 255
0.03818654 0.04134458 0.023337062 0.1180236 0.005901172 0.9929933 30 30 30 255
-0.0006790396 0.04134458 0.027956484 0.1180236 0.005901172 0.9929933 30 30 30 255
0.042480614 0.021344587 -0.004999986 -2.310117E-13 -1.734723E-17 1 255 255 255 255
0.045616977 0.04134458 -0.004999986 -2.310117E-13 -1.734723E-17 1 255 255 255 255
0.042480614 0.04134458 -0.004999986 -2.310117E-13 -1.734723E-17 1 255 255 255 255
0.045616977 0.021344587 -0.004999986 -2.310117E-13 -1.734723E-17 1 255 255 255 255
-0.014748357 -0.010362056 -0.0031600012 -0.75199765 3.7116005E-13 0.65916574 51 51 30 255
-0.016501462 0.059754994 -0.0051599997 -0.75199765 3.7116005E-13 0.65916574 51 51 30 255
-0.016501462 -0.011811233 -0.0051599997 -0.75199765 3.7116005E-13 0.65916574 51 51 30 255
-0.014748357 0.05830577 -0.0031600012 -0.75199765 3.7116005E-13 0.65916574 51 51 30 255
0.020705432 -0.010362056 -0.0031600012 -5.3596966E-17 -0.80976886 0.58674896 51 51 30 255
-0.016501462 -0.011811233 -0.0051599997 -5.3596966E-17 -0.80976886 0.58674896 51 51 30 255
0.022458524 -0.011811233 -0.0051599997 -5.3596966E-17 -0.80976886 0.58674896 51 51 30 255
-0.014748357 -0.010362056 -0.0031600012 -5.3596966E-17 -0.80976886 0.58674896 51 51 30 255
-0.014748357 0.05830577 -0.0031600012 -8.948162E-17 5.6307677E-13 1 51 51 30 255
0.020705432 -0.010362056 -0.0031600012 -8.948162E-17 5.6307677E-13 1 51 51 30 255
0.020705432 0.05830577 -0.0031600012 -8.948162E-17 5.6307677E-13 1 51 51 30 255
-0.014748357 -0.010362056 -0.0031600012 -8.948162E-17 5.6307677E-13 1 51 51 30 255
-0.014748357 0.05830577 -0.0031600012 -5.173931E-17 0.8097611 0.5867597 51 51 30 255
0.022458524 0.059754994 -0.0051599997 -5.173931E-17 0.8097611 0.5867597 51 51 30 255
-0.016501462 0.059754994 -0.0051599997 -5.173931E-17 0.8097611 0.5867597 51 51 30 255
0.020705432 0.05830577 -0.0031600012 -5.173931E-17 0.8097611 0.5867597 51 51 30 255
0.022458524 0.059754994 -0.0051599997 0.75200015 3.7115954E-13 0.6591628 51 51 30 255
0.020705432 -0.010362056 -0.0031600012 0.75200015 3.7115954E-13 0.6591628 51 51 30 255
0.022458524 -0.011811233 -0.0051599997 0.75200015 3.7115954E-13 0.6591628 51 51 30 255
0.020705432 0.05830577 -0.0031600012 0.75200015 3.7115954E-13 0.6591628 51 51 30 255
-0.007430741 -0.06490566 0.013141769 0 -2.049886E-07 -1 30 30 30 255
-0.002648237 -0.059754994 0.013141769 0 -2.049886E-07 -1 30 30 30 255
-0.002648237 -0.06490566 0.013141769 0 -2.049886E-07 -1 30 30 30 255
-0.007430741 -0.059754994 0.013141769 0 -2.049886E-07 -1 30 30 30 255
-0.002648237 -0.06490566 0.013141769 -0.8660253 -1.024943E-07 -0.5000001 30 30 30 255
-0.0002569845 -0.059754994 0.008999999 -0.8660253 -1.024943E-07 -0.5000001 30 30 30 255
-0.0002569845 -0.06490566 0.008999999 -0.8660253 -1.024943E-07 -0.5000001 30 30 30 255
-0.002648237 -0.059754994 0.013141769 -0.8660253 -1.024943E-07 -0.5000001 30 30 30 255
-0.003174314 -0.07890566 0.012230579 4.173733E-18 0.06494756 -0.9978887 30 30 30 255
-0.007430741 -0.06490566 0.013141769 4.173733E-18 0.06494756 -0.9978887 30 30 30 255
-0.002648237 -0.06490566 0.013141769 4.173733E-18 0.06494756 -0.9978887 30 30 30 255
-0.006904667 -0.07890566 0.012230579 4.173733E-18 0.06494756 -0.9978887 30 30 30 255
-0.009821994 -0.06490566 0.008999999 0 1 -5.555818E-13 30 30 30 255
-0.002648237 -0.06490566 0.004858227 0 1 -5.555818E-13 30 30 30 255
-0.007430741 -0.06490566 0.004858227 0 1 -5.555818E-13 30 30 30 255
-0.0002569845 -0.06490566 0.008999999 0 1 -5.555818E-13 30 30 30 255
-0.007430741 -0.06490566 0.013141769 0 1 -5.555818E-13 30 30 30 255
-0.002648237 -0.06490566 0.013141769 0 1 -5.555818E-13 30 30 30 255
-0.009821994 -0.059754994 0.008999999 0.8660253 -1.024943E-07 -0.5000001 30 30 30 255
-0.007430741 -0.06490566 0.013141769 0.8660253 -1.024943E-07 -0.5000001 30 30 30 255
-0.009821994 -0.06490566 0.008999999 0.8660253 -1.024943E-07 -0.5000001 30 30 30 255
-0.007430741 -0.059754994 0.013141769 0.8660253 -1.024943E-07 -0.5000001 30 30 30 255
-0.0002569845 -0.06490566 0.008999999 -0.8660255 1.024943E-07 0.49999988 30 30 30 255
-0.002648237 -0.059754994 0.004858227 -0.8660255 1.024943E-07 0.49999988 30 30 30 255
-0.002648237 -0.06490566 0.004858227 -0.8660255 1.024943E-07 0.49999988 30 30 30 255
-0.0002569845 -0.059754994 0.008999999 -0.8660255 1.024943E-07 0.49999988 30 30 30 255
-0.003174314 -0.07890566 0.012230579 -0.86419684 0.06494765 -0.49894452 30 30 30 255
-0.0002569845 -0.06490566 0.008999999 -0.86419684 0.06494765 -0.49894452 30 30 30 255
-0.0013091363 -0.07890566 0.008999999 -0.86419684 0.06494765 -0.49894452 30 30 30 255
-0.002648237 -0.06490566 0.013141769 -0.86419684 0.06494765 -0.49894452 30 30 30 255
-0.0038830808 -0.10490565 0.01100296 3.9963354E-18 0.04716362 -0.9988872 30 30 30 255
-0.006904667 -0.07890566 0.012230579 3.9963354E-18 0.04716362 -0.9988872 30 30 30 255
-0.003174314 -0.07890566 0.012230579 3.9963354E-18 0.04716362 -0.9988872 30 30 30 255
-0.0061959 -0.10490565 0.01100296 3.9963354E-18 0.04716362 -0.9988872 30 30 30 255
-0.009821994 -0.06490566 0.008999999 0.86419684 0.064947486 -0.49894452 30 30 30 255
-0.006904667 -0.07890566 0.012230579 0.86419684 0.064947486 -0.49894452 30 30 30 255
-0.008769845 -0.07890566 0.008999999 0.86419684 0.064947486 -0.49894452 30 30 30 255
-0.007430741 -0.06490566 0.013141769 0.86419684 0.064947486 -0.49894452 30 30 30 255
-0.007430741 -0.059754994 0.004858227 0 2.049886E-07 1 30 30 30 255
-0.002648237 -0.06490566 0.004858227 0 2.049886E-07 1 30 30 30 255
-0.002648237 -0.059754994 0.004858227 0 2.049886E-07 1 30 30 30 255
-0.007430741 -0.06490566 0.004858227 0 2.049886E-07 1 30 30 30 255
-0.007430741 -0.059754994 0.004858227 0.8660255 1.024943E-07 0.49999988 30 30 30 255
-0.009821994 -0.06490566 0.008999999 0.8660255 1.024943E-07 0.49999988 30 30 30 255
-0.007430741 -0.06490566 0.004858227 0.8660255 1.024943E-07 0.49999988 30 30 30 255
-0.009821994 -0.059754994 0.008999999 0.8660255 1.024943E-07 0.49999988 30 30 30 255
-0.0013091363 -0.07890566 0.008999999 -0.864197 0.06494764 0.4989443 30 30 30 255
-0.002648237 -0.06490566 0.004858227 -0.864197 0.06494764 0.4989443 30 30 30 255
-0.003174314 -0.07890566 0.005769416 -0.864197 0.06494764 0.4989443 30 30 30 255
-0.0002569845 -0.06490566 0.008999999 -0.864197 0.06494764 0.4989443 30 30 30 255
-0.0038830808 -0.10490565 0.01100296 -0.8650616 0.04716365 -0.4994437 30 30 30 255
-0.0013091363 -0.07890566 0.008999999 -0.8650616 0.04716365 -0.4994437 30 30 30 255
-0.002726672 -0.10490565 0.008999999 -0.8650616 0.04716365 -0.4994437 30 30 30 255
-0.003174314 -0.07890566 0.012230579 -0.8650616 0.04716365 -0.4994437 30 30 30 255
-0.0073523084 -0.10490565 0.008999999 -7.33751E-40 1 -5.406334E-13 30 30 30 255
-0.0038830808 -0.10490565 0.0069970395 -7.33751E-40 1 -5.406334E-13 30 30 30 255
-0.0061959 -0.10490565 0.0069970395 -7.33751E-40 1 -5.406334E-13 30 30 30 255
-0.002726672 -0.10490565 0.008999999 -7.33751E-40 1 -5.406334E-13 30 30 30 255
-0.0061959 -0.10490565 0.01100296 -7.33751E-40 1 -5.406334E-13 30 30 30 255
-0.0038830808 -0.10490565 0.01100296 -7.33751E-40 1 -5.406334E-13 30 30 30 255
-0.008769845 -0.07890566 0.008999999 0.8650616 0.04716365 -0.4994437 30 30 30 255
-0.0061959 -0.10490565 0.01100296 0.8650616 0.04716365 -0.4994437 30 30 30 255
-0.0073523084 -0.10490565 0.008999999 0.8650616 0.04716365 -0.4994437 30 30 30 255
-0.006904667 -0.07890566 0.012230579 0.8650616 0.04716365 -0.4994437 30 30 30 255
-0.007430741 -0.06490566 0.004858227 0.864197 0.06494748 0.4989443 30 30 30 255
-0.008769845 -0.07890566 0.008999999 0.864197 0.06494748 0.4989443 30 30 30 255
-0.006904667 -0.07890566 0.005769416 0.864197 0.06494748 0.4989443 30 30 30 255
-0.009821994 -0.06490566 0.008999999 0.864197 0.06494748 0.4989443 30 30 30 255
-0.007430741 -0.06490566 0.004858227 -4.506742E-18 0.06494756 0.9978887 30 30 30 255
-0.003174314 -0.07890566 0.005769416 -4.506742E-18 0.06494756 0.9978887 30 30 30 255
-0.002648237 -0.06490566 0.004858227 -4.506742E-18 0.06494756 0.9978887 30 30 30 255
-0.006904667 -0.07890566 0.005769416 -4.506742E-18 0.06494756 0.9978887 30 30 30 255
-0.002726672 -0.10490565 0.008999999 -0.8650617 0.04716368 0.49944347 30 30 30 255
-0.003174314 -0.07890566 0.005769416 -0.8650617 0.04716368 0.49944347 30 30 30 255
-0.0038830808 -0.10490565 0.0069970395 -0.8650617 0.04716368 0.49944347 30 30 30 255
-0.0013091363 -0.07890566 0.008999999 -0.8650617 0.04716368 0.49944347 30 30 30 255
-0.006904667 -0.07890566 0.005769416 4.1865013E-18 0.04716371 0.9988872 30 30 30 255
-0.0038830808 -0.10490565 0.0069970395 4.1865013E-18 0.04716371 0.9988872 30 30 30 255
-0.003174314 -0.07890566 0.005769416 4.1865013E-18 0.04716371 0.9988872 30 30 30 255
-0.0061959 -0.10490565 0.0069970395 4.1865013E-18 0.04716371 0.9988872 30 30 30 255
-0.006904667 -0.07890566 0.005769416 0.8650617 0.04716368 0.49944347 30 30 30 255
-0.0073523084 -0.10490565 0.008999999 0.8650617 0.04716368 0.49944347 30 30 30 255
-0.0061959 -0.10490565 0.0069970395 0.8650617 0.04716368 0.49944347 30 30 30 255
-0.008769845 -0.07890566 0.008999999 0.8650617 0.04716368 0.49944347 30 30 30 255
0.022458524 -0.011811233 0.02316 3.49918E-17 -0.8811069 -0.4729171 51 51 30 255
-0.01523199 -0.01073777 0.02116 3.49918E-17 -0.8811069 -0.4729171 51 51 30 255
0.021189088 -0.01073777 0.02116 3.49918E-17 -0.8811069 -0.4729171 51 51 30 255
-0.016501462 -0.011811233 0.02316 3.49918E-17 -0.8811069 -0.4729171 51 51 30 255
0.021189088 -0.01073777 0.02116 0.8442908 -3.017528E-13 -0.5358853 51 51 30 255
0.022458524 0.059754994 0.02316 0.8442908 -3.017528E-13 -0.5358853 51 51 30 255
0.022458524 -0.011811233 0.02316 0.8442908 -3.017528E-13 -0.5358853 51 51 30 255
0.021189088 0.058681495 0.02116 0.8442908 -3.017528E-13 -0.5358853 51 51 30 255
-0.016501462 0.059754994 0.02316 -0.8442839 -3.0173718E-13 -0.5358961 51 51 30 255
-0.01523199 -0.01073777 0.02116 -0.8442839 -3.0173718E-13 -0.5358961 51 51 30 255
-0.016501462 -0.011811233 0.02316 -0.8442839 -3.0173718E-13 -0.5358961 51 51 30 255
-0.01523199 0.058681495 0.02116 -0.8442839 -3.0173718E-13 -0.5358961 51 51 30 255
-0.01523199 -0.01073777 0.02116 7.742676E-17 -5.630649E-13 -1 51 51 30 255
0.021189088 0.058681495 0.02116 7.742676E-17 -5.630649E-13 -1 51 51 30 255
0.021189088 -0.01073777 0.02116 7.742676E-17 -5.630649E-13 -1 51 51 30 255
-0.01523199 0.058681495 0.02116 7.742676E-17 -5.630649E-13 -1 51 51 30 255
-0.016501462 0.059754994 0.02316 5.203903E-19 0.8811011 -0.4729279 51 51 30 255
0.021189088 0.058681495 0.02116 5.203903E-19 0.8811011 -0.4729279 51 51 30 255
-0.01523199 0.058681495 0.02116 5.203903E-19 0.8811011 -0.4729279 51 51 30 255
0.022458524 0.059754994 0.02316 5.203903E-19 0.8811011 -0.4729279 51 51 30 255
-0.019501459 0.039915767 0.019159999 -1 -0 -0 113 113 113 255
-0.019501459 0.06991576 -0.00084000075 -1 -0 -0 113 113 113 255
-0.019501459 0.039915767 -0.00084000075 -1 -0 -0 113 113 113 255
-0.019501459 0.06991576 0.019159999 -1 -0 -0 113 113 113 255
-0.034501452 0.06991576 -0.00084000075 -8.484313E-17 5.630759E-13 1 113 113 113 255
-0.019501459 0.039915767 -0.00084000075 -8.484313E-17 5.630759E-13 1 113 113 113 255
-0.019501459 0.06991576 -0.00084000075 -8.484313E-17 5.630759E-13 1 113 113 113 255
-0.037501443 0.043915756 -0.00084000075 -8.484313E-17 5.630759E-13 1 113 113 113 255
-0.037501443 0.043915756 0.019159999 0.2169301 0.9761871 -5.497007E-13 113 113 113 255
-0.019501459 0.039915767 -0.00084000075 0.2169301 0.9761871 -5.497007E-13 113 113 113 255
-0.037501443 0.043915756 -0.00084000075 0.2169301 0.9761871 -5.497007E-13 113 113 113 255
-0.019501459 0.039915767 0.019159999 0.2169301 0.9761871 -5.497007E-13 113 113 113 255
-0.037501443 0.043915756 0.019159999 1.028178E-16 -5.630898E-13 -1 113 113 113 255
-0.019501459 0.06991576 0.019159999 1.028178E-16 -5.630898E-13 -1 113 113 113 255
-0.019501459 0.039915767 0.019159999 1.028178E-16 -5.630898E-13 -1 113 113 113 255
-0.034501452 0.06991576 0.019159999 1.028178E-16 -5.630898E-13 -1 113 113 113 255
-0.019501459 0.06991576 0.019159999 -6.662859E-29 -1 5.628653E-13 113 113 113 255
-0.034501452 0.06991576 -0.00084000075 -6.662859E-29 -1 5.628653E-13 113 113 113 255
-0.019501459 0.06991576 -0.00084000075 -6.662859E-29 -1 5.628653E-13 113 113 113 255
-0.034501452 0.06991576 0.019159999 -6.662859E-29 -1 5.628653E-13 113 113 113 255
-0.034501452 0.06991576 -0.00084000075 0.9934089 -0.1146241 6.4682675E-14 113 113 113 255
-0.037501443 0.043915756 0.019159999 0.9934089 -0.1146241 6.4682675E-14 113 113 113 255
-0.037501443 0.043915756 -0.00084000075 0.9934089 -0.1146241 6.4682675E-14 113 113 113 255
-0.034501452 0.06991576 0.019159999 0.9934089 -0.1146241 6.4682675E-14 113 113 113 255
-0.060037345 0.065784596 -0.0021599904 -5.406005E-18 5.6309325E-13 1 51 51 30 255
-0.06091364 0.032847226 -0.0021599904 -5.406005E-18 5.6309325E-13 1 51 51 30 255
-0.04873726 0.041496307 -0.0021599904 -5.406005E-18 5.6309325E-13 1 51 51 30 255
-0.0726397 0.06897524 -0.0021599904 -5.406005E-18 5.6309325E-13 1 51 51 30 255
-0.055794727 -0.017166385 -0.0021599904 -5.406005E-18 5.6309325E-13 1 51 51 30 255
-0.04806734 -0.015095833 -0.0021599904 -5.406005E-18 5.6309325E-13 1 51 51 30 255
-0.07845854 0.06741612 -0.0021599904 -5.406005E-18 5.6309325E-13 1 51 51 30 255
-0.0726397 0.06897524 -0.0021599904 5.406005E-18 -5.6309325E-13 -1 51 51 30 255
-0.06091364 0.032847226 -0.0021599904 5.406005E-18 -5.6309325E-13 -1 51 51 30 255
-0.07845854 0.06741612 -0.0021599904 5.406005E-18 -5.6309325E-13 -1 51 51 30 255
-0.055794727 -0.017166385 -0.0021599904 5.406005E-18 -5.6309325E-13 -1 51 51 30 255
-0.04806734 -0.015095833 -0.0021599904 5.406005E-18 -5.6309325E-13 -1 51 51 30 255
-0.060037345 0.065784596 -0.0021599904 5.406005E-18 -5.6309325E-13 -1 51 51 30 255
-0.04873726 0.041496307 -0.0021599904 5.406005E-18 -5.6309325E-13 -1 51 51 30 255
-0.04806734 -0.015095833 0.020160008 -0.9659258 -0.258819 1.457475E-13 51 51 30 255
-0.06091364 0.032847226 -0.0021599904 -0.9659258 -0.258819 1.457475E-13 51 51 30 255
-0.04806734 -0.015095833 -0.0021599904 -0.9659258 -0.258819 1.457475E-13 51 51 30 255
-0.06091364 0.032847226 0.020160008 -0.9659258 -0.258819 1.457475E-13 51 51 30 255
-0.06091364 0.032847226 0.020160008 0.9659258 0.258819 -1.457475E-13 51 51 30 255
-0.04806734 -0.015095833 0.020160008 0.9659258 0.258819 -1.457475E-13 51 51 30 255
-0.06091364 0.032847226 -0.0021599904 0.9659258 0.258819 -1.457475E-13 51 51 30 255
-0.04806734 -0.015095833 -0.0021599904 0.9659258 0.258819 -1.457475E-13 51 51 30 255
-0.06091364 0.032847226 -0.0021599904 -0.5790935 0.8152611 -4.5897487E-13 51 51 30 255
-0.04873726 0.041496307 0.020160008 -0.5790935 0.8152611 -4.5897487E-13 51 51 30 255
-0.04873726 0.041496307 -0.0021599904 -0.5790935 0.8152611 -4.5897487E-13 51 51 30 255
-0.06091364 0.032847226 0.020160008 -0.5790935 0.8152611 -4.5897487E-13 51 51 30 255
-0.06091364 0.032847226 0.020160008 0.5790935 -0.8152611 4.5897487E-13 51 51 30 255
-0.06091364 0.032847226 -0.0021599904 0.5790935 -0.8152611 4.5897487E-13 51 51 30 255
-0.04873726 0.041496307 0.020160008 0.5790935 -0.8152611 4.5897487E-13 51 51 30 255
-0.04873726 0.041496307 -0.0021599904 0.5790935 -0.8152611 4.5897487E-13 51 51 30 255
-0.04873726 0.041496307 0.020160008 -0.9066758 -0.4218281 2.3749362E-13 51 51 30 255
-0.060037345 0.065784596 -0.0021599904 -0.9066758 -0.4218281 2.3749362E-13 51 51 30 255
-0.04873726 0.041496307 -0.0021599904 -0.9066758 -0.4218281 2.3749362E-13 51 51 30 255
-0.060037345 0.065784596 0.020160008 -0.9066758 -0.4218281 2.3749362E-13 51 51 30 255
-0.060037345 0.065784596 0.020160008 0.9066758 0.4218281 -2.3749362E-13 51 51 30 255
-0.04873726 0.041496307 0.020160008 0.9066758 0.4218281 -2.3749362E-13 51 51 30 255
-0.060037345 0.065784596 -0.0021599904 0.9066758 0.4218281 -2.3749362E-13 51 51 30 255
-0.04873726 0.041496307 -0.0021599904 0.9066758 0.4218281 -2.3749362E-13 51 51 30 255
-0.060037345 0.065784596 -0.0021599904 -0.2454356 -0.9694129 5.457574E-13 51 51 30 255
-0.0726397 0.06897524 0.020160008 -0.2454356 -0.9694129 5.457574E-13 51 51 30 255
-0.0726397 0.06897524 -0.0021599904 -0.2454356 -0.9694129 5.457574E-13 51 51 30 255
-0.060037345 0.065784596 0.020160008 -0.2454356 -0.9694129 5.457574E-13 51 51 30 255
-0.060037345 0.065784596 0.020160008 0.2454356 0.9694129 -5.457574E-13 51 51 30 255
-0.060037345 0.065784596 -0.0021599904 0.2454356 0.9694129 -5.457574E-13 51 51 30 255
-0.0726397 0.06897524 0.020160008 0.2454356 0.9694129 -5.457574E-13 51 51 30 255
-0.0726397 0.06897524 -0.0021599904 0.2454356 0.9694129 -5.457574E-13 51 51 30 255
-0.0726397 0.06897524 0.020160008 0.258819 -0.9659258 5.43802E-13 51 51 30 255
-0.07845854 0.06741612 -0.0021599904 0.258819 -0.9659258 5.43802E-13 51 51 30 255
-0.0726397 0.06897524 -0.0021599904 0.258819 -0.9659258 5.43802E-13 51 51 30 255
-0.07845854 0.06741612 0.020160008 0.258819 -0.9659258 5.43802E-13 51 51 30 255
-0.07845854 0.06741612 0.020160008 -0.258819 0.9659258 -5.43802E-13 51 51 30 255
-0.0726397 0.06897524 0.020160008 -0.258819 0.9659258 -5.43802E-13 51 51 30 255
-0.07845854 0.06741612 -0.0021599904 -0.258819 0.9659258 -5.43802E-13 51 51 30 255
-0.0726397 0.06897524 -0.0021599904 -0.258819 0.9659258 -5.43802E-13 51 51 30 255
-0.07845854 0.06741612 -0.0021599904 0.9659258 0.258819 -1.4547551E-13 51 51 30 255
-0.055794727 -0.017166385 0.020160008 0.9659258 0.258819 -1.4547551E-13 51 51 30 255
-0.055794727 -0.017166385 -0.0021599904 0.9659258 0.258819 -1.4547551E-13 51 51 30 255
-0.07845854 0.06741612 0.020160008 0.9659258 0.258819 -1.4547551E-13 51 51 30 255
-0.07845854 0.06741612 0.020160008 -0.9659258 -0.258819 1.4547551E-13 51 51 30 255
-0.07845854 0.06741612 -0.0021599904 -0.9659258 -0.258819 1.4547551E-13 51 51 30 255
-0.055794727 -0.017166385 0.020160008 -0.9659258 -0.258819 1.4547551E-13 51 51 30 255
-0.055794727 -0.017166385 -0.0021599904 -0.9659258 -0.258819 1.4547551E-13 51 51 30 255
-0.055794727 -0.017166385 -0.0021599904 -0.258819 0.9659258 -5.438597E-13 51 51 30 255
-0.04806734 -0.015095833 0.020160008 -0.258819 0.9659258 -5.438597E-13 51 51 30 255
-0.04806734 -0.015095833 -0.0021599904 -0.258819 0.9659258 -5.438597E-13 51 51 30 255
-0.055794727 -0.017166385 0.020160008 -0.258819 0.9659258 -5.438597E-13 51 51 30 255
-0.055794727 -0.017166385 0.020160008 0.258819 -0.9659258 5.438597E-13 51 51 30 255
-0.055794727 -0.017166385 -0.0021599904 0.258819 -0.9659258 5.438597E-13 51 51 30 255
-0.04806734 -0.015095833 0.020160008 0.258819 -0.9659258 5.438597E-13 51 51 30 255
-0.04806734 -0.015095833 -0.0021599904 0.258819 -0.9659258 5.438597E-13 51 51 30 255
-0.055794727 -0.017166385 0.020160008 5.406005E-18 -5.6309325E-13 -1 51 51 30 255
-0.06091364 0.032847226 0.020160008 5.406005E-18 -5.6309325E-13 -1 51 51 30 255
-0.04806734 -0.015095833 0.020160008 5.406005E-18 -5.6309325E-13 -1 51 51 30 255
-0.07845854 0.06741612 0.020160008 5.406005E-18 -5.6309325E-13 -1 51 51 30 255
-0.0726397 0.06897524 0.020160008 5.406005E-18 -5.6309325E-13 -1 51 51 30 255
-0.060037345 0.065784596 0.020160008 5.406005E-18 -5.6309325E-13 -1 51 51 30 255
-0.04873726 0.041496307 0.020160008 5.406005E-18 -5.6309325E-13 -1 51 51 30 255
-0.0726397 0.06897524 0.020160008 -5.406005E-18 5.6309325E-13 1 51 51 30 255
-0.06091364 0.032847226 0.020160008 -5.406005E-18 5.6309325E-13 1 51 51 30 255
-0.060037345 0.065784596 0.020160008 -5.406005E-18 5.6309325E-13 1 51 51 30 255
-0.04873726 0.041496307 0.020160008 -5.406005E-18 5.6309325E-13 1 51 51 30 255
-0.07845854 0.06741612 0.020160008 -5.406005E-18 5.6309325E-13 1 51 51 30 255
-0.055794727 -0.017166385 0.020160008 -5.406005E-18 5.6309325E-13 1 51 51 30 255
-0.04806734 -0.015095833 0.020160008 -5.406005E-18 5.6309325E-13 1 51 51 30 255
-0.008557257 -0.040754985 0.0029070475 -1.00204395E-16 5.631028E-13 1 30 30 30 255
-0.0015217215 -0.059754994 0.0029070475 -1.00204395E-16 5.631028E-13 1 30 30 30 255
-0.0015217215 -0.040754985 0.0029070475 -1.00204395E-16 5.631028E-13 1 30 30 30 255
-0.008557257 -0.059754994 0.0029070475 -1.00204395E-16 5.631028E-13 1 30 30 30 255
-0.008557257 -0.059754994 0.0029070475 5.953651E-28 1 -5.627944E-13 30 30 30 255
-0.007430741 -0.059754994 0.004858227 5.953651E-28 1 -5.627944E-13 30 30 30 255
-0.0015217215 -0.059754994 0.0029070475 5.953651E-28 1 -5.627944E-13 30 30 30 255
-0.012075025 -0.059754994 0.008999999 5.953651E-28 1 -5.627944E-13 30 30 30 255
-0.009821994 -0.059754994 0.008999999 5.953651E-28 1 -5.627944E-13 30 30 30 255
-0.008557257 -0.059754994 0.015092951 5.953651E-28 1 -5.627944E-13 30 30 30 255
-0.007430741 -0.059754994 0.013141769 5.953651E-28 1 -5.627944E-13 30 30 30 255
-0.002648237 -0.059754994 0.013141769 5.953651E-28 1 -5.627944E-13 30 30 30 255
-0.002648237 -0.059754994 0.004858227 5.953651E-28 1 -5.627944E-13 30 30 30 255
0.0019960462 -0.059754994 0.008999999 5.953651E-28 1 -5.627944E-13 30 30 30 255
-0.0002569845 -0.059754994 0.008999999 5.953651E-28 1 -5.627944E-13 30 30 30 255
-0.0015217215 -0.059754994 0.015092951 5.953651E-28 1 -5.627944E-13 30 30 30 255
0.0019960462 -0.059754994 0.008999999 -0.8660254 2.8152562E-13 0.5 30 30 30 255
-0.0015217215 -0.040754985 0.0029070475 -0.8660254 2.8152562E-13 0.5 30 30 30 255
-0.0015217215 -0.059754994 0.0029070475 -0.8660254 2.8152562E-13 0.5 30 30 30 255
0.0019960462 -0.040754985 0.008999999 -0.8660254 2.8152562E-13 0.5 30 30 30 255
-0.008557257 -0.040754985 0.0029070475 0.8660254 2.815504E-13 0.5 30 30 30 255
-0.012075025 -0.059754994 0.008999999 0.8660254 2.815504E-13 0.5 30 30 30 255
-0.008557257 -0.059754994 0.0029070475 0.8660254 2.815504E-13 0.5 30 30 30 255
-0.012075025 -0.040754985 0.008999999 0.8660254 2.815504E-13 0.5 30 30 30 255
-0.008557257 -0.059754994 0.015092951 4.0081758E-16 -5.629544E-13 -1 30 30 30 255
-0.0015217215 -0.040754985 0.015092951 4.0081758E-16 -5.629544E-13 -1 30 30 30 255
-0.0015217215 -0.059754994 0.015092951 4.0081758E-16 -5.629544E-13 -1 30 30 30 255
-0.008557257 -0.040754985 0.015092951 4.0081758E-16 -5.629544E-13 -1 30 30 30 255
-0.0015217215 -0.059754994 0.015092951 -0.8660254 -2.815289E-13 -0.5 30 30 30 255
0.0019960462 -0.040754985 0.008999999 -0.8660254 -2.815289E-13 -0.5 30 30 30 255
0.0019960462 -0.059754994 0.008999999 -0.8660254 -2.815289E-13 -0.5 30 30 30 255
-0.0015217215 -0.040754985 0.015092951 -0.8660254 -2.815289E-13 -0.5 30 30 30 255
-0.012075025 -0.040754985 0.008999999 0.8660254 -2.8147311E-13 -0.5 30 30 30 255
-0.008557257 -0.059754994 0.015092951 0.8660254 -2.8147311E-13 -0.5 30 30 30 255
-0.012075025 -0.059754994 0.008999999 0.8660254 -2.8147311E-13 -0.5 30 30 30 255
-0.008557257 -0.040754985 0.015092951 0.8660254 -2.8147311E-13 -0.5 30 30 30 255
-0.01053949 -0.040754985 0.018526278 0 -5.628653E-13 -1 30 30 30 255
0.0004605096 -0.035754994 0.018526278 0 -5.628653E-13 -1 30 30 30 255
0.0004605096 -0.040754985 0.018526278 0 -5.628653E-13 -1 30 30 30 255
-0.01053949 -0.035754994 0.018526278 0 -5.628653E-13 -1 30 30 30 255
0.0059605087 -0.035754994 0.008999999 -1.704731E-29 -1 5.630295E-13 30 30 30 255
-0.01053949 -0.035754994 -0.0005262803 -1.704731E-29 -1 5.630295E-13 30 30 30 255
0.0004605096 -0.035754994 -0.0005262803 -1.704731E-29 -1 5.630295E-13 30 30 30 255
-0.016039489 -0.035754994 0.008999999 -1.704731E-29 -1 5.630295E-13 30 30 30 255
0.0004605096 -0.035754994 0.018526278 -1.704731E-29 -1 5.630295E-13 30 30 30 255
-0.01053949 -0.035754994 0.018526278 -1.704731E-29 -1 5.630295E-13 30 30 30 255
0.0004605096 -0.040754985 0.018526278 -0.8660254 -2.8148108E-13 -0.5 30 30 30 255
0.0059605087 -0.035754994 0.008999999 -0.8660254 -2.8148108E-13 -0.5 30 30 30 255
0.0059605087 -0.040754985 0.008999999 -0.8660254 -2.8148108E-13 -0.5 30 30 30 255
0.0004605096 -0.035754994 0.018526278 -0.8660254 -2.8148108E-13 -0.5 30 30 30 255
-0.01053949 -0.040754985 -0.0005262803 1.09227E-17 1 -5.632868E-13 30 30 30 255
-0.008557257 -0.040754985 0.0029070475 1.09227E-17 1 -5.632868E-13 30 30 30 255
0.0004605096 -0.040754985 -0.0005262803 1.09227E-17 1 -5.632868E-13 30 30 30 255
-0.016039489 -0.040754985 0.008999999 1.09227E-17 1 -5.632868E-13 30 30 30 255
-0.012075025 -0.040754985 0.008999999 1.09227E-17 1 -5.632868E-13 30 30 30 255
-0.01053949 -0.040754985 0.018526278 1.09227E-17 1 -5.632868E-13 30 30 30 255
-0.008557257 -0.040754985 0.015092951 1.09227E-17 1 -5.632868E-13 30 30 30 255
-0.0015217215 -0.040754985 0.015092951 1.09227E-17 1 -5.632868E-13 30 30 30 255
-0.0015217215 -0.040754985 0.0029070475 1.09227E-17 1 -5.632868E-13 30 30 30 255
0.0059605087 -0.040754985 0.008999999 1.09227E-17 1 -5.632868E-13 30 30 30 255
0.0019960462 -0.040754985 0.008999999 1.09227E-17 1 -5.632868E-13 30 30 30 255
0.0004605096 -0.040754985 0.018526278 1.09227E-17 1 -5.632868E-13 30 30 30 255
-0.016039489 -0.035754994 0.008999999 0.8660254 -2.8148108E-13 -0.5 30 30 30 255
-0.01053949 -0.040754985 0.018526278 0.8660254 -2.8148108E-13 -0.5 30 30 30 255
-0.016039489 -0.040754985 0.008999999 0.8660254 -2.8148108E-13 -0.5 30 30 30 255
-0.01053949 -0.035754994 0.018526278 0.8660254 -2.8148108E-13 -0.5 30 30 30 255
-0.01053949 -0.035754994 -0.0005262803 0.8660255 2.815257E-13 0.49999988 30 30 30 255
-0.016039489 -0.040754985 0.008999999 0.8660255 2.815257E-13 0.49999988 30 30 30 255
-0.01053949 -0.040754985 -0.0005262803 0.8660255 2.815257E-13 0.49999988 30 30 30 255
-0.016039489 -0.035754994 0.008999999 0.8660255 2.815257E-13 0.49999988 30 30 30 255
-0.01053949 -0.035754994 -0.0005262803 4.0056337E-17 5.6307677E-13 1 30 30 30 255
0.0004605096 -0.040754985 -0.0005262803 4.0056337E-17 5.6307677E-13 1 30 30 30 255
0.0004605096 -0.035754994 -0.0005262803 4.0056337E-17 5.6307677E-13 1 30 30 30 255
-0.01053949 -0.040754985 -0.0005262803 4.0056337E-17 5.6307677E-13 1 30 30 30 255
0.0059605087 -0.040754985 0.008999999 -0.8660255 2.815317E-13 0.49999988 30 30 30 255
0.0004605096 -0.035754994 -0.0005262803 -0.8660255 2.815317E-13 0.49999988 30 30 30 255
0.0004605096 -0.040754985 -0.0005262803 -0.8660255 2.815317E-13 0.49999988 30 30 30 255
0.0059605087 -0.035754994 0.008999999 -0.8660255 2.815317E-13 0.49999988 30 30 30 255
-0.034947198 -0.0152569935 0.02316 7.161348E-29 -1 5.631967E-13 51 51 30 255
-0.055501457 -0.0152569935 -0.0051599997 7.161348E-29 -1 5.631967E-13 51 51 30 255
-0.034947198 -0.0152569935 -0.0051599997 7.161348E-29 -1 5.631967E-13 51 51 30 255
-0.055501457 -0.0152569935 0.02316 7.161348E-29 -1 5.631967E-13 51 51 30 255
-0.03150146 -0.011811233 -0.0051599997 0.7071101 -0.7071034 3.982404E-13 51 51 30 255
-0.034947198 -0.0152569935 0.02316 0.7071101 -0.7071034 3.982404E-13 51 51 30 255
-0.034947198 -0.0152569935 -0.0051599997 0.7071101 -0.7071034 3.982404E-13 51 51 30 255
-0.03150146 -0.011811233 0.02316 0.7071101 -0.7071034 3.982404E-13 51 51 30 255
0.03845855 -0.0152569935 0.02316 6.886842E-17 -5.630754E-13 -1 51 51 30 255
0.022458524 -0.011811233 0.02316 6.886842E-17 -5.630754E-13 -1 51 51 30 255
0.03845855 0.075754985 0.02316 6.886842E-17 -5.630754E-13 -1 51 51 30 255
0.017960519 -0.03575502 0.02316 6.886842E-17 -5.630754E-13 -1 51 51 30 255
-0.016501462 -0.011811233 0.02316 6.886842E-17 -5.630754E-13 -1 51 51 30 255
-0.055501457 -0.03575502 0.02316 6.886842E-17 -5.630754E-13 -1 51 51 30 255
-0.034947198 -0.0152569935 0.02316 6.886842E-17 -5.630754E-13 -1 51 51 30 255
-0.03150146 -0.011811233 0.02316 6.886842E-17 -5.630754E-13 -1 51 51 30 255
-0.016501462 0.059754994 0.02316 6.886842E-17 -5.630754E-13 -1 51 51 30 255
-0.020283004 0.06517561 0.02316 6.886842E-17 -5.630754E-13 -1 51 51 30 255
-0.055501457 -0.0152569935 0.02316 6.886842E-17 -5.630754E-13 -1 51 51 30 255
-0.06150145 -0.025505966 0.02316 6.886842E-17 -5.630754E-13 -1 51 51 30 255
-0.03150146 0.06091575 0.02316 6.886842E-17 -5.630754E-13 -1 51 51 30 255
0.022458524 0.059754994 0.02316 6.886842E-17 -5.630754E-13 -1 51 51 30 255
-0.021460084 0.075754985 0.02316 6.886842E-17 -5.630754E-13 -1 51 51 30 255
-0.023291985 0.073099844 0.02316 6.886842E-17 -5.630754E-13 -1 51 51 30 255
-0.055501457 -0.0152569935 -0.0051599997 0.8629927 -0.5052165 2.8453468E-13 51 51 30 255
-0.06150145 -0.025505966 0.02316 0.8629927 -0.5052165 2.8453468E-13 51 51 30 255
-0.06150145 -0.025505966 -0.0051599997 0.8629927 -0.5052165 2.8453468E-13 51 51 30 255
-0.055501457 -0.0152569935 0.02316 0.8629927 -0.5052165 2.8453468E-13 51 51 30 255
0.03845855 0.075754985 -0.0051599997 -9.384293E-17 5.630585E-13 1 51 51 30 255
0.022458524 0.059754994 -0.0051599997 -9.384293E-17 5.630585E-13 1 51 51 30 255
0.03845855 -0.0152569935 -0.0051599997 -9.384293E-17 5.630585E-13 1 51 51 30 255
-0.021460084 0.075754985 -0.0051599997 -9.384293E-17 5.630585E-13 1 51 51 30 255
-0.016501462 0.059754994 -0.0051599997 -9.384293E-17 5.630585E-13 1 51 51 30 255
-0.020283004 0.06517561 -0.0051599997 -9.384293E-17 5.630585E-13 1 51 51 30 255
-0.016501462 -0.011811233 -0.0051599997 -9.384293E-17 5.630585E-13 1 51 51 30 255
-0.023291985 0.073099844 -0.0051599997 -9.384293E-17 5.630585E-13 1 51 51 30 255
0.022458524 -0.011811233 -0.0051599997 -9.384293E-17 5.630585E-13 1 51 51 30 255
0.017960519 -0.03575502 -0.0051599997 -9.384293E-17 5.630585E-13 1 51 51 30 255
-0.055501457 -0.03575502 -0.0051599997 -9.384293E-17 5.630585E-13 1 51 51 30 255
-0.034947198 -0.0152569935 -0.0051599997 -9.384293E-17 5.630585E-13 1 51 51 30 255
-0.03150146 -0.011811233 -0.0051599997 -9.384293E-17 5.630585E-13 1 51 51 30 255
-0.03150146 0.06091575 -0.0051599997 -9.384293E-17 5.630585E-13 1 51 51 30 255
-0.055501457 -0.0152569935 -0.0051599997 -9.384293E-17 5.630585E-13 1 51 51 30 255
-0.06150145 -0.025505966 -0.0051599997 -9.384293E-17 5.630585E-13 1 51 51 30 255
-0.03150146 0.06091575 -0.0051599997 1 -0 -0 51 51 30 255
-0.03150146 -0.011811233 0.02316 1 -0 -0 51 51 30 255
-0.03150146 -0.011811233 -0.0051599997 1 -0 -0 51 51 30 255
-0.03150146 0.06091575 0.02316 1 -0 -0 51 51 30 255
0.03845855 -0.0152569935 0.02316 -1 -0 -0 51 51 30 255
0.03845855 0.075754985 -0.0051599997 -1 -0 -0 51 51 30 255
0.03845855 -0.0152569935 -0.0051599997 -1 -0 -0 51 51 30 255
0.03845855 0.075754985 0.02316 -1 -0 -0 51 51 30 255
0.017960519 -0.03575502 -0.0051599997 -0.70710677 0.70710677 -3.9822635E-13 51 51 30 255
0.03845855 -0.0152569935 0.02316 -0.70710677 0.70710677 -3.9822635E-13 51 51 30 255
0.03845855 -0.0152569935 -0.0051599997 -0.70710677 0.70710677 -3.9822635E-13 51 51 30 255
0.017960519 -0.03575502 0.02316 -0.70710677 0.70710677 -3.9822635E-13 51 51 30 255
-0.055501457 -0.03575502 0.02316 5.232515E-29 1 -5.631967E-13 51 51 30 255
0.017960519 -0.03575502 -0.0051599997 5.232515E-29 1 -5.631967E-13 51 51 30 255
-0.055501457 -0.03575502 -0.0051599997 5.232515E-29 1 -5.631967E-13 51 51 30 255
0.017960519 -0.03575502 0.02316 5.232515E-29 1 -5.631967E-13 51 51 30 255
-0.06150145 -0.025505966 -0.0051599997 0.8629936 0.5052148 -2.845363E-13 51 51 30 255
-0.055501457 -0.03575502 0.02316 0.8629936 0.5052148 -2.845363E-13 51 51 30 255
-0.055501457 -0.03575502 -0.0051599997 0.8629936 0.5052148 -2.845363E-13 51 51 30 255
-0.06150145 -0.025505966 0.02316 0.8629936 0.5052148 -2.845363E-13 51 51 30 255
-0.020283004 0.06517561 0.02316 0.3549872 -0.9348712 5.2636107E-13 51 51 30 255
-0.03150146 0.06091575 -0.0051599997 0.3549872 -0.9348712 5.2636107E-13 51 51 30 255
-0.020283004 0.06517561 -0.0051599997 0.3549872 -0.9348712 5.2636107E-13 51 51 30 255
-0.03150146 0.06091575 0.02316 0.3549872 -0.9348712 5.2636107E-13 51 51 30 255
-0.023291985 0.073099844 -0.0051599997 0.9348711 0.3549874 -1.9978379E-13 51 51 30 255
-0.020283004 0.06517561 0.02316 0.9348711 0.3549874 -1.9978379E-13 51 51 30 255
-0.020283004 0.06517561 -0.0051599997 0.9348711 0.3549874 -1.9978379E-13 51 51 30 255
-0.023291985 0.073099844 0.02316 0.9348711 0.3549874 -1.9978379E-13 51 51 30 255
-0.021460084 0.075754985 -0.0051599997 0.8231006 -0.5678956 3.199208E-13 51 51 30 255
-0.023291985 0.073099844 0.02316 0.8231006 -0.5678956 3.199208E-13 51 51 30 255
-0.023291985 0.073099844 -0.0051599997 0.8231006 -0.5678956 3.199208E-13 51 51 30 255
-0.021460084 0.075754985 0.02316 0.8231006 -0.5678956 3.199208E-13 51 51 30 255
0.03845855 0.075754985 0.02316 -2.03085E-29 -1 5.631967E-13 51 51 30 255
-0.021460084 0.075754985 -0.0051599997 -2.03085E-29 -1 5.631967E-13 51 51 30 255
0.03845855 0.075754985 -0.0051599997 -2.03085E-29 -1 5.631967E-13 51 51 30 255
-0.021460084 0.075754985 0.02316 -2.03085E-29 -1 5.631967E-13 51 51 30 255
3 0 1 2
3 1 0 3
3 1 3 4
3 4 3 5
3 6 7 8
3 7 6 9
3 10 11 12
3 11 10 13
3 14 15 16
3 15 14 17
3 18 19 20
3 19 18 21
3 22 23 24
3 23 22 25
3 26 27 28
3 27 26 29
3 30 31 32
3 31 30 33
3 34 35 36
3 35 34 37
3 38 39 40
3 39 38 41
3 42 43 44
3 43 42 45
3 46 47 48
3 47 46 49
3 50 51 52
3 51 50 53
3 54 55 56
3 55 54 57
3 58 59 60
3 59 58 61
3 62 63 64
3 63 62 65
3 63 65 66
3 66 65 67
3 68 69 70
3 69 68 71
3 72 73 74
3 73 72 75
3 76 77 78
3 77 76 79
3 80 81 82
3 81 80 83
3 84 85 86
3 85 84 87
3 88 89 90
3 89 88 91
3 89 91 92
3 92 91 93
3 92 93 94
3 92 94 95
3 95 94 96
3 95 96 97
3 98 99 100
3 101 102 103
3 102 101 104
3 104 101 105
3 104 105 106
3 106 105 107
3 107 105 108
3 107 108 109
3 109 108 110
3 111 112 113
3 112 111 114
3 115 116 117
3 116 115 118
3 119 120 121
3 120 119 122
3 123 124 125
3 126 127 128
3 127 126 129
3 130 131 132
3 133 134 135
3 136 137 138
3 139 140 141
3 142 143 144
3 145 146 147
3 148 149 150
3 149 148 151
3 152 153 154
3 153 152 155
3 156 157 158
3 157 156 159
3 160 161 162
3 161 160 163
3 164 165 166
3 165 164 167
3 168 169 170
3 169 168 171
3 172 173 174
3 173 172 175
3 176 177 178
3 177 176 179
3 180 181 182
3 181 180 183
3 184 185 186
3 185 184 187
3 187 184 188
3 187 188 189
3 190 191 192
3 191 190 193
3 194 195 196
3 195 194 197
3 198 199 200
3 199 198 201
3 202 203 204
3 203 202 205
3 206 207 208
3 207 206 209
3 210 211 212
3 211 210 213
3 214 215 216
3 215 214 217
3 218 219 220
3 219 218 221
3 222 223 224
3 223 222 225
3 226 227 228
3 227 226 229
3 229 226 230
3 229 230 231
3 232 233 234
3 233 232 235
3 236 237 238
3 237 236 239
3 240 241 242
3 241 240 243
3 244 245 246
3 245 244 247
3 248 249 250
3 249 248 251
3 252 253 254
3 253 252 255
3 256 257 258
3 257 256 259
3 260 261 262
3 261 260 263
3 264 265 266
3 265 264 267
3 268 269 270
3 269 268 271
3 272 273 274
3 273 272 275
3 276 277 278
3 277 276 279
3 280 281 282
3 281 280 283
3 284 285 286
3 285 284 287
3 288 289 290
3 289 288 291
3 292 293 294
3 293 292 295
3 296 297 298
3 297 296 299
3 300 301 302
3 301 300 303
3 301 304 305
3 304 301 306
3 306 301 303
3 307 308 309
3 309 308 310
3 311 310 308
3 307 312 308
3 313 308 312
3 314 315 316
3 315 314 317
3 318 319 320
3 321 320 319
3 322 323 324
3 323 322 325
3 326 327 328
3 329 328 327
3 330 331 332
3 331 330 333
3 334 335 336
3 337 336 335
3 338 339 340
3 339 338 341
3 342 343 344
3 345 344 343
3 346 347 348
3 347 346 349
3 350 351 352
3 353 352 351
3 354 355 356
3 355 354 357
3 358 359 360
3 361 360 359
3 362 363 364
3 363 362 365
3 366 367 368
3 369 368 367
3 370 371 372
3 371 370 373
3 371 373 374
3 371 375 376
3 375 371 374
3 377 378 379
3 380 379 378
3 377 381 378
3 381 382 378
3 383 378 382
3 384 385 386
3 385 384 387
3 388 389 390
3 389 388 391
3 389 391 392
3 392 391 393
3 392 393 394
3 394 393 395
3 390 396 397
3 396 390 389
3 397 396 398
3 397 398 395
3 397 395 399
3 399 395 393
3 400 401 402
3 401 400 403
3 404 405 406
3 405 404 407
3 408 409 410
3 409 408 411
3 412 413 414
3 413 412 415
3 416 417 418
3 417 416 419
3 420 421 422
3 421 420 423
3 424 425 426
3 425 424 427
3 427 424 428
3 427 428 429
3 430 431 432
3 431 430 433
3 434 435 436
3 435 434 437
3 435 437 438
3 438 437 439
3 438 439 440
3 440 439 441
3 436 442 443
3 442 436 435
3 443 442 444
3 443 444 441
3 443 441 445
3 445 441 439
3 446 447 448
3 447 446 449
3 450 451 452
3 451 450 453
3 454 455 456
3 455 454 457
3 458 459 460
3 459 458 461
3 462 463 464
3 463 462 465
3 466 467 468
3 467 466 469
3 470 471 472
3 471 470 473
3 471 473 474
3 474 473 475
3 474 475 476
3 474 476 477
3 474 477 478
3 478 477 479
3 476 475 480
3 480 475 481
3 482 479 477
3 472 483 484
3 483 472 471
3 484 483 478
3 484 478 479
3 484 479 485
3 486 487 488
3 487 486 489
3 490 491 492
3 491 490 493
3 491 493 494
3 494 493 495
3 494 495 496
3 495 493 497
3 492 498 499
3 498 492 491
3 499 498 496
3 499 496 500
3 500 496 501
3 501 496 502
3 502 496 495
3 502 495 503
3 500 501 504
3 500 504 505
3 506 507 508
3 507 506 509
3 510 511 512
3 511 510 513
3 514 515 516
3 515 514 517
3 518 519 520
3 519 518 521
3 522 523 524
3 523 522 525
3 526 527 528
3 527 526 529
3 530 531 532
3 531 530 533
3 534 535 536
3 535 534 537
3 538 539 540
3 539 538 541

