ply
format ascii 1.0
commentY29udmVydGVyIGJ5IENvZGVMZW9wYXJk
comment Original mesh name: 'C:\Program Files (x86)\Steam\steamapps\common\Stormworks\rom\meshes\component_rod_storage.mesh'
comment SubMesh index: 0
comment SubMesh name: 'ID4'
comment Shader: Opaque (0)
element vertex 628
property float x
property float y
property float z
property float nx
property float ny
property float nz
property uchar red
property uchar green
property uchar blue
property uchar alpha
element face 452
property list uchar ushort vertex_index
end_header
-0.05177668 -4.8749986 0.125 0 -0 -1 255 125 0 255
0.051776703 -4.6249986 0.125 0 -0 -1 255 125 0 255
0.051776703 -4.8749986 0.125 0 -0 -1 255 125 0 255
-0.05177668 -4.6249986 0.125 0 -0 -1 255 125 0 255
0.051776703 -4.6249986 0.125 -0.70710677 5.762621E-18 -0.70710677 255 125 0 255
0.08838834 -4.8749986 0.08838835 -0.70710677 5.762621E-18 -0.70710677 255 125 0 255
0.051776703 -4.8749986 0.125 -0.70710677 5.762621E-18 -0.70710677 255 125 0 255
0.08838834 -4.8124986 0.08838835 -0.70710677 5.762621E-18 -0.70710677 255 125 0 255
0.08838834 -4.687499 0.08838835 -0.70710677 5.762621E-18 -0.70710677 255 125 0 255
0.08838834 -4.6249986 0.08838835 -0.70710677 5.762621E-18 -0.70710677 255 125 0 255
-0.125 -4.8749986 0.05177668 0 1 -0 255 125 0 255
-0.07499999 -4.8749986 0.0063799904 0 1 -0 255 125 0 255
-0.125 -4.8749986 0.0063799904 0 1 -0 255 125 0 255
-0.07499999 -4.8749986 0.031065999 0 1 -0 255 125 0 255
-0.031065999 -4.8749986 0.07499999 0 1 -0 255 125 0 255
-0.08838835 -4.8749986 0.08838835 0 1 -0 255 125 0 255
0.031066028 -4.8749986 0.07499999 0 1 -0 255 125 0 255
0.075 -4.8749986 0.031065999 0 1 -0 255 125 0 255
0.125 -4.8749986 0.0063799904 0 1 -0 255 125 0 255
0.075 -4.8749986 0.0063799904 0 1 -0 255 125 0 255
0.125 -4.8749986 0.05177668 0 1 -0 255 125 0 255
0.08838834 -4.8749986 0.08838835 0 1 -0 255 125 0 255
-0.05177668 -4.8749986 0.125 0 1 -0 255 125 0 255
0.051776703 -4.8749986 0.125 0 1 -0 255 125 0 255
-0.08838835 -4.8749986 0.08838835 0.70710677 -0 -0.70710677 255 125 0 255
-0.05177668 -4.6249986 0.125 0.70710677 -0 -0.70710677 255 125 0 255
-0.05177668 -4.8749986 0.125 0.70710677 -0 -0.70710677 255 125 0 255
-0.08838835 -4.6249986 0.08838835 0.70710677 -0 -0.70710677 255 125 0 255
-0.08838835 -4.8124986 0.08838835 0.70710677 -0 -0.70710677 255 125 0 255
-0.08838835 -4.687499 0.08838835 0.70710677 -0 -0.70710677 255 125 0 255
0.125 -4.6249986 0.05177668 0 -1 -0 255 125 0 255
0.075 -4.6249986 0.0063799904 0 -1 -0 255 125 0 255
0.125 -4.6249986 0.0063799904 0 -1 -0 255 125 0 255
0.075 -4.6249986 0.031065999 0 -1 -0 255 125 0 255
0.031066028 -4.6249986 0.07499999 0 -1 -0 255 125 0 255
0.08838834 -4.6249986 0.08838835 0 -1 -0 255 125 0 255
-0.031065999 -4.6249986 0.07499999 0 -1 -0 255 125 0 255
-0.08838835 -4.6249986 0.08838835 0 -1 -0 255 125 0 255
-0.05177668 -4.6249986 0.125 0 -1 -0 255 125 0 255
0.051776703 -4.6249986 0.125 0 -1 -0 255 125 0 255
-0.07499999 -4.6249986 0.031065999 0 -1 -0 255 125 0 255
-0.125 -4.6249986 0.0063799904 0 -1 -0 255 125 0 255
-0.07499999 -4.6249986 0.0063799904 0 -1 -0 255 125 0 255
-0.125 -4.6249986 0.05177668 0 -1 -0 255 125 0 255
0.125 -4.687499 0.08838835 0 -0 -1 255 125 0 255
0.12231918 -4.6562486 0.08838835 0 -0 -1 255 125 0 255
0.125 -4.6249986 0.08838835 0 -0 -1 255 125 0 255
0.10669418 -4.671874 0.08838835 0 -0 -1 255 125 0 255
0.08838834 -4.687499 0.08838835 0 -0 -1 255 125 0 255
0.09106918 -4.6562486 0.08838835 0 -0 -1 255 125 0 255
0.10669418 -4.640624 0.08838835 0 -0 -1 255 125 0 255
0.08838834 -4.6249986 0.08838835 0 -0 -1 255 125 0 255
0.125 -4.6249986 0.05177668 -0.70710677 -0 -0.70710677 255 125 0 255
0.125 -4.687499 0.05177668 -0.70710677 -0 -0.70710677 255 125 0 255
0.125 -4.8124986 0.05177668 -0.70710677 -0 -0.70710677 255 125 0 255
0.125 -4.8749986 0.08838835 0 -0 -1 255 125 0 255
0.12231918 -4.8437486 0.08838835 0 -0 -1 255 125 0 255
0.125 -4.8124986 0.08838835 0 -0 -1 255 125 0 255
0.10669418 -4.8593736 0.08838835 0 -0 -1 255 125 0 255
0.08838834 -4.8749986 0.08838835 0 -0 -1 255 125 0 255
0.09106918 -4.8437486 0.08838835 0 -0 -1 255 125 0 255
0.10669418 -4.8281236 0.08838835 0 -0 -1 255 125 0 255
0.08838834 -4.8124986 0.08838835 0 -0 -1 255 125 0 255
0.125 -4.8749986 0.05177668 -0.70710677 -0 -0.70710677 255 125 0 255
-0.125 -4.8749986 0.08838835 0 1 -0 255 125 0 255
0.125 -4.8749986 0.08838835 0 1 -0 255 125 0 255
0.125 -4.8124986 0.05177668 -1 -0 -0 255 125 0 255
0.125 -4.8749986 0.0063799904 -1 -0 -0 255 125 0 255
0.125 -4.8749986 0.05177668 -1 -0 -0 255 125 0 255
0.125 -4.6249986 0.0063799904 -1 -0 -0 255 125 0 255
0.125 -4.687499 0.05177668 -1 -0 -0 255 125 0 255
0.125 -4.6249986 0.05177668 -1 -0 -0 255 125 0 255
-0.125 -4.6249986 0.0063799904 1 -0 -0 255 125 0 255
-0.125 -4.8749986 0.05177668 1 -0 -0 255 125 0 255
-0.125 -4.8749986 0.0063799904 1 -0 -0 255 125 0 255
-0.125 -4.8124986 0.05177668 1 -0 -0 255 125 0 255
-0.125 -4.687499 0.05177668 1 -0 -0 255 125 0 255
-0.125 -4.6249986 0.05177668 1 -0 -0 255 125 0 255
-0.08838835 -4.8749986 0.08838835 0 -0 -1 255 125 0 255
-0.09106917 -4.8437486 0.08838835 0 -0 -1 255 125 0 255
-0.08838835 -4.8124986 0.08838835 0 -0 -1 255 125 0 255
-0.106694154 -4.8593736 0.08838835 0 -0 -1 255 125 0 255
-0.125 -4.8749986 0.08838835 0 -0 -1 255 125 0 255
-0.12231914 -4.8437486 0.08838835 0 -0 -1 255 125 0 255
-0.106694154 -4.8281236 0.08838835 0 -0 -1 255 125 0 255
-0.125 -4.8124986 0.08838835 0 -0 -1 255 125 0 255
-0.125 -4.8124986 0.05177668 0.70710677 -0 -0.70710677 255 125 0 255
-0.125 -4.687499 0.05177668 0.70710677 -0 -0.70710677 255 125 0 255
-0.08838835 -4.687499 0.08838835 0 -0 -1 255 125 0 255
-0.09106917 -4.6562486 0.08838835 0 -0 -1 255 125 0 255
-0.08838835 -4.6249986 0.08838835 0 -0 -1 255 125 0 255
-0.106694154 -4.671874 0.08838835 0 -0 -1 255 125 0 255
-0.125 -4.687499 0.08838835 0 -0 -1 255 125 0 255
-0.12231914 -4.6562486 0.08838835 0 -0 -1 255 125 0 255
-0.106694154 -4.640624 0.08838835 0 -0 -1 255 125 0 255
-0.125 -4.6249986 0.08838835 0 -0 -1 255 125 0 255
0.125 -4.6249986 0.08838835 0 -1 -0 255 125 0 255
-0.125 -4.6249986 0.08838835 0 -1 -0 255 125 0 255
0.125 -4.6249986 0.08838835 -1 -0 -0 255 125 0 255
0.125 -4.687499 0.08838835 -1 -0 -0 255 125 0 255
0.125 -4.687499 0.08838835 0 1 -0 255 125 0 255
0.125 -4.687499 0.05177668 0 1 -0 255 125 0 255
0.08838834 -4.687499 0.08838835 0 1 -0 255 125 0 255
0.08838834 -4.8124986 0.08838835 0 -1 -0 255 125 0 255
0.125 -4.8124986 0.05177668 0 -1 -0 255 125 0 255
0.125 -4.8124986 0.08838835 0 -1 -0 255 125 0 255
0.125 -4.8124986 0.08838835 -1 -0 -0 255 125 0 255
0.125 -4.8749986 0.08838835 -1 -0 -0 255 125 0 255
-0.125 -4.8749986 0.08838835 1 -0 -0 255 125 0 255
-0.125 -4.8124986 0.08838835 1 -0 -0 255 125 0 255
-0.125 -4.687499 0.08838835 1 -0 -0 255 125 0 255
-0.125 -4.6249986 0.08838835 1 -0 -0 255 125 0 255
-0.125 -4.8124986 0.08838835 0 -1 -0 255 125 0 255
-0.125 -4.8124986 0.05177668 0 -1 -0 255 125 0 255
-0.08838835 -4.8124986 0.08838835 0 -1 -0 255 125 0 255
-0.08838835 -4.687499 0.08838835 0 1 -0 255 125 0 255
-0.125 -4.687499 0.05177668 0 1 -0 255 125 0 255
-0.125 -4.687499 0.08838835 0 1 -0 255 125 0 255
0.125 -4.6249986 -0.125 0 -1 -0 255 125 0 255
0.031066028 -4.6249986 -0.075 0 -1 -0 255 125 0 255
-0.125 -4.6249986 -0.125 0 -1 -0 255 125 0 255
0.125 -4.6249986 -0.0067419955 0 -1 -0 255 125 0 255
-0.031065999 -4.6249986 -0.075 0 -1 -0 255 125 0 255
0.075 -4.6249986 -0.031066028 0 -1 -0 255 125 0 255
0.075 -4.6249986 -0.0067419955 0 -1 -0 255 125 0 255
-0.125 -4.6249986 -0.0067419955 0 -1 -0 255 125 0 255
-0.07499999 -4.6249986 -0.031066028 0 -1 -0 255 125 0 255
-0.07499999 -4.6249986 -0.0067419955 0 -1 -0 255 125 0 255
0.125 -4.6249986 -0.0067419955 -1 -0 -0 255 125 0 255
0.125 -4.8749986 -0.125 -1 -0 -0 255 125 0 255
0.125 -4.8749986 -0.0067419955 -1 -0 -0 255 125 0 255
0.125 -4.6249986 -0.125 -1 -0 -0 255 125 0 255
-0.125 -4.6249986 -0.125 1 -0 -0 255 125 0 255
-0.125 -4.8749986 -0.0067419955 1 -0 -0 255 125 0 255
-0.125 -4.8749986 -0.125 1 -0 -0 255 125 0 255
-0.125 -4.6249986 -0.0067419955 1 -0 -0 255 125 0 255
-0.125 -4.8749986 -0.125 0 1 -2.361435E-30 255 125 0 255
-0.031065999 -4.8749986 -0.075 0 1 -2.361435E-30 255 125 0 255
0.125 -4.8749986 -0.125 0 1 -2.361435E-30 255 125 0 255
-0.125 -4.8749986 -0.0067419955 0 1 -2.361435E-30 255 125 0 255
-0.07499999 -4.8749986 -0.031066028 0 1 -2.361435E-30 255 125 0 255
-0.07499999 -4.8749986 -0.0067419955 0 1 -2.361435E-30 255 125 0 255
0.031066028 -4.8749986 -0.075 0 1 -2.361435E-30 255 125 0 255
0.125 -4.8749986 -0.0067419955 0 1 -2.361435E-30 255 125 0 255
0.075 -4.8749986 -0.031066028 0 1 -2.361435E-30 255 125 0 255
0.075 -4.8749986 -0.0067419955 0 1 -2.361435E-30 255 125 0 255
-0.026340108 -4.8749986 -0.06359062 4.2823932E-16 -0 -1 86 86 86 255
0.026340108 -4.6249986 -0.06359062 4.2823932E-16 -0 -1 86 86 86 255
0.026340108 -4.8749986 -0.06359062 4.2823932E-16 -0 -1 86 86 86 255
-0.026340108 -4.6249986 -0.06359062 4.2823932E-16 -0 -1 86 86 86 255
0.026340108 -4.6249986 -0.06359062 0.70710677 -0 -0.70710677 86 86 86 255
0.06359062 -4.8749986 -0.026340108 0.70710677 -0 -0.70710677 86 86 86 255
0.026340108 -4.8749986 -0.06359062 0.70710677 -0 -0.70710677 86 86 86 255
0.06359062 -4.6249986 -0.026340108 0.70710677 -0 -0.70710677 86 86 86 255
-0.06359062 -4.6249986 -0.026340108 -0.70710677 -0 -0.70710677 86 86 86 255
-0.026340108 -4.8749986 -0.06359062 -0.70710677 -0 -0.70710677 86 86 86 255
-0.06359062 -4.8749986 -0.026340108 -0.70710677 -0 -0.70710677 86 86 86 255
-0.026340108 -4.6249986 -0.06359062 -0.70710677 -0 -0.70710677 86 86 86 255
0.06359062 -4.6249986 -0.026340108 1 -0 -0 86 86 86 255
0.06359062 -4.8749986 0.026340108 1 -0 -0 86 86 86 255
0.06359062 -4.8749986 -0.026340108 1 -0 -0 86 86 86 255
0.06359062 -4.6249986 0.026340108 1 -0 -0 86 86 86 255
-0.06359062 -4.6249986 0.026340108 -1 -0 -0 86 86 86 255
-0.06359062 -4.8749986 -0.026340108 -1 -0 -0 86 86 86 255
-0.06359062 -4.8749986 0.026340108 -1 -0 -0 86 86 86 255
-0.06359062 -4.6249986 -0.026340108 -1 -0 -0 86 86 86 255
0.06359062 -4.6249986 0.026340108 0.70710677 -0 0.70710677 86 86 86 255
0.026340108 -4.8749986 0.06359062 0.70710677 -0 0.70710677 86 86 86 255
0.06359062 -4.8749986 0.026340108 0.70710677 -0 0.70710677 86 86 86 255
0.026340108 -4.6249986 0.06359062 0.70710677 -0 0.70710677 86 86 86 255
-0.026340108 -4.6249986 0.06359062 -0.70710677 -0 0.70710677 86 86 86 255
-0.06359062 -4.8749986 0.026340108 -0.70710677 -0 0.70710677 86 86 86 255
-0.026340108 -4.8749986 0.06359062 -0.70710677 -0 0.70710677 86 86 86 255
-0.06359062 -4.6249986 0.026340108 -0.70710677 -0 0.70710677 86 86 86 255
-0.026340108 -4.6249986 0.06359062 0 -0 1 86 86 86 255
0.026340108 -4.8749986 0.06359062 0 -0 1 86 86 86 255
0.026340108 -4.6249986 0.06359062 0 -0 1 86 86 86 255
-0.026340108 -4.8749986 0.06359062 0 -0 1 86 86 86 255
-0.106694154 -4.8593736 0.09338833 0 -0 -1 86 86 86 255
-0.106694154 -4.8281236 0.09338833 0 -0 -1 86 86 86 255
-0.09106917 -4.8437486 0.09338833 0 -0 -1 86 86 86 255
-0.12231914 -4.8437486 0.09338833 0 -0 -1 86 86 86 255
-0.12231914 -4.8437486 0.08838835 0.70710677 0.70710677 -0 86 86 86 255
-0.106694154 -4.8593736 0.09338833 0.70710677 0.70710677 -0 86 86 86 255
-0.106694154 -4.8593736 0.08838835 0.70710677 0.70710677 -0 86 86 86 255
-0.12231914 -4.8437486 0.09338833 0.70710677 0.70710677 -0 86 86 86 255
-0.106694154 -4.8281236 0.08838835 0.70710677 -0.70710677 -0 86 86 86 255
-0.12231914 -4.8437486 0.09338833 0.70710677 -0.70710677 -0 86 86 86 255
-0.12231914 -4.8437486 0.08838835 0.70710677 -0.70710677 -0 86 86 86 255
-0.106694154 -4.8281236 0.09338833 0.70710677 -0.70710677 -0 86 86 86 255
-0.106694154 -4.8281236 0.09338833 -0.70710677 -0.70710677 -0 86 86 86 255
-0.09106917 -4.8437486 0.08838835 -0.70710677 -0.70710677 -0 86 86 86 255
-0.09106917 -4.8437486 0.09338833 -0.70710677 -0.70710677 -0 86 86 86 255
-0.106694154 -4.8281236 0.08838835 -0.70710677 -0.70710677 -0 86 86 86 255
-0.09106917 -4.8437486 0.09338833 -0.70710677 0.70710677 -0 86 86 86 255
-0.106694154 -4.8593736 0.08838835 -0.70710677 0.70710677 -0 86 86 86 255
-0.106694154 -4.8593736 0.09338833 -0.70710677 0.70710677 -0 86 86 86 255
-0.09106917 -4.8437486 0.08838835 -0.70710677 0.70710677 -0 86 86 86 255
-0.106694154 -4.671874 0.09338833 0 -0 -1 86 86 86 255
-0.106694154 -4.640624 0.09338833 0 -0 -1 86 86 86 255
-0.09106917 -4.6562486 0.09338833 0 -0 -1 86 86 86 255
-0.12231914 -4.6562486 0.09338833 0 -0 -1 86 86 86 255
-0.12231914 -4.6562486 0.08838835 0.70710677 0.70710677 -0 86 86 86 255
-0.106694154 -4.671874 0.09338833 0.70710677 0.70710677 -0 86 86 86 255
-0.106694154 -4.671874 0.08838835 0.70710677 0.70710677 -0 86 86 86 255
-0.12231914 -4.6562486 0.09338833 0.70710677 0.70710677 -0 86 86 86 255
-0.106694154 -4.640624 0.08838835 0.70710677 -0.70710677 -0 86 86 86 255
-0.12231914 -4.6562486 0.09338833 0.70710677 -0.70710677 -0 86 86 86 255
-0.12231914 -4.6562486 0.08838835 0.70710677 -0.70710677 -0 86 86 86 255
-0.106694154 -4.640624 0.09338833 0.70710677 -0.70710677 -0 86 86 86 255
-0.106694154 -4.640624 0.09338833 -0.70710677 -0.70710677 -0 86 86 86 255
-0.09106917 -4.6562486 0.08838835 -0.70710677 -0.70710677 -0 86 86 86 255
-0.09106917 -4.6562486 0.09338833 -0.70710677 -0.70710677 -0 86 86 86 255
-0.106694154 -4.640624 0.08838835 -0.70710677 -0.70710677 -0 86 86 86 255
-0.09106917 -4.6562486 0.09338833 -0.70710677 0.70710677 -0 86 86 86 255
-0.106694154 -4.671874 0.08838835 -0.70710677 0.70710677 -0 86 86 86 255
-0.106694154 -4.671874 0.09338833 -0.70710677 0.70710677 -0 86 86 86 255
-0.09106917 -4.6562486 0.08838835 -0.70710677 0.70710677 -0 86 86 86 255
0.10669418 -4.8593736 0.09338833 0 -0 -1 86 86 86 255
0.10669418 -4.8281236 0.09338833 0 -0 -1 86 86 86 255
0.12231918 -4.8437486 0.09338833 0 -0 -1 86 86 86 255
0.09106918 -4.8437486 0.09338833 0 -0 -1 86 86 86 255
0.09106918 -4.8437486 0.08838835 0.70710677 0.70710677 -0 86 86 86 255
0.10669418 -4.8593736 0.09338833 0.70710677 0.70710677 -0 86 86 86 255
0.10669418 -4.8593736 0.08838835 0.70710677 0.70710677 -0 86 86 86 255
0.09106918 -4.8437486 0.09338833 0.70710677 0.70710677 -0 86 86 86 255
0.10669418 -4.8281236 0.08838835 0.70710677 -0.70710677 -0 86 86 86 255
0.09106918 -4.8437486 0.09338833 0.70710677 -0.70710677 -0 86 86 86 255
0.09106918 -4.8437486 0.08838835 0.70710677 -0.70710677 -0 86 86 86 255
0.10669418 -4.8281236 0.09338833 0.70710677 -0.70710677 -0 86 86 86 255
0.10669418 -4.8281236 0.09338833 -0.70710677 -0.70710677 -0 86 86 86 255
0.12231918 -4.8437486 0.08838835 -0.70710677 -0.70710677 -0 86 86 86 255
0.12231918 -4.8437486 0.09338833 -0.70710677 -0.70710677 -0 86 86 86 255
0.10669418 -4.8281236 0.08838835 -0.70710677 -0.70710677 -0 86 86 86 255
0.12231918 -4.8437486 0.09338833 -0.70710677 0.70710677 -0 86 86 86 255
0.10669418 -4.8593736 0.08838835 -0.70710677 0.70710677 -0 86 86 86 255
0.10669418 -4.8593736 0.09338833 -0.70710677 0.70710677 -0 86 86 86 255
0.12231918 -4.8437486 0.08838835 -0.70710677 0.70710677 -0 86 86 86 255
0.10669418 -4.671874 0.09338833 0 -0 -1 86 86 86 255
0.10669418 -4.640624 0.09338833 0 -0 -1 86 86 86 255
0.12231918 -4.6562486 0.09338833 0 -0 -1 86 86 86 255
0.09106918 -4.6562486 0.09338833 0 -0 -1 86 86 86 255
0.09106918 -4.6562486 0.08838835 0.70710677 0.70710677 -0 86 86 86 255
0.10669418 -4.671874 0.09338833 0.70710677 0.70710677 -0 86 86 86 255
0.10669418 -4.671874 0.08838835 0.70710677 0.70710677 -0 86 86 86 255
0.09106918 -4.6562486 0.09338833 0.70710677 0.70710677 -0 86 86 86 255
0.10669418 -4.640624 0.08838835 0.70710677 -0.70710677 -0 86 86 86 255
0.09106918 -4.6562486 0.09338833 0.70710677 -0.70710677 -0 86 86 86 255
0.09106918 -4.6562486 0.08838835 0.70710677 -0.70710677 -0 86 86 86 255
0.10669418 -4.640624 0.09338833 0.70710677 -0.70710677 -0 86 86 86 255
0.10669418 -4.640624 0.09338833 -0.70710677 -0.70710677 -0 86 86 86 255
0.12231918 -4.6562486 0.08838835 -0.70710677 -0.70710677 -0 86 86 86 255
0.12231918 -4.6562486 0.09338833 -0.70710677 -0.70710677 -0 86 86 86 255
0.10669418 -4.640624 0.08838835 -0.70710677 -0.70710677 -0 86 86 86 255
0.12231918 -4.6562486 0.09338833 -0.70710677 0.70710677 -0 86 86 86 255
0.10669418 -4.671874 0.08838835 -0.70710677 0.70710677 -0 86 86 86 255
0.10669418 -4.671874 0.09338833 -0.70710677 0.70710677 -0 86 86 86 255
0.12231918 -4.6562486 0.08838835 -0.70710677 0.70710677 -0 86 86 86 255
-0.125 -4.8749986 0.0063799904 0 1 -0 86 86 86 255
-0.07499999 -4.8749986 -0.0067419955 0 1 -0 86 86 86 255
-0.125 -4.8749986 -0.0067419955 0 1 -0 86 86 86 255
-0.07499999 -4.8749986 0.0063799904 0 1 -0 86 86 86 255
-0.031065999 -4.8749986 -0.075 -6.918769E-16 1 4.788921E-16 86 86 86 255
-0.026340108 -4.8749986 -0.06359062 -6.918769E-16 1 4.788921E-16 86 86 86 255
0.031066028 -4.8749986 -0.075 -6.918769E-16 1 4.788921E-16 86 86 86 255
-0.07499999 -4.8749986 -0.031066028 -6.918769E-16 1 4.788921E-16 86 86 86 255
-0.06359062 -4.8749986 -0.026340108 -6.918769E-16 1 4.788921E-16 86 86 86 255
-0.06359062 -4.8749986 0.026340108 -6.918769E-16 1 4.788921E-16 86 86 86 255
-0.07499999 -4.8749986 0.031065999 -6.918769E-16 1 4.788921E-16 86 86 86 255
-0.026340108 -4.8749986 0.06359062 -6.918769E-16 1 4.788921E-16 86 86 86 255
-0.031065999 -4.8749986 0.07499999 -6.918769E-16 1 4.788921E-16 86 86 86 255
0.026340108 -4.8749986 0.06359062 -6.918769E-16 1 4.788921E-16 86 86 86 255
0.026340108 -4.8749986 -0.06359062 -6.918769E-16 1 4.788921E-16 86 86 86 255
0.075 -4.8749986 -0.031066028 -6.918769E-16 1 4.788921E-16 86 86 86 255
0.06359062 -4.8749986 -0.026340108 -6.918769E-16 1 4.788921E-16 86 86 86 255
0.075 -4.8749986 -0.0067419955 -6.918769E-16 1 4.788921E-16 86 86 86 255
0.06359062 -4.8749986 0.026340108 -6.918769E-16 1 4.788921E-16 86 86 86 255
0.075 -4.8749986 0.0063799904 -6.918769E-16 1 4.788921E-16 86 86 86 255
0.075 -4.8749986 0.031065999 -6.918769E-16 1 4.788921E-16 86 86 86 255
0.031066028 -4.8749986 0.07499999 -6.918769E-16 1 4.788921E-16 86 86 86 255
-0.125 -4.6249986 -0.0067419955 1 -0 -0 86 86 86 255
-0.125 -4.8749986 0.0063799904 1 -0 -0 86 86 86 255
-0.125 -4.8749986 -0.0067419955 1 -0 -0 86 86 86 255
-0.125 -4.6249986 0.0063799904 1 -0 -0 86 86 86 255
0.125 -4.8749986 -0.0067419955 0 1 -0 86 86 86 255
0.125 -4.8749986 0.0063799904 0 1 -0 86 86 86 255
-0.07499999 -4.6249986 0.0063799904 0 -1 -0 86 86 86 255
-0.125 -4.6249986 -0.0067419955 0 -1 -0 86 86 86 255
-0.07499999 -4.6249986 -0.0067419955 0 -1 -0 86 86 86 255
-0.125 -4.6249986 0.0063799904 0 -1 -0 86 86 86 255
0.125 -4.6249986 0.0063799904 -1 -0 -0 86 86 86 255
0.125 -4.8749986 -0.0067419955 -1 -0 -0 86 86 86 255
0.125 -4.8749986 0.0063799904 -1 -0 -0 86 86 86 255
0.125 -4.6249986 -0.0067419955 -1 -0 -0 86 86 86 255
0.031066028 -4.6249986 -0.075 1.325043E-31 -1 -2.7826372E-30 86 86 86 255
0.026340108 -4.6249986 -0.06359062 1.325043E-31 -1 -2.7826372E-30 86 86 86 255
-0.026340108 -4.6249986 -0.06359062 1.325043E-31 -1 -2.7826372E-30 86 86 86 255
0.075 -4.6249986 -0.031066028 1.325043E-31 -1 -2.7826372E-30 86 86 86 255
0.06359062 -4.6249986 -0.026340108 1.325043E-31 -1 -2.7826372E-30 86 86 86 255
0.075 -4.6249986 -0.0067419955 1.325043E-31 -1 -2.7826372E-30 86 86 86 255
0.06359062 -4.6249986 0.026340108 1.325043E-31 -1 -2.7826372E-30 86 86 86 255
0.075 -4.6249986 0.0063799904 1.325043E-31 -1 -2.7826372E-30 86 86 86 255
0.075 -4.6249986 0.031065999 1.325043E-31 -1 -2.7826372E-30 86 86 86 255
0.026340108 -4.6249986 0.06359062 1.325043E-31 -1 -2.7826372E-30 86 86 86 255
0.031066028 -4.6249986 0.07499999 1.325043E-31 -1 -2.7826372E-30 86 86 86 255
-0.026340108 -4.6249986 0.06359062 1.325043E-31 -1 -2.7826372E-30 86 86 86 255
-0.031065999 -4.6249986 -0.075 1.325043E-31 -1 -2.7826372E-30 86 86 86 255
-0.07499999 -4.6249986 -0.031066028 1.325043E-31 -1 -2.7826372E-30 86 86 86 255
-0.06359062 -4.6249986 -0.026340108 1.325043E-31 -1 -2.7826372E-30 86 86 86 255
-0.06359062 -4.6249986 0.026340108 1.325043E-31 -1 -2.7826372E-30 86 86 86 255
-0.07499999 -4.6249986 0.031065999 1.325043E-31 -1 -2.7826372E-30 86 86 86 255
-0.031065999 -4.6249986 0.07499999 1.325043E-31 -1 -2.7826372E-30 86 86 86 255
0.125 -4.6249986 0.0063799904 0 -1 -0 86 86 86 255
0.125 -4.6249986 -0.0067419955 0 -1 -0 86 86 86 255
-0.05177668 4.6249995 0.125 0 -0 -1 255 125 0 255
0.051776703 4.8749995 0.125 0 -0 -1 255 125 0 255
0.051776703 4.6249995 0.125 0 -0 -1 255 125 0 255
-0.05177668 4.8749995 0.125 0 -0 -1 255 125 0 255
0.051776703 4.8749995 0.125 -0.70710677 5.762621E-18 -0.70710677 255 125 0 255
0.08838834 4.6249995 0.08838835 -0.70710677 5.762621E-18 -0.70710677 255 125 0 255
0.051776703 4.6249995 0.125 -0.70710677 5.762621E-18 -0.70710677 255 125 0 255
0.08838834 4.687499 0.08838835 -0.70710677 5.762621E-18 -0.70710677 255 125 0 255
0.08838834 4.812499 0.08838835 -0.70710677 5.762621E-18 -0.70710677 255 125 0 255
0.08838834 4.8749995 0.08838835 -0.70710677 5.762621E-18 -0.70710677 255 125 0 255
-0.125 4.6249995 0.05177668 0 1 -0 255 125 0 255
-0.07499999 4.6249995 0.0063799904 0 1 -0 255 125 0 255
-0.125 4.6249995 0.0063799904 0 1 -0 255 125 0 255
-0.07499999 4.6249995 0.031065999 0 1 -0 255 125 0 255
-0.031065999 4.6249995 0.07499999 0 1 -0 255 125 0 255
-0.08838835 4.6249995 0.08838835 0 1 -0 255 125 0 255
0.031066028 4.6249995 0.07499999 0 1 -0 255 125 0 255
0.075 4.6249995 0.031065999 0 1 -0 255 125 0 255
0.125 4.6249995 0.0063799904 0 1 -0 255 125 0 255
0.075 4.6249995 0.0063799904 0 1 -0 255 125 0 255
0.125 4.6249995 0.05177668 0 1 -0 255 125 0 255
0.08838834 4.6249995 0.08838835 0 1 -0 255 125 0 255
-0.05177668 4.6249995 0.125 0 1 -0 255 125 0 255
0.051776703 4.6249995 0.125 0 1 -0 255 125 0 255
-0.08838835 4.6249995 0.08838835 0.70710677 -0 -0.70710677 255 125 0 255
-0.05177668 4.8749995 0.125 0.70710677 -0 -0.70710677 255 125 0 255
-0.05177668 4.6249995 0.125 0.70710677 -0 -0.70710677 255 125 0 255
-0.08838835 4.8749995 0.08838835 0.70710677 -0 -0.70710677 255 125 0 255
-0.08838835 4.687499 0.08838835 0.70710677 -0 -0.70710677 255 125 0 255
-0.08838835 4.812499 0.08838835 0.70710677 -0 -0.70710677 255 125 0 255
0.125 4.8749995 0.05177668 0 -1 -0 255 125 0 255
0.075 4.8749995 0.0063799904 0 -1 -0 255 125 0 255
0.125 4.8749995 0.0063799904 0 -1 -0 255 125 0 255
0.075 4.8749995 0.031065999 0 -1 -0 255 125 0 255
0.031066028 4.8749995 0.07499999 0 -1 -0 255 125 0 255
0.08838834 4.8749995 0.08838835 0 -1 -0 255 125 0 255
-0.031065999 4.8749995 0.07499999 0 -1 -0 255 125 0 255
-0.08838835 4.8749995 0.08838835 0 -1 -0 255 125 0 255
-0.05177668 4.8749995 0.125 0 -1 -0 255 125 0 255
0.051776703 4.8749995 0.125 0 -1 -0 255 125 0 255
-0.07499999 4.8749995 0.031065999 0 -1 -0 255 125 0 255
-0.125 4.8749995 0.0063799904 0 -1 -0 255 125 0 255
-0.07499999 4.8749995 0.0063799904 0 -1 -0 255 125 0 255
-0.125 4.8749995 0.05177668 0 -1 -0 255 125 0 255
0.125 4.812499 0.08838835 0 -0 -1 255 125 0 255
0.12231918 4.8437495 0.08838835 0 -0 -1 255 125 0 255
0.125 4.8749995 0.08838835 0 -0 -1 255 125 0 255
0.10669418 4.828124 0.08838835 0 -0 -1 255 125 0 255
0.08838834 4.812499 0.08838835 0 -0 -1 255 125 0 255
0.09106918 4.8437495 0.08838835 0 -0 -1 255 125 0 255
0.10669418 4.8593745 0.08838835 0 -0 -1 255 125 0 255
0.08838834 4.8749995 0.08838835 0 -0 -1 255 125 0 255
0.125 4.8749995 0.05177668 -0.70710677 -0 -0.70710677 255 125 0 255
0.125 4.812499 0.05177668 -0.70710677 -0 -0.70710677 255 125 0 255
0.125 4.687499 0.05177668 -0.70710677 -0 -0.70710677 255 125 0 255
0.125 4.6249995 0.08838835 0 -0 -1 255 125 0 255
0.12231918 4.656249 0.08838835 0 -0 -1 255 125 0 255
0.125 4.687499 0.08838835 0 -0 -1 255 125 0 255
0.10669418 4.6406245 0.08838835 0 -0 -1 255 125 0 255
0.08838834 4.6249995 0.08838835 0 -0 -1 255 125 0 255
0.09106918 4.656249 0.08838835 0 -0 -1 255 125 0 255
0.10669418 4.671874 0.08838835 0 -0 -1 255 125 0 255
0.08838834 4.687499 0.08838835 0 -0 -1 255 125 0 255
0.125 4.6249995 0.05177668 -0.70710677 -0 -0.70710677 255 125 0 255
-0.125 4.6249995 0.08838835 0 1 -0 255 125 0 255
0.125 4.6249995 0.08838835 0 1 -0 255 125 0 255
0.125 4.687499 0.05177668 -1 -0 -0 255 125 0 255
0.125 4.6249995 0.0063799904 -1 -0 -0 255 125 0 255
0.125 4.6249995 0.05177668 -1 -0 -0 255 125 0 255
0.125 4.8749995 0.0063799904 -1 -0 -0 255 125 0 255
0.125 4.812499 0.05177668 -1 -0 -0 255 125 0 255
0.125 4.8749995 0.05177668 -1 -0 -0 255 125 0 255
-0.125 4.8749995 0.0063799904 1 -0 -0 255 125 0 255
-0.125 4.6249995 0.05177668 1 -0 -0 255 125 0 255
-0.125 4.6249995 0.0063799904 1 -0 -0 255 125 0 255
-0.125 4.687499 0.05177668 1 -0 -0 255 125 0 255
-0.125 4.812499 0.05177668 1 -0 -0 255 125 0 255
-0.125 4.8749995 0.05177668 1 -0 -0 255 125 0 255
-0.08838835 4.6249995 0.08838835 0 -0 -1 255 125 0 255
-0.09106917 4.656249 0.08838835 0 -0 -1 255 125 0 255
-0.08838835 4.687499 0.08838835 0 -0 -1 255 125 0 255
-0.106694154 4.6406245 0.08838835 0 -0 -1 255 125 0 255
-0.125 4.6249995 0.08838835 0 -0 -1 255 125 0 255
-0.12231914 4.656249 0.08838835 0 -0 -1 255 125 0 255
-0.106694154 4.671874 0.08838835 0 -0 -1 255 125 0 255
-0.125 4.687499 0.08838835 0 -0 -1 255 125 0 255
-0.125 4.687499 0.05177668 0.70710677 -0 -0.70710677 255 125 0 255
-0.125 4.812499 0.05177668 0.70710677 -0 -0.70710677 255 125 0 255
-0.08838835 4.812499 0.08838835 0 -0 -1 255 125 0 255
-0.09106917 4.8437495 0.08838835 0 -0 -1 255 125 0 255
-0.08838835 4.8749995 0.08838835 0 -0 -1 255 125 0 255
-0.106694154 4.828124 0.08838835 0 -0 -1 255 125 0 255
-0.125 4.812499 0.08838835 0 -0 -1 255 125 0 255
-0.12231914 4.8437495 0.08838835 0 -0 -1 255 125 0 255
-0.106694154 4.8593745 0.08838835 0 -0 -1 255 125 0 255
-0.125 4.8749995 0.08838835 0 -0 -1 255 125 0 255
0.125 4.8749995 0.08838835 0 -1 -0 255 125 0 255
-0.125 4.8749995 0.08838835 0 -1 -0 255 125 0 255
0.125 4.8749995 0.08838835 -1 -0 -0 255 125 0 255
0.125 4.812499 0.08838835 -1 -0 -0 255 125 0 255
0.125 4.812499 0.08838835 0 1 -0 255 125 0 255
0.125 4.812499 0.05177668 0 1 -0 255 125 0 255
0.08838834 4.812499 0.08838835 0 1 -0 255 125 0 255
0.08838834 4.687499 0.08838835 0 -1 -0 255 125 0 255
0.125 4.687499 0.05177668 0 -1 -0 255 125 0 255
0.125 4.687499 0.08838835 0 -1 -0 255 125 0 255
0.125 4.687499 0.08838835 -1 -0 -0 255 125 0 255
0.125 4.6249995 0.08838835 -1 -0 -0 255 125 0 255
-0.125 4.6249995 0.08838835 1 -0 -0 255 125 0 255
-0.125 4.687499 0.08838835 1 -0 -0 255 125 0 255
-0.125 4.812499 0.08838835 1 -0 -0 255 125 0 255
-0.125 4.8749995 0.08838835 1 -0 -0 255 125 0 255
-0.125 4.687499 0.08838835 0 -1 -0 255 125 0 255
-0.125 4.687499 0.05177668 0 -1 -0 255 125 0 255
-0.08838835 4.687499 0.08838835 0 -1 -0 255 125 0 255
-0.08838835 4.812499 0.08838835 0 1 -0 255 125 0 255
-0.125 4.812499 0.05177668 0 1 -0 255 125 0 255
-0.125 4.812499 0.08838835 0 1 -0 255 125 0 255
0.125 4.8749995 -0.125 0 -1 -0 255 125 0 255
0.031066028 4.8749995 -0.075 0 -1 -0 255 125 0 255
-0.125 4.8749995 -0.125 0 -1 -0 255 125 0 255
0.125 4.8749995 -0.0067419955 0 -1 -0 255 125 0 255
-0.031065999 4.8749995 -0.075 0 -1 -0 255 125 0 255
0.075 4.8749995 -0.031066028 0 -1 -0 255 125 0 255
0.075 4.8749995 -0.0067419955 0 -1 -0 255 125 0 255
-0.125 4.8749995 -0.0067419955 0 -1 -0 255 125 0 255
-0.07499999 4.8749995 -0.031066028 0 -1 -0 255 125 0 255
-0.07499999 4.8749995 -0.0067419955 0 -1 -0 255 125 0 255
0.125 4.8749995 -0.0067419955 -1 -0 -0 255 125 0 255
0.125 4.6249995 -0.125 -1 -0 -0 255 125 0 255
0.125 4.6249995 -0.0067419955 -1 -0 -0 255 125 0 255
0.125 4.8749995 -0.125 -1 -0 -0 255 125 0 255
-0.125 4.8749995 -0.125 1 -0 -0 255 125 0 255
-0.125 4.6249995 -0.0067419955 1 -0 -0 255 125 0 255
-0.125 4.6249995 -0.125 1 -0 -0 255 125 0 255
-0.125 4.8749995 -0.0067419955 1 -0 -0 255 125 0 255
-0.125 4.6249995 -0.125 0 1 -2.361435E-30 255 125 0 255
-0.031065999 4.6249995 -0.075 0 1 -2.361435E-30 255 125 0 255
0.125 4.6249995 -0.125 0 1 -2.361435E-30 255 125 0 255
-0.125 4.6249995 -0.0067419955 0 1 -2.361435E-30 255 125 0 255
-0.07499999 4.6249995 -0.031066028 0 1 -2.361435E-30 255 125 0 255
-0.07499999 4.6249995 -0.0067419955 0 1 -2.361435E-30 255 125 0 255
0.031066028 4.6249995 -0.075 0 1 -2.361435E-30 255 125 0 255
0.125 4.6249995 -0.0067419955 0 1 -2.361435E-30 255 125 0 255
0.075 4.6249995 -0.031066028 0 1 -2.361435E-30 255 125 0 255
0.075 4.6249995 -0.0067419955 0 1 -2.361435E-30 255 125 0 255
-0.026340108 4.6249995 -0.06359062 4.2823932E-16 -0 -1 86 86 86 255
0.026340108 4.8749995 -0.06359062 4.2823932E-16 -0 -1 86 86 86 255
0.026340108 4.6249995 -0.06359062 4.2823932E-16 -0 -1 86 86 86 255
-0.026340108 4.8749995 -0.06359062 4.2823932E-16 -0 -1 86 86 86 255
0.026340108 4.8749995 -0.06359062 0.70710677 -0 -0.70710677 86 86 86 255
0.06359062 4.6249995 -0.026340108 0.70710677 -0 -0.70710677 86 86 86 255
0.026340108 4.6249995 -0.06359062 0.70710677 -0 -0.70710677 86 86 86 255
0.06359062 4.8749995 -0.026340108 0.70710677 -0 -0.70710677 86 86 86 255
-0.06359062 4.8749995 -0.026340108 -0.70710677 -0 -0.70710677 86 86 86 255
-0.026340108 4.6249995 -0.06359062 -0.70710677 -0 -0.70710677 86 86 86 255
-0.06359062 4.6249995 -0.026340108 -0.70710677 -0 -0.70710677 86 86 86 255
-0.026340108 4.8749995 -0.06359062 -0.70710677 -0 -0.70710677 86 86 86 255
0.06359062 4.8749995 -0.026340108 1 -0 -0 86 86 86 255
0.06359062 4.6249995 0.026340108 1 -0 -0 86 86 86 255
0.06359062 4.6249995 -0.026340108 1 -0 -0 86 86 86 255
0.06359062 4.8749995 0.026340108 1 -0 -0 86 86 86 255
-0.06359062 4.8749995 0.026340108 -1 -0 -0 86 86 86 255
-0.06359062 4.6249995 -0.026340108 -1 -0 -0 86 86 86 255
-0.06359062 4.6249995 0.026340108 -1 -0 -0 86 86 86 255
-0.06359062 4.8749995 -0.026340108 -1 -0 -0 86 86 86 255
0.06359062 4.8749995 0.026340108 0.70710677 -0 0.70710677 86 86 86 255
0.026340108 4.6249995 0.06359062 0.70710677 -0 0.70710677 86 86 86 255
0.06359062 4.6249995 0.026340108 0.70710677 -0 0.70710677 86 86 86 255
0.026340108 4.8749995 0.06359062 0.70710677 -0 0.70710677 86 86 86 255
-0.026340108 4.8749995 0.06359062 -0.70710677 -0 0.70710677 86 86 86 255
-0.06359062 4.6249995 0.026340108 -0.70710677 -0 0.70710677 86 86 86 255
-0.026340108 4.6249995 0.06359062 -0.70710677 -0 0.70710677 86 86 86 255
-0.06359062 4.8749995 0.026340108 -0.70710677 -0 0.70710677 86 86 86 255
-0.026340108 4.8749995 0.06359062 0 -0 1 86 86 86 255
0.026340108 4.6249995 0.06359062 0 -0 1 86 86 86 255
0.026340108 4.8749995 0.06359062 0 -0 1 86 86 86 255
-0.026340108 4.6249995 0.06359062 0 -0 1 86 86 86 255
-0.106694154 4.6406245 0.09338833 0 -0 -1 86 86 86 255
-0.106694154 4.671874 0.09338833 0 -0 -1 86 86 86 255
-0.09106917 4.656249 0.09338833 0 -0 -1 86 86 86 255
-0.12231914 4.656249 0.09338833 0 -0 -1 86 86 86 255
-0.12231914 4.656249 0.08838835 0.70710677 0.70710677 -0 86 86 86 255
-0.106694154 4.6406245 0.09338833 0.70710677 0.70710677 -0 86 86 86 255
-0.106694154 4.6406245 0.08838835 0.70710677 0.70710677 -0 86 86 86 255
-0.12231914 4.656249 0.09338833 0.70710677 0.70710677 -0 86 86 86 255
-0.106694154 4.671874 0.08838835 0.70710677 -0.70710677 -0 86 86 86 255
-0.12231914 4.656249 0.09338833 0.70710677 -0.70710677 -0 86 86 86 255
-0.12231914 4.656249 0.08838835 0.70710677 -0.70710677 -0 86 86 86 255
-0.106694154 4.671874 0.09338833 0.70710677 -0.70710677 -0 86 86 86 255
-0.106694154 4.671874 0.09338833 -0.70710677 -0.70710677 -0 86 86 86 255
-0.09106917 4.656249 0.08838835 -0.70710677 -0.70710677 -0 86 86 86 255
-0.09106917 4.656249 0.09338833 -0.70710677 -0.70710677 -0 86 86 86 255
-0.106694154 4.671874 0.08838835 -0.70710677 -0.70710677 -0 86 86 86 255
-0.09106917 4.656249 0.09338833 -0.70710677 0.70710677 -0 86 86 86 255
-0.106694154 4.6406245 0.08838835 -0.70710677 0.70710677 -0 86 86 86 255
-0.106694154 4.6406245 0.09338833 -0.70710677 0.70710677 -0 86 86 86 255
-0.09106917 4.656249 0.08838835 -0.70710677 0.70710677 -0 86 86 86 255
-0.106694154 4.828124 0.09338833 0 -0 -1 86 86 86 255
-0.106694154 4.8593745 0.09338833 0 -0 -1 86 86 86 255
-0.09106917 4.8437495 0.09338833 0 -0 -1 86 86 86 255
-0.12231914 4.8437495 0.09338833 0 -0 -1 86 86 86 255
-0.12231914 4.8437495 0.08838835 0.70710677 0.70710677 -0 86 86 86 255
-0.106694154 4.828124 0.09338833 0.70710677 0.70710677 -0 86 86 86 255
-0.106694154 4.828124 0.08838835 0.70710677 0.70710677 -0 86 86 86 255
-0.12231914 4.8437495 0.09338833 0.70710677 0.70710677 -0 86 86 86 255
-0.106694154 4.8593745 0.08838835 0.70710677 -0.70710677 -0 86 86 86 255
-0.12231914 4.8437495 0.09338833 0.70710677 -0.70710677 -0 86 86 86 255
-0.12231914 4.8437495 0.08838835 0.70710677 -0.70710677 -0 86 86 86 255
-0.106694154 4.8593745 0.09338833 0.70710677 -0.70710677 -0 86 86 86 255
-0.106694154 4.8593745 0.09338833 -0.70710677 -0.70710677 -0 86 86 86 255
-0.09106917 4.8437495 0.08838835 -0.70710677 -0.70710677 -0 86 86 86 255
-0.09106917 4.8437495 0.09338833 -0.70710677 -0.70710677 -0 86 86 86 255
-0.106694154 4.8593745 0.08838835 -0.70710677 -0.70710677 -0 86 86 86 255
-0.09106917 4.8437495 0.09338833 -0.70710677 0.70710677 -0 86 86 86 255
-0.106694154 4.828124 0.08838835 -0.70710677 0.70710677 -0 86 86 86 255
-0.106694154 4.828124 0.09338833 -0.70710677 0.70710677 -0 86 86 86 255
-0.09106917 4.8437495 0.08838835 -0.70710677 0.70710677 -0 86 86 86 255
0.10669418 4.6406245 0.09338833 0 -0 -1 86 86 86 255
0.10669418 4.671874 0.09338833 0 -0 -1 86 86 86 255
0.12231918 4.656249 0.09338833 0 -0 -1 86 86 86 255
0.09106918 4.656249 0.09338833 0 -0 -1 86 86 86 255
0.09106918 4.656249 0.08838835 0.70710677 0.70710677 -0 86 86 86 255
0.10669418 4.6406245 0.09338833 0.70710677 0.70710677 -0 86 86 86 255
0.10669418 4.6406245 0.08838835 0.70710677 0.70710677 -0 86 86 86 255
0.09106918 4.656249 0.09338833 0.70710677 0.70710677 -0 86 86 86 255
0.10669418 4.671874 0.08838835 0.70710677 -0.70710677 -0 86 86 86 255
0.09106918 4.656249 0.09338833 0.70710677 -0.70710677 -0 86 86 86 255
0.09106918 4.656249 0.08838835 0.70710677 -0.70710677 -0 86 86 86 255
0.10669418 4.671874 0.09338833 0.70710677 -0.70710677 -0 86 86 86 255
0.10669418 4.671874 0.09338833 -0.70710677 -0.70710677 -0 86 86 86 255
0.12231918 4.656249 0.08838835 -0.70710677 -0.70710677 -0 86 86 86 255
0.12231918 4.656249 0.09338833 -0.70710677 -0.70710677 -0 86 86 86 255
0.10669418 4.671874 0.08838835 -0.70710677 -0.70710677 -0 86 86 86 255
0.12231918 4.656249 0.09338833 -0.70710677 0.70710677 -0 86 86 86 255
0.10669418 4.6406245 0.08838835 -0.70710677 0.70710677 -0 86 86 86 255
0.10669418 4.6406245 0.09338833 -0.70710677 0.70710677 -0 86 86 86 255
0.12231918 4.656249 0.08838835 -0.70710677 0.70710677 -0 86 86 86 255
0.10669418 4.828124 0.09338833 0 -0 -1 86 86 86 255
0.10669418 4.8593745 0.09338833 0 -0 -1 86 86 86 255
0.12231918 4.8437495 0.09338833 0 -0 -1 86 86 86 255
0.09106918 4.8437495 0.09338833 0 -0 -1 86 86 86 255
0.09106918 4.8437495 0.08838835 0.70710677 0.70710677 -0 86 86 86 255
0.10669418 4.828124 0.09338833 0.70710677 0.70710677 -0 86 86 86 255
0.10669418 4.828124 0.08838835 0.70710677 0.70710677 -0 86 86 86 255
0.09106918 4.8437495 0.09338833 0.70710677 0.70710677 -0 86 86 86 255
0.10669418 4.8593745 0.08838835 0.70710677 -0.70710677 -0 86 86 86 255
0.09106918 4.8437495 0.09338833 0.70710677 -0.70710677 -0 86 86 86 255
0.09106918 4.8437495 0.08838835 0.70710677 -0.70710677 -0 86 86 86 255
0.10669418 4.8593745 0.09338833 0.70710677 -0.70710677 -0 86 86 86 255
0.10669418 4.8593745 0.09338833 -0.70710677 -0.70710677 -0 86 86 86 255
0.12231918 4.8437495 0.08838835 -0.70710677 -0.70710677 -0 86 86 86 255
0.12231918 4.8437495 0.09338833 -0.70710677 -0.70710677 -0 86 86 86 255
0.10669418 4.8593745 0.08838835 -0.70710677 -0.70710677 -0 86 86 86 255
0.12231918 4.8437495 0.09338833 -0.70710677 0.70710677 -0 86 86 86 255
0.10669418 4.828124 0.08838835 -0.70710677 0.70710677 -0 86 86 86 255
0.10669418 4.828124 0.09338833 -0.70710677 0.70710677 -0 86 86 86 255
0.12231918 4.8437495 0.08838835 -0.70710677 0.70710677 -0 86 86 86 255
-0.125 4.6249995 0.0063799904 0 1 -0 86 86 86 255
-0.07499999 4.6249995 -0.0067419955 0 1 -0 86 86 86 255
-0.125 4.6249995 -0.0067419955 0 1 -0 86 86 86 255
-0.07499999 4.6249995 0.0063799904 0 1 -0 86 86 86 255
-0.031065999 4.6249995 -0.075 -6.918769E-16 1 4.788921E-16 86 86 86 255
-0.026340108 4.6249995 -0.06359062 -6.918769E-16 1 4.788921E-16 86 86 86 255
0.031066028 4.6249995 -0.075 -6.918769E-16 1 4.788921E-16 86 86 86 255
-0.07499999 4.6249995 -0.031066028 -6.918769E-16 1 4.788921E-16 86 86 86 255
-0.06359062 4.6249995 -0.026340108 -6.918769E-16 1 4.788921E-16 86 86 86 255
-0.06359062 4.6249995 0.026340108 -6.918769E-16 1 4.788921E-16 86 86 86 255
-0.07499999 4.6249995 0.031065999 -6.918769E-16 1 4.788921E-16 86 86 86 255
-0.026340108 4.6249995 0.06359062 -6.918769E-16 1 4.788921E-16 86 86 86 255
-0.031065999 4.6249995 0.07499999 -6.918769E-16 1 4.788921E-16 86 86 86 255
0.026340108 4.6249995 0.06359062 -6.918769E-16 1 4.788921E-16 86 86 86 255
0.026340108 4.6249995 -0.06359062 -6.918769E-16 1 4.788921E-16 86 86 86 255
0.075 4.6249995 -0.031066028 -6.918769E-16 1 4.788921E-16 86 86 86 255
0.06359062 4.6249995 -0.026340108 -6.918769E-16 1 4.788921E-16 86 86 86 255
0.075 4.6249995 -0.0067419955 -6.918769E-16 1 4.788921E-16 86 86 86 255
0.06359062 4.6249995 0.026340108 -6.918769E-16 1 4.788921E-16 86 86 86 255
0.075 4.6249995 0.0063799904 -6.918769E-16 1 4.788921E-16 86 86 86 255
0.075 4.6249995 0.031065999 -6.918769E-16 1 4.788921E-16 86 86 86 255
0.031066028 4.6249995 0.07499999 -6.918769E-16 1 4.788921E-16 86 86 86 255
-0.125 4.8749995 -0.0067419955 1 -0 -0 86 86 86 255
-0.125 4.6249995 0.0063799904 1 -0 -0 86 86 86 255
-0.125 4.6249995 -0.0067419955 1 -0 -0 86 86 86 255
-0.125 4.8749995 0.0063799904 1 -0 -0 86 86 86 255
0.125 4.6249995 -0.0067419955 0 1 -0 86 86 86 255
0.125 4.6249995 0.0063799904 0 1 -0 86 86 86 255
-0.07499999 4.8749995 0.0063799904 0 -1 -0 86 86 86 255
-0.125 4.8749995 -0.0067419955 0 -1 -0 86 86 86 255
-0.07499999 4.8749995 -0.0067419955 0 -1 -0 86 86 86 255
-0.125 4.8749995 0.0063799904 0 -1 -0 86 86 86 255
0.125 4.8749995 0.0063799904 -1 -0 -0 86 86 86 255
0.125 4.6249995 -0.0067419955 -1 -0 -0 86 86 86 255
0.125 4.6249995 0.0063799904 -1 -0 -0 86 86 86 255
0.125 4.8749995 -0.0067419955 -1 -0 -0 86 86 86 255
0.031066028 4.8749995 -0.075 1.325043E-31 -1 -2.7826372E-30 86 86 86 255
0.026340108 4.8749995 -0.06359062 1.325043E-31 -1 -2.7826372E-30 86 86 86 255
-0.026340108 4.8749995 -0.06359062 1.325043E-31 -1 -2.7826372E-30 86 86 86 255
0.075 4.8749995 -0.031066028 1.325043E-31 -1 -2.7826372E-30 86 86 86 255
0.06359062 4.8749995 -0.026340108 1.325043E-31 -1 -2.7826372E-30 86 86 86 255
0.075 4.8749995 -0.0067419955 1.325043E-31 -1 -2.7826372E-30 86 86 86 255
0.06359062 4.8749995 0.026340108 1.325043E-31 -1 -2.7826372E-30 86 86 86 255
0.075 4.8749995 0.0063799904 1.325043E-31 -1 -2.7826372E-30 86 86 86 255
0.075 4.8749995 0.031065999 1.325043E-31 -1 -2.7826372E-30 86 86 86 255
0.026340108 4.8749995 0.06359062 1.325043E-31 -1 -2.7826372E-30 86 86 86 255
0.031066028 4.8749995 0.07499999 1.325043E-31 -1 -2.7826372E-30 86 86 86 255
-0.026340108 4.8749995 0.06359062 1.325043E-31 -1 -2.7826372E-30 86 86 86 255
-0.031065999 4.8749995 -0.075 1.325043E-31 -1 -2.7826372E-30 86 86 86 255
-0.07499999 4.8749995 -0.031066028 1.325043E-31 -1 -2.7826372E-30 86 86 86 255
-0.06359062 4.8749995 -0.026340108 1.325043E-31 -1 -2.7826372E-30 86 86 86 255
-0.06359062 4.8749995 0.026340108 1.325043E-31 -1 -2.7826372E-30 86 86 86 255
-0.07499999 4.8749995 0.031065999 1.325043E-31 -1 -2.7826372E-30 86 86 86 255
-0.031065999 4.8749995 0.07499999 1.325043E-31 -1 -2.7826372E-30 86 86 86 255
0.125 4.8749995 0.0063799904 0 -1 -0 86 86 86 255
0.125 4.8749995 -0.0067419955 0 -1 -0 86 86 86 255
3 0 1 2
3 1 0 3
3 4 5 6
3 5 4 7
3 7 4 8
3 8 4 9
3 10 11 12
3 11 10 13
3 13 10 14
3 14 10 15
3 14 15 16
3 17 18 19
3 18 17 20
3 20 17 16
3 20 16 21
3 21 16 15
3 21 15 22
3 21 22 23
3 24 25 26
3 25 24 27
3 27 24 28
3 27 28 29
3 30 31 32
3 31 30 33
3 33 30 34
3 34 30 35
3 34 35 36
3 36 35 37
3 37 35 38
3 38 35 39
3 40 41 42
3 41 40 43
3 43 40 36
3 43 36 37
3 44 45 46
3 45 44 47
3 47 44 48
3 47 48 49
3 46 50 51
3 50 46 45
3 51 50 49
3 51 49 48
3 8 52 53
3 52 8 9
3 7 53 54
3 53 7 8
3 55 56 57
3 56 55 58
3 58 55 59
3 58 59 60
3 57 61 62
3 61 57 56
3 62 61 60
3 62 60 59
3 5 54 63
3 54 5 7
3 15 10 64
3 65 20 21
3 66 67 68
3 67 66 69
3 69 66 70
3 69 70 71
3 72 73 74
3 73 72 75
3 75 72 76
3 76 72 77
3 78 79 80
3 79 78 81
3 81 78 82
3 81 82 83
3 80 84 85
3 84 80 79
3 85 84 83
3 85 83 82
3 86 29 28
3 29 86 87
3 88 89 90
3 89 88 91
3 91 88 92
3 91 92 93
3 90 94 95
3 94 90 89
3 95 94 93
3 95 93 92
3 35 30 96
3 97 43 37
3 98 70 99
3 70 98 71
3 100 101 102
3 103 104 105
3 106 68 107
3 68 106 66
3 75 108 73
3 108 75 109
3 77 110 76
3 110 77 111
3 112 113 114
3 115 116 117
3 118 119 120
3 119 118 121
3 120 119 122
3 119 121 123
3 123 121 124
3 122 125 120
3 125 122 126
3 125 126 127
3 128 129 130
3 129 128 131
3 132 133 134
3 133 132 135
3 136 137 138
3 137 136 139
3 137 139 140
3 140 139 141
3 138 142 143
3 142 138 137
3 143 142 144
3 143 144 145
3 146 147 148
3 147 146 149
3 150 151 152
3 151 150 153
3 154 155 156
3 155 154 157
3 158 159 160
3 159 158 161
3 162 163 164
3 163 162 165
3 166 167 168
3 167 166 169
3 170 171 172
3 171 170 173
3 174 175 176
3 175 174 177
3 178 179 180
3 179 178 181
3 182 183 184
3 183 182 185
3 186 187 188
3 187 186 189
3 190 191 192
3 191 190 193
3 194 195 196
3 195 194 197
3 198 199 200
3 199 198 201
3 202 203 204
3 203 202 205
3 206 207 208
3 207 206 209
3 210 211 212
3 211 210 213
3 214 215 216
3 215 214 217
3 218 219 220
3 219 218 221
3 222 223 224
3 223 222 225
3 226 227 228
3 227 226 229
3 230 231 232
3 231 230 233
3 234 235 236
3 235 234 237
3 238 239 240
3 239 238 241
3 242 243 244
3 243 242 245
3 246 247 248
3 247 246 249
3 250 251 252
3 251 250 253
3 254 255 256
3 255 254 257
3 258 259 260
3 259 258 261
3 262 263 264
3 263 262 265
3 263 265 266
3 266 265 259
3 266 259 267
3 267 259 261
3 267 261 268
3 267 268 269
3 269 268 270
3 269 270 271
3 264 272 273
3 272 264 263
3 273 272 274
3 273 274 275
3 275 274 276
3 275 276 277
3 277 276 278
3 278 276 271
3 278 271 279
3 279 271 270
3 280 281 282
3 281 280 283
3 277 284 275
3 284 277 285
3 286 287 288
3 287 286 289
3 290 291 292
3 291 290 293
3 294 295 296
3 295 294 297
3 295 297 298
3 298 297 299
3 298 299 300
3 300 299 301
3 300 301 302
3 300 302 303
3 303 302 304
3 303 304 305
3 306 296 307
3 296 306 294
3 307 296 308
3 307 308 288
3 288 308 309
3 288 309 286
3 286 309 310
3 310 309 305
3 310 305 311
3 311 305 304
3 312 299 313
3 299 312 301
3 314 315 316
3 315 314 317
3 318 319 320
3 319 318 321
3 321 318 322
3 322 318 323
3 324 325 326
3 325 324 327
3 327 324 328
3 328 324 329
3 328 329 330
3 331 332 333
3 332 331 334
3 334 331 330
3 334 330 335
3 335 330 329
3 335 329 336
3 335 336 337
3 338 339 340
3 339 338 341
3 341 338 342
3 341 342 343
3 344 345 346
3 345 344 347
3 347 344 348
3 348 344 349
3 348 349 350
3 350 349 351
3 351 349 352
3 352 349 353
3 354 355 356
3 355 354 357
3 357 354 350
3 357 350 351
3 358 359 360
3 359 358 361
3 361 358 362
3 361 362 363
3 360 364 365
3 364 360 359
3 365 364 363
3 365 363 362
3 322 366 367
3 366 322 323
3 321 367 368
3 367 321 322
3 369 370 371
3 370 369 372
3 372 369 373
3 372 373 374
3 371 375 376
3 375 371 370
3 376 375 374
3 376 374 373
3 319 368 377
3 368 319 321
3 329 324 378
3 379 334 335
3 380 381 382
3 381 380 383
3 383 380 384
3 383 384 385
3 386 387 388
3 387 386 389
3 389 386 390
3 390 386 391
3 392 393 394
3 393 392 395
3 395 392 396
3 395 396 397
3 394 398 399
3 398 394 393
3 399 398 397
3 399 397 396
3 400 343 342
3 343 400 401
3 402 403 404
3 403 402 405
3 405 402 406
3 405 406 407
3 404 408 409
3 408 404 403
3 409 408 407
3 409 407 406
3 349 344 410
3 411 357 351
3 412 384 413
3 384 412 385
3 414 415 416
3 417 418 419
3 420 382 421
3 382 420 380
3 389 422 387
3 422 389 423
3 391 424 390
3 424 391 425
3 426 427 428
3 429 430 431
3 432 433 434
3 433 432 435
3 434 433 436
3 433 435 437
3 437 435 438
3 436 439 434
3 439 436 440
3 439 440 441
3 442 443 444
3 443 442 445
3 446 447 448
3 447 446 449
3 450 451 452
3 451 450 453
3 451 453 454
3 454 453 455
3 452 456 457
3 456 452 451
3 457 456 458
3 457 458 459
3 460 461 462
3 461 460 463
3 464 465 466
3 465 464 467
3 468 469 470
3 469 468 471
3 472 473 474
3 473 472 475
3 476 477 478
3 477 476 479
3 480 481 482
3 481 480 483
3 484 485 486
3 485 484 487
3 488 489 490
3 489 488 491
3 492 493 494
3 493 492 495
3 496 497 498
3 497 496 499
3 500 501 502
3 501 500 503
3 504 505 506
3 505 504 507
3 508 509 510
3 509 508 511
3 512 513 514
3 513 512 515
3 516 517 518
3 517 516 519
3 520 521 522
3 521 520 523
3 524 525 526
3 525 524 527
3 528 529 530
3 529 528 531
3 532 533 534
3 533 532 535
3 536 537 538
3 537 536 539
3 540 541 542
3 541 540 543
3 544 545 546
3 545 544 547
3 548 549 550
3 549 548 551
3 552 553 554
3 553 552 555
3 556 557 558
3 557 556 559
3 560 561 562
3 561 560 563
3 564 565 566
3 565 564 567
3 568 569 570
3 569 568 571
3 572 573 574
3 573 572 575
3 576 577 578
3 577 576 579
3 577 579 580
3 580 579 573
3 580 573 581
3 581 573 575
3 581 575 582
3 581 582 583
3 583 582 584
3 583 584 585
3 578 586 587
3 586 578 577
3 587 586 588
3 587 588 589
3 589 588 590
3 589 590 591
3 591 590 592
3 592 590 585
3 592 585 593
3 593 585 584
3 594 595 596
3 595 594 597
3 591 598 589
3 598 591 599
3 600 601 602
3 601 600 603
3 604 605 606
3 605 604 607
3 608 609 610
3 609 608 611
3 609 611 612
3 612 611 613
3 612 613 614
3 614 613 615
3 614 615 616
3 614 616 617
3 617 616 618
3 617 618 619
3 620 610 621
3 610 620 608
3 621 610 622
3 621 622 602
3 602 622 623
3 602 623 600
3 600 623 624
3 624 623 619
3 624 619 625
3 625 619 618
3 626 613 627
3 613 626 615

