ply
format ascii 1.0
commentY29udmVydGVyIGJ5IENvZGVMZW9wYXJk
comment Original mesh name: 'C:\Program Files (x86)\Steam\steamapps\common\Stormworks\rom\meshes\component_gun_s.mesh'
comment SubMesh index: 0
comment SubMesh name: 'ID2'
comment Shader: Opaque (0)
element vertex 582
property float x
property float y
property float z
property float nx
property float ny
property float nz
property uchar red
property uchar green
property uchar blue
property uchar alpha
element face 408
property list uchar ushort vertex_index
end_header
0.02999999 -0.012426406 1.37 -0.70710677 0.70710677 -0 58 58 58 255
0.012426406 -0.02999999 0.615 -0.70710677 0.70710677 -0 58 58 58 255
0.012426406 -0.02999999 1.37 -0.70710677 0.70710677 -0 58 58 58 255
0.02999999 -0.012426406 0.615 -0.70710677 0.70710677 -0 58 58 58 255
0.012426406 -0.02999999 1.37 -0.2596883 0.6269431 -0.7345096 58 58 58 255
0.024999999 -0.0103553375 1.375 -0.6269431 0.2596883 -0.7345096 58 58 58 255
0.02999999 -0.012426406 1.37 -0.6269431 0.2596883 -0.7345096 58 58 58 255
0.0103553375 -0.024999999 1.375 -0.2596883 0.6269431 -0.7345096 58 58 58 255
0.02999999 0 1.37 -1 -0 -0 58 58 58 255
0.02999999 -0.012426406 0.615 -1 -0 -0 58 58 58 255
0.02999999 -0.012426406 1.37 -1 -0 -0 58 58 58 255
0.02999999 0 0.615 -1 -0 -0 58 58 58 255
0.02999999 0.012426406 1.37 -1 -0 -0 58 58 58 255
0.02999999 0.012426406 0.615 -1 -0 -0 58 58 58 255
-0.012426406 -0.02999999 1.37 0 1 -0 58 58 58 255
-0 -0.02999999 0.615 0 1 -0 58 58 58 255
-0.012426406 -0.02999999 0.615 0 1 -0 58 58 58 255
0.012426406 -0.02999999 0.615 0 1 -0 58 58 58 255
0.012426406 -0.02999999 1.37 0 1 -0 58 58 58 255
-0 -0.02999999 1.37 0 1 -0 58 58 58 255
-0.0103553375 -0.024999999 1.375 0.2596883 0.6269431 -0.7345096 58 58 58 255
-0 -0.02999999 1.37 0 0.70710677 -0.70710677 58 58 58 255
-0.012426406 -0.02999999 1.37 0.2596883 0.6269431 -0.7345096 58 58 58 255
-0 -0.024999999 1.375 0 0.70710677 -0.70710677 58 58 58 255
0.0103553375 -0.024999999 1.375 0 -0 -1 58 58 58 255
0.024999999 0 1.375 0 -0 -1 58 58 58 255
0.024999999 -0.0103553375 1.375 0 -0 -1 58 58 58 255
0.02 -0.008284271 1.375 0 -0 -1 58 58 58 255
0.024999999 0.0103553375 1.375 0 -0 -1 58 58 58 255
0.008284271 -0.02 1.375 0 -0 -1 58 58 58 255
-0 -0.024999999 1.375 0 -0 -1 58 58 58 255
-0 -0.02 1.375 0 -0 -1 58 58 58 255
-0.0103553375 -0.024999999 1.375 0 -0 -1 58 58 58 255
-0.008284271 -0.02 1.375 0 -0 -1 58 58 58 255
-0.02 -0.008284271 1.375 0 -0 -1 58 58 58 255
-0.024999999 -0.0103553375 1.375 0 -0 -1 58 58 58 255
-0.02 0 1.375 0 -0 -1 58 58 58 255
-0.02 0.008284271 1.375 0 -0 -1 58 58 58 255
0.02 0.008284271 1.375 0 -0 -1 58 58 58 255
0.0103553375 0.024999999 1.375 0 -0 -1 58 58 58 255
0.02 0 1.375 0 -0 -1 58 58 58 255
0.008284271 0.02 1.375 0 -0 -1 58 58 58 255
-0 0.024999999 1.375 0 -0 -1 58 58 58 255
-0 0.02 1.375 0 -0 -1 58 58 58 255
-0.008284271 0.02 1.375 0 -0 -1 58 58 58 255
-0.0103553375 0.024999999 1.375 0 -0 -1 58 58 58 255
-0.024999999 0.0103553375 1.375 0 -0 -1 58 58 58 255
-0.024999999 0 1.375 0 -0 -1 58 58 58 255
0.02999999 0 1.37 -0.70710677 -0 -0.70710677 58 58 58 255
0.024999999 0 1.375 -0.70710677 -0 -0.70710677 58 58 58 255
0.024999999 0.0103553375 1.375 -0.6269431 -0.2596883 -0.7345096 58 58 58 255
0.02999999 0.012426406 1.37 -0.6269431 -0.2596883 -0.7345096 58 58 58 255
0.012426406 0.02999999 1.37 -0.70710677 -0.70710677 -0 58 58 58 255
0.02999999 0.012426406 0.615 -0.70710677 -0.70710677 -0 58 58 58 255
0.02999999 0.012426406 1.37 -0.70710677 -0.70710677 -0 58 58 58 255
0.012426406 0.02999999 0.615 -0.70710677 -0.70710677 -0 58 58 58 255
-0.02999999 -0.012426406 0.615 0.70710677 0.70710677 -0 58 58 58 255
-0.012426406 -0.02999999 1.37 0.70710677 0.70710677 -0 58 58 58 255
-0.012426406 -0.02999999 0.615 0.70710677 0.70710677 -0 58 58 58 255
-0.02999999 -0.012426406 1.37 0.70710677 0.70710677 -0 58 58 58 255
-0.024999999 -0.0103553375 1.375 0.6269431 0.2596883 -0.7345096 58 58 58 255
-0.02999999 -0.012426406 1.37 0.6269431 0.2596883 -0.7345096 58 58 58 255
0.0103553375 0.024999999 1.375 -0.2596883 -0.6269431 -0.7345096 58 58 58 255
-0 0.02999999 1.37 0 -0.70710677 -0.70710677 58 58 58 255
0.012426406 0.02999999 1.37 -0.2596883 -0.6269431 -0.7345096 58 58 58 255
-0.012426406 0.02999999 1.37 0.2596883 -0.6269431 -0.7345096 58 58 58 255
-0.0103553375 0.024999999 1.375 0.2596883 -0.6269431 -0.7345096 58 58 58 255
-0 0.024999999 1.375 0 -0.70710677 -0.70710677 58 58 58 255
-0.02999999 0 1.37 0.70710677 -0 -0.70710677 58 58 58 255
-0.024999999 0 1.375 0.70710677 -0 -0.70710677 58 58 58 255
-0.02999999 0.012426406 1.37 0.6269431 -0.2596883 -0.7345096 58 58 58 255
-0.024999999 0.0103553375 1.375 0.6269431 -0.2596883 -0.7345096 58 58 58 255
0.012426406 0.02999999 1.37 0 -1 -0 58 58 58 255
-0 0.02999999 0.615 0 -1 -0 58 58 58 255
0.012426406 0.02999999 0.615 0 -1 -0 58 58 58 255
-0.012426406 0.02999999 0.615 0 -1 -0 58 58 58 255
-0.012426406 0.02999999 1.37 0 -1 -0 58 58 58 255
-0 0.02999999 1.37 0 -1 -0 58 58 58 255
-0.02999999 0 0.615 1 -0 -0 58 58 58 255
-0.02999999 -0.012426406 1.37 1 -0 -0 58 58 58 255
-0.02999999 -0.012426406 0.615 1 -0 -0 58 58 58 255
-0.02999999 0 1.37 1 -0 -0 58 58 58 255
-0.02999999 0.012426406 0.615 1 -0 -0 58 58 58 255
-0.02999999 0.012426406 1.37 1 -0 -0 58 58 58 255
-0.012426406 0.02999999 0.615 0.70710677 -0.70710677 -0 58 58 58 255
-0.02999999 0.012426406 1.37 0.70710677 -0.70710677 -0 58 58 58 255
-0.02999999 0.012426406 0.615 0.70710677 -0.70710677 -0 58 58 58 255
-0.012426406 0.02999999 1.37 0.70710677 -0.70710677 -0 58 58 58 255
0.008284271 0.02 1.1749998 0.70710677 0.70710677 -0 58 58 58 255
0.02 0.008284271 1.375 0.70710677 0.70710677 -0 58 58 58 255
0.02 0.008284271 1.1749998 0.70710677 0.70710677 -0 58 58 58 255
0.008284271 0.02 1.375 0.70710677 0.70710677 -0 58 58 58 255
0.02 0.008284271 1.1749998 1 -0 -0 58 58 58 255
0.02 0 1.375 1 -0 -0 58 58 58 255
0.02 0 1.1749998 1 -0 -0 58 58 58 255
0.02 0.008284271 1.375 1 -0 -0 58 58 58 255
0.008284271 -0.02 1.1749998 0 -0 -1 58 58 58 255
0.02 0 1.1749998 0 -0 -1 58 58 58 255
0.02 -0.008284271 1.1749998 0 -0 -1 58 58 58 255
0.02 0.008284271 1.1749998 0 -0 -1 58 58 58 255
0.008284271 0.02 1.1749998 0 -0 -1 58 58 58 255
-0 -0.02 1.1749998 0 -0 -1 58 58 58 255
-0 0.02 1.1749998 0 -0 -1 58 58 58 255
-0.008284271 -0.02 1.1749998 0 -0 -1 58 58 58 255
-0.008284271 0.02 1.1749998 0 -0 -1 58 58 58 255
-0.02 -0.008284271 1.1749998 0 -0 -1 58 58 58 255
-0.02 0.008284271 1.1749998 0 -0 -1 58 58 58 255
-0.02 0 1.1749998 0 -0 -1 58 58 58 255
-0 0.02 1.375 0 1 -0 58 58 58 255
0.008284271 0.02 1.1749998 0 1 -0 58 58 58 255
-0 0.02 1.1749998 0 1 -0 58 58 58 255
0.008284271 0.02 1.375 0 1 -0 58 58 58 255
0.02 -0.008284271 1.375 1 -0 -0 58 58 58 255
0.02 -0.008284271 1.1749998 1 -0 -0 58 58 58 255
0.02 -0.008284271 1.1749998 0.70710677 -0.70710677 -0 58 58 58 255
0.008284271 -0.02 1.375 0.70710677 -0.70710677 -0 58 58 58 255
0.008284271 -0.02 1.1749998 0.70710677 -0.70710677 -0 58 58 58 255
0.02 -0.008284271 1.375 0.70710677 -0.70710677 -0 58 58 58 255
0.008284271 -0.02 1.375 0 -1 -0 58 58 58 255
-0 -0.02 1.1749998 0 -1 -0 58 58 58 255
0.008284271 -0.02 1.1749998 0 -1 -0 58 58 58 255
-0 -0.02 1.375 0 -1 -0 58 58 58 255
-0.008284271 -0.02 1.1749998 0 -1 -0 58 58 58 255
-0.008284271 -0.02 1.375 0 -1 -0 58 58 58 255
-0.02 -0.008284271 1.375 -0.70710677 -0.70710677 -0 58 58 58 255
-0.008284271 -0.02 1.1749998 -0.70710677 -0.70710677 -0 58 58 58 255
-0.008284271 -0.02 1.375 -0.70710677 -0.70710677 -0 58 58 58 255
-0.02 -0.008284271 1.1749998 -0.70710677 -0.70710677 -0 58 58 58 255
-0.02 0 1.375 -1 -0 -0 58 58 58 255
-0.02 -0.008284271 1.1749998 -1 -0 -0 58 58 58 255
-0.02 -0.008284271 1.375 -1 -0 -0 58 58 58 255
-0.02 0 1.1749998 -1 -0 -0 58 58 58 255
-0.02 0.008284271 1.375 -1 -0 -0 58 58 58 255
-0.02 0.008284271 1.1749998 -1 -0 -0 58 58 58 255
-0.008284271 0.02 1.375 -0.70710677 0.70710677 -0 58 58 58 255
-0.02 0.008284271 1.1749998 -0.70710677 0.70710677 -0 58 58 58 255
-0.02 0.008284271 1.375 -0.70710677 0.70710677 -0 58 58 58 255
-0.008284271 0.02 1.1749998 -0.70710677 0.70710677 -0 58 58 58 255
-0.008284271 0.02 1.375 0 1 -0 58 58 58 255
-0.008284271 0.02 1.1749998 0 1 -0 58 58 58 255
0.125 0.120000005 0.3755001 -1 -0 -0 255 125 0 255
0.125 0.10500002 0.12450003 -1 -0 -0 255 125 0 255
0.125 0.10500002 0.3755001 -1 -0 -0 255 125 0 255
0.125 0.120000005 0.12450003 -1 -0 -0 255 125 0 255
0.125 0.125 0.3805001 -1 -0 -0 255 125 0 255
0.125 0.125 0.11950001 -1 -0 -0 255 125 0 255
0.125 0.125 -0.0004999799 0 -1 -0 255 125 0 255
-0.105 0.125 -0.125 0 -1 -0 255 125 0 255
0.125 0.125 -0.125 0 -1 -0 255 125 0 255
-0.105 0.125 0.615 0 -1 -0 255 125 0 255
0.125 0.125 0.11950001 0 -1 -0 255 125 0 255
0.125 0.125 0.3805001 0 -1 -0 255 125 0 255
0.125 0.125 0.5005001 0 -1 -0 255 125 0 255
0.125 0.125 0.615 0 -1 -0 255 125 0 255
-0.105 0.125 -0.125 -5.2733558E-08 5.4803E-08 1 255 125 0 255
0.125 0.085 -0.12499997 -5.2733558E-08 5.4803E-08 1 255 125 0 255
0.125 0.125 -0.125 -5.2733558E-08 5.4803E-08 1 255 125 0 255
0.125 -0.125 -0.12499997 -5.2733558E-08 5.4803E-08 1 255 125 0 255
0.125 -0.08499998 -0.12499997 -5.2733558E-08 5.4803E-08 1 255 125 0 255
-0.105 -0.125 -0.125 -5.2733558E-08 5.4803E-08 1 255 125 0 255
-0.125 0.105 -0.125 -5.2733558E-08 5.4803E-08 1 255 125 0 255
-0.125 -0.105 -0.125 -5.2733558E-08 5.4803E-08 1 255 125 0 255
0.125 0.120000005 -0.0054999785 -1 1.183509E-13 -3.063929E-14 255 125 0 255
0.125 0.10500002 -0.10499995 -1 1.183509E-13 -3.063929E-14 255 125 0 255
0.125 0.10500002 -0.0054999785 -1 1.183509E-13 -3.063929E-14 255 125 0 255
0.125 0.125 -0.125 -1 1.183509E-13 -3.063929E-14 255 125 0 255
0.125 0.085 -0.12499997 -1 1.183509E-13 -3.063929E-14 255 125 0 255
0.125 0.125 -0.0004999799 -1 1.183509E-13 -3.063929E-14 255 125 0 255
0.125 0.114999995 0.625 -1 1.411981E-13 3.864875E-14 255 125 0 255
0.125 0.10500002 0.605 -1 1.411981E-13 3.864875E-14 255 125 0 255
0.125 0.085 0.625 -1 1.411981E-13 3.864875E-14 255 125 0 255
0.125 0.10500002 0.5055001 -1 1.411981E-13 3.864875E-14 255 125 0 255
0.125 0.120000005 0.5055001 -1 1.411981E-13 3.864875E-14 255 125 0 255
0.125 0.125 0.615 -1 1.411981E-13 3.864875E-14 255 125 0 255
0.125 0.125 0.5005001 -1 1.411981E-13 3.864875E-14 255 125 0 255
-0.100857854 0.114999995 0.625 9.8268747E-20 -0.7071059 -0.7071077 255 125 0 255
0.125 0.125 0.615 9.8268747E-20 -0.7071059 -0.7071077 255 125 0 255
0.125 0.114999995 0.625 9.8268747E-20 -0.7071059 -0.7071077 255 125 0 255
-0.105 0.125 0.615 9.8268747E-20 -0.7071059 -0.7071077 255 125 0 255
-0.105 0.125 -0.125 0.70710677 -0.70710677 -0 255 125 0 255
-0.125 0.105 0.615 0.70710677 -0.70710677 -0 255 125 0 255
-0.125 0.105 -0.125 0.70710677 -0.70710677 -0 255 125 0 255
-0.105 0.125 0.615 0.70710677 -0.70710677 -0 255 125 0 255
-0.125 -0.105 -0.125 1 -0 -0 255 125 0 255
-0.125 -0.074999996 0.028821351 1 -0 -0 255 125 0 255
-0.125 -0.105 0.615 1 -0 -0 255 125 0 255
-0.125 0.105 -0.125 1 -0 -0 255 125 0 255
-0.125 8.662936E-14 0.028821351 1 -0 -0 255 125 0 255
-0.125 -0.074999996 0.24027821 1 -0 -0 255 125 0 255
-0.125 0.105 0.615 1 -0 -0 255 125 0 255
-0.125 5.7752915E-14 0.24027821 1 -0 -0 255 125 0 255
-0.125 -0.105 -0.125 0.70710677 0.70710677 -0 255 125 0 255
-0.105 -0.125 0.615 0.70710677 0.70710677 -0 255 125 0 255
-0.105 -0.125 -0.125 0.70710677 0.70710677 -0 255 125 0 255
-0.125 -0.105 0.615 0.70710677 0.70710677 -0 255 125 0 255
-0.105 -0.125 0.615 0 1 -0 255 125 0 255
0.125 -0.125 -0.12499997 0 1 -0 255 125 0 255
-0.105 -0.125 -0.125 0 1 -0 255 125 0 255
0.125 -0.125 -0.0004999799 0 1 -0 255 125 0 255
0.125 -0.125 0.11950001 0 1 -0 255 125 0 255
0.125 -0.125 0.3805001 0 1 -0 255 125 0 255
0.125 -0.125 0.5005001 0 1 -0 255 125 0 255
0.125 -0.125 0.615 0 1 -0 255 125 0 255
0.125 -0.125 -0.12499997 -1 -0 -0 255 125 0 255
0.125 -0.105 -0.10499995 -1 -0 -0 255 125 0 255
0.125 -0.08499998 -0.12499997 -1 -0 -0 255 125 0 255
0.125 -0.125 -0.0004999799 -1 -0 -0 255 125 0 255
0.125 -0.11999998 -0.0054999785 -1 -0 -0 255 125 0 255
0.125 -0.105 -0.0054999785 -1 -0 -0 255 125 0 255
-0.100857854 -0.114999995 0.625 0 -0 -1 255 125 0 255
0.125 -0.08499998 0.625 0 -0 -1 255 125 0 255
0.125 -0.114999995 0.625 0 -0 -1 255 125 0 255
0.016568542 -0.03999999 0.625 0 -0 -1 255 125 0 255
0.03999999 -0.016568542 0.625 0 -0 -1 255 125 0 255
0.125 0.085 0.625 0 -0 -1 255 125 0 255
-0 -0.03999999 0.625 0 -0 -1 255 125 0 255
-0.016568542 -0.03999999 0.625 0 -0 -1 255 125 0 255
-0.03999999 -0.016568542 0.625 0 -0 -1 255 125 0 255
-0.03999999 0 0.625 0 -0 -1 255 125 0 255
-0.03999999 0.016568542 0.625 0 -0 -1 255 125 0 255
-0.100857854 0.114999995 0.625 0 -0 -1 255 125 0 255
0.125 0.114999995 0.625 0 -0 -1 255 125 0 255
0.016568542 0.03999999 0.625 0 -0 -1 255 125 0 255
0.03999999 0.016568542 0.625 0 -0 -1 255 125 0 255
0.03999999 0 0.625 0 -0 -1 255 125 0 255
-0 0.03999999 0.625 0 -0 -1 255 125 0 255
-0.016568542 0.03999999 0.625 0 -0 -1 255 125 0 255
-0.114999995 -0.100857854 0.625 0 -0 -1 255 125 0 255
-0.114999995 0.100857854 0.625 0 -0 -1 255 125 0 255
-0.114999995 0.100857854 0.625 0.4999995 -0.4999995 -0.7071075 255 125 0 255
-0.105 0.125 0.615 0.4999995 -0.4999995 -0.7071075 255 125 0 255
-0.100857854 0.114999995 0.625 0.4999995 -0.4999995 -0.7071075 255 125 0 255
-0.125 0.105 0.615 0.4999995 -0.4999995 -0.7071075 255 125 0 255
-0.125 -0.105 0.615 0.7071059 -0 -0.7071077 255 125 0 255
-0.114999995 0.100857854 0.625 0.7071059 -0 -0.7071077 255 125 0 255
-0.114999995 -0.100857854 0.625 0.7071059 -0 -0.7071077 255 125 0 255
-0.125 0.105 0.615 0.7071059 -0 -0.7071077 255 125 0 255
-0.105 -0.125 0.615 0.4999995 0.4999995 -0.7071075 255 125 0 255
-0.114999995 -0.100857854 0.625 0.4999995 0.4999995 -0.7071075 255 125 0 255
-0.100857854 -0.114999995 0.625 0.4999995 0.4999995 -0.7071075 255 125 0 255
-0.125 -0.105 0.615 0.4999995 0.4999995 -0.7071075 255 125 0 255
-0.105 -0.125 0.615 9.8268747E-20 0.7071059 -0.7071077 255 125 0 255
0.125 -0.114999995 0.625 9.8268747E-20 0.7071059 -0.7071077 255 125 0 255
0.125 -0.125 0.615 9.8268747E-20 0.7071059 -0.7071077 255 125 0 255
-0.100857854 -0.114999995 0.625 9.8268747E-20 0.7071059 -0.7071077 255 125 0 255
0.125 -0.08499998 0.625 -1 -0 -0 255 125 0 255
0.125 -0.105 0.605 -1 -0 -0 255 125 0 255
0.125 -0.114999995 0.625 -1 -0 -0 255 125 0 255
0.125 -0.125 0.5005001 -1 -0 -0 255 125 0 255
0.125 -0.125 0.615 -1 -0 -0 255 125 0 255
0.125 -0.11999998 0.5055001 -1 -0 -0 255 125 0 255
0.125 -0.105 0.5055001 -1 -0 -0 255 125 0 255
0.125 -0.11999998 0.3755001 -1 -0 -0 255 125 0 255
0.125 -0.125 0.11950001 -1 -0 -0 255 125 0 255
0.125 -0.125 0.3805001 -1 -0 -0 255 125 0 255
0.125 -0.11999998 0.12450003 -1 -0 -0 255 125 0 255
0.125 -0.105 0.3755001 -1 -0 -0 255 125 0 255
0.125 -0.105 0.12450003 -1 -0 -0 255 125 0 255
0.125 0.120000005 0.5055001 -1 -0 -0 199 199 199 255
0.125 0.10500002 0.3755001 -1 -0 -0 199 199 199 255
0.125 0.10500002 0.5055001 -1 -0 -0 199 199 199 255
0.125 0.120000005 0.3755001 -1 -0 -0 199 199 199 255
0.125 0.125 0.5005001 -1 -0 -0 199 199 199 255
0.125 0.125 0.3805001 -1 -0 -0 199 199 199 255
0.125 0.120000005 0.12450003 -1 -0 -0 199 199 199 255
0.125 0.10500002 -0.0054999785 -1 -0 -0 199 199 199 255
0.125 0.10500002 0.12450003 -1 -0 -0 199 199 199 255
0.125 0.120000005 -0.0054999785 -1 -0 -0 199 199 199 255
0.125 0.125 0.11950001 -1 -0 -0 199 199 199 255
0.125 0.125 -0.0004999799 -1 -0 -0 199 199 199 255
0.125 -0.08499998 0.625 -1 -2.8661498E-14 8.7017276E-29 58 58 58 255
0.125 -0.105 0.5055001 -1 -2.8661498E-14 8.7017276E-29 58 58 58 255
0.125 -0.105 0.605 -1 -2.8661498E-14 8.7017276E-29 58 58 58 255
0.125 -0.105 0.3755001 -1 -2.8661498E-14 8.7017276E-29 58 58 58 255
0.125 -0.105 0.12450003 -1 -2.8661498E-14 8.7017276E-29 58 58 58 255
0.125 -0.105 -0.0054999785 -1 -2.8661498E-14 8.7017276E-29 58 58 58 255
0.125 -0.105 -0.10499995 -1 -2.8661498E-14 8.7017276E-29 58 58 58 255
0.125 -0.085 0.5967158 -1 -2.8661498E-14 8.7017276E-29 58 58 58 255
0.125 -0.076715715 0.605 -1 -2.8661498E-14 8.7017276E-29 58 58 58 255
0.125 0.085 0.625 -1 -2.8661498E-14 8.7017276E-29 58 58 58 255
0.125 0.076715715 0.605 -1 -2.8661498E-14 8.7017276E-29 58 58 58 255
0.125 0.085 0.5967158 -1 -2.8661498E-14 8.7017276E-29 58 58 58 255
0.125 0.085 0.5055001 -1 -2.8661498E-14 8.7017276E-29 58 58 58 255
0.125 0.085 0.3755001 -1 -2.8661498E-14 8.7017276E-29 58 58 58 255
0.125 0.085 0.12450003 -1 -2.8661498E-14 8.7017276E-29 58 58 58 255
0.125 0.085 -0.0054999785 -1 -2.8661498E-14 8.7017276E-29 58 58 58 255
0.125 0.085 -0.0967157 -1 -2.8661498E-14 8.7017276E-29 58 58 58 255
0.125 0.085 -0.12499997 -1 -2.8661498E-14 8.7017276E-29 58 58 58 255
0.125 0.10500002 -0.10499995 -1 -2.8661498E-14 8.7017276E-29 58 58 58 255
0.125 0.10500002 0.605 -1 -2.8661498E-14 8.7017276E-29 58 58 58 255
0.125 0.10500002 0.5055001 -1 -2.8661498E-14 8.7017276E-29 58 58 58 255
0.125 0.10500002 0.3755001 -1 -2.8661498E-14 8.7017276E-29 58 58 58 255
0.125 0.10500002 0.12450003 -1 -2.8661498E-14 8.7017276E-29 58 58 58 255
0.125 0.10500002 -0.0054999785 -1 -2.8661498E-14 8.7017276E-29 58 58 58 255
0.125 -0.085 -0.0967157 -1 -2.8661498E-14 8.7017276E-29 58 58 58 255
0.125 -0.08499998 -0.12499997 -1 -2.8661498E-14 8.7017276E-29 58 58 58 255
0.125 -0.085 0.5055001 -1 -2.8661498E-14 8.7017276E-29 58 58 58 255
0.125 -0.085 0.3755001 -1 -2.8661498E-14 8.7017276E-29 58 58 58 255
0.125 -0.085 0.12450003 -1 -2.8661498E-14 8.7017276E-29 58 58 58 255
0.125 -0.085 -0.0054999785 -1 -2.8661498E-14 8.7017276E-29 58 58 58 255
0.125 -0.076715715 -0.10499995 -1 -2.8661498E-14 8.7017276E-29 58 58 58 255
0.125 0.076715715 -0.10499995 -1 -2.8661498E-14 8.7017276E-29 58 58 58 255
0.016568542 -0.03999999 0.625 0 -1 -0 58 58 58 255
-0 -0.03999999 0.615 0 -1 -0 58 58 58 255
0.016568542 -0.03999999 0.615 0 -1 -0 58 58 58 255
-0 -0.03999999 0.625 0 -1 -0 58 58 58 255
-0.016568542 -0.03999999 0.615 0 -1 -0 58 58 58 255
-0.016568542 -0.03999999 0.625 0 -1 -0 58 58 58 255
0.016568542 -0.03999999 0.615 0 -0 -1 58 58 58 255
0.03999999 0 0.615 0 -0 -1 58 58 58 255
0.03999999 -0.016568542 0.615 0 -0 -1 58 58 58 255
0.02999999 -0.012426406 0.615 0 -0 -1 58 58 58 255
0.03999999 0.016568542 0.615 0 -0 -1 58 58 58 255
0.012426406 -0.02999999 0.615 0 -0 -1 58 58 58 255
-0 -0.03999999 0.615 0 -0 -1 58 58 58 255
-0 -0.02999999 0.615 0 -0 -1 58 58 58 255
-0.016568542 -0.03999999 0.615 0 -0 -1 58 58 58 255
-0.012426406 -0.02999999 0.615 0 -0 -1 58 58 58 255
-0.02999999 -0.012426406 0.615 0 -0 -1 58 58 58 255
-0.03999999 -0.016568542 0.615 0 -0 -1 58 58 58 255
-0.02999999 0 0.615 0 -0 -1 58 58 58 255
-0.02999999 0.012426406 0.615 0 -0 -1 58 58 58 255
0.02999999 0.012426406 0.615 0 -0 -1 58 58 58 255
0.016568542 0.03999999 0.615 0 -0 -1 58 58 58 255
0.02999999 0 0.615 0 -0 -1 58 58 58 255
0.012426406 0.02999999 0.615 0 -0 -1 58 58 58 255
-0 0.03999999 0.615 0 -0 -1 58 58 58 255
-0 0.02999999 0.615 0 -0 -1 58 58 58 255
-0.012426406 0.02999999 0.615 0 -0 -1 58 58 58 255
-0.016568542 0.03999999 0.615 0 -0 -1 58 58 58 255
-0.03999999 0.016568542 0.615 0 -0 -1 58 58 58 255
-0.03999999 0 0.615 0 -0 -1 58 58 58 255
0.03999999 -0.016568542 0.625 0.70710677 -0.70710677 -0 58 58 58 255
0.016568542 -0.03999999 0.615 0.70710677 -0.70710677 -0 58 58 58 255
0.03999999 -0.016568542 0.615 0.70710677 -0.70710677 -0 58 58 58 255
0.016568542 -0.03999999 0.625 0.70710677 -0.70710677 -0 58 58 58 255
-0.016568542 -0.03999999 0.625 -0.70710677 -0.70710677 -0 58 58 58 255
-0.03999999 -0.016568542 0.615 -0.70710677 -0.70710677 -0 58 58 58 255
-0.016568542 -0.03999999 0.615 -0.70710677 -0.70710677 -0 58 58 58 255
-0.03999999 -0.016568542 0.625 -0.70710677 -0.70710677 -0 58 58 58 255
-0.03999999 0 0.625 -1 -0 -0 58 58 58 255
-0.03999999 -0.016568542 0.615 -1 -0 -0 58 58 58 255
-0.03999999 -0.016568542 0.625 -1 -0 -0 58 58 58 255
-0.03999999 0 0.615 -1 -0 -0 58 58 58 255
-0.03999999 0.016568542 0.625 -1 -0 -0 58 58 58 255
-0.03999999 0.016568542 0.615 -1 -0 -0 58 58 58 255
-0.03999999 0.016568542 0.625 -0.70710677 0.70710677 -0 58 58 58 255
-0.016568542 0.03999999 0.615 -0.70710677 0.70710677 -0 58 58 58 255
-0.03999999 0.016568542 0.615 -0.70710677 0.70710677 -0 58 58 58 255
-0.016568542 0.03999999 0.625 -0.70710677 0.70710677 -0 58 58 58 255
-0.016568542 0.03999999 0.625 0 1 -0 58 58 58 255
-0 0.03999999 0.615 0 1 -0 58 58 58 255
-0.016568542 0.03999999 0.615 0 1 -0 58 58 58 255
-0 0.03999999 0.625 0 1 -0 58 58 58 255
0.016568542 0.03999999 0.615 0 1 -0 58 58 58 255
0.016568542 0.03999999 0.625 0 1 -0 58 58 58 255
0.016568542 0.03999999 0.625 0.70710677 0.70710677 -0 58 58 58 255
0.03999999 0.016568542 0.615 0.70710677 0.70710677 -0 58 58 58 255
0.016568542 0.03999999 0.615 0.70710677 0.70710677 -0 58 58 58 255
0.03999999 0.016568542 0.625 0.70710677 0.70710677 -0 58 58 58 255
0.03999999 0.016568542 0.615 1 -0 -0 58 58 58 255
0.03999999 0 0.625 1 -0 -0 58 58 58 255
0.03999999 0 0.615 1 -0 -0 58 58 58 255
0.03999999 0.016568542 0.625 1 -0 -0 58 58 58 255
0.03999999 -0.016568542 0.625 1 -0 -0 58 58 58 255
0.03999999 -0.016568542 0.615 1 -0 -0 58 58 58 255
0.125 -0.085 -0.0967157 2.1120648E-14 -0.70710677 -0.70710677 86 86 86 255
0.105 -0.076715715 -0.10499995 2.1120648E-14 -0.70710677 -0.70710677 86 86 86 255
0.125 -0.076715715 -0.10499995 2.1120648E-14 -0.70710677 -0.70710677 86 86 86 255
0.105 -0.085 -0.0967157 2.1120648E-14 -0.70710677 -0.70710677 86 86 86 255
0.125 -0.085 -0.0054999785 3.166029E-14 -1 -0 86 86 86 255
0.105 -0.085 -0.0967157 3.166029E-14 -1 -0 86 86 86 255
0.125 -0.085 -0.0967157 3.166029E-14 -1 -0 86 86 86 255
0.105 -0.085 -0.0054999785 3.166029E-14 -1 -0 86 86 86 255
0.105 -0.076715715 -0.10499995 -1.791177E-15 -4.116969E-15 -1 86 86 86 255
0.125 0.076715715 -0.10499995 -1.791177E-15 -4.116969E-15 -1 86 86 86 255
0.125 -0.076715715 -0.10499995 -1.791177E-15 -4.116969E-15 -1 86 86 86 255
0.105 0.076715715 -0.10499995 -1.791177E-15 -4.116969E-15 -1 86 86 86 255
0.105 -0.07999998 -0.0054999785 1.791177E-15 9.0238935E-15 1 86 86 86 255
0.125 -0.085 -0.0054999785 1.791177E-15 9.0238935E-15 1 86 86 86 255
0.125 -0.07999998 -0.0054999785 1.791177E-15 9.0238935E-15 1 86 86 86 255
0.105 -0.085 -0.0054999785 1.791177E-15 9.0238935E-15 1 86 86 86 255
0.105 0.076715715 -0.10499995 -2.3653756E-14 0.70710677 -0.70710677 86 86 86 255
0.125 0.085 -0.0967157 -2.3653756E-14 0.70710677 -0.70710677 86 86 86 255
0.125 0.076715715 -0.10499995 -2.3653756E-14 0.70710677 -0.70710677 86 86 86 255
0.105 0.085 -0.0967157 -2.3653756E-14 0.70710677 -0.70710677 86 86 86 255
0.125 -0.074999996 -0.0004999799 2.3653756E-14 -0.70710677 0.70710677 86 86 86 255
0.105 -0.07999998 -0.0054999785 2.3653756E-14 -0.70710677 0.70710677 86 86 86 255
0.125 -0.07999998 -0.0054999785 2.3653756E-14 -0.70710677 0.70710677 86 86 86 255
0.105 -0.074999996 -0.0004999799 2.3653756E-14 -0.70710677 0.70710677 86 86 86 255
0.105 0.085 -0.0967157 -3.166029E-14 1 -0 86 86 86 255
0.125 0.085 -0.0054999785 -3.166029E-14 1 -0 86 86 86 255
0.125 0.085 -0.0967157 -3.166029E-14 1 -0 86 86 86 255
0.105 0.085 -0.0054999785 -3.166029E-14 1 -0 86 86 86 255
0.125 -0.074999996 0.11950001 3.166029E-14 -1 -0 86 86 86 255
0.105 -0.074999996 -0.0004999799 3.166029E-14 -1 -0 86 86 86 255
0.125 -0.074999996 -0.0004999799 3.166029E-14 -1 -0 86 86 86 255
0.105 -0.074999996 0.11950001 3.166029E-14 -1 -0 86 86 86 255
0.105 0.085 -0.0054999785 1.791177E-15 9.0238935E-15 1 86 86 86 255
0.125 0.07999998 -0.0054999785 1.791177E-15 9.0238935E-15 1 86 86 86 255
0.125 0.085 -0.0054999785 1.791177E-15 9.0238935E-15 1 86 86 86 255
0.105 0.07999998 -0.0054999785 1.791177E-15 9.0238935E-15 1 86 86 86 255
0.125 -0.07999998 0.12450003 2.1120648E-14 -0.70710677 -0.70710677 86 86 86 255
0.105 -0.074999996 0.11950001 2.1120648E-14 -0.70710677 -0.70710677 86 86 86 255
0.125 -0.074999996 0.11950001 2.1120648E-14 -0.70710677 -0.70710677 86 86 86 255
0.105 -0.07999998 0.12450003 2.1120648E-14 -0.70710677 -0.70710677 86 86 86 255
0.105 0.07999998 -0.0054999785 -2.1120648E-14 0.70710677 0.70710677 86 86 86 255
0.125 0.074999996 -0.0004999799 -2.1120648E-14 0.70710677 0.70710677 86 86 86 255
0.125 0.07999998 -0.0054999785 -2.1120648E-14 0.70710677 0.70710677 86 86 86 255
0.105 0.074999996 -0.0004999799 -2.1120648E-14 0.70710677 0.70710677 86 86 86 255
0.105 -0.085 0.12450003 -1.791177E-15 -0 -1 86 86 86 255
0.125 -0.07999998 0.12450003 -1.791177E-15 -0 -1 86 86 86 255
0.125 -0.085 0.12450003 -1.791177E-15 -0 -1 86 86 86 255
0.105 -0.07999998 0.12450003 -1.791177E-15 -0 -1 86 86 86 255
0.105 0.074999996 -0.0004999799 -3.166029E-14 1 -0 86 86 86 255
0.125 0.074999996 0.11950001 -3.166029E-14 1 -0 86 86 86 255
0.125 0.074999996 -0.0004999799 -3.166029E-14 1 -0 86 86 86 255
0.105 0.074999996 0.11950001 -3.166029E-14 1 -0 86 86 86 255
0.125 -0.085 0.3755001 3.166029E-14 -1 -0 86 86 86 255
0.105 -0.085 0.12450003 3.166029E-14 -1 -0 86 86 86 255
0.125 -0.085 0.12450003 3.166029E-14 -1 -0 86 86 86 255
0.105 -0.085 0.3755001 3.166029E-14 -1 -0 86 86 86 255
0.105 0.07999998 0.12450003 -2.3653756E-14 0.70710677 -0.70710677 86 86 86 255
0.125 0.074999996 0.11950001 -2.3653756E-14 0.70710677 -0.70710677 86 86 86 255
0.105 0.074999996 0.11950001 -2.3653756E-14 0.70710677 -0.70710677 86 86 86 255
0.125 0.07999998 0.12450003 -2.3653756E-14 0.70710677 -0.70710677 86 86 86 255
0.105 -0.07999998 0.3755001 1.791177E-15 -0 1 86 86 86 255
0.125 -0.085 0.3755001 1.791177E-15 -0 1 86 86 86 255
0.125 -0.07999998 0.3755001 1.791177E-15 -0 1 86 86 86 255
0.105 -0.085 0.3755001 1.791177E-15 -0 1 86 86 86 255
0.105 0.07999998 0.12450003 -1.791177E-15 -0 -1 86 86 86 255
0.125 0.085 0.12450003 -1.791177E-15 -0 -1 86 86 86 255
0.125 0.07999998 0.12450003 -1.791177E-15 -0 -1 86 86 86 255
0.105 0.085 0.12450003 -1.791177E-15 -0 -1 86 86 86 255
0.125 -0.074999996 0.3805001 2.3653756E-14 -0.70710677 0.70710677 86 86 86 255
0.105 -0.07999998 0.3755001 2.3653756E-14 -0.70710677 0.70710677 86 86 86 255
0.125 -0.07999998 0.3755001 2.3653756E-14 -0.70710677 0.70710677 86 86 86 255
0.105 -0.074999996 0.3805001 2.3653756E-14 -0.70710677 0.70710677 86 86 86 255
0.105 0.085 0.3755001 -3.166029E-14 1 -0 86 86 86 255
0.125 0.085 0.12450003 -3.166029E-14 1 -0 86 86 86 255
0.105 0.085 0.12450003 -3.166029E-14 1 -0 86 86 86 255
0.125 0.085 0.3755001 -3.166029E-14 1 -0 86 86 86 255
0.125 -0.074999996 0.5005001 3.166029E-14 -1 -0 86 86 86 255
0.105 -0.074999996 0.3805001 3.166029E-14 -1 -0 86 86 86 255
0.125 -0.074999996 0.3805001 3.166029E-14 -1 -0 86 86 86 255
0.105 -0.074999996 0.5005001 3.166029E-14 -1 -0 86 86 86 255
0.105 0.085 0.3755001 1.791177E-15 -0 1 86 86 86 255
0.125 0.07999998 0.3755001 1.791177E-15 -0 1 86 86 86 255
0.125 0.085 0.3755001 1.791177E-15 -0 1 86 86 86 255
0.105 0.07999998 0.3755001 1.791177E-15 -0 1 86 86 86 255
0.125 -0.07999998 0.5055001 2.1120648E-14 -0.70710677 -0.70710677 86 86 86 255
0.105 -0.074999996 0.5005001 2.1120648E-14 -0.70710677 -0.70710677 86 86 86 255
0.125 -0.074999996 0.5005001 2.1120648E-14 -0.70710677 -0.70710677 86 86 86 255
0.105 -0.07999998 0.5055001 2.1120648E-14 -0.70710677 -0.70710677 86 86 86 255
0.105 0.074999996 0.3805001 -2.1120648E-14 0.70710677 0.70710677 86 86 86 255
0.125 0.07999998 0.3755001 -2.1120648E-14 0.70710677 0.70710677 86 86 86 255
0.105 0.07999998 0.3755001 -2.1120648E-14 0.70710677 0.70710677 86 86 86 255
0.125 0.074999996 0.3805001 -2.1120648E-14 0.70710677 0.70710677 86 86 86 255
0.105 -0.085 0.5055001 -1.791177E-15 -0 -1 86 86 86 255
0.125 -0.07999998 0.5055001 -1.791177E-15 -0 -1 86 86 86 255
0.125 -0.085 0.5055001 -1.791177E-15 -0 -1 86 86 86 255
0.105 -0.07999998 0.5055001 -1.791177E-15 -0 -1 86 86 86 255
0.105 0.074999996 0.5005001 -3.166029E-14 1 1.5237281E-27 86 86 86 255
0.125 0.074999996 0.3805001 -3.166029E-14 1 1.5237281E-27 86 86 86 255
0.105 0.074999996 0.3805001 -3.166029E-14 1 1.5237281E-27 86 86 86 255
0.125 0.074999996 0.5005001 -3.166029E-14 1 1.5237281E-27 86 86 86 255
0.125 -0.085 0.5967158 3.166029E-14 -1 -0 86 86 86 255
0.105 -0.085 0.5055001 3.166029E-14 -1 -0 86 86 86 255
0.125 -0.085 0.5055001 3.166029E-14 -1 -0 86 86 86 255
0.105 -0.085 0.5967158 3.166029E-14 -1 -0 86 86 86 255
0.105 0.07999998 0.5055001 -2.3653756E-14 0.70710677 -0.70710677 86 86 86 255
0.125 0.074999996 0.5005001 -2.3653756E-14 0.70710677 -0.70710677 86 86 86 255
0.105 0.074999996 0.5005001 -2.3653756E-14 0.70710677 -0.70710677 86 86 86 255
0.125 0.07999998 0.5055001 -2.3653756E-14 0.70710677 -0.70710677 86 86 86 255
0.125 -0.076715715 0.605 2.3653756E-14 -0.70710677 0.70710677 86 86 86 255
0.105 -0.085 0.5967158 2.3653756E-14 -0.70710677 0.70710677 86 86 86 255
0.125 -0.085 0.5967158 2.3653756E-14 -0.70710677 0.70710677 86 86 86 255
0.105 -0.076715715 0.605 2.3653756E-14 -0.70710677 0.70710677 86 86 86 255
0.105 0.07999998 0.5055001 -1.791177E-15 -0 -1 86 86 86 255
0.125 0.085 0.5055001 -1.791177E-15 -0 -1 86 86 86 255
0.125 0.07999998 0.5055001 -1.791177E-15 -0 -1 86 86 86 255
0.105 0.085 0.5055001 -1.791177E-15 -0 -1 86 86 86 255
0.105 0.076715715 0.605 1.791177E-15 4.7051067E-15 1 86 86 86 255
0.125 -0.076715715 0.605 1.791177E-15 4.7051067E-15 1 86 86 86 255
0.125 0.076715715 0.605 1.791177E-15 4.7051067E-15 1 86 86 86 255
0.105 -0.076715715 0.605 1.791177E-15 4.7051067E-15 1 86 86 86 255
0.105 0.085 0.5967158 -3.166029E-14 1 -0 86 86 86 255
0.125 0.085 0.5055001 -3.166029E-14 1 -0 86 86 86 255
0.105 0.085 0.5055001 -3.166029E-14 1 -0 86 86 86 255
0.125 0.085 0.5967158 -3.166029E-14 1 -0 86 86 86 255
0.105 0.076715715 0.605 -2.1120648E-14 0.70710677 0.70710677 86 86 86 255
0.125 0.085 0.5967158 -2.1120648E-14 0.70710677 0.70710677 86 86 86 255
0.105 0.085 0.5967158 -2.1120648E-14 0.70710677 0.70710677 86 86 86 255
0.125 0.076715715 0.605 -2.1120648E-14 0.70710677 0.70710677 86 86 86 255
0.125 -0.07999998 0.5055001 -1 -0 -0 58 58 58 255
0.125 -0.085 0.3755001 -1 -0 -0 58 58 58 255
0.125 -0.085 0.5055001 -1 -0 -0 58 58 58 255
0.125 -0.07999998 0.3755001 -1 -0 -0 58 58 58 255
0.125 -0.074999996 0.5005001 -1 -0 -0 58 58 58 255
0.125 -0.074999996 0.3805001 -1 -0 -0 58 58 58 255
-0.125 5.7752915E-14 0.24027821 0 -0 1 58 58 58 255
-0.105 -0.074999996 0.24027821 0 -0 1 58 58 58 255
-0.105 4.0427043E-14 0.24027821 0 -0 1 58 58 58 255
-0.125 -0.074999996 0.24027821 0 -0 1 58 58 58 255
-0.125 5.7752915E-14 0.24027821 7.21911E-13 1 1.502155E-13 58 58 58 255
-0.105 7.5078785E-14 0.028821351 7.21911E-13 1 1.502155E-13 58 58 58 255
-0.125 8.662936E-14 0.028821351 7.21911E-13 1 1.502155E-13 58 58 58 255
-0.105 4.0427043E-14 0.24027821 7.21911E-13 1 1.502155E-13 58 58 58 255
-0.105 -0.074999996 0.24027821 0 -1 -0 58 58 58 255
-0.125 -0.074999996 0.028821351 0 -1 -0 58 58 58 255
-0.105 -0.074999996 0.028821351 0 -1 -0 58 58 58 255
-0.125 -0.074999996 0.24027821 0 -1 -0 58 58 58 255
-0.105 7.5078785E-14 0.028821351 1 -0 -0 58 58 58 255
-0.105 -0.074999996 0.24027821 1 -0 -0 58 58 58 255
-0.105 -0.074999996 0.028821351 1 -0 -0 58 58 58 255
-0.105 4.0427043E-14 0.24027821 1 -0 -0 58 58 58 255
-0.125 -0.074999996 0.028821351 0 -0 -1 58 58 58 255
-0.105 7.5078785E-14 0.028821351 0 -0 -1 58 58 58 255
-0.105 -0.074999996 0.028821351 0 -0 -1 58 58 58 255
-0.125 8.662936E-14 0.028821351 0 -0 -1 58 58 58 255
0.105 -0.076715715 0.605 -1 -3.166029E-14 1.791177E-15 30 30 30 255
0.105 -0.085 0.5055001 -1 -3.166029E-14 1.791177E-15 30 30 30 255
0.105 -0.085 0.5967158 -1 -3.166029E-14 1.791177E-15 30 30 30 255
0.105 -0.07999998 0.5055001 -1 -3.166029E-14 1.791177E-15 30 30 30 255
0.105 -0.074999996 0.5005001 -1 -3.166029E-14 1.791177E-15 30 30 30 255
0.105 0.076715715 0.605 -1 -3.166029E-14 1.791177E-15 30 30 30 255
0.105 -0.074999996 0.3805001 -1 -3.166029E-14 1.791177E-15 30 30 30 255
0.105 -0.074999996 0.11950001 -1 -3.166029E-14 1.791177E-15 30 30 30 255
0.105 -0.074999996 -0.0004999799 -1 -3.166029E-14 1.791177E-15 30 30 30 255
0.105 0.074999996 0.5005001 -1 -3.166029E-14 1.791177E-15 30 30 30 255
0.105 0.07999998 0.5055001 -1 -3.166029E-14 1.791177E-15 30 30 30 255
0.105 0.085 0.5967158 -1 -3.166029E-14 1.791177E-15 30 30 30 255
0.105 0.085 0.5055001 -1 -3.166029E-14 1.791177E-15 30 30 30 255
0.105 0.07999998 0.3755001 -1 -3.166029E-14 1.791177E-15 30 30 30 255
0.105 0.074999996 0.11950001 -1 -3.166029E-14 1.791177E-15 30 30 30 255
0.105 0.074999996 0.3805001 -1 -3.166029E-14 1.791177E-15 30 30 30 255
0.105 0.07999998 0.12450003 -1 -3.166029E-14 1.791177E-15 30 30 30 255
0.105 0.085 0.3755001 -1 -3.166029E-14 1.791177E-15 30 30 30 255
0.105 0.085 0.12450003 -1 -3.166029E-14 1.791177E-15 30 30 30 255
0.105 -0.07999998 -0.0054999785 -1 -3.166029E-14 1.791177E-15 30 30 30 255
0.105 -0.085 -0.0967157 -1 -3.166029E-14 1.791177E-15 30 30 30 255
0.105 -0.085 -0.0054999785 -1 -3.166029E-14 1.791177E-15 30 30 30 255
0.105 -0.076715715 -0.10499995 -1 -3.166029E-14 1.791177E-15 30 30 30 255
0.105 0.076715715 -0.10499995 -1 -3.166029E-14 1.791177E-15 30 30 30 255
0.105 0.074999996 -0.0004999799 -1 -3.166029E-14 1.791177E-15 30 30 30 255
0.105 0.07999998 -0.0054999785 -1 -3.166029E-14 1.791177E-15 30 30 30 255
0.105 0.085 -0.0967157 -1 -3.166029E-14 1.791177E-15 30 30 30 255
0.105 0.085 -0.0054999785 -1 -3.166029E-14 1.791177E-15 30 30 30 255
0.105 -0.07999998 0.3755001 -1 -3.166029E-14 1.791177E-15 30 30 30 255
0.105 -0.085 0.12450003 -1 -3.166029E-14 1.791177E-15 30 30 30 255
0.105 -0.085 0.3755001 -1 -3.166029E-14 1.791177E-15 30 30 30 255
0.105 -0.07999998 0.12450003 -1 -3.166029E-14 1.791177E-15 30 30 30 255
0.125 0.07999998 0.5055001 -1 -2.887646E-13 1.437832E-14 58 58 58 255
0.125 0.074999996 0.3805001 -1 -2.887646E-13 1.437832E-14 58 58 58 255
0.125 0.074999996 0.5005001 -1 -2.887646E-13 1.437832E-14 58 58 58 255
0.125 0.07999998 0.3755001 -1 -2.887646E-13 1.437832E-14 58 58 58 255
0.125 0.085 0.5055001 -1 -2.887646E-13 1.437832E-14 58 58 58 255
0.125 0.085 0.3755001 -1 -2.887646E-13 1.437832E-14 58 58 58 255
0.125 0.07999998 0.12450003 -1 -0 -0 58 58 58 255
0.125 0.074999996 -0.0004999799 -1 -0 -0 58 58 58 255
0.125 0.074999996 0.11950001 -1 -0 -0 58 58 58 255
0.125 0.07999998 -0.0054999785 -1 -0 -0 58 58 58 255
0.125 0.085 0.12450003 -1 -0 -0 58 58 58 255
0.125 0.085 -0.0054999785 -1 -0 -0 58 58 58 255
0.125 -0.07999998 0.12450003 -1 -0 -0 58 58 58 255
0.125 -0.085 -0.0054999785 -1 -0 -0 58 58 58 255
0.125 -0.085 0.12450003 -1 -0 -0 58 58 58 255
0.125 -0.07999998 -0.0054999785 -1 -0 -0 58 58 58 255
0.125 -0.074999996 0.11950001 -1 -0 -0 58 58 58 255
0.125 -0.074999996 -0.0004999799 -1 -0 -0 58 58 58 255
0.125 -0.11999998 0.5055001 -1 -0 -0 199 199 199 255
0.125 -0.125 0.3805001 -1 -0 -0 199 199 199 255
0.125 -0.125 0.5005001 -1 -0 -0 199 199 199 255
0.125 -0.11999998 0.3755001 -1 -0 -0 199 199 199 255
0.125 -0.105 0.5055001 -1 -0 -0 199 199 199 255
0.125 -0.105 0.3755001 -1 -0 -0 199 199 199 255
0.125 -0.11999998 0.12450003 -1 -0 -0 199 199 199 255
0.125 -0.125 -0.0004999799 -1 -0 -0 199 199 199 255
0.125 -0.125 0.11950001 -1 -0 -0 199 199 199 255
0.125 -0.11999998 -0.0054999785 -1 -0 -0 199 199 199 255
0.125 -0.105 0.12450003 -1 -0 -0 199 199 199 255
0.125 -0.105 -0.0054999785 -1 -0 -0 199 199 199 255
3 0 1 2
3 1 0 3
3 4 5 6
3 5 4 7
3 8 9 10
3 9 8 11
3 11 8 12
3 11 12 13
3 14 15 16
3 15 14 17
3 17 14 18
3 18 14 19
3 20 21 22
3 21 20 4
3 4 20 7
3 7 20 23
3 24 25 26
3 25 24 27
3 25 27 28
3 27 24 29
3 29 24 30
3 29 30 31
3 31 30 32
3 31 32 33
3 33 32 34
3 34 32 35
3 34 35 36
3 36 35 37
3 28 38 39
3 38 28 27
3 38 27 40
3 39 38 41
3 39 41 42
3 42 41 43
3 42 43 44
3 42 44 45
3 45 44 37
3 45 37 46
3 46 37 35
3 46 35 47
3 5 48 6
3 48 5 49
3 48 49 50
3 48 50 51
3 52 53 54
3 53 52 55
3 56 57 58
3 57 56 59
3 22 60 20
3 60 22 61
3 62 63 64
3 63 62 65
3 65 62 66
3 66 62 67
3 50 64 51
3 64 50 62
3 68 60 61
3 60 68 69
3 69 68 70
3 69 70 71
3 71 65 66
3 65 71 70
3 72 73 74
3 73 72 75
3 75 72 76
3 76 72 77
3 78 79 80
3 79 78 81
3 81 78 82
3 81 82 83
3 84 85 86
3 85 84 87
3 88 89 90
3 89 88 91
3 92 93 94
3 93 92 95
3 96 97 98
3 97 96 99
3 99 96 100
3 100 96 101
3 100 101 102
3 102 101 103
3 102 103 104
3 104 103 105
3 104 105 106
3 106 105 107
3 108 109 110
3 109 108 111
3 94 112 113
3 112 94 93
3 114 115 116
3 115 114 117
3 118 119 120
3 119 118 121
3 121 122 119
3 122 121 123
3 124 125 126
3 125 124 127
3 128 129 130
3 129 128 131
3 132 131 128
3 131 132 133
3 134 135 136
3 135 134 137
3 138 110 139
3 110 138 108
3 140 141 142
3 141 140 143
3 143 140 144
3 143 144 145
3 146 147 148
3 147 146 149
3 149 146 150
3 149 150 151
3 149 151 152
3 149 152 153
3 154 155 156
3 155 157 158
3 157 155 159
3 159 155 154
3 159 154 160
3 159 160 161
3 162 163 164
3 163 165 166
3 165 163 162
3 165 162 167
3 168 169 170
3 169 168 171
3 171 168 172
3 172 168 173
3 172 173 174
3 175 176 177
3 176 175 178
3 179 180 181
3 180 179 182
3 183 184 185
3 184 183 186
3 184 186 187
3 185 188 189
3 188 185 184
3 189 188 190
3 189 190 187
3 189 187 186
3 191 192 193
3 192 191 194
3 195 196 197
3 196 195 198
3 198 195 199
3 199 195 200
3 200 195 201
3 201 195 202
3 203 204 205
3 204 203 206
3 204 206 207
3 204 207 208
3 209 210 211
3 210 209 212
3 210 212 213
3 210 213 214
3 212 209 215
3 215 209 216
3 216 209 217
3 217 209 218
3 218 209 219
3 214 220 221
3 220 214 222
3 222 214 223
3 223 214 213
3 223 213 224
3 220 222 225
3 220 225 226
3 220 226 219
3 220 219 209
3 220 209 227
3 220 227 228
3 229 230 231
3 230 229 232
3 233 234 235
3 234 233 236
3 237 238 239
3 238 237 240
3 241 242 243
3 242 241 244
3 245 246 247
3 247 248 249
3 248 247 250
3 250 247 251
3 251 247 246
3 252 253 254
3 253 252 255
3 255 252 256
3 255 256 257
3 258 259 260
3 259 258 261
3 261 258 262
3 261 262 263
3 264 265 266
3 265 264 267
3 267 264 268
3 267 268 269
3 270 271 272
3 271 270 273
3 273 270 274
3 274 270 275
3 275 270 276
3 276 270 277
3 277 270 278
3 278 270 279
3 278 279 280
3 280 279 281
3 281 279 282
3 282 279 283
3 283 279 284
3 284 279 285
3 285 279 286
3 286 279 287
3 287 279 288
3 288 279 289
3 288 289 290
3 288 290 291
3 288 291 292
3 288 292 293
3 276 294 295
3 294 276 277
3 294 277 296
3 294 296 297
3 294 297 298
3 294 298 299
3 295 294 300
3 295 300 287
3 287 300 301
3 287 301 286
3 302 303 304
3 303 302 305
3 305 306 303
3 306 305 307
3 308 309 310
3 309 308 311
3 309 311 312
3 311 308 313
3 313 308 314
3 313 314 315
3 315 314 316
3 315 316 317
3 317 316 318
3 318 316 319
3 318 319 320
3 320 319 321
3 312 322 323
3 322 312 311
3 322 311 324
3 323 322 325
3 323 325 326
3 326 325 327
3 326 327 328
3 326 328 329
3 329 328 321
3 329 321 330
3 330 321 319
3 330 319 331
3 332 333 334
3 333 332 335
3 336 337 338
3 337 336 339
3 340 341 342
3 341 340 343
3 344 343 340
3 343 344 345
3 346 347 348
3 347 346 349
3 350 351 352
3 351 350 353
3 353 354 351
3 354 353 355
3 356 357 358
3 357 356 359
3 360 361 362
3 361 360 363
3 362 364 365
3 364 362 361
3 366 367 368
3 367 366 369
3 370 371 372
3 371 370 373
3 374 375 376
3 375 374 377
3 378 379 380
3 379 378 381
3 382 383 384
3 383 382 385
3 386 387 388
3 387 386 389
3 390 391 392
3 391 390 393
3 394 395 396
3 395 394 397
3 398 399 400
3 399 398 401
3 402 403 404
3 403 402 405
3 406 407 408
3 407 406 409
3 410 411 412
3 411 410 413
3 414 415 416
3 415 414 417
3 418 419 420
3 419 418 421
3 422 423 424
3 423 422 425
3 426 427 428
3 427 426 429
3 430 431 432
3 431 430 433
3 434 435 436
3 435 434 437
3 438 439 440
3 439 438 441
3 442 443 444
3 443 442 445
3 446 447 448
3 447 446 449
3 450 451 452
3 451 450 453
3 454 455 456
3 455 454 457
3 458 459 460
3 459 458 461
3 462 463 464
3 463 462 465
3 466 467 468
3 467 466 469
3 470 471 472
3 471 470 473
3 474 475 476
3 475 474 477
3 478 479 480
3 479 478 481
3 482 483 484
3 483 482 485
3 486 487 488
3 487 486 489
3 490 491 492
3 491 490 493
3 494 495 496
3 495 494 497
3 497 494 498
3 497 498 499
3 500 501 502
3 501 500 503
3 504 505 506
3 505 504 507
3 508 509 510
3 509 508 511
3 512 513 514
3 513 512 515
3 516 517 518
3 517 516 519
3 520 521 522
3 521 520 523
3 523 520 524
3 524 520 525
3 524 525 526
3 526 525 527
3 527 525 528
3 528 525 529
3 529 525 530
3 530 525 531
3 530 531 532
3 533 534 535
3 534 533 536
3 536 533 537
3 536 537 538
3 539 540 541
3 540 539 542
3 542 539 528
3 542 528 543
3 543 528 544
3 544 528 529
3 544 529 535
3 544 535 534
3 543 544 545
3 543 545 546
3 546 545 547
3 548 549 550
3 549 548 551
3 551 548 526
3 551 526 527
3 552 553 554
3 553 552 555
3 555 552 556
3 555 556 557
3 558 559 560
3 559 558 561
3 561 558 562
3 561 562 563
3 564 565 566
3 565 564 567
3 567 564 568
3 567 568 569
3 570 571 572
3 571 570 573
3 573 570 574
3 573 574 575
3 576 577 578
3 577 576 579
3 579 576 580
3 579 580 581

