ply
format ascii 1.0
commentY29udmVydGVyIGJ5IENvZGVMZW9wYXJk
comment Original mesh name: 'C:\Program Files (x86)\Steam\steamapps\common\Stormworks\rom\meshes\component_rain_sensor.mesh'
comment SubMesh index: 0
comment SubMesh name: 'ID2'
comment Shader: Opaque (0)
element vertex 172
property float x
property float y
property float z
property float nx
property float ny
property float nz
property uchar red
property uchar green
property uchar blue
property uchar alpha
element face 114
property list uchar ushort vertex_index
end_header
0.097 -0.088999994 0.11899999 0 -0 -1 86 86 86 255
0.088999994 -0.06299999 0.11899999 0 -0 -1 86 86 86 255
0.097 -0.06299999 0.11899999 0 -0 -1 86 86 86 255
0.071 -0.088999994 0.11899999 0 -0 -1 86 86 86 255
0.07899999 -0.06299999 0.11899999 0 -0 -1 86 86 86 255
0.088999994 0.088999994 0.11899999 0 -0 -1 86 86 86 255
0.071 -0.06299999 0.11899999 0 -0 -1 86 86 86 255
-0.037 -0.088999994 0.11899999 0 -0 -1 86 86 86 255
-0.047000006 -0.07899999 0.11899999 0 -0 -1 86 86 86 255
-0.037 0.07899999 0.11899999 0 -0 -1 86 86 86 255
-0.088999994 -0.088999994 0.11899999 0 -0 -1 86 86 86 255
-0.07899999 -0.07899999 0.11899999 0 -0 -1 86 86 86 255
-0.07899999 0.06299999 0.11899999 0 -0 -1 86 86 86 255
-0.071 0.088999994 0.11899999 0 -0 -1 86 86 86 255
-0.071 0.06299999 0.11899999 0 -0 -1 86 86 86 255
-0.097 0.088999994 0.11899999 0 -0 -1 86 86 86 255
-0.088999994 0.06299999 0.11899999 0 -0 -1 86 86 86 255
-0.097 0.06299999 0.11899999 0 -0 -1 86 86 86 255
0.047000006 -0.088999994 0.11899999 0 -0 -1 86 86 86 255
0.037 -0.07899999 0.11899999 0 -0 -1 86 86 86 255
0.047000006 0.07899999 0.11899999 0 -0 -1 86 86 86 255
-0.005 -0.088999994 0.11899999 0 -0 -1 86 86 86 255
0.005 -0.07899999 0.11899999 0 -0 -1 86 86 86 255
0.005 0.088999994 0.11899999 0 -0 -1 86 86 86 255
-0.005 0.07899999 0.11899999 0 -0 -1 86 86 86 255
-0.047000006 0.088999994 0.11899999 0 -0 -1 86 86 86 255
0.07899999 0.07899999 0.11899999 0 -0 -1 86 86 86 255
0.037 0.088999994 0.11899999 0 -0 -1 86 86 86 255
0.097 -0.06299999 0.11899999 1 -1.1106329E-13 -0 86 86 86 255
0.097 -0.088999994 0.125 1 -1.1106329E-13 -0 86 86 86 255
0.097 -0.088999994 0.11899999 1 -1.1106329E-13 -0 86 86 86 255
0.097 -0.06299999 0.125 1 -1.1106329E-13 -0 86 86 86 255
0.097 -0.088999994 0.125 0 -1 -0 86 86 86 255
0.071 -0.088999994 0.11899999 0 -1 -0 86 86 86 255
0.097 -0.088999994 0.11899999 0 -1 -0 86 86 86 255
0.071 -0.088999994 0.125 0 -1 -0 86 86 86 255
0.071 -0.06299999 0.125 -1 -0 -0 86 86 86 255
0.071 -0.088999994 0.11899999 -1 -0 -0 86 86 86 255
0.071 -0.088999994 0.125 -1 -0 -0 86 86 86 255
0.071 -0.06299999 0.11899999 -1 -0 -0 86 86 86 255
0.071 -0.06299999 0.125 0 1 -0 86 86 86 255
0.07899999 -0.06299999 0.11899999 0 1 -0 86 86 86 255
0.071 -0.06299999 0.11899999 0 1 -0 86 86 86 255
0.07899999 -0.06299999 0.125 0 1 -0 86 86 86 255
0.07899999 0.07899999 0.125 -1 -0 -0 86 86 86 255
0.07899999 -0.06299999 0.11899999 -1 -0 -0 86 86 86 255
0.07899999 -0.06299999 0.125 -1 -0 -0 86 86 86 255
0.07899999 0.07899999 0.11899999 -1 -0 -0 86 86 86 255
0.07899999 0.07899999 0.125 0 -1 -0 86 86 86 255
0.047000006 0.07899999 0.11899999 0 -1 -0 86 86 86 255
0.07899999 0.07899999 0.11899999 0 -1 -0 86 86 86 255
0.047000006 0.07899999 0.125 0 -1 -0 86 86 86 255
0.047000006 0.07899999 0.11899999 1 -0 -0 86 86 86 255
0.047000006 -0.088999994 0.125 1 -0 -0 86 86 86 255
0.047000006 -0.088999994 0.11899999 1 -0 -0 86 86 86 255
0.047000006 0.07899999 0.125 1 -0 -0 86 86 86 255
0.047000006 -0.088999994 0.125 0 -1 -0 86 86 86 255
-0.005 -0.088999994 0.11899999 0 -1 -0 86 86 86 255
0.047000006 -0.088999994 0.11899999 0 -1 -0 86 86 86 255
-0.005 -0.088999994 0.125 0 -1 -0 86 86 86 255
-0.005 0.07899999 0.125 -1 -0 -0 86 86 86 255
-0.005 -0.088999994 0.11899999 -1 -0 -0 86 86 86 255
-0.005 -0.088999994 0.125 -1 -0 -0 86 86 86 255
-0.005 0.07899999 0.11899999 -1 -0 -0 86 86 86 255
-0.005 0.07899999 0.125 0 -1 -0 86 86 86 255
-0.037 0.07899999 0.11899999 0 -1 -0 86 86 86 255
-0.005 0.07899999 0.11899999 0 -1 -0 86 86 86 255
-0.037 0.07899999 0.125 0 -1 -0 86 86 86 255
-0.037 0.07899999 0.11899999 1 -0 -0 86 86 86 255
-0.037 -0.088999994 0.125 1 -0 -0 86 86 86 255
-0.037 -0.088999994 0.11899999 1 -0 -0 86 86 86 255
-0.037 0.07899999 0.125 1 -0 -0 86 86 86 255
-0.037 -0.088999994 0.125 0 -1 -0 86 86 86 255
-0.088999994 -0.088999994 0.11899999 0 -1 -0 86 86 86 255
-0.037 -0.088999994 0.11899999 0 -1 -0 86 86 86 255
-0.088999994 -0.088999994 0.125 0 -1 -0 86 86 86 255
-0.088999994 0.06299999 0.125 -1 -0 -0 86 86 86 255
-0.088999994 -0.088999994 0.11899999 -1 -0 -0 86 86 86 255
-0.088999994 -0.088999994 0.125 -1 -0 -0 86 86 86 255
-0.088999994 0.06299999 0.11899999 -1 -0 -0 86 86 86 255
-0.088999994 0.06299999 0.125 0 -1 -0 86 86 86 255
-0.097 0.06299999 0.11899999 0 -1 -0 86 86 86 255
-0.088999994 0.06299999 0.11899999 0 -1 -0 86 86 86 255
-0.097 0.06299999 0.125 0 -1 -0 86 86 86 255
-0.097 0.088999994 0.125 -1 -0 -0 86 86 86 255
-0.097 0.06299999 0.11899999 -1 -0 -0 86 86 86 255
-0.097 0.06299999 0.125 -1 -0 -0 86 86 86 255
-0.097 0.088999994 0.11899999 -1 -0 -0 86 86 86 255
-0.097 0.088999994 0.125 0 1 -0 86 86 86 255
-0.071 0.088999994 0.11899999 0 1 -0 86 86 86 255
-0.097 0.088999994 0.11899999 0 1 -0 86 86 86 255
-0.071 0.088999994 0.125 0 1 -0 86 86 86 255
-0.071 0.088999994 0.11899999 1 -0 -0 86 86 86 255
-0.071 0.06299999 0.125 1 -0 -0 86 86 86 255
-0.071 0.06299999 0.11899999 1 -0 -0 86 86 86 255
-0.071 0.088999994 0.125 1 -0 -0 86 86 86 255
-0.071 0.06299999 0.125 0 -1 -0 86 86 86 255
-0.07899999 0.06299999 0.11899999 0 -1 -0 86 86 86 255
-0.071 0.06299999 0.11899999 0 -1 -0 86 86 86 255
-0.07899999 0.06299999 0.125 0 -1 -0 86 86 86 255
-0.07899999 0.06299999 0.11899999 1 -0 -0 86 86 86 255
-0.07899999 -0.07899999 0.125 1 -0 -0 86 86 86 255
-0.07899999 -0.07899999 0.11899999 1 -0 -0 86 86 86 255
-0.07899999 0.06299999 0.125 1 -0 -0 86 86 86 255
-0.07899999 -0.07899999 0.125 0 1 -0 86 86 86 255
-0.047000006 -0.07899999 0.11899999 0 1 -0 86 86 86 255
-0.07899999 -0.07899999 0.11899999 0 1 -0 86 86 86 255
-0.047000006 -0.07899999 0.125 0 1 -0 86 86 86 255
-0.047000006 0.088999994 0.125 -1 -0 -0 86 86 86 255
-0.047000006 -0.07899999 0.11899999 -1 -0 -0 86 86 86 255
-0.047000006 -0.07899999 0.125 -1 -0 -0 86 86 86 255
-0.047000006 0.088999994 0.11899999 -1 -0 -0 86 86 86 255
-0.047000006 0.088999994 0.125 0 1 -0 86 86 86 255
0.005 0.088999994 0.11899999 0 1 -0 86 86 86 255
-0.047000006 0.088999994 0.11899999 0 1 -0 86 86 86 255
0.005 0.088999994 0.125 0 1 -0 86 86 86 255
0.005 0.088999994 0.11899999 1 -0 -0 86 86 86 255
0.005 -0.07899999 0.125 1 -0 -0 86 86 86 255
0.005 -0.07899999 0.11899999 1 -0 -0 86 86 86 255
0.005 0.088999994 0.125 1 -0 -0 86 86 86 255
0.005 -0.07899999 0.125 0 1 -0 86 86 86 255
0.037 -0.07899999 0.11899999 0 1 -0 86 86 86 255
0.005 -0.07899999 0.11899999 0 1 -0 86 86 86 255
0.037 -0.07899999 0.125 0 1 -0 86 86 86 255
0.037 0.088999994 0.125 -1 -0 -0 86 86 86 255
0.037 -0.07899999 0.11899999 -1 -0 -0 86 86 86 255
0.037 -0.07899999 0.125 -1 -0 -0 86 86 86 255
0.037 0.088999994 0.11899999 -1 -0 -0 86 86 86 255
0.037 0.088999994 0.125 0 1 -0 86 86 86 255
0.088999994 0.088999994 0.11899999 0 1 -0 86 86 86 255
0.037 0.088999994 0.11899999 0 1 -0 86 86 86 255
0.088999994 0.088999994 0.125 0 1 -0 86 86 86 255
0.088999994 0.088999994 0.11899999 1 -0 -0 86 86 86 255
0.088999994 -0.06299999 0.125 1 -0 -0 86 86 86 255
0.088999994 -0.06299999 0.11899999 1 -0 -0 86 86 86 255
0.088999994 0.088999994 0.125 1 -0 -0 86 86 86 255
0.088999994 -0.06299999 0.125 0 1 -0 86 86 86 255
0.097 -0.06299999 0.11899999 0 1 -0 86 86 86 255
0.088999994 -0.06299999 0.11899999 0 1 -0 86 86 86 255
0.097 -0.06299999 0.125 0 1 -0 86 86 86 255
0.005 -0.07899999 0.125 0 -0 -1 255 125 0 255
0.037 0.088999994 0.125 0 -0 -1 255 125 0 255
0.037 -0.07899999 0.125 0 -0 -1 255 125 0 255
-0.07899999 -0.07899999 0.125 0 -0 -1 255 125 0 255
-0.047000006 0.088999994 0.125 0 -0 -1 255 125 0 255
-0.047000006 -0.07899999 0.125 0 -0 -1 255 125 0 255
-0.071 0.06299999 0.125 0 -0 -1 255 125 0 255
-0.07899999 0.06299999 0.125 0 -0 -1 255 125 0 255
0.125 -0.125 0.125 0 -0 -1 255 125 0 255
0.097 -0.088999994 0.125 0 -0 -1 255 125 0 255
0.125 0.125 0.125 0 -0 -1 255 125 0 255
-0.125 -0.125 0.125 0 -0 -1 255 125 0 255
0.097 -0.06299999 0.125 0 -0 -1 255 125 0 255
0.071 -0.088999994 0.125 0 -0 -1 255 125 0 255
0.047000006 -0.088999994 0.125 0 -0 -1 255 125 0 255
0.071 -0.06299999 0.125 0 -0 -1 255 125 0 255
-0.005 -0.088999994 0.125 0 -0 -1 255 125 0 255
-0.037 -0.088999994 0.125 0 -0 -1 255 125 0 255
-0.005 0.07899999 0.125 0 -0 -1 255 125 0 255
-0.088999994 -0.088999994 0.125 0 -0 -1 255 125 0 255
-0.088999994 0.06299999 0.125 0 -0 -1 255 125 0 255
-0.097 0.06299999 0.125 0 -0 -1 255 125 0 255
-0.097 0.088999994 0.125 0 -0 -1 255 125 0 255
0.088999994 0.088999994 0.125 0 -0 -1 255 125 0 255
-0.125 0.125 0.125 0 -0 -1 255 125 0 255
0.088999994 -0.06299999 0.125 0 -0 -1 255 125 0 255
0.005 0.088999994 0.125 0 -0 -1 255 125 0 255
-0.071 0.088999994 0.125 0 -0 -1 255 125 0 255
-0.037 0.07899999 0.125 0 -0 -1 255 125 0 255
0.07899999 0.07899999 0.125 0 -0 -1 255 125 0 255
0.07899999 -0.06299999 0.125 0 -0 -1 255 125 0 255
0.047000006 0.07899999 0.125 0 -0 -1 255 125 0 255
3 0 1 2
3 1 0 3
3 1 3 4
3 1 4 5
3 4 3 6
3 7 8 9
3 8 7 10
3 8 10 11
3 11 10 12
3 12 13 14
3 13 12 15
3 15 12 16
3 16 12 10
3 15 16 17
3 18 19 20
3 19 18 21
3 19 21 22
3 22 21 23
3 23 21 24
3 23 24 25
3 25 24 9
3 25 9 8
3 5 26 27
3 26 5 4
3 27 26 20
3 27 20 19
3 28 29 30
3 29 28 31
3 32 33 34
3 33 32 35
3 36 37 38
3 37 36 39
3 40 41 42
3 41 40 43
3 44 45 46
3 45 44 47
3 48 49 50
3 49 48 51
3 52 53 54
3 53 52 55
3 56 57 58
3 57 56 59
3 60 61 62
3 61 60 63
3 64 65 66
3 65 64 67
3 68 69 70
3 69 68 71
3 72 73 74
3 73 72 75
3 76 77 78
3 77 76 79
3 80 81 82
3 81 80 83
3 84 85 86
3 85 84 87
3 88 89 90
3 89 88 91
3 92 93 94
3 93 92 95
3 96 97 98
3 97 96 99
3 100 101 102
3 101 100 103
3 104 105 106
3 105 104 107
3 108 109 110
3 109 108 111
3 112 113 114
3 113 112 115
3 116 117 118
3 117 116 119
3 120 121 122
3 121 120 123
3 124 125 126
3 125 124 127
3 128 129 130
3 129 128 131
3 132 133 134
3 133 132 135
3 136 137 138
3 137 136 139
3 140 141 142
3 143 144 145
3 144 143 146
3 146 143 147
3 148 149 150
3 149 148 151
3 150 149 152
3 149 151 153
3 153 151 154
3 153 154 155
3 154 151 156
3 156 151 157
3 156 157 158
3 157 151 159
3 159 151 160
3 160 151 161
3 161 151 162
3 150 163 164
3 163 150 152
3 163 152 165
3 164 163 141
3 164 141 166
3 166 141 140
3 164 166 144
3 164 144 167
3 167 144 146
3 164 167 162
3 164 162 151
3 168 158 157
3 155 169 170
3 169 155 171
3 171 155 154

