ply
format ascii 1.0
commentY29udmVydGVyIGJ5IENvZGVMZW9wYXJk
comment Original mesh name: 'C:\Program Files (x86)\Steam\steamapps\common\Stormworks\rom\meshes\component_torque_meter.mesh'
comment SubMesh index: 0
comment SubMesh name: 'ID31'
comment Shader: Opaque (0)
element vertex 336
property float x
property float y
property float z
property float nx
property float ny
property float nz
property uchar red
property uchar green
property uchar blue
property uchar alpha
element face 200
property list uchar ushort vertex_index
end_header
-0.032360435 -0.07812499 -0.0725 0.2284192 0.2284192 -0.9463875 255 125 0 255
-0.019531243 -0.008090102 -0.05249999 0.2284192 0.2284192 -0.9463875 255 125 0 255
-0.0080900965 -0.019531248 -0.05249999 0.2284192 0.2284192 -0.9463875 255 125 0 255
-0.07812501 -0.032360435 -0.0725 0.2284192 0.2284192 -0.9463875 255 125 0 255
-0.032360435 -0.07812499 -0.0725 0 0.32303357 -0.9463874 255 125 0 255
0.008090102 -0.019531248 -0.05249999 0 0.32303357 -0.9463874 255 125 0 255
0.032360435 -0.07812499 -0.0725 0 0.32303357 -0.9463874 255 125 0 255
-0.0080900965 -0.019531248 -0.05249999 0 0.32303357 -0.9463874 255 125 0 255
-0.07812501 -0.032360435 -0.0725 0.70710677 0.70710677 -3.9135357E-15 255 125 0 255
-0.032360435 -0.07812499 -0.105 0.70710677 0.70710677 -3.9135357E-15 255 125 0 255
-0.07812501 -0.032360435 -0.105 0.70710677 0.70710677 -3.9135357E-15 255 125 0 255
-0.032360435 -0.07812499 -0.0725 0.70710677 0.70710677 -3.9135357E-15 255 125 0 255
-0.07812501 -0.032360435 -0.0725 0.32303357 1.6571346E-17 -0.9463874 255 125 0 255
-0.019531243 0.0080900965 -0.05249999 0.32303357 1.6571346E-17 -0.9463874 255 125 0 255
-0.019531243 -0.008090102 -0.05249999 0.32303357 1.6571346E-17 -0.9463874 255 125 0 255
-0.07812501 0.032360435 -0.0725 0.32303357 1.6571346E-17 -0.9463874 255 125 0 255
0.032360435 -0.07812499 -0.0725 -0.2284192 0.2284192 -0.9463875 255 125 0 255
0.019531248 -0.008090102 -0.05249999 -0.2284192 0.2284192 -0.9463875 255 125 0 255
0.07812499 -0.032360435 -0.0725 -0.2284192 0.2284192 -0.9463875 255 125 0 255
0.008090102 -0.019531248 -0.05249999 -0.2284192 0.2284192 -0.9463875 255 125 0 255
-0.032360435 -0.07812499 -0.0725 0 1 -0 255 125 0 255
0.032360435 -0.07812499 -0.105 0 1 -0 255 125 0 255
-0.032360435 -0.07812499 -0.105 0 1 -0 255 125 0 255
0.032360435 -0.07812499 -0.0725 0 1 -0 255 125 0 255
-0.07812501 0.032360435 -0.105 1 -0 -2.775558E-17 255 125 0 255
-0.07812501 -0.032360435 -0.0725 1 -0 -2.775558E-17 255 125 0 255
-0.07812501 -0.032360435 -0.105 1 -0 -2.775558E-17 255 125 0 255
-0.07812501 0.032360435 -0.0725 1 -0 -2.775558E-17 255 125 0 255
0.032360435 -0.07812499 -0.0725 -2.775558E-17 -0 -1 255 125 0 255
0.07812499 0.032360435 -0.0725 -2.775558E-17 -0 -1 255 125 0 255
0.07812499 -0.032360435 -0.0725 -2.775558E-17 -0 -1 255 125 0 255
0.032360435 0.07812501 -0.0725 -2.775558E-17 -0 -1 255 125 0 255
-0.032360435 -0.07812499 -0.0725 -2.775558E-17 -0 -1 255 125 0 255
-0.032360435 0.07812501 -0.0725 -2.775558E-17 -0 -1 255 125 0 255
-0.07812501 -0.032360435 -0.0725 -2.775558E-17 -0 -1 255 125 0 255
-0.07812501 0.032360435 -0.0725 -2.775558E-17 -0 -1 255 125 0 255
-0.019531243 0.0080900965 -0.05249999 0.2284192 -0.2284192 -0.9463875 255 125 0 255
-0.032360435 0.07812501 -0.0725 0.2284192 -0.2284192 -0.9463875 255 125 0 255
-0.0080900965 0.019531243 -0.05249999 0.2284192 -0.2284192 -0.9463875 255 125 0 255
-0.07812501 0.032360435 -0.0725 0.2284192 -0.2284192 -0.9463875 255 125 0 255
0.019531248 -0.008090102 -0.05249999 -0.32303357 3.7366763E-17 -0.9463874 255 125 0 255
0.07812499 0.032360435 -0.0725 -0.32303357 3.7366763E-17 -0.9463874 255 125 0 255
0.07812499 -0.032360435 -0.0725 -0.32303357 3.7366763E-17 -0.9463874 255 125 0 255
0.019531248 0.0080900965 -0.05249999 -0.32303357 3.7366763E-17 -0.9463874 255 125 0 255
0.032360435 -0.07812499 -0.105 -0.70710677 0.70710677 -1.1102229E-16 255 125 0 255
0.07812499 -0.032360435 -0.0725 -0.70710677 0.70710677 -1.1102229E-16 255 125 0 255
0.07812499 -0.032360435 -0.105 -0.70710677 0.70710677 -1.1102229E-16 255 125 0 255
0.032360435 -0.07812499 -0.0725 -0.70710677 0.70710677 -1.1102229E-16 255 125 0 255
-0.032360435 0.07812501 -0.105 0.70710677 -0.70710677 -4.1355808E-15 255 125 0 255
-0.07812501 0.032360435 -0.0725 0.70710677 -0.70710677 -4.1355808E-15 255 125 0 255
-0.07812501 0.032360435 -0.105 0.70710677 -0.70710677 -4.1355808E-15 255 125 0 255
-0.032360435 0.07812501 -0.0725 0.70710677 -0.70710677 -4.1355808E-15 255 125 0 255
0.032360435 0.07812501 -0.0725 0 -1 -0 255 125 0 255
-0.032360435 0.07812501 -0.105 0 -1 -0 255 125 0 255
0.032360435 0.07812501 -0.105 0 -1 -0 255 125 0 255
-0.032360435 0.07812501 -0.0725 0 -1 -0 255 125 0 255
0.032360435 0.07812501 -0.0725 -0.70710677 -0.70710677 1.9428898E-16 255 125 0 255
0.07812499 0.032360435 -0.105 -0.70710677 -0.70710677 1.9428898E-16 255 125 0 255
0.07812499 0.032360435 -0.0725 -0.70710677 -0.70710677 1.9428898E-16 255 125 0 255
0.032360435 0.07812501 -0.105 -0.70710677 -0.70710677 1.9428898E-16 255 125 0 255
0.07812499 0.032360435 -0.0725 -1 -0 2.775558E-17 255 125 0 255
0.07812499 -0.032360435 -0.105 -1 -0 2.775558E-17 255 125 0 255
0.07812499 -0.032360435 -0.0725 -1 -0 2.775558E-17 255 125 0 255
0.07812499 0.032360435 -0.105 -1 -0 2.775558E-17 255 125 0 255
0.008090102 0.019531243 -0.05249999 0 -0.32303357 -0.9463874 255 125 0 255
-0.032360435 0.07812501 -0.0725 0 -0.32303357 -0.9463874 255 125 0 255
0.032360435 0.07812501 -0.0725 0 -0.32303357 -0.9463874 255 125 0 255
-0.0080900965 0.019531243 -0.05249999 0 -0.32303357 -0.9463874 255 125 0 255
0.019531248 0.0080900965 -0.05249999 -0.2284192 -0.2284192 -0.9463875 255 125 0 255
0.032360435 0.07812501 -0.0725 -0.2284192 -0.2284192 -0.9463875 255 125 0 255
0.07812499 0.032360435 -0.0725 -0.2284192 -0.2284192 -0.9463875 255 125 0 255
0.008090102 0.019531243 -0.05249999 -0.2284192 -0.2284192 -0.9463875 255 125 0 255
-0.10548435 -0.04369305 0.0975 0.5364907 0.5364907 0.6514257 199 199 199 255
-0.05080588 -0.12265623 0.117499985 0.5364907 0.5364907 0.6514257 199 199 199 255
-0.043693043 -0.10548437 0.0975 0.5364907 0.5364907 0.6514257 199 199 199 255
-0.12265624 -0.05080587 0.117499985 0.5364907 0.5364907 0.6514257 199 199 199 255
0.10548437 0.043693043 0.0975 1.055165E-15 3.5764042E-16 1 199 199 199 255
0.097656235 0.04045054 0.0975 1.055165E-15 3.5764042E-16 1 199 199 199 255
0.10548437 -0.04369305 0.0975 1.055165E-15 3.5764042E-16 1 199 199 199 255
0.04369305 0.10548435 0.0975 1.055165E-15 3.5764042E-16 1 199 199 199 255
0.04045054 0.097656265 0.0975 1.055165E-15 3.5764042E-16 1 199 199 199 255
-0.043693043 0.10548435 0.0975 1.055165E-15 3.5764042E-16 1 199 199 199 255
-0.04045054 0.097656265 0.0975 1.055165E-15 3.5764042E-16 1 199 199 199 255
-0.097656265 0.04045054 0.0975 1.055165E-15 3.5764042E-16 1 199 199 199 255
-0.10548435 0.043693043 0.0975 1.055165E-15 3.5764042E-16 1 199 199 199 255
-0.097656265 -0.04045054 0.0975 1.055165E-15 3.5764042E-16 1 199 199 199 255
0.097656235 -0.04045054 0.0975 1.055165E-15 3.5764042E-16 1 199 199 199 255
0.04369305 -0.10548437 0.0975 1.055165E-15 3.5764042E-16 1 199 199 199 255
0.04045054 -0.097656235 0.0975 1.055165E-15 3.5764042E-16 1 199 199 199 255
-0.043693043 -0.10548437 0.0975 1.055165E-15 3.5764042E-16 1 199 199 199 255
-0.04045054 -0.097656235 0.0975 1.055165E-15 3.5764042E-16 1 199 199 199 255
-0.10548435 -0.04369305 0.0975 1.055165E-15 3.5764042E-16 1 199 199 199 255
-0.10548435 -0.04369305 0.0975 0.7587124 -9.563911E-16 0.6514257 199 199 199 255
-0.12265624 0.05080588 0.117499985 0.7587124 -9.563911E-16 0.6514257 199 199 199 255
-0.12265624 -0.05080587 0.117499985 0.7587124 -9.563911E-16 0.6514257 199 199 199 255
-0.10548435 0.043693043 0.0975 0.7587124 -9.563911E-16 0.6514257 199 199 199 255
-0.12265624 -0.05080587 0.117499985 0.70710677 0.70710677 -1.2447718E-15 199 199 199 255
-0.05080588 -0.12265623 0.3175 0.70710677 0.70710677 -1.2447718E-15 199 199 199 255
-0.05080588 -0.12265623 0.117499985 0.70710677 0.70710677 -1.2447718E-15 199 199 199 255
-0.12265624 -0.05080587 0.3175 0.70710677 0.70710677 -1.2447718E-15 199 199 199 255
-0.043693043 -0.10548437 0.0975 4.179654E-15 0.7587124 0.6514257 199 199 199 255
0.05080587 -0.12265623 0.117499985 4.179654E-15 0.7587124 0.6514257 199 199 199 255
0.04369305 -0.10548437 0.0975 4.179654E-15 0.7587124 0.6514257 199 199 199 255
-0.05080588 -0.12265623 0.117499985 4.179654E-15 0.7587124 0.6514257 199 199 199 255
0.10548437 -0.04369305 0.0975 -0.5364907 0.5364907 0.6514257 199 199 199 255
0.05080587 -0.12265623 0.117499985 -0.5364907 0.5364907 0.6514257 199 199 199 255
0.12265623 -0.05080587 0.117499985 -0.5364907 0.5364907 0.6514257 199 199 199 255
0.04369305 -0.10548437 0.0975 -0.5364907 0.5364907 0.6514257 199 199 199 255
0.12265623 0.05080588 0.117499985 -0.7587124 7.607125E-16 0.6514257 199 199 199 255
0.10548437 -0.04369305 0.0975 -0.7587124 7.607125E-16 0.6514257 199 199 199 255
0.12265623 -0.05080587 0.117499985 -0.7587124 7.607125E-16 0.6514257 199 199 199 255
0.10548437 0.043693043 0.0975 -0.7587124 7.607125E-16 0.6514257 199 199 199 255
0.05080587 0.12265624 0.117499985 -0.5364907 -0.5364907 0.6514257 199 199 199 255
0.10548437 0.043693043 0.0975 -0.5364907 -0.5364907 0.6514257 199 199 199 255
0.12265623 0.05080588 0.117499985 -0.5364907 -0.5364907 0.6514257 199 199 199 255
0.04369305 0.10548435 0.0975 -0.5364907 -0.5364907 0.6514257 199 199 199 255
0.05080587 0.12265624 0.117499985 5.5755673E-15 -0.7587124 0.6514257 199 199 199 255
-0.043693043 0.10548435 0.0975 5.5755673E-15 -0.7587124 0.6514257 199 199 199 255
0.04369305 0.10548435 0.0975 5.5755673E-15 -0.7587124 0.6514257 199 199 199 255
-0.05080588 0.12265624 0.117499985 5.5755673E-15 -0.7587124 0.6514257 199 199 199 255
-0.05080588 0.12265624 0.117499985 0.5364907 -0.5364907 0.6514257 199 199 199 255
-0.10548435 0.043693043 0.0975 0.5364907 -0.5364907 0.6514257 199 199 199 255
-0.043693043 0.10548435 0.0975 0.5364907 -0.5364907 0.6514257 199 199 199 255
-0.12265624 0.05080588 0.117499985 0.5364907 -0.5364907 0.6514257 199 199 199 255
-0.12265624 0.05080588 0.117499985 1 3.2421872E-30 -1.825401E-15 199 199 199 255
-0.12265624 -0.05080587 0.3175 1 3.2421872E-30 -1.825401E-15 199 199 199 255
-0.12265624 -0.05080587 0.117499985 1 3.2421872E-30 -1.825401E-15 199 199 199 255
-0.12265624 0.05080588 0.3175 1 3.2421872E-30 -1.825401E-15 199 199 199 255
0.05080587 -0.12265623 0.3175 -1.825401E-15 6.5027824E-17 -1 199 199 199 255
0.12265623 0.05080588 0.3175 -1.825401E-15 6.5027824E-17 -1 199 199 199 255
0.12265623 -0.05080587 0.3175 -1.825401E-15 6.5027824E-17 -1 199 199 199 255
0.05080587 0.12265624 0.3175 -1.825401E-15 6.5027824E-17 -1 199 199 199 255
-0.05080588 -0.12265623 0.3175 -1.825401E-15 6.5027824E-17 -1 199 199 199 255
-0.05080588 0.12265624 0.3175 -1.825401E-15 6.5027824E-17 -1 199 199 199 255
-0.12265624 -0.05080587 0.3175 -1.825401E-15 6.5027824E-17 -1 199 199 199 255
-0.12265624 0.05080588 0.3175 -1.825401E-15 6.5027824E-17 -1 199 199 199 255
-0.05080588 -0.12265623 0.3175 0.5364907 0.5364907 -0.6514257 199 199 199 255
-0.10548435 -0.04369305 0.33749998 0.5364907 0.5364907 -0.6514257 199 199 199 255
-0.043693043 -0.10548437 0.33749998 0.5364907 0.5364907 -0.6514257 199 199 199 255
-0.12265624 -0.05080587 0.3175 0.5364907 0.5364907 -0.6514257 199 199 199 255
-0.05080588 -0.12265623 0.117499985 4.042474E-31 1 6.5027824E-17 199 199 199 255
0.05080587 -0.12265623 0.3175 4.042474E-31 1 6.5027824E-17 199 199 199 255
0.05080587 -0.12265623 0.117499985 4.042474E-31 1 6.5027824E-17 199 199 199 255
-0.05080588 -0.12265623 0.3175 4.042474E-31 1 6.5027824E-17 199 199 199 255
0.05080587 -0.12265623 0.3175 -0.70710677 0.70710677 1.3367348E-15 199 199 199 255
0.12265623 -0.05080587 0.117499985 -0.70710677 0.70710677 1.3367348E-15 199 199 199 255
0.05080587 -0.12265623 0.117499985 -0.70710677 0.70710677 1.3367348E-15 199 199 199 255
0.12265623 -0.05080587 0.3175 -0.70710677 0.70710677 1.3367348E-15 199 199 199 255
0.12265623 0.05080588 0.3175 -1 1.621094E-30 1.825401E-15 199 199 199 255
0.12265623 -0.05080587 0.117499985 -1 1.621094E-30 1.825401E-15 199 199 199 255
0.12265623 -0.05080587 0.3175 -1 1.621094E-30 1.825401E-15 199 199 199 255
0.12265623 0.05080588 0.117499985 -1 1.621094E-30 1.825401E-15 199 199 199 255
0.12265623 0.05080588 0.117499985 -0.70710677 -0.70710677 1.2447718E-15 199 199 199 255
0.05080587 0.12265624 0.3175 -0.70710677 -0.70710677 1.2447718E-15 199 199 199 255
0.05080587 0.12265624 0.117499985 -0.70710677 -0.70710677 1.2447718E-15 199 199 199 255
0.12265623 0.05080588 0.3175 -0.70710677 -0.70710677 1.2447718E-15 199 199 199 255
0.05080587 0.12265624 0.3175 -5.1974657E-31 -1 -6.5027824E-17 199 199 199 255
-0.05080588 0.12265624 0.117499985 -5.1974657E-31 -1 -6.5027824E-17 199 199 199 255
0.05080587 0.12265624 0.117499985 -5.1974657E-31 -1 -6.5027824E-17 199 199 199 255
-0.05080588 0.12265624 0.3175 -5.1974657E-31 -1 -6.5027824E-17 199 199 199 255
-0.05080588 0.12265624 0.3175 0.70710677 -0.70710677 -1.3367348E-15 199 199 199 255
-0.12265624 0.05080588 0.117499985 0.70710677 -0.70710677 -1.3367348E-15 199 199 199 255
-0.05080588 0.12265624 0.117499985 0.70710677 -0.70710677 -1.3367348E-15 199 199 199 255
-0.12265624 0.05080588 0.3175 0.70710677 -0.70710677 -1.3367348E-15 199 199 199 255
-0.12265624 0.05080588 0.3175 0.7587124 1.233138E-15 -0.6514257 199 199 199 255
-0.10548435 -0.04369305 0.33749998 0.7587124 1.233138E-15 -0.6514257 199 199 199 255
-0.12265624 -0.05080587 0.3175 0.7587124 1.233138E-15 -0.6514257 199 199 199 255
-0.10548435 0.043693043 0.33749998 0.7587124 1.233138E-15 -0.6514257 199 199 199 255
0.04369305 -0.10548437 0.33749998 -2.1225591E-15 7.561376E-17 -1 199 199 199 255
0.10548437 0.043693043 0.33749998 -2.1225591E-15 7.561376E-17 -1 199 199 199 255
0.10548437 -0.04369305 0.33749998 -2.1225591E-15 7.561376E-17 -1 199 199 199 255
0.04369305 0.10548435 0.33749998 -2.1225591E-15 7.561376E-17 -1 199 199 199 255
-0.043693043 -0.10548437 0.33749998 -2.1225591E-15 7.561376E-17 -1 199 199 199 255
-0.043693043 0.10548435 0.33749998 -2.1225591E-15 7.561376E-17 -1 199 199 199 255
-0.10548435 -0.04369305 0.33749998 -2.1225591E-15 7.561376E-17 -1 199 199 199 255
-0.10548435 0.043693043 0.33749998 -2.1225591E-15 7.561376E-17 -1 199 199 199 255
-0.05080588 -0.12265623 0.3175 -4.331419E-15 0.7587124 -0.6514257 199 199 199 255
0.04369305 -0.10548437 0.33749998 -4.331419E-15 0.7587124 -0.6514257 199 199 199 255
0.05080587 -0.12265623 0.3175 -4.331419E-15 0.7587124 -0.6514257 199 199 199 255
-0.043693043 -0.10548437 0.33749998 -4.331419E-15 0.7587124 -0.6514257 199 199 199 255
0.05080587 -0.12265623 0.3175 -0.5364907 0.5364907 -0.6514257 199 199 199 255
0.10548437 -0.04369305 0.33749998 -0.5364907 0.5364907 -0.6514257 199 199 199 255
0.12265623 -0.05080587 0.3175 -0.5364907 0.5364907 -0.6514257 199 199 199 255
0.04369305 -0.10548437 0.33749998 -0.5364907 0.5364907 -0.6514257 199 199 199 255
0.10548437 -0.04369305 0.33749998 -0.7587124 -6.182757E-16 -0.6514257 199 199 199 255
0.12265623 0.05080588 0.3175 -0.7587124 -6.182757E-16 -0.6514257 199 199 199 255
0.12265623 -0.05080587 0.3175 -0.7587124 -6.182757E-16 -0.6514257 199 199 199 255
0.10548437 0.043693043 0.33749998 -0.7587124 -6.182757E-16 -0.6514257 199 199 199 255
0.10548437 0.043693043 0.33749998 -0.5364907 -0.5364907 -0.6514257 199 199 199 255
0.05080587 0.12265624 0.3175 -0.5364907 -0.5364907 -0.6514257 199 199 199 255
0.12265623 0.05080588 0.3175 -0.5364907 -0.5364907 -0.6514257 199 199 199 255
0.04369305 0.10548435 0.33749998 -0.5364907 -0.5364907 -0.6514257 199 199 199 255
0.04369305 0.10548435 0.33749998 -5.569251E-15 -0.7587124 -0.6514257 199 199 199 255
-0.05080588 0.12265624 0.3175 -5.569251E-15 -0.7587124 -0.6514257 199 199 199 255
0.05080587 0.12265624 0.3175 -5.569251E-15 -0.7587124 -0.6514257 199 199 199 255
-0.043693043 0.10548435 0.33749998 -5.569251E-15 -0.7587124 -0.6514257 199 199 199 255
-0.10548435 0.043693043 0.33749998 0.5364907 -0.5364907 -0.6514257 199 199 199 255
-0.05080588 0.12265624 0.3175 0.5364907 -0.5364907 -0.6514257 199 199 199 255
-0.043693043 0.10548435 0.33749998 0.5364907 -0.5364907 -0.6514257 199 199 199 255
-0.12265624 0.05080588 0.3175 0.5364907 -0.5364907 -0.6514257 199 199 199 255
-0.0625 -0.025888335 -0.105 -1.013079E-14 -6.24378E-15 1 86 86 86 255
-0.032360435 -0.07812499 -0.105 -1.013079E-14 -6.24378E-15 1 86 86 86 255
-0.025888368 -0.0625 -0.105 -1.013079E-14 -6.24378E-15 1 86 86 86 255
-0.07812501 -0.032360435 -0.105 -1.013079E-14 -6.24378E-15 1 86 86 86 255
0.025888335 -0.0625 -0.105 2.747802E-15 -1.155058E-14 1 86 86 86 255
0.032360435 -0.07812499 -0.105 2.747802E-15 -1.155058E-14 1 86 86 86 255
-0.0625 -0.025888335 -0.125 0.70710677 0.70710677 -1.3877788E-16 86 86 86 255
-0.025888368 -0.0625 -0.105 0.70710677 0.70710677 -1.3877788E-16 86 86 86 255
-0.025888368 -0.0625 -0.125 0.70710677 0.70710677 -1.3877788E-16 86 86 86 255
-0.0625 -0.025888335 -0.105 0.70710677 0.70710677 -1.3877788E-16 86 86 86 255
-0.07812501 0.032360435 -0.105 2.775558E-17 -0 1 86 86 86 255
-0.0625 0.025888368 -0.105 2.775558E-17 -0 1 86 86 86 255
0.0625 -0.025888335 -0.105 2.775558E-17 -0 1 86 86 86 255
0.07812499 -0.032360435 -0.105 2.775558E-17 -0 1 86 86 86 255
-0.025888368 -0.0625 -0.125 0 1 -0 86 86 86 255
0.025888335 -0.0625 -0.105 0 1 -0 86 86 86 255
0.025888335 -0.0625 -0.125 0 1 -0 86 86 86 255
-0.025888368 -0.0625 -0.105 0 1 -0 86 86 86 255
-0.0625 0.025888368 -0.125 1 -0 -2.775558E-17 86 86 86 255
-0.0625 -0.025888335 -0.105 1 -0 -2.775558E-17 86 86 86 255
-0.0625 -0.025888335 -0.125 1 -0 -2.775558E-17 86 86 86 255
-0.0625 0.025888368 -0.105 1 -0 -2.775558E-17 86 86 86 255
-0.032360435 0.07812501 -0.105 -1.013079E-14 6.24378E-15 1 86 86 86 255
-0.025888368 0.0625 -0.105 -1.013079E-14 6.24378E-15 1 86 86 86 255
0.0625 0.025888368 -0.105 2.775558E-17 -0 1 86 86 86 255
0.07812499 0.032360435 -0.105 2.775558E-17 -0 1 86 86 86 255
0.0625 -0.025888335 -0.105 -0.70710677 0.70710677 2.2204458E-16 86 86 86 255
0.025888335 -0.0625 -0.125 -0.70710677 0.70710677 2.2204458E-16 86 86 86 255
0.025888335 -0.0625 -0.105 -0.70710677 0.70710677 2.2204458E-16 86 86 86 255
0.0625 -0.025888335 -0.125 -0.70710677 0.70710677 2.2204458E-16 86 86 86 255
-0.025888368 0.0625 -0.125 0.70710677 -0.70710677 -8.326672E-17 86 86 86 255
-0.0625 0.025888368 -0.105 0.70710677 -0.70710677 -8.326672E-17 86 86 86 255
-0.0625 0.025888368 -0.125 0.70710677 -0.70710677 -8.326672E-17 86 86 86 255
-0.025888368 0.0625 -0.105 0.70710677 -0.70710677 -8.326672E-17 86 86 86 255
0.025888335 0.0625 -0.105 2.747802E-15 1.155058E-14 1 86 86 86 255
0.032360435 0.07812501 -0.105 2.747802E-15 1.155058E-14 1 86 86 86 255
0.0625 0.025888368 -0.105 -1 -0 2.775558E-17 86 86 86 255
0.0625 -0.025888335 -0.125 -1 -0 2.775558E-17 86 86 86 255
0.0625 -0.025888335 -0.105 -1 -0 2.775558E-17 86 86 86 255
0.0625 0.025888368 -0.125 -1 -0 2.775558E-17 86 86 86 255
0.025888335 0.0625 -0.105 0 -1 -0 86 86 86 255
-0.025888368 0.0625 -0.125 0 -1 -0 86 86 86 255
0.025888335 0.0625 -0.125 0 -1 -0 86 86 86 255
-0.025888368 0.0625 -0.105 0 -1 -0 86 86 86 255
0.025888335 0.0625 -0.105 -0.70710677 -0.70710677 2.2204458E-16 86 86 86 255
0.0625 0.025888368 -0.125 -0.70710677 -0.70710677 2.2204458E-16 86 86 86 255
0.0625 0.025888368 -0.105 -0.70710677 -0.70710677 2.2204458E-16 86 86 86 255
0.025888335 0.0625 -0.125 -0.70710677 -0.70710677 2.2204458E-16 86 86 86 255
0.008090102 -0.019531248 -0.0024999958 -2.775558E-17 -0 -1 199 199 199 255
0.019531248 0.0080900965 -0.0024999958 -2.775558E-17 -0 -1 199 199 199 255
0.019531248 -0.008090102 -0.0024999958 -2.775558E-17 -0 -1 199 199 199 255
0.008090102 0.019531243 -0.0024999958 -2.775558E-17 -0 -1 199 199 199 255
-0.0080900965 -0.019531248 -0.0024999958 -2.775558E-17 -0 -1 199 199 199 255
-0.0080900965 0.019531243 -0.0024999958 -2.775558E-17 -0 -1 199 199 199 255
-0.019531243 -0.008090102 -0.0024999958 -2.775558E-17 -0 -1 199 199 199 255
-0.019531243 0.0080900965 -0.0024999958 -2.775558E-17 -0 -1 199 199 199 255
-0.0080900965 -0.019531248 -0.0024999958 0 1 -0 86 86 86 255
0.008090102 -0.019531248 -0.05249999 0 1 -0 86 86 86 255
-0.0080900965 -0.019531248 -0.05249999 0 1 -0 86 86 86 255
0.008090102 -0.019531248 -0.0024999958 0 1 -0 86 86 86 255
-0.019531243 -0.008090102 -0.0024999958 0.70710677 0.70710677 -1.19349E-15 86 86 86 255
-0.0080900965 -0.019531248 -0.05249999 0.70710677 0.70710677 -1.19349E-15 86 86 86 255
-0.019531243 -0.008090102 -0.05249999 0.70710677 0.70710677 -1.19349E-15 86 86 86 255
-0.0080900965 -0.019531248 -0.0024999958 0.70710677 0.70710677 -1.19349E-15 86 86 86 255
0.008090102 -0.019531248 -0.0024999958 -0.70710677 0.70710677 5.5511146E-16 86 86 86 255
0.019531248 -0.008090102 -0.05249999 -0.70710677 0.70710677 5.5511146E-16 86 86 86 255
0.008090102 -0.019531248 -0.05249999 -0.70710677 0.70710677 5.5511146E-16 86 86 86 255
0.019531248 -0.008090102 -0.0024999958 -0.70710677 0.70710677 5.5511146E-16 86 86 86 255
-0.019531243 0.0080900965 -0.05249999 1 -0 -2.775558E-17 86 86 86 255
-0.019531243 -0.008090102 -0.0024999958 1 -0 -2.775558E-17 86 86 86 255
-0.019531243 -0.008090102 -0.05249999 1 -0 -2.775558E-17 86 86 86 255
-0.019531243 0.0080900965 -0.0024999958 1 -0 -2.775558E-17 86 86 86 255
0.019531248 0.0080900965 -0.0024999958 -1 -0 2.775558E-17 86 86 86 255
0.019531248 -0.008090102 -0.05249999 -1 -0 2.775558E-17 86 86 86 255
0.019531248 -0.008090102 -0.0024999958 -1 -0 2.775558E-17 86 86 86 255
0.019531248 0.0080900965 -0.05249999 -1 -0 2.775558E-17 86 86 86 255
-0.0080900965 0.019531243 -0.0024999958 0.70710677 -0.70710677 -1.332268E-15 86 86 86 255
-0.019531243 0.0080900965 -0.05249999 0.70710677 -0.70710677 -1.332268E-15 86 86 86 255
-0.0080900965 0.019531243 -0.05249999 0.70710677 -0.70710677 -1.332268E-15 86 86 86 255
-0.019531243 0.0080900965 -0.0024999958 0.70710677 -0.70710677 -1.332268E-15 86 86 86 255
0.019531248 0.0080900965 -0.0024999958 -0.70710677 -0.70710677 6.938893E-16 86 86 86 255
0.008090102 0.019531243 -0.05249999 -0.70710677 -0.70710677 6.938893E-16 86 86 86 255
0.019531248 0.0080900965 -0.05249999 -0.70710677 -0.70710677 6.938893E-16 86 86 86 255
0.008090102 0.019531243 -0.0024999958 -0.70710677 -0.70710677 6.938893E-16 86 86 86 255
0.008090102 0.019531243 -0.0024999958 0 -1 -0 86 86 86 255
-0.0080900965 0.019531243 -0.05249999 0 -1 -0 86 86 86 255
0.008090102 0.019531243 -0.05249999 0 -1 -0 86 86 86 255
-0.0080900965 0.019531243 -0.0024999958 0 -1 -0 86 86 86 255
-0.04045054 -0.097656235 -0.0024999958 0 1 -0 199 199 199 255
0.04045054 -0.097656235 0.0975 0 1 -0 199 199 199 255
0.04045054 -0.097656235 -0.0024999958 0 1 -0 199 199 199 255
-0.04045054 -0.097656235 0.0975 0 1 -0 199 199 199 255
0.008090102 -0.019531248 -0.0024999958 2.775558E-17 9.240466E-15 1 199 199 199 255
-0.04045054 -0.097656235 -0.0024999958 2.775558E-17 9.240466E-15 1 199 199 199 255
0.04045054 -0.097656235 -0.0024999958 2.775558E-17 9.240466E-15 1 199 199 199 255
-0.0080900965 -0.019531248 -0.0024999958 2.775558E-17 9.240466E-15 1 199 199 199 255
-0.097656265 -0.04045054 -0.0024999958 0.70710677 0.70710677 1.1102229E-16 199 199 199 255
-0.04045054 -0.097656235 0.0975 0.70710677 0.70710677 1.1102229E-16 199 199 199 255
-0.04045054 -0.097656235 -0.0024999958 0.70710677 0.70710677 1.1102229E-16 199 199 199 255
-0.097656265 -0.04045054 0.0975 0.70710677 0.70710677 1.1102229E-16 199 199 199 255
0.04045054 -0.097656235 -0.0024999958 -0.70710677 0.70710677 2.7755576E-17 199 199 199 255
0.097656235 -0.04045054 0.0975 -0.70710677 0.70710677 2.7755576E-17 199 199 199 255
0.097656235 -0.04045054 -0.0024999958 -0.70710677 0.70710677 2.7755576E-17 199 199 199 255
0.04045054 -0.097656235 0.0975 -0.70710677 0.70710677 2.7755576E-17 199 199 199 255
0.019531248 -0.008090102 -0.0024999958 -6.633583E-15 6.533996E-15 1 199 199 199 255
0.097656235 -0.04045054 -0.0024999958 -6.633583E-15 6.533996E-15 1 199 199 199 255
-0.019531243 -0.008090102 -0.0024999958 6.6613377E-15 6.533996E-15 1 199 199 199 255
-0.097656265 -0.04045054 -0.0024999958 6.6613377E-15 6.533996E-15 1 199 199 199 255
-0.097656265 0.04045054 -0.0024999958 1 -0 -2.775558E-17 199 199 199 255
-0.097656265 -0.04045054 0.0975 1 -0 -2.775558E-17 199 199 199 255
-0.097656265 -0.04045054 -0.0024999958 1 -0 -2.775558E-17 199 199 199 255
-0.097656265 0.04045054 0.0975 1 -0 -2.775558E-17 199 199 199 255
0.097656235 0.04045054 0.0975 -1 -0 2.775558E-17 199 199 199 255
0.097656235 -0.04045054 -0.0024999958 -1 -0 2.775558E-17 199 199 199 255
0.097656235 -0.04045054 0.0975 -1 -0 2.775558E-17 199 199 199 255
0.097656235 0.04045054 -0.0024999958 -1 -0 2.775558E-17 199 199 199 255
0.019531248 0.0080900965 -0.0024999958 -9.10383E-15 4.096185E-31 1 199 199 199 255
0.097656235 0.04045054 -0.0024999958 -9.10383E-15 4.096185E-31 1 199 199 199 255
-0.097656265 0.04045054 -0.0024999958 9.298118E-15 -4.655104E-31 1 199 199 199 255
-0.019531243 0.0080900965 -0.0024999958 9.298118E-15 -4.655104E-31 1 199 199 199 255
-0.04045054 0.097656265 0.0975 0.70710677 -0.70710677 -2.7755576E-17 199 199 199 255
-0.097656265 0.04045054 -0.0024999958 0.70710677 -0.70710677 -2.7755576E-17 199 199 199 255
-0.04045054 0.097656265 -0.0024999958 0.70710677 -0.70710677 -2.7755576E-17 199 199 199 255
-0.097656265 0.04045054 0.0975 0.70710677 -0.70710677 -2.7755576E-17 199 199 199 255
0.097656235 0.04045054 0.0975 -0.70710677 -0.70710677 -5.5511138E-17 199 199 199 255
0.04045054 0.097656265 -0.0024999958 -0.70710677 -0.70710677 -5.5511138E-17 199 199 199 255
0.097656235 0.04045054 -0.0024999958 -0.70710677 -0.70710677 -5.5511138E-17 199 199 199 255
0.04045054 0.097656265 0.0975 -0.70710677 -0.70710677 -5.5511138E-17 199 199 199 255
0.04045054 0.097656265 -0.0024999958 -6.633583E-15 -6.533996E-15 1 199 199 199 255
0.008090102 0.019531243 -0.0024999958 -6.633583E-15 -6.533996E-15 1 199 199 199 255
-0.04045054 0.097656265 -0.0024999958 6.6613377E-15 -6.533996E-15 1 199 199 199 255
-0.0080900965 0.019531243 -0.0024999958 6.6613377E-15 -6.533996E-15 1 199 199 199 255
0.04045054 0.097656265 0.0975 0 -1 -0 199 199 199 255
-0.04045054 0.097656265 -0.0024999958 0 -1 -0 199 199 199 255
0.04045054 0.097656265 -0.0024999958 0 -1 -0 199 199 199 255
-0.04045054 0.097656265 0.0975 0 -1 -0 199 199 199 255
3 0 1 2
3 1 0 3
3 4 5 6
3 5 4 7
3 8 9 10
3 9 8 11
3 12 13 14
3 13 12 15
3 16 17 18
3 17 16 19
3 20 21 22
3 21 20 23
3 24 25 26
3 25 24 27
3 28 29 30
3 29 28 31
3 31 28 32
3 31 32 33
3 33 32 34
3 33 34 35
3 36 37 38
3 37 36 39
3 40 41 42
3 41 40 43
3 44 45 46
3 45 44 47
3 48 49 50
3 49 48 51
3 52 53 54
3 53 52 55
3 56 57 58
3 57 56 59
3 60 61 62
3 61 60 63
3 64 65 66
3 65 64 67
3 68 69 70
3 69 68 71
3 72 73 74
3 73 72 75
3 76 77 78
3 77 76 79
3 77 79 80
3 80 79 81
3 80 81 82
3 82 81 83
3 83 81 84
3 83 84 85
3 78 86 87
3 86 78 77
3 87 86 88
3 87 88 89
3 89 88 90
3 89 90 85
3 89 85 91
3 91 85 84
3 92 93 94
3 93 92 95
3 96 97 98
3 97 96 99
3 100 101 102
3 101 100 103
3 104 105 106
3 105 104 107
3 108 109 110
3 109 108 111
3 112 113 114
3 113 112 115
3 116 117 118
3 117 116 119
3 120 121 122
3 121 120 123
3 124 125 126
3 125 124 127
3 128 129 130
3 129 128 131
3 131 128 132
3 131 132 133
3 133 132 134
3 133 134 135
3 136 137 138
3 137 136 139
3 140 141 142
3 141 140 143
3 144 145 146
3 145 144 147
3 148 149 150
3 149 148 151
3 152 153 154
3 153 152 155
3 156 157 158
3 157 156 159
3 160 161 162
3 161 160 163
3 164 165 166
3 165 164 167
3 168 169 170
3 169 168 171
3 171 168 172
3 171 172 173
3 173 172 174
3 173 174 175
3 176 177 178
3 177 176 179
3 180 181 182
3 181 180 183
3 184 185 186
3 185 184 187
3 188 189 190
3 189 188 191
3 192 193 194
3 193 192 195
3 196 197 198
3 197 196 199
3 200 201 202
3 201 200 203
3 204 201 205
3 201 204 202
3 206 207 208
3 207 206 209
3 210 200 211
3 200 210 203
3 212 205 213
3 205 212 204
3 214 215 216
3 215 214 217
3 218 219 220
3 219 218 221
3 222 211 223
3 211 222 210
3 224 213 225
3 213 224 212
3 226 227 228
3 227 226 229
3 230 231 232
3 231 230 233
3 222 234 235
3 234 222 223
3 235 224 225
3 224 235 234
3 236 237 238
3 237 236 239
3 240 241 242
3 241 240 243
3 244 245 246
3 245 244 247
3 248 249 250
3 249 248 251
3 251 248 252
3 251 252 253
3 253 252 254
3 253 254 255
3 256 257 258
3 257 256 259
3 260 261 262
3 261 260 263
3 264 265 266
3 265 264 267
3 268 269 270
3 269 268 271
3 272 273 274
3 273 272 275
3 276 277 278
3 277 276 279
3 280 281 282
3 281 280 283
3 284 285 286
3 285 284 287
3 288 289 290
3 289 288 291
3 292 293 294
3 293 292 295
3 296 297 298
3 297 296 299
3 300 301 302
3 301 300 303
3 304 294 305
3 294 304 292
3 306 293 295
3 293 306 307
3 308 309 310
3 309 308 311
3 312 313 314
3 313 312 315
3 316 305 317
3 305 316 304
3 318 306 319
3 306 318 307
3 320 321 322
3 321 320 323
3 324 325 326
3 325 324 327
3 328 316 317
3 316 328 329
3 330 319 331
3 319 330 318
3 332 333 334
3 333 332 335
3 330 329 328
3 329 330 331

