ply
format ascii 1.0
commentY29udmVydGVyIGJ5IENvZGVMZW9wYXJk
comment Original mesh name: 'C:\Program Files (x86)\Steam\steamapps\common\Stormworks\rom\meshes\component_door_manual_slide_small_static.mesh'
comment SubMesh index: 0
comment SubMesh name: 'ID44'
comment Shader: Opaque (0)
element vertex 128
property float x
property float y
property float z
property float nx
property float ny
property float nz
property uchar red
property uchar green
property uchar blue
property uchar alpha
element face 84
property list uchar ushort vertex_index
end_header
0.125 0.125 0.37499997 -1 -4.988026E-16 -4.8040045E-16 55 125 0 255
0.125 0.15499993 0.23428935 -1 -4.988026E-16 -4.8040045E-16 55 125 0 255
0.125 0.15499993 -0.23428935 -1 -4.988026E-16 -4.8040045E-16 55 125 0 255
0.125 0.22571073 0.3049999 -1 -4.988026E-16 -4.8040045E-16 55 125 0 255
0.125 0.8749999 0.37499997 -1 -4.988026E-16 -4.8040045E-16 55 125 0 255
0.125 0.7342893 0.3049999 -1 -4.988026E-16 -4.8040045E-16 55 125 0 255
0.125 0.8049998 0.23428935 -1 -4.988026E-16 -4.8040045E-16 55 125 0 255
0.125 0.8749999 -0.37499997 -1 -4.988026E-16 -4.8040045E-16 55 125 0 255
0.125 0.125 -0.37499997 -1 -4.988026E-16 -4.8040045E-16 55 125 0 255
0.125 0.22571073 -0.3049999 -1 -4.988026E-16 -4.8040045E-16 55 125 0 255
0.125 0.7342893 -0.3049999 -1 -4.988026E-16 -4.8040045E-16 55 125 0 255
0.125 0.8049998 -0.23428935 -1 -4.988026E-16 -4.8040045E-16 55 125 0 255
0.099999994 -0.505 -0.35500005 1 5.067035E-16 4.9264823E-16 255 125 0 255
0.099999994 -0.605 0.25499997 1 5.067035E-16 4.9264823E-16 255 125 0 255
0.099999994 -0.605 -0.25499997 1 5.067035E-16 4.9264823E-16 255 125 0 255
0.099999994 -0.505 0.35500005 1 5.067035E-16 4.9264823E-16 255 125 0 255
0.099999994 0.22571073 -0.3049999 1 5.067035E-16 4.9264823E-16 255 125 0 255
0.099999994 0.75499994 -0.35500005 1 5.067035E-16 4.9264823E-16 255 125 0 255
0.099999994 0.15499993 -0.23428935 1 5.067035E-16 4.9264823E-16 255 125 0 255
0.099999994 0.7342893 -0.3049999 1 5.067035E-16 4.9264823E-16 255 125 0 255
0.099999994 0.8049998 -0.23428935 1 5.067035E-16 4.9264823E-16 255 125 0 255
0.099999994 0.85499996 -0.25499997 1 5.067035E-16 4.9264823E-16 255 125 0 255
0.099999994 0.8049998 0.23428935 1 5.067035E-16 4.9264823E-16 255 125 0 255
0.099999994 0.22571073 0.3049999 1 5.067035E-16 4.9264823E-16 255 125 0 255
0.099999994 0.75499994 0.35500005 1 5.067035E-16 4.9264823E-16 255 125 0 255
0.099999994 0.15499993 0.23428935 1 5.067035E-16 4.9264823E-16 255 125 0 255
0.099999994 0.7342893 0.3049999 1 5.067035E-16 4.9264823E-16 255 125 0 255
0.099999994 0.85499996 0.25499997 1 5.067035E-16 4.9264823E-16 255 125 0 255
0.099999994 0.75499994 0.35500005 -4.1700951E-16 2.6498731E-15 1 84 84 84 255
-0.125 -0.505 0.35500005 -4.1700951E-16 2.6498731E-15 1 84 84 84 255
0.099999994 -0.505 0.35500005 -4.1700951E-16 2.6498731E-15 1 84 84 84 255
-0.125 0.75499994 0.35500005 -4.1700951E-16 2.6498731E-15 1 84 84 84 255
-0.125 0.75499994 0.35500005 -5.1118417E-16 0.70710677 0.70710677 84 84 84 255
0.099999994 0.85499996 0.25499997 -5.1118417E-16 0.70710677 0.70710677 84 84 84 255
-0.125 0.85499996 0.25499997 -5.1118417E-16 0.70710677 0.70710677 84 84 84 255
0.099999994 0.75499994 0.35500005 -5.1118417E-16 0.70710677 0.70710677 84 84 84 255
0.099999994 -0.505 0.35500005 0 -0.707107 0.7071065 84 84 84 255
-0.125 -0.605 0.25499997 0 -0.707107 0.7071065 84 84 84 255
0.099999994 -0.605 0.25499997 0 -0.707107 0.7071065 84 84 84 255
-0.125 -0.505 0.35500005 0 -0.707107 0.7071065 84 84 84 255
-0.125 0.85499996 0.25499997 -8.0212384E-16 1 -2.477147E-15 84 84 84 255
0.099999994 0.85499996 -0.25499997 -8.0212384E-16 1 -2.477147E-15 84 84 84 255
-0.125 0.85499996 -0.25499997 -8.0212384E-16 1 -2.477147E-15 84 84 84 255
0.099999994 0.85499996 0.25499997 -8.0212384E-16 1 -2.477147E-15 84 84 84 255
0.099999994 -0.605 -0.25499997 6.0159276E-16 -1 2.5656162E-15 84 84 84 255
-0.125 -0.605 0.25499997 6.0159276E-16 -1 2.5656162E-15 84 84 84 255
-0.125 -0.605 -0.25499997 6.0159276E-16 -1 2.5656162E-15 84 84 84 255
0.099999994 -0.605 0.25499997 6.0159276E-16 -1 2.5656162E-15 84 84 84 255
-0.125 0.75499994 -0.35500005 1.3107291E-16 0.7071065 -0.707107 84 84 84 255
0.099999994 0.85499996 -0.25499997 1.3107291E-16 0.7071065 -0.707107 84 84 84 255
0.099999994 0.75499994 -0.35500005 1.3107291E-16 0.7071065 -0.707107 84 84 84 255
-0.125 0.85499996 -0.25499997 1.3107291E-16 0.7071065 -0.707107 84 84 84 255
0.099999994 -0.505 -0.35500005 7.9201885E-16 -0.70710677 -0.70710677 84 84 84 255
-0.125 -0.605 -0.25499997 7.9201885E-16 -0.70710677 -0.70710677 84 84 84 255
-0.125 -0.505 -0.35500005 7.9201885E-16 -0.70710677 -0.70710677 84 84 84 255
0.099999994 -0.605 -0.25499997 7.9201885E-16 -0.70710677 -0.70710677 84 84 84 255
-0.125 -0.505 -0.35500005 6.273724E-16 -2.613618E-15 -1 84 84 84 255
0.099999994 0.75499994 -0.35500005 6.273724E-16 -2.613618E-15 -1 84 84 84 255
0.099999994 -0.505 -0.35500005 6.273724E-16 -2.613618E-15 -1 84 84 84 255
-0.125 0.75499994 -0.35500005 6.273724E-16 -2.613618E-15 -1 84 84 84 255
0.099999994 0.7342893 0.3049999 -8.1036846E-17 0.70710677 0.70710677 84 84 84 255
0.125 0.8049998 0.23428935 -8.1036846E-17 0.70710677 0.70710677 84 84 84 255
0.099999994 0.8049998 0.23428935 -8.1036846E-17 0.70710677 0.70710677 84 84 84 255
0.125 0.7342893 0.3049999 -8.1036846E-17 0.70710677 0.70710677 84 84 84 255
0.099999994 0.8049998 0.23428935 1.186007E-30 1 -2.696121E-15 84 84 84 255
0.125 0.8049998 -0.23428935 1.186007E-30 1 -2.696121E-15 84 84 84 255
0.099999994 0.8049998 -0.23428935 1.186007E-30 1 -2.696121E-15 84 84 84 255
0.125 0.8049998 0.23428935 1.186007E-30 1 -2.696121E-15 84 84 84 255
0.125 0.7342893 0.3049999 -5.706869E-31 2.48407E-15 1 84 84 84 255
0.099999994 0.22571073 0.3049999 -5.706869E-31 2.48407E-15 1 84 84 84 255
0.125 0.22571073 0.3049999 -5.706869E-31 2.48407E-15 1 84 84 84 255
0.099999994 0.7342893 0.3049999 -5.706869E-31 2.48407E-15 1 84 84 84 255
0.099999994 0.8049998 -0.23428935 6.483022E-16 0.7071072 -0.70710623 84 84 84 255
0.125 0.7342893 -0.3049999 6.483022E-16 0.7071072 -0.70710623 84 84 84 255
0.099999994 0.7342893 -0.3049999 6.483022E-16 0.7071072 -0.70710623 84 84 84 255
0.125 0.8049998 -0.23428935 6.483022E-16 0.7071072 -0.70710623 84 84 84 255
0.099999994 0.22571073 0.3049999 1.296608E-15 -0.7071055 0.7071081 84 84 84 255
0.125 0.15499993 0.23428935 1.296608E-15 -0.7071055 0.7071081 84 84 84 255
0.125 0.22571073 0.3049999 1.296608E-15 -0.7071055 0.7071081 84 84 84 255
0.099999994 0.15499993 0.23428935 1.296608E-15 -0.7071055 0.7071081 84 84 84 255
0.099999994 0.22571073 -0.3049999 6.2534677E-31 -2.661504E-15 -1 84 84 84 255
0.125 0.7342893 -0.3049999 6.2534677E-31 -2.661504E-15 -1 84 84 84 255
0.125 0.22571073 -0.3049999 6.2534677E-31 -2.661504E-15 -1 84 84 84 255
0.099999994 0.7342893 -0.3049999 6.2534677E-31 -2.661504E-15 -1 84 84 84 255
0.125 0.15499993 0.23428935 1.804778E-15 -1 2.599831E-15 84 84 84 255
0.099999994 0.15499993 -0.23428935 1.804778E-15 -1 2.599831E-15 84 84 84 255
0.125 0.15499993 -0.23428935 1.804778E-15 -1 2.599831E-15 84 84 84 255
0.099999994 0.15499993 0.23428935 1.804778E-15 -1 2.599831E-15 84 84 84 255
0.099999994 0.15499993 -0.23428935 0 -0.707106 -0.7071075 84 84 84 255
0.125 0.22571073 -0.3049999 0 -0.707106 -0.7071075 84 84 84 255
0.125 0.15499993 -0.23428935 0 -0.707106 -0.7071075 84 84 84 255
0.099999994 0.22571073 -0.3049999 0 -0.707106 -0.7071075 84 84 84 255
0.024999999 0.8049998 0.3049999 -4.5765328E-30 2.587734E-15 1 199 199 199 255
-0.105 -0.5549998 0.3049999 -4.5765328E-30 2.587734E-15 1 199 199 199 255
0.024999999 -0.5549998 0.3049999 -4.5765328E-30 2.587734E-15 1 199 199 199 255
-0.105 0.8049998 0.3049999 -4.5765328E-30 2.587734E-15 1 199 199 199 255
-0.105 0.8049998 0.3049999 1 4.9934376E-16 4.511929E-16 199 199 199 255
-0.105 -0.505 0.35500005 1 4.9934376E-16 4.511929E-16 199 199 199 255
-0.105 -0.5549998 0.3049999 1 4.9934376E-16 4.511929E-16 199 199 199 255
-0.105 0.75499994 0.35500005 1 4.9934376E-16 4.511929E-16 199 199 199 255
0.024999999 -0.505 0.35500005 -1 -5.0794184E-16 -4.511929E-16 199 199 199 255
0.024999999 0.8049998 0.3049999 -1 -5.0794184E-16 -4.511929E-16 199 199 199 255
0.024999999 -0.5549998 0.3049999 -1 -5.0794184E-16 -4.511929E-16 199 199 199 255
0.024999999 0.75499994 0.35500005 -1 -5.0794184E-16 -4.511929E-16 199 199 199 255
-0.105 -0.505 -0.35500005 1 4.9934376E-16 1.3535841E-15 199 199 199 255
-0.105 0.8049998 -0.3049999 1 4.9934376E-16 1.3535841E-15 199 199 199 255
-0.105 -0.5549998 -0.3049999 1 4.9934376E-16 1.3535841E-15 199 199 199 255
-0.105 0.75499994 -0.35500005 1 4.9934376E-16 1.3535841E-15 199 199 199 255
-0.105 -0.5549998 -0.3049999 5.206092E-16 -2.604322E-15 -1 199 199 199 255
0.024999999 0.8049998 -0.3049999 5.206092E-16 -2.604322E-15 -1 199 199 199 255
0.024999999 -0.5549998 -0.3049999 5.206092E-16 -2.604322E-15 -1 199 199 199 255
-0.105 0.8049998 -0.3049999 5.206092E-16 -2.604322E-15 -1 199 199 199 255
0.024999999 0.8049998 -0.3049999 -1 -5.0794184E-16 -4.511949E-16 199 199 199 255
0.024999999 -0.505 -0.35500005 -1 -5.0794184E-16 -4.511949E-16 199 199 199 255
0.024999999 -0.5549998 -0.3049999 -1 -5.0794184E-16 -4.511949E-16 199 199 199 255
0.024999999 0.75499994 -0.35500005 -1 -5.0794184E-16 -4.511949E-16 199 199 199 255
-0.125 -0.625 -0.37499997 1 5.1551754E-16 5.0371244E-16 255 125 0 255
-0.125 -0.605 -0.25499997 1 5.1551754E-16 5.0371244E-16 255 125 0 255
-0.125 -0.625 0.37499997 1 5.1551754E-16 5.0371244E-16 255 125 0 255
-0.125 -0.505 -0.35500005 1 5.1551754E-16 5.0371244E-16 255 125 0 255
-0.125 0.8749999 -0.37499997 1 5.1551754E-16 5.0371244E-16 255 125 0 255
-0.125 0.75499994 -0.35500005 1 5.1551754E-16 5.0371244E-16 255 125 0 255
-0.125 0.85499996 -0.25499997 1 5.1551754E-16 5.0371244E-16 255 125 0 255
-0.125 0.85499996 0.25499997 1 5.1551754E-16 5.0371244E-16 255 125 0 255
-0.125 -0.505 0.35500005 1 5.1551754E-16 5.0371244E-16 255 125 0 255
-0.125 0.8749999 0.37499997 1 5.1551754E-16 5.0371244E-16 255 125 0 255
-0.125 -0.605 0.25499997 1 5.1551754E-16 5.0371244E-16 255 125 0 255
-0.125 0.75499994 0.35500005 1 5.1551754E-16 5.0371244E-16 255 125 0 255
3 0 1 2
3 1 0 3
3 3 0 4
3 3 4 5
3 5 4 6
3 6 4 7
3 8 9 7
3 9 8 2
3 2 8 0
3 7 9 10
3 7 10 11
3 7 11 6
3 12 13 14
3 13 12 15
3 15 12 16
3 16 12 17
3 15 16 18
3 16 17 19
3 19 17 20
3 20 17 21
3 20 21 22
3 15 23 24
3 23 15 25
3 25 15 18
3 24 23 26
3 24 26 22
3 24 22 27
3 27 22 21
3 28 29 30
3 29 28 31
3 32 33 34
3 33 32 35
3 36 37 38
3 37 36 39
3 40 41 42
3 41 40 43
3 44 45 46
3 45 44 47
3 48 49 50
3 49 48 51
3 52 53 54
3 53 52 55
3 56 57 58
3 57 56 59
3 60 61 62
3 61 60 63
3 64 65 66
3 65 64 67
3 68 69 70
3 69 68 71
3 72 73 74
3 73 72 75
3 76 77 78
3 77 76 79
3 80 81 82
3 81 80 83
3 84 85 86
3 85 84 87
3 88 89 90
3 89 88 91
3 92 93 94
3 93 92 95
3 96 97 98
3 97 96 99
3 100 101 102
3 101 100 103
3 104 105 106
3 105 104 107
3 108 109 110
3 109 108 111
3 112 113 114
3 113 112 115
3 116 117 118
3 117 116 119
3 119 116 120
3 119 120 121
3 121 120 122
3 122 120 123
3 118 124 125
3 124 118 126
3 126 118 117
3 125 124 127
3 125 127 123
3 125 123 120

