ply
format ascii 1.0
commentY29udmVydGVyIGJ5IENvZGVMZW9wYXJk
comment Original mesh name: 'C:\Program Files (x86)\Steam\steamapps\common\Stormworks\rom\meshes\component_gun_xxl_breech.mesh'
comment SubMesh index: 0
comment SubMesh name: 'ID46'
comment Shader: Opaque (0)
element vertex 264
property float x
property float y
property float z
property float nx
property float ny
property float nz
property uchar red
property uchar green
property uchar blue
property uchar alpha
element face 166
property list uchar ushort vertex_index
end_header
-0.061834276 0.15100008 0.035308897 0.99995667 8.9778296E-14 -0.009311959 113 113 113 255
-0.06250266 -0.15183254 -0.036465637 0.99995667 8.9778296E-14 -0.009311959 113 113 113 255
-0.06250266 0.15100008 -0.036465637 0.99995667 8.9778296E-14 -0.009311959 113 113 113 255
-0.061834276 -0.15183254 0.035308897 0.99995667 8.9778296E-14 -0.009311959 113 113 113 255
0.062482838 -0.15183254 0.03415126 -8.990855E-14 1 2.811566E-16 113 113 113 255
-0.061834276 -0.15183254 0.035308897 -8.990855E-14 1 2.811566E-16 113 113 113 255
0.0006584587 -0.15183254 0.07061733 -8.990855E-14 1 2.811566E-16 113 113 113 255
0.06181447 -0.15183254 -0.037623275 -8.990855E-14 1 2.811566E-16 113 113 113 255
-0.06250266 -0.15183254 -0.036465637 -8.990855E-14 1 2.811566E-16 113 113 113 255
-0.00067829085 -0.15183254 -0.07293171 -8.990855E-14 1 2.811566E-16 113 113 113 255
-0.06250266 0.15100008 -0.036465637 0.50804234 4.5366742E-14 0.861332 113 113 113 255
-0.00067829085 -0.15183254 -0.07293171 0.50804234 4.5366742E-14 0.861332 113 113 113 255
-0.00067829085 0.15100008 -0.07293171 0.50804234 4.5366742E-14 0.861332 113 113 113 255
-0.06250266 -0.15183254 -0.036465637 0.50804234 4.5366742E-14 0.861332 113 113 113 255
-0.061834276 0.15100008 0.035308897 8.972613E-14 -1 -4.084235E-16 113 113 113 255
0.062482838 0.15100008 0.03415126 8.972613E-14 -1 -4.084235E-16 113 113 113 255
0.0006584587 0.15100008 0.07061733 8.972613E-14 -1 -4.084235E-16 113 113 113 255
0.06181447 0.15100008 -0.037623275 8.972613E-14 -1 -4.084235E-16 113 113 113 255
-0.06250266 0.15100008 -0.036465637 8.972613E-14 -1 -4.084235E-16 113 113 113 255
-0.00067829085 0.15100008 -0.07293171 8.972613E-14 -1 -4.084235E-16 113 113 113 255
0.0006584587 -0.15183254 0.07061733 0.49191436 3.9479766E-09 -0.8706436 113 113 113 255
-0.061834276 0.15100008 0.035308897 0.49191436 3.9479766E-09 -0.8706436 113 113 113 255
0.0006584587 0.15100008 0.07061733 0.49191436 3.9479766E-09 -0.8706436 113 113 113 255
-0.061834276 -0.15183254 0.035308897 0.49191436 3.9479766E-09 -0.8706436 113 113 113 255
0.06181447 -0.15183254 -0.037623275 -0.99995667 -8.975948E-14 0.00931168 113 113 113 255
0.062482838 0.15100008 0.03415126 -0.99995667 -8.975948E-14 0.00931168 113 113 113 255
0.06181447 0.15100008 -0.037623275 -0.99995667 -8.975948E-14 0.00931168 113 113 113 255
0.062482838 -0.15183254 0.03415126 -0.99995667 -8.975948E-14 0.00931168 113 113 113 255
-0.00067829085 0.15100008 -0.07293171 -0.49191418 -4.4418865E-14 0.8706436 113 113 113 255
0.06181447 -0.15183254 -0.037623275 -0.49191418 -4.4418865E-14 0.8706436 113 113 113 255
0.06181447 0.15100008 -0.037623275 -0.49191418 -4.4418865E-14 0.8706436 113 113 113 255
-0.00067829085 -0.15183254 -0.07293171 -0.49191418 -4.4418865E-14 0.8706436 113 113 113 255
0.062482838 -0.15183254 0.03415126 -0.50804234 -4.534119E-14 -0.861332 113 113 113 255
0.0006584587 0.15100008 0.07061733 -0.50804234 -4.534119E-14 -0.861332 113 113 113 255
0.062482838 0.15100008 0.03415126 -0.50804234 -4.534119E-14 -0.861332 113 113 113 255
0.0006584587 -0.15183254 0.07061733 -0.50804234 -4.534119E-14 -0.861332 113 113 113 255
0.5142794 -0.17218949 0.25904098 0.004656711 -3.1667096E-07 -0.9999891 113 113 113 255
0.6149048 0.0707444 0.25950953 0.004656711 -3.1667096E-07 -0.9999891 113 113 113 255
0.6149048 -0.071562976 0.25950953 0.004656711 -3.1667096E-07 -0.9999891 113 113 113 255
0.5143158 0.17133443 0.25904107 0.004656711 -3.1667096E-07 -0.9999891 113 113 113 255
0.3719699 0.17133443 0.2583782 0.004656711 -3.1667096E-07 -0.9999891 113 113 113 255
0.37197348 -0.17218949 0.25837842 0.004656711 -3.1667096E-07 -0.9999891 113 113 113 255
0.27134806 -0.071562976 0.25790966 0.004656711 -3.1667096E-07 -0.9999891 113 113 113 255
0.27134806 0.0707408 0.25790966 0.004656711 -3.1667096E-07 -0.9999891 113 113 113 255
0.372818 -0.17218949 0.07702425 0.7070992 0.7071067 0.0032927166 113 113 113 255
0.27134806 -0.071562976 0.25790966 0.7070992 0.7071067 0.0032927166 113 113 113 255
0.37197348 -0.17218949 0.25837842 0.7070992 0.7071067 0.0032927166 113 113 113 255
0.27219257 -0.071562976 0.07655566 0.7070992 0.7071067 0.0032927166 113 113 113 255
0.27134806 -0.071562976 0.25790966 0.9999891 1.7953931E-13 0.0046566217 113 113 113 255
0.27219257 0.0707408 0.07655566 0.9999891 1.7953931E-13 0.0046566217 113 113 113 255
0.27134806 0.0707408 0.25790966 0.9999891 1.7953931E-13 0.0046566217 113 113 113 255
0.27219257 -0.071562976 0.07655566 0.9999891 1.7953931E-13 0.0046566217 113 113 113 255
0.27134806 0.0707408 0.25790966 0.706996 -0.7072099 0.0032923396 113 113 113 255
0.37286198 0.17133443 0.06682435 0.706996 -0.7072099 0.0032923396 113 113 113 255
0.3719699 0.17133443 0.2583782 0.706996 -0.7072099 0.0032923396 113 113 113 255
0.27219257 0.0707408 0.07655566 0.706996 -0.7072099 0.0032923396 113 113 113 255
0.3719699 0.17133443 0.2583782 1.7954659E-13 -1 -1.140816E-15 113 113 113 255
0.5152078 0.17133443 0.06748722 1.7954659E-13 -1 -1.140816E-15 113 113 113 255
0.5143158 0.17133443 0.25904107 1.7954659E-13 -1 -1.140816E-15 113 113 113 255
0.37286198 0.17133443 0.06682435 1.7954659E-13 -1 -1.140816E-15 113 113 113 255
0.5143158 0.17133443 0.25904107 -0.70709866 -0.7071072 -0.0032928146 113 113 113 255
0.61574936 0.0707444 0.07815556 -0.70709866 -0.7071072 -0.0032928146 113 113 113 255
0.6149048 0.0707444 0.25950953 -0.70709866 -0.7071072 -0.0032928146 113 113 113 255
0.5152078 0.17133443 0.06748722 -0.70709866 -0.7071072 -0.0032928146 113 113 113 255
0.61574936 -0.071562976 0.07815556 -0.9999891 -1.7953931E-13 -0.0046566217 113 113 113 255
0.6149048 0.0707444 0.25950953 -0.9999891 -1.7953931E-13 -0.0046566217 113 113 113 255
0.61574936 0.0707444 0.07815556 -0.9999891 -1.7953931E-13 -0.0046566217 113 113 113 255
0.6149048 -0.071562976 0.25950953 -0.9999891 -1.7953931E-13 -0.0046566217 113 113 113 255
0.61574936 -0.071562976 0.07815556 -0.7070992 0.7071067 -0.0032927254 113 113 113 255
0.5142794 -0.17218949 0.25904098 -0.7070992 0.7071067 -0.0032927254 113 113 113 255
0.6149048 -0.071562976 0.25950953 -0.7070992 0.7071067 -0.0032927254 113 113 113 255
0.5151239 -0.17218949 0.07768695 -0.7070992 0.7071067 -0.0032927254 113 113 113 255
0.5151239 -0.17218949 0.07768695 -1.7954659E-13 1 1.140816E-15 113 113 113 255
0.37197348 -0.17218949 0.25837842 -1.7954659E-13 1 1.140816E-15 113 113 113 255
0.5142794 -0.17218949 0.25904098 -1.7954659E-13 1 1.140816E-15 113 113 113 255
0.372818 -0.17218949 0.07702425 -1.7954659E-13 1 1.140816E-15 113 113 113 255
0.65816873 -0.0891338 0.07835309 0.004656842 2.8291552E-10 -0.9999891 113 113 113 255
0.61574936 -0.071562976 0.07815556 0.004656842 2.8291552E-10 -0.9999891 113 113 113 255
0.65816873 0.088315256 0.07835309 0.004656842 2.8291552E-10 -0.9999891 113 113 113 255
0.53269464 -0.21460927 0.07776879 0.004656842 2.8291552E-10 -0.9999891 113 113 113 255
0.5151239 -0.17218949 0.07768695 0.004656842 2.8291552E-10 -0.9999891 113 113 113 255
0.35524756 -0.21460927 0.07694244 0.004656842 2.8291552E-10 -0.9999891 113 113 113 255
0.372818 -0.17218949 0.07702425 0.004656842 2.8291552E-10 -0.9999891 113 113 113 255
0.27219257 -0.071562976 0.07655566 0.004656842 2.8291552E-10 -0.9999891 113 113 113 255
0.22977333 -0.0891338 0.0763581 0.004656842 2.8291552E-10 -0.9999891 113 113 113 255
0.27219257 0.0707408 0.07655566 0.004656842 2.8291552E-10 -0.9999891 113 113 113 255
0.22977333 0.088315256 0.0763581 0.004656842 2.8291552E-10 -0.9999891 113 113 113 255
0.61574936 0.0707444 0.07815556 0.004656842 2.8291552E-10 -0.9999891 113 113 113 255
0.27219257 0.0707408 0.07655566 -0.06683037 -0.029599387 -0.9973252 113 113 113 255
0.35529482 0.21375418 0.06674255 -0.06683037 -0.029599387 -0.9973252 113 113 113 255
0.37286198 0.17133443 0.06682435 -0.06683037 -0.029599387 -0.9973252 113 113 113 255
0.5152078 0.17133443 0.06748722 0.0046567614 2.2151016E-07 -0.9999891 113 113 113 255
0.35529482 0.21375418 0.06674255 0.0046567614 2.2151016E-07 -0.9999891 113 113 113 255
0.53277856 0.21375418 0.06756906 0.0046567614 2.2151016E-07 -0.9999891 113 113 113 255
0.37286198 0.17133443 0.06682435 0.0046567614 2.2151016E-07 -0.9999891 113 113 113 255
0.5152078 0.17133443 0.06748722 0.0342532 -0.07148723 -0.99685323 113 113 113 255
0.65816873 0.088315256 0.07835309 0.0342532 -0.07148723 -0.99685323 113 113 113 255
0.61574936 0.0707444 0.07815556 0.0342532 -0.07148723 -0.99685323 113 113 113 255
0.22977333 -0.0891338 0.0763581 0.9999891 1.7953931E-13 0.00465691 113 113 113 255
0.22996317 0.088315256 0.03558916 0.9999891 1.7953931E-13 0.00465691 113 113 113 255
0.22977333 0.088315256 0.0763581 0.9999891 1.7953931E-13 0.00465691 113 113 113 255
0.22996317 -0.0891338 0.03558916 0.9999891 1.7953931E-13 0.00465691 113 113 113 255
0.22977333 0.088315256 0.0763581 -0.01912354 -0.057378802 -0.9981692 113 113 113 255
0.35529482 0.21375418 0.06674255 -0.01912354 -0.057378802 -0.9981692 113 113 113 255
0.27219257 0.0707408 0.07655566 -0.01912354 -0.057378802 -0.9981692 113 113 113 255
0.6583585 -0.0891338 0.037584126 -0.9999891 -1.7953933E-13 -0.0046537803 113 113 113 255
0.65816873 0.088315256 0.07835309 -0.9999891 -1.7953933E-13 -0.0046537803 113 113 113 255
0.6583585 0.088315256 0.037584126 -0.9999891 -1.7953933E-13 -0.0046537803 113 113 113 255
0.65816873 -0.0891338 0.07835309 -0.9999891 -1.7953933E-13 -0.0046537803 113 113 113 255
0.6583585 -0.0891338 0.037584126 -0.7070991 0.70710677 -0.0032907254 113 113 113 255
0.53269464 -0.21460927 0.07776879 -0.7070991 0.70710677 -0.0032907254 113 113 113 255
0.65816873 -0.0891338 0.07835309 -0.7070991 0.70710677 -0.0032907254 113 113 113 255
0.53288436 -0.21460927 0.03699982 -0.7070991 0.70710677 -0.0032907254 113 113 113 255
0.53288436 -0.21460927 0.03699982 -1.7954659E-13 1 1.140816E-15 113 113 113 255
0.35524756 -0.21460927 0.07694244 -1.7954659E-13 1 1.140816E-15 113 113 113 255
0.53269464 -0.21460927 0.07776879 -1.7954659E-13 1 1.140816E-15 113 113 113 255
0.35543728 -0.21460927 0.036173467 -1.7954659E-13 1 1.140816E-15 113 113 113 255
0.35543728 -0.21460927 0.036173467 0.7070989 0.7071069 0.00329183 113 113 113 255
0.22977333 -0.0891338 0.0763581 0.7070989 0.7071069 0.00329183 113 113 113 255
0.35524756 -0.21460927 0.07694244 0.7070989 0.7071069 0.00329183 113 113 113 255
0.22996317 -0.0891338 0.03558916 0.7070989 0.7071069 0.00329183 113 113 113 255
0.5152078 0.17133443 0.06748722 0.062034268 -0.02377032 -0.997791 113 113 113 255
0.53277856 0.21375418 0.06756906 0.062034268 -0.02377032 -0.997791 113 113 113 255
0.65816873 0.088315256 0.07835309 0.062034268 -0.02377032 -0.997791 113 113 113 255
0.35529482 0.21375418 0.06674255 1.7954659E-13 -1 -1.140816E-15 113 113 113 255
0.53292096 0.21375418 0.036999978 1.7954659E-13 -1 -1.140816E-15 113 113 113 255
0.53277856 0.21375418 0.06756906 1.7954659E-13 -1 -1.140816E-15 113 113 113 255
0.35543728 0.21375418 0.036173467 1.7954659E-13 -1 -1.140816E-15 113 113 113 255
0.6583585 0.088315256 0.037584126 -0.0046568294 -7.5936075E-09 0.9999891 113 113 113 255
0.6144604 0.07013188 0.03737972 -0.0046568294 -7.5936075E-09 0.9999891 113 113 113 255
0.6583585 -0.0891338 0.037584126 -0.0046568294 -7.5936075E-09 0.9999891 113 113 113 255
0.53292096 0.21375418 0.036999978 -0.0046568294 -7.5936075E-09 0.9999891 113 113 113 255
0.5147377 0.16985568 0.036915325 -0.0046568294 -7.5936075E-09 0.9999891 113 113 113 255
0.35543728 0.21375418 0.036173467 -0.0046568294 -7.5936075E-09 0.9999891 113 113 113 255
0.37361673 0.16985568 0.03625814 -0.0046568294 -7.5936075E-09 0.9999891 113 113 113 255
0.27386123 0.07012815 0.035793573 -0.0046568294 -7.5936075E-09 0.9999891 113 113 113 255
0.22996317 0.088315256 0.03558916 -0.0046568294 -7.5936075E-09 0.9999891 113 113 113 255
0.27386123 -0.07095045 0.035793573 -0.0046568294 -7.5936075E-09 0.9999891 113 113 113 255
0.6144604 -0.07095045 0.03737972 -0.0046568294 -7.5936075E-09 0.9999891 113 113 113 255
0.53288436 -0.21460927 0.03699982 -0.0046568294 -7.5936075E-09 0.9999891 113 113 113 255
0.5147011 -0.17071074 0.036915146 -0.0046568294 -7.5936075E-09 0.9999891 113 113 113 255
0.35543728 -0.21460927 0.036173467 -0.0046568294 -7.5936075E-09 0.9999891 113 113 113 255
0.37362054 -0.17071074 0.036258146 -0.0046568294 -7.5936075E-09 0.9999891 113 113 113 255
0.22996317 -0.0891338 0.03558916 -0.0046568294 -7.5936075E-09 0.9999891 113 113 113 255
0.22996317 0.088315256 0.03558916 0.7069962 -0.7072095 0.0032931431 113 113 113 255
0.35529482 0.21375418 0.06674255 0.7069962 -0.7072095 0.0032931431 113 113 113 255
0.22977333 0.088315256 0.0763581 0.7069962 -0.7072095 0.0032931431 113 113 113 255
0.35543728 0.21375418 0.036173467 0.7069962 -0.7072095 0.0032931431 113 113 113 255
0.53277856 0.21375418 0.06756906 -0.707099 -0.7071068 -0.0032921997 113 113 113 255
0.6583585 0.088315256 0.037584126 -0.707099 -0.7071068 -0.0032921997 113 113 113 255
0.65816873 0.088315256 0.07835309 -0.707099 -0.7071068 -0.0032921997 113 113 113 255
0.53292096 0.21375418 0.036999978 -0.707099 -0.7071068 -0.0032921997 113 113 113 255
0.27386123 -0.07095045 0.035793573 0.9999891 1.7953931E-13 0.00465672 113 113 113 255
0.27406162 0.07012815 -0.0072397566 0.9999891 1.7953931E-13 0.00465672 113 113 113 255
0.27386123 0.07012815 0.035793573 0.9999891 1.7953931E-13 0.00465672 113 113 113 255
0.27406162 -0.07095045 -0.0072397566 0.9999891 1.7953931E-13 0.00465672 113 113 113 255
0.3738209 -0.17071074 -0.0067751897 0.7070987 0.7071072 0.0032927953 113 113 113 255
0.27386123 -0.07095045 0.035793573 0.7070987 0.7071072 0.0032927953 113 113 113 255
0.37362054 -0.17071074 0.036258146 0.7070987 0.7071072 0.0032927953 113 113 113 255
0.3024215 -0.09931074 -0.0071076853 0.7070987 0.7071072 0.0032927953 113 113 113 255
0.27406162 -0.07095045 -0.0072397566 0.7070987 0.7071072 0.0032927953 113 113 113 255
0.27386123 0.07012815 0.035793573 0.7069962 -0.70720965 0.0032923124 113 113 113 255
0.37381712 0.16985568 -0.006775206 0.7069962 -0.70720965 0.0032923124 113 113 113 255
0.37361673 0.16985568 0.03625814 0.7069962 -0.70720965 0.0032923124 113 113 113 255
0.3023971 0.098455675 -0.0071078017 0.7069962 -0.70720965 0.0032923124 113 113 113 255
0.27406162 0.07012815 -0.0072397566 0.7069962 -0.70720965 0.0032923124 113 113 113 255
0.5149016 -0.17071074 -0.006118189 -1.7954659E-13 1 1.140816E-15 113 113 113 255
0.37362054 -0.17071074 0.036258146 -1.7954659E-13 1 1.140816E-15 113 113 113 255
0.5147011 -0.17071074 0.036915146 -1.7954659E-13 1 1.140816E-15 113 113 113 255
0.3738209 -0.17071074 -0.0067751897 -1.7954659E-13 1 1.140816E-15 113 113 113 255
0.5149381 0.16985568 -0.0061180196 -0.004656842 -6.993775E-10 0.9999891 113 113 113 255
0.61466086 -0.07095045 -0.0056536226 -0.004656842 -6.993775E-10 0.9999891 113 113 113 255
0.61466086 0.07013188 -0.0056536226 -0.004656842 -6.993775E-10 0.9999891 113 113 113 255
0.54326165 0.04055704 -0.005986123 -0.004656842 -6.993775E-10 0.9999891 113 113 113 255
0.48536354 0.098455675 -0.0062557445 -0.004656842 -6.993775E-10 0.9999891 113 113 113 255
0.37381712 0.16985568 -0.006775206 -0.004656842 -6.993775E-10 0.9999891 113 113 113 255
0.3023971 0.098455675 -0.0071078017 -0.004656842 -6.993775E-10 0.9999891 113 113 113 255
0.54326165 -0.041375607 -0.005986123 -0.004656842 -6.993775E-10 0.9999891 113 113 113 255
0.5149016 -0.17071074 -0.006118189 -0.004656842 -6.993775E-10 0.9999891 113 113 113 255
0.48532718 -0.09931074 -0.006255919 -0.004656842 -6.993775E-10 0.9999891 113 113 113 255
0.3738209 -0.17071074 -0.0067751897 -0.004656842 -6.993775E-10 0.9999891 113 113 113 255
0.3024215 -0.09931074 -0.0071076853 -0.004656842 -6.993775E-10 0.9999891 113 113 113 255
0.37361673 0.16985568 0.03625814 1.7954659E-13 -1 -1.140816E-15 113 113 113 255
0.5149381 0.16985568 -0.0061180196 1.7954659E-13 -1 -1.140816E-15 113 113 113 255
0.5147377 0.16985568 0.036915325 1.7954659E-13 -1 -1.140816E-15 113 113 113 255
0.37381712 0.16985568 -0.006775206 1.7954659E-13 -1 -1.140816E-15 113 113 113 255
0.61466086 -0.07095045 -0.0056536226 -0.70709884 0.707107 -0.0032927922 113 113 113 255
0.5147011 -0.17071074 0.036915146 -0.70709884 0.707107 -0.0032927922 113 113 113 255
0.6144604 -0.07095045 0.03737972 -0.70709884 0.707107 -0.0032927922 113 113 113 255
0.5149016 -0.17071074 -0.006118189 -0.70709884 0.707107 -0.0032927922 113 113 113 255
0.61466086 -0.07095045 -0.0056536226 -0.9999891 -1.7953931E-13 -0.004656711 113 113 113 255
0.6144604 0.07013188 0.03737972 -0.9999891 -1.7953931E-13 -0.004656711 113 113 113 255
0.61466086 0.07013188 -0.0056536226 -0.9999891 -1.7953931E-13 -0.004656711 113 113 113 255
0.6144604 -0.07095045 0.03737972 -0.9999891 -1.7953931E-13 -0.004656711 113 113 113 255
0.5147377 0.16985568 0.036915325 -0.70709914 -0.70710677 -0.0032927967 113 113 113 255
0.61466086 0.07013188 -0.0056536226 -0.70709914 -0.70710677 -0.0032927967 113 113 113 255
0.6144604 0.07013188 0.03737972 -0.70709914 -0.70710677 -0.0032927967 113 113 113 255
0.5149381 0.16985568 -0.0061180196 -0.70709914 -0.70710677 -0.0032927967 113 113 113 255
0.48551136 0.098455675 -0.037967373 -0.00465682 2.0479096E-08 0.9999891 255 125 0 255
0.5434092 -0.041375607 -0.037697736 -0.00465682 2.0479096E-08 0.9999891 255 125 0 255
0.5434092 0.04055704 -0.037697736 -0.00465682 2.0479096E-08 0.9999891 255 125 0 255
0.4998412 0.02251031 -0.03790062 -0.00465682 2.0479096E-08 0.9999891 255 125 0 255
0.4674648 0.05488701 -0.038051393 -0.00465682 2.0479096E-08 0.9999891 255 125 0 255
0.032930814 0.098455675 -0.04007497 -0.00465682 2.0479096E-08 0.9999891 255 125 0 255
0.42157593 0.05488701 -0.03826511 -0.00465682 2.0479096E-08 0.9999891 255 125 0 255
0.38917667 0.022496764 -0.03841599 -0.00465682 2.0479096E-08 0.9999891 255 125 0 255
0.38917667 -0.023328863 -0.03841599 -0.00465682 2.0479096E-08 0.9999891 255 125 0 255
0.4998412 -0.023328863 -0.03790062 -0.00465682 2.0479096E-08 0.9999891 255 125 0 255
0.48547477 -0.09931074 -0.03796753 -0.00465682 2.0479096E-08 0.9999891 255 125 0 255
0.4674282 -0.055742078 -0.038051575 -0.00465682 2.0479096E-08 0.9999891 255 125 0 255
0.032930814 -0.09931074 -0.04007497 -0.00465682 2.0479096E-08 0.9999891 255 125 0 255
0.4215896 -0.055742078 -0.038265035 -0.00465682 2.0479096E-08 0.9999891 255 125 0 255
0.48547477 -0.09931074 -0.03796753 -1.7954659E-13 1 1.140816E-15 255 125 0 255
0.3024215 -0.09931074 -0.0071076853 -1.7954659E-13 1 1.140816E-15 255 125 0 255
0.48532718 -0.09931074 -0.006255919 -1.7954659E-13 1 1.140816E-15 255 125 0 255
0.24013999 -0.09931074 0.03563655 -1.7954659E-13 1 1.140816E-15 255 125 0 255
0.3022211 -0.09931074 0.03592564 -1.7954659E-13 1 1.140816E-15 255 125 0 255
0.032582734 -0.09931074 0.03466998 -1.7954659E-13 1 1.140816E-15 255 125 0 255
0.032930814 -0.09931074 -0.04007497 -1.7954659E-13 1 1.140816E-15 255 125 0 255
0.5434092 -0.041375607 -0.037697736 -0.7070996 0.7071063 -0.0032907275 255 125 0 255
0.48532718 -0.09931074 -0.006255919 -0.7070996 0.7071063 -0.0032907275 255 125 0 255
0.54326165 -0.041375607 -0.005986123 -0.7070996 0.7071063 -0.0032907275 255 125 0 255
0.48547477 -0.09931074 -0.03796753 -0.7070996 0.7071063 -0.0032907275 255 125 0 255
0.5434092 -0.041375607 -0.037697736 -0.9999891 -1.7953933E-13 -0.004653789 255 125 0 255
0.54326165 0.04055704 -0.005986123 -0.9999891 -1.7953933E-13 -0.004653789 255 125 0 255
0.5434092 0.04055704 -0.037697736 -0.9999891 -1.7953933E-13 -0.004653789 255 125 0 255
0.54326165 -0.041375607 -0.005986123 -0.9999891 -1.7953933E-13 -0.004653789 255 125 0 255
0.48536354 0.098455675 -0.0062557445 -0.7070993 -0.7071066 -0.0032935545 255 125 0 255
0.5434092 0.04055704 -0.037697736 -0.7070993 -0.7071066 -0.0032935545 255 125 0 255
0.54326165 0.04055704 -0.005986123 -0.7070993 -0.7071066 -0.0032935545 255 125 0 255
0.48551136 0.098455675 -0.037967373 -0.7070993 -0.7071066 -0.0032935545 255 125 0 255
0.24010643 0.098455675 0.035636388 1.7954659E-13 -1 -1.140816E-15 255 125 0 255
0.3023971 0.098455675 -0.0071078017 1.7954659E-13 -1 -1.140816E-15 255 125 0 255
0.3021967 0.098455675 0.035925537 1.7954659E-13 -1 -1.140816E-15 255 125 0 255
0.032582734 0.098455675 0.03466998 1.7954659E-13 -1 -1.140816E-15 255 125 0 255
0.032930814 0.098455675 -0.04007497 1.7954659E-13 -1 -1.140816E-15 255 125 0 255
0.48551136 0.098455675 -0.037967373 1.7954659E-13 -1 -1.140816E-15 255 125 0 255
0.48536354 0.098455675 -0.0062557445 1.7954659E-13 -1 -1.140816E-15 255 125 0 255
0.032582734 -0.09931074 0.03466998 0.004656842 -1.0992106E-08 -0.9999891 255 125 0 255
0.22996317 -0.0891338 0.03558916 0.004656842 -1.0992106E-08 -0.9999891 255 125 0 255
0.24013999 -0.09931074 0.03563655 0.004656842 -1.0992106E-08 -0.9999891 255 125 0 255
0.22996317 0.088315256 0.03558916 0.004656842 -1.0992106E-08 -0.9999891 255 125 0 255
0.032582734 0.098455675 0.03466998 0.004656842 -1.0992106E-08 -0.9999891 255 125 0 255
0.24010643 0.098455675 0.035636388 0.004656842 -1.0992106E-08 -0.9999891 255 125 0 255
0.3024215 -0.09931074 -0.0071076853 0.004656842 -1.2826706E-08 -0.9999891 113 113 113 255
0.3454608 -0.041375607 -0.0069072573 0.004656842 -1.2826706E-08 -0.9999891 113 113 113 255
0.4033952 -0.09931074 -0.006637461 0.004656842 -1.2826706E-08 -0.9999891 113 113 113 255
0.3454608 0.04054721 -0.0069072573 0.004656842 -1.2826706E-08 -0.9999891 113 113 113 255
0.3023971 0.098455675 -0.0071078017 0.004656842 -1.2826706E-08 -0.9999891 113 113 113 255
0.40338555 0.098455675 -0.00663751 0.004656842 -1.2826706E-08 -0.9999891 113 113 113 255
0.27406162 -0.07095045 -0.0072397566 0.004656842 -1.2826706E-08 -0.9999891 113 113 113 255
0.27406162 0.07012815 -0.0072397566 0.004656842 -1.2826706E-08 -0.9999891 113 113 113 255
0.032582734 -0.09931074 0.03466998 0.9999891 1.7953931E-13 0.0046568294 255 255 255 255
0.032930814 0.098455675 -0.04007497 0.9999891 1.7953931E-13 0.0046568294 255 255 255 255
0.032582734 0.098455675 0.03466998 0.9999891 1.7953931E-13 0.0046568294 255 255 255 255
0.032930814 -0.09931074 -0.04007497 0.9999891 1.7953931E-13 0.0046568294 255 255 255 255
0.4674648 0.05488701 -0.038051393 -0.00465696 -4.228296E-09 0.9999891 113 113 113 255
0.4998412 -0.023328863 -0.03790062 -0.00465696 -4.228296E-09 0.9999891 113 113 113 255
0.4998412 0.02251031 -0.03790062 -0.00465696 -4.228296E-09 0.9999891 113 113 113 255
0.4674282 -0.055742078 -0.038051575 -0.00465696 -4.228296E-09 0.9999891 113 113 113 255
0.42157593 0.05488701 -0.03826511 -0.00465696 -4.228296E-09 0.9999891 113 113 113 255
0.4215896 -0.055742078 -0.038265035 -0.00465696 -4.228296E-09 0.9999891 113 113 113 255
0.38917667 -0.023328863 -0.03841599 -0.00465696 -4.228296E-09 0.9999891 113 113 113 255
0.38917667 0.022496764 -0.03841599 -0.00465696 -4.228296E-09 0.9999891 113 113 113 255
3 0 1 2
3 1 0 3
3 4 5 6
3 5 4 7
3 5 7 8
3 8 7 9
3 10 11 12
3 11 10 13
3 14 15 16
3 15 14 17
3 17 14 18
3 17 18 19
3 20 21 22
3 21 20 23
3 24 25 26
3 25 24 27
3 28 29 30
3 29 28 31
3 32 33 34
3 33 32 35
3 36 37 38
3 37 36 39
3 39 36 40
3 40 36 41
3 40 41 42
3 40 42 43
3 44 45 46
3 45 44 47
3 48 49 50
3 49 48 51
3 52 53 54
3 53 52 55
3 56 57 58
3 57 56 59
3 60 61 62
3 61 60 63
3 64 65 66
3 65 64 67
3 68 69 70
3 69 68 71
3 72 73 74
3 73 72 75
3 76 77 78
3 77 76 79
3 77 79 80
3 80 79 81
3 80 81 82
3 82 81 83
3 83 81 84
3 83 84 85
3 85 84 86
3 87 78 77
3 88 89 90
3 91 92 93
3 92 91 94
3 95 96 97
3 98 99 100
3 99 98 101
3 102 103 104
3 105 106 107
3 106 105 108
3 109 110 111
3 110 109 112
3 113 114 115
3 114 113 116
3 117 118 119
3 118 117 120
3 121 122 123
3 124 125 126
3 125 124 127
3 128 129 130
3 129 128 131
3 129 131 132
3 132 131 133
3 132 133 134
3 134 133 135
3 135 133 136
3 135 136 137
3 130 138 139
3 138 130 129
3 139 138 140
3 139 140 141
3 141 140 142
3 141 142 137
3 141 137 143
3 143 137 136
3 144 145 146
3 145 144 147
3 148 149 150
3 149 148 151
3 152 153 154
3 153 152 155
3 156 157 158
3 157 156 159
3 157 159 160
3 161 162 163
3 162 161 164
3 164 161 165
3 166 167 168
3 167 166 169
3 170 171 172
3 171 170 173
3 173 170 174
3 174 170 175
3 174 175 176
3 171 177 178
3 177 171 173
3 178 177 179
3 178 179 180
3 180 179 181
3 182 183 184
3 183 182 185
3 186 187 188
3 187 186 189
3 190 191 192
3 191 190 193
3 194 195 196
3 195 194 197
3 198 199 200
3 199 198 201
3 201 198 202
3 202 198 203
3 202 203 204
3 204 203 205
3 205 203 206
3 199 207 208
3 207 199 201
3 208 207 209
3 208 209 210
3 210 209 211
3 210 211 206
3 210 206 203
3 212 213 214
3 213 215 216
3 215 213 217
3 217 213 218
3 218 213 212
3 219 220 221
3 220 219 222
3 223 224 225
3 224 223 226
3 227 228 229
3 228 227 230
3 231 232 233
3 232 231 234
3 232 234 235
3 232 235 236
3 236 237 232
3 238 239 240
3 239 238 241
3 241 242 243
3 242 241 238
3 244 245 246
3 245 244 247
3 247 248 249
3 248 247 244
3 248 244 250
3 248 250 251
3 252 253 254
3 253 252 255
3 256 257 258
3 257 256 259
3 259 256 260
3 259 260 261
3 261 260 262
3 262 260 263

