ply
format ascii 1.0
commentY29udmVydGVyIGJ5IENvZGVMZW9wYXJk
comment Original mesh name: 'C:\Program Files (x86)\Steam\steamapps\common\Stormworks\rom\meshes\component_jet_engine_duct_cross.mesh'
comment SubMesh index: 0
comment SubMesh name: 'ID54'
comment Shader: Opaque (0)
element vertex 320
property float x
property float y
property float z
property float nx
property float ny
property float nz
property uchar red
property uchar green
property uchar blue
property uchar alpha
element face 200
property list uchar ushort vertex_index
end_header
0.104289316 -0.3250001 0.3250001 0.70710677 1.5222547E-08 0.70710677 199 199 199 255
0.3250001 -0.37499997 0.10428929 0.70710677 1.5222547E-08 0.70710677 199 199 199 255
0.3250001 -0.104289316 0.10428929 0.70710677 1.5222547E-08 0.70710677 199 199 199 255
0.104289316 -0.37499997 0.3250001 0.70710677 1.5222547E-08 0.70710677 199 199 199 255
0.3250001 -0.37499997 -0.104289316 1 -4.967262E-09 2.618986E-15 199 199 199 255
0.3250001 -0.104289316 0.10428929 1 -4.967262E-09 2.618986E-15 199 199 199 255
0.3250001 -0.37499997 0.10428929 1 -4.967262E-09 2.618986E-15 199 199 199 255
0.3250001 -0.104289316 -0.10428934 1 -4.967262E-09 2.618986E-15 199 199 199 255
0.3250001 0.10428929 0.37499997 1 -4.967262E-09 2.618986E-15 199 199 199 255
0.3250001 -0.104289316 0.37499997 1 -4.967262E-09 2.618986E-15 199 199 199 255
0.3250001 -0.104289316 -0.37499997 1 -4.967262E-09 2.618986E-15 199 199 199 255
0.3250001 0.10428929 -0.104289316 1 -4.967262E-09 2.618986E-15 199 199 199 255
0.3250001 0.104289316 -0.37499997 1 -4.967262E-09 2.618986E-15 199 199 199 255
0.3250001 0.10428929 0.10428929 1 -4.967262E-09 2.618986E-15 199 199 199 255
0.3250001 0.37499997 -0.104289316 1 -4.967262E-09 2.618986E-15 199 199 199 255
0.3250001 0.37499997 0.104289316 1 -4.967262E-09 2.618986E-15 199 199 199 255
0.3250001 -0.104289316 0.37499997 0.70710677 -0.70710677 1.6665608E-15 199 199 199 255
0.104289316 -0.3250001 0.3250001 0.70710677 -0.70710677 1.6665608E-15 199 199 199 255
0.3250001 -0.104289316 0.10428929 0.70710677 -0.70710677 1.6665608E-15 199 199 199 255
0.104289316 -0.3250001 0.37499997 0.70710677 -0.70710677 1.6665608E-15 199 199 199 255
-0.104289316 -0.3250001 0.3250001 -2.258164E-15 2.980241E-08 1 199 199 199 255
0.104289316 -0.37499997 0.3250001 -2.258164E-15 2.980241E-08 1 199 199 199 255
0.104289316 -0.3250001 0.3250001 -2.258164E-15 2.980241E-08 1 199 199 199 255
-0.104289316 -0.37499997 0.3250001 -2.258164E-15 2.980241E-08 1 199 199 199 255
0.104289316 0.37499997 0.3250001 0.70710677 -4.3320647E-08 0.70710677 199 199 199 255
0.3250001 0.10428929 0.10428929 0.70710677 -4.3320647E-08 0.70710677 199 199 199 255
0.3250001 0.37499997 0.104289316 0.70710677 -4.3320647E-08 0.70710677 199 199 199 255
0.104289316 0.3250001 0.3250001 0.70710677 -4.3320647E-08 0.70710677 199 199 199 255
0.3250001 0.10428929 0.10428929 0.70710677 0.70710677 1.8330939E-15 199 199 199 255
0.104289316 0.3250001 0.37499997 0.70710677 0.70710677 1.8330939E-15 199 199 199 255
0.3250001 0.10428929 0.37499997 0.70710677 0.70710677 1.8330939E-15 199 199 199 255
0.104289316 0.3250001 0.3250001 0.70710677 0.70710677 1.8330939E-15 199 199 199 255
0.104289316 -0.37499997 -0.3250001 0.70710677 -2.2247317E-08 -0.70710677 199 199 199 255
0.3250001 -0.104289316 -0.10428934 0.70710677 -2.2247317E-08 -0.70710677 199 199 199 255
0.3250001 -0.37499997 -0.104289316 0.70710677 -2.2247317E-08 -0.70710677 199 199 199 255
0.104289316 -0.3250001 -0.3250001 0.70710677 -2.2247317E-08 -0.70710677 199 199 199 255
0.3250001 -0.104289316 -0.37499997 0.70710677 -0.70710677 -2.8228827E-08 199 199 199 255
0.104289316 -0.3250001 -0.3250001 0.70710677 -0.70710677 -2.8228827E-08 199 199 199 255
0.104289316 -0.3250001 -0.37499997 0.70710677 -0.70710677 -2.8228827E-08 199 199 199 255
0.3250001 -0.104289316 -0.10428934 0.70710677 -0.70710677 -2.8228827E-08 199 199 199 255
0.3250001 0.104289316 -0.37499997 0.70710677 0.70710677 2.8228827E-08 199 199 199 255
0.104289316 0.3250001 -0.3250001 0.70710677 0.70710677 2.8228827E-08 199 199 199 255
0.3250001 0.10428929 -0.104289316 0.70710677 0.70710677 2.8228827E-08 199 199 199 255
0.104289316 0.3250001 -0.37499997 0.70710677 0.70710677 2.8228827E-08 199 199 199 255
0.104289316 0.3250001 -0.3250001 0.70710677 3.6295877E-08 -0.70710677 199 199 199 255
0.3250001 0.37499997 -0.104289316 0.70710677 3.6295877E-08 -0.70710677 199 199 199 255
0.3250001 0.10428929 -0.104289316 0.70710677 3.6295877E-08 -0.70710677 199 199 199 255
0.104289316 0.37499997 -0.3250001 0.70710677 3.6295877E-08 -0.70710677 199 199 199 255
0.104289316 -0.3250001 0.3250001 -4.967262E-09 -1 -1.23357E-17 199 199 199 255
-0.104289316 -0.3250001 0.37499997 -4.967262E-09 -1 -1.23357E-17 199 199 199 255
-0.104289316 -0.3250001 0.3250001 -4.967262E-09 -1 -1.23357E-17 199 199 199 255
0.104289316 -0.3250001 0.37499997 -4.967262E-09 -1 -1.23357E-17 199 199 199 255
-0.3250001 -0.104289316 0.10428929 -0.70710677 2.2247317E-08 0.70710677 199 199 199 255
-0.104289316 -0.37499997 0.3250001 -0.70710677 2.2247317E-08 0.70710677 199 199 199 255
-0.104289316 -0.3250001 0.3250001 -0.70710677 2.2247317E-08 0.70710677 199 199 199 255
-0.3250001 -0.37499997 0.10428929 -0.70710677 2.2247317E-08 0.70710677 199 199 199 255
-0.104289316 0.37499997 0.3250001 -2.6467418E-15 -5.960459E-08 1 199 199 199 255
0.104289316 0.3250001 0.3250001 -2.6467418E-15 -5.960459E-08 1 199 199 199 255
0.104289316 0.37499997 0.3250001 -2.6467418E-15 -5.960459E-08 1 199 199 199 255
-0.104289316 0.3250001 0.3250001 -2.6467418E-15 -5.960459E-08 1 199 199 199 255
-0.104289316 0.3250001 0.37499997 4.967262E-09 1 1.23357E-17 199 199 199 255
0.104289316 0.3250001 0.3250001 4.967262E-09 1 1.23357E-17 199 199 199 255
-0.104289316 0.3250001 0.3250001 4.967262E-09 1 1.23357E-17 199 199 199 255
0.104289316 0.3250001 0.37499997 4.967262E-09 1 1.23357E-17 199 199 199 255
0.104289316 -0.37499997 -0.3250001 2.258164E-15 -2.980241E-08 -1 199 199 199 255
-0.104289316 -0.3250001 -0.3250001 2.258164E-15 -2.980241E-08 -1 199 199 199 255
0.104289316 -0.3250001 -0.3250001 2.258164E-15 -2.980241E-08 -1 199 199 199 255
-0.104289316 -0.37499997 -0.3250001 2.258164E-15 -2.980241E-08 -1 199 199 199 255
0.104289316 -0.3250001 -0.37499997 -4.967262E-09 -1 -1.23357E-17 199 199 199 255
-0.104289316 -0.3250001 -0.3250001 -4.967262E-09 -1 -1.23357E-17 199 199 199 255
-0.104289316 -0.3250001 -0.37499997 -4.967262E-09 -1 -1.23357E-17 199 199 199 255
0.104289316 -0.3250001 -0.3250001 -4.967262E-09 -1 -1.23357E-17 199 199 199 255
-0.104289316 0.3250001 -0.37499997 4.967262E-09 1 1.23357E-17 199 199 199 255
0.104289316 0.3250001 -0.3250001 4.967262E-09 1 1.23357E-17 199 199 199 255
0.104289316 0.3250001 -0.37499997 4.967262E-09 1 1.23357E-17 199 199 199 255
-0.104289316 0.3250001 -0.3250001 4.967262E-09 1 1.23357E-17 199 199 199 255
0.104289316 0.3250001 -0.3250001 2.6467418E-15 5.960459E-08 -1 199 199 199 255
-0.104289316 0.37499997 -0.3250001 2.6467418E-15 5.960459E-08 -1 199 199 199 255
0.104289316 0.37499997 -0.3250001 2.6467418E-15 5.960459E-08 -1 199 199 199 255
-0.104289316 0.3250001 -0.3250001 2.6467418E-15 5.960459E-08 -1 199 199 199 255
-0.104289316 -0.3250001 0.37499997 -0.70710677 -0.70710677 -2.0828938E-15 199 199 199 255
-0.3250001 -0.104289316 0.10428929 -0.70710677 -0.70710677 -2.0828938E-15 199 199 199 255
-0.104289316 -0.3250001 0.3250001 -0.70710677 -0.70710677 -2.0828938E-15 199 199 199 255
-0.3250001 -0.104289316 0.37499997 -0.70710677 -0.70710677 -2.0828938E-15 199 199 199 255
-0.3250001 -0.104289316 0.10428929 -1 4.967262E-09 -2.28592E-15 199 199 199 255
-0.3250001 -0.37499997 -0.104289316 -1 4.967262E-09 -2.28592E-15 199 199 199 255
-0.3250001 -0.37499997 0.10428929 -1 4.967262E-09 -2.28592E-15 199 199 199 255
-0.3250001 -0.104289316 -0.10428934 -1 4.967262E-09 -2.28592E-15 199 199 199 255
-0.3250001 0.10428929 0.37499997 -1 4.967262E-09 -2.28592E-15 199 199 199 255
-0.3250001 -0.104289316 0.37499997 -1 4.967262E-09 -2.28592E-15 199 199 199 255
-0.3250001 -0.104289316 -0.37499997 -1 4.967262E-09 -2.28592E-15 199 199 199 255
-0.3250001 0.10428929 0.10428929 -1 4.967262E-09 -2.28592E-15 199 199 199 255
-0.3250001 0.37499997 0.104289316 -1 4.967262E-09 -2.28592E-15 199 199 199 255
-0.3250001 0.10428929 -0.104289316 -1 4.967262E-09 -2.28592E-15 199 199 199 255
-0.3250001 0.37499997 -0.104289316 -1 4.967262E-09 -2.28592E-15 199 199 199 255
-0.3250001 0.104289316 -0.37499997 -1 4.967262E-09 -2.28592E-15 199 199 199 255
-0.3250001 0.37499997 0.104289316 -0.70710677 -3.6295877E-08 0.70710677 199 199 199 255
-0.104289316 0.3250001 0.3250001 -0.70710677 -3.6295877E-08 0.70710677 199 199 199 255
-0.104289316 0.37499997 0.3250001 -0.70710677 -3.6295877E-08 0.70710677 199 199 199 255
-0.3250001 0.10428929 0.10428929 -0.70710677 -3.6295877E-08 0.70710677 199 199 199 255
-0.3250001 0.10428929 0.37499997 -0.70710677 0.70710677 -1.5277827E-15 199 199 199 255
-0.104289316 0.3250001 0.3250001 -0.70710677 0.70710677 -1.5277827E-15 199 199 199 255
-0.3250001 0.10428929 0.10428929 -0.70710677 0.70710677 -1.5277827E-15 199 199 199 255
-0.104289316 0.3250001 0.37499997 -0.70710677 0.70710677 -1.5277827E-15 199 199 199 255
-0.3250001 -0.104289316 -0.10428934 -0.70710677 -1.5222547E-08 -0.70710677 199 199 199 255
-0.104289316 -0.37499997 -0.3250001 -0.70710677 -1.5222547E-08 -0.70710677 199 199 199 255
-0.3250001 -0.37499997 -0.104289316 -0.70710677 -1.5222547E-08 -0.70710677 199 199 199 255
-0.104289316 -0.3250001 -0.3250001 -0.70710677 -1.5222547E-08 -0.70710677 199 199 199 255
-0.104289316 -0.3250001 -0.3250001 -0.70710677 -0.70710677 -2.8228827E-08 199 199 199 255
-0.3250001 -0.104289316 -0.37499997 -0.70710677 -0.70710677 -2.8228827E-08 199 199 199 255
-0.104289316 -0.3250001 -0.37499997 -0.70710677 -0.70710677 -2.8228827E-08 199 199 199 255
-0.3250001 -0.104289316 -0.10428934 -0.70710677 -0.70710677 -2.8228827E-08 199 199 199 255
-0.3250001 0.104289316 -0.37499997 -0.70710677 0.70710677 2.8228827E-08 199 199 199 255
-0.104289316 0.3250001 -0.3250001 -0.70710677 0.70710677 2.8228827E-08 199 199 199 255
-0.104289316 0.3250001 -0.37499997 -0.70710677 0.70710677 2.8228827E-08 199 199 199 255
-0.3250001 0.10428929 -0.104289316 -0.70710677 0.70710677 2.8228827E-08 199 199 199 255
-0.3250001 0.37499997 -0.104289316 -0.70710677 4.3320647E-08 -0.70710677 199 199 199 255
-0.104289316 0.3250001 -0.3250001 -0.70710677 4.3320647E-08 -0.70710677 199 199 199 255
-0.3250001 0.10428929 -0.104289316 -0.70710677 4.3320647E-08 -0.70710677 199 199 199 255
-0.104289316 0.37499997 -0.3250001 -0.70710677 4.3320647E-08 -0.70710677 199 199 199 255
-0.37499997 -0.37499997 -0.37499997 4.96726E-09 1 4.967261E-09 255 125 0 255
-0.104289316 -0.37499997 -0.3250001 4.96726E-09 1 4.967261E-09 255 125 0 255
0.37499997 -0.37499997 -0.37499997 4.96726E-09 1 4.967261E-09 255 125 0 255
-0.3250001 -0.37499997 -0.104289316 4.96726E-09 1 4.967261E-09 255 125 0 255
-0.37499997 -0.37499997 0.37499997 4.96726E-09 1 4.967261E-09 255 125 0 255
0.104289316 -0.37499997 -0.3250001 4.96726E-09 1 4.967261E-09 255 125 0 255
-0.3250001 -0.37499997 0.10428929 4.96726E-09 1 4.967261E-09 255 125 0 255
-0.104289316 -0.37499997 0.3250001 4.96726E-09 1 4.967261E-09 255 125 0 255
0.104289316 -0.37499997 0.3250001 4.96726E-09 1 4.967261E-09 255 125 0 255
0.3250001 -0.37499997 -0.104289316 4.96726E-09 1 4.967261E-09 255 125 0 255
0.37499997 -0.37499997 0.37499997 4.96726E-09 1 4.967261E-09 255 125 0 255
0.3250001 -0.37499997 0.10428929 4.96726E-09 1 4.967261E-09 255 125 0 255
-0.37499997 -0.37499997 -0.37499997 1 -4.967262E-09 1.147941E-15 255 125 0 255
-0.37499997 -0.3250001 -0.3250001 1 -4.967262E-09 1.147941E-15 255 125 0 255
-0.37499997 -0.3250001 -0.125 1 -4.967262E-09 1.147941E-15 255 125 0 255
-0.37499997 0.37499997 -0.37499997 1 -4.967262E-09 1.147941E-15 255 125 0 255
-0.37499997 -0.125 -0.3250001 1 -4.967262E-09 1.147941E-15 255 125 0 255
-0.37499997 0.12499997 -0.3250001 1 -4.967262E-09 1.147941E-15 255 125 0 255
-0.37499997 0.3250001 -0.3250001 1 -4.967262E-09 1.147941E-15 255 125 0 255
-0.37499997 0.3250001 -0.125 1 -4.967262E-09 1.147941E-15 255 125 0 255
-0.37499997 0.3250001 0.12499997 1 -4.967262E-09 1.147941E-15 255 125 0 255
-0.37499997 0.3250001 0.3250001 1 -4.967262E-09 1.147941E-15 255 125 0 255
-0.37499997 -0.37499997 0.37499997 1 -4.967262E-09 1.147941E-15 255 125 0 255
-0.37499997 -0.3250001 0.3250001 1 -4.967262E-09 1.147941E-15 255 125 0 255
-0.37499997 0.37499997 0.37499997 1 -4.967262E-09 1.147941E-15 255 125 0 255
-0.37499997 -0.3250001 0.12499997 1 -4.967262E-09 1.147941E-15 255 125 0 255
-0.37499997 -0.125 0.3250001 1 -4.967262E-09 1.147941E-15 255 125 0 255
-0.37499997 0.125 0.3250001 1 -4.967262E-09 1.147941E-15 255 125 0 255
0.37499997 -0.37499997 0.37499997 1.06452594E-13 9.6267185E-14 -1 255 125 0 255
0.3250001 -0.104289316 0.37499997 1.06452594E-13 9.6267185E-14 -1 255 125 0 255
0.3250001 0.10428929 0.37499997 1.06452594E-13 9.6267185E-14 -1 255 125 0 255
0.104289316 -0.3250001 0.37499997 1.06452594E-13 9.6267185E-14 -1 255 125 0 255
-0.37499997 -0.37499997 0.37499997 1.06452594E-13 9.6267185E-14 -1 255 125 0 255
-0.104289316 -0.3250001 0.37499997 1.06452594E-13 9.6267185E-14 -1 255 125 0 255
-0.3250001 -0.104289316 0.37499997 1.06452594E-13 9.6267185E-14 -1 255 125 0 255
-0.37499997 0.37499997 0.37499997 1.06452594E-13 9.6267185E-14 -1 255 125 0 255
0.37499997 0.37499997 0.37499997 1.06452594E-13 9.6267185E-14 -1 255 125 0 255
0.104289316 0.3250001 0.37499997 1.06452594E-13 9.6267185E-14 -1 255 125 0 255
-0.104289316 0.3250001 0.37499997 1.06452594E-13 9.6267185E-14 -1 255 125 0 255
-0.3250001 0.10428929 0.37499997 1.06452594E-13 9.6267185E-14 -1 255 125 0 255
0.37499997 -0.3250001 0.12499997 -1 4.967262E-09 -1.036919E-15 255 125 0 255
0.37499997 -0.3250001 -0.125 -1 4.967262E-09 -1.036919E-15 255 125 0 255
0.37499997 -0.3250001 0.3250001 -1 4.967262E-09 -1.036919E-15 255 125 0 255
0.37499997 -0.37499997 0.37499997 -1 4.967262E-09 -1.036919E-15 255 125 0 255
0.37499997 -0.37499997 -0.37499997 -1 4.967262E-09 -1.036919E-15 255 125 0 255
0.37499997 0.37499997 0.37499997 -1 4.967262E-09 -1.036919E-15 255 125 0 255
0.37499997 -0.125 0.3250001 -1 4.967262E-09 -1.036919E-15 255 125 0 255
0.37499997 0.125 0.3250001 -1 4.967262E-09 -1.036919E-15 255 125 0 255
0.37499997 0.3250001 0.3250001 -1 4.967262E-09 -1.036919E-15 255 125 0 255
0.37499997 0.3250001 0.12499997 -1 4.967262E-09 -1.036919E-15 255 125 0 255
0.37499997 0.37499997 -0.37499997 -1 4.967262E-09 -1.036919E-15 255 125 0 255
0.37499997 -0.3250001 -0.3250001 -1 4.967262E-09 -1.036919E-15 255 125 0 255
0.37499997 -0.125 -0.3250001 -1 4.967262E-09 -1.036919E-15 255 125 0 255
0.37499997 0.12499997 -0.3250001 -1 4.967262E-09 -1.036919E-15 255 125 0 255
0.37499997 0.3250001 -0.3250001 -1 4.967262E-09 -1.036919E-15 255 125 0 255
0.37499997 0.3250001 -0.125 -1 4.967262E-09 -1.036919E-15 255 125 0 255
0.37499997 0.37499997 -0.37499997 -2.28592E-15 -4.967082E-09 1 255 125 0 255
0.3250001 0.104289316 -0.37499997 -2.28592E-15 -4.967082E-09 1 255 125 0 255
0.37499997 -0.37499997 -0.37499997 -2.28592E-15 -4.967082E-09 1 255 125 0 255
0.104289316 0.3250001 -0.37499997 -2.28592E-15 -4.967082E-09 1 255 125 0 255
-0.37499997 0.37499997 -0.37499997 -2.28592E-15 -4.967082E-09 1 255 125 0 255
-0.104289316 0.3250001 -0.37499997 -2.28592E-15 -4.967082E-09 1 255 125 0 255
-0.3250001 0.104289316 -0.37499997 -2.28592E-15 -4.967082E-09 1 255 125 0 255
-0.3250001 -0.104289316 -0.37499997 -2.28592E-15 -4.967082E-09 1 255 125 0 255
0.104289316 -0.3250001 -0.37499997 -2.28592E-15 -4.967082E-09 1 255 125 0 255
-0.37499997 -0.37499997 -0.37499997 -2.28592E-15 -4.967082E-09 1 255 125 0 255
0.3250001 -0.104289316 -0.37499997 -2.28592E-15 -4.967082E-09 1 255 125 0 255
-0.104289316 -0.3250001 -0.37499997 -2.28592E-15 -4.967082E-09 1 255 125 0 255
0.37499997 0.37499997 -0.37499997 -4.967262E-09 -1 1.4901E-08 255 125 0 255
0.104289316 0.37499997 -0.3250001 -4.967262E-09 -1 1.4901E-08 255 125 0 255
-0.37499997 0.37499997 -0.37499997 -4.967262E-09 -1 1.4901E-08 255 125 0 255
0.3250001 0.37499997 -0.104289316 -4.967262E-09 -1 1.4901E-08 255 125 0 255
0.37499997 0.37499997 0.37499997 -4.967262E-09 -1 1.4901E-08 255 125 0 255
-0.104289316 0.37499997 -0.3250001 -4.967262E-09 -1 1.4901E-08 255 125 0 255
0.3250001 0.37499997 0.104289316 -4.967262E-09 -1 1.4901E-08 255 125 0 255
0.104289316 0.37499997 0.3250001 -4.967262E-09 -1 1.4901E-08 255 125 0 255
-0.37499997 0.37499997 0.37499997 -4.967262E-09 -1 1.4901E-08 255 125 0 255
-0.3250001 0.37499997 -0.104289316 -4.967262E-09 -1 1.4901E-08 255 125 0 255
-0.3250001 0.37499997 0.104289316 -4.967262E-09 -1 1.4901E-08 255 125 0 255
-0.104289316 0.37499997 0.3250001 -4.967262E-09 -1 1.4901E-08 255 125 0 255
-0.37499997 0.3250001 -0.125 4.967262E-09 1 -5.7740576E-14 255 125 0 255
-0.175 0.3250001 -0.3250001 4.967262E-09 1 -5.7740576E-14 255 125 0 255
-0.37499997 0.3250001 -0.3250001 4.967262E-09 1 -5.7740576E-14 255 125 0 255
-0.37499997 0.12499997 -0.3250001 3.1975418E-13 -4.042581E-13 -1 255 125 0 255
-0.37499997 0.3250001 -0.3250001 3.1975418E-13 -4.042581E-13 -1 255 125 0 255
-0.175 0.3250001 -0.3250001 3.1975418E-13 -4.042581E-13 -1 255 125 0 255
0.175 0.3250001 0.3250001 -3.1975418E-13 -3.3209159E-13 1 255 125 0 255
0.37499997 0.125 0.3250001 -3.1975418E-13 -3.3209159E-13 1 255 125 0 255
0.37499997 0.3250001 0.3250001 -3.1975418E-13 -3.3209159E-13 1 255 125 0 255
0.37499997 0.3250001 0.3250001 4.967262E-09 1 -1.4425891E-14 255 125 0 255
0.37499997 0.3250001 0.12499997 4.967262E-09 1 -1.4425891E-14 255 125 0 255
0.175 0.3250001 0.3250001 4.967262E-09 1 -1.4425891E-14 255 125 0 255
-0.37499997 -0.3250001 0.3250001 -4.967262E-09 -1 -1.445056E-14 255 125 0 255
-0.37499997 -0.3250001 0.12499997 -4.967262E-09 -1 -1.445056E-14 255 125 0 255
-0.175 -0.3250001 0.3250001 -4.967262E-09 -1 -1.445056E-14 255 125 0 255
-0.37499997 -0.3250001 0.3250001 3.151824E-13 3.320669E-13 1 255 125 0 255
-0.175 -0.3250001 0.3250001 3.151824E-13 3.320669E-13 1 255 125 0 255
-0.37499997 -0.125 0.3250001 3.151824E-13 3.320669E-13 1 255 125 0 255
-0.37499997 0.3250001 0.12499997 0.70710677 9.658454E-09 -0.70710677 86 86 86 255
-0.175 0.3250001 0.3250001 0.70710677 9.658454E-09 -0.70710677 86 86 86 255
-0.37499997 0.125 0.12499997 0.70710677 9.658454E-09 -0.70710677 86 86 86 255
-0.37499997 -0.125 -0.12500001 1 -4.967262E-09 9.814075E-16 86 86 86 255
-0.37499997 -0.3250001 0.12499997 1 -4.967262E-09 9.814075E-16 86 86 86 255
-0.37499997 -0.3250001 -0.125 1 -4.967262E-09 9.814075E-16 86 86 86 255
-0.37499997 -0.125 0.12499997 1 -4.967262E-09 9.814075E-16 86 86 86 255
-0.37499997 0.12499997 -0.3250001 1 -4.967262E-09 9.814075E-16 86 86 86 255
-0.37499997 -0.125 -0.3250001 1 -4.967262E-09 9.814075E-16 86 86 86 255
-0.37499997 0.125 -0.125 1 -4.967262E-09 9.814075E-16 86 86 86 255
-0.37499997 0.125 0.12499997 1 -4.967262E-09 9.814075E-16 86 86 86 255
-0.37499997 0.3250001 0.12499997 1 -4.967262E-09 9.814075E-16 86 86 86 255
-0.37499997 0.3250001 -0.125 1 -4.967262E-09 9.814075E-16 86 86 86 255
-0.37499997 0.125 0.3250001 1 -4.967262E-09 9.814075E-16 86 86 86 255
-0.37499997 -0.125 0.3250001 1 -4.967262E-09 9.814075E-16 86 86 86 255
-0.37499997 0.125 0.3250001 0.70710677 -0.70710677 2.6341578E-08 86 86 86 255
-0.37499997 0.125 0.12499997 0.70710677 -0.70710677 2.6341578E-08 86 86 86 255
-0.175 0.3250001 0.3250001 0.70710677 -0.70710677 2.6341578E-08 86 86 86 255
-0.37499997 -0.125 0.12499997 0.70710677 -2.9853766E-08 -0.70710677 86 86 86 255
-0.175 -0.3250001 0.3250001 0.70710677 -2.9853766E-08 -0.70710677 86 86 86 255
-0.37499997 -0.3250001 0.12499997 0.70710677 -2.9853766E-08 -0.70710677 86 86 86 255
-0.37499997 -0.3250001 -0.125 0.70710677 1.4927169E-08 0.70710677 86 86 86 255
-0.175 -0.3250001 -0.3250001 0.70710677 1.4927169E-08 0.70710677 86 86 86 255
-0.37499997 -0.125 -0.12500001 0.70710677 1.4927169E-08 0.70710677 86 86 86 255
-0.37499997 -0.125 -0.12500001 0.70710677 0.70710677 -1.8438758E-08 86 86 86 255
-0.175 -0.3250001 -0.3250001 0.70710677 0.70710677 -1.8438758E-08 86 86 86 255
-0.37499997 -0.125 -0.3250001 0.70710677 0.70710677 -1.8438758E-08 86 86 86 255
-0.37499997 0.125 -0.125 0.70710677 -0.70710677 2.6341468E-08 86 86 86 255
-0.37499997 0.12499997 -0.3250001 0.70710677 -0.70710677 2.6341468E-08 86 86 86 255
-0.175 0.3250001 -0.3250001 0.70710677 -0.70710677 2.6341468E-08 86 86 86 255
-0.37499997 0.3250001 -0.125 0.70710677 -1.6683707E-08 0.70710677 86 86 86 255
-0.37499997 0.125 -0.125 0.70710677 -1.6683707E-08 0.70710677 86 86 86 255
-0.175 0.3250001 -0.3250001 0.70710677 -1.6683707E-08 0.70710677 86 86 86 255
-0.37499997 -0.125 0.12499997 0.70710677 0.70710677 1.3171008E-08 86 86 86 255
-0.37499997 -0.125 0.3250001 0.70710677 0.70710677 1.3171008E-08 86 86 86 255
-0.175 -0.3250001 0.3250001 0.70710677 0.70710677 1.3171008E-08 86 86 86 255
0.175 -0.3250001 -0.3250001 2.4802088E-15 2.9802251E-08 -1 255 125 0 255
0.37499997 -0.125 -0.3250001 2.4802088E-15 2.9802251E-08 -1 255 125 0 255
0.37499997 -0.3250001 -0.3250001 2.4802088E-15 2.9802251E-08 -1 255 125 0 255
0.37499997 -0.3250001 -0.125 -4.9675797E-09 -1 -2.980192E-08 255 125 0 255
0.175 -0.3250001 -0.3250001 -4.9675797E-09 -1 -2.980192E-08 255 125 0 255
0.37499997 -0.3250001 -0.3250001 -4.9675797E-09 -1 -2.980192E-08 255 125 0 255
-0.37499997 0.3250001 0.3250001 4.967262E-09 1 -1.4425891E-14 255 125 0 255
-0.175 0.3250001 0.3250001 4.967262E-09 1 -1.4425891E-14 255 125 0 255
-0.37499997 0.3250001 0.12499997 4.967262E-09 1 -1.4425891E-14 255 125 0 255
-0.37499997 0.125 0.3250001 3.151824E-13 -3.3209159E-13 1 255 125 0 255
-0.175 0.3250001 0.3250001 3.151824E-13 -3.3209159E-13 1 255 125 0 255
-0.37499997 0.3250001 0.3250001 3.151824E-13 -3.3209159E-13 1 255 125 0 255
-0.37499997 -0.3250001 -0.3250001 2.4802088E-15 2.9802251E-08 -1 255 125 0 255
-0.37499997 -0.125 -0.3250001 2.4802088E-15 2.9802251E-08 -1 255 125 0 255
-0.175 -0.3250001 -0.3250001 2.4802088E-15 2.9802251E-08 -1 255 125 0 255
-0.37499997 -0.3250001 -0.125 -4.966945E-09 -1 -2.980192E-08 255 125 0 255
-0.37499997 -0.3250001 -0.3250001 -4.966945E-09 -1 -2.980192E-08 255 125 0 255
-0.175 -0.3250001 -0.3250001 -4.966945E-09 -1 -2.980192E-08 255 125 0 255
0.175 -0.3250001 0.3250001 -3.1975418E-13 3.320669E-13 1 255 125 0 255
0.37499997 -0.3250001 0.3250001 -3.1975418E-13 3.320669E-13 1 255 125 0 255
0.37499997 -0.125 0.3250001 -3.1975418E-13 3.320669E-13 1 255 125 0 255
0.37499997 -0.3250001 0.3250001 -4.967262E-09 -1 -1.445056E-14 255 125 0 255
0.175 -0.3250001 0.3250001 -4.967262E-09 -1 -1.445056E-14 255 125 0 255
0.37499997 -0.3250001 0.12499997 -4.967262E-09 -1 -1.445056E-14 255 125 0 255
0.37499997 -0.125 0.12499997 -0.70710677 -2.2829308E-08 -0.70710677 86 86 86 255
0.37499997 -0.3250001 0.12499997 -0.70710677 -2.2829308E-08 -0.70710677 86 86 86 255
0.175 -0.3250001 0.3250001 -0.70710677 -2.2829308E-08 -0.70710677 86 86 86 255
0.37499997 0.12499997 -0.3250001 -1 4.967262E-09 -8.7038517E-16 86 86 86 255
0.37499997 -0.125 -0.3250001 -1 4.967262E-09 -8.7038517E-16 86 86 86 255
0.37499997 -0.125 -0.12500001 -1 4.967262E-09 -8.7038517E-16 86 86 86 255
0.37499997 -0.3250001 0.12499997 -1 4.967262E-09 -8.7038517E-16 86 86 86 255
0.37499997 -0.3250001 -0.125 -1 4.967262E-09 -8.7038517E-16 86 86 86 255
0.37499997 -0.125 0.12499997 -1 4.967262E-09 -8.7038517E-16 86 86 86 255
0.37499997 0.125 0.3250001 -1 4.967262E-09 -8.7038517E-16 86 86 86 255
0.37499997 -0.125 0.3250001 -1 4.967262E-09 -8.7038517E-16 86 86 86 255
0.37499997 0.12499997 0.12499997 -1 4.967262E-09 -8.7038517E-16 86 86 86 255
0.37499997 0.125 -0.125 -1 4.967262E-09 -8.7038517E-16 86 86 86 255
0.37499997 0.3250001 0.12499997 -1 4.967262E-09 -8.7038517E-16 86 86 86 255
0.37499997 0.3250001 -0.125 -1 4.967262E-09 -8.7038517E-16 86 86 86 255
0.175 -0.3250001 0.3250001 -0.70710677 0.70710677 1.3171008E-08 86 86 86 255
0.37499997 -0.125 0.3250001 -0.70710677 0.70710677 1.3171008E-08 86 86 86 255
0.37499997 -0.125 0.12499997 -0.70710677 0.70710677 1.3171008E-08 86 86 86 255
0.175 -0.3250001 -0.3250001 -0.70710677 2.1951937E-08 0.70710677 86 86 86 255
0.37499997 -0.3250001 -0.125 -0.70710677 2.1951937E-08 0.70710677 86 86 86 255
0.37499997 -0.125 -0.12500001 -0.70710677 2.1951937E-08 0.70710677 86 86 86 255
0.175 0.3250001 0.3250001 -0.70710677 -0.70710677 2.6341578E-08 86 86 86 255
0.37499997 0.12499997 0.12499997 -0.70710677 -0.70710677 2.6341578E-08 86 86 86 255
0.37499997 0.125 0.3250001 -0.70710677 -0.70710677 2.6341578E-08 86 86 86 255
0.175 0.3250001 0.3250001 -0.70710677 1.6683497E-08 -0.70710677 86 86 86 255
0.37499997 0.3250001 0.12499997 -0.70710677 1.6683497E-08 -0.70710677 86 86 86 255
0.37499997 0.12499997 0.12499997 -0.70710677 1.6683497E-08 -0.70710677 86 86 86 255
0.175 0.3250001 -0.3250001 -0.70710677 -9.6589465E-09 0.70710677 86 86 86 255
0.37499997 0.125 -0.125 -0.70710677 -9.6589465E-09 0.70710677 86 86 86 255
0.37499997 0.3250001 -0.125 -0.70710677 -9.6589465E-09 0.70710677 86 86 86 255
0.175 0.3250001 -0.3250001 -0.70710677 -0.70710677 2.6341468E-08 86 86 86 255
0.37499997 0.12499997 -0.3250001 -0.70710677 -0.70710677 2.6341468E-08 86 86 86 255
0.37499997 0.125 -0.125 -0.70710677 -0.70710677 2.6341468E-08 86 86 86 255
0.37499997 -0.125 -0.12500001 -0.70710677 0.70710677 -1.8438758E-08 86 86 86 255
0.37499997 -0.125 -0.3250001 -0.70710677 0.70710677 -1.8438758E-08 86 86 86 255
0.175 -0.3250001 -0.3250001 -0.70710677 0.70710677 -1.8438758E-08 86 86 86 255
0.37499997 0.3250001 -0.125 4.967262E-09 1 -5.7740576E-14 255 125 0 255
0.37499997 0.3250001 -0.3250001 4.967262E-09 1 -5.7740576E-14 255 125 0 255
0.175 0.3250001 -0.3250001 4.967262E-09 1 -5.7740576E-14 255 125 0 255
0.175 0.3250001 -0.3250001 -3.151824E-13 -4.042581E-13 -1 255 125 0 255
0.37499997 0.3250001 -0.3250001 -3.151824E-13 -4.042581E-13 -1 255 125 0 255
0.37499997 0.12499997 -0.3250001 -3.151824E-13 -4.042581E-13 -1 255 125 0 255
3 0 1 2
3 1 0 3
3 4 5 6
3 5 4 7
3 5 8 9
3 8 5 7
3 8 7 10
3 8 10 11
3 11 10 12
3 11 13 8
3 13 11 14
3 13 14 15
3 16 17 18
3 17 16 19
3 20 21 22
3 21 20 23
3 24 25 26
3 25 24 27
3 28 29 30
3 29 28 31
3 32 33 34
3 33 32 35
3 36 37 38
3 37 36 39
3 40 41 42
3 41 40 43
3 44 45 46
3 45 44 47
3 48 49 50
3 49 48 51
3 52 53 54
3 53 52 55
3 56 57 58
3 57 56 59
3 60 61 62
3 61 60 63
3 64 65 66
3 65 64 67
3 68 69 70
3 69 68 71
3 72 73 74
3 73 72 75
3 76 77 78
3 77 76 79
3 80 81 82
3 81 80 83
3 84 85 86
3 85 84 87
3 88 84 89
3 84 88 87
3 87 88 90
3 90 88 91
3 92 93 91
3 93 92 94
3 90 93 95
3 93 90 91
3 96 97 98
3 97 96 99
3 100 101 102
3 101 100 103
3 104 105 106
3 105 104 107
3 108 109 110
3 109 108 111
3 112 113 114
3 113 112 115
3 116 117 118
3 117 116 119
3 120 121 122
3 121 120 123
3 123 120 124
3 122 121 125
3 123 124 126
3 126 124 127
3 127 124 128
3 122 129 130
3 129 122 125
3 130 129 131
3 130 131 128
3 130 128 124
3 132 133 134
3 133 132 135
3 133 135 136
3 136 135 137
3 137 135 138
3 138 135 139
3 139 135 140
3 140 135 141
3 142 143 144
3 143 142 132
3 143 132 134
3 143 134 145
3 144 143 146
3 144 146 147
3 144 147 141
3 144 141 135
3 148 149 150
3 149 148 151
3 151 148 152
3 151 152 153
3 153 152 154
3 154 152 155
3 156 157 155
3 157 156 150
3 150 156 148
3 155 157 158
3 155 158 159
3 155 159 154
3 160 161 162
3 163 162 164
3 162 163 165
3 164 162 161
3 162 165 166
3 166 165 167
3 167 165 168
3 168 165 169
3 169 165 170
3 164 171 170
3 171 164 161
3 170 171 172
3 170 172 173
3 170 173 174
3 170 174 175
3 170 175 169
3 176 177 178
3 177 176 179
3 179 176 180
3 179 180 181
3 181 180 182
3 182 180 183
3 178 184 185
3 184 178 186
3 186 178 177
3 185 184 187
3 185 187 183
3 185 183 180
3 188 189 190
3 189 188 191
3 191 188 192
3 190 189 193
3 191 192 194
3 194 192 195
3 195 192 196
3 190 197 196
3 197 190 193
3 196 197 198
3 196 198 199
3 196 199 195
3 200 201 202
3 203 204 205
3 206 207 208
3 209 210 211
3 212 213 214
3 215 216 217
3 218 219 220
3 221 222 223
3 222 221 224
3 225 221 226
3 227 228 225
3 228 227 229
3 229 227 230
3 224 231 232
3 231 224 221
3 231 221 228
3 228 221 225
3 233 234 235
3 236 237 238
3 239 240 241
3 242 243 244
3 245 246 247
3 248 249 250
3 251 252 253
3 254 255 256
3 257 258 259
3 260 261 262
3 263 264 265
3 266 267 268
3 269 270 271
3 272 273 274
3 275 276 277
3 278 279 280
3 281 282 283
3 284 283 285
3 283 284 286
3 287 286 288
3 286 287 283
3 283 287 289
3 283 289 281
3 289 290 281
3 290 289 291
3 290 291 292
3 293 294 295
3 296 297 298
3 299 300 301
3 302 303 304
3 305 306 307
3 308 309 310
3 311 312 313
3 314 315 316
3 317 318 319

