ply
format ascii 1.0
commentY29udmVydGVyIGJ5IENvZGVMZW9wYXJk
comment Original mesh name: 'C:\Program Files (x86)\Steam\steamapps\common\Stormworks\rom\meshes\component_wheel_5_plate.mesh'
comment SubMesh index: 0
comment SubMesh name: 'ID14'
comment Shader: Opaque (0)
element vertex 278
property float x
property float y
property float z
property float nx
property float ny
property float nz
property uchar red
property uchar green
property uchar blue
property uchar alpha
element face 164
property list uchar ushort vertex_index
end_header
0.12499997 0.11140737 0.6075481 -1 4.6006276E-06 5.2701957E-06 198 198 198 255
0.12499988 0.10390737 0.59436125 -1 4.6006276E-06 5.2701957E-06 198 198 198 255
0.125 0.10390737 0.6207351 -1 4.6006276E-06 5.2701957E-06 198 198 198 255
0.12499994 0.08890737 0.6207351 -1 4.6006276E-06 5.2701957E-06 198 198 198 255
0.124999836 0.08890737 0.59436125 -1 4.6006276E-06 5.2701957E-06 198 198 198 255
0.12499986 0.08140737 0.6075481 -1 4.6006276E-06 5.2701957E-06 198 198 198 255
0.116758026 0.08140741 0.6075482 5.497234E-06 0.8627434 0.5056421 198 198 198 255
0.12499986 0.08140737 0.6075481 5.497234E-06 0.8627434 0.5056421 198 198 198 255
0.116758004 0.08890741 0.59436125 5.497234E-06 0.8627434 0.5056421 198 198 198 255
0.124999836 0.08890737 0.59436125 5.497234E-06 0.8627434 0.5056421 198 198 198 255
0.12499988 0.10390737 0.59436125 4.288885E-06 -1.5722164E-15 1 198 198 198 255
0.11675806 0.103907414 0.59436125 4.288885E-06 -1.5722164E-15 1 198 198 198 255
0.124999836 0.08890737 0.59436125 4.288885E-06 -1.5722164E-15 1 198 198 198 255
0.116758004 0.08890741 0.59436125 4.288885E-06 -1.5722164E-15 1 198 198 198 255
0.11675814 0.111407414 0.6075482 -1.1599525E-06 -0.8627434 0.5056421 198 198 198 255
0.11675806 0.103907414 0.59436125 -1.1599525E-06 -0.8627434 0.5056421 198 198 198 255
0.12499997 0.11140737 0.6075481 -1.1599525E-06 -0.8627434 0.5056421 198 198 198 255
0.12499988 0.10390737 0.59436125 -1.1599525E-06 -0.8627434 0.5056421 198 198 198 255
0.116758175 0.103907414 0.62073517 -5.497234E-06 -0.8627434 -0.5056421 198 198 198 255
0.11675814 0.111407414 0.6075482 -5.497234E-06 -0.8627434 -0.5056421 198 198 198 255
0.125 0.10390737 0.6207351 -5.497234E-06 -0.8627434 -0.5056421 198 198 198 255
0.12499997 0.11140737 0.6075481 -5.497234E-06 -0.8627434 -0.5056421 198 198 198 255
0.125 0.10390737 0.6207351 -4.288885E-06 1.5722164E-15 -1 198 198 198 255
0.12499994 0.08890737 0.6207351 -4.288885E-06 1.5722164E-15 -1 198 198 198 255
0.116758175 0.103907414 0.62073517 -4.288885E-06 1.5722164E-15 -1 198 198 198 255
0.116758116 0.08890741 0.62073517 -4.288885E-06 1.5722164E-15 -1 198 198 198 255
0.116758116 0.08890741 0.62073517 1.1599525E-06 0.8627434 -0.5056421 198 198 198 255
0.12499994 0.08890737 0.6207351 1.1599525E-06 0.8627434 -0.5056421 198 198 198 255
0.116758026 0.08140741 0.6075482 1.1599525E-06 0.8627434 -0.5056421 198 198 198 255
0.12499986 0.08140737 0.6075481 1.1599525E-06 0.8627434 -0.5056421 198 198 198 255
-0.12500125 0.08890737 0.556294 1 4.6006276E-06 5.2701957E-06 198 198 198 255
-0.12500136 0.08890737 0.5826679 1 4.6006276E-06 5.2701957E-06 198 198 198 255
-0.12500128 0.08140737 0.56948096 1 4.6006276E-06 5.2701957E-06 198 198 198 255
-0.1250013 0.10390737 0.556294 1 4.6006276E-06 5.2701957E-06 198 198 198 255
-0.12500142 0.10390737 0.5826679 1 4.6006276E-06 5.2701957E-06 198 198 198 255
-0.1250014 0.11140737 0.56948096 1 4.6006276E-06 5.2701957E-06 198 198 198 255
-0.12500128 0.08140737 0.56948096 -5.497234E-06 0.8627434 0.5056421 198 198 198 255
-0.11675942 0.08890741 0.5562941 -5.497234E-06 0.8627434 0.5056421 198 198 198 255
-0.12500125 0.08890737 0.556294 -5.497234E-06 0.8627434 0.5056421 198 198 198 255
-0.11675945 0.08140741 0.56948096 -5.497234E-06 0.8627434 0.5056421 198 198 198 255
-0.11675948 0.103907414 0.5562941 -4.288885E-06 -1.5722164E-15 1 198 198 198 255
-0.12500125 0.08890737 0.556294 -4.288885E-06 -1.5722164E-15 1 198 198 198 255
-0.11675942 0.08890741 0.5562941 -4.288885E-06 -1.5722164E-15 1 198 198 198 255
-0.1250013 0.10390737 0.556294 -4.288885E-06 -1.5722164E-15 1 198 198 198 255
-0.11675948 0.103907414 0.5562941 1.1599525E-06 -0.8627434 0.5056421 198 198 198 255
-0.1250014 0.11140737 0.56948096 1.1599525E-06 -0.8627434 0.5056421 198 198 198 255
-0.1250013 0.10390737 0.556294 1.1599525E-06 -0.8627434 0.5056421 198 198 198 255
-0.11675956 0.111407414 0.56948096 1.1599525E-06 -0.8627434 0.5056421 198 198 198 255
-0.11675956 0.111407414 0.56948096 5.497234E-06 -0.8627434 -0.5056421 198 198 198 255
-0.12500142 0.10390737 0.5826679 5.497234E-06 -0.8627434 -0.5056421 198 198 198 255
-0.1250014 0.11140737 0.56948096 5.497234E-06 -0.8627434 -0.5056421 198 198 198 255
-0.1167596 0.103907414 0.58266795 5.497234E-06 -0.8627434 -0.5056421 198 198 198 255
-0.12500136 0.08890737 0.5826679 4.288885E-06 1.5722164E-15 -1 198 198 198 255
-0.1167596 0.103907414 0.58266795 4.288885E-06 1.5722164E-15 -1 198 198 198 255
-0.11675954 0.08890741 0.58266795 4.288885E-06 1.5722164E-15 -1 198 198 198 255
-0.12500142 0.10390737 0.5826679 4.288885E-06 1.5722164E-15 -1 198 198 198 255
-0.12500136 0.08890737 0.5826679 -1.1599525E-06 0.8627434 -0.5056421 198 198 198 255
-0.11675945 0.08140741 0.56948096 -1.1599525E-06 0.8627434 -0.5056421 198 198 198 255
-0.12500128 0.08140737 0.56948096 -1.1599525E-06 0.8627434 -0.5056421 198 198 198 255
-0.11675954 0.08890741 0.58266795 -1.1599525E-06 0.8627434 -0.5056421 198 198 198 255
-0.042931203 0.047969803 0.6603802 1 5.28084E-10 1.271565E-22 86 86 86 255
-0.042931203 -0.045569833 0.6723735 1 5.28084E-10 1.271565E-22 86 86 86 255
-0.042931203 -0.045569833 0.6603802 1 5.28084E-10 1.271565E-22 86 86 86 255
-0.042931203 0.047969803 0.6723735 1 5.28084E-10 1.271565E-22 86 86 86 255
-0.042931203 -0.045569833 0.6723735 -5.5176404E-14 1.152832E-13 -1 86 86 86 255
0.042930573 0.047969803 0.6723735 -5.5176404E-14 1.152832E-13 -1 86 86 86 255
0.042930573 -0.045569833 0.6723735 -5.5176404E-14 1.152832E-13 -1 86 86 86 255
-0.042931203 0.047969803 0.6723735 -5.5176404E-14 1.152832E-13 -1 86 86 86 255
-0.042931203 -0.045569833 0.6603802 -6.2556793E-10 1 1.805796E-13 86 86 86 255
0.042930573 -0.045569833 0.6723735 -6.2556793E-10 1 1.805796E-13 86 86 86 255
0.042930573 -0.045569833 0.6603802 -6.2556793E-10 1 1.805796E-13 86 86 86 255
-0.042931203 -0.045569833 0.6723735 -6.2556793E-10 1 1.805796E-13 86 86 86 255
0.042930573 0.047969803 0.6723735 6.293767E-10 -1 -2.407728E-13 86 86 86 255
-0.042931203 0.047969803 0.6603802 6.293767E-10 -1 -2.407728E-13 86 86 86 255
0.042930573 0.047969803 0.6603802 6.293767E-10 -1 -2.407728E-13 86 86 86 255
-0.042931203 0.047969803 0.6723735 6.293767E-10 -1 -2.407728E-13 86 86 86 255
0.042930573 0.047969803 0.6723735 -1 -5.280994E-10 1.203864E-13 86 86 86 255
0.042930573 -0.045569833 0.6603802 -1 -5.280994E-10 1.203864E-13 86 86 86 255
0.042930573 -0.045569833 0.6723735 -1 -5.280994E-10 1.203864E-13 86 86 86 255
0.042930573 0.047969803 0.6603802 -1 -5.280994E-10 1.203864E-13 86 86 86 255
-0.078676336 0.081586294 0.525 -1.576221E-10 1 1.3789469E-20 86 86 86 255
-0.04433539 0.081586294 0.6361694 -1.576221E-10 1 1.3789469E-20 86 86 86 255
-0.04433539 0.081586294 0.525 -1.576221E-10 1 1.3789469E-20 86 86 86 255
-0.078676336 0.081586294 0.6361694 -1.576221E-10 1 1.3789469E-20 86 86 86 255
-0.11675956 0.12469997 0.525 2.036737E-10 2.865153E-11 1 86 86 86 255
-0.04433539 0.081586294 0.525 2.036737E-10 2.865153E-11 1 86 86 86 255
-0.04433539 0.12469997 0.525 2.036737E-10 2.865153E-11 1 86 86 86 255
-0.078676336 0.081586294 0.525 2.036737E-10 2.865153E-11 1 86 86 86 255
-0.11675956 0.081586294 0.525 2.036737E-10 2.865153E-11 1 86 86 86 255
-0.078676336 0.081586294 0.6361694 -1 -6.91989E-10 9.856183E-11 86 86 86 255
-0.078676336 0.017774777 0.61332893 -1 -6.91989E-10 9.856183E-11 86 86 86 255
-0.078676336 0.017160943 0.6361694 -1 -6.91989E-10 9.856183E-11 86 86 86 255
-0.078676336 0.081586294 0.525 -1 -6.91989E-10 9.856183E-11 86 86 86 255
0.044334758 0.081586294 0.6361694 -4.341245E-11 7.122955E-10 1 86 86 86 255
0.07867571 0.017160943 0.6361694 -4.341245E-11 7.122955E-10 1 86 86 86 255
0.07867571 0.081586294 0.6361694 -4.341245E-11 7.122955E-10 1 86 86 86 255
0.044334758 0.06286678 0.6361694 -4.341245E-11 7.122955E-10 1 86 86 86 255
0.11675891 0.017160943 0.6361694 -4.341245E-11 7.122955E-10 1 86 86 86 255
0.09035368 -0.10552929 0.6361694 -4.341245E-11 7.122955E-10 1 86 86 86 255
0.11675891 -0.0628 0.6361694 -4.341245E-11 7.122955E-10 1 86 86 86 255
-3.1179664E-07 -0.14446832 0.6361694 -4.341245E-11 7.122955E-10 1 86 86 86 255
-0.04433539 0.06286678 0.6361694 -4.341245E-11 7.122955E-10 1 86 86 86 255
-0.04919406 -0.13431923 0.6361694 -4.341245E-11 7.122955E-10 1 86 86 86 255
-0.04433539 0.081586294 0.6361694 -4.341245E-11 7.122955E-10 1 86 86 86 255
-0.078676336 0.081586294 0.6361694 -4.341245E-11 7.122955E-10 1 86 86 86 255
-0.078676336 0.017160943 0.6361694 -4.341245E-11 7.122955E-10 1 86 86 86 255
-0.09035432 -0.10552929 0.6361694 -4.341245E-11 7.122955E-10 1 86 86 86 255
-0.11675956 0.017160943 0.6361694 -4.341245E-11 7.122955E-10 1 86 86 86 255
-0.11675956 -0.0628 0.6361694 -4.341245E-11 7.122955E-10 1 86 86 86 255
-0.04433539 0.12469997 0.64378273 -1 -4.296553E-10 9.490854E-11 86 86 86 255
-0.04433539 0.06286678 0.6361694 -1 -4.296553E-10 9.490854E-11 86 86 86 255
-0.04433539 0.06286678 0.64378273 -1 -4.296553E-10 9.490854E-11 86 86 86 255
-0.04433539 0.081586294 0.6361694 -1 -4.296553E-10 9.490854E-11 86 86 86 255
-0.04433539 0.081586294 0.525 -1 -4.296553E-10 9.490854E-11 86 86 86 255
-0.04433539 0.12469997 0.525 -1 -4.296553E-10 9.490854E-11 86 86 86 255
0.11675891 0.12469997 0.525 3.217817E-10 -1 -5.0036103E-10 86 86 86 255
0.044334758 0.12469997 0.64378273 3.217817E-10 -1 -5.0036103E-10 86 86 86 255
0.044334758 0.12469997 0.525 3.217817E-10 -1 -5.0036103E-10 86 86 86 255
0.11675891 0.12469997 0.6603802 3.217817E-10 -1 -5.0036103E-10 86 86 86 255
-0.04433539 0.12469997 0.64378273 3.217817E-10 -1 -5.0036103E-10 86 86 86 255
-0.11675956 0.12469997 0.525 3.217817E-10 -1 -5.0036103E-10 86 86 86 255
-0.04433539 0.12469997 0.525 3.217817E-10 -1 -5.0036103E-10 86 86 86 255
-0.11675956 0.12469997 0.6603802 3.217817E-10 -1 -5.0036103E-10 86 86 86 255
-0.11675956 0.017160943 0.6361694 1 5.153472E-10 -8.174535E-11 86 86 86 255
-0.11675956 -0.0628 0.6603802 1 5.153472E-10 -8.174535E-11 86 86 86 255
-0.11675956 -0.0628 0.6361694 1 5.153472E-10 -8.174535E-11 86 86 86 255
-0.11675956 0.12469997 0.6603802 1 5.153472E-10 -8.174535E-11 86 86 86 255
-0.11675956 0.017774777 0.61332893 1 5.153472E-10 -8.174535E-11 86 86 86 255
-0.11675956 0.081586294 0.525 1 5.153472E-10 -8.174535E-11 86 86 86 255
-0.11675956 0.12469997 0.525 1 5.153472E-10 -8.174535E-11 86 86 86 255
-0.11675956 0.081586294 0.525 -4.1431324E-11 0.8105991 0.5856015 86 86 86 255
-0.078676336 0.017774777 0.61332893 -4.1431324E-11 0.8105991 0.5856015 86 86 86 255
-0.078676336 0.081586294 0.525 -4.1431324E-11 0.8105991 0.5856015 86 86 86 255
-0.11675956 0.017774777 0.61332893 -4.1431324E-11 0.8105991 0.5856015 86 86 86 255
-0.11675956 0.017774777 0.61332893 -6.322402E-10 0.9996391 0.02686519 86 86 86 255
-0.078676336 0.017160943 0.6361694 -6.322402E-10 0.9996391 0.02686519 86 86 86 255
-0.078676336 0.017774777 0.61332893 -6.322402E-10 0.9996391 0.02686519 86 86 86 255
-0.11675956 0.017160943 0.6361694 -6.322402E-10 0.9996391 0.02686519 86 86 86 255
-0.11675956 -0.0628 0.6361694 0.8506769 0.5256888 -1.828163E-13 86 86 86 255
-0.09035432 -0.10552929 0.6603802 0.8506769 0.5256888 -1.828163E-13 86 86 86 255
-0.09035432 -0.10552929 0.6361694 0.8506769 0.5256888 -1.828163E-13 86 86 86 255
-0.11675956 -0.0628 0.6603802 0.8506769 0.5256888 -1.828163E-13 86 86 86 255
-0.09035432 -0.10552929 0.6361694 0.5731649 0.81944 -5.2529866E-13 86 86 86 255
-0.04919406 -0.13431923 0.6603802 0.5731649 0.81944 -5.2529866E-13 86 86 86 255
-0.04919406 -0.13431923 0.6361694 0.5731649 0.81944 -5.2529866E-13 86 86 86 255
-0.09035432 -0.10552929 0.6603802 0.5731649 0.81944 -5.2529866E-13 86 86 86 255
-0.04919406 -0.13431923 0.6361694 0.20205359 0.9793744 -7.7642336E-13 86 86 86 255
-3.1179664E-07 -0.14446832 0.6603802 0.20205359 0.9793744 -7.7642336E-13 86 86 86 255
-3.1179664E-07 -0.14446832 0.6361694 0.20205359 0.9793744 -7.7642336E-13 86 86 86 255
-0.04919406 -0.13431923 0.6603802 0.20205359 0.9793744 -7.7642336E-13 86 86 86 255
0.04919342 -0.13431923 0.6361694 5.078142E-14 -1.572295E-13 1 86 86 86 255
0.09035368 -0.10552929 0.6603802 -0.8506769 0.5256888 -8.401783E-13 86 86 86 255
0.11675891 -0.0628 0.6361694 -0.8506769 0.5256888 -8.401783E-13 86 86 86 255
0.09035368 -0.10552929 0.6361694 -0.8506769 0.5256888 -8.401783E-13 86 86 86 255
0.11675891 -0.0628 0.6603802 -0.8506769 0.5256888 -8.401783E-13 86 86 86 255
0.11675891 -0.0628 0.6603802 -1 -2.400947E-09 4.8785063E-11 86 86 86 255
0.11675891 0.017160943 0.6361694 -1 -2.400947E-09 4.8785063E-11 86 86 86 255
0.11675891 -0.0628 0.6361694 -1 -2.400947E-09 4.8785063E-11 86 86 86 255
0.11675891 0.12469997 0.6603802 -1 -2.400947E-09 4.8785063E-11 86 86 86 255
0.11675891 0.017774777 0.61332893 -1 -2.400947E-09 4.8785063E-11 86 86 86 255
0.11675891 0.081586294 0.525 -1 -2.400947E-09 4.8785063E-11 86 86 86 255
0.11675891 0.12469997 0.525 -1 -2.400947E-09 4.8785063E-11 86 86 86 255
0.07867571 0.017160943 0.6361694 6.327211E-10 0.9996391 0.02686519 86 86 86 255
0.11675891 0.017774777 0.61332893 6.327211E-10 0.9996391 0.02686519 86 86 86 255
0.07867571 0.017774777 0.61332893 6.327211E-10 0.9996391 0.02686519 86 86 86 255
0.11675891 0.017160943 0.6361694 6.327211E-10 0.9996391 0.02686519 86 86 86 255
0.07867571 0.017774777 0.61332893 1 -7.907721E-10 7.920916E-11 86 86 86 255
0.07867571 0.081586294 0.6361694 1 -7.907721E-10 7.920916E-11 86 86 86 255
0.07867571 0.017160943 0.6361694 1 -7.907721E-10 7.920916E-11 86 86 86 255
0.07867571 0.081586294 0.525 1 -7.907721E-10 7.920916E-11 86 86 86 255
0.044334758 0.081586294 0.6361694 1.576431E-10 1 -6.493782E-15 86 86 86 255
0.07867571 0.081586294 0.525 1.576431E-10 1 -6.493782E-15 86 86 86 255
0.044334758 0.081586294 0.525 1.576431E-10 1 -6.493782E-15 86 86 86 255
0.07867571 0.081586294 0.6361694 1.576431E-10 1 -6.493782E-15 86 86 86 255
0.044334758 0.12469997 0.525 1 4.154819E-10 -8.131419E-11 86 86 86 255
0.044334758 0.081586294 0.6361694 1 4.154819E-10 -8.131419E-11 86 86 86 255
0.044334758 0.081586294 0.525 1 4.154819E-10 -8.131419E-11 86 86 86 255
0.044334758 0.12469997 0.64378273 1 4.154819E-10 -8.131419E-11 86 86 86 255
0.044334758 0.06286678 0.6361694 1 4.154819E-10 -8.131419E-11 86 86 86 255
0.044334758 0.06286678 0.64378273 1 4.154819E-10 -8.131419E-11 86 86 86 255
0.044334758 0.06286678 0.6361694 7.0276135E-10 -1 -8.1850615E-09 86 86 86 255
-0.04433539 0.06286678 0.64378273 7.0276135E-10 -1 -8.1850615E-09 86 86 86 255
-0.04433539 0.06286678 0.6361694 7.0276135E-10 -1 -8.1850615E-09 86 86 86 255
0.044334758 0.06286678 0.64378273 7.0276135E-10 -1 -8.1850615E-09 86 86 86 255
0.044334758 0.12469997 0.64378273 -2.064616E-22 -8.4344824E-09 1 86 86 86 255
-0.04433539 0.06286678 0.64378273 -2.064616E-22 -8.4344824E-09 1 86 86 86 255
0.044334758 0.06286678 0.64378273 -2.064616E-22 -8.4344824E-09 1 86 86 86 255
-0.04433539 0.12469997 0.64378273 -2.064616E-22 -8.4344824E-09 1 86 86 86 255
-3.1179664E-07 -0.14446832 0.6603802 -3.512678E-14 7.206849E-14 -1 86 86 86 255
0.042930573 -0.045569833 0.6603802 -3.512678E-14 7.206849E-14 -1 86 86 86 255
0.04919342 -0.13431923 0.6603802 -3.512678E-14 7.206849E-14 -1 86 86 86 255
-0.042931203 -0.045569833 0.6603802 -3.512678E-14 7.206849E-14 -1 86 86 86 255
-0.04919406 -0.13431923 0.6603802 -3.512678E-14 7.206849E-14 -1 86 86 86 255
-0.042931203 0.047969803 0.6603802 -3.512678E-14 7.206849E-14 -1 86 86 86 255
0.09035368 -0.10552929 0.6603802 -3.512678E-14 7.206849E-14 -1 86 86 86 255
0.11675891 0.12469997 0.6603802 -3.512678E-14 7.206849E-14 -1 86 86 86 255
0.11675891 -0.0628 0.6603802 -3.512678E-14 7.206849E-14 -1 86 86 86 255
0.042930573 0.047969803 0.6603802 -3.512678E-14 7.206849E-14 -1 86 86 86 255
-0.11675956 0.12469997 0.6603802 -3.512678E-14 7.206849E-14 -1 86 86 86 255
-0.09035432 -0.10552929 0.6603802 -3.512678E-14 7.206849E-14 -1 86 86 86 255
-0.11675956 -0.0628 0.6603802 -3.512678E-14 7.206849E-14 -1 86 86 86 255
0.044334758 0.12469997 0.525 -2.036634E-10 2.864789E-11 1 86 86 86 255
0.11675891 0.081586294 0.525 -2.036634E-10 2.864789E-11 1 86 86 86 255
0.11675891 0.12469997 0.525 -2.036634E-10 2.864789E-11 1 86 86 86 255
0.07867571 0.081586294 0.525 -2.036634E-10 2.864789E-11 1 86 86 86 255
0.044334758 0.081586294 0.525 -2.036634E-10 2.864789E-11 1 86 86 86 255
-3.1179664E-07 -0.14446832 0.6361694 -0.20205359 0.9793744 -9.453565E-13 86 86 86 255
0.04919342 -0.13431923 0.6603802 -0.20205359 0.9793744 -9.453565E-13 86 86 86 255
0.04919342 -0.13431923 0.6361694 -0.20205359 0.9793744 -9.453565E-13 86 86 86 255
-3.1179664E-07 -0.14446832 0.6603802 -0.20205359 0.9793744 -9.453565E-13 86 86 86 255
0.04919342 -0.13431923 0.6603802 -0.5731649 0.81944 -9.844177E-13 86 86 86 255
0.09035368 -0.10552929 0.6361694 -0.5731649 0.81944 -9.844177E-13 86 86 86 255
0.04919342 -0.13431923 0.6361694 -0.5731649 0.81944 -9.844177E-13 86 86 86 255
0.09035368 -0.10552929 0.6603802 -0.5731649 0.81944 -9.844177E-13 86 86 86 255
0.07867571 0.017774777 0.61332893 4.195753E-11 0.8105991 0.5856015 86 86 86 255
0.11675891 0.081586294 0.525 4.195753E-11 0.8105991 0.5856015 86 86 86 255
0.07867571 0.081586294 0.525 4.195753E-11 0.8105991 0.5856015 86 86 86 255
0.11675891 0.017774777 0.61332893 4.195753E-11 0.8105991 0.5856015 86 86 86 255
-0.12500125 0.08890737 0.59436125 1 4.6006276E-06 5.2701957E-06 198 198 198 255
-0.12500136 0.08890737 0.6207351 1 4.6006276E-06 5.2701957E-06 198 198 198 255
-0.12500128 0.08140737 0.6075481 1 4.6006276E-06 5.2701957E-06 198 198 198 255
-0.1250013 0.10390737 0.59436125 1 4.6006276E-06 5.2701957E-06 198 198 198 255
-0.12500142 0.10390737 0.6207351 1 4.6006276E-06 5.2701957E-06 198 198 198 255
-0.1250014 0.11140737 0.6075481 1 4.6006276E-06 5.2701957E-06 198 198 198 255
-0.12500128 0.08140737 0.6075481 -5.497234E-06 0.8627434 0.5056421 198 198 198 255
-0.11675942 0.08890741 0.59436125 -5.497234E-06 0.8627434 0.5056421 198 198 198 255
-0.12500125 0.08890737 0.59436125 -5.497234E-06 0.8627434 0.5056421 198 198 198 255
-0.11675945 0.08140741 0.6075482 -5.497234E-06 0.8627434 0.5056421 198 198 198 255
-0.11675948 0.103907414 0.59436125 -4.288885E-06 -1.5722164E-15 1 198 198 198 255
-0.12500125 0.08890737 0.59436125 -4.288885E-06 -1.5722164E-15 1 198 198 198 255
-0.11675942 0.08890741 0.59436125 -4.288885E-06 -1.5722164E-15 1 198 198 198 255
-0.1250013 0.10390737 0.59436125 -4.288885E-06 -1.5722164E-15 1 198 198 198 255
-0.11675948 0.103907414 0.59436125 1.1599525E-06 -0.8627434 0.5056421 198 198 198 255
-0.1250014 0.11140737 0.6075481 1.1599525E-06 -0.8627434 0.5056421 198 198 198 255
-0.1250013 0.10390737 0.59436125 1.1599525E-06 -0.8627434 0.5056421 198 198 198 255
-0.11675956 0.111407414 0.6075482 1.1599525E-06 -0.8627434 0.5056421 198 198 198 255
-0.11675956 0.111407414 0.6075482 5.497234E-06 -0.8627434 -0.5056421 198 198 198 255
-0.12500142 0.10390737 0.6207351 5.497234E-06 -0.8627434 -0.5056421 198 198 198 255
-0.1250014 0.11140737 0.6075481 5.497234E-06 -0.8627434 -0.5056421 198 198 198 255
-0.1167596 0.103907414 0.62073517 5.497234E-06 -0.8627434 -0.5056421 198 198 198 255
-0.12500136 0.08890737 0.6207351 4.288885E-06 1.5722164E-15 -1 198 198 198 255
-0.1167596 0.103907414 0.62073517 4.288885E-06 1.5722164E-15 -1 198 198 198 255
-0.11675954 0.08890741 0.62073517 4.288885E-06 1.5722164E-15 -1 198 198 198 255
-0.12500142 0.10390737 0.6207351 4.288885E-06 1.5722164E-15 -1 198 198 198 255
-0.12500136 0.08890737 0.6207351 -1.1599525E-06 0.8627434 -0.5056421 198 198 198 255
-0.11675945 0.08140741 0.6075482 -1.1599525E-06 0.8627434 -0.5056421 198 198 198 255
-0.12500128 0.08140737 0.6075481 -1.1599525E-06 0.8627434 -0.5056421 198 198 198 255
-0.11675954 0.08890741 0.62073517 -1.1599525E-06 0.8627434 -0.5056421 198 198 198 255
0.12499997 0.11140737 0.56948096 -1 4.6006276E-06 5.2701957E-06 198 198 198 255
0.12499988 0.10390737 0.556294 -1 4.6006276E-06 5.2701957E-06 198 198 198 255
0.125 0.10390737 0.5826679 -1 4.6006276E-06 5.2701957E-06 198 198 198 255
0.12499994 0.08890737 0.5826679 -1 4.6006276E-06 5.2701957E-06 198 198 198 255
0.124999836 0.08890737 0.556294 -1 4.6006276E-06 5.2701957E-06 198 198 198 255
0.12499986 0.08140737 0.56948096 -1 4.6006276E-06 5.2701957E-06 198 198 198 255
0.116758026 0.08140741 0.56948096 5.497234E-06 0.8627434 0.5056421 198 198 198 255
0.12499986 0.08140737 0.56948096 5.497234E-06 0.8627434 0.5056421 198 198 198 255
0.116758004 0.08890741 0.5562941 5.497234E-06 0.8627434 0.5056421 198 198 198 255
0.124999836 0.08890737 0.556294 5.497234E-06 0.8627434 0.5056421 198 198 198 255
0.12499988 0.10390737 0.556294 4.288885E-06 -1.5722164E-15 1 198 198 198 255
0.11675806 0.103907414 0.5562941 4.288885E-06 -1.5722164E-15 1 198 198 198 255
0.124999836 0.08890737 0.556294 4.288885E-06 -1.5722164E-15 1 198 198 198 255
0.116758004 0.08890741 0.5562941 4.288885E-06 -1.5722164E-15 1 198 198 198 255
0.11675814 0.111407414 0.56948096 -1.1599525E-06 -0.8627434 0.5056421 198 198 198 255
0.11675806 0.103907414 0.5562941 -1.1599525E-06 -0.8627434 0.5056421 198 198 198 255
0.12499997 0.11140737 0.56948096 -1.1599525E-06 -0.8627434 0.5056421 198 198 198 255
0.12499988 0.10390737 0.556294 -1.1599525E-06 -0.8627434 0.5056421 198 198 198 255
0.116758175 0.103907414 0.58266795 -5.497234E-06 -0.8627434 -0.5056421 198 198 198 255
0.11675814 0.111407414 0.56948096 -5.497234E-06 -0.8627434 -0.5056421 198 198 198 255
0.125 0.10390737 0.5826679 -5.497234E-06 -0.8627434 -0.5056421 198 198 198 255
0.12499997 0.11140737 0.56948096 -5.497234E-06 -0.8627434 -0.5056421 198 198 198 255
0.125 0.10390737 0.5826679 -4.288885E-06 1.5722164E-15 -1 198 198 198 255
0.12499994 0.08890737 0.5826679 -4.288885E-06 1.5722164E-15 -1 198 198 198 255
0.116758175 0.103907414 0.58266795 -4.288885E-06 1.5722164E-15 -1 198 198 198 255
0.116758116 0.08890741 0.58266795 -4.288885E-06 1.5722164E-15 -1 198 198 198 255
0.116758116 0.08890741 0.58266795 1.1599525E-06 0.8627434 -0.5056421 198 198 198 255
0.12499994 0.08890737 0.5826679 1.1599525E-06 0.8627434 -0.5056421 198 198 198 255
0.116758026 0.08140741 0.56948096 1.1599525E-06 0.8627434 -0.5056421 198 198 198 255
0.12499986 0.08140737 0.56948096 1.1599525E-06 0.8627434 -0.5056421 198 198 198 255
3 0 1 2
3 2 1 3
3 1 4 3
3 5 3 4
3 6 7 8
3 9 8 7
3 10 11 12
3 13 12 11
3 14 15 16
3 17 16 15
3 18 19 20
3 21 20 19
3 22 23 24
3 25 24 23
3 26 27 28
3 29 28 27
3 30 31 32
3 31 30 33
3 31 33 34
3 34 33 35
3 36 37 38
3 37 36 39
3 40 41 42
3 41 40 43
3 44 45 46
3 45 44 47
3 48 49 50
3 49 48 51
3 52 53 54
3 53 52 55
3 56 57 58
3 57 56 59
3 60 61 62
3 61 60 63
3 64 65 66
3 65 64 67
3 68 69 70
3 69 68 71
3 72 73 74
3 73 72 75
3 76 77 78
3 77 76 79
3 80 81 82
3 81 80 83
3 84 85 86
3 85 84 87
3 87 84 88
3 89 90 91
3 90 89 92
3 93 94 95
3 94 93 96
3 97 98 99
3 98 97 94
3 98 94 100
3 100 94 96
3 100 96 101
3 100 101 102
3 102 101 103
3 102 103 104
3 102 104 105
3 105 106 102
3 106 105 107
3 106 107 108
3 109 110 111
3 110 109 112
3 112 109 113
3 113 109 114
3 115 116 117
3 116 115 118
3 116 118 119
3 119 120 121
3 120 119 122
3 122 119 118
3 123 124 125
3 124 123 126
3 126 123 127
3 126 127 128
3 126 128 129
3 130 131 132
3 131 130 133
3 134 135 136
3 135 134 137
3 138 139 140
3 139 138 141
3 142 143 144
3 143 142 145
3 146 147 148
3 147 146 149
3 100 150 98
3 151 152 153
3 152 151 154
3 155 156 157
3 156 155 158
3 156 158 159
3 159 158 160
3 160 158 161
3 162 163 164
3 163 162 165
3 166 167 168
3 167 166 169
3 170 171 172
3 171 170 173
3 174 175 176
3 175 174 177
3 178 177 179
3 177 178 175
3 180 181 182
3 181 180 183
3 184 185 186
3 185 184 187
3 188 189 190
3 189 188 191
3 191 188 192
3 191 192 193
3 194 195 196
3 195 194 197
3 195 197 198
3 197 194 190
3 197 190 189
3 198 197 193
3 198 193 192
3 198 192 199
3 198 199 200
3 201 202 203
3 202 201 204
3 204 201 205
3 206 207 208
3 207 206 209
3 210 211 212
3 211 210 213
3 214 215 216
3 215 214 217
3 218 219 220
3 219 218 221
3 219 221 222
3 222 221 223
3 224 225 226
3 225 224 227
3 228 229 230
3 229 228 231
3 232 233 234
3 233 232 235
3 236 237 238
3 237 236 239
3 240 241 242
3 241 240 243
3 244 245 246
3 245 244 247
3 248 249 250
3 250 249 251
3 249 252 251
3 253 251 252
3 254 255 256
3 257 256 255
3 258 259 260
3 261 260 259
3 262 263 264
3 265 264 263
3 266 267 268
3 269 268 267
3 270 271 272
3 273 272 271
3 274 275 276
3 277 276 275

