ply
format ascii 1.0
commentY29udmVydGVyIGJ5IENvZGVMZW9wYXJk
comment Original mesh name: 'C:\Program Files (x86)\Steam\steamapps\common\Stormworks\rom\meshes\component_window_thick.mesh'
comment SubMesh index: 0
comment SubMesh name: 'ID38'
comment Shader: Transparent (1)
element vertex 104
property float x
property float y
property float z
property float nx
property float ny
property float nz
property uchar red
property uchar green
property uchar blue
property uchar alpha
element face 12
property list uchar ushort vertex_index
end_header
0.105 -0.16999991 -0.5 1 -0 -0 160 160 199 128
0.105 -0.25 0.41999993 1 -0 -0 160 160 199 128
0.105 -0.25 -0.41999993 1 -0 -0 160 160 199 128
0.105 -0.16999991 0.5 1 -0 -0 160 160 199 128
0.105 0.16999991 -0.5 1 -0 -0 160 160 199 128
0.105 0.16999991 0.5 1 -0 -0 160 160 199 128
0.105 0.25 -0.41999993 1 -0 -0 160 160 199 128
0.105 0.25 0.41999993 1 -0 -0 160 160 199 128
0.125 -0.16999991 0.5 -1 -0 -0 160 160 199 128
0.125 -0.25 -0.41999993 -1 -0 -0 160 160 199 128
0.125 -0.25 0.41999993 -1 -0 -0 160 160 199 128
0.125 -0.16999991 -0.5 -1 -0 -0 160 160 199 128
0.125 0.16999991 0.5 -1 -0 -0 160 160 199 128
0.125 0.16999991 -0.5 -1 -0 -0 160 160 199 128
0.125 0.25 0.41999993 -1 -0 -0 160 160 199 128
0.125 0.25 -0.41999993 -1 -0 -0 160 160 199 128
0.125 -0.37499997 0.625 -1 -0 -0 55 125 0 255
0.125 -0.26999995 0.4282841 -1 -0 -0 55 125 0 255
0.125 -0.37499997 -0.625 -1 -0 -0 55 125 0 255
0.125 -0.17828438 0.52 -1 -0 -0 55 125 0 255
0.125 0.37499997 0.625 -1 -0 -0 55 125 0 255
0.125 0.17828412 0.52 -1 -0 -0 55 125 0 255
0.125 0.26999995 0.4282841 -1 -0 -0 55 125 0 255
0.125 0.26999995 -0.42828435 -1 -0 -0 55 125 0 255
0.125 -0.17828438 -0.52 -1 -0 -0 55 125 0 255
0.125 0.37499997 -0.625 -1 -0 -0 55 125 0 255
0.125 -0.26999995 -0.42828435 -1 -0 -0 55 125 0 255
0.125 0.17828412 -0.52 -1 -0 -0 55 125 0 255
-0.125 -0.26999995 -0.42828435 1 -0 -0 84 84 84 255
-0.125 -0.25 -0.41999993 1 -0 -0 84 84 84 255
-0.125 -0.26999995 0.4282841 1 -0 -0 84 84 84 255
-0.125 -0.17828438 -0.52 1 -0 -0 84 84 84 255
-0.125 -0.17000017 -0.5 1 -0 -0 84 84 84 255
-0.125 0.17828412 -0.52 1 -0 -0 84 84 84 255
-0.125 0.16999991 -0.5 1 -0 -0 84 84 84 255
-0.125 0.25 -0.41999993 1 -0 -0 84 84 84 255
-0.125 0.26999995 -0.42828435 1 -0 -0 84 84 84 255
-0.125 0.25 0.41999993 1 -0 -0 84 84 84 255
-0.125 -0.25 0.41999993 1 -0 -0 84 84 84 255
-0.125 -0.17828438 0.52 1 -0 -0 84 84 84 255
-0.125 -0.17000017 0.5 1 -0 -0 84 84 84 255
-0.125 0.17828412 0.52 1 -0 -0 84 84 84 255
-0.125 0.16999991 0.5 1 -0 -0 84 84 84 255
-0.125 0.26999995 0.4282841 1 -0 -0 84 84 84 255
-0.125 -0.37499997 -0.625 1 -0 -0 255 125 0 255
-0.125 -0.26999995 -0.42828435 1 -0 -0 255 125 0 255
-0.125 -0.37499997 0.625 1 -0 -0 255 125 0 255
-0.125 -0.17828438 -0.52 1 -0 -0 255 125 0 255
-0.125 0.37499997 -0.625 1 -0 -0 255 125 0 255
-0.125 0.17828412 -0.52 1 -0 -0 255 125 0 255
-0.125 0.26999995 -0.42828435 1 -0 -0 255 125 0 255
-0.125 0.26999995 0.4282841 1 -0 -0 255 125 0 255
-0.125 -0.17828438 0.52 1 -0 -0 255 125 0 255
-0.125 0.37499997 0.625 1 -0 -0 255 125 0 255
-0.125 -0.26999995 0.4282841 1 -0 -0 255 125 0 255
-0.125 0.17828412 0.52 1 -0 -0 255 125 0 255
0.125 -0.26999995 0.4282841 -1 -0 -0 84 84 84 255
0.125 -0.25 0.41999993 -1 -0 -0 84 84 84 255
0.125 -0.26999995 -0.42828435 -1 -0 -0 84 84 84 255
0.125 -0.17828438 0.52 -1 -0 -0 84 84 84 255
0.125 -0.17000017 0.5 -1 -0 -0 84 84 84 255
0.125 0.17828412 0.52 -1 -0 -0 84 84 84 255
0.125 0.16999991 0.5 -1 -0 -0 84 84 84 255
0.125 0.25 0.41999993 -1 -0 -0 84 84 84 255
0.125 0.26999995 0.4282841 -1 -0 -0 84 84 84 255
0.125 0.25 -0.41999993 -1 -0 -0 84 84 84 255
0.125 -0.25 -0.41999993 -1 -0 -0 84 84 84 255
0.125 -0.17828438 -0.52 -1 -0 -0 84 84 84 255
0.125 -0.17000017 -0.5 -1 -0 -0 84 84 84 255
0.125 0.17828412 -0.52 -1 -0 -0 84 84 84 255
0.125 0.16999991 -0.5 -1 -0 -0 84 84 84 255
0.125 0.26999995 -0.42828435 -1 -0 -0 84 84 84 255
0.125 -0.25 0.41999993 0 -1 -0 84 84 84 255
-0.125 -0.25 -0.41999993 0 -1 -0 84 84 84 255
0.125 -0.25 -0.41999993 0 -1 -0 84 84 84 255
-0.125 -0.25 0.41999993 0 -1 -0 84 84 84 255
0.125 -0.17000017 0.5 0 -0.7071079 0.7071057 84 84 84 255
-0.125 -0.25 0.41999993 0 -0.7071079 0.7071057 84 84 84 255
0.125 -0.25 0.41999993 0 -0.7071079 0.7071057 84 84 84 255
-0.125 -0.17000017 0.5 0 -0.7071079 0.7071057 84 84 84 255
0.125 -0.25 -0.41999993 0 -0.7071079 -0.7071057 84 84 84 255
-0.125 -0.17000017 -0.5 0 -0.7071079 -0.7071057 84 84 84 255
0.125 -0.17000017 -0.5 0 -0.7071079 -0.7071057 84 84 84 255
-0.125 -0.25 -0.41999993 0 -0.7071079 -0.7071057 84 84 84 255
-0.125 0.16999991 0.5 0 -0 1 84 84 84 255
0.125 -0.17000017 0.5 0 -0 1 84 84 84 255
0.125 0.16999991 0.5 0 -0 1 84 84 84 255
-0.125 -0.17000017 0.5 0 -0 1 84 84 84 255
-0.125 -0.17000017 -0.5 0 -0 -1 84 84 84 255
0.125 0.16999991 -0.5 0 -0 -1 84 84 84 255
0.125 -0.17000017 -0.5 0 -0 -1 84 84 84 255
-0.125 0.16999991 -0.5 0 -0 -1 84 84 84 255
-0.125 0.16999991 0.5 0 0.70710677 0.70710677 84 84 84 255
0.125 0.25 0.41999993 0 0.70710677 0.70710677 84 84 84 255
-0.125 0.25 0.41999993 0 0.70710677 0.70710677 84 84 84 255
0.125 0.16999991 0.5 0 0.70710677 0.70710677 84 84 84 255
-0.125 0.25 -0.41999993 0 0.70710677 -0.70710677 84 84 84 255
0.125 0.16999991 -0.5 0 0.70710677 -0.70710677 84 84 84 255
-0.125 0.16999991 -0.5 0 0.70710677 -0.70710677 84 84 84 255
0.125 0.25 -0.41999993 0 0.70710677 -0.70710677 84 84 84 255
-0.125 0.25 0.41999993 0 1 -0 84 84 84 255
0.125 0.25 -0.41999993 0 1 -0 84 84 84 255
-0.125 0.25 -0.41999993 0 1 -0 84 84 84 255
0.125 0.25 0.41999993 0 1 -0 84 84 84 255
3 0 1 2
3 1 0 3
3 3 0 4
3 3 4 5
3 5 4 6
3 5 6 7
3 8 9 10
3 9 8 11
3 11 8 12
3 11 12 13
3 13 12 14
3 13 14 15

