ply
format ascii 1.0
commentY29udmVydGVyIGJ5IENvZGVMZW9wYXJk
comment Original mesh name: 'C:\Program Files (x86)\Steam\steamapps\common\Stormworks\rom\meshes\component_button_flip_dynamic2.mesh'
comment SubMesh index: 0
comment SubMesh name: 'ID9'
comment Shader: Opaque (0)
element vertex 80
property float x
property float y
property float z
property float nx
property float ny
property float nz
property uchar red
property uchar green
property uchar blue
property uchar alpha
element face 10
property list uchar ushort vertex_index
end_header
-0.05499999 -0.055000093 0.125 0 1 -0 204 39 39 255
0.05500001 -0.055000093 0.105 0 1 -0 204 39 39 255
-0.05499999 -0.055000093 0.105 0 1 -0 204 39 39 255
0.05500001 -0.055000093 0.125 0 1 -0 204 39 39 255
-0.05499999 0.05499999 0.105 1 -0 -0 204 39 39 255
-0.05499999 -0.055000093 0.125 1 -0 -0 204 39 39 255
-0.05499999 -0.055000093 0.105 1 -0 -0 204 39 39 255
-0.05499999 0.05499999 0.125 1 -0 -0 204 39 39 255
-0.05499999 -0.055000093 0.125 0 -0 -1 204 39 39 255
0.05500001 0.05499999 0.125 0 -0 -1 204 39 39 255
0.05500001 -0.055000093 0.125 0 -0 -1 204 39 39 255
-0.05499999 0.05499999 0.125 0 -0 -1 204 39 39 255
0.05500001 0.05499999 0.125 -1 -0 -0 204 39 39 255
0.05500001 -0.055000093 0.105 -1 -0 -0 204 39 39 255
0.05500001 -0.055000093 0.125 -1 -0 -0 204 39 39 255
0.05500001 0.05499999 0.105 -1 -0 -0 204 39 39 255
0.05500001 0.05499999 0.125 0 -1 -0 204 39 39 255
-0.05499999 0.05499999 0.105 0 -1 -0 204 39 39 255
0.05500001 0.05499999 0.105 0 -1 -0 204 39 39 255
-0.05499999 0.05499999 0.125 0 -1 -0 204 39 39 255
0.05500001 -0.055000093 0.125 0 -1 -0 255 255 255 194
-0.05499999 -0.055000093 0.125 0 -1 -0 255 255 255 194
0.05500001 -0.055000093 0.105 0 -1 -0 255 255 255 194
-0.05499999 -0.055000093 0.105 0 -1 -0 255 255 255 194
-0.05499999 0.05499999 0.125 -1 -0 -0 255 255 255 194
-0.05499999 0.05499999 0.105 -1 -0 -0 255 255 255 194
-0.05499999 -0.055000093 0.125 -1 -0 -0 255 255 255 194
-0.05499999 -0.055000093 0.105 -1 -0 -0 255 255 255 194
-0.05499999 0.05499999 0.125 0 -0 1 255 255 255 194
-0.05499999 -0.055000093 0.125 0 -0 1 255 255 255 194
0.05500001 0.05499999 0.125 0 -0 1 255 255 255 194
0.05500001 -0.055000093 0.125 0 -0 1 255 255 255 194
0.05500001 0.05499999 0.105 1 -0 -0 255 255 255 194
0.05500001 0.05499999 0.125 1 -0 -0 255 255 255 194
0.05500001 -0.055000093 0.105 1 -0 -0 255 255 255 194
0.05500001 -0.055000093 0.125 1 -0 -0 255 255 255 194
-0.05499999 0.05499999 0.125 0 1 -0 255 255 255 194
0.05500001 0.05499999 0.125 0 1 -0 255 255 255 194
-0.05499999 0.05499999 0.105 0 1 -0 255 255 255 194
0.05500001 0.05499999 0.105 0 1 -0 255 255 255 194
-0.055549998 -0.055549998 0.1252 0 -0 -1 255 255 255 194
0.055549998 0.055549998 0.1252 0 -0 -1 255 255 255 194
0.055549998 -0.055549998 0.1252 0 -0 -1 255 255 255 194
-0.055549998 0.055549998 0.1252 0 -0 -1 255 255 255 194
-0.055549998 0.055549998 0.1252 0 -0 1 255 255 255 194
-0.055549998 -0.055549998 0.1252 0 -0 1 255 255 255 194
0.055549998 0.055549998 0.1252 0 -0 1 255 255 255 194
0.055549998 -0.055549998 0.1252 0 -0 1 255 255 255 194
-0.055549998 -0.055549998 0.1252 0 1 -0 255 255 255 194
0.055549998 -0.055549998 0.105 0 1 -0 255 255 255 194
-0.055549998 -0.055549998 0.105 0 1 -0 255 255 255 194
0.055549998 -0.055549998 0.1252 0 1 -0 255 255 255 194
0.055549998 -0.055549998 0.1252 0 -1 -0 255 255 255 194
-0.055549998 -0.055549998 0.1252 0 -1 -0 255 255 255 194
0.055549998 -0.055549998 0.105 0 -1 -0 255 255 255 194
-0.055549998 -0.055549998 0.105 0 -1 -0 255 255 255 194
-0.055549998 0.055549998 0.105 1 -0 -0 255 255 255 194
-0.055549998 -0.055549998 0.1252 1 -0 -0 255 255 255 194
-0.055549998 -0.055549998 0.105 1 -0 -0 255 255 255 194
-0.055549998 0.055549998 0.1252 1 -0 -0 255 255 255 194
-0.055549998 0.055549998 0.1252 -1 -0 -0 255 255 255 194
-0.055549998 0.055549998 0.105 -1 -0 -0 255 255 255 194
-0.055549998 -0.055549998 0.1252 -1 -0 -0 255 255 255 194
-0.055549998 -0.055549998 0.105 -1 -0 -0 255 255 255 194
0.055549998 0.055549998 0.1252 0 -1 -0 255 255 255 194
-0.055549998 0.055549998 0.105 0 -1 -0 255 255 255 194
0.055549998 0.055549998 0.105 0 -1 -0 255 255 255 194
-0.055549998 0.055549998 0.1252 0 -1 -0 255 255 255 194
-0.055549998 0.055549998 0.1252 0 1 -0 255 255 255 194
0.055549998 0.055549998 0.1252 0 1 -0 255 255 255 194
-0.055549998 0.055549998 0.105 0 1 -0 255 255 255 194
0.055549998 0.055549998 0.105 0 1 -0 255 255 255 194
0.055549998 0.055549998 0.1252 -1 -0 -0 255 255 255 194
0.055549998 -0.055549998 0.105 -1 -0 -0 255 255 255 194
0.055549998 -0.055549998 0.1252 -1 -0 -0 255 255 255 194
0.055549998 0.055549998 0.105 -1 -0 -0 255 255 255 194
0.055549998 0.055549998 0.105 1 -0 -0 255 255 255 194
0.055549998 0.055549998 0.1252 1 -0 -0 255 255 255 194
0.055549998 -0.055549998 0.105 1 -0 -0 255 255 255 194
0.055549998 -0.055549998 0.1252 1 -0 -0 255 255 255 194
3 0 1 2
3 1 0 3
3 4 5 6
3 5 4 7
3 8 9 10
3 9 8 11
3 12 13 14
3 13 12 15
3 16 17 18
3 17 16 19

