ply
format ascii 1.0
commentY29udmVydGVyIGJ5IENvZGVMZW9wYXJk
comment Original mesh name: 'C:\Program Files (x86)\Steam\steamapps\common\Stormworks\rom\meshes\component_steam_boiler_5x7x5.mesh'
comment SubMesh index: 0
comment SubMesh name: 'ID56'
comment Shader: Opaque (0)
element vertex 640
property float x
property float y
property float z
property float nx
property float ny
property float nz
property uchar red
property uchar green
property uchar blue
property uchar alpha
element face 450
property list uchar ushort vertex_index
end_header
0.37085778 0.8749999 -0.615 -3.6416404E-19 -0.70710677 0.70710677 255 125 0 255
-0.37499997 0.86499995 -0.625 -3.6416404E-19 -0.70710677 0.70710677 255 125 0 255
0.37499997 0.86499995 -0.625 -3.6416404E-19 -0.70710677 0.70710677 255 125 0 255
-0.37085778 0.8749999 -0.615 -3.6416404E-19 -0.70710677 0.70710677 255 125 0 255
-0.37499997 0.86499995 -0.625 6.015928E-17 -5.6399334E-16 1 255 125 0 255
0.37499997 0.78499985 -0.625 6.015928E-17 -5.6399334E-16 1 255 125 0 255
0.37499997 0.86499995 -0.625 6.015928E-17 -5.6399334E-16 1 255 125 0 255
-0.37499997 0.78499985 -0.625 6.015928E-17 -5.6399334E-16 1 255 125 0 255
0.625 0.86499995 -0.37499997 -0.49999994 -0.70710677 0.49999994 255 125 0 255
0.37085778 0.8749999 -0.615 -0.49999994 -0.70710677 0.49999994 255 125 0 255
0.37499997 0.86499995 -0.625 -0.49999994 -0.70710677 0.49999994 255 125 0 255
0.615 0.8749999 -0.37085778 -0.49999994 -0.70710677 0.49999994 255 125 0 255
0.615 0.8749999 -0.37085778 0 -1 -0 255 125 0 255
-0.37085778 0.8749999 -0.615 0 -1 -0 255 125 0 255
0.37085778 0.8749999 -0.615 0 -1 -0 255 125 0 255
0.15361434 0.8749999 -0.37085778 0 -1 -0 255 125 0 255
-0.15361434 0.8749999 -0.37085778 0 -1 -0 255 125 0 255
0.37085778 0.8749999 -0.15361434 0 -1 -0 255 125 0 255
0.615 0.8749999 0.37085778 0 -1 -0 255 125 0 255
0.37085778 0.8749999 0.15361434 0 -1 -0 255 125 0 255
0.15361434 0.8749999 0.37085778 0 -1 -0 255 125 0 255
0.37085778 0.8749999 0.615 0 -1 -0 255 125 0 255
-0.15361434 0.8749999 0.37085778 0 -1 -0 255 125 0 255
-0.615 0.8749999 -0.37085778 0 -1 -0 255 125 0 255
-0.37085778 0.8749999 -0.15361434 0 -1 -0 255 125 0 255
-0.615 0.8749999 0.37085778 0 -1 -0 255 125 0 255
-0.37085778 0.8749999 0.15361434 0 -1 -0 255 125 0 255
-0.37085778 0.8749999 0.615 0 -1 -0 255 125 0 255
-0.37085778 0.8749999 -0.615 0.49999994 -0.70710677 0.49999994 255 125 0 255
-0.625 0.86499995 -0.37499997 0.49999994 -0.70710677 0.49999994 255 125 0 255
-0.37499997 0.86499995 -0.625 0.49999994 -0.70710677 0.49999994 255 125 0 255
-0.615 0.8749999 -0.37085778 0.49999994 -0.70710677 0.49999994 255 125 0 255
-0.625 0.86499995 -0.37499997 0.70710677 -0 0.70710677 255 125 0 255
-0.37499997 0.78499985 -0.625 0.70710677 -0 0.70710677 255 125 0 255
-0.37499997 0.86499995 -0.625 0.70710677 -0 0.70710677 255 125 0 255
-0.625 0.78499985 -0.37499997 0.70710677 -0 0.70710677 255 125 0 255
-0.625 0.78499985 -0.37499997 0 1 -0 255 125 0 255
-0.36671576 0.78499985 -0.605 0 1 -0 255 125 0 255
-0.37499997 0.78499985 -0.625 0 1 -0 255 125 0 255
-0.605 0.78499985 -0.36671576 0 1 -0 255 125 0 255
-0.625 0.78499985 0.37499997 0 1 -0 255 125 0 255
-0.605 0.78499985 0.36671576 0 1 -0 255 125 0 255
-0.36671576 0.78499985 0.605 0 1 -0 255 125 0 255
-0.37499997 0.78499985 0.625 0 1 -0 255 125 0 255
0.36671576 0.78499985 0.605 0 1 -0 255 125 0 255
0.37499997 0.78499985 -0.625 0 1 -0 255 125 0 255
0.36671576 0.78499985 -0.605 0 1 -0 255 125 0 255
0.625 0.78499985 -0.37499997 0 1 -0 255 125 0 255
0.605 0.78499985 -0.36671576 0 1 -0 255 125 0 255
0.625 0.78499985 0.37499997 0 1 -0 255 125 0 255
0.605 0.78499985 0.36671576 0 1 -0 255 125 0 255
0.37499997 0.78499985 0.625 0 1 -0 255 125 0 255
0.625 0.86499995 -0.37499997 -0.70710677 -3.7986026E-16 0.70710677 255 125 0 255
0.37499997 0.78499985 -0.625 -0.70710677 -3.7986026E-16 0.70710677 255 125 0 255
0.625 0.78499985 -0.37499997 -0.70710677 -3.7986026E-16 0.70710677 255 125 0 255
0.37499997 0.86499995 -0.625 -0.70710677 -3.7986026E-16 0.70710677 255 125 0 255
0.615 0.8749999 0.37085778 -0.70710677 -0.70710677 -3.6416404E-19 255 125 0 255
0.625 0.86499995 -0.37499997 -0.70710677 -0.70710677 -3.6416404E-19 255 125 0 255
0.625 0.86499995 0.37499997 -0.70710677 -0.70710677 -3.6416404E-19 255 125 0 255
0.615 0.8749999 -0.37085778 -0.70710677 -0.70710677 -3.6416404E-19 255 125 0 255
0.625 0.86499995 0.37499997 -0.49999994 -0.70710677 -0.49999994 255 125 0 255
0.37085778 0.8749999 0.615 -0.49999994 -0.70710677 -0.49999994 255 125 0 255
0.615 0.8749999 0.37085778 -0.49999994 -0.70710677 -0.49999994 255 125 0 255
0.37499997 0.86499995 0.625 -0.49999994 -0.70710677 -0.49999994 255 125 0 255
-0.37499997 0.86499995 0.625 -3.6416404E-19 -0.70710677 -0.70710677 255 125 0 255
0.37085778 0.8749999 0.615 -3.6416404E-19 -0.70710677 -0.70710677 255 125 0 255
0.37499997 0.86499995 0.625 -3.6416404E-19 -0.70710677 -0.70710677 255 125 0 255
-0.37085778 0.8749999 0.615 -3.6416404E-19 -0.70710677 -0.70710677 255 125 0 255
-0.37085778 0.8749999 0.615 0.49999994 -0.70710677 -0.49999994 255 125 0 255
-0.625 0.86499995 0.37499997 0.49999994 -0.70710677 -0.49999994 255 125 0 255
-0.615 0.8749999 0.37085778 0.49999994 -0.70710677 -0.49999994 255 125 0 255
-0.37499997 0.86499995 0.625 0.49999994 -0.70710677 -0.49999994 255 125 0 255
-0.615 0.8749999 -0.37085778 0.70710677 -0.70710677 -1.9302186E-31 255 125 0 255
-0.625 0.86499995 0.37499997 0.70710677 -0.70710677 -1.9302186E-31 255 125 0 255
-0.625 0.86499995 -0.37499997 0.70710677 -0.70710677 -1.9302186E-31 255 125 0 255
-0.615 0.8749999 0.37085778 0.70710677 -0.70710677 -1.9302186E-31 255 125 0 255
-0.625 0.86499995 -0.37499997 1 -0 -0 255 125 0 255
-0.625 0.78499985 0.37499997 1 -0 -0 255 125 0 255
-0.625 0.78499985 -0.37499997 1 -0 -0 255 125 0 255
-0.625 0.86499995 0.37499997 1 -0 -0 255 125 0 255
-0.625 0.78499985 0.37499997 0.70710677 -0 -0.70710677 255 125 0 255
-0.37499997 0.86499995 0.625 0.70710677 -0 -0.70710677 255 125 0 255
-0.37499997 0.78499985 0.625 0.70710677 -0 -0.70710677 255 125 0 255
-0.625 0.86499995 0.37499997 0.70710677 -0 -0.70710677 255 125 0 255
-0.37499997 0.78499985 0.625 0 -0 -1 255 125 0 255
0.37499997 0.86499995 0.625 0 -0 -1 255 125 0 255
0.37499997 0.78499985 0.625 0 -0 -1 255 125 0 255
-0.37499997 0.86499995 0.625 0 -0 -1 255 125 0 255
0.37499997 0.78499985 0.625 -0.70710677 -0 -0.70710677 255 125 0 255
0.625 0.86499995 0.37499997 -0.70710677 -0 -0.70710677 255 125 0 255
0.625 0.78499985 0.37499997 -0.70710677 -0 -0.70710677 255 125 0 255
0.37499997 0.86499995 0.625 -0.70710677 -0 -0.70710677 255 125 0 255
0.625 0.86499995 0.37499997 -1 -0 -0 255 125 0 255
0.625 0.78499985 -0.37499997 -1 -0 -0 255 125 0 255
0.625 0.78499985 0.37499997 -1 -0 -0 255 125 0 255
0.625 0.86499995 -0.37499997 -1 -0 -0 255 125 0 255
1.4438227E-15 0.8749999 -0.125 -1.029479E-28 -6.015928E-15 1 199 199 199 255
0.051776703 0.8350001 -0.125 -1.029479E-28 -6.015928E-15 1 199 199 199 255
0.051776703 0.8749999 -0.125 -1.029479E-28 -6.015928E-15 1 199 199 199 255
-0.051776703 0.8350001 -0.125 -1.029479E-28 -6.015928E-15 1 199 199 199 255
-0.051776703 0.8749999 -0.125 -1.029479E-28 -6.015928E-15 1 199 199 199 255
-0.051776703 0.8749999 -0.125 0.70710677 -0 0.70710677 199 199 199 255
-0.125 0.8350001 -0.051776703 0.70710677 -0 0.70710677 199 199 199 255
-0.051776703 0.8350001 -0.125 0.70710677 -0 0.70710677 199 199 199 255
-0.125 0.8749999 -0.051776703 0.70710677 -0 0.70710677 199 199 199 255
0.125 0.8350001 -0.051776703 -0.70710677 1.842991E-27 0.70710677 199 199 199 255
0.051776703 0.8749999 -0.125 -0.70710677 1.842991E-27 0.70710677 199 199 199 255
0.051776703 0.8350001 -0.125 -0.70710677 1.842991E-27 0.70710677 199 199 199 255
0.125 0.8749999 -0.051776703 -0.70710677 1.842991E-27 0.70710677 199 199 199 255
0.125 0.8749999 -0.051776703 -1.322723E-14 -1 -9.065055E-31 199 199 199 255
1.4438227E-15 0.8749999 -0.125 -1.322723E-14 -1 -9.065055E-31 199 199 199 255
0.051776703 0.8749999 -0.125 -1.322723E-14 -1 -9.065055E-31 199 199 199 255
0.025888337 0.8749999 -0.0625 -1.322723E-14 -1 -9.065055E-31 199 199 199 255
-0.025888337 0.8749999 -0.0625 -1.322723E-14 -1 -9.065055E-31 199 199 199 255
0.0625 0.8749999 -0.025888337 -1.322723E-14 -1 -9.065055E-31 199 199 199 255
0.125 0.8749999 -1.2633449E-15 -1.322723E-14 -1 -9.065055E-31 199 199 199 255
0.0625 0.8749999 0.025888337 -1.322723E-14 -1 -9.065055E-31 199 199 199 255
0.125 0.8749999 0.051776703 -1.322723E-14 -1 -9.065055E-31 199 199 199 255
0.025888337 0.8749999 0.0625 -1.322723E-14 -1 -9.065055E-31 199 199 199 255
0.051776703 0.8749999 0.125 -1.322723E-14 -1 -9.065055E-31 199 199 199 255
1.4438227E-15 0.8749999 0.125 -1.322723E-14 -1 -9.065055E-31 199 199 199 255
-0.125 0.8749999 -0.051776703 -1.322723E-14 -1 -9.065055E-31 199 199 199 255
-0.051776703 0.8749999 -0.125 -1.322723E-14 -1 -9.065055E-31 199 199 199 255
-0.0625 0.8749999 -0.025888337 -1.322723E-14 -1 -9.065055E-31 199 199 199 255
-0.125 0.8749999 -1.2633449E-15 -1.322723E-14 -1 -9.065055E-31 199 199 199 255
-0.0625 0.8749999 0.025888337 -1.322723E-14 -1 -9.065055E-31 199 199 199 255
-0.125 0.8749999 0.051776703 -1.322723E-14 -1 -9.065055E-31 199 199 199 255
-0.025888337 0.8749999 0.0625 -1.322723E-14 -1 -9.065055E-31 199 199 199 255
-0.051776703 0.8749999 0.125 -1.322723E-14 -1 -9.065055E-31 199 199 199 255
-0.125 0.8749999 -0.051776703 1 3.6095567E-14 -0 199 199 199 255
-0.125 0.8350001 0.051776703 1 3.6095567E-14 -0 199 199 199 255
-0.125 0.8350001 -0.051776703 1 3.6095567E-14 -0 199 199 199 255
-0.125 0.8749999 0.051776703 1 3.6095567E-14 -0 199 199 199 255
-0.125 0.8749999 -1.2633449E-15 1 3.6095567E-14 -0 199 199 199 255
0.125 0.8749999 0.051776703 -1 -1.203186E-14 8.427853E-30 199 199 199 255
0.125 0.8350001 -0.051776703 -1 -1.203186E-14 8.427853E-30 199 199 199 255
0.125 0.8350001 0.051776703 -1 -1.203186E-14 8.427853E-30 199 199 199 255
0.125 0.8749999 -0.051776703 -1 -1.203186E-14 8.427853E-30 199 199 199 255
0.125 0.8749999 -1.2633449E-15 -1 -1.203186E-14 8.427853E-30 199 199 199 255
-0.051776703 0.8350001 0.125 -1.0286749E-28 -6.015928E-15 -1 199 199 199 255
0.051776703 0.8749999 0.125 -1.0286749E-28 -6.015928E-15 -1 199 199 199 255
0.051776703 0.8350001 0.125 -1.0286749E-28 -6.015928E-15 -1 199 199 199 255
1.4438227E-15 0.8749999 0.125 -1.0286749E-28 -6.015928E-15 -1 199 199 199 255
-0.051776703 0.8749999 0.125 -1.0286749E-28 -6.015928E-15 -1 199 199 199 255
-0.125 0.8749999 0.051776703 0.70710677 -0 -0.70710677 199 199 199 255
-0.051776703 0.8350001 0.125 0.70710677 -0 -0.70710677 199 199 199 255
-0.125 0.8350001 0.051776703 0.70710677 -0 -0.70710677 199 199 199 255
-0.051776703 0.8749999 0.125 0.70710677 -0 -0.70710677 199 199 199 255
0.051776703 0.8749999 0.125 -0.70710677 1.7252059E-27 -0.70710677 199 199 199 255
0.125 0.8350001 0.051776703 -0.70710677 1.7252059E-27 -0.70710677 199 199 199 255
0.051776703 0.8350001 0.125 -0.70710677 1.7252059E-27 -0.70710677 199 199 199 255
0.125 0.8749999 0.051776703 -0.70710677 1.7252059E-27 -0.70710677 199 199 199 255
-0.33085784 0.8350001 -0.13704582 -0.70710677 -2.5577258E-14 -0.70710677 255 125 0 255
-0.13704582 0.85499996 -0.33085784 -0.70710677 -2.5577258E-14 -0.70710677 255 125 0 255
-0.13704582 0.8350001 -0.33085784 -0.70710677 -2.5577258E-14 -0.70710677 255 125 0 255
-0.33085784 0.85499996 -0.13704582 -0.70710677 -2.5577258E-14 -0.70710677 255 125 0 255
0.13704582 0.8350001 -0.33085784 1.646145E-16 -1.179087E-31 -1 255 125 0 255
-0.13704582 0.85499996 -0.33085784 1.646145E-16 -1.179087E-31 -1 255 125 0 255
0.13704582 0.85499996 -0.33085784 1.646145E-16 -1.179087E-31 -1 255 125 0 255
-0.13704582 0.8350001 -0.33085784 1.646145E-16 -1.179087E-31 -1 255 125 0 255
-0.33085784 0.85499996 0.13704582 -1 -0 -0 255 125 0 255
-0.33085784 0.8350001 -0.13704582 -1 -0 -0 255 125 0 255
-0.33085784 0.8350001 0.13704582 -1 -0 -0 255 125 0 255
-0.33085784 0.85499996 -0.13704582 -1 -0 -0 255 125 0 255
0.13704582 0.8350001 -0.33085784 0.70710677 -5.064804E-16 -0.70710677 255 125 0 255
0.33085784 0.85499996 -0.13704582 0.70710677 -5.064804E-16 -0.70710677 255 125 0 255
0.33085784 0.8350001 -0.13704582 0.70710677 -5.064804E-16 -0.70710677 255 125 0 255
0.13704582 0.85499996 -0.33085784 0.70710677 -5.064804E-16 -0.70710677 255 125 0 255
-0.13704582 0.85499996 0.33085784 -0.70710677 -2.5830498E-14 0.70710677 255 125 0 255
-0.33085784 0.8350001 0.13704582 -0.70710677 -2.5830498E-14 0.70710677 255 125 0 255
-0.13704582 0.8350001 0.33085784 -0.70710677 -2.5830498E-14 0.70710677 255 125 0 255
-0.33085784 0.85499996 0.13704582 -0.70710677 -2.5830498E-14 0.70710677 255 125 0 255
0.33085784 0.85499996 -0.13704582 1 7.2191134E-14 -0 255 125 0 255
0.33085784 0.8350001 0.13704582 1 7.2191134E-14 -0 255 125 0 255
0.33085784 0.8350001 -0.13704582 1 7.2191134E-14 -0 255 125 0 255
0.33085784 0.85499996 0.13704582 1 7.2191134E-14 -0 255 125 0 255
-0.13704582 0.85499996 0.33085784 0 -0 1 255 125 0 255
0.13704582 0.8350001 0.33085784 0 -0 1 255 125 0 255
0.13704582 0.85499996 0.33085784 0 -0 1 255 125 0 255
-0.13704582 0.8350001 0.33085784 0 -0 1 255 125 0 255
0.33085784 0.85499996 0.13704582 0.70710677 -2.532402E-16 0.70710677 255 125 0 255
0.13704582 0.8350001 0.33085784 0.70710677 -2.532402E-16 0.70710677 255 125 0 255
0.33085784 0.8350001 0.13704582 0.70710677 -2.532402E-16 0.70710677 255 125 0 255
0.13704582 0.85499996 0.33085784 0.70710677 -2.532402E-16 0.70710677 255 125 0 255
0.33085784 0.8350001 0.13704582 -2.181938E-15 -1 -1.009998E-33 86 86 86 255
0.051776703 0.8350001 -0.125 -2.181938E-15 -1 -1.009998E-33 86 86 86 255
0.33085784 0.8350001 -0.13704582 -2.181938E-15 -1 -1.009998E-33 86 86 86 255
0.125 0.8350001 -0.051776703 -2.181938E-15 -1 -1.009998E-33 86 86 86 255
0.125 0.8350001 0.051776703 -2.181938E-15 -1 -1.009998E-33 86 86 86 255
0.051776703 0.8350001 0.125 -2.181938E-15 -1 -1.009998E-33 86 86 86 255
-0.051776703 0.8350001 0.125 -2.181938E-15 -1 -1.009998E-33 86 86 86 255
-0.33085784 0.8350001 0.13704582 -2.181938E-15 -1 -1.009998E-33 86 86 86 255
-0.13704582 0.8350001 0.33085784 -2.181938E-15 -1 -1.009998E-33 86 86 86 255
0.13704582 0.8350001 0.33085784 -2.181938E-15 -1 -1.009998E-33 86 86 86 255
-0.13704582 0.8350001 -0.33085784 -2.181938E-15 -1 -1.009998E-33 86 86 86 255
0.13704582 0.8350001 -0.33085784 -2.181938E-15 -1 -1.009998E-33 86 86 86 255
-0.33085784 0.8350001 -0.13704582 -2.181938E-15 -1 -1.009998E-33 86 86 86 255
-0.051776703 0.8350001 -0.125 -2.181938E-15 -1 -1.009998E-33 86 86 86 255
-0.125 0.8350001 -0.051776703 -2.181938E-15 -1 -1.009998E-33 86 86 86 255
-0.125 0.8350001 0.051776703 -2.181938E-15 -1 -1.009998E-33 86 86 86 255
-0.15361434 -0.8749999 -0.37085778 -1.468595E-16 -0 -1 255 125 0 255
0.15361434 -0.85499996 -0.37085778 -1.468595E-16 -0 -1 255 125 0 255
0.15361434 -0.8749999 -0.37085778 -1.468595E-16 -0 -1 255 125 0 255
-0.15361434 -0.85499996 -0.37085778 -1.468595E-16 -0 -1 255 125 0 255
-0.37085778 -0.8749999 -0.15361434 -0.70710677 -0 -0.70710677 255 125 0 255
-0.15361434 -0.85499996 -0.37085778 -0.70710677 -0 -0.70710677 255 125 0 255
-0.15361434 -0.8749999 -0.37085778 -0.70710677 -0 -0.70710677 255 125 0 255
-0.37085778 -0.85499996 -0.15361434 -0.70710677 -0 -0.70710677 255 125 0 255
-0.37085778 -0.85499996 -0.15361434 0 1 -0 255 125 0 255
-0.13704582 -0.85499996 -0.33085784 0 1 -0 255 125 0 255
-0.15361434 -0.85499996 -0.37085778 0 1 -0 255 125 0 255
-0.33085784 -0.85499996 -0.13704582 0 1 -0 255 125 0 255
-0.37085778 -0.85499996 0.15361434 0 1 -0 255 125 0 255
-0.33085784 -0.85499996 0.13704582 0 1 -0 255 125 0 255
-0.13704582 -0.85499996 0.33085784 0 1 -0 255 125 0 255
-0.15361434 -0.85499996 0.37085778 0 1 -0 255 125 0 255
0.13704582 -0.85499996 0.33085784 0 1 -0 255 125 0 255
0.15361434 -0.85499996 -0.37085778 0 1 -0 255 125 0 255
0.13704582 -0.85499996 -0.33085784 0 1 -0 255 125 0 255
0.37085778 -0.85499996 -0.15361434 0 1 -0 255 125 0 255
0.33085784 -0.85499996 -0.13704582 0 1 -0 255 125 0 255
0.37085778 -0.85499996 0.15361434 0 1 -0 255 125 0 255
0.33085784 -0.85499996 0.13704582 0 1 -0 255 125 0 255
0.15361434 -0.85499996 0.37085778 0 1 -0 255 125 0 255
0.15361434 -0.85499996 -0.37085778 0.70710677 -0 -0.70710677 255 125 0 255
0.37085778 -0.8749999 -0.15361434 0.70710677 -0 -0.70710677 255 125 0 255
0.15361434 -0.8749999 -0.37085778 0.70710677 -0 -0.70710677 255 125 0 255
0.37085778 -0.85499996 -0.15361434 0.70710677 -0 -0.70710677 255 125 0 255
-0.37085778 -0.85499996 0.15361434 -1 -0 -0 255 125 0 255
-0.37085778 -0.8749999 -0.15361434 -1 -0 -0 255 125 0 255
-0.37085778 -0.8749999 0.15361434 -1 -0 -0 255 125 0 255
-0.37085778 -0.85499996 -0.15361434 -1 -0 -0 255 125 0 255
-0.15361434 -0.85499996 0.37085778 0 -0 1 255 125 0 255
0.15361434 -0.8749999 0.37085778 0 -0 1 255 125 0 255
0.15361434 -0.85499996 0.37085778 0 -0 1 255 125 0 255
-0.15361434 -0.8749999 0.37085778 0 -0 1 255 125 0 255
0.37085778 -0.85499996 0.15361434 0.70710677 -0 0.70710677 255 125 0 255
0.15361434 -0.8749999 0.37085778 0.70710677 -0 0.70710677 255 125 0 255
0.37085778 -0.8749999 0.15361434 0.70710677 -0 0.70710677 255 125 0 255
0.15361434 -0.85499996 0.37085778 0.70710677 -0 0.70710677 255 125 0 255
0.37085778 -0.85499996 -0.15361434 1 -0 -0 255 125 0 255
0.37085778 -0.8749999 0.15361434 1 -0 -0 255 125 0 255
0.37085778 -0.8749999 -0.15361434 1 -0 -0 255 125 0 255
0.37085778 -0.85499996 0.15361434 1 -0 -0 255 125 0 255
-0.37085778 -0.85499996 0.15361434 -0.70710677 -0 0.70710677 255 125 0 255
-0.15361434 -0.8749999 0.37085778 -0.70710677 -0 0.70710677 255 125 0 255
-0.15361434 -0.85499996 0.37085778 -0.70710677 -0 0.70710677 255 125 0 255
-0.37085778 -0.8749999 0.15361434 -0.70710677 -0 0.70710677 255 125 0 255
-0.13704582 -0.85499996 -0.33085784 -1.646145E-16 -0 -1 255 125 0 255
0.13704582 -0.8350001 -0.33085784 -1.646145E-16 -0 -1 255 125 0 255
0.13704582 -0.85499996 -0.33085784 -1.646145E-16 -0 -1 255 125 0 255
-0.13704582 -0.8350001 -0.33085784 -1.646145E-16 -0 -1 255 125 0 255
-0.33085784 -0.85499996 -0.13704582 -0.70710677 -0 -0.70710677 255 125 0 255
-0.13704582 -0.8350001 -0.33085784 -0.70710677 -0 -0.70710677 255 125 0 255
-0.13704582 -0.85499996 -0.33085784 -0.70710677 -0 -0.70710677 255 125 0 255
-0.33085784 -0.8350001 -0.13704582 -0.70710677 -0 -0.70710677 255 125 0 255
0.13704582 -0.85499996 -0.33085784 0.70710677 -0 -0.70710677 255 125 0 255
0.33085784 -0.8350001 -0.13704582 0.70710677 -0 -0.70710677 255 125 0 255
0.33085784 -0.85499996 -0.13704582 0.70710677 -0 -0.70710677 255 125 0 255
0.13704582 -0.8350001 -0.33085784 0.70710677 -0 -0.70710677 255 125 0 255
-0.33085784 -0.8350001 0.13704582 -1 -0 -0 255 125 0 255
-0.33085784 -0.85499996 -0.13704582 -1 -0 -0 255 125 0 255
-0.33085784 -0.85499996 0.13704582 -1 -0 -0 255 125 0 255
-0.33085784 -0.8350001 -0.13704582 -1 -0 -0 255 125 0 255
0.33085784 -0.8350001 -0.13704582 1 -0 -0 255 125 0 255
0.33085784 -0.85499996 0.13704582 1 -0 -0 255 125 0 255
0.33085784 -0.85499996 -0.13704582 1 -0 -0 255 125 0 255
0.33085784 -0.8350001 0.13704582 1 -0 -0 255 125 0 255
-0.33085784 -0.8350001 0.13704582 -0.70710677 -0 0.70710677 255 125 0 255
-0.13704582 -0.85499996 0.33085784 -0.70710677 -0 0.70710677 255 125 0 255
-0.13704582 -0.8350001 0.33085784 -0.70710677 -0 0.70710677 255 125 0 255
-0.33085784 -0.85499996 0.13704582 -0.70710677 -0 0.70710677 255 125 0 255
0.13704582 -0.8350001 0.33085784 0.70710677 -0 0.70710677 255 125 0 255
0.33085784 -0.85499996 0.13704582 0.70710677 -0 0.70710677 255 125 0 255
0.33085784 -0.8350001 0.13704582 0.70710677 -0 0.70710677 255 125 0 255
0.13704582 -0.85499996 0.33085784 0.70710677 -0 0.70710677 255 125 0 255
-0.13704582 -0.8350001 0.33085784 0 -0 1 255 125 0 255
0.13704582 -0.85499996 0.33085784 0 -0 1 255 125 0 255
0.13704582 -0.8350001 0.33085784 0 -0 1 255 125 0 255
-0.13704582 -0.85499996 0.33085784 0 -0 1 255 125 0 255
0.125 -0.8749999 0.051776703 -1 -0 -0 199 199 199 255
0.125 -0.8749999 -0.051776703 -1 -0 -0 199 199 199 255
0.125 -0.8749999 -1.2633449E-15 -1 -0 -0 199 199 199 255
0.125 -0.8350001 0.051776703 -1 -0 -0 199 199 199 255
0.125 -0.8350001 -0.051776703 -1 -0 -0 199 199 199 255
0.051776703 -0.8749999 0.125 -0.70710677 -0 -0.70710677 199 199 199 255
0.125 -0.8350001 0.051776703 -0.70710677 -0 -0.70710677 199 199 199 255
0.125 -0.8749999 0.051776703 -0.70710677 -0 -0.70710677 199 199 199 255
0.051776703 -0.8350001 0.125 -0.70710677 -0 -0.70710677 199 199 199 255
0.051776703 -0.8350001 -0.125 -0.70710677 -0 0.70710677 199 199 199 255
0.125 -0.8749999 -0.051776703 -0.70710677 -0 0.70710677 199 199 199 255
0.125 -0.8350001 -0.051776703 -0.70710677 -0 0.70710677 199 199 199 255
0.051776703 -0.8749999 -0.125 -0.70710677 -0 0.70710677 199 199 199 255
-0.125 -0.8749999 -0.051776703 0 1 -2.390282E-30 199 199 199 255
-0 -0.8749999 -0.125 0 1 -2.390282E-30 199 199 199 255
-0.051776703 -0.8749999 -0.125 0 1 -2.390282E-30 199 199 199 255
-0.025888337 -0.8749999 -0.0625 0 1 -2.390282E-30 199 199 199 255
0.025888337 -0.8749999 -0.0625 0 1 -2.390282E-30 199 199 199 255
-0.0625 -0.8749999 -0.025888337 0 1 -2.390282E-30 199 199 199 255
-0.125 -0.8749999 -1.2633449E-15 0 1 -2.390282E-30 199 199 199 255
-0.0625 -0.8749999 0.025888337 0 1 -2.390282E-30 199 199 199 255
-0.125 -0.8749999 0.051776703 0 1 -2.390282E-30 199 199 199 255
-0.025888337 -0.8749999 0.0625 0 1 -2.390282E-30 199 199 199 255
-0.051776703 -0.8749999 0.125 0 1 -2.390282E-30 199 199 199 255
-0 -0.8749999 0.125 0 1 -2.390282E-30 199 199 199 255
0.125 -0.8749999 -0.051776703 0 1 -2.390282E-30 199 199 199 255
0.051776703 -0.8749999 -0.125 0 1 -2.390282E-30 199 199 199 255
0.0625 -0.8749999 -0.025888337 0 1 -2.390282E-30 199 199 199 255
0.125 -0.8749999 -1.2633449E-15 0 1 -2.390282E-30 199 199 199 255
0.0625 -0.8749999 0.025888337 0 1 -2.390282E-30 199 199 199 255
0.125 -0.8749999 0.051776703 0 1 -2.390282E-30 199 199 199 255
0.025888337 -0.8749999 0.0625 0 1 -2.390282E-30 199 199 199 255
0.051776703 -0.8749999 0.125 0 1 -2.390282E-30 199 199 199 255
-0 -0.8749999 0.125 0 6.015928E-15 -1 199 199 199 255
0.051776703 -0.8350001 0.125 0 6.015928E-15 -1 199 199 199 255
0.051776703 -0.8749999 0.125 0 6.015928E-15 -1 199 199 199 255
-0.051776703 -0.8350001 0.125 0 6.015928E-15 -1 199 199 199 255
-0.051776703 -0.8749999 0.125 0 6.015928E-15 -1 199 199 199 255
-0.051776703 -0.8350001 -0.125 0 6.015928E-15 1 199 199 199 255
0.051776703 -0.8749999 -0.125 0 6.015928E-15 1 199 199 199 255
0.051776703 -0.8350001 -0.125 0 6.015928E-15 1 199 199 199 255
-0 -0.8749999 -0.125 0 6.015928E-15 1 199 199 199 255
-0.051776703 -0.8749999 -0.125 0 6.015928E-15 1 199 199 199 255
-0.051776703 -0.8350001 -0.125 0.70710677 -0 0.70710677 199 199 199 255
-0.125 -0.8749999 -0.051776703 0.70710677 -0 0.70710677 199 199 199 255
-0.051776703 -0.8749999 -0.125 0.70710677 -0 0.70710677 199 199 199 255
-0.125 -0.8350001 -0.051776703 0.70710677 -0 0.70710677 199 199 199 255
-0.125 -0.8749999 -0.051776703 1 -0 -0 199 199 199 255
-0.125 -0.8749999 0.051776703 1 -0 -0 199 199 199 255
-0.125 -0.8749999 -1.2633449E-15 1 -0 -0 199 199 199 255
-0.125 -0.8350001 -0.051776703 1 -0 -0 199 199 199 255
-0.125 -0.8350001 0.051776703 1 -0 -0 199 199 199 255
-0.125 -0.8749999 0.051776703 0.70710677 -0 -0.70710677 199 199 199 255
-0.051776703 -0.8350001 0.125 0.70710677 -0 -0.70710677 199 199 199 255
-0.051776703 -0.8749999 0.125 0.70710677 -0 -0.70710677 199 199 199 255
-0.125 -0.8350001 0.051776703 0.70710677 -0 -0.70710677 199 199 199 255
-0.33085784 -0.8350001 0.13704582 0 1 -0 86 86 86 255
-0.051776703 -0.8350001 -0.125 0 1 -0 86 86 86 255
-0.33085784 -0.8350001 -0.13704582 0 1 -0 86 86 86 255
-0.125 -0.8350001 -0.051776703 0 1 -0 86 86 86 255
-0.125 -0.8350001 0.051776703 0 1 -0 86 86 86 255
-0.051776703 -0.8350001 0.125 0 1 -0 86 86 86 255
0.051776703 -0.8350001 0.125 0 1 -0 86 86 86 255
0.33085784 -0.8350001 0.13704582 0 1 -0 86 86 86 255
0.13704582 -0.8350001 0.33085784 0 1 -0 86 86 86 255
-0.13704582 -0.8350001 0.33085784 0 1 -0 86 86 86 255
0.13704582 -0.8350001 -0.33085784 0 1 -0 86 86 86 255
-0.13704582 -0.8350001 -0.33085784 0 1 -0 86 86 86 255
0.33085784 -0.8350001 -0.13704582 0 1 -0 86 86 86 255
0.051776703 -0.8350001 -0.125 0 1 -0 86 86 86 255
0.125 -0.8350001 -0.051776703 0 1 -0 86 86 86 255
0.125 -0.8350001 0.051776703 0 1 -0 86 86 86 255
-0.37499997 -0.86499995 -0.625 -3.6416404E-19 0.70710677 0.70710677 255 125 0 255
0.37085778 -0.8749999 -0.615 -3.6416404E-19 0.70710677 0.70710677 255 125 0 255
0.37499997 -0.86499995 -0.625 -3.6416404E-19 0.70710677 0.70710677 255 125 0 255
-0.37085778 -0.8749999 -0.615 -3.6416404E-19 0.70710677 0.70710677 255 125 0 255
-0.37499997 -0.78499985 -0.625 0 -0 1 255 125 0 255
0.37499997 -0.86499995 -0.625 0 -0 1 255 125 0 255
0.37499997 -0.78499985 -0.625 0 -0 1 255 125 0 255
-0.37499997 -0.86499995 -0.625 0 -0 1 255 125 0 255
-0.625 -0.86499995 -0.37499997 0.49999994 0.70710677 0.49999994 255 125 0 255
-0.37085778 -0.8749999 -0.615 0.49999994 0.70710677 0.49999994 255 125 0 255
-0.37499997 -0.86499995 -0.625 0.49999994 0.70710677 0.49999994 255 125 0 255
-0.615 -0.8749999 -0.37085778 0.49999994 0.70710677 0.49999994 255 125 0 255
-0.615 -0.8749999 -0.37085778 0 1 -0 255 125 0 255
0.37085778 -0.8749999 -0.615 0 1 -0 255 125 0 255
-0.37085778 -0.8749999 -0.615 0 1 -0 255 125 0 255
-0.15361434 -0.8749999 -0.37085778 0 1 -0 255 125 0 255
0.15361434 -0.8749999 -0.37085778 0 1 -0 255 125 0 255
-0.37085778 -0.8749999 -0.15361434 0 1 -0 255 125 0 255
-0.615 -0.8749999 0.37085778 0 1 -0 255 125 0 255
-0.37085778 -0.8749999 0.15361434 0 1 -0 255 125 0 255
-0.15361434 -0.8749999 0.37085778 0 1 -0 255 125 0 255
-0.37085778 -0.8749999 0.615 0 1 -0 255 125 0 255
0.15361434 -0.8749999 0.37085778 0 1 -0 255 125 0 255
0.615 -0.8749999 -0.37085778 0 1 -0 255 125 0 255
0.37085778 -0.8749999 -0.15361434 0 1 -0 255 125 0 255
0.615 -0.8749999 0.37085778 0 1 -0 255 125 0 255
0.37085778 -0.8749999 0.15361434 0 1 -0 255 125 0 255
0.37085778 -0.8749999 0.615 0 1 -0 255 125 0 255
0.37085778 -0.8749999 -0.615 -0.49999994 0.70710677 0.49999994 255 125 0 255
0.625 -0.86499995 -0.37499997 -0.49999994 0.70710677 0.49999994 255 125 0 255
0.37499997 -0.86499995 -0.625 -0.49999994 0.70710677 0.49999994 255 125 0 255
0.615 -0.8749999 -0.37085778 -0.49999994 0.70710677 0.49999994 255 125 0 255
0.625 -0.78499985 -0.37499997 -0.70710677 -1.8993018E-16 0.70710677 255 125 0 255
0.37499997 -0.86499995 -0.625 -0.70710677 -1.8993018E-16 0.70710677 255 125 0 255
0.625 -0.86499995 -0.37499997 -0.70710677 -1.8993018E-16 0.70710677 255 125 0 255
0.37499997 -0.78499985 -0.625 -0.70710677 -1.8993018E-16 0.70710677 255 125 0 255
0.37499997 -0.78499985 -0.625 0 -1 -0 255 125 0 255
0.36671576 -0.78499985 -0.605 0 -1 -0 255 125 0 255
-0.37499997 -0.78499985 -0.625 0 -1 -0 255 125 0 255
0.625 -0.78499985 -0.37499997 0 -1 -0 255 125 0 255
0.605 -0.78499985 -0.36671576 0 -1 -0 255 125 0 255
0.625 -0.78499985 0.37499997 0 -1 -0 255 125 0 255
0.605 -0.78499985 0.36671576 0 -1 -0 255 125 0 255
0.36671576 -0.78499985 0.605 0 -1 -0 255 125 0 255
0.37499997 -0.78499985 0.625 0 -1 -0 255 125 0 255
-0.36671576 -0.78499985 0.605 0 -1 -0 255 125 0 255
-0.36671576 -0.78499985 -0.605 0 -1 -0 255 125 0 255
-0.625 -0.78499985 -0.37499997 0 -1 -0 255 125 0 255
-0.605 -0.78499985 -0.36671576 0 -1 -0 255 125 0 255
-0.625 -0.78499985 0.37499997 0 -1 -0 255 125 0 255
-0.605 -0.78499985 0.36671576 0 -1 -0 255 125 0 255
-0.37499997 -0.78499985 0.625 0 -1 -0 255 125 0 255
-0.625 -0.78499985 -0.37499997 0.70710677 -1.8993018E-16 0.70710677 255 125 0 255
-0.37499997 -0.86499995 -0.625 0.70710677 -1.8993018E-16 0.70710677 255 125 0 255
-0.37499997 -0.78499985 -0.625 0.70710677 -1.8993018E-16 0.70710677 255 125 0 255
-0.625 -0.86499995 -0.37499997 0.70710677 -1.8993018E-16 0.70710677 255 125 0 255
-0.625 -0.86499995 -0.37499997 0.70710677 0.70710677 -1.5043966E-31 255 125 0 255
-0.615 -0.8749999 0.37085778 0.70710677 0.70710677 -1.5043966E-31 255 125 0 255
-0.615 -0.8749999 -0.37085778 0.70710677 0.70710677 -1.5043966E-31 255 125 0 255
-0.625 -0.86499995 0.37499997 0.70710677 0.70710677 -1.5043966E-31 255 125 0 255
-0.625 -0.86499995 0.37499997 0.49999994 0.70710677 -0.49999994 255 125 0 255
-0.37085778 -0.8749999 0.615 0.49999994 0.70710677 -0.49999994 255 125 0 255
-0.615 -0.8749999 0.37085778 0.49999994 0.70710677 -0.49999994 255 125 0 255
-0.37499997 -0.86499995 0.625 0.49999994 0.70710677 -0.49999994 255 125 0 255
0.37085778 -0.8749999 0.615 3.6416404E-19 0.70710677 -0.70710677 255 125 0 255
-0.37499997 -0.86499995 0.625 3.6416404E-19 0.70710677 -0.70710677 255 125 0 255
0.37499997 -0.86499995 0.625 3.6416404E-19 0.70710677 -0.70710677 255 125 0 255
-0.37085778 -0.8749999 0.615 3.6416404E-19 0.70710677 -0.70710677 255 125 0 255
0.37085778 -0.8749999 0.615 -0.49999994 0.70710677 -0.49999994 255 125 0 255
0.625 -0.86499995 0.37499997 -0.49999994 0.70710677 -0.49999994 255 125 0 255
0.615 -0.8749999 0.37085778 -0.49999994 0.70710677 -0.49999994 255 125 0 255
0.37499997 -0.86499995 0.625 -0.49999994 0.70710677 -0.49999994 255 125 0 255
0.625 -0.86499995 0.37499997 -0.70710677 0.70710677 3.6416404E-19 255 125 0 255
0.615 -0.8749999 -0.37085778 -0.70710677 0.70710677 3.6416404E-19 255 125 0 255
0.615 -0.8749999 0.37085778 -0.70710677 0.70710677 3.6416404E-19 255 125 0 255
0.625 -0.86499995 -0.37499997 -0.70710677 0.70710677 3.6416404E-19 255 125 0 255
0.625 -0.78499985 0.37499997 -1 -0 -0 255 125 0 255
0.625 -0.86499995 -0.37499997 -1 -0 -0 255 125 0 255
0.625 -0.86499995 0.37499997 -1 -0 -0 255 125 0 255
0.625 -0.78499985 -0.37499997 -1 -0 -0 255 125 0 255
0.37499997 -0.86499995 0.625 -0.70710677 -0 -0.70710677 255 125 0 255
0.625 -0.78499985 0.37499997 -0.70710677 -0 -0.70710677 255 125 0 255
0.625 -0.86499995 0.37499997 -0.70710677 -0 -0.70710677 255 125 0 255
0.37499997 -0.78499985 0.625 -0.70710677 -0 -0.70710677 255 125 0 255
-0.37499997 -0.86499995 0.625 0 -0 -1 255 125 0 255
0.37499997 -0.78499985 0.625 0 -0 -1 255 125 0 255
0.37499997 -0.86499995 0.625 0 -0 -1 255 125 0 255
-0.37499997 -0.78499985 0.625 0 -0 -1 255 125 0 255
-0.625 -0.86499995 0.37499997 0.70710677 -6.331004E-17 -0.70710677 255 125 0 255
-0.37499997 -0.78499985 0.625 0.70710677 -6.331004E-17 -0.70710677 255 125 0 255
-0.37499997 -0.86499995 0.625 0.70710677 -6.331004E-17 -0.70710677 255 125 0 255
-0.625 -0.78499985 0.37499997 0.70710677 -6.331004E-17 -0.70710677 255 125 0 255
-0.625 -0.78499985 -0.37499997 1 -0 -0 255 125 0 255
-0.625 -0.86499995 0.37499997 1 -0 -0 255 125 0 255
-0.625 -0.86499995 -0.37499997 1 -0 -0 255 125 0 255
-0.625 -0.78499985 0.37499997 1 -0 -0 255 125 0 255
0.36671576 0.765 0.605 -0.70710677 -0 -0.70710677 255 125 0 255
0.605 0.78499985 0.36671576 -0.70710677 -0 -0.70710677 255 125 0 255
0.605 0.765 0.36671576 -0.70710677 -0 -0.70710677 255 125 0 255
0.36671576 0.78499985 0.605 -0.70710677 -0 -0.70710677 255 125 0 255
0.605 0.78499985 0.36671576 -1 -0 -0 255 125 0 255
0.605 0.765 -0.36671576 -1 -0 -0 255 125 0 255
0.605 0.765 0.36671576 -1 -0 -0 255 125 0 255
0.605 0.78499985 -0.36671576 -1 -0 -0 255 125 0 255
0.36671576 -0.78499985 0.605 -0.70710677 -6.149768E-18 -0.70710677 255 125 0 255
0.605 -0.765 0.36671576 -0.70710677 -6.149768E-18 -0.70710677 255 125 0 255
0.605 -0.78499985 0.36671576 -0.70710677 -6.149768E-18 -0.70710677 255 125 0 255
0.36671576 -0.765 0.605 -0.70710677 -6.149768E-18 -0.70710677 255 125 0 255
-0.36671576 0.765 0.605 0 -0 -1 255 125 0 255
0.36671576 0.78499985 0.605 0 -0 -1 255 125 0 255
0.36671576 0.765 0.605 0 -0 -1 255 125 0 255
-0.36671576 0.78499985 0.605 0 -0 -1 255 125 0 255
0.36671576 0.78499985 -0.605 -0.70710677 -0 0.70710677 255 125 0 255
0.605 0.765 -0.36671576 -0.70710677 -0 0.70710677 255 125 0 255
0.605 0.78499985 -0.36671576 -0.70710677 -0 0.70710677 255 125 0 255
0.36671576 0.765 -0.605 -0.70710677 -0 0.70710677 255 125 0 255
0.605 -0.765 0.36671576 -1 -0 -0 255 125 0 255
0.605 -0.78499985 -0.36671576 -1 -0 -0 255 125 0 255
0.605 -0.78499985 0.36671576 -1 -0 -0 255 125 0 255
0.605 -0.765 -0.36671576 -1 -0 -0 255 125 0 255
-0.36671576 -0.78499985 0.605 0 -0 -1 255 125 0 255
0.36671576 -0.765 0.605 0 -0 -1 255 125 0 255
0.36671576 -0.78499985 0.605 0 -0 -1 255 125 0 255
-0.36671576 -0.765 0.605 0 -0 -1 255 125 0 255
-0.605 0.765 0.36671576 0.70710677 -0 -0.70710677 255 125 0 255
-0.36671576 0.78499985 0.605 0.70710677 -0 -0.70710677 255 125 0 255
-0.36671576 0.765 0.605 0.70710677 -0 -0.70710677 255 125 0 255
-0.605 0.78499985 0.36671576 0.70710677 -0 -0.70710677 255 125 0 255
-0.36671576 0.78499985 -0.605 1.230366E-16 -0 1 255 125 0 255
0.36671576 0.765 -0.605 1.230366E-16 -0 1 255 125 0 255
0.36671576 0.78499985 -0.605 1.230366E-16 -0 1 255 125 0 255
-0.36671576 0.765 -0.605 1.230366E-16 -0 1 255 125 0 255
0.605 -0.765 -0.36671576 -0.70710677 2.049923E-18 0.70710677 255 125 0 255
0.605 -0.78499985 -0.36671576 -0.70710677 2.049923E-18 0.70710677 255 125 0 255
0.36671576 -0.78499985 -0.605 -0.70710677 2.049923E-18 0.70710677 255 125 0 255
0.36671576 -0.765 -0.605 -0.70710677 2.049923E-18 0.70710677 255 125 0 255
-0.605 -0.78499985 0.36671576 0.70710677 -0 -0.70710677 255 125 0 255
-0.36671576 -0.765 0.605 0.70710677 -0 -0.70710677 255 125 0 255
-0.36671576 -0.78499985 0.605 0.70710677 -0 -0.70710677 255 125 0 255
-0.605 -0.765 0.36671576 0.70710677 -0 -0.70710677 255 125 0 255
-0.605 0.78499985 -0.36671576 1 -0 -0 255 125 0 255
-0.605 0.765 0.36671576 1 -0 -0 255 125 0 255
-0.605 0.765 -0.36671576 1 -0 -0 255 125 0 255
-0.605 0.78499985 0.36671576 1 -0 -0 255 125 0 255
-0.605 0.78499985 -0.36671576 0.70710677 -0 0.70710677 255 125 0 255
-0.36671576 0.765 -0.605 0.70710677 -0 0.70710677 255 125 0 255
-0.36671576 0.78499985 -0.605 0.70710677 -0 0.70710677 255 125 0 255
-0.605 0.765 -0.36671576 0.70710677 -0 0.70710677 255 125 0 255
0.36671576 -0.765 -0.605 1.230366E-16 -0 1 255 125 0 255
0.36671576 -0.78499985 -0.605 1.230366E-16 -0 1 255 125 0 255
-0.36671576 -0.78499985 -0.605 1.230366E-16 -0 1 255 125 0 255
-0.36671576 -0.765 -0.605 1.230366E-16 -0 1 255 125 0 255
-0.605 -0.765 -0.36671576 1 -0 -0 255 125 0 255
-0.605 -0.78499985 0.36671576 1 -0 -0 255 125 0 255
-0.605 -0.78499985 -0.36671576 1 -0 -0 255 125 0 255
-0.605 -0.765 0.36671576 1 -0 -0 255 125 0 255
-0.36671576 -0.765 -0.605 0.70710677 2.3611675E-31 0.70710677 255 125 0 255
-0.36671576 -0.78499985 -0.605 0.70710677 2.3611675E-31 0.70710677 255 125 0 255
-0.605 -0.78499985 -0.36671576 0.70710677 2.3611675E-31 0.70710677 255 125 0 255
-0.605 -0.765 -0.36671576 0.70710677 2.3611675E-31 0.70710677 255 125 0 255
0.37499997 -0.765 0.625 -0.70710677 -0 -0.70710677 255 125 0 255
0.625 0.765 0.37499997 -0.70710677 -0 -0.70710677 255 125 0 255
0.625 -0.765 0.37499997 -0.70710677 -0 -0.70710677 255 125 0 255
0.37499997 0.765 0.625 -0.70710677 -0 -0.70710677 255 125 0 255
-0.37499997 -0.765 -0.625 0 1 -0 255 125 0 255
-0.36671576 -0.765 -0.605 0 1 -0 255 125 0 255
0.37499997 -0.765 -0.625 0 1 -0 255 125 0 255
-0.625 -0.765 -0.37499997 0 1 -0 255 125 0 255
-0.605 -0.765 -0.36671576 0 1 -0 255 125 0 255
-0.625 -0.765 0.37499997 0 1 -0 255 125 0 255
-0.605 -0.765 0.36671576 0 1 -0 255 125 0 255
-0.36671576 -0.765 0.605 0 1 -0 255 125 0 255
-0.37499997 -0.765 0.625 0 1 -0 255 125 0 255
0.36671576 -0.765 0.605 0 1 -0 255 125 0 255
0.36671576 -0.765 -0.605 0 1 -0 255 125 0 255
0.625 -0.765 -0.37499997 0 1 -0 255 125 0 255
0.605 -0.765 -0.36671576 0 1 -0 255 125 0 255
0.625 -0.765 0.37499997 0 1 -0 255 125 0 255
0.605 -0.765 0.36671576 0 1 -0 255 125 0 255
0.37499997 -0.765 0.625 0 1 -0 255 125 0 255
0.37499997 -0.765 0.625 0 -0 -1 255 125 0 255
0.0625 -0.27588844 0.625 0 -0 -1 255 125 0 255
0.37499997 0.765 0.625 0 -0 -1 255 125 0 255
-0.37499997 -0.765 0.625 0 -0 -1 255 125 0 255
0.025888337 -0.3125 0.625 0 -0 -1 255 125 0 255
-0.025888337 -0.3125 0.625 0 -0 -1 255 125 0 255
-0.0625 -0.27588844 0.625 0 -0 -1 255 125 0 255
-0.0625 -0.22411163 0.625 0 -0 -1 255 125 0 255
-0.0625 0.22411163 0.625 0 -0 -1 255 125 0 255
-0.0625 0.27588844 0.625 0 -0 -1 255 125 0 255
0.0625 0.27588844 0.625 0 -0 -1 255 125 0 255
-0.37499997 0.765 0.625 0 -0 -1 255 125 0 255
0.0625 0.22411163 0.625 0 -0 -1 255 125 0 255
0.0625 -0.22411163 0.625 0 -0 -1 255 125 0 255
0.025888337 0.3125 0.625 0 -0 -1 255 125 0 255
-0.025888337 0.3125 0.625 0 -0 -1 255 125 0 255
0.025888337 -0.18749999 0.625 0 -0 -1 255 125 0 255
0.025888337 0.18749999 0.625 0 -0 -1 255 125 0 255
-0.025888337 -0.18749999 0.625 0 -0 -1 255 125 0 255
-0.025888337 0.18749999 0.625 0 -0 -1 255 125 0 255
0.37499997 0.765 -0.625 0 -1 -0 255 125 0 255
0.36671576 0.765 -0.605 0 -1 -0 255 125 0 255
-0.37499997 0.765 -0.625 0 -1 -0 255 125 0 255
0.625 0.765 -0.37499997 0 -1 -0 255 125 0 255
0.605 0.765 -0.36671576 0 -1 -0 255 125 0 255
0.625 0.765 0.37499997 0 -1 -0 255 125 0 255
0.605 0.765 0.36671576 0 -1 -0 255 125 0 255
0.36671576 0.765 0.605 0 -1 -0 255 125 0 255
0.37499997 0.765 0.625 0 -1 -0 255 125 0 255
-0.36671576 0.765 0.605 0 -1 -0 255 125 0 255
-0.36671576 0.765 -0.605 0 -1 -0 255 125 0 255
-0.625 0.765 -0.37499997 0 -1 -0 255 125 0 255
-0.605 0.765 -0.36671576 0 -1 -0 255 125 0 255
-0.625 0.765 0.37499997 0 -1 -0 255 125 0 255
-0.605 0.765 0.36671576 0 -1 -0 255 125 0 255
-0.37499997 0.765 0.625 0 -1 -0 255 125 0 255
0.625 0.765 0.37499997 -1 -0 -0 255 125 0 255
0.625 -0.765 -0.37499997 -1 -0 -0 255 125 0 255
0.625 -0.765 0.37499997 -1 -0 -0 255 125 0 255
0.625 0.765 -0.37499997 -1 -0 -0 255 125 0 255
0.625 0.765 -0.37499997 -0.70710677 -0 0.70710677 255 125 0 255
0.37499997 -0.765 -0.625 -0.70710677 -0 0.70710677 255 125 0 255
0.625 -0.765 -0.37499997 -0.70710677 -0 0.70710677 255 125 0 255
0.37499997 0.765 -0.625 -0.70710677 -0 0.70710677 255 125 0 255
-0.37499997 0.765 -0.625 0 -0 1 255 125 0 255
0.37499997 -0.765 -0.625 0 -0 1 255 125 0 255
0.37499997 0.765 -0.625 0 -0 1 255 125 0 255
-0.37499997 -0.765 -0.625 0 -0 1 255 125 0 255
-0.625 0.765 -0.37499997 0.70710677 -0 0.70710677 255 125 0 255
-0.37499997 -0.765 -0.625 0.70710677 -0 0.70710677 255 125 0 255
-0.37499997 0.765 -0.625 0.70710677 -0 0.70710677 255 125 0 255
-0.625 -0.765 -0.37499997 0.70710677 -0 0.70710677 255 125 0 255
-0.625 0.765 -0.37499997 1 -0 -0 255 125 0 255
-0.625 -0.765 0.37499997 1 -0 -0 255 125 0 255
-0.625 -0.765 -0.37499997 1 -0 -0 255 125 0 255
-0.625 0.765 0.37499997 1 -0 -0 255 125 0 255
-0.625 -0.765 0.37499997 0.70710677 -0 -0.70710677 255 125 0 255
-0.37499997 0.765 0.625 0.70710677 -0 -0.70710677 255 125 0 255
-0.37499997 -0.765 0.625 0.70710677 -0 -0.70710677 255 125 0 255
-0.625 0.765 0.37499997 0.70710677 -0 -0.70710677 255 125 0 255
0.15361434 0.8749999 -0.37085778 0.70710677 -2.5830498E-14 -0.70710677 255 125 0 255
0.37085778 0.85499996 -0.15361434 0.70710677 -2.5830498E-14 -0.70710677 255 125 0 255
0.15361434 0.85499996 -0.37085778 0.70710677 -2.5830498E-14 -0.70710677 255 125 0 255
0.37085778 0.8749999 -0.15361434 0.70710677 -2.5830498E-14 -0.70710677 255 125 0 255
0.37085778 0.8749999 -0.15361434 1 -7.2191134E-14 -0 255 125 0 255
0.37085778 0.85499996 0.15361434 1 -7.2191134E-14 -0 255 125 0 255
0.37085778 0.85499996 -0.15361434 1 -7.2191134E-14 -0 255 125 0 255
0.37085778 0.8749999 0.15361434 1 -7.2191134E-14 -0 255 125 0 255
0.37085778 0.85499996 -0.15361434 9.39901E-15 -1 -3.198634E-31 255 125 0 255
0.13704582 0.85499996 -0.33085784 9.39901E-15 -1 -3.198634E-31 255 125 0 255
0.15361434 0.85499996 -0.37085778 9.39901E-15 -1 -3.198634E-31 255 125 0 255
0.33085784 0.85499996 -0.13704582 9.39901E-15 -1 -3.198634E-31 255 125 0 255
0.37085778 0.85499996 0.15361434 9.39901E-15 -1 -3.198634E-31 255 125 0 255
0.33085784 0.85499996 0.13704582 9.39901E-15 -1 -3.198634E-31 255 125 0 255
0.13704582 0.85499996 0.33085784 9.39901E-15 -1 -3.198634E-31 255 125 0 255
0.15361434 0.85499996 0.37085778 9.39901E-15 -1 -3.198634E-31 255 125 0 255
-0.13704582 0.85499996 0.33085784 9.39901E-15 -1 -3.198634E-31 255 125 0 255
-0.15361434 0.85499996 -0.37085778 9.39901E-15 -1 -3.198634E-31 255 125 0 255
-0.13704582 0.85499996 -0.33085784 9.39901E-15 -1 -3.198634E-31 255 125 0 255
-0.37085778 0.85499996 -0.15361434 9.39901E-15 -1 -3.198634E-31 255 125 0 255
-0.33085784 0.85499996 -0.13704582 9.39901E-15 -1 -3.198634E-31 255 125 0 255
-0.37085778 0.85499996 0.15361434 9.39901E-15 -1 -3.198634E-31 255 125 0 255
-0.33085784 0.85499996 0.13704582 9.39901E-15 -1 -3.198634E-31 255 125 0 255
-0.15361434 0.85499996 0.37085778 9.39901E-15 -1 -3.198634E-31 255 125 0 255
-0.15361434 0.85499996 -0.37085778 1.468595E-16 1.0064279E-31 -1 255 125 0 255
0.15361434 0.8749999 -0.37085778 1.468595E-16 1.0064279E-31 -1 255 125 0 255
0.15361434 0.85499996 -0.37085778 1.468595E-16 1.0064279E-31 -1 255 125 0 255
-0.15361434 0.8749999 -0.37085778 1.468595E-16 1.0064279E-31 -1 255 125 0 255
0.37085778 0.8749999 0.15361434 0.70710677 -2.5830498E-14 0.70710677 255 125 0 255
0.15361434 0.85499996 0.37085778 0.70710677 -2.5830498E-14 0.70710677 255 125 0 255
0.37085778 0.85499996 0.15361434 0.70710677 -2.5830498E-14 0.70710677 255 125 0 255
0.15361434 0.8749999 0.37085778 0.70710677 -2.5830498E-14 0.70710677 255 125 0 255
-0.15361434 0.8749999 0.37085778 0 -0 1 255 125 0 255
0.15361434 0.85499996 0.37085778 0 -0 1 255 125 0 255
0.15361434 0.8749999 0.37085778 0 -0 1 255 125 0 255
-0.15361434 0.85499996 0.37085778 0 -0 1 255 125 0 255
-0.15361434 0.8749999 0.37085778 -0.70710677 1.2915249E-14 0.70710677 255 125 0 255
-0.37085778 0.85499996 0.15361434 -0.70710677 1.2915249E-14 0.70710677 255 125 0 255
-0.15361434 0.85499996 0.37085778 -0.70710677 1.2915249E-14 0.70710677 255 125 0 255
-0.37085778 0.8749999 0.15361434 -0.70710677 1.2915249E-14 0.70710677 255 125 0 255
-0.37085778 0.8749999 0.15361434 -1 3.6095567E-14 -0 255 125 0 255
-0.37085778 0.85499996 -0.15361434 -1 3.6095567E-14 -0 255 125 0 255
-0.37085778 0.85499996 0.15361434 -1 3.6095567E-14 -0 255 125 0 255
-0.37085778 0.8749999 -0.15361434 -1 3.6095567E-14 -0 255 125 0 255
-0.37085778 0.8749999 -0.15361434 -0.70710677 1.2915249E-14 -0.70710677 255 125 0 255
-0.15361434 0.85499996 -0.37085778 -0.70710677 1.2915249E-14 -0.70710677 255 125 0 255
-0.37085778 0.85499996 -0.15361434 -0.70710677 1.2915249E-14 -0.70710677 255 125 0 255
-0.15361434 0.8749999 -0.37085778 -0.70710677 1.2915249E-14 -0.70710677 255 125 0 255
3 0 1 2
3 1 0 3
3 4 5 6
3 5 4 7
3 8 9 10
3 9 8 11
3 12 13 14
3 13 12 15
3 13 15 16
3 15 12 17
3 17 12 18
3 17 18 19
3 19 18 20
3 20 18 21
3 20 21 22
3 16 23 13
3 23 16 24
3 23 24 25
3 25 24 26
3 25 26 22
3 25 22 27
3 27 22 21
3 28 29 30
3 29 28 31
3 32 33 34
3 33 32 35
3 36 37 38
3 37 36 39
3 39 36 40
3 39 40 41
3 41 40 42
3 42 40 43
3 42 43 44
3 45 46 47
3 46 45 38
3 46 38 37
3 47 46 48
3 47 48 49
3 49 48 50
3 49 50 44
3 49 44 51
3 51 44 43
3 52 53 54
3 53 52 55
3 56 57 58
3 57 56 59
3 60 61 62
3 61 60 63
3 64 65 66
3 65 64 67
3 68 69 70
3 69 68 71
3 72 73 74
3 73 72 75
3 76 77 78
3 77 76 79
3 80 81 82
3 81 80 83
3 84 85 86
3 85 84 87
3 88 89 90
3 89 88 91
3 92 93 94
3 93 92 95
3 96 97 98
3 97 96 99
3 99 96 100
3 101 102 103
3 102 101 104
3 105 106 107
3 106 105 108
3 109 110 111
3 110 109 112
3 110 112 113
3 112 109 114
3 114 109 115
3 114 115 116
3 116 115 117
3 116 117 118
3 118 117 119
3 118 119 120
3 110 121 122
3 121 110 113
3 121 113 123
3 121 123 124
3 124 123 125
3 124 125 126
3 126 125 127
3 126 127 128
3 128 127 118
3 128 118 120
3 129 130 131
3 130 129 132
3 132 129 133
3 134 135 136
3 135 134 137
3 137 134 138
3 139 140 141
3 140 139 142
3 142 139 143
3 144 145 146
3 145 144 147
3 148 149 150
3 149 148 151
3 152 153 154
3 153 152 155
3 156 157 158
3 157 156 159
3 160 161 162
3 161 160 163
3 164 165 166
3 165 164 167
3 168 169 170
3 169 168 171
3 172 173 174
3 173 172 175
3 176 177 178
3 177 176 179
3 180 181 182
3 181 180 183
3 184 185 186
3 185 184 187
3 187 184 188
3 188 184 189
3 189 184 190
3 190 184 191
3 191 184 192
3 192 184 193
3 186 194 195
3 194 186 196
3 196 186 197
3 196 197 191
3 197 186 185
3 191 197 198
3 191 198 199
3 191 199 190
3 200 201 202
3 201 200 203
3 204 205 206
3 205 204 207
3 208 209 210
3 209 208 211
3 211 208 212
3 211 212 213
3 213 212 214
3 214 212 215
3 214 215 216
3 217 218 219
3 218 217 210
3 218 210 209
3 219 218 220
3 219 220 221
3 221 220 222
3 221 222 216
3 221 216 223
3 223 216 215
3 224 225 226
3 225 224 227
3 228 229 230
3 229 228 231
3 232 233 234
3 233 232 235
3 236 237 238
3 237 236 239
3 240 241 242
3 241 240 243
3 244 245 246
3 245 244 247
3 248 249 250
3 249 248 251
3 252 253 254
3 253 252 255
3 256 257 258
3 257 256 259
3 260 261 262
3 261 260 263
3 264 265 266
3 265 264 267
3 268 269 270
3 269 268 271
3 272 273 274
3 273 272 275
3 276 277 278
3 277 276 279
3 280 281 282
3 281 280 283
3 281 283 284
3 285 286 287
3 286 285 288
3 289 290 291
3 290 289 292
3 293 294 295
3 294 293 296
3 294 296 297
3 296 293 298
3 298 293 299
3 298 299 300
3 300 299 301
3 300 301 302
3 302 301 303
3 302 303 304
3 294 305 306
3 305 294 297
3 305 297 307
3 305 307 308
3 308 307 309
3 308 309 310
3 310 309 311
3 310 311 312
3 312 311 302
3 312 302 304
3 313 314 315
3 314 313 316
3 316 313 317
3 318 319 320
3 319 318 321
3 321 318 322
3 323 324 325
3 324 323 326
3 327 328 329
3 328 327 330
3 328 330 331
3 332 333 334
3 333 332 335
3 336 337 338
3 337 336 339
3 339 336 340
3 340 336 341
3 341 336 342
3 342 336 343
3 343 336 344
3 344 336 345
3 338 346 347
3 346 338 348
3 348 338 349
3 348 349 343
3 349 338 337
3 343 349 350
3 343 350 351
3 343 351 342
3 352 353 354
3 353 352 355
3 356 357 358
3 357 356 359
3 360 361 362
3 361 360 363
3 364 365 366
3 365 364 367
3 365 367 368
3 367 364 369
3 369 364 370
3 369 370 371
3 371 370 372
3 372 370 373
3 372 373 374
3 368 375 365
3 375 368 376
3 375 376 377
3 377 376 378
3 377 378 374
3 377 374 379
3 379 374 373
3 380 381 382
3 381 380 383
3 384 385 386
3 385 384 387
3 388 389 390
3 389 388 391
3 389 391 392
3 392 391 393
3 392 393 394
3 394 393 395
3 395 393 396
3 395 396 397
3 390 398 399
3 398 390 389
3 399 398 400
3 399 400 401
3 401 400 402
3 401 402 397
3 401 397 403
3 403 397 396
3 404 405 406
3 405 404 407
3 408 409 410
3 409 408 411
3 412 413 414
3 413 412 415
3 416 417 418
3 417 416 419
3 420 421 422
3 421 420 423
3 424 425 426
3 425 424 427
3 428 429 430
3 429 428 431
3 432 433 434
3 433 432 435
3 436 437 438
3 437 436 439
3 440 441 442
3 441 440 443
3 444 445 446
3 445 444 447
3 448 449 450
3 449 448 451
3 452 453 454
3 453 452 455
3 456 457 458
3 457 456 450
3 450 456 448
3 448 456 459
3 460 461 462
3 461 460 463
3 464 465 466
3 465 464 467
3 468 469 470
3 469 468 471
3 471 468 454
3 471 454 453
3 472 473 474
3 473 472 475
3 476 477 478
3 477 476 479
3 480 481 482
3 481 480 483
3 467 484 465
3 484 467 485
3 485 467 486
3 486 467 487
3 488 489 490
3 489 488 491
3 491 478 489
3 478 491 476
3 492 493 494
3 493 492 495
3 496 497 498
3 497 496 499
3 483 500 481
3 500 483 501
3 501 483 502
3 502 483 503
3 504 505 506
3 505 504 507
3 507 504 494
3 507 494 493
3 499 508 497
3 508 499 509
3 509 499 510
3 510 499 511
3 512 513 514
3 513 512 515
3 516 517 518
3 517 516 519
3 517 519 520
3 520 519 521
3 520 521 522
3 522 521 523
3 523 521 524
3 523 524 525
3 518 526 527
3 526 518 517
3 527 526 528
3 527 528 529
3 529 528 530
3 529 530 525
3 529 525 531
3 531 525 524
3 532 533 534
3 533 532 535
3 533 535 536
3 536 535 537
3 537 535 538
3 538 535 539
3 539 535 540
3 540 535 541
3 534 542 543
3 542 534 544
3 544 534 533
3 544 533 545
3 543 542 546
3 543 546 547
3 543 547 541
3 543 541 535
3 548 544 545
3 544 548 549
3 549 548 550
3 549 550 551
3 551 550 539
3 551 539 540
3 552 553 554
3 553 552 555
3 553 555 556
3 556 555 557
3 556 557 558
3 558 557 559
3 559 557 560
3 559 560 561
3 554 562 563
3 562 554 553
3 563 562 564
3 563 564 565
3 565 564 566
3 565 566 561
3 565 561 567
3 567 561 560
3 568 569 570
3 569 568 571
3 572 573 574
3 573 572 575
3 576 577 578
3 577 576 579
3 580 581 582
3 581 580 583
3 584 585 586
3 585 584 587
3 588 589 590
3 589 588 591
3 592 593 594
3 593 592 595
3 596 597 598
3 597 596 599
3 600 601 602
3 601 600 603
3 603 600 604
3 603 604 605
3 605 604 606
3 606 604 607
3 606 607 608
3 609 610 611
3 610 609 602
3 610 602 601
3 611 610 612
3 611 612 613
3 613 612 614
3 613 614 608
3 613 608 615
3 615 608 607
3 616 617 618
3 617 616 619
3 620 621 622
3 621 620 623
3 624 625 626
3 625 624 627
3 628 629 630
3 629 628 631
3 632 633 634
3 633 632 635
3 636 637 638
3 637 636 639

