ply
format ascii 1.0
commentY29udmVydGVyIGJ5IENvZGVMZW9wYXJk
comment Original mesh name: 'C:\Program Files (x86)\Steam\steamapps\common\Stormworks\rom\meshes\component_transmission_line_angle.mesh'
comment SubMesh index: 0
comment SubMesh name: 'ID16'
comment Shader: Opaque (0)
element vertex 166
property float x
property float y
property float z
property float nx
property float ny
property float nz
property uchar red
property uchar green
property uchar blue
property uchar alpha
element face 100
property list uchar ushort vertex_index
end_header
-0.02174621 -0.0525 -0.02174621 -4.1767812E-30 1 -2.074819E-15 255 125 0 255
0.099999994 -0.0525 0.02174621 -4.1767812E-30 1 -2.074819E-15 255 125 0 255
0.099999994 -0.0525 -0.02174621 -4.1767812E-30 1 -2.074819E-15 255 125 0 255
0.02174621 -0.0525 0.02174621 -4.1767812E-30 1 -2.074819E-15 255 125 0 255
-0.02174621 -0.02174621 -0.0525 1.038784E-15 0.70710677 0.70710677 255 125 0 255
0.099999994 -0.0525 -0.02174621 1.038784E-15 0.70710677 0.70710677 255 125 0 255
0.099999994 -0.02174621 -0.0525 1.038784E-15 0.70710677 0.70710677 255 125 0 255
-0.02174621 -0.0525 -0.02174621 1.038784E-15 0.70710677 0.70710677 255 125 0 255
-0.02174621 -0.0525 0.099999994 -2.9436618E-15 1 -3.371339E-16 255 125 0 255
0.02174621 -0.0525 0.099999994 -2.9436618E-15 1 -3.371339E-16 255 125 0 255
0.099999994 -0.0525 0.02174621 -1.5501779E-15 0.70710677 -0.70710677 255 125 0 255
0.0525 -0.02174621 0.0525 -1.5501779E-15 0.70710677 -0.70710677 255 125 0 255
0.099999994 -0.02174621 0.0525 -1.5501779E-15 0.70710677 -0.70710677 255 125 0 255
0.02174621 -0.0525 0.02174621 -1.5501779E-15 0.70710677 -0.70710677 255 125 0 255
-0.0525 -0.02174621 -0.02174621 0.57735026 0.57735026 0.57735026 255 125 0 255
-0.02174621 -0.0525 -0.02174621 0.57735026 0.57735026 0.57735026 255 125 0 255
-0.02174621 -0.02174621 -0.0525 0.57735026 0.57735026 0.57735026 255 125 0 255
-0.02174621 0.02174621 -0.0525 3.7060262E-16 2.074819E-15 1 255 125 0 255
0.099999994 -0.02174621 -0.0525 3.7060262E-16 2.074819E-15 1 255 125 0 255
0.099999994 0.02174621 -0.0525 3.7060262E-16 2.074819E-15 1 255 125 0 255
-0.02174621 -0.02174621 -0.0525 3.7060262E-16 2.074819E-15 1 255 125 0 255
-0.0525 -0.02174621 -0.02174621 0.70710677 0.70710677 -1.8383747E-15 255 125 0 255
-0.02174621 -0.0525 0.099999994 0.70710677 0.70710677 -1.8383747E-15 255 125 0 255
-0.02174621 -0.0525 -0.02174621 0.70710677 0.70710677 -1.8383747E-15 255 125 0 255
-0.0525 -0.02174621 0.099999994 0.70710677 0.70710677 -1.8383747E-15 255 125 0 255
0.02174621 -0.0525 0.099999994 -0.70710677 0.70710677 6.101765E-16 255 125 0 255
0.0525 -0.02174621 0.0525 -0.70710677 0.70710677 6.101765E-16 255 125 0 255
0.02174621 -0.0525 0.02174621 -0.70710677 0.70710677 6.101765E-16 255 125 0 255
0.0525 -0.02174621 0.099999994 -0.70710677 0.70710677 6.101765E-16 255 125 0 255
0.0525 -0.02174621 0.0525 -1.899767E-15 -0 -1 255 125 0 255
0.099999994 0.02174621 0.0525 -1.899767E-15 -0 -1 255 125 0 255
0.099999994 -0.02174621 0.0525 -1.899767E-15 -0 -1 255 125 0 255
0.0525 0.02174621 0.0525 -1.899767E-15 -0 -1 255 125 0 255
-0.02174621 0.02174621 -0.0525 0.70710677 2.5168847E-15 0.70710677 255 125 0 255
-0.0525 -0.02174621 -0.02174621 0.70710677 2.5168847E-15 0.70710677 255 125 0 255
-0.02174621 -0.02174621 -0.0525 0.70710677 2.5168847E-15 0.70710677 255 125 0 255
-0.0525 0.02174621 -0.02174621 0.70710677 2.5168847E-15 0.70710677 255 125 0 255
0.099999994 0.02174621 -0.0525 5.1939203E-16 -0.70710677 0.70710677 255 125 0 255
-0.02174621 0.0525 -0.02174621 5.1939203E-16 -0.70710677 0.70710677 255 125 0 255
-0.02174621 0.02174621 -0.0525 5.1939203E-16 -0.70710677 0.70710677 255 125 0 255
0.099999994 0.0525 -0.02174621 5.1939203E-16 -0.70710677 0.70710677 255 125 0 255
-0.0525 0.02174621 -0.02174621 1 -1.4247169E-30 -2.964821E-15 255 125 0 255
-0.0525 -0.02174621 0.099999994 1 -1.4247169E-30 -2.964821E-15 255 125 0 255
-0.0525 -0.02174621 -0.02174621 1 -1.4247169E-30 -2.964821E-15 255 125 0 255
-0.0525 0.02174621 0.099999994 1 -1.4247169E-30 -2.964821E-15 255 125 0 255
0.0525 -0.02174621 0.099999994 -1 -1.13286196E-32 1.899767E-15 255 125 0 255
0.0525 0.02174621 0.0525 -1 -1.13286196E-32 1.899767E-15 255 125 0 255
0.0525 -0.02174621 0.0525 -1 -1.13286196E-32 1.899767E-15 255 125 0 255
0.0525 0.02174621 0.099999994 -1 -1.13286196E-32 1.899767E-15 255 125 0 255
0.0525 0.02174621 0.0525 -1.5501779E-15 -0.70710677 -0.70710677 255 125 0 255
0.099999994 0.0525 0.02174621 -1.5501779E-15 -0.70710677 -0.70710677 255 125 0 255
0.099999994 0.02174621 0.0525 -1.5501779E-15 -0.70710677 -0.70710677 255 125 0 255
0.02174621 0.0525 0.02174621 -1.5501779E-15 -0.70710677 -0.70710677 255 125 0 255
-0.0525 0.02174621 -0.02174621 0.57735026 -0.57735026 0.57735026 255 125 0 255
-0.02174621 0.02174621 -0.0525 0.57735026 -0.57735026 0.57735026 255 125 0 255
-0.02174621 0.0525 -0.02174621 0.57735026 -0.57735026 0.57735026 255 125 0 255
0.099999994 0.0525 0.02174621 4.077334E-30 -1 2.074819E-15 255 125 0 255
-0.02174621 0.0525 -0.02174621 4.077334E-30 -1 2.074819E-15 255 125 0 255
0.099999994 0.0525 -0.02174621 4.077334E-30 -1 2.074819E-15 255 125 0 255
0.02174621 0.0525 0.02174621 4.077334E-30 -1 2.074819E-15 255 125 0 255
-0.02174621 0.0525 0.099999994 0.70710677 -0.70710677 -1.5650098E-15 255 125 0 255
-0.0525 0.02174621 -0.02174621 0.70710677 -0.70710677 -1.5650098E-15 255 125 0 255
-0.02174621 0.0525 -0.02174621 0.70710677 -0.70710677 -1.5650098E-15 255 125 0 255
-0.0525 0.02174621 0.099999994 0.70710677 -0.70710677 -1.5650098E-15 255 125 0 255
0.0525 0.02174621 0.099999994 -0.70710677 -0.70710677 2.2098276E-15 255 125 0 255
0.02174621 0.0525 0.02174621 -0.70710677 -0.70710677 2.2098276E-15 255 125 0 255
0.0525 0.02174621 0.0525 -0.70710677 -0.70710677 2.2098276E-15 255 125 0 255
0.02174621 0.0525 0.099999994 -0.70710677 -0.70710677 2.2098276E-15 255 125 0 255
-0.02174621 0.0525 0.099999994 2.9436618E-15 -1 3.371339E-16 255 125 0 255
0.02174621 0.0525 0.099999994 2.9436618E-15 -1 3.371339E-16 255 125 0 255
0.099999994 0.025888337 -0.0625 1.804779E-15 4.8220644E-32 1 255 125 0 255
0.125 -0.025888337 -0.0625 1.804779E-15 4.8220644E-32 1 255 125 0 255
0.125 0.025888337 -0.0625 1.804779E-15 4.8220644E-32 1 255 125 0 255
0.099999994 -0.025888337 -0.0625 1.804779E-15 4.8220644E-32 1 255 125 0 255
0.125 0.0625 -0.025888337 1.2560709E-15 -0.70710677 0.70710677 255 125 0 255
0.099999994 0.025888337 -0.0625 1.2560709E-15 -0.70710677 0.70710677 255 125 0 255
0.125 0.025888337 -0.0625 1.2560709E-15 -0.70710677 0.70710677 255 125 0 255
0.099999994 0.0625 -0.025888337 1.2560709E-15 -0.70710677 0.70710677 255 125 0 255
0.099999994 -0.0625 -0.025888337 1 -1.019475E-29 -1.637127E-15 255 125 0 255
0.099999994 -0.0525 -0.02174621 1 -1.019475E-29 -1.637127E-15 255 125 0 255
0.099999994 -0.0625 0.025888337 1 -1.019475E-29 -1.637127E-15 255 125 0 255
0.099999994 -0.025888337 -0.0625 1 -1.019475E-29 -1.637127E-15 255 125 0 255
0.099999994 -0.02174621 -0.0525 1 -1.019475E-29 -1.637127E-15 255 125 0 255
0.099999994 0.025888337 -0.0625 1 -1.019475E-29 -1.637127E-15 255 125 0 255
0.099999994 0.02174621 -0.0525 1 -1.019475E-29 -1.637127E-15 255 125 0 255
0.099999994 0.0525 -0.02174621 1 -1.019475E-29 -1.637127E-15 255 125 0 255
0.099999994 0.0625 -0.025888337 1 -1.019475E-29 -1.637127E-15 255 125 0 255
0.099999994 0.0525 0.02174621 1 -1.019475E-29 -1.637127E-15 255 125 0 255
0.099999994 -0.0525 0.02174621 1 -1.019475E-29 -1.637127E-15 255 125 0 255
0.099999994 -0.025888337 0.0625 1 -1.019475E-29 -1.637127E-15 255 125 0 255
0.099999994 -0.02174621 0.0525 1 -1.019475E-29 -1.637127E-15 255 125 0 255
0.099999994 0.025888337 0.0625 1 -1.019475E-29 -1.637127E-15 255 125 0 255
0.099999994 0.02174621 0.0525 1 -1.019475E-29 -1.637127E-15 255 125 0 255
0.099999994 0.0625 0.025888337 1 -1.019475E-29 -1.637127E-15 255 125 0 255
0.099999994 -0.025888337 -0.0625 1.2560709E-15 0.70710677 0.70710677 255 125 0 255
0.125 -0.0625 -0.025888337 1.2560709E-15 0.70710677 0.70710677 255 125 0 255
0.125 -0.025888337 -0.0625 1.2560709E-15 0.70710677 0.70710677 255 125 0 255
0.099999994 -0.0625 -0.025888337 1.2560709E-15 0.70710677 0.70710677 255 125 0 255
0.125 0.0625 0.025888337 4.655194E-30 -1 1.7428479E-15 255 125 0 255
0.099999994 0.0625 -0.025888337 4.655194E-30 -1 1.7428479E-15 255 125 0 255
0.125 0.0625 -0.025888337 4.655194E-30 -1 1.7428479E-15 255 125 0 255
0.099999994 0.0625 0.025888337 4.655194E-30 -1 1.7428479E-15 255 125 0 255
0.099999994 0.025888337 0.0625 -1.2965898E-15 -0.70710677 -0.70710677 255 125 0 255
0.125 0.0625 0.025888337 -1.2965898E-15 -0.70710677 -0.70710677 255 125 0 255
0.125 0.025888337 0.0625 -1.2965898E-15 -0.70710677 -0.70710677 255 125 0 255
0.099999994 0.0625 0.025888337 -1.2965898E-15 -0.70710677 -0.70710677 255 125 0 255
0.099999994 -0.025888337 0.0625 0 -0 -1 255 125 0 255
0.125 0.025888337 0.0625 0 -0 -1 255 125 0 255
0.125 -0.025888337 0.0625 0 -0 -1 255 125 0 255
0.099999994 0.025888337 0.0625 0 -0 -1 255 125 0 255
0.099999994 -0.0625 0.025888337 -1.2965898E-15 0.70710677 -0.70710677 255 125 0 255
0.125 -0.025888337 0.0625 -1.2965898E-15 0.70710677 -0.70710677 255 125 0 255
0.125 -0.0625 0.025888337 -1.2965898E-15 0.70710677 -0.70710677 255 125 0 255
0.099999994 -0.025888337 0.0625 -1.2965898E-15 0.70710677 -0.70710677 255 125 0 255
0.099999994 -0.0625 -0.025888337 -9.310388E-30 1 -3.485697E-15 255 125 0 255
0.125 -0.0625 0.025888337 -9.310388E-30 1 -3.485697E-15 255 125 0 255
0.125 -0.0625 -0.025888337 -9.310388E-30 1 -3.485697E-15 255 125 0 255
0.099999994 -0.0625 0.025888337 -9.310388E-30 1 -3.485697E-15 255 125 0 255
0.025888337 -0.0625 0.125 -0.70710677 0.70710677 -6.4829477E-16 255 125 0 255
0.0625 -0.025888337 0.099999994 -0.70710677 0.70710677 -6.4829477E-16 255 125 0 255
0.025888337 -0.0625 0.099999994 -0.70710677 0.70710677 -6.4829477E-16 255 125 0 255
0.0625 -0.025888337 0.125 -0.70710677 0.70710677 -6.4829477E-16 255 125 0 255
0.0625 0.025888337 0.099999994 1.3818931E-15 6.161899E-16 1 255 125 0 255
0.0525 0.02174621 0.099999994 1.3818931E-15 6.161899E-16 1 255 125 0 255
0.0625 -0.025888337 0.099999994 1.3818931E-15 6.161899E-16 1 255 125 0 255
0.025888337 0.0625 0.099999994 1.3818931E-15 6.161899E-16 1 255 125 0 255
0.02174621 0.0525 0.099999994 1.3818931E-15 6.161899E-16 1 255 125 0 255
-0.025888337 0.0625 0.099999994 1.3818931E-15 6.161899E-16 1 255 125 0 255
-0.02174621 0.0525 0.099999994 1.3818931E-15 6.161899E-16 1 255 125 0 255
-0.0525 0.02174621 0.099999994 1.3818931E-15 6.161899E-16 1 255 125 0 255
-0.0625 0.025888337 0.099999994 1.3818931E-15 6.161899E-16 1 255 125 0 255
-0.0525 -0.02174621 0.099999994 1.3818931E-15 6.161899E-16 1 255 125 0 255
0.0525 -0.02174621 0.099999994 1.3818931E-15 6.161899E-16 1 255 125 0 255
0.025888337 -0.0625 0.099999994 1.3818931E-15 6.161899E-16 1 255 125 0 255
0.02174621 -0.0525 0.099999994 1.3818931E-15 6.161899E-16 1 255 125 0 255
-0.025888337 -0.0625 0.099999994 1.3818931E-15 6.161899E-16 1 255 125 0 255
-0.02174621 -0.0525 0.099999994 1.3818931E-15 6.161899E-16 1 255 125 0 255
-0.0625 -0.025888337 0.099999994 1.3818931E-15 6.161899E-16 1 255 125 0 255
-0.025888337 -0.0625 0.099999994 -2.6142732E-15 1 -1.804779E-15 255 125 0 255
0.025888337 -0.0625 0.125 -2.6142732E-15 1 -1.804779E-15 255 125 0 255
0.025888337 -0.0625 0.099999994 -2.6142732E-15 1 -1.804779E-15 255 125 0 255
-0.025888337 -0.0625 0.125 -2.6142732E-15 1 -1.804779E-15 255 125 0 255
0.0625 0.025888337 0.125 -1 -0 -0 255 125 0 255
0.0625 -0.025888337 0.099999994 -1 -0 -0 255 125 0 255
0.0625 -0.025888337 0.125 -1 -0 -0 255 125 0 255
0.0625 0.025888337 0.099999994 -1 -0 -0 255 125 0 255
-0.0625 -0.025888337 0.099999994 0.70710677 0.70710677 -1.2560709E-15 255 125 0 255
-0.025888337 -0.0625 0.125 0.70710677 0.70710677 -1.2560709E-15 255 125 0 255
-0.025888337 -0.0625 0.099999994 0.70710677 0.70710677 -1.2560709E-15 255 125 0 255
-0.0625 -0.025888337 0.125 0.70710677 0.70710677 -1.2560709E-15 255 125 0 255
0.025888337 0.0625 0.125 -0.70710677 -0.70710677 6.4829477E-16 255 125 0 255
0.0625 0.025888337 0.099999994 -0.70710677 -0.70710677 6.4829477E-16 255 125 0 255
0.0625 0.025888337 0.125 -0.70710677 -0.70710677 6.4829477E-16 255 125 0 255
0.025888337 0.0625 0.099999994 -0.70710677 -0.70710677 6.4829477E-16 255 125 0 255
0.025888337 0.0625 0.125 8.7142427E-16 -1 1.804779E-15 255 125 0 255
-0.025888337 0.0625 0.099999994 8.7142427E-16 -1 1.804779E-15 255 125 0 255
0.025888337 0.0625 0.099999994 8.7142427E-16 -1 1.804779E-15 255 125 0 255
-0.025888337 0.0625 0.125 8.7142427E-16 -1 1.804779E-15 255 125 0 255
-0.025888337 0.0625 0.099999994 0.70710677 -0.70710677 4.0518423E-17 255 125 0 255
-0.0625 0.025888337 0.125 0.70710677 -0.70710677 4.0518423E-17 255 125 0 255
-0.0625 0.025888337 0.099999994 0.70710677 -0.70710677 4.0518423E-17 255 125 0 255
-0.025888337 0.0625 0.125 0.70710677 -0.70710677 4.0518423E-17 255 125 0 255
-0.0625 0.025888337 0.099999994 1 -0 -3.609557E-15 255 125 0 255
-0.0625 -0.025888337 0.125 1 -0 -3.609557E-15 255 125 0 255
-0.0625 -0.025888337 0.099999994 1 -0 -3.609557E-15 255 125 0 255
-0.0625 0.025888337 0.125 1 -0 -3.609557E-15 255 125 0 255
3 0 1 2
3 1 0 3
3 4 5 6
3 5 4 7
3 8 3 0
3 3 8 9
3 10 11 12
3 11 10 13
3 14 15 16
3 17 18 19
3 18 17 20
3 21 22 23
3 22 21 24
3 25 26 27
3 26 25 28
3 29 30 31
3 30 29 32
3 33 34 35
3 34 33 36
3 37 38 39
3 38 37 40
3 41 42 43
3 42 41 44
3 45 46 47
3 46 45 48
3 49 50 51
3 50 49 52
3 53 54 55
3 56 57 58
3 57 56 59
3 60 61 62
3 61 60 63
3 64 65 66
3 65 64 67
3 59 68 57
3 68 59 69
3 70 71 72
3 71 70 73
3 74 75 76
3 75 74 77
3 78 79 80
3 79 78 81
3 79 81 82
3 82 81 83
3 82 83 84
3 84 83 85
3 85 83 86
3 85 86 87
3 80 88 89
3 88 80 79
3 89 88 90
3 89 90 91
3 91 90 92
3 91 92 87
3 91 87 93
3 93 87 86
3 94 95 96
3 95 94 97
3 98 99 100
3 99 98 101
3 102 103 104
3 103 102 105
3 106 107 108
3 107 106 109
3 110 111 112
3 111 110 113
3 114 115 116
3 115 114 117
3 118 119 120
3 119 118 121
3 122 123 124
3 123 122 125
3 123 125 126
3 126 125 127
3 126 127 128
3 128 127 129
3 129 127 130
3 129 130 131
3 124 132 133
3 132 124 123
3 133 132 134
3 133 134 135
3 135 134 136
3 135 136 131
3 135 131 137
3 137 131 130
3 138 139 140
3 139 138 141
3 142 143 144
3 143 142 145
3 146 147 148
3 147 146 149
3 150 151 152
3 151 150 153
3 154 155 156
3 155 154 157
3 158 159 160
3 159 158 161
3 162 163 164
3 163 162 165

