ply
format ascii 1.0
commentY29udmVydGVyIGJ5IENvZGVMZW9wYXJk
comment Original mesh name: 'C:\Program Files (x86)\Steam\steamapps\common\Stormworks\rom\meshes\component_wing_xxl.mesh'
comment SubMesh index: 0
comment SubMesh name: 'ID2'
comment Shader: Opaque (0)
element vertex 10
property float x
property float y
property float z
property float nx
property float ny
property float nz
property uchar red
property uchar green
property uchar blue
property uchar alpha
element face 4
property list uchar ushort vertex_index
end_header
-0.37499997 -2.8750005 -0.8749999 0 -1.443823E-15 1 255 125 0 255
0.125 -6.6250005 -0.8749999 0 -1.443823E-15 1 255 125 0 255
0.125 -2.8750005 -0.8749999 0 -1.443823E-15 1 255 125 0 255
0.125 -6.6250005 -0.8749999 0.9912279 0.1321637 5.577244E-15 255 125 0 255
-0.37499997 -2.8750005 0.8749999 0.9912279 0.1321637 5.577244E-15 255 125 0 255
0.125 -6.6250005 0.8749999 0.9912279 0.1321637 5.577244E-15 255 125 0 255
-0.37499997 -2.8750005 -0.8749999 0.9912279 0.1321637 5.577244E-15 255 125 0 255
-0.37499997 -2.8750005 0.8749999 0 7.941026E-16 -1 255 125 0 255
0.125 -2.8750005 0.8749999 0 7.941026E-16 -1 255 125 0 255
0.125 -6.6250005 0.8749999 0 7.941026E-16 -1 255 125 0 255
3 0 1 2
3 3 4 5
3 4 3 6
3 7 8 9

