ply
format ascii 1.0
commentY29udmVydGVyIGJ5IENvZGVMZW9wYXJk
comment Original mesh name: 'C:\Program Files (x86)\Steam\steamapps\common\Stormworks\rom\meshes\component_torque_clutch.mesh'
comment SubMesh index: 0
comment SubMesh name: 'ID44'
comment Shader: Opaque (0)
element vertex 496
property float x
property float y
property float z
property float nx
property float ny
property float nz
property uchar red
property uchar green
property uchar blue
property uchar alpha
element face 288
property list uchar ushort vertex_index
end_header
0.125 0.085 0.35500005 -0.70710677 -0.70710677 3.0787997E-13 86 86 86 255
0.085 0.125 0.37499997 -0.70710677 -0.70710677 3.0787997E-13 86 86 86 255
0.085 0.125 0.35500005 -0.70710677 -0.70710677 3.0787997E-13 86 86 86 255
0.125 0.085 0.37499997 -0.70710677 -0.70710677 3.0787997E-13 86 86 86 255
0.125 0.085 0.37499997 -1 -3.3176078E-14 -1.803554E-13 86 86 86 255
0.125 -0.085 0.35500005 -1 -3.3176078E-14 -1.803554E-13 86 86 86 255
0.125 -0.085 0.37499997 -1 -3.3176078E-14 -1.803554E-13 86 86 86 255
0.125 0.085 0.35500005 -1 -3.3176078E-14 -1.803554E-13 86 86 86 255
0.085 -0.125 0.37499997 -3.778797E-14 -1.016521E-13 -1 86 86 86 255
0.125 0.085 0.37499997 -3.778797E-14 -1.016521E-13 -1 86 86 86 255
0.125 -0.085 0.37499997 -3.778797E-14 -1.016521E-13 -1 86 86 86 255
0.085 0.125 0.37499997 -3.778797E-14 -1.016521E-13 -1 86 86 86 255
0.08249998 -0.034172624 0.37499997 -3.778797E-14 -1.016521E-13 -1 86 86 86 255
0.034172624 -0.08249998 0.37499997 -3.778797E-14 -1.016521E-13 -1 86 86 86 255
0.034172624 0.08249998 0.37499997 -3.778797E-14 -1.016521E-13 -1 86 86 86 255
-0.085 0.125 0.37499997 -3.778797E-14 -1.016521E-13 -1 86 86 86 255
0.08249998 0.034172624 0.37499997 -3.778797E-14 -1.016521E-13 -1 86 86 86 255
-0.034172624 0.08249998 0.37499997 -3.778797E-14 -1.016521E-13 -1 86 86 86 255
0.085 0.125 0.37499997 2.123269E-14 -1 1.645308E-13 86 86 86 255
-0.085 0.125 0.35500005 2.123269E-14 -1 1.645308E-13 86 86 86 255
0.085 0.125 0.35500005 2.123269E-14 -1 1.645308E-13 86 86 86 255
-0.085 0.125 0.37499997 2.123269E-14 -1 1.645308E-13 86 86 86 255
0.085 -0.125 0.37499997 -0.70710677 0.70710677 -2.4389028E-13 86 86 86 255
0.125 -0.085 0.35500005 -0.70710677 0.70710677 -2.4389028E-13 86 86 86 255
0.085 -0.125 0.35500005 -0.70710677 0.70710677 -2.4389028E-13 86 86 86 255
0.125 -0.085 0.37499997 -0.70710677 0.70710677 -2.4389028E-13 86 86 86 255
-0.085 -0.125 0.37499997 -4.754104E-13 -4.217929E-13 -1 86 86 86 255
-0.034172624 -0.08249998 0.37499997 -4.754104E-13 -4.217929E-13 -1 86 86 86 255
-0.08249998 -0.034172624 0.37499997 -4.754104E-13 -4.217929E-13 -1 86 86 86 255
-0.08249998 0.034172624 0.37499997 -4.754104E-13 -4.217929E-13 -1 86 86 86 255
-0.125 -0.085 0.37499997 -4.754104E-13 -4.217929E-13 -1 86 86 86 255
-0.125 0.085 0.37499997 -4.754104E-13 -4.217929E-13 -1 86 86 86 255
0.08249998 -0.034172624 0.35500005 0.70710677 -0.70710677 9.757754E-15 86 86 86 255
0.034172624 -0.08249998 0.37499997 0.70710677 -0.70710677 9.757754E-15 86 86 86 255
0.034172624 -0.08249998 0.35500005 0.70710677 -0.70710677 9.757754E-15 86 86 86 255
0.08249998 -0.034172624 0.37499997 0.70710677 -0.70710677 9.757754E-15 86 86 86 255
0.08249998 0.034172624 0.35500005 1 -1.6840351E-25 -4.0390767E-13 86 86 86 255
0.08249998 -0.034172624 0.37499997 1 -1.6840351E-25 -4.0390767E-13 86 86 86 255
0.08249998 -0.034172624 0.35500005 1 -1.6840351E-25 -4.0390767E-13 86 86 86 255
0.08249998 0.034172624 0.37499997 1 -1.6840351E-25 -4.0390767E-13 86 86 86 255
0.034172624 0.08249998 0.35500005 0.70710677 0.70710677 -5.8096957E-13 86 86 86 255
0.08249998 0.034172624 0.37499997 0.70710677 0.70710677 -5.8096957E-13 86 86 86 255
0.08249998 0.034172624 0.35500005 0.70710677 0.70710677 -5.8096957E-13 86 86 86 255
0.034172624 0.08249998 0.37499997 0.70710677 0.70710677 -5.8096957E-13 86 86 86 255
-0.034172624 0.08249998 0.35500005 -3.1168622E-28 1 -4.177073E-13 86 86 86 255
0.034172624 0.08249998 0.37499997 -3.1168622E-28 1 -4.177073E-13 86 86 86 255
0.034172624 0.08249998 0.35500005 -3.1168622E-28 1 -4.177073E-13 86 86 86 255
-0.034172624 0.08249998 0.37499997 -3.1168622E-28 1 -4.177073E-13 86 86 86 255
-0.085 0.125 0.35500005 0.70710677 -0.70710677 3.2043205E-13 86 86 86 255
-0.125 0.085 0.37499997 0.70710677 -0.70710677 3.2043205E-13 86 86 86 255
-0.125 0.085 0.35500005 0.70710677 -0.70710677 3.2043205E-13 86 86 86 255
-0.085 0.125 0.37499997 0.70710677 -0.70710677 3.2043205E-13 86 86 86 255
-0.085 -0.125 0.35500005 8.4930765E-15 1 -6.337732E-13 86 86 86 255
0.085 -0.125 0.37499997 8.4930765E-15 1 -6.337732E-13 86 86 86 255
0.085 -0.125 0.35500005 8.4930765E-15 1 -6.337732E-13 86 86 86 255
-0.085 -0.125 0.37499997 8.4930765E-15 1 -6.337732E-13 86 86 86 255
-0.125 -0.085 0.37499997 0.70710677 0.70710677 -2.6957738E-13 86 86 86 255
-0.085 -0.125 0.35500005 0.70710677 0.70710677 -2.6957738E-13 86 86 86 255
-0.125 -0.085 0.35500005 0.70710677 0.70710677 -2.6957738E-13 86 86 86 255
-0.085 -0.125 0.37499997 0.70710677 0.70710677 -2.6957738E-13 86 86 86 255
-0.125 0.085 0.35500005 1 2.229432E-14 -2.527915E-13 86 86 86 255
-0.125 -0.085 0.37499997 1 2.229432E-14 -2.527915E-13 86 86 86 255
-0.125 -0.085 0.35500005 1 2.229432E-14 -2.527915E-13 86 86 86 255
-0.125 0.085 0.37499997 1 2.229432E-14 -2.527915E-13 86 86 86 255
-0.08249998 0.034172624 0.37499997 -0.70710677 0.70710677 -9.757754E-15 86 86 86 255
-0.034172624 0.08249998 0.35500005 -0.70710677 0.70710677 -9.757754E-15 86 86 86 255
-0.08249998 0.034172624 0.35500005 -0.70710677 0.70710677 -9.757754E-15 86 86 86 255
-0.034172624 0.08249998 0.37499997 -0.70710677 0.70710677 -9.757754E-15 86 86 86 255
-0.08249998 -0.034172624 0.37499997 -1 1.6840351E-25 4.0390767E-13 86 86 86 255
-0.08249998 0.034172624 0.35500005 -1 1.6840351E-25 4.0390767E-13 86 86 86 255
-0.08249998 -0.034172624 0.35500005 -1 1.6840351E-25 4.0390767E-13 86 86 86 255
-0.08249998 0.034172624 0.37499997 -1 1.6840351E-25 4.0390767E-13 86 86 86 255
-0.034172624 -0.08249998 0.37499997 -0.70710677 -0.70710677 5.8096957E-13 86 86 86 255
-0.08249998 -0.034172624 0.35500005 -0.70710677 -0.70710677 5.8096957E-13 86 86 86 255
-0.034172624 -0.08249998 0.35500005 -0.70710677 -0.70710677 5.8096957E-13 86 86 86 255
-0.08249998 -0.034172624 0.37499997 -0.70710677 -0.70710677 5.8096957E-13 86 86 86 255
0.034172624 -0.08249998 0.37499997 3.961019E-15 -1 4.177073E-13 86 86 86 255
-0.034172624 -0.08249998 0.35500005 3.961019E-15 -1 4.177073E-13 86 86 86 255
0.034172624 -0.08249998 0.35500005 3.961019E-15 -1 4.177073E-13 86 86 86 255
-0.034172624 -0.08249998 0.37499997 3.961019E-15 -1 4.177073E-13 86 86 86 255
0.08249998 -0.034172624 0.35500005 -4.0390767E-13 -4.177073E-13 -1 86 86 86 255
0.0625 -0.025888337 0.35500005 -4.0390767E-13 -4.177073E-13 -1 86 86 86 255
0.08249998 0.034172624 0.35500005 -4.0390767E-13 -4.177073E-13 -1 86 86 86 255
0.034172624 -0.08249998 0.35500005 -4.0390767E-13 -4.177073E-13 -1 86 86 86 255
0.025888337 -0.0625 0.35500005 -4.0390767E-13 -4.177073E-13 -1 86 86 86 255
-0.034172624 -0.08249998 0.35500005 -4.0390767E-13 -4.177073E-13 -1 86 86 86 255
-0.025888337 -0.0625 0.35500005 -4.0390767E-13 -4.177073E-13 -1 86 86 86 255
-0.0625 -0.025888337 0.35500005 -4.0390767E-13 -4.177073E-13 -1 86 86 86 255
-0.08249998 -0.034172624 0.35500005 -4.0390767E-13 -4.177073E-13 -1 86 86 86 255
-0.0625 0.025888337 0.35500005 -4.0390767E-13 -4.177073E-13 -1 86 86 86 255
0.0625 0.025888337 0.35500005 -4.0390767E-13 -4.177073E-13 -1 86 86 86 255
0.034172624 0.08249998 0.35500005 -4.0390767E-13 -4.177073E-13 -1 86 86 86 255
0.025888337 0.0625 0.35500005 -4.0390767E-13 -4.177073E-13 -1 86 86 86 255
-0.034172624 0.08249998 0.35500005 -4.0390767E-13 -4.177073E-13 -1 86 86 86 255
-0.025888337 0.0625 0.35500005 -4.0390767E-13 -4.177073E-13 -1 86 86 86 255
-0.08249998 0.034172624 0.35500005 -4.0390767E-13 -4.177073E-13 -1 86 86 86 255
-0.034172624 0.08249998 -0.125 2.860779E-28 1 5.075142E-16 86 86 86 255
0.034172624 0.08249998 -0.105 2.860779E-28 1 5.075142E-16 86 86 86 255
0.034172624 0.08249998 -0.125 2.860779E-28 1 5.075142E-16 86 86 86 255
-0.034172624 0.08249998 -0.105 2.860779E-28 1 5.075142E-16 86 86 86 255
-0.085 0.125 -0.125 3.766551E-14 3.155477E-13 1 86 86 86 255
0.034172624 0.08249998 -0.125 3.766551E-14 3.155477E-13 1 86 86 86 255
0.085 0.125 -0.125 3.766551E-14 3.155477E-13 1 86 86 86 255
-0.034172624 0.08249998 -0.125 3.766551E-14 3.155477E-13 1 86 86 86 255
-0.08249998 0.034172624 -0.125 3.766551E-14 3.155477E-13 1 86 86 86 255
-0.08249998 -0.034172624 -0.125 3.766551E-14 3.155477E-13 1 86 86 86 255
-0.085 -0.125 -0.125 3.766551E-14 3.155477E-13 1 86 86 86 255
-0.034172624 -0.08249998 -0.125 3.766551E-14 3.155477E-13 1 86 86 86 255
-0.125 0.085 -0.125 3.766551E-14 3.155477E-13 1 86 86 86 255
-0.125 -0.085 -0.125 3.766551E-14 3.155477E-13 1 86 86 86 255
-0.034172624 0.08249998 -0.105 -0.70710677 0.70710677 2.8587817E-13 86 86 86 255
-0.08249998 0.034172624 -0.125 -0.70710677 0.70710677 2.8587817E-13 86 86 86 255
-0.08249998 0.034172624 -0.105 -0.70710677 0.70710677 2.8587817E-13 86 86 86 255
-0.034172624 0.08249998 -0.125 -0.70710677 0.70710677 2.8587817E-13 86 86 86 255
0.08249998 0.034172624 -0.105 4.0378527E-13 -5.075142E-16 1 86 86 86 255
0.0625 0.025888337 -0.105 4.0378527E-13 -5.075142E-16 1 86 86 86 255
0.08249998 -0.034172624 -0.105 4.0378527E-13 -5.075142E-16 1 86 86 86 255
0.034172624 0.08249998 -0.105 4.0378527E-13 -5.075142E-16 1 86 86 86 255
0.025888337 0.0625 -0.105 4.0378527E-13 -5.075142E-16 1 86 86 86 255
-0.034172624 0.08249998 -0.105 4.0378527E-13 -5.075142E-16 1 86 86 86 255
-0.025888337 0.0625 -0.105 4.0378527E-13 -5.075142E-16 1 86 86 86 255
-0.0625 0.025888337 -0.105 4.0378527E-13 -5.075142E-16 1 86 86 86 255
-0.08249998 0.034172624 -0.105 4.0378527E-13 -5.075142E-16 1 86 86 86 255
-0.0625 -0.025888337 -0.105 4.0378527E-13 -5.075142E-16 1 86 86 86 255
0.0625 -0.025888337 -0.105 4.0378527E-13 -5.075142E-16 1 86 86 86 255
0.034172624 -0.08249998 -0.105 4.0378527E-13 -5.075142E-16 1 86 86 86 255
0.025888337 -0.0625 -0.105 4.0378527E-13 -5.075142E-16 1 86 86 86 255
-0.034172624 -0.08249998 -0.105 4.0378527E-13 -5.075142E-16 1 86 86 86 255
-0.025888337 -0.0625 -0.105 4.0378527E-13 -5.075142E-16 1 86 86 86 255
-0.08249998 -0.034172624 -0.105 4.0378527E-13 -5.075142E-16 1 86 86 86 255
0.034172624 0.08249998 -0.125 0.70710677 0.70710677 -2.8516038E-13 86 86 86 255
0.08249998 0.034172624 -0.105 0.70710677 0.70710677 -2.8516038E-13 86 86 86 255
0.08249998 0.034172624 -0.125 0.70710677 0.70710677 -2.8516038E-13 86 86 86 255
0.034172624 0.08249998 -0.105 0.70710677 0.70710677 -2.8516038E-13 86 86 86 255
0.125 -0.085 -0.125 4.752879E-13 -4.5931547E-15 1 86 86 86 255
0.125 0.085 -0.125 4.752879E-13 -4.5931547E-15 1 86 86 86 255
0.085 -0.125 -0.125 4.752879E-13 -4.5931547E-15 1 86 86 86 255
0.08249998 0.034172624 -0.125 4.752879E-13 -4.5931547E-15 1 86 86 86 255
0.034172624 -0.08249998 -0.125 4.752879E-13 -4.5931547E-15 1 86 86 86 255
0.08249998 -0.034172624 -0.125 4.752879E-13 -4.5931547E-15 1 86 86 86 255
-0.08249998 -0.034172624 -0.105 -0.70710677 -0.70710677 2.8516038E-13 86 86 86 255
-0.034172624 -0.08249998 -0.125 -0.70710677 -0.70710677 2.8516038E-13 86 86 86 255
-0.034172624 -0.08249998 -0.105 -0.70710677 -0.70710677 2.8516038E-13 86 86 86 255
-0.08249998 -0.034172624 -0.125 -0.70710677 -0.70710677 2.8516038E-13 86 86 86 255
-0.08249998 0.034172624 -0.105 -1 8.1198585E-29 4.0378527E-13 86 86 86 255
-0.08249998 -0.034172624 -0.125 -1 8.1198585E-29 4.0378527E-13 86 86 86 255
-0.08249998 -0.034172624 -0.105 -1 8.1198585E-29 4.0378527E-13 86 86 86 255
-0.08249998 0.034172624 -0.125 -1 8.1198585E-29 4.0378527E-13 86 86 86 255
0.085 0.125 -0.105 -2.123269E-14 -1 2.52669E-13 86 86 86 255
-0.085 0.125 -0.125 -2.123269E-14 -1 2.52669E-13 86 86 86 255
0.085 0.125 -0.125 -2.123269E-14 -1 2.52669E-13 86 86 86 255
-0.085 0.125 -0.105 -2.123269E-14 -1 2.52669E-13 86 86 86 255
-0.085 0.125 -0.105 0.70710677 -0.70710677 -1.2788629E-14 86 86 86 255
-0.125 0.085 -0.125 0.70710677 -0.70710677 -1.2788629E-14 86 86 86 255
-0.085 0.125 -0.125 0.70710677 -0.70710677 -1.2788629E-14 86 86 86 255
-0.125 0.085 -0.105 0.70710677 -0.70710677 -1.2788629E-14 86 86 86 255
-0.125 0.085 -0.125 1 -3.3176078E-14 1.804779E-13 86 86 86 255
-0.125 -0.085 -0.105 1 -3.3176078E-14 1.804779E-13 86 86 86 255
-0.125 -0.085 -0.125 1 -3.3176078E-14 1.804779E-13 86 86 86 255
-0.125 0.085 -0.105 1 -3.3176078E-14 1.804779E-13 86 86 86 255
-0.085 -0.125 -0.125 0.70710677 0.70710677 -5.102789E-14 86 86 86 255
-0.125 -0.085 -0.105 0.70710677 0.70710677 -5.102789E-14 86 86 86 255
-0.085 -0.125 -0.105 0.70710677 0.70710677 -5.102789E-14 86 86 86 255
-0.125 -0.085 -0.125 0.70710677 0.70710677 -5.102789E-14 86 86 86 255
0.08249998 0.034172624 -0.125 1 -8.1198585E-29 -4.0378527E-13 86 86 86 255
0.08249998 -0.034172624 -0.105 1 -8.1198585E-29 -4.0378527E-13 86 86 86 255
0.08249998 -0.034172624 -0.125 1 -8.1198585E-29 -4.0378527E-13 86 86 86 255
0.08249998 0.034172624 -0.105 1 -8.1198585E-29 -4.0378527E-13 86 86 86 255
0.034172624 -0.08249998 -0.105 -3.961019E-15 -1 -5.075142E-16 86 86 86 255
-0.034172624 -0.08249998 -0.125 -3.961019E-15 -1 -5.075142E-16 86 86 86 255
0.034172624 -0.08249998 -0.125 -3.961019E-15 -1 -5.075142E-16 86 86 86 255
-0.034172624 -0.08249998 -0.105 -3.961019E-15 -1 -5.075142E-16 86 86 86 255
0.08249998 -0.034172624 -0.125 0.70710677 -0.70710677 -2.8587817E-13 86 86 86 255
0.034172624 -0.08249998 -0.105 0.70710677 -0.70710677 -2.8587817E-13 86 86 86 255
0.034172624 -0.08249998 -0.125 0.70710677 -0.70710677 -2.8587817E-13 86 86 86 255
0.08249998 -0.034172624 -0.105 0.70710677 -0.70710677 -2.8587817E-13 86 86 86 255
-0.085 -0.125 -0.125 -8.4930765E-15 1 2.165734E-13 86 86 86 255
0.085 -0.125 -0.105 -8.4930765E-15 1 2.165734E-13 86 86 86 255
0.085 -0.125 -0.125 -8.4930765E-15 1 2.165734E-13 86 86 86 255
-0.085 -0.125 -0.105 -8.4930765E-15 1 2.165734E-13 86 86 86 255
0.085 -0.125 -0.105 -0.70710677 0.70710677 -2.5513945E-14 86 86 86 255
0.125 -0.085 -0.125 -0.70710677 0.70710677 -2.5513945E-14 86 86 86 255
0.085 -0.125 -0.125 -0.70710677 0.70710677 -2.5513945E-14 86 86 86 255
0.125 -0.085 -0.105 -0.70710677 0.70710677 -2.5513945E-14 86 86 86 255
0.125 0.085 -0.105 -1 2.229432E-14 2.52669E-13 86 86 86 255
0.125 -0.085 -0.125 -1 2.229432E-14 2.52669E-13 86 86 86 255
0.125 -0.085 -0.105 -1 2.229432E-14 2.52669E-13 86 86 86 255
0.125 0.085 -0.125 -1 2.229432E-14 2.52669E-13 86 86 86 255
0.085 0.125 -0.105 -0.70710677 -0.70710677 -2.5513945E-14 86 86 86 255
0.125 0.085 -0.125 -0.70710677 -0.70710677 -2.5513945E-14 86 86 86 255
0.125 0.085 -0.105 -0.70710677 -0.70710677 -2.5513945E-14 86 86 86 255
0.085 0.125 -0.125 -0.70710677 -0.70710677 -2.5513945E-14 86 86 86 255
-0.025888337 -0.0625 -0.125 3.485697E-15 1 5.075142E-16 86 86 86 255
0.025888337 -0.0625 -0.105 3.485697E-15 1 5.075142E-16 86 86 86 255
0.025888337 -0.0625 -0.125 3.485697E-15 1 5.075142E-16 86 86 86 255
-0.025888337 -0.0625 -0.105 3.485697E-15 1 5.075142E-16 86 86 86 255
-0.0625 -0.025888337 -0.125 0.70710677 0.70710677 -2.8516038E-13 86 86 86 255
-0.025888337 -0.0625 -0.105 0.70710677 0.70710677 -2.8516038E-13 86 86 86 255
-0.025888337 -0.0625 -0.125 0.70710677 0.70710677 -2.8516038E-13 86 86 86 255
-0.0625 -0.025888337 -0.105 0.70710677 0.70710677 -2.8516038E-13 86 86 86 255
0.0625 -0.025888337 -0.105 -0.70710677 0.70710677 2.8587817E-13 86 86 86 255
0.025888337 -0.0625 -0.125 -0.70710677 0.70710677 2.8587817E-13 86 86 86 255
0.025888337 -0.0625 -0.105 -0.70710677 0.70710677 2.8587817E-13 86 86 86 255
0.0625 -0.025888337 -0.125 -0.70710677 0.70710677 2.8587817E-13 86 86 86 255
-0.0625 0.025888337 -0.125 1 -8.1198585E-29 -4.0378527E-13 86 86 86 255
-0.0625 -0.025888337 -0.105 1 -8.1198585E-29 -4.0378527E-13 86 86 86 255
-0.0625 -0.025888337 -0.125 1 -8.1198585E-29 -4.0378527E-13 86 86 86 255
-0.0625 0.025888337 -0.105 1 -8.1198585E-29 -4.0378527E-13 86 86 86 255
0.0625 0.025888337 -0.105 -1 8.1198585E-29 4.0378527E-13 86 86 86 255
0.0625 -0.025888337 -0.125 -1 8.1198585E-29 4.0378527E-13 86 86 86 255
0.0625 -0.025888337 -0.105 -1 8.1198585E-29 4.0378527E-13 86 86 86 255
0.0625 0.025888337 -0.125 -1 8.1198585E-29 4.0378527E-13 86 86 86 255
-0.025888337 0.0625 -0.125 0.70710677 -0.70710677 -2.8587817E-13 86 86 86 255
-0.0625 0.025888337 -0.105 0.70710677 -0.70710677 -2.8587817E-13 86 86 86 255
-0.0625 0.025888337 -0.125 0.70710677 -0.70710677 -2.8587817E-13 86 86 86 255
-0.025888337 0.0625 -0.105 0.70710677 -0.70710677 -2.8587817E-13 86 86 86 255
0.025888337 0.0625 -0.105 -0.70710677 -0.70710677 2.8516038E-13 86 86 86 255
0.0625 0.025888337 -0.125 -0.70710677 -0.70710677 2.8516038E-13 86 86 86 255
0.0625 0.025888337 -0.105 -0.70710677 -0.70710677 2.8516038E-13 86 86 86 255
0.025888337 0.0625 -0.125 -0.70710677 -0.70710677 2.8516038E-13 86 86 86 255
0.025888337 0.0625 -0.105 -2.860779E-28 -1 -5.075142E-16 86 86 86 255
-0.025888337 0.0625 -0.125 -2.860779E-28 -1 -5.075142E-16 86 86 86 255
0.025888337 0.0625 -0.125 -2.860779E-28 -1 -5.075142E-16 86 86 86 255
-0.025888337 0.0625 -0.105 -2.860779E-28 -1 -5.075142E-16 86 86 86 255
0.105 0.085 -0.06499999 -0.70710677 -0.70710677 -3.2288127E-15 199 199 199 255
0.085 0.105 -0.085 -0.70710677 -0.70710677 -3.2288127E-15 199 199 199 255
0.105 0.085 -0.085 -0.70710677 -0.70710677 -3.2288127E-15 199 199 199 255
0.085 0.105 -0.06499999 -0.70710677 -0.70710677 -3.2288127E-15 199 199 199 255
0.105 0.085 -0.06499999 -1 2.1232691E-15 -4.5119463E-15 199 199 199 255
0.105 -0.085 -0.085 -1 2.1232691E-15 -4.5119463E-15 199 199 199 255
0.105 -0.085 -0.06499999 -1 2.1232691E-15 -4.5119463E-15 199 199 199 255
0.105 0.085 -0.085 -1 2.1232691E-15 -4.5119463E-15 199 199 199 255
0.10119047 0.125 -0.04500001 -0.4354261 -0.4354261 0.7879139 199 199 199 255
0.105 0.085 -0.06499999 -0.4354261 -0.4354261 0.7879139 199 199 199 255
0.125 0.10119047 -0.04500001 -0.4354261 -0.4354261 0.7879139 199 199 199 255
0.085 0.105 -0.06499999 -0.4354261 -0.4354261 0.7879139 199 199 199 255
0.085 0.105 -0.06499999 0 -1 -0 199 199 199 255
-0.085 0.105 -0.085 0 -1 -0 199 199 199 255
0.085 0.105 -0.085 0 -1 -0 199 199 199 255
-0.085 0.105 -0.06499999 0 -1 -0 199 199 199 255
0.105 0.085 -0.085 -0.57735026 -0.57735026 -0.57735026 199 199 199 255
0.085 0.125 -0.105 -0.57735026 -0.57735026 -0.57735026 199 199 199 255
0.125 0.085 -0.105 -0.57735026 -0.57735026 -0.57735026 199 199 199 255
0.085 0.105 -0.085 -0.57735026 -0.57735026 -0.57735026 199 199 199 255
0.085 -0.105 -0.085 -0.70710677 0.70710677 -3.1971576E-15 199 199 199 255
0.105 -0.085 -0.06499999 -0.70710677 0.70710677 -3.1971576E-15 199 199 199 255
0.105 -0.085 -0.085 -0.70710677 0.70710677 -3.1971576E-15 199 199 199 255
0.085 -0.105 -0.06499999 -0.70710677 0.70710677 -3.1971576E-15 199 199 199 255
0.105 0.085 -0.06499999 -0.70710677 1.5486289E-15 0.70710677 199 199 199 255
0.125 -0.10119047 -0.04500001 -0.70710677 1.5486289E-15 0.70710677 199 199 199 255
0.125 0.10119047 -0.04500001 -0.70710677 1.5486289E-15 0.70710677 199 199 199 255
0.105 -0.085 -0.06499999 -0.70710677 1.5486289E-15 0.70710677 199 199 199 255
0.105 -0.085 -0.085 -0.70710677 4.0798837E-15 -0.70710677 199 199 199 255
0.125 0.085 -0.105 -0.70710677 4.0798837E-15 -0.70710677 199 199 199 255
0.125 -0.085 -0.105 -0.70710677 4.0798837E-15 -0.70710677 199 199 199 255
0.105 0.085 -0.085 -0.70710677 4.0798837E-15 -0.70710677 199 199 199 255
-0.10119047 0.125 -0.04500001 -5.6819613E-28 -0.70710677 0.70710677 199 199 199 255
0.085 0.105 -0.06499999 -5.6819613E-28 -0.70710677 0.70710677 199 199 199 255
0.10119047 0.125 -0.04500001 -5.6819613E-28 -0.70710677 0.70710677 199 199 199 255
-0.085 0.105 -0.06499999 -5.6819613E-28 -0.70710677 0.70710677 199 199 199 255
-0.085 0.105 -0.06499999 0.70710677 -0.70710677 3.1655027E-17 199 199 199 255
-0.105 0.085 -0.085 0.70710677 -0.70710677 3.1655027E-17 199 199 199 255
-0.085 0.105 -0.085 0.70710677 -0.70710677 3.1655027E-17 199 199 199 255
-0.105 0.085 -0.06499999 0.70710677 -0.70710677 3.1655027E-17 199 199 199 255
0.085 0.105 -0.085 -2.3694168E-14 -0.70710677 -0.70710677 199 199 199 255
-0.085 0.125 -0.105 -2.3694168E-14 -0.70710677 -0.70710677 199 199 199 255
0.085 0.125 -0.105 -2.3694168E-14 -0.70710677 -0.70710677 199 199 199 255
-0.085 0.105 -0.085 -2.3694168E-14 -0.70710677 -0.70710677 199 199 199 255
-0.085 -0.105 -0.085 -1.698615E-14 1 -4.263134E-29 199 199 199 255
0.085 -0.105 -0.06499999 -1.698615E-14 1 -4.263134E-29 199 199 199 255
0.085 -0.105 -0.085 -1.698615E-14 1 -4.263134E-29 199 199 199 255
-0.085 -0.105 -0.06499999 -1.698615E-14 1 -4.263134E-29 199 199 199 255
0.105 -0.085 -0.06499999 -0.4354261 0.4354261 0.7879139 199 199 199 255
0.10119047 -0.125 -0.04500001 -0.4354261 0.4354261 0.7879139 199 199 199 255
0.125 -0.10119047 -0.04500001 -0.4354261 0.4354261 0.7879139 199 199 199 255
0.085 -0.105 -0.06499999 -0.4354261 0.4354261 0.7879139 199 199 199 255
0.085 -0.105 -0.085 -0.57735026 0.57735026 -0.57735026 199 199 199 255
0.125 -0.085 -0.105 -0.57735026 0.57735026 -0.57735026 199 199 199 255
0.085 -0.125 -0.105 -0.57735026 0.57735026 -0.57735026 199 199 199 255
0.105 -0.085 -0.085 -0.57735026 0.57735026 -0.57735026 199 199 199 255
-0.10119047 0.125 -0.04500001 0.4354261 -0.4354261 0.7879139 199 199 199 255
-0.105 0.085 -0.06499999 0.4354261 -0.4354261 0.7879139 199 199 199 255
-0.085 0.105 -0.06499999 0.4354261 -0.4354261 0.7879139 199 199 199 255
-0.125 0.10119047 -0.04500001 0.4354261 -0.4354261 0.7879139 199 199 199 255
-0.105 0.085 -0.085 1 -1.327043E-15 -3.742217E-33 199 199 199 255
-0.105 -0.085 -0.06499999 1 -1.327043E-15 -3.742217E-33 199 199 199 255
-0.105 -0.085 -0.085 1 -1.327043E-15 -3.742217E-33 199 199 199 255
-0.105 0.085 -0.06499999 1 -1.327043E-15 -3.742217E-33 199 199 199 255
-0.105 0.085 -0.085 0.57735026 -0.57735026 -0.57735026 199 199 199 255
-0.085 0.125 -0.105 0.57735026 -0.57735026 -0.57735026 199 199 199 255
-0.085 0.105 -0.085 0.57735026 -0.57735026 -0.57735026 199 199 199 255
-0.125 0.085 -0.105 0.57735026 -0.57735026 -0.57735026 199 199 199 255
-0.105 -0.085 -0.085 0.70710677 0.70710677 3.5098716E-29 199 199 199 255
-0.085 -0.105 -0.06499999 0.70710677 0.70710677 3.5098716E-29 199 199 199 255
-0.085 -0.105 -0.085 0.70710677 0.70710677 3.5098716E-29 199 199 199 255
-0.105 -0.085 -0.06499999 0.70710677 0.70710677 3.5098716E-29 199 199 199 255
-0.085 -0.105 -0.06499999 3.0739417E-13 0.70710677 0.70710677 199 199 199 255
0.10119047 -0.125 -0.04500001 3.0739417E-13 0.70710677 0.70710677 199 199 199 255
0.085 -0.105 -0.06499999 3.0739417E-13 0.70710677 0.70710677 199 199 199 255
-0.10119047 -0.125 -0.04500001 3.0739417E-13 0.70710677 0.70710677 199 199 199 255
-0.085 -0.125 -0.105 -3.8385606E-13 0.70710677 -0.70710677 199 199 199 255
0.085 -0.105 -0.085 -3.8385606E-13 0.70710677 -0.70710677 199 199 199 255
0.085 -0.125 -0.105 -3.8385606E-13 0.70710677 -0.70710677 199 199 199 255
-0.085 -0.105 -0.085 -3.8385606E-13 0.70710677 -0.70710677 199 199 199 255
-0.105 -0.085 -0.06499999 0.70710677 3.1706297E-13 0.70710677 199 199 199 255
-0.125 0.10119047 -0.04500001 0.70710677 3.1706297E-13 0.70710677 199 199 199 255
-0.125 -0.10119047 -0.04500001 0.70710677 3.1706297E-13 0.70710677 199 199 199 255
-0.105 0.085 -0.06499999 0.70710677 3.1706297E-13 0.70710677 199 199 199 255
-0.125 0.085 -0.105 0.70710677 -3.5589625E-13 -0.70710677 199 199 199 255
-0.105 -0.085 -0.085 0.70710677 -3.5589625E-13 -0.70710677 199 199 199 255
-0.125 -0.085 -0.105 0.70710677 -3.5589625E-13 -0.70710677 199 199 199 255
-0.105 0.085 -0.085 0.70710677 -3.5589625E-13 -0.70710677 199 199 199 255
-0.105 -0.085 -0.06499999 0.4354261 0.4354261 0.7879139 199 199 199 255
-0.10119047 -0.125 -0.04500001 0.4354261 0.4354261 0.7879139 199 199 199 255
-0.085 -0.105 -0.06499999 0.4354261 0.4354261 0.7879139 199 199 199 255
-0.125 -0.10119047 -0.04500001 0.4354261 0.4354261 0.7879139 199 199 199 255
-0.085 -0.125 -0.105 0.57735026 0.57735026 -0.57735026 199 199 199 255
-0.105 -0.085 -0.085 0.57735026 0.57735026 -0.57735026 199 199 199 255
-0.085 -0.105 -0.085 0.57735026 0.57735026 -0.57735026 199 199 199 255
-0.125 -0.085 -0.105 0.57735026 0.57735026 -0.57735026 199 199 199 255
-0.125 -0.10119047 -0.04500001 0.70710677 0.70710677 -2.9764215E-13 255 125 0 255
-0.10119047 -0.125 0.125 0.70710677 0.70710677 -2.9764215E-13 255 125 0 255
-0.10119047 -0.125 -0.04500001 0.70710677 0.70710677 -2.9764215E-13 255 125 0 255
-0.125 -0.10119047 0.125 0.70710677 0.70710677 -2.9764215E-13 255 125 0 255
-0.125 0.10119047 -0.04500001 1 -2.0064891E-15 -2.086112E-13 255 125 0 255
-0.125 -0.10119047 0.125 1 -2.0064891E-15 -2.086112E-13 255 125 0 255
-0.125 -0.10119047 -0.04500001 1 -2.0064891E-15 -2.086112E-13 255 125 0 255
-0.125 0.10119047 0.125 1 -2.0064891E-15 -2.086112E-13 255 125 0 255
-0.10119047 -0.125 0.2949999 0.70710677 0.70710677 -3.0665715E-13 255 125 0 255
-0.125 -0.10119047 0.2949999 0.70710677 0.70710677 -3.0665715E-13 255 125 0 255
-0.10119047 -0.125 -0.04500001 -1.426837E-14 1 -2.123269E-13 255 125 0 255
0.10119047 -0.125 0.125 -1.426837E-14 1 -2.123269E-13 255 125 0 255
0.10119047 -0.125 -0.04500001 -1.426837E-14 1 -2.123269E-13 255 125 0 255
-0.10119047 -0.125 0.125 -1.426837E-14 1 -2.123269E-13 255 125 0 255
-0.10119047 0.125 -0.04500001 0.70710677 -0.70710677 2.6252857E-15 255 125 0 255
-0.125 0.10119047 0.125 0.70710677 -0.70710677 2.6252857E-15 255 125 0 255
-0.125 0.10119047 -0.04500001 0.70710677 -0.70710677 2.6252857E-15 255 125 0 255
-0.10119047 0.125 0.125 0.70710677 -0.70710677 2.6252857E-15 255 125 0 255
-0.125 -0.10119047 0.2949999 1 1.1147161E-16 -2.103363E-13 255 125 0 255
-0.125 0.10119047 0.2949999 1 1.1147161E-16 -2.103363E-13 255 125 0 255
0.10119047 -0.125 0.2949999 -8.505904E-26 1 -2.0383379E-13 255 125 0 255
-0.10119047 -0.125 0.2949999 -8.505904E-26 1 -2.0383379E-13 255 125 0 255
0.10119047 -0.125 0.125 -0.70710677 0.70710677 -2.6287907E-15 255 125 0 255
0.125 -0.10119047 -0.04500001 -0.70710677 0.70710677 -2.6287907E-15 255 125 0 255
0.10119047 -0.125 -0.04500001 -0.70710677 0.70710677 -2.6287907E-15 255 125 0 255
0.125 -0.10119047 0.125 -0.70710677 0.70710677 -2.6287907E-15 255 125 0 255
0.10119047 0.125 0.125 6.923431E-30 -1 2.123269E-13 255 125 0 255
-0.10119047 0.125 -0.04500001 6.923431E-30 -1 2.123269E-13 255 125 0 255
0.10119047 0.125 -0.04500001 6.923431E-30 -1 2.123269E-13 255 125 0 255
-0.10119047 0.125 0.125 6.923431E-30 -1 2.123269E-13 255 125 0 255
-0.125 0.10119047 0.2949999 0.70710677 -0.70710677 -3.0949627E-15 255 125 0 255
-0.10119047 0.125 0.2949999 0.70710677 -0.70710677 -3.0949627E-15 255 125 0 255
0.10119047 -0.125 0.2949999 -0.70710677 0.70710677 1.8394527E-14 255 125 0 255
0.125 -0.10119047 0.2949999 -0.70710677 0.70710677 1.8394527E-14 255 125 0 255
0.125 -0.10119047 0.125 -1 2.229432E-15 2.086112E-13 255 125 0 255
0.125 0.10119047 -0.04500001 -1 2.229432E-15 2.086112E-13 255 125 0 255
0.125 -0.10119047 -0.04500001 -1 2.229432E-15 2.086112E-13 255 125 0 255
0.125 0.10119047 0.125 -1 2.229432E-15 2.086112E-13 255 125 0 255
0.125 0.10119047 0.125 -0.70710677 -0.70710677 2.9765624E-13 255 125 0 255
0.10119047 0.125 -0.04500001 -0.70710677 -0.70710677 2.9765624E-13 255 125 0 255
0.125 0.10119047 -0.04500001 -0.70710677 -0.70710677 2.9765624E-13 255 125 0 255
0.10119047 0.125 0.125 -0.70710677 -0.70710677 2.9765624E-13 255 125 0 255
0.10119047 0.125 0.2949999 3.592699E-30 -1 2.0383379E-13 255 125 0 255
-0.10119047 0.125 0.2949999 3.592699E-30 -1 2.0383379E-13 255 125 0 255
0.125 -0.10119047 0.2949999 -1 -1.917884E-29 2.102036E-13 255 125 0 255
0.125 0.10119047 0.2949999 -1 -1.917884E-29 2.102036E-13 255 125 0 255
0.125 0.10119047 0.2949999 -0.70710677 -0.70710677 2.9126655E-13 255 125 0 255
0.10119047 0.125 0.2949999 -0.70710677 -0.70710677 2.9126655E-13 255 125 0 255
-0.125 -0.10119047 0.2949999 0.70710677 -2.9345618E-13 -0.70710677 199 199 199 255
-0.105 0.085 0.31499985 0.70710677 -2.9345618E-13 -0.70710677 199 199 199 255
-0.105 -0.085 0.31499985 0.70710677 -2.9345618E-13 -0.70710677 199 199 199 255
-0.125 0.10119047 0.2949999 0.70710677 -2.9345618E-13 -0.70710677 199 199 199 255
-0.10119047 -0.125 0.2949999 0.4354261 0.4354261 -0.7879139 199 199 199 255
-0.105 -0.085 0.31499985 0.4354261 0.4354261 -0.7879139 199 199 199 255
-0.085 -0.105 0.31499985 0.4354261 0.4354261 -0.7879139 199 199 199 255
-0.125 -0.10119047 0.2949999 0.4354261 0.4354261 -0.7879139 199 199 199 255
-0.105 0.085 0.31499985 0.4354261 -0.4354261 -0.7879139 199 199 199 255
-0.10119047 0.125 0.2949999 0.4354261 -0.4354261 -0.7879139 199 199 199 255
-0.085 0.105 0.31499985 0.4354261 -0.4354261 -0.7879139 199 199 199 255
-0.125 0.10119047 0.2949999 0.4354261 -0.4354261 -0.7879139 199 199 199 255
-0.105 0.085 0.31499985 1 2.1232691E-15 4.389482E-15 199 199 199 255
-0.105 -0.085 0.3350001 1 2.1232691E-15 4.389482E-15 199 199 199 255
-0.105 -0.085 0.31499985 1 2.1232691E-15 4.389482E-15 199 199 199 255
-0.105 0.085 0.3350001 1 2.1232691E-15 4.389482E-15 199 199 199 255
-0.105 -0.085 0.31499985 0.70710677 0.70710677 -2.9189414E-13 199 199 199 255
-0.085 -0.105 0.3350001 0.70710677 0.70710677 -2.9189414E-13 199 199 199 255
-0.085 -0.105 0.31499985 0.70710677 0.70710677 -2.9189414E-13 199 199 199 255
-0.105 -0.085 0.3350001 0.70710677 0.70710677 -2.9189414E-13 199 199 199 255
-0.10119047 -0.125 0.2949999 -3.0748077E-13 0.70710677 -0.70710677 199 199 199 255
0.085 -0.105 0.31499985 -3.0748077E-13 0.70710677 -0.70710677 199 199 199 255
0.10119047 -0.125 0.2949999 -3.0748077E-13 0.70710677 -0.70710677 199 199 199 255
-0.085 -0.105 0.31499985 -3.0748077E-13 0.70710677 -0.70710677 199 199 199 255
0.085 0.105 0.31499985 -8.6595606E-17 -0.70710677 -0.70710677 199 199 199 255
-0.10119047 0.125 0.2949999 -8.6595606E-17 -0.70710677 -0.70710677 199 199 199 255
0.10119047 0.125 0.2949999 -8.6595606E-17 -0.70710677 -0.70710677 199 199 199 255
-0.085 0.105 0.31499985 -8.6595606E-17 -0.70710677 -0.70710677 199 199 199 255
-0.085 0.105 0.3350001 0.70710677 -0.70710677 2.9814695E-13 199 199 199 255
-0.105 0.085 0.31499985 0.70710677 -0.70710677 2.9814695E-13 199 199 199 255
-0.085 0.105 0.31499985 0.70710677 -0.70710677 2.9814695E-13 199 199 199 255
-0.105 0.085 0.3350001 0.70710677 -0.70710677 2.9814695E-13 199 199 199 255
-0.105 -0.085 0.3350001 0.70710677 2.9908468E-13 0.70710677 199 199 199 255
-0.125 0.085 0.35500005 0.70710677 2.9908468E-13 0.70710677 199 199 199 255
-0.125 -0.085 0.35500005 0.70710677 2.9908468E-13 0.70710677 199 199 199 255
-0.105 0.085 0.3350001 0.70710677 2.9908468E-13 0.70710677 199 199 199 255
-0.085 -0.105 0.31499985 1.698615E-14 1 -4.171998E-13 199 199 199 255
0.085 -0.105 0.3350001 1.698615E-14 1 -4.171998E-13 199 199 199 255
0.085 -0.105 0.31499985 1.698615E-14 1 -4.171998E-13 199 199 199 255
-0.085 -0.105 0.3350001 1.698615E-14 1 -4.171998E-13 199 199 199 255
-0.105 -0.085 0.3350001 0.57735026 0.57735026 0.57735026 199 199 199 255
-0.085 -0.125 0.35500005 0.57735026 0.57735026 0.57735026 199 199 199 255
-0.085 -0.105 0.3350001 0.57735026 0.57735026 0.57735026 199 199 199 255
-0.125 -0.085 0.35500005 0.57735026 0.57735026 0.57735026 199 199 199 255
0.10119047 -0.125 0.2949999 -0.4354261 0.4354261 -0.7879139 199 199 199 255
0.105 -0.085 0.31499985 -0.4354261 0.4354261 -0.7879139 199 199 199 255
0.125 -0.10119047 0.2949999 -0.4354261 0.4354261 -0.7879139 199 199 199 255
0.085 -0.105 0.31499985 -0.4354261 0.4354261 -0.7879139 199 199 199 255
0.105 0.085 0.31499985 -0.4354261 -0.4354261 -0.7879139 199 199 199 255
0.10119047 0.125 0.2949999 -0.4354261 -0.4354261 -0.7879139 199 199 199 255
0.125 0.10119047 0.2949999 -0.4354261 -0.4354261 -0.7879139 199 199 199 255
0.085 0.105 0.31499985 -0.4354261 -0.4354261 -0.7879139 199 199 199 255
0.085 0.105 0.3350001 2.554612E-29 -1 4.171998E-13 199 199 199 255
-0.085 0.105 0.31499985 2.554612E-29 -1 4.171998E-13 199 199 199 255
0.085 0.105 0.31499985 2.554612E-29 -1 4.171998E-13 199 199 199 255
-0.085 0.105 0.3350001 2.554612E-29 -1 4.171998E-13 199 199 199 255
-0.085 0.125 0.35500005 0.57735026 -0.57735026 0.57735026 199 199 199 255
-0.105 0.085 0.3350001 0.57735026 -0.57735026 0.57735026 199 199 199 255
-0.085 0.105 0.3350001 0.57735026 -0.57735026 0.57735026 199 199 199 255
-0.125 0.085 0.35500005 0.57735026 -0.57735026 0.57735026 199 199 199 255
0.085 -0.105 0.31499985 -0.70710677 0.70710677 -2.9491817E-13 199 199 199 255
0.105 -0.085 0.3350001 -0.70710677 0.70710677 -2.9491817E-13 199 199 199 255
0.105 -0.085 0.31499985 -0.70710677 0.70710677 -2.9491817E-13 199 199 199 255
0.085 -0.105 0.3350001 -0.70710677 0.70710677 -2.9491817E-13 199 199 199 255
-0.085 -0.105 0.3350001 3.8394266E-13 0.70710677 0.70710677 199 199 199 255
0.085 -0.125 0.35500005 3.8394266E-13 0.70710677 0.70710677 199 199 199 255
0.085 -0.105 0.3350001 3.8394266E-13 0.70710677 0.70710677 199 199 199 255
-0.085 -0.125 0.35500005 3.8394266E-13 0.70710677 0.70710677 199 199 199 255
0.105 -0.085 0.31499985 -0.70710677 2.2058185E-14 -0.70710677 199 199 199 255
0.125 0.10119047 0.2949999 -0.70710677 2.2058185E-14 -0.70710677 199 199 199 255
0.125 -0.10119047 0.2949999 -0.70710677 2.2058185E-14 -0.70710677 199 199 199 255
0.105 0.085 0.31499985 -0.70710677 2.2058185E-14 -0.70710677 199 199 199 255
0.105 0.085 0.3350001 -0.70710677 -0.70710677 2.9505969E-13 199 199 199 255
0.085 0.105 0.31499985 -0.70710677 -0.70710677 2.9505969E-13 199 199 199 255
0.105 0.085 0.31499985 -0.70710677 -0.70710677 2.9505969E-13 199 199 199 255
0.085 0.105 0.3350001 -0.70710677 -0.70710677 2.9505969E-13 199 199 199 255
-0.085 0.125 0.35500005 2.3780767E-14 -0.70710677 0.70710677 199 199 199 255
0.085 0.105 0.3350001 2.3780767E-14 -0.70710677 0.70710677 199 199 199 255
0.085 0.125 0.35500005 2.3780767E-14 -0.70710677 0.70710677 199 199 199 255
-0.085 0.105 0.3350001 2.3780767E-14 -0.70710677 0.70710677 199 199 199 255
0.105 -0.085 0.3350001 -1 -1.327043E-15 1.2246471E-16 199 199 199 255
0.105 0.085 0.31499985 -1 -1.327043E-15 1.2246471E-16 199 199 199 255
0.105 -0.085 0.31499985 -1 -1.327043E-15 1.2246471E-16 199 199 199 255
0.105 0.085 0.3350001 -1 -1.327043E-15 1.2246471E-16 199 199 199 255
0.085 -0.105 0.3350001 -0.57735026 0.57735026 0.57735026 199 199 199 255
0.125 -0.085 0.35500005 -0.57735026 0.57735026 0.57735026 199 199 199 255
0.105 -0.085 0.3350001 -0.57735026 0.57735026 0.57735026 199 199 199 255
0.085 -0.125 0.35500005 -0.57735026 0.57735026 0.57735026 199 199 199 255
0.085 0.125 0.35500005 -0.57735026 -0.57735026 0.57735026 199 199 199 255
0.105 0.085 0.3350001 -0.57735026 -0.57735026 0.57735026 199 199 199 255
0.125 0.085 0.35500005 -0.57735026 -0.57735026 0.57735026 199 199 199 255
0.085 0.105 0.3350001 -0.57735026 -0.57735026 0.57735026 199 199 199 255
0.125 -0.085 0.35500005 -0.70710677 -6.0891464E-14 0.70710677 199 199 199 255
0.105 0.085 0.3350001 -0.70710677 -6.0891464E-14 0.70710677 199 199 199 255
0.105 -0.085 0.3350001 -0.70710677 -6.0891464E-14 0.70710677 199 199 199 255
0.125 0.085 0.35500005 -0.70710677 -6.0891464E-14 0.70710677 199 199 199 255
-0.025888337 -0.0625 0.35500005 -3.485697E-15 1 -4.177073E-13 86 86 86 255
0.025888337 -0.0625 0.37499997 -3.485697E-15 1 -4.177073E-13 86 86 86 255
0.025888337 -0.0625 0.35500005 -3.485697E-15 1 -4.177073E-13 86 86 86 255
-0.025888337 -0.0625 0.37499997 -3.485697E-15 1 -4.177073E-13 86 86 86 255
0.025888337 -0.0625 0.37499997 -0.70710677 0.70710677 -9.757754E-15 86 86 86 255
0.0625 -0.025888337 0.35500005 -0.70710677 0.70710677 -9.757754E-15 86 86 86 255
0.025888337 -0.0625 0.35500005 -0.70710677 0.70710677 -9.757754E-15 86 86 86 255
0.0625 -0.025888337 0.37499997 -0.70710677 0.70710677 -9.757754E-15 86 86 86 255
-0.0625 -0.025888337 0.35500005 0.70710677 0.70710677 -5.8096957E-13 86 86 86 255
-0.025888337 -0.0625 0.37499997 0.70710677 0.70710677 -5.8096957E-13 86 86 86 255
-0.025888337 -0.0625 0.35500005 0.70710677 0.70710677 -5.8096957E-13 86 86 86 255
-0.0625 -0.025888337 0.37499997 0.70710677 0.70710677 -5.8096957E-13 86 86 86 255
0.0625 -0.025888337 0.37499997 -1 1.6840351E-25 4.0390767E-13 86 86 86 255
0.0625 0.025888337 0.35500005 -1 1.6840351E-25 4.0390767E-13 86 86 86 255
0.0625 -0.025888337 0.35500005 -1 1.6840351E-25 4.0390767E-13 86 86 86 255
0.0625 0.025888337 0.37499997 -1 1.6840351E-25 4.0390767E-13 86 86 86 255
-0.0625 0.025888337 0.35500005 1 -1.6840351E-25 -4.0390767E-13 86 86 86 255
-0.0625 -0.025888337 0.37499997 1 -1.6840351E-25 -4.0390767E-13 86 86 86 255
-0.0625 -0.025888337 0.35500005 1 -1.6840351E-25 -4.0390767E-13 86 86 86 255
-0.0625 0.025888337 0.37499997 1 -1.6840351E-25 -4.0390767E-13 86 86 86 255
0.0625 0.025888337 0.37499997 -0.70710677 -0.70710677 5.8096957E-13 86 86 86 255
0.025888337 0.0625 0.35500005 -0.70710677 -0.70710677 5.8096957E-13 86 86 86 255
0.0625 0.025888337 0.35500005 -0.70710677 -0.70710677 5.8096957E-13 86 86 86 255
0.025888337 0.0625 0.37499997 -0.70710677 -0.70710677 5.8096957E-13 86 86 86 255
-0.025888337 0.0625 0.35500005 0.70710677 -0.70710677 9.757754E-15 86 86 86 255
-0.0625 0.025888337 0.37499997 0.70710677 -0.70710677 9.757754E-15 86 86 86 255
-0.0625 0.025888337 0.35500005 0.70710677 -0.70710677 9.757754E-15 86 86 86 255
-0.025888337 0.0625 0.37499997 0.70710677 -0.70710677 9.757754E-15 86 86 86 255
0.025888337 0.0625 0.37499997 3.1168622E-28 -1 4.177073E-13 86 86 86 255
-0.025888337 0.0625 0.35500005 3.1168622E-28 -1 4.177073E-13 86 86 86 255
0.025888337 0.0625 0.35500005 3.1168622E-28 -1 4.177073E-13 86 86 86 255
-0.025888337 0.0625 0.37499997 3.1168622E-28 -1 4.177073E-13 86 86 86 255
3 0 1 2
3 1 0 3
3 4 5 6
3 5 4 7
3 8 9 10
3 9 8 11
3 11 8 12
3 12 8 13
3 11 14 15
3 14 11 16
3 16 11 12
3 15 14 17
3 18 19 20
3 19 18 21
3 22 23 24
3 23 22 25
3 26 13 8
3 13 26 27
3 27 26 28
3 28 26 29
3 29 15 17
3 15 29 26
3 15 26 30
3 15 30 31
3 32 33 34
3 33 32 35
3 36 37 38
3 37 36 39
3 40 41 42
3 41 40 43
3 44 45 46
3 45 44 47
3 48 49 50
3 49 48 51
3 52 53 54
3 53 52 55
3 56 57 58
3 57 56 59
3 60 61 62
3 61 60 63
3 64 65 66
3 65 64 67
3 68 69 70
3 69 68 71
3 72 73 74
3 73 72 75
3 76 77 78
3 77 76 79
3 80 81 82
3 81 80 83
3 81 83 84
3 84 83 85
3 84 85 86
3 86 85 87
3 87 85 88
3 87 88 89
3 82 90 91
3 90 82 81
3 91 90 92
3 91 92 93
3 93 92 94
3 93 94 89
3 93 89 95
3 95 89 88
3 96 97 98
3 97 96 99
3 100 101 102
3 101 100 103
3 103 100 104
3 104 100 105
3 105 106 107
3 106 105 100
3 106 100 108
3 106 108 109
3 110 111 112
3 111 110 113
3 114 115 116
3 115 114 117
3 115 117 118
3 118 117 119
3 118 119 120
3 120 119 121
3 121 119 122
3 121 122 123
3 116 124 125
3 124 116 115
3 125 124 126
3 125 126 127
3 127 126 128
3 127 128 123
3 127 123 129
3 129 123 122
3 130 131 132
3 131 130 133
3 102 134 135
3 134 102 136
3 136 102 137
3 137 102 101
3 136 138 106
3 138 136 139
3 139 136 137
3 106 138 107
3 140 141 142
3 141 140 143
3 144 145 146
3 145 144 147
3 148 149 150
3 149 148 151
3 152 153 154
3 153 152 155
3 156 157 158
3 157 156 159
3 160 161 162
3 161 160 163
3 164 165 166
3 165 164 167
3 168 169 170
3 169 168 171
3 172 173 174
3 173 172 175
3 176 177 178
3 177 176 179
3 180 181 182
3 181 180 183
3 184 185 186
3 185 184 187
3 188 189 190
3 189 188 191
3 192 193 194
3 193 192 195
3 196 197 198
3 197 196 199
3 200 201 202
3 201 200 203
3 204 205 206
3 205 204 207
3 208 209 210
3 209 208 211
3 212 213 214
3 213 212 215
3 216 217 218
3 217 216 219
3 220 221 222
3 221 220 223
3 224 225 226
3 225 224 227
3 228 229 230
3 229 228 231
3 232 233 234
3 233 232 235
3 236 237 238
3 237 236 239
3 240 241 242
3 241 240 243
3 244 245 246
3 245 244 247
3 248 249 250
3 249 248 251
3 252 253 254
3 253 252 255
3 256 257 258
3 257 256 259
3 260 261 262
3 261 260 263
3 264 265 266
3 265 264 267
3 268 269 270
3 269 268 271
3 272 273 274
3 273 272 275
3 276 277 278
3 277 276 279
3 280 281 282
3 281 280 283
3 284 285 286
3 285 284 287
3 288 289 290
3 289 288 291
3 292 293 294
3 293 292 295
3 296 297 298
3 297 296 299
3 300 301 302
3 301 300 303
3 304 305 306
3 305 304 307
3 308 309 310
3 309 308 311
3 312 313 314
3 313 312 315
3 316 317 318
3 317 316 319
3 320 321 322
3 321 320 323
3 324 325 326
3 325 324 327
3 323 328 321
3 328 323 329
3 330 331 332
3 331 330 333
3 334 335 336
3 335 334 337
3 327 338 325
3 338 327 339
3 333 340 331
3 340 333 341
3 342 343 344
3 343 342 345
3 346 347 348
3 347 346 349
3 337 350 335
3 350 337 351
3 352 345 342
3 345 352 353
3 354 355 356
3 355 354 357
3 358 359 360
3 359 358 361
3 362 349 346
3 349 362 363
3 364 357 354
3 357 364 365
3 366 361 358
3 361 366 367
3 368 369 370
3 369 368 371
3 372 373 374
3 373 372 375
3 376 377 378
3 377 376 379
3 380 381 382
3 381 380 383
3 384 385 386
3 385 384 387
3 388 389 390
3 389 388 391
3 392 393 394
3 393 392 395
3 396 397 398
3 397 396 399
3 400 401 402
3 401 400 403
3 404 405 406
3 405 404 407
3 408 409 410
3 409 408 411
3 412 413 414
3 413 412 415
3 416 417 418
3 417 416 419
3 420 421 422
3 421 420 423
3 424 425 426
3 425 424 427
3 428 429 430
3 429 428 431
3 432 433 434
3 433 432 435
3 436 437 438
3 437 436 439
3 440 441 442
3 441 440 443
3 444 445 446
3 445 444 447
3 448 449 450
3 449 448 451
3 452 453 454
3 453 452 455
3 456 457 458
3 457 456 459
3 460 461 462
3 461 460 463
3 464 465 466
3 465 464 467
3 468 469 470
3 469 468 471
3 472 473 474
3 473 472 475
3 476 477 478
3 477 476 479
3 480 481 482
3 481 480 483
3 484 485 486
3 485 484 487
3 488 489 490
3 489 488 491
3 492 493 494
3 493 492 495

