ply
format ascii 1.0
commentY29udmVydGVyIGJ5IENvZGVMZW9wYXJk
comment Original mesh name: 'C:\Program Files (x86)\Steam\steamapps\common\Stormworks\rom\meshes\component_fluid_exhaust.mesh'
comment SubMesh index: 0
comment SubMesh name: 'ID18'
comment Shader: Opaque (0)
element vertex 248
property float x
property float y
property float z
property float nx
property float ny
property float nz
property uchar red
property uchar green
property uchar blue
property uchar alpha
element face 134
property list uchar ushort vertex_index
end_header
0.047500003 -0.019675143 0.24 1 1.651119E-13 1.497298E-13 86 86 86 255
0.047500003 0.019675143 0.37499997 1 1.651119E-13 1.497298E-13 86 86 86 255
0.047500003 -0.019675143 0.37499997 1 1.651119E-13 1.497298E-13 86 86 86 255
0.047500003 0.019675143 0.24 1 1.651119E-13 1.497298E-13 86 86 86 255
0.047500003 -0.019675143 0.24 0.70710677 -0.70710677 1.09655395E-13 86 86 86 255
0.019675143 -0.047500003 0.37499997 0.70710677 -0.70710677 1.09655395E-13 86 86 86 255
0.019675143 -0.047500003 0.24 0.70710677 -0.70710677 1.09655395E-13 86 86 86 255
0.047500003 -0.019675143 0.37499997 0.70710677 -0.70710677 1.09655395E-13 86 86 86 255
0.019675143 -0.047500003 0.24 1.340324E-13 1.09574105E-14 -1 86 86 86 255
0.047500003 0.019675143 0.24 1.340324E-13 1.09574105E-14 -1 86 86 86 255
0.047500003 -0.019675143 0.24 1.340324E-13 1.09574105E-14 -1 86 86 86 255
0.019675143 0.047500003 0.24 1.340324E-13 1.09574105E-14 -1 86 86 86 255
-0.019675143 0.047500003 0.24 1.340324E-13 1.09574105E-14 -1 86 86 86 255
-0.019675143 -0.047500003 0.24 1.340324E-13 1.09574105E-14 -1 86 86 86 255
-0.047500003 0.019675143 0.24 1.340324E-13 1.09574105E-14 -1 86 86 86 255
-0.047500003 -0.019675143 0.24 1.340324E-13 1.09574105E-14 -1 86 86 86 255
0.019675143 0.047500003 0.24 0.70710677 0.70710677 1.0399178E-13 86 86 86 255
0.047500003 0.019675143 0.37499997 0.70710677 0.70710677 1.0399178E-13 86 86 86 255
0.047500003 0.019675143 0.24 0.70710677 0.70710677 1.0399178E-13 86 86 86 255
0.019675143 0.047500003 0.37499997 0.70710677 0.70710677 1.0399178E-13 86 86 86 255
0.019675143 -0.047500003 0.24 1.651119E-13 -1 2.673746E-14 86 86 86 255
-0.019675143 -0.047500003 0.37499997 1.651119E-13 -1 2.673746E-14 86 86 86 255
-0.019675143 -0.047500003 0.24 1.651119E-13 -1 2.673746E-14 86 86 86 255
0.019675143 -0.047500003 0.37499997 1.651119E-13 -1 2.673746E-14 86 86 86 255
-0.019675143 -0.047500003 0.37499997 -0.70710677 -0.70710677 -9.8311374E-14 86 86 86 255
-0.047500003 -0.019675143 0.24 -0.70710677 -0.70710677 -9.8311374E-14 86 86 86 255
-0.019675143 -0.047500003 0.24 -0.70710677 -0.70710677 -9.8311374E-14 86 86 86 255
-0.047500003 -0.019675143 0.37499997 -0.70710677 -0.70710677 -9.8311374E-14 86 86 86 255
-0.047500003 0.019675143 0.37499997 -1 -9.172886E-14 -1.497298E-13 86 86 86 255
-0.047500003 -0.019675143 0.24 -1 -9.172886E-14 -1.497298E-13 86 86 86 255
-0.047500003 -0.019675143 0.37499997 -1 -9.172886E-14 -1.497298E-13 86 86 86 255
-0.047500003 0.019675143 0.24 -1 -9.172886E-14 -1.497298E-13 86 86 86 255
-0.047500003 0.019675143 0.37499997 -0.70710677 0.70710677 -1.1532469E-13 86 86 86 255
-0.019675143 0.047500003 0.24 -0.70710677 0.70710677 -1.1532469E-13 86 86 86 255
-0.047500003 0.019675143 0.24 -0.70710677 0.70710677 -1.1532469E-13 86 86 86 255
-0.019675143 0.047500003 0.37499997 -0.70710677 0.70710677 -1.1532469E-13 86 86 86 255
-0.019675143 0.047500003 0.37499997 -7.3383086E-14 1 -1.098793E-26 86 86 86 255
0.019675143 0.047500003 0.24 -7.3383086E-14 1 -1.098793E-26 86 86 86 255
-0.019675143 0.047500003 0.24 -7.3383086E-14 1 -1.098793E-26 86 86 86 255
0.019675143 0.047500003 0.37499997 -7.3383086E-14 1 -1.098793E-26 86 86 86 255
0.047500003 0.019675143 0.37499997 -0.4417261 -0.4417261 -0.7808688 199 199 199 255
0.025888337 0.0625 0.363 -0.4417261 -0.4417261 -0.7808688 199 199 199 255
0.0625 0.025888337 0.363 -0.4417261 -0.4417261 -0.7808688 199 199 199 255
0.019675143 0.047500003 0.37499997 -0.4417261 -0.4417261 -0.7808688 199 199 199 255
0.0625 0.025888337 0.363 -0.70710677 -0.70710677 -1.1205569E-13 199 199 199 255
0.025888337 0.0625 0.24 -0.70710677 -0.70710677 -1.1205569E-13 199 199 199 255
0.0625 0.025888337 0.24 -0.70710677 -0.70710677 -1.1205569E-13 199 199 199 255
0.025888337 0.0625 0.363 -0.70710677 -0.70710677 -1.1205569E-13 199 199 199 255
0.047500003 -0.019675143 0.37499997 -0.624695 -1.5002779E-13 -0.7808688 199 199 199 255
0.0625 0.025888337 0.363 -0.624695 -1.5002779E-13 -0.7808688 199 199 199 255
0.0625 -0.025888337 0.363 -0.624695 -1.5002779E-13 -0.7808688 199 199 199 255
0.047500003 0.019675143 0.37499997 -0.624695 -1.5002779E-13 -0.7808688 199 199 199 255
0.019675143 0.047500003 0.37499997 1.01807404E-13 -0.624695 -0.7808688 199 199 199 255
-0.025888337 0.0625 0.363 1.01807404E-13 -0.624695 -0.7808688 199 199 199 255
0.025888337 0.0625 0.363 1.01807404E-13 -0.624695 -0.7808688 199 199 199 255
-0.019675143 0.047500003 0.37499997 1.01807404E-13 -0.624695 -0.7808688 199 199 199 255
0.0625 -0.025888337 0.363 -1 -2.788557E-13 -1.5259919E-13 199 199 199 255
0.0625 0.025888337 0.24 -1 -2.788557E-13 -1.5259919E-13 199 199 199 255
0.0625 -0.025888337 0.24 -1 -2.788557E-13 -1.5259919E-13 199 199 199 255
0.0625 0.025888337 0.363 -1 -2.788557E-13 -1.5259919E-13 199 199 199 255
0.025888337 0.0625 0.24 -2.788557E-14 -1 -1.17384E-14 199 199 199 255
-0.025888337 0.0625 0.363 -2.788557E-14 -1 -1.17384E-14 199 199 199 255
-0.025888337 0.0625 0.24 -2.788557E-14 -1 -1.17384E-14 199 199 199 255
0.025888337 0.0625 0.363 -2.788557E-14 -1 -1.17384E-14 199 199 199 255
0.025888337 -0.0625 0.363 -0.4417261 0.4417261 -0.7808688 199 199 199 255
0.047500003 -0.019675143 0.37499997 -0.4417261 0.4417261 -0.7808688 199 199 199 255
0.0625 -0.025888337 0.363 -0.4417261 0.4417261 -0.7808688 199 199 199 255
0.019675143 -0.047500003 0.37499997 -0.4417261 0.4417261 -0.7808688 199 199 199 255
-0.047500003 0.019675143 0.37499997 0.4417261 -0.4417261 -0.7808688 199 199 199 255
-0.025888337 0.0625 0.363 0.4417261 -0.4417261 -0.7808688 199 199 199 255
-0.019675143 0.047500003 0.37499997 0.4417261 -0.4417261 -0.7808688 199 199 199 255
-0.0625 0.025888337 0.363 0.4417261 -0.4417261 -0.7808688 199 199 199 255
0.025888337 -0.0625 0.363 -0.70710677 0.70710677 -1.0998008E-13 199 199 199 255
0.0625 -0.025888337 0.24 -0.70710677 0.70710677 -1.0998008E-13 199 199 199 255
0.025888337 -0.0625 0.24 -0.70710677 0.70710677 -1.0998008E-13 199 199 199 255
0.0625 -0.025888337 0.363 -0.70710677 0.70710677 -1.0998008E-13 199 199 199 255
-0.025888337 0.0625 0.24 0.70710677 -0.70710677 1.0375999E-13 199 199 199 255
-0.0625 0.025888337 0.363 0.70710677 -0.70710677 1.0375999E-13 199 199 199 255
-0.0625 0.025888337 0.24 0.70710677 -0.70710677 1.0375999E-13 199 199 199 255
-0.025888337 0.0625 0.363 0.70710677 -0.70710677 1.0375999E-13 199 199 199 255
-0.025888337 -0.0625 0.363 2.3083948E-14 0.624695 -0.7808688 199 199 199 255
0.019675143 -0.047500003 0.37499997 2.3083948E-14 0.624695 -0.7808688 199 199 199 255
0.025888337 -0.0625 0.363 2.3083948E-14 0.624695 -0.7808688 199 199 199 255
-0.019675143 -0.047500003 0.37499997 2.3083948E-14 0.624695 -0.7808688 199 199 199 255
-0.0625 -0.025888337 0.363 0.624695 1.339411E-13 -0.7808688 199 199 199 255
-0.047500003 0.019675143 0.37499997 0.624695 1.339411E-13 -0.7808688 199 199 199 255
-0.047500003 -0.019675143 0.37499997 0.624695 1.339411E-13 -0.7808688 199 199 199 255
-0.0625 0.025888337 0.363 0.624695 1.339411E-13 -0.7808688 199 199 199 255
-0.025888337 -0.0625 0.363 0 1 -0 199 199 199 255
0.025888337 -0.0625 0.24 0 1 -0 199 199 199 255
-0.025888337 -0.0625 0.24 0 1 -0 199 199 199 255
0.025888337 -0.0625 0.363 0 1 -0 199 199 199 255
-0.0625 -0.025888337 0.24 1 2.2308459E-13 1.5259919E-13 199 199 199 255
-0.0625 0.025888337 0.363 1 2.2308459E-13 1.5259919E-13 199 199 199 255
-0.0625 -0.025888337 0.363 1 2.2308459E-13 1.5259919E-13 199 199 199 255
-0.0625 0.025888337 0.24 1 2.2308459E-13 1.5259919E-13 199 199 199 255
-0.025888337 -0.0625 0.363 0.4417261 0.4417261 -0.7808688 199 199 199 255
-0.047500003 -0.019675143 0.37499997 0.4417261 0.4417261 -0.7808688 199 199 199 255
-0.019675143 -0.047500003 0.37499997 0.4417261 0.4417261 -0.7808688 199 199 199 255
-0.0625 -0.025888337 0.363 0.4417261 0.4417261 -0.7808688 199 199 199 255
-0.0625 -0.025888337 0.24 0.70710677 0.70710677 1.2243379E-13 199 199 199 255
-0.025888337 -0.0625 0.363 0.70710677 0.70710677 1.2243379E-13 199 199 199 255
-0.025888337 -0.0625 0.24 0.70710677 0.70710677 1.2243379E-13 199 199 199 255
-0.0625 -0.025888337 0.363 0.70710677 0.70710677 1.2243379E-13 199 199 199 255
0.03236044 0.07812499 0.20199998 -0.70710677 -0.70710677 -1.0479688E-13 255 125 0 255
0.07812499 0.03236044 -0.099999994 -0.70710677 -0.70710677 -1.0479688E-13 255 125 0 255
0.07812499 0.03236044 0.20199998 -0.70710677 -0.70710677 -1.0479688E-13 255 125 0 255
0.03236044 0.07812499 -0.099999994 -0.70710677 -0.70710677 -1.0479688E-13 255 125 0 255
0.03236044 0.07812499 -0.099999994 -0.59962535 -0.59962535 0.52999884 255 125 0 255
0.0625 0.025888337 -0.125 -0.59962535 -0.59962535 0.52999884 255 125 0 255
0.07812499 0.03236044 -0.099999994 -0.59962535 -0.59962535 0.52999884 255 125 0 255
0.07812499 0.03236044 0.20199998 -1 -7.8079605E-14 -1.505974E-13 255 125 0 255
0.07812499 -0.03236044 -0.099999994 -1 -7.8079605E-14 -1.505974E-13 255 125 0 255
0.07812499 -0.03236044 0.20199998 -1 -7.8079605E-14 -1.505974E-13 255 125 0 255
0.07812499 0.03236044 -0.099999994 -1 -7.8079605E-14 -1.505974E-13 255 125 0 255
0.027506368 0.06640624 0.23199998 -0.6586398 -0.6586398 -0.3638505 255 125 0 255
0.07812499 0.03236044 0.20199998 -0.6586398 -0.6586398 -0.3638505 255 125 0 255
0.06640624 0.027506368 0.23199998 -0.6586398 -0.6586398 -0.3638505 255 125 0 255
0.03236044 0.07812499 0.20199998 -0.6586398 -0.6586398 -0.3638505 255 125 0 255
0.03236044 0.07812499 -0.099999994 -8.138179E-28 -1 4.78087E-15 255 125 0 255
-0.03236044 0.07812499 0.20199998 -8.138179E-28 -1 4.78087E-15 255 125 0 255
-0.03236044 0.07812499 -0.099999994 -8.138179E-28 -1 4.78087E-15 255 125 0 255
0.03236044 0.07812499 0.20199998 -8.138179E-28 -1 4.78087E-15 255 125 0 255
0.025888337 0.0625 -0.125 -0.59962535 -0.59962535 0.52999884 255 125 0 255
0.07812499 0.03236044 -0.099999994 -0.8479983 -1.8347819E-13 0.5299989 255 125 0 255
0.0625 -0.025888337 -0.125 -0.8479983 -1.8347819E-13 0.5299989 255 125 0 255
0.07812499 -0.03236044 -0.099999994 -0.8479983 -1.8347819E-13 0.5299989 255 125 0 255
0.0625 0.025888337 -0.125 -0.8479983 -1.8347819E-13 0.5299989 255 125 0 255
0.03236044 -0.07812499 0.20199998 -0.70710677 0.70710677 -1.0395278E-13 255 125 0 255
0.07812499 -0.03236044 -0.099999994 -0.70710677 0.70710677 -1.0395278E-13 255 125 0 255
0.03236044 -0.07812499 -0.099999994 -0.70710677 0.70710677 -1.0395278E-13 255 125 0 255
0.07812499 -0.03236044 0.20199998 -0.70710677 0.70710677 -1.0395278E-13 255 125 0 255
0.06640624 -0.027506368 0.23199998 -0.9314574 -1.752158E-13 -0.36385053 255 125 0 255
0.07812499 0.03236044 0.20199998 -0.9314574 -1.752158E-13 -0.36385053 255 125 0 255
0.07812499 -0.03236044 0.20199998 -0.9314574 -1.752158E-13 -0.36385053 255 125 0 255
0.06640624 0.027506368 0.23199998 -0.9314574 -1.752158E-13 -0.36385053 255 125 0 255
0.027506368 0.06640624 0.24 -0.70710677 -0.70710677 -9.565752E-14 255 125 0 255
0.06640624 0.027506368 0.23199998 -0.70710677 -0.70710677 -9.565752E-14 255 125 0 255
0.06640624 0.027506368 0.24 -0.70710677 -0.70710677 -9.565752E-14 255 125 0 255
0.027506368 0.06640624 0.23199998 -0.70710677 -0.70710677 -9.565752E-14 255 125 0 255
0.03236044 0.07812499 0.20199998 4.0237284E-14 -0.9314574 -0.36385053 255 125 0 255
-0.027506368 0.06640624 0.23199998 4.0237284E-14 -0.9314574 -0.36385053 255 125 0 255
-0.03236044 0.07812499 0.20199998 4.0237284E-14 -0.9314574 -0.36385053 255 125 0 255
0.027506368 0.06640624 0.23199998 4.0237284E-14 -0.9314574 -0.36385053 255 125 0 255
0.025888337 0.0625 -0.125 -8.708719E-14 -0.8479983 0.5299989 255 125 0 255
-0.03236044 0.07812499 -0.099999994 -8.708719E-14 -0.8479983 0.5299989 255 125 0 255
-0.025888337 0.0625 -0.125 -8.708719E-14 -0.8479983 0.5299989 255 125 0 255
0.03236044 0.07812499 -0.099999994 -8.708719E-14 -0.8479983 0.5299989 255 125 0 255
-0.03236044 0.07812499 -0.099999994 0.70710677 -0.70710677 1.0987029E-13 255 125 0 255
-0.07812499 0.03236044 0.20199998 0.70710677 -0.70710677 1.0987029E-13 255 125 0 255
-0.07812499 0.03236044 -0.099999994 0.70710677 -0.70710677 1.0987029E-13 255 125 0 255
-0.03236044 0.07812499 0.20199998 0.70710677 -0.70710677 1.0987029E-13 255 125 0 255
0.07812499 -0.03236044 -0.099999994 -0.59962535 0.59962535 0.52999884 255 125 0 255
0.0625 -0.025888337 -0.125 -0.59962535 0.59962535 0.52999884 255 125 0 255
0.03236044 -0.07812499 -0.099999994 -0.59962535 0.59962535 0.52999884 255 125 0 255
-0.03236044 -0.07812499 0.20199998 -1.115423E-14 1 2.390435E-15 255 125 0 255
0.03236044 -0.07812499 -0.099999994 -1.115423E-14 1 2.390435E-15 255 125 0 255
-0.03236044 -0.07812499 -0.099999994 -1.115423E-14 1 2.390435E-15 255 125 0 255
0.03236044 -0.07812499 0.20199998 -1.115423E-14 1 2.390435E-15 255 125 0 255
0.027506368 -0.06640624 0.23199998 -0.6586398 0.6586398 -0.3638505 255 125 0 255
0.07812499 -0.03236044 0.20199998 -0.6586398 0.6586398 -0.3638505 255 125 0 255
0.03236044 -0.07812499 0.20199998 -0.6586398 0.6586398 -0.3638505 255 125 0 255
0.06640624 -0.027506368 0.23199998 -0.6586398 0.6586398 -0.3638505 255 125 0 255
0.06640624 0.027506368 0.24 -1 -3.346269E-13 1.353584E-13 255 125 0 255
0.06640624 -0.027506368 0.23199998 -1 -3.346269E-13 1.353584E-13 255 125 0 255
0.06640624 -0.027506368 0.24 -1 -3.346269E-13 1.353584E-13 255 125 0 255
0.06640624 0.027506368 0.23199998 -1 -3.346269E-13 1.353584E-13 255 125 0 255
0.06640624 -0.027506368 0.24 1.544098E-13 5.566286E-15 -1 255 125 0 255
0.0625 -0.025888337 0.24 1.544098E-13 5.566286E-15 -1 255 125 0 255
0.06640624 0.027506368 0.24 1.544098E-13 5.566286E-15 -1 255 125 0 255
0.027506368 -0.06640624 0.24 1.544098E-13 5.566286E-15 -1 255 125 0 255
0.025888337 -0.0625 0.24 1.544098E-13 5.566286E-15 -1 255 125 0 255
-0.027506368 -0.06640624 0.24 1.544098E-13 5.566286E-15 -1 255 125 0 255
-0.025888337 -0.0625 0.24 1.544098E-13 5.566286E-15 -1 255 125 0 255
-0.0625 -0.025888337 0.24 1.544098E-13 5.566286E-15 -1 255 125 0 255
-0.06640624 -0.027506368 0.24 1.544098E-13 5.566286E-15 -1 255 125 0 255
-0.0625 0.025888337 0.24 1.544098E-13 5.566286E-15 -1 255 125 0 255
0.0625 0.025888337 0.24 1.544098E-13 5.566286E-15 -1 255 125 0 255
0.027506368 0.06640624 0.24 1.544098E-13 5.566286E-15 -1 255 125 0 255
0.025888337 0.0625 0.24 1.544098E-13 5.566286E-15 -1 255 125 0 255
-0.027506368 0.06640624 0.24 1.544098E-13 5.566286E-15 -1 255 125 0 255
-0.025888337 0.0625 0.24 1.544098E-13 5.566286E-15 -1 255 125 0 255
-0.06640624 0.027506368 0.24 1.544098E-13 5.566286E-15 -1 255 125 0 255
0.027506368 0.06640624 0.23199998 -6.56131E-14 -1 9.023893E-14 255 125 0 255
-0.027506368 0.06640624 0.24 -6.56131E-14 -1 9.023893E-14 255 125 0 255
-0.027506368 0.06640624 0.23199998 -6.56131E-14 -1 9.023893E-14 255 125 0 255
0.027506368 0.06640624 0.24 -6.56131E-14 -1 9.023893E-14 255 125 0 255
-0.07812499 0.03236044 0.20199998 0.6586398 -0.6586398 -0.3638505 255 125 0 255
-0.027506368 0.06640624 0.23199998 0.6586398 -0.6586398 -0.3638505 255 125 0 255
-0.06640624 0.027506368 0.23199998 0.6586398 -0.6586398 -0.3638505 255 125 0 255
-0.03236044 0.07812499 0.20199998 0.6586398 -0.6586398 -0.3638505 255 125 0 255
-0.03236044 0.07812499 -0.099999994 0.59962535 -0.59962535 0.52999884 255 125 0 255
-0.0625 0.025888337 -0.125 0.59962535 -0.59962535 0.52999884 255 125 0 255
-0.025888337 0.0625 -0.125 0.59962535 -0.59962535 0.52999884 255 125 0 255
-0.07812499 0.03236044 -0.099999994 0.59962535 -0.59962535 0.52999884 255 125 0 255
-0.07812499 0.03236044 -0.099999994 1 1.673134E-13 1.505974E-13 255 125 0 255
-0.07812499 -0.03236044 0.20199998 1 1.673134E-13 1.505974E-13 255 125 0 255
-0.07812499 -0.03236044 -0.099999994 1 1.673134E-13 1.505974E-13 255 125 0 255
-0.07812499 0.03236044 0.20199998 1 1.673134E-13 1.505974E-13 255 125 0 255
0.025888337 -0.0625 -0.125 -0.59962535 0.59962535 0.52999884 255 125 0 255
-0.03236044 -0.07812499 -0.099999994 -1.29656E-13 0.8479983 0.5299989 255 125 0 255
0.025888337 -0.0625 -0.125 -1.29656E-13 0.8479983 0.5299989 255 125 0 255
-0.025888337 -0.0625 -0.125 -1.29656E-13 0.8479983 0.5299989 255 125 0 255
0.03236044 -0.07812499 -0.099999994 -1.29656E-13 0.8479983 0.5299989 255 125 0 255
-0.07812499 -0.03236044 -0.099999994 0.70710677 0.70710677 1.0564098E-13 255 125 0 255
-0.03236044 -0.07812499 0.20199998 0.70710677 0.70710677 1.0564098E-13 255 125 0 255
-0.03236044 -0.07812499 -0.099999994 0.70710677 0.70710677 1.0564098E-13 255 125 0 255
-0.07812499 -0.03236044 0.20199998 0.70710677 0.70710677 1.0564098E-13 255 125 0 255
-0.027506368 -0.06640624 0.23199998 8.116894E-14 0.9314574 -0.36385053 255 125 0 255
0.03236044 -0.07812499 0.20199998 8.116894E-14 0.9314574 -0.36385053 255 125 0 255
-0.03236044 -0.07812499 0.20199998 8.116894E-14 0.9314574 -0.36385053 255 125 0 255
0.027506368 -0.06640624 0.23199998 8.116894E-14 0.9314574 -0.36385053 255 125 0 255
0.027506368 -0.06640624 0.24 -0.70710677 0.70710677 2.5521867E-13 255 125 0 255
0.06640624 -0.027506368 0.23199998 -0.70710677 0.70710677 2.5521867E-13 255 125 0 255
0.027506368 -0.06640624 0.23199998 -0.70710677 0.70710677 2.5521867E-13 255 125 0 255
0.06640624 -0.027506368 0.24 -0.70710677 0.70710677 2.5521867E-13 255 125 0 255
-0.06640624 -0.027506368 0.23199998 1 3.8711737E-13 -1.353584E-13 255 125 0 255
-0.06640624 0.027506368 0.24 1 3.8711737E-13 -1.353584E-13 255 125 0 255
-0.06640624 -0.027506368 0.24 1 3.8711737E-13 -1.353584E-13 255 125 0 255
-0.06640624 0.027506368 0.23199998 1 3.8711737E-13 -1.353584E-13 255 125 0 255
-0.027506368 0.06640624 0.23199998 0.70710677 -0.70710677 -1.5946218E-13 255 125 0 255
-0.06640624 0.027506368 0.24 0.70710677 -0.70710677 -1.5946218E-13 255 125 0 255
-0.06640624 0.027506368 0.23199998 0.70710677 -0.70710677 -1.5946218E-13 255 125 0 255
-0.027506368 0.06640624 0.24 0.70710677 -0.70710677 -1.5946218E-13 255 125 0 255
-0.027506368 -0.06640624 0.24 -3.019648E-26 1 1.804779E-13 255 125 0 255
0.027506368 -0.06640624 0.23199998 -3.019648E-26 1 1.804779E-13 255 125 0 255
-0.027506368 -0.06640624 0.23199998 -3.019648E-26 1 1.804779E-13 255 125 0 255
0.027506368 -0.06640624 0.24 -3.019648E-26 1 1.804779E-13 255 125 0 255
-0.027506368 -0.06640624 0.23199998 0.70710677 0.70710677 3.1902326E-13 255 125 0 255
-0.06640624 -0.027506368 0.24 0.70710677 0.70710677 3.1902326E-13 255 125 0 255
-0.027506368 -0.06640624 0.24 0.70710677 0.70710677 3.1902326E-13 255 125 0 255
-0.06640624 -0.027506368 0.23199998 0.70710677 0.70710677 3.1902326E-13 255 125 0 255
-0.07812499 0.03236044 0.20199998 0.9314574 2.4067242E-13 -0.36385053 255 125 0 255
-0.06640624 -0.027506368 0.23199998 0.9314574 2.4067242E-13 -0.36385053 255 125 0 255
-0.07812499 -0.03236044 0.20199998 0.9314574 2.4067242E-13 -0.36385053 255 125 0 255
-0.06640624 0.027506368 0.23199998 0.9314574 2.4067242E-13 -0.36385053 255 125 0 255
-0.0625 -0.025888337 -0.125 0.8479983 2.0612198E-13 0.5299989 255 125 0 255
-0.07812499 0.03236044 -0.099999994 0.8479983 2.0612198E-13 0.5299989 255 125 0 255
-0.07812499 -0.03236044 -0.099999994 0.8479983 2.0612198E-13 0.5299989 255 125 0 255
-0.0625 0.025888337 -0.125 0.8479983 2.0612198E-13 0.5299989 255 125 0 255
-0.0625 -0.025888337 -0.125 0.59962535 0.59962535 0.52999884 255 125 0 255
-0.03236044 -0.07812499 -0.099999994 0.59962535 0.59962535 0.52999884 255 125 0 255
-0.025888337 -0.0625 -0.125 0.59962535 0.59962535 0.52999884 255 125 0 255
-0.07812499 -0.03236044 -0.099999994 0.59962535 0.59962535 0.52999884 255 125 0 255
-0.07812499 -0.03236044 0.20199998 0.6586398 0.6586398 -0.3638505 255 125 0 255
-0.027506368 -0.06640624 0.23199998 0.6586398 0.6586398 -0.3638505 255 125 0 255
-0.03236044 -0.07812499 0.20199998 0.6586398 0.6586398 -0.3638505 255 125 0 255
-0.06640624 -0.027506368 0.23199998 0.6586398 0.6586398 -0.3638505 255 125 0 255
3 0 1 2
3 1 0 3
3 4 5 6
3 5 4 7
3 8 9 10
3 9 8 11
3 11 8 12
3 12 8 13
3 12 13 14
3 14 13 15
3 16 17 18
3 17 16 19
3 20 21 22
3 21 20 23
3 24 25 26
3 25 24 27
3 28 29 30
3 29 28 31
3 32 33 34
3 33 32 35
3 36 37 38
3 37 36 39
3 40 41 42
3 41 40 43
3 44 45 46
3 45 44 47
3 48 49 50
3 49 48 51
3 52 53 54
3 53 52 55
3 56 57 58
3 57 56 59
3 60 61 62
3 61 60 63
3 64 65 66
3 65 64 67
3 68 69 70
3 69 68 71
3 72 73 74
3 73 72 75
3 76 77 78
3 77 76 79
3 80 81 82
3 81 80 83
3 84 85 86
3 85 84 87
3 88 89 90
3 89 88 91
3 92 93 94
3 93 92 95
3 96 97 98
3 97 96 99
3 100 101 102
3 101 100 103
3 104 105 106
3 105 104 107
3 108 109 110
3 111 112 113
3 112 111 114
3 115 116 117
3 116 115 118
3 119 120 121
3 120 119 122
3 108 123 109
3 124 125 126
3 125 124 127
3 128 129 130
3 129 128 131
3 132 133 134
3 133 132 135
3 136 137 138
3 137 136 139
3 140 141 142
3 141 140 143
3 144 145 146
3 145 144 147
3 148 149 150
3 149 148 151
3 152 153 154
3 155 156 157
3 156 155 158
3 159 160 161
3 160 159 162
3 163 164 165
3 164 163 166
3 167 168 169
3 168 167 170
3 168 170 171
3 171 170 172
3 171 172 173
3 173 172 174
3 174 172 175
3 174 175 176
3 169 177 178
3 177 169 168
3 178 177 179
3 178 179 180
3 180 179 181
3 180 181 176
3 180 176 182
3 182 176 175
3 183 184 185
3 184 183 186
3 187 188 189
3 188 187 190
3 191 192 193
3 191 194 192
3 195 196 197
3 196 195 198
3 154 153 199
3 200 201 202
3 201 200 203
3 204 205 206
3 205 204 207
3 208 209 210
3 209 208 211
3 212 213 214
3 213 212 215
3 216 217 218
3 217 216 219
3 220 221 222
3 221 220 223
3 224 225 226
3 225 224 227
3 228 229 230
3 229 228 231
3 232 233 234
3 233 232 235
3 236 237 238
3 237 236 239
3 240 241 242
3 240 243 241
3 244 245 246
3 245 244 247

