ply
format ascii 1.0
commentY29udmVydGVyIGJ5IENvZGVMZW9wYXJk
comment Original mesh name: 'C:\Program Files (x86)\Steam\steamapps\common\Stormworks\rom\meshes\component_gun_s_barrel.mesh'
comment SubMesh index: 0
comment SubMesh name: 'ID4'
comment Shader: Opaque (0)
element vertex 160
property float x
property float y
property float z
property float nx
property float ny
property float nz
property uchar red
property uchar green
property uchar blue
property uchar alpha
element face 96
property list uchar ushort vertex_index
end_header
-0.024999974 0.010355326 0.37499997 0.49999902 -0.49999902 -0.70710814 58 58 58 255
-0.012426393 0.02999999 0.37000003 0.49999902 -0.49999902 -0.70710814 58 58 58 255
-0.010355326 0.024999974 0.37499997 0.49999902 -0.49999902 -0.70710814 58 58 58 255
-0.02999999 0.012426393 0.37000003 0.49999902 -0.49999902 -0.70710814 58 58 58 255
0.025000013 -0.010355354 0.37499997 -5.0314877E-31 -4.5142185E-31 -1 58 58 58 255
0.020000013 -0.008284285 0.37499997 -5.0314877E-31 -4.5142185E-31 -1 58 58 58 255
0.025000013 0.010355326 0.37499997 -5.0314877E-31 -4.5142185E-31 -1 58 58 58 255
0.010355354 -0.025000013 0.37499997 -5.0314877E-31 -4.5142185E-31 -1 58 58 58 255
0.008284285 -0.020000013 0.37499997 -5.0314877E-31 -4.5142185E-31 -1 58 58 58 255
-0.010355326 -0.025000013 0.37499997 -5.0314877E-31 -4.5142185E-31 -1 58 58 58 255
-0.008284262 -0.020000013 0.37499997 -5.0314877E-31 -4.5142185E-31 -1 58 58 58 255
-0.019999983 -0.008284285 0.37499997 -5.0314877E-31 -4.5142185E-31 -1 58 58 58 255
-0.024999974 -0.010355354 0.37499997 -5.0314877E-31 -4.5142185E-31 -1 58 58 58 255
-0.019999983 0.008284262 0.37499997 -5.0314877E-31 -4.5142185E-31 -1 58 58 58 255
0.020000013 0.008284262 0.37499997 -5.0314877E-31 -4.5142185E-31 -1 58 58 58 255
0.010355354 0.024999974 0.37499997 -5.0314877E-31 -4.5142185E-31 -1 58 58 58 255
0.008284285 0.019999983 0.37499997 -5.0314877E-31 -4.5142185E-31 -1 58 58 58 255
-0.010355326 0.024999974 0.37499997 -5.0314877E-31 -4.5142185E-31 -1 58 58 58 255
-0.008284262 0.019999983 0.37499997 -5.0314877E-31 -4.5142185E-31 -1 58 58 58 255
-0.024999974 0.010355326 0.37499997 -5.0314877E-31 -4.5142185E-31 -1 58 58 58 255
-0.02999999 -0.012426422 0.37000003 0.707105 4.593631E-18 -0.7071086 58 58 58 255
-0.024999974 0.010355326 0.37499997 0.707105 4.593631E-18 -0.7071086 58 58 58 255
-0.024999974 -0.010355354 0.37499997 0.707105 4.593631E-18 -0.7071086 58 58 58 255
-0.02999999 0.012426393 0.37000003 0.707105 4.593631E-18 -0.7071086 58 58 58 255
-0.012426393 0.02999999 -0.36999997 0.70710677 -0.70710677 1.479855E-18 58 58 58 255
-0.02999999 0.012426393 0.37000003 0.70710677 -0.70710677 1.479855E-18 58 58 58 255
-0.02999999 0.012426393 -0.36999997 0.70710677 -0.70710677 1.479855E-18 58 58 58 255
-0.012426393 0.02999999 0.37000003 0.70710677 -0.70710677 1.479855E-18 58 58 58 255
0.010355354 0.024999974 0.37499997 -4.593631E-18 -0.707105 -0.7071086 58 58 58 255
-0.012426393 0.02999999 0.37000003 -4.593631E-18 -0.707105 -0.7071086 58 58 58 255
0.012426422 0.02999999 0.37000003 -4.593631E-18 -0.707105 -0.7071086 58 58 58 255
-0.010355326 0.024999974 0.37499997 -4.593631E-18 -0.707105 -0.7071086 58 58 58 255
0.025000013 0.010355326 0.37499997 -0.49999925 -0.49999925 -0.7071077 58 58 58 255
0.012426422 0.02999999 0.37000003 -0.49999925 -0.49999925 -0.7071077 58 58 58 255
0.030000012 0.012426393 0.37000003 -0.49999925 -0.49999925 -0.7071077 58 58 58 255
0.010355354 0.024999974 0.37499997 -0.49999925 -0.49999925 -0.7071077 58 58 58 255
0.025000013 -0.010355354 0.37499997 -0.70710605 1.3006138E-18 -0.7071074 58 58 58 255
0.030000012 0.012426393 0.37000003 -0.70710605 1.3006138E-18 -0.7071074 58 58 58 255
0.030000012 -0.012426422 0.37000003 -0.70710605 1.3006138E-18 -0.7071074 58 58 58 255
0.025000013 0.010355326 0.37499997 -0.70710605 1.3006138E-18 -0.7071074 58 58 58 255
0.012426422 -0.030000012 0.37000003 -0.4999995 0.4999995 -0.7071075 58 58 58 255
0.025000013 -0.010355354 0.37499997 -0.4999995 0.4999995 -0.7071075 58 58 58 255
0.030000012 -0.012426422 0.37000003 -0.4999995 0.4999995 -0.7071075 58 58 58 255
0.010355354 -0.025000013 0.37499997 -0.4999995 0.4999995 -0.7071075 58 58 58 255
-0.012426393 -0.030000012 0.37000003 -7.886564E-18 0.70710605 -0.7071074 58 58 58 255
0.010355354 -0.025000013 0.37499997 -7.886564E-18 0.70710605 -0.7071074 58 58 58 255
0.012426422 -0.030000012 0.37000003 -7.886564E-18 0.70710605 -0.7071074 58 58 58 255
-0.010355326 -0.025000013 0.37499997 -7.886564E-18 0.70710605 -0.7071074 58 58 58 255
-0.012426393 -0.030000012 0.37000003 0.49999925 0.49999925 -0.7071077 58 58 58 255
-0.024999974 -0.010355354 0.37499997 0.49999925 0.49999925 -0.7071077 58 58 58 255
-0.010355326 -0.025000013 0.37499997 0.49999925 0.49999925 -0.7071077 58 58 58 255
-0.02999999 -0.012426422 0.37000003 0.49999925 0.49999925 -0.7071077 58 58 58 255
-0.02999999 0.012426393 -0.36999997 1 -0 -0 58 58 58 255
-0.02999999 -0.012426422 0.37000003 1 -0 -0 58 58 58 255
-0.02999999 -0.012426422 -0.36999997 1 -0 -0 58 58 58 255
-0.02999999 0.012426393 0.37000003 1 -0 -0 58 58 58 255
-0.012426393 0.02999999 -0.36999997 0.4999996 -0.4999996 0.7071074 58 58 58 255
-0.024999974 0.010355326 -0.37499997 0.4999996 -0.4999996 0.7071074 58 58 58 255
-0.010355326 0.024999974 -0.37499997 0.4999996 -0.4999996 0.7071074 58 58 58 255
-0.02999999 0.012426393 -0.36999997 0.4999996 -0.4999996 0.7071074 58 58 58 255
0.012426422 0.02999999 0.37000003 0 -1 -0 58 58 58 255
-0.012426393 0.02999999 -0.36999997 0 -1 -0 58 58 58 255
0.012426422 0.02999999 -0.36999997 0 -1 -0 58 58 58 255
-0.012426393 0.02999999 0.37000003 0 -1 -0 58 58 58 255
0.012426422 0.02999999 0.37000003 -0.7071069 -0.7071066 -7.399273E-19 58 58 58 255
0.030000012 0.012426393 -0.36999997 -0.7071069 -0.7071066 -7.399273E-19 58 58 58 255
0.030000012 0.012426393 0.37000003 -0.7071069 -0.7071066 -7.399273E-19 58 58 58 255
0.012426422 0.02999999 -0.36999997 -0.7071069 -0.7071066 -7.399273E-19 58 58 58 255
0.030000012 0.012426393 0.37000003 -1 -0 -0 58 58 58 255
0.030000012 -0.012426422 -0.36999997 -1 -0 -0 58 58 58 255
0.030000012 -0.012426422 0.37000003 -1 -0 -0 58 58 58 255
0.030000012 0.012426393 -0.36999997 -1 -0 -0 58 58 58 255
0.030000012 -0.012426422 0.37000003 -0.70710677 0.70710677 -0 58 58 58 255
0.012426422 -0.030000012 -0.36999997 -0.70710677 0.70710677 -0 58 58 58 255
0.012426422 -0.030000012 0.37000003 -0.70710677 0.70710677 -0 58 58 58 255
0.030000012 -0.012426422 -0.36999997 -0.70710677 0.70710677 -0 58 58 58 255
-0.012426393 -0.030000012 0.37000003 0 1 -0 58 58 58 255
0.012426422 -0.030000012 -0.36999997 0 1 -0 58 58 58 255
-0.012426393 -0.030000012 -0.36999997 0 1 -0 58 58 58 255
0.012426422 -0.030000012 0.37000003 0 1 -0 58 58 58 255
-0.02999999 -0.012426422 0.37000003 0.7071066 0.7071069 7.399273E-19 58 58 58 255
-0.012426393 -0.030000012 -0.36999997 0.7071066 0.7071069 7.399273E-19 58 58 58 255
-0.02999999 -0.012426422 -0.36999997 0.7071066 0.7071069 7.399273E-19 58 58 58 255
-0.012426393 -0.030000012 0.37000003 0.7071066 0.7071069 7.399273E-19 58 58 58 255
-0.02999999 0.012426393 -0.36999997 0.7071057 -7.122487E-18 0.7071079 58 58 58 255
-0.024999974 -0.010355354 -0.37499997 0.7071057 -7.122487E-18 0.7071079 58 58 58 255
-0.024999974 0.010355326 -0.37499997 0.7071057 -7.122487E-18 0.7071079 58 58 58 255
-0.02999999 -0.012426422 -0.36999997 0.7071057 -7.122487E-18 0.7071079 58 58 58 255
-0.012426393 0.02999999 -0.36999997 3.2929473E-18 -0.7071057 0.7071079 58 58 58 255
0.010355354 0.024999974 -0.37499997 3.2929473E-18 -0.7071057 0.7071079 58 58 58 255
0.012426422 0.02999999 -0.36999997 3.2929473E-18 -0.7071057 0.7071079 58 58 58 255
-0.010355326 0.024999974 -0.37499997 3.2929473E-18 -0.7071057 0.7071079 58 58 58 255
0.025000013 0.010355326 -0.37499997 0 -0 1 58 58 58 255
0.020000013 0.008284262 -0.37499997 0 -0 1 58 58 58 255
0.025000013 -0.010355354 -0.37499997 0 -0 1 58 58 58 255
0.010355354 0.024999974 -0.37499997 0 -0 1 58 58 58 255
0.008284285 0.019999983 -0.37499997 0 -0 1 58 58 58 255
-0.010355326 0.024999974 -0.37499997 0 -0 1 58 58 58 255
-0.008284262 0.019999983 -0.37499997 0 -0 1 58 58 58 255
-0.019999983 0.008284262 -0.37499997 0 -0 1 58 58 58 255
-0.024999974 0.010355326 -0.37499997 0 -0 1 58 58 58 255
-0.019999983 -0.008284285 -0.37499997 0 -0 1 58 58 58 255
0.020000013 -0.008284285 -0.37499997 0 -0 1 58 58 58 255
0.010355354 -0.025000013 -0.37499997 0 -0 1 58 58 58 255
0.008284285 -0.020000013 -0.37499997 0 -0 1 58 58 58 255
-0.010355326 -0.025000013 -0.37499997 0 -0 1 58 58 58 255
-0.008284262 -0.020000013 -0.37499997 0 -0 1 58 58 58 255
-0.024999974 -0.010355354 -0.37499997 0 -0 1 58 58 58 255
0.012426422 0.02999999 -0.36999997 -0.49999976 -0.49999976 0.7071071 58 58 58 255
0.025000013 0.010355326 -0.37499997 -0.49999976 -0.49999976 0.7071071 58 58 58 255
0.030000012 0.012426393 -0.36999997 -0.49999976 -0.49999976 0.7071071 58 58 58 255
0.010355354 0.024999974 -0.37499997 -0.49999976 -0.49999976 0.7071071 58 58 58 255
0.030000012 0.012426393 -0.36999997 -0.70710677 -6.0491404E-18 0.70710677 58 58 58 255
0.025000013 -0.010355354 -0.37499997 -0.70710677 -6.0491404E-18 0.70710677 58 58 58 255
0.030000012 -0.012426422 -0.36999997 -0.70710677 -6.0491404E-18 0.70710677 58 58 58 255
0.025000013 0.010355326 -0.37499997 -0.70710677 -6.0491404E-18 0.70710677 58 58 58 255
0.025000013 -0.010355354 -0.37499997 -0.49999994 0.49999994 0.70710677 58 58 58 255
0.012426422 -0.030000012 -0.36999997 -0.49999994 0.49999994 0.70710677 58 58 58 255
0.030000012 -0.012426422 -0.36999997 -0.49999994 0.49999994 0.70710677 58 58 58 255
0.010355354 -0.025000013 -0.37499997 -0.49999994 0.49999994 0.70710677 58 58 58 255
-0.012426393 -0.030000012 -0.36999997 0 0.70710677 0.70710677 58 58 58 255
0.010355354 -0.025000013 -0.37499997 0 0.70710677 0.70710677 58 58 58 255
-0.010355326 -0.025000013 -0.37499997 0 0.70710677 0.70710677 58 58 58 255
0.012426422 -0.030000012 -0.36999997 0 0.70710677 0.70710677 58 58 58 255
-0.024999974 -0.010355354 -0.37499997 0.49999976 0.49999976 0.7071071 58 58 58 255
-0.012426393 -0.030000012 -0.36999997 0.49999976 0.49999976 0.7071071 58 58 58 255
-0.010355326 -0.025000013 -0.37499997 0.49999976 0.49999976 0.7071071 58 58 58 255
-0.02999999 -0.012426422 -0.36999997 0.49999976 0.49999976 0.7071071 58 58 58 255
-0.019999983 -0.008284285 0.37499997 -0.7071069 -0.7071066 -0 58 58 58 255
-0.008284262 -0.020000013 -0.37499997 -0.7071069 -0.7071066 -0 58 58 58 255
-0.008284262 -0.020000013 0.37499997 -0.7071069 -0.7071066 -0 58 58 58 255
-0.019999983 -0.008284285 -0.37499997 -0.7071069 -0.7071066 -0 58 58 58 255
-0.019999983 0.008284262 0.37499997 -1 -0 -0 58 58 58 255
-0.019999983 -0.008284285 -0.37499997 -1 -0 -0 58 58 58 255
-0.019999983 -0.008284285 0.37499997 -1 -0 -0 58 58 58 255
-0.019999983 0.008284262 -0.37499997 -1 -0 -0 58 58 58 255
0.008284285 -0.020000013 0.37499997 0 -1 -0 58 58 58 255
-0.008284262 -0.020000013 -0.37499997 0 -1 -0 58 58 58 255
0.008284285 -0.020000013 -0.37499997 0 -1 -0 58 58 58 255
-0.008284262 -0.020000013 0.37499997 0 -1 -0 58 58 58 255
-0.019999983 0.008284262 0.37499997 -0.70710677 0.70710677 -0 58 58 58 255
-0.008284262 0.019999983 -0.37499997 -0.70710677 0.70710677 -0 58 58 58 255
-0.019999983 0.008284262 -0.37499997 -0.70710677 0.70710677 -0 58 58 58 255
-0.008284262 0.019999983 0.37499997 -0.70710677 0.70710677 -0 58 58 58 255
0.020000013 -0.008284285 -0.37499997 0.70710677 -0.70710677 -0 58 58 58 255
0.008284285 -0.020000013 0.37499997 0.70710677 -0.70710677 -0 58 58 58 255
0.008284285 -0.020000013 -0.37499997 0.70710677 -0.70710677 -0 58 58 58 255
0.020000013 -0.008284285 0.37499997 0.70710677 -0.70710677 -0 58 58 58 255
-0.008284262 0.019999983 0.37499997 0 1 -0 58 58 58 255
0.008284285 0.019999983 -0.37499997 0 1 -0 58 58 58 255
-0.008284262 0.019999983 -0.37499997 0 1 -0 58 58 58 255
0.008284285 0.019999983 0.37499997 0 1 -0 58 58 58 255
0.020000013 0.008284262 -0.37499997 1 -0 -0 58 58 58 255
0.020000013 -0.008284285 0.37499997 1 -0 -0 58 58 58 255
0.020000013 -0.008284285 -0.37499997 1 -0 -0 58 58 58 255
0.020000013 0.008284262 0.37499997 1 -0 -0 58 58 58 255
0.008284285 0.019999983 0.37499997 0.7071066 0.7071069 -0 58 58 58 255
0.020000013 0.008284262 -0.37499997 0.7071066 0.7071069 -0 58 58 58 255
0.008284285 0.019999983 -0.37499997 0.7071066 0.7071069 -0 58 58 58 255
0.020000013 0.008284262 0.37499997 0.7071066 0.7071069 -0 58 58 58 255
3 0 1 2
3 1 0 3
3 4 5 6
3 5 4 7
3 5 7 8
3 8 7 9
3 8 9 10
3 10 9 11
3 11 9 12
3 11 12 13
3 6 14 15
3 14 6 5
3 15 14 16
3 15 16 17
3 17 16 18
3 17 18 13
3 17 13 19
3 19 13 12
3 20 21 22
3 21 20 23
3 24 25 26
3 25 24 27
3 28 29 30
3 29 28 31
3 32 33 34
3 33 32 35
3 36 37 38
3 37 36 39
3 40 41 42
3 41 40 43
3 44 45 46
3 45 44 47
3 48 49 50
3 49 48 51
3 52 53 54
3 53 52 55
3 56 57 58
3 57 56 59
3 60 61 62
3 61 60 63
3 64 65 66
3 65 64 67
3 68 69 70
3 69 68 71
3 72 73 74
3 73 72 75
3 76 77 78
3 77 76 79
3 80 81 82
3 81 80 83
3 84 85 86
3 85 84 87
3 88 89 90
3 89 88 91
3 92 93 94
3 93 92 95
3 93 95 96
3 96 95 97
3 96 97 98
3 98 97 99
3 99 97 100
3 99 100 101
3 94 102 103
3 102 94 93
3 103 102 104
3 103 104 105
3 105 104 106
3 105 106 101
3 105 101 107
3 107 101 100
3 108 109 110
3 109 108 111
3 112 113 114
3 113 112 115
3 116 117 118
3 117 116 119
3 120 121 122
3 121 120 123
3 124 125 126
3 125 124 127
3 128 129 130
3 129 128 131
3 132 133 134
3 133 132 135
3 136 137 138
3 137 136 139
3 140 141 142
3 141 140 143
3 144 145 146
3 145 144 147
3 148 149 150
3 149 148 151
3 152 153 154
3 153 152 155
3 156 157 158
3 157 156 159

