ply
format ascii 1.0
commentY29udmVydGVyIGJ5IENvZGVMZW9wYXJk
comment Original mesh name: 'C:\Program Files (x86)\Steam\steamapps\common\Stormworks\rom\meshes\component_train_main_piston_dynamic_s.mesh'
comment SubMesh index: 0
comment SubMesh name: 'ID31'
comment Shader: Opaque (0)
element vertex 524
property float x
property float y
property float z
property float nx
property float ny
property float nz
property uchar red
property uchar green
property uchar blue
property uchar alpha
element face 340
property list uchar ushort vertex_index
end_header
0.6975901 -0.030203925 0.37537575 1 -0 -0 84 84 84 255
0.6975901 -0.07291874 0.41809055 1 -0 -0 84 84 84 255
0.6975901 -0.07291874 0.37537575 1 -0 -0 84 84 84 255
0.6975901 0.07291874 0.37537575 0 -0 1 84 84 84 255
0.8475901 0.020585407 0.37537575 0 -0 1 84 84 84 255
0.8475901 0.07291874 0.37537575 0 -0 1 84 84 84 255
0.72258997 0.020585407 0.37537575 0 -0 1 84 84 84 255
0.72258997 -0.021252079 0.37537575 0 -0 1 84 84 84 255
0.8475901 -0.07291874 0.37537575 0 -0 1 84 84 84 255
0.8475901 -0.021252079 0.37537575 0 -0 1 84 84 84 255
0.6975901 -0.07291874 0.37537575 0 -0 1 84 84 84 255
0.6975901 0.030203925 0.37537575 0 -0 1 84 84 84 255
0.6975901 0 0.37537575 0 -0 1 84 84 84 255
0.6975901 -0.030203925 0.37537575 0 -0 1 84 84 84 255
0.57759005 -0.07291874 0.41809055 0 0.70710677 0.70710677 84 84 84 255
0.6975901 -0.030203925 0.37537575 0 0.70710677 0.70710677 84 84 84 255
0.57759005 -0.030203925 0.37537575 0 0.70710677 0.70710677 84 84 84 255
0.6975901 -0.07291874 0.41809055 0 0.70710677 0.70710677 84 84 84 255
0.6975901 -0.07291874 0.41809055 0 1 -0 84 84 84 255
0.8475901 -0.07291874 0.37537575 0 1 -0 84 84 84 255
0.6975901 -0.07291874 0.37537575 0 1 -0 84 84 84 255
0.74758995 -0.07291874 0.4049932 0 1 -0 84 84 84 255
0.72258997 -0.07291874 0.44829446 0 1 -0 84 84 84 255
0.6975901 -0.07291874 0.47849837 0 1 -0 84 84 84 255
0.74758995 -0.07291874 0.49159583 0 1 -0 84 84 84 255
0.6975901 -0.07291874 0.5212133 0 1 -0 84 84 84 255
0.77259016 -0.07291874 0.49159583 0 1 -0 84 84 84 255
0.79759014 -0.07291874 0.49159583 0 1 -0 84 84 84 255
0.82259 -0.07291874 0.44829446 0 1 -0 84 84 84 255
0.8475901 -0.07291874 0.5212133 0 1 -0 84 84 84 255
0.79759014 -0.07291874 0.4049932 0 1 -0 84 84 84 255
0.77259016 -0.07291874 0.4049932 0 1 -0 84 84 84 255
0.8475901 0.07291874 0.37537575 0 -1 -0 84 84 84 255
0.79759014 0.07291874 0.4049932 0 -1 -0 84 84 84 255
0.6975901 0.07291874 0.37537575 0 -1 -0 84 84 84 255
0.82259 0.07291874 0.44829446 0 -1 -0 84 84 84 255
0.8475901 0.07291874 0.5212133 0 -1 -0 84 84 84 255
0.79759014 0.07291874 0.49159583 0 -1 -0 84 84 84 255
0.77259016 0.07291874 0.49159583 0 -1 -0 84 84 84 255
0.74758995 0.07291874 0.49159583 0 -1 -0 84 84 84 255
0.74758995 0.07291874 0.4049932 0 -1 -0 84 84 84 255
0.6975901 0.07291874 0.41809055 0 -1 -0 84 84 84 255
0.77259016 0.07291874 0.4049932 0 -1 -0 84 84 84 255
0.72258997 0.07291874 0.44829446 0 -1 -0 84 84 84 255
0.6975901 0.07291874 0.47849837 0 -1 -0 84 84 84 255
0.6975901 0.07291874 0.5212133 0 -1 -0 84 84 84 255
0.6975901 0.07291874 0.41809055 1 -0 -0 84 84 84 255
0.6975901 0.030203925 0.37537575 1 -0 -0 84 84 84 255
0.6975901 0.07291874 0.37537575 1 -0 -0 84 84 84 255
0.57759005 0.030203925 0.37537575 0 -0 1 84 84 84 255
0.57759005 0 0.37537575 0 -0 1 84 84 84 255
0.57759005 -0.030203925 0.37537575 0 -0 1 84 84 84 255
0.8475901 -0.021252079 0.5212133 -1 -0 -0 84 84 84 255
0.8475901 -0.07291874 0.37537575 -1 -0 -0 84 84 84 255
0.8475901 -0.07291874 0.5212133 -1 -0 -0 84 84 84 255
0.8475901 -0.021252079 0.37537575 -1 -0 -0 84 84 84 255
0.8475901 -0.021252079 0.5212133 0 -1 -0 84 84 84 255
0.72258997 -0.021252079 0.37537575 0 -1 -0 84 84 84 255
0.8475901 -0.021252079 0.37537575 0 -1 -0 84 84 84 255
0.72258997 -0.021252079 0.5212133 0 -1 -0 84 84 84 255
0.72258997 0.020585407 0.5212133 -1 -0 -0 84 84 84 255
0.72258997 -0.021252079 0.37537575 -1 -0 -0 84 84 84 255
0.72258997 -0.021252079 0.5212133 -1 -0 -0 84 84 84 255
0.72258997 0.020585407 0.37537575 -1 -0 -0 84 84 84 255
0.72258997 0.020585407 0.5212133 0 1 -0 84 84 84 255
0.8475901 0.020585407 0.37537575 0 1 -0 84 84 84 255
0.72258997 0.020585407 0.37537575 0 1 -0 84 84 84 255
0.8475901 0.020585407 0.5212133 0 1 -0 84 84 84 255
0.8475901 0.07291874 0.5212133 -1 -0 -0 84 84 84 255
0.8475901 0.020585407 0.37537575 -1 -0 -0 84 84 84 255
0.8475901 0.020585407 0.5212133 -1 -0 -0 84 84 84 255
0.8475901 0.07291874 0.37537575 -1 -0 -0 84 84 84 255
0.57759005 -0.030203925 0.37537575 1 -0 -0 84 84 84 255
0.57759005 -0.07291874 0.47849837 1 -0 -0 84 84 84 255
0.57759005 -0.07291874 0.41809055 1 -0 -0 84 84 84 255
0.57759005 -0.04291873 0.43051696 1 -0 -0 84 84 84 255
0.57759005 -0.017777525 0.40537575 1 -0 -0 84 84 84 255
0.57759005 0 0.37537575 1 -0 -0 84 84 84 255
0.57759005 0 0.40537575 1 -0 -0 84 84 84 255
0.57759005 0.030203925 0.37537575 1 -0 -0 84 84 84 255
0.57759005 0.017777525 0.40537575 1 -0 -0 84 84 84 255
0.57759005 0.04291873 0.43051696 1 -0 -0 84 84 84 255
0.57759005 0.07291874 0.41809055 1 -0 -0 84 84 84 255
0.57759005 0.04291873 0.466072 1 -0 -0 84 84 84 255
0.57759005 -0.04291873 0.466072 1 -0 -0 84 84 84 255
0.57759005 -0.030203925 0.5212133 1 -0 -0 84 84 84 255
0.57759005 -0.017777525 0.49121332 1 -0 -0 84 84 84 255
0.57759005 0 0.5212133 1 -0 -0 84 84 84 255
0.57759005 0 0.49121332 1 -0 -0 84 84 84 255
0.57759005 0.017777525 0.49121332 1 -0 -0 84 84 84 255
0.57759005 0.030203925 0.5212133 1 -0 -0 84 84 84 255
0.57759005 0.07291874 0.47849837 1 -0 -0 84 84 84 255
0.57759005 -0.07291874 0.47849837 0 1 -0 84 84 84 255
0.57759005 -0.07291874 0.41809055 0 1 -0 84 84 84 255
0.6975901 -0.07291874 0.5212133 0 -0 -1 84 84 84 255
0.8475901 -0.021252079 0.5212133 0 -0 -1 84 84 84 255
0.8475901 -0.07291874 0.5212133 0 -0 -1 84 84 84 255
0.72258997 -0.021252079 0.5212133 0 -0 -1 84 84 84 255
0.72258997 0.020585407 0.5212133 0 -0 -1 84 84 84 255
0.8475901 0.07291874 0.5212133 0 -0 -1 84 84 84 255
0.8475901 0.020585407 0.5212133 0 -0 -1 84 84 84 255
0.6975901 0.07291874 0.5212133 0 -0 -1 84 84 84 255
0.6975901 -0.030203925 0.5212133 0 -0 -1 84 84 84 255
0.6975901 0 0.5212133 0 -0 -1 84 84 84 255
0.6975901 0.030203925 0.5212133 0 -0 -1 84 84 84 255
0.6975901 -0.030203925 0.5212133 1 -0 -0 84 84 84 255
0.6975901 -0.07291874 0.5212133 1 -0 -0 84 84 84 255
0.6975901 -0.07291874 0.47849837 1 -0 -0 84 84 84 255
0.6975901 0.07291874 0.5212133 1 -0 -0 84 84 84 255
0.6975901 0.030203925 0.5212133 1 -0 -0 84 84 84 255
0.6975901 0.07291874 0.47849837 1 -0 -0 84 84 84 255
0.57759005 0.07291874 0.41809055 0 -1 -0 84 84 84 255
0.57759005 0.07291874 0.47849837 0 -1 -0 84 84 84 255
0.6975901 0.07291874 0.41809055 0 -0.70710677 0.70710677 84 84 84 255
0.57759005 0.030203925 0.37537575 0 -0.70710677 0.70710677 84 84 84 255
0.6975901 0.030203925 0.37537575 0 -0.70710677 0.70710677 84 84 84 255
0.57759005 0.07291874 0.41809055 0 -0.70710677 0.70710677 84 84 84 255
0.6975901 0.030203925 0.5212133 0 -0.70710677 -0.70710677 84 84 84 255
0.57759005 0.07291874 0.47849837 0 -0.70710677 -0.70710677 84 84 84 255
0.6975901 0.07291874 0.47849837 0 -0.70710677 -0.70710677 84 84 84 255
0.57759005 0.030203925 0.5212133 0 -0.70710677 -0.70710677 84 84 84 255
0.57759005 0 0.5212133 0 -0 -1 84 84 84 255
0.57759005 0.030203925 0.5212133 0 -0 -1 84 84 84 255
0.57759005 -0.030203925 0.5212133 0 -0 -1 84 84 84 255
0.57759005 -0.030203925 0.5212133 0 0.70710677 -0.70710677 84 84 84 255
0.6975901 -0.07291874 0.47849837 0 0.70710677 -0.70710677 84 84 84 255
0.57759005 -0.07291874 0.47849837 0 0.70710677 -0.70710677 84 84 84 255
0.6975901 -0.030203925 0.5212133 0 0.70710677 -0.70710677 84 84 84 255
0.57759005 0.017777525 0.49121332 0 -0.70710677 -0.70710677 84 84 84 255
0.2375901 0.04291873 0.466072 0 -0.70710677 -0.70710677 84 84 84 255
0.57759005 0.04291873 0.466072 0 -0.70710677 -0.70710677 84 84 84 255
0.2375901 0.017777525 0.49121332 0 -0.70710677 -0.70710677 84 84 84 255
0.57759005 0.04291873 0.466072 0 -1 -0 84 84 84 255
0.2375901 0.04291873 0.43051696 0 -1 -0 84 84 84 255
0.57759005 0.04291873 0.43051696 0 -1 -0 84 84 84 255
0.2375901 0.04291873 0.466072 0 -1 -0 84 84 84 255
0.2375901 0 0.49121332 0 -0 -1 84 84 84 255
0.57759005 0.017777525 0.49121332 0 -0 -1 84 84 84 255
0.57759005 0 0.49121332 0 -0 -1 84 84 84 255
0.2375901 0.017777525 0.49121332 0 -0 -1 84 84 84 255
0.57759005 0.04291873 0.43051696 0 -0.70710677 0.70710677 84 84 84 255
0.2375901 0.017777525 0.40537575 0 -0.70710677 0.70710677 84 84 84 255
0.57759005 0.017777525 0.40537575 0 -0.70710677 0.70710677 84 84 84 255
0.2375901 0.04291873 0.43051696 0 -0.70710677 0.70710677 84 84 84 255
0.2375901 -0.017777525 0.49121332 0 -0 -1 84 84 84 255
0.57759005 -0.017777525 0.49121332 0 -0 -1 84 84 84 255
0.2375901 0.017777525 0.40537575 0 -0 1 84 84 84 255
0.57759005 0 0.40537575 0 -0 1 84 84 84 255
0.57759005 0.017777525 0.40537575 0 -0 1 84 84 84 255
0.2375901 0 0.40537575 0 -0 1 84 84 84 255
0.2375901 -0.017777525 0.49121332 0 0.70710677 -0.70710677 84 84 84 255
0.57759005 -0.04291873 0.466072 0 0.70710677 -0.70710677 84 84 84 255
0.2375901 -0.04291873 0.466072 0 0.70710677 -0.70710677 84 84 84 255
0.57759005 -0.017777525 0.49121332 0 0.70710677 -0.70710677 84 84 84 255
0.57759005 -0.017777525 0.40537575 0 -0 1 84 84 84 255
0.2375901 -0.017777525 0.40537575 0 -0 1 84 84 84 255
0.2375901 -0.04291873 0.466072 0 1 -0 84 84 84 255
0.57759005 -0.04291873 0.43051696 0 1 -0 84 84 84 255
0.2375901 -0.04291873 0.43051696 0 1 -0 84 84 84 255
0.57759005 -0.04291873 0.466072 0 1 -0 84 84 84 255
0.2375901 -0.04291873 0.43051696 0 0.70710677 0.70710677 84 84 84 255
0.57759005 -0.017777525 0.40537575 0 0.70710677 0.70710677 84 84 84 255
0.2375901 -0.017777525 0.40537575 0 0.70710677 0.70710677 84 84 84 255
0.57759005 -0.04291873 0.43051696 0 0.70710677 0.70710677 84 84 84 255
0.82259 -0.07291874 0.44829446 -0.8660254 -0 0.5 84 84 84 255
0.79759014 -0.08791874 0.4049932 -0.8660254 -0 0.5 84 84 84 255
0.82259 -0.08791874 0.44829446 -0.8660254 -0 0.5 84 84 84 255
0.79759014 -0.07291874 0.4049932 -0.8660254 -0 0.5 84 84 84 255
0.77259016 -0.07291874 0.4049932 0 -0 1 84 84 84 255
0.79759014 -0.08791874 0.4049932 0 -0 1 84 84 84 255
0.79759014 -0.07291874 0.4049932 0 -0 1 84 84 84 255
0.77259016 -0.08791874 0.4049932 0 -0 1 84 84 84 255
0.74758995 -0.07291874 0.4049932 0 -0 1 84 84 84 255
0.74758995 -0.08791874 0.4049932 0 -0 1 84 84 84 255
0.72258997 -0.08791874 0.44829446 0 1 -0 84 84 84 255
0.77259016 -0.08791874 0.4049932 0 1 -0 84 84 84 255
0.74758995 -0.08791874 0.4049932 0 1 -0 84 84 84 255
0.79759014 -0.08791874 0.4049932 0 1 -0 84 84 84 255
0.82259 -0.08791874 0.44829446 0 1 -0 84 84 84 255
0.74758995 -0.08791874 0.49159583 0 1 -0 84 84 84 255
0.79759014 -0.08791874 0.49159583 0 1 -0 84 84 84 255
0.77259016 -0.08791874 0.49159583 0 1 -0 84 84 84 255
0.79759014 -0.07291874 0.49159583 -0.8660254 -0 -0.5 84 84 84 255
0.82259 -0.08791874 0.44829446 -0.8660254 -0 -0.5 84 84 84 255
0.79759014 -0.08791874 0.49159583 -0.8660254 -0 -0.5 84 84 84 255
0.82259 -0.07291874 0.44829446 -0.8660254 -0 -0.5 84 84 84 255
0.74758995 -0.07291874 0.4049932 0.8660254 -0 0.5 84 84 84 255
0.72258997 -0.08791874 0.44829446 0.8660254 -0 0.5 84 84 84 255
0.74758995 -0.08791874 0.4049932 0.8660254 -0 0.5 84 84 84 255
0.72258997 -0.07291874 0.44829446 0.8660254 -0 0.5 84 84 84 255
0.72258997 -0.07291874 0.44829446 0.8660254 -0 -0.5 84 84 84 255
0.74758995 -0.08791874 0.49159583 0.8660254 -0 -0.5 84 84 84 255
0.72258997 -0.08791874 0.44829446 0.8660254 -0 -0.5 84 84 84 255
0.74758995 -0.07291874 0.49159583 0.8660254 -0 -0.5 84 84 84 255
0.77259016 -0.08791874 0.49159583 0 -0 -1 84 84 84 255
0.79759014 -0.07291874 0.49159583 0 -0 -1 84 84 84 255
0.79759014 -0.08791874 0.49159583 0 -0 -1 84 84 84 255
0.77259016 -0.07291874 0.49159583 0 -0 -1 84 84 84 255
0.74758995 -0.08791874 0.49159583 0 -0 -1 84 84 84 255
0.74758995 -0.07291874 0.49159583 0 -0 -1 84 84 84 255
0.77259016 0.08791874 0.4049932 0 -0 1 84 84 84 255
0.79759014 0.07291874 0.4049932 0 -0 1 84 84 84 255
0.79759014 0.08791874 0.4049932 0 -0 1 84 84 84 255
0.77259016 0.07291874 0.4049932 0 -0 1 84 84 84 255
0.74758995 0.08791874 0.4049932 0 -0 1 84 84 84 255
0.74758995 0.07291874 0.4049932 0 -0 1 84 84 84 255
0.82259 0.08791874 0.44829446 -0.8660254 -0 0.5 84 84 84 255
0.79759014 0.07291874 0.4049932 -0.8660254 -0 0.5 84 84 84 255
0.82259 0.07291874 0.44829446 -0.8660254 -0 0.5 84 84 84 255
0.79759014 0.08791874 0.4049932 -0.8660254 -0 0.5 84 84 84 255
0.82259 0.08791874 0.44829446 0 -1 -0 84 84 84 255
0.77259016 0.08791874 0.4049932 0 -1 -0 84 84 84 255
0.79759014 0.08791874 0.4049932 0 -1 -0 84 84 84 255
0.74758995 0.08791874 0.4049932 0 -1 -0 84 84 84 255
0.72258997 0.08791874 0.44829446 0 -1 -0 84 84 84 255
0.79759014 0.08791874 0.49159583 0 -1 -0 84 84 84 255
0.74758995 0.08791874 0.49159583 0 -1 -0 84 84 84 255
0.77259016 0.08791874 0.49159583 0 -1 -0 84 84 84 255
0.74758995 0.08791874 0.4049932 0.8660254 -0 0.5 84 84 84 255
0.72258997 0.07291874 0.44829446 0.8660254 -0 0.5 84 84 84 255
0.74758995 0.07291874 0.4049932 0.8660254 -0 0.5 84 84 84 255
0.72258997 0.08791874 0.44829446 0.8660254 -0 0.5 84 84 84 255
0.79759014 0.08791874 0.49159583 -0.8660254 -0 -0.5 84 84 84 255
0.82259 0.07291874 0.44829446 -0.8660254 -0 -0.5 84 84 84 255
0.79759014 0.07291874 0.49159583 -0.8660254 -0 -0.5 84 84 84 255
0.82259 0.08791874 0.44829446 -0.8660254 -0 -0.5 84 84 84 255
0.77259016 0.07291874 0.49159583 0 -0 -1 84 84 84 255
0.79759014 0.08791874 0.49159583 0 -0 -1 84 84 84 255
0.79759014 0.07291874 0.49159583 0 -0 -1 84 84 84 255
0.77259016 0.08791874 0.49159583 0 -0 -1 84 84 84 255
0.74758995 0.07291874 0.49159583 0 -0 -1 84 84 84 255
0.74758995 0.08791874 0.49159583 0 -0 -1 84 84 84 255
0.72258997 0.08791874 0.44829446 0.8660254 -0 -0.5 84 84 84 255
0.74758995 0.07291874 0.49159583 0.8660254 -0 -0.5 84 84 84 255
0.72258997 0.07291874 0.44829446 0.8660254 -0 -0.5 84 84 84 255
0.74758995 0.08791874 0.49159583 0.8660254 -0 -0.5 84 84 84 255
0.91293854 0.0382672 0.24153826 0 -1 -0 84 84 84 255
0.6322416 0.0382672 0.21253827 0 -1 -0 84 84 84 255
0.91293854 0.0382672 0.21253827 0 -1 -0 84 84 84 255
0.6322416 0.0382672 0.24153826 0 -1 -0 84 84 84 255
0.6322416 0.0382672 0.24153826 0 1 -0 84 84 84 255
0.91293854 0.0382672 0.24153826 0 1 -0 84 84 84 255
0.6322416 0.0382672 0.21253827 0 1 -0 84 84 84 255
0.91293854 0.0382672 0.21253827 0 1 -0 84 84 84 255
0.6322416 0.0382672 0.21253827 1 -0 -0 84 84 84 255
0.6322416 -0.03826723 0.24153826 1 -0 -0 84 84 84 255
0.6322416 -0.03826723 0.21253827 1 -0 -0 84 84 84 255
0.6322416 0.0382672 0.24153826 1 -0 -0 84 84 84 255
0.6322416 0.0382672 0.24153826 -1 -0 -0 84 84 84 255
0.6322416 0.0382672 0.21253827 -1 -0 -0 84 84 84 255
0.6322416 -0.03826723 0.24153826 -1 -0 -0 84 84 84 255
0.6322416 -0.03826723 0.21253827 -1 -0 -0 84 84 84 255
0.6322416 0.0382672 0.21253827 0 -0 1 84 84 84 255
0.91293854 -0.03826723 0.21253827 0 -0 1 84 84 84 255
0.91293854 0.0382672 0.21253827 0 -0 1 84 84 84 255
0.6322416 -0.03826723 0.21253827 0 -0 1 84 84 84 255
0.6322416 -0.03826723 0.21253827 0 -0 -1 84 84 84 255
0.6322416 0.0382672 0.21253827 0 -0 -1 84 84 84 255
0.91293854 -0.03826723 0.21253827 0 -0 -1 84 84 84 255
0.91293854 0.0382672 0.21253827 0 -0 -1 84 84 84 255
0.91293854 0.0382672 0.24153826 -1 -0 -0 84 84 84 255
0.91293854 -0.03826723 0.21253827 -1 -0 -0 84 84 84 255
0.91293854 -0.03826723 0.24153826 -1 -0 -0 84 84 84 255
0.91293854 0.0382672 0.21253827 -1 -0 -0 84 84 84 255
0.91293854 0.0382672 0.21253827 1 -0 -0 84 84 84 255
0.91293854 0.0382672 0.24153826 1 -0 -0 84 84 84 255
0.91293854 -0.03826723 0.21253827 1 -0 -0 84 84 84 255
0.91293854 -0.03826723 0.24153826 1 -0 -0 84 84 84 255
0.6322416 -0.03826723 0.24153826 0 1 -0 84 84 84 255
0.91293854 -0.03826723 0.21253827 0 1 -0 84 84 84 255
0.6322416 -0.03826723 0.21253827 0 1 -0 84 84 84 255
0.91293854 -0.03826723 0.24153826 0 1 -0 84 84 84 255
0.91293854 -0.03826723 0.24153826 0 -1 -0 84 84 84 255
0.6322416 -0.03826723 0.24153826 0 -1 -0 84 84 84 255
0.91293854 -0.03826723 0.21253827 0 -1 -0 84 84 84 255
0.6322416 -0.03826723 0.21253827 0 -1 -0 84 84 84 255
0.5975901 -0.05591875 0.37537575 0 1 -0 84 84 84 255
0.94759005 -0.05591875 0.24153826 0 1 -0 84 84 84 255
0.5975901 -0.05591875 0.24153826 0 1 -0 84 84 84 255
0.94759005 -0.05591875 0.37537575 0 1 -0 84 84 84 255
0.94759005 -0.05591875 0.37537575 0 -1 -0 84 84 84 255
0.5975901 -0.05591875 0.37537575 0 -1 -0 84 84 84 255
0.94759005 -0.05591875 0.24153826 0 -1 -0 84 84 84 255
0.5975901 -0.05591875 0.24153826 0 -1 -0 84 84 84 255
0.94759005 0.05591873 0.37537575 -1 -0 -2.157576E-14 84 84 84 255
0.94759005 0.020918727 0.28537577 -1 -0 -2.157576E-14 84 84 84 255
0.94759005 0.020918727 0.37537575 -1 -0 -2.157576E-14 84 84 84 255
0.94759005 -0.020918751 0.37537575 -1 -0 -2.157576E-14 84 84 84 255
0.94759005 -0.05591875 0.24153826 -1 -0 -2.157576E-14 84 84 84 255
0.94759005 -0.05591875 0.37537575 -1 -0 -2.157576E-14 84 84 84 255
0.94759005 -0.020918751 0.28537577 -1 -0 -2.157576E-14 84 84 84 255
0.94759005 0.05591873 0.24153826 -1 -0 -2.157576E-14 84 84 84 255
0.94759005 0.05591873 0.37537575 1 -0 2.157576E-14 84 84 84 255
0.94759005 0.020918727 0.28537577 1 -0 2.157576E-14 84 84 84 255
0.94759005 0.05591873 0.24153826 1 -0 2.157576E-14 84 84 84 255
0.94759005 -0.020918751 0.28537577 1 -0 2.157576E-14 84 84 84 255
0.94759005 -0.05591875 0.24153826 1 -0 2.157576E-14 84 84 84 255
0.94759005 -0.020918751 0.37537575 1 -0 2.157576E-14 84 84 84 255
0.94759005 -0.05591875 0.37537575 1 -0 2.157576E-14 84 84 84 255
0.94759005 0.020918727 0.37537575 1 -0 2.157576E-14 84 84 84 255
0.94759005 0.05591873 0.24153826 0 -0 1 84 84 84 255
0.91293854 0.0382672 0.24153826 0 -0 1 84 84 84 255
0.94759005 -0.05591875 0.24153826 0 -0 1 84 84 84 255
0.5975901 0.05591873 0.24153826 0 -0 1 84 84 84 255
0.6322416 0.0382672 0.24153826 0 -0 1 84 84 84 255
0.6322416 -0.03826723 0.24153826 0 -0 1 84 84 84 255
0.91293854 -0.03826723 0.24153826 0 -0 1 84 84 84 255
0.5975901 -0.05591875 0.24153826 0 -0 1 84 84 84 255
0.5975901 0.05591873 0.24153826 0 -0 -1 84 84 84 255
0.6322416 -0.03826723 0.24153826 0 -0 -1 84 84 84 255
0.5975901 -0.05591875 0.24153826 0 -0 -1 84 84 84 255
0.91293854 -0.03826723 0.24153826 0 -0 -1 84 84 84 255
0.91293854 0.0382672 0.24153826 0 -0 -1 84 84 84 255
0.94759005 -0.05591875 0.24153826 0 -0 -1 84 84 84 255
0.6322416 0.0382672 0.24153826 0 -0 -1 84 84 84 255
0.94759005 0.05591873 0.24153826 0 -0 -1 84 84 84 255
0.5975901 -0.05591875 0.24153826 1 -0 -1.2945459E-13 84 84 84 255
0.5975901 -0.020918751 0.28537577 1 -0 -1.2945459E-13 84 84 84 255
0.5975901 -0.05591875 0.37537575 1 -0 -1.2945459E-13 84 84 84 255
0.5975901 0.05591873 0.24153826 1 -0 -1.2945459E-13 84 84 84 255
0.5975901 0.020918727 0.28537577 1 -0 -1.2945459E-13 84 84 84 255
0.5975901 0.020918727 0.37537575 1 -0 -1.2945459E-13 84 84 84 255
0.5975901 0.05591873 0.37537575 1 -0 -1.2945459E-13 84 84 84 255
0.5975901 -0.020918751 0.37537575 1 -0 -1.2945459E-13 84 84 84 255
0.5975901 -0.020918751 0.28537577 -1 -0 1.2945459E-13 84 84 84 255
0.5975901 -0.05591875 0.37537575 -1 -0 1.2945459E-13 84 84 84 255
0.5975901 -0.020918751 0.37537575 -1 -0 1.2945459E-13 84 84 84 255
0.5975901 0.05591873 0.37537575 -1 -0 1.2945459E-13 84 84 84 255
0.5975901 0.05591873 0.24153826 -1 -0 1.2945459E-13 84 84 84 255
0.5975901 0.020918727 0.37537575 -1 -0 1.2945459E-13 84 84 84 255
0.5975901 0.020918727 0.28537577 -1 -0 1.2945459E-13 84 84 84 255
0.5975901 -0.05591875 0.24153826 -1 -0 1.2945459E-13 84 84 84 255
0.5975901 -0.05591875 0.37537575 0 -0 -1 84 84 84 255
0.94759005 -0.020918751 0.37537575 0 -0 -1 84 84 84 255
0.94759005 -0.05591875 0.37537575 0 -0 -1 84 84 84 255
0.5975901 -0.020918751 0.37537575 0 -0 -1 84 84 84 255
0.5975901 -0.020918751 0.37537575 0 -0 1 84 84 84 255
0.5975901 -0.05591875 0.37537575 0 -0 1 84 84 84 255
0.94759005 -0.020918751 0.37537575 0 -0 1 84 84 84 255
0.94759005 -0.05591875 0.37537575 0 -0 1 84 84 84 255
0.94759005 -0.020918751 0.37537575 0 -1 -0 84 84 84 255
0.5975901 -0.020918751 0.28537577 0 -1 -0 84 84 84 255
0.94759005 -0.020918751 0.28537577 0 -1 -0 84 84 84 255
0.5975901 -0.020918751 0.37537575 0 -1 -0 84 84 84 255
0.5975901 -0.020918751 0.37537575 0 1 -0 84 84 84 255
0.94759005 -0.020918751 0.37537575 0 1 -0 84 84 84 255
0.5975901 -0.020918751 0.28537577 0 1 -0 84 84 84 255
0.94759005 -0.020918751 0.28537577 0 1 -0 84 84 84 255
0.5975901 -0.020918751 0.28537577 0 -0 -1 84 84 84 255
0.94759005 0.020918727 0.28537577 0 -0 -1 84 84 84 255
0.94759005 -0.020918751 0.28537577 0 -0 -1 84 84 84 255
0.5975901 0.020918727 0.28537577 0 -0 -1 84 84 84 255
0.5975901 0.020918727 0.28537577 0 -0 1 84 84 84 255
0.5975901 -0.020918751 0.28537577 0 -0 1 84 84 84 255
0.94759005 0.020918727 0.28537577 0 -0 1 84 84 84 255
0.94759005 -0.020918751 0.28537577 0 -0 1 84 84 84 255
0.5975901 0.020918727 0.37537575 0 1 -0 84 84 84 255
0.94759005 0.020918727 0.28537577 0 1 -0 84 84 84 255
0.5975901 0.020918727 0.28537577 0 1 -0 84 84 84 255
0.94759005 0.020918727 0.37537575 0 1 -0 84 84 84 255
0.94759005 0.020918727 0.37537575 0 -1 -0 84 84 84 255
0.5975901 0.020918727 0.37537575 0 -1 -0 84 84 84 255
0.94759005 0.020918727 0.28537577 0 -1 -0 84 84 84 255
0.5975901 0.020918727 0.28537577 0 -1 -0 84 84 84 255
0.94759005 0.020918727 0.37537575 0 -0 -1 84 84 84 255
0.5975901 0.05591873 0.37537575 0 -0 -1 84 84 84 255
0.94759005 0.05591873 0.37537575 0 -0 -1 84 84 84 255
0.5975901 0.020918727 0.37537575 0 -0 -1 84 84 84 255
0.5975901 0.020918727 0.37537575 0 -0 1 84 84 84 255
0.94759005 0.020918727 0.37537575 0 -0 1 84 84 84 255
0.5975901 0.05591873 0.37537575 0 -0 1 84 84 84 255
0.94759005 0.05591873 0.37537575 0 -0 1 84 84 84 255
0.94759005 0.05591873 0.37537575 0 -1 -0 84 84 84 255
0.5975901 0.05591873 0.24153826 0 -1 -0 84 84 84 255
0.94759005 0.05591873 0.24153826 0 -1 -0 84 84 84 255
0.5975901 0.05591873 0.37537575 0 -1 -0 84 84 84 255
0.5975901 0.05591873 0.37537575 0 1 -0 84 84 84 255
0.94759005 0.05591873 0.37537575 0 1 -0 84 84 84 255
0.5975901 0.05591873 0.24153826 0 1 -0 84 84 84 255
0.94759005 0.05591873 0.24153826 0 1 -0 84 84 84 255
0.6322416 0.0382672 0.6550507 0 -1 -0 84 84 84 255
0.91293854 0.0382672 0.6550507 0 -1 -0 84 84 84 255
0.6322416 0.0382672 0.6840507 0 -1 -0 84 84 84 255
0.91293854 0.0382672 0.6840507 0 -1 -0 84 84 84 255
0.91293854 0.0382672 0.6550507 0 1 -0 84 84 84 255
0.6322416 0.0382672 0.6840507 0 1 -0 84 84 84 255
0.91293854 0.0382672 0.6840507 0 1 -0 84 84 84 255
0.6322416 0.0382672 0.6550507 0 1 -0 84 84 84 255
0.6322416 0.0382672 0.6550507 1 -0 1.2246471E-16 84 84 84 255
0.6322416 0.0382672 0.6840507 1 -0 1.2246471E-16 84 84 84 255
0.6322416 -0.03826723 0.6550507 1 -0 1.2246471E-16 84 84 84 255
0.6322416 -0.03826723 0.6840507 1 -0 1.2246471E-16 84 84 84 255
0.6322416 0.0382672 0.6840507 -1 -0 -1.2246471E-16 84 84 84 255
0.6322416 -0.03826723 0.6550507 -1 -0 -1.2246471E-16 84 84 84 255
0.6322416 -0.03826723 0.6840507 -1 -0 -1.2246471E-16 84 84 84 255
0.6322416 0.0382672 0.6550507 -1 -0 -1.2246471E-16 84 84 84 255
0.6322416 -0.03826723 0.6840507 1.2246471E-16 -0 -1 84 84 84 255
0.6322416 0.0382672 0.6840507 1.2246471E-16 -0 -1 84 84 84 255
0.91293854 -0.03826723 0.6840507 1.2246471E-16 -0 -1 84 84 84 255
0.91293854 0.0382672 0.6840507 1.2246471E-16 -0 -1 84 84 84 255
0.6322416 0.0382672 0.6840507 -1.2246471E-16 -0 1 84 84 84 255
0.91293854 -0.03826723 0.6840507 -1.2246471E-16 -0 1 84 84 84 255
0.91293854 0.0382672 0.6840507 -1.2246471E-16 -0 1 84 84 84 255
0.6322416 -0.03826723 0.6840507 -1.2246471E-16 -0 1 84 84 84 255
0.91293854 0.0382672 0.6840507 -1 -0 -1.2246471E-16 84 84 84 255
0.91293854 0.0382672 0.6550507 -1 -0 -1.2246471E-16 84 84 84 255
0.91293854 -0.03826723 0.6840507 -1 -0 -1.2246471E-16 84 84 84 255
0.91293854 -0.03826723 0.6550507 -1 -0 -1.2246471E-16 84 84 84 255
0.91293854 0.0382672 0.6550507 1 -0 1.2246471E-16 84 84 84 255
0.91293854 -0.03826723 0.6840507 1 -0 1.2246471E-16 84 84 84 255
0.91293854 -0.03826723 0.6550507 1 -0 1.2246471E-16 84 84 84 255
0.91293854 0.0382672 0.6840507 1 -0 1.2246471E-16 84 84 84 255
0.91293854 -0.03826723 0.6550507 0 1 -0 84 84 84 255
0.6322416 -0.03826723 0.6550507 0 1 -0 84 84 84 255
0.91293854 -0.03826723 0.6840507 0 1 -0 84 84 84 255
0.6322416 -0.03826723 0.6840507 0 1 -0 84 84 84 255
0.6322416 -0.03826723 0.6550507 0 -1 -0 84 84 84 255
0.91293854 -0.03826723 0.6840507 0 -1 -0 84 84 84 255
0.6322416 -0.03826723 0.6840507 0 -1 -0 84 84 84 255
0.91293854 -0.03826723 0.6550507 0 -1 -0 84 84 84 255
0.94759005 -0.05591875 0.5212132 0 1 -0 84 84 84 255
0.5975901 -0.05591875 0.5212132 0 1 -0 84 84 84 255
0.94759005 -0.05591875 0.6550507 0 1 -0 84 84 84 255
0.5975901 -0.05591875 0.6550507 0 1 -0 84 84 84 255
0.5975901 -0.05591875 0.5212132 0 -1 -0 84 84 84 255
0.94759005 -0.05591875 0.6550507 0 -1 -0 84 84 84 255
0.5975901 -0.05591875 0.6550507 0 -1 -0 84 84 84 255
0.94759005 -0.05591875 0.5212132 0 -1 -0 84 84 84 255
0.94759005 0.05591873 0.5212132 -1 -0 2.1453295E-14 84 84 84 255
0.94759005 0.020918727 0.61121315 -1 -0 2.1453295E-14 84 84 84 255
0.94759005 0.05591873 0.6550507 -1 -0 2.1453295E-14 84 84 84 255
0.94759005 -0.020918751 0.61121315 -1 -0 2.1453295E-14 84 84 84 255
0.94759005 -0.05591875 0.6550507 -1 -0 2.1453295E-14 84 84 84 255
0.94759005 -0.020918751 0.5212132 -1 -0 2.1453295E-14 84 84 84 255
0.94759005 -0.05591875 0.5212132 -1 -0 2.1453295E-14 84 84 84 255
0.94759005 0.020918727 0.5212132 -1 -0 2.1453295E-14 84 84 84 255
0.94759005 0.05591873 0.5212132 1 -0 -2.1453295E-14 84 84 84 255
0.94759005 0.020918727 0.61121315 1 -0 -2.1453295E-14 84 84 84 255
0.94759005 0.020918727 0.5212132 1 -0 -2.1453295E-14 84 84 84 255
0.94759005 -0.020918751 0.5212132 1 -0 -2.1453295E-14 84 84 84 255
0.94759005 -0.05591875 0.6550507 1 -0 -2.1453295E-14 84 84 84 255
0.94759005 -0.05591875 0.5212132 1 -0 -2.1453295E-14 84 84 84 255
0.94759005 -0.020918751 0.61121315 1 -0 -2.1453295E-14 84 84 84 255
0.94759005 0.05591873 0.6550507 1 -0 -2.1453295E-14 84 84 84 255
0.5975901 0.05591873 0.6550507 1.2246471E-16 -0 -1 84 84 84 255
0.6322416 -0.03826723 0.6550507 1.2246471E-16 -0 -1 84 84 84 255
0.5975901 -0.05591875 0.6550507 1.2246471E-16 -0 -1 84 84 84 255
0.91293854 -0.03826723 0.6550507 1.2246471E-16 -0 -1 84 84 84 255
0.91293854 0.0382672 0.6550507 1.2246471E-16 -0 -1 84 84 84 255
0.94759005 -0.05591875 0.6550507 1.2246471E-16 -0 -1 84 84 84 255
0.6322416 0.0382672 0.6550507 1.2246471E-16 -0 -1 84 84 84 255
0.94759005 0.05591873 0.6550507 1.2246471E-16 -0 -1 84 84 84 255
0.94759005 0.05591873 0.6550507 -1.2246471E-16 -0 1 84 84 84 255
0.91293854 0.0382672 0.6550507 -1.2246471E-16 -0 1 84 84 84 255
0.94759005 -0.05591875 0.6550507 -1.2246471E-16 -0 1 84 84 84 255
0.5975901 0.05591873 0.6550507 -1.2246471E-16 -0 1 84 84 84 255
0.6322416 0.0382672 0.6550507 -1.2246471E-16 -0 1 84 84 84 255
0.6322416 -0.03826723 0.6550507 -1.2246471E-16 -0 1 84 84 84 255
0.91293854 -0.03826723 0.6550507 -1.2246471E-16 -0 1 84 84 84 255
0.5975901 -0.05591875 0.6550507 -1.2246471E-16 -0 1 84 84 84 255
0.5975901 -0.020918751 0.61121315 1 -0 -0 84 84 84 255
0.5975901 -0.05591875 0.5212132 1 -0 -0 84 84 84 255
0.5975901 -0.020918751 0.5212132 1 -0 -0 84 84 84 255
0.5975901 0.05591873 0.5212132 1 -0 -0 84 84 84 255
0.5975901 0.05591873 0.6550507 1 -0 -0 84 84 84 255
0.5975901 0.020918727 0.5212132 1 -0 -0 84 84 84 255
0.5975901 0.020918727 0.61121315 1 -0 -0 84 84 84 255
0.5975901 -0.05591875 0.6550507 1 -0 -0 84 84 84 255
0.5975901 -0.05591875 0.6550507 -1 -0 -0 84 84 84 255
0.5975901 -0.020918751 0.61121315 -1 -0 -0 84 84 84 255
0.5975901 -0.05591875 0.5212132 -1 -0 -0 84 84 84 255
0.5975901 0.05591873 0.6550507 -1 -0 -0 84 84 84 255
0.5975901 0.020918727 0.61121315 -1 -0 -0 84 84 84 255
0.5975901 0.020918727 0.5212132 -1 -0 -0 84 84 84 255
0.5975901 0.05591873 0.5212132 -1 -0 -0 84 84 84 255
0.5975901 -0.020918751 0.5212132 -1 -0 -0 84 84 84 255
0.5975901 -0.020918751 0.5212132 4.02852E-17 -1.69198E-15 1 84 84 84 255
0.5975901 -0.05591875 0.5212132 4.02852E-17 -1.69198E-15 1 84 84 84 255
0.94759005 -0.020918751 0.5212132 4.02852E-17 -1.69198E-15 1 84 84 84 255
0.94759005 -0.05591875 0.5212132 4.02852E-17 -1.69198E-15 1 84 84 84 255
0.5975901 -0.05591875 0.5212132 -4.02852E-17 1.69198E-15 -1 84 84 84 255
0.94759005 -0.020918751 0.5212132 -4.02852E-17 1.69198E-15 -1 84 84 84 255
0.94759005 -0.05591875 0.5212132 -4.02852E-17 1.69198E-15 -1 84 84 84 255
0.5975901 -0.020918751 0.5212132 -4.02852E-17 1.69198E-15 -1 84 84 84 255
0.94759005 -0.020918751 0.5212132 0 -1 -0 84 84 84 255
0.94759005 -0.020918751 0.61121315 0 -1 -0 84 84 84 255
0.5975901 -0.020918751 0.5212132 0 -1 -0 84 84 84 255
0.5975901 -0.020918751 0.61121315 0 -1 -0 84 84 84 255
0.94759005 -0.020918751 0.61121315 0 1 -0 84 84 84 255
0.5975901 -0.020918751 0.5212132 0 1 -0 84 84 84 255
0.5975901 -0.020918751 0.61121315 0 1 -0 84 84 84 255
0.94759005 -0.020918751 0.5212132 0 1 -0 84 84 84 255
0.5975901 0.020918727 0.61121315 -1.2246471E-16 -0 1 84 84 84 255
0.5975901 -0.020918751 0.61121315 -1.2246471E-16 -0 1 84 84 84 255
0.94759005 0.020918727 0.61121315 -1.2246471E-16 -0 1 84 84 84 255
0.94759005 -0.020918751 0.61121315 -1.2246471E-16 -0 1 84 84 84 255
0.5975901 -0.020918751 0.61121315 1.2246471E-16 -0 -1 84 84 84 255
0.94759005 0.020918727 0.61121315 1.2246471E-16 -0 -1 84 84 84 255
0.94759005 -0.020918751 0.61121315 1.2246471E-16 -0 -1 84 84 84 255
0.5975901 0.020918727 0.61121315 1.2246471E-16 -0 -1 84 84 84 255
0.94759005 0.020918727 0.5212132 0 1 -0 84 84 84 255
0.5975901 0.020918727 0.5212132 0 1 -0 84 84 84 255
0.94759005 0.020918727 0.61121315 0 1 -0 84 84 84 255
0.5975901 0.020918727 0.61121315 0 1 -0 84 84 84 255
0.5975901 0.020918727 0.5212132 0 -1 -0 84 84 84 255
0.94759005 0.020918727 0.61121315 0 -1 -0 84 84 84 255
0.5975901 0.020918727 0.61121315 0 -1 -0 84 84 84 255
0.94759005 0.020918727 0.5212132 0 -1 -0 84 84 84 255
0.5975901 0.020918727 0.5212132 4.02852E-17 1.69198E-15 1 84 84 84 255
0.94759005 0.020918727 0.5212132 4.02852E-17 1.69198E-15 1 84 84 84 255
0.5975901 0.05591873 0.5212132 4.02852E-17 1.69198E-15 1 84 84 84 255
0.94759005 0.05591873 0.5212132 4.02852E-17 1.69198E-15 1 84 84 84 255
0.94759005 0.020918727 0.5212132 -4.02852E-17 -1.69198E-15 -1 84 84 84 255
0.5975901 0.05591873 0.5212132 -4.02852E-17 -1.69198E-15 -1 84 84 84 255
0.94759005 0.05591873 0.5212132 -4.02852E-17 -1.69198E-15 -1 84 84 84 255
0.5975901 0.020918727 0.5212132 -4.02852E-17 -1.69198E-15 -1 84 84 84 255
0.94759005 0.05591873 0.5212132 0 -1 -0 84 84 84 255
0.94759005 0.05591873 0.6550507 0 -1 -0 84 84 84 255
0.5975901 0.05591873 0.5212132 0 -1 -0 84 84 84 255
0.5975901 0.05591873 0.6550507 0 -1 -0 84 84 84 255
0.94759005 0.05591873 0.6550507 0 1 -0 84 84 84 255
0.5975901 0.05591873 0.5212132 0 1 -0 84 84 84 255
0.5975901 0.05591873 0.6550507 0 1 -0 84 84 84 255
0.94759005 0.05591873 0.5212132 0 1 -0 84 84 84 255
3 0 1 2
3 3 4 5
3 4 3 6
3 6 3 7
3 7 8 9
3 8 7 10
3 10 7 3
3 10 3 11
3 10 11 12
3 10 12 13
3 14 15 16
3 15 14 17
3 18 19 20
3 19 18 21
3 21 18 22
3 22 18 23
3 22 23 24
3 24 23 25
3 24 25 26
3 26 25 27
3 19 28 29
3 28 19 30
3 30 19 21
3 30 21 31
3 29 28 27
3 29 27 25
3 32 33 34
3 33 32 35
3 35 32 36
3 35 36 37
3 37 36 38
3 38 36 39
3 34 40 41
3 40 34 33
3 40 33 42
3 41 40 43
3 41 43 44
3 44 43 39
3 44 39 45
3 45 39 36
3 46 47 48
3 49 12 11
3 12 49 50
3 50 13 12
3 13 50 51
3 52 53 54
3 53 52 55
3 56 57 58
3 57 56 59
3 60 61 62
3 61 60 63
3 64 65 66
3 65 64 67
3 68 69 70
3 69 68 71
3 72 73 74
3 73 72 75
3 75 72 76
3 76 72 77
3 76 77 78
3 78 77 79
3 78 79 80
3 80 79 81
3 81 79 82
3 81 82 83
3 73 84 85
3 84 73 75
3 85 84 86
3 85 86 87
3 87 86 88
3 87 88 89
3 87 89 90
3 90 89 83
3 90 83 91
3 91 83 82
3 92 18 93
3 18 92 23
3 94 95 96
3 95 94 97
3 97 94 98
3 98 99 100
3 99 98 101
3 101 98 94
3 101 94 102
3 101 102 103
3 101 103 104
3 105 106 107
3 108 109 110
3 44 111 41
3 111 44 112
3 113 114 115
3 114 113 116
3 117 118 119
3 118 117 120
3 121 104 103
3 104 121 122
3 123 103 102
3 103 123 121
3 124 125 126
3 125 124 127
3 128 129 130
3 129 128 131
3 132 133 134
3 133 132 135
3 136 137 138
3 137 136 139
3 140 141 142
3 141 140 143
3 144 138 145
3 138 144 136
3 146 147 148
3 147 146 149
3 150 151 152
3 151 150 153
3 149 154 147
3 154 149 155
3 156 157 158
3 157 156 159
3 160 161 162
3 161 160 163
3 164 165 166
3 165 164 167
3 168 169 170
3 169 168 171
3 171 168 172
3 171 172 173
3 174 175 176
3 175 174 177
3 177 174 178
3 178 174 179
3 178 179 180
3 180 179 181
3 182 183 184
3 183 182 185
3 186 187 188
3 187 186 189
3 190 191 192
3 191 190 193
3 194 195 196
3 195 194 197
3 197 194 198
3 197 198 199
3 200 201 202
3 201 200 203
3 203 200 204
3 203 204 205
3 206 207 208
3 207 206 209
3 210 211 212
3 211 210 213
3 213 210 214
3 214 210 215
3 214 215 216
3 216 215 217
3 218 219 220
3 219 218 221
3 222 223 224
3 223 222 225
3 226 227 228
3 227 226 229
3 229 226 230
3 229 230 231
3 232 233 234
3 233 232 235
3 236 237 238
3 237 236 239
3 240 241 242
3 243 242 241
3 244 245 246
3 245 244 247
3 248 249 250
3 251 250 249
3 252 253 254
3 253 252 255
3 256 257 258
3 259 258 257
3 260 261 262
3 261 260 263
3 264 265 266
3 267 266 265
3 268 269 270
3 269 268 271
3 272 273 274
3 275 274 273
3 276 277 278
3 277 276 279
3 280 281 282
3 283 282 281
3 284 285 286
3 287 288 289
3 288 287 290
3 288 290 291
3 291 290 285
3 291 285 284
3 292 293 294
3 293 295 294
3 294 295 296
3 295 297 296
3 298 296 297
3 299 293 292
3 300 301 302
3 301 300 303
3 301 303 304
3 304 303 305
3 302 306 307
3 306 302 301
3 307 306 305
3 307 305 303
3 308 309 310
3 309 311 310
3 312 313 311
3 310 311 313
3 309 308 314
3 314 308 312
3 308 315 312
3 313 312 315
3 316 317 318
3 317 316 319
3 317 319 320
3 320 319 321
3 321 319 322
3 323 318 317
3 324 325 326
3 327 328 329
3 329 328 330
3 330 328 324
3 328 331 324
3 325 324 331
3 332 333 334
3 333 332 335
3 336 337 338
3 339 338 337
3 340 341 342
3 341 340 343
3 344 345 346
3 347 346 345
3 348 349 350
3 349 348 351
3 352 353 354
3 355 354 353
3 356 357 358
3 357 356 359
3 360 361 362
3 363 362 361
3 364 365 366
3 365 364 367
3 368 369 370
3 371 370 369
3 372 373 374
3 373 372 375
3 376 377 378
3 379 378 377
3 380 381 382
3 383 382 381
3 384 385 386
3 385 384 387
3 388 389 390
3 391 390 389
3 392 393 394
3 393 392 395
3 396 397 398
3 399 398 397
3 400 401 402
3 401 400 403
3 404 405 406
3 407 406 405
3 408 409 410
3 409 408 411
3 412 413 414
3 415 414 413
3 416 417 418
3 417 416 419
3 420 421 422
3 423 422 421
3 424 425 426
3 425 424 427
3 428 429 430
3 429 431 430
3 430 431 432
3 431 433 432
3 434 432 433
3 435 429 428
3 436 437 438
3 439 440 441
3 440 439 442
3 440 442 443
3 443 442 437
3 443 437 436
3 444 445 446
3 445 447 446
3 448 449 447
3 446 447 449
3 445 444 450
3 450 444 448
3 444 451 448
3 449 448 451
3 452 453 454
3 453 452 455
3 453 455 456
3 456 455 457
3 454 458 459
3 458 454 453
3 459 458 457
3 459 457 455
3 460 461 462
3 463 464 465
3 465 464 466
3 466 464 460
3 464 467 460
3 461 460 467
3 468 469 470
3 469 468 471
3 469 471 472
3 472 471 473
3 473 471 474
3 475 470 469
3 476 477 478
3 479 478 477
3 480 481 482
3 481 480 483
3 484 485 486
3 487 486 485
3 488 489 490
3 489 488 491
3 492 493 494
3 495 494 493
3 496 497 498
3 497 496 499
3 500 501 502
3 503 502 501
3 504 505 506
3 505 504 507
3 508 509 510
3 511 510 509
3 512 513 514
3 513 512 515
3 516 517 518
3 519 518 517
3 520 521 522
3 521 520 523

