ply
format ascii 1.0
commentY29udmVydGVyIGJ5IENvZGVMZW9wYXJk
comment Original mesh name: 'C:\Program Files (x86)\Steam\steamapps\common\Stormworks\rom\meshes\component_instrument_display_gauge.mesh'
comment SubMesh index: 0
comment SubMesh name: 'ID38'
comment Shader: Transparent (1)
element vertex 124
property float x
property float y
property float z
property float nx
property float ny
property float nz
property uchar red
property uchar green
property uchar blue
property uchar alpha
element face 4
property list uchar ushort vertex_index
end_header
-0.04249999 -0.022499999 0.125 0 -0 -1 109 160 199 207
0.04249999 0.022499999 0.125 0 -0 -1 109 160 199 207
0.04249999 -0.022499999 0.125 0 -0 -1 109 160 199 207
-0.04249999 0.022499999 0.125 0 -0 -1 109 160 199 207
-0.04249999 0.022499999 0.125 0 -0 1 109 160 199 207
-0.04249999 -0.022499999 0.125 0 -0 1 109 160 199 207
0.04249999 0.022499999 0.125 0 -0 1 109 160 199 207
0.04249999 -0.022499999 0.125 0 -0 1 109 160 199 207
0.04249999 -0.022499999 0.114999995 0 -0 -1 86 86 86 255
0.03999999 -0.02 0.114999995 0 -0 -1 86 86 86 255
0.04249999 0.022499999 0.114999995 0 -0 -1 86 86 86 255
-0.04249999 -0.022499999 0.114999995 0 -0 -1 86 86 86 255
-0.03999999 -0.02 0.114999995 0 -0 -1 86 86 86 255
-0.03999999 -0.0075 0.114999995 0 -0 -1 86 86 86 255
-0.03999999 0.0075 0.114999995 0 -0 -1 86 86 86 255
-0.03999999 0.02 0.114999995 0 -0 -1 86 86 86 255
0.03999999 0.02 0.114999995 0 -0 -1 86 86 86 255
-0.04249999 0.022499999 0.114999995 0 -0 -1 86 86 86 255
0.03999999 -0.0075 0.114999995 0 -0 -1 86 86 86 255
0.03999999 0.0075 0.114999995 0 -0 -1 86 86 86 255
-0.037499998 0.0075 0.114999995 0 -0 -1 86 86 86 255
-0.037499998 -0.0075 0.114999995 0 -0 -1 86 86 86 255
-0.037499998 -0.0175 0.114999995 0 -0 -1 86 86 86 255
-0.02 -0.012499999 0.114999995 0 -0 -1 86 86 86 255
-0.02 -0.0175 0.114999995 0 -0 -1 86 86 86 255
-0.02 0.012499999 0.114999995 0 -0 -1 86 86 86 255
-0.02 0.0175 0.114999995 0 -0 -1 86 86 86 255
-0.037499998 0.0175 0.114999995 0 -0 -1 86 86 86 255
-0.0175 0.012499999 0.114999995 0 -0 -1 86 86 86 255
-0.0175 -0.012499999 0.114999995 0 -0 -1 86 86 86 255
-0.0175 -0.0175 0.114999995 0 -0 -1 86 86 86 255
-0.00125 -0.01 0.114999995 0 -0 -1 86 86 86 255
-0.00125 -0.0175 0.114999995 0 -0 -1 86 86 86 255
-0.00125 0.01 0.114999995 0 -0 -1 86 86 86 255
-0.00125 0.0175 0.114999995 0 -0 -1 86 86 86 255
-0.0175 0.0175 0.114999995 0 -0 -1 86 86 86 255
0.00125 0.01 0.114999995 0 -0 -1 86 86 86 255
0.00125 -0.01 0.114999995 0 -0 -1 86 86 86 255
0.00125 -0.0175 0.114999995 0 -0 -1 86 86 86 255
0.0175 -0.012499999 0.114999995 0 -0 -1 86 86 86 255
0.0175 -0.0175 0.114999995 0 -0 -1 86 86 86 255
0.0175 0.012499999 0.114999995 0 -0 -1 86 86 86 255
0.0175 0.0175 0.114999995 0 -0 -1 86 86 86 255
0.00125 0.0175 0.114999995 0 -0 -1 86 86 86 255
0.02 0.012499999 0.114999995 0 -0 -1 86 86 86 255
0.02 -0.012499999 0.114999995 0 -0 -1 86 86 86 255
0.02 -0.0175 0.114999995 0 -0 -1 86 86 86 255
0.037499998 -0.0075 0.114999995 0 -0 -1 86 86 86 255
0.037499998 -0.0175 0.114999995 0 -0 -1 86 86 86 255
0.037499998 0.0075 0.114999995 0 -0 -1 86 86 86 255
0.037499998 0.0175 0.114999995 0 -0 -1 86 86 86 255
0.02 0.0175 0.114999995 0 -0 -1 86 86 86 255
-0.04249999 0.022499999 0.125 0 1 -0 86 86 86 255
0.04249999 0.022499999 0.114999995 0 1 -0 86 86 86 255
-0.04249999 0.022499999 0.114999995 0 1 -0 86 86 86 255
0.04249999 0.022499999 0.125 0 1 -0 86 86 86 255
0.04249999 0.022499999 0.114999995 1 -0 -0 86 86 86 255
0.04249999 -0.022499999 0.125 1 -0 -0 86 86 86 255
0.04249999 -0.022499999 0.114999995 1 -0 -0 86 86 86 255
0.04249999 0.022499999 0.125 1 -0 -0 86 86 86 255
0.04249999 -0.022499999 0.125 0 -1 -0 86 86 86 255
-0.04249999 -0.022499999 0.114999995 0 -1 -0 86 86 86 255
0.04249999 -0.022499999 0.114999995 0 -1 -0 86 86 86 255
-0.04249999 -0.022499999 0.125 0 -1 -0 86 86 86 255
-0.04249999 0.022499999 0.125 -1 -0 -0 86 86 86 255
-0.04249999 -0.022499999 0.114999995 -1 -0 -0 86 86 86 255
-0.04249999 -0.022499999 0.125 -1 -0 -0 86 86 86 255
-0.04249999 0.022499999 0.114999995 -1 -0 -0 86 86 86 255
0.0175 0.012499999 0.114999995 0 -0 -1 255 255 255 255
0.02 0.0175 0.114999995 0 -0 -1 255 255 255 255
0.02 0.012499999 0.114999995 0 -0 -1 255 255 255 255
-0.00125 0.01 0.114999995 0 -0 -1 255 255 255 255
0.00125 0.0175 0.114999995 0 -0 -1 255 255 255 255
0.00125 0.01 0.114999995 0 -0 -1 255 255 255 255
-0.02 0.012499999 0.114999995 0 -0 -1 255 255 255 255
-0.0175 0.0175 0.114999995 0 -0 -1 255 255 255 255
-0.0175 0.012499999 0.114999995 0 -0 -1 255 255 255 255
-0.03999999 0.0075 0.114999995 0 -0 -1 255 255 255 255
-0.037499998 0.0175 0.114999995 0 -0 -1 255 255 255 255
-0.037499998 0.0075 0.114999995 0 -0 -1 255 255 255 255
0.037499998 0.0075 0.114999995 0 -0 -1 255 255 255 255
0.03999999 0.02 0.114999995 0 -0 -1 255 255 255 255
0.03999999 0.0075 0.114999995 0 -0 -1 255 255 255 255
0.037499998 0.0175 0.114999995 0 -0 -1 255 255 255 255
-0.03999999 0.02 0.114999995 0 -0 -1 255 255 255 255
0.0175 0.0175 0.114999995 0 -0 -1 255 255 255 255
-0.00125 0.0175 0.114999995 0 -0 -1 255 255 255 255
-0.02 0.0175 0.114999995 0 -0 -1 255 255 255 255
0.03999999 -0.02 0.114999995 0 -0 -1 255 255 255 255
0.037499998 -0.0175 0.114999995 0 -0 -1 255 255 255 255
0.03999999 -0.0075 0.114999995 0 -0 -1 255 255 255 255
-0.03999999 -0.02 0.114999995 0 -0 -1 255 255 255 255
0.02 -0.0175 0.114999995 0 -0 -1 255 255 255 255
0.0175 -0.0175 0.114999995 0 -0 -1 255 255 255 255
0.02 -0.012499999 0.114999995 0 -0 -1 255 255 255 255
0.00125 -0.0175 0.114999995 0 -0 -1 255 255 255 255
-0.00125 -0.0175 0.114999995 0 -0 -1 255 255 255 255
0.00125 -0.01 0.114999995 0 -0 -1 255 255 255 255
-0.0175 -0.0175 0.114999995 0 -0 -1 255 255 255 255
-0.02 -0.0175 0.114999995 0 -0 -1 255 255 255 255
-0.0175 -0.012499999 0.114999995 0 -0 -1 255 255 255 255
-0.037499998 -0.0175 0.114999995 0 -0 -1 255 255 255 255
-0.037499998 -0.0075 0.114999995 0 -0 -1 255 255 255 255
-0.03999999 -0.0075 0.114999995 0 -0 -1 255 255 255 255
-0.02 -0.012499999 0.114999995 0 -0 -1 255 255 255 255
-0.00125 -0.01 0.114999995 0 -0 -1 255 255 255 255
0.0175 -0.012499999 0.114999995 0 -0 -1 255 255 255 255
0.037499998 -0.0075 0.114999995 0 -0 -1 255 255 255 255
0.0625 -0.0625 0.125 0 -0 -1 255 125 0 255
0.0525 -0.03250001 0.125 0 -0 -1 255 125 0 255
0.0625 0.0625 0.125 0 -0 -1 255 125 0 255
-0.0625 -0.0625 0.125 0 -0 -1 255 125 0 255
-0.0525 -0.03250001 0.125 0 -0 -1 255 125 0 255
-0.0525 0.03250001 0.125 0 -0 -1 255 125 0 255
0.0525 0.03250001 0.125 0 -0 -1 255 125 0 255
-0.0625 0.0625 0.125 0 -0 -1 255 125 0 255
0.0525 -0.03250001 0.125 0 -0 -1 86 86 86 255
0.04249999 -0.022499999 0.125 0 -0 -1 86 86 86 255
0.0525 0.03250001 0.125 0 -0 -1 86 86 86 255
-0.0525 -0.03250001 0.125 0 -0 -1 86 86 86 255
-0.04249999 -0.022499999 0.125 0 -0 -1 86 86 86 255
-0.04249999 0.022499999 0.125 0 -0 -1 86 86 86 255
0.04249999 0.022499999 0.125 0 -0 -1 86 86 86 255
-0.0525 0.03250001 0.125 0 -0 -1 86 86 86 255
3 0 1 2
3 1 0 3
3 4 5 6
3 7 6 5

