ply
format ascii 1.0
commentY29udmVydGVyIGJ5IENvZGVMZW9wYXJk
comment Original mesh name: 'C:\Program Files (x86)\Steam\steamapps\common\Stormworks\rom\meshes\component_shell_xxl_override.mesh'
comment SubMesh index: 0
comment SubMesh name: 'ID84'
comment Shader: Opaque (0)
element vertex 320
property float x
property float y
property float z
property float nx
property float ny
property float nz
property uchar red
property uchar green
property uchar blue
property uchar alpha
element face 192
property list uchar ushort vertex_index
end_header
-0.16664986 0.046306863 0.443199 0.9796077 -5.40305E-08 -0.20091951 255 128 0 255
-0.09077632 -0.054003984 0.68648756 0.9796077 -5.40305E-08 -0.20091951 255 128 0 255
-0.16664986 -0.08543188 0.443199 0.9796077 -5.40305E-08 -0.20091951 255 128 0 255
-0.09077629 0.014879001 0.68648756 0.9796077 -5.40305E-08 -0.20091951 255 128 0 255
-0.073496506 0.1394602 0.443199 0.6926874 -0.6926872 -0.20091954 255 128 0 255
-0.09077629 0.014879001 0.68648756 0.6926874 -0.6926872 -0.20091954 255 128 0 255
-0.16664986 0.046306863 0.443199 0.6926874 -0.6926872 -0.20091954 255 128 0 255
-0.04206866 0.06358669 0.68648756 0.6926874 -0.6926872 -0.20091954 255 128 0 255
-0.09077632 -0.054003984 0.68648756 0.6926873 0.6926872 -0.20091961 255 128 0 255
-0.073496506 -0.17858525 0.443199 0.6926873 0.6926872 -0.20091961 255 128 0 255
-0.16664986 -0.08543188 0.443199 0.6926873 0.6926872 -0.20091961 255 128 0 255
-0.042068645 -0.10271167 0.68648756 0.6926873 0.6926872 -0.20091961 255 128 0 255
0.02681437 0.063586645 0.68648756 -5.40305E-08 -0.9796077 -0.20091951 255 128 0 255
-0.073496506 0.1394602 0.443199 -5.40305E-08 -0.9796077 -0.20091951 255 128 0 255
0.05824223 0.13946022 0.443199 -5.40305E-08 -0.9796077 -0.20091951 255 128 0 255
-0.04206866 0.06358669 0.68648756 -5.40305E-08 -0.9796077 -0.20091951 255 128 0 255
-0.042068645 -0.10271167 0.68648756 -5.4030508E-08 0.9796077 -0.20091961 255 128 0 255
0.058242235 -0.17858525 0.443199 -5.4030508E-08 0.9796077 -0.20091961 255 128 0 255
-0.073496506 -0.17858525 0.443199 -5.4030508E-08 0.9796077 -0.20091961 255 128 0 255
0.02681436 -0.10271163 0.68648756 -5.4030508E-08 0.9796077 -0.20091961 255 128 0 255
0.07552201 0.0148790395 0.68648756 -0.6926872 -0.6926874 -0.20091954 255 128 0 255
0.05824223 0.13946022 0.443199 -0.6926872 -0.6926874 -0.20091954 255 128 0 255
0.1513956 0.046306856 0.443199 -0.6926872 -0.6926874 -0.20091954 255 128 0 255
0.02681437 0.063586645 0.68648756 -0.6926872 -0.6926874 -0.20091954 255 128 0 255
0.02681436 -0.10271163 0.68648756 -0.6926872 0.6926873 -0.20091961 255 128 0 255
0.15139562 -0.085431874 0.443199 -0.6926872 0.6926873 -0.20091961 255 128 0 255
0.058242235 -0.17858525 0.443199 -0.6926872 0.6926873 -0.20091961 255 128 0 255
0.07552203 -0.05400401 0.68648756 -0.6926872 0.6926873 -0.20091961 255 128 0 255
0.07552201 0.0148790395 0.68648756 -0.9796077 -5.4030508E-08 -0.20091961 255 128 0 255
0.15139562 -0.085431874 0.443199 -0.9796077 -5.4030508E-08 -0.20091961 255 128 0 255
0.07552203 -0.05400401 0.68648756 -0.9796077 -5.4030508E-08 -0.20091961 255 128 0 255
0.1513956 0.046306856 0.443199 -0.9796077 -5.4030508E-08 -0.20091961 255 128 0 255
0.065561086 0.010753042 -0.80799985 0 -0 1 255 128 0 255
0.02268842 -0.09275073 -0.80799985 0 -0 1 255 128 0 255
0.065561086 -0.049878057 -0.80799985 0 -0 1 255 128 0 255
0.022688415 0.053625707 -0.80799985 0 -0 1 255 128 0 255
-0.037942685 -0.09275073 -0.80799985 0 -0 1 255 128 0 255
-0.037942685 0.053625707 -0.80799985 0 -0 1 255 128 0 255
-0.080815345 -0.049878065 -0.80799985 0 -0 1 255 128 0 255
-0.080815345 0.010753042 -0.80799985 0 -0 1 255 128 0 255
0.07556111 0.014895192 -0.80799985 2.8522905E-31 -9.888389E-32 1 199 125 55 255
0.065561086 -0.049878057 -0.80799985 2.8522905E-31 -9.888389E-32 1 199 125 55 255
0.07556109 -0.054020204 -0.80799985 2.8522905E-31 -9.888389E-32 1 199 125 55 255
0.065561086 0.010753042 -0.80799985 2.8522905E-31 -9.888389E-32 1 199 125 55 255
0.026830556 0.06362571 -0.80799985 2.8522905E-31 -9.888389E-32 1 199 125 55 255
0.022688415 0.053625707 -0.80799985 2.8522905E-31 -9.888389E-32 1 199 125 55 255
-0.04208483 0.06362574 -0.80799985 2.8522905E-31 -9.888389E-32 1 199 125 55 255
-0.037942685 0.053625707 -0.80799985 2.8522905E-31 -9.888389E-32 1 199 125 55 255
-0.080815345 0.010753042 -0.80799985 2.8522905E-31 -9.888389E-32 1 199 125 55 255
-0.09081535 0.014895183 -0.80799985 2.8522905E-31 -9.888389E-32 1 199 125 55 255
0.026830565 -0.10275075 -0.80799985 2.8522905E-31 -9.888389E-32 1 199 125 55 255
0.02268842 -0.09275073 -0.80799985 2.8522905E-31 -9.888389E-32 1 199 125 55 255
-0.042084824 -0.10275073 -0.80799985 2.8522905E-31 -9.888389E-32 1 199 125 55 255
-0.037942685 -0.09275073 -0.80799985 2.8522905E-31 -9.888389E-32 1 199 125 55 255
-0.09081538 -0.054020204 -0.80799985 2.8522905E-31 -9.888389E-32 1 199 125 55 255
-0.080815345 -0.049878065 -0.80799985 2.8522905E-31 -9.888389E-32 1 199 125 55 255
0.07847664 -0.2274354 -0.44306675 0 -0 -1 255 255 255 255
0.20024577 0.06654126 -0.44306675 0 -0 -1 255 255 255 255
0.20024574 -0.105666265 -0.44306675 0 -0 -1 255 255 255 255
-0.0937309 -0.2274354 -0.44306675 0 -0 -1 255 255 255 255
0.07847661 0.18831031 -0.44306675 0 -0 -1 255 255 255 255
-0.21550001 -0.10566628 -0.44306675 0 -0 -1 255 255 255 255
-0.0937309 0.18831037 -0.44306675 0 -0 -1 255 255 255 255
-0.21549997 0.06654124 -0.44306675 0 -0 -1 255 255 255 255
0.074171446 -0.21704175 0.0956441 0 -0 -1 255 255 255 255
0.1898521 0.062236074 0.0956441 0 -0 -1 255 255 255 255
0.18985209 -0.10136107 0.0956441 0 -0 -1 255 255 255 255
-0.08942571 -0.21704175 0.0956441 0 -0 -1 255 255 255 255
0.0741715 0.17791685 0.0956441 0 -0 -1 255 255 255 255
-0.20510636 -0.10136109 0.0956441 0 -0 -1 255 255 255 255
-0.08942571 0.17791672 0.0956441 0 -0 -1 255 255 255 255
-0.20510653 0.06223613 0.0956441 0 -0 -1 255 255 255 255
0.058242235 -0.17858525 0.443199 0 -0 -1 255 128 0 255
0.1513956 0.046306856 0.443199 0 -0 -1 255 128 0 255
0.15139562 -0.085431874 0.443199 0 -0 -1 255 128 0 255
-0.073496506 -0.17858525 0.443199 0 -0 -1 255 128 0 255
0.05824223 0.13946022 0.443199 0 -0 -1 255 128 0 255
-0.16664986 -0.08543188 0.443199 0 -0 -1 255 128 0 255
-0.073496506 0.1394602 0.443199 0 -0 -1 255 128 0 255
-0.16664986 0.046306863 0.443199 0 -0 -1 255 128 0 255
0.02681436 -0.10271163 0.68648756 0 -0 -1 255 128 0 255
0.07552201 0.0148790395 0.68648756 0 -0 -1 255 128 0 255
0.07552203 -0.05400401 0.68648756 0 -0 -1 255 128 0 255
-0.042068645 -0.10271167 0.68648756 0 -0 -1 255 128 0 255
0.02681437 0.063586645 0.68648756 0 -0 -1 255 128 0 255
-0.09077632 -0.054003984 0.68648756 0 -0 -1 255 128 0 255
-0.04206866 0.06358669 0.68648756 0 -0 -1 255 128 0 255
-0.09077629 0.014879001 0.68648756 0 -0 -1 255 128 0 255
0.005288427 -0.050743423 0.8081322 0 -0 -1 113 113 113 255
0.023553789 -0.0066469396 0.8081322 0 -0 -1 113 113 113 255
0.023553811 -0.032478075 0.8081322 0 -0 -1 113 113 113 255
-0.020542704 -0.05074345 0.8081322 0 -0 -1 113 113 113 255
0.005288436 0.011618438 0.8081322 0 -0 -1 113 113 113 255
-0.03880806 -0.032478064 0.8081322 0 -0 -1 113 113 113 255
-0.020542698 0.0116184205 0.8081322 0 -0 -1 113 113 113 255
-0.038808078 -0.006646935 0.8081322 0 -0 -1 113 113 113 255
-0.03880806 -0.032478064 0.8081322 0.6807482 0.6807481 -0.27048808 113 113 113 255
-0.042068645 -0.10271167 0.68648756 0.6807482 0.6807481 -0.27048808 113 113 113 255
-0.09077632 -0.054003984 0.68648756 0.6807482 0.6807481 -0.27048808 113 113 113 255
-0.020542704 -0.05074345 0.8081322 0.6807482 0.6807481 -0.27048808 113 113 113 255
-0.09077629 0.014879001 0.68648756 0.9627234 -2.4516146E-07 -0.27048805 113 113 113 255
-0.03880806 -0.032478064 0.8081322 0.9627234 -2.4516146E-07 -0.27048805 113 113 113 255
-0.09077632 -0.054003984 0.68648756 0.9627234 -2.4516146E-07 -0.27048805 113 113 113 255
-0.038808078 -0.006646935 0.8081322 0.9627234 -2.4516146E-07 -0.27048805 113 113 113 255
-0.04206866 0.06358669 0.68648756 0.6807485 -0.68074787 -0.27048817 113 113 113 255
-0.038808078 -0.006646935 0.8081322 0.6807485 -0.68074787 -0.27048817 113 113 113 255
-0.09077629 0.014879001 0.68648756 0.6807485 -0.68074787 -0.27048817 113 113 113 255
-0.020542698 0.0116184205 0.8081322 0.6807485 -0.68074787 -0.27048817 113 113 113 255
0.005288436 0.011618438 0.8081322 -4.3584265E-07 -0.9627234 -0.27048817 113 113 113 255
-0.04206866 0.06358669 0.68648756 -4.3584265E-07 -0.9627234 -0.27048817 113 113 113 255
0.02681437 0.063586645 0.68648756 -4.3584265E-07 -0.9627234 -0.27048817 113 113 113 255
-0.020542698 0.0116184205 0.8081322 -4.3584265E-07 -0.9627234 -0.27048817 113 113 113 255
0.023553789 -0.0066469396 0.8081322 -0.680748 -0.6807484 -0.27048805 113 113 113 255
0.02681437 0.063586645 0.68648756 -0.680748 -0.6807484 -0.27048805 113 113 113 255
0.07552201 0.0148790395 0.68648756 -0.680748 -0.6807484 -0.27048805 113 113 113 255
0.005288436 0.011618438 0.8081322 -0.680748 -0.6807484 -0.27048805 113 113 113 255
0.023553789 -0.0066469396 0.8081322 -0.9627234 -1.0896066E-07 -0.27048808 113 113 113 255
0.07552203 -0.05400401 0.68648756 -0.9627234 -1.0896066E-07 -0.27048808 113 113 113 255
0.023553811 -0.032478075 0.8081322 -0.9627234 -1.0896066E-07 -0.27048808 113 113 113 255
0.07552201 0.0148790395 0.68648756 -0.9627234 -1.0896066E-07 -0.27048808 113 113 113 255
0.005288427 -0.050743423 0.8081322 -0.680748 0.6807485 -0.27048802 113 113 113 255
0.07552203 -0.05400401 0.68648756 -0.680748 0.6807485 -0.27048802 113 113 113 255
0.02681436 -0.10271163 0.68648756 -0.680748 0.6807485 -0.27048802 113 113 113 255
0.023553811 -0.032478075 0.8081322 -0.680748 0.6807485 -0.27048802 113 113 113 255
-0.020542704 -0.05074345 0.8081322 -4.0860243E-07 0.9627234 -0.270488 113 113 113 255
0.02681436 -0.10271163 0.68648756 -4.0860243E-07 0.9627234 -0.270488 113 113 113 255
-0.042068645 -0.10271167 0.68648756 -4.0860243E-07 0.9627234 -0.270488 113 113 113 255
0.005288427 -0.050743423 0.8081322 -4.0860243E-07 0.9627234 -0.270488 113 113 113 255
0.07847664 -0.2274354 -0.5299556 1.948696E-07 1.9486957E-07 -1 255 255 255 255
0.20024577 0.06654126 -0.52995557 1.948696E-07 1.9486957E-07 -1 255 255 255 255
0.20024574 -0.105666265 -0.5299556 1.948696E-07 1.9486957E-07 -1 255 255 255 255
-0.0937309 -0.2274354 -0.5299556 1.948696E-07 1.9486957E-07 -1 255 255 255 255
0.07847661 0.18831031 -0.52995557 1.948696E-07 1.9486957E-07 -1 255 255 255 255
-0.21550001 -0.10566628 -0.5299556 1.948696E-07 1.9486957E-07 -1 255 255 255 255
-0.0937309 0.18831037 -0.5299556 1.948696E-07 1.9486957E-07 -1 255 255 255 255
-0.21549997 0.06654124 -0.5299556 1.948696E-07 1.9486957E-07 -1 255 255 255 255
0.20024577 0.06654126 -0.64282584 0 -0 1 255 255 255 255
0.07847664 -0.2274354 -0.64282584 0 -0 1 255 255 255 255
0.20024574 -0.105666265 -0.64282584 0 -0 1 255 255 255 255
0.07847661 0.18831031 -0.64282584 0 -0 1 255 255 255 255
-0.0937309 -0.2274354 -0.64282584 0 -0 1 255 255 255 255
-0.0937309 0.18831037 -0.64282584 0 -0 1 255 255 255 255
-0.21550001 -0.10566628 -0.64282584 0 -0 1 255 255 255 255
-0.21549997 0.06654124 -0.64282584 0 -0 1 255 255 255 255
0.1690648 0.05362568 -0.80799985 0 -0 1 43 58 26 255
0.06556106 -0.19625443 -0.80799985 0 -0 1 43 58 26 255
0.1690648 -0.0927507 -0.80799985 0 -0 1 43 58 26 255
0.07556109 -0.054020204 -0.80799985 0 -0 1 43 58 26 255
0.07556111 0.014895192 -0.80799985 0 -0 1 43 58 26 255
0.065561056 0.15712942 -0.80799985 0 -0 1 43 58 26 255
0.026830556 0.06362571 -0.80799985 0 -0 1 43 58 26 255
-0.04208483 0.06362574 -0.80799985 0 -0 1 43 58 26 255
-0.08081533 0.15712942 -0.80799985 0 -0 1 43 58 26 255
-0.09081535 0.014895183 -0.80799985 0 -0 1 43 58 26 255
0.026830565 -0.10275075 -0.80799985 0 -0 1 43 58 26 255
-0.08081533 -0.19625443 -0.80799985 0 -0 1 43 58 26 255
-0.042084824 -0.10275073 -0.80799985 0 -0 1 43 58 26 255
-0.09081538 -0.054020204 -0.80799985 0 -0 1 43 58 26 255
-0.18431906 -0.092750706 -0.80799985 0 -0 1 43 58 26 255
-0.18431906 0.053625695 -0.80799985 0 -0 1 43 58 26 255
0.07847661 0.18831031 -0.64282584 -2.4157103E-07 -0.9923813 0.123204604 43 58 26 255
-0.08081533 0.15712942 -0.80799985 -2.4157103E-07 -0.9923813 0.123204604 43 58 26 255
0.065561056 0.15712942 -0.80799985 -2.4157103E-07 -0.9923813 0.123204604 43 58 26 255
-0.0937309 0.18831037 -0.64282584 -2.4157103E-07 -0.9923813 0.123204604 43 58 26 255
-0.08081533 0.15712942 -0.80799985 0.70171976 -0.7017194 0.123204604 43 58 26 255
-0.21549997 0.06654124 -0.64282584 0.70171976 -0.7017194 0.123204604 43 58 26 255
-0.18431906 0.053625695 -0.80799985 0.70171976 -0.7017194 0.123204604 43 58 26 255
-0.0937309 0.18831037 -0.64282584 0.70171976 -0.7017194 0.123204604 43 58 26 255
-0.18431906 -0.092750706 -0.80799985 0.9923813 -2.4157103E-07 0.123204604 43 58 26 255
-0.21549997 0.06654124 -0.64282584 0.9923813 -2.4157103E-07 0.123204604 43 58 26 255
-0.21550001 -0.10566628 -0.64282584 0.9923813 -2.4157103E-07 0.123204604 43 58 26 255
-0.18431906 0.053625695 -0.80799985 0.9923813 -2.4157103E-07 0.123204604 43 58 26 255
-0.21550001 -0.10566628 -0.64282584 0.70171946 0.7017196 0.1232047 43 58 26 255
-0.08081533 -0.19625443 -0.80799985 0.70171946 0.7017196 0.1232047 43 58 26 255
-0.18431906 -0.092750706 -0.80799985 0.70171946 0.7017196 0.1232047 43 58 26 255
-0.0937309 -0.2274354 -0.64282584 0.70171946 0.7017196 0.1232047 43 58 26 255
-0.0937309 -0.2274354 -0.64282584 5.368245E-08 0.9923813 0.1232047 43 58 26 255
0.06556106 -0.19625443 -0.80799985 5.368245E-08 0.9923813 0.1232047 43 58 26 255
-0.08081533 -0.19625443 -0.80799985 5.368245E-08 0.9923813 0.1232047 43 58 26 255
0.07847664 -0.2274354 -0.64282584 5.368245E-08 0.9923813 0.1232047 43 58 26 255
0.20024574 -0.105666265 -0.64282584 -0.7017196 0.70171946 0.1232047 43 58 26 255
0.06556106 -0.19625443 -0.80799985 -0.7017196 0.70171946 0.1232047 43 58 26 255
0.07847664 -0.2274354 -0.64282584 -0.7017196 0.70171946 0.1232047 43 58 26 255
0.1690648 -0.0927507 -0.80799985 -0.7017196 0.70171946 0.1232047 43 58 26 255
0.20024577 0.06654126 -0.64282584 -0.9923813 5.368245E-08 0.1232047 43 58 26 255
0.1690648 -0.0927507 -0.80799985 -0.9923813 5.368245E-08 0.1232047 43 58 26 255
0.20024574 -0.105666265 -0.64282584 -0.9923813 5.368245E-08 0.1232047 43 58 26 255
0.1690648 0.05362568 -0.80799985 -0.9923813 5.368245E-08 0.1232047 43 58 26 255
0.20024577 0.06654126 -0.64282584 -0.7017194 -0.70171976 0.123204604 43 58 26 255
0.065561056 0.15712942 -0.80799985 -0.7017194 -0.70171976 0.123204604 43 58 26 255
0.1690648 0.05362568 -0.80799985 -0.7017194 -0.70171976 0.123204604 43 58 26 255
0.07847661 0.18831031 -0.64282584 -0.7017194 -0.70171976 0.123204604 43 58 26 255
0.07847661 0.18831031 -0.52995557 -3.743013E-07 -1 -1.0607548E-17 43 58 26 255
-0.0937309 0.18831037 -0.64282584 -3.743013E-07 -1 -1.0607548E-17 43 58 26 255
0.07847661 0.18831031 -0.64282584 -3.743013E-07 -1 -1.0607548E-17 43 58 26 255
-0.0937309 0.18831037 -0.5299556 -3.743013E-07 -1 -1.0607548E-17 43 58 26 255
-0.0937309 0.18831037 -0.64282584 0.707107 -0.70710653 1.8720059E-32 43 58 26 255
-0.21549997 0.06654124 -0.5299556 0.707107 -0.70710653 1.8720059E-32 43 58 26 255
-0.21549997 0.06654124 -0.64282584 0.707107 -0.70710653 1.8720059E-32 43 58 26 255
-0.0937309 0.18831037 -0.5299556 0.707107 -0.70710653 1.8720059E-32 43 58 26 255
-0.21549997 0.06654124 -0.64282584 1 -3.743013E-07 9.038846E-32 43 58 26 255
-0.21550001 -0.10566628 -0.5299556 1 -3.743013E-07 9.038846E-32 43 58 26 255
-0.21550001 -0.10566628 -0.64282584 1 -3.743013E-07 9.038846E-32 43 58 26 255
-0.21549997 0.06654124 -0.5299556 1 -3.743013E-07 9.038846E-32 43 58 26 255
-0.21550001 -0.10566628 -0.5299556 0.7071068 0.7071068 1.8720068E-32 43 58 26 255
-0.0937309 -0.2274354 -0.64282584 0.7071068 0.7071068 1.8720068E-32 43 58 26 255
-0.21550001 -0.10566628 -0.64282584 0.7071068 0.7071068 1.8720068E-32 43 58 26 255
-0.0937309 -0.2274354 -0.5299556 0.7071068 0.7071068 1.8720068E-32 43 58 26 255
-0.0937309 -0.2274354 -0.5299556 5.3471613E-08 1 -0 43 58 26 255
0.07847664 -0.2274354 -0.64282584 5.3471613E-08 1 -0 43 58 26 255
-0.0937309 -0.2274354 -0.64282584 5.3471613E-08 1 -0 43 58 26 255
0.07847664 -0.2274354 -0.5299556 5.3471613E-08 1 -0 43 58 26 255
0.20024574 -0.105666265 -0.5299556 -0.7071068 0.70710677 -0 43 58 26 255
0.07847664 -0.2274354 -0.64282584 -0.7071068 0.70710677 -0 43 58 26 255
0.07847664 -0.2274354 -0.5299556 -0.7071068 0.70710677 -0 43 58 26 255
0.20024574 -0.105666265 -0.64282584 -0.7071068 0.70710677 -0 43 58 26 255
0.20024577 0.06654126 -0.52995557 -1 -0 4.2125155E-19 43 58 26 255
0.20024574 -0.105666265 -0.64282584 -1 -0 4.2125155E-19 43 58 26 255
0.20024574 -0.105666265 -0.5299556 -1 -0 4.2125155E-19 43 58 26 255
0.20024577 0.06654126 -0.64282584 -1 -0 4.2125155E-19 43 58 26 255
0.20024577 0.06654126 -0.52995557 -0.70710653 -0.707107 1.8720025E-32 43 58 26 255
0.07847661 0.18831031 -0.64282584 -0.70710653 -0.707107 1.8720025E-32 43 58 26 255
0.20024577 0.06654126 -0.64282584 -0.70710653 -0.707107 1.8720025E-32 43 58 26 255
0.07847661 0.18831031 -0.52995557 -0.70710653 -0.707107 1.8720025E-32 43 58 26 255
-0.0937309 0.18831037 -0.5299556 0.707107 -0.70710653 -0 199 125 55 255
-0.21549997 0.06654124 -0.44306675 0.707107 -0.70710653 -0 199 125 55 255
-0.21549997 0.06654124 -0.5299556 0.707107 -0.70710653 -0 199 125 55 255
-0.0937309 0.18831037 -0.44306675 0.707107 -0.70710653 -0 199 125 55 255
0.07847661 0.18831031 -0.52995557 -3.743013E-07 -1 3.5663925E-18 199 125 55 255
-0.0937309 0.18831037 -0.44306675 -3.743013E-07 -1 3.5663925E-18 199 125 55 255
-0.0937309 0.18831037 -0.5299556 -3.743013E-07 -1 3.5663925E-18 199 125 55 255
0.07847661 0.18831031 -0.44306675 -3.743013E-07 -1 3.5663925E-18 199 125 55 255
-0.21549997 0.06654124 -0.5299556 1 -3.743013E-07 -0 199 125 55 255
-0.21550001 -0.10566628 -0.44306675 1 -3.743013E-07 -0 199 125 55 255
-0.21550001 -0.10566628 -0.5299556 1 -3.743013E-07 -0 199 125 55 255
-0.21549997 0.06654124 -0.44306675 1 -3.743013E-07 -0 199 125 55 255
0.20024577 0.06654126 -0.44306675 -0.70710653 -0.707107 -0 199 125 55 255
0.07847661 0.18831031 -0.52995557 -0.70710653 -0.707107 -0 199 125 55 255
0.20024577 0.06654126 -0.52995557 -0.70710653 -0.707107 -0 199 125 55 255
0.07847661 0.18831031 -0.44306675 -0.70710653 -0.707107 -0 199 125 55 255
-0.21550001 -0.10566628 -0.44306675 0.7071068 0.7071068 -0 199 125 55 255
-0.0937309 -0.2274354 -0.5299556 0.7071068 0.7071068 -0 199 125 55 255
-0.21550001 -0.10566628 -0.5299556 0.7071068 0.7071068 -0 199 125 55 255
-0.0937309 -0.2274354 -0.44306675 0.7071068 0.7071068 -0 199 125 55 255
0.20024577 0.06654126 -0.44306675 -1 -0 7.1084035E-19 199 125 55 255
0.20024574 -0.105666265 -0.5299556 -1 -0 7.1084035E-19 199 125 55 255
0.20024574 -0.105666265 -0.44306675 -1 -0 7.1084035E-19 199 125 55 255
0.20024577 0.06654126 -0.52995557 -1 -0 7.1084035E-19 199 125 55 255
-0.0937309 -0.2274354 -0.44306675 5.3471613E-08 1 -0 199 125 55 255
0.07847664 -0.2274354 -0.5299556 5.3471613E-08 1 -0 199 125 55 255
-0.0937309 -0.2274354 -0.5299556 5.3471613E-08 1 -0 199 125 55 255
0.07847664 -0.2274354 -0.44306675 5.3471613E-08 1 -0 199 125 55 255
0.20024574 -0.105666265 -0.44306675 -0.7071068 0.70710677 -0 199 125 55 255
0.07847664 -0.2274354 -0.5299556 -0.7071068 0.70710677 -0 199 125 55 255
0.07847664 -0.2274354 -0.44306675 -0.7071068 0.70710677 -0 199 125 55 255
0.20024574 -0.105666265 -0.5299556 -0.7071068 0.70710677 -0 199 125 55 255
-0.21549997 0.06654124 -0.44306675 0.9999195 2.1389539E-07 -0.012687451 43 58 26 255
-0.20510636 -0.10136109 0.0956441 0.9999195 2.1389539E-07 -0.012687451 43 58 26 255
-0.21550001 -0.10566628 -0.44306675 0.9999195 2.1389539E-07 -0.012687451 43 58 26 255
-0.20510653 0.06223613 0.0956441 0.9999195 2.1389539E-07 -0.012687451 43 58 26 255
-0.0937309 0.18831037 -0.44306675 0.7070497 -0.70705 -0.012687452 43 58 26 255
-0.20510653 0.06223613 0.0956441 0.7070497 -0.70705 -0.012687452 43 58 26 255
-0.21549997 0.06654124 -0.44306675 0.7070497 -0.70705 -0.012687452 43 58 26 255
-0.08942571 0.17791672 0.0956441 0.7070497 -0.70705 -0.012687452 43 58 26 255
-0.20510653 0.06223613 0.0956441 0.9973628 5.0867624E-07 -0.072577424 43 58 26 255
-0.16664986 -0.08543188 0.443199 0.9973628 5.0867624E-07 -0.072577424 43 58 26 255
-0.20510636 -0.10136109 0.0956441 0.9973628 5.0867624E-07 -0.072577424 43 58 26 255
-0.16664986 0.046306863 0.443199 0.9973628 5.0867624E-07 -0.072577424 43 58 26 255
-0.20510636 -0.10136109 0.0956441 0.7070499 0.7070499 -0.012687573 43 58 26 255
-0.0937309 -0.2274354 -0.44306675 0.7070499 0.7070499 -0.012687573 43 58 26 255
-0.21550001 -0.10566628 -0.44306675 0.7070499 0.7070499 -0.012687573 43 58 26 255
-0.08942571 -0.21704175 0.0956441 0.7070499 0.7070499 -0.012687573 43 58 26 255
0.0741715 0.17791685 0.0956441 2.1389539E-07 -0.9999195 -0.012687451 43 58 26 255
-0.0937309 0.18831037 -0.44306675 2.1389539E-07 -0.9999195 -0.012687451 43 58 26 255
0.07847661 0.18831031 -0.44306675 2.1389539E-07 -0.9999195 -0.012687451 43 58 26 255
-0.08942571 0.17791672 0.0956441 2.1389539E-07 -0.9999195 -0.012687451 43 58 26 255
-0.08942571 0.17791672 0.0956441 0.7052416 -0.70524234 -0.072577424 43 58 26 255
-0.16664986 0.046306863 0.443199 0.7052416 -0.70524234 -0.072577424 43 58 26 255
-0.20510653 0.06223613 0.0956441 0.7052416 -0.70524234 -0.072577424 43 58 26 255
-0.073496506 0.1394602 0.443199 0.7052416 -0.70524234 -0.072577424 43 58 26 255
-0.16664986 -0.08543188 0.443199 0.705242 0.70524204 -0.07257728 43 58 26 255
-0.08942571 -0.21704175 0.0956441 0.705242 0.70524204 -0.07257728 43 58 26 255
-0.20510636 -0.10136109 0.0956441 0.705242 0.70524204 -0.07257728 43 58 26 255
-0.073496506 -0.17858525 0.443199 0.705242 0.70524204 -0.07257728 43 58 26 255
-0.08942571 -0.21704175 0.0956441 8.0210775E-08 0.9999195 -0.012687572 43 58 26 255
0.07847664 -0.2274354 -0.44306675 8.0210775E-08 0.9999195 -0.012687572 43 58 26 255
-0.0937309 -0.2274354 -0.44306675 8.0210775E-08 0.9999195 -0.012687572 43 58 26 255
0.074171446 -0.21704175 0.0956441 8.0210775E-08 0.9999195 -0.012687572 43 58 26 255
0.1898521 0.062236074 0.0956441 -0.70705 -0.7070497 -0.012687452 43 58 26 255
0.07847661 0.18831031 -0.44306675 -0.70705 -0.7070497 -0.012687452 43 58 26 255
0.20024577 0.06654126 -0.44306675 -0.70705 -0.7070497 -0.012687452 43 58 26 255
0.0741715 0.17791685 0.0956441 -0.70705 -0.7070497 -0.012687452 43 58 26 255
0.05824223 0.13946022 0.443199 5.0867624E-07 -0.9973628 -0.072577424 43 58 26 255
-0.08942571 0.17791672 0.0956441 5.0867624E-07 -0.9973628 -0.072577424 43 58 26 255
0.0741715 0.17791685 0.0956441 5.0867624E-07 -0.9973628 -0.072577424 43 58 26 255
-0.073496506 0.1394602 0.443199 5.0867624E-07 -0.9973628 -0.072577424 43 58 26 255
-0.073496506 -0.17858525 0.443199 2.6772437E-08 0.9973628 -0.07257728 43 58 26 255
0.074171446 -0.21704175 0.0956441 2.6772437E-08 0.9973628 -0.07257728 43 58 26 255
-0.08942571 -0.21704175 0.0956441 2.6772437E-08 0.9973628 -0.07257728 43 58 26 255
0.058242235 -0.17858525 0.443199 2.6772437E-08 0.9973628 -0.07257728 43 58 26 255
0.074171446 -0.21704175 0.0956441 -0.70704997 0.7070498 -0.012687573 43 58 26 255
0.20024574 -0.105666265 -0.44306675 -0.70704997 0.7070498 -0.012687573 43 58 26 255
0.07847664 -0.2274354 -0.44306675 -0.70704997 0.7070498 -0.012687573 43 58 26 255
0.18985209 -0.10136107 0.0956441 -0.70704997 0.7070498 -0.012687573 43 58 26 255
0.1898521 0.062236074 0.0956441 -0.9999195 -2.6736924E-08 -0.012687572 43 58 26 255
0.20024574 -0.105666265 -0.44306675 -0.9999195 -2.6736924E-08 -0.012687572 43 58 26 255
0.18985209 -0.10136107 0.0956441 -0.9999195 -2.6736924E-08 -0.012687572 43 58 26 255
0.20024577 0.06654126 -0.44306675 -0.9999195 -2.6736924E-08 -0.012687572 43 58 26 255
0.1513956 0.046306856 0.443199 -0.70524234 -0.7052416 -0.072577424 43 58 26 255
0.0741715 0.17791685 0.0956441 -0.70524234 -0.7052416 -0.072577424 43 58 26 255
0.1898521 0.062236074 0.0956441 -0.70524234 -0.7052416 -0.072577424 43 58 26 255
0.05824223 0.13946022 0.443199 -0.70524234 -0.7052416 -0.072577424 43 58 26 255
0.058242235 -0.17858525 0.443199 -0.70524204 0.705242 -0.07257728 43 58 26 255
0.18985209 -0.10136107 0.0956441 -0.70524204 0.705242 -0.07257728 43 58 26 255
0.074171446 -0.21704175 0.0956441 -0.70524204 0.705242 -0.07257728 43 58 26 255
0.15139562 -0.085431874 0.443199 -0.70524204 0.705242 -0.07257728 43 58 26 255
0.1513956 0.046306856 0.443199 -0.9973628 2.6772437E-08 -0.07257728 43 58 26 255
0.18985209 -0.10136107 0.0956441 -0.9973628 2.6772437E-08 -0.07257728 43 58 26 255
0.15139562 -0.085431874 0.443199 -0.9973628 2.6772437E-08 -0.07257728 43 58 26 255
0.1898521 0.062236074 0.0956441 -0.9973628 2.6772437E-08 -0.07257728 43 58 26 255
3 0 1 2
3 1 0 3
3 4 5 6
3 5 4 7
3 8 9 10
3 9 8 11
3 12 13 14
3 13 12 15
3 16 17 18
3 17 16 19
3 20 21 22
3 21 20 23
3 24 25 26
3 25 24 27
3 28 29 30
3 29 28 31
3 32 33 34
3 33 32 35
3 33 35 36
3 36 35 37
3 36 37 38
3 38 37 39
3 40 41 42
3 41 40 43
3 43 40 44
3 43 44 45
3 45 44 46
3 45 46 47
3 47 46 48
3 48 46 49
3 41 50 42
3 50 41 51
3 50 51 52
3 52 51 53
3 52 53 54
3 54 53 55
3 54 55 48
3 54 48 49
3 56 57 58
3 57 56 59
3 57 59 60
3 60 59 61
3 60 61 62
3 62 61 63
3 64 65 66
3 65 64 67
3 65 67 68
3 68 67 69
3 68 69 70
3 70 69 71
3 72 73 74
3 73 72 75
3 73 75 76
3 76 75 77
3 76 77 78
3 78 77 79
3 80 81 82
3 81 80 83
3 81 83 84
3 84 83 85
3 84 85 86
3 86 85 87
3 88 89 90
3 89 88 91
3 89 91 92
3 92 91 93
3 92 93 94
3 94 93 95
3 96 97 98
3 97 96 99
3 100 101 102
3 101 100 103
3 104 105 106
3 105 104 107
3 108 109 110
3 109 108 111
3 112 113 114
3 113 112 115
3 116 117 118
3 117 116 119
3 120 121 122
3 121 120 123
3 124 125 126
3 125 124 127
3 128 129 130
3 129 128 131
3 129 131 132
3 132 131 133
3 132 133 134
3 134 133 135
3 136 137 138
3 137 136 139
3 137 139 140
3 140 139 141
3 140 141 142
3 142 141 143
3 144 145 146
3 145 144 147
3 147 144 148
3 148 144 149
3 148 149 150
3 150 149 151
3 151 149 152
3 151 152 153
3 145 154 155
3 154 145 147
3 155 154 156
3 155 156 157
3 155 157 158
3 158 157 153
3 158 153 152
3 158 152 159
3 160 161 162
3 161 160 163
3 164 165 166
3 165 164 167
3 168 169 170
3 169 168 171
3 172 173 174
3 173 172 175
3 176 177 178
3 177 176 179
3 180 181 182
3 181 180 183
3 184 185 186
3 185 184 187
3 188 189 190
3 189 188 191
3 192 193 194
3 193 192 195
3 196 197 198
3 197 196 199
3 200 201 202
3 201 200 203
3 204 205 206
3 205 204 207
3 208 209 210
3 209 208 211
3 212 213 214
3 213 212 215
3 216 217 218
3 217 216 219
3 220 221 222
3 221 220 223
3 224 225 226
3 225 224 227
3 228 229 230
3 229 228 231
3 232 233 234
3 233 232 235
3 236 237 238
3 237 236 239
3 240 241 242
3 241 240 243
3 244 245 246
3 245 244 247
3 248 249 250
3 249 248 251
3 252 253 254
3 253 252 255
3 256 257 258
3 257 256 259
3 260 261 262
3 261 260 263
3 264 265 266
3 265 264 267
3 268 269 270
3 269 268 271
3 272 273 274
3 273 272 275
3 276 277 278
3 277 276 279
3 280 281 282
3 281 280 283
3 284 285 286
3 285 284 287
3 288 289 290
3 289 288 291
3 292 293 294
3 293 292 295
3 296 297 298
3 297 296 299
3 300 301 302
3 301 300 303
3 304 305 306
3 305 304 307
3 308 309 310
3 309 308 311
3 312 313 314
3 313 312 315
3 316 317 318
3 317 316 319

