ply
format ascii 1.0
commentY29udmVydGVyIGJ5IENvZGVMZW9wYXJk
comment Original mesh name: 'C:\Program Files (x86)\Steam\steamapps\common\Stormworks\rom\meshes\component_instrument_display_seven_segment_seg_1.mesh'
comment SubMesh index: 0
comment SubMesh name: 'ID3'
comment Shader: Emissive (2)
element vertex 6
property float x
property float y
property float z
property float nx
property float ny
property float nz
property uchar red
property uchar green
property uchar blue
property uchar alpha
element face 4
property list uchar ushort vertex_index
end_header
-0.042499997 -0.020499997 0.12599999 0 -0 -1 255 255 0 255
-0.037499998 0.0155000035 0.12599999 0 -0 -1 255 255 0 255
-0.037499998 -0.015499997 0.12599999 0 -0 -1 255 255 0 255
-0.042499997 0.020499991 0.12599999 0 -0 -1 255 255 0 255
-0.0475 -0.015499997 0.12599999 0 -0 -1 255 255 0 255
-0.0475 0.0155000035 0.12599999 0 -0 -1 255 255 0 255
3 0 1 2
3 1 0 3
3 3 0 4
3 3 4 5

