ply
format ascii 1.0
commentY29udmVydGVyIGJ5IENvZGVMZW9wYXJk
comment Original mesh name: 'C:\Program Files (x86)\Steam\steamapps\common\Stormworks\rom\meshes\component_button_key_dynamic1.mesh'
comment SubMesh index: 1
comment SubMesh name: 'ID7'
comment Shader: Opaque (0)
element vertex 308
property float x
property float y
property float z
property float nx
property float ny
property float nz
property uchar red
property uchar green
property uchar blue
property uchar alpha
element face 204
property list uchar ushort vertex_index
end_header
0.074999996 -0.074999996 0.11 0 -0 -1 255 255 255 255
0.037499998 -0.064951904 0.11 0 -0 -1 255 255 255 255
0.074999996 0 0.11 0 -0 -1 255 255 255 255
-0.074999996 -0.074999996 0.11 0 -0 -1 255 255 255 255
0.04754808 -0.04754808 0.11 0 -0 -1 255 255 255 255
-0.0375 -0.064951904 0.11 0 -0 -1 255 255 255 255
-0.047548085 -0.04754808 0.11 0 -0 -1 255 255 255 255
-0.074999996 0 0.11 0 -0 -1 255 255 255 255
0.04754808 0.047548085 0.11 0 -0 -1 255 255 255 255
0.074999996 0.074999996 0.11 0 -0 -1 255 255 255 255
0.074999996 0 0.11 0 -0 -1 255 255 255 255
0.037499998 0.06495192 0.11 0 -0 -1 255 255 255 255
-0.074999996 0.074999996 0.11 0 -0 -1 255 255 255 255
-0.0375 0.06495192 0.11 0 -0 -1 255 255 255 255
-0.047548085 0.047548085 0.11 0 -0 -1 255 255 255 255
-0.074999996 0 0.11 0 -0 -1 255 255 255 255
-0.00095298165 0.005 0.23809394 5.392604E-33 -2.775558E-17 1 160 160 160 255
0.019047013 -0.005 0.22654691 0.8660254 -2.0617405E-16 0.5 160 160 160 255
0.019047013 0.005 0.22654691 0.8660254 -2.0617405E-16 0.5 160 160 160 255
-0.00095298165 -0.005 0.23809394 5.392604E-33 -2.775558E-17 1 160 160 160 255
-0.00095298165 -0.005 0.23809394 -5.392604E-33 2.775558E-17 -1 160 160 160 255
-0.00095298165 0.005 0.23809394 -5.392604E-33 2.775558E-17 -1 160 160 160 255
0.019047013 -0.005 0.22654691 -0.8660254 2.0617405E-16 -0.5 160 160 160 255
0.019047013 0.005 0.22654691 -0.8660254 2.0617405E-16 -0.5 160 160 160 255
-0.020952992 0.005 0.22654691 -0.8660254 1.7841846E-16 0.5 160 160 160 255
-0.020952992 -0.005 0.22654691 -0.8660254 1.7841846E-16 0.5 160 160 160 255
-0.020952992 -0.005 0.22654691 0.8660254 -1.7841846E-16 -0.5 160 160 160 255
-0.020952992 0.005 0.22654691 0.8660254 -1.7841846E-16 -0.5 160 160 160 255
0.019047013 0.005 0.20345291 0.8660254 -1.7841846E-16 -0.5 160 160 160 255
0.019047013 -0.005 0.20345291 0.8660254 -1.7841846E-16 -0.5 160 160 160 255
0.019047013 -0.005 0.20345291 -0.8660254 1.7841846E-16 0.5 160 160 160 255
0.019047013 0.005 0.20345291 -0.8660254 1.7841846E-16 0.5 160 160 160 255
-0.020952992 -0.005 0.20345291 -0.8660254 2.0617405E-16 -0.5 160 160 160 255
-0.020952992 0.005 0.20345291 -0.8660254 2.0617405E-16 -0.5 160 160 160 255
-0.020952992 -0.005 0.20345291 0.8660254 -2.0617405E-16 0.5 160 160 160 255
-0.020952992 0.005 0.20345291 0.8660254 -2.0617405E-16 0.5 160 160 160 255
-0.00095298165 -0.005 0.19190593 -5.392604E-33 2.775558E-17 -1 160 160 160 255
-0.00095298165 0.005 0.19190593 -5.392604E-33 2.775558E-17 -1 160 160 160 255
-0.00095298165 0.005 0.19190593 5.392604E-33 -2.775558E-17 1 160 160 160 255
-0.00095298165 -0.005 0.19190593 5.392604E-33 -2.775558E-17 1 160 160 160 255
-0.040952973 0.005 0.23809394 -2.220446E-16 -1 -2.775558E-17 160 160 160 255
-0.020952992 0.005 0.22654691 -2.220446E-16 -1 -2.775558E-17 160 160 160 255
-0.00095298165 0.005 0.23809394 -2.220446E-16 -1 -2.775558E-17 160 160 160 255
-0.040952973 0.005 0.19190593 -2.220446E-16 -1 -2.775558E-17 160 160 160 255
-0.020952992 0.005 0.20345291 -2.220446E-16 -1 -2.775558E-17 160 160 160 255
-0.00095298165 0.005 0.19190593 -2.220446E-16 -1 -2.775558E-17 160 160 160 255
-0.020952992 0.005 0.14499992 -2.220446E-16 -1 -2.775558E-17 160 160 160 255
-0.010952985 0.005 0.16499993 -2.220446E-16 -1 -2.775558E-17 160 160 160 255
-0.020952992 0.005 0.16499993 -2.220446E-16 -1 -2.775558E-17 160 160 160 255
-0.020952992 0.005 0.114999935 -2.220446E-16 -1 -2.775558E-17 160 160 160 255
-0.010952985 0.005 0.13499995 -2.220446E-16 -1 -2.775558E-17 160 160 160 255
-0.020952992 0.005 0.13499995 -2.220446E-16 -1 -2.775558E-17 160 160 160 255
0.03904701 0.005 0.23809394 -2.220446E-16 -1 -2.775558E-17 160 160 160 255
-0.00095298165 0.005 0.26118794 -2.220446E-16 -1 -2.775558E-17 160 160 160 255
0.019047013 0.005 0.22654691 -2.220446E-16 -1 -2.775558E-17 160 160 160 255
0.03904701 0.005 0.19190593 -2.220446E-16 -1 -2.775558E-17 160 160 160 255
0.019047013 0.005 0.20345291 -2.220446E-16 -1 -2.775558E-17 160 160 160 255
-0.010952985 0.005 0.1745854 -2.220446E-16 -1 -2.775558E-17 160 160 160 255
0.009047022 0.005 0.1745854 -2.220446E-16 -1 -2.775558E-17 160 160 160 255
0.009047022 0.005 0.09499995 -2.220446E-16 -1 -2.775558E-17 160 160 160 255
-0.010952985 0.005 0.14499992 -2.220446E-16 -1 -2.775558E-17 160 160 160 255
-0.010952985 0.005 0.114999935 -2.220446E-16 -1 -2.775558E-17 160 160 160 255
-0.010952985 0.005 0.09499995 -2.220446E-16 -1 -2.775558E-17 160 160 160 255
-0.010952985 0.005 0.09499995 2.220446E-16 1 2.775558E-17 160 160 160 255
-0.010952985 0.005 0.114999935 2.220446E-16 1 2.775558E-17 160 160 160 255
0.009047022 0.005 0.09499995 2.220446E-16 1 2.775558E-17 160 160 160 255
-0.020952992 0.005 0.114999935 2.220446E-16 1 2.775558E-17 160 160 160 255
-0.010952985 0.005 0.13499995 2.220446E-16 1 2.775558E-17 160 160 160 255
-0.010952985 0.005 0.14499992 2.220446E-16 1 2.775558E-17 160 160 160 255
-0.020952992 0.005 0.14499992 2.220446E-16 1 2.775558E-17 160 160 160 255
-0.010952985 0.005 0.16499993 2.220446E-16 1 2.775558E-17 160 160 160 255
0.009047022 0.005 0.1745854 2.220446E-16 1 2.775558E-17 160 160 160 255
-0.010952985 0.005 0.1745854 2.220446E-16 1 2.775558E-17 160 160 160 255
0.03904701 0.005 0.19190593 2.220446E-16 1 2.775558E-17 160 160 160 255
-0.040952973 0.005 0.19190593 2.220446E-16 1 2.775558E-17 160 160 160 255
-0.00095298165 0.005 0.19190593 2.220446E-16 1 2.775558E-17 160 160 160 255
0.019047013 0.005 0.20345291 2.220446E-16 1 2.775558E-17 160 160 160 255
0.019047013 0.005 0.22654691 2.220446E-16 1 2.775558E-17 160 160 160 255
0.03904701 0.005 0.23809394 2.220446E-16 1 2.775558E-17 160 160 160 255
-0.00095298165 0.005 0.23809394 2.220446E-16 1 2.775558E-17 160 160 160 255
-0.040952973 0.005 0.23809394 2.220446E-16 1 2.775558E-17 160 160 160 255
-0.00095298165 0.005 0.26118794 2.220446E-16 1 2.775558E-17 160 160 160 255
-0.020952992 0.005 0.13499995 2.220446E-16 1 2.775558E-17 160 160 160 255
-0.020952992 0.005 0.16499993 2.220446E-16 1 2.775558E-17 160 160 160 255
-0.020952992 0.005 0.20345291 2.220446E-16 1 2.775558E-17 160 160 160 255
-0.020952992 0.005 0.22654691 2.220446E-16 1 2.775558E-17 160 160 160 255
-0.040952973 0.005 0.19190593 0.5 -1.3505934E-16 0.8660254 160 160 160 255
-0.010952985 -0.005 0.1745854 0.5 -1.3505934E-16 0.8660254 160 160 160 255
-0.010952985 0.005 0.1745854 0.5 -1.3505934E-16 0.8660254 160 160 160 255
-0.040952973 -0.005 0.19190593 0.5 -1.3505934E-16 0.8660254 160 160 160 255
-0.040952973 -0.005 0.19190593 -0.5 1.3505934E-16 -0.8660254 160 160 160 255
-0.040952973 0.005 0.19190593 -0.5 1.3505934E-16 -0.8660254 160 160 160 255
-0.010952985 -0.005 0.1745854 -0.5 1.3505934E-16 -0.8660254 160 160 160 255
-0.010952985 0.005 0.1745854 -0.5 1.3505934E-16 -0.8660254 160 160 160 255
-0.010952985 -0.005 0.1745854 1 -2.220446E-16 -1.15555804E-32 160 160 160 255
-0.010952985 0.005 0.16499993 1 -2.220446E-16 -1.15555804E-32 160 160 160 255
-0.010952985 0.005 0.1745854 1 -2.220446E-16 -1.15555804E-32 160 160 160 255
-0.010952985 -0.005 0.16499993 1 -2.220446E-16 -1.15555804E-32 160 160 160 255
-0.010952985 -0.005 0.16499993 -1 2.220446E-16 1.15555804E-32 160 160 160 255
-0.010952985 -0.005 0.1745854 -1 2.220446E-16 1.15555804E-32 160 160 160 255
-0.010952985 0.005 0.16499993 -1 2.220446E-16 1.15555804E-32 160 160 160 255
-0.010952985 0.005 0.1745854 -1 2.220446E-16 1.15555804E-32 160 160 160 255
-0.020952992 -0.005 0.16499993 -5.392604E-33 2.775558E-17 -1 160 160 160 255
-0.010952985 0.005 0.16499993 -5.392604E-33 2.775558E-17 -1 160 160 160 255
-0.010952985 -0.005 0.16499993 -5.392604E-33 2.775558E-17 -1 160 160 160 255
-0.020952992 0.005 0.16499993 -5.392604E-33 2.775558E-17 -1 160 160 160 255
-0.020952992 0.005 0.16499993 5.392604E-33 -2.775558E-17 1 160 160 160 255
-0.020952992 -0.005 0.16499993 5.392604E-33 -2.775558E-17 1 160 160 160 255
-0.010952985 0.005 0.16499993 5.392604E-33 -2.775558E-17 1 160 160 160 255
-0.010952985 -0.005 0.16499993 5.392604E-33 -2.775558E-17 1 160 160 160 255
-0.020952992 -0.005 0.16499993 1 -2.220446E-16 -1.15555804E-32 160 160 160 255
-0.020952992 0.005 0.14499992 1 -2.220446E-16 -1.15555804E-32 160 160 160 255
-0.020952992 0.005 0.16499993 1 -2.220446E-16 -1.15555804E-32 160 160 160 255
-0.020952992 -0.005 0.14499992 1 -2.220446E-16 -1.15555804E-32 160 160 160 255
-0.020952992 -0.005 0.14499992 -1 2.220446E-16 1.15555804E-32 160 160 160 255
-0.020952992 -0.005 0.16499993 -1 2.220446E-16 1.15555804E-32 160 160 160 255
-0.020952992 0.005 0.14499992 -1 2.220446E-16 1.15555804E-32 160 160 160 255
-0.020952992 0.005 0.16499993 -1 2.220446E-16 1.15555804E-32 160 160 160 255
-0.020952992 0.005 0.14499992 5.392604E-33 -2.775558E-17 1 160 160 160 255
-0.010952985 -0.005 0.14499992 5.392604E-33 -2.775558E-17 1 160 160 160 255
-0.010952985 0.005 0.14499992 5.392604E-33 -2.775558E-17 1 160 160 160 255
-0.020952992 -0.005 0.14499992 5.392604E-33 -2.775558E-17 1 160 160 160 255
-0.020952992 -0.005 0.14499992 -5.392604E-33 2.775558E-17 -1 160 160 160 255
-0.020952992 0.005 0.14499992 -5.392604E-33 2.775558E-17 -1 160 160 160 255
-0.010952985 -0.005 0.14499992 -5.392604E-33 2.775558E-17 -1 160 160 160 255
-0.010952985 0.005 0.14499992 -5.392604E-33 2.775558E-17 -1 160 160 160 255
-0.010952985 -0.005 0.14499992 1 -2.220446E-16 -1.15555804E-32 160 160 160 255
-0.010952985 0.005 0.13499995 1 -2.220446E-16 -1.15555804E-32 160 160 160 255
-0.010952985 0.005 0.14499992 1 -2.220446E-16 -1.15555804E-32 160 160 160 255
-0.010952985 -0.005 0.13499995 1 -2.220446E-16 -1.15555804E-32 160 160 160 255
-0.010952985 -0.005 0.13499995 -1 2.220446E-16 1.15555804E-32 160 160 160 255
-0.010952985 -0.005 0.14499992 -1 2.220446E-16 1.15555804E-32 160 160 160 255
-0.010952985 0.005 0.13499995 -1 2.220446E-16 1.15555804E-32 160 160 160 255
-0.010952985 0.005 0.14499992 -1 2.220446E-16 1.15555804E-32 160 160 160 255
-0.020952992 -0.005 0.13499995 -5.392604E-33 2.775558E-17 -1 160 160 160 255
-0.010952985 0.005 0.13499995 -5.392604E-33 2.775558E-17 -1 160 160 160 255
-0.010952985 -0.005 0.13499995 -5.392604E-33 2.775558E-17 -1 160 160 160 255
-0.020952992 0.005 0.13499995 -5.392604E-33 2.775558E-17 -1 160 160 160 255
-0.020952992 0.005 0.13499995 5.392604E-33 -2.775558E-17 1 160 160 160 255
-0.020952992 -0.005 0.13499995 5.392604E-33 -2.775558E-17 1 160 160 160 255
-0.010952985 0.005 0.13499995 5.392604E-33 -2.775558E-17 1 160 160 160 255
-0.010952985 -0.005 0.13499995 5.392604E-33 -2.775558E-17 1 160 160 160 255
-0.020952992 -0.005 0.13499995 1 -2.220446E-16 -1.15555804E-32 160 160 160 255
-0.020952992 0.005 0.114999935 1 -2.220446E-16 -1.15555804E-32 160 160 160 255
-0.020952992 0.005 0.13499995 1 -2.220446E-16 -1.15555804E-32 160 160 160 255
-0.020952992 -0.005 0.114999935 1 -2.220446E-16 -1.15555804E-32 160 160 160 255
-0.020952992 -0.005 0.114999935 -1 2.220446E-16 1.15555804E-32 160 160 160 255
-0.020952992 -0.005 0.13499995 -1 2.220446E-16 1.15555804E-32 160 160 160 255
-0.020952992 0.005 0.114999935 -1 2.220446E-16 1.15555804E-32 160 160 160 255
-0.020952992 0.005 0.13499995 -1 2.220446E-16 1.15555804E-32 160 160 160 255
-0.020952992 0.005 0.114999935 5.392604E-33 -2.775558E-17 1 160 160 160 255
-0.010952985 -0.005 0.114999935 5.392604E-33 -2.775558E-17 1 160 160 160 255
-0.010952985 0.005 0.114999935 5.392604E-33 -2.775558E-17 1 160 160 160 255
-0.020952992 -0.005 0.114999935 5.392604E-33 -2.775558E-17 1 160 160 160 255
-0.020952992 -0.005 0.114999935 -5.392604E-33 2.775558E-17 -1 160 160 160 255
-0.020952992 0.005 0.114999935 -5.392604E-33 2.775558E-17 -1 160 160 160 255
-0.010952985 -0.005 0.114999935 -5.392604E-33 2.775558E-17 -1 160 160 160 255
-0.010952985 0.005 0.114999935 -5.392604E-33 2.775558E-17 -1 160 160 160 255
-0.010952985 -0.005 0.114999935 1 -2.220446E-16 -1.15555804E-32 160 160 160 255
-0.010952985 0.005 0.09499995 1 -2.220446E-16 -1.15555804E-32 160 160 160 255
-0.010952985 0.005 0.114999935 1 -2.220446E-16 -1.15555804E-32 160 160 160 255
-0.010952985 -0.005 0.09499995 1 -2.220446E-16 -1.15555804E-32 160 160 160 255
-0.010952985 -0.005 0.09499995 -1 2.220446E-16 1.15555804E-32 160 160 160 255
-0.010952985 -0.005 0.114999935 -1 2.220446E-16 1.15555804E-32 160 160 160 255
-0.010952985 0.005 0.09499995 -1 2.220446E-16 1.15555804E-32 160 160 160 255
-0.010952985 0.005 0.114999935 -1 2.220446E-16 1.15555804E-32 160 160 160 255
-0.010952985 0.005 0.09499995 5.392604E-33 -2.775558E-17 1 160 160 160 255
0.009047022 -0.005 0.09499995 5.392604E-33 -2.775558E-17 1 160 160 160 255
0.009047022 0.005 0.09499995 5.392604E-33 -2.775558E-17 1 160 160 160 255
-0.010952985 -0.005 0.09499995 5.392604E-33 -2.775558E-17 1 160 160 160 255
-0.010952985 -0.005 0.09499995 -5.392604E-33 2.775558E-17 -1 160 160 160 255
-0.010952985 0.005 0.09499995 -5.392604E-33 2.775558E-17 -1 160 160 160 255
0.009047022 -0.005 0.09499995 -5.392604E-33 2.775558E-17 -1 160 160 160 255
0.009047022 0.005 0.09499995 -5.392604E-33 2.775558E-17 -1 160 160 160 255
0.009047022 -0.005 0.09499995 -1 2.220446E-16 1.15555804E-32 160 160 160 255
0.009047022 0.005 0.1745854 -1 2.220446E-16 1.15555804E-32 160 160 160 255
0.009047022 0.005 0.09499995 -1 2.220446E-16 1.15555804E-32 160 160 160 255
0.009047022 -0.005 0.1745854 -1 2.220446E-16 1.15555804E-32 160 160 160 255
0.009047022 -0.005 0.1745854 1 -2.220446E-16 -1.15555804E-32 160 160 160 255
0.009047022 -0.005 0.09499995 1 -2.220446E-16 -1.15555804E-32 160 160 160 255
0.009047022 0.005 0.1745854 1 -2.220446E-16 -1.15555804E-32 160 160 160 255
0.009047022 0.005 0.09499995 1 -2.220446E-16 -1.15555804E-32 160 160 160 255
0.009047022 0.005 0.1745854 -0.5 8.698527E-17 0.8660254 160 160 160 255
0.03904701 -0.005 0.19190593 -0.5 8.698527E-17 0.8660254 160 160 160 255
0.03904701 0.005 0.19190593 -0.5 8.698527E-17 0.8660254 160 160 160 255
0.009047022 -0.005 0.1745854 -0.5 8.698527E-17 0.8660254 160 160 160 255
0.009047022 -0.005 0.1745854 0.5 -8.698527E-17 -0.8660254 160 160 160 255
0.009047022 0.005 0.1745854 0.5 -8.698527E-17 -0.8660254 160 160 160 255
0.03904701 -0.005 0.19190593 0.5 -8.698527E-17 -0.8660254 160 160 160 255
0.03904701 0.005 0.19190593 0.5 -8.698527E-17 -0.8660254 160 160 160 255
0.03904701 -0.005 0.19190593 -1 2.220446E-16 1.15555804E-32 160 160 160 255
0.03904701 0.005 0.23809394 -1 2.220446E-16 1.15555804E-32 160 160 160 255
0.03904701 0.005 0.19190593 -1 2.220446E-16 1.15555804E-32 160 160 160 255
0.03904701 -0.005 0.23809394 -1 2.220446E-16 1.15555804E-32 160 160 160 255
0.03904701 -0.005 0.23809394 1 -2.220446E-16 -1.15555804E-32 160 160 160 255
0.03904701 -0.005 0.19190593 1 -2.220446E-16 -1.15555804E-32 160 160 160 255
0.03904701 0.005 0.23809394 1 -2.220446E-16 -1.15555804E-32 160 160 160 255
0.03904701 0.005 0.19190593 1 -2.220446E-16 -1.15555804E-32 160 160 160 255
-0.00095298165 -0.005 0.26118794 -0.5 1.3505934E-16 -0.8660254 160 160 160 255
0.03904701 0.005 0.23809394 -0.5 1.3505934E-16 -0.8660254 160 160 160 255
0.03904701 -0.005 0.23809394 -0.5 1.3505934E-16 -0.8660254 160 160 160 255
-0.00095298165 0.005 0.26118794 -0.5 1.3505934E-16 -0.8660254 160 160 160 255
-0.00095298165 0.005 0.26118794 0.5 -1.3505934E-16 0.8660254 160 160 160 255
-0.00095298165 -0.005 0.26118794 0.5 -1.3505934E-16 0.8660254 160 160 160 255
0.03904701 0.005 0.23809394 0.5 -1.3505934E-16 0.8660254 160 160 160 255
0.03904701 -0.005 0.23809394 0.5 -1.3505934E-16 0.8660254 160 160 160 255
-0.040952973 -0.005 0.23809394 0.5 -8.698527E-17 -0.8660254 160 160 160 255
-0.00095298165 0.005 0.26118794 0.5 -8.698527E-17 -0.8660254 160 160 160 255
-0.00095298165 -0.005 0.26118794 0.5 -8.698527E-17 -0.8660254 160 160 160 255
-0.040952973 0.005 0.23809394 0.5 -8.698527E-17 -0.8660254 160 160 160 255
-0.040952973 0.005 0.23809394 -0.5 8.698527E-17 0.8660254 160 160 160 255
-0.040952973 -0.005 0.23809394 -0.5 8.698527E-17 0.8660254 160 160 160 255
-0.00095298165 0.005 0.26118794 -0.5 8.698527E-17 0.8660254 160 160 160 255
-0.00095298165 -0.005 0.26118794 -0.5 8.698527E-17 0.8660254 160 160 160 255
-0.040952973 -0.005 0.23809394 1 -2.220446E-16 -1.15555804E-32 160 160 160 255
-0.040952973 0.005 0.19190593 1 -2.220446E-16 -1.15555804E-32 160 160 160 255
-0.040952973 0.005 0.23809394 1 -2.220446E-16 -1.15555804E-32 160 160 160 255
-0.040952973 -0.005 0.19190593 1 -2.220446E-16 -1.15555804E-32 160 160 160 255
-0.040952973 -0.005 0.19190593 -1 2.220446E-16 1.15555804E-32 160 160 160 255
-0.040952973 -0.005 0.23809394 -1 2.220446E-16 1.15555804E-32 160 160 160 255
-0.040952973 0.005 0.19190593 -1 2.220446E-16 1.15555804E-32 160 160 160 255
-0.040952973 0.005 0.23809394 -1 2.220446E-16 1.15555804E-32 160 160 160 255
0.03904701 -0.005 0.23809394 2.220446E-16 1 2.775558E-17 160 160 160 255
0.019047013 -0.005 0.22654691 2.220446E-16 1 2.775558E-17 160 160 160 255
-0.00095298165 -0.005 0.23809394 2.220446E-16 1 2.775558E-17 160 160 160 255
0.03904701 -0.005 0.19190593 2.220446E-16 1 2.775558E-17 160 160 160 255
0.019047013 -0.005 0.20345291 2.220446E-16 1 2.775558E-17 160 160 160 255
-0.00095298165 -0.005 0.19190593 2.220446E-16 1 2.775558E-17 160 160 160 255
-0.040952973 -0.005 0.23809394 2.220446E-16 1 2.775558E-17 160 160 160 255
-0.00095298165 -0.005 0.26118794 2.220446E-16 1 2.775558E-17 160 160 160 255
-0.020952992 -0.005 0.22654691 2.220446E-16 1 2.775558E-17 160 160 160 255
-0.040952973 -0.005 0.19190593 2.220446E-16 1 2.775558E-17 160 160 160 255
-0.020952992 -0.005 0.20345291 2.220446E-16 1 2.775558E-17 160 160 160 255
0.009047022 -0.005 0.1745854 2.220446E-16 1 2.775558E-17 160 160 160 255
-0.010952985 -0.005 0.1745854 2.220446E-16 1 2.775558E-17 160 160 160 255
0.009047022 -0.005 0.09499995 2.220446E-16 1 2.775558E-17 160 160 160 255
-0.010952985 -0.005 0.16499993 2.220446E-16 1 2.775558E-17 160 160 160 255
-0.010952985 -0.005 0.14499992 2.220446E-16 1 2.775558E-17 160 160 160 255
-0.020952992 -0.005 0.16499993 2.220446E-16 1 2.775558E-17 160 160 160 255
-0.010952985 -0.005 0.13499995 2.220446E-16 1 2.775558E-17 160 160 160 255
-0.020952992 -0.005 0.13499995 2.220446E-16 1 2.775558E-17 160 160 160 255
-0.010952985 -0.005 0.114999935 2.220446E-16 1 2.775558E-17 160 160 160 255
-0.010952985 -0.005 0.09499995 2.220446E-16 1 2.775558E-17 160 160 160 255
-0.020952992 -0.005 0.114999935 2.220446E-16 1 2.775558E-17 160 160 160 255
-0.020952992 -0.005 0.14499992 2.220446E-16 1 2.775558E-17 160 160 160 255
-0.010952985 -0.005 0.14499992 -2.220446E-16 -1 -2.775558E-17 160 160 160 255
-0.020952992 -0.005 0.16499993 -2.220446E-16 -1 -2.775558E-17 160 160 160 255
-0.020952992 -0.005 0.14499992 -2.220446E-16 -1 -2.775558E-17 160 160 160 255
-0.010952985 -0.005 0.114999935 -2.220446E-16 -1 -2.775558E-17 160 160 160 255
-0.020952992 -0.005 0.13499995 -2.220446E-16 -1 -2.775558E-17 160 160 160 255
-0.020952992 -0.005 0.114999935 -2.220446E-16 -1 -2.775558E-17 160 160 160 255
-0.010952985 -0.005 0.09499995 -2.220446E-16 -1 -2.775558E-17 160 160 160 255
0.009047022 -0.005 0.09499995 -2.220446E-16 -1 -2.775558E-17 160 160 160 255
-0.010952985 -0.005 0.13499995 -2.220446E-16 -1 -2.775558E-17 160 160 160 255
-0.010952985 -0.005 0.16499993 -2.220446E-16 -1 -2.775558E-17 160 160 160 255
-0.010952985 -0.005 0.1745854 -2.220446E-16 -1 -2.775558E-17 160 160 160 255
0.009047022 -0.005 0.1745854 -2.220446E-16 -1 -2.775558E-17 160 160 160 255
-0.040952973 -0.005 0.19190593 -2.220446E-16 -1 -2.775558E-17 160 160 160 255
0.03904701 -0.005 0.19190593 -2.220446E-16 -1 -2.775558E-17 160 160 160 255
-0.00095298165 -0.005 0.19190593 -2.220446E-16 -1 -2.775558E-17 160 160 160 255
-0.020952992 -0.005 0.20345291 -2.220446E-16 -1 -2.775558E-17 160 160 160 255
-0.020952992 -0.005 0.22654691 -2.220446E-16 -1 -2.775558E-17 160 160 160 255
-0.040952973 -0.005 0.23809394 -2.220446E-16 -1 -2.775558E-17 160 160 160 255
-0.00095298165 -0.005 0.23809394 -2.220446E-16 -1 -2.775558E-17 160 160 160 255
0.03904701 -0.005 0.23809394 -2.220446E-16 -1 -2.775558E-17 160 160 160 255
-0.00095298165 -0.005 0.26118794 -2.220446E-16 -1 -2.775558E-17 160 160 160 255
0.019047013 -0.005 0.20345291 -2.220446E-16 -1 -2.775558E-17 160 160 160 255
0.019047013 -0.005 0.22654691 -2.220446E-16 -1 -2.775558E-17 160 160 160 255
0.02595298 0.01 0.135 1 -0 -0 255 255 255 255
0.02595298 -0.01 0.155 1 -0 -0 255 255 255 255
0.02595298 -0.01 0.135 1 -0 -0 255 255 255 255
0.02595298 0.01 0.155 1 -0 -0 255 255 255 255
-0.02595301 0.01 0.155 0 1 -0 255 255 255 255
0.02595298 0.01 0.135 0 1 -0 255 255 255 255
-0.02595301 0.01 0.135 0 1 -0 255 255 255 255
0.02595298 0.01 0.155 0 1 -0 255 255 255 255
-0.02595301 0.01 0.155 0 -0 1 255 255 255 255
0.02595298 -0.01 0.155 0 -0 1 255 255 255 255
0.02595298 0.01 0.155 0 -0 1 255 255 255 255
-0.02595301 -0.01 0.155 0 -0 1 255 255 255 255
0.02595298 -0.01 0.155 0 -1 -0 255 255 255 255
-0.02595301 -0.01 0.135 0 -1 -0 255 255 255 255
0.02595298 -0.01 0.135 0 -1 -0 255 255 255 255
-0.02595301 -0.01 0.155 0 -1 -0 255 255 255 255
-0.02595301 0.01 0.155 -1 -0 -0 255 255 255 255
-0.02595301 -0.01 0.135 -1 -0 -0 255 255 255 255
-0.02595301 -0.01 0.155 -1 -0 -0 255 255 255 255
-0.02595301 0.01 0.135 -1 -0 -0 255 255 255 255
0.02595298 0.01 0.155 -1 -0 -0 119 119 119 255
0.02595298 0.01 0.135 -1 -0 -0 119 119 119 255
0.02595298 -0.01 0.155 -1 -0 -0 119 119 119 255
0.02595298 -0.01 0.135 -1 -0 -0 119 119 119 255
0.02595298 0.01 0.155 0 -1 -0 119 119 119 255
-0.02595301 0.01 0.155 0 -1 -0 119 119 119 255
0.02595298 0.01 0.135 0 -1 -0 119 119 119 255
-0.02595301 0.01 0.135 0 -1 -0 119 119 119 255
-0.02595301 -0.01 0.155 0 -0 -1 119 119 119 255
-0.02595301 0.01 0.155 0 -0 -1 119 119 119 255
0.02595298 -0.01 0.155 0 -0 -1 119 119 119 255
0.02595298 0.01 0.155 0 -0 -1 119 119 119 255
-0.02595301 -0.01 0.155 0 1 -0 119 119 119 255
0.02595298 -0.01 0.155 0 1 -0 119 119 119 255
-0.02595301 -0.01 0.135 0 1 -0 119 119 119 255
0.02595298 -0.01 0.135 0 1 -0 119 119 119 255
-0.02595301 0.01 0.135 1 -0 -0 119 119 119 255
-0.02595301 0.01 0.155 1 -0 -0 119 119 119 255
-0.02595301 -0.01 0.135 1 -0 -0 119 119 119 255
-0.02595301 -0.01 0.155 1 -0 -0 119 119 119 255
3 16 17 18
3 17 16 19
3 20 21 22
3 23 22 21
3 24 19 16
3 19 24 25
3 26 27 20
3 21 20 27
3 17 28 18
3 28 17 29
3 30 22 31
3 23 31 22
3 32 24 33
3 24 32 25
3 26 34 27
3 35 27 34
3 36 28 29
3 28 36 37
3 38 39 31
3 30 31 39
3 32 37 36
3 37 32 33
3 35 34 38
3 39 38 34
3 40 41 42
3 41 40 43
3 41 43 44
3 44 43 45
3 46 47 48
3 49 50 51
3 40 52 53
3 52 40 42
3 52 42 54
3 52 54 55
3 55 54 56
3 55 56 45
3 55 45 43
3 55 43 57
3 55 57 58
3 58 57 47
3 58 47 59
3 59 47 60
3 60 47 46
3 59 60 50
3 59 50 61
3 61 50 49
3 59 61 62
3 63 64 65
3 66 67 64
3 64 67 65
3 67 68 65
3 69 70 68
3 68 70 65
3 65 70 71
3 70 72 71
3 71 72 73
3 72 74 73
3 74 75 73
3 75 76 73
3 76 77 73
3 73 77 78
3 77 79 78
3 79 80 78
3 81 78 80
3 82 67 66
3 83 70 69
3 75 74 84
3 84 74 85
3 74 80 85
3 79 85 80
3 86 87 88
3 87 86 89
3 90 91 92
3 93 92 91
3 94 95 96
3 95 94 97
3 98 99 100
3 101 100 99
3 102 103 104
3 103 102 105
3 106 107 108
3 109 108 107
3 110 111 112
3 111 110 113
3 114 115 116
3 117 116 115
3 118 119 120
3 119 118 121
3 122 123 124
3 125 124 123
3 126 127 128
3 127 126 129
3 130 131 132
3 133 132 131
3 134 135 136
3 135 134 137
3 138 139 140
3 141 140 139
3 142 143 144
3 143 142 145
3 146 147 148
3 149 148 147
3 150 151 152
3 151 150 153
3 154 155 156
3 157 156 155
3 158 159 160
3 159 158 161
3 162 163 164
3 165 164 163
3 166 167 168
3 167 166 169
3 170 171 172
3 173 172 171
3 174 175 176
3 175 174 177
3 178 179 180
3 181 180 179
3 182 183 184
3 183 182 185
3 186 187 188
3 189 188 187
3 190 191 192
3 191 190 193
3 194 195 196
3 197 196 195
3 198 199 200
3 199 198 201
3 202 203 204
3 205 204 203
3 206 207 208
3 207 206 209
3 210 211 212
3 213 212 211
3 214 215 216
3 215 214 217
3 218 219 220
3 221 220 219
3 222 223 224
3 223 222 225
3 223 225 226
3 226 225 227
3 222 228 229
3 228 222 224
3 228 224 230
3 228 230 231
3 231 230 232
3 231 232 227
3 231 227 225
3 231 225 233
3 231 233 234
3 234 233 235
3 234 235 236
3 236 235 237
3 236 237 238
3 237 235 239
3 239 235 240
3 240 235 241
3 241 235 242
3 243 240 241
3 244 238 237
3 245 246 247
3 248 249 250
3 251 252 248
3 248 252 249
3 249 252 253
3 253 252 245
3 246 245 254
3 245 252 254
3 254 252 255
3 252 256 255
3 255 256 257
3 256 258 257
3 258 259 257
3 259 260 257
3 260 261 257
3 257 261 262
3 261 263 262
3 263 264 262
3 265 262 264
3 259 258 266
3 266 258 267
3 258 264 267
3 263 267 264
3 268 269 270
3 269 268 271
3 272 273 274
3 273 272 275
3 276 277 278
3 277 276 279
3 280 281 282
3 281 280 283
3 284 285 286
3 285 284 287
3 288 289 290
3 291 290 289
3 292 293 294
3 295 294 293
3 296 297 298
3 299 298 297
3 300 301 302
3 303 302 301
3 304 305 306
3 307 306 305

