ply
format ascii 1.0
commentY29udmVydGVyIGJ5IENvZGVMZW9wYXJk
comment Original mesh name: 'C:\Program Files (x86)\Steam\steamapps\common\Stormworks\rom\meshes\component_inventory_equipment_flaregun_ammo.mesh'
comment SubMesh index: 0
comment SubMesh name: 'ID49'
comment Shader: Opaque (0)
element vertex 278
property float x
property float y
property float z
property float nx
property float ny
property float nz
property uchar red
property uchar green
property uchar blue
property uchar alpha
element face 188
property list uchar ushort vertex_index
end_header
0.02041969 0.009124191 0.05999999 2.5074037E-13 2.1166588E-13 -1 30 30 30 255
0.009793125 0.012639753 0.05999999 2.5074037E-13 2.1166588E-13 -1 30 30 30 255
0.013348611 0.01619527 0.05999999 2.5074037E-13 2.1166588E-13 -1 30 30 30 255
0.010500208 0.01193264 0.05999999 2.5074037E-13 2.1166588E-13 -1 30 30 30 255
0.01615706 0.006275787 0.05999999 2.5074037E-13 2.1166588E-13 -1 30 30 30 255
0.016864173 0.0055687036 0.05999999 2.5074037E-13 2.1166588E-13 -1 30 30 30 255
0.01615706 0.006275787 0.05999999 2.2420233E-13 1.284091E-13 -1 255 62 0 255
-0.0068855006 -0.00545308 0.05999999 2.2420233E-13 1.284091E-13 -1 255 62 0 255
0.010500208 0.01193264 0.05999999 2.2420233E-13 1.284091E-13 -1 255 62 0 255
-0.001228659 -0.011109922 0.05999999 2.2420233E-13 1.284091E-13 -1 255 62 0 255
0.062049575 0.05582514 0.040598657 -1.8911504E-13 -1 -6.479786E-14 153 106 61 255
0.090049565 0.05582514 0.022598647 -1.8911504E-13 -1 -6.479786E-14 153 106 61 255
0.090049565 0.05582514 0.040598657 -1.8911504E-13 -1 -6.479786E-14 153 106 61 255
0.062049575 0.05582514 0.022598647 -1.8911504E-13 -1 -6.479786E-14 153 106 61 255
0.090049565 -0.06417485 0.040598657 -1 2.310117E-13 9.721743E-13 153 106 61 255
0.090049565 0.05582514 0.022598647 -1 2.310117E-13 9.721743E-13 153 106 61 255
0.090049565 -0.06417485 0.022598647 -1 2.310117E-13 9.721743E-13 153 106 61 255
0.090049565 0.05582514 0.040598657 -1 2.310117E-13 9.721743E-13 153 106 61 255
0.090049565 -0.06417485 0.022598647 2.1196501E-13 1 3.471822E-14 153 106 61 255
0.06636067 -0.06417485 0.040598657 2.1196501E-13 1 3.471822E-14 153 106 61 255
0.090049565 -0.06417485 0.040598657 2.1196501E-13 1 3.471822E-14 153 106 61 255
0.06636067 -0.06417485 0.022598647 2.1196501E-13 1 3.471822E-14 153 106 61 255
-0.07152818 0.0650578 0.037032004 -4.2572903E-13 -0.9734682 -0.2288225 30 30 30 255
-0.051528182 0.058946263 0.063032 -4.2572903E-13 -0.9734682 -0.2288225 30 30 30 255
-0.07152818 0.058946263 0.063032 -4.2572903E-13 -0.9734682 -0.2288225 30 30 30 255
-0.051528182 0.0650578 0.037032004 -4.2572903E-13 -0.9734682 -0.2288225 30 30 30 255
-0.051528182 0.061921433 0.037032004 -1 3.1460606E-13 -1.379042E-13 30 30 30 255
-0.051528182 0.058946263 0.063032 -1 3.1460606E-13 -1.379042E-13 30 30 30 255
-0.051528182 0.0650578 0.037032004 -1 3.1460606E-13 -1.379042E-13 30 30 30 255
-0.051528182 0.05662188 0.060369067 -1 3.1460606E-13 -1.379042E-13 30 30 30 255
-0.07152818 -0.005471724 0.068032004 1.9686114E-13 -0.07738531 -0.9970013 30 30 30 255
-0.051528182 0.058946263 0.063032 1.9686114E-13 -0.07738531 -0.9970013 30 30 30 255
-0.051528182 -0.005471724 0.068032004 1.9686114E-13 -0.07738531 -0.9970013 30 30 30 255
-0.07152818 0.058946263 0.063032 1.9686114E-13 -0.07738531 -0.9970013 30 30 30 255
-0.07152818 0.058946263 0.063032 1 -3.1460606E-13 1.379042E-13 30 30 30 255
-0.07152818 0.061921433 0.037032004 1 -3.1460606E-13 1.379042E-13 30 30 30 255
-0.07152818 0.0650578 0.037032004 1 -3.1460606E-13 1.379042E-13 30 30 30 255
-0.07152818 0.05662188 0.060369067 1 -3.1460606E-13 1.379042E-13 30 30 30 255
-0.07152818 0.06905779 -0.004999986 -4.4690448E-13 -0.9955023 -0.09473755 30 30 30 255
-0.051528182 0.0650578 0.037032004 -4.4690448E-13 -0.9955023 -0.09473755 30 30 30 255
-0.07152818 0.0650578 0.037032004 -4.4690448E-13 -0.9955023 -0.09473755 30 30 30 255
-0.051528182 0.06905779 -0.004999986 -4.4690448E-13 -0.9955023 -0.09473755 30 30 30 255
-0.051528182 0.061921433 0.037032004 4.2832074E-13 0.9751719 0.2214493 30 30 30 255
-0.07152818 0.05662188 0.060369067 4.2832074E-13 0.9751719 0.2214493 30 30 30 255
-0.051528182 0.05662188 0.060369067 4.2832074E-13 0.9751719 0.2214493 30 30 30 255
-0.07152818 0.061921433 0.037032004 4.2832074E-13 0.9751719 0.2214493 30 30 30 255
-0.051528182 -0.005471724 0.068032004 -1 4.9227923E-13 -1.4399803E-13 30 30 30 255
-0.051528182 -0.0054519568 0.0649885 -1 4.9227923E-13 -1.4399803E-13 30 30 30 255
-0.051528182 -0.065442234 0.060369067 -1 4.9227923E-13 -1.4399803E-13 30 30 30 255
-0.051528182 -0.067603156 0.063032 -1 4.9227923E-13 -1.4399803E-13 30 30 30 255
-0.051528182 0.06592143 -0.004999986 -1 1.1592436E-13 -2.6772695E-13 30 30 30 255
-0.051528182 0.06905779 -0.004999986 -1 1.1592436E-13 -2.6772695E-13 30 30 30 255
-0.07152818 -0.067603156 0.063032 2.740829E-13 0.080215216 -0.9967775 30 30 30 255
-0.051528182 -0.005471724 0.068032004 2.740829E-13 0.080215216 -0.9967775 30 30 30 255
-0.051528182 -0.067603156 0.063032 2.740829E-13 0.080215216 -0.9967775 30 30 30 255
-0.07152818 -0.005471724 0.068032004 2.740829E-13 0.080215216 -0.9967775 30 30 30 255
-0.07152818 -0.005471724 0.068032004 1 -4.894789E-13 2.0963765E-13 30 30 30 255
-0.07152818 -0.0054519568 0.0649885 1 -4.894789E-13 2.0963765E-13 30 30 30 255
-0.07152818 0.06592143 -0.004999986 1 -1.1592436E-13 2.6772695E-13 30 30 30 255
-0.07152818 0.06905779 -0.004999986 1 -1.1592436E-13 2.6772695E-13 30 30 30 255
-0.07152818 0.05662188 0.060369067 -1.9849806E-13 0.07421314 0.99724233 30 30 30 255
-0.051528182 -0.0054519568 0.0649885 -1.9849806E-13 0.07421314 0.99724233 30 30 30 255
-0.051528182 0.05662188 0.060369067 -1.9849806E-13 0.07421314 0.99724233 30 30 30 255
-0.07152818 -0.0054519568 0.0649885 -1.9849806E-13 0.07421314 0.99724233 30 30 30 255
-0.051528182 0.06592143 -0.004999986 4.4691413E-13 0.9955023 0.09473755 30 30 30 255
-0.07152818 0.061921433 0.037032004 4.4691413E-13 0.9955023 0.09473755 30 30 30 255
-0.051528182 0.061921433 0.037032004 4.4691413E-13 0.9955023 0.09473755 30 30 30 255
-0.07152818 0.06592143 -0.004999986 4.4691413E-13 0.9955023 0.09473755 30 30 30 255
-0.07152818 -0.0054519568 0.0649885 -2.7248521E-13 -0.07677576 0.9970484 30 30 30 255
-0.051528182 -0.065442234 0.060369067 -2.7248521E-13 -0.07677576 0.9970484 30 30 30 255
-0.051528182 -0.0054519568 0.0649885 -2.7248521E-13 -0.07677576 0.9970484 30 30 30 255
-0.07152818 -0.065442234 0.060369067 -2.7248521E-13 -0.07677576 0.9970484 30 30 30 255
-0.051528182 -0.07151512 0.036464825 -1 -1.7471082E-13 7.348376E-14 30 30 30 255
-0.051528182 -0.074749835 0.036464825 -1 -1.7471082E-13 7.348376E-14 30 30 30 255
-0.07152818 -0.065442234 0.060369067 1 -4.726747E-13 -2.2282074E-13 30 30 30 255
-0.07152818 -0.067603156 0.063032 1 -4.726747E-13 -2.2282074E-13 30 30 30 255
-0.051528182 -0.074749835 0.036464825 5.347891E-13 0.9656709 -0.2597687 30 30 30 255
-0.07152818 -0.067603156 0.063032 5.347891E-13 0.9656709 -0.2597687 30 30 30 255
-0.051528182 -0.067603156 0.063032 5.347891E-13 0.9656709 -0.2597687 30 30 30 255
-0.07152818 -0.074749835 0.036464825 5.347891E-13 0.9656709 -0.2597687 30 30 30 255
-0.07152818 -0.07151512 0.036464825 -5.3334523E-13 -0.9692118 0.24622828 30 30 30 255
-0.051528182 -0.065442234 0.060369067 -5.3334523E-13 -0.9692118 0.24622828 30 30 30 255
-0.07152818 -0.065442234 0.060369067 -5.3334523E-13 -0.9692118 0.24622828 30 30 30 255
-0.051528182 -0.07151512 0.036464825 -5.3334523E-13 -0.9692118 0.24622828 30 30 30 255
-0.051528182 -0.07651511 -0.004999986 -1 7.835316E-15 -2.0410018E-13 30 30 30 255
-0.051528182 -0.07974983 -0.004999986 -1 7.835316E-15 -2.0410018E-13 30 30 30 255
-0.07152818 -0.07151512 0.036464825 1 4.0715004E-13 -1.0753674E-13 30 30 30 255
-0.07152818 -0.074749835 0.036464825 1 4.0715004E-13 -1.0753674E-13 30 30 30 255
-0.051528182 -0.07974983 -0.004999986 5.563638E-13 0.99280804 -0.11971688 30 30 30 255
-0.07152818 -0.074749835 0.036464825 5.563638E-13 0.99280804 -0.11971688 30 30 30 255
-0.051528182 -0.074749835 0.036464825 5.563638E-13 0.99280804 -0.11971688 30 30 30 255
-0.07152818 -0.07974983 -0.004999986 5.563638E-13 0.99280804 -0.11971688 30 30 30 255
-0.07152818 -0.07651511 -0.004999986 -5.525756E-13 -0.99280804 0.11971688 30 30 30 255
-0.051528182 -0.07151512 0.036464825 -5.525756E-13 -0.99280804 0.11971688 30 30 30 255
-0.07152818 -0.07151512 0.036464825 -5.525756E-13 -0.99280804 0.11971688 30 30 30 255
-0.051528182 -0.07651511 -0.004999986 -5.525756E-13 -0.99280804 0.11971688 30 30 30 255
-0.07152818 -0.07651511 -0.004999986 1 2.1534089E-13 1.5977844E-13 30 30 30 255
-0.07152818 -0.07974983 -0.004999986 1 2.1534089E-13 1.5977844E-13 30 30 30 255
0.052471813 0.058946263 0.063032 -4.2572903E-13 -0.9734682 -0.2288225 30 30 30 255
0.07247181 0.0650578 0.037032004 -4.2572903E-13 -0.9734682 -0.2288225 30 30 30 255
0.07247181 0.058946263 0.063032 -4.2572903E-13 -0.9734682 -0.2288225 30 30 30 255
0.052471813 0.0650578 0.037032004 -4.2572903E-13 -0.9734682 -0.2288225 30 30 30 255
0.07247181 0.061921433 0.037032004 -1 3.1460606E-13 -1.379042E-13 30 30 30 255
0.07247181 0.058946263 0.063032 -1 3.1460606E-13 -1.379042E-13 30 30 30 255
0.07247181 0.0650578 0.037032004 -1 3.1460606E-13 -1.379042E-13 30 30 30 255
0.07247181 0.05662188 0.060369067 -1 3.1460606E-13 -1.379042E-13 30 30 30 255
0.052471813 -0.005471724 0.068032004 1.9686114E-13 -0.07738531 -0.9970013 30 30 30 255
0.07247181 0.058946263 0.063032 1.9686114E-13 -0.07738531 -0.9970013 30 30 30 255
0.07247181 -0.005471724 0.068032004 1.9686114E-13 -0.07738531 -0.9970013 30 30 30 255
0.052471813 0.058946263 0.063032 1.9686114E-13 -0.07738531 -0.9970013 30 30 30 255
0.052471813 0.058946263 0.063032 1 -3.1460606E-13 1.379042E-13 30 30 30 255
0.052471813 0.061921433 0.037032004 1 -3.1460606E-13 1.379042E-13 30 30 30 255
0.052471813 0.0650578 0.037032004 1 -3.1460606E-13 1.379042E-13 30 30 30 255
0.052471813 0.05662188 0.060369067 1 -3.1460606E-13 1.379042E-13 30 30 30 255
0.052471813 0.0650578 0.037032004 -4.4690448E-13 -0.9955023 -0.09473755 30 30 30 255
0.07247181 0.06905779 -0.004999986 -4.4690448E-13 -0.9955023 -0.09473755 30 30 30 255
0.07247181 0.0650578 0.037032004 -4.4690448E-13 -0.9955023 -0.09473755 30 30 30 255
0.052471813 0.06905779 -0.004999986 -4.4690448E-13 -0.9955023 -0.09473755 30 30 30 255
0.07247181 0.061921433 0.037032004 4.2832074E-13 0.9751719 0.2214493 30 30 30 255
0.052471813 0.05662188 0.060369067 4.2832074E-13 0.9751719 0.2214493 30 30 30 255
0.07247181 0.05662188 0.060369067 4.2832074E-13 0.9751719 0.2214493 30 30 30 255
0.052471813 0.061921433 0.037032004 4.2832074E-13 0.9751719 0.2214493 30 30 30 255
0.07247181 -0.005471724 0.068032004 -1 4.9227923E-13 -1.4399803E-13 30 30 30 255
0.07247181 -0.0054519568 0.0649885 -1 4.9227923E-13 -1.4399803E-13 30 30 30 255
0.07247181 -0.065442234 0.060369067 -1 4.9227923E-13 -1.4399803E-13 30 30 30 255
0.07247181 -0.067603156 0.063032 -1 4.9227923E-13 -1.4399803E-13 30 30 30 255
0.07247181 0.06592143 -0.004999986 -1 1.1592436E-13 -2.6772695E-13 30 30 30 255
0.07247181 0.06905779 -0.004999986 -1 1.1592436E-13 -2.6772695E-13 30 30 30 255
0.052471813 -0.067603156 0.063032 2.740829E-13 0.080215216 -0.9967775 30 30 30 255
0.07247181 -0.005471724 0.068032004 2.740829E-13 0.080215216 -0.9967775 30 30 30 255
0.07247181 -0.067603156 0.063032 2.740829E-13 0.080215216 -0.9967775 30 30 30 255
0.052471813 -0.005471724 0.068032004 2.740829E-13 0.080215216 -0.9967775 30 30 30 255
0.052471813 -0.005471724 0.068032004 1 -4.894789E-13 2.0963765E-13 30 30 30 255
0.052471813 -0.0054519568 0.0649885 1 -4.894789E-13 2.0963765E-13 30 30 30 255
0.052471813 0.06592143 -0.004999986 1 -1.1592436E-13 2.6772695E-13 30 30 30 255
0.052471813 0.06905779 -0.004999986 1 -1.1592436E-13 2.6772695E-13 30 30 30 255
0.07247181 0.05662188 0.060369067 -1.9849806E-13 0.07421314 0.99724233 30 30 30 255
0.052471813 -0.0054519568 0.0649885 -1.9849806E-13 0.07421314 0.99724233 30 30 30 255
0.07247181 -0.0054519568 0.0649885 -1.9849806E-13 0.07421314 0.99724233 30 30 30 255
0.052471813 0.05662188 0.060369067 -1.9849806E-13 0.07421314 0.99724233 30 30 30 255
0.07247181 0.06592143 -0.004999986 4.4691413E-13 0.9955023 0.09473755 30 30 30 255
0.052471813 0.061921433 0.037032004 4.4691413E-13 0.9955023 0.09473755 30 30 30 255
0.07247181 0.061921433 0.037032004 4.4691413E-13 0.9955023 0.09473755 30 30 30 255
0.052471813 0.06592143 -0.004999986 4.4691413E-13 0.9955023 0.09473755 30 30 30 255
0.052471813 -0.0054519568 0.0649885 -2.7248521E-13 -0.07677576 0.9970484 30 30 30 255
0.07247181 -0.065442234 0.060369067 -2.7248521E-13 -0.07677576 0.9970484 30 30 30 255
0.07247181 -0.0054519568 0.0649885 -2.7248521E-13 -0.07677576 0.9970484 30 30 30 255
0.052471813 -0.065442234 0.060369067 -2.7248521E-13 -0.07677576 0.9970484 30 30 30 255
0.07247181 -0.07151512 0.036464825 -1 -1.7471082E-13 7.348376E-14 30 30 30 255
0.07247181 -0.074749835 0.036464825 -1 -1.7471082E-13 7.348376E-14 30 30 30 255
0.052471813 -0.065442234 0.060369067 1 -4.726747E-13 -2.2282074E-13 30 30 30 255
0.052471813 -0.067603156 0.063032 1 -4.726747E-13 -2.2282074E-13 30 30 30 255
0.07247181 -0.074749835 0.036464825 5.347891E-13 0.9656709 -0.2597687 30 30 30 255
0.052471813 -0.067603156 0.063032 5.347891E-13 0.9656709 -0.2597687 30 30 30 255
0.07247181 -0.067603156 0.063032 5.347891E-13 0.9656709 -0.2597687 30 30 30 255
0.052471813 -0.074749835 0.036464825 5.347891E-13 0.9656709 -0.2597687 30 30 30 255
0.052471813 -0.065442234 0.060369067 -5.3334523E-13 -0.9692118 0.24622828 30 30 30 255
0.07247181 -0.07151512 0.036464825 -5.3334523E-13 -0.9692118 0.24622828 30 30 30 255
0.07247181 -0.065442234 0.060369067 -5.3334523E-13 -0.9692118 0.24622828 30 30 30 255
0.052471813 -0.07151512 0.036464825 -5.3334523E-13 -0.9692118 0.24622828 30 30 30 255
0.07247181 -0.07651511 -0.004999986 -1 7.835316E-15 -2.0410018E-13 30 30 30 255
0.07247181 -0.07974983 -0.004999986 -1 7.835316E-15 -2.0410018E-13 30 30 30 255
0.052471813 -0.07151512 0.036464825 1 4.0715004E-13 -1.0753674E-13 30 30 30 255
0.052471813 -0.074749835 0.036464825 1 4.0715004E-13 -1.0753674E-13 30 30 30 255
0.07247181 -0.07974983 -0.004999986 5.563638E-13 0.99280804 -0.11971688 30 30 30 255
0.052471813 -0.074749835 0.036464825 5.563638E-13 0.99280804 -0.11971688 30 30 30 255
0.07247181 -0.074749835 0.036464825 5.563638E-13 0.99280804 -0.11971688 30 30 30 255
0.052471813 -0.07974983 -0.004999986 5.563638E-13 0.99280804 -0.11971688 30 30 30 255
0.052471813 -0.07151512 0.036464825 -5.525756E-13 -0.99280804 0.11971688 30 30 30 255
0.07247181 -0.07651511 -0.004999986 -5.525756E-13 -0.99280804 0.11971688 30 30 30 255
0.07247181 -0.07151512 0.036464825 -5.525756E-13 -0.99280804 0.11971688 30 30 30 255
0.052471813 -0.07651511 -0.004999986 -5.525756E-13 -0.99280804 0.11971688 30 30 30 255
0.052471813 -0.07651511 -0.004999986 1 2.1534089E-13 1.5977844E-13 30 30 30 255
0.052471813 -0.07974983 -0.004999986 1 2.1534089E-13 1.5977844E-13 30 30 30 255
-0.08995042 0.05582514 0.036542047 -1.8331396E-13 -1 -5.5847545E-14 153 106 61 255
-0.05495043 0.05582514 0.018084101 -1.8331396E-13 -1 -5.5847545E-14 153 106 61 255
-0.05495043 0.05582514 0.036542047 -1.8331396E-13 -1 -5.5847545E-14 153 106 61 255
-0.08995042 0.05582514 0.018084101 -1.8331396E-13 -1 -5.5847545E-14 153 106 61 255
-0.08995042 0.05582514 0.036542047 1 -2.310117E-13 -1.0596554E-12 153 106 61 255
-0.08995042 -0.06417485 0.018084101 1 -2.310117E-13 -1.0596554E-12 153 106 61 255
-0.08995042 0.05582514 0.018084101 1 -2.310117E-13 -1.0596554E-12 153 106 61 255
-0.08995042 -0.06417485 0.036542047 1 -2.310117E-13 -1.0596554E-12 153 106 61 255
-0.08995042 -0.06417485 0.018084101 1.7386036E-13 1 7.295867E-14 153 106 61 255
-0.059950434 -0.06417485 0.036542047 1.7386036E-13 1 7.295867E-14 153 106 61 255
-0.059950434 -0.06417485 0.018084101 1.7386036E-13 1 7.295867E-14 153 106 61 255
-0.08995042 -0.06417485 0.036542047 1.7386036E-13 1 7.295867E-14 153 106 61 255
0.090049565 -0.06417485 0.022598647 -1 2.310117E-13 1.0245483E-12 204 141 81 255
0.090049565 0.05582514 -0.0049999957 -1 2.310117E-13 1.0245483E-12 204 141 81 255
0.090049565 -0.06417485 -0.0049999957 -1 2.310117E-13 1.0245483E-12 204 141 81 255
0.090049565 0.05582514 0.022598647 -1 2.310117E-13 1.0245483E-12 204 141 81 255
0.090049565 -0.06417485 -0.0049999957 2.363674E-13 1 1.2113979E-13 204 141 81 255
0.06636067 -0.06417485 0.022598647 2.363674E-13 1 1.2113979E-13 204 141 81 255
0.090049565 -0.06417485 0.022598647 2.363674E-13 1 1.2113979E-13 204 141 81 255
-0.08995042 -0.06417485 -0.0049999957 2.363674E-13 1 1.2113979E-13 204 141 81 255
0.06636067 -0.06417485 0.040598657 2.363674E-13 1 1.2113979E-13 204 141 81 255
-0.059950434 -0.06417485 0.018084101 2.363674E-13 1 1.2113979E-13 204 141 81 255
-0.08995042 -0.06417485 0.018084101 2.363674E-13 1 1.2113979E-13 204 141 81 255
0.090049565 -0.06417485 0.040598657 2.363674E-13 1 1.2113979E-13 204 141 81 255
-0.08995042 -0.06417485 0.05999999 2.363674E-13 1 1.2113979E-13 204 141 81 255
0.090049565 -0.06417485 0.05999999 2.363674E-13 1 1.2113979E-13 204 141 81 255
-0.059950434 -0.06417485 0.036542047 2.363674E-13 1 1.2113979E-13 204 141 81 255
-0.08995042 -0.06417485 0.036542047 2.363674E-13 1 1.2113979E-13 204 141 81 255
-0.08995042 0.05582514 0.05999999 -2.3511507E-13 -1 -1.2225408E-13 204 141 81 255
0.090049565 0.05582514 0.040598657 -2.3511507E-13 -1 -1.2225408E-13 204 141 81 255
0.090049565 0.05582514 0.05999999 -2.3511507E-13 -1 -1.2225408E-13 204 141 81 255
0.062049575 0.05582514 0.040598657 -2.3511507E-13 -1 -1.2225408E-13 204 141 81 255
0.062049575 0.05582514 0.022598647 -2.3511507E-13 -1 -1.2225408E-13 204 141 81 255
-0.05495043 0.05582514 0.036542047 -2.3511507E-13 -1 -1.2225408E-13 204 141 81 255
-0.08995042 0.05582514 0.036542047 -2.3511507E-13 -1 -1.2225408E-13 204 141 81 255
0.090049565 0.05582514 -0.0049999957 -2.3511507E-13 -1 -1.2225408E-13 204 141 81 255
0.090049565 0.05582514 0.022598647 -2.3511507E-13 -1 -1.2225408E-13 204 141 81 255
-0.08995042 0.05582514 -0.0049999957 -2.3511507E-13 -1 -1.2225408E-13 204 141 81 255
-0.05495043 0.05582514 0.018084101 -2.3511507E-13 -1 -1.2225408E-13 204 141 81 255
-0.08995042 0.05582514 0.018084101 -2.3511507E-13 -1 -1.2225408E-13 204 141 81 255
-0.08995042 -0.06417485 -0.0049999957 -8.0596256E-13 -1.3151298E-13 1 204 141 81 255
0.090049565 0.05582514 -0.0049999957 -8.0596256E-13 -1.3151298E-13 1 204 141 81 255
-0.08995042 0.05582514 -0.0049999957 -8.0596256E-13 -1.3151298E-13 1 204 141 81 255
0.090049565 -0.06417485 -0.0049999957 -8.0596256E-13 -1.3151298E-13 1 204 141 81 255
-0.08995042 0.05582514 -0.0049999957 1 -2.310117E-13 -1.0499112E-12 204 141 81 255
-0.08995042 -0.06417485 0.018084101 1 -2.310117E-13 -1.0499112E-12 204 141 81 255
-0.08995042 -0.06417485 -0.0049999957 1 -2.310117E-13 -1.0499112E-12 204 141 81 255
-0.08995042 0.05582514 0.018084101 1 -2.310117E-13 -1.0499112E-12 204 141 81 255
-0.08995042 0.05582514 0.036542047 1 -2.310117E-13 -1.0615252E-12 204 141 81 255
-0.08995042 -0.06417485 0.05999999 1 -2.310117E-13 -1.0615252E-12 204 141 81 255
-0.08995042 -0.06417485 0.036542047 1 -2.310117E-13 -1.0615252E-12 204 141 81 255
-0.08995042 0.05582514 0.05999999 1 -2.310117E-13 -1.0615252E-12 204 141 81 255
0.090049565 0.05582514 0.05999999 9.695386E-13 1.2448639E-13 -1 204 141 81 255
4.9569644E-05 0.045825157 0.05999999 9.695386E-13 1.2448639E-13 -1 204 141 81 255
-0.08995042 0.05582514 0.05999999 9.695386E-13 1.2448639E-13 -1 204 141 81 255
0.050049577 -0.0041748513 0.05999999 9.695386E-13 1.2448639E-13 -1 204 141 81 255
0.090049565 -0.06417485 0.05999999 9.695386E-13 1.2448639E-13 -1 204 141 81 255
4.9569644E-05 -0.054174848 0.05999999 9.695386E-13 1.2448639E-13 -1 204 141 81 255
-0.04995043 -0.0041748513 0.05999999 9.695386E-13 1.2448639E-13 -1 204 141 81 255
-0.08995042 -0.06417485 0.05999999 9.695386E-13 1.2448639E-13 -1 204 141 81 255
0.090049565 -0.06417485 0.05999999 -1 2.310117E-13 1.0341053E-12 204 141 81 255
0.090049565 0.05582514 0.040598657 -1 2.310117E-13 1.0341053E-12 204 141 81 255
0.090049565 -0.06417485 0.040598657 -1 2.310117E-13 1.0341053E-12 204 141 81 255
0.090049565 0.05582514 0.05999999 -1 2.310117E-13 1.0341053E-12 204 141 81 255
0.050049577 -0.0041748513 0.05999999 2.310117E-13 1.3227649E-13 -1 204 0 0 255
4.9569644E-05 0.037339855 0.05999999 2.310117E-13 1.3227649E-13 -1 204 0 0 255
4.9569644E-05 0.045825157 0.05999999 2.310117E-13 1.3227649E-13 -1 204 0 0 255
0.041564275 -0.0041748513 0.05999999 2.310117E-13 1.3227649E-13 -1 204 0 0 255
4.9569644E-05 -0.054174848 0.05999999 2.310117E-13 1.3227649E-13 -1 204 0 0 255
4.9569644E-05 -0.045689568 0.05999999 2.310117E-13 1.3227649E-13 -1 204 0 0 255
-0.04995043 -0.0041748513 0.05999999 2.310117E-13 1.3227649E-13 -1 204 0 0 255
-0.04146515 -0.0041748513 0.05999999 2.310117E-13 1.3227649E-13 -1 204 0 0 255
-0.012542365 -0.011109922 0.05999999 2.3205298E-13 1.278406E-13 -1 204 0 0 255
-0.020320538 -0.017473904 0.05999999 2.3205298E-13 1.278406E-13 -1 204 0 0 255
-0.013249484 -0.010402827 0.05999999 2.3205298E-13 1.278406E-13 -1 204 0 0 255
-0.0068855006 -0.016766787 0.05999999 2.3205298E-13 1.278406E-13 -1 204 0 0 255
-0.0061784056 -0.017473904 0.05999999 2.3205298E-13 1.278406E-13 -1 204 0 0 255
-0.013249484 -0.02454496 0.05999999 2.3205298E-13 1.278406E-13 -1 204 0 0 255
-0.0026428723 -0.012524158 0.05999999 2.4696383E-13 1.1129029E-13 -1 204 0 0 255
-0.008299737 -0.0068672933 0.05999999 2.4696383E-13 1.1129029E-13 -1 204 0 0 255
0.041564275 -0.0041748513 0.05999999 2.281439E-13 1.324308E-13 -1 204 141 81 255
0.013348611 0.01619527 0.05999999 2.281439E-13 1.324308E-13 -1 204 141 81 255
4.9569644E-05 0.037339855 0.05999999 2.281439E-13 1.324308E-13 -1 204 141 81 255
0.02041969 0.009124191 0.05999999 2.281439E-13 1.324308E-13 -1 204 141 81 255
0.016864173 0.0055687036 0.05999999 2.281439E-13 1.324308E-13 -1 204 141 81 255
-0.012542365 -0.011109922 0.05999999 2.281439E-13 1.324308E-13 -1 204 141 81 255
-0.013249484 -0.010402827 0.05999999 2.281439E-13 1.324308E-13 -1 204 141 81 255
-0.008299737 -0.0068672933 0.05999999 2.281439E-13 1.324308E-13 -1 204 141 81 255
-0.001228659 -0.011109922 0.05999999 2.281439E-13 1.324308E-13 -1 204 141 81 255
0.01615706 0.006275787 0.05999999 2.281439E-13 1.324308E-13 -1 204 141 81 255
4.9569644E-05 -0.045689568 0.05999999 2.281439E-13 1.324308E-13 -1 204 141 81 255
-0.0026428723 -0.012524158 0.05999999 2.281439E-13 1.324308E-13 -1 204 141 81 255
-0.0061784056 -0.017473904 0.05999999 2.281439E-13 1.324308E-13 -1 204 141 81 255
-0.0068855006 -0.016766787 0.05999999 2.281439E-13 1.324308E-13 -1 204 141 81 255
-0.013249484 -0.02454496 0.05999999 2.281439E-13 1.324308E-13 -1 204 141 81 255
-0.04146515 -0.0041748513 0.05999999 2.281439E-13 1.324308E-13 -1 204 141 81 255
0.009793125 0.012639753 0.05999999 2.281439E-13 1.324308E-13 -1 204 141 81 255
0.010500208 0.01193264 0.05999999 2.281439E-13 1.324308E-13 -1 204 141 81 255
-0.0068855006 -0.00545308 0.05999999 2.281439E-13 1.324308E-13 -1 204 141 81 255
-0.020320538 -0.017473904 0.05999999 2.281439E-13 1.324308E-13 -1 204 141 81 255
-0.001228659 -0.011109922 0.05999999 2.4696383E-13 1.1129029E-13 -1 255 255 255 255
-0.008299737 -0.0068672933 0.05999999 2.4696383E-13 1.1129029E-13 -1 255 255 255 255
-0.0068855006 -0.00545308 0.05999999 2.4696383E-13 1.1129029E-13 -1 255 255 255 255
-0.0026428723 -0.012524158 0.05999999 2.4696383E-13 1.1129029E-13 -1 255 255 255 255
3 0 1 2
3 1 0 3
3 3 0 4
3 4 0 5
3 6 7 8
3 7 6 9
3 10 11 12
3 11 10 13
3 14 15 16
3 15 14 17
3 18 19 20
3 19 18 21
3 22 23 24
3 23 22 25
3 26 27 28
3 27 26 29
3 30 31 32
3 31 30 33
3 34 35 36
3 35 34 37
3 38 39 40
3 39 38 41
3 42 43 44
3 43 42 45
3 29 46 27
3 46 29 47
3 46 47 48
3 46 48 49
3 50 28 51
3 28 50 26
3 52 53 54
3 53 52 55
3 56 37 34
3 37 56 57
3 36 58 59
3 58 36 35
3 60 61 62
3 61 60 63
3 64 65 66
3 65 64 67
3 68 69 70
3 69 68 71
3 72 49 48
3 49 72 73
3 56 74 57
3 74 56 75
3 76 77 78
3 77 76 79
3 80 81 82
3 81 80 83
3 84 73 72
3 73 84 85
3 75 86 74
3 86 75 87
3 88 89 90
3 89 88 91
3 92 93 94
3 93 92 95
3 87 96 86
3 96 87 97
3 98 99 100
3 99 98 101
3 102 103 104
3 103 102 105
3 106 107 108
3 107 106 109
3 110 111 112
3 111 110 113
3 114 115 116
3 115 114 117
3 118 119 120
3 119 118 121
3 105 122 103
3 122 105 123
3 122 123 124
3 122 124 125
3 126 104 127
3 104 126 102
3 128 129 130
3 129 128 131
3 132 113 110
3 113 132 133
3 112 134 135
3 134 112 111
3 136 137 138
3 137 136 139
3 140 141 142
3 141 140 143
3 144 145 146
3 145 144 147
3 148 125 124
3 125 148 149
3 132 150 133
3 150 132 151
3 152 153 154
3 153 152 155
3 156 157 158
3 157 156 159
3 160 149 148
3 149 160 161
3 151 162 150
3 162 151 163
3 164 165 166
3 165 164 167
3 168 169 170
3 169 168 171
3 163 172 162
3 172 163 173
3 174 175 176
3 175 174 177
3 178 179 180
3 179 178 181
3 182 183 184
3 183 182 185
3 186 187 188
3 187 186 189
3 190 191 192
3 191 190 193
3 191 193 194
3 194 193 195
3 195 193 196
3 197 198 199
3 198 197 194
3 198 194 200
3 200 194 195
3 198 200 201
3 202 203 204
3 203 202 205
3 205 202 206
3 206 202 207
3 207 202 208
3 206 209 210
3 209 206 211
3 211 206 212
3 212 206 207
3 211 212 213
3 214 215 216
3 215 214 217
3 218 219 220
3 219 218 221
3 222 223 224
3 223 222 225
3 226 227 228
3 227 226 229
3 229 226 230
3 229 230 231
3 228 232 233
3 232 228 227
3 233 232 231
3 233 231 230
3 234 235 236
3 235 234 237
3 238 239 240
3 239 238 241
3 241 238 242
3 241 242 243
3 239 244 240
3 244 239 245
3 244 245 243
3 244 243 242
3 246 247 248
3 247 246 249
3 247 249 250
3 247 250 251
3 252 246 253
3 246 252 249
3 254 255 256
3 255 254 257
3 257 254 258
3 259 260 261
3 258 262 263
3 262 258 254
3 262 254 264
3 262 264 265
3 265 264 266
3 265 266 267
3 266 264 268
3 255 269 256
3 269 255 270
3 269 270 271
3 269 271 272
3 269 272 260
3 269 260 273
3 269 273 264
3 260 272 261
3 264 273 268
3 274 275 276
3 275 274 277

