ply
format ascii 1.0
commentY29udmVydGVyIGJ5IENvZGVMZW9wYXJk
comment Original mesh name: 'C:\Program Files (x86)\Steam\steamapps\common\Stormworks\rom\meshes\component_gate_not.mesh'
comment SubMesh index: 0
comment SubMesh name: 'ID2'
comment Shader: Opaque (0)
element vertex 134
property float x
property float y
property float z
property float nx
property float ny
property float nz
property uchar red
property uchar green
property uchar blue
property uchar alpha
element face 90
property list uchar ushort vertex_index
end_header
0.105 -0.105 -0.05499999 -0.70710677 5.642519E-17 -0.70710677 86 86 86 255
0.125 0.37499997 -0.074999996 -0.70710677 5.642519E-17 -0.70710677 86 86 86 255
0.125 -0.125 -0.074999996 -0.70710677 5.642519E-17 -0.70710677 86 86 86 255
0.105 0.35500005 -0.05499999 -0.70710677 5.642519E-17 -0.70710677 86 86 86 255
0.125 0.37499997 -0.074999996 -1 7.979727E-17 -0 86 86 86 255
0.125 -0.125 -0.125 -1 7.979727E-17 -0 86 86 86 255
0.125 -0.125 -0.074999996 -1 7.979727E-17 -0 86 86 86 255
0.125 0.37499997 -0.125 -1 7.979727E-17 -0 86 86 86 255
-0.105 -0.105 -0.05499999 5.4524702E-17 0.70710677 -0.70710677 86 86 86 255
0.125 -0.125 -0.074999996 5.4524702E-17 0.70710677 -0.70710677 86 86 86 255
-0.125 -0.125 -0.074999996 5.4524702E-17 0.70710677 -0.70710677 86 86 86 255
0.105 -0.105 -0.05499999 5.4524702E-17 0.70710677 -0.70710677 86 86 86 255
0.105 0.35500005 -0.05499999 -5.832568E-17 -0.70710677 -0.70710677 86 86 86 255
-0.125 0.37499997 -0.074999996 -5.832568E-17 -0.70710677 -0.70710677 86 86 86 255
0.125 0.37499997 -0.074999996 -5.832568E-17 -0.70710677 -0.70710677 86 86 86 255
-0.105 0.35500005 -0.05499999 -5.832568E-17 -0.70710677 -0.70710677 86 86 86 255
0.125 0.37499997 -0.074999996 -7.979727E-17 -1 -0 86 86 86 255
-0.125 0.37499997 -0.125 -7.979727E-17 -1 -0 86 86 86 255
0.125 0.37499997 -0.125 -7.979727E-17 -1 -0 86 86 86 255
-0.125 0.37499997 -0.074999996 -7.979727E-17 -1 -0 86 86 86 255
-0.125 -0.125 -0.074999996 7.979727E-17 1 -0 86 86 86 255
0.125 -0.125 -0.125 7.979727E-17 1 -0 86 86 86 255
-0.125 -0.125 -0.125 7.979727E-17 1 -0 86 86 86 255
0.125 -0.125 -0.074999996 7.979727E-17 1 -0 86 86 86 255
-0.125 0.37499997 -0.074999996 0.70710677 -5.642519E-17 -0.70710677 86 86 86 255
-0.105 -0.105 -0.05499999 0.70710677 -5.642519E-17 -0.70710677 86 86 86 255
-0.125 -0.125 -0.074999996 0.70710677 -5.642519E-17 -0.70710677 86 86 86 255
-0.105 0.35500005 -0.05499999 0.70710677 -5.642519E-17 -0.70710677 86 86 86 255
-0.125 0.37499997 -0.125 1 -7.979727E-17 -0 86 86 86 255
-0.125 -0.125 -0.074999996 1 -7.979727E-17 -0 86 86 86 255
-0.125 -0.125 -0.125 1 -7.979727E-17 -0 86 86 86 255
-0.125 0.37499997 -0.074999996 1 -7.979727E-17 -0 86 86 86 255
0.105 0.35500005 0.074999996 -7.979727E-17 -1 -0 255 125 0 255
-0.105 0.35500005 -0.05499999 -7.979727E-17 -1 -0 255 125 0 255
0.105 0.35500005 -0.05499999 -7.979727E-17 -1 -0 255 125 0 255
-0.105 0.35500005 0.074999996 -7.979727E-17 -1 -0 255 125 0 255
0.105 0.35500005 0.074999996 -1 7.979727E-17 -0 255 125 0 255
0.105 -0.105 -0.05499999 -1 7.979727E-17 -0 255 125 0 255
0.105 -0.105 0.074999996 -1 7.979727E-17 -0 255 125 0 255
0.105 0.35500005 -0.05499999 -1 7.979727E-17 -0 255 125 0 255
0.07969999 0.32969984 0.094999984 -5.8509416E-17 -0.62014675 -0.78448576 255 125 0 255
-0.105 0.35500005 0.074999996 -5.8509416E-17 -0.62014675 -0.78448576 255 125 0 255
0.105 0.35500005 0.074999996 -5.8509416E-17 -0.62014675 -0.78448576 255 125 0 255
-0.07969999 0.32969984 0.094999984 -5.8509416E-17 -0.62014675 -0.78448576 255 125 0 255
-0.105 0.35500005 -0.05499999 1 -7.979727E-17 -0 255 125 0 255
-0.105 -0.105 0.074999996 1 -7.979727E-17 -0 255 125 0 255
-0.105 -0.105 -0.05499999 1 -7.979727E-17 -0 255 125 0 255
-0.105 0.35500005 0.074999996 1 -7.979727E-17 -0 255 125 0 255
-0.105 -0.105 0.074999996 7.979727E-17 1 -0 255 125 0 255
0.105 -0.105 -0.05499999 7.979727E-17 1 -0 255 125 0 255
-0.105 -0.105 -0.05499999 7.979727E-17 1 -0 255 125 0 255
0.105 -0.105 0.074999996 7.979727E-17 1 -0 255 125 0 255
0.07969999 -0.07969999 0.094999984 -0.62014675 -9.179393E-16 -0.78448576 255 125 0 255
0.105 0.35500005 0.074999996 -0.62014675 -9.179393E-16 -0.78448576 255 125 0 255
0.105 -0.105 0.074999996 -0.62014675 -9.179393E-16 -0.78448576 255 125 0 255
0.07969999 0.32969984 0.094999984 -0.62014675 -9.179393E-16 -0.78448576 255 125 0 255
0.005 0.16899998 0.094999984 0 -0 -1 255 125 0 255
0.024999999 0.225 0.094999984 0 -0 -1 255 125 0 255
0.035000004 0.16899998 0.094999984 0 -0 -1 255 125 0 255
0.005 0.225 0.094999984 0 -0 -1 255 125 0 255
-0.024999999 0.024999999 0.094999984 0 -0 -1 255 125 0 255
-0.005 0.081886746 0.094999984 0 -0 -1 255 125 0 255
-0.005 0.024999999 0.094999984 0 -0 -1 255 125 0 255
-0.008660254 0.08400001 0.094999984 0 -0 -1 255 125 0 255
-0.008660254 0.09399999 0.094999984 0 -0 -1 255 125 0 255
-0.035000004 0.16899998 0.094999984 0 -0 -1 255 125 0 255
-0.005 0.225 0.094999984 0 -0 -1 255 125 0 255
-0.005 0.16899998 0.094999984 0 -0 -1 255 125 0 255
-0.024999999 0.225 0.094999984 0 -0 -1 255 125 0 255
-0.024999999 0.27499992 0.094999984 0 -0 -1 255 125 0 255
0.07969999 -0.07969999 0.094999984 0 -0 -1 255 125 0 255
0.024999999 -0.024999999 0.094999984 0 -0 -1 255 125 0 255
0.07969999 0.32969984 0.094999984 0 -0 -1 255 125 0 255
-0.07969999 -0.07969999 0.094999984 0 -0 -1 255 125 0 255
-0.024999999 -0.024999999 0.094999984 0 -0 -1 255 125 0 255
0.024999999 0.27499992 0.094999984 0 -0 -1 255 125 0 255
-0.07969999 0.32969984 0.094999984 0 -0 -1 255 125 0 255
-0.005 0.109000005 0.094999984 0 -0 -1 255 125 0 255
-0.005 0.09611324 0.094999984 0 -0 -1 255 125 0 255
0.005 0.024999999 0.094999984 0 -0 -1 255 125 0 255
0.008660254 0.08400001 0.094999984 0 -0 -1 255 125 0 255
0.024999999 0.024999999 0.094999984 0 -0 -1 255 125 0 255
0.005 0.081886746 0.094999984 0 -0 -1 255 125 0 255
0.008660254 0.09399999 0.094999984 0 -0 -1 255 125 0 255
0.005 0.109000005 0.094999984 0 -0 -1 255 125 0 255
0.005 0.09611324 0.094999984 0 -0 -1 255 125 0 255
-0.105 -0.105 0.074999996 0.62014675 -5.219892E-17 -0.78448576 255 125 0 255
-0.07969999 0.32969984 0.094999984 0.62014675 -5.219892E-17 -0.78448576 255 125 0 255
-0.07969999 -0.07969999 0.094999984 0.62014675 -5.219892E-17 -0.78448576 255 125 0 255
-0.105 0.35500005 0.074999996 0.62014675 -5.219892E-17 -0.78448576 255 125 0 255
-0.105 -0.105 0.074999996 4.4974326E-17 0.62014675 -0.78448576 255 125 0 255
0.07969999 -0.07969999 0.094999984 4.4974326E-17 0.62014675 -0.78448576 255 125 0 255
0.105 -0.105 0.074999996 4.4974326E-17 0.62014675 -0.78448576 255 125 0 255
-0.07969999 -0.07969999 0.094999984 4.4974326E-17 0.62014675 -0.78448576 255 125 0 255
-0.024999999 -0.024999999 0.094999984 0 -0 -1 86 86 86 255
0.024999999 0.024999999 0.094999984 0 -0 -1 86 86 86 255
0.024999999 -0.024999999 0.094999984 0 -0 -1 86 86 86 255
0.005 0.024999999 0.094999984 0 -0 -1 86 86 86 255
-0.005 0.024999999 0.094999984 0 -0 -1 86 86 86 255
-0.024999999 0.024999999 0.094999984 0 -0 -1 86 86 86 255
0.005 0.081886746 0.094999984 0 -0 -1 86 86 86 255
-1.4438227E-15 0.07899999 0.094999984 0 -0 -1 86 86 86 255
-0.005 0.081886746 0.094999984 0 -0 -1 86 86 86 255
0.005 0.225 0.094999984 0 -0 -1 86 86 86 255
0.024999999 0.27499992 0.094999984 0 -0 -1 86 86 86 255
0.024999999 0.225 0.094999984 0 -0 -1 86 86 86 255
-0.024999999 0.27499992 0.094999984 0 -0 -1 86 86 86 255
-0.005 0.225 0.094999984 0 -0 -1 86 86 86 255
-0.024999999 0.225 0.094999984 0 -0 -1 86 86 86 255
-0.005 0.16899998 0.094999984 0 -0 -1 86 86 86 255
0.005 0.16899998 0.094999984 0 -0 -1 86 86 86 255
0.005 0.109000005 0.094999984 0 -0 -1 199 199 199 255
0.005 0.16899998 0.094999984 0 -0 -1 199 199 199 255
0.035000004 0.16899998 0.094999984 0 -0 -1 199 199 199 255
-1.4438227E-15 0.099 0.094999984 0 -0 -1 199 199 199 255
-0.005 0.16899998 0.094999984 0 -0 -1 199 199 199 255
-0.005 0.109000005 0.094999984 0 -0 -1 199 199 199 255
-0.035000004 0.16899998 0.094999984 0 -0 -1 199 199 199 255
0.005 0.081886746 0.094999984 0 -0 -1 199 199 199 255
0.008660254 0.09399999 0.094999984 0 -0 -1 199 199 199 255
0.008660254 0.08400001 0.094999984 0 -0 -1 199 199 199 255
0.005 0.09611324 0.094999984 0 -0 -1 199 199 199 255
-1.4438227E-15 0.07899999 0.094999984 0 -0 -1 199 199 199 255
-1.4438227E-15 0.099 0.094999984 0 -0 -1 199 199 199 255
-0.005 0.081886746 0.094999984 0 -0 -1 199 199 199 255
-0.005 0.09611324 0.094999984 0 -0 -1 199 199 199 255
-0.008660254 0.08400001 0.094999984 0 -0 -1 199 199 199 255
-0.008660254 0.09399999 0.094999984 0 -0 -1 199 199 199 255
-0.005 0.109000005 0.094999984 0 -0 -1 86 86 86 255
-1.4438227E-15 0.099 0.094999984 0 -0 -1 86 86 86 255
-0.005 0.09611324 0.094999984 0 -0 -1 86 86 86 255
-1.4438227E-15 0.099 0.094999984 0 -0 -1 86 86 86 255
0.005 0.109000005 0.094999984 0 -0 -1 86 86 86 255
0.005 0.09611324 0.094999984 0 -0 -1 86 86 86 255
3 0 1 2
3 1 0 3
3 4 5 6
3 5 4 7
3 8 9 10
3 9 8 11
3 12 13 14
3 13 12 15
3 16 17 18
3 17 16 19
3 20 21 22
3 21 20 23
3 24 25 26
3 25 24 27
3 28 29 30
3 29 28 31
3 32 33 34
3 33 32 35
3 36 37 38
3 37 36 39
3 40 41 42
3 41 40 43
3 44 45 46
3 45 44 47
3 48 49 50
3 49 48 51
3 52 53 54
3 53 52 55
3 56 57 58
3 57 56 59
3 60 61 62
3 61 60 63
3 63 60 64
3 65 66 67
3 66 65 68
3 68 65 69
3 70 71 72
3 71 70 73
3 72 71 58
3 71 73 74
3 74 73 60
3 60 73 65
3 72 75 76
3 75 72 58
3 75 58 57
3 76 75 69
3 76 69 65
3 76 65 73
3 64 77 78
3 77 64 65
3 65 64 60
3 79 80 81
3 80 79 82
3 58 83 84
3 83 58 81
3 81 58 71
3 83 81 80
3 84 83 85
3 86 87 88
3 87 86 89
3 90 91 92
3 91 90 93
3 94 95 96
3 95 94 97
3 97 94 98
3 98 94 99
3 98 100 97
3 100 98 101
3 101 98 102
3 103 104 105
3 104 103 106
3 106 103 107
3 106 107 108
3 109 103 110
3 103 109 107
3 111 112 113
3 112 111 114
3 112 114 115
3 115 114 116
3 115 116 117
3 118 119 120
3 119 118 121
3 121 118 122
3 121 122 123
3 123 122 124
3 123 124 125
3 125 124 126
3 125 126 127
3 128 129 130
3 131 132 133

