ply
format ascii 1.0
commentY29udmVydGVyIGJ5IENvZGVMZW9wYXJk
comment Original mesh name: 'C:\Program Files (x86)\Steam\steamapps\common\Stormworks\rom\meshes\component_well_head_anchor.mesh'
comment SubMesh index: 0
comment SubMesh name: 'ID4'
comment Shader: Opaque (0)
element vertex 224
property float x
property float y
property float z
property float nx
property float ny
property float nz
property uchar red
property uchar green
property uchar blue
property uchar alpha
element face 144
property list uchar ushort vertex_index
end_header
-0.54451144 -4.656613E-08 -3.1250007 0 -0 -1 86 86 86 255
-0.690958 0.24999994 -3.1250007 0 -0 -1 86 86 86 255
-0.54451144 0.10355322 -3.1250007 0 -0 -1 86 86 86 255
-0.54451144 -0.10355343 -3.1250007 0 -0 -1 86 86 86 255
-0.690958 -0.25000003 -3.1250007 0 -0 -1 86 86 86 255
-0.8980647 0.24999994 -3.1250007 0 -0 -1 86 86 86 255
-0.8980647 -0.25000003 -3.1250007 0 -0 -1 86 86 86 255
-1.0445114 0.10355322 -3.1250007 0 -0 -1 86 86 86 255
-1.0445114 -4.656613E-08 -3.1250007 0 -0 -1 86 86 86 255
-1.0445114 -0.10355343 -3.1250007 0 -0 -1 86 86 86 255
-0.54451144 -4.656613E-08 -3.1250007 -1 1.394279E-14 -0 86 86 86 255
-0.54451144 -0.10355343 -5.1250005 -1 1.394279E-14 -0 86 86 86 255
-0.54451144 -0.10355343 -3.1250007 -1 1.394279E-14 -0 86 86 86 255
-0.54451144 -4.656613E-08 -5.1250005 -1 1.394279E-14 -0 86 86 86 255
-0.54451144 0.10355322 -3.1250007 -1 1.394279E-14 -0 86 86 86 255
-0.54451144 0.10355322 -5.1250005 -1 1.394279E-14 -0 86 86 86 255
-0.690958 -0.25000003 -3.1250007 -0.70710677 0.70710677 -0 86 86 86 255
-0.54451144 -0.10355343 -5.1250005 -0.70710677 0.70710677 -0 86 86 86 255
-0.690958 -0.25000003 -5.1250005 -0.70710677 0.70710677 -0 86 86 86 255
-0.54451144 -0.10355343 -3.1250007 -0.70710677 0.70710677 -0 86 86 86 255
-0.8980647 -0.25000003 -3.1250007 1.394279E-14 1 -0 86 86 86 255
-0.690958 -0.25000003 -5.1250005 1.394279E-14 1 -0 86 86 86 255
-0.8980647 -0.25000003 -5.1250005 1.394279E-14 1 -0 86 86 86 255
-0.690958 -0.25000003 -3.1250007 1.394279E-14 1 -0 86 86 86 255
-1.0445114 -0.10355343 -5.1250005 0.70710677 0.70710677 -0 86 86 86 255
-0.8980647 -0.25000003 -3.1250007 0.70710677 0.70710677 -0 86 86 86 255
-0.8980647 -0.25000003 -5.1250005 0.70710677 0.70710677 -0 86 86 86 255
-1.0445114 -0.10355343 -3.1250007 0.70710677 0.70710677 -0 86 86 86 255
-1.0445114 -4.656613E-08 -5.1250005 1 -1.394279E-14 -0 86 86 86 255
-1.0445114 -0.10355343 -3.1250007 1 -1.394279E-14 -0 86 86 86 255
-1.0445114 -0.10355343 -5.1250005 1 -1.394279E-14 -0 86 86 86 255
-1.0445114 -4.656613E-08 -3.1250007 1 -1.394279E-14 -0 86 86 86 255
-1.0445114 0.10355322 -5.1250005 1 -1.394279E-14 -0 86 86 86 255
-1.0445114 0.10355322 -3.1250007 1 -1.394279E-14 -0 86 86 86 255
-0.8980647 0.24999994 -3.1250007 0.70710677 -0.70710677 -0 86 86 86 255
-1.0445114 0.10355322 -5.1250005 0.70710677 -0.70710677 -0 86 86 86 255
-0.8980647 0.24999994 -5.1250005 0.70710677 -0.70710677 -0 86 86 86 255
-1.0445114 0.10355322 -3.1250007 0.70710677 -0.70710677 -0 86 86 86 255
-0.690958 0.24999994 -3.1250007 -1.394279E-14 -1 -0 86 86 86 255
-0.8980647 0.24999994 -5.1250005 -1.394279E-14 -1 -0 86 86 86 255
-0.690958 0.24999994 -5.1250005 -1.394279E-14 -1 -0 86 86 86 255
-0.8980647 0.24999994 -3.1250007 -1.394279E-14 -1 -0 86 86 86 255
-0.690958 0.24999994 -3.1250007 -0.70710677 -0.70710677 -0 86 86 86 255
-0.54451144 0.10355322 -5.1250005 -0.70710677 -0.70710677 -0 86 86 86 255
-0.54451144 0.10355322 -3.1250007 -0.70710677 -0.70710677 -0 86 86 86 255
-0.690958 0.24999994 -5.1250005 -0.70710677 -0.70710677 -0 86 86 86 255
-0.690958 0.24999994 -5.1250005 0 -0 1 86 86 86 255
-0.54451144 -4.656613E-08 -5.1250005 0 -0 1 86 86 86 255
-0.54451144 0.10355322 -5.1250005 0 -0 1 86 86 86 255
-0.54451144 -0.10355343 -5.1250005 0 -0 1 86 86 86 255
-0.690958 -0.25000003 -5.1250005 0 -0 1 86 86 86 255
-0.8980647 0.24999994 -5.1250005 0 -0 1 86 86 86 255
-0.8980647 -0.25000003 -5.1250005 0 -0 1 86 86 86 255
-1.0445114 0.10355322 -5.1250005 0 -0 1 86 86 86 255
-1.0445114 -4.656613E-08 -5.1250005 0 -0 1 86 86 86 255
-1.0445114 -0.10355343 -5.1250005 0 -0 1 86 86 86 255
1.045 -0.10355343 -3.1250007 0 -0 -1 86 86 86 255
1.045 0.10355322 -3.1250007 0 -0 -1 86 86 86 255
1.045 -4.656613E-08 -3.1250007 0 -0 -1 86 86 86 255
0.89855325 0.24999994 -3.1250007 0 -0 -1 86 86 86 255
0.89855325 -0.25000003 -3.1250007 0 -0 -1 86 86 86 255
0.69144666 0.24999994 -3.1250007 0 -0 -1 86 86 86 255
0.69144666 -0.25000003 -3.1250007 0 -0 -1 86 86 86 255
0.5449999 0.10355322 -3.1250007 0 -0 -1 86 86 86 255
0.5449999 -0.10355343 -3.1250007 0 -0 -1 86 86 86 255
0.5449999 -4.656613E-08 -3.1250007 0 -0 -1 86 86 86 255
1.045 -4.656613E-08 -3.1250007 -1 1.394279E-14 -0 86 86 86 255
1.045 -0.10355343 -5.1250005 -1 1.394279E-14 -0 86 86 86 255
1.045 -0.10355343 -3.1250007 -1 1.394279E-14 -0 86 86 86 255
1.045 -4.656613E-08 -5.1250005 -1 1.394279E-14 -0 86 86 86 255
1.045 0.10355322 -3.1250007 -1 1.394279E-14 -0 86 86 86 255
1.045 0.10355322 -5.1250005 -1 1.394279E-14 -0 86 86 86 255
0.89855325 -0.25000003 -3.1250007 -0.70710677 0.70710677 -0 86 86 86 255
1.045 -0.10355343 -5.1250005 -0.70710677 0.70710677 -0 86 86 86 255
0.89855325 -0.25000003 -5.1250005 -0.70710677 0.70710677 -0 86 86 86 255
1.045 -0.10355343 -3.1250007 -0.70710677 0.70710677 -0 86 86 86 255
0.69144666 -0.25000003 -3.1250007 1.394279E-14 1 -0 86 86 86 255
0.89855325 -0.25000003 -5.1250005 1.394279E-14 1 -0 86 86 86 255
0.69144666 -0.25000003 -5.1250005 1.394279E-14 1 -0 86 86 86 255
0.89855325 -0.25000003 -3.1250007 1.394279E-14 1 -0 86 86 86 255
0.5449999 -0.10355343 -5.1250005 0.70710677 0.70710677 -0 86 86 86 255
0.69144666 -0.25000003 -3.1250007 0.70710677 0.70710677 -0 86 86 86 255
0.69144666 -0.25000003 -5.1250005 0.70710677 0.70710677 -0 86 86 86 255
0.5449999 -0.10355343 -3.1250007 0.70710677 0.70710677 -0 86 86 86 255
0.5449999 -4.656613E-08 -5.1250005 1 -1.394279E-14 -0 86 86 86 255
0.5449999 -0.10355343 -3.1250007 1 -1.394279E-14 -0 86 86 86 255
0.5449999 -0.10355343 -5.1250005 1 -1.394279E-14 -0 86 86 86 255
0.5449999 -4.656613E-08 -3.1250007 1 -1.394279E-14 -0 86 86 86 255
0.5449999 0.10355322 -5.1250005 1 -1.394279E-14 -0 86 86 86 255
0.5449999 0.10355322 -3.1250007 1 -1.394279E-14 -0 86 86 86 255
0.69144666 0.24999994 -3.1250007 0.70710677 -0.70710677 -0 86 86 86 255
0.5449999 0.10355322 -5.1250005 0.70710677 -0.70710677 -0 86 86 86 255
0.69144666 0.24999994 -5.1250005 0.70710677 -0.70710677 -0 86 86 86 255
0.5449999 0.10355322 -3.1250007 0.70710677 -0.70710677 -0 86 86 86 255
0.89855325 0.24999994 -3.1250007 -1.394279E-14 -1 -0 86 86 86 255
0.69144666 0.24999994 -5.1250005 -1.394279E-14 -1 -0 86 86 86 255
0.89855325 0.24999994 -5.1250005 -1.394279E-14 -1 -0 86 86 86 255
0.69144666 0.24999994 -3.1250007 -1.394279E-14 -1 -0 86 86 86 255
0.89855325 0.24999994 -3.1250007 -0.70710677 -0.70710677 -0 86 86 86 255
1.045 0.10355322 -5.1250005 -0.70710677 -0.70710677 -0 86 86 86 255
1.045 0.10355322 -3.1250007 -0.70710677 -0.70710677 -0 86 86 86 255
0.89855325 0.24999994 -5.1250005 -0.70710677 -0.70710677 -0 86 86 86 255
0.89855325 0.24999994 -5.1250005 0 -0 1 86 86 86 255
1.045 -4.656613E-08 -5.1250005 0 -0 1 86 86 86 255
1.045 0.10355322 -5.1250005 0 -0 1 86 86 86 255
1.045 -0.10355343 -5.1250005 0 -0 1 86 86 86 255
0.89855325 -0.25000003 -5.1250005 0 -0 1 86 86 86 255
0.69144666 0.24999994 -5.1250005 0 -0 1 86 86 86 255
0.69144666 -0.25000003 -5.1250005 0 -0 1 86 86 86 255
0.5449999 0.10355322 -5.1250005 0 -0 1 86 86 86 255
0.5449999 -0.10355343 -5.1250005 0 -0 1 86 86 86 255
0.5449999 -4.656613E-08 -5.1250005 0 -0 1 86 86 86 255
-0.24999994 -0.89855325 -3.1250007 0 -0 -1 86 86 86 255
4.656613E-08 -1.045 -3.1250007 0 -0 -1 86 86 86 255
-0.10355334 -1.045 -3.1250007 0 -0 -1 86 86 86 255
0.25000003 -0.89855325 -3.1250007 0 -0 -1 86 86 86 255
0.25000003 -0.69144666 -3.1250007 0 -0 -1 86 86 86 255
-0.24999994 -0.69144666 -3.1250007 0 -0 -1 86 86 86 255
0.10355332 -0.5449999 -3.1250007 0 -0 -1 86 86 86 255
-0.10355334 -0.5449999 -3.1250007 0 -0 -1 86 86 86 255
4.656613E-08 -0.5449999 -3.1250007 0 -0 -1 86 86 86 255
0.10355332 -1.045 -3.1250007 0 -0 -1 86 86 86 255
4.656613E-08 -1.045 -3.1250007 1.0772933E-14 1 -0 86 86 86 255
-0.10355334 -1.045 -5.1250005 1.0772933E-14 1 -0 86 86 86 255
-0.10355334 -1.045 -3.1250007 1.0772933E-14 1 -0 86 86 86 255
4.656613E-08 -1.045 -5.1250005 1.0772933E-14 1 -0 86 86 86 255
0.10355332 -1.045 -3.1250007 1.0772933E-14 1 -0 86 86 86 255
0.10355332 -1.045 -5.1250005 1.0772933E-14 1 -0 86 86 86 255
-0.24999994 -0.89855325 -3.1250007 0.70710677 0.70710677 -0 86 86 86 255
-0.10355334 -1.045 -5.1250005 0.70710677 0.70710677 -0 86 86 86 255
-0.24999994 -0.89855325 -5.1250005 0.70710677 0.70710677 -0 86 86 86 255
-0.10355334 -1.045 -3.1250007 0.70710677 0.70710677 -0 86 86 86 255
-0.24999994 -0.69144666 -3.1250007 1 -1.0772933E-14 -0 86 86 86 255
-0.24999994 -0.89855325 -5.1250005 1 -1.0772933E-14 -0 86 86 86 255
-0.24999994 -0.69144666 -5.1250005 1 -1.0772933E-14 -0 86 86 86 255
-0.24999994 -0.89855325 -3.1250007 1 -1.0772933E-14 -0 86 86 86 255
-0.10355334 -0.5449999 -5.1250005 0.70710677 -0.70710677 -0 86 86 86 255
-0.24999994 -0.69144666 -3.1250007 0.70710677 -0.70710677 -0 86 86 86 255
-0.24999994 -0.69144666 -5.1250005 0.70710677 -0.70710677 -0 86 86 86 255
-0.10355334 -0.5449999 -3.1250007 0.70710677 -0.70710677 -0 86 86 86 255
4.656613E-08 -0.5449999 -5.1250005 -1.0772933E-14 -1 -0 86 86 86 255
-0.10355334 -0.5449999 -3.1250007 -1.0772933E-14 -1 -0 86 86 86 255
-0.10355334 -0.5449999 -5.1250005 -1.0772933E-14 -1 -0 86 86 86 255
4.656613E-08 -0.5449999 -3.1250007 -1.0772933E-14 -1 -0 86 86 86 255
0.10355332 -0.5449999 -5.1250005 -1.0772933E-14 -1 -0 86 86 86 255
0.10355332 -0.5449999 -3.1250007 -1.0772933E-14 -1 -0 86 86 86 255
0.25000003 -0.69144666 -3.1250007 -0.70710677 -0.70710677 -0 86 86 86 255
0.10355332 -0.5449999 -5.1250005 -0.70710677 -0.70710677 -0 86 86 86 255
0.25000003 -0.69144666 -5.1250005 -0.70710677 -0.70710677 -0 86 86 86 255
0.10355332 -0.5449999 -3.1250007 -0.70710677 -0.70710677 -0 86 86 86 255
0.25000003 -0.89855325 -3.1250007 -1 1.0772933E-14 -0 86 86 86 255
0.25000003 -0.69144666 -5.1250005 -1 1.0772933E-14 -0 86 86 86 255
0.25000003 -0.89855325 -5.1250005 -1 1.0772933E-14 -0 86 86 86 255
0.25000003 -0.69144666 -3.1250007 -1 1.0772933E-14 -0 86 86 86 255
0.25000003 -0.89855325 -3.1250007 -0.70710677 0.70710677 -0 86 86 86 255
0.10355332 -1.045 -5.1250005 -0.70710677 0.70710677 -0 86 86 86 255
0.10355332 -1.045 -3.1250007 -0.70710677 0.70710677 -0 86 86 86 255
0.25000003 -0.89855325 -5.1250005 -0.70710677 0.70710677 -0 86 86 86 255
0.25000003 -0.89855325 -5.1250005 0 -0 1 86 86 86 255
4.656613E-08 -1.045 -5.1250005 0 -0 1 86 86 86 255
0.10355332 -1.045 -5.1250005 0 -0 1 86 86 86 255
-0.10355334 -1.045 -5.1250005 0 -0 1 86 86 86 255
-0.24999994 -0.89855325 -5.1250005 0 -0 1 86 86 86 255
0.25000003 -0.69144666 -5.1250005 0 -0 1 86 86 86 255
-0.24999994 -0.69144666 -5.1250005 0 -0 1 86 86 86 255
0.10355332 -0.5449999 -5.1250005 0 -0 1 86 86 86 255
-0.10355334 -0.5449999 -5.1250005 0 -0 1 86 86 86 255
4.656613E-08 -0.5449999 -5.1250005 0 -0 1 86 86 86 255
4.656613E-08 1.045 -3.1250007 0 -0 -1 86 86 86 255
-0.24999994 0.89855325 -3.1250007 0 -0 -1 86 86 86 255
-0.10355322 1.045 -3.1250007 0 -0 -1 86 86 86 255
0.10355343 1.045 -3.1250007 0 -0 -1 86 86 86 255
0.25000003 0.89855325 -3.1250007 0 -0 -1 86 86 86 255
-0.24999994 0.69144666 -3.1250007 0 -0 -1 86 86 86 255
0.25000003 0.69144666 -3.1250007 0 -0 -1 86 86 86 255
-0.10355322 0.5449999 -3.1250007 0 -0 -1 86 86 86 255
4.656613E-08 0.5449999 -3.1250007 0 -0 -1 86 86 86 255
0.10355343 0.5449999 -3.1250007 0 -0 -1 86 86 86 255
4.656613E-08 1.045 -3.1250007 -1.3759092E-14 -1 -0 86 86 86 255
0.10355343 1.045 -5.1250005 -1.3759092E-14 -1 -0 86 86 86 255
0.10355343 1.045 -3.1250007 -1.3759092E-14 -1 -0 86 86 86 255
4.656613E-08 1.045 -5.1250005 -1.3759092E-14 -1 -0 86 86 86 255
-0.10355322 1.045 -3.1250007 -1.3759092E-14 -1 -0 86 86 86 255
-0.10355322 1.045 -5.1250005 -1.3759092E-14 -1 -0 86 86 86 255
0.25000003 0.89855325 -3.1250007 -0.70710677 -0.70710677 -0 86 86 86 255
0.10355343 1.045 -5.1250005 -0.70710677 -0.70710677 -0 86 86 86 255
0.25000003 0.89855325 -5.1250005 -0.70710677 -0.70710677 -0 86 86 86 255
0.10355343 1.045 -3.1250007 -0.70710677 -0.70710677 -0 86 86 86 255
0.25000003 0.69144666 -3.1250007 -1 1.3759092E-14 -0 86 86 86 255
0.25000003 0.89855325 -5.1250005 -1 1.3759092E-14 -0 86 86 86 255
0.25000003 0.69144666 -5.1250005 -1 1.3759092E-14 -0 86 86 86 255
0.25000003 0.89855325 -3.1250007 -1 1.3759092E-14 -0 86 86 86 255
0.10355343 0.5449999 -5.1250005 -0.70710677 0.70710677 -0 86 86 86 255
0.25000003 0.69144666 -3.1250007 -0.70710677 0.70710677 -0 86 86 86 255
0.25000003 0.69144666 -5.1250005 -0.70710677 0.70710677 -0 86 86 86 255
0.10355343 0.5449999 -3.1250007 -0.70710677 0.70710677 -0 86 86 86 255
4.656613E-08 0.5449999 -5.1250005 1.3759092E-14 1 -0 86 86 86 255
0.10355343 0.5449999 -3.1250007 1.3759092E-14 1 -0 86 86 86 255
0.10355343 0.5449999 -5.1250005 1.3759092E-14 1 -0 86 86 86 255
4.656613E-08 0.5449999 -3.1250007 1.3759092E-14 1 -0 86 86 86 255
-0.10355322 0.5449999 -5.1250005 1.3759092E-14 1 -0 86 86 86 255
-0.10355322 0.5449999 -3.1250007 1.3759092E-14 1 -0 86 86 86 255
-0.24999994 0.69144666 -3.1250007 0.70710677 0.70710677 -0 86 86 86 255
-0.10355322 0.5449999 -5.1250005 0.70710677 0.70710677 -0 86 86 86 255
-0.24999994 0.69144666 -5.1250005 0.70710677 0.70710677 -0 86 86 86 255
-0.10355322 0.5449999 -3.1250007 0.70710677 0.70710677 -0 86 86 86 255
-0.24999994 0.89855325 -3.1250007 1 -1.3759092E-14 -0 86 86 86 255
-0.24999994 0.69144666 -5.1250005 1 -1.3759092E-14 -0 86 86 86 255
-0.24999994 0.89855325 -5.1250005 1 -1.3759092E-14 -0 86 86 86 255
-0.24999994 0.69144666 -3.1250007 1 -1.3759092E-14 -0 86 86 86 255
-0.24999994 0.89855325 -3.1250007 0.70710677 -0.70710677 -0 86 86 86 255
-0.10355322 1.045 -5.1250005 0.70710677 -0.70710677 -0 86 86 86 255
-0.10355322 1.045 -3.1250007 0.70710677 -0.70710677 -0 86 86 86 255
-0.24999994 0.89855325 -5.1250005 0.70710677 -0.70710677 -0 86 86 86 255
-0.24999994 0.89855325 -5.1250005 0 -0 1 86 86 86 255
4.656613E-08 1.045 -5.1250005 0 -0 1 86 86 86 255
-0.10355322 1.045 -5.1250005 0 -0 1 86 86 86 255
0.10355343 1.045 -5.1250005 0 -0 1 86 86 86 255
0.25000003 0.89855325 -5.1250005 0 -0 1 86 86 86 255
-0.24999994 0.69144666 -5.1250005 0 -0 1 86 86 86 255
0.25000003 0.69144666 -5.1250005 0 -0 1 86 86 86 255
-0.10355322 0.5449999 -5.1250005 0 -0 1 86 86 86 255
4.656613E-08 0.5449999 -5.1250005 0 -0 1 86 86 86 255
0.10355343 0.5449999 -5.1250005 0 -0 1 86 86 86 255
3 0 1 2
3 1 0 3
3 1 3 4
3 1 4 5
3 5 4 6
3 5 6 7
3 7 6 8
3 8 6 9
3 10 11 12
3 11 10 13
3 13 10 14
3 13 14 15
3 16 17 18
3 17 16 19
3 20 21 22
3 21 20 23
3 24 25 26
3 25 24 27
3 28 29 30
3 29 28 31
3 31 28 32
3 31 32 33
3 34 35 36
3 35 34 37
3 38 39 40
3 39 38 41
3 42 43 44
3 43 42 45
3 46 47 48
3 47 46 49
3 49 46 50
3 50 46 51
3 50 51 52
3 52 51 53
3 52 53 54
3 52 54 55
3 56 57 58
3 57 56 59
3 59 56 60
3 59 60 61
3 61 60 62
3 61 62 63
3 63 62 64
3 63 64 65
3 66 67 68
3 67 66 69
3 69 66 70
3 69 70 71
3 72 73 74
3 73 72 75
3 76 77 78
3 77 76 79
3 80 81 82
3 81 80 83
3 84 85 86
3 85 84 87
3 87 84 88
3 87 88 89
3 90 91 92
3 91 90 93
3 94 95 96
3 95 94 97
3 98 99 100
3 99 98 101
3 102 103 104
3 103 102 105
3 105 102 106
3 106 102 107
3 106 107 108
3 108 107 109
3 108 109 110
3 110 109 111
3 112 113 114
3 113 112 115
3 115 112 116
3 116 112 117
3 116 117 118
3 118 117 119
3 118 119 120
3 115 121 113
3 122 123 124
3 123 122 125
3 125 122 126
3 125 126 127
3 128 129 130
3 129 128 131
3 132 133 134
3 133 132 135
3 136 137 138
3 137 136 139
3 140 141 142
3 141 140 143
3 143 140 144
3 143 144 145
3 146 147 148
3 147 146 149
3 150 151 152
3 151 150 153
3 154 155 156
3 155 154 157
3 158 159 160
3 159 158 161
3 161 158 162
3 162 158 163
3 162 163 164
3 164 163 165
3 164 165 166
3 166 165 167
3 168 169 170
3 169 168 171
3 169 171 172
3 169 172 173
3 173 172 174
3 173 174 175
3 175 174 176
3 176 174 177
3 178 179 180
3 179 178 181
3 181 178 182
3 181 182 183
3 184 185 186
3 185 184 187
3 188 189 190
3 189 188 191
3 192 193 194
3 193 192 195
3 196 197 198
3 197 196 199
3 199 196 200
3 199 200 201
3 202 203 204
3 203 202 205
3 206 207 208
3 207 206 209
3 210 211 212
3 211 210 213
3 214 215 216
3 215 214 217
3 217 214 218
3 218 214 219
3 218 219 220
3 220 219 221
3 220 221 222
3 220 222 223

