ply
format ascii 1.0
commentY29udmVydGVyIGJ5IENvZGVMZW9wYXJk
comment Original mesh name: 'C:\Program Files (x86)\Steam\steamapps\common\Stormworks\rom\meshes\component_transpond_emitter.mesh'
comment SubMesh index: 0
comment SubMesh name: 'ID18'
comment Shader: Opaque (0)
element vertex 136
property float x
property float y
property float z
property float nx
property float ny
property float nz
property uchar red
property uchar green
property uchar blue
property uchar alpha
element face 82
property list uchar ushort vertex_index
end_header
0.045922004 0.11086553 -0.125 0 -0 1 58 58 58 255
0.11086553 -0.045922004 -0.125 0 -0 1 58 58 58 255
0.11086553 0.045922004 -0.125 0 -0 1 58 58 58 255
0.045922004 -0.11086553 -0.125 0 -0 1 58 58 58 255
-0.045922004 0.11086553 -0.125 0 -0 1 58 58 58 255
-0.045922004 -0.11086553 -0.125 0 -0 1 58 58 58 255
-0.11086553 0.045922004 -0.125 0 -0 1 58 58 58 255
-0.11086553 -0.045922004 -0.125 0 -0 1 58 58 58 255
-0.06360589 -0.026346428 0.05499999 0.5843198 0.5843198 -0.5631526 255 125 0 255
-0.037637744 -0.090865545 0.015 0.5843198 0.5843198 -0.5631526 255 125 0 255
-0.090865545 -0.037637744 0.015 0.5843198 0.5843198 -0.5631526 255 125 0 255
-0.026346428 -0.06360589 0.05499999 0.5843198 0.5843198 -0.5631526 255 125 0 255
-0.090865545 0.037637744 0.015 0.8263529 -2.86933E-14 -0.5631526 255 125 0 255
-0.06360589 -0.026346428 0.05499999 0.8263529 -2.86933E-14 -0.5631526 255 125 0 255
-0.090865545 -0.037637744 0.015 0.8263529 -2.86933E-14 -0.5631526 255 125 0 255
-0.06360589 0.026346428 0.05499999 0.8263529 -2.86933E-14 -0.5631526 255 125 0 255
0.026346428 -0.06360589 0.05499999 0 -0 -1 255 125 0 255
0.06360589 0.026346428 0.05499999 0 -0 -1 255 125 0 255
0.06360589 -0.026346428 0.05499999 0 -0 -1 255 125 0 255
0.026346428 0.06360589 0.05499999 0 -0 -1 255 125 0 255
-0.026346428 -0.06360589 0.05499999 0 -0 -1 255 125 0 255
-0.026346428 0.06360589 0.05499999 0 -0 -1 255 125 0 255
-0.06360589 0.026346428 0.05499999 0 -0 -1 255 125 0 255
-0.06360589 -0.026346428 0.05499999 0 -0 -1 255 125 0 255
-0.026346428 -0.06360589 0.05499999 -9.046313E-18 0.8263529 -0.5631526 255 125 0 255
0.037637744 -0.090865545 0.015 -9.046313E-18 0.8263529 -0.5631526 255 125 0 255
-0.037637744 -0.090865545 0.015 -9.046313E-18 0.8263529 -0.5631526 255 125 0 255
0.026346428 -0.06360589 0.05499999 -9.046313E-18 0.8263529 -0.5631526 255 125 0 255
-0.090865545 -0.037637744 0.015 0.70710677 0.70710677 -0 255 125 0 255
-0.037637744 -0.090865545 -0.105 0.70710677 0.70710677 -0 255 125 0 255
-0.090865545 -0.037637744 -0.105 0.70710677 0.70710677 -0 255 125 0 255
-0.037637744 -0.090865545 0.015 0.70710677 0.70710677 -0 255 125 0 255
0.090865545 0.037637744 0.015 0 -0 1 255 125 0 255
0.037637744 -0.090865545 0.015 0 -0 1 255 125 0 255
0.090865545 -0.037637744 0.015 0 -0 1 255 125 0 255
0.037637744 0.090865545 0.015 0 -0 1 255 125 0 255
-0.037637744 -0.090865545 0.015 0 -0 1 255 125 0 255
-0.037637744 0.090865545 0.015 0 -0 1 255 125 0 255
-0.090865545 0.037637744 0.015 0 -0 1 255 125 0 255
-0.090865545 -0.037637744 0.015 0 -0 1 255 125 0 255
-0.090865545 0.037637744 -0.105 1 -3.8361038E-14 -0 255 125 0 255
-0.090865545 -0.037637744 0.015 1 -3.8361038E-14 -0 255 125 0 255
-0.090865545 -0.037637744 -0.105 1 -3.8361038E-14 -0 255 125 0 255
-0.090865545 0.037637744 0.015 1 -3.8361038E-14 -0 255 125 0 255
-0.026346428 0.06360589 0.05499999 0.5843198 -0.5843198 -0.5631526 255 125 0 255
-0.090865545 0.037637744 0.015 0.5843198 -0.5843198 -0.5631526 255 125 0 255
-0.037637744 0.090865545 0.015 0.5843198 -0.5843198 -0.5631526 255 125 0 255
-0.06360589 0.026346428 0.05499999 0.5843198 -0.5843198 -0.5631526 255 125 0 255
0.026346428 0.06360589 0.05499999 1.808526E-14 -0.8263529 -0.5631526 255 125 0 255
-0.037637744 0.090865545 0.015 1.808526E-14 -0.8263529 -0.5631526 255 125 0 255
0.037637744 0.090865545 0.015 1.808526E-14 -0.8263529 -0.5631526 255 125 0 255
-0.026346428 0.06360589 0.05499999 1.808526E-14 -0.8263529 -0.5631526 255 125 0 255
0.026346428 0.06360589 0.05499999 -0.5843198 -0.5843198 -0.5631526 255 125 0 255
0.090865545 0.037637744 0.015 -0.5843198 -0.5843198 -0.5631526 255 125 0 255
0.06360589 0.026346428 0.05499999 -0.5843198 -0.5843198 -0.5631526 255 125 0 255
0.037637744 0.090865545 0.015 -0.5843198 -0.5843198 -0.5631526 255 125 0 255
0.06360589 -0.026346428 0.05499999 -0.8263529 -9.038248E-15 -0.5631526 255 125 0 255
0.090865545 0.037637744 0.015 -0.8263529 -9.038248E-15 -0.5631526 255 125 0 255
0.090865545 -0.037637744 0.015 -0.8263529 -9.038248E-15 -0.5631526 255 125 0 255
0.06360589 0.026346428 0.05499999 -0.8263529 -9.038248E-15 -0.5631526 255 125 0 255
0.026346428 -0.06360589 0.05499999 -0.5843198 0.5843198 -0.5631526 255 125 0 255
0.090865545 -0.037637744 0.015 -0.5843198 0.5843198 -0.5631526 255 125 0 255
0.037637744 -0.090865545 0.015 -0.5843198 0.5843198 -0.5631526 255 125 0 255
0.06360589 -0.026346428 0.05499999 -0.5843198 0.5843198 -0.5631526 255 125 0 255
-0.037637744 -0.090865545 0.015 0 1 -0 255 125 0 255
0.037637744 -0.090865545 -0.105 0 1 -0 255 125 0 255
-0.037637744 -0.090865545 -0.105 0 1 -0 255 125 0 255
0.037637744 -0.090865545 0.015 0 1 -0 255 125 0 255
-0.037637744 0.090865545 0.015 0.70710677 -0.70710677 -0 255 125 0 255
-0.090865545 0.037637744 -0.105 0.70710677 -0.70710677 -0 255 125 0 255
-0.037637744 0.090865545 -0.105 0.70710677 -0.70710677 -0 255 125 0 255
-0.090865545 0.037637744 0.015 0.70710677 -0.70710677 -0 255 125 0 255
0.037637744 0.090865545 0.015 1.9180519E-14 -1 -0 255 125 0 255
-0.037637744 0.090865545 -0.105 1.9180519E-14 -1 -0 255 125 0 255
0.037637744 0.090865545 -0.105 1.9180519E-14 -1 -0 255 125 0 255
-0.037637744 0.090865545 0.015 1.9180519E-14 -1 -0 255 125 0 255
0.037637744 0.090865545 0.015 -0.70710677 -0.70710677 -2.8137796E-17 255 125 0 255
0.090865545 0.037637744 -0.105 -0.70710677 -0.70710677 -2.8137796E-17 255 125 0 255
0.090865545 0.037637744 0.015 -0.70710677 -0.70710677 -2.8137796E-17 255 125 0 255
0.037637744 0.090865545 -0.105 -0.70710677 -0.70710677 -2.8137796E-17 255 125 0 255
0.090865545 0.037637744 0.015 -1 -9.5902595E-15 -0 255 125 0 255
0.090865545 -0.037637744 -0.105 -1 -9.5902595E-15 -0 255 125 0 255
0.090865545 -0.037637744 0.015 -1 -9.5902595E-15 -0 255 125 0 255
0.090865545 0.037637744 -0.105 -1 -9.5902595E-15 -0 255 125 0 255
0.090865545 -0.037637744 0.015 -0.70710677 0.70710677 -0 255 125 0 255
0.037637744 -0.090865545 -0.105 -0.70710677 0.70710677 -0 255 125 0 255
0.037637744 -0.090865545 0.015 -0.70710677 0.70710677 -0 255 125 0 255
0.090865545 -0.037637744 -0.105 -0.70710677 0.70710677 -0 255 125 0 255
-0.11086553 0.045922004 -0.125 1 -3.1440762E-14 -0 199 199 199 255
-0.11086553 -0.045922004 -0.105 1 -3.1440762E-14 -0 199 199 199 255
-0.11086553 -0.045922004 -0.125 1 -3.1440762E-14 -0 199 199 199 255
-0.11086553 0.045922004 -0.105 1 -3.1440762E-14 -0 199 199 199 255
-0.045922004 0.11086553 -0.105 0.70710677 -0.70710677 -0 199 199 199 255
-0.11086553 0.045922004 -0.125 0.70710677 -0.70710677 -0 199 199 199 255
-0.045922004 0.11086553 -0.125 0.70710677 -0.70710677 -0 199 199 199 255
-0.11086553 0.045922004 -0.105 0.70710677 -0.70710677 -0 199 199 199 255
0.11086553 -0.045922004 -0.105 0 -0 -1 199 199 199 255
0.090865545 -0.037637744 -0.105 0 -0 -1 199 199 199 255
0.11086553 0.045922004 -0.105 0 -0 -1 199 199 199 255
0.045922004 -0.11086553 -0.105 0 -0 -1 199 199 199 255
0.037637744 -0.090865545 -0.105 0 -0 -1 199 199 199 255
-0.045922004 -0.11086553 -0.105 0 -0 -1 199 199 199 255
-0.037637744 -0.090865545 -0.105 0 -0 -1 199 199 199 255
-0.090865545 -0.037637744 -0.105 0 -0 -1 199 199 199 255
-0.11086553 -0.045922004 -0.105 0 -0 -1 199 199 199 255
-0.11086553 0.045922004 -0.105 0 -0 -1 199 199 199 255
0.090865545 0.037637744 -0.105 0 -0 -1 199 199 199 255
0.045922004 0.11086553 -0.105 0 -0 -1 199 199 199 255
0.037637744 0.090865545 -0.105 0 -0 -1 199 199 199 255
-0.045922004 0.11086553 -0.105 0 -0 -1 199 199 199 255
-0.037637744 0.090865545 -0.105 0 -0 -1 199 199 199 255
-0.090865545 0.037637744 -0.105 0 -0 -1 199 199 199 255
-0.11086553 -0.045922004 -0.105 0.70710677 0.70710677 -0 199 199 199 255
-0.045922004 -0.11086553 -0.125 0.70710677 0.70710677 -0 199 199 199 255
-0.11086553 -0.045922004 -0.125 0.70710677 0.70710677 -0 199 199 199 255
-0.045922004 -0.11086553 -0.105 0.70710677 0.70710677 -0 199 199 199 255
0.045922004 0.11086553 -0.105 1.572038E-14 -1 -0 199 199 199 255
-0.045922004 0.11086553 -0.125 1.572038E-14 -1 -0 199 199 199 255
0.045922004 0.11086553 -0.125 1.572038E-14 -1 -0 199 199 199 255
-0.045922004 0.11086553 -0.105 1.572038E-14 -1 -0 199 199 199 255
0.045922004 0.11086553 -0.105 -0.70710677 -0.70710677 -0 199 199 199 255
0.11086553 0.045922004 -0.125 -0.70710677 -0.70710677 -0 199 199 199 255
0.11086553 0.045922004 -0.105 -0.70710677 -0.70710677 -0 199 199 199 255
0.045922004 0.11086553 -0.125 -0.70710677 -0.70710677 -0 199 199 199 255
0.11086553 0.045922004 -0.105 -1 -7.860189E-15 -0 199 199 199 255
0.11086553 -0.045922004 -0.125 -1 -7.860189E-15 -0 199 199 199 255
0.11086553 -0.045922004 -0.105 -1 -7.860189E-15 -0 199 199 199 255
0.11086553 0.045922004 -0.125 -1 -7.860189E-15 -0 199 199 199 255
0.11086553 -0.045922004 -0.105 -0.70710677 0.70710677 -0 199 199 199 255
0.045922004 -0.11086553 -0.125 -0.70710677 0.70710677 -0 199 199 199 255
0.045922004 -0.11086553 -0.105 -0.70710677 0.70710677 -0 199 199 199 255
0.11086553 -0.045922004 -0.125 -0.70710677 0.70710677 -0 199 199 199 255
-0.045922004 -0.11086553 -0.105 0 1 -0 199 199 199 255
0.045922004 -0.11086553 -0.125 0 1 -0 199 199 199 255
-0.045922004 -0.11086553 -0.125 0 1 -0 199 199 199 255
0.045922004 -0.11086553 -0.105 0 1 -0 199 199 199 255
3 0 1 2
3 1 0 3
3 3 0 4
3 3 4 5
3 5 4 6
3 5 6 7
3 8 9 10
3 9 8 11
3 12 13 14
3 13 12 15
3 16 17 18
3 17 16 19
3 19 16 20
3 19 20 21
3 21 20 22
3 22 20 23
3 24 25 26
3 25 24 27
3 28 29 30
3 29 28 31
3 32 33 34
3 33 32 35
3 33 35 36
3 36 35 37
3 36 37 38
3 36 38 39
3 40 41 42
3 41 40 43
3 44 45 46
3 45 44 47
3 48 49 50
3 49 48 51
3 52 53 54
3 53 52 55
3 56 57 58
3 57 56 59
3 60 61 62
3 61 60 63
3 64 65 66
3 65 64 67
3 68 69 70
3 69 68 71
3 72 73 74
3 73 72 75
3 76 77 78
3 77 76 79
3 80 81 82
3 81 80 83
3 84 85 86
3 85 84 87
3 88 89 90
3 89 88 91
3 92 93 94
3 93 92 95
3 96 97 98
3 97 96 99
3 97 99 100
3 100 99 101
3 100 101 102
3 102 101 103
3 103 101 104
3 103 104 105
3 98 106 107
3 106 98 97
3 107 106 108
3 107 108 109
3 109 108 110
3 109 110 111
3 109 111 105
3 105 111 103
3 112 113 114
3 113 112 115
3 116 117 118
3 117 116 119
3 120 121 122
3 121 120 123
3 124 125 126
3 125 124 127
3 128 129 130
3 129 128 131
3 132 133 134
3 133 132 135

