ply
format ascii 1.0
commentY29udmVydGVyIGJ5IENvZGVMZW9wYXJk
comment Original mesh name: 'C:\Program Files (x86)\Steam\steamapps\common\Stormworks\rom\meshes\component_hatch_dynamic.mesh'
comment SubMesh index: 0
comment SubMesh name: 'ID16'
comment Shader: Opaque (0)
element vertex 144
property float x
property float y
property float z
property float nx
property float ny
property float nz
property uchar red
property uchar green
property uchar blue
property uchar alpha
element face 92
property list uchar ushort vertex_index
end_header
0.105 0.2584313 -0.3350001 0 -0 1 84 84 84 255
0.125 -0.27843148 -0.3350001 0 -0 1 84 84 84 255
0.125 0.2584313 -0.3350001 0 -0 1 84 84 84 255
0.105 -0.27843148 -0.3350001 0 -0 1 84 84 84 255
0.105 0.3349998 -0.25843152 0 -0.7071067 0.7071069 84 84 84 255
0.125 0.2584313 -0.3350001 0 -0.7071067 0.7071069 84 84 84 255
0.125 0.3349998 -0.25843152 0 -0.7071067 0.7071069 84 84 84 255
0.105 0.2584313 -0.3350001 0 -0.7071067 0.7071069 84 84 84 255
0.105 -0.27843148 -0.3350001 0 0.7071067 0.7071069 84 84 84 255
0.125 -0.35500005 -0.25843152 0 0.7071067 0.7071069 84 84 84 255
0.125 -0.27843148 -0.3350001 0 0.7071067 0.7071069 84 84 84 255
0.105 -0.35500005 -0.25843152 0 0.7071067 0.7071069 84 84 84 255
0.125 0.3349998 0.2584313 0 -1 -0 84 84 84 255
0.105 0.3349998 -0.25843152 0 -1 -0 84 84 84 255
0.125 0.3349998 -0.25843152 0 -1 -0 84 84 84 255
0.105 0.3349998 0.2584313 0 -1 -0 84 84 84 255
0.105 -0.35500005 0.2584313 0 1 -0 84 84 84 255
0.125 -0.35500005 -0.25843152 0 1 -0 84 84 84 255
0.105 -0.35500005 -0.25843152 0 1 -0 84 84 84 255
0.125 -0.35500005 0.2584313 0 1 -0 84 84 84 255
0.125 0.2584313 0.3349998 0 -0.70710677 -0.70710677 84 84 84 255
0.105 0.3349998 0.2584313 0 -0.70710677 -0.70710677 84 84 84 255
0.125 0.3349998 0.2584313 0 -0.70710677 -0.70710677 84 84 84 255
0.105 0.2584313 0.3349998 0 -0.70710677 -0.70710677 84 84 84 255
0.105 -0.27843148 0.3349998 0 0.70710677 -0.70710677 84 84 84 255
0.125 -0.35500005 0.2584313 0 0.70710677 -0.70710677 84 84 84 255
0.105 -0.35500005 0.2584313 0 0.70710677 -0.70710677 84 84 84 255
0.125 -0.27843148 0.3349998 0 0.70710677 -0.70710677 84 84 84 255
0.125 -0.27843148 0.3349998 0 -0 -1 84 84 84 255
0.105 0.2584313 0.3349998 0 -0 -1 84 84 84 255
0.125 0.2584313 0.3349998 0 -0 -1 84 84 84 255
0.105 -0.27843148 0.3349998 0 -0 -1 84 84 84 255
-0 -0.27843148 -0.3350001 1 -0 -0 55 125 0 255
-0 -0.35500005 0.2584313 1 -0 -0 55 125 0 255
-0 -0.35500005 -0.25843152 1 -0 -0 55 125 0 255
-0 -0.27843148 0.3349998 1 -0 -0 55 125 0 255
-0 0.2584313 -0.3350001 1 -0 -0 55 125 0 255
-0 0.2584313 0.3349998 1 -0 -0 55 125 0 255
-0 0.3349998 -0.25843152 1 -0 -0 55 125 0 255
-0 0.3349998 0.2584313 1 -0 -0 55 125 0 255
0.125 -0.27843148 0.3349998 -1 4.63515E-14 7.235593E-31 255 125 0 255
0.125 -0.35500005 -0.25843152 -1 4.63515E-14 7.235593E-31 255 125 0 255
0.125 -0.35500005 0.2584313 -1 4.63515E-14 7.235593E-31 255 125 0 255
0.125 -0.27843148 -0.3350001 -1 4.63515E-14 7.235593E-31 255 125 0 255
0.125 0.2584313 0.3349998 -1 4.63515E-14 7.235593E-31 255 125 0 255
0.125 0.2584313 -0.3350001 -1 4.63515E-14 7.235593E-31 255 125 0 255
0.125 0.3349998 0.2584313 -1 4.63515E-14 7.235593E-31 255 125 0 255
0.125 0.3349998 -0.25843152 -1 4.63515E-14 7.235593E-31 255 125 0 255
0.020000009 0.2584313 0.3349998 0 -0.70710677 -0.70710677 84 84 84 255
-0 0.3349998 0.2584313 0 -0.70710677 -0.70710677 84 84 84 255
0.020000009 0.3349998 0.2584313 0 -0.70710677 -0.70710677 84 84 84 255
-0 0.2584313 0.3349998 0 -0.70710677 -0.70710677 84 84 84 255
-0 -0.27843148 0.3349998 0 -0 -1 84 84 84 255
0.020000009 0.2584313 0.3349998 0 -0 -1 84 84 84 255
0.020000009 -0.27843148 0.3349998 0 -0 -1 84 84 84 255
-0 0.2584313 0.3349998 0 -0 -1 84 84 84 255
0.020000009 0.3349998 0.2584313 0 -1 -0 84 84 84 255
-0 0.3349998 -0.25843152 0 -1 -0 84 84 84 255
0.020000009 0.3349998 -0.25843152 0 -1 -0 84 84 84 255
-0 0.3349998 0.2584313 0 -1 -0 84 84 84 255
-0 -0.27843148 0.3349998 0 0.70710677 -0.70710677 84 84 84 255
0.020000009 -0.35500005 0.2584313 0 0.70710677 -0.70710677 84 84 84 255
-0 -0.35500005 0.2584313 0 0.70710677 -0.70710677 84 84 84 255
0.020000009 -0.27843148 0.3349998 0 0.70710677 -0.70710677 84 84 84 255
-0 0.3349998 -0.25843152 0 -0.7071067 0.7071069 84 84 84 255
0.020000009 0.2584313 -0.3350001 0 -0.7071067 0.7071069 84 84 84 255
0.020000009 0.3349998 -0.25843152 0 -0.7071067 0.7071069 84 84 84 255
-0 0.2584313 -0.3350001 0 -0.7071067 0.7071069 84 84 84 255
-0 -0.35500005 0.2584313 0 1 -0 84 84 84 255
0.020000009 -0.35500005 -0.25843152 0 1 -0 84 84 84 255
-0 -0.35500005 -0.25843152 0 1 -0 84 84 84 255
0.020000009 -0.35500005 0.2584313 0 1 -0 84 84 84 255
-0 0.2584313 -0.3350001 0 -0 1 84 84 84 255
0.020000009 -0.27843148 -0.3350001 0 -0 1 84 84 84 255
0.020000009 0.2584313 -0.3350001 0 -0 1 84 84 84 255
-0 -0.27843148 -0.3350001 0 -0 1 84 84 84 255
-0 -0.27843148 -0.3350001 0 0.7071067 0.7071069 84 84 84 255
0.020000009 -0.35500005 -0.25843152 0 0.7071067 0.7071069 84 84 84 255
0.020000009 -0.27843148 -0.3350001 0 0.7071067 0.7071069 84 84 84 255
-0 -0.35500005 -0.25843152 0 0.7071067 0.7071069 84 84 84 255
0.105 0.35499978 -0.26671574 0 -0.7071077 0.7071059 84 84 84 255
0.020000009 0.26671574 -0.35500005 0 -0.7071077 0.7071059 84 84 84 255
0.105 0.26671574 -0.35500005 0 -0.7071077 0.7071059 84 84 84 255
0.020000009 0.35499978 -0.26671574 0 -0.7071077 0.7071059 84 84 84 255
0.105 -0.37499997 0.26671574 -1 -0 -0 84 84 84 255
0.105 -0.35500005 0.2584313 -1 -0 -0 84 84 84 255
0.105 -0.37499997 -0.26671574 -1 -0 -0 84 84 84 255
0.105 -0.2867157 0.35500005 -1 -0 -0 84 84 84 255
0.105 -0.27843148 0.3349998 -1 -0 -0 84 84 84 255
0.105 0.26671574 0.35500005 -1 -0 -0 84 84 84 255
0.105 0.2584313 0.3349998 -1 -0 -0 84 84 84 255
0.105 0.3349998 0.2584313 -1 -0 -0 84 84 84 255
0.105 0.35499978 0.26671574 -1 -0 -0 84 84 84 255
0.105 0.3349998 -0.25843152 -1 -0 -0 84 84 84 255
0.105 -0.35500005 -0.25843152 -1 -0 -0 84 84 84 255
0.105 -0.2867157 -0.35500005 -1 -0 -0 84 84 84 255
0.105 -0.27843148 -0.3350001 -1 -0 -0 84 84 84 255
0.105 0.26671574 -0.35500005 -1 -0 -0 84 84 84 255
0.105 0.2584313 -0.3350001 -1 -0 -0 84 84 84 255
0.105 0.35499978 -0.26671574 -1 -0 -0 84 84 84 255
0.105 0.35499978 0.26671574 0 -1 -0 84 84 84 255
0.020000009 0.35499978 -0.26671574 0 -1 -0 84 84 84 255
0.105 0.35499978 -0.26671574 0 -1 -0 84 84 84 255
0.020000009 0.35499978 0.26671574 0 -1 -0 84 84 84 255
0.020000009 -0.37499997 -0.26671574 1 -0 -0 84 84 84 255
0.020000009 -0.35500005 -0.25843152 1 -0 -0 84 84 84 255
0.020000009 -0.37499997 0.26671574 1 -0 -0 84 84 84 255
0.020000009 -0.2867157 -0.35500005 1 -0 -0 84 84 84 255
0.020000009 -0.27843148 -0.3350001 1 -0 -0 84 84 84 255
0.020000009 0.26671574 -0.35500005 1 -0 -0 84 84 84 255
0.020000009 0.2584313 -0.3350001 1 -0 -0 84 84 84 255
0.020000009 0.3349998 -0.25843152 1 -0 -0 84 84 84 255
0.020000009 0.35499978 -0.26671574 1 -0 -0 84 84 84 255
0.020000009 0.3349998 0.2584313 1 -0 -0 84 84 84 255
0.020000009 -0.35500005 0.2584313 1 -0 -0 84 84 84 255
0.020000009 -0.2867157 0.35500005 1 -0 -0 84 84 84 255
0.020000009 -0.27843148 0.3349998 1 -0 -0 84 84 84 255
0.020000009 0.26671574 0.35500005 1 -0 -0 84 84 84 255
0.020000009 0.2584313 0.3349998 1 -0 -0 84 84 84 255
0.020000009 0.35499978 0.26671574 1 -0 -0 84 84 84 255
0.020000009 0.26671574 -0.35500005 0 -0 1 84 84 84 255
0.105 -0.2867157 -0.35500005 0 -0 1 84 84 84 255
0.105 0.26671574 -0.35500005 0 -0 1 84 84 84 255
0.020000009 -0.2867157 -0.35500005 0 -0 1 84 84 84 255
0.020000009 -0.2867157 -0.35500005 0 0.7071067 0.7071069 84 84 84 255
0.105 -0.37499997 -0.26671574 0 0.7071067 0.7071069 84 84 84 255
0.105 -0.2867157 -0.35500005 0 0.7071067 0.7071069 84 84 84 255
0.020000009 -0.37499997 -0.26671574 0 0.7071067 0.7071069 84 84 84 255
0.020000009 -0.37499997 0.26671574 0 1 -0 84 84 84 255
0.105 -0.37499997 -0.26671574 0 1 -0 84 84 84 255
0.020000009 -0.37499997 -0.26671574 0 1 -0 84 84 84 255
0.105 -0.37499997 0.26671574 0 1 -0 84 84 84 255
0.020000009 -0.2867157 0.35500005 0 0.70710677 -0.70710677 84 84 84 255
0.105 -0.37499997 0.26671574 0 0.70710677 -0.70710677 84 84 84 255
0.020000009 -0.37499997 0.26671574 0 0.70710677 -0.70710677 84 84 84 255
0.105 -0.2867157 0.35500005 0 0.70710677 -0.70710677 84 84 84 255
0.020000009 -0.2867157 0.35500005 0 -0 -1 84 84 84 255
0.105 0.26671574 0.35500005 0 -0 -1 84 84 84 255
0.105 -0.2867157 0.35500005 0 -0 -1 84 84 84 255
0.020000009 0.26671574 0.35500005 0 -0 -1 84 84 84 255
0.105 0.26671574 0.35500005 0 -0.7071078 -0.7071058 84 84 84 255
0.020000009 0.35499978 0.26671574 0 -0.7071078 -0.7071058 84 84 84 255
0.105 0.35499978 0.26671574 0 -0.7071078 -0.7071058 84 84 84 255
0.020000009 0.26671574 0.35500005 0 -0.7071078 -0.7071058 84 84 84 255
3 0 1 2
3 1 0 3
3 4 5 6
3 5 4 7
3 8 9 10
3 9 8 11
3 12 13 14
3 13 12 15
3 16 17 18
3 17 16 19
3 20 21 22
3 21 20 23
3 24 25 26
3 25 24 27
3 28 29 30
3 29 28 31
3 32 33 34
3 33 32 35
3 35 32 36
3 35 36 37
3 37 36 38
3 37 38 39
3 40 41 42
3 41 40 43
3 43 40 44
3 43 44 45
3 45 44 46
3 45 46 47
3 48 49 50
3 49 48 51
3 52 53 54
3 53 52 55
3 56 57 58
3 57 56 59
3 60 61 62
3 61 60 63
3 64 65 66
3 65 64 67
3 68 69 70
3 69 68 71
3 72 73 74
3 73 72 75
3 76 77 78
3 77 76 79
3 80 81 82
3 81 80 83
3 84 85 86
3 85 84 87
3 85 87 88
3 88 87 89
3 88 89 90
3 90 89 91
3 91 89 92
3 91 92 93
3 86 94 95
3 94 86 85
3 95 94 96
3 95 96 97
3 97 96 98
3 97 98 93
3 97 93 99
3 99 93 92
3 100 101 102
3 101 100 103
3 104 105 106
3 105 104 107
3 105 107 108
3 108 107 109
3 108 109 110
3 110 109 111
3 111 109 112
3 111 112 113
3 106 114 115
3 114 106 105
3 115 114 116
3 115 116 117
3 117 116 118
3 117 118 113
3 117 113 119
3 119 113 112
3 120 121 122
3 121 120 123
3 124 125 126
3 125 124 127
3 128 129 130
3 129 128 131
3 132 133 134
3 133 132 135
3 136 137 138
3 137 136 139
3 140 141 142
3 141 140 143

