ply
format ascii 1.0
commentY29udmVydGVyIGJ5IENvZGVMZW9wYXJk
comment Original mesh name: 'C:\Program Files (x86)\Steam\steamapps\common\Stormworks\rom\meshes\component_instrument_display_radial_dynamic.mesh'
comment SubMesh index: 0
comment SubMesh name: 'ID3'
comment Shader: Emissive (2)
element vertex 6
property float x
property float y
property float z
property float nx
property float ny
property float nz
property uchar red
property uchar green
property uchar blue
property uchar alpha
element face 4
property list uchar ushort vertex_index
end_header
-0.04428209 -0.016177462 0.12599999 0 -0 -1 255 255 0 255
-0.01 0 0.12599999 0 -0 -1 255 255 0 255
-0.009636619 -0.0018268329 0.12599999 0 -0 -1 255 255 0 255
-0.04428209 0.016177462 0.12599999 0 -0 -1 255 255 0 255
-0.009636619 0.0018268344 0.12599999 0 -0 -1 255 255 0 255
-0.047499992 0 0.12599999 0 -0 -1 255 255 0 255
3 0 1 2
3 1 3 4
3 3 1 0
3 3 0 5

