ply
format ascii 1.0
commentY29udmVydGVyIGJ5IENvZGVMZW9wYXJk
comment Original mesh name: 'C:\Program Files (x86)\Steam\steamapps\common\Stormworks\rom\meshes\component_window_angle_m_3x2x2.mesh'
comment SubMesh index: 1
comment SubMesh name: 'ID30'
comment Shader: Opaque (0)
element vertex 64
property float x
property float y
property float z
property float nx
property float ny
property float nz
property uchar red
property uchar green
property uchar blue
property uchar alpha
element face 40
property list uchar ushort vertex_index
end_header
-0.11085776 -0.35214278 0.11085776 -0.70710677 -4.0586325E-28 -0.70710677 160 160 199 128
0.36085775 0.35214278 -0.36085775 -0.70710677 -4.0586325E-28 -0.70710677 160 160 199 128
0.36085775 -0.35214278 -0.36085775 -0.70710677 -4.0586325E-28 -0.70710677 160 160 199 128
-0.11085776 0.35214278 0.11085776 -0.70710677 -4.0586325E-28 -0.70710677 160 160 199 128
0.33085784 -0.35214278 -0.36085775 0.7071068 -1.308959E-17 0.7071067 160 160 199 128
-0.11085776 0.35214278 0.08085782 0.7071068 -1.308959E-17 0.7071067 160 160 199 128
-0.11085776 -0.35214278 0.08085782 0.7071068 -1.308959E-17 0.7071067 160 160 199 128
0.33085784 0.35214278 -0.36085775 0.7071068 -1.308959E-17 0.7071067 160 160 199 128
0.37499997 -0.37499997 -0.37499997 -0.70710677 -1.661992E-28 -0.70710677 55 125 0 255
0.36085775 -0.35214278 -0.36085775 -0.70710677 -1.661992E-28 -0.70710677 55 125 0 255
0.37499997 0.37499997 -0.37499997 -0.70710677 -1.661992E-28 -0.70710677 55 125 0 255
-0.12499997 -0.37499997 0.12499997 -0.70710677 -1.661992E-28 -0.70710677 55 125 0 255
-0.11085776 -0.35214278 0.11085776 -0.70710677 -1.661992E-28 -0.70710677 55 125 0 255
-0.11085776 0.35214278 0.11085776 -0.70710677 -1.661992E-28 -0.70710677 55 125 0 255
0.36085775 0.35214278 -0.36085775 -0.70710677 -1.661992E-28 -0.70710677 55 125 0 255
-0.12499997 0.37499997 0.12499997 -0.70710677 -1.661992E-28 -0.70710677 55 125 0 255
-0.12499997 0.37499997 0.12499997 2.294629E-13 -1 -2.294619E-13 255 125 0 255
0.31500012 0.37499997 -0.37499997 2.294629E-13 -1 -2.294619E-13 255 125 0 255
0.37499997 0.37499997 -0.37499997 2.294629E-13 -1 -2.294619E-13 255 125 0 255
-0.12499997 0.37499997 0.06499984 2.294629E-13 -1 -2.294619E-13 255 125 0 255
-0.12499997 -0.37499997 0.06499984 1 -0 -0 255 125 0 255
-0.12499997 0.37499997 0.12499997 1 -0 -0 255 125 0 255
-0.12499997 -0.37499997 0.12499997 1 -0 -0 255 125 0 255
-0.12499997 0.37499997 0.06499984 1 -0 -0 255 125 0 255
0.31500012 0.37499997 -0.37499997 0.7071067 1.406156E-20 0.7071069 255 125 0 255
0.3008579 0.35214278 -0.36085775 0.7071067 1.406156E-20 0.7071069 255 125 0 255
0.31500012 -0.37499997 -0.37499997 0.7071067 1.406156E-20 0.7071069 255 125 0 255
-0.12499997 0.37499997 0.06499984 0.7071067 1.406156E-20 0.7071069 255 125 0 255
-0.11085776 0.35214278 0.050857883 0.7071067 1.406156E-20 0.7071069 255 125 0 255
-0.11085776 -0.35214278 0.050857883 0.7071067 1.406156E-20 0.7071069 255 125 0 255
0.3008579 -0.35214278 -0.36085775 0.7071067 1.406156E-20 0.7071069 255 125 0 255
-0.12499997 -0.37499997 0.06499984 0.7071067 1.406156E-20 0.7071069 255 125 0 255
0.31500012 0.37499997 -0.37499997 0 -0 1 255 125 0 255
0.37499997 -0.37499997 -0.37499997 0 -0 1 255 125 0 255
0.37499997 0.37499997 -0.37499997 0 -0 1 255 125 0 255
0.31500012 -0.37499997 -0.37499997 0 -0 1 255 125 0 255
-0.12499997 -0.37499997 0.06499984 3.569415E-13 1 3.168426E-13 255 125 0 255
0.37499997 -0.37499997 -0.37499997 3.569415E-13 1 3.168426E-13 255 125 0 255
0.31500012 -0.37499997 -0.37499997 3.569415E-13 1 3.168426E-13 255 125 0 255
-0.12499997 -0.37499997 0.12499997 3.569415E-13 1 3.168426E-13 255 125 0 255
-0.11085776 0.35214278 0.11085776 -1 -0 -0 255 125 0 255
-0.11085776 -0.35214278 0.08085782 -1 -0 -0 255 125 0 255
-0.11085776 -0.35214278 0.11085776 -1 -0 -0 255 125 0 255
-0.11085776 0.35214278 0.08085782 -1 -0 -0 255 125 0 255
-0.11085776 0.35214278 0.08085782 -2.368428E-13 1 2.368438E-13 255 125 0 255
0.36085775 0.35214278 -0.36085775 -2.368428E-13 1 2.368438E-13 255 125 0 255
0.33085784 0.35214278 -0.36085775 -2.368428E-13 1 2.368438E-13 255 125 0 255
-0.11085776 0.35214278 0.11085776 -2.368428E-13 1 2.368438E-13 255 125 0 255
-0.11085776 -0.35214278 0.050857883 -1 -0 -0 255 125 0 255
-0.11085776 0.35214278 0.050857883 -1 -0 -0 255 125 0 255
-0.11085776 -0.35214278 0.11085776 2.368428E-13 -1 -2.368438E-13 255 125 0 255
0.33085784 -0.35214278 -0.36085775 2.368428E-13 -1 -2.368438E-13 255 125 0 255
0.36085775 -0.35214278 -0.36085775 2.368428E-13 -1 -2.368438E-13 255 125 0 255
-0.11085776 -0.35214278 0.08085782 2.368428E-13 -1 -2.368438E-13 255 125 0 255
0.33085784 -0.35214278 -0.36085775 0 -0 -1 255 125 0 255
0.36085775 0.35214278 -0.36085775 0 -0 -1 255 125 0 255
0.36085775 -0.35214278 -0.36085775 0 -0 -1 255 125 0 255
0.33085784 0.35214278 -0.36085775 0 -0 -1 255 125 0 255
-0.11085776 0.35214278 0.050857883 -2.534541E-13 1 2.5345522E-13 255 125 0 255
0.3008579 0.35214278 -0.36085775 -2.534541E-13 1 2.5345522E-13 255 125 0 255
0.3008579 -0.35214278 -0.36085775 2.534541E-13 -1 -2.5345522E-13 255 125 0 255
-0.11085776 -0.35214278 0.050857883 2.534541E-13 -1 -2.5345522E-13 255 125 0 255
0.3008579 -0.35214278 -0.36085775 0 -0 -1 255 125 0 255
0.3008579 0.35214278 -0.36085775 0 -0 -1 255 125 0 255
3 8 9 10
3 9 8 11
3 9 11 12
3 12 11 13
3 10 14 15
3 14 10 9
3 15 14 13
3 15 13 11
3 16 17 18
3 17 16 19
3 20 21 22
3 21 20 23
3 24 25 26
3 25 24 27
3 25 27 28
3 28 27 29
3 26 30 31
3 30 26 25
3 31 30 29
3 31 29 27
3 32 33 34
3 33 32 35
3 36 37 38
3 37 36 39
3 40 41 42
3 41 40 43
3 44 45 46
3 45 44 47
3 43 48 41
3 48 43 49
3 50 51 52
3 51 50 53
3 54 55 56
3 55 54 57
3 58 46 59
3 46 58 44
3 53 60 51
3 60 53 61
3 62 57 54
3 57 62 63

