ply
format ascii 1.0
commentY29udmVydGVyIGJ5IENvZGVMZW9wYXJk
comment Original mesh name: 'C:\Program Files (x86)\Steam\steamapps\common\Stormworks\rom\meshes\component_inventory_equipment_strobe.mesh'
comment SubMesh index: 0
comment SubMesh name: 'ID34'
comment Shader: Opaque (0)
element vertex 336
property float x
property float y
property float z
property float nx
property float ny
property float nz
property uchar red
property uchar green
property uchar blue
property uchar alpha
element face 198
property list uchar ushort vertex_index
end_header
0.034000006 0.019870657 0.02325609 -0.8741517 -2.2790605E-15 -0.485653 30 30 30 255
0.017888457 0.039870672 0.052256078 -0.8741517 -2.2790605E-15 -0.485653 30 30 30 255
0.034000006 0.039870672 0.02325609 -0.8741517 -2.2790605E-15 -0.485653 30 30 30 255
0.017888457 0.019870657 0.052256078 -0.8741517 -2.2790605E-15 -0.485653 30 30 30 255
0.034000006 0.039870672 0.02325609 1.637026E-17 -1 4.826016E-15 30 30 30 255
0.03586363 0.039870672 -0.0058376035 1.637026E-17 -1 4.826016E-15 30 30 30 255
0.038999997 0.039870672 -0.0058376035 1.637026E-17 -1 4.826016E-15 30 30 30 255
0.03086364 0.039870672 0.02325609 1.637026E-17 -1 4.826016E-15 30 30 30 255
0.017888457 0.039870672 0.052256078 1.637026E-17 -1 4.826016E-15 30 30 30 255
0.015564078 0.039870672 0.049593143 1.637026E-17 -1 4.826016E-15 30 30 30 255
-0.0013717522 0.039870672 0.054194406 1.637026E-17 -1 4.826016E-15 30 30 30 255
-0.0013519911 0.039870672 0.051150903 1.637026E-17 -1 4.826016E-15 30 30 30 255
-0.016342282 0.039870672 0.04953145 1.637026E-17 -1 4.826016E-15 30 30 30 255
-0.018503213 0.039870672 0.05219441 1.637026E-17 -1 4.826016E-15 30 30 30 255
-0.032415144 0.039870672 0.022627208 1.637026E-17 -1 4.826016E-15 30 30 30 255
-0.035649866 0.039870672 0.022627208 1.637026E-17 -1 4.826016E-15 30 30 30 255
-0.036415137 0.039870672 -0.0058376035 1.637026E-17 -1 4.826016E-15 30 30 30 255
-0.039649855 0.039870672 -0.0058376035 1.637026E-17 -1 4.826016E-15 30 30 30 255
0.038999997 0.019870657 -0.0058376035 -0.98555166 -8.0202506E-16 -0.1693751 30 30 30 255
0.034000006 0.039870672 0.02325609 -0.98555166 -8.0202506E-16 -0.1693751 30 30 30 255
0.038999997 0.039870672 -0.0058376035 -0.98555166 -8.0202506E-16 -0.1693751 30 30 30 255
0.034000006 0.019870657 0.02325609 -0.98555166 -8.0202506E-16 -0.1693751 30 30 30 255
0.03586363 0.019870657 -0.0058376035 -1.443342E-15 1 -2.361671E-15 30 30 30 255
0.034000006 0.019870657 0.02325609 -1.443342E-15 1 -2.361671E-15 30 30 30 255
0.038999997 0.019870657 -0.0058376035 -1.443342E-15 1 -2.361671E-15 30 30 30 255
0.03086364 0.019870657 0.02325609 -1.443342E-15 1 -2.361671E-15 30 30 30 255
0.017888457 0.019870657 0.052256078 -1.443342E-15 1 -2.361671E-15 30 30 30 255
0.015564078 0.019870657 0.049593143 -1.443342E-15 1 -2.361671E-15 30 30 30 255
-0.0013717522 0.019870657 0.054194406 -1.443342E-15 1 -2.361671E-15 30 30 30 255
-0.0013519911 0.019870657 0.051150903 -1.443342E-15 1 -2.361671E-15 30 30 30 255
-0.016342282 0.019870657 0.04953147 -1.443342E-15 1 -2.361671E-15 30 30 30 255
-0.018503213 0.019870657 0.05219441 -1.443342E-15 1 -2.361671E-15 30 30 30 255
-0.032415144 0.019870657 0.022627208 -1.443342E-15 1 -2.361671E-15 30 30 30 255
-0.035649866 0.019870657 0.022627208 -1.443342E-15 1 -2.361671E-15 30 30 30 255
-0.036415137 0.019870657 -0.0058376035 -1.443342E-15 1 -2.361671E-15 30 30 30 255
-0.039649855 0.019870657 -0.0058376035 -1.443342E-15 1 -2.361671E-15 30 30 30 255
0.017888457 0.039870672 0.052256078 -0.1001323 -4.5494614E-15 -0.9949741 30 30 30 255
-0.0013717522 0.019870657 0.054194406 -0.1001323 -4.5494614E-15 -0.9949741 30 30 30 255
-0.0013717522 0.039870672 0.054194406 -0.1001323 -4.5494614E-15 -0.9949741 30 30 30 255
0.017888457 0.019870657 0.052256078 -0.1001323 -4.5494614E-15 -0.9949741 30 30 30 255
-0.018503213 0.039870672 0.05219441 0.8650606 -2.5572596E-15 -0.50166726 30 30 30 255
-0.035649866 0.019870657 0.022627208 0.8650606 -2.5572596E-15 -0.50166726 30 30 30 255
-0.035649866 0.039870672 0.022627208 0.8650606 -2.5572596E-15 -0.50166726 30 30 30 255
-0.018503213 0.019870657 0.05219441 0.8650606 -2.5572596E-15 -0.50166726 30 30 30 255
-0.035649866 0.039870672 0.022627208 0.9902704 -6.5944967E-16 -0.1391568 30 30 30 255
-0.039649855 0.019870657 -0.0058376035 0.9902704 -6.5944967E-16 -0.1391568 30 30 30 255
-0.039649855 0.039870672 -0.0058376035 0.9902704 -6.5944967E-16 -0.1391568 30 30 30 255
-0.035649866 0.019870657 0.022627208 0.9902704 -6.5944967E-16 -0.1391568 30 30 30 255
-0.036415137 0.019870657 -0.0058376035 -0.9902704 6.5944967E-16 0.1391568 30 30 30 255
-0.032415144 0.039870672 0.022627208 -0.9902704 6.5944967E-16 0.1391568 30 30 30 255
-0.036415137 0.039870672 -0.0058376035 -0.9902704 6.5944967E-16 0.1391568 30 30 30 255
-0.032415144 0.019870657 0.022627208 -0.9902704 6.5944967E-16 0.1391568 30 30 30 255
-0.032415144 0.019870657 0.022627208 -0.8584723 2.5914926E-15 0.5128599 30 30 30 255
-0.016342282 0.039870672 0.04953145 -0.8584723 2.5914926E-15 0.5128599 30 30 30 255
-0.032415144 0.039870672 0.022627208 -0.8584723 2.5914926E-15 0.5128599 30 30 30 255
-0.016342282 0.019870657 0.04953147 -0.8584723 2.5914926E-15 0.5128599 30 30 30 255
-0.016342282 0.039870672 0.04953145 -0.1074073 4.833464E-15 0.9942151 30 30 30 255
-0.0013519911 0.019870657 0.051150903 -0.1074073 4.833464E-15 0.9942151 30 30 30 255
-0.0013519911 0.039870672 0.051150903 -0.1074073 4.833464E-15 0.9942151 30 30 30 255
-0.016342282 0.019870657 0.04953147 -0.1074073 4.833464E-15 0.9942151 30 30 30 255
-0.0013519911 0.019870657 0.051150903 0.0916988 4.836808E-15 0.99578685 30 30 30 255
0.015564078 0.039870672 0.049593143 0.0916988 4.836808E-15 0.99578685 30 30 30 255
-0.0013519911 0.039870672 0.051150903 0.0916988 4.836808E-15 0.99578685 30 30 30 255
0.015564078 0.019870657 0.049593143 0.0916988 4.836808E-15 0.99578685 30 30 30 255
0.015564078 0.039870672 0.049593143 0.8646881 2.511999E-15 0.5023092 30 30 30 255
0.03086364 0.019870657 0.02325609 0.8646881 2.511999E-15 0.5023092 30 30 30 255
0.03086364 0.039870672 0.02325609 0.8646881 2.511999E-15 0.5023092 30 30 30 255
0.015564078 0.019870657 0.049593143 0.8646881 2.511999E-15 0.5023092 30 30 30 255
0.03086364 0.039870672 0.02325609 0.98555166 8.0202506E-16 0.1693751 30 30 30 255
0.03586363 0.019870657 -0.0058376035 0.98555166 8.0202506E-16 0.1693751 30 30 30 255
0.03586363 0.039870672 -0.0058376035 0.98555166 8.0202506E-16 0.1693751 30 30 30 255
0.03086364 0.019870657 0.02325609 0.98555166 8.0202506E-16 0.1693751 30 30 30 255
-0.0013717522 0.019870657 0.054194406 0.11595669 -4.827561E-15 -0.9932542 30 30 30 255
-0.018503213 0.039870672 0.05219441 0.11595669 -4.827561E-15 -0.9932542 30 30 30 255
-0.0013717522 0.039870672 0.054194406 0.11595669 -4.827561E-15 -0.9932542 30 30 30 255
-0.018503213 0.019870657 0.05219441 0.11595669 -4.827561E-15 -0.9932542 30 30 30 255
0.034000006 -0.040129345 0.02325609 -0.8741517 -2.2877536E-15 -0.485653 30 30 30 255
0.017888457 -0.020129347 0.052256078 -0.8741517 -2.2877536E-15 -0.485653 30 30 30 255
0.034000006 -0.020129347 0.02325609 -0.8741517 -2.2877536E-15 -0.485653 30 30 30 255
0.017888457 -0.040129345 0.052256078 -0.8741517 -2.2877536E-15 -0.485653 30 30 30 255
0.034000006 -0.020129347 0.02325609 1.5561799E-19 -1 4.8481985E-15 30 30 30 255
0.03586363 -0.020129347 -0.0058376035 1.5561799E-19 -1 4.8481985E-15 30 30 30 255
0.038999997 -0.020129347 -0.0058376035 1.5561799E-19 -1 4.8481985E-15 30 30 30 255
0.03086364 -0.020129347 0.02325609 1.5561799E-19 -1 4.8481985E-15 30 30 30 255
0.017888457 -0.020129347 0.052256078 1.5561799E-19 -1 4.8481985E-15 30 30 30 255
0.015564078 -0.020129347 0.049593143 1.5561799E-19 -1 4.8481985E-15 30 30 30 255
-0.0013717522 -0.020129347 0.054194406 1.5561799E-19 -1 4.8481985E-15 30 30 30 255
-0.0013519911 -0.020129347 0.051150903 1.5561799E-19 -1 4.8481985E-15 30 30 30 255
-0.016342282 -0.020129347 0.04953145 1.5561799E-19 -1 4.8481985E-15 30 30 30 255
-0.018503213 -0.020129347 0.05219441 1.5561799E-19 -1 4.8481985E-15 30 30 30 255
-0.032415144 -0.020129347 0.022627208 1.5561799E-19 -1 4.8481985E-15 30 30 30 255
-0.035649866 -0.020129347 0.022627208 1.5561799E-19 -1 4.8481985E-15 30 30 30 255
-0.036415137 -0.020129347 -0.0058376035 1.5561799E-19 -1 4.8481985E-15 30 30 30 255
-0.039649855 -0.020129347 -0.0058376035 1.5561799E-19 -1 4.8481985E-15 30 30 30 255
0.038999997 -0.040129345 -0.0058376035 -0.98555166 -8.0271227E-16 -0.1693751 30 30 30 255
0.034000006 -0.020129347 0.02325609 -0.98555166 -8.0271227E-16 -0.1693751 30 30 30 255
0.038999997 -0.020129347 -0.0058376035 -0.98555166 -8.0271227E-16 -0.1693751 30 30 30 255
0.034000006 -0.040129345 0.02325609 -0.98555166 -8.0271227E-16 -0.1693751 30 30 30 255
0.03586363 -0.040129345 -0.0058376035 -1.426956E-15 1 -2.3276019E-15 30 30 30 255
0.034000006 -0.040129345 0.02325609 -1.426956E-15 1 -2.3276019E-15 30 30 30 255
0.038999997 -0.040129345 -0.0058376035 -1.426956E-15 1 -2.3276019E-15 30 30 30 255
0.03086364 -0.040129345 0.02325609 -1.426956E-15 1 -2.3276019E-15 30 30 30 255
0.017888457 -0.040129345 0.052256078 -1.426956E-15 1 -2.3276019E-15 30 30 30 255
0.015564078 -0.040129345 0.049593143 -1.426956E-15 1 -2.3276019E-15 30 30 30 255
-0.0013717522 -0.040129345 0.054194406 -1.426956E-15 1 -2.3276019E-15 30 30 30 255
-0.0013519911 -0.040129345 0.051150903 -1.426956E-15 1 -2.3276019E-15 30 30 30 255
-0.016342282 -0.040129345 0.04953147 -1.426956E-15 1 -2.3276019E-15 30 30 30 255
-0.018503213 -0.040129345 0.05219441 -1.426956E-15 1 -2.3276019E-15 30 30 30 255
-0.032415144 -0.040129345 0.022627208 -1.426956E-15 1 -2.3276019E-15 30 30 30 255
-0.035649866 -0.040129345 0.022627208 -1.426956E-15 1 -2.3276019E-15 30 30 30 255
-0.036415137 -0.040129345 -0.0058376035 -1.426956E-15 1 -2.3276019E-15 30 30 30 255
-0.039649855 -0.040129345 -0.0058376035 -1.426956E-15 1 -2.3276019E-15 30 30 30 255
0.017888457 -0.020129347 0.052256078 -0.1001323 -4.552246E-15 -0.9949741 30 30 30 255
-0.0013717522 -0.040129345 0.054194406 -0.1001323 -4.552246E-15 -0.9949741 30 30 30 255
-0.0013717522 -0.020129347 0.054194406 -0.1001323 -4.552246E-15 -0.9949741 30 30 30 255
0.017888457 -0.040129345 0.052256078 -0.1001323 -4.552246E-15 -0.9949741 30 30 30 255
-0.018503213 -0.020129347 0.05219441 0.8650606 -2.496076E-15 -0.50166726 30 30 30 255
-0.035649866 -0.040129345 0.022627208 0.8650606 -2.496076E-15 -0.50166726 30 30 30 255
-0.035649866 -0.020129347 0.022627208 0.8650606 -2.496076E-15 -0.50166726 30 30 30 255
-0.018503213 -0.040129345 0.05219441 0.8650606 -2.496076E-15 -0.50166726 30 30 30 255
-0.035649866 -0.020129347 0.022627208 0.9902704 -6.656793E-16 -0.1391568 30 30 30 255
-0.039649855 -0.040129345 -0.0058376035 0.9902704 -6.656793E-16 -0.1391568 30 30 30 255
-0.039649855 -0.020129347 -0.0058376035 0.9902704 -6.656793E-16 -0.1391568 30 30 30 255
-0.035649866 -0.040129345 0.022627208 0.9902704 -6.656793E-16 -0.1391568 30 30 30 255
-0.036415137 -0.040129345 -0.0058376035 -0.9902704 6.656793E-16 0.1391568 30 30 30 255
-0.032415144 -0.020129347 0.022627208 -0.9902704 6.656793E-16 0.1391568 30 30 30 255
-0.036415137 -0.020129347 -0.0058376035 -0.9902704 6.656793E-16 0.1391568 30 30 30 255
-0.032415144 -0.040129345 0.022627208 -0.9902704 6.656793E-16 0.1391568 30 30 30 255
-0.032415144 -0.040129345 0.022627208 -0.8584723 2.5493174E-15 0.5128599 30 30 30 255
-0.016342282 -0.020129347 0.04953145 -0.8584723 2.5493174E-15 0.5128599 30 30 30 255
-0.032415144 -0.020129347 0.022627208 -0.8584723 2.5493174E-15 0.5128599 30 30 30 255
-0.016342282 -0.040129345 0.04953147 -0.8584723 2.5493174E-15 0.5128599 30 30 30 255
-0.016342282 -0.020129347 0.04953145 -0.1074073 4.83257E-15 0.9942151 30 30 30 255
-0.0013519911 -0.040129345 0.051150903 -0.1074073 4.83257E-15 0.9942151 30 30 30 255
-0.0013519911 -0.020129347 0.051150903 -0.1074073 4.83257E-15 0.9942151 30 30 30 255
-0.016342282 -0.040129345 0.04953147 -0.1074073 4.83257E-15 0.9942151 30 30 30 255
-0.0013519911 -0.040129345 0.051150903 0.0916988 4.839742E-15 0.99578685 30 30 30 255
0.015564078 -0.020129347 0.049593143 0.0916988 4.839742E-15 0.99578685 30 30 30 255
-0.0013519911 -0.020129347 0.051150903 0.0916988 4.839742E-15 0.99578685 30 30 30 255
0.015564078 -0.040129345 0.049593143 0.0916988 4.839742E-15 0.99578685 30 30 30 255
0.015564078 -0.020129347 0.049593143 0.8646881 2.5188255E-15 0.5023092 30 30 30 255
0.03086364 -0.040129345 0.02325609 0.8646881 2.5188255E-15 0.5023092 30 30 30 255
0.03086364 -0.020129347 0.02325609 0.8646881 2.5188255E-15 0.5023092 30 30 30 255
0.015564078 -0.040129345 0.049593143 0.8646881 2.5188255E-15 0.5023092 30 30 30 255
0.03086364 -0.020129347 0.02325609 0.98555166 7.916822E-16 0.1693751 30 30 30 255
0.03586363 -0.040129345 -0.0058376035 0.98555166 7.916822E-16 0.1693751 30 30 30 255
0.03586363 -0.020129347 -0.0058376035 0.98555166 7.916822E-16 0.1693751 30 30 30 255
0.03086364 -0.040129345 0.02325609 0.98555166 7.916822E-16 0.1693751 30 30 30 255
-0.0013717522 -0.040129345 0.054194406 0.11595669 -4.827561E-15 -0.9932542 30 30 30 255
-0.018503213 -0.020129347 0.05219441 0.11595669 -4.827561E-15 -0.9932542 30 30 30 255
-0.0013717522 -0.020129347 0.054194406 0.11595669 -4.827561E-15 -0.9932542 30 30 30 255
-0.018503213 -0.040129345 0.05219441 0.11595669 -4.827561E-15 -0.9932542 30 30 30 255
-0.016352007 -0.04666238 -0.005000002 0 6.279699E-16 1 141 141 141 255
0.015147988 0.0073375893 -0.005000002 0 6.279699E-16 1 141 141 141 255
-0.016352007 0.0073375893 -0.005000002 0 6.279699E-16 1 141 141 141 255
0.015147988 -0.04666238 -0.005000002 0 6.279699E-16 1 141 141 141 255
-0.03210202 0.0073375893 0.022279793 0.8660254 3.1398495E-16 0.5 141 141 141 255
-0.016352007 -0.04666238 -0.005000002 0.8660254 3.1398495E-16 0.5 141 141 141 255
-0.016352007 0.0073375893 -0.005000002 0.8660254 3.1398495E-16 0.5 141 141 141 255
-0.03210202 -0.04666238 0.022279793 0.8660254 3.1398495E-16 0.5 141 141 141 255
-0.012099507 -0.05482015 0.002365535 9.6848E-18 0.6701483 0.7422272 141 141 141 255
0.015147988 -0.04666238 -0.005000002 9.6848E-18 0.6701483 0.7422272 141 141 141 255
-0.016352007 -0.04666238 -0.005000002 9.6848E-18 0.6701483 0.7422272 141 141 141 255
0.010895502 -0.05482015 0.002365535 9.6848E-18 0.6701483 0.7422272 141 141 141 255
0.030898007 -0.04666238 0.022279793 -0.8660252 3.1398521E-16 0.5000004 141 141 141 255
0.015147988 0.0073375893 -0.005000002 -0.8660252 3.1398521E-16 0.5000004 141 141 141 255
0.015147988 -0.04666238 -0.005000002 -0.8660252 3.1398521E-16 0.5000004 141 141 141 255
0.030898007 0.0073375893 0.022279793 -0.8660252 3.1398521E-16 0.5000004 141 141 141 255
-0.016352007 -0.04666238 -0.005000002 0.6427874 0.6701486 0.3711135 141 141 141 255
-0.02359701 -0.05482015 0.022279793 0.6427874 0.6701486 0.3711135 141 141 141 255
-0.012099507 -0.05482015 0.002365535 0.6427874 0.6701486 0.3711135 141 141 141 255
-0.03210202 -0.04666238 0.022279793 0.6427874 0.6701486 0.3711135 141 141 141 255
-0.016352007 0.0073375893 0.049559593 0.8660254 -3.1398495E-16 -0.5 141 141 141 255
-0.03210202 -0.04666238 0.022279793 0.8660254 -3.1398495E-16 -0.5 141 141 141 255
-0.03210202 0.0073375893 0.022279793 0.8660254 -3.1398495E-16 -0.5 141 141 141 255
-0.016352007 -0.04666238 0.049559593 0.8660254 -3.1398495E-16 -0.5 141 141 141 255
0.010895502 -0.05482015 0.002365535 0 1 -6.279699E-16 141 141 141 255
0.016032944 -0.05482015 0.022279793 0 1 -6.279699E-16 141 141 141 255
0.022392984 -0.05482015 0.022279793 0 1 -6.279699E-16 141 141 141 255
0.0077154706 -0.05482015 0.007873491 0 1 -6.279699E-16 141 141 141 255
-0.012099507 -0.05482015 0.002365535 0 1 -6.279699E-16 141 141 141 255
-0.008919499 -0.05482015 0.007873491 0 1 -6.279699E-16 141 141 141 255
-0.017236969 -0.05482015 0.022279793 0 1 -6.279699E-16 141 141 141 255
-0.02359701 -0.05482015 0.022279793 0 1 -6.279699E-16 141 141 141 255
0.010895502 -0.05482015 0.04219405 0 1 -6.279699E-16 141 141 141 255
0.0077154706 -0.05482015 0.03668608 0 1 -6.279699E-16 141 141 141 255
-0.012099507 -0.05482015 0.04219405 0 1 -6.279699E-16 141 141 141 255
-0.008919499 -0.05482015 0.03668608 0 1 -6.279699E-16 141 141 141 255
0.015147988 -0.04666238 -0.005000002 -0.64278734 0.6701486 0.37111348 141 141 141 255
0.022392984 -0.05482015 0.022279793 -0.64278734 0.6701486 0.37111348 141 141 141 255
0.030898007 -0.04666238 0.022279793 -0.64278734 0.6701486 0.37111348 141 141 141 255
0.010895502 -0.05482015 0.002365535 -0.64278734 0.6701486 0.37111348 141 141 141 255
0.015147988 -0.04666238 0.049559593 -0.8660252 -3.1398521E-16 -0.5000004 141 141 141 255
0.030898007 0.0073375893 0.022279793 -0.8660252 -3.1398521E-16 -0.5000004 141 141 141 255
0.030898007 -0.04666238 0.022279793 -0.8660252 -3.1398521E-16 -0.5000004 141 141 141 255
0.015147988 0.0073375893 0.049559593 -0.8660252 -3.1398521E-16 -0.5000004 141 141 141 255
-0.02359701 -0.05482015 0.022279793 0.6427873 0.6701487 -0.3711135 141 141 141 255
-0.016352007 -0.04666238 0.049559593 0.6427873 0.6701487 -0.3711135 141 141 141 255
-0.012099507 -0.05482015 0.04219405 0.6427873 0.6701487 -0.3711135 141 141 141 255
-0.03210202 -0.04666238 0.022279793 0.6427873 0.6701487 -0.3711135 141 141 141 255
0.015147988 -0.04666238 0.049559593 2.506637E-15 -6.279699E-16 -1 141 141 141 255
-0.016352007 0.0073375893 0.049559593 2.506637E-15 -6.279699E-16 -1 141 141 141 255
0.015147988 0.0073375893 0.049559593 2.506637E-15 -6.279699E-16 -1 141 141 141 255
-0.016352007 -0.04666238 0.049559593 2.506637E-15 -6.279699E-16 -1 141 141 141 255
0.010895502 -0.05482015 0.04219405 1.2155331E-15 0.67014873 -0.7422269 141 141 141 255
-0.016352007 -0.04666238 0.049559593 1.2155331E-15 0.67014873 -0.7422269 141 141 141 255
0.015147988 -0.04666238 0.049559593 1.2155331E-15 0.67014873 -0.7422269 141 141 141 255
-0.012099507 -0.05482015 0.04219405 1.2155331E-15 0.67014873 -0.7422269 141 141 141 255
0.022392984 -0.05482015 0.022279793 -0.6427872 0.6701488 -0.3711134 141 141 141 255
0.015147988 -0.04666238 0.049559593 -0.6427872 0.6701488 -0.3711134 141 141 141 255
0.030898007 -0.04666238 0.022279793 -0.6427872 0.6701488 -0.3711134 141 141 141 255
0.010895502 -0.05482015 0.04219405 -0.6427872 0.6701488 -0.3711134 141 141 141 255
0.013415497 0.0658376 0.04655881 0 -1 6.279699E-16 255 255 255 255
0.013415497 0.0658376 -0.001999239 0 -1 6.279699E-16 255 255 255 255
0.027432987 0.0658376 0.022279793 0 -1 6.279699E-16 255 255 255 255
-0.014619508 0.0658376 0.04655881 0 -1 6.279699E-16 255 255 255 255
-0.014619508 0.0658376 -0.001999239 0 -1 6.279699E-16 255 255 255 255
-0.028637001 0.0658376 0.022279793 0 -1 6.279699E-16 255 255 255 255
-0.016352007 0.061337605 -0.005000002 -3.6627293E-18 -0.5547979 0.8319851 255 255 255 255
0.013415497 0.0658376 -0.001999239 -3.6627293E-18 -0.5547979 0.8319851 255 255 255 255
-0.014619508 0.0658376 -0.001999239 -3.6627293E-18 -0.5547979 0.8319851 255 255 255 255
0.015147988 0.061337605 -0.005000002 -3.6627293E-18 -0.5547979 0.8319851 255 255 255 255
0.030898007 0.061337605 0.022279793 -0.72051954 -0.55479896 0.41599226 255 255 255 255
0.013415497 0.0658376 -0.001999239 -0.72051954 -0.55479896 0.41599226 255 255 255 255
0.015147988 0.061337605 -0.005000002 -0.72051954 -0.55479896 0.41599226 255 255 255 255
0.027432987 0.0658376 0.022279793 -0.72051954 -0.55479896 0.41599226 255 255 255 255
0.015147988 0.061337605 0.049559593 -0.7205193 -0.5547995 -0.4159922 255 255 255 255
0.027432987 0.0658376 0.022279793 -0.7205193 -0.5547995 -0.4159922 255 255 255 255
0.030898007 0.061337605 0.022279793 -0.7205193 -0.5547995 -0.4159922 255 255 255 255
0.013415497 0.0658376 0.04655881 -0.7205193 -0.5547995 -0.4159922 255 255 255 255
0.015147988 0.061337605 0.049559593 1.165077E-15 -0.5547997 -0.831984 255 255 255 255
-0.014619508 0.0658376 0.04655881 1.165077E-15 -0.5547997 -0.831984 255 255 255 255
0.013415497 0.0658376 0.04655881 1.165077E-15 -0.5547997 -0.831984 255 255 255 255
-0.016352007 0.061337605 0.049559593 1.165077E-15 -0.5547997 -0.831984 255 255 255 255
-0.014619508 0.0658376 0.04655881 0.72051924 -0.55479974 -0.41599202 255 255 255 255
-0.03210202 0.061337605 0.022279793 0.72051924 -0.55479974 -0.41599202 255 255 255 255
-0.028637001 0.0658376 0.022279793 0.72051924 -0.55479974 -0.41599202 255 255 255 255
-0.016352007 0.061337605 0.049559593 0.72051924 -0.55479974 -0.41599202 255 255 255 255
-0.014619508 0.0658376 -0.001999239 0.7205195 -0.5547993 0.4159921 255 255 255 255
-0.03210202 0.061337605 0.022279793 0.7205195 -0.5547993 0.4159921 255 255 255 255
-0.016352007 0.061337605 -0.005000002 0.7205195 -0.5547993 0.4159921 255 255 255 255
-0.028637001 0.0658376 0.022279793 0.7205195 -0.5547993 0.4159921 255 255 255 255
-0.016352007 0.0073375893 -0.005000002 0 6.279699E-16 1 255 255 255 255
0.015147988 0.061337605 -0.005000002 0 6.279699E-16 1 255 255 255 255
-0.016352007 0.061337605 -0.005000002 0 6.279699E-16 1 255 255 255 255
0.015147988 0.0073375893 -0.005000002 0 6.279699E-16 1 255 255 255 255
0.030898007 0.0073375893 0.022279793 -0.8660252 3.0334892E-16 0.5000004 255 255 255 255
0.015147988 0.061337605 -0.005000002 -0.8660252 3.0334892E-16 0.5000004 255 255 255 255
0.015147988 0.0073375893 -0.005000002 -0.8660252 3.0334892E-16 0.5000004 255 255 255 255
0.030898007 0.061337605 0.022279793 -0.8660252 3.0334892E-16 0.5000004 255 255 255 255
0.015147988 0.0073375893 0.049559593 -0.8660252 -3.2626695E-16 -0.5000004 255 255 255 255
0.030898007 0.061337605 0.022279793 -0.8660252 -3.2626695E-16 -0.5000004 255 255 255 255
0.030898007 0.0073375893 0.022279793 -0.8660252 -3.2626695E-16 -0.5000004 255 255 255 255
0.015147988 0.061337605 0.049559593 -0.8660252 -3.2626695E-16 -0.5000004 255 255 255 255
0.015147988 0.0073375893 0.049559593 2.506637E-15 -6.279699E-16 -1 255 255 255 255
-0.016352007 0.061337605 0.049559593 2.506637E-15 -6.279699E-16 -1 255 255 255 255
0.015147988 0.061337605 0.049559593 2.506637E-15 -6.279699E-16 -1 255 255 255 255
-0.016352007 0.0073375893 0.049559593 2.506637E-15 -6.279699E-16 -1 255 255 255 255
-0.016352007 0.061337605 0.049559593 0.8660254 -3.1398495E-16 -0.5 255 255 255 255
-0.03210202 0.0073375893 0.022279793 0.8660254 -3.1398495E-16 -0.5 255 255 255 255
-0.03210202 0.061337605 0.022279793 0.8660254 -3.1398495E-16 -0.5 255 255 255 255
-0.016352007 0.0073375893 0.049559593 0.8660254 -3.1398495E-16 -0.5 255 255 255 255
-0.03210202 0.061337605 0.022279793 0.8660254 3.1398495E-16 0.5 255 255 255 255
-0.016352007 0.0073375893 -0.005000002 0.8660254 3.1398495E-16 0.5 255 255 255 255
-0.016352007 0.061337605 -0.005000002 0.8660254 3.1398495E-16 0.5 255 255 255 255
-0.03210202 0.0073375893 0.022279793 0.8660254 3.1398495E-16 0.5 255 255 255 255
0.0077154706 -0.059820134 0.007873491 0 1 -6.279699E-16 176 33 33 255
0.0077154706 -0.059820134 0.03668608 0 1 -6.279699E-16 176 33 33 255
0.016032944 -0.059820134 0.022279793 0 1 -6.279699E-16 176 33 33 255
0.0023979822 -0.059820134 0.007873491 0 1 -6.279699E-16 176 33 33 255
0.0023979822 -0.059820134 0.03668608 0 1 -6.279699E-16 176 33 33 255
0.0077154706 -0.059820134 0.03668608 -0.8660255 -3.1398482E-16 -0.49999976 176 33 33 255
0.016032944 -0.05482015 0.022279793 -0.8660255 -3.1398482E-16 -0.49999976 176 33 33 255
0.016032944 -0.059820134 0.022279793 -0.8660255 -3.1398482E-16 -0.49999976 176 33 33 255
0.0077154706 -0.05482015 0.03668608 -0.8660255 -3.1398482E-16 -0.49999976 176 33 33 255
0.016032944 -0.059820134 0.022279793 -0.8660256 3.139847E-16 0.4999996 176 33 33 255
0.0077154706 -0.05482015 0.007873491 -0.8660256 3.139847E-16 0.4999996 176 33 33 255
0.0077154706 -0.059820134 0.007873491 -0.8660256 3.139847E-16 0.4999996 176 33 33 255
0.016032944 -0.05482015 0.022279793 -0.8660256 3.139847E-16 0.4999996 176 33 33 255
0.0023979822 -0.06982014 0.03668608 -1 -0 -0 176 33 33 255
0.0023979822 -0.059820134 0.007873491 -1 -0 -0 176 33 33 255
0.0023979822 -0.06982014 0.007873491 -1 -0 -0 176 33 33 255
0.0023979822 -0.059820134 0.03668608 -1 -0 -0 176 33 33 255
0.0077154706 -0.059820134 0.03668608 -3.3904082E-16 -6.279699E-16 -1 176 33 33 255
-0.008919499 -0.05482015 0.03668608 -3.3904082E-16 -6.279699E-16 -1 176 33 33 255
0.0077154706 -0.05482015 0.03668608 -3.3904082E-16 -6.279699E-16 -1 176 33 33 255
-0.008919499 -0.059820134 0.03668608 -3.3904082E-16 -6.279699E-16 -1 176 33 33 255
-0.008919499 -0.059820134 0.007873491 0 6.279699E-16 1 176 33 33 255
0.0077154706 -0.05482015 0.007873491 0 6.279699E-16 1 176 33 33 255
-0.008919499 -0.05482015 0.007873491 0 6.279699E-16 1 176 33 33 255
0.0077154706 -0.059820134 0.007873491 0 6.279699E-16 1 176 33 33 255
-0.0036020118 -0.06982014 0.007873491 0 6.279699E-16 1 176 33 33 255
0.0023979822 -0.059820134 0.007873491 0 6.279699E-16 1 176 33 33 255
-0.0036020118 -0.059820134 0.007873491 0 6.279699E-16 1 176 33 33 255
0.0023979822 -0.06982014 0.007873491 0 6.279699E-16 1 176 33 33 255
0.0023979822 -0.06982014 0.007873491 0 1 -6.279699E-16 176 33 33 255
0.00088206725 -0.06982014 0.022279793 0 1 -6.279699E-16 176 33 33 255
0.0023979822 -0.06982014 0.03668608 0 1 -6.279699E-16 176 33 33 255
-0.0036020118 -0.06982014 0.007873491 0 1 -6.279699E-16 176 33 33 255
-0.0020860978 -0.06982014 0.022279793 0 1 -6.279699E-16 176 33 33 255
-0.0020860978 -0.06982014 0.03668608 0 1 -6.279699E-16 176 33 33 255
-0.0036020118 -0.06982014 0.03668608 0 1 -6.279699E-16 176 33 33 255
0.00088206725 -0.06982014 0.03668608 0 1 -6.279699E-16 176 33 33 255
0.0023979822 -0.06982014 0.03668608 0 -6.279699E-16 -1 176 33 33 255
0.00088206725 -0.059820134 0.03668608 0 -6.279699E-16 -1 176 33 33 255
0.0023979822 -0.059820134 0.03668608 0 -6.279699E-16 -1 176 33 33 255
0.00088206725 -0.06982014 0.03668608 0 -6.279699E-16 -1 176 33 33 255
-0.008919499 -0.05482015 0.03668608 0.8660257 -3.139847E-16 -0.4999996 176 33 33 255
-0.017236969 -0.059820134 0.022279793 0.8660257 -3.139847E-16 -0.4999996 176 33 33 255
-0.017236969 -0.05482015 0.022279793 0.8660257 -3.139847E-16 -0.4999996 176 33 33 255
-0.008919499 -0.059820134 0.03668608 0.8660257 -3.139847E-16 -0.4999996 176 33 33 255
-0.017236969 -0.05482015 0.022279793 0.8660257 3.1398453E-16 0.49999937 176 33 33 255
-0.008919499 -0.059820134 0.007873491 0.8660257 3.1398453E-16 0.49999937 176 33 33 255
-0.008919499 -0.05482015 0.007873491 0.8660257 3.1398453E-16 0.49999937 176 33 33 255
-0.017236969 -0.059820134 0.022279793 0.8660257 3.1398453E-16 0.49999937 176 33 33 255
-0.0036020118 -0.059820134 0.03668608 1 -0 -0 176 33 33 255
-0.0036020118 -0.06982014 0.007873491 1 -0 -0 176 33 33 255
-0.0036020118 -0.059820134 0.007873491 1 -0 -0 176 33 33 255
-0.0036020118 -0.06982014 0.03668608 1 -0 -0 176 33 33 255
-0.0020860978 -0.06982014 0.03668608 -3.720481E-15 -6.279699E-16 -1 176 33 33 255
-0.0036020118 -0.059820134 0.03668608 -3.720481E-15 -6.279699E-16 -1 176 33 33 255
-0.0020860978 -0.059820134 0.03668608 -3.720481E-15 -6.279699E-16 -1 176 33 33 255
-0.0036020118 -0.06982014 0.03668608 -3.720481E-15 -6.279699E-16 -1 176 33 33 255
-0.008919499 -0.059820134 0.007873491 0 1 -6.279699E-16 176 33 33 255
-0.0036020118 -0.059820134 0.03668608 0 1 -6.279699E-16 176 33 33 255
-0.0036020118 -0.059820134 0.007873491 0 1 -6.279699E-16 176 33 33 255
-0.008919499 -0.059820134 0.03668608 0 1 -6.279699E-16 176 33 33 255
-0.017236969 -0.059820134 0.022279793 0 1 -6.279699E-16 176 33 33 255
0.00088206725 -0.06982014 0.03668608 0 -6.279699E-16 -1 255 255 255 255
-0.0020860978 -0.059820134 0.03668608 0 -6.279699E-16 -1 255 255 255 255
0.00088206725 -0.059820134 0.03668608 0 -6.279699E-16 -1 255 255 255 255
-0.0020860978 -0.06982014 0.03668608 0 -6.279699E-16 -1 255 255 255 255
-0.0020860978 -0.06982014 0.022279793 0 1 -6.279699E-16 255 255 255 255
0.00088206725 -0.06982014 0.03668608 0 1 -6.279699E-16 255 255 255 255
0.00088206725 -0.06982014 0.022279793 0 1 -6.279699E-16 255 255 255 255
-0.0020860978 -0.06982014 0.03668608 0 1 -6.279699E-16 255 255 255 255
3 0 1 2
3 1 0 3
3 4 5 6
3 5 4 7
3 7 4 8
3 7 8 9
3 9 8 10
3 9 10 11
3 11 10 12
3 12 10 13
3 12 13 14
3 14 13 15
3 14 15 16
3 16 15 17
3 18 19 20
3 19 18 21
3 22 23 24
3 23 22 25
3 23 25 26
3 26 25 27
3 26 27 28
3 28 27 29
3 28 29 30
3 28 30 31
3 31 30 32
3 31 32 33
3 33 32 34
3 33 34 35
3 36 37 38
3 37 36 39
3 40 41 42
3 41 40 43
3 44 45 46
3 45 44 47
3 48 49 50
3 49 48 51
3 52 53 54
3 53 52 55
3 56 57 58
3 57 56 59
3 60 61 62
3 61 60 63
3 64 65 66
3 65 64 67
3 68 69 70
3 69 68 71
3 72 73 74
3 73 72 75
3 76 77 78
3 77 76 79
3 80 81 82
3 81 80 83
3 83 80 84
3 83 84 85
3 85 84 86
3 85 86 87
3 87 86 88
3 88 86 89
3 88 89 90
3 90 89 91
3 90 91 92
3 92 91 93
3 94 95 96
3 95 94 97
3 98 99 100
3 99 98 101
3 99 101 102
3 102 101 103
3 102 103 104
3 104 103 105
3 104 105 106
3 104 106 107
3 107 106 108
3 107 108 109
3 109 108 110
3 109 110 111
3 112 113 114
3 113 112 115
3 116 117 118
3 117 116 119
3 120 121 122
3 121 120 123
3 124 125 126
3 125 124 127
3 128 129 130
3 129 128 131
3 132 133 134
3 133 132 135
3 136 137 138
3 137 136 139
3 140 141 142
3 141 140 143
3 144 145 146
3 145 144 147
3 148 149 150
3 149 148 151
3 152 153 154
3 153 152 155
3 156 157 158
3 157 156 159
3 160 161 162
3 161 160 163
3 164 165 166
3 165 164 167
3 168 169 170
3 169 168 171
3 172 173 174
3 173 172 175
3 176 177 178
3 177 176 179
3 179 176 180
3 179 180 181
3 181 180 182
3 182 180 183
3 177 184 178
3 184 177 185
3 184 185 186
3 186 185 187
3 186 187 182
3 186 182 183
3 188 189 190
3 189 188 191
3 192 193 194
3 193 192 195
3 196 197 198
3 197 196 199
3 200 201 202
3 201 200 203
3 204 205 206
3 205 204 207
3 208 209 210
3 209 208 211
3 212 213 214
3 213 212 215
3 213 215 216
3 216 215 217
3 218 219 220
3 219 218 221
3 222 223 224
3 223 222 225
3 226 227 228
3 227 226 229
3 230 231 232
3 231 230 233
3 234 235 236
3 235 234 237
3 238 239 240
3 239 238 241
3 242 243 244
3 243 242 245
3 246 247 248
3 247 246 249
3 250 251 252
3 251 250 253
3 254 255 256
3 255 254 257
3 258 259 260
3 259 258 261
3 262 263 264
3 263 262 265
3 266 267 268
3 267 266 269
3 267 269 270
3 271 272 273
3 272 271 274
3 275 276 277
3 276 275 278
3 279 280 281
3 280 279 282
3 283 284 285
3 284 283 286
3 287 288 289
3 288 287 290
3 291 292 293
3 292 291 294
3 295 296 297
3 296 295 298
3 296 298 299
3 299 298 300
3 300 298 301
3 302 297 296
3 303 304 305
3 304 303 306
3 307 308 309
3 308 307 310
3 311 312 313
3 312 311 314
3 315 316 317
3 316 315 318
3 319 320 321
3 320 319 322
3 323 324 325
3 324 323 326
3 326 323 327
3 328 329 330
3 329 328 331
3 332 333 334
3 333 332 335

