ply
format ascii 1.0
commentY29udmVydGVyIGJ5IENvZGVMZW9wYXJk
comment Original mesh name: 'C:\Program Files (x86)\Steam\steamapps\common\Stormworks\rom\meshes\component_parachute_content.mesh'
comment SubMesh index: 0
comment SubMesh name: 'ID3'
comment Shader: Opaque (0)
element vertex 48
property float x
property float y
property float z
property float nx
property float ny
property float nz
property uchar red
property uchar green
property uchar blue
property uchar alpha
element face 28
property list uchar ushort vertex_index
end_header
0.11671577 0.35500005 -0.024999999 0 -0 1 255 125 0 255
0.35500005 -0.11671577 -0.024999999 0 -0 1 255 125 0 255
0.35500005 0.11671577 -0.024999999 0 -0 1 255 125 0 255
0.11671577 -0.35500005 -0.024999999 0 -0 1 255 125 0 255
-0.11671577 0.35500005 -0.024999999 0 -0 1 255 125 0 255
-0.11671577 -0.35500005 -0.024999999 0 -0 1 255 125 0 255
-0.35500005 0.11671577 -0.024999999 0 -0 1 255 125 0 255
-0.35500005 -0.11671577 -0.024999999 0 -0 1 255 125 0 255
-0.2662499 0.08753678 0.074999996 0.54306746 -0.54306746 -0.64043367 255 125 0 255
-0.11671577 0.35500005 -0.024999999 0.54306746 -0.54306746 -0.64043367 255 125 0 255
-0.08753678 0.2662499 0.074999996 0.54306746 -0.54306746 -0.64043367 255 125 0 255
-0.35500005 0.11671577 -0.024999999 0.54306746 -0.54306746 -0.64043367 255 125 0 255
-0.35500005 0.11671577 -0.024999999 0.74792486 2.8440365E-17 -0.6637833 255 125 0 255
-0.2662499 -0.08753678 0.074999996 0.74792486 2.8440365E-17 -0.6637833 255 125 0 255
-0.35500005 -0.11671577 -0.024999999 0.74792486 2.8440365E-17 -0.6637833 255 125 0 255
-0.2662499 0.08753678 0.074999996 0.74792486 2.8440365E-17 -0.6637833 255 125 0 255
-0.11671577 -0.35500005 -0.024999999 0.54306746 0.54306746 -0.64043367 255 125 0 255
-0.2662499 -0.08753678 0.074999996 0.54306746 0.54306746 -0.64043367 255 125 0 255
-0.08753678 -0.26625007 0.074999996 0.54306746 0.54306746 -0.64043367 255 125 0 255
-0.35500005 -0.11671577 -0.024999999 0.54306746 0.54306746 -0.64043367 255 125 0 255
-0.08753678 -0.26625007 0.074999996 -6.0404322E-18 0.74792486 -0.6637833 255 125 0 255
0.11671577 -0.35500005 -0.024999999 -6.0404322E-18 0.74792486 -0.6637833 255 125 0 255
-0.11671577 -0.35500005 -0.024999999 -6.0404322E-18 0.74792486 -0.6637833 255 125 0 255
0.08753678 -0.26625007 0.074999996 -6.0404322E-18 0.74792486 -0.6637833 255 125 0 255
0.11671577 -0.35500005 -0.024999999 -0.54306746 0.54306746 -0.64043367 255 125 0 255
0.26625007 -0.08753678 0.074999996 -0.54306746 0.54306746 -0.64043367 255 125 0 255
0.35500005 -0.11671577 -0.024999999 -0.54306746 0.54306746 -0.64043367 255 125 0 255
0.08753678 -0.26625007 0.074999996 -0.54306746 0.54306746 -0.64043367 255 125 0 255
0.26625007 -0.08753678 0.074999996 -0.74792486 8.305596E-18 -0.6637833 255 125 0 255
0.35500005 0.11671577 -0.024999999 -0.74792486 8.305596E-18 -0.6637833 255 125 0 255
0.35500005 -0.11671577 -0.024999999 -0.74792486 8.305596E-18 -0.6637833 255 125 0 255
0.26625007 0.08753678 0.074999996 -0.74792486 8.305596E-18 -0.6637833 255 125 0 255
0.26625007 0.08753678 0.074999996 -0.54306746 -0.54306746 -0.64043367 255 125 0 255
0.11671577 0.35500005 -0.024999999 -0.54306746 -0.54306746 -0.64043367 255 125 0 255
0.35500005 0.11671577 -0.024999999 -0.54306746 -0.54306746 -0.64043367 255 125 0 255
0.08753678 0.2662499 0.074999996 -0.54306746 -0.54306746 -0.64043367 255 125 0 255
0.08753678 0.2662499 0.074999996 1.1829178E-17 -0.74792486 -0.6637833 255 125 0 255
-0.11671577 0.35500005 -0.024999999 1.1829178E-17 -0.74792486 -0.6637833 255 125 0 255
0.11671577 0.35500005 -0.024999999 1.1829178E-17 -0.74792486 -0.6637833 255 125 0 255
-0.08753678 0.2662499 0.074999996 1.1829178E-17 -0.74792486 -0.6637833 255 125 0 255
0.08753678 -0.26625007 0.074999996 0 -0 -1 255 125 0 255
0.26625007 0.08753678 0.074999996 0 -0 -1 255 125 0 255
0.26625007 -0.08753678 0.074999996 0 -0 -1 255 125 0 255
0.08753678 0.2662499 0.074999996 0 -0 -1 255 125 0 255
-0.08753678 -0.26625007 0.074999996 0 -0 -1 255 125 0 255
-0.08753678 0.2662499 0.074999996 0 -0 -1 255 125 0 255
-0.2662499 -0.08753678 0.074999996 0 -0 -1 255 125 0 255
-0.2662499 0.08753678 0.074999996 0 -0 -1 255 125 0 255
3 0 1 2
3 1 0 3
3 3 0 4
3 3 4 5
3 5 4 6
3 5 6 7
3 8 9 10
3 9 8 11
3 12 13 14
3 13 12 15
3 16 17 18
3 17 16 19
3 20 21 22
3 21 20 23
3 24 25 26
3 25 24 27
3 28 29 30
3 29 28 31
3 32 33 34
3 33 32 35
3 36 37 38
3 37 36 39
3 40 41 42
3 41 40 43
3 43 40 44
3 43 44 45
3 45 44 46
3 45 46 47

