ply
format ascii 1.0
commentY29udmVydGVyIGJ5IENvZGVMZW9wYXJk
comment Original mesh name: 'C:\Program Files (x86)\Steam\steamapps\common\Stormworks\rom\meshes\component_gate_invert.mesh'
comment SubMesh index: 0
comment SubMesh name: 'ID18'
comment Shader: Opaque (0)
element vertex 152
property float x
property float y
property float z
property float nx
property float ny
property float nz
property uchar red
property uchar green
property uchar blue
property uchar alpha
element face 106
property list uchar ushort vertex_index
end_header
-0.005 0.175 0.094999984 0 -0 -1 86 86 86 255
0.005 0.18832691 0.094999984 0 -0 -1 86 86 86 255
0.005 0.175 0.094999984 0 -0 -1 86 86 86 255
-0.005 0.18832691 0.094999984 0 -0 -1 86 86 86 255
0.024999999 0.30832702 0.094999984 0 -0 -1 86 86 86 255
0.024999999 0.18832691 0.094999984 0 -0 -1 86 86 86 255
-0.024999999 0.30832702 0.094999984 0 -0 -1 86 86 86 255
-0.024999999 0.18832691 0.094999984 0 -0 -1 86 86 86 255
0.03999999 0.125 0.094999984 0 -0 -1 86 86 86 255
0.049999997 0.125 0.094999984 0 -0 -1 86 86 86 255
0.03999999 0.085 0.094999984 0 -0 -1 86 86 86 255
0.049999997 0.074999996 0.094999984 0 -0 -1 86 86 86 255
0.005 0.074999996 0.094999984 0 -0 -1 86 86 86 255
-0.03999999 0.085 0.094999984 0 -0 -1 86 86 86 255
-0.005 0.074999996 0.094999984 0 -0 -1 86 86 86 255
-0.049999997 0.074999996 0.094999984 0 -0 -1 86 86 86 255
-0.03999999 0.125 0.094999984 0 -0 -1 86 86 86 255
-0.049999997 0.125 0.094999984 0 -0 -1 86 86 86 255
-0.005 0.061999995 0.094999984 0 -0 -1 86 86 86 255
0.005 0.061999995 0.094999984 0 -0 -1 86 86 86 255
-0.024999999 -0.058000006 0.094999984 0 -0 -1 86 86 86 255
0.024999999 0.061999995 0.094999984 0 -0 -1 86 86 86 255
0.024999999 -0.058000006 0.094999984 0 -0 -1 86 86 86 255
-0.024999999 0.061999995 0.094999984 0 -0 -1 86 86 86 255
-0.03999999 0.125 0.094999984 0 -0 -1 86 86 86 255
-0.02598077 0.14 0.094999984 0 -0 -1 86 86 86 255
-0.02598077 0.125 0.094999984 0 -0 -1 86 86 86 255
0.02598077 0.125 0.094999984 0 -0 -1 86 86 86 255
0.03999999 0.16499999 0.094999984 0 -0 -1 86 86 86 255
0.03999999 0.125 0.094999984 0 -0 -1 86 86 86 255
0.02598077 0.14 0.094999984 0 -0 -1 86 86 86 255
-1.4438227E-15 0.15499999 0.094999984 0 -0 -1 86 86 86 255
-0.03999999 0.16499999 0.094999984 0 -0 -1 86 86 86 255
0.03999999 0.085 0.094999984 0 -0 -1 199 199 199 255
0.02598077 0.11 0.094999984 0 -0 -1 199 199 199 255
0.03999999 0.125 0.094999984 0 -0 -1 199 199 199 255
-1.4438227E-15 0.094999984 0.094999984 0 -0 -1 199 199 199 255
-0.03999999 0.085 0.094999984 0 -0 -1 199 199 199 255
-0.02598077 0.11 0.094999984 0 -0 -1 199 199 199 255
-0.02598077 0.125 0.094999984 0 -0 -1 199 199 199 255
-0.03999999 0.125 0.094999984 0 -0 -1 199 199 199 255
0.02598077 0.125 0.094999984 0 -0 -1 199 199 199 255
-0.02598077 0.125 0.094999984 0 -0 -1 199 199 199 255
0.02598077 0.14 0.094999984 0 -0 -1 199 199 199 255
0.02598077 0.125 0.094999984 0 -0 -1 199 199 199 255
-1.4438227E-15 0.15499999 0.094999984 0 -0 -1 199 199 199 255
-0.02598077 0.14 0.094999984 0 -0 -1 199 199 199 255
-1.4438227E-15 0.094999984 0.094999984 0 -0 -1 86 86 86 255
0.02598077 0.125 0.094999984 0 -0 -1 86 86 86 255
0.02598077 0.11 0.094999984 0 -0 -1 86 86 86 255
-0.02598077 0.125 0.094999984 0 -0 -1 86 86 86 255
-0.02598077 0.11 0.094999984 0 -0 -1 86 86 86 255
-0.049999997 0.125 0.094999984 0 -0 -1 199 199 199 255
-0.03999999 0.16499999 0.094999984 0 -0 -1 199 199 199 255
-0.03999999 0.125 0.094999984 0 -0 -1 199 199 199 255
0.03999999 0.125 0.094999984 0 -0 -1 199 199 199 255
0.049999997 0.175 0.094999984 0 -0 -1 199 199 199 255
0.049999997 0.125 0.094999984 0 -0 -1 199 199 199 255
0.03999999 0.16499999 0.094999984 0 -0 -1 199 199 199 255
0.005 0.175 0.094999984 0 -0 -1 199 199 199 255
-0.005 0.175 0.094999984 0 -0 -1 199 199 199 255
-0.049999997 0.175 0.094999984 0 -0 -1 199 199 199 255
0.105 -0.105 -0.05499999 -0.70710677 5.642519E-17 -0.70710677 86 86 86 255
0.125 0.37499997 -0.074999996 -0.70710677 5.642519E-17 -0.70710677 86 86 86 255
0.125 -0.125 -0.074999996 -0.70710677 5.642519E-17 -0.70710677 86 86 86 255
0.105 0.35500005 -0.05499999 -0.70710677 5.642519E-17 -0.70710677 86 86 86 255
0.125 0.37499997 -0.074999996 -1 7.979727E-17 -0 86 86 86 255
0.125 -0.125 -0.125 -1 7.979727E-17 -0 86 86 86 255
0.125 -0.125 -0.074999996 -1 7.979727E-17 -0 86 86 86 255
0.125 0.37499997 -0.125 -1 7.979727E-17 -0 86 86 86 255
-0.105 -0.105 -0.05499999 5.642519E-17 0.70710677 -0.70710677 86 86 86 255
0.125 -0.125 -0.074999996 5.642519E-17 0.70710677 -0.70710677 86 86 86 255
-0.125 -0.125 -0.074999996 5.642519E-17 0.70710677 -0.70710677 86 86 86 255
0.105 -0.105 -0.05499999 5.642519E-17 0.70710677 -0.70710677 86 86 86 255
0.105 0.35500005 -0.05499999 -5.832568E-17 -0.70710677 -0.70710677 86 86 86 255
-0.125 0.37499997 -0.074999996 -5.832568E-17 -0.70710677 -0.70710677 86 86 86 255
0.125 0.37499997 -0.074999996 -5.832568E-17 -0.70710677 -0.70710677 86 86 86 255
-0.105 0.35500005 -0.05499999 -5.832568E-17 -0.70710677 -0.70710677 86 86 86 255
0.125 0.37499997 -0.074999996 -7.979727E-17 -1 -0 86 86 86 255
-0.125 0.37499997 -0.125 -7.979727E-17 -1 -0 86 86 86 255
0.125 0.37499997 -0.125 -7.979727E-17 -1 -0 86 86 86 255
-0.125 0.37499997 -0.074999996 -7.979727E-17 -1 -0 86 86 86 255
-0.125 -0.125 -0.074999996 7.979727E-17 1 -0 86 86 86 255
0.125 -0.125 -0.125 7.979727E-17 1 -0 86 86 86 255
-0.125 -0.125 -0.125 7.979727E-17 1 -0 86 86 86 255
0.125 -0.125 -0.074999996 7.979727E-17 1 -0 86 86 86 255
-0.125 0.37499997 -0.074999996 0.70710677 -5.554741E-17 -0.70710677 86 86 86 255
-0.105 -0.105 -0.05499999 0.70710677 -5.554741E-17 -0.70710677 86 86 86 255
-0.125 -0.125 -0.074999996 0.70710677 -5.554741E-17 -0.70710677 86 86 86 255
-0.105 0.35500005 -0.05499999 0.70710677 -5.554741E-17 -0.70710677 86 86 86 255
-0.125 0.37499997 -0.125 1 -7.979727E-17 -0 86 86 86 255
-0.125 -0.125 -0.074999996 1 -7.979727E-17 -0 86 86 86 255
-0.125 -0.125 -0.125 1 -7.979727E-17 -0 86 86 86 255
-0.125 0.37499997 -0.074999996 1 -7.979727E-17 -0 86 86 86 255
0.105 0.35500005 0.074999996 -7.979727E-17 -1 -0 255 125 0 255
-0.105 0.35500005 -0.05499999 -7.979727E-17 -1 -0 255 125 0 255
0.105 0.35500005 -0.05499999 -7.979727E-17 -1 -0 255 125 0 255
-0.105 0.35500005 0.074999996 -7.979727E-17 -1 -0 255 125 0 255
0.105 0.35500005 0.074999996 -1 7.979727E-17 -0 255 125 0 255
0.105 -0.105 -0.05499999 -1 7.979727E-17 -0 255 125 0 255
0.105 -0.105 0.074999996 -1 7.979727E-17 -0 255 125 0 255
0.105 0.35500005 -0.05499999 -1 7.979727E-17 -0 255 125 0 255
0.07969999 0.32969984 0.094999984 -5.8509416E-17 -0.62014675 -0.78448576 255 125 0 255
-0.105 0.35500005 0.074999996 -5.8509416E-17 -0.62014675 -0.78448576 255 125 0 255
0.105 0.35500005 0.074999996 -5.8509416E-17 -0.62014675 -0.78448576 255 125 0 255
-0.07969999 0.32969984 0.094999984 -5.8509416E-17 -0.62014675 -0.78448576 255 125 0 255
-0.105 0.35500005 -0.05499999 1 -7.979727E-17 -0 255 125 0 255
-0.105 -0.105 0.074999996 1 -7.979727E-17 -0 255 125 0 255
-0.105 -0.105 -0.05499999 1 -7.979727E-17 -0 255 125 0 255
-0.105 0.35500005 0.074999996 1 -7.979727E-17 -0 255 125 0 255
-0.105 -0.105 0.074999996 7.979727E-17 1 -0 255 125 0 255
0.105 -0.105 -0.05499999 7.979727E-17 1 -0 255 125 0 255
-0.105 -0.105 -0.05499999 7.979727E-17 1 -0 255 125 0 255
0.105 -0.105 0.074999996 7.979727E-17 1 -0 255 125 0 255
0.07969999 -0.07969999 0.094999984 -0.62014675 -9.179393E-16 -0.78448576 255 125 0 255
0.105 0.35500005 0.074999996 -0.62014675 -9.179393E-16 -0.78448576 255 125 0 255
0.105 -0.105 0.074999996 -0.62014675 -9.179393E-16 -0.78448576 255 125 0 255
0.07969999 0.32969984 0.094999984 -0.62014675 -9.179393E-16 -0.78448576 255 125 0 255
0.005 0.175 0.094999984 0 -0 -1 255 125 0 255
0.024999999 0.18832691 0.094999984 0 -0 -1 255 125 0 255
0.049999997 0.175 0.094999984 0 -0 -1 255 125 0 255
0.005 0.18832691 0.094999984 0 -0 -1 255 125 0 255
-0.049999997 0.175 0.094999984 0 -0 -1 255 125 0 255
-0.005 0.18832691 0.094999984 0 -0 -1 255 125 0 255
-0.005 0.175 0.094999984 0 -0 -1 255 125 0 255
-0.024999999 0.18832691 0.094999984 0 -0 -1 255 125 0 255
-0.024999999 0.30832702 0.094999984 0 -0 -1 255 125 0 255
0.07969999 -0.07969999 0.094999984 0 -0 -1 255 125 0 255
0.049999997 0.074999996 0.094999984 0 -0 -1 255 125 0 255
0.07969999 0.32969984 0.094999984 0 -0 -1 255 125 0 255
0.024999999 -0.058000006 0.094999984 0 -0 -1 255 125 0 255
-0.07969999 -0.07969999 0.094999984 0 -0 -1 255 125 0 255
-0.024999999 -0.058000006 0.094999984 0 -0 -1 255 125 0 255
-0.024999999 0.061999995 0.094999984 0 -0 -1 255 125 0 255
-0.049999997 0.074999996 0.094999984 0 -0 -1 255 125 0 255
-0.049999997 0.125 0.094999984 0 -0 -1 255 125 0 255
0.024999999 0.30832702 0.094999984 0 -0 -1 255 125 0 255
-0.07969999 0.32969984 0.094999984 0 -0 -1 255 125 0 255
0.049999997 0.125 0.094999984 0 -0 -1 255 125 0 255
-0.005 0.074999996 0.094999984 0 -0 -1 255 125 0 255
-0.005 0.061999995 0.094999984 0 -0 -1 255 125 0 255
0.024999999 0.061999995 0.094999984 0 -0 -1 255 125 0 255
0.005 0.074999996 0.094999984 0 -0 -1 255 125 0 255
0.005 0.061999995 0.094999984 0 -0 -1 255 125 0 255
-0.105 -0.105 0.074999996 0.62014675 -5.219892E-17 -0.78448576 255 125 0 255
-0.07969999 0.32969984 0.094999984 0.62014675 -5.219892E-17 -0.78448576 255 125 0 255
-0.07969999 -0.07969999 0.094999984 0.62014675 -5.219892E-17 -0.78448576 255 125 0 255
-0.105 0.35500005 0.074999996 0.62014675 -5.219892E-17 -0.78448576 255 125 0 255
-0.105 -0.105 0.074999996 4.4974326E-17 0.62014675 -0.78448576 255 125 0 255
0.07969999 -0.07969999 0.094999984 4.4974326E-17 0.62014675 -0.78448576 255 125 0 255
0.105 -0.105 0.074999996 4.4974326E-17 0.62014675 -0.78448576 255 125 0 255
-0.07969999 -0.07969999 0.094999984 4.4974326E-17 0.62014675 -0.78448576 255 125 0 255
3 0 1 2
3 1 0 3
3 1 4 5
3 4 1 6
3 6 1 3
3 6 3 7
3 8 9 10
3 11 10 9
3 10 11 12
3 10 12 13
3 13 12 14
3 13 14 15
3 13 15 16
3 16 15 17
3 18 12 19
3 12 18 14
3 20 21 22
3 21 20 19
3 19 20 18
3 18 20 23
3 24 25 26
3 27 28 29
3 28 27 30
3 28 30 31
3 28 31 32
3 32 31 25
3 32 25 24
3 33 34 35
3 34 33 36
3 36 33 37
3 36 37 38
3 38 37 39
3 39 37 40
3 41 35 34
3 42 43 44
3 43 42 45
3 45 42 46
3 47 48 49
3 48 47 50
3 50 47 51
3 52 53 54
3 55 56 57
3 56 55 58
3 56 58 59
3 59 58 53
3 59 53 60
3 60 53 61
3 61 53 52
3 62 63 64
3 63 62 65
3 66 67 68
3 67 66 69
3 70 71 72
3 71 70 73
3 74 75 76
3 75 74 77
3 78 79 80
3 79 78 81
3 82 83 84
3 83 82 85
3 86 87 88
3 87 86 89
3 90 91 92
3 91 90 93
3 94 95 96
3 95 94 97
3 98 99 100
3 99 98 101
3 102 103 104
3 103 102 105
3 106 107 108
3 107 106 109
3 110 111 112
3 111 110 113
3 114 115 116
3 115 114 117
3 118 119 120
3 119 118 121
3 122 123 124
3 123 122 125
3 125 122 126
3 127 128 129
3 128 127 130
3 130 127 131
3 130 131 132
3 132 131 133
3 133 131 134
3 134 131 135
3 135 131 122
3 129 136 137
3 136 129 120
3 120 129 128
3 120 128 138
3 136 120 119
3 137 136 126
3 137 126 122
3 137 122 131
3 133 139 140
3 139 133 134
3 128 141 142
3 141 128 130
3 142 141 143
3 144 145 146
3 145 144 147
3 148 149 150
3 149 148 151

