ply
format ascii 1.0
commentY29udmVydGVyIGJ5IENvZGVMZW9wYXJk
comment Original mesh name: 'C:\Program Files (x86)\Steam\steamapps\common\Stormworks\rom\meshes\component_contact_sensor_pad.mesh'
comment SubMesh index: 0
comment SubMesh name: 'ID2'
comment Shader: Opaque (0)
element vertex 64
property float x
property float y
property float z
property float nx
property float ny
property float nz
property uchar red
property uchar green
property uchar blue
property uchar alpha
element face 30
property list uchar ushort vertex_index
end_header
-0.06499999 -0.085 0.05499999 0 0.70710677 -0.70710677 86 86 86 255
0.06499999 -0.06499999 0.074999996 0 0.70710677 -0.70710677 86 86 86 255
0.06499999 -0.085 0.05499999 0 0.70710677 -0.70710677 86 86 86 255
-0.06499999 -0.06499999 0.074999996 0 0.70710677 -0.70710677 86 86 86 255
-0.085 -0.06499999 0.05499999 0.57735026 0.57735026 -0.57735026 86 86 86 255
-0.06499999 -0.06499999 0.074999996 0.57735026 0.57735026 -0.57735026 86 86 86 255
-0.06499999 -0.085 0.05499999 0.57735026 0.57735026 -0.57735026 86 86 86 255
-0.06499999 -0.06499999 0.074999996 0 -0 -1 86 86 86 255
0.06499999 0.06499999 0.074999996 0 -0 -1 86 86 86 255
0.06499999 -0.06499999 0.074999996 0 -0 -1 86 86 86 255
-0.06499999 0.06499999 0.074999996 0 -0 -1 86 86 86 255
0.06499999 -0.06499999 0.074999996 -0.57735026 0.57735026 -0.57735026 86 86 86 255
0.085 -0.06499999 0.05499999 -0.57735026 0.57735026 -0.57735026 86 86 86 255
0.06499999 -0.085 0.05499999 -0.57735026 0.57735026 -0.57735026 86 86 86 255
-0.06499999 -0.085 0.05499999 0 1 -0 86 86 86 255
0.06499999 -0.085 -0.14499998 0 1 -0 86 86 86 255
-0.06499999 -0.085 -0.14499998 0 1 -0 86 86 86 255
0.06499999 -0.085 0.05499999 0 1 -0 86 86 86 255
-0.085 -0.06499999 -0.14499998 0.70710677 0.70710677 -0 86 86 86 255
-0.06499999 -0.085 0.05499999 0.70710677 0.70710677 -0 86 86 86 255
-0.06499999 -0.085 -0.14499998 0.70710677 0.70710677 -0 86 86 86 255
-0.085 -0.06499999 0.05499999 0.70710677 0.70710677 -0 86 86 86 255
-0.085 -0.06499999 0.05499999 0.70710677 -0 -0.70710677 86 86 86 255
-0.06499999 0.06499999 0.074999996 0.70710677 -0 -0.70710677 86 86 86 255
-0.06499999 -0.06499999 0.074999996 0.70710677 -0 -0.70710677 86 86 86 255
-0.085 0.06499999 0.05499999 0.70710677 -0 -0.70710677 86 86 86 255
0.06499999 -0.06499999 0.074999996 -0.70710677 -0 -0.70710677 86 86 86 255
0.085 0.06499999 0.05499999 -0.70710677 -0 -0.70710677 86 86 86 255
0.085 -0.06499999 0.05499999 -0.70710677 -0 -0.70710677 86 86 86 255
0.06499999 0.06499999 0.074999996 -0.70710677 -0 -0.70710677 86 86 86 255
-0.06499999 0.06499999 0.074999996 0 -0.70710677 -0.70710677 86 86 86 255
0.06499999 0.085 0.05499999 0 -0.70710677 -0.70710677 86 86 86 255
0.06499999 0.06499999 0.074999996 0 -0.70710677 -0.70710677 86 86 86 255
-0.06499999 0.085 0.05499999 0 -0.70710677 -0.70710677 86 86 86 255
0.085 -0.06499999 0.05499999 -0.70710677 0.70710677 -0 86 86 86 255
0.06499999 -0.085 -0.14499998 -0.70710677 0.70710677 -0 86 86 86 255
0.06499999 -0.085 0.05499999 -0.70710677 0.70710677 -0 86 86 86 255
0.085 -0.06499999 -0.14499998 -0.70710677 0.70710677 -0 86 86 86 255
-0.085 0.06499999 -0.14499998 1 -0 -0 86 86 86 255
-0.085 -0.06499999 0.05499999 1 -0 -0 86 86 86 255
-0.085 -0.06499999 -0.14499998 1 -0 -0 86 86 86 255
-0.085 0.06499999 0.05499999 1 -0 -0 86 86 86 255
-0.085 0.06499999 0.05499999 0.57735026 -0.57735026 -0.57735026 86 86 86 255
-0.06499999 0.085 0.05499999 0.57735026 -0.57735026 -0.57735026 86 86 86 255
-0.06499999 0.06499999 0.074999996 0.57735026 -0.57735026 -0.57735026 86 86 86 255
0.085 0.06499999 0.05499999 -1 -0 -0 86 86 86 255
0.085 -0.06499999 -0.14499998 -1 -0 -0 86 86 86 255
0.085 -0.06499999 0.05499999 -1 -0 -0 86 86 86 255
0.085 0.06499999 -0.14499998 -1 -0 -0 86 86 86 255
0.06499999 0.085 0.05499999 -0.57735026 -0.57735026 -0.57735026 86 86 86 255
0.085 0.06499999 0.05499999 -0.57735026 -0.57735026 -0.57735026 86 86 86 255
0.06499999 0.06499999 0.074999996 -0.57735026 -0.57735026 -0.57735026 86 86 86 255
0.06499999 0.085 0.05499999 0 -1 -0 86 86 86 255
-0.06499999 0.085 -0.14499998 0 -1 -0 86 86 86 255
0.06499999 0.085 -0.14499998 0 -1 -0 86 86 86 255
-0.06499999 0.085 0.05499999 0 -1 -0 86 86 86 255
-0.06499999 0.085 -0.14499998 0.70710677 -0.70710677 -0 86 86 86 255
-0.085 0.06499999 0.05499999 0.70710677 -0.70710677 -0 86 86 86 255
-0.085 0.06499999 -0.14499998 0.70710677 -0.70710677 -0 86 86 86 255
-0.06499999 0.085 0.05499999 0.70710677 -0.70710677 -0 86 86 86 255
0.06499999 0.085 0.05499999 -0.70710677 -0.70710677 -0 86 86 86 255
0.085 0.06499999 -0.14499998 -0.70710677 -0.70710677 -0 86 86 86 255
0.085 0.06499999 0.05499999 -0.70710677 -0.70710677 -0 86 86 86 255
0.06499999 0.085 -0.14499998 -0.70710677 -0.70710677 -0 86 86 86 255
3 0 1 2
3 1 0 3
3 4 5 6
3 7 8 9
3 8 7 10
3 11 12 13
3 14 15 16
3 15 14 17
3 18 19 20
3 19 18 21
3 22 23 24
3 23 22 25
3 26 27 28
3 27 26 29
3 30 31 32
3 31 30 33
3 34 35 36
3 35 34 37
3 38 39 40
3 39 38 41
3 42 43 44
3 45 46 47
3 46 45 48
3 49 50 51
3 52 53 54
3 53 52 55
3 56 57 58
3 57 56 59
3 60 61 62
3 61 60 63

