ply
format ascii 1.0
commentY29udmVydGVyIGJ5IENvZGVMZW9wYXJk
comment Original mesh name: 'C:\Program Files (x86)\Steam\steamapps\common\Stormworks\rom\meshes\component_suspension_static.mesh'
comment SubMesh index: 0
comment SubMesh name: 'ID3'
comment Shader: Opaque (0)
element vertex 172
property float x
property float y
property float z
property float nx
property float ny
property float nz
property uchar red
property uchar green
property uchar blue
property uchar alpha
element face 108
property list uchar ushort vertex_index
end_header
-0.375 0.125 -0.04500001 1 5.689893E-16 -0 86 86 86 255
-0.375 0.07499999 0.044999983 1 5.689893E-16 -0 86 86 86 255
-0.375 0.07499999 -0.04500001 1 5.689893E-16 -0 86 86 86 255
-0.375 0.125 0.044999983 1 5.689893E-16 -0 86 86 86 255
-0.375 0.07499999 -0.04500001 -5.689893E-16 1 -0 86 86 86 255
-0.125 0.07499999 -0.125 -5.689893E-16 1 -0 86 86 86 255
-0.29499993 0.07499999 -0.125 -5.689893E-16 1 -0 86 86 86 255
-0.125 0.07499999 0.125 -5.689893E-16 1 -0 86 86 86 255
-0.375 0.07499999 0.044999983 -5.689893E-16 1 -0 86 86 86 255
-0.29499993 0.07499999 0.125 -5.689893E-16 1 -0 86 86 86 255
-0.29499993 0.125 -0.125 0.70710677 3.6181777E-16 0.70710677 86 86 86 255
-0.375 0.07499999 -0.04500001 0.70710677 3.6181777E-16 0.70710677 86 86 86 255
-0.29499993 0.07499999 -0.125 0.70710677 3.6181777E-16 0.70710677 86 86 86 255
-0.375 0.125 -0.04500001 0.70710677 3.6181777E-16 0.70710677 86 86 86 255
0.125 0.125 0.07499999 5.689893E-16 -1 -0 86 86 86 255
-0.125 0.125 -0.125 5.689893E-16 -1 -0 86 86 86 255
0.125 0.125 -0.125 5.689893E-16 -1 -0 86 86 86 255
-0.29499993 0.125 -0.125 5.689893E-16 -1 -0 86 86 86 255
-0.375 0.125 -0.04500001 5.689893E-16 -1 -0 86 86 86 255
-0.375 0.125 0.044999983 5.689893E-16 -1 -0 86 86 86 255
-0.29499993 0.125 0.125 5.689893E-16 -1 -0 86 86 86 255
0.075 0.125 0.125 5.689893E-16 -1 -0 86 86 86 255
-0.375 0.125 0.044999983 0.70710677 4.428546E-16 -0.70710677 86 86 86 255
-0.29499993 0.07499999 0.125 0.70710677 4.428546E-16 -0.70710677 86 86 86 255
-0.375 0.07499999 0.044999983 0.70710677 4.428546E-16 -0.70710677 86 86 86 255
-0.29499993 0.125 0.125 0.70710677 4.428546E-16 -0.70710677 86 86 86 255
0.075 -0.125 0.125 0 -0 -1 86 86 86 255
-0.125 -0.075 0.125 0 -0 -1 86 86 86 255
0.075 0.125 0.125 0 -0 -1 86 86 86 255
-0.29499993 -0.125 0.125 0 -0 -1 86 86 86 255
-0.29499993 -0.075 0.125 0 -0 -1 86 86 86 255
-0.125 0.07499999 0.125 0 -0 -1 86 86 86 255
-0.29499993 0.125 0.125 0 -0 -1 86 86 86 255
-0.29499993 0.07499999 0.125 0 -0 -1 86 86 86 255
-0.125 0.07499999 -0.125 1 5.689893E-16 -0 86 86 86 255
-0.125 -0.075 0.125 1 5.689893E-16 -0 86 86 86 255
-0.125 -0.075 -0.125 1 5.689893E-16 -0 86 86 86 255
-0.125 0.07499999 0.125 1 5.689893E-16 -0 86 86 86 255
-0.29499993 0.125 -0.125 0 -0 1 86 86 86 255
-0.125 0.07499999 -0.125 0 -0 1 86 86 86 255
-0.125 0.125 -0.125 0 -0 1 86 86 86 255
-0.29499993 0.07499999 -0.125 0 -0 1 86 86 86 255
0.125 0.125 0.07499999 -1 -5.689893E-16 -0 86 86 86 255
0.125 -0.125 -0.125 -1 -5.689893E-16 -0 86 86 86 255
0.125 -0.125 0.07499999 -1 -5.689893E-16 -0 86 86 86 255
0.125 0.125 -0.125 -1 -5.689893E-16 -0 86 86 86 255
0.075 0.125 0.125 -0.70710677 -4.0233618E-16 -0.70710677 86 86 86 255
0.125 -0.125 0.07499999 -0.70710677 -4.0233618E-16 -0.70710677 86 86 86 255
0.075 -0.125 0.125 -0.70710677 -4.0233618E-16 -0.70710677 86 86 86 255
0.125 0.125 0.07499999 -0.70710677 -4.0233618E-16 -0.70710677 86 86 86 255
-0.375 -0.125 -0.04500001 -5.689893E-16 1 -0 86 86 86 255
-0.125 -0.125 -0.125 -5.689893E-16 1 -0 86 86 86 255
-0.29499993 -0.125 -0.125 -5.689893E-16 1 -0 86 86 86 255
0.125 -0.125 -0.125 -5.689893E-16 1 -0 86 86 86 255
0.125 -0.125 0.07499999 -5.689893E-16 1 -0 86 86 86 255
-0.375 -0.125 0.044999983 -5.689893E-16 1 -0 86 86 86 255
-0.29499993 -0.125 0.125 -5.689893E-16 1 -0 86 86 86 255
0.075 -0.125 0.125 -5.689893E-16 1 -0 86 86 86 255
-0.375 -0.075 0.044999983 0.70710677 4.428546E-16 -0.70710677 86 86 86 255
-0.29499993 -0.125 0.125 0.70710677 4.428546E-16 -0.70710677 86 86 86 255
-0.375 -0.125 0.044999983 0.70710677 4.428546E-16 -0.70710677 86 86 86 255
-0.29499993 -0.075 0.125 0.70710677 4.428546E-16 -0.70710677 86 86 86 255
-0.125 -0.075 0.125 5.689893E-16 -1 -0 86 86 86 255
-0.29499993 -0.075 -0.125 5.689893E-16 -1 -0 86 86 86 255
-0.125 -0.075 -0.125 5.689893E-16 -1 -0 86 86 86 255
-0.375 -0.075 -0.04500001 5.689893E-16 -1 -0 86 86 86 255
-0.375 -0.075 0.044999983 5.689893E-16 -1 -0 86 86 86 255
-0.29499993 -0.075 0.125 5.689893E-16 -1 -0 86 86 86 255
-0.29499993 -0.075 -0.125 0 -0 1 86 86 86 255
-0.125 -0.125 -0.125 0 -0 1 86 86 86 255
-0.125 -0.075 -0.125 0 -0 1 86 86 86 255
-0.29499993 -0.125 -0.125 0 -0 1 86 86 86 255
-0.29499993 -0.075 -0.125 0.70710677 4.428546E-16 0.70710677 86 86 86 255
-0.375 -0.125 -0.04500001 0.70710677 4.428546E-16 0.70710677 86 86 86 255
-0.29499993 -0.125 -0.125 0.70710677 4.428546E-16 0.70710677 86 86 86 255
-0.375 -0.075 -0.04500001 0.70710677 4.428546E-16 0.70710677 86 86 86 255
-0.375 -0.075 -0.04500001 1 5.689893E-16 -0 86 86 86 255
-0.375 -0.125 0.044999983 1 5.689893E-16 -0 86 86 86 255
-0.375 -0.125 -0.04500001 1 5.689893E-16 -0 86 86 86 255
-0.375 -0.075 0.044999983 1 5.689893E-16 -0 86 86 86 255
0.125 0.125 -0.125 -4.421935E-31 7.771561E-16 1 86 86 86 255
0.08250001 0.034172624 -0.125 -4.421935E-31 7.771561E-16 1 86 86 86 255
0.125 -0.125 -0.125 -4.421935E-31 7.771561E-16 1 86 86 86 255
0.034172624 0.08250001 -0.125 -4.421935E-31 7.771561E-16 1 86 86 86 255
-0.125 0.125 -0.125 -4.421935E-31 7.771561E-16 1 86 86 86 255
-0.034172613 0.08250001 -0.125 -4.421935E-31 7.771561E-16 1 86 86 86 255
-0.08249997 0.034172624 -0.125 -4.421935E-31 7.771561E-16 1 86 86 86 255
-0.08249997 -0.034172613 -0.125 -4.421935E-31 7.771561E-16 1 86 86 86 255
0.034172624 -0.08249997 -0.125 -4.421935E-31 7.771561E-16 1 86 86 86 255
-0.125 -0.125 -0.125 -4.421935E-31 7.771561E-16 1 86 86 86 255
0.08250001 -0.034172613 -0.125 -4.421935E-31 7.771561E-16 1 86 86 86 255
-0.034172613 -0.08249997 -0.125 -4.421935E-31 7.771561E-16 1 86 86 86 255
0.08250001 0.034172624 -0.105 -6.601698E-16 1.0506074E-15 1 86 86 86 255
0.0625 0.025888335 -0.105 -6.601698E-16 1.0506074E-15 1 86 86 86 255
0.08250001 -0.034172613 -0.105 -6.601698E-16 1.0506074E-15 1 86 86 86 255
0.034172624 0.08250001 -0.105 -6.601698E-16 1.0506074E-15 1 86 86 86 255
0.025888335 0.0625 -0.105 -6.601698E-16 1.0506074E-15 1 86 86 86 255
-0.034172613 0.08250001 -0.105 -6.601698E-16 1.0506074E-15 1 86 86 86 255
-0.025888335 0.0625 -0.105 -6.601698E-16 1.0506074E-15 1 86 86 86 255
-0.062499985 0.025888335 -0.105 -6.601698E-16 1.0506074E-15 1 86 86 86 255
-0.08249997 0.034172624 -0.105 -6.601698E-16 1.0506074E-15 1 86 86 86 255
-0.062499985 -0.025888335 -0.105 -6.601698E-16 1.0506074E-15 1 86 86 86 255
0.0625 -0.025888335 -0.105 -6.601698E-16 1.0506074E-15 1 86 86 86 255
0.034172624 -0.08249997 -0.105 -6.601698E-16 1.0506074E-15 1 86 86 86 255
0.025888335 -0.062499985 -0.105 -6.601698E-16 1.0506074E-15 1 86 86 86 255
-0.034172613 -0.08249997 -0.105 -6.601698E-16 1.0506074E-15 1 86 86 86 255
-0.025888335 -0.062499985 -0.105 -6.601698E-16 1.0506074E-15 1 86 86 86 255
-0.08249997 -0.034172613 -0.105 -6.601698E-16 1.0506074E-15 1 86 86 86 255
-0.034172613 -0.08249997 -0.125 5.689893E-16 -1 1.0506074E-15 86 86 86 255
0.034172624 -0.08249997 -0.105 5.689893E-16 -1 1.0506074E-15 86 86 86 255
-0.034172613 -0.08249997 -0.105 5.689893E-16 -1 1.0506074E-15 86 86 86 255
0.034172624 -0.08249997 -0.125 5.689893E-16 -1 1.0506074E-15 86 86 86 255
0.034172624 -0.08249997 -0.125 0.70710677 -0.70710677 1.2097022E-15 86 86 86 255
0.08250001 -0.034172613 -0.105 0.70710677 -0.70710677 1.2097022E-15 86 86 86 255
0.034172624 -0.08249997 -0.105 0.70710677 -0.70710677 1.2097022E-15 86 86 86 255
0.08250001 -0.034172613 -0.125 0.70710677 -0.70710677 1.2097022E-15 86 86 86 255
0.08250001 -0.034172613 -0.105 1 5.689893E-16 6.601698E-16 86 86 86 255
0.08250001 0.034172624 -0.125 1 5.689893E-16 6.601698E-16 86 86 86 255
0.08250001 0.034172624 -0.105 1 5.689893E-16 6.601698E-16 86 86 86 255
0.08250001 -0.034172613 -0.125 1 5.689893E-16 6.601698E-16 86 86 86 255
0.08250001 0.034172624 -0.125 0.70710677 0.70710677 -2.7608107E-16 86 86 86 255
0.034172624 0.08250001 -0.105 0.70710677 0.70710677 -2.7608107E-16 86 86 86 255
0.08250001 0.034172624 -0.105 0.70710677 0.70710677 -2.7608107E-16 86 86 86 255
0.034172624 0.08250001 -0.125 0.70710677 0.70710677 -2.7608107E-16 86 86 86 255
0.034172624 0.08250001 -0.125 -5.689893E-16 1 -1.0506074E-15 86 86 86 255
-0.034172613 0.08250001 -0.105 -5.689893E-16 1 -1.0506074E-15 86 86 86 255
0.034172624 0.08250001 -0.105 -5.689893E-16 1 -1.0506074E-15 86 86 86 255
-0.034172613 0.08250001 -0.125 -5.689893E-16 1 -1.0506074E-15 86 86 86 255
-0.034172613 0.08250001 -0.125 -0.70710677 0.70710677 -1.2097022E-15 86 86 86 255
-0.08249997 0.034172624 -0.105 -0.70710677 0.70710677 -1.2097022E-15 86 86 86 255
-0.034172613 0.08250001 -0.105 -0.70710677 0.70710677 -1.2097022E-15 86 86 86 255
-0.08249997 0.034172624 -0.125 -0.70710677 0.70710677 -1.2097022E-15 86 86 86 255
-0.08249997 -0.034172613 -0.125 -1 3.39203E-15 -6.601698E-16 86 86 86 255
-0.08249997 0.034172624 -0.105 -1 3.39203E-15 -6.601698E-16 86 86 86 255
-0.08249997 0.034172624 -0.125 -1 3.39203E-15 -6.601698E-16 86 86 86 255
-0.08249997 -0.034172613 -0.105 -1 3.39203E-15 -6.601698E-16 86 86 86 255
-0.08249997 -0.034172613 -0.125 -0.70710677 -0.70710677 2.7608107E-16 86 86 86 255
-0.034172613 -0.08249997 -0.105 -0.70710677 -0.70710677 2.7608107E-16 86 86 86 255
-0.08249997 -0.034172613 -0.105 -0.70710677 -0.70710677 2.7608107E-16 86 86 86 255
-0.034172613 -0.08249997 -0.125 -0.70710677 -0.70710677 2.7608107E-16 86 86 86 255
0.0625 -0.025888335 -0.125 -1 -5.689893E-16 -6.601698E-16 86 86 86 255
0.0625 0.025888335 -0.105 -1 -5.689893E-16 -6.601698E-16 86 86 86 255
0.0625 0.025888335 -0.125 -1 -5.689893E-16 -6.601698E-16 86 86 86 255
0.0625 -0.025888335 -0.105 -1 -5.689893E-16 -6.601698E-16 86 86 86 255
0.0625 -0.025888335 -0.125 -0.70710677 0.70710677 -1.2097022E-15 86 86 86 255
0.025888335 -0.062499985 -0.105 -0.70710677 0.70710677 -1.2097022E-15 86 86 86 255
0.0625 -0.025888335 -0.105 -0.70710677 0.70710677 -1.2097022E-15 86 86 86 255
0.025888335 -0.062499985 -0.125 -0.70710677 0.70710677 -1.2097022E-15 86 86 86 255
0.025888335 0.0625 -0.125 -0.70710677 -0.70710677 2.7608107E-16 86 86 86 255
0.0625 0.025888335 -0.105 -0.70710677 -0.70710677 2.7608107E-16 86 86 86 255
0.025888335 0.0625 -0.105 -0.70710677 -0.70710677 2.7608107E-16 86 86 86 255
0.0625 0.025888335 -0.125 -0.70710677 -0.70710677 2.7608107E-16 86 86 86 255
0.025888335 -0.062499985 -0.125 -5.689893E-16 1 -1.0506074E-15 86 86 86 255
-0.025888335 -0.062499985 -0.105 -5.689893E-16 1 -1.0506074E-15 86 86 86 255
0.025888335 -0.062499985 -0.105 -5.689893E-16 1 -1.0506074E-15 86 86 86 255
-0.025888335 -0.062499985 -0.125 -5.689893E-16 1 -1.0506074E-15 86 86 86 255
-0.025888335 0.0625 -0.125 5.689893E-16 -1 1.0506074E-15 86 86 86 255
0.025888335 0.0625 -0.105 5.689893E-16 -1 1.0506074E-15 86 86 86 255
-0.025888335 0.0625 -0.105 5.689893E-16 -1 1.0506074E-15 86 86 86 255
0.025888335 0.0625 -0.125 5.689893E-16 -1 1.0506074E-15 86 86 86 255
-0.025888335 -0.062499985 -0.125 0.70710677 0.70710677 -2.7608107E-16 86 86 86 255
-0.062499985 -0.025888335 -0.105 0.70710677 0.70710677 -2.7608107E-16 86 86 86 255
-0.025888335 -0.062499985 -0.105 0.70710677 0.70710677 -2.7608107E-16 86 86 86 255
-0.062499985 -0.025888335 -0.125 0.70710677 0.70710677 -2.7608107E-16 86 86 86 255
-0.062499985 0.025888335 -0.125 0.70710677 -0.70710677 1.2097022E-15 86 86 86 255
-0.025888335 0.0625 -0.105 0.70710677 -0.70710677 1.2097022E-15 86 86 86 255
-0.062499985 0.025888335 -0.105 0.70710677 -0.70710677 1.2097022E-15 86 86 86 255
-0.025888335 0.0625 -0.125 0.70710677 -0.70710677 1.2097022E-15 86 86 86 255
-0.062499985 -0.025888335 -0.105 1 -2.9167076E-15 6.601698E-16 86 86 86 255
-0.062499985 0.025888335 -0.125 1 -2.9167076E-15 6.601698E-16 86 86 86 255
-0.062499985 0.025888335 -0.105 1 -2.9167076E-15 6.601698E-16 86 86 86 255
-0.062499985 -0.025888335 -0.125 1 -2.9167076E-15 6.601698E-16 86 86 86 255
3 0 1 2
3 1 0 3
3 4 5 6
3 5 4 7
3 7 4 8
3 7 8 9
3 10 11 12
3 11 10 13
3 14 15 16
3 15 14 17
3 17 14 18
3 18 14 19
3 19 14 20
3 20 14 21
3 22 23 24
3 23 22 25
3 26 27 28
3 27 26 29
3 27 29 30
3 28 31 32
3 31 28 27
3 32 31 33
3 34 35 36
3 35 34 37
3 38 39 40
3 39 38 41
3 42 43 44
3 43 42 45
3 46 47 48
3 47 46 49
3 50 51 52
3 51 50 53
3 53 50 54
3 54 50 55
3 54 55 56
3 54 56 57
3 58 59 60
3 59 58 61
3 62 63 64
3 63 62 65
3 65 62 66
3 66 62 67
3 68 69 70
3 69 68 71
3 72 73 74
3 73 72 75
3 76 77 78
3 77 76 79
3 80 81 82
3 81 80 83
3 83 80 84
3 83 84 85
3 85 84 86
3 86 84 87
3 82 88 89
3 88 82 90
3 90 82 81
3 89 88 91
3 89 91 87
3 89 87 84
3 92 93 94
3 93 92 95
3 93 95 96
3 96 95 97
3 96 97 98
3 98 97 99
3 99 97 100
3 99 100 101
3 94 102 103
3 102 94 93
3 103 102 104
3 103 104 105
3 105 104 106
3 105 106 101
3 105 101 107
3 107 101 100
3 108 109 110
3 109 108 111
3 112 113 114
3 113 112 115
3 116 117 118
3 117 116 119
3 120 121 122
3 121 120 123
3 124 125 126
3 125 124 127
3 128 129 130
3 129 128 131
3 132 133 134
3 133 132 135
3 136 137 138
3 137 136 139
3 140 141 142
3 141 140 143
3 144 145 146
3 145 144 147
3 148 149 150
3 149 148 151
3 152 153 154
3 153 152 155
3 156 157 158
3 157 156 159
3 160 161 162
3 161 160 163
3 164 165 166
3 165 164 167
3 168 169 170
3 169 168 171

