ply
format ascii 1.0
commentY29udmVydGVyIGJ5IENvZGVMZW9wYXJk
comment Original mesh name: 'C:\Program Files (x86)\Steam\steamapps\common\Stormworks\rom\meshes\component_spotlight_small_add.mesh'
comment SubMesh index: 0
comment SubMesh name: 'ID2'
comment Shader: Emissive (2)
element vertex 54
property float x
property float y
property float z
property float nx
property float ny
property float nz
property uchar red
property uchar green
property uchar blue
property uchar alpha
element face 28
property list uchar ushort vertex_index
end_header
0.06412463 -0.03702238 0.09600001 -0.5309111 6.367835E-14 -0.8474275 255 255 0 255
0.08327872 0.048081 0.08400001 -0.5309111 6.367835E-14 -0.8474275 255 255 0 255
0.08327872 -0.048081 0.08400001 -0.5309111 6.367835E-14 -0.8474275 255 255 0 255
0.06412463 0.03702238 0.09600001 -0.5309111 6.367835E-14 -0.8474275 255 255 0 255
-1.1550583E-14 -0.096162006 0.08400001 -0.2654556 0.4597825 -0.8474275 255 255 0 255
0.06412463 -0.03702238 0.09600001 -0.2654556 0.4597825 -0.8474275 255 255 0 255
0.08327872 -0.048081 0.08400001 -0.2654556 0.4597825 -0.8474275 255 255 0 255
-3.4651742E-14 -0.074044734 0.09600001 -0.2654556 0.4597825 -0.8474275 255 255 0 255
0.032062314 -0.018511184 0.10399999 -0.24209192 7.306888E-14 -0.97025335 255 255 0 255
0.06412463 0.03702238 0.09600001 -0.24209192 7.306888E-14 -0.97025335 255 255 0 255
0.06412463 -0.03702238 0.09600001 -0.24209192 7.306888E-14 -0.97025335 255 255 0 255
0.032062314 0.018511184 0.10399999 -0.24209192 7.306888E-14 -0.97025335 255 255 0 255
0.06412463 0.03702238 0.09600001 -0.2654556 -0.4597825 -0.8474275 255 255 0 255
-3.4651742E-14 0.096162006 0.08400001 -0.2654556 -0.4597825 -0.8474275 255 255 0 255
0.08327872 0.048081 0.08400001 -0.2654556 -0.4597825 -0.8474275 255 255 0 255
-3.4651742E-14 0.074044734 0.09600001 -0.2654556 -0.4597825 -0.8474275 255 255 0 255
-0.08327872 -0.048081 0.08400001 0.2654556 0.4597825 -0.8474275 255 255 0 255
-3.4651742E-14 -0.074044734 0.09600001 0.2654556 0.4597825 -0.8474275 255 255 0 255
-1.1550583E-14 -0.096162006 0.08400001 0.2654556 0.4597825 -0.8474275 255 255 0 255
-0.06412463 -0.03702238 0.09600001 0.2654556 0.4597825 -0.8474275 255 255 0 255
-3.4651742E-14 -0.074044734 0.09600001 -0.12104601 0.2096577 -0.9702532 255 255 0 255
0.032062314 -0.018511184 0.10399999 -0.12104601 0.2096577 -0.9702532 255 255 0 255
0.06412463 -0.03702238 0.09600001 -0.12104601 0.2096577 -0.9702532 255 255 0 255
-3.4651742E-14 -0.03702238 0.10399999 -0.12104601 0.2096577 -0.9702532 255 255 0 255
-3.4651742E-14 -0.03702238 0.10399999 -2.110864E-15 7.495055E-14 -1 255 255 0 255
0.032062314 0.018511184 0.10399999 -2.110864E-15 7.495055E-14 -1 255 255 0 255
0.032062314 -0.018511184 0.10399999 -2.110864E-15 7.495055E-14 -1 255 255 0 255
-3.4651742E-14 0.03702238 0.10399999 -2.110864E-15 7.495055E-14 -1 255 255 0 255
-0.032062314 -0.018511184 0.10399999 -2.110864E-15 7.495055E-14 -1 255 255 0 255
-0.032062314 0.018511184 0.10399999 -2.110864E-15 7.495055E-14 -1 255 255 0 255
0.032062314 0.018511184 0.10399999 -0.12104601 -0.2096577 -0.9702532 255 255 0 255
-3.4651742E-14 0.074044734 0.09600001 -0.12104601 -0.2096577 -0.9702532 255 255 0 255
0.06412463 0.03702238 0.09600001 -0.12104601 -0.2096577 -0.9702532 255 255 0 255
-3.4651742E-14 0.03702238 0.10399999 -0.12104601 -0.2096577 -0.9702532 255 255 0 255
-0.06412463 0.03702238 0.09600001 0.2654556 -0.4597825 -0.8474275 255 255 0 255
-3.4651742E-14 0.096162006 0.08400001 0.2654556 -0.4597825 -0.8474275 255 255 0 255
-3.4651742E-14 0.074044734 0.09600001 0.2654556 -0.4597825 -0.8474275 255 255 0 255
-0.08327872 0.048081 0.08400001 0.2654556 -0.4597825 -0.8474275 255 255 0 255
-0.08327872 -0.048081 0.08400001 0.5309111 6.3483954E-14 -0.8474275 255 255 0 255
-0.06412463 0.03702238 0.09600001 0.5309111 6.3483954E-14 -0.8474275 255 255 0 255
-0.06412463 -0.03702238 0.09600001 0.5309111 6.3483954E-14 -0.8474275 255 255 0 255
-0.08327872 0.048081 0.08400001 0.5309111 6.3483954E-14 -0.8474275 255 255 0 255
-0.06412463 -0.03702238 0.09600001 0.12104601 0.2096577 -0.9702532 255 255 0 255
-3.4651742E-14 -0.03702238 0.10399999 0.12104601 0.2096577 -0.9702532 255 255 0 255
-3.4651742E-14 -0.074044734 0.09600001 0.12104601 0.2096577 -0.9702532 255 255 0 255
-0.032062314 -0.018511184 0.10399999 0.12104601 0.2096577 -0.9702532 255 255 0 255
-0.032062314 0.018511184 0.10399999 0.12104601 -0.2096577 -0.9702532 255 255 0 255
-3.4651742E-14 0.074044734 0.09600001 0.12104601 -0.2096577 -0.9702532 255 255 0 255
-3.4651742E-14 0.03702238 0.10399999 0.12104601 -0.2096577 -0.9702532 255 255 0 255
-0.06412463 0.03702238 0.09600001 0.12104601 -0.2096577 -0.9702532 255 255 0 255
-0.06412463 -0.03702238 0.09600001 0.24209192 7.2606695E-14 -0.97025335 255 255 0 255
-0.032062314 0.018511184 0.10399999 0.24209192 7.2606695E-14 -0.97025335 255 255 0 255
-0.032062314 -0.018511184 0.10399999 0.24209192 7.2606695E-14 -0.97025335 255 255 0 255
-0.06412463 0.03702238 0.09600001 0.24209192 7.2606695E-14 -0.97025335 255 255 0 255
3 0 1 2
3 1 0 3
3 4 5 6
3 5 4 7
3 8 9 10
3 9 8 11
3 12 13 14
3 13 12 15
3 16 17 18
3 17 16 19
3 20 21 22
3 21 20 23
3 24 25 26
3 25 24 27
3 27 24 28
3 27 28 29
3 30 31 32
3 31 30 33
3 34 35 36
3 35 34 37
3 38 39 40
3 39 38 41
3 42 43 44
3 43 42 45
3 46 47 48
3 47 46 49
3 50 51 52
3 51 50 53

