ply
format ascii 1.0
commentY29udmVydGVyIGJ5IENvZGVMZW9wYXJk
comment Original mesh name: 'C:\Program Files (x86)\Steam\steamapps\common\Stormworks\rom\meshes\component_propeller_dynamic.mesh'
comment SubMesh index: 0
comment SubMesh name: 'ID31'
comment Shader: Opaque (0)
element vertex 309
property float x
property float y
property float z
property float nx
property float ny
property float nz
property uchar red
property uchar green
property uchar blue
property uchar alpha
element face 167
property list uchar ushort vertex_index
end_header
0.07709104 -0.19999991 0.3899252 -0.9077858 -0.3417002 0.24324049 86 86 86 255
0.030913996 -0.05746044 0.41782743 -0.9077858 -0.3417002 0.24324049 86 86 86 255
0.027031709 -0.05746044 0.40333858 -0.9077858 -0.3417002 0.24324049 86 86 86 255
0.035864837 -0.07155747 0.41650087 -0.9077858 -0.3417002 0.24324049 86 86 86 255
0.08097316 -0.19999991 0.40441412 -0.9077858 -0.3417002 0.24324049 86 86 86 255
-0.036839977 -0.07155747 0.43598208 -0.258819 -6.9060545E-13 -0.9659258 86 86 86 255
0.07236614 -0.19546147 0.4067204 -0.258819 -6.9060545E-13 -0.9659258 86 86 86 255
-0.052004226 -0.12988271 0.4400453 -0.258819 -6.9060545E-13 -0.9659258 86 86 86 255
-0.033174783 -0.05746044 0.435 -0.258819 -6.9060545E-13 -0.9659258 86 86 86 255
0.030913996 -0.05746044 0.41782743 -0.258819 -6.9060545E-13 -0.9659258 86 86 86 255
0.035864837 -0.07155747 0.41650087 -0.258819 -6.9060545E-13 -0.9659258 86 86 86 255
0.08097316 -0.19999991 0.40441412 -0.258819 -6.9060545E-13 -0.9659258 86 86 86 255
0.07709104 -0.19999991 0.3899252 0.258819 6.96629E-13 0.9659258 86 86 86 255
-0.033174783 -0.05746044 0.41947085 0.258819 6.96629E-13 0.9659258 86 86 86 255
-0.055886526 -0.12988271 0.42555645 0.258819 6.96629E-13 0.9659258 86 86 86 255
0.027031709 -0.05746044 0.40333858 0.258819 6.96629E-13 0.9659258 86 86 86 255
-0.029295368 -0.25000006 0.4565302 -0.3715099 0.9230769 0.09954579 86 86 86 255
0.08097316 -0.19999991 0.40441412 -0.3715099 0.9230769 0.09954579 86 86 86 255
0.07709104 -0.19999991 0.3899252 -0.3715099 0.9230769 0.09954579 86 86 86 255
-0.055886526 -0.12988271 0.42555645 0.4383803 0.8910808 -0.1174636 86 86 86 255
0.08097316 -0.19999991 0.40441412 0.4383803 0.8910808 -0.1174636 86 86 86 255
0.07709104 -0.19999991 0.3899252 0.4383803 0.8910808 -0.1174636 86 86 86 255
0.07236614 -0.19546147 0.4067204 0.4383803 0.8910808 -0.1174636 86 86 86 255
-0.052004226 -0.12988271 0.4400453 0.4383803 0.8910808 -0.1174636 86 86 86 255
0.07236614 -0.19546147 0.4067204 -0.3967697 -0.3141968 -0.8624698 86 86 86 255
-0.025933225 -0.24249993 0.46907794 -0.3967697 -0.3141968 -0.8624698 86 86 86 255
-0.052004226 -0.12988271 0.4400453 -0.3967697 -0.3141968 -0.8624698 86 86 86 255
0.08097316 -0.19999991 0.40441412 -0.3967697 -0.3141968 -0.8624698 86 86 86 255
-0.036839977 -0.07155747 0.43598208 0.93272823 -0.25991562 -0.24992383 86 86 86 255
-0.055886526 -0.12988271 0.42555645 0.93272823 -0.25991562 -0.24992383 86 86 86 255
-0.033174783 -0.05746044 0.435 0.93272823 -0.25991562 -0.24992383 86 86 86 255
-0.052004226 -0.12988271 0.4400453 0.93272823 -0.25991562 -0.24992383 86 86 86 255
-0.055886526 -0.12988271 0.42555645 0.9541803 -0.29923198 2.1427828E-13 86 86 86 255
-0.033174783 -0.05746044 0.41947085 0.9541803 -0.29923198 2.1427828E-13 86 86 86 255
-0.033174783 -0.05746044 0.435 0.9541803 -0.29923198 2.1427828E-13 86 86 86 255
0.07709104 -0.19999991 0.3899252 0.3953286 0.3104368 0.8644908 86 86 86 255
-0.055886526 -0.12988271 0.42555645 0.3953286 0.3104368 0.8644908 86 86 86 255
-0.029295368 -0.25000006 0.4565302 0.3953286 0.3104368 0.8644908 86 86 86 255
-0.025933225 -0.24249993 0.46907794 -0.5155484 0.7892502 -0.3336075 86 86 86 255
0.08097316 -0.19999991 0.40441412 -0.5155484 0.7892502 -0.3336075 86 86 86 255
-0.029295368 -0.25000006 0.4565302 -0.5155484 0.7892502 -0.3336075 86 86 86 255
-0.052004226 -0.12988271 0.4400453 -0.2472875 -0.2951677 -0.9228895 86 86 86 255
-0.059740618 -0.24249993 0.47813663 -0.2472875 -0.2951677 -0.9228895 86 86 86 255
-0.07217382 -0.23208365 0.47813663 -0.2472875 -0.2951677 -0.9228895 86 86 86 255
-0.025933225 -0.24249993 0.46907794 -0.2472875 -0.2951677 -0.9228895 86 86 86 255
-0.07217382 -0.23208365 0.47813663 0.9284221 -0.2759454 -0.24876998 86 86 86 255
-0.055886526 -0.12988271 0.42555645 0.9284221 -0.2759454 -0.24876998 86 86 86 255
-0.052004226 -0.12988271 0.4400453 0.9284221 -0.2759454 -0.24876998 86 86 86 255
-0.06310276 -0.25000006 0.46558887 0.24746539 0.2929334 0.9235534 86 86 86 255
-0.055886526 -0.12988271 0.42555645 0.24746539 0.2929334 0.9235534 86 86 86 255
-0.07567281 -0.23938107 0.46558887 0.24746539 0.2929334 0.9235534 86 86 86 255
-0.029295368 -0.25000006 0.4565302 0.24746539 0.2929334 0.9235534 86 86 86 255
-0.06310276 -0.25000006 0.46558887 -0.1294095 0.8660254 -0.4829629 86 86 86 255
-0.025933225 -0.24249993 0.46907794 -0.1294095 0.8660254 -0.4829629 86 86 86 255
-0.029295368 -0.25000006 0.4565302 -0.1294095 0.8660254 -0.4829629 86 86 86 255
-0.059740618 -0.24249993 0.47813663 -0.1294095 0.8660254 -0.4829629 86 86 86 255
-0.059740618 -0.24249993 0.47813663 0.543296 0.6484898 -0.53318906 86 86 86 255
-0.06310276 -0.25000006 0.46558887 0.543296 0.6484898 -0.53318906 86 86 86 255
-0.07217382 -0.23208365 0.47813663 0.543296 0.6484898 -0.53318906 86 86 86 255
-0.07567281 -0.23938107 0.46558887 0.96454626 -0.22482528 -0.13821727 86 86 86 255
-0.055886526 -0.12988271 0.42555645 0.96454626 -0.22482528 -0.13821727 86 86 86 255
-0.07217382 -0.23208365 0.47813663 0.96454626 -0.22482528 -0.13821727 86 86 86 255
-0.07217382 -0.23208365 0.47813663 0.54743314 0.64801556 -0.52952117 86 86 86 255
-0.06310276 -0.25000006 0.46558887 0.54743314 0.64801556 -0.52952117 86 86 86 255
-0.07567281 -0.23938107 0.46558887 0.54743314 0.64801556 -0.52952117 86 86 86 255
0.031708598 0 0.495 -1.665335E-16 -7.340129E-13 -1 29 29 29 255
-0.015854299 -0.027460465 0.495 -1.665335E-16 -7.340129E-13 -1 29 29 29 255
-0.031708587 0 0.495 -1.665335E-16 -7.340129E-13 -1 29 29 29 255
0.015854299 -0.027460465 0.495 -1.665335E-16 -7.340129E-13 -1 29 29 29 255
-0.015854299 -0.027460465 0.495 0.8660254 0.5 -3.6715067E-13 29 29 29 255
-0.031708587 0 0.485 0.8660254 0.5 -3.6715067E-13 29 29 29 255
-0.031708587 0 0.495 0.8660254 0.5 -3.6715067E-13 29 29 29 255
-0.015854299 -0.027460465 0.485 0.8660254 0.5 -3.6715067E-13 29 29 29 255
-0.015854299 0.027460441 0.495 -1.665335E-16 -7.340129E-13 -1 29 29 29 255
0.015854299 0.027460441 0.495 -1.665335E-16 -7.340129E-13 -1 29 29 29 255
0.015854299 -0.027460465 0.485 -0.8660254 0.5 -3.668622E-13 29 29 29 255
0.031708598 0 0.495 -0.8660254 0.5 -3.668622E-13 29 29 29 255
0.031708598 0 0.485 -0.8660254 0.5 -3.668622E-13 29 29 29 255
0.015854299 -0.027460465 0.495 -0.8660254 0.5 -3.668622E-13 29 29 29 255
-0.015854299 -0.027460465 0.495 0 1 -7.340129E-13 29 29 29 255
0.015854299 -0.027460465 0.485 0 1 -7.340129E-13 29 29 29 255
-0.015854299 -0.027460465 0.485 0 1 -7.340129E-13 29 29 29 255
0.015854299 -0.027460465 0.495 0 1 -7.340129E-13 29 29 29 255
-0.031708587 0 0.495 0.8660254 -0.5 3.668622E-13 29 29 29 255
-0.015854299 0.027460441 0.485 0.8660254 -0.5 3.668622E-13 29 29 29 255
-0.015854299 0.027460441 0.495 0.8660254 -0.5 3.668622E-13 29 29 29 255
-0.031708587 0 0.485 0.8660254 -0.5 3.668622E-13 29 29 29 255
0.031708598 0 0.485 -0.8660254 -0.5 3.6715067E-13 29 29 29 255
0.015854299 0.027460441 0.495 -0.8660254 -0.5 3.6715067E-13 29 29 29 255
0.015854299 0.027460441 0.485 -0.8660254 -0.5 3.6715067E-13 29 29 29 255
0.031708598 0 0.495 -0.8660254 -0.5 3.6715067E-13 29 29 29 255
0.015854299 0.027460441 0.495 0 -1 7.340129E-13 29 29 29 255
-0.015854299 0.027460441 0.485 0 -1 7.340129E-13 29 29 29 255
0.015854299 0.027460441 0.485 0 -1 7.340129E-13 29 29 29 255
-0.015854299 0.027460441 0.495 0 -1 7.340129E-13 29 29 29 255
-0.028844666 0.04996045 0.485 -1.665335E-16 -7.340129E-13 -1 204 39 39 255
-0.031708587 0 0.485 -1.665335E-16 -7.340129E-13 -1 204 39 39 255
-0.05768933 0 0.485 -1.665335E-16 -7.340129E-13 -1 204 39 39 255
-0.015854299 0.027460441 0.485 -1.665335E-16 -7.340129E-13 -1 204 39 39 255
0.02884469 0.04996045 0.485 -1.665335E-16 -7.340129E-13 -1 204 39 39 255
0.015854299 0.027460441 0.485 -1.665335E-16 -7.340129E-13 -1 204 39 39 255
0.031708598 0 0.485 -1.665335E-16 -7.340129E-13 -1 204 39 39 255
0.057689242 0 0.485 -1.665335E-16 -7.340129E-13 -1 204 39 39 255
-0.028844666 -0.049960427 0.485 -1.665335E-16 -7.340129E-13 -1 204 39 39 255
-0.015854299 -0.027460465 0.485 -1.665335E-16 -7.340129E-13 -1 204 39 39 255
0.02884469 -0.049960427 0.485 -1.665335E-16 -7.340129E-13 -1 204 39 39 255
0.015854299 -0.027460465 0.485 -1.665335E-16 -7.340129E-13 -1 204 39 39 255
0.033174828 -0.05746044 0.475 -0.6928203 0.4 -0.6 204 39 39 255
0.057689242 0 0.485 -0.6928203 0.4 -0.6 204 39 39 255
0.06634963 0 0.475 -0.6928203 0.4 -0.6 204 39 39 255
0.02884469 -0.049960427 0.485 -0.6928203 0.4 -0.6 204 39 39 255
-0.028844666 -0.049960427 0.485 1.0564429E-15 0.8 -0.6 204 39 39 255
0.033174828 -0.05746044 0.475 1.0564429E-15 0.8 -0.6 204 39 39 255
-0.033174783 -0.05746044 0.475 1.0564429E-15 0.8 -0.6 204 39 39 255
0.02884469 -0.049960427 0.485 1.0564429E-15 0.8 -0.6 204 39 39 255
-0.028844666 -0.049960427 0.485 0.6928203 0.4 -0.6 204 39 39 255
-0.066349596 0 0.475 0.6928203 0.4 -0.6 204 39 39 255
-0.05768933 0 0.485 0.6928203 0.4 -0.6 204 39 39 255
-0.033174783 -0.05746044 0.475 0.6928203 0.4 -0.6 204 39 39 255
-0.028844666 0.04996045 0.485 0.6928203 -0.4 -0.6 204 39 39 255
-0.066349596 0 0.475 0.6928203 -0.4 -0.6 204 39 39 255
-0.033174783 0.057460427 0.475 0.6928203 -0.4 -0.6 204 39 39 255
-0.05768933 0 0.485 0.6928203 -0.4 -0.6 204 39 39 255
0.02884469 0.04996045 0.485 -9.99201E-17 -0.8 -0.6 204 39 39 255
-0.033174783 0.057460427 0.475 -9.99201E-17 -0.8 -0.6 204 39 39 255
0.033174828 0.057460427 0.475 -9.99201E-17 -0.8 -0.6 204 39 39 255
-0.028844666 0.04996045 0.485 -9.99201E-17 -0.8 -0.6 204 39 39 255
0.06634963 0 0.475 -0.6928203 -0.4 -0.6 204 39 39 255
0.02884469 0.04996045 0.485 -0.6928203 -0.4 -0.6 204 39 39 255
0.033174828 0.057460427 0.475 -0.6928203 -0.4 -0.6 204 39 39 255
0.057689242 0 0.485 -0.6928203 -0.4 -0.6 204 39 39 255
0.033174828 -0.05746044 0.275 -0.8660254 0.5 -3.6428578E-13 204 39 39 255
0.06634963 0 0.41947085 -0.8660254 0.5 -3.6428578E-13 204 39 39 255
0.06634963 0 0.275 -0.8660254 0.5 -3.6428578E-13 204 39 39 255
0.06634963 0 0.435 -0.8660254 0.5 -3.6428578E-13 204 39 39 255
0.033174828 -0.05746044 0.475 -0.8660254 0.5 -3.6428578E-13 204 39 39 255
0.06634963 0 0.475 -0.8660254 0.5 -3.6428578E-13 204 39 39 255
-0.033174783 -0.05746044 0.41947085 5.807415E-16 1 -7.342465E-13 204 39 39 255
0.033174828 -0.05746044 0.275 5.807415E-16 1 -7.342465E-13 204 39 39 255
-0.033174783 -0.05746044 0.275 5.807415E-16 1 -7.342465E-13 204 39 39 255
0.027031709 -0.05746044 0.40333858 5.807415E-16 1 -7.342465E-13 204 39 39 255
0.030913996 -0.05746044 0.41782743 5.807415E-16 1 -7.342465E-13 204 39 39 255
0.033174828 -0.05746044 0.475 5.807415E-16 1 -7.342465E-13 204 39 39 255
-0.033174783 -0.05746044 0.435 5.807415E-16 1 -7.342465E-13 204 39 39 255
-0.033174783 -0.05746044 0.475 5.807415E-16 1 -7.342465E-13 204 39 39 255
-0.033174783 -0.05746044 0.475 0.8660254 0.5 -3.6721177E-13 204 39 39 255
-0.066349596 0 0.275 0.8660254 0.5 -3.6721177E-13 204 39 39 255
-0.066349596 0 0.475 0.8660254 0.5 -3.6721177E-13 204 39 39 255
-0.033174783 -0.05746044 0.41947085 0.8660254 0.5 -3.6721177E-13 204 39 39 255
-0.033174783 -0.05746044 0.435 0.8660254 0.5 -3.6721177E-13 204 39 39 255
-0.033174783 -0.05746044 0.275 0.8660254 0.5 -3.6721177E-13 204 39 39 255
-0.033174783 0.057460427 0.475 0.8660254 -0.5 3.689831E-13 204 39 39 255
-0.06521919 0.0019579078 0.41782743 0.8660254 -0.5 3.689831E-13 204 39 39 255
-0.033174783 0.057460427 0.435 0.8660254 -0.5 3.689831E-13 204 39 39 255
-0.066349596 0 0.475 0.8660254 -0.5 3.689831E-13 204 39 39 255
-0.063278064 0.0053200754 0.40333858 0.8660254 -0.5 3.689831E-13 204 39 39 255
-0.033174783 0.057460427 0.275 0.8660254 -0.5 3.689831E-13 204 39 39 255
-0.033174783 0.057460427 0.41947085 0.8660254 -0.5 3.689831E-13 204 39 39 255
-0.066349596 0 0.275 0.8660254 -0.5 3.689831E-13 204 39 39 255
0.033174828 0.057460427 0.475 -3.071225E-14 -1 7.3934516E-13 204 39 39 255
-0.033174783 0.057460427 0.275 -3.071225E-14 -1 7.3934516E-13 204 39 39 255
0.033174828 0.057460427 0.275 -3.071225E-14 -1 7.3934516E-13 204 39 39 255
-0.033174783 0.057460427 0.41947085 -3.071225E-14 -1 7.3934516E-13 204 39 39 255
-0.033174783 0.057460427 0.435 -3.071225E-14 -1 7.3934516E-13 204 39 39 255
-0.033174783 0.057460427 0.475 -3.071225E-14 -1 7.3934516E-13 204 39 39 255
0.033174828 0.057460427 0.275 -0.8660254 -0.5 3.688189E-13 204 39 39 255
0.034305196 0.05550252 0.41782743 -0.8660254 -0.5 3.688189E-13 204 39 39 255
0.033174828 0.057460427 0.475 -0.8660254 -0.5 3.688189E-13 204 39 39 255
0.036246352 0.05214035 0.40333858 -0.8660254 -0.5 3.688189E-13 204 39 39 255
0.06634963 0 0.275 -0.8660254 -0.5 3.688189E-13 204 39 39 255
0.06634963 0 0.41947085 -0.8660254 -0.5 3.688189E-13 204 39 39 255
0.06634963 0 0.475 -0.8660254 -0.5 3.688189E-13 204 39 39 255
0.06634963 0 0.435 -0.8660254 -0.5 3.688189E-13 204 39 39 255
0.06634963 0 0.41947085 -0.1294095 0.2241439 0.9659258 86 86 86 255
0.1346596 0.16676275 0.3899252 -0.1294095 0.2241439 0.9659258 86 86 86 255
0.036246352 0.05214035 0.40333858 -0.1294095 0.2241439 0.9659258 86 86 86 255
0.14042516 0.016542256 0.42555645 -0.1294095 0.2241439 0.9659258 86 86 86 255
0.06634963 0 0.435 -0.21794772 0.97596043 -7.2481783E-13 86 86 86 255
0.14042516 0.016542256 0.42555645 -0.21794772 0.97596043 -7.2481783E-13 86 86 86 255
0.06634963 0 0.41947085 -0.21794772 0.97596043 -7.2481783E-13 86 86 86 255
0.1346596 0.16676275 0.3899252 -0.9908888 -0.06589197 -0.1174636 86 86 86 255
0.13309167 0.16040166 0.4067204 -0.9908888 -0.06589197 -0.1174636 86 86 86 255
0.13271855 0.17012492 0.40441412 -0.9908888 -0.06589197 -0.1174636 86 86 86 255
0.14042516 0.016542256 0.42555645 -0.9908888 -0.06589197 -0.1174636 86 86 86 255
0.13848385 0.019904401 0.4400453 -0.9908888 -0.06589197 -0.1174636 86 86 86 255
0.23115396 0.09962947 0.4565302 -0.4665104 0.1871462 0.8644908 86 86 86 255
0.1346596 0.16676275 0.3899252 -0.4665104 0.1871462 0.8644908 86 86 86 255
0.14042516 0.016542256 0.42555645 -0.4665104 0.1871462 0.8644908 86 86 86 255
0.044038262 0.066838644 0.41650087 0.7498139 -0.6153155 0.24324049 86 86 86 255
0.1346596 0.16676275 0.3899252 0.7498139 -0.6153155 0.24324049 86 86 86 255
0.13271855 0.17012492 0.40441412 0.7498139 -0.6153155 0.24324049 86 86 86 255
0.036246352 0.05214035 0.40333858 0.7498139 -0.6153155 0.24324049 86 86 86 255
0.034305196 0.05550252 0.41782743 0.7498139 -0.6153155 0.24324049 86 86 86 255
0.14042516 0.016542256 0.42555645 -0.2412706 0.9377242 -0.24992381 86 86 86 255
0.08039074 0.00387443 0.43598208 -0.2412706 0.9377242 -0.24992381 86 86 86 255
0.13848385 0.019904401 0.4400453 -0.2412706 0.9377242 -0.24992381 86 86 86 255
0.06634963 0 0.435 -0.2412706 0.9377242 -0.24992381 86 86 86 255
0.044038262 0.066838644 0.41650087 0.1294095 -0.2241439 -0.9659258 86 86 86 255
0.06634963 0 0.435 0.1294095 -0.2241439 -0.9659258 86 86 86 255
0.034305196 0.05550252 0.41782743 0.1294095 -0.2241439 -0.9659258 86 86 86 255
0.13271855 0.17012492 0.40441412 0.1294095 -0.2241439 -0.9659258 86 86 86 255
0.08039074 0.00387443 0.43598208 0.1294095 -0.2241439 -0.9659258 86 86 86 255
0.13309167 0.16040166 0.4067204 0.1294095 -0.2241439 -0.9659258 86 86 86 255
0.13848385 0.019904401 0.4400453 0.1294095 -0.2241439 -0.9659258 86 86 86 255
0.24514657 0.05415592 0.46558887 -0.3774204 0.06784464 0.9235534 86 86 86 255
0.23115396 0.09962947 0.4565302 -0.3774204 0.06784464 0.9235534 86 86 86 255
0.14042516 0.016542256 0.42555645 -0.3774204 0.06784464 0.9235534 86 86 86 255
0.24805765 0.070351385 0.46558887 -0.3774204 0.06784464 0.9235534 86 86 86 255
0.23115396 0.09962947 0.4565302 -0.6136531 -0.7832755 0.09954579 86 86 86 255
0.13271855 0.17012492 0.40441412 -0.6136531 -0.7832755 0.09954579 86 86 86 255
0.1346596 0.16676275 0.3899252 -0.6136531 -0.7832755 0.09954579 86 86 86 255
0.23707727 0.05353745 0.47813663 -0.2252353 0.9420098 -0.24876998 86 86 86 255
0.14042516 0.016542256 0.42555645 -0.2252353 0.9420098 -0.24876998 86 86 86 255
0.13848385 0.019904401 0.4400453 -0.2252353 0.9420098 -0.24876998 86 86 86 255
0.2229777 0.09879116 0.46907794 0.4704873 -0.1865142 -0.8624698 86 86 86 255
0.13309167 0.16040166 0.4067204 0.4704873 -0.1865142 -0.8624698 86 86 86 255
0.13271855 0.17012492 0.40441412 0.4704873 -0.1865142 -0.8624698 86 86 86 255
0.13848385 0.019904401 0.4400453 0.4704873 -0.1865142 -0.8624698 86 86 86 255
0.23707727 0.05353745 0.47813663 -0.2875687 0.9477343 -0.1382173 86 86 86 255
0.24514657 0.05415592 0.46558887 -0.2875687 0.9477343 -0.1382173 86 86 86 255
0.14042516 0.016542256 0.42555645 -0.2875687 0.9477343 -0.1382173 86 86 86 255
0.23707727 0.05353745 0.47813663 -0.83491457 0.15008317 -0.52952117 86 86 86 255
0.24805765 0.070351385 0.46558887 -0.83491457 0.15008317 -0.52952117 86 86 86 255
0.24514657 0.05415592 0.46558887 -0.83491457 0.15008317 -0.52952117 86 86 86 255
0.24805765 0.070351385 0.46558887 -0.6852952 -0.5450846 -0.4829629 86 86 86 255
0.2229777 0.09879116 0.46907794 -0.6852952 -0.5450846 -0.4829629 86 86 86 255
0.23115396 0.09962947 0.4565302 -0.6852952 -0.5450846 -0.4829629 86 86 86 255
0.23988138 0.06951308 0.47813663 -0.6852952 -0.5450846 -0.4829629 86 86 86 255
0.2229777 0.09879116 0.46907794 -0.4257365 -0.8411031 -0.3336075 86 86 86 255
0.13271855 0.17012492 0.40441412 -0.4257365 -0.8411031 -0.3336075 86 86 86 255
0.23115396 0.09962947 0.4565302 -0.4257365 -0.8411031 -0.3336075 86 86 86 255
0.2229777 0.09879116 0.46907794 0.3792664 -0.06657341 -0.9228895 86 86 86 255
0.23707727 0.05353745 0.47813663 0.3792664 -0.06657341 -0.9228895 86 86 86 255
0.13848385 0.019904401 0.4400453 0.3792664 -0.06657341 -0.9228895 86 86 86 255
0.23988138 0.06951308 0.47813663 0.3792664 -0.06657341 -0.9228895 86 86 86 255
0.23707727 0.05353745 0.47813663 -0.8332566 0.1462632 -0.533189 86 86 86 255
0.23988138 0.06951308 0.47813663 -0.8332566 0.1462632 -0.533189 86 86 86 255
0.24805765 0.070351385 0.46558887 -0.8332566 0.1462632 -0.533189 86 86 86 255
-0.033174783 -0.05746044 0.275 1.665335E-16 7.340129E-13 1 86 86 86 255
-0.033174783 0.057460427 0.275 1.665335E-16 7.340129E-13 1 86 86 86 255
-0.066349596 0 0.275 1.665335E-16 7.340129E-13 1 86 86 86 255
0.033174828 -0.05746044 0.275 1.665335E-16 7.340129E-13 1 86 86 86 255
0.033174828 0.057460427 0.275 1.665335E-16 7.340129E-13 1 86 86 86 255
0.06634963 0 0.275 1.665335E-16 7.340129E-13 1 86 86 86 255
-0.2054577 0.035059895 0.4067204 0.1294095 0.2241439 -0.9659258 86 86 86 255
-0.07990307 0.0047189067 0.41650087 0.1294095 0.2241439 -0.9659258 86 86 86 255
-0.21369171 0.029875059 0.40441412 0.1294095 0.2241439 -0.9659258 86 86 86 255
-0.08647968 0.10997838 0.4400453 0.1294095 0.2241439 -0.9659258 86 86 86 255
-0.043550692 0.067683145 0.43598208 0.1294095 0.2241439 -0.9659258 86 86 86 255
-0.06521919 0.0019579078 0.41782743 0.1294095 0.2241439 -0.9659258 86 86 86 255
-0.033174783 0.057460427 0.435 0.1294095 0.2241439 -0.9659258 86 86 86 255
-0.21369171 0.029875059 0.40441412 0.1579719 0.9570156 0.24324049 86 86 86 255
-0.063278064 0.0053200754 0.40333858 0.1579719 0.9570156 0.24324049 86 86 86 255
-0.21175058 0.033237237 0.3899252 0.1579719 0.9570156 0.24324049 86 86 86 255
-0.07990307 0.0047189067 0.41650087 0.1579719 0.9570156 0.24324049 86 86 86 255
-0.06521919 0.0019579078 0.41782743 0.1579719 0.9570156 0.24324049 86 86 86 255
-0.19704452 0.14370881 0.46907794 -0.07371759 0.5007111 -0.8624698 86 86 86 255
-0.2054577 0.035059895 0.4067204 -0.07371759 0.5007111 -0.8624698 86 86 86 255
-0.21369171 0.029875059 0.40441412 -0.07371759 0.5007111 -0.8624698 86 86 86 255
-0.08647968 0.10997838 0.4400453 -0.07371759 0.5007111 -0.8624698 86 86 86 255
-0.08453853 0.11334053 0.42555645 0.5525085 -0.8251889 -0.1174636 86 86 86 255
-0.21369171 0.029875059 0.40441412 0.5525085 -0.8251889 -0.1174636 86 86 86 255
-0.21175058 0.033237237 0.3899252 0.5525085 -0.8251889 -0.1174636 86 86 86 255
-0.2054577 0.035059895 0.4067204 0.5525085 -0.8251889 -0.1174636 86 86 86 255
-0.08647968 0.10997838 0.4400453 0.5525085 -0.8251889 -0.1174636 86 86 86 255
-0.08453853 0.11334053 0.42555645 -0.6914576 -0.6778086 -0.24992381 86 86 86 255
-0.043550692 0.067683145 0.43598208 -0.6914576 -0.6778086 -0.24992381 86 86 86 255
-0.08647968 0.10997838 0.4400453 -0.6914576 -0.6778086 -0.24992381 86 86 86 255
-0.033174783 0.057460427 0.435 -0.6914576 -0.6778086 -0.24992381 86 86 86 255
-0.063278064 0.0053200754 0.40333858 -0.1294095 -0.2241439 0.9659258 86 86 86 255
-0.08453853 0.11334053 0.42555645 -0.1294095 -0.2241439 0.9659258 86 86 86 255
-0.21175058 0.033237237 0.3899252 -0.1294095 -0.2241439 0.9659258 86 86 86 255
-0.033174783 0.057460427 0.41947085 -0.1294095 -0.2241439 0.9659258 86 86 86 255
-0.21369171 0.029875059 0.40441412 0.98516303 -0.1398014 0.09954579 86 86 86 255
-0.21175058 0.033237237 0.3899252 0.98516303 -0.1398014 0.09954579 86 86 86 255
-0.20185865 0.15037052 0.4565302 0.98516303 -0.1398014 0.09954579 86 86 86 255
-0.21369171 0.029875059 0.40441412 0.9412849 0.05185292 -0.3336075 86 86 86 255
-0.20185865 0.15037052 0.4565302 0.9412849 0.05185292 -0.3336075 86 86 86 255
-0.19704452 0.14370881 0.46907794 0.9412849 0.05185292 -0.3336075 86 86 86 255
-0.18014082 0.17298688 0.47813663 -0.131979 0.3617411 -0.9228895 86 86 86 255
-0.08647968 0.10997838 0.4400453 -0.131979 0.3617411 -0.9228895 86 86 86 255
-0.19704452 0.14370881 0.46907794 -0.131979 0.3617411 -0.9228895 86 86 86 255
-0.1649034 0.17854616 0.47813663 -0.131979 0.3617411 -0.9228895 86 86 86 255
-0.08647968 0.10997838 0.4400453 -0.7031868 -0.6660644 -0.24876998 86 86 86 255
-0.1649034 0.17854616 0.47813663 -0.7031868 -0.6660644 -0.24876998 86 86 86 255
-0.08453853 0.11334053 0.42555645 -0.7031868 -0.6660644 -0.24876998 86 86 86 255
-0.033174783 0.057460427 0.41947085 -0.73623264 -0.6767284 5.026783E-13 86 86 86 255
-0.033174783 0.057460427 0.435 -0.73623264 -0.6767284 5.026783E-13 86 86 86 255
-0.08453853 0.11334053 0.42555645 -0.73623264 -0.6767284 5.026783E-13 86 86 86 255
-0.08453853 0.11334053 0.42555645 0.07118181 -0.497583 0.8644908 86 86 86 255
-0.20185865 0.15037052 0.4565302 0.07118181 -0.497583 0.8644908 86 86 86 255
-0.21175058 0.033237237 0.3899252 0.07118181 -0.497583 0.8644908 86 86 86 255
-0.18014082 0.17298688 0.47813663 0.8147048 -0.3209408 -0.4829629 86 86 86 255
-0.20185865 0.15037052 0.4565302 0.8147048 -0.3209408 -0.4829629 86 86 86 255
-0.18495494 0.1796486 0.46558887 0.8147048 -0.3209408 -0.4829629 86 86 86 255
-0.19704452 0.14370881 0.46907794 0.8147048 -0.3209408 -0.4829629 86 86 86 255
-0.18014082 0.17298688 0.47813663 0.2899606 -0.794753 -0.533189 86 86 86 255
-0.18495494 0.1796486 0.46558887 0.2899606 -0.794753 -0.533189 86 86 86 255
-0.1649034 0.17854616 0.47813663 0.2899606 -0.794753 -0.533189 86 86 86 255
-0.1649034 0.17854616 0.47813663 -0.6769776 -0.7229089 -0.1382173 86 86 86 255
-0.1694736 0.18522508 0.46558887 -0.6769776 -0.7229089 -0.1382173 86 86 86 255
-0.08453853 0.11334053 0.42555645 -0.6769776 -0.7229089 -0.1382173 86 86 86 255
-0.08453853 0.11334053 0.42555645 0.129955 -0.360778 0.9235534 86 86 86 255
-0.18495494 0.1796486 0.46558887 0.129955 -0.360778 0.9235534 86 86 86 255
-0.20185865 0.15037052 0.4565302 0.129955 -0.360778 0.9235534 86 86 86 255
-0.1694736 0.18522508 0.46558887 0.129955 -0.360778 0.9235534 86 86 86 255
-0.1649034 0.17854616 0.47813663 0.28748137 -0.79809886 -0.52952117 86 86 86 255
-0.18495494 0.1796486 0.46558887 0.28748137 -0.79809886 -0.52952117 86 86 86 255
-0.1694736 0.18522508 0.46558887 0.28748137 -0.79809886 -0.52952117 86 86 86 255
3 0 1 2
3 1 0 3
3 3 0 4
3 5 6 7
3 6 5 8
3 6 8 9
3 6 9 10
3 6 10 11
3 12 13 14
3 13 12 15
3 16 17 18
3 19 20 21
3 20 19 22
3 22 19 23
3 24 25 26
3 25 24 27
3 28 29 30
3 29 28 31
3 32 33 34
3 35 36 37
3 38 39 40
3 41 42 43
3 42 41 44
3 45 46 47
3 48 49 50
3 49 48 51
3 52 53 54
3 53 52 55
3 56 57 58
3 59 60 61
3 62 63 64
3 65 66 67
3 66 65 68
3 69 70 71
3 70 69 72
3 73 65 67
3 65 73 74
3 75 76 77
3 76 75 78
3 79 80 81
3 80 79 82
3 83 84 85
3 84 83 86
3 87 88 89
3 88 87 90
3 91 92 93
3 92 91 94
3 95 96 97
3 96 95 98
3 98 95 99
3 98 99 100
3 100 99 101
3 101 99 102
3 96 103 97
3 103 96 104
3 103 104 105
3 105 104 106
3 105 106 101
3 105 101 102
3 107 108 109
3 108 107 110
3 111 112 113
3 112 111 114
3 115 116 117
3 116 115 118
3 119 120 121
3 120 119 122
3 123 124 125
3 124 123 126
3 127 128 129
3 128 127 130
3 131 132 133
3 134 135 136
3 135 134 132
3 135 132 131
3 137 138 139
3 138 137 140
3 138 141 142
3 141 138 140
3 142 141 143
3 142 143 144
3 145 146 147
3 146 145 148
3 148 145 149
3 150 146 148
3 151 152 153
3 152 151 154
3 155 156 157
3 156 155 158
3 158 155 152
3 158 152 154
3 159 160 161
3 160 159 162
3 162 159 163
3 163 159 164
3 165 166 167
3 166 165 168
3 168 165 169
3 168 169 170
3 166 171 167
3 171 166 172
3 173 174 175
3 174 173 176
3 177 178 179
3 180 181 182
3 181 180 183
3 181 183 184
3 185 186 187
3 188 189 190
3 189 188 191
3 191 188 192
3 193 194 195
3 194 193 196
3 197 198 199
3 198 197 200
3 198 200 201
3 201 200 202
3 201 202 203
3 204 205 206
3 205 204 207
3 208 209 210
3 211 212 213
3 214 215 216
3 215 214 217
3 218 219 220
3 221 222 223
3 224 225 226
3 225 224 227
3 228 229 230
3 231 232 233
3 232 231 234
3 235 236 237
3 238 239 240
3 239 238 241
3 239 241 242
3 242 241 243
3 244 245 246
3 245 244 247
3 245 247 248
3 245 248 249
3 249 248 250
3 251 252 253
3 252 251 254
3 252 254 255
3 256 257 258
3 257 256 259
3 260 261 262
3 261 260 263
3 263 260 264
3 265 266 267
3 266 265 268
3 269 270 271
3 270 269 272
3 273 274 275
3 276 277 278
3 279 280 281
3 280 279 282
3 283 284 285
3 286 287 288
3 289 290 291
3 292 293 294
3 293 292 295
3 296 297 298
3 299 300 301
3 302 303 304
3 303 302 305
3 306 307 308

