ply
format ascii 1.0
commentY29udmVydGVyIGJ5IENvZGVMZW9wYXJk
comment Original mesh name: 'C:\Program Files (x86)\Steam\steamapps\common\Stormworks\rom\meshes\component_button_flip_dynamic1.mesh'
comment SubMesh index: 0
comment SubMesh name: 'ID321'
comment Shader: Transparent (1)
element vertex 497
property float x
property float y
property float z
property float nx
property float ny
property float nz
property uchar red
property uchar green
property uchar blue
property uchar alpha
element face 14
property list uchar ushort vertex_index
end_header
-0.055000007 0.054999992 0.16499996 0 -0 1 160 160 199 128
0.05499999 -0.054999992 0.16499996 0 -0 1 160 160 199 128
0.05499999 0.054999992 0.16499996 0 -0 1 160 160 199 128
-0.055000007 -0.054999992 0.16499996 0 -0 1 160 160 199 128
0.07499998 0.074999996 0.17499997 -1 -0 -0 160 160 199 128
0.07499998 -0.074999996 0.16499996 -1 -0 -0 160 160 199 128
0.07499998 -0.074999996 0.17499997 -1 -0 -0 160 160 199 128
0.07499998 0.074999996 0.16499996 -1 -0 -0 160 160 199 128
0.07499998 0.074999996 0.17499997 0 -1 -0 160 160 199 128
-0.074999996 0.074999996 0.16499996 0 -1 -0 160 160 199 128
0.07499998 0.074999996 0.16499996 0 -1 -0 160 160 199 128
-0.074999996 0.074999996 0.17499997 0 -1 -0 160 160 199 128
-0.074999996 -0.074999996 0.17499997 0 1 -0 160 160 199 128
0.07499998 -0.074999996 0.16499996 0 1 -0 160 160 199 128
-0.074999996 -0.074999996 0.16499996 0 1 -0 160 160 199 128
0.07499998 -0.074999996 0.17499997 0 1 -0 160 160 199 128
-0.074999996 0.074999996 0.16499996 1 -0 -0 160 160 199 128
-0.074999996 -0.074999996 0.17499997 1 -0 -0 160 160 199 128
-0.074999996 -0.074999996 0.16499996 1 -0 -0 160 160 199 128
-0.074999996 0.074999996 0.17499997 1 -0 -0 160 160 199 128
-0.074999996 -0.074999996 0.17499997 0 -0 -1 160 160 199 128
0.07499998 0.074999996 0.17499997 0 -0 -1 160 160 199 128
0.07499998 -0.074999996 0.17499997 0 -0 -1 160 160 199 128
-0.074999996 0.074999996 0.17499997 0 -0 -1 160 160 199 128
-0.074999996 0.074999996 0.17499997 0 -0 1 160 160 199 128
-0.074999996 -0.074999996 0.17499997 0 -0 1 160 160 199 128
0.07499998 0.074999996 0.17499997 0 -0 1 160 160 199 128
0.07499998 -0.074999996 0.17499997 0 -0 1 160 160 199 128
0.05499999 -0.035 0.12499997 1 -0 -0 255 227 0 255
0.05499999 -0.035 0.16499996 1 -0 -0 255 227 0 255
0.05499999 -0.054999992 0.12499997 1 -0 -0 255 227 0 255
0.05499999 -0.014999992 0.16499996 1 -0 -0 255 227 0 255
0.05499999 0.0050149043 0.12499997 1 -0 -0 255 227 0 255
0.05499999 0.0050149043 0.16499996 1 -0 -0 255 227 0 255
0.05499999 -0.014985079 0.12499997 1 -0 -0 255 227 0 255
0.05499999 0.02501491 0.16499996 1 -0 -0 255 227 0 255
0.05499999 -0.014985079 0.12499997 1 -0 -0 84 84 84 255
0.05499999 -0.014999992 0.16499996 1 -0 -0 84 84 84 255
0.05499999 -0.035 0.12499997 1 -0 -0 84 84 84 255
0.05499999 0.0050149043 0.16499996 1 -0 -0 84 84 84 255
-0.055000007 0.054999992 0.14497015 0 1 -0 84 84 84 255
-0.04501491 0.054999992 0.12499997 0 1 -0 84 84 84 255
-0.055000007 0.054999992 0.12499997 0 1 -0 84 84 84 255
-0.055000007 0.054999992 0.12499997 -1 -0 -0 84 84 84 255
-0.055000007 0.035000004 0.16499996 -1 -0 -0 84 84 84 255
-0.055000007 0.054999992 0.16499996 -1 -0 -0 84 84 84 255
-0.04501491 0.054999992 0.16499996 0 1 -0 84 84 84 255
-0.0050149215 0.054999992 0.12499997 0 1 -0 84 84 84 255
-0.025014935 0.054999992 0.12499997 0 1 -0 84 84 84 255
-0.025014935 0.054999992 0.16499996 0 1 -0 84 84 84 255
-0.0050149215 0.054999992 0.16499996 0 1 -0 84 84 84 255
0.03499998 0.054999992 0.12499997 0 1 -0 84 84 84 255
0.0149850845 0.054999992 0.12499997 0 1 -0 84 84 84 255
0.014999998 0.054999992 0.16499996 0 1 -0 84 84 84 255
-0.055000007 0.054999992 0.14499998 0 1 -0 255 227 0 255
-0.025014935 0.054999992 0.12499997 0 1 -0 255 227 0 255
-0.04501491 0.054999992 0.12499997 0 1 -0 255 227 0 255
-0.04501491 0.054999992 0.16499996 0 1 -0 255 227 0 255
-0.055000007 0.054999992 0.16499996 0 1 -0 255 227 0 255
0.014999998 0.054999992 0.16499996 0 1 -0 255 227 0 255
0.05499999 0.054999992 0.12499997 0 1 -0 255 227 0 255
0.03499998 0.054999992 0.12499997 0 1 -0 255 227 0 255
0.03499998 0.054999992 0.16499996 0 1 -0 255 227 0 255
-0.025014935 0.054999992 0.16499996 0 1 -0 255 227 0 255
0.0149850845 0.054999992 0.12499997 0 1 -0 255 227 0 255
-0.0050149215 0.054999992 0.12499997 0 1 -0 255 227 0 255
-0.0050149215 0.054999992 0.16499996 0 1 -0 255 227 0 255
-0.055000007 -0.045014914 0.16499996 -1 -0 -0 255 227 0 255
-0.055000007 -0.054999992 0.14497015 -1 -0 -0 255 227 0 255
-0.055000007 -0.054999992 0.16499996 -1 -0 -0 255 227 0 255
-0.055000007 -0.045014914 0.12499997 -1 -0 -0 255 227 0 255
-0.055000007 -0.025014905 0.12499997 -1 -0 -0 255 227 0 255
-0.055000007 0.035000004 0.16499996 -1 -0 -0 255 227 0 255
-0.055000007 0.035000004 0.12499997 -1 -0 -0 255 227 0 255
-0.055000007 0.014999998 0.16499996 -1 -0 -0 255 227 0 255
-0.055000007 0.054999992 0.12499997 -1 -0 -0 255 227 0 255
-0.055000007 0.014999998 0.16499996 -1 -0 -0 84 84 84 255
-0.055000007 0.014985091 0.12499997 -1 -0 -0 84 84 84 255
-0.055000007 -0.0050149215 0.16499996 -1 -0 -0 84 84 84 255
-0.055000007 0.035000004 0.12499997 -1 -0 -0 84 84 84 255
-0.055000007 -0.0050149215 0.16499996 -1 -0 -0 255 227 0 255
-0.055000007 -0.0050149215 0.12499997 -1 -0 -0 255 227 0 255
-0.055000007 -0.025014905 0.16499996 -1 -0 -0 255 227 0 255
-0.055000007 0.014985091 0.12499997 -1 -0 -0 255 227 0 255
-0.055000007 -0.025014905 0.16499996 -1 -0 -0 84 84 84 255
-0.055000007 -0.025014905 0.12499997 -1 -0 -0 84 84 84 255
-0.055000007 -0.045014914 0.16499996 -1 -0 -0 84 84 84 255
-0.055000007 -0.0050149215 0.12499997 -1 -0 -0 84 84 84 255
0.09207105 -0.054999992 0.14207105 -0.9238795 -0 -0.3826835 84 84 84 255
0.094999984 -0.074999996 0.13499998 -0.9238795 -0 -0.3826835 84 84 84 255
0.09207105 -0.074999996 0.14207105 -0.9238795 -0 -0.3826835 84 84 84 255
0.094999984 -0.054999992 0.13499998 -0.9238795 -0 -0.3826835 84 84 84 255
0.084999986 -0.074999996 0.14499998 -0.3826835 -0 -0.9238795 84 84 84 255
0.09207105 -0.054999992 0.14207105 -0.3826835 -0 -0.9238795 84 84 84 255
0.09207105 -0.074999996 0.14207105 -0.3826835 -0 -0.9238795 84 84 84 255
0.084999986 -0.054999992 0.14499998 -0.3826835 -0 -0.9238795 84 84 84 255
0.09207105 -0.054999992 0.1279289 0 -1 -0 84 84 84 255
0.07499998 -0.054999992 0.12499997 0 -1 -0 84 84 84 255
0.084999986 -0.054999992 0.12499997 0 -1 -0 84 84 84 255
0.07499998 -0.054999992 0.14497015 0 -1 -0 84 84 84 255
0.094999984 -0.054999992 0.13499998 0 -1 -0 84 84 84 255
0.09207105 -0.054999992 0.14207105 0 -1 -0 84 84 84 255
0.084999986 -0.054999992 0.14499998 0 -1 -0 84 84 84 255
0.07499998 -0.054999992 0.14499998 0 -1 -0 84 84 84 255
0.094999984 -0.054999992 0.13499998 -0.9238795 -0 0.3826835 84 84 84 255
0.09207105 -0.074999996 0.1279289 -0.9238795 -0 0.3826835 84 84 84 255
0.094999984 -0.074999996 0.13499998 -0.9238795 -0 0.3826835 84 84 84 255
0.09207105 -0.054999992 0.1279289 -0.9238795 -0 0.3826835 84 84 84 255
0.07499998 -0.074999996 0.14499998 -8.3169155E-14 1 -1.9812441E-14 84 84 84 255
0.094999984 -0.074999996 0.13499998 -8.3169155E-14 1 -1.9812441E-14 84 84 84 255
0.09207105 -0.074999996 0.1279289 -8.3169155E-14 1 -1.9812441E-14 84 84 84 255
0.09207105 -0.074999996 0.14207105 -8.3169155E-14 1 -1.9812441E-14 84 84 84 255
0.084999986 -0.074999996 0.14499998 -8.3169155E-14 1 -1.9812441E-14 84 84 84 255
0.07499998 -0.074999996 0.14499998 0 -0 -1 84 84 84 255
0.084999986 -0.054999992 0.14499998 0 -0 -1 84 84 84 255
0.084999986 -0.074999996 0.14499998 0 -0 -1 84 84 84 255
0.07499998 -0.054999992 0.14499998 0 -0 -1 84 84 84 255
0.07499998 -0.045014914 0.16499996 -1 -0 -0 84 84 84 255
0.07499998 -0.054999992 0.14499998 -1 -0 -0 84 84 84 255
0.07499998 -0.065014906 0.16499996 -1 -0 -0 84 84 84 255
0.07499998 -0.054999992 0.14497015 -1 -0 -0 84 84 84 255
0.07499998 -0.045014914 0.12499997 -1 -0 -0 84 84 84 255
0.07499998 -0.035 0.14499998 -1 -0 -0 84 84 84 255
0.07499998 -0.035 0.12499997 -1 -0 -0 84 84 84 255
0.07499998 -0.054999992 0.12499997 0 -0 1 84 84 84 255
0.084999986 -0.074999996 0.12499997 0 -0 1 84 84 84 255
0.084999986 -0.054999992 0.12499997 0 -0 1 84 84 84 255
0.07499998 -0.074999996 0.12499997 0 -0 1 84 84 84 255
0.084999986 -0.054999992 0.12499997 -0.3826835 -0 0.9238795 84 84 84 255
0.09207105 -0.074999996 0.1279289 -0.3826835 -0 0.9238795 84 84 84 255
0.09207105 -0.054999992 0.1279289 -0.3826835 -0 0.9238795 84 84 84 255
0.084999986 -0.074999996 0.12499997 -0.3826835 -0 0.9238795 84 84 84 255
0.07499998 -0.035 0.14499998 0 1 -0 84 84 84 255
0.084999986 -0.035 0.12499997 0 1 -0 84 84 84 255
0.07499998 -0.035 0.12499997 0 1 -0 84 84 84 255
0.09207105 -0.035 0.1279289 0 1 -0 84 84 84 255
0.094999984 -0.035 0.13499998 0 1 -0 84 84 84 255
0.09207105 -0.035 0.14207105 0 1 -0 84 84 84 255
0.084999986 -0.035 0.14499998 0 1 -0 84 84 84 255
0.03499998 -0.074999996 0.16499996 0 -0 -1 84 84 84 255
0.05499999 -0.054999992 0.16499996 0 -0 -1 84 84 84 255
0.05499999 -0.074999996 0.16499996 0 -0 -1 84 84 84 255
-0.055000007 -0.054999992 0.16499996 0 -0 -1 84 84 84 255
0.014999998 -0.074999996 0.16499996 0 -0 -1 84 84 84 255
-0.005000009 -0.074999996 0.16499996 0 -0 -1 84 84 84 255
-0.025014935 -0.074999996 0.16499996 0 -0 -1 84 84 84 255
-0.04501491 -0.074999996 0.16499996 0 -0 -1 84 84 84 255
-0.06501492 -0.074999996 0.16499996 0 -0 -1 84 84 84 255
-0.055000007 0.054999992 0.16499996 0 -0 -1 84 84 84 255
-0.055000007 0.074999996 0.16499996 0 -0 -1 84 84 84 255
-0.074999996 0.074999996 0.16499996 0 -0 -1 84 84 84 255
-0.074999996 -0.074999996 0.16499996 0 -0 -1 84 84 84 255
0.07499998 -0.065014906 0.16499996 0 -0 -1 84 84 84 255
0.07499998 -0.074999996 0.16499996 0 -0 -1 84 84 84 255
0.07499998 -0.045014914 0.16499996 0 -0 -1 84 84 84 255
0.07499998 -0.004999986 0.16499996 0 -0 -1 84 84 84 255
0.07499998 0.014999998 0.16499996 0 -0 -1 84 84 84 255
0.07499998 0.054999992 0.16499996 0 -0 -1 84 84 84 255
0.07499998 0.074999996 0.16499996 0 -0 -1 84 84 84 255
0.065014906 0.074999996 0.16499996 0 -0 -1 84 84 84 255
0.05499999 0.054999992 0.16499996 0 -0 -1 84 84 84 255
0.045014895 0.074999996 0.16499996 0 -0 -1 84 84 84 255
0.02501491 0.074999996 0.16499996 0 -0 -1 84 84 84 255
0.0049999915 0.074999996 0.16499996 0 -0 -1 84 84 84 255
-0.0150000155 0.074999996 0.16499996 0 -0 -1 84 84 84 255
-0.035000004 0.074999996 0.16499996 0 -0 -1 84 84 84 255
0.05499999 -0.074999996 0.16499996 -7.695897E-14 1 -5.046474E-14 84 84 84 255
0.084999986 -0.074999996 0.12499997 -7.695897E-14 1 -5.046474E-14 84 84 84 255
0.07499998 -0.074999996 0.12499997 -7.695897E-14 1 -5.046474E-14 84 84 84 255
0.07499998 -0.035 0.14499998 0 -0 -1 84 84 84 255
0.084999986 -0.014999992 0.14499998 0 -0 -1 84 84 84 255
0.084999986 -0.035 0.14499998 0 -0 -1 84 84 84 255
0.07499998 -0.014999992 0.14499998 0 -0 -1 84 84 84 255
0.084999986 -0.035 0.14499998 -0.3826835 -0 -0.9238795 84 84 84 255
0.09207105 -0.014999992 0.14207105 -0.3826835 -0 -0.9238795 84 84 84 255
0.09207105 -0.035 0.14207105 -0.3826835 -0 -0.9238795 84 84 84 255
0.084999986 -0.014999992 0.14499998 -0.3826835 -0 -0.9238795 84 84 84 255
0.09207105 -0.014999992 0.14207105 -0.9238795 -0 -0.3826835 84 84 84 255
0.094999984 -0.035 0.13499998 -0.9238795 -0 -0.3826835 84 84 84 255
0.09207105 -0.035 0.14207105 -0.9238795 -0 -0.3826835 84 84 84 255
0.094999984 -0.014999992 0.13499998 -0.9238795 -0 -0.3826835 84 84 84 255
0.094999984 -0.014999992 0.13499998 -0.9238795 -0 0.3826835 84 84 84 255
0.09207105 -0.035 0.1279289 -0.9238795 -0 0.3826835 84 84 84 255
0.094999984 -0.035 0.13499998 -0.9238795 -0 0.3826835 84 84 84 255
0.09207105 -0.014999992 0.1279289 -0.9238795 -0 0.3826835 84 84 84 255
0.084999986 -0.014999992 0.12499997 -0.3826835 -0 0.9238795 84 84 84 255
0.09207105 -0.035 0.1279289 -0.3826835 -0 0.9238795 84 84 84 255
0.09207105 -0.014999992 0.1279289 -0.3826835 -0 0.9238795 84 84 84 255
0.084999986 -0.035 0.12499997 -0.3826835 -0 0.9238795 84 84 84 255
0.07499998 -0.014999992 0.12499997 0 -0 1 84 84 84 255
0.084999986 -0.035 0.12499997 0 -0 1 84 84 84 255
0.084999986 -0.014999992 0.12499997 0 -0 1 84 84 84 255
0.07499998 -0.035 0.12499997 0 -0 1 84 84 84 255
0.014999998 -0.074999996 0.16499996 -9.023834E-15 1 3.151595E-20 84 84 84 255
0.05499999 -0.074999996 0.12499997 -9.023834E-15 1 3.151595E-20 84 84 84 255
0.03499998 -0.074999996 0.12499997 -9.023834E-15 1 3.151595E-20 84 84 84 255
0.03499998 -0.074999996 0.16499996 -9.023834E-15 1 3.151595E-20 84 84 84 255
-0.025014935 -0.074999996 0.16499996 1.524549E-29 1 7.6227495E-30 84 84 84 255
0.014999998 -0.074999996 0.12499997 1.524549E-29 1 7.6227495E-30 84 84 84 255
-0.0050149215 -0.074999996 0.12499997 1.524549E-29 1 7.6227495E-30 84 84 84 255
-0.005000009 -0.074999996 0.16499996 1.524549E-29 1 7.6227495E-30 84 84 84 255
-0.06501492 -0.074999996 0.16499996 -1.8047819E-14 1 -1.719051E-20 84 84 84 255
-0.025014935 -0.074999996 0.12499997 -1.8047819E-14 1 -1.719051E-20 84 84 84 255
-0.04501491 -0.074999996 0.12499997 -1.8047819E-14 1 -1.719051E-20 84 84 84 255
-0.04501491 -0.074999996 0.16499996 -1.8047819E-14 1 -1.719051E-20 84 84 84 255
-0.055000007 0.074999996 0.16499996 0 -1 -0 84 84 84 255
-0.074999996 0.074999996 0.14497015 0 -1 -0 84 84 84 255
-0.074999996 0.074999996 0.12499997 0 -1 -0 84 84 84 255
-0.074999996 0.074999996 0.16499996 0 -1 -0 84 84 84 255
-0.0150000155 0.074999996 0.16499996 0 -1 -0 84 84 84 255
-0.055000007 0.074999996 0.12499997 0 -1 -0 84 84 84 255
-0.035000004 0.074999996 0.12499997 0 -1 -0 84 84 84 255
-0.035000004 0.074999996 0.16499996 0 -1 -0 84 84 84 255
0.02501491 0.074999996 0.16499996 0 -1 -0 84 84 84 255
-0.0150000155 0.074999996 0.12499997 0 -1 -0 84 84 84 255
0.0050148983 0.074999996 0.12499997 0 -1 -0 84 84 84 255
0.0049999915 0.074999996 0.16499996 0 -1 -0 84 84 84 255
0.065014906 0.074999996 0.16499996 0 -1 -0 84 84 84 255
0.02501491 0.074999996 0.12499997 0 -1 -0 84 84 84 255
0.045014895 0.074999996 0.12499997 0 -1 -0 84 84 84 255
0.045014895 0.074999996 0.16499996 0 -1 -0 84 84 84 255
0.07499998 0.074999996 0.12499997 -1 -0 -0 84 84 84 255
0.07499998 0.054999992 0.16499996 -1 -0 -0 84 84 84 255
0.07499998 0.074999996 0.16499996 -1 -0 -0 84 84 84 255
0.07499998 -0.074999996 0.16499996 3.609558E-14 1 -9.2348145E-30 84 84 84 255
0.09207105 -0.014999992 0.1279289 0 -1 -0 84 84 84 255
0.07499998 -0.014999992 0.12499997 0 -1 -0 84 84 84 255
0.084999986 -0.014999992 0.12499997 0 -1 -0 84 84 84 255
0.07499998 -0.014999992 0.14497015 0 -1 -0 84 84 84 255
0.094999984 -0.014999992 0.13499998 0 -1 -0 84 84 84 255
0.09207105 -0.014999992 0.14207105 0 -1 -0 84 84 84 255
0.084999986 -0.014999992 0.14499998 0 -1 -0 84 84 84 255
0.07499998 -0.014999992 0.14499998 0 -1 -0 84 84 84 255
0.045014895 0.074999996 0.12499997 1.6921488E-17 7.749649E-18 1 84 84 84 255
0.05499999 0.054999992 0.12499997 1.6921488E-17 7.749649E-18 1 84 84 84 255
0.065014906 0.074999996 0.12499997 1.6921488E-17 7.749649E-18 1 84 84 84 255
-0.055000007 0.054999992 0.12499997 1.6921488E-17 7.749649E-18 1 84 84 84 255
0.02501491 0.074999996 0.12499997 1.6921488E-17 7.749649E-18 1 84 84 84 255
0.0050148983 0.074999996 0.12499997 1.6921488E-17 7.749649E-18 1 84 84 84 255
-0.0150000155 0.074999996 0.12499997 1.6921488E-17 7.749649E-18 1 84 84 84 255
-0.035000004 0.074999996 0.12499997 1.6921488E-17 7.749649E-18 1 84 84 84 255
-0.055000007 0.074999996 0.12499997 1.6921488E-17 7.749649E-18 1 84 84 84 255
-0.074999996 0.074999996 0.12499997 1.6921488E-17 7.749649E-18 1 84 84 84 255
-0.055000007 -0.054999992 0.12499997 1.6921488E-17 7.749649E-18 1 84 84 84 255
-0.06501492 -0.074999996 0.12499997 1.6921488E-17 7.749649E-18 1 84 84 84 255
-0.074999996 -0.074999996 0.12499997 1.6921488E-17 7.749649E-18 1 84 84 84 255
0.05499999 -0.074999996 0.12499997 1.6921488E-17 7.749649E-18 1 84 84 84 255
0.05499999 -0.054999992 0.12499997 1.6921488E-17 7.749649E-18 1 84 84 84 255
0.03499998 -0.074999996 0.12499997 1.6921488E-17 7.749649E-18 1 84 84 84 255
0.014999998 -0.074999996 0.12499997 1.6921488E-17 7.749649E-18 1 84 84 84 255
-0.0050149215 -0.074999996 0.12499997 1.6921488E-17 7.749649E-18 1 84 84 84 255
-0.025014935 -0.074999996 0.12499997 1.6921488E-17 7.749649E-18 1 84 84 84 255
-0.04501491 -0.074999996 0.12499997 1.6921488E-17 7.749649E-18 1 84 84 84 255
0.07499998 0.074999996 0.12499997 1.6921488E-17 7.749649E-18 1 84 84 84 255
0.084999986 0.054999992 0.12499997 1.6921488E-17 7.749649E-18 1 84 84 84 255
0.084999986 0.074999996 0.12499997 1.6921488E-17 7.749649E-18 1 84 84 84 255
0.07499998 0.054999992 0.12499997 1.6921488E-17 7.749649E-18 1 84 84 84 255
0.07499998 0.035000004 0.12499997 1.6921488E-17 7.749649E-18 1 84 84 84 255
0.07499998 0.014999998 0.12499997 1.6921488E-17 7.749649E-18 1 84 84 84 255
0.07499998 -0.0050149215 0.12499997 1.6921488E-17 7.749649E-18 1 84 84 84 255
0.07499998 -0.045014914 0.12499997 1.6921488E-17 7.749649E-18 1 84 84 84 255
0.07499998 -0.065014906 0.12499997 1.6921488E-17 7.749649E-18 1 84 84 84 255
0.084999986 0.014999998 0.12499997 1.6921488E-17 7.749649E-18 1 84 84 84 255
0.084999986 0.035000004 0.12499997 1.6921488E-17 7.749649E-18 1 84 84 84 255
-0.074999996 0.074999996 0.14497015 1 -0 -0 84 84 84 255
-0.074999996 0.0650149 0.12499997 1 -0 -0 84 84 84 255
-0.074999996 0.074999996 0.12499997 1 -0 -0 84 84 84 255
0.07499998 -0.004999986 0.16499996 -1 -0 -0 84 84 84 255
0.07499998 -0.014999992 0.14499998 -1 -0 -0 84 84 84 255
0.07499998 -0.025014905 0.16499996 -1 -0 -0 84 84 84 255
0.07499998 -0.014999992 0.14497015 -1 -0 -0 84 84 84 255
0.07499998 -0.0050149215 0.12499997 -1 -0 -0 84 84 84 255
0.07499998 0.014999998 0.12499997 -1 -0 -0 84 84 84 255
0.09207105 0.035000004 0.1279289 0 -1 -0 84 84 84 255
0.07499998 0.035000004 0.12499997 0 -1 -0 84 84 84 255
0.084999986 0.035000004 0.12499997 0 -1 -0 84 84 84 255
0.07499998 0.035000004 0.14499998 0 -1 -0 84 84 84 255
0.094999984 0.035000004 0.13499998 0 -1 -0 84 84 84 255
0.09207105 0.035000004 0.14207105 0 -1 -0 84 84 84 255
0.084999986 0.035000004 0.14499998 0 -1 -0 84 84 84 255
0.07499998 0.035000004 0.16499996 -1 -0 -0 84 84 84 255
0.07499998 0.035000004 0.12499997 -1 -0 -0 84 84 84 255
0.07499998 0.014999998 0.16499996 -1 -0 -0 84 84 84 255
0.07499998 0.054999992 0.12499997 -1 -0 -0 84 84 84 255
0.07499998 0.054999992 0.14499998 0 1 -0 84 84 84 255
0.084999986 0.054999992 0.12499997 0 1 -0 84 84 84 255
0.07499998 0.054999992 0.12499997 0 1 -0 84 84 84 255
0.09207105 0.054999992 0.1279289 0 1 -0 84 84 84 255
0.094999984 0.054999992 0.13499998 0 1 -0 84 84 84 255
0.09207105 0.054999992 0.14207105 0 1 -0 84 84 84 255
0.084999986 0.054999992 0.14499998 0 1 -0 84 84 84 255
0.084999986 0.074999996 0.12499997 -0.3826835 -0 0.9238795 84 84 84 255
0.09207105 0.054999992 0.1279289 -0.3826835 -0 0.9238795 84 84 84 255
0.09207105 0.074999996 0.1279289 -0.3826835 -0 0.9238795 84 84 84 255
0.084999986 0.054999992 0.12499997 -0.3826835 -0 0.9238795 84 84 84 255
0.09207105 0.074999996 0.1279289 0 -1 -0 84 84 84 255
0.07499998 0.074999996 0.12499997 0 -1 -0 84 84 84 255
0.084999986 0.074999996 0.12499997 0 -1 -0 84 84 84 255
0.065014906 0.074999996 0.12499997 0 -1 -0 84 84 84 255
0.07499998 0.074999996 0.14499998 0 -1 -0 84 84 84 255
0.094999984 0.074999996 0.13499998 0 -1 -0 84 84 84 255
0.09207105 0.074999996 0.14207105 0 -1 -0 84 84 84 255
0.084999986 0.074999996 0.14499998 0 -1 -0 84 84 84 255
-0.074999996 -0.074999996 0.14497015 3.614953E-14 1 1.807474E-14 84 84 84 255
-0.06501492 -0.074999996 0.12499997 3.614953E-14 1 1.807474E-14 84 84 84 255
-0.074999996 -0.074999996 0.12499997 3.614953E-14 1 1.807474E-14 84 84 84 255
0.07499998 -0.065014906 0.12499997 -1 -0 -0 84 84 84 255
0.07499998 -0.074999996 0.12499997 -1 -0 -0 84 84 84 255
0.07499998 -0.074999996 0.14497015 -1 -0 -0 84 84 84 255
0.07499998 0.014999998 0.14499998 0 1 -0 84 84 84 255
0.084999986 0.014999998 0.12499997 0 1 -0 84 84 84 255
0.07499998 0.014999998 0.12499997 0 1 -0 84 84 84 255
0.09207105 0.014999998 0.1279289 0 1 -0 84 84 84 255
0.094999984 0.014999998 0.13499998 0 1 -0 84 84 84 255
0.09207105 0.014999998 0.14207105 0 1 -0 84 84 84 255
0.084999986 0.014999998 0.14499998 0 1 -0 84 84 84 255
0.084999986 0.035000004 0.12499997 -0.3826835 -7.607941E-33 0.9238795 84 84 84 255
0.09207105 0.014999998 0.1279289 -0.3826835 -7.607941E-33 0.9238795 84 84 84 255
0.09207105 0.035000004 0.1279289 -0.3826835 -7.607941E-33 0.9238795 84 84 84 255
0.084999986 0.014999998 0.12499997 -0.3826835 -7.607941E-33 0.9238795 84 84 84 255
0.09207105 0.035000004 0.14207105 -0.9238795 -0 -0.3826835 84 84 84 255
0.094999984 0.014999998 0.13499998 -0.9238795 -0 -0.3826835 84 84 84 255
0.09207105 0.014999998 0.14207105 -0.9238795 -0 -0.3826835 84 84 84 255
0.094999984 0.035000004 0.13499998 -0.9238795 -0 -0.3826835 84 84 84 255
0.084999986 0.014999998 0.14499998 -0.3826835 5.1699053E-18 -0.9238795 84 84 84 255
0.09207105 0.035000004 0.14207105 -0.3826835 5.1699053E-18 -0.9238795 84 84 84 255
0.09207105 0.014999998 0.14207105 -0.3826835 5.1699053E-18 -0.9238795 84 84 84 255
0.084999986 0.035000004 0.14499998 -0.3826835 5.1699053E-18 -0.9238795 84 84 84 255
0.07499998 0.014999998 0.14499998 0 -0 -1 84 84 84 255
0.084999986 0.035000004 0.14499998 0 -0 -1 84 84 84 255
0.084999986 0.014999998 0.14499998 0 -0 -1 84 84 84 255
0.07499998 0.035000004 0.14499998 0 -0 -1 84 84 84 255
0.094999984 0.035000004 0.13499998 -0.9238795 7.607941E-33 0.3826835 84 84 84 255
0.09207105 0.014999998 0.1279289 -0.9238795 7.607941E-33 0.3826835 84 84 84 255
0.094999984 0.014999998 0.13499998 -0.9238795 7.607941E-33 0.3826835 84 84 84 255
0.09207105 0.035000004 0.1279289 -0.9238795 7.607941E-33 0.3826835 84 84 84 255
0.07499998 0.054999992 0.14499998 0 -0 -1 84 84 84 255
0.084999986 0.074999996 0.14499998 0 -0 -1 84 84 84 255
0.084999986 0.054999992 0.14499998 0 -0 -1 84 84 84 255
0.07499998 0.074999996 0.14499998 0 -0 -1 84 84 84 255
0.084999986 0.054999992 0.14499998 -0.3826835 -0 -0.9238795 84 84 84 255
0.09207105 0.074999996 0.14207105 -0.3826835 -0 -0.9238795 84 84 84 255
0.09207105 0.054999992 0.14207105 -0.3826835 -0 -0.9238795 84 84 84 255
0.084999986 0.074999996 0.14499998 -0.3826835 -0 -0.9238795 84 84 84 255
0.09207105 0.074999996 0.14207105 -0.9238795 -0 -0.3826835 84 84 84 255
0.094999984 0.054999992 0.13499998 -0.9238795 -0 -0.3826835 84 84 84 255
0.09207105 0.054999992 0.14207105 -0.9238795 -0 -0.3826835 84 84 84 255
0.094999984 0.074999996 0.13499998 -0.9238795 -0 -0.3826835 84 84 84 255
0.094999984 0.074999996 0.13499998 -0.9238795 -0 0.3826835 84 84 84 255
0.09207105 0.054999992 0.1279289 -0.9238795 -0 0.3826835 84 84 84 255
0.094999984 0.054999992 0.13499998 -0.9238795 -0 0.3826835 84 84 84 255
0.09207105 0.074999996 0.1279289 -0.9238795 -0 0.3826835 84 84 84 255
-0.074999996 -0.054999992 0.16499996 1 -0 -0 84 84 84 255
-0.074999996 -0.074999996 0.16499996 1 -0 -0 84 84 84 255
-0.074999996 -0.074999996 0.12499997 1 -0 -0 84 84 84 255
0.07499998 -0.025014905 0.12499997 -1 -0 -0 84 84 84 255
0.07499998 -0.035 0.12499997 -1 -0 -0 84 84 84 255
0.07499998 -0.035 0.14497015 -1 -0 -0 84 84 84 255
-0.074999996 0.045014925 0.12499997 1 -0 -0 84 84 84 255
-0.074999996 0.045014925 0.16499996 1 -0 -0 84 84 84 255
-0.074999996 0.02501491 0.12499997 1 -0 -0 84 84 84 255
-0.074999996 0.0650149 0.16499996 1 -0 -0 84 84 84 255
-0.074999996 0.0050149043 0.12499997 1 -0 -0 84 84 84 255
-0.074999996 0.0049999915 0.16499996 1 -0 -0 84 84 84 255
-0.074999996 -0.014999992 0.12499997 1 -0 -0 84 84 84 255
-0.074999996 0.02501491 0.16499996 1 -0 -0 84 84 84 255
-0.074999996 -0.035 0.12499997 1 -0 -0 84 84 84 255
-0.074999996 -0.035 0.16499996 1 -0 -0 84 84 84 255
-0.074999996 -0.054999992 0.12499997 1 -0 -0 84 84 84 255
-0.074999996 -0.014999992 0.16499996 1 -0 -0 84 84 84 255
-0.074999996 0.0650149 0.12499997 1 -0 -0 255 227 0 255
-0.074999996 0.0650149 0.16499996 1 -0 -0 255 227 0 255
-0.074999996 0.045014925 0.12499997 1 -0 -0 255 227 0 255
-0.074999996 0.074999996 0.14499998 1 -0 -0 255 227 0 255
-0.074999996 0.074999996 0.16499996 1 -0 -0 255 227 0 255
-0.074999996 -0.054999992 0.12499997 1 -0 -0 255 227 0 255
-0.074999996 -0.054999992 0.16499996 1 -0 -0 255 227 0 255
-0.074999996 -0.074999996 0.12499997 1 -0 -0 255 227 0 255
-0.074999996 -0.035 0.16499996 1 -0 -0 255 227 0 255
-0.074999996 0.02501491 0.12499997 1 -0 -0 255 227 0 255
-0.074999996 0.02501491 0.16499996 1 -0 -0 255 227 0 255
-0.074999996 0.0050149043 0.12499997 1 -0 -0 255 227 0 255
-0.074999996 0.045014925 0.16499996 1 -0 -0 255 227 0 255
-0.074999996 -0.014999992 0.12499997 1 -0 -0 255 227 0 255
-0.074999996 -0.014999992 0.16499996 1 -0 -0 255 227 0 255
-0.074999996 -0.035 0.12499997 1 -0 -0 255 227 0 255
-0.074999996 0.0049999915 0.16499996 1 -0 -0 255 227 0 255
-0.074999996 -0.074999996 0.14497015 -4.5757218E-14 1 -3.612793E-15 255 227 0 255
-0.04501491 -0.074999996 0.12499997 -4.5757218E-14 1 -3.612793E-15 255 227 0 255
-0.06501492 -0.074999996 0.12499997 -4.5757218E-14 1 -3.612793E-15 255 227 0 255
-0.06501492 -0.074999996 0.16499996 -4.5757218E-14 1 -3.612793E-15 255 227 0 255
-0.074999996 -0.074999996 0.16499996 -4.5757218E-14 1 -3.612793E-15 255 227 0 255
-0.04501491 -0.074999996 0.16499996 -9.023926E-15 1 -1.432543E-20 255 227 0 255
-0.0050149215 -0.074999996 0.12499997 -9.023926E-15 1 -1.432543E-20 255 227 0 255
-0.025014935 -0.074999996 0.12499997 -9.023926E-15 1 -1.432543E-20 255 227 0 255
-0.025014935 -0.074999996 0.16499996 -9.023926E-15 1 -1.432543E-20 255 227 0 255
0.03499998 -0.074999996 0.16499996 6.3167245E-14 1 5.157149E-21 255 227 0 255
0.07499998 -0.074999996 0.12499997 6.3167245E-14 1 5.157149E-21 255 227 0 255
0.05499999 -0.074999996 0.12499997 6.3167245E-14 1 5.157149E-21 255 227 0 255
0.05499999 -0.074999996 0.16499996 6.3167245E-14 1 5.157149E-21 255 227 0 255
-0.005000009 -0.074999996 0.16499996 -2.7071629E-14 1 2.5785788E-20 255 227 0 255
0.03499998 -0.074999996 0.12499997 -2.7071629E-14 1 2.5785788E-20 255 227 0 255
0.014999998 -0.074999996 0.12499997 -2.7071629E-14 1 2.5785788E-20 255 227 0 255
0.014999998 -0.074999996 0.16499996 -2.7071629E-14 1 2.5785788E-20 255 227 0 255
0.0049999915 0.074999996 0.16499996 0 -1 -0 255 227 0 255
-0.035000004 0.074999996 0.12499997 0 -1 -0 255 227 0 255
-0.0150000155 0.074999996 0.12499997 0 -1 -0 255 227 0 255
-0.0150000155 0.074999996 0.16499996 0 -1 -0 255 227 0 255
-0.035000004 0.074999996 0.16499996 0 -1 -0 255 227 0 255
-0.074999996 0.074999996 0.12499997 0 -1 -0 255 227 0 255
-0.055000007 0.074999996 0.12499997 0 -1 -0 255 227 0 255
-0.055000007 0.074999996 0.16499996 0 -1 -0 255 227 0 255
0.07499998 0.074999996 0.14499998 0 -1 -0 255 227 0 255
0.045014895 0.074999996 0.12499997 0 -1 -0 255 227 0 255
0.065014906 0.074999996 0.12499997 0 -1 -0 255 227 0 255
0.065014906 0.074999996 0.16499996 0 -1 -0 255 227 0 255
0.07499998 0.074999996 0.16499996 0 -1 -0 255 227 0 255
0.045014895 0.074999996 0.16499996 0 -1 -0 255 227 0 255
0.0050148983 0.074999996 0.12499997 0 -1 -0 255 227 0 255
0.02501491 0.074999996 0.12499997 0 -1 -0 255 227 0 255
0.02501491 0.074999996 0.16499996 0 -1 -0 255 227 0 255
0.07499998 0.014999998 0.16499996 -1 -0 -0 255 227 0 255
0.07499998 0.014999998 0.12499997 -1 -0 -0 255 227 0 255
0.07499998 -0.004999986 0.16499996 -1 -0 -0 255 227 0 255
0.07499998 0.035000004 0.12499997 -1 -0 -0 255 227 0 255
0.07499998 -0.045014914 0.12499997 -1 -0 -0 255 227 0 255
0.07499998 -0.054999992 0.12499997 -1 -0 -0 255 227 0 255
0.07499998 -0.054999992 0.14497015 -1 -0 -0 255 227 0 255
0.07499998 -0.074999996 0.16499996 -1 -0 -0 255 227 0 255
0.07499998 -0.065014906 0.12499997 -1 -0 -0 255 227 0 255
0.07499998 -0.074999996 0.14497015 -1 -0 -0 255 227 0 255
0.07499998 -0.065014906 0.16499996 -1 -0 -0 255 227 0 255
0.07499998 -0.054999992 0.14499998 -1 -0 -0 255 227 0 255
0.07499998 -0.054999992 0.12499997 -1 -0 -0 255 227 0 255
0.07499998 -0.0050149215 0.12499997 -1 -0 -0 255 227 0 255
0.07499998 -0.014999992 0.12499997 -1 -0 -0 255 227 0 255
0.07499998 -0.014999992 0.14497015 -1 -0 -0 255 227 0 255
0.07499998 -0.025014905 0.16499996 -1 -0 -0 255 227 0 255
0.07499998 -0.025014905 0.12499997 -1 -0 -0 255 227 0 255
0.07499998 -0.045014914 0.16499996 -1 -0 -0 255 227 0 255
0.07499998 -0.014999992 0.14499998 -1 -0 -0 255 227 0 255
0.07499998 -0.014999992 0.12499997 -1 -0 -0 255 227 0 255
0.07499998 0.054999992 0.16499996 -1 -0 -0 255 227 0 255
0.07499998 0.054999992 0.12499997 -1 -0 -0 255 227 0 255
0.07499998 0.035000004 0.16499996 -1 -0 -0 255 227 0 255
0.07499998 0.074999996 0.12499997 -1 -0 -0 255 227 0 255
-0.0150000155 -0.054999992 0.16499996 0 -1 -0 255 227 0 255
-0.055000007 -0.054999992 0.12499997 0 -1 -0 255 227 0 255
-0.035000004 -0.054999992 0.12499997 0 -1 -0 255 227 0 255
-0.035000004 -0.054999992 0.16499996 0 -1 -0 255 227 0 255
0.05499999 -0.054999992 0.14497015 0 -1 -0 84 84 84 255
0.045014895 -0.054999992 0.12499997 0 -1 -0 84 84 84 255
0.05499999 -0.054999992 0.12499997 0 -1 -0 84 84 84 255
0.05499999 -0.035 0.16499996 1 -0 -0 84 84 84 255
0.05499999 -0.054999992 0.14497015 1 -0 -0 84 84 84 255
0.05499999 -0.054999992 0.12499997 1 -0 -0 84 84 84 255
0.05499999 -0.054999992 0.16499996 1 -0 -0 84 84 84 255
-0.035000004 -0.054999992 0.16499996 0 -1 -0 84 84 84 255
-0.055000007 -0.054999992 0.14497015 0 -1 -0 84 84 84 255
-0.055000007 -0.054999992 0.12499997 0 -1 -0 84 84 84 255
-0.055000007 -0.054999992 0.16499996 0 -1 -0 84 84 84 255
-0.055000007 -0.045014914 0.12499997 -1 -0 -0 84 84 84 255
-0.055000007 -0.054999992 0.12499997 -1 -0 -0 84 84 84 255
-0.055000007 -0.054999992 0.14497015 -1 -0 -0 84 84 84 255
0.02501491 -0.054999992 0.16499996 0 -1 -0 255 227 0 255
-0.014985079 -0.054999992 0.12499997 0 -1 -0 255 227 0 255
0.0050148983 -0.054999992 0.12499997 0 -1 -0 255 227 0 255
0.0050148983 -0.054999992 0.16499996 0 -1 -0 255 227 0 255
0.0050148983 -0.054999992 0.16499996 0 -1 -0 84 84 84 255
-0.035000004 -0.054999992 0.12499997 0 -1 -0 84 84 84 255
-0.014985079 -0.054999992 0.12499997 0 -1 -0 84 84 84 255
-0.0150000155 -0.054999992 0.16499996 0 -1 -0 84 84 84 255
0.05499999 -0.054999992 0.14499998 0 -1 -0 255 227 0 255
0.02501491 -0.054999992 0.12499997 0 -1 -0 255 227 0 255
0.045014895 -0.054999992 0.12499997 0 -1 -0 255 227 0 255
0.045014895 -0.054999992 0.16499996 0 -1 -0 255 227 0 255
0.05499999 -0.054999992 0.16499996 0 -1 -0 255 227 0 255
0.045014895 -0.054999992 0.16499996 0 -1 -0 84 84 84 255
0.0050148983 -0.054999992 0.12499997 0 -1 -0 84 84 84 255
0.02501491 -0.054999992 0.12499997 0 -1 -0 84 84 84 255
0.02501491 -0.054999992 0.16499996 0 -1 -0 84 84 84 255
0.05499999 0.054999992 0.14497015 1 -0 -0 84 84 84 255
0.05499999 0.045014925 0.12499997 1 -0 -0 84 84 84 255
0.05499999 0.054999992 0.12499997 1 -0 -0 84 84 84 255
0.03499998 0.054999992 0.16499996 0 1 -0 84 84 84 255
0.05499999 0.054999992 0.14497015 0 1 -0 84 84 84 255
0.05499999 0.054999992 0.12499997 0 1 -0 84 84 84 255
0.05499999 0.054999992 0.16499996 0 1 -0 84 84 84 255
0.05499999 0.02501491 0.12499997 1 -0 -0 84 84 84 255
0.05499999 0.02501491 0.16499996 1 -0 -0 84 84 84 255
0.05499999 0.0050149043 0.12499997 1 -0 -0 84 84 84 255
0.05499999 0.045014925 0.16499996 1 -0 -0 84 84 84 255
0.05499999 0.045014925 0.12499997 1 -0 -0 255 227 0 255
0.05499999 0.045014925 0.16499996 1 -0 -0 255 227 0 255
0.05499999 0.02501491 0.12499997 1 -0 -0 255 227 0 255
0.05499999 0.054999992 0.14499998 1 -0 -0 255 227 0 255
0.05499999 0.054999992 0.16499996 1 -0 -0 255 227 0 255
3 0 1 2
3 1 0 3
3 4 5 6
3 5 4 7
3 8 9 10
3 9 8 11
3 12 13 14
3 13 12 15
3 16 17 18
3 17 16 19
3 20 21 22
3 21 20 23
3 24 25 26
3 27 26 25

