ply
format ascii 1.0
commentY29udmVydGVyIGJ5IENvZGVMZW9wYXJk
comment Original mesh name: 'C:\Program Files (x86)\Steam\steamapps\common\Stormworks\rom\meshes\component_fluid_tank_small.mesh'
comment SubMesh index: 0
comment SubMesh name: 'ID2'
comment Shader: Opaque (0)
element vertex 120
property float x
property float y
property float z
property float nx
property float ny
property float nz
property uchar red
property uchar green
property uchar blue
property uchar alpha
element face 70
property list uchar ushort vertex_index
end_header
-0.074999996 -0.3250001 0.125 0 0.7071074 -0.70710605 255 125 0 255
0.074999996 -0.37499997 0.074999996 0 0.7071074 -0.70710605 255 125 0 255
-0.074999996 -0.37499997 0.074999996 0 0.7071074 -0.70710605 255 125 0 255
0.074999996 -0.3250001 0.125 0 0.7071074 -0.70710605 255 125 0 255
-0.074999996 -0.3250001 0.125 0.57734984 0.57735103 -0.57734984 255 125 0 255
-0.074999996 -0.37499997 0.074999996 0.57734984 0.57735103 -0.57734984 255 125 0 255
-0.125 -0.3250001 0.074999996 0.57734984 0.57735103 -0.57734984 255 125 0 255
0.074999996 -0.3250001 0.125 0 -0 -1 255 125 0 255
0.06250005 -0.02588844 0.125 0 -0 -1 255 125 0 255
0.074999996 0.0750001 0.125 0 -0 -1 255 125 0 255
-0.074999996 -0.3250001 0.125 0 -0 -1 255 125 0 255
0.06251318 0.02588844 0.125 0 -0 -1 255 125 0 255
0.025888417 -0.0625 0.125 0 -0 -1 255 125 0 255
-0.025888389 -0.0625 0.125 0 -0 -1 255 125 0 255
-0.062499948 -0.02588844 0.125 0 -0 -1 255 125 0 255
-0.062499948 0.02588844 0.125 0 -0 -1 255 125 0 255
0.02590152 0.0625 0.125 0 -0 -1 255 125 0 255
-0.074999996 0.0750001 0.125 0 -0 -1 255 125 0 255
-0.025888389 0.0625 0.125 0 -0 -1 255 125 0 255
0.074999996 -0.3250001 0.125 -0.57734984 0.57735103 -0.57734984 255 125 0 255
0.125 -0.3250001 0.074999996 -0.57734984 0.57735103 -0.57734984 255 125 0 255
0.074999996 -0.37499997 0.074999996 -0.57734984 0.57735103 -0.57734984 255 125 0 255
0.074999996 -0.3250001 0.125 -1 -0 -0 255 125 0 255
0.074999996 -0.37499997 -0.074999996 -1 -0 -0 255 125 0 255
0.074999996 -0.37499997 0.074999996 -1 -0 -0 255 125 0 255
0.074999996 -0.3250001 -0.125 -1 -0 -0 255 125 0 255
0.074999996 0.0750001 0.125 -1 -0 -0 255 125 0 255
0.074999996 0.0750001 -0.125 -1 -0 -0 255 125 0 255
0.074999996 0.125 0.074999996 -1 -0 -0 255 125 0 255
0.074999996 0.125 -0.074999996 -1 -0 -0 255 125 0 255
-0.074999996 -0.37499997 0.074999996 0 1 -0 255 125 0 255
0.074999996 -0.37499997 -0.074999996 0 1 -0 255 125 0 255
-0.074999996 -0.37499997 -0.074999996 0 1 -0 255 125 0 255
0.074999996 -0.37499997 0.074999996 0 1 -0 255 125 0 255
-0.125 -0.3250001 0.074999996 0.70710605 0.7071074 -0 255 125 0 255
-0.074999996 -0.37499997 -0.074999996 0.70710605 0.7071074 -0 255 125 0 255
-0.125 -0.3250001 -0.074999996 0.70710605 0.7071074 -0 255 125 0 255
-0.074999996 -0.37499997 0.074999996 0.70710605 0.7071074 -0 255 125 0 255
-0.125 0.0750001 0.074999996 0.70710677 -0 -0.70710677 255 125 0 255
-0.074999996 -0.3250001 0.125 0.70710677 -0 -0.70710677 255 125 0 255
-0.125 -0.3250001 0.074999996 0.70710677 -0 -0.70710677 255 125 0 255
-0.074999996 0.0750001 0.125 0.70710677 -0 -0.70710677 255 125 0 255
0.074999996 0.0750001 0.125 0 -0.7071074 -0.70710605 255 125 0 255
-0.074999996 0.125 0.074999996 0 -0.7071074 -0.70710605 255 125 0 255
0.074999996 0.125 0.074999996 0 -0.7071074 -0.70710605 255 125 0 255
-0.074999996 0.0750001 0.125 0 -0.7071074 -0.70710605 255 125 0 255
0.074999996 -0.3250001 0.125 -0.70710677 -0 -0.70710677 255 125 0 255
0.125 0.0750001 0.074999996 -0.70710677 -0 -0.70710677 255 125 0 255
0.125 -0.3250001 0.074999996 -0.70710677 -0 -0.70710677 255 125 0 255
0.074999996 0.0750001 0.125 -0.70710677 -0 -0.70710677 255 125 0 255
0.074999996 -0.37499997 0.074999996 -0.70710605 0.7071074 -0 255 125 0 255
0.125 -0.3250001 -0.074999996 -0.70710605 0.7071074 -0 255 125 0 255
0.074999996 -0.37499997 -0.074999996 -0.70710605 0.7071074 -0 255 125 0 255
0.125 -0.3250001 0.074999996 -0.70710605 0.7071074 -0 255 125 0 255
0.074999996 0.125 0.074999996 0 -1 -0 255 125 0 255
-0.074999996 0.125 -0.074999996 0 -1 -0 255 125 0 255
0.074999996 0.125 -0.074999996 0 -1 -0 255 125 0 255
-0.074999996 0.125 0.074999996 0 -1 -0 255 125 0 255
0.074999996 0.125 -0.074999996 0 -0.7071074 0.70710605 255 125 0 255
-0.074999996 0.0750001 -0.125 0 -0.7071074 0.70710605 255 125 0 255
0.074999996 0.0750001 -0.125 0 -0.7071074 0.70710605 255 125 0 255
-0.074999996 0.125 -0.074999996 0 -0.7071074 0.70710605 255 125 0 255
0.074999996 0.0750001 -0.125 0 -0 1 255 125 0 255
0.06250005 0.02588844 -0.125 0 -0 1 255 125 0 255
0.074999996 -0.3250001 -0.125 0 -0 1 255 125 0 255
0.025888417 0.0625 -0.125 0 -0 1 255 125 0 255
-0.074999996 0.0750001 -0.125 0 -0 1 255 125 0 255
-0.025888389 0.0625 -0.125 0 -0 1 255 125 0 255
-0.062486816 0.02588844 -0.125 0 -0 1 255 125 0 255
-0.062486816 -0.02588844 -0.125 0 -0 1 255 125 0 255
0.06250005 -0.02588844 -0.125 0 -0 1 255 125 0 255
-0.074999996 -0.3250001 -0.125 0 -0 1 255 125 0 255
0.02590152 -0.0625 -0.125 0 -0 1 255 125 0 255
-0.025888389 -0.0625 -0.125 0 -0 1 255 125 0 255
-0.074999996 -0.37499997 -0.074999996 0 0.7071074 0.70710605 255 125 0 255
0.074999996 -0.3250001 -0.125 0 0.7071074 0.70710605 255 125 0 255
-0.074999996 -0.3250001 -0.125 0 0.7071074 0.70710605 255 125 0 255
0.074999996 -0.37499997 -0.074999996 0 0.7071074 0.70710605 255 125 0 255
-0.125 0.0750001 -0.074999996 1 -0 -0 255 125 0 255
-0.125 -0.3250001 0.074999996 1 -0 -0 255 125 0 255
-0.125 -0.3250001 -0.074999996 1 -0 -0 255 125 0 255
-0.125 0.0750001 0.074999996 1 -0 -0 255 125 0 255
-0.074999996 -0.37499997 -0.074999996 0.57734984 0.57735103 0.57734984 255 125 0 255
-0.074999996 -0.3250001 -0.125 0.57734984 0.57735103 0.57734984 255 125 0 255
-0.125 -0.3250001 -0.074999996 0.57734984 0.57735103 0.57734984 255 125 0 255
-0.074999996 0.0750001 0.125 0.57734984 -0.57735103 -0.57734984 255 125 0 255
-0.125 0.0750001 0.074999996 0.57734984 -0.57735103 -0.57734984 255 125 0 255
-0.074999996 0.125 0.074999996 0.57734984 -0.57735103 -0.57734984 255 125 0 255
0.074999996 0.0750001 0.125 -0.57734984 -0.57735103 -0.57734984 255 125 0 255
0.074999996 0.125 0.074999996 -0.57734984 -0.57735103 -0.57734984 255 125 0 255
0.125 0.0750001 0.074999996 -0.57734984 -0.57735103 -0.57734984 255 125 0 255
0.125 0.0750001 0.074999996 -1 -0 -0 255 125 0 255
0.125 -0.3250001 -0.074999996 -1 -0 -0 255 125 0 255
0.125 -0.3250001 0.074999996 -1 -0 -0 255 125 0 255
0.125 0.0750001 -0.074999996 -1 -0 -0 255 125 0 255
0.125 -0.3250001 -0.074999996 -0.57734984 0.57735103 0.57734984 255 125 0 255
0.074999996 -0.3250001 -0.125 -0.57734984 0.57735103 0.57734984 255 125 0 255
0.074999996 -0.37499997 -0.074999996 -0.57734984 0.57735103 0.57734984 255 125 0 255
0.125 0.0750001 0.074999996 -0.70710605 -0.7071074 -0 255 125 0 255
0.074999996 0.125 -0.074999996 -0.70710605 -0.7071074 -0 255 125 0 255
0.125 0.0750001 -0.074999996 -0.70710605 -0.7071074 -0 255 125 0 255
0.074999996 0.125 0.074999996 -0.70710605 -0.7071074 -0 255 125 0 255
-0.074999996 0.125 0.074999996 0.70710605 -0.7071074 -0 255 125 0 255
-0.125 0.0750001 -0.074999996 0.70710605 -0.7071074 -0 255 125 0 255
-0.074999996 0.125 -0.074999996 0.70710605 -0.7071074 -0 255 125 0 255
-0.125 0.0750001 0.074999996 0.70710605 -0.7071074 -0 255 125 0 255
0.074999996 0.125 -0.074999996 -0.57734984 -0.57735103 0.57734984 255 125 0 255
0.074999996 0.0750001 -0.125 -0.57734984 -0.57735103 0.57734984 255 125 0 255
0.125 0.0750001 -0.074999996 -0.57734984 -0.57735103 0.57734984 255 125 0 255
-0.125 0.0750001 -0.074999996 0.57734984 -0.57735103 0.57734984 255 125 0 255
-0.074999996 0.0750001 -0.125 0.57734984 -0.57735103 0.57734984 255 125 0 255
-0.074999996 0.125 -0.074999996 0.57734984 -0.57735103 0.57734984 255 125 0 255
-0.074999996 0.0750001 -0.125 0.70710677 -0 0.70710677 255 125 0 255
-0.125 -0.3250001 -0.074999996 0.70710677 -0 0.70710677 255 125 0 255
-0.074999996 -0.3250001 -0.125 0.70710677 -0 0.70710677 255 125 0 255
-0.125 0.0750001 -0.074999996 0.70710677 -0 0.70710677 255 125 0 255
0.125 0.0750001 -0.074999996 -0.70710677 -0 0.70710677 255 125 0 255
0.074999996 -0.3250001 -0.125 -0.70710677 -0 0.70710677 255 125 0 255
0.125 -0.3250001 -0.074999996 -0.70710677 -0 0.70710677 255 125 0 255
0.074999996 0.0750001 -0.125 -0.70710677 -0 0.70710677 255 125 0 255
3 0 1 2
3 1 0 3
3 4 5 6
3 7 8 9
3 8 7 10
3 9 8 11
3 8 10 12
3 12 10 13
3 13 10 14
3 14 10 15
3 9 16 17
3 16 9 11
3 17 16 18
3 17 18 15
3 17 15 10
3 19 20 21
3 22 23 24
3 23 22 25
3 25 22 26
3 25 26 27
3 27 26 28
3 27 28 29
3 30 31 32
3 31 30 33
3 34 35 36
3 35 34 37
3 38 39 40
3 39 38 41
3 42 43 44
3 43 42 45
3 46 47 48
3 47 46 49
3 50 51 52
3 51 50 53
3 54 55 56
3 55 54 57
3 58 59 60
3 59 58 61
3 62 63 64
3 63 62 65
3 65 62 66
3 65 66 67
3 67 66 68
3 68 66 69
3 64 70 71
3 70 64 63
3 71 70 72
3 71 72 73
3 71 73 69
3 71 69 66
3 74 75 76
3 75 74 77
3 78 79 80
3 79 78 81
3 82 83 84
3 85 86 87
3 88 89 90
3 91 92 93
3 92 91 94
3 95 96 97
3 98 99 100
3 99 98 101
3 102 103 104
3 103 102 105
3 106 107 108
3 109 110 111
3 112 113 114
3 113 112 115
3 116 117 118
3 117 116 119

