ply
format ascii 1.0
commentY29udmVydGVyIGJ5IENvZGVMZW9wYXJk
comment Original mesh name: 'C:\Program Files (x86)\Steam\steamapps\common\Stormworks\rom\meshes\component_gate_function_large.mesh'
comment SubMesh index: 0
comment SubMesh name: 'ID40'
comment Shader: Opaque (0)
element vertex 240
property float x
property float y
property float z
property float nx
property float ny
property float nz
property uchar red
property uchar green
property uchar blue
property uchar alpha
element face 198
property list uchar ushort vertex_index
end_header
-0.24499997 0.20699997 0.094999984 0 -0 -1 86 86 86 255
-0.225 0.32700008 0.094999984 0 -0 -1 86 86 86 255
-0.225 0.20699997 0.094999984 0 -0 -1 86 86 86 255
-0.27499992 0.32700008 0.094999984 0 -0 -1 86 86 86 255
-0.25499997 0.20699997 0.094999984 0 -0 -1 86 86 86 255
-0.27499992 0.20699997 0.094999984 0 -0 -1 86 86 86 255
-0.15499999 0.175 0.094999984 0 -0 -1 86 86 86 255
-0.14499998 0.20499998 0.094999984 0 -0 -1 86 86 86 255
-0.14499998 0.175 0.094999984 0 -0 -1 86 86 86 255
-0.15499999 0.19499998 0.094999984 0 -0 -1 86 86 86 255
-0.24499997 0.20499998 0.094999984 0 -0 -1 86 86 86 255
-0.25499997 0.19499998 0.094999984 0 -0 -1 86 86 86 255
-0.005 0.20699997 0.094999984 0 -0 -1 86 86 86 255
0.005 0.20699997 0.094999984 0 -0 -1 86 86 86 255
-0.005 0.20499998 0.094999984 0 -0 -1 86 86 86 255
-0.105 0.175 0.094999984 0 -0 -1 86 86 86 255
-0.094999984 0.19499998 0.094999984 0 -0 -1 86 86 86 255
-0.094999984 0.175 0.094999984 0 -0 -1 86 86 86 255
0.005 0.19499998 0.094999984 0 -0 -1 86 86 86 255
-0.105 0.20499998 0.094999984 0 -0 -1 86 86 86 255
0.024999999 0.32700008 0.094999984 0 -0 -1 86 86 86 255
0.024999999 0.20699997 0.094999984 0 -0 -1 86 86 86 255
-0.024999999 0.32700008 0.094999984 0 -0 -1 86 86 86 255
-0.024999999 0.20699997 0.094999984 0 -0 -1 86 86 86 255
-0.27499992 -0.07699999 0.094999984 0 -0 -1 86 86 86 255
-0.225 0.04299999 0.094999984 0 -0 -1 86 86 86 255
-0.225 -0.07699999 0.094999984 0 -0 -1 86 86 86 255
-0.24499997 0.04299999 0.094999984 0 -0 -1 86 86 86 255
-0.25499997 0.04299999 0.094999984 0 -0 -1 86 86 86 255
-0.27499992 0.04299999 0.094999984 0 -0 -1 86 86 86 255
-0.24499997 0.04500001 0.094999984 0 -0 -1 86 86 86 255
-0.14499998 0.04500001 0.094999984 0 -0 -1 86 86 86 255
-0.15499999 0.05499999 0.094999984 0 -0 -1 86 86 86 255
-0.14499998 0.074999996 0.094999984 0 -0 -1 86 86 86 255
-0.25499997 0.05499999 0.094999984 0 -0 -1 86 86 86 255
-0.15499999 0.074999996 0.094999984 0 -0 -1 86 86 86 255
-0.005 0.04299999 0.094999984 0 -0 -1 86 86 86 255
0.005 0.05499999 0.094999984 0 -0 -1 86 86 86 255
0.005 0.04299999 0.094999984 0 -0 -1 86 86 86 255
-0.005 0.04500001 0.094999984 0 -0 -1 86 86 86 255
-0.094999984 0.05499999 0.094999984 0 -0 -1 86 86 86 255
-0.105 0.04500001 0.094999984 0 -0 -1 86 86 86 255
-0.094999984 0.074999996 0.094999984 0 -0 -1 86 86 86 255
-0.105 0.074999996 0.094999984 0 -0 -1 86 86 86 255
-0.024999999 -0.07699999 0.094999984 0 -0 -1 86 86 86 255
0.024999999 0.04299999 0.094999984 0 -0 -1 86 86 86 255
0.024999999 -0.07699999 0.094999984 0 -0 -1 86 86 86 255
-0.024999999 0.04299999 0.094999984 0 -0 -1 86 86 86 255
-0.15323925 0.11488592 0.094999984 0 -0 -1 199 199 199 255
-0.15221421 0.1261095 0.094999984 0 -0 -1 199 199 199 255
-0.14716677 0.12141506 0.094999984 0 -0 -1 199 199 199 255
-0.14946644 0.12906392 0.094999984 0 -0 -1 199 199 199 255
-0.135 0.14192295 0.094999984 0 -0 -1 199 199 199 255
-0.135 0.13272525 0.094999984 0 -0 -1 199 199 199 255
-0.15420417 0.13706253 0.094999984 0 -0 -1 199 199 199 255
-0.16481583 0.12565283 0.094999984 0 -0 -1 199 199 199 255
-0.135 0.12631302 0.094999984 0 -0 -1 199 199 199 255
-0.12608345 0.13498196 0.094999984 0 -0 -1 199 199 199 255
-0.12608345 0.12631302 0.094999984 0 -0 -1 199 199 199 255
-0.12608345 0.14417966 0.094999984 0 -0 -1 199 199 199 255
-0.12608345 0.15048501 0.094999984 0 -0 -1 199 199 199 255
-0.135 0.15048501 0.094999984 0 -0 -1 199 199 199 255
-0.135 0.13020608 0.094999984 0 -0 -1 199 199 199 255
-0.09587366 0.14262784 0.094999984 0 -0 -1 199 199 199 255
-0.09683857 0.16480443 0.094999984 0 -0 -1 199 199 199 255
-0.085261986 0.15403752 0.094999984 0 -0 -1 199 199 199 255
-0.09786361 0.15358087 0.094999984 0 -0 -1 199 199 199 255
-0.100611396 0.15062644 0.094999984 0 -0 -1 199 199 199 255
-0.10291106 0.15827529 0.094999984 0 -0 -1 199 199 199 255
-0.105616055 0.10065651 0.094999984 0 -0 -1 86 86 86 255
-0.095 0.106313035 0.094999984 0 -0 -1 86 86 86 255
-0.095 0.095 0.094999984 0 -0 -1 86 86 86 255
-0.15420417 0.13706253 0.094999984 0 -0 -1 86 86 86 255
-0.135 0.15048501 0.094999984 0 -0 -1 86 86 86 255
-0.135 0.14192295 0.094999984 0 -0 -1 86 86 86 255
-0.135 0.11631304 0.094999984 0 -0 -1 86 86 86 255
-0.12608345 0.12631302 0.094999984 0 -0 -1 86 86 86 255
-0.114999995 0.10565652 0.094999984 0 -0 -1 86 86 86 255
-0.135 0.12631302 0.094999984 0 -0 -1 86 86 86 255
-0.135 0.106313035 0.094999984 0 -0 -1 86 86 86 255
-0.12438392 0.10065651 0.094999984 0 -0 -1 86 86 86 255
-0.135 0.095 0.094999984 0 -0 -1 86 86 86 255
-0.085261986 0.15403752 0.094999984 0 -0 -1 86 86 86 255
-0.095 0.11631304 0.094999984 0 -0 -1 86 86 86 255
-0.09587366 0.14262784 0.094999984 0 -0 -1 86 86 86 255
-0.095 0.08499999 0.094999984 0 -0 -1 86 86 86 255
-0.12608345 0.13498196 0.094999984 0 -0 -1 86 86 86 255
-0.074999996 0.17499998 0.094999984 0 -0 -1 86 86 86 255
-0.09683857 0.16480443 0.094999984 0 -0 -1 86 86 86 255
-0.120000005 0.17499998 0.094999984 0 -0 -1 86 86 86 255
-0.10291106 0.15827529 0.094999984 0 -0 -1 86 86 86 255
-0.074999996 0.074999996 0.094999984 0 -0 -1 86 86 86 255
-0.17499998 0.074999996 0.094999984 0 -0 -1 86 86 86 255
-0.135 0.08499999 0.094999984 0 -0 -1 86 86 86 255
-0.114999995 0.095656514 0.094999984 0 -0 -1 86 86 86 255
-0.135 0.13020608 0.094999984 0 -0 -1 86 86 86 255
-0.135 0.13272525 0.094999984 0 -0 -1 86 86 86 255
-0.14716677 0.12141506 0.094999984 0 -0 -1 86 86 86 255
-0.15323925 0.11488592 0.094999984 0 -0 -1 86 86 86 255
-0.16481583 0.12565283 0.094999984 0 -0 -1 86 86 86 255
-0.17499998 0.17499998 0.094999984 0 -0 -1 86 86 86 255
-0.100611396 0.15062644 0.094999984 0 -0 -1 86 86 86 255
-0.09786361 0.15358087 0.094999984 0 -0 -1 86 86 86 255
-0.12608345 0.14417966 0.094999984 0 -0 -1 86 86 86 255
-0.12608345 0.15048501 0.094999984 0 -0 -1 86 86 86 255
-0.13 0.17499998 0.094999984 0 -0 -1 86 86 86 255
-0.14946644 0.12906392 0.094999984 0 -0 -1 86 86 86 255
-0.15221421 0.1261095 0.094999984 0 -0 -1 86 86 86 255
-0.114999995 0.095656514 0.094999984 0 -0 -1 199 199 199 255
-0.095 0.095 0.094999984 0 -0 -1 199 199 199 255
-0.095 0.08499999 0.094999984 0 -0 -1 199 199 199 255
-0.105616055 0.10065651 0.094999984 0 -0 -1 199 199 199 255
-0.095 0.11631304 0.094999984 0 -0 -1 199 199 199 255
-0.095 0.106313035 0.094999984 0 -0 -1 199 199 199 255
-0.114999995 0.10565652 0.094999984 0 -0 -1 199 199 199 255
-0.135 0.08499999 0.094999984 0 -0 -1 199 199 199 255
-0.12438392 0.10065651 0.094999984 0 -0 -1 199 199 199 255
-0.135 0.095 0.094999984 0 -0 -1 199 199 199 255
-0.135 0.11631304 0.094999984 0 -0 -1 199 199 199 255
-0.135 0.106313035 0.094999984 0 -0 -1 199 199 199 255
0.105 -0.105 -0.05499999 -0.70710677 1.6023739E-30 -0.70710677 86 86 86 255
0.125 0.37499997 -0.074999996 -0.70710677 1.6023739E-30 -0.70710677 86 86 86 255
0.125 -0.125 -0.074999996 -0.70710677 1.6023739E-30 -0.70710677 86 86 86 255
0.105 0.35500005 -0.05499999 -0.70710677 1.6023739E-30 -0.70710677 86 86 86 255
0.125 0.37499997 -0.074999996 -1 -0 -0 86 86 86 255
0.125 -0.125 -0.125 -1 -0 -0 86 86 86 255
0.125 -0.125 -0.074999996 -1 -0 -0 86 86 86 255
0.125 0.37499997 -0.125 -1 -0 -0 86 86 86 255
-0.35500005 -0.105 -0.05499999 8.777824E-19 0.70710677 -0.70710677 86 86 86 255
0.125 -0.125 -0.074999996 8.777824E-19 0.70710677 -0.70710677 86 86 86 255
-0.37499997 -0.125 -0.074999996 8.777824E-19 0.70710677 -0.70710677 86 86 86 255
0.105 -0.105 -0.05499999 8.777824E-19 0.70710677 -0.70710677 86 86 86 255
0.105 0.35500005 -0.05499999 8.777824E-19 -0.70710677 -0.70710677 86 86 86 255
-0.37499997 0.37499997 -0.074999996 8.777824E-19 -0.70710677 -0.70710677 86 86 86 255
0.125 0.37499997 -0.074999996 8.777824E-19 -0.70710677 -0.70710677 86 86 86 255
-0.35500005 0.35500005 -0.05499999 8.777824E-19 -0.70710677 -0.70710677 86 86 86 255
0.125 0.37499997 -0.074999996 0 -1 -0 86 86 86 255
-0.37499997 0.37499997 -0.125 0 -1 -0 86 86 86 255
0.125 0.37499997 -0.125 0 -1 -0 86 86 86 255
-0.37499997 0.37499997 -0.074999996 0 -1 -0 86 86 86 255
-0.37499997 -0.125 -0.074999996 0 1 -0 86 86 86 255
0.125 -0.125 -0.125 0 1 -0 86 86 86 255
-0.37499997 -0.125 -0.125 0 1 -0 86 86 86 255
0.125 -0.125 -0.074999996 0 1 -0 86 86 86 255
-0.37499997 -0.125 -0.074999996 0.70710677 -1.6023739E-30 -0.70710677 86 86 86 255
-0.35500005 0.35500005 -0.05499999 0.70710677 -1.6023739E-30 -0.70710677 86 86 86 255
-0.35500005 -0.105 -0.05499999 0.70710677 -1.6023739E-30 -0.70710677 86 86 86 255
-0.37499997 0.37499997 -0.074999996 0.70710677 -1.6023739E-30 -0.70710677 86 86 86 255
-0.37499997 0.37499997 -0.125 1 -0 -0 86 86 86 255
-0.37499997 -0.125 -0.074999996 1 -0 -0 86 86 86 255
-0.37499997 -0.125 -0.125 1 -0 -0 86 86 86 255
-0.37499997 0.37499997 -0.074999996 1 -0 -0 86 86 86 255
0.105 0.35500005 0.074999996 0 -1 -0 255 125 0 255
-0.35500005 0.35500005 -0.05499999 0 -1 -0 255 125 0 255
0.105 0.35500005 -0.05499999 0 -1 -0 255 125 0 255
-0.35500005 0.35500005 0.074999996 0 -1 -0 255 125 0 255
0.105 0.35500005 0.074999996 -1 -0 -0 255 125 0 255
0.105 -0.105 -0.05499999 -1 -0 -0 255 125 0 255
0.105 -0.105 0.074999996 -1 -0 -0 255 125 0 255
0.105 0.35500005 -0.05499999 -1 -0 -0 255 125 0 255
0.07969999 0.32969984 0.094999984 1.233755E-18 -0.62014675 -0.78448576 255 125 0 255
-0.35500005 0.35500005 0.074999996 1.233755E-18 -0.62014675 -0.78448576 255 125 0 255
0.105 0.35500005 0.074999996 1.233755E-18 -0.62014675 -0.78448576 255 125 0 255
-0.32969984 0.32969984 0.094999984 1.233755E-18 -0.62014675 -0.78448576 255 125 0 255
-0.35500005 0.35500005 -0.05499999 1 -0 -0 255 125 0 255
-0.35500005 -0.105 0.074999996 1 -0 -0 255 125 0 255
-0.35500005 -0.105 -0.05499999 1 -0 -0 255 125 0 255
-0.35500005 0.35500005 0.074999996 1 -0 -0 255 125 0 255
-0.35500005 -0.105 0.074999996 0 1 -0 255 125 0 255
0.105 -0.105 -0.05499999 0 1 -0 255 125 0 255
-0.35500005 -0.105 -0.05499999 0 1 -0 255 125 0 255
0.105 -0.105 0.074999996 0 1 -0 255 125 0 255
0.07969999 -0.07969999 0.094999984 -0.62014675 -3.4204017E-19 -0.78448576 255 125 0 255
0.105 0.35500005 0.074999996 -0.62014675 -3.4204017E-19 -0.78448576 255 125 0 255
0.105 -0.105 0.074999996 -0.62014675 -3.4204017E-19 -0.78448576 255 125 0 255
0.07969999 0.32969984 0.094999984 -0.62014675 -3.4204017E-19 -0.78448576 255 125 0 255
0.005 0.05499999 0.094999984 0 -0 -1 255 125 0 255
-0.074999996 0.074999996 0.094999984 0 -0 -1 255 125 0 255
0.005 0.19499998 0.094999984 0 -0 -1 255 125 0 255
-0.094999984 0.05499999 0.094999984 0 -0 -1 255 125 0 255
-0.094999984 0.074999996 0.094999984 0 -0 -1 255 125 0 255
-0.25499997 0.05499999 0.094999984 0 -0 -1 255 125 0 255
-0.15499999 0.074999996 0.094999984 0 -0 -1 255 125 0 255
-0.15499999 0.05499999 0.094999984 0 -0 -1 255 125 0 255
-0.175 0.074999996 0.094999984 0 -0 -1 255 125 0 255
-0.175 0.175 0.094999984 0 -0 -1 255 125 0 255
-0.24499997 0.20499998 0.094999984 0 -0 -1 255 125 0 255
-0.225 0.20699997 0.094999984 0 -0 -1 255 125 0 255
-0.14499998 0.20499998 0.094999984 0 -0 -1 255 125 0 255
-0.24499997 0.20699997 0.094999984 0 -0 -1 255 125 0 255
0.07969999 -0.07969999 0.094999984 0 -0 -1 255 125 0 255
0.024999999 -0.07699999 0.094999984 0 -0 -1 255 125 0 255
0.07969999 0.32969984 0.094999984 0 -0 -1 255 125 0 255
-0.32969984 -0.07969999 0.094999984 0 -0 -1 255 125 0 255
-0.024999999 -0.07699999 0.094999984 0 -0 -1 255 125 0 255
-0.225 -0.07699999 0.094999984 0 -0 -1 255 125 0 255
-0.024999999 0.04299999 0.094999984 0 -0 -1 255 125 0 255
-0.105 0.04500001 0.094999984 0 -0 -1 255 125 0 255
-0.105 0.074999996 0.094999984 0 -0 -1 255 125 0 255
-0.14499998 0.04500001 0.094999984 0 -0 -1 255 125 0 255
-0.27499992 -0.07699999 0.094999984 0 -0 -1 255 125 0 255
-0.27499992 0.04299999 0.094999984 0 -0 -1 255 125 0 255
-0.27499992 0.20699997 0.094999984 0 -0 -1 255 125 0 255
-0.27499992 0.32700008 0.094999984 0 -0 -1 255 125 0 255
0.024999999 0.32700008 0.094999984 0 -0 -1 255 125 0 255
-0.32969984 0.32969984 0.094999984 0 -0 -1 255 125 0 255
0.024999999 0.04299999 0.094999984 0 -0 -1 255 125 0 255
0.024999999 0.20699997 0.094999984 0 -0 -1 255 125 0 255
-0.024999999 0.32700008 0.094999984 0 -0 -1 255 125 0 255
-0.225 0.32700008 0.094999984 0 -0 -1 255 125 0 255
-0.105 0.20499998 0.094999984 0 -0 -1 255 125 0 255
-0.14499998 0.175 0.094999984 0 -0 -1 255 125 0 255
-0.25499997 0.04299999 0.094999984 0 -0 -1 255 125 0 255
-0.25499997 0.19499998 0.094999984 0 -0 -1 255 125 0 255
-0.25499997 0.20699997 0.094999984 0 -0 -1 255 125 0 255
-0.15499999 0.19499998 0.094999984 0 -0 -1 255 125 0 255
-0.15499999 0.175 0.094999984 0 -0 -1 255 125 0 255
-0.225 0.04299999 0.094999984 0 -0 -1 255 125 0 255
-0.24499997 0.04500001 0.094999984 0 -0 -1 255 125 0 255
-0.24499997 0.04299999 0.094999984 0 -0 -1 255 125 0 255
-0.14499998 0.074999996 0.094999984 0 -0 -1 255 125 0 255
-0.074999996 0.175 0.094999984 0 -0 -1 255 125 0 255
-0.094999984 0.19499998 0.094999984 0 -0 -1 255 125 0 255
-0.094999984 0.175 0.094999984 0 -0 -1 255 125 0 255
0.005 0.04299999 0.094999984 0 -0 -1 255 125 0 255
0.005 0.20699997 0.094999984 0 -0 -1 255 125 0 255
-0.005 0.20699997 0.094999984 0 -0 -1 255 125 0 255
-0.005 0.20499998 0.094999984 0 -0 -1 255 125 0 255
-0.024999999 0.20699997 0.094999984 0 -0 -1 255 125 0 255
-0.105 0.175 0.094999984 0 -0 -1 255 125 0 255
-0.005 0.04500001 0.094999984 0 -0 -1 255 125 0 255
-0.005 0.04299999 0.094999984 0 -0 -1 255 125 0 255
-0.35500005 -0.105 0.074999996 0.62014675 -3.4204017E-19 -0.78448576 255 125 0 255
-0.32969984 0.32969984 0.094999984 0.62014675 -3.4204017E-19 -0.78448576 255 125 0 255
-0.32969984 -0.07969999 0.094999984 0.62014675 -3.4204017E-19 -0.78448576 255 125 0 255
-0.35500005 0.35500005 0.074999996 0.62014675 -3.4204017E-19 -0.78448576 255 125 0 255
-0.35500005 -0.105 0.074999996 -3.5422235E-18 0.62014675 -0.78448576 255 125 0 255
0.07969999 -0.07969999 0.094999984 -3.5422235E-18 0.62014675 -0.78448576 255 125 0 255
0.105 -0.105 0.074999996 -3.5422235E-18 0.62014675 -0.78448576 255 125 0 255
-0.32969984 -0.07969999 0.094999984 -3.5422235E-18 0.62014675 -0.78448576 255 125 0 255
3 0 1 2
3 1 0 3
3 3 0 4
3 3 4 5
3 6 7 8
3 7 6 9
3 7 9 10
3 10 9 11
3 10 11 0
3 0 11 4
3 12 13 14
3 15 16 17
3 18 14 13
3 14 18 16
3 14 16 19
3 19 16 15
3 13 20 21
3 20 13 22
3 22 13 12
3 22 12 23
3 24 25 26
3 25 24 27
3 27 24 28
3 28 24 29
3 28 30 27
3 31 32 33
3 32 31 30
3 32 30 34
3 34 30 28
3 35 33 32
3 36 37 38
3 37 36 39
3 37 39 40
3 40 39 41
3 40 41 42
3 42 41 43
3 44 45 46
3 45 44 38
3 38 44 36
3 36 44 47
3 48 49 50
3 51 52 53
3 52 51 54
3 54 51 49
3 54 49 48
3 54 48 55
3 56 57 58
3 57 56 59
3 59 56 60
3 60 56 61
3 61 56 62
3 61 62 53
3 61 53 52
3 63 64 65
3 64 63 66
3 66 63 67
3 67 63 57
3 67 57 59
3 68 64 66
3 69 70 71
3 72 73 74
3 75 76 77
3 76 75 78
3 79 80 81
3 82 83 84
3 83 82 85
3 83 85 71
3 83 71 70
3 84 83 77
3 84 77 86
3 86 77 76
3 87 88 89
3 88 87 82
3 89 88 90
3 91 85 87
3 85 91 92
3 87 85 82
3 85 92 93
3 85 93 94
3 93 92 81
3 81 92 79
3 79 92 75
3 75 92 78
3 78 92 95
3 95 92 96
3 96 92 97
3 97 92 98
3 98 92 99
3 99 92 100
3 101 90 102
3 90 101 103
3 90 103 89
3 89 103 104
3 89 104 105
3 105 104 73
3 105 73 100
3 100 73 72
3 100 72 99
3 97 106 96
3 106 97 107
3 108 109 110
3 109 108 111
3 111 112 113
3 112 111 114
3 114 111 108
3 114 108 115
3 114 115 116
3 116 115 117
3 116 118 114
3 118 116 119
3 120 121 122
3 121 120 123
3 124 125 126
3 125 124 127
3 128 129 130
3 129 128 131
3 132 133 134
3 133 132 135
3 136 137 138
3 137 136 139
3 140 141 142
3 141 140 143
3 144 145 146
3 145 144 147
3 148 149 150
3 149 148 151
3 152 153 154
3 153 152 155
3 156 157 158
3 157 156 159
3 160 161 162
3 161 160 163
3 164 165 166
3 165 164 167
3 168 169 170
3 169 168 171
3 172 173 174
3 173 172 175
3 176 177 178
3 177 176 179
3 177 179 180
3 181 182 183
3 182 181 184
3 184 181 185
3 186 187 188
3 187 186 189
3 190 191 192
3 191 190 193
3 191 193 194
3 194 193 195
3 194 195 196
3 196 195 197
3 197 195 198
3 198 195 199
3 195 193 200
3 200 193 201
3 201 193 202
3 202 193 203
3 192 204 205
3 204 192 191
3 204 191 206
3 204 206 207
3 205 204 208
3 205 208 209
3 209 208 210
3 209 210 188
3 188 210 211
3 209 188 187
3 205 209 203
3 205 203 193
3 201 181 212
3 181 201 213
3 213 201 214
3 214 201 202
3 185 215 216
3 215 185 213
3 213 185 181
3 199 217 218
3 217 199 195
3 218 217 219
3 220 198 199
3 178 221 222
3 221 178 177
3 222 221 223
3 224 207 206
3 207 224 225
3 225 224 176
3 225 176 178
3 210 226 227
3 226 210 228
3 228 210 208
3 211 210 229
3 196 230 231
3 230 196 197
3 232 233 234
3 233 232 235
3 236 237 238
3 237 236 239

