ply
format ascii 1.0
commentY29udmVydGVyIGJ5IENvZGVMZW9wYXJk
comment Original mesh name: 'C:\Program Files (x86)\Steam\steamapps\common\Stormworks\rom\meshes\component_connector_water.mesh'
comment SubMesh index: 0
comment SubMesh name: 'ID26'
comment Shader: Opaque (0)
element vertex 272
property float x
property float y
property float z
property float nx
property float ny
property float nz
property uchar red
property uchar green
property uchar blue
property uchar alpha
element face 174
property list uchar ushort vertex_index
end_header
-0.08249998 -0.034172624 0.125 -0.707107 -0.7071066 -0 84 84 84 255
-0.034172624 -0.08250001 0.105 -0.707107 -0.7071066 -0 84 84 84 255
-0.034172624 -0.08250001 0.125 -0.707107 -0.7071066 -0 84 84 84 255
-0.08249998 -0.034172624 0.105 -0.707107 -0.7071066 -0 84 84 84 255
0.08250001 -0.034172624 0.105 0 -0 -1 84 84 84 255
0.0625 -0.025888337 0.105 0 -0 -1 84 84 84 255
0.08250001 0.034172624 0.105 0 -0 -1 84 84 84 255
0.034172624 -0.08250001 0.105 0 -0 -1 84 84 84 255
0.025888337 -0.0625 0.105 0 -0 -1 84 84 84 255
-0.034172624 -0.08250001 0.105 0 -0 -1 84 84 84 255
-0.025888337 -0.0625 0.105 0 -0 -1 84 84 84 255
-0.0625 -0.025888337 0.105 0 -0 -1 84 84 84 255
-0.08249998 -0.034172624 0.105 0 -0 -1 84 84 84 255
-0.0625 0.025888337 0.105 0 -0 -1 84 84 84 255
0.0625 0.025888337 0.105 0 -0 -1 84 84 84 255
0.034172624 0.08249998 0.105 0 -0 -1 84 84 84 255
0.025888337 0.0625 0.105 0 -0 -1 84 84 84 255
-0.034172624 0.08249998 0.105 0 -0 -1 84 84 84 255
-0.025888337 0.0625 0.105 0 -0 -1 84 84 84 255
-0.08249998 0.034172624 0.105 0 -0 -1 84 84 84 255
0.034172624 -0.08250001 0.125 0 -1 -0 84 84 84 255
-0.034172624 -0.08250001 0.105 0 -1 -0 84 84 84 255
0.034172624 -0.08250001 0.105 0 -1 -0 84 84 84 255
-0.034172624 -0.08250001 0.125 0 -1 -0 84 84 84 255
-0.08249998 0.034172624 0.125 -1 -0 -0 84 84 84 255
-0.08249998 -0.034172624 0.105 -1 -0 -0 84 84 84 255
-0.08249998 -0.034172624 0.125 -1 -0 -0 84 84 84 255
-0.08249998 0.034172624 0.105 -1 -0 -0 84 84 84 255
-0.034172624 0.08249998 0.125 -0.70710677 0.70710677 -0 84 84 84 255
-0.08249998 0.034172624 0.105 -0.70710677 0.70710677 -0 84 84 84 255
-0.08249998 0.034172624 0.125 -0.70710677 0.70710677 -0 84 84 84 255
-0.034172624 0.08249998 0.105 -0.70710677 0.70710677 -0 84 84 84 255
-0.034172624 0.08249998 0.125 0 1 -0 84 84 84 255
0.034172624 0.08249998 0.105 0 1 -0 84 84 84 255
-0.034172624 0.08249998 0.105 0 1 -0 84 84 84 255
0.034172624 0.08249998 0.125 0 1 -0 84 84 84 255
0.034172624 0.08249998 0.125 0.7071066 0.707107 -0 84 84 84 255
0.08250001 0.034172624 0.105 0.7071066 0.707107 -0 84 84 84 255
0.034172624 0.08249998 0.105 0.7071066 0.707107 -0 84 84 84 255
0.08250001 0.034172624 0.125 0.7071066 0.707107 -0 84 84 84 255
0.08250001 0.034172624 0.105 1 -0 -0 84 84 84 255
0.08250001 -0.034172624 0.125 1 -0 -0 84 84 84 255
0.08250001 -0.034172624 0.105 1 -0 -0 84 84 84 255
0.08250001 0.034172624 0.125 1 -0 -0 84 84 84 255
0.08250001 -0.034172624 0.105 0.70710677 -0.70710677 -0 84 84 84 255
0.034172624 -0.08250001 0.125 0.70710677 -0.70710677 -0 84 84 84 255
0.034172624 -0.08250001 0.105 0.70710677 -0.70710677 -0 84 84 84 255
0.08250001 -0.034172624 0.125 0.70710677 -0.70710677 -0 84 84 84 255
-0.025888337 0.0625 0.105 0.70710677 -0.70710677 -0 199 199 199 255
-0.0625 0.025888337 0.2000001 0.70710677 -0.70710677 -0 199 199 199 255
-0.0625 0.025888337 0.105 0.70710677 -0.70710677 -0 199 199 199 255
-0.025888337 0.0625 0.2000001 0.70710677 -0.70710677 -0 199 199 199 255
0.025888337 0.0625 0.2000001 0 -1 -0 199 199 199 255
-0.025888337 0.0625 0.105 0 -1 -0 199 199 199 255
0.025888337 0.0625 0.105 0 -1 -0 199 199 199 255
-0.025888337 0.0625 0.2000001 0 -1 -0 199 199 199 255
-0.0625 0.025888337 0.105 1 -0 -0 199 199 199 255
-0.0625 -0.025888337 0.2000001 1 -0 -0 199 199 199 255
-0.0625 -0.025888337 0.105 1 -0 -0 199 199 199 255
-0.0625 0.025888337 0.2000001 1 -0 -0 199 199 199 255
0.025888337 0.0625 0.2000001 -0.70710677 -0.70710677 -0 199 199 199 255
0.0625 0.025888337 0.105 -0.70710677 -0.70710677 -0 199 199 199 255
0.0625 0.025888337 0.2000001 -0.70710677 -0.70710677 -0 199 199 199 255
0.025888337 0.0625 0.105 -0.70710677 -0.70710677 -0 199 199 199 255
-0.0625 -0.025888337 0.2000001 0.70710677 0.70710677 -0 199 199 199 255
-0.025888337 -0.0625 0.105 0.70710677 0.70710677 -0 199 199 199 255
-0.0625 -0.025888337 0.105 0.70710677 0.70710677 -0 199 199 199 255
-0.025888337 -0.0625 0.2000001 0.70710677 0.70710677 -0 199 199 199 255
0.0625 0.025888337 0.2000001 -1 -0 -0 199 199 199 255
0.0625 -0.025888337 0.105 -1 -0 -0 199 199 199 255
0.0625 -0.025888337 0.2000001 -1 -0 -0 199 199 199 255
0.0625 0.025888337 0.105 -1 -0 -0 199 199 199 255
-0.025888337 -0.0625 0.2000001 0 1 -0 199 199 199 255
0.025888337 -0.0625 0.105 0 1 -0 199 199 199 255
-0.025888337 -0.0625 0.105 0 1 -0 199 199 199 255
0.025888337 -0.0625 0.2000001 0 1 -0 199 199 199 255
0.0625 -0.025888337 0.2000001 -0.70710677 0.70710677 -0 199 199 199 255
0.025888337 -0.0625 0.105 -0.70710677 0.70710677 -0 199 199 199 255
0.025888337 -0.0625 0.2000001 -0.70710677 0.70710677 -0 199 199 199 255
0.0625 -0.025888337 0.105 -0.70710677 0.70710677 -0 199 199 199 255
-0.013027024 -0.03145 0.23920752 0 0.5658711 -0.8244937 199 199 199 255
0.0065134997 -0.015725013 0.25 0 0.5658711 -0.8244937 199 199 199 255
0.013027024 -0.03145 0.23920752 0 0.5658711 -0.8244937 199 199 199 255
-0.0065134997 -0.015725013 0.25 0 0.5658711 -0.8244937 199 199 199 255
-0.013027024 -0.03145 0.23920752 0 0.9625041 -0.271267 199 199 199 255
0.017604077 -0.04250001 0.2000001 0 0.9625041 -0.271267 199 199 199 255
-0.017604077 -0.04250001 0.2000001 0 0.9625041 -0.271267 199 199 199 255
0.013027024 -0.03145 0.23920752 0 0.9625041 -0.271267 199 199 199 255
-0.013027024 -0.03145 0.23920752 0.400131 0.4001307 -0.8244942 199 199 199 255
-0.015724987 -0.0065134997 0.25 0.400131 0.4001307 -0.8244942 199 199 199 255
-0.0065134997 -0.015725013 0.25 0.400131 0.4001307 -0.8244942 199 199 199 255
-0.03145 -0.013027024 0.23920752 0.400131 0.4001307 -0.8244942 199 199 199 255
0.0065134997 -0.015725013 0.25 0 -0 -1 199 199 199 255
0.015725013 0.0065134997 0.25 0 -0 -1 199 199 199 255
0.015725013 -0.0065134997 0.25 0 -0 -1 199 199 199 255
0.0065134997 0.015724987 0.25 0 -0 -1 199 199 199 255
-0.0065134997 -0.015725013 0.25 0 -0 -1 199 199 199 255
-0.0065134997 0.015724987 0.25 0 -0 -1 199 199 199 255
-0.015724987 -0.0065134997 0.25 0 -0 -1 199 199 199 255
-0.015724987 0.0065134997 0.25 0 -0 -1 199 199 199 255
0.013027024 -0.03145 0.23920752 -0.400131 0.400131 -0.824494 199 199 199 255
0.015725013 -0.0065134997 0.25 -0.400131 0.400131 -0.824494 199 199 199 255
0.03145 -0.013027024 0.23920752 -0.400131 0.400131 -0.824494 199 199 199 255
0.0065134997 -0.015725013 0.25 -0.400131 0.400131 -0.824494 199 199 199 255
-0.04249999 -0.017604077 0.2000001 0.6805935 0.680593 -0.2712666 199 199 199 255
-0.013027024 -0.03145 0.23920752 0.6805935 0.680593 -0.2712666 199 199 199 255
-0.017604077 -0.04250001 0.2000001 0.6805935 0.680593 -0.2712666 199 199 199 255
-0.03145 -0.013027024 0.23920752 0.6805935 0.680593 -0.2712666 199 199 199 255
0.013027024 -0.03145 0.23920752 -0.68059325 0.68059325 -0.27126682 199 199 199 255
0.04250001 -0.017604077 0.2000001 -0.68059325 0.68059325 -0.27126682 199 199 199 255
0.017604077 -0.04250001 0.2000001 -0.68059325 0.68059325 -0.27126682 199 199 199 255
0.03145 -0.013027024 0.23920752 -0.68059325 0.68059325 -0.27126682 199 199 199 255
-0.03145 -0.013027024 0.23920752 0.56587046 -0 -0.8244941 199 199 199 255
-0.015724987 0.0065134997 0.25 0.56587046 -0 -0.8244941 199 199 199 255
-0.015724987 -0.0065134997 0.25 0.56587046 -0 -0.8244941 199 199 199 255
-0.03145 0.013027024 0.23920752 0.56587046 -0 -0.8244941 199 199 199 255
-0.015724987 0.0065134997 0.25 0.4001307 -0.4001307 -0.8244943 199 199 199 255
-0.013027024 0.03145 0.23920752 0.4001307 -0.4001307 -0.8244943 199 199 199 255
-0.0065134997 0.015724987 0.25 0.4001307 -0.4001307 -0.8244943 199 199 199 255
-0.03145 0.013027024 0.23920752 0.4001307 -0.4001307 -0.8244943 199 199 199 255
0.0065134997 0.015724987 0.25 0 -0.56587046 -0.8244941 199 199 199 255
-0.013027024 0.03145 0.23920752 0 -0.56587046 -0.8244941 199 199 199 255
0.013027024 0.03145 0.23920752 0 -0.56587046 -0.8244941 199 199 199 255
-0.0065134997 0.015724987 0.25 0 -0.56587046 -0.8244941 199 199 199 255
0.015725013 0.0065134997 0.25 -0.40013063 -0.40013093 -0.8244941 199 199 199 255
0.013027024 0.03145 0.23920752 -0.40013063 -0.40013093 -0.8244941 199 199 199 255
0.03145 0.013027024 0.23920752 -0.40013063 -0.40013093 -0.8244941 199 199 199 255
0.0065134997 0.015724987 0.25 -0.40013063 -0.40013093 -0.8244941 199 199 199 255
0.015725013 -0.0065134997 0.25 -0.5658711 -0 -0.8244937 199 199 199 255
0.03145 0.013027024 0.23920752 -0.5658711 -0 -0.8244937 199 199 199 255
0.03145 -0.013027024 0.23920752 -0.5658711 -0 -0.8244937 199 199 199 255
0.015725013 0.0065134997 0.25 -0.5658711 -0 -0.8244937 199 199 199 255
-0.04249999 0.017604077 0.2000001 0.96250427 -0 -0.2712665 199 199 199 255
-0.03145 -0.013027024 0.23920752 0.96250427 -0 -0.2712665 199 199 199 255
-0.04249999 -0.017604077 0.2000001 0.96250427 -0 -0.2712665 199 199 199 255
-0.03145 0.013027024 0.23920752 0.96250427 -0 -0.2712665 199 199 199 255
0.03145 -0.013027024 0.23920752 -0.9625041 -0 -0.271267 199 199 199 255
0.04250001 0.017604077 0.2000001 -0.9625041 -0 -0.271267 199 199 199 255
0.04250001 -0.017604077 0.2000001 -0.9625041 -0 -0.271267 199 199 199 255
0.03145 0.013027024 0.23920752 -0.9625041 -0 -0.271267 199 199 199 255
-0.013027024 0.03145 0.23920752 0.6805933 -0.6805933 -0.2712664 199 199 199 255
-0.04249999 0.017604077 0.2000001 0.6805933 -0.6805933 -0.2712664 199 199 199 255
-0.017604077 0.04249999 0.2000001 0.6805933 -0.6805933 -0.2712664 199 199 199 255
-0.03145 0.013027024 0.23920752 0.6805933 -0.6805933 -0.2712664 199 199 199 255
0.013027024 0.03145 0.23920752 0 -0.96250427 -0.2712665 199 199 199 255
-0.017604077 0.04249999 0.2000001 0 -0.96250427 -0.2712665 199 199 199 255
0.017604077 0.04249999 0.2000001 0 -0.96250427 -0.2712665 199 199 199 255
-0.013027024 0.03145 0.23920752 0 -0.96250427 -0.2712665 199 199 199 255
0.03145 0.013027024 0.23920752 -0.680593 -0.6805935 -0.2712666 199 199 199 255
0.017604077 0.04249999 0.2000001 -0.680593 -0.6805935 -0.2712666 199 199 199 255
0.04250001 0.017604077 0.2000001 -0.680593 -0.6805935 -0.2712666 199 199 199 255
0.013027024 0.03145 0.23920752 -0.680593 -0.6805935 -0.2712666 199 199 199 255
0.125 -0.125 0.125 -1.1090879E-14 -7.890181E-17 -1 255 125 0 255
0.08250001 -0.034172624 0.125 -1.1090879E-14 -7.890181E-17 -1 255 125 0 255
0.125 0.125 0.125 -1.1090879E-14 -7.890181E-17 -1 255 125 0 255
0.034172624 -0.08249998 0.125 -1.1090879E-14 -7.890181E-17 -1 255 125 0 255
-0.125 -0.125 0.125 -1.1090879E-14 -7.890181E-17 -1 255 125 0 255
-0.034172624 -0.08249998 0.125 -1.1090879E-14 -7.890181E-17 -1 255 125 0 255
-0.08249998 -0.034172624 0.125 -1.1090879E-14 -7.890181E-17 -1 255 125 0 255
-0.08249998 0.034172624 0.125 -1.1090879E-14 -7.890181E-17 -1 255 125 0 255
0.034172624 0.08250001 0.125 -1.1090879E-14 -7.890181E-17 -1 255 125 0 255
-0.125 0.125 0.125 -1.1090879E-14 -7.890181E-17 -1 255 125 0 255
0.08250001 0.034172624 0.125 -1.1090879E-14 -7.890181E-17 -1 255 125 0 255
-0.034172624 0.08250001 0.125 -1.1090879E-14 -7.890181E-17 -1 255 125 0 255
0.025888337 -0.0625 0.2000001 0 -0 -1 84 84 84 255
0.0625 0.025888337 0.2000001 0 -0 -1 84 84 84 255
0.0625 -0.025888337 0.2000001 0 -0 -1 84 84 84 255
0.04250001 -0.017604077 0.2000001 0 -0 -1 84 84 84 255
0.017604077 -0.04250001 0.2000001 0 -0 -1 84 84 84 255
-0.025888337 -0.0625 0.2000001 0 -0 -1 84 84 84 255
-0.017604077 -0.04250001 0.2000001 0 -0 -1 84 84 84 255
-0.04249999 -0.017604077 0.2000001 0 -0 -1 84 84 84 255
-0.0625 -0.025888337 0.2000001 0 -0 -1 84 84 84 255
-0.04249999 0.017604077 0.2000001 0 -0 -1 84 84 84 255
0.04250001 0.017604077 0.2000001 0 -0 -1 84 84 84 255
0.025888337 0.0625 0.2000001 0 -0 -1 84 84 84 255
0.017604077 0.04249999 0.2000001 0 -0 -1 84 84 84 255
-0.025888337 0.0625 0.2000001 0 -0 -1 84 84 84 255
-0.017604077 0.04249999 0.2000001 0 -0 -1 84 84 84 255
-0.0625 0.025888337 0.2000001 0 -0 -1 84 84 84 255
-0.08250001 0.034172624 -0.105 -5.4764373E-15 -3.6940233E-15 1 84 84 84 255
-0.025888335 0.0625 -0.105 -5.4764373E-15 -3.6940233E-15 1 84 84 84 255
-0.034172624 0.08250001 -0.105 -5.4764373E-15 -3.6940233E-15 1 84 84 84 255
-0.0625 0.025888335 -0.105 -5.4764373E-15 -3.6940233E-15 1 84 84 84 255
-0.08250001 -0.034172613 -0.105 -5.4764373E-15 -3.6940233E-15 1 84 84 84 255
-0.0625 -0.025888335 -0.105 -5.4764373E-15 -3.6940233E-15 1 84 84 84 255
-0.025888335 -0.062499985 -0.105 -5.4764373E-15 -3.6940233E-15 1 84 84 84 255
-0.034172624 -0.08249997 -0.105 -5.4764373E-15 -3.6940233E-15 1 84 84 84 255
0.025888335 -0.062499985 -0.105 -5.4764373E-15 -3.6940233E-15 1 84 84 84 255
0.034172613 -0.08249997 -0.105 -5.4764373E-15 -3.6940233E-15 1 84 84 84 255
0.034172613 0.08250001 -0.105 -5.4764373E-15 -3.6940233E-15 1 84 84 84 255
0.025888335 0.0625 -0.105 -5.4764373E-15 -3.6940233E-15 1 84 84 84 255
0.08249997 0.034172624 -0.105 -5.4764373E-15 -3.6940233E-15 1 84 84 84 255
0.062499985 0.025888335 -0.105 -5.4764373E-15 -3.6940233E-15 1 84 84 84 255
0.08249997 -0.034172613 -0.105 -5.4764373E-15 -3.6940233E-15 1 84 84 84 255
0.062499985 -0.025888335 -0.105 -5.4764373E-15 -3.6940233E-15 1 84 84 84 255
0.034172613 -0.08249997 -0.125 -4.0378527E-13 -1 -1.734723E-16 84 84 84 255
-0.034172624 -0.08249997 -0.105 -4.0378527E-13 -1 -1.734723E-16 84 84 84 255
-0.034172624 -0.08249997 -0.125 -4.0378527E-13 -1 -1.734723E-16 84 84 84 255
0.034172613 -0.08249997 -0.105 -4.0378527E-13 -1 -1.734723E-16 84 84 84 255
0.034172613 -0.08249997 -0.105 0.70710677 -0.70710677 -3.160227E-16 84 84 84 255
0.08249997 -0.034172613 -0.125 0.70710677 -0.70710677 -3.160227E-16 84 84 84 255
0.08249997 -0.034172613 -0.105 0.70710677 -0.70710677 -3.160227E-16 84 84 84 255
0.034172613 -0.08249997 -0.125 0.70710677 -0.70710677 -3.160227E-16 84 84 84 255
0.08249997 -0.034172613 -0.105 1 -4.0378527E-13 -2.734513E-16 84 84 84 255
0.08249997 0.034172624 -0.125 1 -4.0378527E-13 -2.734513E-16 84 84 84 255
0.08249997 0.034172624 -0.105 1 -4.0378527E-13 -2.734513E-16 84 84 84 255
0.08249997 -0.034172613 -0.125 1 -4.0378527E-13 -2.734513E-16 84 84 84 255
0.08249997 0.034172624 -0.125 0.707107 0.7071066 -7.434474E-18 84 84 84 255
0.034172613 0.08250001 -0.105 0.707107 0.7071066 -7.434474E-18 84 84 84 255
0.08249997 0.034172624 -0.105 0.707107 0.7071066 -7.434474E-18 84 84 84 255
0.034172613 0.08250001 -0.125 0.707107 0.7071066 -7.434474E-18 84 84 84 255
0.034172613 0.08250001 -0.105 4.0378527E-13 1 1.734723E-16 84 84 84 255
-0.034172624 0.08250001 -0.125 4.0378527E-13 1 1.734723E-16 84 84 84 255
-0.034172624 0.08250001 -0.105 4.0378527E-13 1 1.734723E-16 84 84 84 255
0.034172613 0.08250001 -0.125 4.0378527E-13 1 1.734723E-16 84 84 84 255
-0.034172624 0.08250001 -0.125 -0.70710677 0.70710677 3.160227E-16 84 84 84 255
-0.08250001 0.034172624 -0.105 -0.70710677 0.70710677 3.160227E-16 84 84 84 255
-0.034172624 0.08250001 -0.105 -0.70710677 0.70710677 3.160227E-16 84 84 84 255
-0.08250001 0.034172624 -0.125 -0.70710677 0.70710677 3.160227E-16 84 84 84 255
-0.08250001 0.034172624 -0.125 -1 4.0378527E-13 2.734513E-16 84 84 84 255
-0.08250001 -0.034172613 -0.105 -1 4.0378527E-13 2.734513E-16 84 84 84 255
-0.08250001 0.034172624 -0.105 -1 4.0378527E-13 2.734513E-16 84 84 84 255
-0.08250001 -0.034172613 -0.125 -1 4.0378527E-13 2.734513E-16 84 84 84 255
-0.034172624 -0.08249997 -0.125 -0.7071066 -0.707107 7.0695745E-17 84 84 84 255
-0.08250001 -0.034172613 -0.105 -0.7071066 -0.707107 7.0695745E-17 84 84 84 255
-0.08250001 -0.034172613 -0.125 -0.7071066 -0.707107 7.0695745E-17 84 84 84 255
-0.034172624 -0.08249997 -0.105 -0.7071066 -0.707107 7.0695745E-17 84 84 84 255
0.025888335 0.0625 -0.125 -4.0378527E-13 -1 -1.734723E-16 84 84 84 255
-0.025888335 0.0625 -0.105 -4.0378527E-13 -1 -1.734723E-16 84 84 84 255
-0.025888335 0.0625 -0.125 -4.0378527E-13 -1 -1.734723E-16 84 84 84 255
0.025888335 0.0625 -0.105 -4.0378527E-13 -1 -1.734723E-16 84 84 84 255
-0.0625 0.025888335 -0.105 0.70710677 -0.70710677 -3.160227E-16 84 84 84 255
-0.025888335 0.0625 -0.125 0.70710677 -0.70710677 -3.160227E-16 84 84 84 255
-0.025888335 0.0625 -0.105 0.70710677 -0.70710677 -3.160227E-16 84 84 84 255
-0.0625 0.025888335 -0.125 0.70710677 -0.70710677 -3.160227E-16 84 84 84 255
0.062499985 0.025888335 -0.125 -0.70710677 -0.70710677 1.3400587E-16 84 84 84 255
0.025888335 0.0625 -0.105 -0.70710677 -0.70710677 1.3400587E-16 84 84 84 255
0.025888335 0.0625 -0.125 -0.70710677 -0.70710677 1.3400587E-16 84 84 84 255
0.062499985 0.025888335 -0.105 -0.70710677 -0.70710677 1.3400587E-16 84 84 84 255
-0.0625 -0.025888335 -0.125 1 -4.0378527E-13 -2.734513E-16 84 84 84 255
-0.0625 0.025888335 -0.105 1 -4.0378527E-13 -2.734513E-16 84 84 84 255
-0.0625 -0.025888335 -0.105 1 -4.0378527E-13 -2.734513E-16 84 84 84 255
-0.0625 0.025888335 -0.125 1 -4.0378527E-13 -2.734513E-16 84 84 84 255
0.062499985 0.025888335 -0.105 -1 4.0378527E-13 2.734513E-16 84 84 84 255
0.062499985 -0.025888335 -0.125 -1 4.0378527E-13 2.734513E-16 84 84 84 255
0.062499985 -0.025888335 -0.105 -1 4.0378527E-13 2.734513E-16 84 84 84 255
0.062499985 0.025888335 -0.125 -1 4.0378527E-13 2.734513E-16 84 84 84 255
-0.025888335 -0.062499985 -0.125 0.70710677 0.70710677 -7.0695825E-17 84 84 84 255
-0.0625 -0.025888335 -0.105 0.70710677 0.70710677 -7.0695825E-17 84 84 84 255
-0.025888335 -0.062499985 -0.105 0.70710677 0.70710677 -7.0695825E-17 84 84 84 255
-0.0625 -0.025888335 -0.125 0.70710677 0.70710677 -7.0695825E-17 84 84 84 255
0.062499985 -0.025888335 -0.105 -0.70710677 0.70710677 3.160227E-16 84 84 84 255
0.025888335 -0.062499985 -0.125 -0.70710677 0.70710677 3.160227E-16 84 84 84 255
0.025888335 -0.062499985 -0.105 -0.70710677 0.70710677 3.160227E-16 84 84 84 255
0.062499985 -0.025888335 -0.125 -0.70710677 0.70710677 3.160227E-16 84 84 84 255
0.025888335 -0.062499985 -0.105 4.0378527E-13 1 1.734723E-16 84 84 84 255
-0.025888335 -0.062499985 -0.125 4.0378527E-13 1 1.734723E-16 84 84 84 255
-0.025888335 -0.062499985 -0.105 4.0378527E-13 1 1.734723E-16 84 84 84 255
0.025888335 -0.062499985 -0.125 4.0378527E-13 1 1.734723E-16 84 84 84 255
-0.125 0.125 -0.125 2.734513E-16 -1.734723E-16 1 55 125 0 255
-0.034172624 0.08250001 -0.125 2.734513E-16 -1.734723E-16 1 55 125 0 255
0.125 0.125 -0.125 2.734513E-16 -1.734723E-16 1 55 125 0 255
-0.08250001 0.034172624 -0.125 2.734513E-16 -1.734723E-16 1 55 125 0 255
-0.125 -0.125 -0.125 2.734513E-16 -1.734723E-16 1 55 125 0 255
0.034172613 0.08250001 -0.125 2.734513E-16 -1.734723E-16 1 55 125 0 255
-0.08250001 -0.034172613 -0.125 2.734513E-16 -1.734723E-16 1 55 125 0 255
-0.034172624 -0.08249997 -0.125 2.734513E-16 -1.734723E-16 1 55 125 0 255
0.125 -0.125 -0.125 2.734513E-16 -1.734723E-16 1 55 125 0 255
0.08249997 0.034172624 -0.125 2.734513E-16 -1.734723E-16 1 55 125 0 255
0.08249997 -0.034172613 -0.125 2.734513E-16 -1.734723E-16 1 55 125 0 255
0.034172613 -0.08249997 -0.125 2.734513E-16 -1.734723E-16 1 55 125 0 255
3 0 1 2
3 1 0 3
3 4 5 6
3 5 4 7
3 5 7 8
3 8 7 9
3 8 9 10
3 10 9 11
3 11 9 12
3 11 12 13
3 6 14 15
3 14 6 5
3 15 14 16
3 15 16 17
3 17 16 18
3 17 18 13
3 17 13 19
3 19 13 12
3 20 21 22
3 21 20 23
3 24 25 26
3 25 24 27
3 28 29 30
3 29 28 31
3 32 33 34
3 33 32 35
3 36 37 38
3 37 36 39
3 40 41 42
3 41 40 43
3 44 45 46
3 45 44 47
3 48 49 50
3 49 48 51
3 52 53 54
3 53 52 55
3 56 57 58
3 57 56 59
3 60 61 62
3 61 60 63
3 64 65 66
3 65 64 67
3 68 69 70
3 69 68 71
3 72 73 74
3 73 72 75
3 76 77 78
3 77 76 79
3 80 81 82
3 81 80 83
3 84 85 86
3 85 84 87
3 88 89 90
3 89 88 91
3 92 93 94
3 93 92 95
3 95 92 96
3 95 96 97
3 97 96 98
3 97 98 99
3 100 101 102
3 101 100 103
3 104 105 106
3 105 104 107
3 108 109 110
3 109 108 111
3 112 113 114
3 113 112 115
3 116 117 118
3 117 116 119
3 120 121 122
3 121 120 123
3 124 125 126
3 125 124 127
3 128 129 130
3 129 128 131
3 132 133 134
3 133 132 135
3 136 137 138
3 137 136 139
3 140 141 142
3 141 140 143
3 144 145 146
3 145 144 147
3 148 149 150
3 149 148 151
3 152 153 154
3 153 152 155
3 155 152 156
3 155 156 157
3 157 156 158
3 158 156 159
3 154 160 161
3 160 154 162
3 162 154 153
3 161 160 163
3 161 163 159
3 161 159 156
3 164 165 166
3 165 164 167
3 167 164 168
3 168 164 169
3 168 169 170
3 170 169 171
3 171 169 172
3 171 172 173
3 165 174 175
3 174 165 167
3 175 174 176
3 175 176 177
3 177 176 178
3 177 178 173
3 177 173 179
3 179 173 172
3 180 181 182
3 181 180 183
3 183 180 184
3 183 184 185
3 185 184 186
3 186 184 187
3 186 187 188
3 188 187 189
3 190 191 192
3 191 190 182
3 191 182 181
3 192 191 193
3 192 193 194
3 194 193 195
3 194 195 188
3 194 188 189
3 196 197 198
3 197 196 199
3 200 201 202
3 201 200 203
3 204 205 206
3 205 204 207
3 208 209 210
3 209 208 211
3 212 213 214
3 213 212 215
3 216 217 218
3 217 216 219
3 220 221 222
3 221 220 223
3 224 225 226
3 225 224 227
3 228 229 230
3 229 228 231
3 232 233 234
3 233 232 235
3 236 237 238
3 237 236 239
3 240 241 242
3 241 240 243
3 244 245 246
3 245 244 247
3 248 249 250
3 249 248 251
3 252 253 254
3 253 252 255
3 256 257 258
3 257 256 259
3 260 261 262
3 261 260 263
3 263 260 264
3 262 261 265
3 263 264 266
3 266 264 267
3 267 264 268
3 262 269 268
3 269 262 265
3 268 269 270
3 268 270 271
3 268 271 267

