ply
format ascii 1.0
commentY29udmVydGVyIGJ5IENvZGVMZW9wYXJk
comment Original mesh name: 'C:\Program Files (x86)\Steam\steamapps\common\Stormworks\rom\meshes\component_railing_segment_extension_diag.mesh'
comment SubMesh index: 0
comment SubMesh name: 'ID17'
comment Shader: Opaque (0)
element vertex 72
property float x
property float y
property float z
property float nx
property float ny
property float nz
property uchar red
property uchar green
property uchar blue
property uchar alpha
element face 36
property list uchar ushort vertex_index
end_header
-0.1250702 -0.124929726 0.23716366 0.4391773 -0.4391773 -0.7837388 255 125 0 255
-0.14419949 -0.10580046 0.21572502 0.4391773 -0.4391773 -0.7837388 255 125 0 255
0.124929726 0.12507021 0.23716366 0.4391773 -0.4391773 -0.7837388 255 125 0 255
0.1058005 0.1441995 0.21572502 0.4391773 -0.4391773 -0.7837388 255 125 0 255
-0.10591818 -0.14408182 0.21571533 0.70710677 0.70710677 5.7657386E-12 255 125 0 255
-0.1250702 -0.124929726 0.19426699 0.70710677 0.70710677 5.7657386E-12 255 125 0 255
-0.1250702 -0.124929726 0.23716366 0.70710677 0.70710677 5.7657386E-12 255 125 0 255
-0.14419949 -0.10580046 0.21572502 0.70710677 0.70710677 5.7657386E-12 255 125 0 255
-0.10591818 -0.14408182 0.21571533 -0.4389786 0.4389786 -0.7839615 255 125 0 255
-0.1250702 -0.124929726 0.23716366 -0.4389786 0.4389786 -0.7839615 255 125 0 255
0.14408186 0.10591818 0.21571533 -0.4389786 0.4389786 -0.7839615 255 125 0 255
0.124929726 0.12507021 0.23716366 -0.4389786 0.4389786 -0.7839615 255 125 0 255
0.124929726 0.12507021 0.23716366 -0.70710677 -0.70710677 5.777631E-12 255 125 0 255
0.1058005 0.1441995 0.21572502 -0.70710677 -0.70710677 5.777631E-12 255 125 0 255
0.14408186 0.10591818 0.21571533 -0.70710677 -0.70710677 5.777631E-12 255 125 0 255
0.124929726 0.12507021 0.19426699 -0.70710677 -0.70710677 5.777631E-12 255 125 0 255
-0.1250702 -0.124929726 0.19426699 0.43942142 -0.43942142 0.78346515 255 125 0 255
0.124929726 0.12507021 0.19426699 0.43942142 -0.43942142 0.78346515 255 125 0 255
-0.14419949 -0.10580046 0.21572502 0.43942142 -0.43942142 0.78346515 255 125 0 255
0.1058005 0.1441995 0.21572502 0.43942142 -0.43942142 0.78346515 255 125 0 255
-0.10591818 -0.14408182 0.21571533 -0.4389786 0.4389786 0.7839615 255 125 0 255
0.14408186 0.10591818 0.21571533 -0.4389786 0.4389786 0.7839615 255 125 0 255
-0.1250702 -0.124929726 0.19426699 -0.4389786 0.4389786 0.7839615 255 125 0 255
0.124929726 0.12507021 0.19426699 -0.4389786 0.4389786 0.7839615 255 125 0 255
-0.1250702 -0.124929726 0.85919946 0.49999994 -0.49999994 -0.70710677 255 125 0 255
-0.14628342 -0.10371664 0.8291995 0.49999994 -0.49999994 -0.70710677 255 125 0 255
0.124929726 0.12507021 0.85919946 0.49999994 -0.49999994 -0.70710677 255 125 0 255
0.103716694 0.14628342 0.8291995 0.49999994 -0.49999994 -0.70710677 255 125 0 255
-0.10385701 -0.14614302 0.8291995 0.70710677 0.70710677 2.5523415E-14 255 125 0 255
-0.1250702 -0.124929726 0.79919964 0.70710677 0.70710677 2.5523415E-14 255 125 0 255
-0.1250702 -0.124929726 0.85919946 0.70710677 0.70710677 2.5523415E-14 255 125 0 255
-0.14628342 -0.10371664 0.8291995 0.70710677 0.70710677 2.5523415E-14 255 125 0 255
-0.10385701 -0.14614302 0.8291995 -0.49999994 0.49999994 -0.70710677 255 125 0 255
-0.1250702 -0.124929726 0.85919946 -0.49999994 0.49999994 -0.70710677 255 125 0 255
0.14614306 0.10385702 0.8291995 -0.49999994 0.49999994 -0.70710677 255 125 0 255
0.124929726 0.12507021 0.85919946 -0.49999994 0.49999994 -0.70710677 255 125 0 255
0.124929726 0.12507021 0.85919946 -0.70710677 -0.70710677 2.5523415E-14 255 125 0 255
0.103716694 0.14628342 0.8291995 -0.70710677 -0.70710677 2.5523415E-14 255 125 0 255
0.14614306 0.10385702 0.8291995 -0.70710677 -0.70710677 2.5523415E-14 255 125 0 255
0.124929726 0.12507021 0.79919964 -0.70710677 -0.70710677 2.5523415E-14 255 125 0 255
-0.1250702 -0.124929726 0.79919964 0.49999994 -0.49999994 0.70710677 255 125 0 255
0.124929726 0.12507021 0.79919964 0.49999994 -0.49999994 0.70710677 255 125 0 255
-0.14628342 -0.10371664 0.8291995 0.49999994 -0.49999994 0.70710677 255 125 0 255
0.103716694 0.14628342 0.8291995 0.49999994 -0.49999994 0.70710677 255 125 0 255
-0.10385701 -0.14614302 0.8291995 -0.49999994 0.49999994 0.70710677 255 125 0 255
0.14614306 0.10385702 0.8291995 -0.49999994 0.49999994 0.70710677 255 125 0 255
-0.1250702 -0.124929726 0.79919964 -0.49999994 0.49999994 0.70710677 255 125 0 255
0.124929726 0.12507021 0.79919964 -0.49999994 0.49999994 0.70710677 255 125 0 255
-0.10591818 -0.14408182 0.5057153 -0.4389786 0.4389786 -0.7839615 255 125 0 255
-0.1250702 -0.124929726 0.5271636 -0.4389786 0.4389786 -0.7839615 255 125 0 255
0.14408186 0.10591818 0.5057153 -0.4389786 0.4389786 -0.7839615 255 125 0 255
0.124929726 0.12507021 0.5271636 -0.4389786 0.4389786 -0.7839615 255 125 0 255
0.124929726 0.12507021 0.5271636 -0.70710677 -0.70710677 5.777631E-12 255 125 0 255
0.1058005 0.1441995 0.50572497 -0.70710677 -0.70710677 5.777631E-12 255 125 0 255
0.14408186 0.10591818 0.5057153 -0.70710677 -0.70710677 5.777631E-12 255 125 0 255
0.124929726 0.12507021 0.48426706 -0.70710677 -0.70710677 5.777631E-12 255 125 0 255
-0.1250702 -0.124929726 0.5271636 0.4391773 -0.4391773 -0.7837388 255 125 0 255
-0.14419949 -0.10580046 0.50572497 0.4391773 -0.4391773 -0.7837388 255 125 0 255
0.124929726 0.12507021 0.5271636 0.4391773 -0.4391773 -0.7837388 255 125 0 255
0.1058005 0.1441995 0.50572497 0.4391773 -0.4391773 -0.7837388 255 125 0 255
-0.10591818 -0.14408182 0.5057153 0.70710677 0.70710677 5.7657386E-12 255 125 0 255
-0.1250702 -0.124929726 0.48426706 0.70710677 0.70710677 5.7657386E-12 255 125 0 255
-0.1250702 -0.124929726 0.5271636 0.70710677 0.70710677 5.7657386E-12 255 125 0 255
-0.14419949 -0.10580046 0.50572497 0.70710677 0.70710677 5.7657386E-12 255 125 0 255
-0.10591818 -0.14408182 0.5057153 -0.4389786 0.4389786 0.7839615 255 125 0 255
0.14408186 0.10591818 0.5057153 -0.4389786 0.4389786 0.7839615 255 125 0 255
-0.1250702 -0.124929726 0.48426706 -0.4389786 0.4389786 0.7839615 255 125 0 255
0.124929726 0.12507021 0.48426706 -0.4389786 0.4389786 0.7839615 255 125 0 255
-0.1250702 -0.124929726 0.48426706 0.43942142 -0.43942142 0.78346515 255 125 0 255
0.124929726 0.12507021 0.48426706 0.43942142 -0.43942142 0.78346515 255 125 0 255
-0.14419949 -0.10580046 0.50572497 0.43942142 -0.43942142 0.78346515 255 125 0 255
0.1058005 0.1441995 0.50572497 0.43942142 -0.43942142 0.78346515 255 125 0 255
3 0 1 2
3 3 2 1
3 4 5 6
3 7 6 5
3 8 9 10
3 11 10 9
3 12 13 14
3 15 14 13
3 16 17 18
3 19 18 17
3 20 21 22
3 23 22 21
3 24 25 26
3 27 26 25
3 28 29 30
3 31 30 29
3 32 33 34
3 35 34 33
3 36 37 38
3 39 38 37
3 40 41 42
3 43 42 41
3 44 45 46
3 47 46 45
3 48 49 50
3 51 50 49
3 52 53 54
3 55 54 53
3 56 57 58
3 59 58 57
3 60 61 62
3 63 62 61
3 64 65 66
3 67 66 65
3 68 69 70
3 71 70 69

