ply
format ascii 1.0
commentY29udmVydGVyIGJ5IENvZGVMZW9wYXJk
comment Original mesh name: 'C:\Program Files (x86)\Steam\steamapps\common\Stormworks\rom\meshes\component_cart_xs.mesh'
comment SubMesh index: 0
comment SubMesh name: 'ID16'
comment Shader: Opaque (0)
element vertex 396
property float x
property float y
property float z
property float nx
property float ny
property float nz
property uchar red
property uchar green
property uchar blue
property uchar alpha
element face 196
property list uchar ushort vertex_index
end_header
-1.5801444E-14 -0.0070729265 0.024155553 0 -0 -1 58 58 58 255
0.006125334 0.0035364626 0.024155553 0 -0 -1 58 58 58 255
0.006125334 -0.0035364626 0.024155553 0 -0 -1 58 58 58 255
-4.3894683E-15 0.0070729265 0.024155553 0 -0 -1 58 58 58 255
-0.006125334 0.0035364626 0.024155553 0 -0 -1 58 58 58 255
-0.006125334 -0.0035364626 0.024155553 0 -0 -1 58 58 58 255
-0.006125334 -0.0035364626 0.024155553 0 -0 1 43 84 144 255
-1.5801444E-14 -0.0070729265 0.024155553 0 -0 1 43 84 144 255
-0.006125334 0.0035364626 0.024155553 0 -0 1 43 84 144 255
-4.3894683E-15 0.0070729265 0.024155553 0 -0 1 43 84 144 255
0.006125334 0.0035364626 0.024155553 0 -0 1 43 84 144 255
0.006125334 -0.0035364626 0.024155553 0 -0 1 43 84 144 255
-0 -2.8199662E-19 0.038489483 -0.38964978 0.67489326 -0.62665147 43 84 144 255
0.004900267 -0.0028291703 0.03239555 -0.38964978 0.67489326 -0.62665147 43 84 144 255
-1.2646689E-14 -0.0056583406 0.03239555 -0.38964978 0.67489326 -0.62665147 43 84 144 255
-1.2646689E-14 -0.0056583406 0.03239555 0.38964978 -0.67489326 0.62665147 43 84 144 255
0.004900267 -0.0028291703 0.03239555 0.38964978 -0.67489326 0.62665147 43 84 144 255
-0 -2.8199662E-19 0.038489483 0.38964978 -0.67489326 0.62665147 43 84 144 255
0.004900267 0.0028291703 0.03239555 -0.77929956 -0 -0.6266515 43 84 144 255
0.004900267 -0.0028291703 0.03239555 -0.77929956 -0 -0.6266515 43 84 144 255
-0 -2.8199662E-19 0.038489483 -0.77929956 -0 -0.6266515 43 84 144 255
-0 -2.8199662E-19 0.038489483 0.77929956 -0 0.6266515 43 84 144 255
0.004900267 -0.0028291703 0.03239555 0.77929956 -0 0.6266515 43 84 144 255
0.004900267 0.0028291703 0.03239555 0.77929956 -0 0.6266515 43 84 144 255
-1.2646689E-14 -0.0056583406 0.03239555 -0.494564 0.85661006 -0.1470569 43 84 144 255
0.006125334 -0.0035364626 0.024155553 -0.494564 0.85661006 -0.1470569 43 84 144 255
-1.5801444E-14 -0.0070729265 0.024155553 -0.494564 0.85661006 -0.1470569 43 84 144 255
0.004900267 -0.0028291703 0.03239555 -0.494564 0.85661006 -0.1470569 43 84 144 255
0.004900267 -0.0028291703 0.03239555 0.494564 -0.85661006 0.1470569 43 84 144 255
-1.2646689E-14 -0.0056583406 0.03239555 0.494564 -0.85661006 0.1470569 43 84 144 255
0.006125334 -0.0035364626 0.024155553 0.494564 -0.85661006 0.1470569 43 84 144 255
-1.5801444E-14 -0.0070729265 0.024155553 0.494564 -0.85661006 0.1470569 43 84 144 255
-0 -2.8199662E-19 0.038489483 0.38964978 0.67489326 -0.62665147 43 84 144 255
-1.2646689E-14 -0.0056583406 0.03239555 0.38964978 0.67489326 -0.62665147 43 84 144 255
-0.004900267 -0.0028291703 0.03239555 0.38964978 0.67489326 -0.62665147 43 84 144 255
-0.004900267 -0.0028291703 0.03239555 -0.38964978 -0.67489326 0.62665147 43 84 144 255
-1.2646689E-14 -0.0056583406 0.03239555 -0.38964978 -0.67489326 0.62665147 43 84 144 255
-0 -2.8199662E-19 0.038489483 -0.38964978 -0.67489326 0.62665147 43 84 144 255
0.004900267 -0.0028291703 0.03239555 -0.989128 5.468804E-18 -0.1470569 43 84 144 255
0.006125334 0.0035364626 0.024155553 -0.989128 5.468804E-18 -0.1470569 43 84 144 255
0.006125334 -0.0035364626 0.024155553 -0.989128 5.468804E-18 -0.1470569 43 84 144 255
0.004900267 0.0028291703 0.03239555 -0.989128 5.468804E-18 -0.1470569 43 84 144 255
0.004900267 0.0028291703 0.03239555 0.989128 -5.468804E-18 0.1470569 43 84 144 255
0.004900267 -0.0028291703 0.03239555 0.989128 -5.468804E-18 0.1470569 43 84 144 255
0.006125334 0.0035364626 0.024155553 0.989128 -5.468804E-18 0.1470569 43 84 144 255
0.006125334 -0.0035364626 0.024155553 0.989128 -5.468804E-18 0.1470569 43 84 144 255
-0 -2.8199662E-19 0.038489483 -0.38964978 -0.67489326 -0.62665147 43 84 144 255
-3.6213543E-15 0.0056583406 0.03239555 -0.38964978 -0.67489326 -0.62665147 43 84 144 255
0.004900267 0.0028291703 0.03239555 -0.38964978 -0.67489326 -0.62665147 43 84 144 255
0.004900267 0.0028291703 0.03239555 0.38964978 0.67489326 0.62665147 43 84 144 255
-3.6213543E-15 0.0056583406 0.03239555 0.38964978 0.67489326 0.62665147 43 84 144 255
-0 -2.8199662E-19 0.038489483 0.38964978 0.67489326 0.62665147 43 84 144 255
-0.004900267 -0.0028291703 0.03239555 0.494564 0.85661006 -0.1470569 43 84 144 255
-1.5801444E-14 -0.0070729265 0.024155553 0.494564 0.85661006 -0.1470569 43 84 144 255
-0.006125334 -0.0035364626 0.024155553 0.494564 0.85661006 -0.1470569 43 84 144 255
-1.2646689E-14 -0.0056583406 0.03239555 0.494564 0.85661006 -0.1470569 43 84 144 255
-1.2646689E-14 -0.0056583406 0.03239555 -0.494564 -0.85661006 0.1470569 43 84 144 255
-0.004900267 -0.0028291703 0.03239555 -0.494564 -0.85661006 0.1470569 43 84 144 255
-1.5801444E-14 -0.0070729265 0.024155553 -0.494564 -0.85661006 0.1470569 43 84 144 255
-0.006125334 -0.0035364626 0.024155553 -0.494564 -0.85661006 0.1470569 43 84 144 255
-0.004900267 0.0028291703 0.03239555 0.77929956 -0 -0.6266515 43 84 144 255
-0 -2.8199662E-19 0.038489483 0.77929956 -0 -0.6266515 43 84 144 255
-0.004900267 -0.0028291703 0.03239555 0.77929956 -0 -0.6266515 43 84 144 255
-0.004900267 -0.0028291703 0.03239555 -0.77929956 -0 0.6266515 43 84 144 255
-0 -2.8199662E-19 0.038489483 -0.77929956 -0 0.6266515 43 84 144 255
-0.004900267 0.0028291703 0.03239555 -0.77929956 -0 0.6266515 43 84 144 255
0.004900267 0.0028291703 0.03239555 -0.494564 -0.85661006 -0.1470569 43 84 144 255
-4.3894683E-15 0.0070729265 0.024155553 -0.494564 -0.85661006 -0.1470569 43 84 144 255
0.006125334 0.0035364626 0.024155553 -0.494564 -0.85661006 -0.1470569 43 84 144 255
-3.6213543E-15 0.0056583406 0.03239555 -0.494564 -0.85661006 -0.1470569 43 84 144 255
-3.6213543E-15 0.0056583406 0.03239555 0.494564 0.85661006 0.1470569 43 84 144 255
0.004900267 0.0028291703 0.03239555 0.494564 0.85661006 0.1470569 43 84 144 255
-4.3894683E-15 0.0070729265 0.024155553 0.494564 0.85661006 0.1470569 43 84 144 255
0.006125334 0.0035364626 0.024155553 0.494564 0.85661006 0.1470569 43 84 144 255
-0 -2.8199662E-19 0.038489483 0.38964978 -0.67489326 -0.62665147 43 84 144 255
-0.004900267 0.0028291703 0.03239555 0.38964978 -0.67489326 -0.62665147 43 84 144 255
-3.6213543E-15 0.0056583406 0.03239555 0.38964978 -0.67489326 -0.62665147 43 84 144 255
-3.6213543E-15 0.0056583406 0.03239555 -0.38964978 0.67489326 0.62665147 43 84 144 255
-0.004900267 0.0028291703 0.03239555 -0.38964978 0.67489326 0.62665147 43 84 144 255
-0 -2.8199662E-19 0.038489483 -0.38964978 0.67489326 0.62665147 43 84 144 255
-0.006125334 0.0035364626 0.024155553 0.989128 5.468804E-18 -0.1470569 43 84 144 255
-0.004900267 -0.0028291703 0.03239555 0.989128 5.468804E-18 -0.1470569 43 84 144 255
-0.006125334 -0.0035364626 0.024155553 0.989128 5.468804E-18 -0.1470569 43 84 144 255
-0.004900267 0.0028291703 0.03239555 0.989128 5.468804E-18 -0.1470569 43 84 144 255
-0.004900267 0.0028291703 0.03239555 -0.989128 -5.468804E-18 0.1470569 43 84 144 255
-0.006125334 0.0035364626 0.024155553 -0.989128 -5.468804E-18 0.1470569 43 84 144 255
-0.004900267 -0.0028291703 0.03239555 -0.989128 -5.468804E-18 0.1470569 43 84 144 255
-0.006125334 -0.0035364626 0.024155553 -0.989128 -5.468804E-18 0.1470569 43 84 144 255
-3.6213543E-15 0.0056583406 0.03239555 0.494564 -0.85661006 -0.1470569 43 84 144 255
-0.006125334 0.0035364626 0.024155553 0.494564 -0.85661006 -0.1470569 43 84 144 255
-4.3894683E-15 0.0070729265 0.024155553 0.494564 -0.85661006 -0.1470569 43 84 144 255
-0.004900267 0.0028291703 0.03239555 0.494564 -0.85661006 -0.1470569 43 84 144 255
-0.004900267 0.0028291703 0.03239555 -0.494564 0.85661006 0.1470569 43 84 144 255
-3.6213543E-15 0.0056583406 0.03239555 -0.494564 0.85661006 0.1470569 43 84 144 255
-0.006125334 0.0035364626 0.024155553 -0.494564 0.85661006 0.1470569 43 84 144 255
-4.3894683E-15 0.0070729265 0.024155553 -0.494564 0.85661006 0.1470569 43 84 144 255
-0.00839087 -0.00484447 -0.034306087 0.4029089 0.6978589 0.5921633 153 135 90 255
1.755442E-15 -0.008235596 -0.036018837 0.4029089 0.6978589 0.5921633 153 135 90 255
-0.007132237 -0.004117799 -0.036018837 0.4029089 0.6978589 0.5921633 153 135 90 255
-2.4674705E-19 -0.00968894 -0.034306087 0.4029089 0.6978589 0.5921633 153 135 90 255
-0.007132237 -0.004117799 -0.036018837 0.80581796 -0 0.59216344 153 135 90 255
-0.00839087 0.00484447 -0.034306087 0.80581796 -0 0.59216344 153 135 90 255
-0.00839087 -0.00484447 -0.034306087 0.80581796 -0 0.59216344 153 135 90 255
-0.007132237 0.004117799 -0.036018837 0.80581796 -0 0.59216344 153 135 90 255
-0.00839087 -0.00484447 0.004094352 0.49999994 0.86602545 1.2573642E-13 153 135 90 255
-2.4674705E-19 -0.00968894 -0.034306087 0.49999994 0.86602545 1.2573642E-13 153 135 90 255
-0.00839087 -0.00484447 -0.034306087 0.49999994 0.86602545 1.2573642E-13 153 135 90 255
-1.9312817E-14 -0.00968894 0.004094352 0.49999994 0.86602545 1.2573642E-13 153 135 90 255
-2.4674705E-19 -0.00968894 -0.034306087 -0.4029089 0.6978589 0.5921633 153 135 90 255
0.007132237 -0.004117799 -0.036018837 -0.4029089 0.6978589 0.5921633 153 135 90 255
1.755442E-15 -0.008235596 -0.036018837 -0.4029089 0.6978589 0.5921633 153 135 90 255
0.00839087 -0.00484447 -0.034306087 -0.4029089 0.6978589 0.5921633 153 135 90 255
-0.00839087 -0.00484447 -0.036942072 0.295731 0.5122212 -0.8063328 153 135 90 255
1.755442E-15 -0.008235596 -0.036018837 0.295731 0.5122212 -0.8063328 153 135 90 255
1.755442E-15 -0.00968894 -0.036942072 0.295731 0.5122212 -0.8063328 153 135 90 255
-0.007132237 -0.004117799 -0.036018837 0.295731 0.5122212 -0.8063328 153 135 90 255
-0.00839087 -0.00484447 -0.036942072 0.591462 -0 -0.8063328 153 135 90 255
-0.007132237 0.004117799 -0.036018837 0.591462 -0 -0.8063328 153 135 90 255
-0.007132237 -0.004117799 -0.036018837 0.591462 -0 -0.8063328 153 135 90 255
-0.00839087 0.00484447 -0.036942072 0.591462 -0 -0.8063328 153 135 90 255
1.7556642E-14 0.00968894 -0.034306087 0.4029089 -0.6978589 0.5921633 153 135 90 255
-0.007132237 0.004117799 -0.036018837 0.4029089 -0.6978589 0.5921633 153 135 90 255
1.7556642E-14 0.008235596 -0.036018837 0.4029089 -0.6978589 0.5921633 153 135 90 255
-0.00839087 0.00484447 -0.034306087 0.4029089 -0.6978589 0.5921633 153 135 90 255
-0.00839087 0.00484447 -0.034306087 1 -0 -0 153 135 90 255
-0.00839087 -0.00484447 0.004094352 1 -0 -0 153 135 90 255
-0.00839087 -0.00484447 -0.034306087 1 -0 -0 153 135 90 255
-0.00839087 0.00484447 0.004094352 1 -0 -0 153 135 90 255
-0.006125334 -0.0035364626 0.01584222 0.4909541 0.8503575 -0.1893575 153 135 90 255
-1.9312817E-14 -0.00968894 0.004094352 0.4909541 0.8503575 -0.1893575 153 135 90 255
-0.00839087 -0.00484447 0.004094352 0.4909541 0.8503575 -0.1893575 153 135 90 255
-1.4923611E-14 -0.0070729265 0.01584222 0.4909541 0.8503575 -0.1893575 153 135 90 255
-1.9312817E-14 -0.00968894 0.004094352 -0.49999994 0.86602545 -1.2572591E-13 153 135 90 255
0.00839087 -0.00484447 -0.034306087 -0.49999994 0.86602545 -1.2572591E-13 153 135 90 255
-2.4674705E-19 -0.00968894 -0.034306087 -0.49999994 0.86602545 -1.2572591E-13 153 135 90 255
0.00839087 -0.00484447 0.004094352 -0.49999994 0.86602545 -1.2572591E-13 153 135 90 255
0.00839087 0.00484447 -0.034306087 -0.80581796 -0 0.59216344 153 135 90 255
0.007132237 -0.004117799 -0.036018837 -0.80581796 -0 0.59216344 153 135 90 255
0.00839087 -0.00484447 -0.034306087 -0.80581796 -0 0.59216344 153 135 90 255
0.007132237 0.004117799 -0.036018837 -0.80581796 -0 0.59216344 153 135 90 255
1.755442E-15 -0.00968894 -0.036942072 -0.295731 0.5122212 -0.8063328 153 135 90 255
0.007132237 -0.004117799 -0.036018837 -0.295731 0.5122212 -0.8063328 153 135 90 255
0.00839087 -0.00484447 -0.036942072 -0.295731 0.5122212 -0.8063328 153 135 90 255
1.755442E-15 -0.008235596 -0.036018837 -0.295731 0.5122212 -0.8063328 153 135 90 255
-0.00839087 -0.00484447 -0.036942072 0.49999994 0.86602545 -2.838524E-13 153 135 90 255
-2.4674705E-19 -0.00968894 -0.038489483 0.49999994 0.86602545 -2.838524E-13 153 135 90 255
-0.00839087 -0.00484447 -0.038489483 0.49999994 0.86602545 -2.838524E-13 153 135 90 255
1.755442E-15 -0.00968894 -0.036942072 0.49999994 0.86602545 -2.838524E-13 153 135 90 255
-0.00839087 0.00484447 -0.038489483 1 -0 -0 153 135 90 255
-0.00839087 -0.00484447 -0.036942072 1 -0 -0 153 135 90 255
-0.00839087 -0.00484447 -0.038489483 1 -0 -0 153 135 90 255
-0.00839087 0.00484447 -0.036942072 1 -0 -0 153 135 90 255
1.7556642E-14 0.008235596 -0.036018837 0.295731 -0.5122212 -0.8063328 153 135 90 255
-0.00839087 0.00484447 -0.036942072 0.295731 -0.5122212 -0.8063328 153 135 90 255
1.9312324E-14 0.00968894 -0.036942072 0.295731 -0.5122212 -0.8063328 153 135 90 255
-0.007132237 0.004117799 -0.036018837 0.295731 -0.5122212 -0.8063328 153 135 90 255
0.00839087 0.00484447 -0.034306087 -0.4029089 -0.6978589 0.5921633 153 135 90 255
1.7556642E-14 0.008235596 -0.036018837 -0.4029089 -0.6978589 0.5921633 153 135 90 255
0.007132237 0.004117799 -0.036018837 -0.4029089 -0.6978589 0.5921633 153 135 90 255
1.7556642E-14 0.00968894 -0.034306087 -0.4029089 -0.6978589 0.5921633 153 135 90 255
-8.780907E-16 0.00968894 0.004094352 0.49999994 -0.86602545 1.2002591E-13 153 135 90 255
-0.00839087 0.00484447 -0.034306087 0.49999994 -0.86602545 1.2002591E-13 153 135 90 255
1.7556642E-14 0.00968894 -0.034306087 0.49999994 -0.86602545 1.2002591E-13 153 135 90 255
-0.00839087 0.00484447 0.004094352 0.49999994 -0.86602545 1.2002591E-13 153 135 90 255
-0.00839087 0.00484447 0.004094352 0.9819082 1.243487E-17 -0.1893576 153 135 90 255
-0.006125334 -0.0035364626 0.01584222 0.9819082 1.243487E-17 -0.1893576 153 135 90 255
-0.00839087 -0.00484447 0.004094352 0.9819082 1.243487E-17 -0.1893576 153 135 90 255
-0.006125334 0.0035364626 0.01584222 0.9819082 1.243487E-17 -0.1893576 153 135 90 255
-0.006125334 -0.0035364626 0.024155553 0.50000006 0.86602545 2.6331044E-14 153 135 90 255
-1.4923611E-14 -0.0070729265 0.01584222 0.50000006 0.86602545 2.6331044E-14 153 135 90 255
-0.006125334 -0.0035364626 0.01584222 0.50000006 0.86602545 2.6331044E-14 153 135 90 255
-1.5801444E-14 -0.0070729265 0.024155553 0.50000006 0.86602545 2.6331044E-14 153 135 90 255
-1.4923611E-14 -0.0070729265 0.01584222 -0.4909541 0.8503575 -0.1893575 153 135 90 255
0.00839087 -0.00484447 0.004094352 -0.4909541 0.8503575 -0.1893575 153 135 90 255
-1.9312817E-14 -0.00968894 0.004094352 -0.4909541 0.8503575 -0.1893575 153 135 90 255
0.006125334 -0.0035364626 0.01584222 -0.4909541 0.8503575 -0.1893575 153 135 90 255
0.00839087 0.00484447 0.004094352 -1 -0 -0 153 135 90 255
0.00839087 -0.00484447 -0.034306087 -1 -0 -0 153 135 90 255
0.00839087 -0.00484447 0.004094352 -1 -0 -0 153 135 90 255
0.00839087 0.00484447 -0.034306087 -1 -0 -0 153 135 90 255
0.007132237 -0.004117799 -0.036018837 -0.591462 -0 -0.8063328 153 135 90 255
0.00839087 0.00484447 -0.036942072 -0.591462 -0 -0.8063328 153 135 90 255
0.00839087 -0.00484447 -0.036942072 -0.591462 -0 -0.8063328 153 135 90 255
0.007132237 0.004117799 -0.036018837 -0.591462 -0 -0.8063328 153 135 90 255
1.755442E-15 -0.00968894 -0.036942072 -0.49999994 0.86602545 2.8376604E-13 153 135 90 255
0.00839087 -0.00484447 -0.038489483 -0.49999994 0.86602545 2.8376604E-13 153 135 90 255
-2.4674705E-19 -0.00968894 -0.038489483 -0.49999994 0.86602545 2.8376604E-13 153 135 90 255
0.00839087 -0.00484447 -0.036942072 -0.49999994 0.86602545 2.8376604E-13 153 135 90 255
1.8434486E-14 0.00968894 -0.038489483 0 -0 1 153 135 90 255
0.00839087 -0.00484447 -0.038489483 0 -0 1 153 135 90 255
0.00839087 0.00484447 -0.038489483 0 -0 1 153 135 90 255
-2.4674705E-19 -0.00968894 -0.038489483 0 -0 1 153 135 90 255
-0.00839087 0.00484447 -0.038489483 0 -0 1 153 135 90 255
-0.00839087 -0.00484447 -0.038489483 0 -0 1 153 135 90 255
1.9312324E-14 0.00968894 -0.036942072 0.49999994 -0.86602545 -1.4170181E-13 153 135 90 255
-0.00839087 0.00484447 -0.038489483 0.49999994 -0.86602545 -1.4170181E-13 153 135 90 255
1.8434486E-14 0.00968894 -0.038489483 0.49999994 -0.86602545 -1.4170181E-13 153 135 90 255
-0.00839087 0.00484447 -0.036942072 0.49999994 -0.86602545 -1.4170181E-13 153 135 90 255
0.007132237 0.004117799 -0.036018837 -0.295731 -0.5122212 -0.8063328 153 135 90 255
1.9312324E-14 0.00968894 -0.036942072 -0.295731 -0.5122212 -0.8063328 153 135 90 255
0.00839087 0.00484447 -0.036942072 -0.295731 -0.5122212 -0.8063328 153 135 90 255
1.7556642E-14 0.008235596 -0.036018837 -0.295731 -0.5122212 -0.8063328 153 135 90 255
0.00839087 0.00484447 0.004094352 -0.49999994 -0.86602545 -1.2000931E-13 153 135 90 255
1.7556642E-14 0.00968894 -0.034306087 -0.49999994 -0.86602545 -1.2000931E-13 153 135 90 255
0.00839087 0.00484447 -0.034306087 -0.49999994 -0.86602545 -1.2000931E-13 153 135 90 255
-8.780907E-16 0.00968894 0.004094352 -0.49999994 -0.86602545 -1.2000931E-13 153 135 90 255
-1.7557819E-15 0.0070729265 0.01584222 0.4909541 -0.8503575 -0.1893575 153 135 90 255
-0.00839087 0.00484447 0.004094352 0.4909541 -0.8503575 -0.1893575 153 135 90 255
-8.780907E-16 0.00968894 0.004094352 0.4909541 -0.8503575 -0.1893575 153 135 90 255
-0.006125334 0.0035364626 0.01584222 0.4909541 -0.8503575 -0.1893575 153 135 90 255
-0.006125334 0.0035364626 0.01584222 1 -0 -2.544076E-16 153 135 90 255
-0.006125334 -0.0035364626 0.024155553 1 -0 -2.544076E-16 153 135 90 255
-0.006125334 -0.0035364626 0.01584222 1 -0 -2.544076E-16 153 135 90 255
-0.006125334 0.0035364626 0.024155553 1 -0 -2.544076E-16 153 135 90 255
-1.5801444E-14 -0.0070729265 0.024155553 -0.50000006 0.86602545 -2.6331044E-14 153 135 90 255
0.006125334 -0.0035364626 0.01584222 -0.50000006 0.86602545 -2.6331044E-14 153 135 90 255
-1.4923611E-14 -0.0070729265 0.01584222 -0.50000006 0.86602545 -2.6331044E-14 153 135 90 255
0.006125334 -0.0035364626 0.024155553 -0.50000006 0.86602545 -2.6331044E-14 153 135 90 255
0.006125334 -0.0035364626 0.01584222 -0.9819082 4.7982324E-18 -0.1893576 153 135 90 255
0.00839087 0.00484447 0.004094352 -0.9819082 4.7982324E-18 -0.1893576 153 135 90 255
0.00839087 -0.00484447 0.004094352 -0.9819082 4.7982324E-18 -0.1893576 153 135 90 255
0.006125334 0.0035364626 0.01584222 -0.9819082 4.7982324E-18 -0.1893576 153 135 90 255
0.00839087 0.00484447 -0.036942072 -1 -0 -0 153 135 90 255
0.00839087 -0.00484447 -0.038489483 -1 -0 -0 153 135 90 255
0.00839087 -0.00484447 -0.036942072 -1 -0 -0 153 135 90 255
0.00839087 0.00484447 -0.038489483 -1 -0 -0 153 135 90 255
0.00839087 0.00484447 -0.036942072 -0.49999994 -0.86602545 1.4161541E-13 153 135 90 255
1.8434486E-14 0.00968894 -0.038489483 -0.49999994 -0.86602545 1.4161541E-13 153 135 90 255
0.00839087 0.00484447 -0.038489483 -0.49999994 -0.86602545 1.4161541E-13 153 135 90 255
1.9312324E-14 0.00968894 -0.036942072 -0.49999994 -0.86602545 1.4161541E-13 153 135 90 255
0.006125334 0.0035364626 0.01584222 -0.4909541 -0.8503575 -0.1893575 153 135 90 255
-8.780907E-16 0.00968894 0.004094352 -0.4909541 -0.8503575 -0.1893575 153 135 90 255
0.00839087 0.00484447 0.004094352 -0.4909541 -0.8503575 -0.1893575 153 135 90 255
-1.7557819E-15 0.0070729265 0.01584222 -0.4909541 -0.8503575 -0.1893575 153 135 90 255
-4.3894683E-15 0.0070729265 0.024155553 0.50000006 -0.86602545 7.9138864E-14 153 135 90 255
-0.006125334 0.0035364626 0.01584222 0.50000006 -0.86602545 7.9138864E-14 153 135 90 255
-1.7557819E-15 0.0070729265 0.01584222 0.50000006 -0.86602545 7.9138864E-14 153 135 90 255
-0.006125334 0.0035364626 0.024155553 0.50000006 -0.86602545 7.9138864E-14 153 135 90 255
0.006125334 0.0035364626 0.024155553 -1 -0 2.544076E-16 153 135 90 255
0.006125334 -0.0035364626 0.01584222 -1 -0 2.544076E-16 153 135 90 255
0.006125334 -0.0035364626 0.024155553 -1 -0 2.544076E-16 153 135 90 255
0.006125334 0.0035364626 0.01584222 -1 -0 2.544076E-16 153 135 90 255
0.006125334 0.0035364626 0.024155553 -0.50000006 -0.86602545 -7.9138864E-14 153 135 90 255
-1.7557819E-15 0.0070729265 0.01584222 -0.50000006 -0.86602545 -7.9138864E-14 153 135 90 255
0.006125334 0.0035364626 0.01584222 -0.50000006 -0.86602545 -7.9138864E-14 153 135 90 255
-4.3894683E-15 0.0070729265 0.024155553 -0.50000006 -0.86602545 -7.9138864E-14 153 135 90 255
-2.4674705E-19 -0.00968894 -0.034306087 -0.4029089 -0.6978589 -0.5921633 43 84 144 255
-0.00839087 -0.00484447 -0.034306087 -0.4029089 -0.6978589 -0.5921633 43 84 144 255
1.755442E-15 -0.008235596 -0.036018837 -0.4029089 -0.6978589 -0.5921633 43 84 144 255
-0.007132237 -0.004117799 -0.036018837 -0.4029089 -0.6978589 -0.5921633 43 84 144 255
-0.007132237 0.004117799 -0.036018837 -0.80581796 -0 -0.59216344 43 84 144 255
-0.007132237 -0.004117799 -0.036018837 -0.80581796 -0 -0.59216344 43 84 144 255
-0.00839087 0.00484447 -0.034306087 -0.80581796 -0 -0.59216344 43 84 144 255
-0.00839087 -0.00484447 -0.034306087 -0.80581796 -0 -0.59216344 43 84 144 255
-1.9312817E-14 -0.00968894 0.004094352 -0.49999994 -0.86602545 -1.2573642E-13 43 84 144 255
-0.00839087 -0.00484447 0.004094352 -0.49999994 -0.86602545 -1.2573642E-13 43 84 144 255
-2.4674705E-19 -0.00968894 -0.034306087 -0.49999994 -0.86602545 -1.2573642E-13 43 84 144 255
-0.00839087 -0.00484447 -0.034306087 -0.49999994 -0.86602545 -1.2573642E-13 43 84 144 255
0.00839087 -0.00484447 -0.034306087 0.4029089 -0.6978589 -0.5921633 43 84 144 255
-2.4674705E-19 -0.00968894 -0.034306087 0.4029089 -0.6978589 -0.5921633 43 84 144 255
0.007132237 -0.004117799 -0.036018837 0.4029089 -0.6978589 -0.5921633 43 84 144 255
1.755442E-15 -0.008235596 -0.036018837 0.4029089 -0.6978589 -0.5921633 43 84 144 255
-0.007132237 -0.004117799 -0.036018837 -0.295731 -0.5122212 0.8063328 43 84 144 255
-0.00839087 -0.00484447 -0.036942072 -0.295731 -0.5122212 0.8063328 43 84 144 255
1.755442E-15 -0.008235596 -0.036018837 -0.295731 -0.5122212 0.8063328 43 84 144 255
1.755442E-15 -0.00968894 -0.036942072 -0.295731 -0.5122212 0.8063328 43 84 144 255
-0.00839087 0.00484447 -0.036942072 -0.591462 -0 0.8063328 43 84 144 255
-0.00839087 -0.00484447 -0.036942072 -0.591462 -0 0.8063328 43 84 144 255
-0.007132237 0.004117799 -0.036018837 -0.591462 -0 0.8063328 43 84 144 255
-0.007132237 -0.004117799 -0.036018837 -0.591462 -0 0.8063328 43 84 144 255
-0.00839087 0.00484447 -0.034306087 -0.4029089 0.6978589 -0.5921633 43 84 144 255
1.7556642E-14 0.00968894 -0.034306087 -0.4029089 0.6978589 -0.5921633 43 84 144 255
-0.007132237 0.004117799 -0.036018837 -0.4029089 0.6978589 -0.5921633 43 84 144 255
1.7556642E-14 0.008235596 -0.036018837 -0.4029089 0.6978589 -0.5921633 43 84 144 255
-0.00839087 0.00484447 0.004094352 -1 -0 -0 43 84 144 255
-0.00839087 0.00484447 -0.034306087 -1 -0 -0 43 84 144 255
-0.00839087 -0.00484447 0.004094352 -1 -0 -0 43 84 144 255
-0.00839087 -0.00484447 -0.034306087 -1 -0 -0 43 84 144 255
-1.4923611E-14 -0.0070729265 0.01584222 -0.4909541 -0.8503575 0.1893575 43 84 144 255
-0.006125334 -0.0035364626 0.01584222 -0.4909541 -0.8503575 0.1893575 43 84 144 255
-1.9312817E-14 -0.00968894 0.004094352 -0.4909541 -0.8503575 0.1893575 43 84 144 255
-0.00839087 -0.00484447 0.004094352 -0.4909541 -0.8503575 0.1893575 43 84 144 255
0.00839087 -0.00484447 0.004094352 0.49999994 -0.86602545 1.2572591E-13 43 84 144 255
-1.9312817E-14 -0.00968894 0.004094352 0.49999994 -0.86602545 1.2572591E-13 43 84 144 255
0.00839087 -0.00484447 -0.034306087 0.49999994 -0.86602545 1.2572591E-13 43 84 144 255
-2.4674705E-19 -0.00968894 -0.034306087 0.49999994 -0.86602545 1.2572591E-13 43 84 144 255
0.007132237 0.004117799 -0.036018837 0.80581796 -0 -0.59216344 43 84 144 255
0.00839087 0.00484447 -0.034306087 0.80581796 -0 -0.59216344 43 84 144 255
0.007132237 -0.004117799 -0.036018837 0.80581796 -0 -0.59216344 43 84 144 255
0.00839087 -0.00484447 -0.034306087 0.80581796 -0 -0.59216344 43 84 144 255
1.755442E-15 -0.008235596 -0.036018837 0.295731 -0.5122212 0.8063328 43 84 144 255
1.755442E-15 -0.00968894 -0.036942072 0.295731 -0.5122212 0.8063328 43 84 144 255
0.007132237 -0.004117799 -0.036018837 0.295731 -0.5122212 0.8063328 43 84 144 255
0.00839087 -0.00484447 -0.036942072 0.295731 -0.5122212 0.8063328 43 84 144 255
1.755442E-15 -0.00968894 -0.036942072 -0.49999994 -0.86602545 2.838524E-13 43 84 144 255
-0.00839087 -0.00484447 -0.036942072 -0.49999994 -0.86602545 2.838524E-13 43 84 144 255
-2.4674705E-19 -0.00968894 -0.038489483 -0.49999994 -0.86602545 2.838524E-13 43 84 144 255
-0.00839087 -0.00484447 -0.038489483 -0.49999994 -0.86602545 2.838524E-13 43 84 144 255
-0.00839087 0.00484447 -0.036942072 -1 -0 -0 43 84 144 255
-0.00839087 0.00484447 -0.038489483 -1 -0 -0 43 84 144 255
-0.00839087 -0.00484447 -0.036942072 -1 -0 -0 43 84 144 255
-0.00839087 -0.00484447 -0.038489483 -1 -0 -0 43 84 144 255
-0.007132237 0.004117799 -0.036018837 -0.295731 0.5122212 0.8063328 43 84 144 255
1.7556642E-14 0.008235596 -0.036018837 -0.295731 0.5122212 0.8063328 43 84 144 255
-0.00839087 0.00484447 -0.036942072 -0.295731 0.5122212 0.8063328 43 84 144 255
1.9312324E-14 0.00968894 -0.036942072 -0.295731 0.5122212 0.8063328 43 84 144 255
1.7556642E-14 0.00968894 -0.034306087 0.4029089 0.6978589 -0.5921633 43 84 144 255
0.00839087 0.00484447 -0.034306087 0.4029089 0.6978589 -0.5921633 43 84 144 255
1.7556642E-14 0.008235596 -0.036018837 0.4029089 0.6978589 -0.5921633 43 84 144 255
0.007132237 0.004117799 -0.036018837 0.4029089 0.6978589 -0.5921633 43 84 144 255
-0.00839087 0.00484447 0.004094352 -0.49999994 0.86602545 -1.2002591E-13 43 84 144 255
-8.780907E-16 0.00968894 0.004094352 -0.49999994 0.86602545 -1.2002591E-13 43 84 144 255
-0.00839087 0.00484447 -0.034306087 -0.49999994 0.86602545 -1.2002591E-13 43 84 144 255
1.7556642E-14 0.00968894 -0.034306087 -0.49999994 0.86602545 -1.2002591E-13 43 84 144 255
-0.006125334 0.0035364626 0.01584222 -0.9819082 -1.243487E-17 0.1893576 43 84 144 255
-0.00839087 0.00484447 0.004094352 -0.9819082 -1.243487E-17 0.1893576 43 84 144 255
-0.006125334 -0.0035364626 0.01584222 -0.9819082 -1.243487E-17 0.1893576 43 84 144 255
-0.00839087 -0.00484447 0.004094352 -0.9819082 -1.243487E-17 0.1893576 43 84 144 255
-1.5801444E-14 -0.0070729265 0.024155553 -0.50000006 -0.86602545 -2.6331044E-14 43 84 144 255
-0.006125334 -0.0035364626 0.024155553 -0.50000006 -0.86602545 -2.6331044E-14 43 84 144 255
-1.4923611E-14 -0.0070729265 0.01584222 -0.50000006 -0.86602545 -2.6331044E-14 43 84 144 255
-0.006125334 -0.0035364626 0.01584222 -0.50000006 -0.86602545 -2.6331044E-14 43 84 144 255
0.006125334 -0.0035364626 0.01584222 0.4909541 -0.8503575 0.1893575 43 84 144 255
-1.4923611E-14 -0.0070729265 0.01584222 0.4909541 -0.8503575 0.1893575 43 84 144 255
0.00839087 -0.00484447 0.004094352 0.4909541 -0.8503575 0.1893575 43 84 144 255
-1.9312817E-14 -0.00968894 0.004094352 0.4909541 -0.8503575 0.1893575 43 84 144 255
0.00839087 0.00484447 -0.034306087 1 -0 -0 43 84 144 255
0.00839087 0.00484447 0.004094352 1 -0 -0 43 84 144 255
0.00839087 -0.00484447 -0.034306087 1 -0 -0 43 84 144 255
0.00839087 -0.00484447 0.004094352 1 -0 -0 43 84 144 255
0.007132237 0.004117799 -0.036018837 0.591462 -0 0.8063328 43 84 144 255
0.007132237 -0.004117799 -0.036018837 0.591462 -0 0.8063328 43 84 144 255
0.00839087 0.00484447 -0.036942072 0.591462 -0 0.8063328 43 84 144 255
0.00839087 -0.00484447 -0.036942072 0.591462 -0 0.8063328 43 84 144 255
0.00839087 -0.00484447 -0.036942072 0.49999994 -0.86602545 -2.8376604E-13 43 84 144 255
1.755442E-15 -0.00968894 -0.036942072 0.49999994 -0.86602545 -2.8376604E-13 43 84 144 255
0.00839087 -0.00484447 -0.038489483 0.49999994 -0.86602545 -2.8376604E-13 43 84 144 255
-2.4674705E-19 -0.00968894 -0.038489483 0.49999994 -0.86602545 -2.8376604E-13 43 84 144 255
-0.00839087 -0.00484447 -0.038489483 0 -0 -1 43 84 144 255
-0.00839087 0.00484447 -0.038489483 0 -0 -1 43 84 144 255
-2.4674705E-19 -0.00968894 -0.038489483 0 -0 -1 43 84 144 255
1.8434486E-14 0.00968894 -0.038489483 0 -0 -1 43 84 144 255
0.00839087 -0.00484447 -0.038489483 0 -0 -1 43 84 144 255
0.00839087 0.00484447 -0.038489483 0 -0 -1 43 84 144 255
-0.00839087 0.00484447 -0.036942072 -0.49999994 0.86602545 1.4170181E-13 43 84 144 255
1.9312324E-14 0.00968894 -0.036942072 -0.49999994 0.86602545 1.4170181E-13 43 84 144 255
-0.00839087 0.00484447 -0.038489483 -0.49999994 0.86602545 1.4170181E-13 43 84 144 255
1.8434486E-14 0.00968894 -0.038489483 -0.49999994 0.86602545 1.4170181E-13 43 84 144 255
1.7556642E-14 0.008235596 -0.036018837 0.295731 0.5122212 0.8063328 43 84 144 255
0.007132237 0.004117799 -0.036018837 0.295731 0.5122212 0.8063328 43 84 144 255
1.9312324E-14 0.00968894 -0.036942072 0.295731 0.5122212 0.8063328 43 84 144 255
0.00839087 0.00484447 -0.036942072 0.295731 0.5122212 0.8063328 43 84 144 255
-8.780907E-16 0.00968894 0.004094352 0.49999994 0.86602545 1.2000931E-13 43 84 144 255
0.00839087 0.00484447 0.004094352 0.49999994 0.86602545 1.2000931E-13 43 84 144 255
1.7556642E-14 0.00968894 -0.034306087 0.49999994 0.86602545 1.2000931E-13 43 84 144 255
0.00839087 0.00484447 -0.034306087 0.49999994 0.86602545 1.2000931E-13 43 84 144 255
-0.006125334 0.0035364626 0.01584222 -0.4909541 0.8503575 0.1893575 43 84 144 255
-1.7557819E-15 0.0070729265 0.01584222 -0.4909541 0.8503575 0.1893575 43 84 144 255
-0.00839087 0.00484447 0.004094352 -0.4909541 0.8503575 0.1893575 43 84 144 255
-8.780907E-16 0.00968894 0.004094352 -0.4909541 0.8503575 0.1893575 43 84 144 255
-0.006125334 0.0035364626 0.024155553 -1 -0 2.544076E-16 43 84 144 255
-0.006125334 0.0035364626 0.01584222 -1 -0 2.544076E-16 43 84 144 255
-0.006125334 -0.0035364626 0.024155553 -1 -0 2.544076E-16 43 84 144 255
-0.006125334 -0.0035364626 0.01584222 -1 -0 2.544076E-16 43 84 144 255
0.006125334 -0.0035364626 0.024155553 0.50000006 -0.86602545 2.6331044E-14 43 84 144 255
-1.5801444E-14 -0.0070729265 0.024155553 0.50000006 -0.86602545 2.6331044E-14 43 84 144 255
0.006125334 -0.0035364626 0.01584222 0.50000006 -0.86602545 2.6331044E-14 43 84 144 255
-1.4923611E-14 -0.0070729265 0.01584222 0.50000006 -0.86602545 2.6331044E-14 43 84 144 255
0.006125334 0.0035364626 0.01584222 0.9819082 -4.7982324E-18 0.1893576 43 84 144 255
0.006125334 -0.0035364626 0.01584222 0.9819082 -4.7982324E-18 0.1893576 43 84 144 255
0.00839087 0.00484447 0.004094352 0.9819082 -4.7982324E-18 0.1893576 43 84 144 255
0.00839087 -0.00484447 0.004094352 0.9819082 -4.7982324E-18 0.1893576 43 84 144 255
0.00839087 0.00484447 -0.038489483 1 -0 -0 43 84 144 255
0.00839087 0.00484447 -0.036942072 1 -0 -0 43 84 144 255
0.00839087 -0.00484447 -0.038489483 1 -0 -0 43 84 144 255
0.00839087 -0.00484447 -0.036942072 1 -0 -0 43 84 144 255
1.9312324E-14 0.00968894 -0.036942072 0.49999994 0.86602545 -1.4161541E-13 43 84 144 255
0.00839087 0.00484447 -0.036942072 0.49999994 0.86602545 -1.4161541E-13 43 84 144 255
1.8434486E-14 0.00968894 -0.038489483 0.49999994 0.86602545 -1.4161541E-13 43 84 144 255
0.00839087 0.00484447 -0.038489483 0.49999994 0.86602545 -1.4161541E-13 43 84 144 255
-1.7557819E-15 0.0070729265 0.01584222 0.4909541 0.8503575 0.1893575 43 84 144 255
0.006125334 0.0035364626 0.01584222 0.4909541 0.8503575 0.1893575 43 84 144 255
-8.780907E-16 0.00968894 0.004094352 0.4909541 0.8503575 0.1893575 43 84 144 255
0.00839087 0.00484447 0.004094352 0.4909541 0.8503575 0.1893575 43 84 144 255
-0.006125334 0.0035364626 0.024155553 -0.50000006 0.86602545 -7.9138864E-14 43 84 144 255
-4.3894683E-15 0.0070729265 0.024155553 -0.50000006 0.86602545 -7.9138864E-14 43 84 144 255
-0.006125334 0.0035364626 0.01584222 -0.50000006 0.86602545 -7.9138864E-14 43 84 144 255
-1.7557819E-15 0.0070729265 0.01584222 -0.50000006 0.86602545 -7.9138864E-14 43 84 144 255
0.006125334 0.0035364626 0.01584222 1 -0 -2.544076E-16 43 84 144 255
0.006125334 0.0035364626 0.024155553 1 -0 -2.544076E-16 43 84 144 255
0.006125334 -0.0035364626 0.01584222 1 -0 -2.544076E-16 43 84 144 255
0.006125334 -0.0035364626 0.024155553 1 -0 -2.544076E-16 43 84 144 255
-4.3894683E-15 0.0070729265 0.024155553 0.50000006 0.86602545 7.9138864E-14 43 84 144 255
0.006125334 0.0035364626 0.024155553 0.50000006 0.86602545 7.9138864E-14 43 84 144 255
-1.7557819E-15 0.0070729265 0.01584222 0.50000006 0.86602545 7.9138864E-14 43 84 144 255
0.006125334 0.0035364626 0.01584222 0.50000006 0.86602545 7.9138864E-14 43 84 144 255
3 0 1 2
3 1 0 3
3 3 0 4
3 4 0 5
3 6 7 8
3 8 7 9
3 9 7 10
3 11 10 7
3 12 13 14
3 15 16 17
3 18 19 20
3 21 22 23
3 24 25 26
3 25 24 27
3 28 29 30
3 31 30 29
3 32 33 34
3 35 36 37
3 38 39 40
3 39 38 41
3 42 43 44
3 45 44 43
3 46 47 48
3 49 50 51
3 52 53 54
3 53 52 55
3 56 57 58
3 59 58 57
3 60 61 62
3 63 64 65
3 66 67 68
3 67 66 69
3 70 71 72
3 73 72 71
3 74 75 76
3 77 78 79
3 80 81 82
3 81 80 83
3 84 85 86
3 87 86 85
3 88 89 90
3 89 88 91
3 92 93 94
3 95 94 93
3 96 97 98
3 97 96 99
3 100 101 102
3 101 100 103
3 104 105 106
3 105 104 107
3 108 109 110
3 109 108 111
3 112 113 114
3 113 112 115
3 116 117 118
3 117 116 119
3 120 121 122
3 121 120 123
3 124 125 126
3 125 124 127
3 128 129 130
3 129 128 131
3 132 133 134
3 133 132 135
3 136 137 138
3 137 136 139
3 140 141 142
3 141 140 143
3 144 145 146
3 145 144 147
3 148 149 150
3 149 148 151
3 152 153 154
3 153 152 155
3 156 157 158
3 157 156 159
3 160 161 162
3 161 160 163
3 164 165 166
3 165 164 167
3 168 169 170
3 169 168 171
3 172 173 174
3 173 172 175
3 176 177 178
3 177 176 179
3 180 181 182
3 181 180 183
3 184 185 186
3 185 184 187
3 188 189 190
3 189 188 191
3 191 188 192
3 191 192 193
3 194 195 196
3 195 194 197
3 198 199 200
3 199 198 201
3 202 203 204
3 203 202 205
3 206 207 208
3 207 206 209
3 210 211 212
3 211 210 213
3 214 215 216
3 215 214 217
3 218 219 220
3 219 218 221
3 222 223 224
3 223 222 225
3 226 227 228
3 227 226 229
3 230 231 232
3 231 230 233
3 234 235 236
3 235 234 237
3 238 239 240
3 239 238 241
3 242 243 244
3 243 242 245
3 246 247 248
3 249 248 247
3 250 251 252
3 253 252 251
3 254 255 256
3 257 256 255
3 258 259 260
3 261 260 259
3 262 263 264
3 265 264 263
3 266 267 268
3 269 268 267
3 270 271 272
3 273 272 271
3 274 275 276
3 277 276 275
3 278 279 280
3 281 280 279
3 282 283 284
3 285 284 283
3 286 287 288
3 289 288 287
3 290 291 292
3 293 292 291
3 294 295 296
3 297 296 295
3 298 299 300
3 301 300 299
3 302 303 304
3 305 304 303
3 306 307 308
3 309 308 307
3 310 311 312
3 313 312 311
3 314 315 316
3 317 316 315
3 318 319 320
3 321 320 319
3 322 323 324
3 325 324 323
3 326 327 328
3 329 328 327
3 330 331 332
3 333 332 331
3 334 335 336
3 337 336 335
3 338 339 340
3 339 341 340
3 340 341 342
3 343 342 341
3 344 345 346
3 347 346 345
3 348 349 350
3 351 350 349
3 352 353 354
3 355 354 353
3 356 357 358
3 359 358 357
3 360 361 362
3 363 362 361
3 364 365 366
3 367 366 365
3 368 369 370
3 371 370 369
3 372 373 374
3 375 374 373
3 376 377 378
3 379 378 377
3 380 381 382
3 383 382 381
3 384 385 386
3 387 386 385
3 388 389 390
3 391 390 389
3 392 393 394
3 395 394 393

