ply
format ascii 1.0
commentY29udmVydGVyIGJ5IENvZGVMZW9wYXJk
comment Original mesh name: 'C:\Program Files (x86)\Steam\steamapps\common\Stormworks\rom\meshes\component_door_manual_large_static.mesh'
comment SubMesh index: 0
comment SubMesh name: 'ID2'
comment Shader: Opaque (0)
element vertex 160
property float x
property float y
property float z
property float nx
property float ny
property float nz
property uchar red
property uchar green
property uchar blue
property uchar alpha
element face 112
property list uchar ushort vertex_index
end_header
0.39999992 0 -0.35500005 -1 -0 -0 84 84 84 255
0.39999992 -0.125 -0.6 -1 -0 -0 84 84 84 255
0.39999992 -0.125 -0.35500005 -1 -0 -0 84 84 84 255
0.39999992 0 -0.6 -1 -0 -0 84 84 84 255
-0.39999992 -0.125 -0.35500005 0 -0 -1 84 84 84 255
0.39999992 0 -0.35500005 0 -0 -1 84 84 84 255
0.39999992 -0.125 -0.35500005 0 -0 -1 84 84 84 255
-0.39999992 0 -0.35500005 0 -0 -1 84 84 84 255
-0.75499994 0 -0.35500005 0 1 -0 84 84 84 255
-0.7342893 0 -0.3049999 0 1 -0 84 84 84 255
-0.6 0 -0.35500005 0 1 -0 84 84 84 255
-0.85499996 0 -0.25499997 0 1 -0 84 84 84 255
-0.39999992 0 -0.35500005 0 1 -0 84 84 84 255
0.39999992 0 -0.35500005 0 1 -0 84 84 84 255
0.6 0 -0.35500005 0 1 -0 84 84 84 255
0.75499994 0 -0.35500005 0 1 -0 84 84 84 255
-0.8049998 0 -0.23428935 0 1 -0 84 84 84 255
-0.85499996 0 0.25499997 0 1 -0 84 84 84 255
-0.8049998 0 0.23428935 0 1 -0 84 84 84 255
-0.7342893 0 0.3049999 0 1 -0 84 84 84 255
-0.75499994 0 0.35500005 0 1 -0 84 84 84 255
0.7342893 0 0.3049999 0 1 -0 84 84 84 255
0.7342893 0 -0.3049999 0 1 -0 84 84 84 255
0.85499996 0 -0.25499997 0 1 -0 84 84 84 255
0.8049998 0 -0.23428935 0 1 -0 84 84 84 255
0.85499996 0 0.25499997 0 1 -0 84 84 84 255
0.8049998 0 0.23428935 0 1 -0 84 84 84 255
0.75499994 0 0.35500005 0 1 -0 84 84 84 255
0.6 0 -0.6 0 1 -0 84 84 84 255
0.39999992 0 -0.6 0 1 -0 84 84 84 255
-0.39999992 0 -0.6 0 1 -0 84 84 84 255
-0.6 0 -0.6 0 1 -0 84 84 84 255
0.39999992 -0.125 -0.6 0 -0 -1 84 84 84 255
0.6 0 -0.6 0 -0 -1 84 84 84 255
0.6 -0.125 -0.6 0 -0 -1 84 84 84 255
0.39999992 0 -0.6 0 -0 -1 84 84 84 255
-0.39999992 0 -0.6 1 -0 -0 84 84 84 255
-0.39999992 -0.125 -0.35500005 1 -0 -0 84 84 84 255
-0.39999992 -0.125 -0.6 1 -0 -0 84 84 84 255
-0.39999992 0 -0.35500005 1 -0 -0 84 84 84 255
-0.6 0 -0.35500005 -1 -0 -0 84 84 84 255
-0.6 -0.125 -0.6 -1 -0 -0 84 84 84 255
-0.6 -0.125 -0.35500005 -1 -0 -0 84 84 84 255
-0.6 0 -0.6 -1 -0 -0 84 84 84 255
-0.75499994 -0.125 -0.35500005 0 -0 -1 84 84 84 255
-0.6 0 -0.35500005 0 -0 -1 84 84 84 255
-0.6 -0.125 -0.35500005 0 -0 -1 84 84 84 255
-0.75499994 0 -0.35500005 0 -0 -1 84 84 84 255
-0.85499996 0 -0.25499997 -0.70710677 -0 -0.70710677 84 84 84 255
-0.75499994 -0.125 -0.35500005 -0.70710677 -0 -0.70710677 84 84 84 255
-0.85499996 -0.125 -0.25499997 -0.70710677 -0 -0.70710677 84 84 84 255
-0.75499994 0 -0.35500005 -0.70710677 -0 -0.70710677 84 84 84 255
-0.85499996 0 0.25499997 -1 -0 -0 84 84 84 255
-0.85499996 -0.125 -0.25499997 -1 -0 -0 84 84 84 255
-0.85499996 -0.125 0.25499997 -1 -0 -0 84 84 84 255
-0.85499996 0 -0.25499997 -1 -0 -0 84 84 84 255
-0.75499994 0 0.35500005 -0.70710677 -0 0.70710677 84 84 84 255
-0.85499996 -0.125 0.25499997 -0.70710677 -0 0.70710677 84 84 84 255
-0.75499994 -0.125 0.35500005 -0.70710677 -0 0.70710677 84 84 84 255
-0.85499996 0 0.25499997 -0.70710677 -0 0.70710677 84 84 84 255
-0.75499994 0 0.35500005 0 -0 1 84 84 84 255
0.75499994 -0.125 0.35500005 0 -0 1 84 84 84 255
0.75499994 0 0.35500005 0 -0 1 84 84 84 255
-0.75499994 -0.125 0.35500005 0 -0 1 84 84 84 255
0.85499996 0 0.25499997 0.707107 -0 0.7071065 84 84 84 255
0.75499994 -0.125 0.35500005 0.707107 -0 0.7071065 84 84 84 255
0.85499996 -0.125 0.25499997 0.707107 -0 0.7071065 84 84 84 255
0.75499994 0 0.35500005 0.707107 -0 0.7071065 84 84 84 255
0.85499996 0 -0.25499997 1 -0 -0 84 84 84 255
0.85499996 -0.125 0.25499997 1 -0 -0 84 84 84 255
0.85499996 -0.125 -0.25499997 1 -0 -0 84 84 84 255
0.85499996 0 0.25499997 1 -0 -0 84 84 84 255
0.75499994 0 -0.35500005 0.707107 -0 -0.7071065 84 84 84 255
0.85499996 -0.125 -0.25499997 0.707107 -0 -0.7071065 84 84 84 255
0.75499994 -0.125 -0.35500005 0.707107 -0 -0.7071065 84 84 84 255
0.85499996 0 -0.25499997 0.707107 -0 -0.7071065 84 84 84 255
0.6 -0.125 -0.35500005 0 -0 -1 84 84 84 255
0.75499994 0 -0.35500005 0 -0 -1 84 84 84 255
0.75499994 -0.125 -0.35500005 0 -0 -1 84 84 84 255
0.6 0 -0.35500005 0 -0 -1 84 84 84 255
0.6 0 -0.6 1 -0 -0 84 84 84 255
0.6 -0.125 -0.35500005 1 -0 -0 84 84 84 255
0.6 -0.125 -0.6 1 -0 -0 84 84 84 255
0.6 0 -0.35500005 1 -0 -0 84 84 84 255
-0.6 -0.125 -0.6 0 -0 -1 84 84 84 255
-0.39999992 0 -0.6 0 -0 -1 84 84 84 255
-0.39999992 -0.125 -0.6 0 -0 -1 84 84 84 255
-0.6 0 -0.6 0 -0 -1 84 84 84 255
-0.8049998 0.125 0.23428935 -1 -0 -0 84 84 84 255
-0.8049998 0 -0.23428935 -1 -0 -0 84 84 84 255
-0.8049998 0 0.23428935 -1 -0 -0 84 84 84 255
-0.8049998 0.125 -0.23428935 -1 -0 -0 84 84 84 255
-0.7342893 0.125 0.3049999 -0.70710677 -0 0.70710677 84 84 84 255
-0.8049998 0 0.23428935 -0.70710677 -0 0.70710677 84 84 84 255
-0.7342893 0 0.3049999 -0.70710677 -0 0.70710677 84 84 84 255
-0.8049998 0.125 0.23428935 -0.70710677 -0 0.70710677 84 84 84 255
-0.8049998 0.125 -0.23428935 -0.70710677 -0 -0.70710677 84 84 84 255
-0.7342893 0 -0.3049999 -0.70710677 -0 -0.70710677 84 84 84 255
-0.8049998 0 -0.23428935 -0.70710677 -0 -0.70710677 84 84 84 255
-0.7342893 0.125 -0.3049999 -0.70710677 -0 -0.70710677 84 84 84 255
-0.7342893 0.125 0.3049999 0 -0 1 84 84 84 255
0.7342893 0 0.3049999 0 -0 1 84 84 84 255
0.7342893 0.125 0.3049999 0 -0 1 84 84 84 255
-0.7342893 0 0.3049999 0 -0 1 84 84 84 255
-0.7342893 0 -0.3049999 0 -0 -1 84 84 84 255
0.7342893 0.125 -0.3049999 0 -0 -1 84 84 84 255
0.7342893 0 -0.3049999 0 -0 -1 84 84 84 255
-0.7342893 0.125 -0.3049999 0 -0 -1 84 84 84 255
0.7342893 0.125 0.3049999 0.70710623 -0 0.7071072 84 84 84 255
0.8049998 0 0.23428935 0.70710623 -0 0.7071072 84 84 84 255
0.8049998 0.125 0.23428935 0.70710623 -0 0.7071072 84 84 84 255
0.7342893 0 0.3049999 0.70710623 -0 0.7071072 84 84 84 255
0.7342893 0 -0.3049999 0.70710623 -0 -0.7071072 84 84 84 255
0.8049998 0.125 -0.23428935 0.70710623 -0 -0.7071072 84 84 84 255
0.8049998 0 -0.23428935 0.70710623 -0 -0.7071072 84 84 84 255
0.7342893 0.125 -0.3049999 0.70710623 -0 -0.7071072 84 84 84 255
0.8049998 0.125 -0.23428935 1 -0 -0 84 84 84 255
0.8049998 0 0.23428935 1 -0 -0 84 84 84 255
0.8049998 0 -0.23428935 1 -0 -0 84 84 84 255
0.8049998 0.125 0.23428935 1 -0 -0 84 84 84 255
-0.37499997 -0.125 -0.625 4.61474E-18 1 -2.550436E-16 55 125 0 255
-0.39999992 -0.125 -0.6 4.61474E-18 1 -2.550436E-16 55 125 0 255
-0.37499997 -0.125 -0.37499997 4.61474E-18 1 -2.550436E-16 55 125 0 255
-0.6 -0.125 -0.6 4.61474E-18 1 -2.550436E-16 55 125 0 255
-0.39999992 -0.125 -0.35500005 4.61474E-18 1 -2.550436E-16 55 125 0 255
0.37499997 -0.125 -0.37499997 4.61474E-18 1 -2.550436E-16 55 125 0 255
0.37499997 -0.125 -0.625 4.61474E-18 1 -2.550436E-16 55 125 0 255
0.39999992 -0.125 -0.6 4.61474E-18 1 -2.550436E-16 55 125 0 255
0.625 -0.125 -0.625 4.61474E-18 1 -2.550436E-16 55 125 0 255
0.39999992 -0.125 -0.35500005 4.61474E-18 1 -2.550436E-16 55 125 0 255
-0.8749999 -0.125 -0.37499997 4.61474E-18 1 -2.550436E-16 55 125 0 255
-0.75499994 -0.125 -0.35500005 4.61474E-18 1 -2.550436E-16 55 125 0 255
-0.625 -0.125 -0.37499997 4.61474E-18 1 -2.550436E-16 55 125 0 255
-0.85499996 -0.125 -0.25499997 4.61474E-18 1 -2.550436E-16 55 125 0 255
-0.8749999 -0.125 0.37499997 4.61474E-18 1 -2.550436E-16 55 125 0 255
-0.85499996 -0.125 0.25499997 4.61474E-18 1 -2.550436E-16 55 125 0 255
-0.75499994 -0.125 0.35500005 4.61474E-18 1 -2.550436E-16 55 125 0 255
0.75499994 -0.125 0.35500005 4.61474E-18 1 -2.550436E-16 55 125 0 255
0.6 -0.125 -0.6 4.61474E-18 1 -2.550436E-16 55 125 0 255
0.625 -0.125 -0.37499997 4.61474E-18 1 -2.550436E-16 55 125 0 255
0.6 -0.125 -0.35500005 4.61474E-18 1 -2.550436E-16 55 125 0 255
0.8749999 -0.125 -0.37499997 4.61474E-18 1 -2.550436E-16 55 125 0 255
0.75499994 -0.125 -0.35500005 4.61474E-18 1 -2.550436E-16 55 125 0 255
0.85499996 -0.125 -0.25499997 4.61474E-18 1 -2.550436E-16 55 125 0 255
0.8749999 -0.125 0.37499997 4.61474E-18 1 -2.550436E-16 55 125 0 255
0.85499996 -0.125 0.25499997 4.61474E-18 1 -2.550436E-16 55 125 0 255
-0.625 -0.125 -0.625 4.61474E-18 1 -2.550436E-16 55 125 0 255
-0.6 -0.125 -0.35500005 4.61474E-18 1 -2.550436E-16 55 125 0 255
0.8749999 0.125 -0.37499997 0 -1 -0 255 125 0 255
0.7342893 0.125 -0.3049999 0 -1 -0 255 125 0 255
-0.8749999 0.125 -0.37499997 0 -1 -0 255 125 0 255
0.8049998 0.125 -0.23428935 0 -1 -0 255 125 0 255
0.8749999 0.125 0.37499997 0 -1 -0 255 125 0 255
0.8049998 0.125 0.23428935 0 -1 -0 255 125 0 255
0.7342893 0.125 0.3049999 0 -1 -0 255 125 0 255
-0.7342893 0.125 0.3049999 0 -1 -0 255 125 0 255
-0.8049998 0.125 -0.23428935 0 -1 -0 255 125 0 255
-0.8749999 0.125 0.37499997 0 -1 -0 255 125 0 255
-0.7342893 0.125 -0.3049999 0 -1 -0 255 125 0 255
-0.8049998 0.125 0.23428935 0 -1 -0 255 125 0 255
3 0 1 2
3 1 0 3
3 4 5 6
3 5 4 7
3 8 9 10
3 9 8 11
3 10 9 12
3 12 9 13
3 13 9 14
3 14 9 15
3 9 11 16
3 16 11 17
3 16 17 18
3 18 17 19
3 19 17 20
3 19 20 21
3 15 22 23
3 22 15 9
3 23 22 24
3 23 24 25
3 25 24 26
3 25 26 21
3 25 21 27
3 27 21 20
3 13 28 29
3 28 13 14
3 10 30 31
3 30 10 12
3 32 33 34
3 33 32 35
3 36 37 38
3 37 36 39
3 40 41 42
3 41 40 43
3 44 45 46
3 45 44 47
3 48 49 50
3 49 48 51
3 52 53 54
3 53 52 55
3 56 57 58
3 57 56 59
3 60 61 62
3 61 60 63
3 64 65 66
3 65 64 67
3 68 69 70
3 69 68 71
3 72 73 74
3 73 72 75
3 76 77 78
3 77 76 79
3 80 81 82
3 81 80 83
3 84 85 86
3 85 84 87
3 88 89 90
3 89 88 91
3 92 93 94
3 93 92 95
3 96 97 98
3 97 96 99
3 100 101 102
3 101 100 103
3 104 105 106
3 105 104 107
3 108 109 110
3 109 108 111
3 112 113 114
3 113 112 115
3 116 117 118
3 117 116 119
3 120 121 122
3 121 120 123
3 122 121 124
3 122 124 125
3 126 127 128
3 127 126 125
3 127 125 129
3 129 125 124
3 130 131 132
3 131 130 133
3 133 130 134
3 133 134 135
3 135 134 136
3 136 134 137
3 128 138 139
3 138 128 127
3 139 138 140
3 139 140 141
3 141 140 142
3 141 142 143
3 141 143 144
3 144 143 145
3 144 145 137
3 144 137 134
3 146 123 120
3 123 146 132
3 123 132 147
3 147 132 131
3 148 149 150
3 149 148 151
3 151 148 152
3 151 152 153
3 153 152 154
3 154 152 155
3 150 156 157
3 156 150 158
3 158 150 149
3 157 156 159
3 157 159 155
3 157 155 152

