ply
format ascii 1.0
commentY29udmVydGVyIGJ5IENvZGVMZW9wYXJk
comment Original mesh name: 'C:\Program Files (x86)\Steam\steamapps\common\Stormworks\rom\meshes\component_wheel_5_sus_base.mesh'
comment SubMesh index: 0
comment SubMesh name: 'ID18'
comment Shader: Opaque (0)
element vertex 134
property float x
property float y
property float z
property float nx
property float ny
property float nz
property uchar red
property uchar green
property uchar blue
property uchar alpha
element face 68
property list uchar ushort vertex_index
end_header
-0.020006593 -0.037551586 0.04665375 0.3420526 0.9396808 -7.587493E-13 113 113 113 255
0.0005000195 -0.045016162 -0.04665375 0.3420526 0.9396808 -7.587493E-13 113 113 113 255
-0.020006593 -0.037551586 -0.04665375 0.3420526 0.9396808 -7.587493E-13 113 113 113 255
0.0005000195 -0.045016162 0.04665375 0.3420526 0.9396808 -7.587493E-13 113 113 113 255
0.0005000195 -0.045016162 -0.04665375 -0.3420526 0.9396808 -7.415673E-13 113 113 113 255
0.021006633 -0.037551586 0.04665375 -0.3420526 0.9396808 -7.415673E-13 113 113 113 255
0.021006633 -0.037551586 -0.04665375 -0.3420526 0.9396808 -7.415673E-13 113 113 113 255
0.0005000195 -0.045016162 0.04665375 -0.3420526 0.9396808 -7.415673E-13 113 113 113 255
0.0005000195 -0.045016162 -0.04665375 0.24926871 0.6847865 0.6847865 113 113 113 255
0.0005000195 -0.037551586 -0.054118358 0.24926871 0.6847865 0.6847865 113 113 113 255
-0.020006593 -0.037551586 -0.04665375 0.24926871 0.6847865 0.6847865 113 113 113 255
-0.020006593 0.038949806 -0.04665375 1 9.43658E-15 -7.736907E-15 113 113 113 255
-0.020006593 -0.037551586 0.04665375 1 9.43658E-15 -7.736907E-15 113 113 113 255
-0.020006593 -0.037551586 -0.04665375 1 9.43658E-15 -7.736907E-15 113 113 113 255
-0.020006593 0.038949806 0.04665375 1 9.43658E-15 -7.736907E-15 113 113 113 255
0.0005000195 -0.045016162 -0.04665375 -0.24926871 0.6847865 0.6847865 113 113 113 255
0.021006633 -0.037551586 -0.04665375 -0.24926871 0.6847865 0.6847865 113 113 113 255
0.0005000195 -0.037551586 -0.054118358 -0.24926871 0.6847865 0.6847865 113 113 113 255
0.021006633 -0.037551586 0.04665375 -1 -0 -0 113 113 113 255
0.021006633 0.038949806 -0.04665375 -1 -0 -0 113 113 113 255
0.021006633 -0.037551586 -0.04665375 -1 -0 -0 113 113 113 255
0.021006633 0.038949806 0.04665375 -1 -0 -0 113 113 113 255
-0.020006593 0.038949806 -0.04665375 0.3420526 5.098254E-14 0.9396808 113 113 113 255
0.0005000195 -0.037551586 -0.054118358 0.3420526 5.098254E-14 0.9396808 113 113 113 255
0.0005000195 0.038949806 -0.054118358 0.3420526 5.098254E-14 0.9396808 113 113 113 255
-0.020006593 -0.037551586 -0.04665375 0.3420526 5.098254E-14 0.9396808 113 113 113 255
0.0005000195 0.046414405 0.04665375 0.3420526 -0.9396808 6.7150886E-13 113 113 113 255
-0.020006593 0.038949806 -0.04665375 0.3420526 -0.9396808 6.7150886E-13 113 113 113 255
0.0005000195 0.046414405 -0.04665375 0.3420526 -0.9396808 6.7150886E-13 113 113 113 255
-0.020006593 0.038949806 0.04665375 0.3420526 -0.9396808 6.7150886E-13 113 113 113 255
0.0005000195 0.038949806 -0.054118358 -0.3420526 4.5720446E-14 0.9396808 113 113 113 255
0.021006633 -0.037551586 -0.04665375 -0.3420526 4.5720446E-14 0.9396808 113 113 113 255
0.021006633 0.038949806 -0.04665375 -0.3420526 4.5720446E-14 0.9396808 113 113 113 255
0.0005000195 -0.037551586 -0.054118358 -0.3420526 4.5720446E-14 0.9396808 113 113 113 255
0.021006633 0.038949806 -0.04665375 -0.3420526 -0.9396808 6.516721E-13 113 113 113 255
0.0005000195 0.046414405 0.04665375 -0.3420526 -0.9396808 6.516721E-13 113 113 113 255
0.0005000195 0.046414405 -0.04665375 -0.3420526 -0.9396808 6.516721E-13 113 113 113 255
0.021006633 0.038949806 0.04665375 -0.3420526 -0.9396808 6.516721E-13 113 113 113 255
-0.020006593 0.038949806 -0.04665375 0.24926871 -0.6847865 0.6847865 113 113 113 255
0.0005000195 0.038949806 -0.054118358 0.24926871 -0.6847865 0.6847865 113 113 113 255
0.0005000195 0.046414405 -0.04665375 0.24926871 -0.6847865 0.6847865 113 113 113 255
0.0005000195 0.038949806 -0.054118358 -0.24926871 -0.6847865 0.6847865 113 113 113 255
0.021006633 0.038949806 -0.04665375 -0.24926871 -0.6847865 0.6847865 113 113 113 255
0.0005000195 0.046414405 -0.04665375 -0.24926871 -0.6847865 0.6847865 113 113 113 255
-0.036616027 -0.06358775 0.4787534 -7.780047E-14 1 -5.157938E-13 113 113 113 255
0.03761605 -0.06358775 0.45635948 -7.780047E-14 1 -5.157938E-13 113 113 113 255
-0.036616027 -0.06358775 0.45635948 -7.780047E-14 1 -5.157938E-13 113 113 113 255
0.03761605 -0.06358775 0.4787534 -7.780047E-14 1 -5.157938E-13 113 113 113 255
-0.073732056 0.00069911254 0.45635948 0.8660254 0.5 -5.177407E-13 113 113 113 255
-0.036616027 -0.06358775 0.4787534 0.8660254 0.5 -5.177407E-13 113 113 113 255
-0.036616027 -0.06358775 0.45635948 0.8660254 0.5 -5.177407E-13 113 113 113 255
-0.073732056 0.00069911254 0.4787534 0.8660254 0.5 -5.177407E-13 113 113 113 255
0.03761605 -0.06358775 0.4787534 9.117243E-16 -4.735704E-13 -1 113 113 113 255
0.03761605 0.064985976 0.4787534 9.117243E-16 -4.735704E-13 -1 113 113 113 255
0.0747321 0.00069911254 0.4787534 9.117243E-16 -4.735704E-13 -1 113 113 113 255
-0.036616027 -0.06358775 0.4787534 9.117243E-16 -4.735704E-13 -1 113 113 113 255
-0.036616027 0.064985976 0.4787534 9.117243E-16 -4.735704E-13 -1 113 113 113 255
-0.073732056 0.00069911254 0.4787534 9.117243E-16 -4.735704E-13 -1 113 113 113 255
0.03761605 -0.06358775 0.4787534 -0.8660254 0.5 -1.0545699E-13 113 113 113 255
0.0747321 0.00069911254 0.45635948 -0.8660254 0.5 -1.0545699E-13 113 113 113 255
0.03761605 -0.06358775 0.45635948 -0.8660254 0.5 -1.0545699E-13 113 113 113 255
0.0747321 0.00069911254 0.4787534 -0.8660254 0.5 -1.0545699E-13 113 113 113 255
-0.036616027 0.064985976 0.45635948 0.8660254 -0.5 1.505386E-13 113 113 113 255
-0.073732056 0.00069911254 0.4787534 0.8660254 -0.5 1.505386E-13 113 113 113 255
-0.073732056 0.00069911254 0.45635948 0.8660254 -0.5 1.505386E-13 113 113 113 255
-0.036616027 0.064985976 0.4787534 0.8660254 -0.5 1.505386E-13 113 113 113 255
0.03761605 0.064985976 0.45635948 5.8350345E-14 -1 5.80268E-13 113 113 113 255
-0.036616027 0.064985976 0.4787534 5.8350345E-14 -1 5.80268E-13 113 113 113 255
-0.036616027 0.064985976 0.45635948 5.8350345E-14 -1 5.80268E-13 113 113 113 255
0.03761605 0.064985976 0.4787534 5.8350345E-14 -1 5.80268E-13 113 113 113 255
0.0747321 0.00069911254 0.4787534 -0.8660254 -0.5 2.2560168E-13 113 113 113 255
0.03761605 0.064985976 0.45635948 -0.8660254 -0.5 2.2560168E-13 113 113 113 255
0.0747321 0.00069911254 0.45635948 -0.8660254 -0.5 2.2560168E-13 113 113 113 255
0.03761605 0.064985976 0.4787534 -0.8660254 -0.5 2.2560168E-13 113 113 113 255
0.03761605 0.064985976 0.059716795 -1.620843E-15 4.649728E-13 1 113 113 113 255
0.03761605 -0.06358775 0.059716795 -1.620843E-15 4.649728E-13 1 113 113 113 255
0.0747321 0.00069911254 0.059716795 -1.620843E-15 4.649728E-13 1 113 113 113 255
-0.036616027 0.064985976 0.059716795 -1.620843E-15 4.649728E-13 1 113 113 113 255
-0.036616027 -0.06358775 0.059716795 -1.620843E-15 4.649728E-13 1 113 113 113 255
-0.073732056 0.00069911254 0.059716795 -1.620843E-15 4.649728E-13 1 113 113 113 255
0.0747321 0.00069911254 0.059716795 -0.69674957 0.40226853 0.59390235 113 113 113 255
0.03204865 -0.053944718 0.04665375 -0.69674957 0.40226853 0.59390235 113 113 113 255
0.03761605 -0.06358775 0.059716795 -0.69674957 0.40226853 0.59390235 113 113 113 255
0.06359728 0.00069911254 0.04665375 -0.69674957 0.40226853 0.59390235 113 113 113 255
0.03204865 0.055342965 0.04665375 -5.8398017E-15 4.1470817E-13 1 113 113 113 255
0.03204865 -0.053944718 0.04665375 -5.8398017E-15 4.1470817E-13 1 113 113 113 255
0.06359728 0.00069911254 0.04665375 -5.8398017E-15 4.1470817E-13 1 113 113 113 255
-0.031048628 0.055342965 0.04665375 -5.8398017E-15 4.1470817E-13 1 113 113 113 255
-0.031048628 -0.053944718 0.04665375 -5.8398017E-15 4.1470817E-13 1 113 113 113 255
-0.06259725 0.00069911254 0.04665375 -5.8398017E-15 4.1470817E-13 1 113 113 113 255
-0.031048628 -0.053944718 0.04665375 -7.548091E-15 0.804537 0.59390235 113 113 113 255
0.03761605 -0.06358775 0.059716795 -7.548091E-15 0.804537 0.59390235 113 113 113 255
0.03204865 -0.053944718 0.04665375 -7.548091E-15 0.804537 0.59390235 113 113 113 255
-0.036616027 -0.06358775 0.059716795 -7.548091E-15 0.804537 0.59390235 113 113 113 255
0.0747321 0.00069911254 0.059716795 -0.69674957 -0.40226853 0.59390235 113 113 113 255
0.03204865 0.055342965 0.04665375 -0.69674957 -0.40226853 0.59390235 113 113 113 255
0.06359728 0.00069911254 0.04665375 -0.69674957 -0.40226853 0.59390235 113 113 113 255
0.03761605 0.064985976 0.059716795 -0.69674957 -0.40226853 0.59390235 113 113 113 255
-0.031048628 -0.053944718 0.04665375 0.69674957 0.40226853 0.59390235 113 113 113 255
-0.073732056 0.00069911254 0.059716795 0.69674957 0.40226853 0.59390235 113 113 113 255
-0.036616027 -0.06358775 0.059716795 0.69674957 0.40226853 0.59390235 113 113 113 255
-0.06259725 0.00069911254 0.04665375 0.69674957 0.40226853 0.59390235 113 113 113 255
0.03761605 0.064985976 0.059716795 3.6151183E-14 -0.804537 0.59390235 113 113 113 255
-0.031048628 0.055342965 0.04665375 3.6151183E-14 -0.804537 0.59390235 113 113 113 255
0.03204865 0.055342965 0.04665375 3.6151183E-14 -0.804537 0.59390235 113 113 113 255
-0.036616027 0.064985976 0.059716795 3.6151183E-14 -0.804537 0.59390235 113 113 113 255
-0.031048628 0.055342965 0.04665375 0.69674957 -0.40226853 0.59390235 113 113 113 255
-0.073732056 0.00069911254 0.059716795 0.69674957 -0.40226853 0.59390235 113 113 113 255
-0.06259725 0.00069911254 0.04665375 0.69674957 -0.40226853 0.59390235 113 113 113 255
-0.036616027 0.064985976 0.059716795 0.69674957 -0.40226853 0.59390235 113 113 113 255
0.03761605 0.064985976 0.45635948 3.890024E-14 -1 1.259478E-12 255 125 0 255
-0.036616027 0.064985976 0.059716795 3.890024E-14 -1 1.259478E-12 255 125 0 255
0.03761605 0.064985976 0.059716795 3.890024E-14 -1 1.259478E-12 255 125 0 255
-0.036616027 0.064985976 0.45635948 3.890024E-14 -1 1.259478E-12 255 125 0 255
-0.036616027 0.064985976 0.059716795 0.8660254 -0.5 6.205195E-13 255 125 0 255
-0.073732056 0.00069911254 0.45635948 0.8660254 -0.5 6.205195E-13 255 125 0 255
-0.073732056 0.00069911254 0.059716795 0.8660254 -0.5 6.205195E-13 255 125 0 255
-0.036616027 0.064985976 0.45635948 0.8660254 -0.5 6.205195E-13 255 125 0 255
0.0747321 0.00069911254 0.45635948 -0.8660254 -0.5 6.410213E-13 255 125 0 255
0.03761605 0.064985976 0.059716795 -0.8660254 -0.5 6.410213E-13 255 125 0 255
0.0747321 0.00069911254 0.059716795 -0.8660254 -0.5 6.410213E-13 255 125 0 255
0.03761605 0.064985976 0.45635948 -0.8660254 -0.5 6.410213E-13 255 125 0 255
-0.073732056 0.00069911254 0.059716795 0.8660254 0.5 -6.407667E-13 255 125 0 255
-0.036616027 -0.06358775 0.45635948 0.8660254 0.5 -6.407667E-13 255 125 0 255
-0.036616027 -0.06358775 0.059716795 0.8660254 0.5 -6.407667E-13 255 125 0 255
-0.073732056 0.00069911254 0.45635948 0.8660254 0.5 -6.407667E-13 255 125 0 255
0.03761605 -0.06358775 0.45635948 -0.8660254 0.5 -6.2416256E-13 255 125 0 255
0.0747321 0.00069911254 0.059716795 -0.8660254 0.5 -6.2416256E-13 255 125 0 255
0.03761605 -0.06358775 0.059716795 -0.8660254 0.5 -6.2416256E-13 255 125 0 255
0.0747321 0.00069911254 0.45635948 -0.8660254 0.5 -6.2416256E-13 255 125 0 255
-0.036616027 -0.06358775 0.059716795 -5.8350345E-14 1 -1.263118E-12 255 125 0 255
0.03761605 -0.06358775 0.45635948 -5.8350345E-14 1 -1.263118E-12 255 125 0 255
0.03761605 -0.06358775 0.059716795 -5.8350345E-14 1 -1.263118E-12 255 125 0 255
-0.036616027 -0.06358775 0.45635948 -5.8350345E-14 1 -1.263118E-12 255 125 0 255
3 0 1 2
3 1 0 3
3 4 5 6
3 5 4 7
3 8 9 10
3 11 12 13
3 12 11 14
3 15 16 17
3 18 19 20
3 19 18 21
3 22 23 24
3 23 22 25
3 26 27 28
3 27 26 29
3 30 31 32
3 31 30 33
3 34 35 36
3 35 34 37
3 38 39 40
3 41 42 43
3 44 45 46
3 45 44 47
3 48 49 50
3 49 48 51
3 52 53 54
3 53 52 55
3 53 55 56
3 56 55 57
3 58 59 60
3 59 58 61
3 62 63 64
3 63 62 65
3 66 67 68
3 67 66 69
3 70 71 72
3 71 70 73
3 74 75 76
3 75 74 77
3 75 77 78
3 78 77 79
3 80 81 82
3 81 80 83
3 84 85 86
3 85 84 87
3 85 87 88
3 88 87 89
3 90 91 92
3 91 90 93
3 94 95 96
3 95 94 97
3 98 99 100
3 99 98 101
3 102 103 104
3 103 102 105
3 106 107 108
3 107 106 109
3 110 111 112
3 111 110 113
3 114 115 116
3 115 114 117
3 118 119 120
3 119 118 121
3 122 123 124
3 123 122 125
3 126 127 128
3 127 126 129
3 130 131 132
3 131 130 133

