ply
format ascii 1.0
commentY29udmVydGVyIGJ5IENvZGVMZW9wYXJk
comment Original mesh name: 'C:\Program Files (x86)\Steam\steamapps\common\Stormworks\rom\meshes\component_connector_hinge_glow.mesh'
comment SubMesh index: 0
comment SubMesh name: 'ID3'
comment Shader: Emissive (2)
element vertex 80
property float x
property float y
property float z
property float nx
property float ny
property float nz
property uchar red
property uchar green
property uchar blue
property uchar alpha
element face 44
property list uchar ushort vertex_index
end_header
0.03187499 -0.26320302 0.22929497 -1 -1.7723388E-37 3.990952E-21 255 255 255 194
0.03187499 0.26294404 0.25020498 -1 -1.7723388E-37 3.990952E-21 255 255 255 194
0.03187499 0.26294404 0.22929497 -1 -1.7723388E-37 3.990952E-21 255 255 255 194
0.03187499 -0.26320302 0.25020498 -1 -1.7723388E-37 3.990952E-21 255 255 255 194
0.03187499 -0.26320302 0.25020498 1 1.7723388E-37 -3.990952E-21 255 255 255 194
0.03187499 -0.26320302 0.22929497 1 1.7723388E-37 -3.990952E-21 255 255 255 194
0.03187499 0.26294404 0.25020498 1 1.7723388E-37 -3.990952E-21 255 255 255 194
0.03187499 0.26294404 0.22929497 1 1.7723388E-37 -3.990952E-21 255 255 255 194
0.013203049 -0.28187495 0.22929497 -0.70710677 0.70710677 3.0133283E-17 255 255 255 194
0.03187499 -0.26320302 0.25020498 -0.70710677 0.70710677 3.0133283E-17 255 255 255 194
0.03187499 -0.26320302 0.22929497 -0.70710677 0.70710677 3.0133283E-17 255 255 255 194
0.013203049 -0.28187495 0.25020498 -0.70710677 0.70710677 3.0133283E-17 255 255 255 194
0.013203049 -0.28187495 0.25020498 0.70710677 -0.70710677 -3.0133283E-17 255 255 255 194
0.013203049 -0.28187495 0.22929497 0.70710677 -0.70710677 -3.0133283E-17 255 255 255 194
0.03187499 -0.26320302 0.25020498 0.70710677 -0.70710677 -3.0133283E-17 255 255 255 194
0.03187499 -0.26320302 0.22929497 0.70710677 -0.70710677 -3.0133283E-17 255 255 255 194
0.013203049 -0.28187495 0.25020498 -8.604095E-15 -2.8349043E-18 -1 255 255 255 194
0.03187499 0.26294404 0.25020498 -8.604095E-15 -2.8349043E-18 -1 255 255 255 194
0.03187499 -0.26320302 0.25020498 -8.604095E-15 -2.8349043E-18 -1 255 255 255 194
0.013203049 0.2816162 0.25020498 -8.604095E-15 -2.8349043E-18 -1 255 255 255 194
-0.01320306 -0.28187495 0.25020498 -8.604095E-15 -2.8349043E-18 -1 255 255 255 194
-0.01320306 0.2816162 0.25020498 -8.604095E-15 -2.8349043E-18 -1 255 255 255 194
-0.031875 -0.26320302 0.25020498 -8.604095E-15 -2.8349043E-18 -1 255 255 255 194
-0.031875 0.26294404 0.25020498 -8.604095E-15 -2.8349043E-18 -1 255 255 255 194
-0.031875 0.26294404 0.25020498 8.604095E-15 2.8349043E-18 1 255 255 255 194
-0.031875 -0.26320302 0.25020498 8.604095E-15 2.8349043E-18 1 255 255 255 194
-0.01320306 0.2816162 0.25020498 8.604095E-15 2.8349043E-18 1 255 255 255 194
-0.01320306 -0.28187495 0.25020498 8.604095E-15 2.8349043E-18 1 255 255 255 194
0.013203049 0.2816162 0.25020498 8.604095E-15 2.8349043E-18 1 255 255 255 194
0.013203049 -0.28187495 0.25020498 8.604095E-15 2.8349043E-18 1 255 255 255 194
0.03187499 0.26294404 0.25020498 8.604095E-15 2.8349043E-18 1 255 255 255 194
0.03187499 -0.26320302 0.25020498 8.604095E-15 2.8349043E-18 1 255 255 255 194
0.03187499 0.26294404 0.22929497 -0.70710677 -0.70710677 3.9909518E-21 255 255 255 194
0.013203049 0.2816162 0.25020498 -0.70710677 -0.70710677 3.9909518E-21 255 255 255 194
0.013203049 0.2816162 0.22929497 -0.70710677 -0.70710677 3.9909518E-21 255 255 255 194
0.03187499 0.26294404 0.25020498 -0.70710677 -0.70710677 3.9909518E-21 255 255 255 194
0.03187499 0.26294404 0.25020498 0.70710677 0.70710677 -3.9909518E-21 255 255 255 194
0.03187499 0.26294404 0.22929497 0.70710677 0.70710677 -3.9909518E-21 255 255 255 194
0.013203049 0.2816162 0.25020498 0.70710677 0.70710677 -3.9909518E-21 255 255 255 194
0.013203049 0.2816162 0.22929497 0.70710677 0.70710677 -3.9909518E-21 255 255 255 194
0.013203049 -0.28187495 0.22929497 -2.6585082E-37 1 -0 255 255 255 194
-0.01320306 -0.28187495 0.25020498 -2.6585082E-37 1 -0 255 255 255 194
0.013203049 -0.28187495 0.25020498 -2.6585082E-37 1 -0 255 255 255 194
-0.01320306 -0.28187495 0.22929497 -2.6585082E-37 1 -0 255 255 255 194
-0.01320306 -0.28187495 0.22929497 2.6585082E-37 -1 -0 255 255 255 194
0.013203049 -0.28187495 0.22929497 2.6585082E-37 -1 -0 255 255 255 194
-0.01320306 -0.28187495 0.25020498 2.6585082E-37 -1 -0 255 255 255 194
0.013203049 -0.28187495 0.25020498 2.6585082E-37 -1 -0 255 255 255 194
-0.031875 0.26294404 0.25020498 0.70710677 -0.70710677 1.2221003E-14 255 255 255 194
-0.01320306 0.2816162 0.22929497 0.70710677 -0.70710677 1.2221003E-14 255 255 255 194
-0.01320306 0.2816162 0.25020498 0.70710677 -0.70710677 1.2221003E-14 255 255 255 194
-0.031875 0.26294404 0.22929497 0.70710677 -0.70710677 1.2221003E-14 255 255 255 194
-0.031875 0.26294404 0.22929497 -0.70710677 0.70710677 -1.2221003E-14 255 255 255 194
-0.031875 0.26294404 0.25020498 -0.70710677 0.70710677 -1.2221003E-14 255 255 255 194
-0.01320306 0.2816162 0.22929497 -0.70710677 0.70710677 -1.2221003E-14 255 255 255 194
-0.01320306 0.2816162 0.25020498 -0.70710677 0.70710677 -1.2221003E-14 255 255 255 194
-0.01320306 0.2816162 0.25020498 2.6585082E-37 -1 -0 255 255 255 194
0.013203049 0.2816162 0.22929497 2.6585082E-37 -1 -0 255 255 255 194
0.013203049 0.2816162 0.25020498 2.6585082E-37 -1 -0 255 255 255 194
-0.01320306 0.2816162 0.22929497 2.6585082E-37 -1 -0 255 255 255 194
-0.01320306 0.2816162 0.22929497 -2.6585082E-37 1 -0 255 255 255 194
-0.01320306 0.2816162 0.25020498 -2.6585082E-37 1 -0 255 255 255 194
0.013203049 0.2816162 0.22929497 -2.6585082E-37 1 -0 255 255 255 194
0.013203049 0.2816162 0.25020498 -2.6585082E-37 1 -0 255 255 255 194
-0.01320306 -0.28187495 0.25020498 0.70710677 0.70710677 -3.0133283E-17 255 255 255 194
-0.031875 -0.26320302 0.22929497 0.70710677 0.70710677 -3.0133283E-17 255 255 255 194
-0.031875 -0.26320302 0.25020498 0.70710677 0.70710677 -3.0133283E-17 255 255 255 194
-0.01320306 -0.28187495 0.22929497 0.70710677 0.70710677 -3.0133283E-17 255 255 255 194
-0.01320306 -0.28187495 0.22929497 -0.70710677 -0.70710677 3.0133283E-17 255 255 255 194
-0.01320306 -0.28187495 0.25020498 -0.70710677 -0.70710677 3.0133283E-17 255 255 255 194
-0.031875 -0.26320302 0.22929497 -0.70710677 -0.70710677 3.0133283E-17 255 255 255 194
-0.031875 -0.26320302 0.25020498 -0.70710677 -0.70710677 3.0133283E-17 255 255 255 194
-0.031875 -0.26320302 0.25020498 1 -2.9657267E-30 1.7262347E-14 255 255 255 194
-0.031875 0.26294404 0.22929497 1 -2.9657267E-30 1.7262347E-14 255 255 255 194
-0.031875 0.26294404 0.25020498 1 -2.9657267E-30 1.7262347E-14 255 255 255 194
-0.031875 -0.26320302 0.22929497 1 -2.9657267E-30 1.7262347E-14 255 255 255 194
-0.031875 -0.26320302 0.22929497 -1 2.9657267E-30 -1.7262347E-14 255 255 255 194
-0.031875 -0.26320302 0.25020498 -1 2.9657267E-30 -1.7262347E-14 255 255 255 194
-0.031875 0.26294404 0.22929497 -1 2.9657267E-30 -1.7262347E-14 255 255 255 194
-0.031875 0.26294404 0.25020498 -1 2.9657267E-30 -1.7262347E-14 255 255 255 194
3 0 1 2
3 1 0 3
3 4 5 6
3 7 6 5
3 8 9 10
3 9 8 11
3 12 13 14
3 15 14 13
3 16 17 18
3 17 16 19
3 19 16 20
3 19 20 21
3 21 20 22
3 21 22 23
3 24 25 26
3 25 27 26
3 26 27 28
3 27 29 28
3 28 29 30
3 31 30 29
3 32 33 34
3 33 32 35
3 36 37 38
3 39 38 37
3 40 41 42
3 41 40 43
3 44 45 46
3 47 46 45
3 48 49 50
3 49 48 51
3 52 53 54
3 55 54 53
3 56 57 58
3 57 56 59
3 60 61 62
3 63 62 61
3 64 65 66
3 65 64 67
3 68 69 70
3 71 70 69
3 72 73 74
3 73 72 75
3 76 77 78
3 79 78 77

