ply
format ascii 1.0
commentY29udmVydGVyIGJ5IENvZGVMZW9wYXJk
comment Original mesh name: 'C:\Program Files (x86)\Steam\steamapps\common\Stormworks\rom\meshes\component_torque_crank.mesh'
comment SubMesh index: 0
comment SubMesh name: 'ID46'
comment Shader: Opaque (0)
element vertex 392
property float x
property float y
property float z
property float nx
property float ny
property float nz
property uchar red
property uchar green
property uchar blue
property uchar alpha
element face 252
property list uchar ushort vertex_index
end_header
-0.12500001 -0.125 0.125 0 -0 -1 255 125 0 255
-0.125 -0.051776703 0.125 0 -0 -1 255 125 0 255
-0.051776703 -0.125 0.125 0 -0 -1 255 125 0 255
0.051776674 0.12499997 0.125 0 -0 -1 255 125 0 255
0.12499997 0.125 0.125 0 -0 -1 255 125 0 255
0.12499997 0.051776674 0.125 0 -0 -1 255 125 0 255
-0.12500001 0.125 0.125 0 -0 -1 255 125 0 255
-0.051776703 0.12499997 0.125 0 -0 -1 255 125 0 255
-0.125 0.051776674 0.125 0 -0 -1 255 125 0 255
0.051776674 0.12499997 0.125 0.5 0.5 0.7071067 255 255 255 255
0.105 0.043492418 0.14499998 0.5 0.5 0.7071067 255 255 255 255
0.12499997 0.051776674 0.125 0.5 0.5 0.7071067 255 255 255 255
0.043492418 0.105 0.14499998 0.5 0.5 0.7071067 255 255 255 255
-0.043492444 0.105 0.14499998 5.538431E-18 0.70710677 0.70710677 255 255 255 255
0.051776674 0.12499997 0.125 5.538431E-18 0.70710677 0.70710677 255 255 255 255
-0.051776703 0.12499997 0.125 5.538431E-18 0.70710677 0.70710677 255 255 255 255
0.043492418 0.105 0.14499998 5.538431E-18 0.70710677 0.70710677 255 255 255 255
0.105 0.043492418 0.14499998 0 -0 1 255 255 255 255
0.089999996 0.037279196 0.14499998 0 -0 1 255 255 255 255
0.105 -0.043492444 0.14499998 0 -0 1 255 255 255 255
0.043492418 0.105 0.14499998 0 -0 1 255 255 255 255
0.037279196 0.089999996 0.14499998 0 -0 1 255 255 255 255
-0.043492444 0.105 0.14499998 0 -0 1 255 255 255 255
-0.037279222 0.089999996 0.14499998 0 -0 1 255 255 255 255
-0.09000002 0.037279196 0.14499998 0 -0 1 255 255 255 255
-0.10500002 0.043492418 0.14499998 0 -0 1 255 255 255 255
-0.09000002 -0.037279222 0.14499998 0 -0 1 255 255 255 255
0.089999996 -0.037279222 0.14499998 0 -0 1 255 255 255 255
0.043492418 -0.10500002 0.14499998 0 -0 1 255 255 255 255
0.037279196 -0.09000002 0.14499998 0 -0 1 255 255 255 255
-0.043492444 -0.10500002 0.14499998 0 -0 1 255 255 255 255
-0.037279222 -0.09000002 0.14499998 0 -0 1 255 255 255 255
-0.10500002 -0.043492444 0.14499998 0 -0 1 255 255 255 255
0.12499997 0.051776674 0.125 0.70710677 -1.1603549E-30 0.70710677 255 255 255 255
0.105 -0.043492444 0.14499998 0.70710677 -1.1603549E-30 0.70710677 255 255 255 255
0.12499997 -0.051776703 0.125 0.70710677 -1.1603549E-30 0.70710677 255 255 255 255
0.105 0.043492418 0.14499998 0.70710677 -1.1603549E-30 0.70710677 255 255 255 255
-0.051776703 0.12499997 0.125 -0.5 0.5 0.7071067 255 255 255 255
-0.10500002 0.043492418 0.14499998 -0.5 0.5 0.7071067 255 255 255 255
-0.043492444 0.105 0.14499998 -0.5 0.5 0.7071067 255 255 255 255
-0.125 0.051776674 0.125 -0.5 0.5 0.7071067 255 255 255 255
-0.10500002 -0.043492444 0.14499998 -0.70710677 1.3587059E-30 0.70710677 255 255 255 255
-0.125 0.051776674 0.125 -0.70710677 1.3587059E-30 0.70710677 255 255 255 255
-0.125 -0.051776703 0.125 -0.70710677 1.3587059E-30 0.70710677 255 255 255 255
-0.10500002 0.043492418 0.14499998 -0.70710677 1.3587059E-30 0.70710677 255 255 255 255
-0.10500002 -0.043492444 0.14499998 -0.5 -0.5 0.7071067 255 255 255 255
-0.051776703 -0.125 0.125 -0.5 -0.5 0.7071067 255 255 255 255
-0.043492444 -0.10500002 0.14499998 -0.5 -0.5 0.7071067 255 255 255 255
-0.125 -0.051776703 0.125 -0.5 -0.5 0.7071067 255 255 255 255
0.043492418 -0.10500002 0.14499998 0 -0.70710677 0.70710677 255 255 255 255
-0.051776703 -0.125 0.125 0 -0.70710677 0.70710677 255 255 255 255
0.051776674 -0.125 0.125 0 -0.70710677 0.70710677 255 255 255 255
-0.043492444 -0.10500002 0.14499998 0 -0.70710677 0.70710677 255 255 255 255
0.105 -0.043492444 0.14499998 0.5 -0.5 0.7071067 255 255 255 255
0.051776674 -0.125 0.125 0.5 -0.5 0.7071067 255 255 255 255
0.12499997 -0.051776703 0.125 0.5 -0.5 0.7071067 255 255 255 255
0.043492418 -0.10500002 0.14499998 0.5 -0.5 0.7071067 255 255 255 255
0.043492418 0.105 0.14499998 -0.5 -0.5 -0.7071067 199 199 199 255
0.051776674 0.12499997 0.125 -0.5 -0.5 -0.7071067 199 199 199 255
0.105 0.043492418 0.14499998 -0.5 -0.5 -0.7071067 199 199 199 255
0.12499997 0.051776674 0.125 -0.5 -0.5 -0.7071067 199 199 199 255
0.043492418 0.105 0.14499998 -5.538431E-18 -0.70710677 -0.70710677 199 199 199 255
-0.043492444 0.105 0.14499998 -5.538431E-18 -0.70710677 -0.70710677 199 199 199 255
0.051776674 0.12499997 0.125 -5.538431E-18 -0.70710677 -0.70710677 199 199 199 255
-0.051776703 0.12499997 0.125 -5.538431E-18 -0.70710677 -0.70710677 199 199 199 255
-0.10500002 0.043492418 0.14499998 0 -0 -1 199 199 199 255
-0.09000002 -0.037279222 0.14499998 0 -0 -1 199 199 199 255
-0.10500002 -0.043492444 0.14499998 0 -0 -1 199 199 199 255
-0.043492444 -0.10500002 0.14499998 0 -0 -1 199 199 199 255
-0.037279222 -0.09000002 0.14499998 0 -0 -1 199 199 199 255
0.037279196 -0.09000002 0.14499998 0 -0 -1 199 199 199 255
0.043492418 -0.10500002 0.14499998 0 -0 -1 199 199 199 255
0.089999996 -0.037279222 0.14499998 0 -0 -1 199 199 199 255
0.089999996 0.037279196 0.14499998 0 -0 -1 199 199 199 255
0.105 -0.043492444 0.14499998 0 -0 -1 199 199 199 255
-0.09000002 0.037279196 0.14499998 0 -0 -1 199 199 199 255
-0.043492444 0.105 0.14499998 0 -0 -1 199 199 199 255
-0.037279222 0.089999996 0.14499998 0 -0 -1 199 199 199 255
0.037279196 0.089999996 0.14499998 0 -0 -1 199 199 199 255
0.043492418 0.105 0.14499998 0 -0 -1 199 199 199 255
0.105 0.043492418 0.14499998 0 -0 -1 199 199 199 255
0.105 0.043492418 0.14499998 -0.70710677 1.1603549E-30 -0.70710677 199 199 199 255
0.12499997 0.051776674 0.125 -0.70710677 1.1603549E-30 -0.70710677 199 199 199 255
0.105 -0.043492444 0.14499998 -0.70710677 1.1603549E-30 -0.70710677 199 199 199 255
0.12499997 -0.051776703 0.125 -0.70710677 1.1603549E-30 -0.70710677 199 199 199 255
-0.125 0.051776674 0.125 0.5 -0.5 -0.7071067 199 199 199 255
-0.051776703 0.12499997 0.125 0.5 -0.5 -0.7071067 199 199 199 255
-0.10500002 0.043492418 0.14499998 0.5 -0.5 -0.7071067 199 199 199 255
-0.043492444 0.105 0.14499998 0.5 -0.5 -0.7071067 199 199 199 255
-0.10500002 0.043492418 0.14499998 0.70710677 -1.3587059E-30 -0.70710677 199 199 199 255
-0.10500002 -0.043492444 0.14499998 0.70710677 -1.3587059E-30 -0.70710677 199 199 199 255
-0.125 0.051776674 0.125 0.70710677 -1.3587059E-30 -0.70710677 199 199 199 255
-0.125 -0.051776703 0.125 0.70710677 -1.3587059E-30 -0.70710677 199 199 199 255
-0.125 -0.051776703 0.125 0.5 0.5 -0.7071067 199 199 199 255
-0.10500002 -0.043492444 0.14499998 0.5 0.5 -0.7071067 199 199 199 255
-0.051776703 -0.125 0.125 0.5 0.5 -0.7071067 199 199 199 255
-0.043492444 -0.10500002 0.14499998 0.5 0.5 -0.7071067 199 199 199 255
-0.043492444 -0.10500002 0.14499998 0 0.70710677 -0.70710677 199 199 199 255
0.043492418 -0.10500002 0.14499998 0 0.70710677 -0.70710677 199 199 199 255
-0.051776703 -0.125 0.125 0 0.70710677 -0.70710677 199 199 199 255
0.051776674 -0.125 0.125 0 0.70710677 -0.70710677 199 199 199 255
0.043492418 -0.10500002 0.14499998 -0.5 0.5 -0.7071067 199 199 199 255
0.105 -0.043492444 0.14499998 -0.5 0.5 -0.7071067 199 199 199 255
0.051776674 -0.125 0.125 -0.5 0.5 -0.7071067 199 199 199 255
0.12499997 -0.051776703 0.125 -0.5 0.5 -0.7071067 199 199 199 255
-0.08000001 0.03313707 0.18499997 1 -0 -0 255 255 255 255
-0.08000001 -0.03313709 0.19499998 1 -0 -0 255 255 255 255
-0.08000001 -0.03313709 0.18499997 1 -0 -0 255 255 255 255
-0.08000001 0.03313707 0.19499998 1 -0 -0 255 255 255 255
0.03313707 0.07999998 0.18499997 0 -0 1 255 255 255 255
0.07999998 -0.03313709 0.18499997 0 -0 1 255 255 255 255
0.07999998 0.03313707 0.18499997 0 -0 1 255 255 255 255
0.03313707 -0.08000001 0.18499997 0 -0 1 255 255 255 255
0.02999999 0.012426393 0.18499997 0 -0 1 255 255 255 255
-0.03313709 0.07999998 0.18499997 0 -0 1 255 255 255 255
0.012426393 0.02999999 0.18499997 0 -0 1 255 255 255 255
-0.012426419 0.02999999 0.18499997 0 -0 1 255 255 255 255
-0.030000012 0.012426393 0.18499997 0 -0 1 255 255 255 255
-0.030000012 -0.012426419 0.18499997 0 -0 1 255 255 255 255
0.02999999 -0.012426419 0.18499997 0 -0 1 255 255 255 255
-0.03313709 -0.08000001 0.18499997 0 -0 1 255 255 255 255
0.012426393 -0.030000012 0.18499997 0 -0 1 255 255 255 255
-0.012426419 -0.030000012 0.18499997 0 -0 1 255 255 255 255
-0.08000001 0.03313707 0.18499997 0 -0 1 255 255 255 255
-0.08000001 -0.03313709 0.18499997 0 -0 1 255 255 255 255
-0.03313709 0.07999998 0.18499997 0.70710677 -0.70710677 -0 255 255 255 255
-0.08000001 0.03313707 0.19499998 0.70710677 -0.70710677 -0 255 255 255 255
-0.08000001 0.03313707 0.18499997 0.70710677 -0.70710677 -0 255 255 255 255
-0.03313709 0.07999998 0.19499998 0.70710677 -0.70710677 -0 255 255 255 255
-0.08000001 -0.03313709 0.18499997 0.70710677 0.70710677 -2.5323985E-16 255 255 255 255
-0.03313709 -0.08000001 0.19499998 0.70710677 0.70710677 -2.5323985E-16 255 255 255 255
-0.03313709 -0.08000001 0.18499997 0.70710677 0.70710677 -2.5323985E-16 255 255 255 255
-0.08000001 -0.03313709 0.19499998 0.70710677 0.70710677 -2.5323985E-16 255 255 255 255
-0.03313709 -0.08000001 0.19499998 0 1 -0 255 255 255 255
0.03313707 -0.08000001 0.18499997 0 1 -0 255 255 255 255
-0.03313709 -0.08000001 0.18499997 0 1 -0 255 255 255 255
0.03313707 -0.08000001 0.19499998 0 1 -0 255 255 255 255
0.07999998 -0.03313709 0.19499998 -0.70710677 0.70710677 2.5323985E-16 255 255 255 255
0.03313707 -0.08000001 0.18499997 -0.70710677 0.70710677 2.5323985E-16 255 255 255 255
0.03313707 -0.08000001 0.19499998 -0.70710677 0.70710677 2.5323985E-16 255 255 255 255
0.07999998 -0.03313709 0.18499997 -0.70710677 0.70710677 2.5323985E-16 255 255 255 255
0.07999998 0.03313707 0.19499998 -1 -0 -0 255 255 255 255
0.07999998 -0.03313709 0.18499997 -1 -0 -0 255 255 255 255
0.07999998 -0.03313709 0.19499998 -1 -0 -0 255 255 255 255
0.07999998 0.03313707 0.18499997 -1 -0 -0 255 255 255 255
0.03313707 0.07999998 0.19499998 -0.70710677 -0.70710677 2.5323985E-16 255 255 255 255
0.07999998 0.03313707 0.18499997 -0.70710677 -0.70710677 2.5323985E-16 255 255 255 255
0.07999998 0.03313707 0.19499998 -0.70710677 -0.70710677 2.5323985E-16 255 255 255 255
0.03313707 0.07999998 0.18499997 -0.70710677 -0.70710677 2.5323985E-16 255 255 255 255
0.03313707 0.07999998 0.19499998 0 -1 -0 255 255 255 255
-0.03313709 0.07999998 0.18499997 0 -1 -0 255 255 255 255
0.03313707 0.07999998 0.18499997 0 -1 -0 255 255 255 255
-0.03313709 0.07999998 0.19499998 0 -1 -0 255 255 255 255
-0.08000001 0.03313707 0.19499998 -1 -0 -0 199 199 199 255
-0.08000001 0.03313707 0.18499997 -1 -0 -0 199 199 199 255
-0.08000001 -0.03313709 0.19499998 -1 -0 -0 199 199 199 255
-0.08000001 -0.03313709 0.18499997 -1 -0 -0 199 199 199 255
-0.08000001 -0.03313709 0.18499997 0 -0 -1 199 199 199 255
-0.08000001 0.03313707 0.18499997 0 -0 -1 199 199 199 255
-0.03313709 -0.08000001 0.18499997 0 -0 -1 199 199 199 255
-0.03313709 0.07999998 0.18499997 0 -0 -1 199 199 199 255
-0.030000012 -0.012426419 0.18499997 0 -0 -1 199 199 199 255
-0.012426419 -0.030000012 0.18499997 0 -0 -1 199 199 199 255
0.012426393 -0.030000012 0.18499997 0 -0 -1 199 199 199 255
0.02999999 -0.012426419 0.18499997 0 -0 -1 199 199 199 255
0.02999999 0.012426393 0.18499997 0 -0 -1 199 199 199 255
0.03313707 -0.08000001 0.18499997 0 -0 -1 199 199 199 255
-0.030000012 0.012426393 0.18499997 0 -0 -1 199 199 199 255
-0.012426419 0.02999999 0.18499997 0 -0 -1 199 199 199 255
0.012426393 0.02999999 0.18499997 0 -0 -1 199 199 199 255
0.03313707 0.07999998 0.18499997 0 -0 -1 199 199 199 255
0.07999998 -0.03313709 0.18499997 0 -0 -1 199 199 199 255
0.07999998 0.03313707 0.18499997 0 -0 -1 199 199 199 255
-0.03313709 0.07999998 0.19499998 -0.70710677 0.70710677 -0 199 199 199 255
-0.03313709 0.07999998 0.18499997 -0.70710677 0.70710677 -0 199 199 199 255
-0.08000001 0.03313707 0.19499998 -0.70710677 0.70710677 -0 199 199 199 255
-0.08000001 0.03313707 0.18499997 -0.70710677 0.70710677 -0 199 199 199 255
-0.08000001 -0.03313709 0.19499998 -0.70710677 -0.70710677 2.5323985E-16 199 199 199 255
-0.08000001 -0.03313709 0.18499997 -0.70710677 -0.70710677 2.5323985E-16 199 199 199 255
-0.03313709 -0.08000001 0.19499998 -0.70710677 -0.70710677 2.5323985E-16 199 199 199 255
-0.03313709 -0.08000001 0.18499997 -0.70710677 -0.70710677 2.5323985E-16 199 199 199 255
0.03313707 -0.08000001 0.19499998 0 -1 -0 199 199 199 255
-0.03313709 -0.08000001 0.19499998 0 -1 -0 199 199 199 255
0.03313707 -0.08000001 0.18499997 0 -1 -0 199 199 199 255
-0.03313709 -0.08000001 0.18499997 0 -1 -0 199 199 199 255
0.07999998 -0.03313709 0.18499997 0.70710677 -0.70710677 -2.5323985E-16 199 199 199 255
0.07999998 -0.03313709 0.19499998 0.70710677 -0.70710677 -2.5323985E-16 199 199 199 255
0.03313707 -0.08000001 0.18499997 0.70710677 -0.70710677 -2.5323985E-16 199 199 199 255
0.03313707 -0.08000001 0.19499998 0.70710677 -0.70710677 -2.5323985E-16 199 199 199 255
0.07999998 0.03313707 0.18499997 1 -0 -0 199 199 199 255
0.07999998 0.03313707 0.19499998 1 -0 -0 199 199 199 255
0.07999998 -0.03313709 0.18499997 1 -0 -0 199 199 199 255
0.07999998 -0.03313709 0.19499998 1 -0 -0 199 199 199 255
0.03313707 0.07999998 0.18499997 0.70710677 0.70710677 -2.5323985E-16 199 199 199 255
0.03313707 0.07999998 0.19499998 0.70710677 0.70710677 -2.5323985E-16 199 199 199 255
0.07999998 0.03313707 0.18499997 0.70710677 0.70710677 -2.5323985E-16 199 199 199 255
0.07999998 0.03313707 0.19499998 0.70710677 0.70710677 -2.5323985E-16 199 199 199 255
-0.03313709 0.07999998 0.19499998 0 1 -0 199 199 199 255
0.03313707 0.07999998 0.19499998 0 1 -0 199 199 199 255
-0.03313709 0.07999998 0.18499997 0 1 -0 199 199 199 255
0.03313707 0.07999998 0.18499997 0 1 -0 199 199 199 255
-0.012426419 0.02999999 0.19499998 0 1 -0 255 255 255 255
0.012426393 0.02999999 0.18499997 0 1 -0 255 255 255 255
-0.012426419 0.02999999 0.18499997 0 1 -0 255 255 255 255
0.012426393 0.02999999 0.19499998 0 1 -0 255 255 255 255
-0.012426419 0.02999999 0.19499998 -0.70710677 0.70710677 2.2492215E-31 255 255 255 255
-0.030000012 0.012426393 0.18499997 -0.70710677 0.70710677 2.2492215E-31 255 255 255 255
-0.030000012 0.012426393 0.19499998 -0.70710677 0.70710677 2.2492215E-31 255 255 255 255
-0.012426419 0.02999999 0.18499997 -0.70710677 0.70710677 2.2492215E-31 255 255 255 255
0.012426393 0.02999999 0.19499998 0 -0 1 255 255 255 255
0.02999999 -0.012426419 0.19499998 0 -0 1 255 255 255 255
0.02999999 0.012426393 0.19499998 0 -0 1 255 255 255 255
0.012426393 -0.030000012 0.19499998 0 -0 1 255 255 255 255
-0.012426419 0.02999999 0.19499998 0 -0 1 255 255 255 255
-0.012426419 -0.030000012 0.19499998 0 -0 1 255 255 255 255
-0.030000012 0.012426393 0.19499998 0 -0 1 255 255 255 255
-0.030000012 -0.012426419 0.19499998 0 -0 1 255 255 255 255
0.012426393 0.02999999 0.19499998 0.70710677 0.70710677 4.4984443E-31 255 255 255 255
0.02999999 0.012426393 0.18499997 0.70710677 0.70710677 4.4984443E-31 255 255 255 255
0.012426393 0.02999999 0.18499997 0.70710677 0.70710677 4.4984443E-31 255 255 255 255
0.02999999 0.012426393 0.19499998 0.70710677 0.70710677 4.4984443E-31 255 255 255 255
-0.030000012 0.012426393 0.19499998 -1 -0 -0 255 255 255 255
-0.030000012 -0.012426419 0.18499997 -1 -0 -0 255 255 255 255
-0.030000012 -0.012426419 0.19499998 -1 -0 -0 255 255 255 255
-0.030000012 0.012426393 0.18499997 -1 -0 -0 255 255 255 255
-0.030000012 -0.012426419 0.19499998 -0.70710677 -0.70710677 -8.996889E-31 255 255 255 255
-0.012426419 -0.030000012 0.18499997 -0.70710677 -0.70710677 -8.996889E-31 255 255 255 255
-0.012426419 -0.030000012 0.19499998 -0.70710677 -0.70710677 -8.996889E-31 255 255 255 255
-0.030000012 -0.012426419 0.18499997 -0.70710677 -0.70710677 -8.996889E-31 255 255 255 255
0.012426393 -0.030000012 0.19499998 0 -1 -0 255 255 255 255
-0.012426419 -0.030000012 0.18499997 0 -1 -0 255 255 255 255
0.012426393 -0.030000012 0.18499997 0 -1 -0 255 255 255 255
-0.012426419 -0.030000012 0.19499998 0 -1 -0 255 255 255 255
0.02999999 -0.012426419 0.18499997 0.70710677 -0.70710677 -1.5744559E-30 255 255 255 255
0.012426393 -0.030000012 0.19499998 0.70710677 -0.70710677 -1.5744559E-30 255 255 255 255
0.012426393 -0.030000012 0.18499997 0.70710677 -0.70710677 -1.5744559E-30 255 255 255 255
0.02999999 -0.012426419 0.19499998 0.70710677 -0.70710677 -1.5744559E-30 255 255 255 255
0.02999999 0.012426393 0.18499997 1 -0 -0 255 255 255 255
0.02999999 -0.012426419 0.19499998 1 -0 -0 255 255 255 255
0.02999999 -0.012426419 0.18499997 1 -0 -0 255 255 255 255
0.02999999 0.012426393 0.19499998 1 -0 -0 255 255 255 255
0.012426393 0.02999999 0.19499998 0 -1 -0 199 199 199 255
-0.012426419 0.02999999 0.19499998 0 -1 -0 199 199 199 255
0.012426393 0.02999999 0.18499997 0 -1 -0 199 199 199 255
-0.012426419 0.02999999 0.18499997 0 -1 -0 199 199 199 255
-0.012426419 0.02999999 0.18499997 0.70710677 -0.70710677 -2.2492215E-31 199 199 199 255
-0.012426419 0.02999999 0.19499998 0.70710677 -0.70710677 -2.2492215E-31 199 199 199 255
-0.030000012 0.012426393 0.18499997 0.70710677 -0.70710677 -2.2492215E-31 199 199 199 255
-0.030000012 0.012426393 0.19499998 0.70710677 -0.70710677 -2.2492215E-31 199 199 199 255
-0.030000012 -0.012426419 0.19499998 0 -0 -1 199 199 199 255
-0.030000012 0.012426393 0.19499998 0 -0 -1 199 199 199 255
-0.012426419 -0.030000012 0.19499998 0 -0 -1 199 199 199 255
-0.012426419 0.02999999 0.19499998 0 -0 -1 199 199 199 255
0.012426393 -0.030000012 0.19499998 0 -0 -1 199 199 199 255
0.012426393 0.02999999 0.19499998 0 -0 -1 199 199 199 255
0.02999999 -0.012426419 0.19499998 0 -0 -1 199 199 199 255
0.02999999 0.012426393 0.19499998 0 -0 -1 199 199 199 255
0.02999999 0.012426393 0.19499998 -0.70710677 -0.70710677 -4.4984443E-31 199 199 199 255
0.012426393 0.02999999 0.19499998 -0.70710677 -0.70710677 -4.4984443E-31 199 199 199 255
0.02999999 0.012426393 0.18499997 -0.70710677 -0.70710677 -4.4984443E-31 199 199 199 255
0.012426393 0.02999999 0.18499997 -0.70710677 -0.70710677 -4.4984443E-31 199 199 199 255
-0.030000012 0.012426393 0.18499997 1 -0 -0 199 199 199 255
-0.030000012 0.012426393 0.19499998 1 -0 -0 199 199 199 255
-0.030000012 -0.012426419 0.18499997 1 -0 -0 199 199 199 255
-0.030000012 -0.012426419 0.19499998 1 -0 -0 199 199 199 255
-0.030000012 -0.012426419 0.18499997 0.70710677 0.70710677 8.996889E-31 199 199 199 255
-0.030000012 -0.012426419 0.19499998 0.70710677 0.70710677 8.996889E-31 199 199 199 255
-0.012426419 -0.030000012 0.18499997 0.70710677 0.70710677 8.996889E-31 199 199 199 255
-0.012426419 -0.030000012 0.19499998 0.70710677 0.70710677 8.996889E-31 199 199 199 255
-0.012426419 -0.030000012 0.19499998 0 1 -0 199 199 199 255
0.012426393 -0.030000012 0.19499998 0 1 -0 199 199 199 255
-0.012426419 -0.030000012 0.18499997 0 1 -0 199 199 199 255
0.012426393 -0.030000012 0.18499997 0 1 -0 199 199 199 255
0.02999999 -0.012426419 0.19499998 -0.70710677 0.70710677 1.5744559E-30 199 199 199 255
0.02999999 -0.012426419 0.18499997 -0.70710677 0.70710677 1.5744559E-30 199 199 199 255
0.012426393 -0.030000012 0.19499998 -0.70710677 0.70710677 1.5744559E-30 199 199 199 255
0.012426393 -0.030000012 0.18499997 -0.70710677 0.70710677 1.5744559E-30 199 199 199 255
0.02999999 0.012426393 0.19499998 -1 -0 -0 199 199 199 255
0.02999999 0.012426393 0.18499997 -1 -0 -0 199 199 199 255
0.02999999 -0.012426419 0.19499998 -1 -0 -0 199 199 199 255
0.02999999 -0.012426419 0.18499997 -1 -0 -0 199 199 199 255
-0.037279222 0.089999996 0.19499998 0 1 -0 255 255 255 255
0.037279196 0.089999996 0.14499998 0 1 -0 255 255 255 255
-0.037279222 0.089999996 0.14499998 0 1 -0 255 255 255 255
0.037279196 0.089999996 0.19499998 0 1 -0 255 255 255 255
-0.037279222 0.089999996 0.19499998 -0.70710677 0.70710677 -7.197518E-32 255 255 255 255
-0.09000002 0.037279196 0.14499998 -0.70710677 0.70710677 -7.197518E-32 255 255 255 255
-0.09000002 0.037279196 0.19499998 -0.70710677 0.70710677 -7.197518E-32 255 255 255 255
-0.037279222 0.089999996 0.14499998 -0.70710677 0.70710677 -7.197518E-32 255 255 255 255
0.089999996 0.037279196 0.19499998 0 -0 1 255 255 255 255
0.07999998 0.03313707 0.19499998 0 -0 1 255 255 255 255
0.089999996 -0.037279222 0.19499998 0 -0 1 255 255 255 255
0.037279196 0.089999996 0.19499998 0 -0 1 255 255 255 255
0.03313707 0.07999998 0.19499998 0 -0 1 255 255 255 255
-0.037279222 0.089999996 0.19499998 0 -0 1 255 255 255 255
-0.03313709 0.07999998 0.19499998 0 -0 1 255 255 255 255
-0.08000001 0.03313707 0.19499998 0 -0 1 255 255 255 255
-0.09000002 0.037279196 0.19499998 0 -0 1 255 255 255 255
-0.08000001 -0.03313709 0.19499998 0 -0 1 255 255 255 255
0.07999998 -0.03313709 0.19499998 0 -0 1 255 255 255 255
0.037279196 -0.09000002 0.19499998 0 -0 1 255 255 255 255
0.03313707 -0.08000001 0.19499998 0 -0 1 255 255 255 255
-0.037279222 -0.09000002 0.19499998 0 -0 1 255 255 255 255
-0.03313709 -0.08000001 0.19499998 0 -0 1 255 255 255 255
-0.09000002 -0.037279222 0.19499998 0 -0 1 255 255 255 255
0.037279196 0.089999996 0.14499998 0.70710677 0.70710677 -7.197518E-32 255 255 255 255
0.089999996 0.037279196 0.19499998 0.70710677 0.70710677 -7.197518E-32 255 255 255 255
0.089999996 0.037279196 0.14499998 0.70710677 0.70710677 -7.197518E-32 255 255 255 255
0.037279196 0.089999996 0.19499998 0.70710677 0.70710677 -7.197518E-32 255 255 255 255
-0.09000002 0.037279196 0.19499998 -1 -0 -0 255 255 255 255
-0.09000002 -0.037279222 0.14499998 -1 -0 -0 255 255 255 255
-0.09000002 -0.037279222 0.19499998 -1 -0 -0 255 255 255 255
-0.09000002 0.037279196 0.14499998 -1 -0 -0 255 255 255 255
-0.09000002 -0.037279222 0.19499998 -0.70710677 -0.70710677 7.197518E-32 255 255 255 255
-0.037279222 -0.09000002 0.14499998 -0.70710677 -0.70710677 7.197518E-32 255 255 255 255
-0.037279222 -0.09000002 0.19499998 -0.70710677 -0.70710677 7.197518E-32 255 255 255 255
-0.09000002 -0.037279222 0.14499998 -0.70710677 -0.70710677 7.197518E-32 255 255 255 255
0.037279196 -0.09000002 0.19499998 0 -1 -0 255 255 255 255
-0.037279222 -0.09000002 0.14499998 0 -1 -0 255 255 255 255
0.037279196 -0.09000002 0.14499998 0 -1 -0 255 255 255 255
-0.037279222 -0.09000002 0.19499998 0 -1 -0 255 255 255 255
0.089999996 -0.037279222 0.14499998 0.70710677 -0.70710677 -7.197518E-32 255 255 255 255
0.037279196 -0.09000002 0.19499998 0.70710677 -0.70710677 -7.197518E-32 255 255 255 255
0.037279196 -0.09000002 0.14499998 0.70710677 -0.70710677 -7.197518E-32 255 255 255 255
0.089999996 -0.037279222 0.19499998 0.70710677 -0.70710677 -7.197518E-32 255 255 255 255
0.089999996 0.037279196 0.14499998 1 -0 -0 255 255 255 255
0.089999996 -0.037279222 0.19499998 1 -0 -0 255 255 255 255
0.089999996 -0.037279222 0.14499998 1 -0 -0 255 255 255 255
0.089999996 0.037279196 0.19499998 1 -0 -0 255 255 255 255
0.037279196 0.089999996 0.19499998 0 -1 -0 199 199 199 255
-0.037279222 0.089999996 0.19499998 0 -1 -0 199 199 199 255
0.037279196 0.089999996 0.14499998 0 -1 -0 199 199 199 255
-0.037279222 0.089999996 0.14499998 0 -1 -0 199 199 199 255
-0.037279222 0.089999996 0.14499998 0.70710677 -0.70710677 7.197518E-32 199 199 199 255
-0.037279222 0.089999996 0.19499998 0.70710677 -0.70710677 7.197518E-32 199 199 199 255
-0.09000002 0.037279196 0.14499998 0.70710677 -0.70710677 7.197518E-32 199 199 199 255
-0.09000002 0.037279196 0.19499998 0.70710677 -0.70710677 7.197518E-32 199 199 199 255
-0.09000002 0.037279196 0.19499998 0 -0 -1 199 199 199 255
-0.08000001 -0.03313709 0.19499998 0 -0 -1 199 199 199 255
-0.09000002 -0.037279222 0.19499998 0 -0 -1 199 199 199 255
-0.037279222 -0.09000002 0.19499998 0 -0 -1 199 199 199 255
-0.03313709 -0.08000001 0.19499998 0 -0 -1 199 199 199 255
0.03313707 -0.08000001 0.19499998 0 -0 -1 199 199 199 255
0.037279196 -0.09000002 0.19499998 0 -0 -1 199 199 199 255
0.07999998 -0.03313709 0.19499998 0 -0 -1 199 199 199 255
0.07999998 0.03313707 0.19499998 0 -0 -1 199 199 199 255
0.089999996 -0.037279222 0.19499998 0 -0 -1 199 199 199 255
-0.08000001 0.03313707 0.19499998 0 -0 -1 199 199 199 255
-0.037279222 0.089999996 0.19499998 0 -0 -1 199 199 199 255
-0.03313709 0.07999998 0.19499998 0 -0 -1 199 199 199 255
0.03313707 0.07999998 0.19499998 0 -0 -1 199 199 199 255
0.037279196 0.089999996 0.19499998 0 -0 -1 199 199 199 255
0.089999996 0.037279196 0.19499998 0 -0 -1 199 199 199 255
0.037279196 0.089999996 0.19499998 -0.70710677 -0.70710677 7.197518E-32 199 199 199 255
0.037279196 0.089999996 0.14499998 -0.70710677 -0.70710677 7.197518E-32 199 199 199 255
0.089999996 0.037279196 0.19499998 -0.70710677 -0.70710677 7.197518E-32 199 199 199 255
0.089999996 0.037279196 0.14499998 -0.70710677 -0.70710677 7.197518E-32 199 199 199 255
-0.09000002 0.037279196 0.14499998 1 -0 -0 199 199 199 255
-0.09000002 0.037279196 0.19499998 1 -0 -0 199 199 199 255
-0.09000002 -0.037279222 0.14499998 1 -0 -0 199 199 199 255
-0.09000002 -0.037279222 0.19499998 1 -0 -0 199 199 199 255
-0.09000002 -0.037279222 0.14499998 0.70710677 0.70710677 -7.197518E-32 199 199 199 255
-0.09000002 -0.037279222 0.19499998 0.70710677 0.70710677 -7.197518E-32 199 199 199 255
-0.037279222 -0.09000002 0.14499998 0.70710677 0.70710677 -7.197518E-32 199 199 199 255
-0.037279222 -0.09000002 0.19499998 0.70710677 0.70710677 -7.197518E-32 199 199 199 255
-0.037279222 -0.09000002 0.19499998 0 1 -0 199 199 199 255
0.037279196 -0.09000002 0.19499998 0 1 -0 199 199 199 255
-0.037279222 -0.09000002 0.14499998 0 1 -0 199 199 199 255
0.037279196 -0.09000002 0.14499998 0 1 -0 199 199 199 255
0.089999996 -0.037279222 0.19499998 -0.70710677 0.70710677 7.197518E-32 199 199 199 255
0.089999996 -0.037279222 0.14499998 -0.70710677 0.70710677 7.197518E-32 199 199 199 255
0.037279196 -0.09000002 0.19499998 -0.70710677 0.70710677 7.197518E-32 199 199 199 255
0.037279196 -0.09000002 0.14499998 -0.70710677 0.70710677 7.197518E-32 199 199 199 255
0.089999996 0.037279196 0.19499998 -1 -0 -0 199 199 199 255
0.089999996 0.037279196 0.14499998 -1 -0 -0 199 199 199 255
0.089999996 -0.037279222 0.19499998 -1 -0 -0 199 199 199 255
0.089999996 -0.037279222 0.14499998 -1 -0 -0 199 199 199 255
0.051776674 -0.125 0.125 0 -0 -1 255 125 0 255
0.12499997 -0.051776703 0.125 0 -0 -1 255 125 0 255
0.12499997 -0.125 0.125 0 -0 -1 255 125 0 255
0.12499997 0.125 -0.125 -3.154553E-14 -2.607656E-14 1 55 125 0 255
0.06249997 0.025888337 -0.125 -3.154553E-14 -2.607656E-14 1 55 125 0 255
0.12499997 -0.125 -0.125 -3.154553E-14 -2.607656E-14 1 55 125 0 255
0.025888314 0.0625 -0.125 -3.154553E-14 -2.607656E-14 1 55 125 0 255
-0.12500001 0.125 -0.125 -3.154553E-14 -2.607656E-14 1 55 125 0 255
-0.025888363 0.0625 -0.125 -3.154553E-14 -2.607656E-14 1 55 125 0 255
-0.06250002 0.025888337 -0.125 -3.154553E-14 -2.607656E-14 1 55 125 0 255
-0.06250002 -0.025888337 -0.125 -3.154553E-14 -2.607656E-14 1 55 125 0 255
0.025888314 -0.0625 -0.125 -3.154553E-14 -2.607656E-14 1 55 125 0 255
-0.12500001 -0.125 -0.125 -3.154553E-14 -2.607656E-14 1 55 125 0 255
0.06249997 -0.025888337 -0.125 -3.154553E-14 -2.607656E-14 1 55 125 0 255
-0.025888363 -0.0625 -0.125 -3.154553E-14 -2.607656E-14 1 55 125 0 255
3 0 1 2
3 3 4 5
3 6 7 8
3 9 10 11
3 10 9 12
3 13 14 15
3 14 13 16
3 17 18 19
3 18 17 20
3 18 20 21
3 21 20 22
3 21 22 23
3 23 22 24
3 24 22 25
3 24 25 26
3 19 27 28
3 27 19 18
3 28 27 29
3 28 29 30
3 30 29 31
3 30 31 26
3 30 26 32
3 32 26 25
3 33 34 35
3 34 33 36
3 37 38 39
3 38 37 40
3 41 42 43
3 42 41 44
3 45 46 47
3 46 45 48
3 49 50 51
3 50 49 52
3 53 54 55
3 54 53 56
3 57 58 59
3 60 59 58
3 61 62 63
3 64 63 62
3 65 66 67
3 67 66 68
3 66 69 68
3 69 70 68
3 68 70 71
3 70 72 71
3 73 74 72
3 71 72 74
3 66 65 75
3 65 76 75
3 75 76 77
3 77 76 78
3 76 79 78
3 78 79 73
3 79 80 73
3 74 73 80
3 81 82 83
3 84 83 82
3 85 86 87
3 88 87 86
3 89 90 91
3 92 91 90
3 93 94 95
3 96 95 94
3 97 98 99
3 100 99 98
3 101 102 103
3 104 103 102
3 105 106 107
3 106 105 108
3 109 110 111
3 110 109 112
3 112 109 113
3 113 109 114
3 113 114 115
3 115 114 116
3 116 114 117
3 117 114 118
3 112 119 120
3 119 112 113
3 120 119 121
3 120 121 122
3 120 122 118
3 120 118 114
3 120 114 123
3 120 123 124
3 125 126 127
3 126 125 128
3 129 130 131
3 130 129 132
3 133 134 135
3 134 133 136
3 137 138 139
3 138 137 140
3 141 142 143
3 142 141 144
3 145 146 147
3 146 145 148
3 149 150 151
3 150 149 152
3 153 154 155
3 156 155 154
3 157 158 159
3 158 160 159
3 160 161 159
3 161 162 159
3 162 163 159
3 163 164 159
3 165 166 164
3 159 164 166
3 161 160 167
3 167 160 168
3 168 160 169
3 169 160 165
3 160 170 165
3 165 170 166
3 166 170 171
3 172 171 170
3 173 174 175
3 176 175 174
3 177 178 179
3 180 179 178
3 181 182 183
3 184 183 182
3 185 186 187
3 188 187 186
3 189 190 191
3 192 191 190
3 193 194 195
3 196 195 194
3 197 198 199
3 200 199 198
3 201 202 203
3 202 201 204
3 205 206 207
3 206 205 208
3 209 210 211
3 210 209 212
3 212 209 213
3 212 213 214
3 214 213 215
3 214 215 216
3 217 218 219
3 218 217 220
3 221 222 223
3 222 221 224
3 225 226 227
3 226 225 228
3 229 230 231
3 230 229 232
3 233 234 235
3 234 233 236
3 237 238 239
3 238 237 240
3 241 242 243
3 244 243 242
3 245 246 247
3 248 247 246
3 249 250 251
3 250 252 251
3 251 252 253
3 252 254 253
3 253 254 255
3 256 255 254
3 257 258 259
3 260 259 258
3 261 262 263
3 264 263 262
3 265 266 267
3 268 267 266
3 269 270 271
3 272 271 270
3 273 274 275
3 276 275 274
3 277 278 279
3 280 279 278
3 281 282 283
3 282 281 284
3 285 286 287
3 286 285 288
3 289 290 291
3 290 289 292
3 290 292 293
3 293 292 294
3 293 294 295
3 295 294 296
3 296 294 297
3 296 297 298
3 291 299 300
3 299 291 290
3 300 299 301
3 300 301 302
3 302 301 303
3 302 303 298
3 302 298 304
3 304 298 297
3 305 306 307
3 306 305 308
3 309 310 311
3 310 309 312
3 313 314 315
3 314 313 316
3 317 318 319
3 318 317 320
3 321 322 323
3 322 321 324
3 325 326 327
3 326 325 328
3 329 330 331
3 332 331 330
3 333 334 335
3 336 335 334
3 337 338 339
3 339 338 340
3 338 341 340
3 341 342 340
3 340 342 343
3 342 344 343
3 345 346 344
3 343 344 346
3 338 337 347
3 337 348 347
3 347 348 349
3 349 348 350
3 348 351 350
3 350 351 345
3 351 352 345
3 346 345 352
3 353 354 355
3 356 355 354
3 357 358 359
3 360 359 358
3 361 362 363
3 364 363 362
3 365 366 367
3 368 367 366
3 369 370 371
3 372 371 370
3 373 374 375
3 376 375 374
3 377 378 379
3 380 381 382
3 381 380 383
3 383 380 384
3 383 384 385
3 385 384 386
3 386 384 387
3 382 388 389
3 388 382 390
3 390 382 381
3 389 388 391
3 389 391 387
3 389 387 384

