ply
format ascii 1.0
commentY29udmVydGVyIGJ5IENvZGVMZW9wYXJk
comment Original mesh name: 'C:\Program Files (x86)\Steam\steamapps\common\Stormworks\rom\meshes\component_button_keypad_small_dynamic.mesh'
comment SubMesh index: 1
comment SubMesh name: 'ID13'
comment Shader: Opaque (0)
element vertex 360
property float x
property float y
property float z
property float nx
property float ny
property float nz
property uchar red
property uchar green
property uchar blue
property uchar alpha
element face 180
property list uchar ushort vertex_index
end_header
-0.058000006 -0.07000001 0.127 1.57381E-14 -0 -1 255 255 0 255
-0.063 -0.06500001 0.127 1.57381E-14 -0 -1 255 255 0 255
-0.058000006 -0.030000016 0.127 1.57381E-14 -0 -1 255 255 0 255
-0.099999994 -0.07000001 0.127 1.57381E-14 -0 -1 255 255 0 255
-0.095 -0.06500001 0.127 1.57381E-14 -0 -1 255 255 0 255
-0.095 -0.035000004 0.127 1.57381E-14 -0 -1 255 255 0 255
-0.063 -0.035000004 0.127 1.57381E-14 -0 -1 255 255 0 255
-0.099999994 -0.030000016 0.127 1.57381E-14 -0 -1 255 255 0 255
0.047200006 0.029819395 0.127 1.57381E-14 -0 -1 255 255 0 255
0.042200003 0.034819394 0.127 1.57381E-14 -0 -1 255 255 0 255
0.047200006 0.06981939 0.127 1.57381E-14 -0 -1 255 255 0 255
0.0052000163 0.029819395 0.127 1.57381E-14 -0 -1 255 255 0 255
0.010200005 0.034819394 0.127 1.57381E-14 -0 -1 255 255 0 255
0.010200005 0.064819396 0.127 1.57381E-14 -0 -1 255 255 0 255
0.042200003 0.064819396 0.127 1.57381E-14 -0 -1 255 255 0 255
0.0052000163 0.06981939 0.127 1.57381E-14 -0 -1 255 255 0 255
0.09979999 -0.0201806 0.127 1.57381E-14 -0 -1 255 255 0 255
0.094799995 -0.015180599 0.127 1.57381E-14 -0 -1 255 255 0 255
0.09979999 0.019819394 0.127 1.57381E-14 -0 -1 255 255 0 255
0.057800002 -0.0201806 0.127 1.57381E-14 -0 -1 255 255 0 255
0.06279999 -0.015180599 0.127 1.57381E-14 -0 -1 255 255 0 255
0.06279999 0.014819406 0.127 1.57381E-14 -0 -1 255 255 0 255
0.094799995 0.014819406 0.127 1.57381E-14 -0 -1 255 255 0 255
0.057800002 0.019819394 0.127 1.57381E-14 -0 -1 255 255 0 255
-0.058000006 0.02999999 0.127 1.57381E-14 -0 -1 255 255 0 255
-0.063 0.03499999 0.127 1.57381E-14 -0 -1 255 255 0 255
-0.058000006 0.069999985 0.127 1.57381E-14 -0 -1 255 255 0 255
-0.099999994 0.02999999 0.127 1.57381E-14 -0 -1 255 255 0 255
-0.095 0.03499999 0.127 1.57381E-14 -0 -1 255 255 0 255
-0.095 0.065 0.127 1.57381E-14 -0 -1 255 255 0 255
-0.063 0.065 0.127 1.57381E-14 -0 -1 255 255 0 255
-0.099999994 0.069999985 0.127 1.57381E-14 -0 -1 255 255 0 255
-0.0053999987 -0.0201806 0.127 1.57381E-14 -0 -1 255 255 0 255
-0.010399999 -0.015180599 0.127 1.57381E-14 -0 -1 255 255 0 255
-0.0053999987 0.019819394 0.127 1.57381E-14 -0 -1 255 255 0 255
-0.04739999 -0.0201806 0.127 1.57381E-14 -0 -1 255 255 0 255
-0.042399995 -0.015180599 0.127 1.57381E-14 -0 -1 255 255 0 255
-0.042399995 0.014819406 0.127 1.57381E-14 -0 -1 255 255 0 255
-0.010399999 0.014819406 0.127 1.57381E-14 -0 -1 255 255 0 255
-0.04739999 0.019819394 0.127 1.57381E-14 -0 -1 255 255 0 255
-0.0053999987 -0.0701806 0.127 1.57381E-14 -0 -1 255 255 0 255
-0.010399999 -0.06518061 0.127 1.57381E-14 -0 -1 255 255 0 255
-0.0053999987 -0.03018061 0.127 1.57381E-14 -0 -1 255 255 0 255
-0.04739999 -0.0701806 0.127 1.57381E-14 -0 -1 255 255 0 255
-0.042399995 -0.06518061 0.127 1.57381E-14 -0 -1 255 255 0 255
-0.042399995 -0.0351806 0.127 1.57381E-14 -0 -1 255 255 0 255
-0.010399999 -0.0351806 0.127 1.57381E-14 -0 -1 255 255 0 255
-0.04739999 -0.03018061 0.127 1.57381E-14 -0 -1 255 255 0 255
-0.058000006 -0.02 0.127 1.57381E-14 -0 -1 255 255 0 255
-0.063 -0.015 0.127 1.57381E-14 -0 -1 255 255 0 255
-0.058000006 0.019999994 0.127 1.57381E-14 -0 -1 255 255 0 255
-0.099999994 -0.02 0.127 1.57381E-14 -0 -1 255 255 0 255
-0.095 -0.015 0.127 1.57381E-14 -0 -1 255 255 0 255
-0.095 0.015000005 0.127 1.57381E-14 -0 -1 255 255 0 255
-0.063 0.015000005 0.127 1.57381E-14 -0 -1 255 255 0 255
-0.099999994 0.019999994 0.127 1.57381E-14 -0 -1 255 255 0 255
0.047200006 -0.0701806 0.127 1.57381E-14 -0 -1 255 255 0 255
0.042200003 -0.06518061 0.127 1.57381E-14 -0 -1 255 255 0 255
0.047200006 -0.03018061 0.127 1.57381E-14 -0 -1 255 255 0 255
0.0052000163 -0.0701806 0.127 1.57381E-14 -0 -1 255 255 0 255
0.010200005 -0.06518061 0.127 1.57381E-14 -0 -1 255 255 0 255
0.010200005 -0.0351806 0.127 1.57381E-14 -0 -1 255 255 0 255
0.042200003 -0.0351806 0.127 1.57381E-14 -0 -1 255 255 0 255
0.0052000163 -0.03018061 0.127 1.57381E-14 -0 -1 255 255 0 255
-0.0053999987 0.029819395 0.127 1.57381E-14 -0 -1 255 255 0 255
-0.010399999 0.034819394 0.127 1.57381E-14 -0 -1 255 255 0 255
-0.0053999987 0.06981939 0.127 1.57381E-14 -0 -1 255 255 0 255
-0.04739999 0.029819395 0.127 1.57381E-14 -0 -1 255 255 0 255
-0.042399995 0.034819394 0.127 1.57381E-14 -0 -1 255 255 0 255
-0.042399995 0.064819396 0.127 1.57381E-14 -0 -1 255 255 0 255
-0.010399999 0.064819396 0.127 1.57381E-14 -0 -1 255 255 0 255
-0.04739999 0.06981939 0.127 1.57381E-14 -0 -1 255 255 0 255
0.047200006 -0.0201806 0.127 1.57381E-14 -0 -1 255 255 0 255
0.042200003 -0.015180599 0.127 1.57381E-14 -0 -1 255 255 0 255
0.047200006 0.019819394 0.127 1.57381E-14 -0 -1 255 255 0 255
0.0052000163 -0.0201806 0.127 1.57381E-14 -0 -1 255 255 0 255
0.010200005 -0.015180599 0.127 1.57381E-14 -0 -1 255 255 0 255
0.010200005 0.014819406 0.127 1.57381E-14 -0 -1 255 255 0 255
0.042200003 0.014819406 0.127 1.57381E-14 -0 -1 255 255 0 255
0.0052000163 0.019819394 0.127 1.57381E-14 -0 -1 255 255 0 255
-0.04739999 -0.0701806 0.125 2.4409501E-29 1 -1.9721518E-31 204 39 39 255
-0.0053999987 -0.0701806 0.105 2.4409501E-29 1 -1.9721518E-31 204 39 39 255
-0.04739999 -0.0701806 0.105 2.4409501E-29 1 -1.9721518E-31 204 39 39 255
-0.0053999987 -0.0701806 0.125 2.4409501E-29 1 -1.9721518E-31 204 39 39 255
-0.0053999987 -0.03018061 0.125 -1 -0 -0 204 39 39 255
-0.0053999987 -0.0701806 0.105 -1 -0 -0 204 39 39 255
-0.0053999987 -0.0701806 0.125 -1 -0 -0 204 39 39 255
-0.0053999987 -0.03018061 0.105 -1 -0 -0 204 39 39 255
-0.04739999 -0.03018061 0.105 1 -0 -0 204 39 39 255
-0.04739999 -0.0701806 0.125 1 -0 -0 204 39 39 255
-0.04739999 -0.0701806 0.105 1 -0 -0 204 39 39 255
-0.04739999 -0.03018061 0.125 1 -0 -0 204 39 39 255
-0.0053999987 -0.03018061 0.105 -2.4409501E-29 -1 1.9721518E-31 204 39 39 255
-0.04739999 -0.03018061 0.125 -2.4409501E-29 -1 1.9721518E-31 204 39 39 255
-0.04739999 -0.03018061 0.105 -2.4409501E-29 -1 1.9721518E-31 204 39 39 255
-0.0053999987 -0.03018061 0.125 -2.4409501E-29 -1 1.9721518E-31 204 39 39 255
-0.042399995 -0.06518061 0.125 1.550982E-14 1.5039821E-15 -1 204 39 39 255
-0.010399999 -0.0351806 0.125 1.550982E-14 1.5039821E-15 -1 204 39 39 255
-0.010399999 -0.06518061 0.125 1.550982E-14 1.5039821E-15 -1 204 39 39 255
-0.042399995 -0.0351806 0.125 1.550982E-14 1.5039821E-15 -1 204 39 39 255
-0.058000006 -0.02 0.125 1.57381E-14 -0 -1 255 125 0 255
-0.063 -0.015 0.125 1.57381E-14 -0 -1 255 125 0 255
-0.058000006 0.019999994 0.125 1.57381E-14 -0 -1 255 125 0 255
-0.099999994 -0.02 0.125 1.57381E-14 -0 -1 255 125 0 255
-0.095 -0.015 0.125 1.57381E-14 -0 -1 255 125 0 255
-0.095 0.015000005 0.125 1.57381E-14 -0 -1 255 125 0 255
-0.063 0.015000005 0.125 1.57381E-14 -0 -1 255 125 0 255
-0.099999994 0.019999994 0.125 1.57381E-14 -0 -1 255 125 0 255
-0.099999994 -0.02 0.125 2.4409501E-29 1 -1.9721518E-31 204 39 39 255
-0.058000006 -0.02 0.105 2.4409501E-29 1 -1.9721518E-31 204 39 39 255
-0.099999994 -0.02 0.105 2.4409501E-29 1 -1.9721518E-31 204 39 39 255
-0.058000006 -0.02 0.125 2.4409501E-29 1 -1.9721518E-31 204 39 39 255
-0.058000006 0.019999994 0.125 -1 -0 -0 204 39 39 255
-0.058000006 -0.02 0.105 -1 -0 -0 204 39 39 255
-0.058000006 -0.02 0.125 -1 -0 -0 204 39 39 255
-0.058000006 0.019999994 0.105 -1 -0 -0 204 39 39 255
-0.099999994 0.019999994 0.105 1 -0 -0 204 39 39 255
-0.099999994 -0.02 0.125 1 -0 -0 204 39 39 255
-0.099999994 -0.02 0.105 1 -0 -0 204 39 39 255
-0.099999994 0.019999994 0.125 1 -0 -0 204 39 39 255
-0.058000006 0.019999994 0.105 -2.4409501E-29 -1 1.9721518E-31 204 39 39 255
-0.099999994 0.019999994 0.125 -2.4409501E-29 -1 1.9721518E-31 204 39 39 255
-0.099999994 0.019999994 0.105 -2.4409501E-29 -1 1.9721518E-31 204 39 39 255
-0.058000006 0.019999994 0.125 -2.4409501E-29 -1 1.9721518E-31 204 39 39 255
-0.095 -0.015 0.125 1.550982E-14 1.5039821E-15 -1 204 39 39 255
-0.063 0.015000005 0.125 1.550982E-14 1.5039821E-15 -1 204 39 39 255
-0.063 -0.015 0.125 1.550982E-14 1.5039821E-15 -1 204 39 39 255
-0.095 0.015000005 0.125 1.550982E-14 1.5039821E-15 -1 204 39 39 255
0.047200006 -0.0701806 0.125 1.57381E-14 -0 -1 255 125 0 255
0.042200003 -0.06518061 0.125 1.57381E-14 -0 -1 255 125 0 255
0.047200006 -0.03018061 0.125 1.57381E-14 -0 -1 255 125 0 255
0.0052000163 -0.0701806 0.125 1.57381E-14 -0 -1 255 125 0 255
0.010200005 -0.06518061 0.125 1.57381E-14 -0 -1 255 125 0 255
0.010200005 -0.0351806 0.125 1.57381E-14 -0 -1 255 125 0 255
0.042200003 -0.0351806 0.125 1.57381E-14 -0 -1 255 125 0 255
0.0052000163 -0.03018061 0.125 1.57381E-14 -0 -1 255 125 0 255
0.0052000163 -0.0701806 0.125 2.4409501E-29 1 -1.9721518E-31 204 39 39 255
0.047200006 -0.0701806 0.105 2.4409501E-29 1 -1.9721518E-31 204 39 39 255
0.0052000163 -0.0701806 0.105 2.4409501E-29 1 -1.9721518E-31 204 39 39 255
0.047200006 -0.0701806 0.125 2.4409501E-29 1 -1.9721518E-31 204 39 39 255
0.047200006 -0.03018061 0.125 -1 -0 -0 204 39 39 255
0.047200006 -0.0701806 0.105 -1 -0 -0 204 39 39 255
0.047200006 -0.0701806 0.125 -1 -0 -0 204 39 39 255
0.047200006 -0.03018061 0.105 -1 -0 -0 204 39 39 255
0.0052000163 -0.03018061 0.105 1 -0 -0 204 39 39 255
0.0052000163 -0.0701806 0.125 1 -0 -0 204 39 39 255
0.0052000163 -0.0701806 0.105 1 -0 -0 204 39 39 255
0.0052000163 -0.03018061 0.125 1 -0 -0 204 39 39 255
0.047200006 -0.03018061 0.105 -2.4409501E-29 -1 1.9721518E-31 204 39 39 255
0.0052000163 -0.03018061 0.125 -2.4409501E-29 -1 1.9721518E-31 204 39 39 255
0.0052000163 -0.03018061 0.105 -2.4409501E-29 -1 1.9721518E-31 204 39 39 255
0.047200006 -0.03018061 0.125 -2.4409501E-29 -1 1.9721518E-31 204 39 39 255
0.010200005 -0.06518061 0.125 1.550982E-14 1.5039821E-15 -1 204 39 39 255
0.042200003 -0.0351806 0.125 1.550982E-14 1.5039821E-15 -1 204 39 39 255
0.042200003 -0.06518061 0.125 1.550982E-14 1.5039821E-15 -1 204 39 39 255
0.010200005 -0.0351806 0.125 1.550982E-14 1.5039821E-15 -1 204 39 39 255
-0.0053999987 0.029819395 0.125 1.57381E-14 -0 -1 255 125 0 255
-0.010399999 0.034819394 0.125 1.57381E-14 -0 -1 255 125 0 255
-0.0053999987 0.06981939 0.125 1.57381E-14 -0 -1 255 125 0 255
-0.04739999 0.029819395 0.125 1.57381E-14 -0 -1 255 125 0 255
-0.042399995 0.034819394 0.125 1.57381E-14 -0 -1 255 125 0 255
-0.042399995 0.064819396 0.125 1.57381E-14 -0 -1 255 125 0 255
-0.010399999 0.064819396 0.125 1.57381E-14 -0 -1 255 125 0 255
-0.04739999 0.06981939 0.125 1.57381E-14 -0 -1 255 125 0 255
-0.04739999 0.029819395 0.125 2.4409501E-29 1 -1.9721518E-31 204 39 39 255
-0.0053999987 0.029819395 0.105 2.4409501E-29 1 -1.9721518E-31 204 39 39 255
-0.04739999 0.029819395 0.105 2.4409501E-29 1 -1.9721518E-31 204 39 39 255
-0.0053999987 0.029819395 0.125 2.4409501E-29 1 -1.9721518E-31 204 39 39 255
-0.0053999987 0.06981939 0.125 -1 -0 -0 204 39 39 255
-0.0053999987 0.029819395 0.105 -1 -0 -0 204 39 39 255
-0.0053999987 0.029819395 0.125 -1 -0 -0 204 39 39 255
-0.0053999987 0.06981939 0.105 -1 -0 -0 204 39 39 255
-0.04739999 0.06981939 0.105 1 -0 -0 204 39 39 255
-0.04739999 0.029819395 0.125 1 -0 -0 204 39 39 255
-0.04739999 0.029819395 0.105 1 -0 -0 204 39 39 255
-0.04739999 0.06981939 0.125 1 -0 -0 204 39 39 255
-0.0053999987 0.06981939 0.105 -2.4409501E-29 -1 1.9721518E-31 204 39 39 255
-0.04739999 0.06981939 0.125 -2.4409501E-29 -1 1.9721518E-31 204 39 39 255
-0.04739999 0.06981939 0.105 -2.4409501E-29 -1 1.9721518E-31 204 39 39 255
-0.0053999987 0.06981939 0.125 -2.4409501E-29 -1 1.9721518E-31 204 39 39 255
-0.042399995 0.034819394 0.125 1.550982E-14 1.5039821E-15 -1 204 39 39 255
-0.010399999 0.064819396 0.125 1.550982E-14 1.5039821E-15 -1 204 39 39 255
-0.010399999 0.034819394 0.125 1.550982E-14 1.5039821E-15 -1 204 39 39 255
-0.042399995 0.064819396 0.125 1.550982E-14 1.5039821E-15 -1 204 39 39 255
0.047200006 -0.0201806 0.125 1.57381E-14 -0 -1 255 125 0 255
0.042200003 -0.015180599 0.125 1.57381E-14 -0 -1 255 125 0 255
0.047200006 0.019819394 0.125 1.57381E-14 -0 -1 255 125 0 255
0.0052000163 -0.0201806 0.125 1.57381E-14 -0 -1 255 125 0 255
0.010200005 -0.015180599 0.125 1.57381E-14 -0 -1 255 125 0 255
0.010200005 0.014819406 0.125 1.57381E-14 -0 -1 255 125 0 255
0.042200003 0.014819406 0.125 1.57381E-14 -0 -1 255 125 0 255
0.0052000163 0.019819394 0.125 1.57381E-14 -0 -1 255 125 0 255
0.0052000163 -0.0201806 0.125 2.4409501E-29 1 -1.9721518E-31 204 39 39 255
0.047200006 -0.0201806 0.105 2.4409501E-29 1 -1.9721518E-31 204 39 39 255
0.0052000163 -0.0201806 0.105 2.4409501E-29 1 -1.9721518E-31 204 39 39 255
0.047200006 -0.0201806 0.125 2.4409501E-29 1 -1.9721518E-31 204 39 39 255
0.047200006 0.019819394 0.125 -1 -0 -0 204 39 39 255
0.047200006 -0.0201806 0.105 -1 -0 -0 204 39 39 255
0.047200006 -0.0201806 0.125 -1 -0 -0 204 39 39 255
0.047200006 0.019819394 0.105 -1 -0 -0 204 39 39 255
0.0052000163 0.019819394 0.105 1 -0 -0 204 39 39 255
0.0052000163 -0.0201806 0.125 1 -0 -0 204 39 39 255
0.0052000163 -0.0201806 0.105 1 -0 -0 204 39 39 255
0.0052000163 0.019819394 0.125 1 -0 -0 204 39 39 255
0.047200006 0.019819394 0.105 -2.4409501E-29 -1 1.9721518E-31 204 39 39 255
0.0052000163 0.019819394 0.125 -2.4409501E-29 -1 1.9721518E-31 204 39 39 255
0.0052000163 0.019819394 0.105 -2.4409501E-29 -1 1.9721518E-31 204 39 39 255
0.047200006 0.019819394 0.125 -2.4409501E-29 -1 1.9721518E-31 204 39 39 255
0.010200005 -0.015180599 0.125 1.550982E-14 1.5039821E-15 -1 204 39 39 255
0.042200003 0.014819406 0.125 1.550982E-14 1.5039821E-15 -1 204 39 39 255
0.042200003 -0.015180599 0.125 1.550982E-14 1.5039821E-15 -1 204 39 39 255
0.010200005 0.014819406 0.125 1.550982E-14 1.5039821E-15 -1 204 39 39 255
-0.058000006 -0.07000001 0.125 1.57381E-14 -0 -1 255 125 0 255
-0.063 -0.06500001 0.125 1.57381E-14 -0 -1 255 125 0 255
-0.058000006 -0.030000016 0.125 1.57381E-14 -0 -1 255 125 0 255
-0.099999994 -0.07000001 0.125 1.57381E-14 -0 -1 255 125 0 255
-0.095 -0.06500001 0.125 1.57381E-14 -0 -1 255 125 0 255
-0.095 -0.035000004 0.125 1.57381E-14 -0 -1 255 125 0 255
-0.063 -0.035000004 0.125 1.57381E-14 -0 -1 255 125 0 255
-0.099999994 -0.030000016 0.125 1.57381E-14 -0 -1 255 125 0 255
-0.099999994 -0.07000001 0.125 2.4409501E-29 1 -1.9721518E-31 204 39 39 255
-0.058000006 -0.07000001 0.105 2.4409501E-29 1 -1.9721518E-31 204 39 39 255
-0.099999994 -0.07000001 0.105 2.4409501E-29 1 -1.9721518E-31 204 39 39 255
-0.058000006 -0.07000001 0.125 2.4409501E-29 1 -1.9721518E-31 204 39 39 255
-0.058000006 -0.030000016 0.125 -1 -0 -0 204 39 39 255
-0.058000006 -0.07000001 0.105 -1 -0 -0 204 39 39 255
-0.058000006 -0.07000001 0.125 -1 -0 -0 204 39 39 255
-0.058000006 -0.030000016 0.105 -1 -0 -0 204 39 39 255
-0.099999994 -0.030000016 0.105 1 -0 -0 204 39 39 255
-0.099999994 -0.07000001 0.125 1 -0 -0 204 39 39 255
-0.099999994 -0.07000001 0.105 1 -0 -0 204 39 39 255
-0.099999994 -0.030000016 0.125 1 -0 -0 204 39 39 255
-0.058000006 -0.030000016 0.105 -2.4409501E-29 -1 1.9721518E-31 204 39 39 255
-0.099999994 -0.030000016 0.125 -2.4409501E-29 -1 1.9721518E-31 204 39 39 255
-0.099999994 -0.030000016 0.105 -2.4409501E-29 -1 1.9721518E-31 204 39 39 255
-0.058000006 -0.030000016 0.125 -2.4409501E-29 -1 1.9721518E-31 204 39 39 255
-0.095 -0.06500001 0.125 1.550982E-14 1.5039821E-15 -1 204 39 39 255
-0.063 -0.035000004 0.125 1.550982E-14 1.5039821E-15 -1 204 39 39 255
-0.063 -0.06500001 0.125 1.550982E-14 1.5039821E-15 -1 204 39 39 255
-0.095 -0.035000004 0.125 1.550982E-14 1.5039821E-15 -1 204 39 39 255
0.047200006 0.029819395 0.125 1.57381E-14 -0 -1 255 125 0 255
0.042200003 0.034819394 0.125 1.57381E-14 -0 -1 255 125 0 255
0.047200006 0.06981939 0.125 1.57381E-14 -0 -1 255 125 0 255
0.0052000163 0.029819395 0.125 1.57381E-14 -0 -1 255 125 0 255
0.010200005 0.034819394 0.125 1.57381E-14 -0 -1 255 125 0 255
0.010200005 0.064819396 0.125 1.57381E-14 -0 -1 255 125 0 255
0.042200003 0.064819396 0.125 1.57381E-14 -0 -1 255 125 0 255
0.0052000163 0.06981939 0.125 1.57381E-14 -0 -1 255 125 0 255
0.0052000163 0.029819395 0.125 2.4409501E-29 1 -1.9721518E-31 204 39 39 255
0.047200006 0.029819395 0.105 2.4409501E-29 1 -1.9721518E-31 204 39 39 255
0.0052000163 0.029819395 0.105 2.4409501E-29 1 -1.9721518E-31 204 39 39 255
0.047200006 0.029819395 0.125 2.4409501E-29 1 -1.9721518E-31 204 39 39 255
0.047200006 0.06981939 0.125 -1 -0 -0 204 39 39 255
0.047200006 0.029819395 0.105 -1 -0 -0 204 39 39 255
0.047200006 0.029819395 0.125 -1 -0 -0 204 39 39 255
0.047200006 0.06981939 0.105 -1 -0 -0 204 39 39 255
0.0052000163 0.06981939 0.105 1 -0 -0 204 39 39 255
0.0052000163 0.029819395 0.125 1 -0 -0 204 39 39 255
0.0052000163 0.029819395 0.105 1 -0 -0 204 39 39 255
0.0052000163 0.06981939 0.125 1 -0 -0 204 39 39 255
0.047200006 0.06981939 0.105 -2.4409501E-29 -1 1.9721518E-31 204 39 39 255
0.0052000163 0.06981939 0.125 -2.4409501E-29 -1 1.9721518E-31 204 39 39 255
0.0052000163 0.06981939 0.105 -2.4409501E-29 -1 1.9721518E-31 204 39 39 255
0.047200006 0.06981939 0.125 -2.4409501E-29 -1 1.9721518E-31 204 39 39 255
0.010200005 0.034819394 0.125 1.550982E-14 1.5039821E-15 -1 204 39 39 255
0.042200003 0.064819396 0.125 1.550982E-14 1.5039821E-15 -1 204 39 39 255
0.042200003 0.034819394 0.125 1.550982E-14 1.5039821E-15 -1 204 39 39 255
0.010200005 0.064819396 0.125 1.550982E-14 1.5039821E-15 -1 204 39 39 255
0.09979999 -0.0201806 0.125 1.57381E-14 -0 -1 255 125 0 255
0.094799995 -0.015180599 0.125 1.57381E-14 -0 -1 255 125 0 255
0.09979999 0.019819394 0.125 1.57381E-14 -0 -1 255 125 0 255
0.057800002 -0.0201806 0.125 1.57381E-14 -0 -1 255 125 0 255
0.06279999 -0.015180599 0.125 1.57381E-14 -0 -1 255 125 0 255
0.06279999 0.014819406 0.125 1.57381E-14 -0 -1 255 125 0 255
0.094799995 0.014819406 0.125 1.57381E-14 -0 -1 255 125 0 255
0.057800002 0.019819394 0.125 1.57381E-14 -0 -1 255 125 0 255
0.057800002 -0.0201806 0.125 2.4409501E-29 1 -1.9721518E-31 204 39 39 255
0.09979999 -0.0201806 0.105 2.4409501E-29 1 -1.9721518E-31 204 39 39 255
0.057800002 -0.0201806 0.105 2.4409501E-29 1 -1.9721518E-31 204 39 39 255
0.09979999 -0.0201806 0.125 2.4409501E-29 1 -1.9721518E-31 204 39 39 255
0.09979999 0.019819394 0.125 -1 -0 -0 204 39 39 255
0.09979999 -0.0201806 0.105 -1 -0 -0 204 39 39 255
0.09979999 -0.0201806 0.125 -1 -0 -0 204 39 39 255
0.09979999 0.019819394 0.105 -1 -0 -0 204 39 39 255
0.057800002 0.019819394 0.105 1 -0 -0 204 39 39 255
0.057800002 -0.0201806 0.125 1 -0 -0 204 39 39 255
0.057800002 -0.0201806 0.105 1 -0 -0 204 39 39 255
0.057800002 0.019819394 0.125 1 -0 -0 204 39 39 255
0.09979999 0.019819394 0.105 -2.4409501E-29 -1 1.9721518E-31 204 39 39 255
0.057800002 0.019819394 0.125 -2.4409501E-29 -1 1.9721518E-31 204 39 39 255
0.057800002 0.019819394 0.105 -2.4409501E-29 -1 1.9721518E-31 204 39 39 255
0.09979999 0.019819394 0.125 -2.4409501E-29 -1 1.9721518E-31 204 39 39 255
0.06279999 -0.015180599 0.125 1.550982E-14 1.5039821E-15 -1 204 39 39 255
0.094799995 0.014819406 0.125 1.550982E-14 1.5039821E-15 -1 204 39 39 255
0.094799995 -0.015180599 0.125 1.550982E-14 1.5039821E-15 -1 204 39 39 255
0.06279999 0.014819406 0.125 1.550982E-14 1.5039821E-15 -1 204 39 39 255
-0.058000006 0.02999999 0.125 1.57381E-14 -0 -1 255 125 0 255
-0.063 0.03499999 0.125 1.57381E-14 -0 -1 255 125 0 255
-0.058000006 0.069999985 0.125 1.57381E-14 -0 -1 255 125 0 255
-0.099999994 0.02999999 0.125 1.57381E-14 -0 -1 255 125 0 255
-0.095 0.03499999 0.125 1.57381E-14 -0 -1 255 125 0 255
-0.095 0.065 0.125 1.57381E-14 -0 -1 255 125 0 255
-0.063 0.065 0.125 1.57381E-14 -0 -1 255 125 0 255
-0.099999994 0.069999985 0.125 1.57381E-14 -0 -1 255 125 0 255
-0.099999994 0.02999999 0.125 2.4409501E-29 1 -1.9721518E-31 204 39 39 255
-0.058000006 0.02999999 0.105 2.4409501E-29 1 -1.9721518E-31 204 39 39 255
-0.099999994 0.02999999 0.105 2.4409501E-29 1 -1.9721518E-31 204 39 39 255
-0.058000006 0.02999999 0.125 2.4409501E-29 1 -1.9721518E-31 204 39 39 255
-0.058000006 0.069999985 0.125 -1 -0 -0 204 39 39 255
-0.058000006 0.02999999 0.105 -1 -0 -0 204 39 39 255
-0.058000006 0.02999999 0.125 -1 -0 -0 204 39 39 255
-0.058000006 0.069999985 0.105 -1 -0 -0 204 39 39 255
-0.099999994 0.069999985 0.105 1 -0 -0 204 39 39 255
-0.099999994 0.02999999 0.125 1 -0 -0 204 39 39 255
-0.099999994 0.02999999 0.105 1 -0 -0 204 39 39 255
-0.099999994 0.069999985 0.125 1 -0 -0 204 39 39 255
-0.058000006 0.069999985 0.105 -2.4409501E-29 -1 1.9721518E-31 204 39 39 255
-0.099999994 0.069999985 0.125 -2.4409501E-29 -1 1.9721518E-31 204 39 39 255
-0.099999994 0.069999985 0.105 -2.4409501E-29 -1 1.9721518E-31 204 39 39 255
-0.058000006 0.069999985 0.125 -2.4409501E-29 -1 1.9721518E-31 204 39 39 255
-0.095 0.03499999 0.125 1.550982E-14 1.5039821E-15 -1 204 39 39 255
-0.063 0.065 0.125 1.550982E-14 1.5039821E-15 -1 204 39 39 255
-0.063 0.03499999 0.125 1.550982E-14 1.5039821E-15 -1 204 39 39 255
-0.095 0.065 0.125 1.550982E-14 1.5039821E-15 -1 204 39 39 255
-0.0053999987 -0.0201806 0.125 1.57381E-14 -0 -1 255 125 0 255
-0.010399999 -0.015180599 0.125 1.57381E-14 -0 -1 255 125 0 255
-0.0053999987 0.019819394 0.125 1.57381E-14 -0 -1 255 125 0 255
-0.04739999 -0.0201806 0.125 1.57381E-14 -0 -1 255 125 0 255
-0.042399995 -0.015180599 0.125 1.57381E-14 -0 -1 255 125 0 255
-0.042399995 0.014819406 0.125 1.57381E-14 -0 -1 255 125 0 255
-0.010399999 0.014819406 0.125 1.57381E-14 -0 -1 255 125 0 255
-0.04739999 0.019819394 0.125 1.57381E-14 -0 -1 255 125 0 255
-0.04739999 -0.0201806 0.125 2.4409501E-29 1 -1.9721518E-31 204 39 39 255
-0.0053999987 -0.0201806 0.105 2.4409501E-29 1 -1.9721518E-31 204 39 39 255
-0.04739999 -0.0201806 0.105 2.4409501E-29 1 -1.9721518E-31 204 39 39 255
-0.0053999987 -0.0201806 0.125 2.4409501E-29 1 -1.9721518E-31 204 39 39 255
-0.0053999987 0.019819394 0.125 -1 -0 -0 204 39 39 255
-0.0053999987 -0.0201806 0.105 -1 -0 -0 204 39 39 255
-0.0053999987 -0.0201806 0.125 -1 -0 -0 204 39 39 255
-0.0053999987 0.019819394 0.105 -1 -0 -0 204 39 39 255
-0.04739999 0.019819394 0.105 1 -0 -0 204 39 39 255
-0.04739999 -0.0201806 0.125 1 -0 -0 204 39 39 255
-0.04739999 -0.0201806 0.105 1 -0 -0 204 39 39 255
-0.04739999 0.019819394 0.125 1 -0 -0 204 39 39 255
-0.0053999987 0.019819394 0.105 -2.4409501E-29 -1 1.9721518E-31 204 39 39 255
-0.04739999 0.019819394 0.125 -2.4409501E-29 -1 1.9721518E-31 204 39 39 255
-0.04739999 0.019819394 0.105 -2.4409501E-29 -1 1.9721518E-31 204 39 39 255
-0.0053999987 0.019819394 0.125 -2.4409501E-29 -1 1.9721518E-31 204 39 39 255
-0.042399995 -0.015180599 0.125 1.550982E-14 1.5039821E-15 -1 204 39 39 255
-0.010399999 0.014819406 0.125 1.550982E-14 1.5039821E-15 -1 204 39 39 255
-0.010399999 -0.015180599 0.125 1.550982E-14 1.5039821E-15 -1 204 39 39 255
-0.042399995 0.014819406 0.125 1.550982E-14 1.5039821E-15 -1 204 39 39 255
-0.0053999987 -0.0701806 0.125 1.57381E-14 -0 -1 255 125 0 255
-0.010399999 -0.06518061 0.125 1.57381E-14 -0 -1 255 125 0 255
-0.0053999987 -0.03018061 0.125 1.57381E-14 -0 -1 255 125 0 255
-0.04739999 -0.0701806 0.125 1.57381E-14 -0 -1 255 125 0 255
-0.042399995 -0.06518061 0.125 1.57381E-14 -0 -1 255 125 0 255
-0.042399995 -0.0351806 0.125 1.57381E-14 -0 -1 255 125 0 255
-0.010399999 -0.0351806 0.125 1.57381E-14 -0 -1 255 125 0 255
-0.04739999 -0.03018061 0.125 1.57381E-14 -0 -1 255 125 0 255
3 80 81 82
3 81 80 83
3 84 85 86
3 85 84 87
3 88 89 90
3 89 88 91
3 92 93 94
3 93 92 95
3 96 97 98
3 97 96 99
3 100 101 102
3 101 100 103
3 101 103 104
3 104 103 105
3 102 106 107
3 106 102 101
3 107 106 105
3 107 105 103
3 108 109 110
3 109 108 111
3 112 113 114
3 113 112 115
3 116 117 118
3 117 116 119
3 120 121 122
3 121 120 123
3 124 125 126
3 125 124 127
3 128 129 130
3 129 128 131
3 129 131 132
3 132 131 133
3 130 134 135
3 134 130 129
3 135 134 133
3 135 133 131
3 136 137 138
3 137 136 139
3 140 141 142
3 141 140 143
3 144 145 146
3 145 144 147
3 148 149 150
3 149 148 151
3 152 153 154
3 153 152 155
3 156 157 158
3 157 156 159
3 157 159 160
3 160 159 161
3 158 162 163
3 162 158 157
3 163 162 161
3 163 161 159
3 164 165 166
3 165 164 167
3 168 169 170
3 169 168 171
3 172 173 174
3 173 172 175
3 176 177 178
3 177 176 179
3 180 181 182
3 181 180 183
3 184 185 186
3 185 184 187
3 185 187 188
3 188 187 189
3 186 190 191
3 190 186 185
3 191 190 189
3 191 189 187
3 192 193 194
3 193 192 195
3 196 197 198
3 197 196 199
3 200 201 202
3 201 200 203
3 204 205 206
3 205 204 207
3 208 209 210
3 209 208 211
3 212 213 214
3 213 212 215
3 213 215 216
3 216 215 217
3 214 218 219
3 218 214 213
3 219 218 217
3 219 217 215
3 220 221 222
3 221 220 223
3 224 225 226
3 225 224 227
3 228 229 230
3 229 228 231
3 232 233 234
3 233 232 235
3 236 237 238
3 237 236 239
3 240 241 242
3 241 240 243
3 241 243 244
3 244 243 245
3 242 246 247
3 246 242 241
3 247 246 245
3 247 245 243
3 248 249 250
3 249 248 251
3 252 253 254
3 253 252 255
3 256 257 258
3 257 256 259
3 260 261 262
3 261 260 263
3 264 265 266
3 265 264 267
3 268 269 270
3 269 268 271
3 269 271 272
3 272 271 273
3 270 274 275
3 274 270 269
3 275 274 273
3 275 273 271
3 276 277 278
3 277 276 279
3 280 281 282
3 281 280 283
3 284 285 286
3 285 284 287
3 288 289 290
3 289 288 291
3 292 293 294
3 293 292 295
3 296 297 298
3 297 296 299
3 297 299 300
3 300 299 301
3 298 302 303
3 302 298 297
3 303 302 301
3 303 301 299
3 304 305 306
3 305 304 307
3 308 309 310
3 309 308 311
3 312 313 314
3 313 312 315
3 316 317 318
3 317 316 319
3 320 321 322
3 321 320 323
3 324 325 326
3 325 324 327
3 325 327 328
3 328 327 329
3 326 330 331
3 330 326 325
3 331 330 329
3 331 329 327
3 332 333 334
3 333 332 335
3 336 337 338
3 337 336 339
3 340 341 342
3 341 340 343
3 344 345 346
3 345 344 347
3 348 349 350
3 349 348 351
3 352 353 354
3 353 352 355
3 353 355 356
3 356 355 357
3 354 358 359
3 358 354 353
3 359 358 357
3 359 357 355

