ply
format ascii 1.0
commentY29udmVydGVyIGJ5IENvZGVMZW9wYXJk
comment Original mesh name: 'C:\Program Files (x86)\Steam\steamapps\common\Stormworks\rom\meshes\component_cart_l.mesh'
comment SubMesh index: 0
comment SubMesh name: 'ID46'
comment Shader: Opaque (0)
element vertex 328
property float x
property float y
property float z
property float nx
property float ny
property float nz
property uchar red
property uchar green
property uchar blue
property uchar alpha
element face 182
property list uchar ushort vertex_index
end_header
0.04702261 -0.04702261 0.18999986 1.05191194E-22 8.190075E-16 -1 255 255 255 255
0.04702261 0.04702259 0.18999986 1.05191194E-22 8.190075E-16 -1 255 255 255 255
0.066500016 -7.583536E-09 0.18999986 1.05191194E-22 8.190075E-16 -1 255 255 255 255
7.583536E-09 -0.066500016 0.18999986 1.05191194E-22 8.190075E-16 -1 255 255 255 255
7.583536E-09 0.06650004 0.18999986 1.05191194E-22 8.190075E-16 -1 255 255 255 255
-0.04702259 -0.04702261 0.18999986 1.05191194E-22 8.190075E-16 -1 255 255 255 255
-0.04702259 0.04702259 0.18999986 1.05191194E-22 8.190075E-16 -1 255 255 255 255
-0.06650004 -7.583536E-09 0.18999986 1.05191194E-22 8.190075E-16 -1 255 255 255 255
0.037123114 -0.037123114 0.26 -3.4621862E-32 1.0374101E-15 -1 255 255 255 255
0.037123114 0.037123114 0.26 -3.4621862E-32 1.0374101E-15 -1 255 255 255 255
0.0525 -7.583536E-09 0.26 -3.4621862E-32 1.0374101E-15 -1 255 255 255 255
7.583536E-09 -0.0525 0.26 -3.4621862E-32 1.0374101E-15 -1 255 255 255 255
7.583536E-09 0.0525 0.26 -3.4621862E-32 1.0374101E-15 -1 255 255 255 255
-0.037123114 -0.037123114 0.26 -3.4621862E-32 1.0374101E-15 -1 255 255 255 255
-0.037123114 0.037123114 0.26 -3.4621862E-32 1.0374101E-15 -1 255 255 255 255
-0.0525 -7.583536E-09 0.26 -3.4621862E-32 1.0374101E-15 -1 255 255 255 255
0.024748743 -0.024748743 0.30999985 -9.113773E-23 1.556114E-15 -1 255 255 255 255
0.024748743 0.024748728 0.30999985 -9.113773E-23 1.556114E-15 -1 255 255 255 255
0.035000004 -7.583536E-09 0.30999985 -9.113773E-23 1.556114E-15 -1 255 255 255 255
7.583536E-09 -0.035000004 0.30999985 -9.113773E-23 1.556114E-15 -1 255 255 255 255
7.583536E-09 0.034999978 0.30999985 -9.113773E-23 1.556114E-15 -1 255 255 255 255
-0.024748728 -0.024748743 0.30999985 -9.113773E-23 1.556114E-15 -1 255 255 255 255
-0.024748728 0.024748728 0.30999985 -9.113773E-23 1.556114E-15 -1 255 255 255 255
-0.034999978 -7.583536E-09 0.30999985 -9.113773E-23 1.556114E-15 -1 255 255 255 255
0.0098995045 -0.0098995045 0.35000002 0 -0 -1 3 3 3 255
0.0098995045 0.009899489 0.35000002 0 -0 -1 3 3 3 255
0.014000005 -7.583536E-09 0.35000002 0 -0 -1 3 3 3 255
7.583536E-09 -0.014000005 0.35000002 0 -0 -1 3 3 3 255
7.583536E-09 0.013999988 0.35000002 0 -0 -1 3 3 3 255
-0.009899489 -0.0098995045 0.35000002 0 -0 -1 3 3 3 255
-0.009899489 0.009899489 0.35000002 0 -0 -1 3 3 3 255
-0.013999988 -7.583536E-09 0.35000002 0 -0 -1 3 3 3 255
-0.009899489 -0.0098995045 0.35000002 0.3443189 0.831259 -0.4364092 3 3 3 255
7.583536E-09 -0.035000004 0.30999985 0.3443189 0.831259 -0.4364092 3 3 3 255
-0.024748728 -0.024748743 0.30999985 0.3443189 0.831259 -0.4364092 3 3 3 255
7.583536E-09 -0.014000005 0.35000002 0.3443189 0.831259 -0.4364092 3 3 3 255
-0.034999978 -7.583536E-09 0.30999985 0.8312592 0.3443186 -0.4364091 3 3 3 255
-0.009899489 -0.0098995045 0.35000002 0.8312592 0.3443186 -0.4364091 3 3 3 255
-0.024748728 -0.024748743 0.30999985 0.8312592 0.3443186 -0.4364091 3 3 3 255
-0.013999988 -7.583536E-09 0.35000002 0.8312592 0.3443186 -0.4364091 3 3 3 255
-0.034999978 -7.583536E-09 0.30999985 0.8312592 -0.3443186 -0.4364091 3 3 3 255
-0.009899489 0.009899489 0.35000002 0.8312592 -0.3443186 -0.4364091 3 3 3 255
-0.013999988 -7.583536E-09 0.35000002 0.8312592 -0.3443186 -0.4364091 3 3 3 255
-0.024748728 0.024748728 0.30999985 0.8312592 -0.3443186 -0.4364091 3 3 3 255
7.583536E-09 0.013999988 0.35000002 0.3443186 -0.8312592 -0.4364091 3 3 3 255
-0.024748728 0.024748728 0.30999985 0.3443186 -0.8312592 -0.4364091 3 3 3 255
7.583536E-09 0.034999978 0.30999985 0.3443186 -0.8312592 -0.4364091 3 3 3 255
-0.009899489 0.009899489 0.35000002 0.3443186 -0.8312592 -0.4364091 3 3 3 255
0.0098995045 0.009899489 0.35000002 -0.3443186 -0.8312592 -0.4364091 3 3 3 255
7.583536E-09 0.034999978 0.30999985 -0.3443186 -0.8312592 -0.4364091 3 3 3 255
0.024748743 0.024748728 0.30999985 -0.3443186 -0.8312592 -0.4364091 3 3 3 255
7.583536E-09 0.013999988 0.35000002 -0.3443186 -0.8312592 -0.4364091 3 3 3 255
0.0098995045 0.009899489 0.35000002 -0.8312589 -0.34431887 -0.43640918 3 3 3 255
0.035000004 -7.583536E-09 0.30999985 -0.8312589 -0.34431887 -0.43640918 3 3 3 255
0.014000005 -7.583536E-09 0.35000002 -0.8312589 -0.34431887 -0.43640918 3 3 3 255
0.024748743 0.024748728 0.30999985 -0.8312589 -0.34431887 -0.43640918 3 3 3 255
0.0098995045 -0.0098995045 0.35000002 -0.8312589 0.34431887 -0.43640918 3 3 3 255
0.035000004 -7.583536E-09 0.30999985 -0.8312589 0.34431887 -0.43640918 3 3 3 255
0.024748743 -0.024748743 0.30999985 -0.8312589 0.34431887 -0.43640918 3 3 3 255
0.014000005 -7.583536E-09 0.35000002 -0.8312589 0.34431887 -0.43640918 3 3 3 255
7.583536E-09 -0.014000005 0.35000002 -0.3443189 0.831259 -0.4364092 3 3 3 255
0.024748743 -0.024748743 0.30999985 -0.3443189 0.831259 -0.4364092 3 3 3 255
7.583536E-09 -0.035000004 0.30999985 -0.3443189 0.831259 -0.4364092 3 3 3 255
0.0098995045 -0.0098995045 0.35000002 -0.3443189 0.831259 -0.4364092 3 3 3 255
-0.024748728 -0.024748743 0.30999985 0.3641202 0.8790641 -0.3076731 3 3 3 255
7.583536E-09 -0.0525 0.26 0.3641202 0.8790641 -0.3076731 3 3 3 255
-0.037123114 -0.037123114 0.26 0.3641202 0.8790641 -0.3076731 3 3 3 255
7.583536E-09 -0.035000004 0.30999985 0.3641202 0.8790641 -0.3076731 3 3 3 255
-0.0525 -7.583536E-09 0.26 0.8790641 0.3641201 -0.3076732 3 3 3 255
-0.024748728 -0.024748743 0.30999985 0.8790641 0.3641201 -0.3076732 3 3 3 255
-0.037123114 -0.037123114 0.26 0.8790641 0.3641201 -0.3076732 3 3 3 255
-0.034999978 -7.583536E-09 0.30999985 0.8790641 0.3641201 -0.3076732 3 3 3 255
-0.0525 -7.583536E-09 0.26 0.8790641 -0.3641201 -0.3076732 3 3 3 255
-0.024748728 0.024748728 0.30999985 0.8790641 -0.3641201 -0.3076732 3 3 3 255
-0.034999978 -7.583536E-09 0.30999985 0.8790641 -0.3641201 -0.3076732 3 3 3 255
-0.037123114 0.037123114 0.26 0.8790641 -0.3641201 -0.3076732 3 3 3 255
7.583536E-09 0.034999978 0.30999985 0.3641201 -0.8790641 -0.3076732 3 3 3 255
-0.037123114 0.037123114 0.26 0.3641201 -0.8790641 -0.3076732 3 3 3 255
7.583536E-09 0.0525 0.26 0.3641201 -0.8790641 -0.3076732 3 3 3 255
-0.024748728 0.024748728 0.30999985 0.3641201 -0.8790641 -0.3076732 3 3 3 255
0.024748743 0.024748728 0.30999985 -0.3641201 -0.8790641 -0.3076732 3 3 3 255
7.583536E-09 0.0525 0.26 -0.3641201 -0.8790641 -0.3076732 3 3 3 255
0.037123114 0.037123114 0.26 -0.3641201 -0.8790641 -0.3076732 3 3 3 255
7.583536E-09 0.034999978 0.30999985 -0.3641201 -0.8790641 -0.3076732 3 3 3 255
0.024748743 0.024748728 0.30999985 -0.8790641 -0.3641202 -0.3076731 3 3 3 255
0.0525 -7.583536E-09 0.26 -0.8790641 -0.3641202 -0.3076731 3 3 3 255
0.035000004 -7.583536E-09 0.30999985 -0.8790641 -0.3641202 -0.3076731 3 3 3 255
0.037123114 0.037123114 0.26 -0.8790641 -0.3641202 -0.3076731 3 3 3 255
0.024748743 -0.024748743 0.30999985 -0.8790641 0.3641202 -0.3076731 3 3 3 255
0.0525 -7.583536E-09 0.26 -0.8790641 0.3641202 -0.3076731 3 3 3 255
0.037123114 -0.037123114 0.26 -0.8790641 0.3641202 -0.3076731 3 3 3 255
0.035000004 -7.583536E-09 0.30999985 -0.8790641 0.3641202 -0.3076731 3 3 3 255
7.583536E-09 -0.035000004 0.30999985 -0.3641202 0.8790641 -0.3076731 3 3 3 255
0.037123114 -0.037123114 0.26 -0.3641202 0.8790641 -0.3076731 3 3 3 255
7.583536E-09 -0.0525 0.26 -0.3641202 0.8790641 -0.3076731 3 3 3 255
0.024748743 -0.024748743 0.30999985 -0.3641202 0.8790641 -0.3076731 3 3 3 255
0.037123114 0.037123114 0.26 -0.37631375 -0.90850043 -0.18170011 43 58 26 255
7.583536E-09 0.06650004 0.18999986 -0.37631375 -0.90850043 -0.18170011 43 58 26 255
0.04702261 0.04702259 0.18999986 -0.37631375 -0.90850043 -0.18170011 43 58 26 255
7.583536E-09 0.0525 0.26 -0.37631375 -0.90850043 -0.18170011 43 58 26 255
0.04702261 0.04702259 0.18999986 -0.3825816 -0.9236331 -0.02309059 43 58 26 255
7.583536E-09 0.069999956 0.049999896 -0.3825816 -0.9236331 -0.02309059 43 58 26 255
0.049497485 0.04949746 0.049999896 -0.3825816 -0.9236331 -0.02309059 43 58 26 255
7.583536E-09 0.06650004 0.18999986 -0.3825816 -0.9236331 -0.02309059 43 58 26 255
0.037123114 0.037123114 0.26 -0.9085007 -0.3763132 -0.1816999 43 58 26 255
0.066500016 -7.583536E-09 0.18999986 -0.9085007 -0.3763132 -0.1816999 43 58 26 255
0.0525 -7.583536E-09 0.26 -0.9085007 -0.3763132 -0.1816999 43 58 26 255
0.04702261 0.04702259 0.18999986 -0.9085007 -0.3763132 -0.1816999 43 58 26 255
7.583536E-09 0.0525 0.26 0.3763138 -0.9085004 -0.1817001 43 58 26 255
-0.04702259 0.04702259 0.18999986 0.3763138 -0.9085004 -0.1817001 43 58 26 255
7.583536E-09 0.06650004 0.18999986 0.3763138 -0.9085004 -0.1817001 43 58 26 255
-0.037123114 0.037123114 0.26 0.3763138 -0.9085004 -0.1817001 43 58 26 255
0.04702261 0.04702259 0.18999986 -0.9236332 -0.3825814 -0.02309081 43 58 26 255
0.07000001 -7.583536E-09 0.049999896 -0.9236332 -0.3825814 -0.02309081 43 58 26 255
0.066500016 -7.583536E-09 0.18999986 -0.9236332 -0.3825814 -0.02309081 43 58 26 255
0.049497485 0.04949746 0.049999896 -0.9236332 -0.3825814 -0.02309081 43 58 26 255
7.583536E-09 0.069999956 0.049999896 0.3825817 -0.9236331 -0.02309061 43 58 26 255
-0.04702259 0.04702259 0.18999986 0.3825817 -0.9236331 -0.02309061 43 58 26 255
-0.04949746 0.04949746 0.049999896 0.3825817 -0.9236331 -0.02309061 43 58 26 255
7.583536E-09 0.06650004 0.18999986 0.3825817 -0.9236331 -0.02309061 43 58 26 255
0.037123114 -0.037123114 0.26 -0.90850073 0.37631315 -0.18169993 43 58 26 255
0.066500016 -7.583536E-09 0.18999986 -0.90850073 0.37631315 -0.18169993 43 58 26 255
0.04702261 -0.04702261 0.18999986 -0.90850073 0.37631315 -0.18169993 43 58 26 255
0.0525 -7.583536E-09 0.26 -0.90850073 0.37631315 -0.18169993 43 58 26 255
-0.06650004 -7.583536E-09 0.18999986 0.9085004 -0.3763138 -0.1817001 43 58 26 255
-0.037123114 0.037123114 0.26 0.9085004 -0.3763138 -0.1817001 43 58 26 255
-0.0525 -7.583536E-09 0.26 0.9085004 -0.3763138 -0.1817001 43 58 26 255
-0.04702259 0.04702259 0.18999986 0.9085004 -0.3763138 -0.1817001 43 58 26 255
0.04702261 -0.04702261 0.18999986 -0.9236332 0.3825814 -0.02309079 43 58 26 255
0.07000001 -7.583536E-09 0.049999896 -0.9236332 0.3825814 -0.02309079 43 58 26 255
0.049497485 -0.049497485 0.049999896 -0.9236332 0.3825814 -0.02309079 43 58 26 255
0.066500016 -7.583536E-09 0.18999986 -0.9236332 0.3825814 -0.02309079 43 58 26 255
-0.069999956 -7.583536E-09 0.049999896 0.9236331 -0.3825817 -0.02309061 43 58 26 255
-0.04702259 0.04702259 0.18999986 0.9236331 -0.3825817 -0.02309061 43 58 26 255
-0.06650004 -7.583536E-09 0.18999986 0.9236331 -0.3825817 -0.02309061 43 58 26 255
-0.04949746 0.04949746 0.049999896 0.9236331 -0.3825817 -0.02309061 43 58 26 255
7.583536E-09 -0.0525 0.26 -0.37631315 0.90850073 -0.18169993 43 58 26 255
0.04702261 -0.04702261 0.18999986 -0.37631315 0.90850073 -0.18169993 43 58 26 255
7.583536E-09 -0.066500016 0.18999986 -0.37631315 0.90850073 -0.18169993 43 58 26 255
0.037123114 -0.037123114 0.26 -0.37631315 0.90850073 -0.18169993 43 58 26 255
-0.06650004 -7.583536E-09 0.18999986 0.90850043 0.37631375 -0.18170011 43 58 26 255
-0.037123114 -0.037123114 0.26 0.90850043 0.37631375 -0.18170011 43 58 26 255
-0.04702259 -0.04702261 0.18999986 0.90850043 0.37631375 -0.18170011 43 58 26 255
-0.0525 -7.583536E-09 0.26 0.90850043 0.37631375 -0.18170011 43 58 26 255
7.583536E-09 -0.066500016 0.18999986 -0.3825814 0.9236332 -0.02309079 43 58 26 255
0.049497485 -0.049497485 0.049999896 -0.3825814 0.9236332 -0.02309079 43 58 26 255
7.583536E-09 -0.07000001 0.049999896 -0.3825814 0.9236332 -0.02309079 43 58 26 255
0.04702261 -0.04702261 0.18999986 -0.3825814 0.9236332 -0.02309079 43 58 26 255
-0.069999956 -7.583536E-09 0.049999896 0.9236331 0.3825816 -0.02309059 43 58 26 255
-0.04702259 -0.04702261 0.18999986 0.9236331 0.3825816 -0.02309059 43 58 26 255
-0.04949746 -0.049497485 0.049999896 0.9236331 0.3825816 -0.02309059 43 58 26 255
-0.06650004 -7.583536E-09 0.18999986 0.9236331 0.3825816 -0.02309059 43 58 26 255
-0.037123114 -0.037123114 0.26 0.3763132 0.9085007 -0.1816999 43 58 26 255
7.583536E-09 -0.066500016 0.18999986 0.3763132 0.9085007 -0.1816999 43 58 26 255
-0.04702259 -0.04702261 0.18999986 0.3763132 0.9085007 -0.1816999 43 58 26 255
7.583536E-09 -0.0525 0.26 0.3763132 0.9085007 -0.1816999 43 58 26 255
-0.04702259 -0.04702261 0.18999986 0.3825814 0.9236332 -0.02309081 43 58 26 255
7.583536E-09 -0.07000001 0.049999896 0.3825814 0.9236332 -0.02309081 43 58 26 255
-0.04949746 -0.049497485 0.049999896 0.3825814 0.9236332 -0.02309081 43 58 26 255
7.583536E-09 -0.066500016 0.18999986 0.3825814 0.9236332 -0.02309081 43 58 26 255
0.05444723 0.054447208 -0.35000002 6.2378937E-30 -7.073249E-16 1 153 135 81 255
0.05444723 -0.05444723 -0.35000002 6.2378937E-30 -7.073249E-16 1 153 135 81 255
0.07700002 -7.583536E-09 -0.35000002 6.2378937E-30 -7.073249E-16 1 153 135 81 255
7.583536E-09 0.07699994 -0.35000002 6.2378937E-30 -7.073249E-16 1 153 135 81 255
7.583536E-09 -0.07700002 -0.35000002 6.2378937E-30 -7.073249E-16 1 153 135 81 255
-0.054447208 0.054447208 -0.35000002 6.2378937E-30 -7.073249E-16 1 153 135 81 255
-0.054447208 -0.05444723 -0.35000002 6.2378937E-30 -7.073249E-16 1 153 135 81 255
-0.07699994 -7.583536E-09 -0.35000002 6.2378937E-30 -7.073249E-16 1 153 135 81 255
7.583536E-09 0.07699994 -0.3300001 0.3826828 -0.9238798 -0 153 135 81 255
-0.054447208 0.054447208 -0.35000002 0.3826828 -0.9238798 -0 153 135 81 255
7.583536E-09 0.07699994 -0.35000002 0.3826828 -0.9238798 -0 153 135 81 255
-0.054447208 0.054447208 -0.3300001 0.3826828 -0.9238798 -0 153 135 81 255
-0.07699994 -7.583536E-09 -0.35000002 0.9238798 -0.3826828 -1.9180889E-16 153 135 81 255
-0.054447208 0.054447208 -0.3300001 0.9238798 -0.3826828 -1.9180889E-16 153 135 81 255
-0.07699994 -7.583536E-09 -0.3300001 0.9238798 -0.3826828 -1.9180889E-16 153 135 81 255
-0.054447208 0.054447208 -0.35000002 0.9238798 -0.3826828 -1.9180889E-16 153 135 81 255
-0.054447208 -0.05444723 -0.35000002 0.9238798 0.3826828 3.0148311E-16 153 135 81 255
-0.07699994 -7.583536E-09 -0.3300001 0.9238798 0.3826828 3.0148311E-16 153 135 81 255
-0.054447208 -0.05444723 -0.3300001 0.9238798 0.3826828 3.0148311E-16 153 135 81 255
-0.07699994 -7.583536E-09 -0.35000002 0.9238798 0.3826828 3.0148311E-16 153 135 81 255
-0.054447208 -0.05444723 -0.3300001 0.38268337 0.9238795 7.4446726E-16 153 135 81 255
7.583536E-09 -0.07700002 -0.35000002 0.38268337 0.9238795 7.4446726E-16 153 135 81 255
-0.054447208 -0.05444723 -0.35000002 0.38268337 0.9238795 7.4446726E-16 153 135 81 255
7.583536E-09 -0.07700002 -0.3300001 0.38268337 0.9238795 7.4446726E-16 153 135 81 255
7.583536E-09 -0.07700002 -0.3300001 -0.38268337 0.9238795 7.4446726E-16 153 135 81 255
0.05444723 -0.05444723 -0.35000002 -0.38268337 0.9238795 7.4446726E-16 153 135 81 255
7.583536E-09 -0.07700002 -0.35000002 -0.38268337 0.9238795 7.4446726E-16 153 135 81 255
0.05444723 -0.05444723 -0.3300001 -0.38268337 0.9238795 7.4446726E-16 153 135 81 255
0.07700002 -7.583536E-09 -0.3300001 -0.9238795 0.38268337 3.0148137E-16 153 135 81 255
0.05444723 -0.05444723 -0.35000002 -0.9238795 0.38268337 3.0148137E-16 153 135 81 255
0.05444723 -0.05444723 -0.3300001 -0.9238795 0.38268337 3.0148137E-16 153 135 81 255
0.07700002 -7.583536E-09 -0.35000002 -0.9238795 0.38268337 3.0148137E-16 153 135 81 255
0.05444723 0.054447208 -0.3300001 -0.9238795 -0.38268337 -1.9180499E-16 153 135 81 255
0.07700002 -7.583536E-09 -0.35000002 -0.9238795 -0.38268337 -1.9180499E-16 153 135 81 255
0.07700002 -7.583536E-09 -0.3300001 -0.9238795 -0.38268337 -1.9180499E-16 153 135 81 255
0.05444723 0.054447208 -0.35000002 -0.9238795 -0.38268337 -1.9180499E-16 153 135 81 255
0.05444723 0.054447208 -0.3300001 -0.3826828 -0.9238798 -0 153 135 81 255
7.583536E-09 0.07699994 -0.35000002 -0.3826828 -0.9238798 -0 153 135 81 255
0.05444723 0.054447208 -0.35000002 -0.3826828 -0.9238798 -0 153 135 81 255
7.583536E-09 0.07699994 -0.3300001 -0.3826828 -0.9238798 -0 153 135 81 255
-0.04949746 0.04949746 -0.32495105 0.2354991 -0.5685461 -0.788223 153 135 81 255
7.583536E-09 0.07699994 -0.3300001 0.2354991 -0.5685461 -0.788223 153 135 81 255
7.583536E-09 0.069999956 -0.32495105 0.2354991 -0.5685461 -0.788223 153 135 81 255
-0.054447208 0.054447208 -0.3300001 0.2354991 -0.5685461 -0.788223 153 135 81 255
-0.069999956 -7.583536E-09 -0.32495105 0.5685461 -0.2354991 -0.788223 153 135 81 255
-0.054447208 0.054447208 -0.3300001 0.5685461 -0.2354991 -0.788223 153 135 81 255
-0.04949746 0.04949746 -0.32495105 0.5685461 -0.2354991 -0.788223 153 135 81 255
-0.07699994 -7.583536E-09 -0.3300001 0.5685461 -0.2354991 -0.788223 153 135 81 255
-0.054447208 -0.05444723 -0.3300001 0.5685461 0.2354991 -0.788223 153 135 81 255
-0.069999956 -7.583536E-09 -0.32495105 0.5685461 0.2354991 -0.788223 153 135 81 255
-0.04949746 -0.049497485 -0.32495105 0.5685461 0.2354991 -0.788223 153 135 81 255
-0.07699994 -7.583536E-09 -0.3300001 0.5685461 0.2354991 -0.788223 153 135 81 255
-0.054447208 -0.05444723 -0.3300001 0.2354993 0.5685456 -0.7882233 153 135 81 255
7.583536E-09 -0.07000001 -0.32495105 0.2354993 0.5685456 -0.7882233 153 135 81 255
7.583536E-09 -0.07700002 -0.3300001 0.2354993 0.5685456 -0.7882233 153 135 81 255
-0.04949746 -0.049497485 -0.32495105 0.2354993 0.5685456 -0.7882233 153 135 81 255
7.583536E-09 -0.07700002 -0.3300001 -0.2354993 0.5685456 -0.7882233 153 135 81 255
0.049497485 -0.049497485 -0.32495105 -0.2354993 0.5685456 -0.7882233 153 135 81 255
0.05444723 -0.05444723 -0.3300001 -0.2354993 0.5685456 -0.7882233 153 135 81 255
7.583536E-09 -0.07000001 -0.32495105 -0.2354993 0.5685456 -0.7882233 153 135 81 255
0.05444723 -0.05444723 -0.3300001 -0.5685456 0.2354993 -0.7882233 153 135 81 255
0.07000001 -7.583536E-09 -0.32495105 -0.5685456 0.2354993 -0.7882233 153 135 81 255
0.07700002 -7.583536E-09 -0.3300001 -0.5685456 0.2354993 -0.7882233 153 135 81 255
0.049497485 -0.049497485 -0.32495105 -0.5685456 0.2354993 -0.7882233 153 135 81 255
0.07000001 -7.583536E-09 -0.32495105 -0.5685456 -0.2354993 -0.7882233 153 135 81 255
0.05444723 0.054447208 -0.3300001 -0.5685456 -0.2354993 -0.7882233 153 135 81 255
0.07700002 -7.583536E-09 -0.3300001 -0.5685456 -0.2354993 -0.7882233 153 135 81 255
0.049497485 0.04949746 -0.32495105 -0.5685456 -0.2354993 -0.7882233 153 135 81 255
0.049497485 0.04949746 -0.32495105 -0.2354991 -0.5685461 -0.788223 153 135 81 255
7.583536E-09 0.07699994 -0.3300001 -0.2354991 -0.5685461 -0.788223 153 135 81 255
0.05444723 0.054447208 -0.3300001 -0.2354991 -0.5685461 -0.788223 153 135 81 255
7.583536E-09 0.069999956 -0.32495105 -0.2354991 -0.5685461 -0.788223 153 135 81 255
7.583536E-09 0.069999956 0.019999959 0.3826831 -0.9238797 -7.244336E-16 153 135 81 255
-0.04949746 0.04949746 -0.32495105 0.3826831 -0.9238797 -7.244336E-16 153 135 81 255
7.583536E-09 0.069999956 -0.32495105 0.3826831 -0.9238797 -7.244336E-16 153 135 81 255
-0.04949746 0.04949746 0.019999959 0.3826831 -0.9238797 -7.244336E-16 153 135 81 255
-0.069999956 -7.583536E-09 -0.32495105 0.9238797 -0.3826831 -3.132861E-16 153 135 81 255
-0.04949746 0.04949746 0.019999959 0.9238797 -0.3826831 -3.132861E-16 153 135 81 255
-0.069999956 -7.583536E-09 0.019999959 0.9238797 -0.3826831 -3.132861E-16 153 135 81 255
-0.04949746 0.04949746 -0.32495105 0.9238797 -0.3826831 -3.132861E-16 153 135 81 255
-0.04949746 -0.049497485 -0.32495105 0.9238797 0.3826831 3.2586999E-16 153 135 81 255
-0.069999956 -7.583536E-09 0.019999959 0.9238797 0.3826831 3.2586999E-16 153 135 81 255
-0.04949746 -0.049497485 0.019999959 0.9238797 0.3826831 3.2586999E-16 153 135 81 255
-0.069999956 -7.583536E-09 -0.32495105 0.9238797 0.3826831 3.2586999E-16 153 135 81 255
-0.04949746 -0.049497485 0.019999959 0.3826835 0.9238795 6.584609E-16 153 135 81 255
7.583536E-09 -0.07000001 -0.32495105 0.3826835 0.9238795 6.584609E-16 153 135 81 255
-0.04949746 -0.049497485 -0.32495105 0.3826835 0.9238795 6.584609E-16 153 135 81 255
7.583536E-09 -0.07000001 0.019999959 0.3826835 0.9238795 6.584609E-16 153 135 81 255
7.583536E-09 -0.07000001 0.019999959 -0.3826835 0.9238795 6.584609E-16 153 135 81 255
0.049497485 -0.049497485 -0.32495105 -0.3826835 0.9238795 6.584609E-16 153 135 81 255
7.583536E-09 -0.07000001 -0.32495105 -0.3826835 0.9238795 6.584609E-16 153 135 81 255
0.049497485 -0.049497485 0.019999959 -0.3826835 0.9238795 6.584609E-16 153 135 81 255
0.07000001 -7.583536E-09 0.019999959 -0.9238795 0.3826835 3.236458E-16 153 135 81 255
0.049497485 -0.049497485 -0.32495105 -0.9238795 0.3826835 3.236458E-16 153 135 81 255
0.049497485 -0.049497485 0.019999959 -0.9238795 0.3826835 3.236458E-16 153 135 81 255
0.07000001 -7.583536E-09 -0.32495105 -0.9238795 0.3826835 3.236458E-16 153 135 81 255
0.049497485 0.04949746 0.019999959 -0.9238795 -0.3826835 -3.132865E-16 153 135 81 255
0.07000001 -7.583536E-09 -0.32495105 -0.9238795 -0.3826835 -3.132865E-16 153 135 81 255
0.07000001 -7.583536E-09 0.019999959 -0.9238795 -0.3826835 -3.132865E-16 153 135 81 255
0.049497485 0.04949746 -0.32495105 -0.9238795 -0.3826835 -3.132865E-16 153 135 81 255
0.049497485 0.04949746 0.019999959 -0.3826831 -0.9238797 -7.244336E-16 153 135 81 255
7.583536E-09 0.069999956 -0.32495105 -0.3826831 -0.9238797 -7.244336E-16 153 135 81 255
0.049497485 0.04949746 -0.32495105 -0.3826831 -0.9238797 -7.244336E-16 153 135 81 255
7.583536E-09 0.069999956 0.019999959 -0.3826831 -0.9238797 -7.244336E-16 153 135 81 255
0.05444723 -0.05444723 -0.3300001 -2.918667E-23 3.536624E-16 -1 255 255 255 255
0.05444723 0.054447208 -0.3300001 -2.918667E-23 3.536624E-16 -1 255 255 255 255
0.07700002 -7.583536E-09 -0.3300001 -2.918667E-23 3.536624E-16 -1 255 255 255 255
7.583536E-09 -0.07700002 -0.3300001 -2.918667E-23 3.536624E-16 -1 255 255 255 255
7.583536E-09 0.07699994 -0.3300001 -2.918667E-23 3.536624E-16 -1 255 255 255 255
-0.054447208 -0.05444723 -0.3300001 -2.918667E-23 3.536624E-16 -1 255 255 255 255
-0.054447208 0.054447208 -0.3300001 -2.918667E-23 3.536624E-16 -1 255 255 255 255
-0.07699994 -7.583536E-09 -0.3300001 -2.918667E-23 3.536624E-16 -1 255 255 255 255
0.049497485 -0.049497485 -0.32495105 2.2784431E-23 3.890287E-16 -1 255 255 255 255
0.049497485 0.04949746 -0.32495105 2.2784431E-23 3.890287E-16 -1 255 255 255 255
0.07000001 -7.583536E-09 -0.32495105 2.2784431E-23 3.890287E-16 -1 255 255 255 255
7.583536E-09 -0.07000001 -0.32495105 2.2784431E-23 3.890287E-16 -1 255 255 255 255
7.583536E-09 0.069999956 -0.32495105 2.2784431E-23 3.890287E-16 -1 255 255 255 255
-0.04949746 -0.049497485 -0.32495105 2.2784431E-23 3.890287E-16 -1 255 255 255 255
-0.04949746 0.04949746 -0.32495105 2.2784431E-23 3.890287E-16 -1 255 255 255 255
-0.069999956 -7.583536E-09 -0.32495105 2.2784431E-23 3.890287E-16 -1 255 255 255 255
0.049497485 -0.049497485 0.019999959 1.5189621E-23 5.501696E-16 -1 255 255 255 255
0.049497485 0.04949746 0.019999959 1.5189621E-23 5.501696E-16 -1 255 255 255 255
0.07000001 -7.583536E-09 0.019999959 1.5189621E-23 5.501696E-16 -1 255 255 255 255
7.583536E-09 -0.07000001 0.019999959 1.5189621E-23 5.501696E-16 -1 255 255 255 255
7.583536E-09 0.069999956 0.019999959 1.5189621E-23 5.501696E-16 -1 255 255 255 255
-0.04949746 -0.049497485 0.019999959 1.5189621E-23 5.501696E-16 -1 255 255 255 255
-0.04949746 0.04949746 0.019999959 1.5189621E-23 5.501696E-16 -1 255 255 255 255
-0.069999956 -7.583536E-09 0.019999959 1.5189621E-23 5.501696E-16 -1 255 255 255 255
0.049497485 -0.049497485 0.049999896 1.5189621E-23 5.501696E-16 -1 255 255 255 255
0.049497485 0.04949746 0.049999896 1.5189621E-23 5.501696E-16 -1 255 255 255 255
0.07000001 -7.583536E-09 0.049999896 1.5189621E-23 5.501696E-16 -1 255 255 255 255
7.583536E-09 -0.07000001 0.049999896 1.5189621E-23 5.501696E-16 -1 255 255 255 255
7.583536E-09 0.069999956 0.049999896 1.5189621E-23 5.501696E-16 -1 255 255 255 255
-0.04949746 -0.049497485 0.049999896 1.5189621E-23 5.501696E-16 -1 255 255 255 255
-0.04949746 0.04949746 0.049999896 1.5189621E-23 5.501696E-16 -1 255 255 255 255
-0.069999956 -7.583536E-09 0.049999896 1.5189621E-23 5.501696E-16 -1 255 255 255 255
0.07000001 -7.583536E-09 0.049999896 -0.9238795 0.3826835 2.8582502E-16 199 125 55 255
0.049497485 -0.049497485 0.019999959 -0.9238795 0.3826835 2.8582502E-16 199 125 55 255
0.049497485 -0.049497485 0.049999896 -0.9238795 0.3826835 2.8582502E-16 199 125 55 255
0.07000001 -7.583536E-09 0.019999959 -0.9238795 0.3826835 2.8582502E-16 199 125 55 255
0.049497485 0.04949746 0.049999896 -0.9238795 -0.3826835 -3.0456271E-16 199 125 55 255
0.07000001 -7.583536E-09 0.019999959 -0.9238795 -0.3826835 -3.0456271E-16 199 125 55 255
0.07000001 -7.583536E-09 0.049999896 -0.9238795 -0.3826835 -3.0456271E-16 199 125 55 255
0.049497485 0.04949746 0.019999959 -0.9238795 -0.3826835 -3.0456271E-16 199 125 55 255
7.583536E-09 -0.07000001 0.049999896 -0.3826835 0.9238795 5.330773E-16 199 125 55 255
0.049497485 -0.049497485 0.019999959 -0.3826835 0.9238795 5.330773E-16 199 125 55 255
7.583536E-09 -0.07000001 0.019999959 -0.3826835 0.9238795 5.330773E-16 199 125 55 255
0.049497485 -0.049497485 0.049999896 -0.3826835 0.9238795 5.330773E-16 199 125 55 255
0.049497485 0.04949746 0.049999896 -0.3826831 -0.9238797 -7.1725167E-16 199 125 55 255
7.583536E-09 0.069999956 0.019999959 -0.3826831 -0.9238797 -7.1725167E-16 199 125 55 255
0.049497485 0.04949746 0.019999959 -0.3826831 -0.9238797 -7.1725167E-16 199 125 55 255
7.583536E-09 0.069999956 0.049999896 -0.3826831 -0.9238797 -7.1725167E-16 199 125 55 255
-0.04949746 -0.049497485 0.049999896 0.3826835 0.9238795 5.330773E-16 199 125 55 255
7.583536E-09 -0.07000001 0.019999959 0.3826835 0.9238795 5.330773E-16 199 125 55 255
-0.04949746 -0.049497485 0.019999959 0.3826835 0.9238795 5.330773E-16 199 125 55 255
7.583536E-09 -0.07000001 0.049999896 0.3826835 0.9238795 5.330773E-16 199 125 55 255
7.583536E-09 0.069999956 0.019999959 0.3826831 -0.9238797 -6.563392E-16 199 125 55 255
-0.04949746 0.04949746 0.049999896 0.3826831 -0.9238797 -6.563392E-16 199 125 55 255
-0.04949746 0.04949746 0.019999959 0.3826831 -0.9238797 -6.563392E-16 199 125 55 255
7.583536E-09 0.069999956 0.049999896 0.3826831 -0.9238797 -6.563392E-16 199 125 55 255
-0.04949746 -0.049497485 0.019999959 0.9238797 0.3826831 2.858259E-16 199 125 55 255
-0.069999956 -7.583536E-09 0.049999896 0.9238797 0.3826831 2.858259E-16 199 125 55 255
-0.04949746 -0.049497485 0.049999896 0.9238797 0.3826831 2.858259E-16 199 125 55 255
-0.069999956 -7.583536E-09 0.019999959 0.9238797 0.3826831 2.858259E-16 199 125 55 255
-0.069999956 -7.583536E-09 0.019999959 0.9238797 -0.3826831 -3.0456232E-16 199 125 55 255
-0.04949746 0.04949746 0.049999896 0.9238797 -0.3826831 -3.0456232E-16 199 125 55 255
-0.069999956 -7.583536E-09 0.049999896 0.9238797 -0.3826831 -3.0456232E-16 199 125 55 255
-0.04949746 0.04949746 0.019999959 0.9238797 -0.3826831 -3.0456232E-16 199 125 55 255
3 0 1 2
3 1 0 3
3 1 3 4
3 4 3 5
3 4 5 6
3 6 5 7
3 8 9 10
3 9 8 11
3 9 11 12
3 12 11 13
3 12 13 14
3 14 13 15
3 16 17 18
3 17 16 19
3 17 19 20
3 20 19 21
3 20 21 22
3 22 21 23
3 24 25 26
3 25 24 27
3 25 27 28
3 28 27 29
3 28 29 30
3 30 29 31
3 32 33 34
3 33 32 35
3 36 37 38
3 37 36 39
3 40 41 42
3 41 40 43
3 44 45 46
3 45 44 47
3 48 49 50
3 49 48 51
3 52 53 54
3 53 52 55
3 56 57 58
3 57 56 59
3 60 61 62
3 61 60 63
3 64 65 66
3 65 64 67
3 68 69 70
3 69 68 71
3 72 73 74
3 73 72 75
3 76 77 78
3 77 76 79
3 80 81 82
3 81 80 83
3 84 85 86
3 85 84 87
3 88 89 90
3 89 88 91
3 92 93 94
3 93 92 95
3 96 97 98
3 97 96 99
3 100 101 102
3 101 100 103
3 104 105 106
3 105 104 107
3 108 109 110
3 109 108 111
3 112 113 114
3 113 112 115
3 116 117 118
3 117 116 119
3 120 121 122
3 121 120 123
3 124 125 126
3 125 124 127
3 128 129 130
3 129 128 131
3 132 133 134
3 133 132 135
3 136 137 138
3 137 136 139
3 140 141 142
3 141 140 143
3 144 145 146
3 145 144 147
3 148 149 150
3 149 148 151
3 152 153 154
3 153 152 155
3 156 157 158
3 157 156 159
3 160 161 162
3 161 160 163
3 161 163 164
3 164 163 165
3 164 165 166
3 166 165 167
3 168 169 170
3 169 168 171
3 172 173 174
3 173 172 175
3 176 177 178
3 177 176 179
3 180 181 182
3 181 180 183
3 184 185 186
3 185 184 187
3 188 189 190
3 189 188 191
3 192 193 194
3 193 192 195
3 196 197 198
3 197 196 199
3 200 201 202
3 201 200 203
3 204 205 206
3 205 204 207
3 208 209 210
3 209 208 211
3 212 213 214
3 213 212 215
3 216 217 218
3 217 216 219
3 220 221 222
3 221 220 223
3 224 225 226
3 225 224 227
3 228 229 230
3 229 228 231
3 232 233 234
3 233 232 235
3 236 237 238
3 237 236 239
3 240 241 242
3 241 240 243
3 244 245 246
3 245 244 247
3 248 249 250
3 249 248 251
3 252 253 254
3 253 252 255
3 256 257 258
3 257 256 259
3 260 261 262
3 261 260 263
3 264 265 266
3 265 264 267
3 265 267 268
3 268 267 269
3 268 269 270
3 270 269 271
3 272 273 274
3 273 272 275
3 273 275 276
3 276 275 277
3 276 277 278
3 278 277 279
3 280 281 282
3 281 280 283
3 281 283 284
3 284 283 285
3 284 285 286
3 286 285 287
3 288 289 290
3 289 288 291
3 289 291 292
3 292 291 293
3 292 293 294
3 294 293 295
3 296 297 298
3 297 296 299
3 300 301 302
3 301 300 303
3 304 305 306
3 305 304 307
3 308 309 310
3 309 308 311
3 312 313 314
3 313 312 315
3 316 317 318
3 317 316 319
3 320 321 322
3 321 320 323
3 324 325 326
3 325 324 327

