ply
format ascii 1.0
commentY29udmVydGVyIGJ5IENvZGVMZW9wYXJk
comment Original mesh name: 'C:\Program Files (x86)\Steam\steamapps\common\Stormworks\rom\meshes\component_button_keypad_small.mesh'
comment SubMesh index: 0
comment SubMesh name: 'ID16'
comment Shader: Opaque (0)
element vertex 52
property float x
property float y
property float z
property float nx
property float ny
property float nz
property uchar red
property uchar green
property uchar blue
property uchar alpha
element face 34
property list uchar ushort vertex_index
end_header
0.125 -0.125 0.125 -2.52669E-14 -0 -1 255 125 0 255
0.105 -0.074999996 0.125 -2.52669E-14 -0 -1 255 125 0 255
0.125 0.125 0.125 -2.52669E-14 -0 -1 255 125 0 255
-0.125 -0.125 0.125 -2.52669E-14 -0 -1 255 125 0 255
-0.105 -0.074999996 0.125 -2.52669E-14 -0 -1 255 125 0 255
-0.105 0.074999996 0.125 -2.52669E-14 -0 -1 255 125 0 255
0.105 0.074999996 0.125 -2.52669E-14 -0 -1 255 125 0 255
-0.125 0.125 0.125 -2.52669E-14 -0 -1 255 125 0 255
0.105 -0.074999996 0.125 0 -1 -0 86 86 86 255
-0.105 -0.074999996 0.105 0 -1 -0 86 86 86 255
0.105 -0.074999996 0.105 0 -1 -0 86 86 86 255
-0.105 -0.074999996 0.125 0 -1 -0 86 86 86 255
-0.105 0.074999996 0.125 -1 -0 -0 86 86 86 255
-0.105 -0.074999996 0.105 -1 -0 -0 86 86 86 255
-0.105 -0.074999996 0.125 -1 -0 -0 86 86 86 255
-0.105 0.074999996 0.105 -1 -0 -0 86 86 86 255
0.105 -0.074999996 0.105 -1.998148E-14 -3.3087612E-15 -1 86 86 86 255
0.099999994 0.02999999 0.105 -1.998148E-14 -3.3087612E-15 -1 86 86 86 255
0.105 0.074999996 0.105 -1.998148E-14 -3.3087612E-15 -1 86 86 86 255
-0.105 -0.074999996 0.105 -1.998148E-14 -3.3087612E-15 -1 86 86 86 255
0.058000006 0.02999999 0.105 -1.998148E-14 -3.3087612E-15 -1 86 86 86 255
0.058000006 0.07000001 0.105 -1.998148E-14 -3.3087612E-15 -1 86 86 86 255
0.099999994 0.07000001 0.105 -1.998148E-14 -3.3087612E-15 -1 86 86 86 255
-0.105 0.074999996 0.105 -1.998148E-14 -3.3087612E-15 -1 86 86 86 255
0.105 0.074999996 0.105 1 -0 -0 86 86 86 255
0.105 -0.074999996 0.125 1 -0 -0 86 86 86 255
0.105 -0.074999996 0.105 1 -0 -0 86 86 86 255
0.105 0.074999996 0.125 1 -0 -0 86 86 86 255
-0.105 0.074999996 0.105 0 1 -0 86 86 86 255
0.105 0.074999996 0.125 0 1 -0 86 86 86 255
0.105 0.074999996 0.105 0 1 -0 86 86 86 255
-0.105 0.074999996 0.125 0 1 -0 86 86 86 255
0.058000006 0.07000001 0.105 1 -0 -0 86 86 86 255
0.058000006 0.02999999 0.125 1 -0 -0 86 86 86 255
0.058000006 0.02999999 0.105 1 -0 -0 86 86 86 255
0.058000006 0.07000001 0.125 1 -0 -0 86 86 86 255
0.099999994 0.07000001 0.125 0 -1 -0 86 86 86 255
0.058000006 0.07000001 0.105 0 -1 -0 86 86 86 255
0.099999994 0.07000001 0.105 0 -1 -0 86 86 86 255
0.058000006 0.07000001 0.125 0 -1 -0 86 86 86 255
0.058000006 0.02999999 0.125 0 -0 -1 86 86 86 255
0.099999994 0.07000001 0.125 0 -0 -1 86 86 86 255
0.099999994 0.02999999 0.125 0 -0 -1 86 86 86 255
0.058000006 0.07000001 0.125 0 -0 -1 86 86 86 255
0.058000006 0.02999999 0.125 0 1 -0 86 86 86 255
0.099999994 0.02999999 0.105 0 1 -0 86 86 86 255
0.058000006 0.02999999 0.105 0 1 -0 86 86 86 255
0.099999994 0.02999999 0.125 0 1 -0 86 86 86 255
0.099999994 0.07000001 0.125 -1 -0 -0 86 86 86 255
0.099999994 0.02999999 0.105 -1 -0 -0 86 86 86 255
0.099999994 0.02999999 0.125 -1 -0 -0 86 86 86 255
0.099999994 0.07000001 0.105 -1 -0 -0 86 86 86 255
3 0 1 2
3 1 0 3
3 1 3 4
3 4 3 5
3 2 6 7
3 6 2 1
3 7 6 5
3 7 5 3
3 8 9 10
3 9 8 11
3 12 13 14
3 13 12 15
3 16 17 18
3 17 16 19
3 17 19 20
3 20 19 21
3 18 22 23
3 22 18 17
3 23 22 21
3 23 21 19
3 24 25 26
3 25 24 27
3 28 29 30
3 29 28 31
3 32 33 34
3 33 32 35
3 36 37 38
3 37 36 39
3 40 41 42
3 41 40 43
3 44 45 46
3 45 44 47
3 48 49 50
3 49 48 51

