ply
format ascii 1.0
commentY29udmVydGVyIGJ5IENvZGVMZW9wYXJk
comment Original mesh name: 'C:\Program Files (x86)\Steam\steamapps\common\Stormworks\rom\meshes\component_piston_suspension_a.mesh'
comment SubMesh index: 0
comment SubMesh name: 'ID3'
comment Shader: Opaque (0)
element vertex 84
property float x
property float y
property float z
property float nx
property float ny
property float nz
property uchar red
property uchar green
property uchar blue
property uchar alpha
element face 50
property list uchar ushort vertex_index
end_header
0.08250001 0.034172624 0.32500008 -3.093748E-15 7.468968E-15 -1 86 86 86 255
-0.034172613 0.08250001 0.32500008 -3.093748E-15 7.468968E-15 -1 86 86 86 255
0.034172624 0.08250001 0.32500008 -3.093748E-15 7.468968E-15 -1 86 86 86 255
-0.08249997 0.034172624 0.32500008 -3.093748E-15 7.468968E-15 -1 86 86 86 255
0.08250001 -0.034172613 0.32500008 -3.093748E-15 7.468968E-15 -1 86 86 86 255
-0.08249997 -0.034172613 0.32500008 -3.093748E-15 7.468968E-15 -1 86 86 86 255
0.034172624 -0.08249997 0.32500008 -3.093748E-15 7.468968E-15 -1 86 86 86 255
-0.034172613 -0.08249997 0.32500008 -3.093748E-15 7.468968E-15 -1 86 86 86 255
0.08250001 -0.034172613 0.32500008 -1 -0 -0 86 86 86 255
0.08250001 0.034172624 -0.04500001 -1 -0 -0 86 86 86 255
0.08250001 -0.034172613 -0.04500001 -1 -0 -0 86 86 86 255
0.08250001 0.034172624 0.32500008 -1 -0 -0 86 86 86 255
0.034172624 -0.08249997 0.32500008 -0.70710677 0.70710677 1.5901447E-24 86 86 86 255
0.08250001 -0.034172613 -0.04500001 -0.70710677 0.70710677 1.5901447E-24 86 86 86 255
0.034172624 -0.08249997 -0.04500001 -0.70710677 0.70710677 1.5901447E-24 86 86 86 255
0.08250001 -0.034172613 0.32500008 -0.70710677 0.70710677 1.5901447E-24 86 86 86 255
-0.034172613 -0.08249997 -0.04500001 0 1 -0 86 86 86 255
0.034172624 -0.08249997 0.32500008 0 1 -0 86 86 86 255
0.034172624 -0.08249997 -0.04500001 0 1 -0 86 86 86 255
-0.034172613 -0.08249997 0.32500008 0 1 -0 86 86 86 255
-0.08249997 -0.034172613 0.32500008 0.70710677 0.70710677 1.5901447E-24 86 86 86 255
-0.034172613 -0.08249997 -0.04500001 0.70710677 0.70710677 1.5901447E-24 86 86 86 255
-0.08249997 -0.034172613 -0.04500001 0.70710677 0.70710677 1.5901447E-24 86 86 86 255
-0.034172613 -0.08249997 0.32500008 0.70710677 0.70710677 1.5901447E-24 86 86 86 255
-0.08249997 0.034172624 0.32500008 1 -0 -0 86 86 86 255
-0.08249997 -0.034172613 -0.04500001 1 -0 -0 86 86 86 255
-0.08249997 0.034172624 -0.04500001 1 -0 -0 86 86 86 255
-0.08249997 -0.034172613 0.32500008 1 -0 -0 86 86 86 255
-0.08249997 0.034172624 0.32500008 0.70710677 -0.70710677 2.9597079E-18 86 86 86 255
-0.034172613 0.08250001 -0.04500001 0.70710677 -0.70710677 2.9597079E-18 86 86 86 255
-0.034172613 0.08250001 0.32500008 0.70710677 -0.70710677 2.9597079E-18 86 86 86 255
-0.08249997 0.034172624 -0.04500001 0.70710677 -0.70710677 2.9597079E-18 86 86 86 255
-0.034172613 0.08250001 0.32500008 0 -1 -0 86 86 86 255
0.034172624 0.08250001 -0.04500001 0 -1 -0 86 86 86 255
0.034172624 0.08250001 0.32500008 0 -1 -0 86 86 86 255
-0.034172613 0.08250001 -0.04500001 0 -1 -0 86 86 86 255
0.034172624 0.08250001 0.32500008 -0.70710677 -0.70710677 -1.5901447E-24 86 86 86 255
0.08250001 0.034172624 -0.04500001 -0.70710677 -0.70710677 -1.5901447E-24 86 86 86 255
0.08250001 0.034172624 0.32500008 -0.70710677 -0.70710677 -1.5901447E-24 86 86 86 255
0.034172624 0.08250001 -0.04500001 -0.70710677 -0.70710677 -1.5901447E-24 86 86 86 255
0.125 0.051776703 -0.04500001 0 -0 -1 86 86 86 255
-0.05177668 0.125 -0.04500001 0 -0 -1 86 86 86 255
0.051776703 0.125 -0.04500001 0 -0 -1 86 86 86 255
0.034172624 0.08250001 -0.04500001 0 -0 -1 86 86 86 255
0.08250001 0.034172624 -0.04500001 0 -0 -1 86 86 86 255
0.125 -0.05177668 -0.04500001 0 -0 -1 86 86 86 255
0.08250001 -0.034172613 -0.04500001 0 -0 -1 86 86 86 255
0.034172624 -0.08249997 -0.04500001 0 -0 -1 86 86 86 255
0.051776703 -0.125 -0.04500001 0 -0 -1 86 86 86 255
-0.034172613 -0.08249997 -0.04500001 0 -0 -1 86 86 86 255
-0.034172613 0.08250001 -0.04500001 0 -0 -1 86 86 86 255
-0.125 0.051776703 -0.04500001 0 -0 -1 86 86 86 255
-0.08249997 0.034172624 -0.04500001 0 -0 -1 86 86 86 255
-0.125 -0.05177668 -0.04500001 0 -0 -1 86 86 86 255
-0.08249997 -0.034172613 -0.04500001 0 -0 -1 86 86 86 255
-0.05177668 -0.125 -0.04500001 0 -0 -1 86 86 86 255
-0.125 -0.125 -0.125 -4.083748E-15 1 1.8047785E-14 86 86 86 255
0.051776703 -0.125 -0.04500001 -4.083748E-15 1 1.8047785E-14 86 86 86 255
0.125 -0.125 -0.125 -4.083748E-15 1 1.8047785E-14 86 86 86 255
-0.05177668 -0.125 -0.04500001 -4.083748E-15 1 1.8047785E-14 86 86 86 255
-0.05177668 -0.125 -0.04500001 0.5936251 0.5936251 -0.54333997 86 86 86 255
-0.125 -0.125 -0.125 0.5936251 0.5936251 -0.54333997 86 86 86 255
-0.125 -0.05177668 -0.04500001 0.5936251 0.5936251 -0.54333997 86 86 86 255
-0.125 0.051776703 -0.04500001 1 -1.2010561E-31 1.804779E-14 86 86 86 255
-0.125 -0.125 -0.125 1 -1.2010561E-31 1.804779E-14 86 86 86 255
-0.125 0.125 -0.125 1 -1.2010561E-31 1.804779E-14 86 86 86 255
-0.125 -0.05177668 -0.04500001 1 -1.2010561E-31 1.804779E-14 86 86 86 255
-0.125 0.051776703 -0.04500001 0.5936251 -0.5936251 -0.54333997 86 86 86 255
-0.125 0.125 -0.125 0.5936251 -0.5936251 -0.54333997 86 86 86 255
-0.05177668 0.125 -0.04500001 0.5936251 -0.5936251 -0.54333997 86 86 86 255
0.051776703 0.125 -0.04500001 0 -1 -0 86 86 86 255
-0.125 0.125 -0.125 0 -1 -0 86 86 86 255
0.125 0.125 -0.125 0 -1 -0 86 86 86 255
-0.05177668 0.125 -0.04500001 0 -1 -0 86 86 86 255
0.051776703 0.125 -0.04500001 -0.5936251 -0.5936251 -0.54333997 86 86 86 255
0.125 0.125 -0.125 -0.5936251 -0.5936251 -0.54333997 86 86 86 255
0.125 0.051776703 -0.04500001 -0.5936251 -0.5936251 -0.54333997 86 86 86 255
0.125 -0.125 -0.125 -1 -3.0026322E-32 -4.5119463E-15 86 86 86 255
0.125 0.051776703 -0.04500001 -1 -3.0026322E-32 -4.5119463E-15 86 86 86 255
0.125 0.125 -0.125 -1 -3.0026322E-32 -4.5119463E-15 86 86 86 255
0.125 -0.05177668 -0.04500001 -1 -3.0026322E-32 -4.5119463E-15 86 86 86 255
0.051776703 -0.125 -0.04500001 -0.5936251 0.5936251 -0.54333997 86 86 86 255
0.125 -0.05177668 -0.04500001 -0.5936251 0.5936251 -0.54333997 86 86 86 255
0.125 -0.125 -0.125 -0.5936251 0.5936251 -0.54333997 86 86 86 255
3 0 1 2
3 1 0 3
3 3 0 4
3 3 4 5
3 5 4 6
3 5 6 7
3 8 9 10
3 9 8 11
3 12 13 14
3 13 12 15
3 16 17 18
3 17 16 19
3 20 21 22
3 21 20 23
3 24 25 26
3 25 24 27
3 28 29 30
3 29 28 31
3 32 33 34
3 33 32 35
3 36 37 38
3 37 36 39
3 40 41 42
3 41 40 43
3 43 40 44
3 44 40 45
3 44 45 46
3 46 45 47
3 47 45 48
3 47 48 49
3 41 50 51
3 50 41 43
3 51 50 52
3 51 52 53
3 53 52 54
3 53 54 49
3 53 49 55
3 55 49 48
3 56 57 58
3 57 56 59
3 60 61 62
3 63 64 65
3 64 63 66
3 67 68 69
3 70 71 72
3 71 70 73
3 74 75 76
3 77 78 79
3 78 77 80
3 81 82 83

