ply
format ascii 1.0
commentY29udmVydGVyIGJ5IENvZGVMZW9wYXJk
comment Original mesh name: 'C:\Program Files (x86)\Steam\steamapps\common\Stormworks\rom\meshes\component_rotary_table.mesh'
comment SubMesh index: 0
comment SubMesh name: 'ID20'
comment Shader: Opaque (0)
element vertex 132
property float x
property float y
property float z
property float nx
property float ny
property float nz
property uchar red
property uchar green
property uchar blue
property uchar alpha
element face 100
property list uchar ushort vertex_index
end_header
0.8749999 -0.8749999 0.37499997 0 -0 -1 255 125 0 255
0.6449999 -0.26716775 0.37499997 0 -0 -1 255 125 0 255
0.8749999 0.8749999 0.37499997 0 -0 -1 255 125 0 255
0.26716775 -0.6449999 0.37499997 0 -0 -1 255 125 0 255
-0.8749999 -0.8749999 0.37499997 0 -0 -1 255 125 0 255
-0.26716766 -0.6449999 0.37499997 0 -0 -1 255 125 0 255
-0.64500004 -0.26716775 0.37499997 0 -0 -1 255 125 0 255
-0.8749999 0.8749999 0.37499997 0 -0 -1 255 125 0 255
0.26716775 0.64500004 0.37499997 0 -0 -1 255 125 0 255
0.6449999 0.26716766 0.37499997 0 -0 -1 255 125 0 255
-0.26716766 0.64500004 0.37499997 0 -0 -1 255 125 0 255
-0.64500004 0.26716766 0.37499997 0 -0 -1 255 125 0 255
0.26716775 -0.6449999 0.12500001 0 -0 -1 86 86 86 255
0.6449999 0.26716766 0.12500001 0 -0 -1 86 86 86 255
0.6449999 -0.26716775 0.12500001 0 -0 -1 86 86 86 255
0.42499983 -0.17604074 0.12500001 0 -0 -1 86 86 86 255
0.17604074 -0.42499983 0.12500001 0 -0 -1 86 86 86 255
-0.26716766 -0.6449999 0.12500001 0 -0 -1 86 86 86 255
-0.17604083 -0.42499983 0.12500001 0 -0 -1 86 86 86 255
-0.42499992 -0.17604074 0.12500001 0 -0 -1 86 86 86 255
-0.64500004 -0.26716775 0.12500001 0 -0 -1 86 86 86 255
-0.42499992 0.17604083 0.12500001 0 -0 -1 86 86 86 255
-0.64500004 0.26716766 0.12500001 0 -0 -1 86 86 86 255
0.42499983 0.17604083 0.12500001 0 -0 -1 86 86 86 255
0.26716775 0.64500004 0.12500001 0 -0 -1 86 86 86 255
0.17604074 0.42499992 0.12500001 0 -0 -1 86 86 86 255
-0.26716766 0.64500004 0.12500001 0 -0 -1 86 86 86 255
-0.17604083 0.42499992 0.12500001 0 -0 -1 86 86 86 255
-0.26716766 -0.6449999 0.37499997 -0.70710677 -0.70710677 -0 86 86 86 255
-0.64500004 -0.26716775 0.12500001 -0.70710677 -0.70710677 -0 86 86 86 255
-0.26716766 -0.6449999 0.12500001 -0.70710677 -0.70710677 -0 86 86 86 255
-0.64500004 -0.26716775 0.37499997 -0.70710677 -0.70710677 -0 86 86 86 255
-0.64500004 0.26716766 0.37499997 -1 -5.7837813E-16 -0 86 86 86 255
-0.64500004 -0.26716775 0.12500001 -1 -5.7837813E-16 -0 86 86 86 255
-0.64500004 -0.26716775 0.37499997 -1 -5.7837813E-16 -0 86 86 86 255
-0.64500004 0.26716766 0.12500001 -1 -5.7837813E-16 -0 86 86 86 255
-0.26716766 0.64500004 0.37499997 -0.70710677 0.70710677 -0 86 86 86 255
-0.64500004 0.26716766 0.12500001 -0.70710677 0.70710677 -0 86 86 86 255
-0.64500004 0.26716766 0.37499997 -0.70710677 0.70710677 -0 86 86 86 255
-0.26716766 0.64500004 0.12500001 -0.70710677 0.70710677 -0 86 86 86 255
-0.26716766 0.64500004 0.37499997 9.714451E-17 1 -0 86 86 86 255
0.26716775 0.64500004 0.12500001 9.714451E-17 1 -0 86 86 86 255
-0.26716766 0.64500004 0.12500001 9.714451E-17 1 -0 86 86 86 255
0.26716775 0.64500004 0.37499997 9.714451E-17 1 -0 86 86 86 255
0.26716775 0.64500004 0.37499997 0.70710677 0.70710677 -0 86 86 86 255
0.6449999 0.26716766 0.12500001 0.70710677 0.70710677 -0 86 86 86 255
0.26716775 0.64500004 0.12500001 0.70710677 0.70710677 -0 86 86 86 255
0.6449999 0.26716766 0.37499997 0.70710677 0.70710677 -0 86 86 86 255
0.6449999 0.26716766 0.12500001 1 -9.714451E-17 -0 86 86 86 255
0.6449999 -0.26716775 0.37499997 1 -9.714451E-17 -0 86 86 86 255
0.6449999 -0.26716775 0.12500001 1 -9.714451E-17 -0 86 86 86 255
0.6449999 0.26716766 0.37499997 1 -9.714451E-17 -0 86 86 86 255
0.6449999 -0.26716775 0.37499997 0.70710677 -0.70710677 -0 86 86 86 255
0.26716775 -0.6449999 0.12500001 0.70710677 -0.70710677 -0 86 86 86 255
0.6449999 -0.26716775 0.12500001 0.70710677 -0.70710677 -0 86 86 86 255
0.26716775 -0.6449999 0.37499997 0.70710677 -0.70710677 -0 86 86 86 255
0.26716775 -0.6449999 0.37499997 -9.714451E-17 -1 -0 86 86 86 255
-0.26716766 -0.6449999 0.12500001 -9.714451E-17 -1 -0 86 86 86 255
0.26716775 -0.6449999 0.12500001 -9.714451E-17 -1 -0 86 86 86 255
-0.26716766 -0.6449999 0.37499997 -9.714451E-17 -1 -0 86 86 86 255
0.26716775 0.64500004 -0.12499997 0 -0 1 86 86 86 255
0.6449999 -0.26716775 -0.12499997 0 -0 1 86 86 86 255
0.6449999 0.26716766 -0.12499997 0 -0 1 86 86 86 255
0.42499983 0.17604083 -0.12499997 0 -0 1 86 86 86 255
0.17604074 0.42499992 -0.12499997 0 -0 1 86 86 86 255
-0.26716766 0.64500004 -0.12499997 0 -0 1 86 86 86 255
-0.17604083 0.42499992 -0.12499997 0 -0 1 86 86 86 255
-0.42499992 0.17604083 -0.12499997 0 -0 1 86 86 86 255
-0.64500004 0.26716766 -0.12499997 0 -0 1 86 86 86 255
0.42499983 -0.17604074 -0.12499997 0 -0 1 86 86 86 255
0.26716775 -0.6449999 -0.12499997 0 -0 1 86 86 86 255
0.17604074 -0.42499983 -0.12499997 0 -0 1 86 86 86 255
-0.26716766 -0.6449999 -0.12499997 0 -0 1 86 86 86 255
-0.17604083 -0.42499983 -0.12499997 0 -0 1 86 86 86 255
-0.42499992 -0.17604074 -0.12499997 0 -0 1 86 86 86 255
-0.64500004 -0.26716775 -0.12499997 0 -0 1 86 86 86 255
0.26716775 0.64500004 -0.12499997 0.70710677 0.70710677 -0 86 86 86 255
0.6449999 0.26716766 -0.37499997 0.70710677 0.70710677 -0 86 86 86 255
0.26716775 0.64500004 -0.37499997 0.70710677 0.70710677 -0 86 86 86 255
0.6449999 0.26716766 -0.12499997 0.70710677 0.70710677 -0 86 86 86 255
-0.26716766 0.64500004 -0.12499997 9.714451E-17 1 -0 86 86 86 255
0.26716775 0.64500004 -0.37499997 9.714451E-17 1 -0 86 86 86 255
-0.26716766 0.64500004 -0.37499997 9.714451E-17 1 -0 86 86 86 255
0.26716775 0.64500004 -0.12499997 9.714451E-17 1 -0 86 86 86 255
-0.26716766 0.64500004 -0.12499997 -0.70710677 0.70710677 -0 86 86 86 255
-0.64500004 0.26716766 -0.37499997 -0.70710677 0.70710677 -0 86 86 86 255
-0.64500004 0.26716766 -0.12499997 -0.70710677 0.70710677 -0 86 86 86 255
-0.26716766 0.64500004 -0.37499997 -0.70710677 0.70710677 -0 86 86 86 255
-0.64500004 0.26716766 -0.12499997 -1 -5.7837813E-16 -0 86 86 86 255
-0.64500004 -0.26716775 -0.37499997 -1 -5.7837813E-16 -0 86 86 86 255
-0.64500004 -0.26716775 -0.12499997 -1 -5.7837813E-16 -0 86 86 86 255
-0.64500004 0.26716766 -0.37499997 -1 -5.7837813E-16 -0 86 86 86 255
-0.26716766 -0.6449999 -0.12499997 -0.70710677 -0.70710677 -0 86 86 86 255
-0.64500004 -0.26716775 -0.37499997 -0.70710677 -0.70710677 -0 86 86 86 255
-0.26716766 -0.6449999 -0.37499997 -0.70710677 -0.70710677 -0 86 86 86 255
-0.64500004 -0.26716775 -0.12499997 -0.70710677 -0.70710677 -0 86 86 86 255
0.26716775 -0.6449999 -0.12499997 -9.714451E-17 -1 -0 86 86 86 255
-0.26716766 -0.6449999 -0.37499997 -9.714451E-17 -1 -0 86 86 86 255
0.26716775 -0.6449999 -0.37499997 -9.714451E-17 -1 -0 86 86 86 255
-0.26716766 -0.6449999 -0.12499997 -9.714451E-17 -1 -0 86 86 86 255
0.6449999 -0.26716775 -0.12499997 0.70710677 -0.70710677 -0 86 86 86 255
0.26716775 -0.6449999 -0.37499997 0.70710677 -0.70710677 -0 86 86 86 255
0.6449999 -0.26716775 -0.37499997 0.70710677 -0.70710677 -0 86 86 86 255
0.26716775 -0.6449999 -0.12499997 0.70710677 -0.70710677 -0 86 86 86 255
0.6449999 0.26716766 -0.37499997 1 -9.714451E-17 -0 86 86 86 255
0.6449999 -0.26716775 -0.12499997 1 -9.714451E-17 -0 86 86 86 255
0.6449999 -0.26716775 -0.37499997 1 -9.714451E-17 -0 86 86 86 255
0.6449999 0.26716766 -0.12499997 1 -9.714451E-17 -0 86 86 86 255
0.8749999 -0.12499997 0.12500001 -1 -0 -0 55 125 0 255
0.8749999 -0.06249994 0.025888486 -1 -0 -0 55 125 0 255
0.8749999 -0.12499997 -0.12499997 -1 -0 -0 55 125 0 255
0.8749999 -0.02588844 0.062499985 -1 -0 -0 55 125 0 255
0.8749999 0.12500006 0.12500001 -1 -0 -0 55 125 0 255
0.8749999 0.02588844 0.062499985 -1 -0 -0 55 125 0 255
0.8749999 0.06250003 0.025888486 -1 -0 -0 55 125 0 255
0.8749999 0.06250003 -0.025888417 -1 -0 -0 55 125 0 255
0.8749999 -0.02588844 -0.062499963 -1 -0 -0 55 125 0 255
0.8749999 0.12500006 -0.12499997 -1 -0 -0 55 125 0 255
0.8749999 -0.06249994 -0.025888417 -1 -0 -0 55 125 0 255
0.8749999 0.02588844 -0.062499963 -1 -0 -0 55 125 0 255
0.8749999 0.8749999 -0.37499997 0 -0 1 255 125 0 255
0.6449999 0.26716766 -0.37499997 0 -0 1 255 125 0 255
0.8749999 -0.8749999 -0.37499997 0 -0 1 255 125 0 255
0.26716775 0.64500004 -0.37499997 0 -0 1 255 125 0 255
-0.8749999 0.8749999 -0.37499997 0 -0 1 255 125 0 255
-0.26716766 0.64500004 -0.37499997 0 -0 1 255 125 0 255
-0.64500004 0.26716766 -0.37499997 0 -0 1 255 125 0 255
-0.64500004 -0.26716775 -0.37499997 0 -0 1 255 125 0 255
0.26716775 -0.6449999 -0.37499997 0 -0 1 255 125 0 255
-0.8749999 -0.8749999 -0.37499997 0 -0 1 255 125 0 255
0.6449999 -0.26716775 -0.37499997 0 -0 1 255 125 0 255
-0.26716766 -0.6449999 -0.37499997 0 -0 1 255 125 0 255
3 0 1 2
3 1 0 3
3 3 0 4
3 3 4 5
3 5 4 6
3 6 4 7
3 2 8 7
3 8 2 9
3 9 2 1
3 7 8 10
3 7 10 11
3 7 11 6
3 12 13 14
3 13 12 15
3 15 12 16
3 16 12 17
3 16 17 18
3 18 17 19
3 19 17 20
3 19 20 21
3 21 20 22
3 13 23 24
3 23 13 15
3 24 23 25
3 24 25 26
3 26 25 27
3 26 27 21
3 26 21 22
3 28 29 30
3 29 28 31
3 32 33 34
3 33 32 35
3 36 37 38
3 37 36 39
3 40 41 42
3 41 40 43
3 44 45 46
3 45 44 47
3 48 49 50
3 49 48 51
3 52 53 54
3 53 52 55
3 56 57 58
3 57 56 59
3 60 61 62
3 61 60 63
3 63 60 64
3 64 60 65
3 64 65 66
3 66 65 67
3 67 65 68
3 61 69 70
3 69 61 63
3 70 69 71
3 70 71 72
3 72 71 73
3 72 73 74
3 72 74 75
3 75 74 67
3 75 67 68
3 76 77 78
3 77 76 79
3 80 81 82
3 81 80 83
3 84 85 86
3 85 84 87
3 88 89 90
3 89 88 91
3 92 93 94
3 93 92 95
3 96 97 98
3 97 96 99
3 100 101 102
3 101 100 103
3 104 105 106
3 105 104 107
3 108 109 110
3 109 108 111
3 111 108 112
3 111 112 113
3 113 112 114
3 114 112 115
3 110 116 117
3 116 110 118
3 118 110 109
3 117 116 119
3 117 119 115
3 117 115 112
3 120 121 122
3 121 120 123
3 123 120 124
3 123 124 125
3 125 124 126
3 126 124 127
3 122 128 129
3 128 122 130
3 130 122 121
3 129 128 131
3 129 131 127
3 129 127 124

