ply
format ascii 1.0
commentY29udmVydGVyIGJ5IENvZGVMZW9wYXJk
comment Original mesh name: 'C:\Program Files (x86)\Steam\steamapps\common\Stormworks\rom\meshes\component_window_corner.mesh'
comment SubMesh index: 0
comment SubMesh name: 'ID2'
comment Shader: Opaque (0)
element vertex 106
property float x
property float y
property float z
property float nx
property float ny
property float nz
property uchar red
property uchar green
property uchar blue
property uchar alpha
element face 62
property list uchar ushort vertex_index
end_header
0.048670083 0.125 -0.108670086 0 -0 -1 255 125 0 255
-0.108670056 0.34234017 -0.108670086 0 -0 -1 255 125 0 255
0.108670056 0.125 -0.108670086 0 -0 -1 255 125 0 255
-0.108670056 0.28234002 -0.108670086 0 -0 -1 255 125 0 255
0.108670056 -0.35867006 0.37499997 0 -0.70710677 -0.70710677 255 125 0 255
0.048670083 0.125 -0.108670086 0 -0.70710677 -0.70710677 255 125 0 255
0.108670056 0.125 -0.108670086 0 -0.70710677 -0.70710677 255 125 0 255
0.048670083 -0.35867006 0.37499997 0 -0.70710677 -0.70710677 255 125 0 255
-0.108670056 0.34234017 -0.108670086 -1 -0 -0 255 125 0 255
-0.108670056 -0.35867006 0.53234005 -1 -0 -0 255 125 0 255
-0.108670056 -0.35867006 0.5923402 -1 -0 -0 255 125 0 255
-0.108670056 0.28234002 -0.108670086 -1 -0 -0 255 125 0 255
-0.108670056 -0.35867006 0.5923402 0 -1 -0 255 125 0 255
0.048670083 -0.35867006 0.37499997 0 -1 -0 255 125 0 255
0.108670056 -0.35867006 0.37499997 0 -1 -0 255 125 0 255
-0.108670056 -0.35867006 0.53234005 0 -1 -0 255 125 0 255
0.06499999 0.09671582 -0.125 0 0.7071066 0.7071069 255 125 0 255
0.125 -0.35500005 0.3267156 0 0.7071066 0.7071069 255 125 0 255
0.125 0.09671582 -0.125 0 0.7071066 0.7071069 255 125 0 255
0.06499999 -0.35500005 0.3267156 0 0.7071066 0.7071069 255 125 0 255
0.06499999 -0.13328429 -0.35500005 -1.125512E-16 0.7071066 -0.707107 255 125 0 255
0.125 0.09671582 -0.125 -1.125512E-16 0.7071066 -0.707107 255 125 0 255
0.125 -0.13328429 -0.35500005 -1.125512E-16 0.7071066 -0.707107 255 125 0 255
0.06499999 0.09671582 -0.125 -1.125512E-16 0.7071066 -0.707107 255 125 0 255
0.125 -0.35500005 0.3267156 0 -1 -0 255 125 0 255
0.06499999 -0.35500005 -0.35500005 0 -1 -0 255 125 0 255
0.125 -0.35500005 -0.35500005 0 -1 -0 255 125 0 255
0.06499999 -0.35500005 0.3267156 0 -1 -0 255 125 0 255
0.06499999 -0.35500005 -0.35500005 0 -0 -1 255 125 0 255
0.125 -0.13328429 -0.35500005 0 -0 -1 255 125 0 255
0.125 -0.35500005 -0.35500005 0 -0 -1 255 125 0 255
0.06499999 -0.13328429 -0.35500005 0 -0 -1 255 125 0 255
-0.125 0.37499997 -0.125 0 -0 1 255 125 0 255
0.06499999 0.125 -0.125 0 -0 1 255 125 0 255
0.125 0.125 -0.125 0 -0 1 255 125 0 255
-0.125 0.31499985 -0.125 0 -0 1 255 125 0 255
-0.125 0.31499985 -0.125 1 -0 -0 255 125 0 255
-0.125 -0.37499997 0.625 1 -0 -0 255 125 0 255
-0.125 -0.37499997 0.5649998 1 -0 -0 255 125 0 255
-0.125 0.37499997 -0.125 1 -0 -0 255 125 0 255
-0.125 0.31499985 -0.125 0.57735 0.5773504 0.5773504 255 125 0 255
-0.108670056 0.28234002 -0.108670086 0.57735 0.5773504 0.5773504 255 125 0 255
0.06499999 0.125 -0.125 0.57735 0.5773504 0.5773504 255 125 0 255
-0.125 -0.37499997 0.5649998 0.57735 0.5773504 0.5773504 255 125 0 255
-0.108670056 -0.35867006 0.53234005 0.57735 0.5773504 0.5773504 255 125 0 255
0.048670083 0.125 -0.108670086 0.57735 0.5773504 0.5773504 255 125 0 255
0.06499999 -0.37499997 0.37499997 0.57735 0.5773504 0.5773504 255 125 0 255
0.048670083 -0.35867006 0.37499997 0.57735 0.5773504 0.5773504 255 125 0 255
0.125 0.125 -0.125 0 -1 -0 255 125 0 255
0.06499999 0.125 -0.37499997 0 -1 -0 255 125 0 255
0.125 0.125 -0.37499997 0 -1 -0 255 125 0 255
0.06499999 0.125 -0.125 0 -1 -0 255 125 0 255
-0.125 -0.37499997 0.5649998 0 1 -0 255 125 0 255
0.125 -0.37499997 0.37499997 0 1 -0 255 125 0 255
0.06499999 -0.37499997 0.37499997 0 1 -0 255 125 0 255
-0.125 -0.37499997 0.625 0 1 -0 255 125 0 255
0.06499999 -0.37499997 -0.37499997 1 -0 -0 255 125 0 255
0.06499999 -0.35500005 -0.35500005 1 -0 -0 255 125 0 255
0.06499999 -0.37499997 0.37499997 1 -0 -0 255 125 0 255
0.06499999 0.125 -0.37499997 1 -0 -0 255 125 0 255
0.06499999 -0.13328429 -0.35500005 1 -0 -0 255 125 0 255
0.06499999 0.09671582 -0.125 1 -0 -0 255 125 0 255
0.06499999 -0.35500005 0.3267156 1 -0 -0 255 125 0 255
0.06499999 0.125 -0.125 1 -0 -0 255 125 0 255
0.125 -0.37499997 0.37499997 0 -0.70710677 -0.70710677 255 125 0 255
0.06499999 0.125 -0.125 0 -0.70710677 -0.70710677 255 125 0 255
0.125 0.125 -0.125 0 -0.70710677 -0.70710677 255 125 0 255
0.06499999 -0.37499997 0.37499997 0 -0.70710677 -0.70710677 255 125 0 255
0.06499999 0.125 -0.37499997 0 -0 1 255 125 0 255
0.125 -0.37499997 -0.37499997 0 -0 1 255 125 0 255
0.125 0.125 -0.37499997 0 -0 1 255 125 0 255
0.06499999 -0.37499997 -0.37499997 0 -0 1 255 125 0 255
0.125 -0.37499997 -0.37499997 0 1 -0 255 125 0 255
0.06499999 -0.37499997 -0.37499997 0 1 -0 255 125 0 255
-0.125 -0.37499997 0.625 -0.5773503 -0.5773503 -0.5773502 55 125 0 255
-0.108670056 -0.35867006 0.5923402 -0.5773503 -0.5773503 -0.5773502 55 125 0 255
0.125 -0.37499997 0.37499997 -0.5773503 -0.5773503 -0.5773502 55 125 0 255
-0.125 0.37499997 -0.125 -0.5773503 -0.5773503 -0.5773502 55 125 0 255
-0.108670056 0.34234017 -0.108670086 -0.5773503 -0.5773503 -0.5773502 55 125 0 255
0.108670056 -0.35867006 0.37499997 -0.5773503 -0.5773503 -0.5773502 55 125 0 255
0.125 0.125 -0.125 -0.5773503 -0.5773503 -0.5773502 55 125 0 255
0.108670056 0.125 -0.108670086 -0.5773503 -0.5773503 -0.5773502 55 125 0 255
0.125 -0.37499997 0.37499997 -1 -0 -0 55 125 0 255
0.125 -0.35500005 0.3267156 -1 -0 -0 55 125 0 255
0.125 -0.37499997 -0.37499997 -1 -0 -0 55 125 0 255
0.125 0.125 -0.125 -1 -0 -0 55 125 0 255
0.125 0.09671582 -0.125 -1 -0 -0 55 125 0 255
0.125 -0.35500005 -0.35500005 -1 -0 -0 55 125 0 255
0.125 0.125 -0.37499997 -1 -0 -0 55 125 0 255
0.125 -0.13328429 -0.35500005 -1 -0 -0 55 125 0 255
0.125 0.09671558 -0.12500004 -1 -0 -0 160 160 199 128
0.125 -0.35500005 -0.35500005 -1 -0 -0 160 160 199 128
0.125 -0.35500005 0.3267156 -1 -0 -0 160 160 199 128
0.125 -0.13328432 -0.35500005 -1 -0 -0 160 160 199 128
-0.108670056 0.34234017 -0.10867011 -0.5773503 -0.5773502 -0.5773502 160 160 199 128
0.108670056 -0.35867006 0.37499997 -0.5773503 -0.5773502 -0.5773502 160 160 199 128
-0.108670056 -0.35867006 0.5923402 -0.5773503 -0.5773502 -0.5773502 160 160 199 128
0.108670056 0.125 -0.10867011 -0.5773503 -0.5773502 -0.5773502 160 160 199 128
0.07402906 0.125 -0.10867011 0.5773503 0.5773502 0.5773502 160 160 199 128
-0.108670056 -0.35867006 0.5576991 0.5773503 0.5773502 0.5773502 160 160 199 128
0.07402906 -0.35867006 0.37499997 0.5773503 0.5773502 0.5773502 160 160 199 128
-0.108670056 0.30769914 -0.10867011 0.5773503 0.5773502 0.5773502 160 160 199 128
0.105 -0.13328432 -0.35500005 1 -0 -0 160 160 199 128
0.105 -0.35500005 0.3267156 1 -0 -0 160 160 199 128
0.105 -0.35500005 -0.35500005 1 -0 -0 160 160 199 128
0.105 0.09671558 -0.12500004 1 -0 -0 160 160 199 128
3 0 1 2
3 1 0 3
3 4 5 6
3 5 4 7
3 8 9 10
3 9 8 11
3 12 13 14
3 13 12 15
3 16 17 18
3 17 16 19
3 20 21 22
3 21 20 23
3 24 25 26
3 25 24 27
3 28 29 30
3 29 28 31
3 32 33 34
3 33 32 35
3 36 37 38
3 37 36 39
3 40 41 42
3 41 40 43
3 41 43 44
3 42 45 46
3 45 42 41
3 46 45 47
3 46 47 44
3 46 44 43
3 48 49 50
3 49 48 51
3 52 53 54
3 53 52 55
3 56 57 58
3 57 56 59
3 57 59 60
3 60 59 61
3 58 62 63
3 62 58 57
3 63 62 61
3 63 61 59
3 64 65 66
3 65 64 67
3 68 69 70
3 69 68 71
3 54 72 73
3 72 54 53
3 74 75 76
3 75 74 77
3 75 77 78
3 76 79 80
3 79 76 75
3 80 79 81
3 80 81 78
3 80 78 77
3 82 83 84
3 83 82 85
3 83 85 86
3 84 87 88
3 87 84 83
3 88 87 89
3 88 89 86
3 88 86 85

