ply
format ascii 1.0
commentY29udmVydGVyIGJ5IENvZGVMZW9wYXJk
comment Original mesh name: 'C:\Program Files (x86)\Steam\steamapps\common\Stormworks\rom\meshes\component_window_corner_2.mesh'
comment SubMesh index: 0
comment SubMesh name: 'ID2'
comment Shader: Transparent (1)
element vertex 42
property float x
property float y
property float z
property float nx
property float ny
property float nz
property uchar red
property uchar green
property uchar blue
property uchar alpha
element face 2
property list uchar ushort vertex_index
end_header
-0.3562205 -0.3562205 0.55744106 0.5773503 0.5773503 0.5773502 160 160 199 128
0.3074411 -0.3562205 -0.10622057 0.5773503 0.5773503 0.5773502 160 160 199 128
-0.3562205 0.3074411 -0.10622057 0.5773503 0.5773503 0.5773502 160 160 199 128
-0.3562205 0.337441 -0.10622057 -0.5773503 -0.5773503 -0.5773502 160 160 199 128
0.337441 -0.3562205 -0.10622057 -0.5773503 -0.5773503 -0.5773502 160 160 199 128
-0.3562205 -0.3562205 0.58744097 -0.5773503 -0.5773503 -0.5773502 160 160 199 128
-0.37499997 -0.37499997 0.625 -0.57735026 -0.57735026 -0.57735026 55 125 0 255
0.33744127 -0.3562205 -0.10622057 -0.57735026 -0.57735026 -0.57735026 55 125 0 255
0.37499997 -0.37499997 -0.125 -0.57735026 -0.57735026 -0.57735026 55 125 0 255
-0.3562205 -0.3562205 0.58744097 -0.57735026 -0.57735026 -0.57735026 55 125 0 255
-0.3562205 0.337441 -0.10622057 -0.57735026 -0.57735026 -0.57735026 55 125 0 255
-0.37499997 0.37499997 -0.125 -0.57735026 -0.57735026 -0.57735026 55 125 0 255
-0.37499997 0.31499985 -0.125 0.5773502 0.5773503 0.5773503 255 125 0 255
0.27744114 -0.3562205 -0.10622057 0.5773502 0.5773503 0.5773503 255 125 0 255
0.31500012 -0.37499997 -0.125 0.5773502 0.5773503 0.5773503 255 125 0 255
-0.3562205 0.27744114 -0.10622057 0.5773502 0.5773503 0.5773503 255 125 0 255
-0.3562205 -0.3562205 0.52744114 0.5773502 0.5773503 0.5773503 255 125 0 255
-0.37499997 -0.37499997 0.5649998 0.5773502 0.5773503 0.5773503 255 125 0 255
-0.37499997 0.31499985 -0.125 1 -0 -0 255 125 0 255
-0.37499997 -0.37499997 0.625 1 -0 -0 255 125 0 255
-0.37499997 -0.37499997 0.5649998 1 -0 -0 255 125 0 255
-0.37499997 0.37499997 -0.125 1 -0 -0 255 125 0 255
-0.37499997 -0.37499997 0.5649998 -1.901742E-11 1 -1.784819E-11 255 125 0 255
0.37499997 -0.37499997 -0.125 -1.901742E-11 1 -1.784819E-11 255 125 0 255
0.31500012 -0.37499997 -0.125 -1.901742E-11 1 -1.784819E-11 255 125 0 255
-0.37499997 -0.37499997 0.625 -1.901742E-11 1 -1.784819E-11 255 125 0 255
-0.37499997 0.37499997 -0.125 0 -0 1 255 125 0 255
0.31500012 -0.37499997 -0.125 0 -0 1 255 125 0 255
0.37499997 -0.37499997 -0.125 0 -0 1 255 125 0 255
-0.37499997 0.31499985 -0.125 0 -0 1 255 125 0 255
0.27744114 -0.3562205 -0.10622057 0 -0 -1 255 125 0 255
-0.3562205 0.337441 -0.10622057 0 -0 -1 255 125 0 255
0.33744127 -0.3562205 -0.10622057 0 -0 -1 255 125 0 255
-0.3562205 0.27744114 -0.10622057 0 -0 -1 255 125 0 255
-0.3562205 -0.3562205 0.58744097 0 -1 -0 255 125 0 255
0.27744114 -0.3562205 -0.10622057 0 -1 -0 255 125 0 255
0.33744127 -0.3562205 -0.10622057 0 -1 -0 255 125 0 255
-0.3562205 -0.3562205 0.52744114 0 -1 -0 255 125 0 255
-0.3562205 0.337441 -0.10622057 -1 -0 -0 255 125 0 255
-0.3562205 -0.3562205 0.52744114 -1 -0 -0 255 125 0 255
-0.3562205 -0.3562205 0.58744097 -1 -0 -0 255 125 0 255
-0.3562205 0.27744114 -0.10622057 -1 -0 -0 255 125 0 255
3 0 1 2
3 3 4 5

