ply
format ascii 1.0
commentY29udmVydGVyIGJ5IENvZGVMZW9wYXJk
comment Original mesh name: 'C:\Program Files (x86)\Steam\steamapps\common\Stormworks\rom\meshes\component_gauge_static.mesh'
comment SubMesh index: 1
comment SubMesh name: 'ID20'
comment Shader: Opaque (0)
element vertex 184
property float x
property float y
property float z
property float nx
property float ny
property float nz
property uchar red
property uchar green
property uchar blue
property uchar alpha
element face 162
property list uchar ushort vertex_index
end_header
-0.09499998 -0.095000006 0.12499997 0 -0 -1 160 160 199 128
0.095000006 0.34500003 0.12499997 0 -0 -1 160 160 199 128
0.095000006 -0.095000006 0.12499997 0 -0 -1 160 160 199 128
-0.09499998 0.34500003 0.12499997 0 -0 -1 160 160 199 128
-0.09499998 0.34500003 0.12499997 0 -0 1 160 160 199 128
-0.09499998 -0.095000006 0.12499997 0 -0 1 160 160 199 128
0.095000006 0.34500003 0.12499997 0 -0 1 160 160 199 128
0.095000006 -0.095000006 0.12499997 0 -0 1 160 160 199 128
-0.09499998 0.34500003 0.12499997 -1 -1.68666E-16 -9.191002E-16 84 84 84 255
-0.09499998 -0.095000006 0.094999984 -1 -1.68666E-16 -9.191002E-16 84 84 84 255
-0.09499998 -0.095000006 0.12499997 -1 -1.68666E-16 -9.191002E-16 84 84 84 255
-0.09499998 0.34500003 0.094999984 -1 -1.68666E-16 -9.191002E-16 84 84 84 255
-0.09499998 0.34500003 0.12499997 0 1 -0 84 84 84 255
-0.035 0.34500003 0.094999984 0 1 -0 84 84 84 255
-0.09499998 0.34500003 0.094999984 0 1 -0 84 84 84 255
0.035000004 0.34500003 0.094999984 0 1 -0 84 84 84 255
0.095000006 0.34500003 0.094999984 0 1 -0 84 84 84 255
0.095000006 0.34500003 0.12499997 0 1 -0 84 84 84 255
0.095000006 -0.095000006 0.12499997 0 -1 -0 84 84 84 255
0.04500001 -0.095000006 0.094999984 0 -1 -0 84 84 84 255
0.095000006 -0.095000006 0.094999984 0 -1 -0 84 84 84 255
-0.035 -0.095000006 0.094999984 0 -1 -0 84 84 84 255
-0.09499998 -0.095000006 0.094999984 0 -1 -0 84 84 84 255
-0.09499998 -0.095000006 0.12499997 0 -1 -0 84 84 84 255
0.095000006 0.34500003 0.094999984 1 -6.7650296E-18 1.357762E-16 84 84 84 255
0.095000006 -0.095000006 0.12499997 1 -6.7650296E-18 1.357762E-16 84 84 84 255
0.095000006 -0.095000006 0.094999984 1 -6.7650296E-18 1.357762E-16 84 84 84 255
0.095000006 0.34500003 0.12499997 1 -6.7650296E-18 1.357762E-16 84 84 84 255
0.04500001 0.022499997 0.094999984 0 -0 -1 84 84 84 255
0.08500001 0.069999985 0.094999984 0 -0 -1 84 84 84 255
0.08500001 0.022499997 0.094999984 0 -0 -1 84 84 84 255
0.065 0.069999985 0.094999984 0 -0 -1 84 84 84 255
0.065 0.07499999 0.094999984 0 -0 -1 84 84 84 255
0.04500001 0.23249988 0.094999984 0 -0 -1 84 84 84 255
0.08500001 0.2799999 0.094999984 0 -0 -1 84 84 84 255
0.08500001 0.23249988 0.094999984 0 -0 -1 84 84 84 255
0.065 0.2799999 0.094999984 0 -0 -1 84 84 84 255
0.065 0.2849999 0.094999984 0 -0 -1 84 84 84 255
0.04500001 -0.087500006 0.094999984 0 -0 -1 84 84 84 255
0.08500001 -0.035000004 0.094999984 0 -0 -1 84 84 84 255
0.08500001 -0.087500006 0.094999984 0 -0 -1 84 84 84 255
0.065 -0.035000004 0.094999984 0 -0 -1 84 84 84 255
0.065 -0.030000012 0.094999984 0 -0 -1 84 84 84 255
0.04500001 0.017499994 0.094999984 0 -0 -1 84 84 84 255
0.035000004 0.1275 0.094999984 0 -0 -1 84 84 84 255
0.08500001 0.1749999 0.094999984 0 -0 -1 84 84 84 255
0.08500001 0.1275 0.094999984 0 -0 -1 84 84 84 255
0.065 0.1749999 0.094999984 0 -0 -1 84 84 84 255
0.065 0.17999989 0.094999984 0 -0 -1 84 84 84 255
0.04500001 0.22749989 0.094999984 0 -0 -1 84 84 84 255
-0.035 -0.095000006 0.094999984 0 -0 -1 84 84 84 255
0.04500001 -0.095000006 0.094999984 0 -0 -1 84 84 84 255
0.035000004 0.12249998 0.094999984 0 -0 -1 84 84 84 255
0.035000004 0.33749998 0.094999984 0 -0 -1 84 84 84 255
0.035000004 0.34500003 0.094999984 0 -0 -1 84 84 84 255
-0.035 0.34500003 0.094999984 0 -0 -1 84 84 84 255
-0.035 -0.087500006 0.094999984 0 -0 -1 84 84 84 255
-0.035 0.12249998 0.094999984 0 -0 -1 84 84 84 255
-0.035 0.1275 0.094999984 0 -0 -1 84 84 84 255
-0.035 0.33749998 0.094999984 0 -0 -1 84 84 84 255
0.08500001 0.33749998 0.094999984 0 -0 -1 84 84 84 255
0.08500001 0.2849999 0.094999984 0 -0 -1 84 84 84 255
0.08500001 0.12249998 0.094999984 0 -0 -1 84 84 84 255
0.08500001 0.07499999 0.094999984 0 -0 -1 84 84 84 255
0.08500001 0.22749989 0.094999984 0 -0 -1 84 84 84 255
0.08500001 0.17999989 0.094999984 0 -0 -1 84 84 84 255
0.08500001 0.017499994 0.094999984 0 -0 -1 84 84 84 255
0.08500001 -0.030000012 0.094999984 0 -0 -1 84 84 84 255
-0.044999983 0.017499994 0.094999984 0 -0 -1 84 84 84 255
-0.065 -0.035000004 0.094999984 0 -0 -1 84 84 84 255
-0.085000016 -0.087500006 0.094999984 0 -0 -1 84 84 84 255
-0.085000016 -0.035000004 0.094999984 0 -0 -1 84 84 84 255
-0.044999983 0.22749989 0.094999984 0 -0 -1 84 84 84 255
-0.065 0.1749999 0.094999984 0 -0 -1 84 84 84 255
-0.085000016 0.1275 0.094999984 0 -0 -1 84 84 84 255
-0.085000016 0.1749999 0.094999984 0 -0 -1 84 84 84 255
-0.065 0.17999989 0.094999984 0 -0 -1 84 84 84 255
-0.085000016 0.22749989 0.094999984 0 -0 -1 84 84 84 255
-0.085000016 0.17999989 0.094999984 0 -0 -1 84 84 84 255
-0.065 -0.030000012 0.094999984 0 -0 -1 84 84 84 255
-0.085000016 0.017499994 0.094999984 0 -0 -1 84 84 84 255
-0.085000016 -0.030000012 0.094999984 0 -0 -1 84 84 84 255
-0.085000016 0.23249988 0.094999984 0 -0 -1 84 84 84 255
-0.065 0.2799999 0.094999984 0 -0 -1 84 84 84 255
-0.044999983 0.23249988 0.094999984 0 -0 -1 84 84 84 255
-0.085000016 0.2799999 0.094999984 0 -0 -1 84 84 84 255
-0.065 0.2849999 0.094999984 0 -0 -1 84 84 84 255
-0.085000016 0.33749998 0.094999984 0 -0 -1 84 84 84 255
-0.085000016 0.2849999 0.094999984 0 -0 -1 84 84 84 255
-0.085000016 0.022499997 0.094999984 0 -0 -1 84 84 84 255
-0.065 0.069999985 0.094999984 0 -0 -1 84 84 84 255
-0.044999983 0.022499997 0.094999984 0 -0 -1 84 84 84 255
-0.085000016 0.069999985 0.094999984 0 -0 -1 84 84 84 255
-0.065 0.07499999 0.094999984 0 -0 -1 84 84 84 255
-0.085000016 0.12249998 0.094999984 0 -0 -1 84 84 84 255
-0.085000016 0.07499999 0.094999984 0 -0 -1 84 84 84 255
-0.09499998 -0.095000006 0.094999984 0 -0 -1 255 255 255 255
-0.035 -0.087500006 0.094999984 0 -0 -1 255 255 255 255
-0.035 -0.095000006 0.094999984 0 -0 -1 255 255 255 255
-0.085000016 -0.087500006 0.094999984 0 -0 -1 255 255 255 255
-0.085000016 -0.035000004 0.094999984 0 -0 -1 255 255 255 255
-0.085000016 -0.030000012 0.094999984 0 -0 -1 255 255 255 255
-0.085000016 0.017499994 0.094999984 0 -0 -1 255 255 255 255
-0.085000016 0.022499997 0.094999984 0 -0 -1 255 255 255 255
-0.085000016 0.069999985 0.094999984 0 -0 -1 255 255 255 255
-0.085000016 0.07499999 0.094999984 0 -0 -1 255 255 255 255
-0.085000016 0.12249998 0.094999984 0 -0 -1 255 255 255 255
-0.085000016 0.1275 0.094999984 0 -0 -1 255 255 255 255
-0.085000016 0.1749999 0.094999984 0 -0 -1 255 255 255 255
-0.085000016 0.17999989 0.094999984 0 -0 -1 255 255 255 255
-0.085000016 0.22749989 0.094999984 0 -0 -1 255 255 255 255
-0.085000016 0.23249988 0.094999984 0 -0 -1 255 255 255 255
-0.085000016 0.2799999 0.094999984 0 -0 -1 255 255 255 255
-0.085000016 0.2849999 0.094999984 0 -0 -1 255 255 255 255
-0.085000016 0.33749998 0.094999984 0 -0 -1 255 255 255 255
-0.035 0.34500003 0.094999984 0 -0 -1 255 255 255 255
-0.035 0.33749998 0.094999984 0 -0 -1 255 255 255 255
-0.09499998 0.34500003 0.094999984 0 -0 -1 255 255 255 255
-0.065 0.2849999 0.094999984 0 -0 -1 255 255 255 255
-0.065 0.2799999 0.094999984 0 -0 -1 255 255 255 255
-0.044999983 0.23249988 0.094999984 0 -0 -1 255 255 255 255
-0.044999983 0.22749989 0.094999984 0 -0 -1 255 255 255 255
-0.065 0.17999989 0.094999984 0 -0 -1 255 255 255 255
-0.065 0.1749999 0.094999984 0 -0 -1 255 255 255 255
-0.035 0.1275 0.094999984 0 -0 -1 255 255 255 255
-0.035 0.12249998 0.094999984 0 -0 -1 255 255 255 255
-0.065 0.07499999 0.094999984 0 -0 -1 255 255 255 255
-0.065 0.069999985 0.094999984 0 -0 -1 255 255 255 255
-0.044999983 0.022499997 0.094999984 0 -0 -1 255 255 255 255
-0.044999983 0.017499994 0.094999984 0 -0 -1 255 255 255 255
-0.065 -0.030000012 0.094999984 0 -0 -1 255 255 255 255
-0.065 -0.035000004 0.094999984 0 -0 -1 255 255 255 255
0.095000006 -0.095000006 0.094999984 0 -0 -1 255 255 255 255
0.08500001 -0.087500006 0.094999984 0 -0 -1 255 255 255 255
0.095000006 0.34500003 0.094999984 0 -0 -1 255 255 255 255
0.04500001 -0.095000006 0.094999984 0 -0 -1 255 255 255 255
0.04500001 -0.087500006 0.094999984 0 -0 -1 255 255 255 255
0.065 -0.035000004 0.094999984 0 -0 -1 255 255 255 255
0.08500001 -0.030000012 0.094999984 0 -0 -1 255 255 255 255
0.08500001 -0.035000004 0.094999984 0 -0 -1 255 255 255 255
0.065 -0.030000012 0.094999984 0 -0 -1 255 255 255 255
0.04500001 0.017499994 0.094999984 0 -0 -1 255 255 255 255
0.08500001 0.022499997 0.094999984 0 -0 -1 255 255 255 255
0.08500001 0.017499994 0.094999984 0 -0 -1 255 255 255 255
0.04500001 0.022499997 0.094999984 0 -0 -1 255 255 255 255
0.065 0.069999985 0.094999984 0 -0 -1 255 255 255 255
0.08500001 0.07499999 0.094999984 0 -0 -1 255 255 255 255
0.08500001 0.069999985 0.094999984 0 -0 -1 255 255 255 255
0.065 0.07499999 0.094999984 0 -0 -1 255 255 255 255
0.035000004 0.12249998 0.094999984 0 -0 -1 255 255 255 255
0.08500001 0.1275 0.094999984 0 -0 -1 255 255 255 255
0.08500001 0.12249998 0.094999984 0 -0 -1 255 255 255 255
0.035000004 0.1275 0.094999984 0 -0 -1 255 255 255 255
0.065 0.1749999 0.094999984 0 -0 -1 255 255 255 255
0.08500001 0.17999989 0.094999984 0 -0 -1 255 255 255 255
0.08500001 0.1749999 0.094999984 0 -0 -1 255 255 255 255
0.065 0.17999989 0.094999984 0 -0 -1 255 255 255 255
0.04500001 0.22749989 0.094999984 0 -0 -1 255 255 255 255
0.08500001 0.23249988 0.094999984 0 -0 -1 255 255 255 255
0.08500001 0.22749989 0.094999984 0 -0 -1 255 255 255 255
0.04500001 0.23249988 0.094999984 0 -0 -1 255 255 255 255
0.065 0.2799999 0.094999984 0 -0 -1 255 255 255 255
0.08500001 0.2849999 0.094999984 0 -0 -1 255 255 255 255
0.08500001 0.2799999 0.094999984 0 -0 -1 255 255 255 255
0.065 0.2849999 0.094999984 0 -0 -1 255 255 255 255
0.08500001 0.33749998 0.094999984 0 -0 -1 255 255 255 255
0.035000004 0.34500003 0.094999984 0 -0 -1 255 255 255 255
0.035000004 0.33749998 0.094999984 0 -0 -1 255 255 255 255
0.125 -0.125 0.12499997 0 -0 -1 255 125 0 255
0.105 -0.105 0.12499997 0 -0 -1 255 125 0 255
0.125 0.375 0.12499997 0 -0 -1 255 125 0 255
-0.125 -0.125 0.12499997 0 -0 -1 255 125 0 255
-0.10499998 -0.105 0.12499997 0 -0 -1 255 125 0 255
-0.10499998 0.35500002 0.12499997 0 -0 -1 255 125 0 255
0.105 0.35500002 0.12499997 0 -0 -1 255 125 0 255
-0.125 0.375 0.12499997 0 -0 -1 255 125 0 255
0.105 -0.105 0.12499997 0 -0 -1 84 84 84 255
0.095000006 -0.095000006 0.12499997 0 -0 -1 84 84 84 255
0.105 0.35500002 0.12499997 0 -0 -1 84 84 84 255
-0.10499998 -0.105 0.12499997 0 -0 -1 84 84 84 255
-0.09499998 -0.095000006 0.12499997 0 -0 -1 84 84 84 255
-0.09499998 0.34500003 0.12499997 0 -0 -1 84 84 84 255
0.095000006 0.34500003 0.12499997 0 -0 -1 84 84 84 255
-0.10499998 0.35500002 0.12499997 0 -0 -1 84 84 84 255
3 8 9 10
3 9 8 11
3 12 13 14
3 13 12 15
3 15 12 16
3 16 12 17
3 18 19 20
3 19 18 21
3 21 18 22
3 22 18 23
3 24 25 26
3 25 24 27
3 28 29 30
3 29 28 31
3 31 28 32
3 33 34 35
3 34 33 36
3 36 33 37
3 38 39 40
3 39 38 41
3 41 38 42
3 42 38 43
3 43 38 28
3 44 45 46
3 45 44 47
3 47 44 48
3 48 44 49
3 49 44 33
3 50 38 51
3 38 50 52
3 52 50 44
3 44 50 53
3 53 50 54
3 54 50 55
3 55 50 56
3 55 56 57
3 55 57 58
3 55 58 59
3 37 60 61
3 60 37 53
3 53 37 33
3 53 33 44
3 32 62 63
3 62 32 52
3 52 32 28
3 52 28 38
3 48 64 65
3 64 48 49
3 42 66 67
3 66 42 43
3 56 68 57
3 68 56 69
3 69 56 70
3 69 70 71
3 58 72 59
3 72 58 73
3 73 58 74
3 73 74 75
3 72 76 77
3 76 72 73
3 77 76 78
3 68 79 80
3 79 68 69
3 80 79 81
3 82 83 84
3 83 82 85
3 59 86 87
3 86 59 84
3 84 59 72
3 86 84 83
3 87 86 88
3 89 90 91
3 90 89 92
3 57 93 94
3 93 57 91
3 91 57 68
3 93 91 90
3 94 93 95
3 96 97 98
3 97 96 99
3 99 96 100
3 100 96 101
3 101 96 102
3 102 96 103
3 103 96 104
3 104 96 105
3 105 96 106
3 106 96 107
3 107 96 108
3 108 96 109
3 109 96 110
3 110 96 111
3 111 96 112
3 112 96 113
3 113 96 114
3 114 115 116
3 115 114 117
3 117 114 96
3 112 118 119
3 118 112 113
3 110 120 121
3 120 110 111
3 108 122 123
3 122 108 109
3 106 124 125
3 124 106 107
3 104 126 127
3 126 104 105
3 102 128 129
3 128 102 103
3 100 130 131
3 130 100 101
3 132 133 134
3 133 132 135
3 133 135 136
3 137 138 139
3 138 137 140
3 141 142 143
3 142 141 144
3 145 146 147
3 146 145 148
3 149 150 151
3 150 149 152
3 153 154 155
3 154 153 156
3 157 158 159
3 158 157 160
3 161 162 163
3 162 161 164
3 134 165 166
3 165 134 133
3 165 133 139
3 165 139 138
3 165 138 143
3 165 143 142
3 165 142 147
3 165 147 146
3 165 146 151
3 165 151 150
3 165 150 155
3 165 155 154
3 165 154 159
3 165 159 158
3 165 158 163
3 165 163 162
3 166 165 167
3 168 169 170
3 169 168 171
3 169 171 172
3 172 171 173
3 170 174 175
3 174 170 169
3 175 174 173
3 175 173 171
3 176 177 178
3 177 176 179
3 177 179 180
3 180 179 181
3 178 182 183
3 182 178 177
3 183 182 181
3 183 181 179

