ply
format ascii 1.0
commentY29udmVydGVyIGJ5IENvZGVMZW9wYXJk
comment Original mesh name: 'C:\Program Files (x86)\Steam\steamapps\common\Stormworks\rom\meshes\component_multibody_linear_matic_b.mesh'
comment SubMesh index: 0
comment SubMesh name: 'ID3'
comment Shader: Opaque (0)
element vertex 260
property float x
property float y
property float z
property float nx
property float ny
property float nz
property uchar red
property uchar green
property uchar blue
property uchar alpha
element face 160
property list uchar ushort vertex_index
end_header
0.06187501 -0.02562946 -1.1499999 -4.38281E-15 -8.059813E-15 1 86 86 86 255
-0.02562946 -0.06187501 -1.1499999 -4.38281E-15 -8.059813E-15 1 86 86 86 255
0.02562946 -0.06187501 -1.1499999 -4.38281E-15 -8.059813E-15 1 86 86 86 255
-0.06187499 -0.02562946 -1.1499999 -4.38281E-15 -8.059813E-15 1 86 86 86 255
0.06187501 0.02562946 -1.1499999 -4.38281E-15 -8.059813E-15 1 86 86 86 255
-0.06187499 0.02562946 -1.1499999 -4.38281E-15 -8.059813E-15 1 86 86 86 255
0.02562946 0.06187499 -1.1499999 -4.38281E-15 -8.059813E-15 1 86 86 86 255
-0.02562946 0.06187499 -1.1499999 -4.38281E-15 -8.059813E-15 1 86 86 86 255
-0.02562946 0.06187499 -1.1499999 4.38281E-15 8.059813E-15 -1 199 199 199 255
0.02562946 0.06187499 -1.1499999 4.38281E-15 8.059813E-15 -1 199 199 199 255
-0.06187499 0.02562946 -1.1499999 4.38281E-15 8.059813E-15 -1 199 199 199 255
0.06187501 0.02562946 -1.1499999 4.38281E-15 8.059813E-15 -1 199 199 199 255
-0.06187499 -0.02562946 -1.1499999 4.38281E-15 8.059813E-15 -1 199 199 199 255
0.06187501 -0.02562946 -1.1499999 4.38281E-15 8.059813E-15 -1 199 199 199 255
-0.02562946 -0.06187501 -1.1499999 4.38281E-15 8.059813E-15 -1 199 199 199 255
0.02562946 -0.06187501 -1.1499999 4.38281E-15 8.059813E-15 -1 199 199 199 255
0.02562946 0.06187499 -1.1499999 -0.70710677 -0.70710677 -3.348475E-17 199 199 199 255
0.06187501 0.02562946 0.04500001 -0.70710677 -0.70710677 -3.348475E-17 199 199 199 255
0.02562946 0.06187499 0.04500001 -0.70710677 -0.70710677 -3.348475E-17 199 199 199 255
0.06187501 0.02562946 -1.1499999 -0.70710677 -0.70710677 -3.348475E-17 199 199 199 255
0.06187501 0.02562946 -1.1499999 0.70710677 0.70710677 3.348475E-17 199 199 199 255
0.02562946 0.06187499 -1.1499999 0.70710677 0.70710677 3.348475E-17 199 199 199 255
0.06187501 0.02562946 0.04500001 0.70710677 0.70710677 3.348475E-17 199 199 199 255
0.02562946 0.06187499 0.04500001 0.70710677 0.70710677 3.348475E-17 199 199 199 255
0.02562946 0.06187499 0.04500001 0 -1 -4.7354604E-17 199 199 199 255
-0.02562946 0.06187499 -1.1499999 0 -1 -4.7354604E-17 199 199 199 255
0.02562946 0.06187499 -1.1499999 0 -1 -4.7354604E-17 199 199 199 255
-0.02562946 0.06187499 0.04500001 0 -1 -4.7354604E-17 199 199 199 255
-0.02562946 0.06187499 0.04500001 0 1 4.7354604E-17 199 199 199 255
0.02562946 0.06187499 0.04500001 0 1 4.7354604E-17 199 199 199 255
-0.02562946 0.06187499 -1.1499999 0 1 4.7354604E-17 199 199 199 255
0.02562946 0.06187499 -1.1499999 0 1 4.7354604E-17 199 199 199 255
0.06187501 0.02562946 -1.1499999 -1 -0 -0 199 199 199 255
0.06187501 -0.02562946 0.04500001 -1 -0 -0 199 199 199 255
0.06187501 0.02562946 0.04500001 -1 -0 -0 199 199 199 255
0.06187501 -0.02562946 -1.1499999 -1 -0 -0 199 199 199 255
0.06187501 -0.02562946 -1.1499999 1 -0 -0 199 199 199 255
0.06187501 0.02562946 -1.1499999 1 -0 -0 199 199 199 255
0.06187501 -0.02562946 0.04500001 1 -0 -0 199 199 199 255
0.06187501 0.02562946 0.04500001 1 -0 -0 199 199 199 255
-0.06187499 0.02562946 -1.1499999 0.70710677 -0.70710677 -3.655395E-17 199 199 199 255
-0.02562946 0.06187499 0.04500001 0.70710677 -0.70710677 -3.655395E-17 199 199 199 255
-0.06187499 0.02562946 0.04500001 0.70710677 -0.70710677 -3.655395E-17 199 199 199 255
-0.02562946 0.06187499 -1.1499999 0.70710677 -0.70710677 -3.655395E-17 199 199 199 255
-0.02562946 0.06187499 -1.1499999 -0.70710677 0.70710677 3.655395E-17 199 199 199 255
-0.06187499 0.02562946 -1.1499999 -0.70710677 0.70710677 3.655395E-17 199 199 199 255
-0.02562946 0.06187499 0.04500001 -0.70710677 0.70710677 3.655395E-17 199 199 199 255
-0.06187499 0.02562946 0.04500001 -0.70710677 0.70710677 3.655395E-17 199 199 199 255
0.02562946 -0.06187501 -1.1499999 -0.70710677 0.70710677 3.348475E-17 199 199 199 255
0.06187501 -0.02562946 0.04500001 -0.70710677 0.70710677 3.348475E-17 199 199 199 255
0.06187501 -0.02562946 -1.1499999 -0.70710677 0.70710677 3.348475E-17 199 199 199 255
0.02562946 -0.06187501 0.04500001 -0.70710677 0.70710677 3.348475E-17 199 199 199 255
0.02562946 -0.06187501 0.04500001 0.70710677 -0.70710677 -3.348475E-17 199 199 199 255
0.02562946 -0.06187501 -1.1499999 0.70710677 -0.70710677 -3.348475E-17 199 199 199 255
0.06187501 -0.02562946 0.04500001 0.70710677 -0.70710677 -3.348475E-17 199 199 199 255
0.06187501 -0.02562946 -1.1499999 0.70710677 -0.70710677 -3.348475E-17 199 199 199 255
-0.06187499 -0.02562946 -1.1499999 1 -0 -0 199 199 199 255
-0.06187499 0.02562946 0.04500001 1 -0 -0 199 199 199 255
-0.06187499 -0.02562946 0.04500001 1 -0 -0 199 199 199 255
-0.06187499 0.02562946 -1.1499999 1 -0 -0 199 199 199 255
-0.06187499 0.02562946 -1.1499999 -1 -0 -0 199 199 199 255
-0.06187499 -0.02562946 -1.1499999 -1 -0 -0 199 199 199 255
-0.06187499 0.02562946 0.04500001 -1 -0 -0 199 199 199 255
-0.06187499 -0.02562946 0.04500001 -1 -0 -0 199 199 199 255
-0.02562946 -0.06187501 -1.1499999 0 1 4.7354604E-17 199 199 199 255
0.02562946 -0.06187501 0.04500001 0 1 4.7354604E-17 199 199 199 255
0.02562946 -0.06187501 -1.1499999 0 1 4.7354604E-17 199 199 199 255
-0.02562946 -0.06187501 0.04500001 0 1 4.7354604E-17 199 199 199 255
-0.02562946 -0.06187501 0.04500001 0 -1 -4.7354604E-17 199 199 199 255
-0.02562946 -0.06187501 -1.1499999 0 -1 -4.7354604E-17 199 199 199 255
0.02562946 -0.06187501 0.04500001 0 -1 -4.7354604E-17 199 199 199 255
0.02562946 -0.06187501 -1.1499999 0 -1 -4.7354604E-17 199 199 199 255
-0.06187499 -0.02562946 -1.1499999 0.70710677 0.70710677 3.041552E-17 199 199 199 255
-0.02562946 -0.06187501 0.04500001 0.70710677 0.70710677 3.041552E-17 199 199 199 255
-0.02562946 -0.06187501 -1.1499999 0.70710677 0.70710677 3.041552E-17 199 199 199 255
-0.06187499 -0.02562946 0.04500001 0.70710677 0.70710677 3.041552E-17 199 199 199 255
-0.06187499 -0.02562946 0.04500001 -0.70710677 -0.70710677 -3.041552E-17 199 199 199 255
-0.06187499 -0.02562946 -1.1499999 -0.70710677 -0.70710677 -3.041552E-17 199 199 199 255
-0.02562946 -0.06187501 0.04500001 -0.70710677 -0.70710677 -3.041552E-17 199 199 199 255
-0.02562946 -0.06187501 -1.1499999 -0.70710677 -0.70710677 -3.041552E-17 199 199 199 255
0.125 0.125 0.125 -1 5.825803E-31 4.5119463E-15 86 86 86 255
0.125 -0.051776703 0.04500001 -1 5.825803E-31 4.5119463E-15 86 86 86 255
0.125 -0.125 0.125 -1 5.825803E-31 4.5119463E-15 86 86 86 255
0.125 0.05177668 0.04500001 -1 5.825803E-31 4.5119463E-15 86 86 86 255
0.125 -0.051776703 0.04500001 -1.862735E-16 -2.5426463E-16 1 86 86 86 255
-0.05177668 -0.125 0.04500001 -1.862735E-16 -2.5426463E-16 1 86 86 86 255
0.051776703 -0.125 0.04500001 -1.862735E-16 -2.5426463E-16 1 86 86 86 255
0.02562946 -0.06187501 0.04500001 -1.862735E-16 -2.5426463E-16 1 86 86 86 255
0.06187501 -0.02562946 0.04500001 -1.862735E-16 -2.5426463E-16 1 86 86 86 255
0.125 0.05177668 0.04500001 -1.862735E-16 -2.5426463E-16 1 86 86 86 255
0.06187501 0.02562946 0.04500001 -1.862735E-16 -2.5426463E-16 1 86 86 86 255
0.02562946 0.06187499 0.04500001 -1.862735E-16 -2.5426463E-16 1 86 86 86 255
0.051776703 0.125 0.04500001 -1.862735E-16 -2.5426463E-16 1 86 86 86 255
-0.02562946 0.06187499 0.04500001 -1.862735E-16 -2.5426463E-16 1 86 86 86 255
-0.02562946 -0.06187501 0.04500001 -1.862735E-16 -2.5426463E-16 1 86 86 86 255
-0.125 -0.051776703 0.04500001 -1.862735E-16 -2.5426463E-16 1 86 86 86 255
-0.06187499 -0.02562946 0.04500001 -1.862735E-16 -2.5426463E-16 1 86 86 86 255
-0.125 0.05177668 0.04500001 -1.862735E-16 -2.5426463E-16 1 86 86 86 255
-0.06187499 0.02562946 0.04500001 -1.862735E-16 -2.5426463E-16 1 86 86 86 255
-0.05177668 0.125 0.04500001 -1.862735E-16 -2.5426463E-16 1 86 86 86 255
0.125 -0.051776703 0.04500001 -0.5936251 0.5936251 0.54333997 86 86 86 255
0.051776703 -0.125 0.04500001 -0.5936251 0.5936251 0.54333997 86 86 86 255
0.125 -0.125 0.125 -0.5936251 0.5936251 0.54333997 86 86 86 255
0.051776703 0.125 0.04500001 -0.5936251 -0.5936251 0.54333997 86 86 86 255
0.125 0.05177668 0.04500001 -0.5936251 -0.5936251 0.54333997 86 86 86 255
0.125 0.125 0.125 -0.5936251 -0.5936251 0.54333997 86 86 86 255
-0.125 0.125 0.125 -4.083748E-15 -1 -1.7925321E-14 86 86 86 255
0.051776703 0.125 0.04500001 -4.083748E-15 -1 -1.7925321E-14 86 86 86 255
0.125 0.125 0.125 -4.083748E-15 -1 -1.7925321E-14 86 86 86 255
-0.05177668 0.125 0.04500001 -4.083748E-15 -1 -1.7925321E-14 86 86 86 255
-0.05177668 0.125 0.04500001 0.5936251 -0.5936251 0.54333997 86 86 86 255
-0.125 0.125 0.125 0.5936251 -0.5936251 0.54333997 86 86 86 255
-0.125 0.05177668 0.04500001 0.5936251 -0.5936251 0.54333997 86 86 86 255
-0.125 -0.051776703 0.04500001 1 -2.0901111E-30 -1.804779E-14 86 86 86 255
-0.125 0.125 0.125 1 -2.0901111E-30 -1.804779E-14 86 86 86 255
-0.125 -0.125 0.125 1 -2.0901111E-30 -1.804779E-14 86 86 86 255
-0.125 0.05177668 0.04500001 1 -2.0901111E-30 -1.804779E-14 86 86 86 255
-0.125 -0.051776703 0.04500001 0.5936251 0.5936251 0.54333997 86 86 86 255
-0.125 -0.125 0.125 0.5936251 0.5936251 0.54333997 86 86 86 255
-0.05177668 -0.125 0.04500001 0.5936251 0.5936251 0.54333997 86 86 86 255
0.051776703 -0.125 0.04500001 0 1 -1.2246467E-16 86 86 86 255
-0.125 -0.125 0.125 0 1 -1.2246467E-16 86 86 86 255
0.125 -0.125 0.125 0 1 -1.2246467E-16 86 86 86 255
-0.05177668 -0.125 0.04500001 0 1 -1.2246467E-16 86 86 86 255
0.125 0.05177668 0.04500001 1 -5.825803E-31 -4.5119463E-15 199 199 199 255
0.125 0.125 0.125 1 -5.825803E-31 -4.5119463E-15 199 199 199 255
0.125 -0.051776703 0.04500001 1 -5.825803E-31 -4.5119463E-15 199 199 199 255
0.125 -0.125 0.125 1 -5.825803E-31 -4.5119463E-15 199 199 199 255
0.051776703 0.125 0.04500001 1.862735E-16 2.5426463E-16 -1 199 199 199 255
-0.02562946 0.06187499 0.04500001 1.862735E-16 2.5426463E-16 -1 199 199 199 255
-0.05177668 0.125 0.04500001 1.862735E-16 2.5426463E-16 -1 199 199 199 255
-0.125 0.05177668 0.04500001 1.862735E-16 2.5426463E-16 -1 199 199 199 255
-0.06187499 0.02562946 0.04500001 1.862735E-16 2.5426463E-16 -1 199 199 199 255
-0.06187499 -0.02562946 0.04500001 1.862735E-16 2.5426463E-16 -1 199 199 199 255
-0.125 -0.051776703 0.04500001 1.862735E-16 2.5426463E-16 -1 199 199 199 255
-0.02562946 -0.06187501 0.04500001 1.862735E-16 2.5426463E-16 -1 199 199 199 255
0.02562946 -0.06187501 0.04500001 1.862735E-16 2.5426463E-16 -1 199 199 199 255
-0.05177668 -0.125 0.04500001 1.862735E-16 2.5426463E-16 -1 199 199 199 255
0.02562946 0.06187499 0.04500001 1.862735E-16 2.5426463E-16 -1 199 199 199 255
0.125 0.05177668 0.04500001 1.862735E-16 2.5426463E-16 -1 199 199 199 255
0.06187501 0.02562946 0.04500001 1.862735E-16 2.5426463E-16 -1 199 199 199 255
0.06187501 -0.02562946 0.04500001 1.862735E-16 2.5426463E-16 -1 199 199 199 255
0.125 -0.051776703 0.04500001 1.862735E-16 2.5426463E-16 -1 199 199 199 255
0.051776703 -0.125 0.04500001 1.862735E-16 2.5426463E-16 -1 199 199 199 255
0.125 -0.125 0.125 0.5936251 -0.5936251 -0.54333997 199 199 199 255
0.051776703 -0.125 0.04500001 0.5936251 -0.5936251 -0.54333997 199 199 199 255
0.125 -0.051776703 0.04500001 0.5936251 -0.5936251 -0.54333997 199 199 199 255
0.125 0.125 0.125 0.5936251 0.5936251 -0.54333997 199 199 199 255
0.125 0.05177668 0.04500001 0.5936251 0.5936251 -0.54333997 199 199 199 255
0.051776703 0.125 0.04500001 0.5936251 0.5936251 -0.54333997 199 199 199 255
-0.05177668 0.125 0.04500001 4.083748E-15 1 1.7925321E-14 199 199 199 255
-0.125 0.125 0.125 4.083748E-15 1 1.7925321E-14 199 199 199 255
0.051776703 0.125 0.04500001 4.083748E-15 1 1.7925321E-14 199 199 199 255
0.125 0.125 0.125 4.083748E-15 1 1.7925321E-14 199 199 199 255
-0.125 0.05177668 0.04500001 -0.5936251 0.5936251 -0.54333997 199 199 199 255
-0.125 0.125 0.125 -0.5936251 0.5936251 -0.54333997 199 199 199 255
-0.05177668 0.125 0.04500001 -0.5936251 0.5936251 -0.54333997 199 199 199 255
-0.125 0.05177668 0.04500001 -1 2.0901111E-30 1.804779E-14 199 199 199 255
-0.125 -0.051776703 0.04500001 -1 2.0901111E-30 1.804779E-14 199 199 199 255
-0.125 0.125 0.125 -1 2.0901111E-30 1.804779E-14 199 199 199 255
-0.125 -0.125 0.125 -1 2.0901111E-30 1.804779E-14 199 199 199 255
-0.05177668 -0.125 0.04500001 -0.5936251 -0.5936251 -0.54333997 199 199 199 255
-0.125 -0.125 0.125 -0.5936251 -0.5936251 -0.54333997 199 199 199 255
-0.125 -0.051776703 0.04500001 -0.5936251 -0.5936251 -0.54333997 199 199 199 255
-0.05177668 -0.125 0.04500001 0 -1 1.2246467E-16 199 199 199 255
0.051776703 -0.125 0.04500001 0 -1 1.2246467E-16 199 199 199 255
-0.125 -0.125 0.125 0 -1 1.2246467E-16 199 199 199 255
0.125 -0.125 0.125 0 -1 1.2246467E-16 199 199 199 255
0.034172624 0.08250001 0.105 2.0145314E-13 -4.656973E-15 -1 86 86 86 255
0.025888335 0.0625 0.105 2.0145314E-13 -4.656973E-15 -1 86 86 86 255
-0.025888335 0.0625 0.105 2.0145314E-13 -4.656973E-15 -1 86 86 86 255
0.08250001 0.034172624 0.105 2.0145314E-13 -4.656973E-15 -1 86 86 86 255
0.0625 0.025888335 0.105 2.0145314E-13 -4.656973E-15 -1 86 86 86 255
0.08250001 -0.034172613 0.105 2.0145314E-13 -4.656973E-15 -1 86 86 86 255
0.0625 -0.025888335 0.105 2.0145314E-13 -4.656973E-15 -1 86 86 86 255
0.025888335 -0.062499985 0.105 2.0145314E-13 -4.656973E-15 -1 86 86 86 255
0.034172624 -0.08249997 0.105 2.0145314E-13 -4.656973E-15 -1 86 86 86 255
-0.034172613 -0.08249997 0.105 2.0145314E-13 -4.656973E-15 -1 86 86 86 255
-0.034172613 0.08250001 0.105 2.0145314E-13 -4.656973E-15 -1 86 86 86 255
-0.08249997 0.034172624 0.105 2.0145314E-13 -4.656973E-15 -1 86 86 86 255
-0.062499985 0.025888335 0.105 2.0145314E-13 -4.656973E-15 -1 86 86 86 255
-0.08249997 -0.034172613 0.105 2.0145314E-13 -4.656973E-15 -1 86 86 86 255
-0.062499985 -0.025888335 0.105 2.0145314E-13 -4.656973E-15 -1 86 86 86 255
-0.025888335 -0.062499985 0.105 2.0145314E-13 -4.656973E-15 -1 86 86 86 255
-0.08249997 -0.034172613 0.105 -1 2.102036E-13 -2.0145314E-13 86 86 86 255
-0.08249997 0.034172624 0.125 -1 2.102036E-13 -2.0145314E-13 86 86 86 255
-0.08249997 0.034172624 0.105 -1 2.102036E-13 -2.0145314E-13 86 86 86 255
-0.08249997 -0.034172613 0.125 -1 2.102036E-13 -2.0145314E-13 86 86 86 255
-0.08249997 0.034172624 0.125 -0.70710677 0.70710677 -1.4574186E-13 86 86 86 255
-0.034172613 0.08250001 0.105 -0.70710677 0.70710677 -1.4574186E-13 86 86 86 255
-0.08249997 0.034172624 0.105 -0.70710677 0.70710677 -1.4574186E-13 86 86 86 255
-0.034172613 0.08250001 0.125 -0.70710677 0.70710677 -1.4574186E-13 86 86 86 255
-0.034172613 0.08250001 0.105 2.102036E-13 1 -4.656973E-15 86 86 86 255
0.034172624 0.08250001 0.125 2.102036E-13 1 -4.656973E-15 86 86 86 255
0.034172624 0.08250001 0.105 2.102036E-13 1 -4.656973E-15 86 86 86 255
-0.034172613 0.08250001 0.125 2.102036E-13 1 -4.656973E-15 86 86 86 255
0.034172624 0.08250001 0.125 0.70710677 0.70710677 1.391559E-13 86 86 86 255
0.08250001 0.034172624 0.105 0.70710677 0.70710677 1.391559E-13 86 86 86 255
0.034172624 0.08250001 0.105 0.70710677 0.70710677 1.391559E-13 86 86 86 255
0.08250001 0.034172624 0.125 0.70710677 0.70710677 1.391559E-13 86 86 86 255
0.08250001 0.034172624 0.125 1 -2.102036E-13 2.0145314E-13 86 86 86 255
0.08250001 -0.034172613 0.105 1 -2.102036E-13 2.0145314E-13 86 86 86 255
0.08250001 0.034172624 0.105 1 -2.102036E-13 2.0145314E-13 86 86 86 255
0.08250001 -0.034172613 0.125 1 -2.102036E-13 2.0145314E-13 86 86 86 255
0.08250001 -0.034172613 0.125 0.70710677 -0.70710677 1.4574186E-13 86 86 86 255
0.034172624 -0.08249997 0.105 0.70710677 -0.70710677 1.4574186E-13 86 86 86 255
0.08250001 -0.034172613 0.105 0.70710677 -0.70710677 1.4574186E-13 86 86 86 255
0.034172624 -0.08249997 0.125 0.70710677 -0.70710677 1.4574186E-13 86 86 86 255
0.034172624 -0.08249997 0.125 -2.0624258E-13 -1 4.656973E-15 86 86 86 255
-0.034172613 -0.08249997 0.105 -2.0624258E-13 -1 4.656973E-15 86 86 86 255
0.034172624 -0.08249997 0.105 -2.0624258E-13 -1 4.656973E-15 86 86 86 255
-0.034172613 -0.08249997 0.125 -2.0624258E-13 -1 4.656973E-15 86 86 86 255
-0.034172613 -0.08249997 0.105 -0.70710677 -0.70710677 -1.391559E-13 86 86 86 255
-0.08249997 -0.034172613 0.125 -0.70710677 -0.70710677 -1.391559E-13 86 86 86 255
-0.08249997 -0.034172613 0.105 -0.70710677 -0.70710677 -1.391559E-13 86 86 86 255
-0.034172613 -0.08249997 0.125 -0.70710677 -0.70710677 -1.391559E-13 86 86 86 255
0.025888335 0.0625 0.125 -2.102036E-13 -1 4.656973E-15 86 86 86 255
-0.025888335 0.0625 0.105 -2.102036E-13 -1 4.656973E-15 86 86 86 255
0.025888335 0.0625 0.105 -2.102036E-13 -1 4.656973E-15 86 86 86 255
-0.025888335 0.0625 0.125 -2.102036E-13 -1 4.656973E-15 86 86 86 255
-0.025888335 0.0625 0.125 0.70710677 -0.70710677 1.4574186E-13 86 86 86 255
-0.062499985 0.025888335 0.105 0.70710677 -0.70710677 1.4574186E-13 86 86 86 255
-0.025888335 0.0625 0.105 0.70710677 -0.70710677 1.4574186E-13 86 86 86 255
-0.062499985 0.025888335 0.125 0.70710677 -0.70710677 1.4574186E-13 86 86 86 255
0.0625 0.025888335 0.105 -0.70710677 -0.70710677 -1.391559E-13 86 86 86 255
0.025888335 0.0625 0.125 -0.70710677 -0.70710677 -1.391559E-13 86 86 86 255
0.025888335 0.0625 0.105 -0.70710677 -0.70710677 -1.391559E-13 86 86 86 255
0.0625 0.025888335 0.125 -0.70710677 -0.70710677 -1.391559E-13 86 86 86 255
-0.062499985 0.025888335 0.105 1 -2.102036E-13 2.0145314E-13 86 86 86 255
-0.062499985 -0.025888335 0.125 1 -2.102036E-13 2.0145314E-13 86 86 86 255
-0.062499985 -0.025888335 0.105 1 -2.102036E-13 2.0145314E-13 86 86 86 255
-0.062499985 0.025888335 0.125 1 -2.102036E-13 2.0145314E-13 86 86 86 255
0.0625 -0.025888335 0.125 -1 2.102036E-13 -2.0145314E-13 86 86 86 255
0.0625 0.025888335 0.105 -1 2.102036E-13 -2.0145314E-13 86 86 86 255
0.0625 -0.025888335 0.105 -1 2.102036E-13 -2.0145314E-13 86 86 86 255
0.0625 0.025888335 0.125 -1 2.102036E-13 -2.0145314E-13 86 86 86 255
-0.062499985 -0.025888335 0.105 0.70710677 0.70710677 1.391559E-13 86 86 86 255
-0.025888335 -0.062499985 0.125 0.70710677 0.70710677 1.391559E-13 86 86 86 255
-0.025888335 -0.062499985 0.105 0.70710677 0.70710677 1.391559E-13 86 86 86 255
-0.062499985 -0.025888335 0.125 0.70710677 0.70710677 1.391559E-13 86 86 86 255
0.025888335 -0.062499985 0.125 -0.70710677 0.70710677 -1.4574186E-13 86 86 86 255
0.0625 -0.025888335 0.105 -0.70710677 0.70710677 -1.4574186E-13 86 86 86 255
0.025888335 -0.062499985 0.105 -0.70710677 0.70710677 -1.4574186E-13 86 86 86 255
0.0625 -0.025888335 0.125 -0.70710677 0.70710677 -1.4574186E-13 86 86 86 255
-0.025888335 -0.062499985 0.105 2.0671789E-13 1 -4.656973E-15 86 86 86 255
0.025888335 -0.062499985 0.125 2.0671789E-13 1 -4.656973E-15 86 86 86 255
0.025888335 -0.062499985 0.105 2.0671789E-13 1 -4.656973E-15 86 86 86 255
-0.025888335 -0.062499985 0.125 2.0671789E-13 1 -4.656973E-15 86 86 86 255
0.125 0.125 0.125 2.0117969E-13 -3.996803E-15 -1 255 125 0 255
0.034172624 0.08250001 0.125 2.0117969E-13 -3.996803E-15 -1 255 125 0 255
-0.125 0.125 0.125 2.0117969E-13 -3.996803E-15 -1 255 125 0 255
0.08250001 0.034172624 0.125 2.0117969E-13 -3.996803E-15 -1 255 125 0 255
0.125 -0.125 0.125 2.0117969E-13 -3.996803E-15 -1 255 125 0 255
-0.034172613 0.08250001 0.125 2.0117969E-13 -3.996803E-15 -1 255 125 0 255
0.08250001 -0.034172613 0.125 2.0117969E-13 -3.996803E-15 -1 255 125 0 255
0.034172624 -0.08249997 0.125 2.0117969E-13 -3.996803E-15 -1 255 125 0 255
-0.08249997 0.034172624 0.125 2.0117969E-13 -3.996803E-15 -1 255 125 0 255
-0.125 -0.125 0.125 2.0117969E-13 -3.996803E-15 -1 255 125 0 255
-0.08249997 -0.034172613 0.125 2.0117969E-13 -3.996803E-15 -1 255 125 0 255
-0.034172613 -0.08249997 0.125 2.0117969E-13 -3.996803E-15 -1 255 125 0 255
3 0 1 2
3 1 0 3
3 3 0 4
3 3 4 5
3 5 4 6
3 5 6 7
3 8 9 10
3 9 11 10
3 10 11 12
3 11 13 12
3 12 13 14
3 15 14 13
3 16 17 18
3 17 16 19
3 20 21 22
3 23 22 21
3 24 25 26
3 25 24 27
3 28 29 30
3 31 30 29
3 32 33 34
3 33 32 35
3 36 37 38
3 39 38 37
3 40 41 42
3 41 40 43
3 44 45 46
3 47 46 45
3 48 49 50
3 49 48 51
3 52 53 54
3 55 54 53
3 56 57 58
3 57 56 59
3 60 61 62
3 63 62 61
3 64 65 66
3 65 64 67
3 68 69 70
3 71 70 69
3 72 73 74
3 73 72 75
3 76 77 78
3 79 78 77
3 80 81 82
3 81 80 83
3 84 85 86
3 85 84 87
3 87 84 88
3 88 84 89
3 88 89 90
3 90 89 91
3 91 89 92
3 91 92 93
3 85 94 95
3 94 85 87
3 95 94 96
3 95 96 97
3 97 96 98
3 97 98 93
3 97 93 99
3 99 93 92
3 100 101 102
3 103 104 105
3 106 107 108
3 107 106 109
3 110 111 112
3 113 114 115
3 114 113 116
3 117 118 119
3 120 121 122
3 121 120 123
3 124 125 126
3 127 126 125
3 128 129 130
3 130 129 131
3 129 132 131
3 132 133 131
3 131 133 134
3 133 135 134
3 136 137 135
3 134 135 137
3 129 128 138
3 128 139 138
3 138 139 140
3 140 139 141
3 139 142 141
3 141 142 136
3 136 142 137
3 143 137 142
3 144 145 146
3 147 148 149
3 150 151 152
3 153 152 151
3 154 155 156
3 157 158 159
3 160 159 158
3 161 162 163
3 164 165 166
3 167 166 165
3 168 169 170
3 169 168 171
3 169 171 172
3 172 171 173
3 172 173 174
3 174 173 175
3 175 173 176
3 175 176 177
3 178 170 179
3 170 178 168
3 179 170 180
3 179 180 181
3 181 180 182
3 181 182 183
3 181 183 177
3 177 183 175
3 184 185 186
3 185 184 187
3 188 189 190
3 189 188 191
3 192 193 194
3 193 192 195
3 196 197 198
3 197 196 199
3 200 201 202
3 201 200 203
3 204 205 206
3 205 204 207
3 208 209 210
3 209 208 211
3 212 213 214
3 213 212 215
3 216 217 218
3 217 216 219
3 220 221 222
3 221 220 223
3 224 225 226
3 225 224 227
3 228 229 230
3 229 228 231
3 232 233 234
3 233 232 235
3 236 237 238
3 237 236 239
3 240 241 242
3 241 240 243
3 244 245 246
3 245 244 247
3 248 249 250
3 249 248 251
3 251 248 252
3 250 249 253
3 251 252 254
3 254 252 255
3 250 256 257
3 256 250 253
3 257 256 258
3 257 258 259
3 257 259 255
3 257 255 252

