ply
format ascii 1.0
commentY29udmVydGVyIGJ5IENvZGVMZW9wYXJk
comment Original mesh name: 'C:\Program Files (x86)\Steam\steamapps\common\Stormworks\rom\meshes\component_steam_coal.mesh'
comment SubMesh index: 0
comment SubMesh name: 'ID2'
comment Shader: Opaque (0)
element vertex 102
property float x
property float y
property float z
property float nx
property float ny
property float nz
property uchar red
property uchar green
property uchar blue
property uchar alpha
element face 34
property list uchar ushort vertex_index
end_header
0.051262654 0.10931719 -0.08413998 -0.68868 -0.28458747 0.66688055 43 43 43 255
0.10792863 -0.05085524 -0.09397436 -0.68868 -0.28458747 0.66688055 43 43 43 255
0.124518156 0.008480811 -0.0515212 -0.68868 -0.28458747 0.66688055 43 43 43 255
0.124518156 0.008480811 -0.0515212 -0.830804 0.4582618 -0.3158493 43 43 43 255
0.10792863 -0.05085524 -0.09397436 -0.830804 0.4582618 -0.3158493 43 43 43 255
0.040212236 -0.12380709 -0.021699347 -0.830804 0.4582618 -0.3158493 43 43 43 255
0.051262654 0.10931719 -0.08413998 -0.6199039 -0.2053652 0.757327 43 43 43 255
0.124518156 0.008480811 -0.0515212 -0.6199039 -0.2053652 0.757327 43 43 43 255
0.125 0.085708104 -0.030185003 -0.6199039 -0.2053652 0.757327 43 43 43 255
0.032552663 0.03557204 -0.125 -0.60803 -0.2611422 0.7497361 43 43 43 255
0.10792863 -0.05085524 -0.09397436 -0.60803 -0.2611422 0.7497361 43 43 43 255
0.051262654 0.10931719 -0.08413998 -0.60803 -0.2611422 0.7497361 43 43 43 255
0.040212236 -0.12380709 -0.021699347 -0.1067902 0.7480469 0.6549975 43 43 43 255
0.10792863 -0.05085524 -0.09397436 -0.1067902 0.7480469 0.6549975 43 43 43 255
-0.0009281759 -0.045710117 -0.11759831 -0.1067902 0.7480469 0.6549975 43 43 43 255
0.124518156 0.008480811 -0.0515212 -0.8308609 0.54942 0.088362 43 43 43 255
0.040212236 -0.12380709 -0.021699347 -0.8308609 0.54942 0.088362 43 43 43 255
0.125 -0.0073627234 0.05152189 -0.8308609 0.54942 0.088362 43 43 43 255
0.125 0.085708104 -0.030185003 -0.9999742 0.0047456096 0.005405637 43 43 43 255
0.124518156 0.008480811 -0.0515212 -0.9999742 0.0047456096 0.005405637 43 43 43 255
0.125 -0.0073627234 0.05152189 -0.9999742 0.0047456096 0.005405637 43 43 43 255
0.027843934 0.125 0.023769999 -0.3447668 -0.9366841 0.06130874 43 43 43 255
0.051262654 0.10931719 -0.08413998 -0.3447668 -0.9366841 0.06130874 43 43 43 255
0.125 0.085708104 -0.030185003 -0.3447668 -0.9366841 0.06130874 43 43 43 255
-0.11805379 0.04808072 -0.07395205 0.23619758 -0.51610124 0.8233165 43 43 43 255
0.032552663 0.03557204 -0.125 0.23619758 -0.51610124 0.8233165 43 43 43 255
0.051262654 0.10931719 -0.08413998 0.23619758 -0.51610124 0.8233165 43 43 43 255
-0.0009281759 -0.045710117 -0.11759831 -0.2012547 0.1707315 0.96454513 43 43 43 255
0.10792863 -0.05085524 -0.09397436 -0.2012547 0.1707315 0.96454513 43 43 43 255
0.032552663 0.03557204 -0.125 -0.2012547 0.1707315 0.96454513 43 43 43 255
0.040212236 -0.12380709 -0.021699347 0.0338407 0.7820201 0.6223338 43 43 43 255
-0.0009281759 -0.045710117 -0.11759831 0.0338407 0.7820201 0.6223338 43 43 43 255
-0.11209154 -0.06194135 -0.09115755 0.0338407 0.7820201 0.6223338 43 43 43 255
0.125 -0.0073627234 0.05152189 -0.7231883 0.6581796 -0.2092806 43 43 43 255
0.040212236 -0.12380709 -0.021699347 -0.7231883 0.6581796 -0.2092806 43 43 43 255
0.045398585 -0.076481834 0.10921488 -0.7231883 0.6581796 -0.2092806 43 43 43 255
0.125 0.085708104 -0.030185003 -0.8193252 -0.3782471 -0.4308543 43 43 43 255
0.125 -0.0073627234 0.05152189 -0.8193252 -0.3782471 -0.4308543 43 43 43 255
0.069379814 0.055443164 0.10215351 -0.8193252 -0.3782471 -0.4308543 43 43 43 255
0.027843934 0.125 0.023769999 0.34371957 -0.915817 0.20769186 43 43 43 255
-0.11805379 0.04808072 -0.07395205 0.34371957 -0.915817 0.20769186 43 43 43 255
0.051262654 0.10931719 -0.08413998 0.34371957 -0.915817 0.20769186 43 43 43 255
0.069379814 0.055443164 0.10215351 -0.5238779 -0.7557109 -0.3930051 43 43 43 255
0.027843934 0.125 0.023769999 -0.5238779 -0.7557109 -0.3930051 43 43 43 255
0.125 0.085708104 -0.030185003 -0.5238779 -0.7557109 -0.3930051 43 43 43 255
-0.11805379 0.04808072 -0.07395205 0.3085118 -0.130626 0.9422087 43 43 43 255
-0.11209154 -0.06194135 -0.09115755 0.3085118 -0.130626 0.9422087 43 43 43 255
0.032552663 0.03557204 -0.125 0.3085118 -0.130626 0.9422087 43 43 43 255
-0.11209154 -0.06194135 -0.09115755 0.2323821 -0.007153954 0.97259825 43 43 43 255
-0.0009281759 -0.045710117 -0.11759831 0.2323821 -0.007153954 0.97259825 43 43 43 255
0.032552663 0.03557204 -0.125 0.2323821 -0.007153954 0.97259825 43 43 43 255
-0.085997835 -0.125 0.007944827 0.1122653 0.851477 0.5122337 43 43 43 255
0.040212236 -0.12380709 -0.021699347 0.1122653 0.851477 0.5122337 43 43 43 255
-0.11209154 -0.06194135 -0.09115755 0.1122653 0.851477 0.5122337 43 43 43 255
0.045398585 -0.076481834 0.10921488 -0.6256337 0.07214997 -0.7767734 43 43 43 255
0.069379814 0.055443164 0.10215351 -0.6256337 0.07214997 -0.7767734 43 43 43 255
0.125 -0.0073627234 0.05152189 -0.6256337 0.07214997 -0.7767734 43 43 43 255
0.045398585 -0.076481834 0.10921488 -0.08768657 0.93792075 -0.33558276 43 43 43 255
0.040212236 -0.12380709 -0.021699347 -0.08768657 0.93792075 -0.33558276 43 43 43 255
-0.085997835 -0.125 0.007944827 -0.08768657 0.93792075 -0.33558276 43 43 43 255
-0.05362247 0.09423249 0.02806024 0.3556307 -0.9152257 0.1894432 43 43 43 255
-0.11805379 0.04808072 -0.07395205 0.3556307 -0.9152257 0.1894432 43 43 43 255
0.027843934 0.125 0.023769999 0.3556307 -0.9152257 0.1894432 43 43 43 255
-0.030999986 0.07414783 0.10793008 -0.17996377 -0.78116035 -0.59783065 43 43 43 255
0.027843934 0.125 0.023769999 -0.17996377 -0.78116035 -0.59783065 43 43 43 255
0.069379814 0.055443164 0.10215351 -0.17996377 -0.78116035 -0.59783065 43 43 43 255
-0.11805379 0.04808072 -0.07395205 0.99604005 0.041697655 0.07852032 43 43 43 255
-0.125 0.013829136 0.032350507 0.99604005 0.041697655 0.07852032 43 43 43 255
-0.11209154 -0.06194135 -0.09115755 0.99604005 0.041697655 0.07852032 43 43 43 255
-0.125 0.013829136 0.032350507 0.9567753 0.28158206 -0.07274919 43 43 43 255
-0.085997835 -0.125 0.007944827 0.9567753 0.28158206 -0.07274919 43 43 43 255
-0.11209154 -0.06194135 -0.09115755 0.9567753 0.28158206 -0.07274919 43 43 43 255
-0.05612394 -0.042256933 0.125 -0.1613209 -0.02348487 -0.9866226 43 43 43 255
0.069379814 0.055443164 0.10215351 -0.1613209 -0.02348487 -0.9866226 43 43 43 255
0.045398585 -0.076481834 0.10921488 -0.1613209 -0.02348487 -0.9866226 43 43 43 255
-0.05612394 -0.042256933 0.125 0.1712039 0.7834077 -0.5974626 43 43 43 255
0.045398585 -0.076481834 0.10921488 0.1712039 0.7834077 -0.5974626 43 43 43 255
-0.085997835 -0.125 0.007944827 0.1712039 0.7834077 -0.5974626 43 43 43 255
-0.05362247 0.09423249 0.02806024 0.7332493 -0.6597228 -0.1646551 43 43 43 255
-0.125 0.013829136 0.032350507 0.7332493 -0.6597228 -0.1646551 43 43 43 255
-0.11805379 0.04808072 -0.07395205 0.7332493 -0.6597228 -0.1646551 43 43 43 255
-0.030999986 0.07414783 0.10793008 0.3206942 -0.8931196 -0.3154245 43 43 43 255
-0.05362247 0.09423249 0.02806024 0.3206942 -0.8931196 -0.3154245 43 43 43 255
0.027843934 0.125 0.023769999 0.3206942 -0.8931196 -0.3154245 43 43 43 255
-0.05612394 -0.042256933 0.125 -0.08065636 -0.1275549 -0.9885466 43 43 43 255
-0.030999986 0.07414783 0.10793008 -0.08065636 -0.1275549 -0.9885466 43 43 43 255
0.069379814 0.055443164 0.10215351 -0.08065636 -0.1275549 -0.9885466 43 43 43 255
-0.125 0.013829136 0.032350507 0.5710749 0.29509968 -0.76602185 43 43 43 255
-0.077999994 0.03198848 0.07438499 0.5710749 0.29509968 -0.76602185 43 43 43 255
-0.085997835 -0.125 0.007944827 0.5710749 0.29509968 -0.76602185 43 43 43 255
-0.077999994 0.03198848 0.07438499 0.9515383 0.07747735 -0.2976107 43 43 43 255
-0.05612394 -0.042256933 0.125 0.9515383 0.07747735 -0.2976107 43 43 43 255
-0.085997835 -0.125 0.007944827 0.9515383 0.07747735 -0.2976107 43 43 43 255
-0.05362247 0.09423249 0.02806024 0.6491321 -0.6011341 -0.4661173 43 43 43 255
-0.077999994 0.03198848 0.07438499 0.6491321 -0.6011341 -0.4661173 43 43 43 255
-0.125 0.013829136 0.032350507 0.6491321 -0.6011341 -0.4661173 43 43 43 255
-0.05362247 0.09423249 0.02806024 0.7516774 -0.5571096 -0.3530014 43 43 43 255
-0.030999986 0.07414783 0.10793008 0.7516774 -0.5571096 -0.3530014 43 43 43 255
-0.077999994 0.03198848 0.07438499 0.7516774 -0.5571096 -0.3530014 43 43 43 255
-0.030999986 0.07414783 0.10793008 0.7007083 -0.2492645 -0.6684872 43 43 43 255
-0.05612394 -0.042256933 0.125 0.7007083 -0.2492645 -0.6684872 43 43 43 255
-0.077999994 0.03198848 0.07438499 0.7007083 -0.2492645 -0.6684872 43 43 43 255
3 0 1 2
3 3 4 5
3 6 7 8
3 9 10 11
3 12 13 14
3 15 16 17
3 18 19 20
3 21 22 23
3 24 25 26
3 27 28 29
3 30 31 32
3 33 34 35
3 36 37 38
3 39 40 41
3 42 43 44
3 45 46 47
3 48 49 50
3 51 52 53
3 54 55 56
3 57 58 59
3 60 61 62
3 63 64 65
3 66 67 68
3 69 70 71
3 72 73 74
3 75 76 77
3 78 79 80
3 81 82 83
3 84 85 86
3 87 88 89
3 90 91 92
3 93 94 95
3 96 97 98
3 99 100 101

