ply
format ascii 1.0
commentY29udmVydGVyIGJ5IENvZGVMZW9wYXJk
comment Original mesh name: 'C:\Program Files (x86)\Steam\steamapps\common\Stormworks\rom\meshes\component_coaxial_rotor_light.mesh'
comment SubMesh index: 0
comment SubMesh name: 'ID2'
comment Shader: Opaque (0)
element vertex 104
property float x
property float y
property float z
property float nx
property float ny
property float nz
property uchar red
property uchar green
property uchar blue
property uchar alpha
element face 72
property list uchar ushort vertex_index
end_header
-0.125 0 -0.125 1 -0 -0 255 125 0 255
-0.125 -0.051776703 0.07000001 1 -0 -0 255 125 0 255
-0.125 -0.051776703 -0.125 1 -0 -0 255 125 0 255
-0.125 0.051776703 0.07000001 1 -0 -0 255 125 0 255
-0.125 0.051776703 -0.125 1 -0 -0 255 125 0 255
-0.125 0.051776703 0.07000001 0.9397934 -1.137602E-17 -0.3417431 255 125 0 255
-0.105 -0.043492418 0.125 0.9397934 -1.137602E-17 -0.3417431 255 125 0 255
-0.125 -0.051776703 0.07000001 0.9397934 -1.137602E-17 -0.3417431 255 125 0 255
-0.105 0.043492418 0.125 0.9397934 -1.137602E-17 -0.3417431 255 125 0 255
-0.125 -0.051776703 0.07000001 0.70710677 0.70710677 -1.065574E-17 255 125 0 255
-0.051776703 -0.125 -0.125 0.70710677 0.70710677 -1.065574E-17 255 125 0 255
-0.125 -0.051776703 -0.125 0.70710677 0.70710677 -1.065574E-17 255 125 0 255
-0.051776703 -0.125 0.07000001 0.70710677 0.70710677 -1.065574E-17 255 125 0 255
0.051776703 0.125 -0.125 -2.406392E-14 9.967601E-15 1 255 125 0 255
0.125 0 -0.125 -2.406392E-14 9.967601E-15 1 255 125 0 255
0.125 0.051776703 -0.125 -2.406392E-14 9.967601E-15 1 255 125 0 255
0.125 -0.051776703 -0.125 -2.406392E-14 9.967601E-15 1 255 125 0 255
0.0625 0.025888337 -0.125 -2.406392E-14 9.967601E-15 1 255 125 0 255
0.025888337 0.0625 -0.125 -2.406392E-14 9.967601E-15 1 255 125 0 255
-0 0.125 -0.125 -2.406392E-14 9.967601E-15 1 255 125 0 255
-0.025888337 0.0625 -0.125 -2.406392E-14 9.967601E-15 1 255 125 0 255
-0.051776703 0.125 -0.125 -2.406392E-14 9.967601E-15 1 255 125 0 255
-0.0625 0.025888337 -0.125 -2.406392E-14 9.967601E-15 1 255 125 0 255
-0.125 0.051776703 -0.125 -2.406392E-14 9.967601E-15 1 255 125 0 255
-0.0625 -0.025888337 -0.125 -2.406392E-14 9.967601E-15 1 255 125 0 255
0.0625 -0.025888337 -0.125 -2.406392E-14 9.967601E-15 1 255 125 0 255
0.051776703 -0.125 -0.125 -2.406392E-14 9.967601E-15 1 255 125 0 255
0.025888337 -0.0625 -0.125 -2.406392E-14 9.967601E-15 1 255 125 0 255
-0 -0.125 -0.125 -2.406392E-14 9.967601E-15 1 255 125 0 255
-0.025888337 -0.0625 -0.125 -2.406392E-14 9.967601E-15 1 255 125 0 255
-0.051776703 -0.125 -0.125 -2.406392E-14 9.967601E-15 1 255 125 0 255
-0.125 -0.051776703 -0.125 -2.406392E-14 9.967601E-15 1 255 125 0 255
-0.125 0 -0.125 -2.406392E-14 9.967601E-15 1 255 125 0 255
-0.051776703 0.125 0.07000001 0.70710677 -0.70710677 2.4228338E-30 255 125 0 255
-0.125 0.051776703 -0.125 0.70710677 -0.70710677 2.4228338E-30 255 125 0 255
-0.051776703 0.125 -0.125 0.70710677 -0.70710677 2.4228338E-30 255 125 0 255
-0.125 0.051776703 0.07000001 0.70710677 -0.70710677 2.4228338E-30 255 125 0 255
-0.043492418 0.105 0.125 0.6645343 -0.6645343 -0.3417431 255 125 0 255
-0.125 0.051776703 0.07000001 0.6645343 -0.6645343 -0.3417431 255 125 0 255
-0.051776703 0.125 0.07000001 0.6645343 -0.6645343 -0.3417431 255 125 0 255
-0.105 0.043492418 0.125 0.6645343 -0.6645343 -0.3417431 255 125 0 255
0.043492418 -0.105 0.125 0 -0 -1 255 125 0 255
0.105 0.043492418 0.125 0 -0 -1 255 125 0 255
0.105 -0.043492418 0.125 0 -0 -1 255 125 0 255
0.0625 -0.025888337 0.125 0 -0 -1 255 125 0 255
0.025888337 -0.0625 0.125 0 -0 -1 255 125 0 255
-0.043492418 -0.105 0.125 0 -0 -1 255 125 0 255
-0.025888337 -0.0625 0.125 0 -0 -1 255 125 0 255
-0.0625 -0.025888337 0.125 0 -0 -1 255 125 0 255
-0.105 -0.043492418 0.125 0 -0 -1 255 125 0 255
-0.0625 0.025888337 0.125 0 -0 -1 255 125 0 255
0.0625 0.025888337 0.125 0 -0 -1 255 125 0 255
0.043492418 0.105 0.125 0 -0 -1 255 125 0 255
0.025888337 0.0625 0.125 0 -0 -1 255 125 0 255
-0.043492418 0.105 0.125 0 -0 -1 255 125 0 255
-0.025888337 0.0625 0.125 0 -0 -1 255 125 0 255
-0.105 0.043492418 0.125 0 -0 -1 255 125 0 255
-0.105 -0.043492418 0.125 0.6645343 0.6645343 -0.3417431 255 125 0 255
-0.051776703 -0.125 0.07000001 0.6645343 0.6645343 -0.3417431 255 125 0 255
-0.125 -0.051776703 0.07000001 0.6645343 0.6645343 -0.3417431 255 125 0 255
-0.043492418 -0.105 0.125 0.6645343 0.6645343 -0.3417431 255 125 0 255
-0.051776703 -0.125 0.07000001 0 1 -0 255 125 0 255
-0 -0.125 -0.125 0 1 -0 255 125 0 255
-0.051776703 -0.125 -0.125 0 1 -0 255 125 0 255
0.051776703 -0.125 -0.125 0 1 -0 255 125 0 255
0.051776703 -0.125 0.07000001 0 1 -0 255 125 0 255
0.051776703 -0.125 0.07000001 -0.70710677 0.70710677 2.4228338E-30 255 125 0 255
0.125 -0.051776703 -0.125 -0.70710677 0.70710677 2.4228338E-30 255 125 0 255
0.051776703 -0.125 -0.125 -0.70710677 0.70710677 2.4228338E-30 255 125 0 255
0.125 -0.051776703 0.07000001 -0.70710677 0.70710677 2.4228338E-30 255 125 0 255
0.125 0.051776703 0.07000001 -1 -0 -0 255 125 0 255
0.125 -0.051776703 -0.125 -1 -0 -0 255 125 0 255
0.125 -0.051776703 0.07000001 -1 -0 -0 255 125 0 255
0.125 0 -0.125 -1 -0 -0 255 125 0 255
0.125 0.051776703 -0.125 -1 -0 -0 255 125 0 255
0.125 0.051776703 0.07000001 -0.70710677 -0.70710677 -1.065574E-17 255 125 0 255
0.051776703 0.125 -0.125 -0.70710677 -0.70710677 -1.065574E-17 255 125 0 255
0.125 0.051776703 -0.125 -0.70710677 -0.70710677 -1.065574E-17 255 125 0 255
0.051776703 0.125 0.07000001 -0.70710677 -0.70710677 -1.065574E-17 255 125 0 255
0.051776703 0.125 0.07000001 0 -1 -0 255 125 0 255
-0 0.125 -0.125 0 -1 -0 255 125 0 255
0.051776703 0.125 -0.125 0 -1 -0 255 125 0 255
-0.051776703 0.125 -0.125 0 -1 -0 255 125 0 255
-0.051776703 0.125 0.07000001 0 -1 -0 255 125 0 255
0.043492418 0.105 0.125 0 -0.9397934 -0.3417431 255 125 0 255
-0.051776703 0.125 0.07000001 0 -0.9397934 -0.3417431 255 125 0 255
0.051776703 0.125 0.07000001 0 -0.9397934 -0.3417431 255 125 0 255
-0.043492418 0.105 0.125 0 -0.9397934 -0.3417431 255 125 0 255
0.105 0.043492418 0.125 -0.6645343 -0.6645343 -0.3417431 255 125 0 255
0.051776703 0.125 0.07000001 -0.6645343 -0.6645343 -0.3417431 255 125 0 255
0.125 0.051776703 0.07000001 -0.6645343 -0.6645343 -0.3417431 255 125 0 255
0.043492418 0.105 0.125 -0.6645343 -0.6645343 -0.3417431 255 125 0 255
0.105 -0.043492418 0.125 -0.9397934 -6.691779E-18 -0.3417431 255 125 0 255
0.125 0.051776703 0.07000001 -0.9397934 -6.691779E-18 -0.3417431 255 125 0 255
0.125 -0.051776703 0.07000001 -0.9397934 -6.691779E-18 -0.3417431 255 125 0 255
0.105 0.043492418 0.125 -0.9397934 -6.691779E-18 -0.3417431 255 125 0 255
0.043492418 -0.105 0.125 -0.6645343 0.6645343 -0.3417431 255 125 0 255
0.125 -0.051776703 0.07000001 -0.6645343 0.6645343 -0.3417431 255 125 0 255
0.051776703 -0.125 0.07000001 -0.6645343 0.6645343 -0.3417431 255 125 0 255
0.105 -0.043492418 0.125 -0.6645343 0.6645343 -0.3417431 255 125 0 255
-0.043492418 -0.105 0.125 0 0.9397934 -0.3417431 255 125 0 255
0.051776703 -0.125 0.07000001 0 0.9397934 -0.3417431 255 125 0 255
-0.051776703 -0.125 0.07000001 0 0.9397934 -0.3417431 255 125 0 255
0.043492418 -0.105 0.125 0 0.9397934 -0.3417431 255 125 0 255
3 0 1 2
3 1 0 3
3 3 0 4
3 5 6 7
3 6 5 8
3 9 10 11
3 10 9 12
3 13 14 15
3 14 13 16
3 16 13 17
3 17 13 18
3 18 13 19
3 18 19 20
3 20 19 21
3 20 21 22
3 22 21 23
3 22 23 24
3 16 25 26
3 25 16 17
3 26 25 27
3 26 27 28
3 28 27 29
3 28 29 30
3 30 29 24
3 30 24 31
3 31 24 23
3 31 23 32
3 33 34 35
3 34 33 36
3 37 38 39
3 38 37 40
3 41 42 43
3 42 41 44
3 44 41 45
3 45 41 46
3 45 46 47
3 47 46 48
3 48 46 49
3 48 49 50
3 42 51 52
3 51 42 44
3 52 51 53
3 52 53 54
3 54 53 55
3 54 55 50
3 54 50 56
3 56 50 49
3 57 58 59
3 58 57 60
3 61 62 63
3 62 61 64
3 64 61 65
3 66 67 68
3 67 66 69
3 70 71 72
3 71 70 73
3 73 70 74
3 75 76 77
3 76 75 78
3 79 80 81
3 80 79 82
3 82 79 83
3 84 85 86
3 85 84 87
3 88 89 90
3 89 88 91
3 92 93 94
3 93 92 95
3 96 97 98
3 97 96 99
3 100 101 102
3 101 100 103

