ply
format ascii 1.0
commentY29udmVydGVyIGJ5IENvZGVMZW9wYXJk
comment Original mesh name: 'C:\Program Files (x86)\Steam\steamapps\common\Stormworks\rom\meshes\component_multibody_turret_large_a.mesh'
comment SubMesh index: 0
comment SubMesh name: 'ID26'
comment Shader: Opaque (0)
element vertex 168
property float x
property float y
property float z
property float nx
property float ny
property float nz
property uchar red
property uchar green
property uchar blue
property uchar alpha
element face 152
property list uchar ushort vertex_index
end_header
1.0525712 1.3871843 -0.0750001 0 -0 1 84 84 84 255
1.1051456 0.80902576 -0.0750001 0 -0 1 84 84 84 255
1.1169164 1.1015656 -0.0750001 0 -0 1 84 84 84 255
1.0180608 0.5295003 -0.0750001 0 -0 1 84 84 84 255
0.9637048 1.1385812 -0.0750001 0 -0 1 84 84 84 255
0.91649497 1.6464167 -0.0750001 0 -0 1 84 84 84 255
0.9667348 0.88443375 -0.0750001 0 -0 1 84 84 84 255
0.895 1.3832842 -0.0750001 0 -0 1 84 84 84 255
0.7179612 1.8615968 -0.0750001 0 -0 1 84 84 84 255
0.76530224 1.6018672 -0.0750001 0 -0 1 84 84 84 255
0.5834507 1.7794337 -0.0750001 0 -0 1 84 84 84 255
0.47049963 2.0180607 -0.0750001 0 -0 1 84 84 84 255
0.36183771 1.9038833 -0.0750001 0 -0 1 84 84 84 255
0.19097416 2.1051455 -0.0750001 0 -0 1 84 84 84 255
0.115566105 1.9667348 -0.0750001 0 -0 1 84 84 84 255
-0.10156584 2.1169164 -0.0750001 0 -0 1 84 84 84 255
-0.13858107 1.9637048 -0.0750001 0 -0 1 84 84 84 255
-0.38718438 2.052571 -0.0750001 0 -0 1 84 84 84 255
-0.38328418 1.8949999 -0.0750001 0 -0 1 84 84 84 255
-0.6018672 1.7653022 -0.0750001 0 -0 1 84 84 84 255
-0.6464167 1.916495 -0.0750001 0 -0 1 84 84 84 255
-0.7794338 1.5834507 -0.0750001 0 -0 1 84 84 84 255
-0.8615969 1.7179612 -0.0750001 0 -0 1 84 84 84 255
-0.9038833 1.3618377 -0.0750001 0 -0 1 84 84 84 255
-1.0180608 1.4704996 -0.0750001 0 -0 1 84 84 84 255
-0.9667348 1.1155661 -0.0750001 0 -0 1 84 84 84 255
0.8615969 0.2820388 -0.0750001 0 -0 1 84 84 84 255
0.9038833 0.63816226 -0.0750001 0 -0 1 84 84 84 255
0.7794338 0.4165493 -0.0750001 0 -0 1 84 84 84 255
0.6464167 0.08350499 -0.0750001 0 -0 1 84 84 84 255
0.6018672 0.23469767 -0.0750001 0 -0 1 84 84 84 255
0.38718438 -0.052571163 -0.0750001 0 -0 1 84 84 84 255
0.38328418 0.10500004 -0.0750001 0 -0 1 84 84 84 255
0.10156584 -0.116916314 -0.0750001 0 -0 1 84 84 84 255
0.13858107 0.036295176 -0.0750001 0 -0 1 84 84 84 255
-0.115566105 0.03326521 -0.0750001 0 -0 1 84 84 84 255
-0.19097416 -0.10514551 -0.0750001 0 -0 1 84 84 84 255
-0.36183771 0.09611659 -0.0750001 0 -0 1 84 84 84 255
-0.47049963 -0.018060831 -0.0750001 0 -0 1 84 84 84 255
-0.5834507 0.22056617 -0.0750001 0 -0 1 84 84 84 255
-0.7179612 0.13840298 -0.0750001 0 -0 1 84 84 84 255
-0.76530224 0.3981328 -0.0750001 0 -0 1 84 84 84 255
-0.91649497 0.35358322 -0.0750001 0 -0 1 84 84 84 255
-0.895 0.6167157 -0.0750001 0 -0 1 84 84 84 255
-0.9637048 0.8614189 -0.0750001 0 -0 1 84 84 84 255
-1.0525712 0.6128156 -0.0750001 0 -0 1 84 84 84 255
-1.1051456 1.1909741 -0.0750001 0 -0 1 84 84 84 255
-1.1169164 0.8984342 -0.0750001 0 -0 1 84 84 84 255
-1.1169164 0.8984342 -0.0750001 0 -0 -1 84 84 84 255
-1.1051456 1.1909741 -0.0750001 0 -0 -1 84 84 84 255
-1.0525712 0.6128156 -0.0750001 0 -0 -1 84 84 84 255
-1.0180608 1.4704996 -0.0750001 0 -0 -1 84 84 84 255
-0.9667348 1.1155661 -0.0750001 0 -0 -1 84 84 84 255
-0.9637048 0.8614189 -0.0750001 0 -0 -1 84 84 84 255
-0.91649497 0.35358322 -0.0750001 0 -0 -1 84 84 84 255
-0.895 0.6167157 -0.0750001 0 -0 -1 84 84 84 255
-0.76530224 0.3981328 -0.0750001 0 -0 -1 84 84 84 255
-0.7179612 0.13840298 -0.0750001 0 -0 -1 84 84 84 255
-0.5834507 0.22056617 -0.0750001 0 -0 -1 84 84 84 255
-0.47049963 -0.018060831 -0.0750001 0 -0 -1 84 84 84 255
-0.36183771 0.09611659 -0.0750001 0 -0 -1 84 84 84 255
-0.19097416 -0.10514551 -0.0750001 0 -0 -1 84 84 84 255
-0.115566105 0.03326521 -0.0750001 0 -0 -1 84 84 84 255
0.10156584 -0.116916314 -0.0750001 0 -0 -1 84 84 84 255
0.13858107 0.036295176 -0.0750001 0 -0 -1 84 84 84 255
0.38328418 0.10500004 -0.0750001 0 -0 -1 84 84 84 255
0.38718438 -0.052571163 -0.0750001 0 -0 -1 84 84 84 255
0.6018672 0.23469767 -0.0750001 0 -0 -1 84 84 84 255
0.6464167 0.08350499 -0.0750001 0 -0 -1 84 84 84 255
0.7794338 0.4165493 -0.0750001 0 -0 -1 84 84 84 255
0.8615969 0.2820388 -0.0750001 0 -0 -1 84 84 84 255
0.9038833 0.63816226 -0.0750001 0 -0 -1 84 84 84 255
0.9667348 0.88443375 -0.0750001 0 -0 -1 84 84 84 255
1.0180608 0.5295003 -0.0750001 0 -0 -1 84 84 84 255
-0.9038833 1.3618377 -0.0750001 0 -0 -1 84 84 84 255
-0.8615969 1.7179612 -0.0750001 0 -0 -1 84 84 84 255
-0.7794338 1.5834507 -0.0750001 0 -0 -1 84 84 84 255
-0.6464167 1.916495 -0.0750001 0 -0 -1 84 84 84 255
-0.6018672 1.7653022 -0.0750001 0 -0 -1 84 84 84 255
-0.38718438 2.052571 -0.0750001 0 -0 -1 84 84 84 255
-0.38328418 1.8949999 -0.0750001 0 -0 -1 84 84 84 255
-0.13858107 1.9637048 -0.0750001 0 -0 -1 84 84 84 255
-0.10156584 2.1169164 -0.0750001 0 -0 -1 84 84 84 255
0.115566105 1.9667348 -0.0750001 0 -0 -1 84 84 84 255
0.19097416 2.1051455 -0.0750001 0 -0 -1 84 84 84 255
0.36183771 1.9038833 -0.0750001 0 -0 -1 84 84 84 255
0.47049963 2.0180607 -0.0750001 0 -0 -1 84 84 84 255
0.5834507 1.7794337 -0.0750001 0 -0 -1 84 84 84 255
0.7179612 1.8615968 -0.0750001 0 -0 -1 84 84 84 255
0.76530224 1.6018672 -0.0750001 0 -0 -1 84 84 84 255
0.895 1.3832842 -0.0750001 0 -0 -1 84 84 84 255
0.91649497 1.6464167 -0.0750001 0 -0 -1 84 84 84 255
0.9637048 1.1385812 -0.0750001 0 -0 -1 84 84 84 255
1.0525712 1.3871843 -0.0750001 0 -0 -1 84 84 84 255
1.1051456 0.80902576 -0.0750001 0 -0 -1 84 84 84 255
1.1169164 1.1015656 -0.0750001 0 -0 -1 84 84 84 255
0.8749999 2.1249998 -0.125 1.359623E-18 -2.7553068E-19 1 255 125 0 255
0.43997175 2.00999 -0.125 1.359623E-18 -2.7553068E-19 1 255 125 0 255
0.8749999 1.8749999 -0.125 1.359623E-18 -2.7553068E-19 1 255 125 0 255
-0.875 2.1249998 -0.125 1.359623E-18 -2.7553068E-19 1 255 125 0 255
-0.4399717 2.00999 -0.125 1.359623E-18 -2.7553068E-19 1 255 125 0 255
-0.875 1.8749999 -0.125 1.359623E-18 -2.7553068E-19 1 255 125 0 255
-1.0099901 1.4399717 -0.125 1.359623E-18 -2.7553068E-19 1 255 125 0 255
-1.125 1.8749999 -0.125 1.359623E-18 -2.7553068E-19 1 255 125 0 255
-1.0099901 0.5600284 -0.125 1.359623E-18 -2.7553068E-19 1 255 125 0 255
-0.875 0.12500006 -0.125 1.359623E-18 -2.7553068E-19 1 255 125 0 255
-0.4399717 -0.009989925 -0.125 1.359623E-18 -2.7553068E-19 1 255 125 0 255
-1.125 0.12500006 -0.125 1.359623E-18 -2.7553068E-19 1 255 125 0 255
1.125 0.12500006 -0.125 1.359623E-18 -2.7553068E-19 1 255 125 0 255
1.0099901 0.5600284 -0.125 1.359623E-18 -2.7553068E-19 1 255 125 0 255
0.8749999 0.12500006 -0.125 1.359623E-18 -2.7553068E-19 1 255 125 0 255
1.0099901 1.4399717 -0.125 1.359623E-18 -2.7553068E-19 1 255 125 0 255
0.43997175 -0.009989925 -0.125 1.359623E-18 -2.7553068E-19 1 255 125 0 255
0.8749999 -0.12500006 -0.125 1.359623E-18 -2.7553068E-19 1 255 125 0 255
-0.875 -0.12500006 -0.125 1.359623E-18 -2.7553068E-19 1 255 125 0 255
1.125 1.8749999 -0.125 1.359623E-18 -2.7553068E-19 1 255 125 0 255
0.8749999 -0.12500006 0.125 3.6967583E-18 -6.36488E-18 -1 255 125 0 255
0.43997175 -0.009989925 0.125 3.6967583E-18 -6.36488E-18 -1 255 125 0 255
0.8749999 0.12500006 0.125 3.6967583E-18 -6.36488E-18 -1 255 125 0 255
-0.875 -0.12500006 0.125 3.6967583E-18 -6.36488E-18 -1 255 125 0 255
-0.4399717 -0.009989925 0.125 3.6967583E-18 -6.36488E-18 -1 255 125 0 255
-0.875 0.12500006 0.125 3.6967583E-18 -6.36488E-18 -1 255 125 0 255
-1.0099901 0.5600284 0.125 3.6967583E-18 -6.36488E-18 -1 255 125 0 255
-1.125 0.12500006 0.125 3.6967583E-18 -6.36488E-18 -1 255 125 0 255
-1.0099901 1.4399717 0.125 3.6967583E-18 -6.36488E-18 -1 255 125 0 255
-0.875 1.8749999 0.125 3.6967583E-18 -6.36488E-18 -1 255 125 0 255
-0.4399717 2.00999 0.125 3.6967583E-18 -6.36488E-18 -1 255 125 0 255
-1.125 1.8749999 0.125 3.6967583E-18 -6.36488E-18 -1 255 125 0 255
1.125 1.8749999 0.125 3.6967583E-18 -6.36488E-18 -1 255 125 0 255
1.0099901 1.4399717 0.125 3.6967583E-18 -6.36488E-18 -1 255 125 0 255
0.8749999 1.8749999 0.125 3.6967583E-18 -6.36488E-18 -1 255 125 0 255
1.0099901 0.5600284 0.125 3.6967583E-18 -6.36488E-18 -1 255 125 0 255
0.43997175 2.00999 0.125 3.6967583E-18 -6.36488E-18 -1 255 125 0 255
0.8749999 2.1249998 0.125 3.6967583E-18 -6.36488E-18 -1 255 125 0 255
-0.875 2.1249998 0.125 3.6967583E-18 -6.36488E-18 -1 255 125 0 255
1.125 0.12500006 0.125 3.6967583E-18 -6.36488E-18 -1 255 125 0 255
-1.0099901 0.5600284 0.125 -0.70710677 -0.70710677 3.9805337E-31 255 125 0 255
-0.4399717 -0.009989925 -0.125 -0.70710677 -0.70710677 3.9805337E-31 255 125 0 255
-0.4399717 -0.009989925 0.125 -0.70710677 -0.70710677 3.9805337E-31 255 125 0 255
-1.0099901 0.5600284 -0.125 -0.70710677 -0.70710677 3.9805337E-31 255 125 0 255
-1.0099901 1.4399717 0.125 -1 -0 -0 255 125 0 255
-1.0099901 0.5600284 -0.125 -1 -0 -0 255 125 0 255
-1.0099901 0.5600284 0.125 -1 -0 -0 255 125 0 255
-1.0099901 1.4399717 -0.125 -1 -0 -0 255 125 0 255
0.43997175 -0.009989925 0.125 0 -1 -0 255 125 0 255
-0.4399717 -0.009989925 -0.125 0 -1 -0 255 125 0 255
0.43997175 -0.009989925 -0.125 0 -1 -0 255 125 0 255
-0.4399717 -0.009989925 0.125 0 -1 -0 255 125 0 255
-1.0099901 1.4399717 0.125 -0.7071067 0.7071068 -0 255 125 0 255
-0.4399717 2.00999 -0.125 -0.7071067 0.7071068 -0 255 125 0 255
-1.0099901 1.4399717 -0.125 -0.7071067 0.7071068 -0 255 125 0 255
-0.4399717 2.00999 0.125 -0.7071067 0.7071068 -0 255 125 0 255
1.0099901 0.5600284 -0.125 0.7071068 -0.7071067 -5.1863632E-17 255 125 0 255
0.43997175 -0.009989925 0.125 0.7071068 -0.7071067 -5.1863632E-17 255 125 0 255
0.43997175 -0.009989925 -0.125 0.7071068 -0.7071067 -5.1863632E-17 255 125 0 255
1.0099901 0.5600284 0.125 0.7071068 -0.7071067 -5.1863632E-17 255 125 0 255
-0.4399717 2.00999 0.125 0 1 -0 255 125 0 255
0.43997175 2.00999 -0.125 0 1 -0 255 125 0 255
-0.4399717 2.00999 -0.125 0 1 -0 255 125 0 255
0.43997175 2.00999 0.125 0 1 -0 255 125 0 255
1.0099901 1.4399717 -0.125 1 -0 -0 255 125 0 255
1.0099901 0.5600284 0.125 1 -0 -0 255 125 0 255
1.0099901 0.5600284 -0.125 1 -0 -0 255 125 0 255
1.0099901 1.4399717 0.125 1 -0 -0 255 125 0 255
0.43997175 2.00999 -0.125 0.70710677 0.70710677 -4.8587292E-24 255 125 0 255
1.0099901 1.4399717 0.125 0.70710677 0.70710677 -4.8587292E-24 255 125 0 255
1.0099901 1.4399717 -0.125 0.70710677 0.70710677 -4.8587292E-24 255 125 0 255
0.43997175 2.00999 0.125 0.70710677 0.70710677 -4.8587292E-24 255 125 0 255
3 0 1 2
3 1 0 3
3 3 0 4
3 4 0 5
3 3 4 6
3 4 5 7
3 7 5 8
3 7 8 9
3 9 8 10
3 10 8 11
3 10 11 12
3 12 11 13
3 12 13 14
3 14 13 15
3 14 15 16
3 16 15 17
3 16 17 18
3 18 17 19
3 19 17 20
3 19 20 21
3 21 20 22
3 21 22 23
3 23 22 24
3 23 24 25
3 6 26 3
3 26 6 27
3 26 27 28
3 26 28 29
3 29 28 30
3 29 30 31
3 31 30 32
3 31 32 33
3 33 32 34
3 33 34 35
3 33 35 36
3 36 35 37
3 36 37 38
3 38 37 39
3 38 39 40
3 40 39 41
3 40 41 42
3 42 41 43
3 42 43 44
3 42 44 45
3 45 44 25
3 45 25 24
3 45 24 46
3 45 46 47
3 48 49 50
3 49 51 50
3 51 52 50
3 52 53 50
3 50 53 54
3 53 55 54
3 55 56 54
3 54 56 57
3 56 58 57
3 57 58 59
3 58 60 59
3 59 60 61
3 60 62 61
3 61 62 63
3 62 64 63
3 64 65 63
3 63 65 66
3 65 67 66
3 66 67 68
3 67 69 68
3 68 69 70
3 69 71 70
3 71 72 70
3 73 70 72
3 52 51 74
3 51 75 74
3 74 75 76
3 75 77 76
3 76 77 78
3 77 79 78
3 78 79 80
3 80 79 81
3 79 82 81
3 81 82 83
3 82 84 83
3 83 84 85
3 84 86 85
3 85 86 87
3 86 88 87
3 87 88 89
3 89 88 90
3 88 91 90
3 90 91 92
3 72 92 73
3 91 93 92
3 92 93 73
3 73 93 94
3 95 94 93
3 96 97 98
3 97 96 99
3 97 99 100
3 100 99 101
3 100 101 102
3 102 101 103
3 102 103 104
3 104 105 106
3 105 104 107
3 107 104 103
3 108 109 110
3 109 108 111
3 110 109 112
3 110 112 113
3 113 112 114
3 114 112 106
3 114 106 105
3 115 111 108
3 111 115 98
3 111 98 97
3 116 117 118
3 117 116 119
3 117 119 120
3 120 119 121
3 120 121 122
3 122 121 123
3 122 123 124
3 124 125 126
3 125 124 127
3 127 124 123
3 128 129 130
3 129 128 131
3 130 129 132
3 130 132 133
3 133 132 134
3 134 132 126
3 134 126 125
3 135 131 128
3 131 135 118
3 131 118 117
3 136 137 138
3 137 136 139
3 140 141 142
3 141 140 143
3 144 145 146
3 145 144 147
3 148 149 150
3 149 148 151
3 152 153 154
3 153 152 155
3 156 157 158
3 157 156 159
3 160 161 162
3 161 160 163
3 164 165 166
3 165 164 167

