ply
format ascii 1.0
commentY29udmVydGVyIGJ5IENvZGVMZW9wYXJk
comment Original mesh name: 'C:\Program Files (x86)\Steam\steamapps\common\Stormworks\rom\meshes\component_solid_rocket_nozzle_large.mesh'
comment SubMesh index: 0
comment SubMesh name: 'ID45'
comment Shader: Opaque (0)
element vertex 336
property float x
property float y
property float z
property float nx
property float ny
property float nz
property uchar red
property uchar green
property uchar blue
property uchar alpha
element face 204
property list uchar ushort vertex_index
end_header
0.20184669 -0.20184669 -0.125 0.3826835 -0.9238795 -8.8387326E-14 30 30 30 255
2.8010154E-13 -0.28545433 -0.25 0.3826835 -0.9238795 -8.8387326E-14 30 30 30 255
0.20184669 -0.20184669 -0.25 0.3826835 -0.9238795 -8.8387326E-14 30 30 30 255
3.3785455E-13 -0.28545433 -0.125 0.3826835 -0.9238795 -8.8387326E-14 30 30 30 255
0.28545433 -6.4394475E-13 -0.25 0.9238795 -0.3826835 -3.388152E-17 30 30 30 255
0.20184669 -0.20184669 -0.125 0.9238795 -0.3826835 -3.388152E-17 30 30 30 255
0.20184669 -0.20184669 -0.25 0.9238795 -0.3826835 -3.388152E-17 30 30 30 255
0.28545433 -6.4394475E-13 -0.125 0.9238795 -0.3826835 -3.388152E-17 30 30 30 255
0.3496279 -0.3496279 0.175 0.3217934 -0.7768785 -0.5412105 30 30 30 255
3.3785455E-13 -0.28545433 -0.125 0.3217934 -0.7768785 -0.5412105 30 30 30 255
0.20184669 -0.20184669 -0.125 0.3217934 -0.7768785 -0.5412105 30 30 30 255
3.0916852E-13 -0.49444857 0.175 0.3217934 -0.7768785 -0.5412105 30 30 30 255
3.3785455E-13 -0.28545433 -0.125 -0.3826835 -0.9238795 8.84154E-14 30 30 30 255
-0.20184669 -0.20184669 -0.25 -0.3826835 -0.9238795 8.84154E-14 30 30 30 255
2.8010154E-13 -0.28545433 -0.25 -0.3826835 -0.9238795 8.84154E-14 30 30 30 255
-0.20184669 -0.20184669 -0.125 -0.3826835 -0.9238795 8.84154E-14 30 30 30 255
0.20184669 -0.20184669 -0.25 0 -0 -1 30 30 30 255
0.20184669 0.20184669 -0.25 0 -0 -1 30 30 30 255
0.28545433 -6.4394475E-13 -0.25 0 -0 -1 30 30 30 255
2.8010154E-13 -0.28545433 -0.25 0 -0 -1 30 30 30 255
6.8437194E-13 0.28545433 -0.25 0 -0 -1 30 30 30 255
-0.20184669 0.20184669 -0.25 0 -0 -1 30 30 30 255
-0.20184669 -0.20184669 -0.25 0 -0 -1 30 30 30 255
-0.28545433 -2.4544985E-13 -0.25 0 -0 -1 30 30 30 255
0.20184669 0.20184669 -0.25 0.9238795 0.3826835 -3.388152E-17 30 30 30 255
0.28545433 -6.4394475E-13 -0.125 0.9238795 0.3826835 -3.388152E-17 30 30 30 255
0.28545433 -6.4394475E-13 -0.25 0.9238795 0.3826835 -3.388152E-17 30 30 30 255
0.20184669 0.20184669 -0.125 0.9238795 0.3826835 -3.388152E-17 30 30 30 255
0.20184669 -0.20184669 -0.125 0.7768785 -0.3217934 -0.5412105 30 30 30 255
0.49444857 -7.0812274E-13 0.175 0.7768785 -0.3217934 -0.5412105 30 30 30 255
0.3496279 -0.3496279 0.175 0.7768785 -0.3217934 -0.5412105 30 30 30 255
0.28545433 -6.4394475E-13 -0.125 0.7768785 -0.3217934 -0.5412105 30 30 30 255
0.3496279 -0.3496279 0.37499997 0.3826831 -0.9238797 -0 30 30 30 255
3.0916852E-13 -0.49444857 0.175 0.3826831 -0.9238797 -0 30 30 30 255
0.3496279 -0.3496279 0.175 0.3826831 -0.9238797 -0 30 30 30 255
3.0916852E-13 -0.49444857 0.37499997 0.3826831 -0.9238797 -0 30 30 30 255
3.0916852E-13 -0.49444857 0.175 -0.3217934 -0.7768785 -0.5412105 30 30 30 255
-0.20184669 -0.20184669 -0.125 -0.3217934 -0.7768785 -0.5412105 30 30 30 255
3.3785455E-13 -0.28545433 -0.125 -0.3217934 -0.7768785 -0.5412105 30 30 30 255
-0.3496279 -0.3496279 0.175 -0.3217934 -0.7768785 -0.5412105 30 30 30 255
-0.28545433 -2.4544985E-13 -0.125 -0.9238795 -0.3826835 -0 30 30 30 255
-0.20184669 -0.20184669 -0.25 -0.9238795 -0.3826835 -0 30 30 30 255
-0.20184669 -0.20184669 -0.125 -0.9238795 -0.3826835 -0 30 30 30 255
-0.28545433 -2.4544985E-13 -0.25 -0.9238795 -0.3826835 -0 30 30 30 255
-0.20184669 0.20184669 -0.125 -0.9238795 0.3826835 -0 30 30 30 255
-0.28545433 -2.4544985E-13 -0.25 -0.9238795 0.3826835 -0 30 30 30 255
-0.28545433 -2.4544985E-13 -0.125 -0.9238795 0.3826835 -0 30 30 30 255
-0.20184669 0.20184669 -0.25 -0.9238795 0.3826835 -0 30 30 30 255
-0.20184669 0.20184669 -0.125 -0.3826835 0.9238795 8.835345E-14 30 30 30 255
6.8437194E-13 0.28545433 -0.25 -0.3826835 0.9238795 8.835345E-14 30 30 30 255
-0.20184669 0.20184669 -0.25 -0.3826835 0.9238795 8.835345E-14 30 30 30 255
7.4212495E-13 0.28545433 -0.125 -0.3826835 0.9238795 8.835345E-14 30 30 30 255
7.4212495E-13 0.28545433 -0.125 0.3826835 0.9238795 -8.8449274E-14 30 30 30 255
0.20184669 0.20184669 -0.25 0.3826835 0.9238795 -8.8449274E-14 30 30 30 255
6.8437194E-13 0.28545433 -0.25 0.3826835 0.9238795 -8.8449274E-14 30 30 30 255
0.20184669 0.20184669 -0.125 0.3826835 0.9238795 -8.8449274E-14 30 30 30 255
0.28545433 -6.4394475E-13 -0.125 0.7768785 0.3217934 -0.5412105 30 30 30 255
0.3496279 0.3496279 0.175 0.7768785 0.3217934 -0.5412105 30 30 30 255
0.49444857 -7.0812274E-13 0.175 0.7768785 0.3217934 -0.5412105 30 30 30 255
0.20184669 0.20184669 -0.125 0.7768785 0.3217934 -0.5412105 30 30 30 255
0.49444857 -7.0812274E-13 0.175 0.9238797 -0.3826831 -0 30 30 30 255
0.3496279 -0.3496279 0.37499997 0.9238797 -0.3826831 -0 30 30 30 255
0.3496279 -0.3496279 0.175 0.9238797 -0.3826831 -0 30 30 30 255
0.49444857 -7.0812274E-13 0.37499997 0.9238797 -0.3826831 -0 30 30 30 255
3.0916852E-13 -0.49444857 0.37499997 -0.3826831 -0.9238797 -0 30 30 30 255
-0.3496279 -0.3496279 0.175 -0.3826831 -0.9238797 -0 30 30 30 255
3.0916852E-13 -0.49444857 0.175 -0.3826831 -0.9238797 -0 30 30 30 255
-0.3496279 -0.3496279 0.37499997 -0.3826831 -0.9238797 -0 30 30 30 255
-0.49444857 -2.3317736E-14 0.175 -0.7768785 -0.3217934 -0.5412105 30 30 30 255
-0.20184669 -0.20184669 -0.125 -0.7768785 -0.3217934 -0.5412105 30 30 30 255
-0.3496279 -0.3496279 0.175 -0.7768785 -0.3217934 -0.5412105 30 30 30 255
-0.28545433 -2.4544985E-13 -0.125 -0.7768785 -0.3217934 -0.5412105 30 30 30 255
-0.49444857 -2.3317736E-14 0.175 -0.7768785 0.3217934 -0.5412105 30 30 30 255
-0.20184669 0.20184669 -0.125 -0.7768785 0.3217934 -0.5412105 30 30 30 255
-0.28545433 -2.4544985E-13 -0.125 -0.7768785 0.3217934 -0.5412105 30 30 30 255
-0.3496279 0.3496279 0.175 -0.7768785 0.3217934 -0.5412105 30 30 30 255
-0.3496279 0.3496279 0.175 -0.3217934 0.7768785 -0.5412105 30 30 30 255
7.4212495E-13 0.28545433 -0.125 -0.3217934 0.7768785 -0.5412105 30 30 30 255
-0.20184669 0.20184669 -0.125 -0.3217934 0.7768785 -0.5412105 30 30 30 255
1.0037917E-12 0.49444857 0.175 -0.3217934 0.7768785 -0.5412105 30 30 30 255
1.0037917E-12 0.49444857 0.175 0.3217934 0.7768785 -0.5412105 30 30 30 255
0.20184669 0.20184669 -0.125 0.3217934 0.7768785 -0.5412105 30 30 30 255
7.4212495E-13 0.28545433 -0.125 0.3217934 0.7768785 -0.5412105 30 30 30 255
0.3496279 0.3496279 0.175 0.3217934 0.7768785 -0.5412105 30 30 30 255
0.3496279 0.3496279 0.175 0.9238797 0.3826831 -0 30 30 30 255
0.49444857 -7.0812274E-13 0.37499997 0.9238797 0.3826831 -0 30 30 30 255
0.49444857 -7.0812274E-13 0.175 0.9238797 0.3826831 -0 30 30 30 255
0.3496279 0.3496279 0.37499997 0.9238797 0.3826831 -0 30 30 30 255
-0.49444857 -2.3317736E-14 0.37499997 -0.9238797 -0.3826831 -0 30 30 30 255
-0.3496279 -0.3496279 0.175 -0.9238797 -0.3826831 -0 30 30 30 255
-0.3496279 -0.3496279 0.37499997 -0.9238797 -0.3826831 -0 30 30 30 255
-0.49444857 -2.3317736E-14 0.175 -0.9238797 -0.3826831 -0 30 30 30 255
-0.3496279 0.3496279 0.37499997 -0.9238797 0.3826831 -0 30 30 30 255
-0.49444857 -2.3317736E-14 0.175 -0.9238797 0.3826831 -0 30 30 30 255
-0.49444857 -2.3317736E-14 0.37499997 -0.9238797 0.3826831 -0 30 30 30 255
-0.3496279 0.3496279 0.175 -0.9238797 0.3826831 -0 30 30 30 255
-0.3496279 0.3496279 0.37499997 -0.3826831 0.9238797 -0 30 30 30 255
1.0037917E-12 0.49444857 0.175 -0.3826831 0.9238797 -0 30 30 30 255
-0.3496279 0.3496279 0.175 -0.3826831 0.9238797 -0 30 30 30 255
1.0037917E-12 0.49444857 0.37499997 -0.3826831 0.9238797 -0 30 30 30 255
1.0037917E-12 0.49444857 0.37499997 0.3826831 0.9238797 -0 30 30 30 255
0.3496279 0.3496279 0.175 0.3826831 0.9238797 -0 30 30 30 255
1.0037917E-12 0.49444857 0.175 0.3826831 0.9238797 -0 30 30 30 255
0.3496279 0.3496279 0.37499997 0.3826831 0.9238797 -0 30 30 30 255
0.625 0.37499997 -0.37499997 -2.2530621E-32 1.8391801E-32 1 84 84 84 255
0.5850001 0.3584313 -0.37499997 -2.2530621E-32 1.8391801E-32 1 84 84 84 255
0.625 -0.37499997 -0.37499997 -2.2530621E-32 1.8391801E-32 1 84 84 84 255
0.37499997 0.625 -0.37499997 -2.2530621E-32 1.8391801E-32 1 84 84 84 255
0.3584313 0.5850001 -0.37499997 -2.2530621E-32 1.8391801E-32 1 84 84 84 255
-0.37499997 0.625 -0.37499997 -2.2530621E-32 1.8391801E-32 1 84 84 84 255
-0.3584313 0.5850001 -0.37499997 -2.2530621E-32 1.8391801E-32 1 84 84 84 255
-0.5850001 0.3584313 -0.37499997 -2.2530621E-32 1.8391801E-32 1 84 84 84 255
-0.625 0.37499997 -0.37499997 -2.2530621E-32 1.8391801E-32 1 84 84 84 255
-0.5850001 -0.3584313 -0.37499997 -2.2530621E-32 1.8391801E-32 1 84 84 84 255
0.5850001 -0.3584313 -0.37499997 -2.2530621E-32 1.8391801E-32 1 84 84 84 255
0.37499997 -0.625 -0.37499997 -2.2530621E-32 1.8391801E-32 1 84 84 84 255
0.3584313 -0.5850001 -0.37499997 -2.2530621E-32 1.8391801E-32 1 84 84 84 255
-0.37499997 -0.625 -0.37499997 -2.2530621E-32 1.8391801E-32 1 84 84 84 255
-0.3584313 -0.5850001 -0.37499997 -2.2530621E-32 1.8391801E-32 1 84 84 84 255
-0.625 -0.37499997 -0.37499997 -2.2530621E-32 1.8391801E-32 1 84 84 84 255
0.3584313 0.5850001 -0.37499997 0 -0 1 30 30 30 255
0.5850001 -0.3584313 -0.37499997 0 -0 1 30 30 30 255
0.5850001 0.3584313 -0.37499997 0 -0 1 30 30 30 255
0.3584313 -0.5850001 -0.37499997 0 -0 1 30 30 30 255
-0.3584313 0.5850001 -0.37499997 0 -0 1 30 30 30 255
-0.3584313 -0.5850001 -0.37499997 0 -0 1 30 30 30 255
-0.5850001 0.3584313 -0.37499997 0 -0 1 30 30 30 255
-0.5850001 -0.3584313 -0.37499997 0 -0 1 30 30 30 255
0.46874982 -0.28124988 -0.125 0 -0 -1 255 125 0 255
0.42874995 -0.26468146 -0.125 0 -0 -1 255 125 0 255
0.46874982 0.28124988 -0.125 0 -0 -1 255 125 0 255
0.28124988 -0.46874982 -0.125 0 -0 -1 255 125 0 255
0.26468146 -0.42874995 -0.125 0 -0 -1 255 125 0 255
-0.28124988 -0.46874982 -0.125 0 -0 -1 255 125 0 255
-0.26468146 -0.42874995 -0.125 0 -0 -1 255 125 0 255
-0.42874995 -0.26468146 -0.125 0 -0 -1 255 125 0 255
-0.46874982 -0.28124988 -0.125 0 -0 -1 255 125 0 255
-0.42874995 0.26468146 -0.125 0 -0 -1 255 125 0 255
0.42874995 0.26468146 -0.125 0 -0 -1 255 125 0 255
0.28124988 0.46874982 -0.125 0 -0 -1 255 125 0 255
0.26468146 0.42874995 -0.125 0 -0 -1 255 125 0 255
-0.28124988 0.46874982 -0.125 0 -0 -1 255 125 0 255
-0.26468146 0.42874995 -0.125 0 -0 -1 255 125 0 255
-0.46874982 0.28124988 -0.125 0 -0 -1 255 125 0 255
-0.625 0.37499997 -0.37499997 0.8479981 -0 -0.5299992 255 125 0 255
-0.46874982 -0.28124988 -0.125 0.8479981 -0 -0.5299992 255 125 0 255
-0.625 -0.37499997 -0.37499997 0.8479981 -0 -0.5299992 255 125 0 255
-0.46874982 0.28124988 -0.125 0.8479981 -0 -0.5299992 255 125 0 255
-0.46874982 0.28124988 -0.125 0.5773501 -0.5773501 -0.5773507 255 125 0 255
-0.37499997 0.625 -0.37499997 0.5773501 -0.5773501 -0.5773507 255 125 0 255
-0.28124988 0.46874982 -0.125 0.5773501 -0.5773501 -0.5773507 255 125 0 255
-0.625 0.37499997 -0.37499997 0.5773501 -0.5773501 -0.5773507 255 125 0 255
0.28124988 0.46874982 -0.125 -2.70074E-33 -0.8479981 -0.5299992 255 125 0 255
-0.37499997 0.625 -0.37499997 -2.70074E-33 -0.8479981 -0.5299992 255 125 0 255
0.37499997 0.625 -0.37499997 -2.70074E-33 -0.8479981 -0.5299992 255 125 0 255
-0.28124988 0.46874982 -0.125 -2.70074E-33 -0.8479981 -0.5299992 255 125 0 255
0.46874982 0.28124988 -0.125 -0.5773501 -0.5773501 -0.5773507 255 125 0 255
0.37499997 0.625 -0.37499997 -0.5773501 -0.5773501 -0.5773507 255 125 0 255
0.625 0.37499997 -0.37499997 -0.5773501 -0.5773501 -0.5773507 255 125 0 255
0.28124988 0.46874982 -0.125 -0.5773501 -0.5773501 -0.5773507 255 125 0 255
0.46874982 -0.28124988 -0.125 -0.8479981 2.70074E-33 -0.5299992 255 125 0 255
0.625 0.37499997 -0.37499997 -0.8479981 2.70074E-33 -0.5299992 255 125 0 255
0.625 -0.37499997 -0.37499997 -0.8479981 2.70074E-33 -0.5299992 255 125 0 255
0.46874982 0.28124988 -0.125 -0.8479981 2.70074E-33 -0.5299992 255 125 0 255
0.37499997 -0.625 -0.37499997 -0.5773501 0.5773501 -0.5773507 255 125 0 255
0.46874982 -0.28124988 -0.125 -0.5773501 0.5773501 -0.5773507 255 125 0 255
0.625 -0.37499997 -0.37499997 -0.5773501 0.5773501 -0.5773507 255 125 0 255
0.28124988 -0.46874982 -0.125 -0.5773501 0.5773501 -0.5773507 255 125 0 255
-0.28124988 -0.46874982 -0.125 0 0.8479981 -0.5299992 255 125 0 255
0.37499997 -0.625 -0.37499997 0 0.8479981 -0.5299992 255 125 0 255
-0.37499997 -0.625 -0.37499997 0 0.8479981 -0.5299992 255 125 0 255
0.28124988 -0.46874982 -0.125 0 0.8479981 -0.5299992 255 125 0 255
-0.37499997 -0.625 -0.37499997 0.5773501 0.5773501 -0.5773507 255 125 0 255
-0.46874982 -0.28124988 -0.125 0.5773501 0.5773501 -0.5773507 255 125 0 255
-0.28124988 -0.46874982 -0.125 0.5773501 0.5773501 -0.5773507 255 125 0 255
-0.625 -0.37499997 -0.37499997 0.5773501 0.5773501 -0.5773507 255 125 0 255
0.26468146 -0.42874995 -0.25 0 -0 -1 30 30 30 255
0.42874995 0.26468146 -0.25 0 -0 -1 30 30 30 255
0.42874995 -0.26468146 -0.25 0 -0 -1 30 30 30 255
0.3287499 -6.771528E-13 -0.25 0 -0 -1 30 30 30 255
0.23246135 -0.23246135 -0.25 0 -0 -1 30 30 30 255
2.4544985E-13 -0.3287499 -0.25 0 -0 -1 30 30 30 255
-0.26468146 -0.42874995 -0.25 0 -0 -1 30 30 30 255
-0.23246135 -0.23246135 -0.25 0 -0 -1 30 30 30 255
-0.3287499 -2.1512959E-13 -0.25 0 -0 -1 30 30 30 255
-0.42874995 -0.26468146 -0.25 0 -0 -1 30 30 30 255
0.26468146 0.42874995 -0.25 0 -0 -1 30 30 30 255
0.23246135 0.23246135 -0.25 0 -0 -1 30 30 30 255
7.074732E-13 0.3287499 -0.25 0 -0 -1 30 30 30 255
-0.26468146 0.42874995 -0.25 0 -0 -1 30 30 30 255
-0.23246135 0.23246135 -0.25 0 -0 -1 30 30 30 255
-0.42874995 0.26468146 -0.25 0 -0 -1 30 30 30 255
-0.26468146 0.42874995 -0.125 -0.70710677 0.70710677 -1.842565E-31 84 84 84 255
-0.42874995 0.26468146 -0.25 -0.70710677 0.70710677 -1.842565E-31 84 84 84 255
-0.42874995 0.26468146 -0.125 -0.70710677 0.70710677 -1.842565E-31 84 84 84 255
-0.26468146 0.42874995 -0.25 -0.70710677 0.70710677 -1.842565E-31 84 84 84 255
-0.42874995 0.26468146 -0.125 -1 -0 -0 84 84 84 255
-0.42874995 -0.26468146 -0.25 -1 -0 -0 84 84 84 255
-0.42874995 -0.26468146 -0.125 -1 -0 -0 84 84 84 255
-0.42874995 0.26468146 -0.25 -1 -0 -0 84 84 84 255
-0.26468146 0.42874995 -0.125 0 1 -0 84 84 84 255
0.26468146 0.42874995 -0.25 0 1 -0 84 84 84 255
-0.26468146 0.42874995 -0.25 0 1 -0 84 84 84 255
0.26468146 0.42874995 -0.125 0 1 -0 84 84 84 255
-0.42874995 -0.26468146 -0.125 -0.70710677 -0.70710677 -0 84 84 84 255
-0.26468146 -0.42874995 -0.25 -0.70710677 -0.70710677 -0 84 84 84 255
-0.26468146 -0.42874995 -0.125 -0.70710677 -0.70710677 -0 84 84 84 255
-0.42874995 -0.26468146 -0.25 -0.70710677 -0.70710677 -0 84 84 84 255
0.26468146 0.42874995 -0.25 0.70710677 0.70710677 -1.842565E-31 84 84 84 255
0.42874995 0.26468146 -0.125 0.70710677 0.70710677 -1.842565E-31 84 84 84 255
0.42874995 0.26468146 -0.25 0.70710677 0.70710677 -1.842565E-31 84 84 84 255
0.26468146 0.42874995 -0.125 0.70710677 0.70710677 -1.842565E-31 84 84 84 255
0.26468146 -0.42874995 -0.125 0 -1 -0 84 84 84 255
-0.26468146 -0.42874995 -0.25 0 -1 -0 84 84 84 255
0.26468146 -0.42874995 -0.25 0 -1 -0 84 84 84 255
-0.26468146 -0.42874995 -0.125 0 -1 -0 84 84 84 255
0.42874995 0.26468146 -0.25 1 -0 -0 84 84 84 255
0.42874995 -0.26468146 -0.125 1 -0 -0 84 84 84 255
0.42874995 -0.26468146 -0.25 1 -0 -0 84 84 84 255
0.42874995 0.26468146 -0.125 1 -0 -0 84 84 84 255
0.42874995 -0.26468146 -0.25 0.70710677 -0.70710677 -0 84 84 84 255
0.26468146 -0.42874995 -0.125 0.70710677 -0.70710677 -0 84 84 84 255
0.26468146 -0.42874995 -0.25 0.70710677 -0.70710677 -0 84 84 84 255
0.42874995 -0.26468146 -0.125 0.70710677 -0.70710677 -0 84 84 84 255
7.710014E-13 0.3287499 -0.125 0.3826831 -0.9238797 -9.722877E-14 30 30 30 255
-0.23246135 0.23246135 -0.25 0.3826831 -0.9238797 -9.722877E-14 30 30 30 255
7.074732E-13 0.3287499 -0.25 0.3826831 -0.9238797 -9.722877E-14 30 30 30 255
-0.23246135 0.23246135 -0.125 0.3826831 -0.9238797 -9.722877E-14 30 30 30 255
0.23246135 0.23246135 -0.125 -0.3826831 -0.9238797 9.722877E-14 30 30 30 255
7.074732E-13 0.3287499 -0.25 -0.3826831 -0.9238797 9.722877E-14 30 30 30 255
0.23246135 0.23246135 -0.25 -0.3826831 -0.9238797 9.722877E-14 30 30 30 255
7.710014E-13 0.3287499 -0.125 -0.3826831 -0.9238797 9.722877E-14 30 30 30 255
1.0283368E-12 0.5312499 0.175 0.3247163 -0.7839345 0.5291559 30 30 30 255
-0.23246135 0.23246135 -0.125 0.3247163 -0.7839345 0.5291559 30 30 30 255
7.710014E-13 0.3287499 -0.125 0.3247163 -0.7839345 0.5291559 30 30 30 255
-0.37565047 0.37565047 0.175 0.3247163 -0.7839345 0.5291559 30 30 30 255
-0.23246135 0.23246135 -0.25 0.9238797 -0.3826831 2.1893311E-15 30 30 30 255
-0.3287499 -2.1368574E-13 -0.125 0.9238797 -0.3826831 2.1893311E-15 30 30 30 255
-0.3287499 -2.1512959E-13 -0.25 0.9238797 -0.3826831 2.1893311E-15 30 30 30 255
-0.23246135 0.23246135 -0.125 0.9238797 -0.3826831 2.1893311E-15 30 30 30 255
0.3287499 -6.757091E-13 -0.125 -0.9238797 -0.3826831 2.2174001E-15 30 30 30 255
0.23246135 0.23246135 -0.25 -0.9238797 -0.3826831 2.2174001E-15 30 30 30 255
0.3287499 -6.771528E-13 -0.25 -0.9238797 -0.3826831 2.2174001E-15 30 30 30 255
0.23246135 0.23246135 -0.125 -0.9238797 -0.3826831 2.2174001E-15 30 30 30 255
0.37565047 0.37565047 0.175 -0.3247163 -0.7839345 0.5291559 30 30 30 255
7.710014E-13 0.3287499 -0.125 -0.3247163 -0.7839345 0.5291559 30 30 30 255
0.23246135 0.23246135 -0.125 -0.3247163 -0.7839345 0.5291559 30 30 30 255
1.0283368E-12 0.5312499 0.175 -0.3247163 -0.7839345 0.5291559 30 30 30 255
1.0283368E-12 0.5312499 0.37499997 0.3826835 -0.9238795 -0 30 30 30 255
-0.37565047 0.37565047 0.175 0.3826835 -0.9238795 -0 30 30 30 255
1.0283368E-12 0.5312499 0.175 0.3826835 -0.9238795 -0 30 30 30 255
-0.37565047 0.37565047 0.37499997 0.3826835 -0.9238795 -0 30 30 30 255
-0.23246135 0.23246135 -0.125 0.7839345 -0.3247163 0.5291559 30 30 30 255
-0.5312501 4.908997E-15 0.175 0.7839345 -0.3247163 0.5291559 30 30 30 255
-0.3287499 -2.1368574E-13 -0.125 0.7839345 -0.3247163 0.5291559 30 30 30 255
-0.37565047 0.37565047 0.175 0.7839345 -0.3247163 0.5291559 30 30 30 255
-0.3287499 -2.1512959E-13 -0.25 0.9238797 0.3826831 -2.1893311E-15 30 30 30 255
-0.23246135 -0.23246135 -0.125 0.9238797 0.3826831 -2.1893311E-15 30 30 30 255
-0.23246135 -0.23246135 -0.25 0.9238797 0.3826831 -2.1893311E-15 30 30 30 255
-0.3287499 -2.1368574E-13 -0.125 0.9238797 0.3826831 -2.1893311E-15 30 30 30 255
0.3287499 -6.757091E-13 -0.125 -0.9238797 0.3826831 -2.2174001E-15 30 30 30 255
0.23246135 -0.23246135 -0.25 -0.9238797 0.3826831 -2.2174001E-15 30 30 30 255
0.23246135 -0.23246135 -0.125 -0.9238797 0.3826831 -2.2174001E-15 30 30 30 255
0.3287499 -6.771528E-13 -0.25 -0.9238797 0.3826831 -2.2174001E-15 30 30 30 255
0.37565047 0.37565047 0.175 -0.7839345 -0.3247163 0.5291559 30 30 30 255
0.3287499 -6.757091E-13 -0.125 -0.7839345 -0.3247163 0.5291559 30 30 30 255
0.5312499 -7.338951E-13 0.175 -0.7839345 -0.3247163 0.5291559 30 30 30 255
0.23246135 0.23246135 -0.125 -0.7839345 -0.3247163 0.5291559 30 30 30 255
0.37565047 0.37565047 0.37499997 -0.3826835 -0.9238795 -0 30 30 30 255
1.0283368E-12 0.5312499 0.175 -0.3826835 -0.9238795 -0 30 30 30 255
0.37565047 0.37565047 0.175 -0.3826835 -0.9238795 -0 30 30 30 255
1.0283368E-12 0.5312499 0.37499997 -0.3826835 -0.9238795 -0 30 30 30 255
0.37565047 -0.37565047 0.37499997 0 -0 -1 30 30 30 255
0.49444857 -7.0812274E-13 0.37499997 0 -0 -1 30 30 30 255
0.5312499 -7.338951E-13 0.37499997 0 -0 -1 30 30 30 255
0.3496279 -0.3496279 0.37499997 0 -0 -1 30 30 30 255
2.8216906E-13 -0.5312499 0.37499997 0 -0 -1 30 30 30 255
3.0916852E-13 -0.49444857 0.37499997 0 -0 -1 30 30 30 255
-0.3496279 -0.3496279 0.37499997 0 -0 -1 30 30 30 255
-0.37565047 -0.37565047 0.37499997 0 -0 -1 30 30 30 255
-0.49444857 -2.3317736E-14 0.37499997 0 -0 -1 30 30 30 255
-0.5312501 4.908997E-15 0.37499997 0 -0 -1 30 30 30 255
0.37565047 0.37565047 0.37499997 0 -0 -1 30 30 30 255
0.3496279 0.3496279 0.37499997 0 -0 -1 30 30 30 255
1.0283368E-12 0.5312499 0.37499997 0 -0 -1 30 30 30 255
1.0037917E-12 0.49444857 0.37499997 0 -0 -1 30 30 30 255
-0.37565047 0.37565047 0.37499997 0 -0 -1 30 30 30 255
-0.3496279 0.3496279 0.37499997 0 -0 -1 30 30 30 255
-0.37565047 0.37565047 0.175 0.9238795 -0.3826835 -0 30 30 30 255
-0.5312501 4.908997E-15 0.37499997 0.9238795 -0.3826835 -0 30 30 30 255
-0.5312501 4.908997E-15 0.175 0.9238795 -0.3826835 -0 30 30 30 255
-0.37565047 0.37565047 0.37499997 0.9238795 -0.3826835 -0 30 30 30 255
-0.23246135 -0.23246135 -0.125 0.7839345 0.3247163 0.5291559 30 30 30 255
-0.5312501 4.908997E-15 0.175 0.7839345 0.3247163 0.5291559 30 30 30 255
-0.37565047 -0.37565047 0.175 0.7839345 0.3247163 0.5291559 30 30 30 255
-0.3287499 -2.1368574E-13 -0.125 0.7839345 0.3247163 0.5291559 30 30 30 255
-0.23246135 -0.23246135 -0.125 0.3826831 0.9238797 -9.722877E-14 30 30 30 255
2.4544985E-13 -0.3287499 -0.25 0.3826831 0.9238797 -9.722877E-14 30 30 30 255
-0.23246135 -0.23246135 -0.25 0.3826831 0.9238797 -9.722877E-14 30 30 30 255
3.0897802E-13 -0.3287499 -0.125 0.3826831 0.9238797 -9.722877E-14 30 30 30 255
3.0897802E-13 -0.3287499 -0.125 -0.3826831 0.9238797 9.725684E-14 30 30 30 255
0.23246135 -0.23246135 -0.25 -0.3826831 0.9238797 9.725684E-14 30 30 30 255
2.4544985E-13 -0.3287499 -0.25 -0.3826831 0.9238797 9.725684E-14 30 30 30 255
0.23246135 -0.23246135 -0.125 -0.3826831 0.9238797 9.725684E-14 30 30 30 255
0.5312499 -7.338951E-13 0.175 -0.7839345 0.3247163 0.5291559 30 30 30 255
0.23246135 -0.23246135 -0.125 -0.7839345 0.3247163 0.5291559 30 30 30 255
0.37565047 -0.37565047 0.175 -0.7839345 0.3247163 0.5291559 30 30 30 255
0.3287499 -6.757091E-13 -0.125 -0.7839345 0.3247163 0.5291559 30 30 30 255
0.37565047 0.37565047 0.37499997 -0.9238795 -0.3826835 -0 30 30 30 255
0.5312499 -7.338951E-13 0.175 -0.9238795 -0.3826835 -0 30 30 30 255
0.5312499 -7.338951E-13 0.37499997 -0.9238795 -0.3826835 -0 30 30 30 255
0.37565047 0.37565047 0.175 -0.9238795 -0.3826835 -0 30 30 30 255
0.5312499 -7.338951E-13 0.37499997 -0.9238795 0.3826835 -0 30 30 30 255
0.37565047 -0.37565047 0.175 -0.9238795 0.3826835 -0 30 30 30 255
0.37565047 -0.37565047 0.37499997 -0.9238795 0.3826835 -0 30 30 30 255
0.5312499 -7.338951E-13 0.175 -0.9238795 0.3826835 -0 30 30 30 255
2.8216906E-13 -0.5312499 0.37499997 -0.3826835 0.9238795 -0 30 30 30 255
0.37565047 -0.37565047 0.175 -0.3826835 0.9238795 -0 30 30 30 255
2.8216906E-13 -0.5312499 0.175 -0.3826835 0.9238795 -0 30 30 30 255
0.37565047 -0.37565047 0.37499997 -0.3826835 0.9238795 -0 30 30 30 255
-0.37565047 -0.37565047 0.37499997 0.3826835 0.9238795 -0 30 30 30 255
2.8216906E-13 -0.5312499 0.175 0.3826835 0.9238795 -0 30 30 30 255
-0.37565047 -0.37565047 0.175 0.3826835 0.9238795 -0 30 30 30 255
2.8216906E-13 -0.5312499 0.37499997 0.3826835 0.9238795 -0 30 30 30 255
-0.5312501 4.908997E-15 0.175 0.9238795 0.3826835 -0 30 30 30 255
-0.37565047 -0.37565047 0.37499997 0.9238795 0.3826835 -0 30 30 30 255
-0.37565047 -0.37565047 0.175 0.9238795 0.3826835 -0 30 30 30 255
-0.5312501 4.908997E-15 0.37499997 0.9238795 0.3826835 -0 30 30 30 255
-0.37565047 -0.37565047 0.175 0.3247163 0.7839345 0.5291559 30 30 30 255
3.0897802E-13 -0.3287499 -0.125 0.3247163 0.7839345 0.5291559 30 30 30 255
-0.23246135 -0.23246135 -0.125 0.3247163 0.7839345 0.5291559 30 30 30 255
2.8216906E-13 -0.5312499 0.175 0.3247163 0.7839345 0.5291559 30 30 30 255
2.8216906E-13 -0.5312499 0.175 -0.3247163 0.7839345 0.5291559 30 30 30 255
0.23246135 -0.23246135 -0.125 -0.3247163 0.7839345 0.5291559 30 30 30 255
3.0897802E-13 -0.3287499 -0.125 -0.3247163 0.7839345 0.5291559 30 30 30 255
0.37565047 -0.37565047 0.175 -0.3247163 0.7839345 0.5291559 30 30 30 255
3 0 1 2
3 1 0 3
3 4 5 6
3 5 4 7
3 8 9 10
3 9 8 11
3 12 13 14
3 13 12 15
3 16 17 18
3 17 16 19
3 17 19 20
3 20 19 21
3 21 19 22
3 21 22 23
3 24 25 26
3 25 24 27
3 28 29 30
3 29 28 31
3 32 33 34
3 33 32 35
3 36 37 38
3 37 36 39
3 40 41 42
3 41 40 43
3 44 45 46
3 45 44 47
3 48 49 50
3 49 48 51
3 52 53 54
3 53 52 55
3 56 57 58
3 57 56 59
3 60 61 62
3 61 60 63
3 64 65 66
3 65 64 67
3 68 69 70
3 69 68 71
3 72 73 74
3 73 72 75
3 76 77 78
3 77 76 79
3 80 81 82
3 81 80 83
3 84 85 86
3 85 84 87
3 88 89 90
3 89 88 91
3 92 93 94
3 93 92 95
3 96 97 98
3 97 96 99
3 100 101 102
3 101 100 103
3 104 105 106
3 105 104 107
3 105 107 108
3 108 107 109
3 108 109 110
3 110 109 111
3 111 109 112
3 111 112 113
3 106 114 115
3 114 106 105
3 115 114 116
3 115 116 117
3 117 116 118
3 117 118 113
3 117 113 119
3 119 113 112
3 120 121 122
3 121 120 123
3 123 120 124
3 123 124 125
3 125 124 126
3 125 126 127
3 128 129 130
3 129 128 131
3 129 131 132
3 132 131 133
3 132 133 134
3 134 133 135
3 135 133 136
3 135 136 137
3 130 138 139
3 138 130 129
3 139 138 140
3 139 140 141
3 141 140 142
3 141 142 137
3 141 137 143
3 143 137 136
3 144 145 146
3 145 144 147
3 148 149 150
3 149 148 151
3 152 153 154
3 153 152 155
3 156 157 158
3 157 156 159
3 160 161 162
3 161 160 163
3 164 165 166
3 165 164 167
3 168 169 170
3 169 168 171
3 172 173 174
3 173 172 175
3 176 177 178
3 177 176 179
3 179 176 180
3 180 176 181
3 181 176 182
3 181 182 183
3 183 182 184
3 184 182 185
3 179 186 177
3 186 179 187
3 186 187 188
3 186 188 189
3 189 188 190
3 189 190 184
3 189 184 191
3 191 184 185
3 192 193 194
3 193 192 195
3 196 197 198
3 197 196 199
3 200 201 202
3 201 200 203
3 204 205 206
3 205 204 207
3 208 209 210
3 209 208 211
3 212 213 214
3 213 212 215
3 216 217 218
3 217 216 219
3 220 221 222
3 221 220 223
3 224 225 226
3 225 224 227
3 228 229 230
3 229 228 231
3 232 233 234
3 233 232 235
3 236 237 238
3 237 236 239
3 240 241 242
3 241 240 243
3 244 245 246
3 245 244 247
3 248 249 250
3 249 248 251
3 252 253 254
3 253 252 255
3 256 257 258
3 257 256 259
3 260 261 262
3 261 260 263
3 264 265 266
3 265 264 267
3 268 269 270
3 269 268 271
3 272 273 274
3 273 272 275
3 275 272 276
3 275 276 277
3 277 276 278
3 278 276 279
3 278 279 280
3 280 279 281
3 273 282 274
3 282 273 283
3 282 283 284
3 284 283 285
3 284 285 286
3 286 285 287
3 286 287 280
3 286 280 281
3 288 289 290
3 289 288 291
3 292 293 294
3 293 292 295
3 296 297 298
3 297 296 299
3 300 301 302
3 301 300 303
3 304 305 306
3 305 304 307
3 308 309 310
3 309 308 311
3 312 313 314
3 313 312 315
3 316 317 318
3 317 316 319
3 320 321 322
3 321 320 323
3 324 325 326
3 325 324 327
3 328 329 330
3 329 328 331
3 332 333 334
3 333 332 335

