ply
format ascii 1.0
commentY29udmVydGVyIGJ5IENvZGVMZW9wYXJk
comment Original mesh name: 'C:\Program Files (x86)\Steam\steamapps\common\Stormworks\rom\meshes\component_railing_segment_end.mesh'
comment SubMesh index: 0
comment SubMesh name: 'ID3'
comment Shader: Opaque (0)
element vertex 260
property float x
property float y
property float z
property float nx
property float ny
property float nz
property uchar red
property uchar green
property uchar blue
property uchar alpha
element face 164
property list uchar ushort vertex_index
end_header
-0.12499997 0 0.79999995 6.3922046E-14 0.70710677 0.70710677 255 125 0 255
-0.04514042 -0.030000007 0.8300001 6.3922046E-14 0.70710677 0.70710677 255 125 0 255
-0.04514042 0 0.79999995 6.3922046E-14 0.70710677 0.70710677 255 125 0 255
-0.12499997 -0.030000007 0.8300001 6.3922046E-14 0.70710677 0.70710677 255 125 0 255
-0.12499997 -0.030000007 0.8300001 -6.3922046E-14 -0.70710677 -0.70710677 255 125 0 255
-0.12499997 0 0.79999995 -6.3922046E-14 -0.70710677 -0.70710677 255 125 0 255
-0.04514042 -0.030000007 0.8300001 -6.3922046E-14 -0.70710677 -0.70710677 255 125 0 255
-0.04514042 0 0.79999995 -6.3922046E-14 -0.70710677 -0.70710677 255 125 0 255
-0.12499997 -0.030000007 0.8300001 -6.3922046E-14 0.70710677 -0.70710677 255 125 0 255
-0.04514042 0 0.86 -6.3922046E-14 0.70710677 -0.70710677 255 125 0 255
-0.04514042 -0.030000007 0.8300001 -6.3922046E-14 0.70710677 -0.70710677 255 125 0 255
-0.12499997 0 0.86 -6.3922046E-14 0.70710677 -0.70710677 255 125 0 255
-0.12499997 0 0.86 6.3922046E-14 -0.70710677 0.70710677 255 125 0 255
-0.12499997 -0.030000007 0.8300001 6.3922046E-14 -0.70710677 0.70710677 255 125 0 255
-0.04514042 0 0.86 6.3922046E-14 -0.70710677 0.70710677 255 125 0 255
-0.04514042 -0.030000007 0.8300001 6.3922046E-14 -0.70710677 0.70710677 255 125 0 255
-0.04514042 0.029999986 0.8300001 6.3922046E-14 -0.70710677 0.70710677 255 125 0 255
-0.12499997 0 0.79999995 6.3922046E-14 -0.70710677 0.70710677 255 125 0 255
-0.04514042 0 0.79999995 6.3922046E-14 -0.70710677 0.70710677 255 125 0 255
-0.12499997 0.029999986 0.8300001 6.3922046E-14 -0.70710677 0.70710677 255 125 0 255
-0.12499997 0.029999986 0.8300001 -6.3922046E-14 0.70710677 -0.70710677 255 125 0 255
-0.04514042 0.029999986 0.8300001 -6.3922046E-14 0.70710677 -0.70710677 255 125 0 255
-0.12499997 0 0.79999995 -6.3922046E-14 0.70710677 -0.70710677 255 125 0 255
-0.04514042 0 0.79999995 -6.3922046E-14 0.70710677 -0.70710677 255 125 0 255
-0.04514042 0 0.86 -6.392998E-14 -0.70710677 -0.70710677 255 125 0 255
-0.12499997 0.029999986 0.8300001 -6.392998E-14 -0.70710677 -0.70710677 255 125 0 255
-0.04514042 0.029999986 0.8300001 -6.392998E-14 -0.70710677 -0.70710677 255 125 0 255
-0.12499997 0 0.86 -6.392998E-14 -0.70710677 -0.70710677 255 125 0 255
-0.12499997 0 0.86 6.392998E-14 0.70710677 0.70710677 255 125 0 255
-0.04514042 0 0.86 6.392998E-14 0.70710677 0.70710677 255 125 0 255
-0.12499997 0.029999986 0.8300001 6.392998E-14 0.70710677 0.70710677 255 125 0 255
-0.04514042 0.029999986 0.8300001 6.392998E-14 0.70710677 0.70710677 255 125 0 255
-0.12499997 0 0.19449998 3.7436845E-13 0.70710677 0.70710677 255 125 0 255
-0.063780025 -0.022500008 0.21700007 3.7436845E-13 0.70710677 0.70710677 255 125 0 255
-0.041280016 0 0.19449998 3.7436845E-13 0.70710677 0.70710677 255 125 0 255
-0.12499997 -0.022500008 0.21700007 3.7436845E-13 0.70710677 0.70710677 255 125 0 255
-0.12499997 -0.022500008 0.21700007 -3.7437444E-13 0.70710677 -0.70710677 255 125 0 255
-0.041280016 0 0.2394999 -3.7437444E-13 0.70710677 -0.70710677 255 125 0 255
-0.063780025 -0.022500008 0.21700007 -3.7437444E-13 0.70710677 -0.70710677 255 125 0 255
-0.12499997 0 0.2394999 -3.7437444E-13 0.70710677 -0.70710677 255 125 0 255
-0.063780025 0.044999983 0.21700007 0.70710677 1.6381008E-28 0.70710677 255 125 0 255
-0.00014040852 0.029859556 0.15336038 0.70710677 1.6381008E-28 0.70710677 255 125 0 255
-0.00014040852 0.044999983 0.15336038 0.70710677 1.6381008E-28 0.70710677 255 125 0 255
-0.02999999 0.029859556 0.18321984 0.70710677 1.6381008E-28 0.70710677 255 125 0 255
-0.041280016 0 0.19449998 0.70710677 1.6381008E-28 0.70710677 255 125 0 255
-0.02999999 -0.029859576 0.18321984 0.70710677 1.6381008E-28 0.70710677 255 125 0 255
-0.063780025 0.022499982 0.21700007 0.70710677 1.6381008E-28 0.70710677 255 125 0 255
-0.00014040852 -0.04500001 0.15336038 0.70710677 1.6381008E-28 0.70710677 255 125 0 255
-0.00014040852 -0.029859576 0.15336038 0.70710677 1.6381008E-28 0.70710677 255 125 0 255
-0.063780025 -0.04500001 0.21700007 0.70710677 1.6381008E-28 0.70710677 255 125 0 255
-0.063780025 -0.022500008 0.21700007 0.70710677 1.6381008E-28 0.70710677 255 125 0 255
-0.063780025 0.022499982 0.21700007 3.7437444E-13 -0.70710677 0.70710677 255 125 0 255
-0.12499997 0 0.19449998 3.7437444E-13 -0.70710677 0.70710677 255 125 0 255
-0.041280016 0 0.19449998 3.7437444E-13 -0.70710677 0.70710677 255 125 0 255
-0.12499997 0.022499982 0.21700007 3.7437444E-13 -0.70710677 0.70710677 255 125 0 255
-0.12499997 0 0.19449998 1 -0 1.925097E-12 255 125 0 255
-0.12499997 0 0.2394999 1 -0 1.925097E-12 255 125 0 255
-0.12499997 -0.022500008 0.21700007 1 -0 1.925097E-12 255 125 0 255
-0.12499997 0.022499982 0.21700007 1 -0 1.925097E-12 255 125 0 255
-0.041280016 0 0.2394999 -3.7438043E-13 -0.70710677 -0.70710677 255 125 0 255
-0.12499997 0.022499982 0.21700007 -3.7438043E-13 -0.70710677 -0.70710677 255 125 0 255
-0.063780025 0.022499982 0.21700007 -3.7438043E-13 -0.70710677 -0.70710677 255 125 0 255
-0.12499997 0 0.2394999 -3.7438043E-13 -0.70710677 -0.70710677 255 125 0 255
-0.063780025 -0.022500008 0.21700007 0.70710677 -1.5036199E-28 -0.70710677 255 125 0 255
-0.00014040852 -0.04500001 0.2806395 0.70710677 -1.5036199E-28 -0.70710677 255 125 0 255
-0.063780025 -0.04500001 0.21700007 0.70710677 -1.5036199E-28 -0.70710677 255 125 0 255
-0.02999999 -0.029859576 0.25078002 0.70710677 -1.5036199E-28 -0.70710677 255 125 0 255
-0.041280016 0 0.2394999 0.70710677 -1.5036199E-28 -0.70710677 255 125 0 255
-0.02999999 0.029859556 0.25078002 0.70710677 -1.5036199E-28 -0.70710677 255 125 0 255
-0.063780025 0.022499982 0.21700007 0.70710677 -1.5036199E-28 -0.70710677 255 125 0 255
-0.063780025 0.044999983 0.21700007 0.70710677 -1.5036199E-28 -0.70710677 255 125 0 255
-0.00014040852 0.029859556 0.2806395 0.70710677 -1.5036199E-28 -0.70710677 255 125 0 255
-0.00014040852 0.044999983 0.2806395 0.70710677 -1.5036199E-28 -0.70710677 255 125 0 255
-0.00014040852 -0.029859576 0.2806395 0.70710677 -1.5036199E-28 -0.70710677 255 125 0 255
0.06349918 -0.04500001 0.21700007 -0.70710677 -6.8788366E-14 0.70710677 255 125 0 255
0.029719144 -0.029859576 0.18321984 -0.70710677 -6.8788366E-14 0.70710677 255 125 0 255
-0.00014040852 -0.04500001 0.15336038 -0.70710677 -6.8788366E-14 0.70710677 255 125 0 255
0.06349918 0.044999983 0.21700007 -0.70710677 -6.8788366E-14 0.70710677 255 125 0 255
0.029719144 0.029859556 0.18321984 -0.70710677 -6.8788366E-14 0.70710677 255 125 0 255
-0.00014040852 0.029859556 0.15336038 -0.70710677 -6.8788366E-14 0.70710677 255 125 0 255
-0.00014040852 0.044999983 0.15336038 -0.70710677 -6.8788366E-14 0.70710677 255 125 0 255
-0.00014040852 -0.029859576 0.15336038 -0.70710677 -6.8788366E-14 0.70710677 255 125 0 255
0.06349918 0.044999983 0.21700007 0 -1 -0 255 125 0 255
-0.063780025 0.044999983 0.21700007 0 -1 -0 255 125 0 255
-0.00014040852 0.044999983 0.15336038 0 -1 -0 255 125 0 255
-0.00014040852 0.044999983 0.2806395 0 -1 -0 255 125 0 255
-0.063780025 -0.04500001 0.21700007 0 1 -0 255 125 0 255
0.06349918 -0.04500001 0.21700007 0 1 -0 255 125 0 255
-0.00014040852 -0.04500001 0.15336038 0 1 -0 255 125 0 255
-0.00014040852 -0.04500001 0.2806395 0 1 -0 255 125 0 255
-0.02999999 -0.029859576 0.18321984 0 1 -0 255 125 0 255
-0.00014040852 -0.029859576 0.15336038 0 1 -0 255 125 0 255
-0.02999999 -0.029859576 -0.125 0 1 -0 255 125 0 255
0.029719144 -0.029859576 0.18321984 0 1 -0 255 125 0 255
0.029719144 -0.029859576 -0.125 0 1 -0 255 125 0 255
-0.02999999 0.029859556 -0.125 1 -0 -4.684391E-15 255 125 0 255
-0.02999999 -0.029859576 0.18321984 1 -0 -4.684391E-15 255 125 0 255
-0.02999999 -0.029859576 -0.125 1 -0 -4.684391E-15 255 125 0 255
-0.02999999 0.029859556 0.18321984 1 -0 -4.684391E-15 255 125 0 255
0.029719144 0.029859556 0.18321984 0 -1 -0 255 125 0 255
-0.02999999 0.029859556 -0.125 0 -1 -0 255 125 0 255
0.029719144 0.029859556 -0.125 0 -1 -0 255 125 0 255
-0.00014040852 0.029859556 0.15336038 0 -1 -0 255 125 0 255
-0.02999999 0.029859556 0.18321984 0 -1 -0 255 125 0 255
-0.00014040852 0.044999983 0.2806395 -0.70710677 1.5978719E-17 -0.70710677 255 125 0 255
0.029719144 0.029859556 0.25078002 -0.70710677 1.5978719E-17 -0.70710677 255 125 0 255
-0.00014040852 0.029859556 0.2806395 -0.70710677 1.5978719E-17 -0.70710677 255 125 0 255
-0.00014040852 -0.029859576 0.2806395 -0.70710677 1.5978719E-17 -0.70710677 255 125 0 255
0.06349918 -0.04500001 0.21700007 -0.70710677 1.5978719E-17 -0.70710677 255 125 0 255
-0.00014040852 -0.04500001 0.2806395 -0.70710677 1.5978719E-17 -0.70710677 255 125 0 255
0.029719144 -0.029859576 0.25078002 -0.70710677 1.5978719E-17 -0.70710677 255 125 0 255
0.06349918 0.044999983 0.21700007 -0.70710677 1.5978719E-17 -0.70710677 255 125 0 255
0.029719144 0.029859556 0.47322 8.7641225E-14 -1 -1.85626E-14 255 125 0 255
-0.00014040852 0.029859556 0.2806395 8.7641225E-14 -1 -1.85626E-14 255 125 0 255
0.029719144 0.029859556 0.25078002 8.7641225E-14 -1 -1.85626E-14 255 125 0 255
-0.00014040852 0.029859556 0.4433603 8.7641225E-14 -1 -1.85626E-14 255 125 0 255
-0.02999999 0.029859556 0.47322 8.7641225E-14 -1 -1.85626E-14 255 125 0 255
-0.02999999 0.029859556 0.25078002 8.7641225E-14 -1 -1.85626E-14 255 125 0 255
-0.02999999 0.029859556 0.25078002 1 -2.767812E-31 -6.490844E-15 255 125 0 255
-0.02999999 -0.029859576 0.47322 1 -2.767812E-31 -6.490844E-15 255 125 0 255
-0.02999999 -0.029859576 0.25078002 1 -2.767812E-31 -6.490844E-15 255 125 0 255
-0.02999999 0.029859556 0.47322 1 -2.767812E-31 -6.490844E-15 255 125 0 255
-0.02999999 -0.029859576 0.47322 0 1 -0 255 125 0 255
-0.00014040852 -0.029859576 0.2806395 0 1 -0 255 125 0 255
-0.02999999 -0.029859576 0.25078002 0 1 -0 255 125 0 255
-0.00014040852 -0.029859576 0.4433603 0 1 -0 255 125 0 255
0.029719144 -0.029859576 0.47322 0 1 -0 255 125 0 255
0.029719144 -0.029859576 0.25078002 0 1 -0 255 125 0 255
0.029719144 0.029859556 0.18321984 -1 -3.6341768E-26 1.05398797E-13 255 125 0 255
0.029719144 -0.029859576 -0.125 -1 -3.6341768E-26 1.05398797E-13 255 125 0 255
0.029719144 -0.029859576 0.18321984 -1 -3.6341768E-26 1.05398797E-13 255 125 0 255
0.029719144 0.029859556 -0.125 -1 -3.6341768E-26 1.05398797E-13 255 125 0 255
-0.02999999 0.029859556 -0.125 0 -0 1 255 125 0 255
0.029719144 -0.029859576 -0.125 0 -0 1 255 125 0 255
0.029719144 0.029859556 -0.125 0 -0 1 255 125 0 255
-0.02999999 -0.029859576 -0.125 0 -0 1 255 125 0 255
0.029719144 0.029859556 0.47322 -1 -0 1.038535E-13 255 125 0 255
0.029719144 -0.029859576 0.25078002 -1 -0 1.038535E-13 255 125 0 255
0.029719144 -0.029859576 0.47322 -1 -0 1.038535E-13 255 125 0 255
0.029719144 0.029859556 0.25078002 -1 -0 1.038535E-13 255 125 0 255
0.06349918 -0.04500001 0.50699997 -0.70710677 1.8364238E-28 0.70710677 255 125 0 255
0.029719144 -0.029859576 0.47322 -0.70710677 1.8364238E-28 0.70710677 255 125 0 255
-0.00014040852 -0.04500001 0.4433603 -0.70710677 1.8364238E-28 0.70710677 255 125 0 255
0.06349918 0.044999983 0.50699997 -0.70710677 1.8364238E-28 0.70710677 255 125 0 255
0.029719144 0.029859556 0.47322 -0.70710677 1.8364238E-28 0.70710677 255 125 0 255
-0.00014040852 0.029859556 0.4433603 -0.70710677 1.8364238E-28 0.70710677 255 125 0 255
-0.00014040852 0.044999983 0.4433603 -0.70710677 1.8364238E-28 0.70710677 255 125 0 255
-0.00014040852 -0.029859576 0.4433603 -0.70710677 1.8364238E-28 0.70710677 255 125 0 255
-0.063780025 0.044999983 0.50699997 0.70710677 -1.5257949E-28 0.70710677 255 125 0 255
-0.00014040852 0.029859556 0.4433603 0.70710677 -1.5257949E-28 0.70710677 255 125 0 255
-0.00014040852 0.044999983 0.4433603 0.70710677 -1.5257949E-28 0.70710677 255 125 0 255
-0.02999999 0.029859556 0.47322 0.70710677 -1.5257949E-28 0.70710677 255 125 0 255
-0.041280016 0 0.4844999 0.70710677 -1.5257949E-28 0.70710677 255 125 0 255
-0.02999999 -0.029859576 0.47322 0.70710677 -1.5257949E-28 0.70710677 255 125 0 255
-0.063780025 0.022499982 0.50699997 0.70710677 -1.5257949E-28 0.70710677 255 125 0 255
-0.00014040852 -0.04500001 0.4433603 0.70710677 -1.5257949E-28 0.70710677 255 125 0 255
-0.00014040852 -0.029859576 0.4433603 0.70710677 -1.5257949E-28 0.70710677 255 125 0 255
-0.063780025 -0.04500001 0.50699997 0.70710677 -1.5257949E-28 0.70710677 255 125 0 255
-0.063780025 -0.022500008 0.50699997 0.70710677 -1.5257949E-28 0.70710677 255 125 0 255
-0.063780025 -0.04500001 0.50699997 0 1 -0 255 125 0 255
0.06349918 -0.04500001 0.50699997 0 1 -0 255 125 0 255
-0.00014040852 -0.04500001 0.4433603 0 1 -0 255 125 0 255
-0.00014040852 -0.04500001 0.57063967 0 1 -0 255 125 0 255
-0.00014040852 0.044999983 0.57063967 -0.70710677 -1.5978719E-17 -0.70710677 255 125 0 255
0.029719144 0.029859556 0.5407799 -0.70710677 -1.5978719E-17 -0.70710677 255 125 0 255
-0.00014040852 0.029859556 0.57063967 -0.70710677 -1.5978719E-17 -0.70710677 255 125 0 255
-0.00014040852 -0.029859576 0.57063967 -0.70710677 -1.5978719E-17 -0.70710677 255 125 0 255
0.06349918 -0.04500001 0.50699997 -0.70710677 -1.5978719E-17 -0.70710677 255 125 0 255
-0.00014040852 -0.04500001 0.57063967 -0.70710677 -1.5978719E-17 -0.70710677 255 125 0 255
0.029719144 -0.029859576 0.5407799 -0.70710677 -1.5978719E-17 -0.70710677 255 125 0 255
0.06349918 0.044999983 0.50699997 -0.70710677 -1.5978719E-17 -0.70710677 255 125 0 255
0.06349918 0.044999983 0.50699997 0 -1 -0 255 125 0 255
-0.063780025 0.044999983 0.50699997 0 -1 -0 255 125 0 255
-0.00014040852 0.044999983 0.4433603 0 -1 -0 255 125 0 255
-0.00014040852 0.044999983 0.57063967 0 -1 -0 255 125 0 255
-0.063780025 -0.022500008 0.50699997 0.70710677 -1.3741699E-15 -0.70710677 255 125 0 255
-0.00014040852 -0.04500001 0.57063967 0.70710677 -1.3741699E-15 -0.70710677 255 125 0 255
-0.063780025 -0.04500001 0.50699997 0.70710677 -1.3741699E-15 -0.70710677 255 125 0 255
-0.02999999 -0.029859576 0.5407799 0.70710677 -1.3741699E-15 -0.70710677 255 125 0 255
-0.041280016 0 0.5295 0.70710677 -1.3741699E-15 -0.70710677 255 125 0 255
-0.02999999 0.029859556 0.5407799 0.70710677 -1.3741699E-15 -0.70710677 255 125 0 255
-0.063780025 0.022499982 0.50699997 0.70710677 -1.3741699E-15 -0.70710677 255 125 0 255
-0.063780025 0.044999983 0.50699997 0.70710677 -1.3741699E-15 -0.70710677 255 125 0 255
-0.00014040852 0.029859556 0.57063967 0.70710677 -1.3741699E-15 -0.70710677 255 125 0 255
-0.00014040852 0.044999983 0.57063967 0.70710677 -1.3741699E-15 -0.70710677 255 125 0 255
-0.00014040852 -0.029859576 0.57063967 0.70710677 -1.3741699E-15 -0.70710677 255 125 0 255
-0.063780025 0.022499982 0.50699997 3.7619856E-13 -0.70710677 0.70710677 255 125 0 255
-0.12499997 0 0.4844999 3.7619856E-13 -0.70710677 0.70710677 255 125 0 255
-0.041280016 0 0.4844999 3.7619856E-13 -0.70710677 0.70710677 255 125 0 255
-0.12499997 0.022499982 0.50699997 3.7619856E-13 -0.70710677 0.70710677 255 125 0 255
-0.12499997 0 0.4844999 3.7620455E-13 0.70710677 0.70710677 255 125 0 255
-0.063780025 -0.022500008 0.50699997 3.7620455E-13 0.70710677 0.70710677 255 125 0 255
-0.041280016 0 0.4844999 3.7620455E-13 0.70710677 0.70710677 255 125 0 255
-0.12499997 -0.022500008 0.50699997 3.7620455E-13 0.70710677 0.70710677 255 125 0 255
-0.02999999 -0.029859576 0.78499997 0 1 -0 255 125 0 255
-0.00014040852 -0.029859576 0.57063967 0 1 -0 255 125 0 255
-0.02999999 -0.029859576 0.5407799 0 1 -0 255 125 0 255
0.029719144 -0.029859576 0.78499997 0 1 -0 255 125 0 255
0.029719144 -0.029859576 0.5407799 0 1 -0 255 125 0 255
0.029719144 0.029859556 0.78499997 -1 -0 9.163564E-14 255 125 0 255
0.029719144 -0.029859576 0.5407799 -1 -0 9.163564E-14 255 125 0 255
0.029719144 -0.029859576 0.78499997 -1 -0 9.163564E-14 255 125 0 255
0.029719144 0.029859556 0.5407799 -1 -0 9.163564E-14 255 125 0 255
0.029719144 0.029859556 0.78499997 6.648645E-14 -1 1.238747E-14 255 125 0 255
-0.00014040852 0.029859556 0.57063967 6.648645E-14 -1 1.238747E-14 255 125 0 255
0.029719144 0.029859556 0.5407799 6.648645E-14 -1 1.238747E-14 255 125 0 255
-0.02999999 0.029859556 0.78499997 6.648645E-14 -1 1.238747E-14 255 125 0 255
-0.02999999 0.029859556 0.5407799 6.648645E-14 -1 1.238747E-14 255 125 0 255
-0.063780025 -0.022500008 0.50699997 -3.7619254E-13 0.70710677 -0.70710677 255 125 0 255
-0.12499997 0 0.5295 -3.7619254E-13 0.70710677 -0.70710677 255 125 0 255
-0.041280016 0 0.5295 -3.7619254E-13 0.70710677 -0.70710677 255 125 0 255
-0.12499997 -0.022500008 0.50699997 -3.7619254E-13 0.70710677 -0.70710677 255 125 0 255
-0.12499997 0 0.5295 -3.7618655E-13 -0.70710677 -0.70710677 255 125 0 255
-0.063780025 0.022499982 0.50699997 -3.7618655E-13 -0.70710677 -0.70710677 255 125 0 255
-0.041280016 0 0.5295 -3.7618655E-13 -0.70710677 -0.70710677 255 125 0 255
-0.12499997 0.022499982 0.50699997 -3.7618655E-13 -0.70710677 -0.70710677 255 125 0 255
-0.02999999 0.029859556 0.5407799 1 1.208845E-14 -8.867966E-15 255 125 0 255
-0.02999999 -0.029859576 0.78499997 1 1.208845E-14 -8.867966E-15 255 125 0 255
-0.02999999 -0.029859576 0.5407799 1 1.208845E-14 -8.867966E-15 255 125 0 255
-0.02999999 0.029859556 0.78499997 1 1.208845E-14 -8.867966E-15 255 125 0 255
-0.12499997 0 0.4844999 1 -0 1.893012E-12 255 125 0 255
-0.12499997 0 0.5295 1 -0 1.893012E-12 255 125 0 255
-0.12499997 -0.022500008 0.50699997 1 -0 1.893012E-12 255 125 0 255
-0.12499997 0.022499982 0.50699997 1 -0 1.893012E-12 255 125 0 255
0.044859577 0.044999983 0.78499997 -4.852849E-13 -0 1 255 125 0 255
0.029719144 0.029859556 0.78499997 -4.852849E-13 -0 1 255 125 0 255
0.044859577 -0.04500001 0.78499997 -4.852849E-13 -0 1 255 125 0 255
-0.04514042 0.044999983 0.78499997 -4.852849E-13 -0 1 255 125 0 255
-0.02999999 0.029859556 0.78499997 -4.852849E-13 -0 1 255 125 0 255
-0.02999999 -0.029859576 0.78499997 -4.852849E-13 -0 1 255 125 0 255
0.029719144 -0.029859576 0.78499997 -4.852849E-13 -0 1 255 125 0 255
-0.04514042 -0.04500001 0.78499997 -4.852849E-13 -0 1 255 125 0 255
0.044859577 0.044999983 0.875 -1 -0 -1.026718E-12 255 125 0 255
0.044859577 -0.04500001 0.78499997 -1 -0 -1.026718E-12 255 125 0 255
0.044859577 -0.04500001 0.875 -1 -0 -1.026718E-12 255 125 0 255
0.044859577 0.044999983 0.78499997 -1 -0 -1.026718E-12 255 125 0 255
0.044859577 0.044999983 0.78499997 0 -1 -0 255 125 0 255
-0.04514042 0.044999983 0.875 0 -1 -0 255 125 0 255
-0.04514042 0.044999983 0.78499997 0 -1 -0 255 125 0 255
0.044859577 0.044999983 0.875 0 -1 -0 255 125 0 255
-0.04514042 -0.04500001 0.78499997 1 1.313614E-30 4.812743E-14 255 125 0 255
-0.04514042 -0.030000007 0.8300001 1 1.313614E-30 4.812743E-14 255 125 0 255
-0.04514042 -0.04500001 0.875 1 1.313614E-30 4.812743E-14 255 125 0 255
-0.04514042 0 0.79999995 1 1.313614E-30 4.812743E-14 255 125 0 255
-0.04514042 0.044999983 0.78499997 1 1.313614E-30 4.812743E-14 255 125 0 255
-0.04514042 0.029999986 0.8300001 1 1.313614E-30 4.812743E-14 255 125 0 255
-0.04514042 0 0.86 1 1.313614E-30 4.812743E-14 255 125 0 255
-0.04514042 0.044999983 0.875 1 1.313614E-30 4.812743E-14 255 125 0 255
-0.04514042 -0.04500001 0.875 8.0212385E-15 1 -8.0212385E-15 255 125 0 255
0.044859577 -0.04500001 0.78499997 8.0212385E-15 1 -8.0212385E-15 255 125 0 255
-0.04514042 -0.04500001 0.78499997 8.0212385E-15 1 -8.0212385E-15 255 125 0 255
0.044859577 -0.04500001 0.875 8.0212385E-15 1 -8.0212385E-15 255 125 0 255
-0.04514042 -0.04500001 0.875 4.852849E-13 3.919618E-30 -1 255 125 0 255
0.044859577 0.044999983 0.875 4.852849E-13 3.919618E-30 -1 255 125 0 255
0.044859577 -0.04500001 0.875 4.852849E-13 3.919618E-30 -1 255 125 0 255
-0.04514042 0.044999983 0.875 4.852849E-13 3.919618E-30 -1 255 125 0 255
-0.12499997 0 0.79999995 1 -0 2.406371E-13 255 125 0 255
-0.12499997 0 0.86 1 -0 2.406371E-13 255 125 0 255
-0.12499997 -0.030000007 0.8300001 1 -0 2.406371E-13 255 125 0 255
-0.12499997 0.029999986 0.8300001 1 -0 2.406371E-13 255 125 0 255
3 0 1 2
3 1 0 3
3 4 5 6
3 7 6 5
3 8 9 10
3 9 8 11
3 12 13 14
3 15 14 13
3 16 17 18
3 17 16 19
3 20 21 22
3 23 22 21
3 24 25 26
3 25 24 27
3 28 29 30
3 31 30 29
3 32 33 34
3 33 32 35
3 36 37 38
3 37 36 39
3 40 41 42
3 41 40 43
3 43 40 44
3 43 44 45
3 44 40 46
3 45 47 48
3 47 45 49
3 49 45 44
3 49 44 50
3 51 52 53
3 52 51 54
3 55 56 57
3 56 55 58
3 59 60 61
3 60 59 62
3 63 64 65
3 64 63 66
3 66 63 67
3 66 67 68
3 68 67 69
3 68 69 70
3 68 70 71
3 71 70 72
3 73 64 66
3 74 75 76
3 75 74 77
3 75 77 78
3 78 77 79
3 79 77 80
3 81 76 75
3 82 83 84
3 83 82 85
3 86 87 88
3 87 86 89
3 90 91 92
3 92 93 94
3 93 92 91
3 95 96 97
3 96 95 98
3 99 100 101
3 100 99 102
3 103 100 102
3 104 105 106
3 107 108 109
3 108 107 110
3 108 110 111
3 111 110 105
3 111 105 104
3 112 113 114
3 113 112 115
3 113 116 117
3 116 113 115
3 118 119 120
3 119 118 121
3 122 123 124
3 123 122 125
3 123 126 127
3 126 123 125
3 128 129 130
3 129 128 131
3 132 133 134
3 133 132 135
3 136 137 138
3 137 136 139
3 140 141 142
3 141 140 143
3 141 143 144
3 144 143 145
3 145 143 146
3 147 142 141
3 148 149 150
3 149 148 151
3 151 148 152
3 151 152 153
3 152 148 154
3 153 155 156
3 155 153 157
3 157 153 152
3 157 152 158
3 159 160 161
3 160 159 162
3 163 164 165
3 166 167 168
3 167 166 169
3 167 169 170
3 170 169 164
3 170 164 163
3 171 172 173
3 172 171 174
3 175 176 177
3 176 175 178
3 178 175 179
3 178 179 180
3 180 179 181
3 180 181 182
3 180 182 183
3 183 182 184
3 185 176 178
3 186 187 188
3 187 186 189
3 190 191 192
3 191 190 193
3 194 195 196
3 195 194 197
3 197 198 195
3 199 200 201
3 200 199 202
3 203 204 205
3 204 206 207
3 206 204 203
3 208 209 210
3 209 208 211
3 212 213 214
3 213 212 215
3 216 217 218
3 217 216 219
3 220 221 222
3 221 220 223
3 224 225 226
3 225 224 227
3 225 227 228
3 228 227 229
3 226 230 231
3 230 226 225
3 231 230 229
3 231 229 227
3 232 233 234
3 233 232 235
3 236 237 238
3 237 236 239
3 240 241 242
3 241 240 243
3 243 240 244
3 243 244 245
3 242 246 247
3 246 242 241
3 247 246 245
3 247 245 244
3 248 249 250
3 249 248 251
3 252 253 254
3 253 252 255
3 256 257 258
3 257 256 259

