ply
format ascii 1.0
commentY29udmVydGVyIGJ5IENvZGVMZW9wYXJk
comment Original mesh name: 'C:\Program Files (x86)\Steam\steamapps\common\Stormworks\rom\meshes\component_aritificial_horizon_base.mesh'
comment SubMesh index: 0
comment SubMesh name: 'ID26'
comment Shader: Transparent (1)
element vertex 140
property float x
property float y
property float z
property float nx
property float ny
property float nz
property uchar red
property uchar green
property uchar blue
property uchar alpha
element face 12
property list uchar ushort vertex_index
end_header
0.038268354 -0.09238795 0.125 6.334428E-15 3.781959E-28 -1 160 160 199 128
0.09238795 0.038268343 0.125 6.334428E-15 3.781959E-28 -1 160 160 199 128
0.09238795 -0.038268354 0.125 6.334428E-15 3.781959E-28 -1 160 160 199 128
0.038268354 0.09238795 0.125 6.334428E-15 3.781959E-28 -1 160 160 199 128
-0.038268343 -0.09238795 0.125 6.334428E-15 3.781959E-28 -1 160 160 199 128
-0.038268343 0.09238795 0.125 6.334428E-15 3.781959E-28 -1 160 160 199 128
-0.09238795 -0.038268354 0.125 6.334428E-15 3.781959E-28 -1 160 160 199 128
-0.09238795 0.038268343 0.125 6.334428E-15 3.781959E-28 -1 160 160 199 128
-0.09238795 0.038268343 0.125 -6.334428E-15 -3.781959E-28 1 160 160 199 128
-0.09238795 -0.038268354 0.125 -6.334428E-15 -3.781959E-28 1 160 160 199 128
-0.038268343 0.09238795 0.125 -6.334428E-15 -3.781959E-28 1 160 160 199 128
-0.038268343 -0.09238795 0.125 -6.334428E-15 -3.781959E-28 1 160 160 199 128
0.038268354 0.09238795 0.125 -6.334428E-15 -3.781959E-28 1 160 160 199 128
0.038268354 -0.09238795 0.125 -6.334428E-15 -3.781959E-28 1 160 160 199 128
0.09238795 0.038268343 0.125 -6.334428E-15 -3.781959E-28 1 160 160 199 128
0.09238795 -0.038268354 0.125 -6.334428E-15 -3.781959E-28 1 160 160 199 128
0.10238795 -0.042410474 0.125 -5.098617E-33 -8.326673E-17 -1 86 86 86 255
0.092387944 -0.038268346 0.125 -5.098617E-33 -8.326673E-17 -1 86 86 86 255
0.10238795 0.04241048 0.125 -5.098617E-33 -8.326673E-17 -1 86 86 86 255
0.04241048 -0.10238795 0.125 -5.098617E-33 -8.326673E-17 -1 86 86 86 255
0.038268346 -0.092387944 0.125 -5.098617E-33 -8.326673E-17 -1 86 86 86 255
-0.042410474 -0.10238795 0.125 -5.098617E-33 -8.326673E-17 -1 86 86 86 255
-0.038268346 -0.092387944 0.125 -5.098617E-33 -8.326673E-17 -1 86 86 86 255
-0.092387944 -0.038268346 0.125 -5.098617E-33 -8.326673E-17 -1 86 86 86 255
-0.10238795 -0.042410474 0.125 -5.098617E-33 -8.326673E-17 -1 86 86 86 255
-0.092387944 0.038268346 0.125 -5.098617E-33 -8.326673E-17 -1 86 86 86 255
0.092387944 0.038268346 0.125 -5.098617E-33 -8.326673E-17 -1 86 86 86 255
0.04241048 0.10238795 0.125 -5.098617E-33 -8.326673E-17 -1 86 86 86 255
0.038268346 0.092387944 0.125 -5.098617E-33 -8.326673E-17 -1 86 86 86 255
-0.042410474 0.10238795 0.125 -5.098617E-33 -8.326673E-17 -1 86 86 86 255
-0.038268346 0.092387944 0.125 -5.098617E-33 -8.326673E-17 -1 86 86 86 255
-0.10238795 0.04241048 0.125 -5.098617E-33 -8.326673E-17 -1 86 86 86 255
0.125 -0.125 0.125 -5.098617E-33 -8.326673E-17 -1 255 125 0 255
0.04241048 -0.10238795 0.125 -5.098617E-33 -8.326673E-17 -1 255 125 0 255
0.10238795 -0.042410474 0.125 -5.098617E-33 -8.326673E-17 -1 255 125 0 255
-0.125 -0.125 0.125 -5.098617E-33 -8.326673E-17 -1 255 125 0 255
-0.042410474 -0.10238795 0.125 -5.098617E-33 -8.326673E-17 -1 255 125 0 255
-0.10238795 -0.042410474 0.125 -5.098617E-33 -8.326673E-17 -1 255 125 0 255
-0.10238795 0.04241048 0.125 -5.098617E-33 -8.326673E-17 -1 255 125 0 255
0.125 0.125 0.125 -5.098617E-33 -8.326673E-17 -1 255 125 0 255
0.04241048 0.10238795 0.125 -5.098617E-33 -8.326673E-17 -1 255 125 0 255
-0.125 0.125 0.125 -5.098617E-33 -8.326673E-17 -1 255 125 0 255
0.10238795 0.04241048 0.125 -5.098617E-33 -8.326673E-17 -1 255 125 0 255
-0.042410474 0.10238795 0.125 -5.098617E-33 -8.326673E-17 -1 255 125 0 255
0.045864597 -0.110726945 0.05901847 6.532153E-33 1.0667817E-16 -1 86 86 86 255
0.11072697 0.045864597 0.05901847 6.532153E-33 1.0667817E-16 -1 86 86 86 255
0.11072697 -0.045864597 0.05901847 6.532153E-33 1.0667817E-16 -1 86 86 86 255
0.045864597 0.11072697 0.05901847 6.532153E-33 1.0667817E-16 -1 86 86 86 255
-0.045864597 -0.110726945 0.05901847 6.532153E-33 1.0667817E-16 -1 86 86 86 255
-0.045864597 0.11072697 0.05901847 6.532153E-33 1.0667817E-16 -1 86 86 86 255
-0.110726945 0.045864597 0.05901847 6.532153E-33 1.0667817E-16 -1 86 86 86 255
-0.110726945 -0.045864597 0.05901847 6.532153E-33 1.0667817E-16 -1 86 86 86 255
-0.110726945 -0.045864597 0.05901847 -0.7105172 -8.025007E-14 0.7036798 86 86 86 255
-0.078529775 0.032528106 0.09152851 -0.7105172 -8.025007E-14 0.7036798 86 86 86 255
-0.110726945 0.045864597 0.05901847 -0.7105172 -8.025007E-14 0.7036798 86 86 86 255
-0.078529775 -0.032528073 0.09152851 -0.7105172 -8.025007E-14 0.7036798 86 86 86 255
-0.045864597 0.11072697 0.05901847 -0.5024115 0.5024115 0.7036798 86 86 86 255
-0.078529775 0.032528106 0.09152851 -0.5024115 0.5024115 0.7036798 86 86 86 255
-0.032528073 0.07852976 0.09152851 -0.5024115 0.5024115 0.7036798 86 86 86 255
-0.110726945 0.045864597 0.05901847 -0.5024115 0.5024115 0.7036798 86 86 86 255
0.045864597 0.11072697 0.05901847 1.3924104E-18 0.7105172 0.7036798 86 86 86 255
-0.032528073 0.07852976 0.09152851 1.3924104E-18 0.7105172 0.7036798 86 86 86 255
0.032528106 0.07852976 0.09152851 1.3924104E-18 0.7105172 0.7036798 86 86 86 255
-0.045864597 0.11072697 0.05901847 1.3924104E-18 0.7105172 0.7036798 86 86 86 255
0.045864597 0.11072697 0.05901847 0.5024115 0.5024115 0.7036798 86 86 86 255
0.07852976 0.032528106 0.09152851 0.5024115 0.5024115 0.7036798 86 86 86 255
0.11072697 0.045864597 0.05901847 0.5024115 0.5024115 0.7036798 86 86 86 255
0.032528106 0.07852976 0.09152851 0.5024115 0.5024115 0.7036798 86 86 86 255
0.07852976 0.032528106 0.09152851 0.7105172 5.126896E-14 0.7036798 86 86 86 255
0.11072697 -0.045864597 0.05901847 0.7105172 5.126896E-14 0.7036798 86 86 86 255
0.11072697 0.045864597 0.05901847 0.7105172 5.126896E-14 0.7036798 86 86 86 255
0.07852976 -0.032528073 0.09152851 0.7105172 5.126896E-14 0.7036798 86 86 86 255
0.07852976 -0.032528073 0.09152851 0.5024115 -0.5024115 0.7036798 86 86 86 255
0.045864597 -0.110726945 0.05901847 0.5024115 -0.5024115 0.7036798 86 86 86 255
0.11072697 -0.045864597 0.05901847 0.5024115 -0.5024115 0.7036798 86 86 86 255
0.032528106 -0.078529775 0.09152851 0.5024115 -0.5024115 0.7036798 86 86 86 255
-0.045864597 -0.110726945 0.05901847 1.3924104E-18 -0.7105172 0.7036798 86 86 86 255
0.032528106 -0.078529775 0.09152851 1.3924104E-18 -0.7105172 0.7036798 86 86 86 255
-0.032528073 -0.078529775 0.09152851 1.3924104E-18 -0.7105172 0.7036798 86 86 86 255
0.045864597 -0.110726945 0.05901847 1.3924104E-18 -0.7105172 0.7036798 86 86 86 255
-0.078529775 -0.032528073 0.09152851 -0.5024115 -0.5024115 0.7036798 86 86 86 255
-0.045864597 -0.110726945 0.05901847 -0.5024115 -0.5024115 0.7036798 86 86 86 255
-0.032528073 -0.078529775 0.09152851 -0.5024115 -0.5024115 0.7036798 86 86 86 255
-0.110726945 -0.045864597 0.05901847 -0.5024115 -0.5024115 0.7036798 86 86 86 255
-0.078529775 0.032528106 0.09152851 -0.92393947 -5.475529E-14 -0.38253847 86 86 86 255
-0.092387944 -0.038268346 0.125 -0.92393947 -5.475529E-14 -0.38253847 86 86 86 255
-0.092387944 0.038268346 0.125 -0.92393947 -5.475529E-14 -0.38253847 86 86 86 255
-0.078529775 -0.032528073 0.09152851 -0.92393947 -5.475529E-14 -0.38253847 86 86 86 255
-0.032528073 0.07852976 0.09152851 -0.6533239 0.6533239 -0.3825385 86 86 86 255
-0.092387944 0.038268346 0.125 -0.6533239 0.6533239 -0.3825385 86 86 86 255
-0.038268346 0.092387944 0.125 -0.6533239 0.6533239 -0.3825385 86 86 86 255
-0.078529775 0.032528106 0.09152851 -0.6533239 0.6533239 -0.3825385 86 86 86 255
0.032528106 0.07852976 0.09152851 5.9210184E-18 0.92393947 -0.38253847 86 86 86 255
-0.038268346 0.092387944 0.125 5.9210184E-18 0.92393947 -0.38253847 86 86 86 255
0.038268346 0.092387944 0.125 5.9210184E-18 0.92393947 -0.38253847 86 86 86 255
-0.032528073 0.07852976 0.09152851 5.9210184E-18 0.92393947 -0.38253847 86 86 86 255
0.092387944 0.038268346 0.125 0.6533239 0.6533239 -0.3825385 86 86 86 255
0.032528106 0.07852976 0.09152851 0.6533239 0.6533239 -0.3825385 86 86 86 255
0.038268346 0.092387944 0.125 0.6533239 0.6533239 -0.3825385 86 86 86 255
0.07852976 0.032528106 0.09152851 0.6533239 0.6533239 -0.3825385 86 86 86 255
0.092387944 -0.038268346 0.125 0.92393947 5.4538585E-14 -0.38253847 86 86 86 255
0.07852976 0.032528106 0.09152851 0.92393947 5.4538585E-14 -0.38253847 86 86 86 255
0.092387944 0.038268346 0.125 0.92393947 5.4538585E-14 -0.38253847 86 86 86 255
0.07852976 -0.032528073 0.09152851 0.92393947 5.4538585E-14 -0.38253847 86 86 86 255
0.032528106 -0.078529775 0.09152851 0.6533239 -0.6533239 -0.3825385 86 86 86 255
0.092387944 -0.038268346 0.125 0.6533239 -0.6533239 -0.3825385 86 86 86 255
0.038268346 -0.092387944 0.125 0.6533239 -0.6533239 -0.3825385 86 86 86 255
0.07852976 -0.032528073 0.09152851 0.6533239 -0.6533239 -0.3825385 86 86 86 255
-0.032528073 -0.078529775 0.09152851 4.8996813E-19 -0.92393947 -0.38253847 86 86 86 255
0.038268346 -0.092387944 0.125 4.8996813E-19 -0.92393947 -0.38253847 86 86 86 255
-0.038268346 -0.092387944 0.125 4.8996813E-19 -0.92393947 -0.38253847 86 86 86 255
0.032528106 -0.078529775 0.09152851 4.8996813E-19 -0.92393947 -0.38253847 86 86 86 255
-0.032528073 -0.078529775 0.09152851 -0.6533239 -0.6533239 -0.3825385 86 86 86 255
-0.092387944 -0.038268346 0.125 -0.6533239 -0.6533239 -0.3825385 86 86 86 255
-0.078529775 -0.032528073 0.09152851 -0.6533239 -0.6533239 -0.3825385 86 86 86 255
-0.038268346 -0.092387944 0.125 -0.6533239 -0.6533239 -0.3825385 86 86 86 255
0.010428932 0 0.12 3.1847899E-15 -6.9380797E-16 -1 255 255 255 255
0.0025000002 0.014999992 0.12 3.1847899E-15 -6.9380797E-16 -1 255 255 255 255
0.0175 0 0.12 3.1847899E-15 -6.9380797E-16 -1 255 255 255 255
-0.0025000002 0.012928928 0.12 3.1847899E-15 -6.9380797E-16 -1 255 255 255 255
-0.0025000002 0.014999992 0.12 3.1847899E-15 -6.9380797E-16 -1 255 255 255 255
-0.0025000002 0.014999992 0.12 1.33502896E-14 -0.1676713 -0.98584294 255 255 255 255
0.0025000002 0.03851846 0.116 1.33502896E-14 -0.1676713 -0.98584294 255 255 255 255
0.0025000002 0.014999992 0.12 1.33502896E-14 -0.1676713 -0.98584294 255 255 255 255
-0.0025000002 0.03851846 0.116 1.33502896E-14 -0.1676713 -0.98584294 255 255 255 255
0.0025000002 -0.014999992 0.12 3.1847899E-15 6.9380797E-16 -1 255 255 255 255
-0.0025000002 -0.012928928 0.12 3.1847899E-15 6.9380797E-16 -1 255 255 255 255
-0.0025000002 -0.014999992 0.12 3.1847899E-15 6.9380797E-16 -1 255 255 255 255
-0.0025000002 0.03851846 0.116 2.8084809E-14 -0.4536575 -0.8911761 255 255 255 255
0.0025000002 0.060127124 0.105 2.8084809E-14 -0.4536575 -0.8911761 255 255 255 255
0.0025000002 0.03851846 0.116 2.8084809E-14 -0.4536575 -0.8911761 255 255 255 255
-0.0025000002 0.060127124 0.105 2.8084809E-14 -0.4536575 -0.8911761 255 255 255 255
-0.0025000002 -0.038518466 0.116 1.33803194E-14 0.1676713 -0.98584294 255 255 255 255
0.0025000002 -0.014999992 0.12 1.33803194E-14 0.1676713 -0.98584294 255 255 255 255
0.0025000002 -0.038518466 0.116 1.33803194E-14 0.1676713 -0.98584294 255 255 255 255
-0.0025000002 -0.014999992 0.12 1.33803194E-14 0.1676713 -0.98584294 255 255 255 255
-0.0025000002 -0.060127135 0.105 2.8086259E-14 0.4536575 -0.8911761 255 255 255 255
0.0025000002 -0.038518466 0.116 2.8086259E-14 0.4536575 -0.8911761 255 255 255 255
0.0025000002 -0.060127135 0.105 2.8086259E-14 0.4536575 -0.8911761 255 255 255 255
-0.0025000002 -0.038518466 0.116 2.8086259E-14 0.4536575 -0.8911761 255 255 255 255
3 0 1 2
3 1 0 3
3 3 0 4
3 3 4 5
3 5 4 6
3 5 6 7
3 8 9 10
3 9 11 10
3 10 11 12
3 11 13 12
3 12 13 14
3 15 14 13

