ply
format ascii 1.0
commentY29udmVydGVyIGJ5IENvZGVMZW9wYXJk
comment Original mesh name: 'C:\Program Files (x86)\Steam\steamapps\common\Stormworks\rom\meshes\component_solar.mesh'
comment SubMesh index: 0
comment SubMesh name: 'ID126'
comment Shader: Opaque (0)
element vertex 240
property float x
property float y
property float z
property float nx
property float ny
property float nz
property uchar red
property uchar green
property uchar blue
property uchar alpha
element face 202
property list uchar ushort vertex_index
end_header
0.125 -0.125 0.125 0 -0 -1 86 86 86 255
0.114999995 -0.094999984 0.125 0 -0 -1 86 86 86 255
0.125 0.125 0.125 0 -0 -1 86 86 86 255
0.094999984 -0.114999995 0.125 0 -0 -1 86 86 86 255
-0.125 -0.125 0.125 0 -0 -1 86 86 86 255
0.057500012 -0.114999995 0.125 0 -0 -1 86 86 86 255
0.047500003 -0.114999995 0.125 0 -0 -1 86 86 86 255
-0.047500003 -0.114999995 0.125 0 -0 -1 86 86 86 255
-0.057500012 -0.114999995 0.125 0 -0 -1 86 86 86 255
-0.094999984 -0.114999995 0.125 0 -0 -1 86 86 86 255
-0.114999995 -0.094999984 0.125 0 -0 -1 86 86 86 255
-0.114999995 -0.091999985 0.125 0 -0 -1 86 86 86 255
-0.114999995 -0.08799999 0.125 0 -0 -1 86 86 86 255
-0.114999995 -0.061999995 0.125 0 -0 -1 86 86 86 255
-0.114999995 -0.058000006 0.125 0 -0 -1 86 86 86 255
-0.114999995 -0.032000013 0.125 0 -0 -1 86 86 86 255
-0.114999995 -0.027999995 0.125 0 -0 -1 86 86 86 255
-0.114999995 -0.0019999999 0.125 0 -0 -1 86 86 86 255
-0.114999995 0.0019999999 0.125 0 -0 -1 86 86 86 255
-0.114999995 0.027999995 0.125 0 -0 -1 86 86 86 255
-0.114999995 0.032000013 0.125 0 -0 -1 86 86 86 255
-0.114999995 0.058000006 0.125 0 -0 -1 86 86 86 255
-0.114999995 0.061999995 0.125 0 -0 -1 86 86 86 255
-0.114999995 0.08799999 0.125 0 -0 -1 86 86 86 255
-0.114999995 0.091999985 0.125 0 -0 -1 86 86 86 255
-0.114999995 0.094999984 0.125 0 -0 -1 86 86 86 255
0.094999984 0.114999995 0.125 0 -0 -1 86 86 86 255
-0.125 0.125 0.125 0 -0 -1 86 86 86 255
0.114999995 0.094999984 0.125 0 -0 -1 86 86 86 255
0.114999995 -0.091999985 0.125 0 -0 -1 86 86 86 255
0.114999995 -0.08799999 0.125 0 -0 -1 86 86 86 255
0.114999995 -0.061999995 0.125 0 -0 -1 86 86 86 255
0.114999995 -0.058000006 0.125 0 -0 -1 86 86 86 255
0.114999995 -0.032000013 0.125 0 -0 -1 86 86 86 255
0.114999995 -0.027999995 0.125 0 -0 -1 86 86 86 255
0.114999995 -0.0019999999 0.125 0 -0 -1 86 86 86 255
0.114999995 0.0019999999 0.125 0 -0 -1 86 86 86 255
0.114999995 0.027999995 0.125 0 -0 -1 86 86 86 255
0.114999995 0.032000013 0.125 0 -0 -1 86 86 86 255
0.114999995 0.058000006 0.125 0 -0 -1 86 86 86 255
0.114999995 0.061999995 0.125 0 -0 -1 86 86 86 255
0.114999995 0.08799999 0.125 0 -0 -1 86 86 86 255
0.114999995 0.091999985 0.125 0 -0 -1 86 86 86 255
0.057500012 0.114999995 0.125 0 -0 -1 86 86 86 255
0.047500003 0.114999995 0.125 0 -0 -1 86 86 86 255
-0.047500003 0.114999995 0.125 0 -0 -1 86 86 86 255
-0.057500012 0.114999995 0.125 0 -0 -1 86 86 86 255
-0.094999984 0.114999995 0.125 0 -0 -1 86 86 86 255
-0.047500003 -0.114999995 0.125 0 -0 -1 19 19 102 255
0.047500003 -0.091999985 0.125 0 -0 -1 19 19 102 255
0.047500003 -0.114999995 0.125 0 -0 -1 19 19 102 255
-0.047500003 -0.091999985 0.125 0 -0 -1 19 19 102 255
0.057500012 0.0019999999 0.125 0 -0 -1 19 19 102 255
0.114999995 0.027999995 0.125 0 -0 -1 19 19 102 255
0.114999995 0.0019999999 0.125 0 -0 -1 19 19 102 255
0.057500012 0.027999995 0.125 0 -0 -1 19 19 102 255
-0.094999984 -0.114999995 0.125 0 -0 -1 19 19 102 255
-0.057500012 -0.091999985 0.125 0 -0 -1 19 19 102 255
-0.057500012 -0.114999995 0.125 0 -0 -1 19 19 102 255
-0.114999995 -0.091999985 0.125 0 -0 -1 19 19 102 255
-0.114999995 -0.094999984 0.125 0 -0 -1 19 19 102 255
0.057500012 -0.08799999 0.125 0 -0 -1 19 19 102 255
0.114999995 -0.061999995 0.125 0 -0 -1 19 19 102 255
0.114999995 -0.08799999 0.125 0 -0 -1 19 19 102 255
0.057500012 -0.061999995 0.125 0 -0 -1 19 19 102 255
-0.047500003 -0.08799999 0.125 0 -0 -1 19 19 102 255
0.047500003 -0.061999995 0.125 0 -0 -1 19 19 102 255
0.047500003 -0.08799999 0.125 0 -0 -1 19 19 102 255
-0.047500003 -0.061999995 0.125 0 -0 -1 19 19 102 255
0.057500012 -0.058000006 0.125 0 -0 -1 19 19 102 255
0.114999995 -0.032000013 0.125 0 -0 -1 19 19 102 255
0.114999995 -0.058000006 0.125 0 -0 -1 19 19 102 255
0.057500012 -0.032000013 0.125 0 -0 -1 19 19 102 255
-0.047500003 -0.058000006 0.125 0 -0 -1 19 19 102 255
0.047500003 -0.032000013 0.125 0 -0 -1 19 19 102 255
0.047500003 -0.058000006 0.125 0 -0 -1 19 19 102 255
-0.047500003 -0.032000013 0.125 0 -0 -1 19 19 102 255
-0.114999995 -0.08799999 0.125 0 -0 -1 19 19 102 255
-0.057500012 -0.061999995 0.125 0 -0 -1 19 19 102 255
-0.057500012 -0.08799999 0.125 0 -0 -1 19 19 102 255
-0.114999995 -0.061999995 0.125 0 -0 -1 19 19 102 255
0.057500012 -0.032000013 0.125 0 -0 -1 86 86 86 255
0.114999995 -0.027999995 0.125 0 -0 -1 86 86 86 255
0.114999995 -0.032000013 0.125 0 -0 -1 86 86 86 255
0.057500012 -0.027999995 0.125 0 -0 -1 86 86 86 255
0.047500003 -0.114999995 0.125 0 -0 -1 86 86 86 255
0.057500012 -0.091999985 0.125 0 -0 -1 86 86 86 255
0.057500012 -0.114999995 0.125 0 -0 -1 86 86 86 255
0.057500012 -0.08799999 0.125 0 -0 -1 86 86 86 255
0.057500012 -0.061999995 0.125 0 -0 -1 86 86 86 255
0.057500012 -0.058000006 0.125 0 -0 -1 86 86 86 255
0.057500012 -0.0019999999 0.125 0 -0 -1 86 86 86 255
0.057500012 0.0019999999 0.125 0 -0 -1 86 86 86 255
0.057500012 0.027999995 0.125 0 -0 -1 86 86 86 255
0.057500012 0.032000013 0.125 0 -0 -1 86 86 86 255
0.057500012 0.058000006 0.125 0 -0 -1 86 86 86 255
0.057500012 0.061999995 0.125 0 -0 -1 86 86 86 255
0.057500012 0.08799999 0.125 0 -0 -1 86 86 86 255
0.057500012 0.091999985 0.125 0 -0 -1 86 86 86 255
0.057500012 0.114999995 0.125 0 -0 -1 86 86 86 255
0.047500003 0.114999995 0.125 0 -0 -1 86 86 86 255
0.047500003 -0.091999985 0.125 0 -0 -1 86 86 86 255
0.047500003 -0.08799999 0.125 0 -0 -1 86 86 86 255
0.047500003 -0.061999995 0.125 0 -0 -1 86 86 86 255
0.047500003 -0.058000006 0.125 0 -0 -1 86 86 86 255
0.047500003 -0.032000013 0.125 0 -0 -1 86 86 86 255
0.047500003 -0.027999995 0.125 0 -0 -1 86 86 86 255
0.047500003 -0.0019999999 0.125 0 -0 -1 86 86 86 255
0.047500003 0.0019999999 0.125 0 -0 -1 86 86 86 255
0.047500003 0.027999995 0.125 0 -0 -1 86 86 86 255
0.047500003 0.032000013 0.125 0 -0 -1 86 86 86 255
0.047500003 0.058000006 0.125 0 -0 -1 86 86 86 255
0.047500003 0.061999995 0.125 0 -0 -1 86 86 86 255
0.047500003 0.08799999 0.125 0 -0 -1 86 86 86 255
0.047500003 0.091999985 0.125 0 -0 -1 86 86 86 255
-0.047500003 -0.0019999999 0.125 0 -0 -1 86 86 86 255
-0.047500003 0.0019999999 0.125 0 -0 -1 86 86 86 255
-0.047500003 0.027999995 0.125 0 -0 -1 86 86 86 255
-0.047500003 0.032000013 0.125 0 -0 -1 86 86 86 255
-0.047500003 0.058000006 0.125 0 -0 -1 86 86 86 255
-0.047500003 0.061999995 0.125 0 -0 -1 86 86 86 255
-0.047500003 0.08799999 0.125 0 -0 -1 86 86 86 255
-0.047500003 0.091999985 0.125 0 -0 -1 86 86 86 255
0.114999995 0.091999985 0.125 0 -0 -1 86 86 86 255
0.114999995 0.08799999 0.125 0 -0 -1 86 86 86 255
0.114999995 0.061999995 0.125 0 -0 -1 86 86 86 255
0.114999995 0.058000006 0.125 0 -0 -1 86 86 86 255
0.114999995 0.032000013 0.125 0 -0 -1 86 86 86 255
0.114999995 0.027999995 0.125 0 -0 -1 86 86 86 255
0.114999995 0.0019999999 0.125 0 -0 -1 86 86 86 255
0.114999995 -0.0019999999 0.125 0 -0 -1 86 86 86 255
0.114999995 -0.058000006 0.125 0 -0 -1 86 86 86 255
0.114999995 -0.061999995 0.125 0 -0 -1 86 86 86 255
0.114999995 -0.08799999 0.125 0 -0 -1 86 86 86 255
0.114999995 -0.091999985 0.125 0 -0 -1 86 86 86 255
-0.047500003 -0.091999985 0.125 0 -0 -1 86 86 86 255
-0.047500003 -0.08799999 0.125 0 -0 -1 86 86 86 255
-0.047500003 -0.061999995 0.125 0 -0 -1 86 86 86 255
-0.047500003 -0.058000006 0.125 0 -0 -1 86 86 86 255
-0.047500003 -0.032000013 0.125 0 -0 -1 86 86 86 255
-0.047500003 -0.027999995 0.125 0 -0 -1 86 86 86 255
-0.057500012 -0.114999995 0.125 0 -0 -1 86 86 86 255
-0.047500003 -0.114999995 0.125 0 -0 -1 86 86 86 255
-0.047500003 0.114999995 0.125 0 -0 -1 86 86 86 255
-0.057500012 0.114999995 0.125 0 -0 -1 86 86 86 255
-0.057500012 -0.091999985 0.125 0 -0 -1 86 86 86 255
-0.057500012 -0.08799999 0.125 0 -0 -1 86 86 86 255
-0.057500012 -0.061999995 0.125 0 -0 -1 86 86 86 255
-0.057500012 -0.058000006 0.125 0 -0 -1 86 86 86 255
-0.057500012 -0.032000013 0.125 0 -0 -1 86 86 86 255
-0.057500012 -0.027999995 0.125 0 -0 -1 86 86 86 255
-0.057500012 -0.0019999999 0.125 0 -0 -1 86 86 86 255
-0.057500012 0.0019999999 0.125 0 -0 -1 86 86 86 255
-0.057500012 0.027999995 0.125 0 -0 -1 86 86 86 255
-0.057500012 0.032000013 0.125 0 -0 -1 86 86 86 255
-0.057500012 0.058000006 0.125 0 -0 -1 86 86 86 255
-0.057500012 0.061999995 0.125 0 -0 -1 86 86 86 255
-0.057500012 0.08799999 0.125 0 -0 -1 86 86 86 255
-0.057500012 0.091999985 0.125 0 -0 -1 86 86 86 255
-0.114999995 -0.091999985 0.125 0 -0 -1 86 86 86 255
-0.114999995 -0.08799999 0.125 0 -0 -1 86 86 86 255
-0.114999995 -0.061999995 0.125 0 -0 -1 86 86 86 255
-0.114999995 -0.058000006 0.125 0 -0 -1 86 86 86 255
-0.114999995 -0.032000013 0.125 0 -0 -1 86 86 86 255
-0.114999995 -0.027999995 0.125 0 -0 -1 86 86 86 255
-0.114999995 -0.0019999999 0.125 0 -0 -1 86 86 86 255
-0.114999995 0.0019999999 0.125 0 -0 -1 86 86 86 255
-0.114999995 0.027999995 0.125 0 -0 -1 86 86 86 255
-0.114999995 0.032000013 0.125 0 -0 -1 86 86 86 255
-0.114999995 0.058000006 0.125 0 -0 -1 86 86 86 255
-0.114999995 0.061999995 0.125 0 -0 -1 86 86 86 255
-0.114999995 0.08799999 0.125 0 -0 -1 86 86 86 255
-0.114999995 0.091999985 0.125 0 -0 -1 86 86 86 255
-0.114999995 -0.058000006 0.125 0 -0 -1 19 19 102 255
-0.057500012 -0.032000013 0.125 0 -0 -1 19 19 102 255
-0.057500012 -0.058000006 0.125 0 -0 -1 19 19 102 255
-0.114999995 -0.032000013 0.125 0 -0 -1 19 19 102 255
-0.047500003 -0.027999995 0.125 0 -0 -1 19 19 102 255
0.047500003 -0.0019999999 0.125 0 -0 -1 19 19 102 255
0.047500003 -0.027999995 0.125 0 -0 -1 19 19 102 255
-0.047500003 -0.0019999999 0.125 0 -0 -1 19 19 102 255
-0.114999995 -0.027999995 0.125 0 -0 -1 19 19 102 255
-0.057500012 -0.0019999999 0.125 0 -0 -1 19 19 102 255
-0.057500012 -0.027999995 0.125 0 -0 -1 19 19 102 255
-0.114999995 -0.0019999999 0.125 0 -0 -1 19 19 102 255
-0.047500003 0.091999985 0.125 0 -0 -1 19 19 102 255
0.047500003 0.114999995 0.125 0 -0 -1 19 19 102 255
0.047500003 0.091999985 0.125 0 -0 -1 19 19 102 255
-0.047500003 0.114999995 0.125 0 -0 -1 19 19 102 255
-0.047500003 0.0019999999 0.125 0 -0 -1 19 19 102 255
0.047500003 0.027999995 0.125 0 -0 -1 19 19 102 255
0.047500003 0.0019999999 0.125 0 -0 -1 19 19 102 255
-0.047500003 0.027999995 0.125 0 -0 -1 19 19 102 255
-0.114999995 0.0019999999 0.125 0 -0 -1 19 19 102 255
-0.057500012 0.027999995 0.125 0 -0 -1 19 19 102 255
-0.057500012 0.0019999999 0.125 0 -0 -1 19 19 102 255
-0.114999995 0.027999995 0.125 0 -0 -1 19 19 102 255
0.057500012 0.091999985 0.125 0 -0 -1 19 19 102 255
0.114999995 0.094999984 0.125 0 -0 -1 19 19 102 255
0.114999995 0.091999985 0.125 0 -0 -1 19 19 102 255
0.094999984 0.114999995 0.125 0 -0 -1 19 19 102 255
0.057500012 0.114999995 0.125 0 -0 -1 19 19 102 255
0.057500012 -0.027999995 0.125 0 -0 -1 19 19 102 255
0.114999995 -0.0019999999 0.125 0 -0 -1 19 19 102 255
0.114999995 -0.027999995 0.125 0 -0 -1 19 19 102 255
0.057500012 -0.0019999999 0.125 0 -0 -1 19 19 102 255
0.057500012 0.032000013 0.125 0 -0 -1 19 19 102 255
0.114999995 0.058000006 0.125 0 -0 -1 19 19 102 255
0.114999995 0.032000013 0.125 0 -0 -1 19 19 102 255
0.057500012 0.058000006 0.125 0 -0 -1 19 19 102 255
-0.114999995 0.061999995 0.125 0 -0 -1 19 19 102 255
-0.057500012 0.08799999 0.125 0 -0 -1 19 19 102 255
-0.057500012 0.061999995 0.125 0 -0 -1 19 19 102 255
-0.114999995 0.08799999 0.125 0 -0 -1 19 19 102 255
-0.114999995 0.091999985 0.125 0 -0 -1 19 19 102 255
-0.057500012 0.114999995 0.125 0 -0 -1 19 19 102 255
-0.057500012 0.091999985 0.125 0 -0 -1 19 19 102 255
-0.094999984 0.114999995 0.125 0 -0 -1 19 19 102 255
-0.114999995 0.094999984 0.125 0 -0 -1 19 19 102 255
-0.047500003 0.061999995 0.125 0 -0 -1 19 19 102 255
0.047500003 0.08799999 0.125 0 -0 -1 19 19 102 255
0.047500003 0.061999995 0.125 0 -0 -1 19 19 102 255
-0.047500003 0.08799999 0.125 0 -0 -1 19 19 102 255
-0.114999995 0.032000013 0.125 0 -0 -1 19 19 102 255
-0.057500012 0.058000006 0.125 0 -0 -1 19 19 102 255
-0.057500012 0.032000013 0.125 0 -0 -1 19 19 102 255
-0.114999995 0.058000006 0.125 0 -0 -1 19 19 102 255
0.094999984 -0.114999995 0.125 0 -0 -1 19 19 102 255
0.114999995 -0.091999985 0.125 0 -0 -1 19 19 102 255
0.114999995 -0.094999984 0.125 0 -0 -1 19 19 102 255
0.057500012 -0.091999985 0.125 0 -0 -1 19 19 102 255
0.057500012 -0.114999995 0.125 0 -0 -1 19 19 102 255
-0.047500003 0.032000013 0.125 0 -0 -1 19 19 102 255
0.047500003 0.058000006 0.125 0 -0 -1 19 19 102 255
0.047500003 0.032000013 0.125 0 -0 -1 19 19 102 255
-0.047500003 0.058000006 0.125 0 -0 -1 19 19 102 255
0.057500012 0.061999995 0.125 0 -0 -1 19 19 102 255
0.114999995 0.08799999 0.125 0 -0 -1 19 19 102 255
0.114999995 0.061999995 0.125 0 -0 -1 19 19 102 255
0.057500012 0.08799999 0.125 0 -0 -1 19 19 102 255
3 0 1 2
3 1 0 3
3 3 0 4
3 3 4 5
3 5 4 6
3 6 4 7
3 7 4 8
3 8 4 9
3 9 4 10
3 10 4 11
3 11 4 12
3 12 4 13
3 13 4 14
3 14 4 15
3 15 4 16
3 16 4 17
3 17 4 18
3 18 4 19
3 19 4 20
3 20 4 21
3 21 4 22
3 22 4 23
3 23 4 24
3 24 4 25
3 2 26 27
3 26 2 28
3 28 2 1
3 28 1 29
3 28 29 30
3 28 30 31
3 28 31 32
3 28 32 33
3 28 33 34
3 28 34 35
3 28 35 36
3 28 36 37
3 28 37 38
3 28 38 39
3 28 39 40
3 28 40 41
3 28 41 42
3 27 26 43
3 27 43 44
3 27 44 45
3 27 45 46
3 27 46 47
3 27 47 25
3 27 25 4
3 48 49 50
3 49 48 51
3 52 53 54
3 53 52 55
3 56 57 58
3 57 56 59
3 59 56 60
3 61 62 63
3 62 61 64
3 65 66 67
3 66 65 68
3 69 70 71
3 70 69 72
3 73 74 75
3 74 73 76
3 77 78 79
3 78 77 80
3 81 82 83
3 82 81 84
3 85 86 87
3 86 85 88
3 88 85 89
3 89 85 90
3 90 85 81
3 81 85 84
3 84 85 91
3 91 85 92
3 92 85 93
3 93 85 94
3 94 85 95
3 95 85 96
3 96 85 97
3 97 85 98
3 98 85 99
3 99 85 100
3 100 85 101
3 100 101 102
3 100 102 103
3 100 103 104
3 100 104 105
3 100 105 106
3 100 106 107
3 100 107 108
3 100 108 109
3 100 109 110
3 100 110 111
3 100 111 112
3 100 112 113
3 100 113 114
3 115 108 107
3 108 115 116
3 117 110 109
3 110 117 118
3 119 112 111
3 112 119 120
3 121 114 113
3 114 121 122
3 97 123 124
3 123 97 98
3 95 125 126
3 125 95 96
3 93 127 128
3 127 93 94
3 91 129 130
3 129 91 92
3 89 131 132
3 131 89 90
3 86 133 134
3 133 86 88
3 135 102 101
3 102 135 136
3 137 104 103
3 104 137 138
3 139 106 105
3 106 139 140
3 141 135 142
3 135 141 136
3 136 141 137
3 137 141 138
3 138 141 139
3 139 141 140
3 140 141 115
3 115 141 116
3 116 141 117
3 117 141 118
3 118 141 119
3 119 141 120
3 120 141 121
3 121 141 122
3 122 141 143
3 143 141 144
3 144 141 145
3 144 145 146
3 144 146 147
3 144 147 148
3 144 148 149
3 144 149 150
3 144 150 151
3 144 151 152
3 144 152 153
3 144 153 154
3 144 154 155
3 144 155 156
3 144 156 157
3 144 157 158
3 159 146 145
3 146 159 160
3 161 148 147
3 148 161 162
3 163 150 149
3 150 163 164
3 165 152 151
3 152 165 166
3 167 154 153
3 154 167 168
3 169 156 155
3 156 169 170
3 171 158 157
3 158 171 172
3 173 174 175
3 174 173 176
3 177 178 179
3 178 177 180
3 181 182 183
3 182 181 184
3 185 186 187
3 186 185 188
3 189 190 191
3 190 189 192
3 193 194 195
3 194 193 196
3 197 198 199
3 198 197 200
3 200 197 201
3 202 203 204
3 203 202 205
3 206 207 208
3 207 206 209
3 210 211 212
3 211 210 213
3 214 215 216
3 215 214 217
3 217 214 218
3 219 220 221
3 220 219 222
3 223 224 225
3 224 223 226
3 227 228 229
3 228 227 230
3 230 227 231
3 232 233 234
3 233 232 235
3 236 237 238
3 237 236 239

