ply
format ascii 1.0
commentY29udmVydGVyIGJ5IENvZGVMZW9wYXJk
comment Original mesh name: 'C:\Program Files (x86)\Steam\steamapps\common\Stormworks\rom\meshes\component_tank_track_small.mesh'
comment SubMesh index: 0
comment SubMesh name: 'ID4'
comment Shader: Opaque (0)
element vertex 304
property float x
property float y
property float z
property float nx
property float ny
property float nz
property uchar red
property uchar green
property uchar blue
property uchar alpha
element face 168
property list uchar ushort vertex_index
end_header
0.22353368 -0.049499538 -0.074838705 -0.1834813 0.2662628 0.9462762 58 58 58 255
0.29024222 -0.06523596 -0.057476137 -0.1834813 0.2662628 0.9462762 58 58 58 255
0.30072734 -0.049499538 -0.059870973 -0.1834813 0.2662628 0.9462762 58 58 58 255
0.2161362 -0.06523596 -0.07184514 -0.1834813 0.2662628 0.9462762 58 58 58 255
0.22353368 0.048090737 -0.074838705 -0.1903532 7.383295E-18 0.9817157 58 58 58 255
0.30072734 -0.049499538 -0.059870973 -0.1903532 7.383295E-18 0.9817157 58 58 58 255
0.30072734 0.048090737 -0.059870973 -0.1903532 7.383295E-18 0.9817157 58 58 58 255
0.22353368 -0.049499538 -0.074838705 -0.1903532 7.383295E-18 0.9817157 58 58 58 255
0.22353368 -0.049499538 -0.074838705 -0.9049932 0.4254261 -2.9325581E-18 58 58 58 255
0.2161362 -0.06523596 -0.16474836 -0.9049932 0.4254261 -2.9325581E-18 58 58 58 255
0.2161362 -0.06523596 -0.07184514 -0.9049932 0.4254261 -2.9325581E-18 58 58 58 255
0.22353368 -0.049499538 -0.17161287 -0.9049932 0.4254261 -2.9325581E-18 58 58 58 255
0.30072734 -0.049499538 0.059870973 -0.8321925 0.55448693 -5.1212215E-33 58 58 58 255
0.29024222 -0.06523596 -0.057476137 -0.8321925 0.55448693 -5.1212215E-33 58 58 58 255
0.29024222 -0.06523596 0.057476137 -0.8321925 0.55448693 -5.1212215E-33 58 58 58 255
0.30072734 -0.049499538 -0.059870973 -0.8321925 0.55448693 -5.1212215E-33 58 58 58 255
0.29024222 0.06382718 -0.057476137 -0.1834813 -0.2662624 0.9462763 58 58 58 255
0.22353368 0.048090737 -0.074838705 -0.1834813 -0.2662624 0.9462763 58 58 58 255
0.30072734 0.048090737 -0.059870973 -0.1834813 -0.2662624 0.9462763 58 58 58 255
0.2161362 0.06382718 -0.07184514 -0.1834813 -0.2662624 0.9462763 58 58 58 255
0.22353368 0.048090737 -0.074838705 -1 -0 -0 58 58 58 255
0.22353368 -0.049499538 -0.17161287 -1 -0 -0 58 58 58 255
0.22353368 -0.049499538 -0.074838705 -1 -0 -0 58 58 58 255
0.22353368 0.048090737 -0.17161287 -1 -0 -0 58 58 58 255
0.30072734 0.048090737 0.059870973 -1 -0 -0 58 58 58 255
0.30072734 -0.049499538 -0.059870973 -1 -0 -0 58 58 58 255
0.30072734 -0.049499538 0.059870973 -1 -0 -0 58 58 58 255
0.30072734 0.048090737 -0.059870973 -1 -0 -0 58 58 58 255
0.14633986 -0.049499538 -0.17161287 -5.601583E-18 0.3998333 0.9165879 58 58 58 255
0.2161362 -0.06523596 -0.16474836 -5.601583E-18 0.3998333 0.9165879 58 58 58 255
0.22353368 -0.049499538 -0.17161287 -5.601583E-18 0.3998333 0.9165879 58 58 58 255
0.14203012 -0.06523596 -0.16474836 -5.601583E-18 0.3998333 0.9165879 58 58 58 255
0.29024222 -0.06523596 0.057476137 -0.1834813 0.2662628 -0.9462762 58 58 58 255
0.22353368 -0.049499538 0.074838705 -0.1834813 0.2662628 -0.9462762 58 58 58 255
0.30072734 -0.049499538 0.059870973 -0.1834813 0.2662628 -0.9462762 58 58 58 255
0.2161362 -0.06523596 0.07184514 -0.1834813 0.2662628 -0.9462762 58 58 58 255
0.29024222 0.06382718 0.057476137 -0.8321929 -0.5544863 3.106449E-32 58 58 58 255
0.30072734 0.048090737 -0.059870973 -0.8321929 -0.5544863 3.106449E-32 58 58 58 255
0.30072734 0.048090737 0.059870973 -0.8321929 -0.5544863 3.106449E-32 58 58 58 255
0.29024222 0.06382718 -0.057476137 -0.8321929 -0.5544863 3.106449E-32 58 58 58 255
0.2161362 0.06382718 -0.07184514 0 -1 -0 58 58 58 255
0.14203012 0.06382718 -0.16474836 0 -1 -0 58 58 58 255
0.2161362 0.06382718 -0.16474836 0 -1 -0 58 58 58 255
-0.13894239 0.06382718 -0.16474836 0 -1 -0 58 58 58 255
-0.21304847 0.06382718 -0.16474836 0 -1 -0 58 58 58 255
-0.21304847 0.06382718 -0.07184514 0 -1 -0 58 58 58 255
0.29024222 0.06382718 -0.057476137 0 -1 -0 58 58 58 255
-0.13894239 0.06382718 -0.057476137 0 -1 -0 58 58 58 255
0.06872015 0.06382716 -0.030208321 0 -1 -0 58 58 58 255
0.29024222 0.06382718 0.057476137 0 -1 -0 58 58 58 255
-0.065632395 0.06382718 -0.030208344 0 -1 -0 58 58 58 255
0.068720125 0.06382716 0.030208344 0 -1 -0 58 58 58 255
-0.065632395 0.06382718 0.030208344 0 -1 -0 58 58 58 255
-0.13894239 0.06382718 0.057476137 0 -1 -0 58 58 58 255
0.2161362 0.06382718 0.07184514 0 -1 -0 58 58 58 255
-0.21304847 0.06382718 0.07184514 0 -1 -0 58 58 58 255
0.2161362 0.06382718 0.16474836 0 -1 -0 58 58 58 255
-0.21304847 0.06382718 0.16474836 0 -1 -0 58 58 58 255
-0.11084514 0.06382718 -0.24000001 0 -1 -0 58 58 58 255
0.11393287 0.06382718 -0.24000001 0 -1 -0 58 58 58 255
0.2161362 0.06382718 -0.07184514 -0.9049934 -0.4254256 1.7595302E-18 58 58 58 255
0.22353368 0.048090737 -0.17161287 -0.9049934 -0.4254256 1.7595302E-18 58 58 58 255
0.22353368 0.048090737 -0.074838705 -0.9049934 -0.4254256 1.7595302E-18 58 58 58 255
0.2161362 0.06382718 -0.16474836 -0.9049934 -0.4254256 1.7595302E-18 58 58 58 255
0.14633986 0.048090737 -0.17161287 0 -0 1 58 58 58 255
0.22353368 -0.049499538 -0.17161287 0 -0 1 58 58 58 255
0.22353368 0.048090737 -0.17161287 0 -0 1 58 58 58 255
0.14633986 -0.049499538 -0.17161287 0 -0 1 58 58 58 255
0.22353368 -0.049499538 0.074838705 -0.1903532 -3.93461E-32 -0.9817157 58 58 58 255
0.30072734 0.048090737 0.059870973 -0.1903532 -3.93461E-32 -0.9817157 58 58 58 255
0.30072734 -0.049499538 0.059870973 -0.1903532 -3.93461E-32 -0.9817157 58 58 58 255
0.22353368 0.048090737 0.074838705 -0.1903532 -3.93461E-32 -0.9817157 58 58 58 255
0.14633986 -0.049499538 -0.17161287 -0.8670594 0.3786819 0.3237406 58 58 58 255
0.11393287 -0.06523596 -0.24000001 -0.8670594 0.3786819 0.3237406 58 58 58 255
0.14203012 -0.06523596 -0.16474836 -0.8670594 0.3786819 0.3237406 58 58 58 255
0.117071845 -0.049499538 -0.25 -0.8670594 0.3786819 0.3237406 58 58 58 255
0.22353368 -0.049499538 0.17161287 -0.9049932 0.4254261 2.9325581E-18 58 58 58 255
0.2161362 -0.06523596 0.07184514 -0.9049932 0.4254261 2.9325581E-18 58 58 58 255
0.2161362 -0.06523596 0.16474836 -0.9049932 0.4254261 2.9325581E-18 58 58 58 255
0.22353368 -0.049499538 0.074838705 -0.9049932 0.4254261 2.9325581E-18 58 58 58 255
0.22353368 0.048090737 0.074838705 -0.1834813 -0.2662624 -0.9462763 58 58 58 255
0.29024222 0.06382718 0.057476137 -0.1834813 -0.2662624 -0.9462763 58 58 58 255
0.30072734 0.048090737 0.059870973 -0.1834813 -0.2662624 -0.9462763 58 58 58 255
0.2161362 0.06382718 0.07184514 -0.1834813 -0.2662624 -0.9462763 58 58 58 255
0.14203012 0.06382718 -0.16474836 -0.8670596 -0.3786814 0.3237407 58 58 58 255
0.117071845 0.048090737 -0.25 -0.8670596 -0.3786814 0.3237407 58 58 58 255
0.14633986 0.048090737 -0.17161287 -0.8670596 -0.3786814 0.3237407 58 58 58 255
0.11393287 0.06382718 -0.24000001 -0.8670596 -0.3786814 0.3237407 58 58 58 255
0.2161362 0.06382718 -0.16474836 4.667972E-18 -0.3998327 0.9165881 58 58 58 255
0.14633986 0.048090737 -0.17161287 4.667972E-18 -0.3998327 0.9165881 58 58 58 255
0.22353368 0.048090737 -0.17161287 4.667972E-18 -0.3998327 0.9165881 58 58 58 255
0.14203012 0.06382718 -0.16474836 4.667972E-18 -0.3998327 0.9165881 58 58 58 255
0.2161362 0.06382718 0.16474836 -0.9049934 -0.4254256 -1.7595302E-18 58 58 58 255
0.22353368 0.048090737 0.074838705 -0.9049934 -0.4254256 -1.7595302E-18 58 58 58 255
0.22353368 0.048090737 0.17161287 -0.9049934 -0.4254256 -1.7595302E-18 58 58 58 255
0.2161362 0.06382718 0.07184514 -0.9049934 -0.4254256 -1.7595302E-18 58 58 58 255
-0.21304847 0.06382718 0.07184514 0.8321904 -0.55449 -2.6966382E-18 58 58 58 255
-0.22353368 0.048090737 0.17161287 0.8321904 -0.55449 -2.6966382E-18 58 58 58 255
-0.22353368 0.048090737 0.074838705 0.8321904 -0.55449 -2.6966382E-18 58 58 58 255
-0.21304847 0.06382718 0.16474836 0.8321904 -0.55449 -2.6966382E-18 58 58 58 255
-0.21304847 0.06382718 0.07184514 0.1900119 0.0598132 0.9799581 58 58 58 255
-0.14633983 0.048090737 0.059870973 0.1900119 0.0598132 0.9799581 58 58 58 255
-0.13894239 0.06382718 0.057476137 0.1900119 0.0598132 0.9799581 58 58 58 255
-0.22353368 0.048090737 0.074838705 0.1900119 0.0598132 0.9799581 58 58 58 255
-0.13894239 0.06382718 -0.057476137 0.9049945 -0.4254232 -2.4557461E-34 58 58 58 255
-0.14633983 0.048090737 0.059870973 0.9049945 -0.4254232 -2.4557461E-34 58 58 58 255
-0.14633983 0.048090737 -0.059870973 0.9049945 -0.4254232 -2.4557461E-34 58 58 58 255
-0.13894239 0.06382718 0.057476137 0.9049945 -0.4254232 -2.4557461E-34 58 58 58 255
-0.14633983 0.048090737 -0.059870973 0.1900119 0.0598132 -0.9799581 58 58 58 255
-0.21304847 0.06382718 -0.07184514 0.1900119 0.0598132 -0.9799581 58 58 58 255
-0.13894239 0.06382718 -0.057476137 0.1900119 0.0598132 -0.9799581 58 58 58 255
-0.22353368 0.048090737 -0.074838705 0.1900119 0.0598132 -0.9799581 58 58 58 255
-0.21304847 0.06382718 -0.16474836 0.8321904 -0.55449 2.6966382E-18 58 58 58 255
-0.22353368 0.048090737 -0.074838705 0.8321904 -0.55449 2.6966382E-18 58 58 58 255
-0.22353368 0.048090737 -0.17161287 0.8321904 -0.55449 2.6966382E-18 58 58 58 255
-0.21304847 0.06382718 -0.07184514 0.8321904 -0.55449 2.6966382E-18 58 58 58 255
-0.21304847 0.06382718 -0.16474836 3.734375E-18 -0.3998327 0.9165881 58 58 58 255
-0.14633983 0.048090737 -0.17161287 3.734375E-18 -0.3998327 0.9165881 58 58 58 255
-0.13894239 0.06382718 -0.16474836 3.734375E-18 -0.3998327 0.9165881 58 58 58 255
-0.22353368 0.048090737 -0.17161287 3.734375E-18 -0.3998327 0.9165881 58 58 58 255
-0.11084514 0.06382718 -0.24000001 0.805811 -0.5100442 0.3008714 58 58 58 255
-0.14633983 0.048090737 -0.17161287 0.805811 -0.5100442 0.3008714 58 58 58 255
-0.11707187 0.048090737 -0.25 0.805811 -0.5100442 0.3008714 58 58 58 255
-0.13894239 0.06382718 -0.16474836 0.805811 -0.5100442 0.3008714 58 58 58 255
0.11393287 0.06382718 -0.24000001 -1.962221E-18 -0.5363364 0.8440043 58 58 58 255
-0.11707187 0.048090737 -0.25 -1.962221E-18 -0.5363364 0.8440043 58 58 58 255
0.117071845 0.048090737 -0.25 -1.962221E-18 -0.5363364 0.8440043 58 58 58 255
-0.11084514 0.06382718 -0.24000001 -1.962221E-18 -0.5363364 0.8440043 58 58 58 255
0.14633986 0.048090737 -0.17161287 -0.9368278 -1.052284E-17 0.3497908 58 58 58 255
0.117071845 -0.049499538 -0.25 -0.9368278 -1.052284E-17 0.3497908 58 58 58 255
0.14633986 -0.049499538 -0.17161287 -0.9368278 -1.052284E-17 0.3497908 58 58 58 255
0.117071845 0.048090737 -0.25 -0.9368278 -1.052284E-17 0.3497908 58 58 58 255
0.22353368 0.048090737 0.17161287 -1 -0 -0 58 58 58 255
0.22353368 -0.049499538 0.074838705 -1 -0 -0 58 58 58 255
0.22353368 -0.049499538 0.17161287 -1 -0 -0 58 58 58 255
0.22353368 0.048090737 0.074838705 -1 -0 -0 58 58 58 255
-0.11707187 -0.049499538 -0.25 -1.7286281E-18 0.536337 0.8440039 58 58 58 255
0.11393287 -0.06523596 -0.24000001 -1.7286281E-18 0.536337 0.8440039 58 58 58 255
0.117071845 -0.049499538 -0.25 -1.7286281E-18 0.536337 0.8440039 58 58 58 255
-0.11084514 -0.06523596 -0.24000001 -1.7286281E-18 0.536337 0.8440039 58 58 58 255
0.2161362 -0.06523596 0.16474836 -1.867194E-18 0.3998333 -0.9165879 58 58 58 255
0.14633986 -0.049499538 0.17161287 -1.867194E-18 0.3998333 -0.9165879 58 58 58 255
0.22353368 -0.049499538 0.17161287 -1.867194E-18 0.3998333 -0.9165879 58 58 58 255
0.14203012 -0.06523596 0.16474836 -1.867194E-18 0.3998333 -0.9165879 58 58 58 255
0.14633986 0.048090737 0.17161287 -5.601566E-18 -0.3998327 -0.9165881 58 58 58 255
0.2161362 0.06382718 0.16474836 -5.601566E-18 -0.3998327 -0.9165881 58 58 58 255
0.22353368 0.048090737 0.17161287 -5.601566E-18 -0.3998327 -0.9165881 58 58 58 255
0.14203012 0.06382718 0.16474836 -5.601566E-18 -0.3998327 -0.9165881 58 58 58 255
-0.14633983 0.048090737 0.17161287 -3.734375E-18 -0.3998327 -0.9165881 58 58 58 255
-0.21304847 0.06382718 0.16474836 -3.734375E-18 -0.3998327 -0.9165881 58 58 58 255
-0.13894239 0.06382718 0.16474836 -3.734375E-18 -0.3998327 -0.9165881 58 58 58 255
-0.22353368 0.048090737 0.17161287 -3.734375E-18 -0.3998327 -0.9165881 58 58 58 255
-0.22353368 0.048090737 0.074838705 1 -0 -0 58 58 58 255
-0.22353368 -0.049499538 0.17161287 1 -0 -0 58 58 58 255
-0.22353368 -0.049499538 0.074838705 1 -0 -0 58 58 58 255
-0.22353368 0.048090737 0.17161287 1 -0 -0 58 58 58 255
-0.22353368 0.048090737 0.074838705 0.19035278 -7.383296E-18 0.9817157 58 58 58 255
-0.14633983 -0.049499538 0.059870973 0.19035278 -7.383296E-18 0.9817157 58 58 58 255
-0.14633983 0.048090737 0.059870973 0.19035278 -7.383296E-18 0.9817157 58 58 58 255
-0.22353368 -0.049499538 0.074838705 0.19035278 -7.383296E-18 0.9817157 58 58 58 255
-0.14633983 0.048090737 -0.059870973 1 -0 -0 58 58 58 255
-0.14633983 -0.049499538 0.059870973 1 -0 -0 58 58 58 255
-0.14633983 -0.049499538 -0.059870973 1 -0 -0 58 58 58 255
-0.14633983 0.048090737 0.059870973 1 -0 -0 58 58 58 255
-0.22353368 -0.049499538 -0.074838705 0.19035278 3.9346097E-32 -0.9817157 58 58 58 255
-0.14633983 0.048090737 -0.059870973 0.19035278 3.9346097E-32 -0.9817157 58 58 58 255
-0.14633983 -0.049499538 -0.059870973 0.19035278 3.9346097E-32 -0.9817157 58 58 58 255
-0.22353368 0.048090737 -0.074838705 0.19035278 3.9346097E-32 -0.9817157 58 58 58 255
-0.22353368 0.048090737 -0.17161287 1 -0 -0 58 58 58 255
-0.22353368 -0.049499538 -0.074838705 1 -0 -0 58 58 58 255
-0.22353368 -0.049499538 -0.17161287 1 -0 -0 58 58 58 255
-0.22353368 0.048090737 -0.074838705 1 -0 -0 58 58 58 255
-0.22353368 0.048090737 -0.17161287 0 -0 1 58 58 58 255
-0.14633983 -0.049499538 -0.17161287 0 -0 1 58 58 58 255
-0.14633983 0.048090737 -0.17161287 0 -0 1 58 58 58 255
-0.22353368 -0.049499538 -0.17161287 0 -0 1 58 58 58 255
-0.11707187 0.048090737 -0.25 0.936828 -3.568587E-18 0.3497902 58 58 58 255
-0.14633983 -0.049499538 -0.17161287 0.936828 -3.568587E-18 0.3497902 58 58 58 255
-0.11707187 -0.049499538 -0.25 0.936828 -3.568587E-18 0.3497902 58 58 58 255
-0.14633983 0.048090737 -0.17161287 0.936828 -3.568587E-18 0.3497902 58 58 58 255
-0.11707187 0.048090737 -0.25 0 -0 1 58 58 58 255
0.117071845 -0.049499538 -0.25 0 -0 1 58 58 58 255
0.117071845 0.048090737 -0.25 0 -0 1 58 58 58 255
-0.11707187 -0.049499538 -0.25 0 -0 1 58 58 58 255
0.14633986 -0.049499538 0.17161287 0 -0 -1 58 58 58 255
0.22353368 0.048090737 0.17161287 0 -0 -1 58 58 58 255
0.22353368 -0.049499538 0.17161287 0 -0 -1 58 58 58 255
0.14633986 0.048090737 0.17161287 0 -0 -1 58 58 58 255
-0.11707187 -0.049499538 -0.25 0.8058106 0.5100448 0.3008713 58 58 58 255
-0.13894239 -0.06523596 -0.16474836 0.8058106 0.5100448 0.3008713 58 58 58 255
-0.11084514 -0.06523596 -0.24000001 0.8058106 0.5100448 0.3008713 58 58 58 255
-0.14633983 -0.049499538 -0.17161287 0.8058106 0.5100448 0.3008713 58 58 58 255
0.117071845 -0.049499538 0.25 -0.8670594 0.3786819 -0.3237406 58 58 58 255
0.14203012 -0.06523596 0.16474836 -0.8670594 0.3786819 -0.3237406 58 58 58 255
0.11393287 -0.06523596 0.24000001 -0.8670594 0.3786819 -0.3237406 58 58 58 255
0.14633986 -0.049499538 0.17161287 -0.8670594 0.3786819 -0.3237406 58 58 58 255
0.11393287 0.06382718 0.24000001 -0.8670596 -0.3786814 -0.3237407 58 58 58 255
0.14633986 0.048090737 0.17161287 -0.8670596 -0.3786814 -0.3237407 58 58 58 255
0.117071845 0.048090737 0.25 -0.8670596 -0.3786814 -0.3237407 58 58 58 255
0.14203012 0.06382718 0.16474836 -0.8670596 -0.3786814 -0.3237407 58 58 58 255
-0.13894239 0.06382718 0.16474836 0.805811 -0.5100442 -0.3008714 58 58 58 255
-0.11707187 0.048090737 0.25 0.805811 -0.5100442 -0.3008714 58 58 58 255
-0.14633983 0.048090737 0.17161287 0.805811 -0.5100442 -0.3008714 58 58 58 255
-0.11084514 0.06382718 0.24000001 0.805811 -0.5100442 -0.3008714 58 58 58 255
-0.22353368 -0.049499538 0.17161287 0 -0 -1 58 58 58 255
-0.14633983 0.048090737 0.17161287 0 -0 -1 58 58 58 255
-0.14633983 -0.049499538 0.17161287 0 -0 -1 58 58 58 255
-0.22353368 0.048090737 0.17161287 0 -0 -1 58 58 58 255
-0.22353368 -0.049499538 0.074838705 0.83219 0.5544906 2.6966452E-18 58 58 58 255
-0.21304847 -0.06523596 0.16474836 0.83219 0.5544906 2.6966452E-18 58 58 58 255
-0.21304847 -0.06523596 0.07184514 0.83219 0.5544906 2.6966452E-18 58 58 58 255
-0.22353368 -0.049499538 0.17161287 0.83219 0.5544906 2.6966452E-18 58 58 58 255
-0.14633983 -0.049499538 0.059870973 0.1900119 -0.05981329 0.9799581 58 58 58 255
-0.21304847 -0.06523596 0.07184514 0.1900119 -0.05981329 0.9799581 58 58 58 255
-0.13894239 -0.06523596 0.057476137 0.1900119 -0.05981329 0.9799581 58 58 58 255
-0.22353368 -0.049499538 0.074838705 0.1900119 -0.05981329 0.9799581 58 58 58 255
-0.14633983 -0.049499538 -0.059870973 0.9049943 0.4254237 3.9291982E-33 58 58 58 255
-0.13894239 -0.06523596 0.057476137 0.9049943 0.4254237 3.9291982E-33 58 58 58 255
-0.13894239 -0.06523596 -0.057476137 0.9049943 0.4254237 3.9291982E-33 58 58 58 255
-0.14633983 -0.049499538 0.059870973 0.9049943 0.4254237 3.9291982E-33 58 58 58 255
-0.21304847 -0.06523596 -0.07184514 0.1900119 -0.05981329 -0.9799581 58 58 58 255
-0.14633983 -0.049499538 -0.059870973 0.1900119 -0.05981329 -0.9799581 58 58 58 255
-0.13894239 -0.06523596 -0.057476137 0.1900119 -0.05981329 -0.9799581 58 58 58 255
-0.22353368 -0.049499538 -0.074838705 0.1900119 -0.05981329 -0.9799581 58 58 58 255
-0.22353368 -0.049499538 -0.17161287 0.83219 0.5544906 -2.6966452E-18 58 58 58 255
-0.21304847 -0.06523596 -0.07184514 0.83219 0.5544906 -2.6966452E-18 58 58 58 255
-0.21304847 -0.06523596 -0.16474836 0.83219 0.5544906 -2.6966452E-18 58 58 58 255
-0.22353368 -0.049499538 -0.074838705 0.83219 0.5544906 -2.6966452E-18 58 58 58 255
-0.14633983 -0.049499538 -0.17161287 -3.7343863E-18 0.3998333 0.9165879 58 58 58 255
-0.21304847 -0.06523596 -0.16474836 -3.7343863E-18 0.3998333 0.9165879 58 58 58 255
-0.13894239 -0.06523596 -0.16474836 -3.7343863E-18 0.3998333 0.9165879 58 58 58 255
-0.22353368 -0.049499538 -0.17161287 -3.7343863E-18 0.3998333 0.9165879 58 58 58 255
0.117071845 0.048090737 0.25 -0.9368278 1.052284E-17 -0.3497908 58 58 58 255
0.14633986 -0.049499538 0.17161287 -0.9368278 1.052284E-17 -0.3497908 58 58 58 255
0.117071845 -0.049499538 0.25 -0.9368278 1.052284E-17 -0.3497908 58 58 58 255
0.14633986 0.048090737 0.17161287 -0.9368278 1.052284E-17 -0.3497908 58 58 58 255
0.11393287 -0.06523596 0.24000001 -1.4950291E-18 0.536337 -0.8440039 58 58 58 255
-0.11707187 -0.049499538 0.25 -1.4950291E-18 0.536337 -0.8440039 58 58 58 255
0.117071845 -0.049499538 0.25 -1.4950291E-18 0.536337 -0.8440039 58 58 58 255
-0.11084514 -0.06523596 0.24000001 -1.4950291E-18 0.536337 -0.8440039 58 58 58 255
-0.11707187 0.048090737 0.25 6.5407353E-19 -0.5363364 -0.8440043 58 58 58 255
0.11393287 0.06382718 0.24000001 6.5407353E-19 -0.5363364 -0.8440043 58 58 58 255
0.117071845 0.048090737 0.25 6.5407353E-19 -0.5363364 -0.8440043 58 58 58 255
-0.11084514 0.06382718 0.24000001 6.5407353E-19 -0.5363364 -0.8440043 58 58 58 255
0.11393287 0.06382718 0.24000001 0 -1 -0 58 58 58 255
-0.13894239 0.06382718 0.16474836 0 -1 -0 58 58 58 255
0.14203012 0.06382718 0.16474836 0 -1 -0 58 58 58 255
-0.11084514 0.06382718 0.24000001 0 -1 -0 58 58 58 255
-0.14633983 0.048090737 0.17161287 0.936828 -2.4614228E-17 -0.3497902 58 58 58 255
-0.11707187 -0.049499538 0.25 0.936828 -2.4614228E-17 -0.3497902 58 58 58 255
-0.14633983 -0.049499538 0.17161287 0.936828 -2.4614228E-17 -0.3497902 58 58 58 255
-0.11707187 0.048090737 0.25 0.936828 -2.4614228E-17 -0.3497902 58 58 58 255
-0.21304847 -0.06523596 0.16474836 1.8671931E-18 0.3998333 -0.9165879 58 58 58 255
-0.14633983 -0.049499538 0.17161287 1.8671931E-18 0.3998333 -0.9165879 58 58 58 255
-0.13894239 -0.06523596 0.16474836 1.8671931E-18 0.3998333 -0.9165879 58 58 58 255
-0.22353368 -0.049499538 0.17161287 1.8671931E-18 0.3998333 -0.9165879 58 58 58 255
-0.11707187 -0.049499538 0.25 0 -0 -1 58 58 58 255
0.117071845 0.048090737 0.25 0 -0 -1 58 58 58 255
0.117071845 -0.049499538 0.25 0 -0 -1 58 58 58 255
-0.11707187 0.048090737 0.25 0 -0 -1 58 58 58 255
-0.14633983 -0.049499538 0.17161287 0.8058106 0.5100448 -0.3008713 58 58 58 255
-0.11084514 -0.06523596 0.24000001 0.8058106 0.5100448 -0.3008713 58 58 58 255
-0.13894239 -0.06523596 0.16474836 0.8058106 0.5100448 -0.3008713 58 58 58 255
-0.11707187 -0.049499538 0.25 0.8058106 0.5100448 -0.3008713 58 58 58 255
0.068720125 0.20077391 0.010937501 -1 -2.8169588E-14 -5.062644E-07 58 58 58 255
0.06872015 0.06382716 -0.030208321 -1 -2.8169588E-14 -5.062644E-07 58 58 58 255
0.068720125 0.06382716 0.030208344 -1 -2.8169588E-14 -5.062644E-07 58 58 58 255
0.06872015 0.20077391 -0.0109374905 -1 -2.8169588E-14 -5.062644E-07 58 58 58 255
-0.065632395 0.06382718 0.030208344 -3.8113988E-09 -0.139345 -0.9902439 58 58 58 255
0.068720125 0.20077391 0.010937501 -3.8113988E-09 -0.139345 -0.9902439 58 58 58 255
0.068720125 0.06382716 0.030208344 -3.8113988E-09 -0.139345 -0.9902439 58 58 58 255
-0.065632395 0.20077391 0.010937499 -3.8113988E-09 -0.139345 -0.9902439 58 58 58 255
0.06872015 0.20077391 -0.0109374905 0 -1 -0 58 58 58 255
-0.065632395 0.20077391 0.010937499 0 -1 -0 58 58 58 255
-0.065632395 0.20077391 -0.010937493 0 -1 -0 58 58 58 255
0.068720125 0.20077391 0.010937501 0 -1 -0 58 58 58 255
-0.065632395 0.20077391 -0.010937493 -1.161376E-07 -0.1393449 0.9902439 58 58 58 255
0.06872015 0.06382716 -0.030208321 -1.161376E-07 -0.1393449 0.9902439 58 58 58 255
0.06872015 0.20077391 -0.0109374905 -1.161376E-07 -0.1393449 0.9902439 58 58 58 255
-0.065632395 0.06382718 -0.030208344 -1.161376E-07 -0.1393449 0.9902439 58 58 58 255
-0.065632395 0.20077391 -0.010937493 1 -0 -0 58 58 58 255
-0.065632395 0.06382718 0.030208344 1 -0 -0 58 58 58 255
-0.065632395 0.06382718 -0.030208344 1 -0 -0 58 58 58 255
-0.065632395 0.20077391 0.010937499 1 -0 -0 58 58 58 255
-0.11084514 -0.06523596 0.24000001 0 1 -0 84 84 84 255
0.14203012 -0.06523596 0.16474836 0 1 -0 84 84 84 255
-0.13894239 -0.06523596 0.16474836 0 1 -0 84 84 84 255
0.11393287 -0.06523596 0.24000001 0 1 -0 84 84 84 255
-0.21304847 -0.06523596 -0.07184514 0 1 -0 84 84 84 255
-0.13894239 -0.06523596 -0.16474836 0 1 -0 84 84 84 255
-0.21304847 -0.06523596 -0.16474836 0 1 -0 84 84 84 255
0.14203012 -0.06523596 -0.16474836 0 1 -0 84 84 84 255
0.2161362 -0.06523596 -0.16474836 0 1 -0 84 84 84 255
0.2161362 -0.06523596 -0.07184514 0 1 -0 84 84 84 255
-0.13894239 -0.06523596 -0.057476137 0 1 -0 84 84 84 255
0.29024222 -0.06523596 -0.057476137 0 1 -0 84 84 84 255
-0.13894239 -0.06523596 0.057476137 0 1 -0 84 84 84 255
0.29024222 -0.06523596 0.057476137 0 1 -0 84 84 84 255
-0.21304847 -0.06523596 0.07184514 0 1 -0 84 84 84 255
0.2161362 -0.06523596 0.07184514 0 1 -0 84 84 84 255
-0.21304847 -0.06523596 0.16474836 0 1 -0 84 84 84 255
0.2161362 -0.06523596 0.16474836 0 1 -0 84 84 84 255
0.11393287 -0.06523596 -0.24000001 0 1 -0 84 84 84 255
-0.11084514 -0.06523596 -0.24000001 0 1 -0 84 84 84 255
3 0 1 2
3 1 0 3
3 4 5 6
3 5 4 7
3 8 9 10
3 9 8 11
3 12 13 14
3 13 12 15
3 16 17 18
3 17 16 19
3 20 21 22
3 21 20 23
3 24 25 26
3 25 24 27
3 28 29 30
3 29 28 31
3 32 33 34
3 33 32 35
3 36 37 38
3 37 36 39
3 40 41 42
3 41 40 43
3 43 40 44
3 44 40 45
3 45 40 46
3 45 46 47
3 47 46 48
3 48 46 49
3 47 48 50
3 48 49 51
3 51 49 52
3 50 53 47
3 53 50 52
3 53 52 49
3 53 49 54
3 53 54 55
3 55 54 56
3 55 56 57
3 41 58 59
3 58 41 43
3 60 61 62
3 61 60 63
3 64 65 66
3 65 64 67
3 68 69 70
3 69 68 71
3 72 73 74
3 73 72 75
3 76 77 78
3 77 76 79
3 80 81 82
3 81 80 83
3 84 85 86
3 85 84 87
3 88 89 90
3 89 88 91
3 92 93 94
3 93 92 95
3 96 97 98
3 97 96 99
3 100 101 102
3 101 100 103
3 104 105 106
3 105 104 107
3 108 109 110
3 109 108 111
3 112 113 114
3 113 112 115
3 116 117 118
3 117 116 119
3 120 121 122
3 121 120 123
3 124 125 126
3 125 124 127
3 128 129 130
3 129 128 131
3 132 133 134
3 133 132 135
3 136 137 138
3 137 136 139
3 140 141 142
3 141 140 143
3 144 145 146
3 145 144 147
3 148 149 150
3 149 148 151
3 152 153 154
3 153 152 155
3 156 157 158
3 157 156 159
3 160 161 162
3 161 160 163
3 164 165 166
3 165 164 167
3 168 169 170
3 169 168 171
3 172 173 174
3 173 172 175
3 176 177 178
3 177 176 179
3 180 181 182
3 181 180 183
3 184 185 186
3 185 184 187
3 188 189 190
3 189 188 191
3 192 193 194
3 193 192 195
3 196 197 198
3 197 196 199
3 200 201 202
3 201 200 203
3 204 205 206
3 205 204 207
3 208 209 210
3 209 208 211
3 212 213 214
3 213 212 215
3 216 217 218
3 217 216 219
3 220 221 222
3 221 220 223
3 224 225 226
3 225 224 227
3 228 229 230
3 229 228 231
3 232 233 234
3 233 232 235
3 236 237 238
3 237 236 239
3 240 241 242
3 241 240 243
3 244 245 246
3 245 244 247
3 248 249 250
3 249 248 251
3 252 253 254
3 253 252 255
3 256 257 258
3 257 256 259
3 260 261 262
3 261 260 263
3 264 265 266
3 265 264 267
3 268 269 270
3 269 268 271
3 272 273 274
3 273 272 275
3 276 277 278
3 277 276 279
3 280 281 282
3 281 280 283
3 284 285 286
3 285 284 287
3 288 289 290
3 289 288 291
3 291 288 292
3 292 288 293
3 293 288 294
3 293 294 295
3 295 294 296
3 295 296 297
3 297 296 298
3 297 298 299
3 299 298 300
3 299 300 301
3 289 302 303
3 302 289 291

