ply
format ascii 1.0
commentY29udmVydGVyIGJ5IENvZGVMZW9wYXJk
comment Original mesh name: 'C:\Program Files (x86)\Steam\steamapps\common\Stormworks\rom\meshes\component_button_2_side_dynamic.mesh'
comment SubMesh index: 0
comment SubMesh name: 'ID3'
comment Shader: Emissive (2)
element vertex 40
property float x
property float y
property float z
property float nx
property float ny
property float nz
property uchar red
property uchar green
property uchar blue
property uchar alpha
element face 20
property list uchar ushort vertex_index
end_header
0.055549998 -0.055549998 -0.12509999 -9.966712E-15 -0 1 255 255 0 255
-0.055549998 0.055549998 -0.12509999 -9.966712E-15 -0 1 255 255 0 255
-0.055549998 -0.055549998 -0.12509999 -9.966712E-15 -0 1 255 255 0 255
0.055549998 0.055549998 -0.12509999 -9.966712E-15 -0 1 255 255 0 255
-0.055549998 0.055549998 -0.12509999 1 -0 4.3326936E-13 255 255 0 255
-0.055549998 -0.055549998 -0.10489999 1 -0 4.3326936E-13 255 255 0 255
-0.055549998 -0.055549998 -0.12509999 1 -0 4.3326936E-13 255 255 0 255
-0.055549998 0.055549998 -0.10489999 1 -0 4.3326936E-13 255 255 0 255
0.055549998 -0.055549998 -0.10489999 0 1 -0 255 255 0 255
-0.055549998 -0.055549998 -0.12509999 0 1 -0 255 255 0 255
-0.055549998 -0.055549998 -0.10489999 0 1 -0 255 255 0 255
0.055549998 -0.055549998 -0.12509999 0 1 -0 255 255 0 255
0.055549998 0.055549998 -0.10489999 -1 -0 -1.4450476E-13 255 255 0 255
0.055549998 -0.055549998 -0.12509999 -1 -0 -1.4450476E-13 255 255 0 255
0.055549998 -0.055549998 -0.10489999 -1 -0 -1.4450476E-13 255 255 0 255
0.055549998 0.055549998 -0.12509999 -1 -0 -1.4450476E-13 255 255 0 255
-0.055549998 0.055549998 -0.12509999 0 -1 -0 255 255 0 255
0.055549998 0.055549998 -0.10489999 0 -1 -0 255 255 0 255
-0.055549998 0.055549998 -0.10489999 0 -1 -0 255 255 0 255
0.055549998 0.055549998 -0.12509999 0 -1 -0 255 255 0 255
-0.055549998 -0.055549998 0.12509999 9.8442466E-15 -0 -1 255 255 0 255
0.055549998 0.055549998 0.12509999 9.8442466E-15 -0 -1 255 255 0 255
0.055549998 -0.055549998 0.12509999 9.8442466E-15 -0 -1 255 255 0 255
-0.055549998 0.055549998 0.12509999 9.8442466E-15 -0 -1 255 255 0 255
0.055549998 0.055549998 0.12509999 -1 -0 -4.331469E-13 255 255 0 255
0.055549998 -0.055549998 0.10489999 -1 -0 -4.331469E-13 255 255 0 255
0.055549998 -0.055549998 0.12509999 -1 -0 -4.331469E-13 255 255 0 255
0.055549998 0.055549998 0.10489999 -1 -0 -4.331469E-13 255 255 0 255
-0.055549998 -0.055549998 0.10489999 0 1 -0 255 255 0 255
0.055549998 -0.055549998 0.12509999 0 1 -0 255 255 0 255
0.055549998 -0.055549998 0.10489999 0 1 -0 255 255 0 255
-0.055549998 -0.055549998 0.12509999 0 1 -0 255 255 0 255
-0.055549998 0.055549998 0.10489999 1 -0 1.443823E-13 255 255 0 255
-0.055549998 -0.055549998 0.12509999 1 -0 1.443823E-13 255 255 0 255
-0.055549998 -0.055549998 0.10489999 1 -0 1.443823E-13 255 255 0 255
-0.055549998 0.055549998 0.12509999 1 -0 1.443823E-13 255 255 0 255
0.055549998 0.055549998 0.12509999 0 -1 -0 255 255 0 255
-0.055549998 0.055549998 0.10489999 0 -1 -0 255 255 0 255
0.055549998 0.055549998 0.10489999 0 -1 -0 255 255 0 255
-0.055549998 0.055549998 0.12509999 0 -1 -0 255 255 0 255
3 0 1 2
3 1 0 3
3 4 5 6
3 5 4 7
3 8 9 10
3 9 8 11
3 12 13 14
3 13 12 15
3 16 17 18
3 17 16 19
3 20 21 22
3 21 20 23
3 24 25 26
3 25 24 27
3 28 29 30
3 29 28 31
3 32 33 34
3 33 32 35
3 36 37 38
3 37 36 39

