ply
format ascii 1.0
commentY29udmVydGVyIGJ5IENvZGVMZW9wYXJk
comment Original mesh name: 'C:\Program Files (x86)\Steam\steamapps\common\Stormworks\rom\meshes\component_railing_segment_middle.mesh'
comment SubMesh index: 0
comment SubMesh name: 'ID29'
comment Shader: Opaque (0)
element vertex 354
property float x
property float y
property float z
property float nx
property float ny
property float nz
property uchar red
property uchar green
property uchar blue
property uchar alpha
element face 222
property list uchar ushort vertex_index
end_header
0.12471912 0 0.86 -1 -0 2.406371E-13 255 125 0 255
0.12471912 0 0.79999995 -1 -0 2.406371E-13 255 125 0 255
0.12471912 -0.030000007 0.8300001 -1 -0 2.406371E-13 255 125 0 255
0.12471912 0.029999986 0.8300001 -1 -0 2.406371E-13 255 125 0 255
-0.124999985 0 0.79999995 1 -0 2.406371E-13 255 125 0 255
-0.124999985 0 0.86 1 -0 2.406371E-13 255 125 0 255
-0.124999985 -0.030000007 0.8300001 1 -0 2.406371E-13 255 125 0 255
-0.124999985 0.029999986 0.8300001 1 -0 2.406371E-13 255 125 0 255
-0.06378003 -0.022500008 0.50699997 0.70710677 -1.3741699E-15 -0.70710677 255 125 0 255
-0.0001404318 -0.04500001 0.57063967 0.70710677 -1.3741699E-15 -0.70710677 255 125 0 255
-0.06378003 -0.04500001 0.50699997 0.70710677 -1.3741699E-15 -0.70710677 255 125 0 255
-0.029999984 -0.029859576 0.5407799 0.70710677 -1.3741699E-15 -0.70710677 255 125 0 255
-0.041280046 0 0.5295 0.70710677 -1.3741699E-15 -0.70710677 255 125 0 255
-0.029999984 0.029859556 0.5407799 0.70710677 -1.3741699E-15 -0.70710677 255 125 0 255
-0.06378003 0.022499982 0.50699997 0.70710677 -1.3741699E-15 -0.70710677 255 125 0 255
-0.06378003 0.044999983 0.50699997 0.70710677 -1.3741699E-15 -0.70710677 255 125 0 255
-0.0001404318 0.029859556 0.57063967 0.70710677 -1.3741699E-15 -0.70710677 255 125 0 255
-0.0001404318 0.044999983 0.57063967 0.70710677 -1.3741699E-15 -0.70710677 255 125 0 255
-0.0001404318 -0.029859576 0.57063967 0.70710677 -1.3741699E-15 -0.70710677 255 125 0 255
-0.0001404318 0.044999983 0.57063967 -0.70710677 4.7936152E-17 -0.70710677 255 125 0 255
0.029719139 0.029859556 0.5407799 -0.70710677 4.7936152E-17 -0.70710677 255 125 0 255
-0.0001404318 0.029859556 0.57063967 -0.70710677 4.7936152E-17 -0.70710677 255 125 0 255
-0.0001404318 -0.029859576 0.57063967 -0.70710677 4.7936152E-17 -0.70710677 255 125 0 255
0.06349918 -0.04500001 0.50699997 -0.70710677 4.7936152E-17 -0.70710677 255 125 0 255
-0.0001404318 -0.04500001 0.57063967 -0.70710677 4.7936152E-17 -0.70710677 255 125 0 255
0.029719139 -0.029859576 0.5407799 -0.70710677 4.7936152E-17 -0.70710677 255 125 0 255
0.06349918 -0.022500008 0.50699997 -0.70710677 4.7936152E-17 -0.70710677 255 125 0 255
0.040999178 0 0.5295 -0.70710677 4.7936152E-17 -0.70710677 255 125 0 255
0.06349918 0.022499982 0.50699997 -0.70710677 4.7936152E-17 -0.70710677 255 125 0 255
0.06349918 0.044999983 0.50699997 -0.70710677 4.7936152E-17 -0.70710677 255 125 0 255
-0.06378003 -0.04500001 0.50699997 0 1 -0 255 125 0 255
0.06349918 -0.04500001 0.50699997 0 1 -0 255 125 0 255
-0.0001404318 -0.04500001 0.4433603 0 1 -0 255 125 0 255
-0.0001404318 -0.04500001 0.57063967 0 1 -0 255 125 0 255
-0.06378003 0.044999983 0.50699997 0.70710677 -1.5257949E-28 0.70710677 255 125 0 255
-0.0001404318 0.029859556 0.4433603 0.70710677 -1.5257949E-28 0.70710677 255 125 0 255
-0.0001404318 0.044999983 0.4433603 0.70710677 -1.5257949E-28 0.70710677 255 125 0 255
-0.029999984 0.029859556 0.47322 0.70710677 -1.5257949E-28 0.70710677 255 125 0 255
-0.041280046 0 0.4844999 0.70710677 -1.5257949E-28 0.70710677 255 125 0 255
-0.029999984 -0.029859576 0.47322 0.70710677 -1.5257949E-28 0.70710677 255 125 0 255
-0.06378003 0.022499982 0.50699997 0.70710677 -1.5257949E-28 0.70710677 255 125 0 255
-0.0001404318 -0.04500001 0.4433603 0.70710677 -1.5257949E-28 0.70710677 255 125 0 255
-0.0001404318 -0.029859576 0.4433603 0.70710677 -1.5257949E-28 0.70710677 255 125 0 255
-0.06378003 -0.04500001 0.50699997 0.70710677 -1.5257949E-28 0.70710677 255 125 0 255
-0.06378003 -0.022500008 0.50699997 0.70710677 -1.5257949E-28 0.70710677 255 125 0 255
-0.06378003 -0.022500008 0.50699997 -3.7619254E-13 0.70710677 -0.70710677 255 125 0 255
-0.124999985 0 0.5295 -3.7619254E-13 0.70710677 -0.70710677 255 125 0 255
-0.041280046 0 0.5295 -3.7619254E-13 0.70710677 -0.70710677 255 125 0 255
-0.124999985 -0.022500008 0.50699997 -3.7619254E-13 0.70710677 -0.70710677 255 125 0 255
-0.124999985 0 0.5295 -3.7618655E-13 -0.70710677 -0.70710677 255 125 0 255
-0.06378003 0.022499982 0.50699997 -3.7618655E-13 -0.70710677 -0.70710677 255 125 0 255
-0.041280046 0 0.5295 -3.7618655E-13 -0.70710677 -0.70710677 255 125 0 255
-0.124999985 0.022499982 0.50699997 -3.7618655E-13 -0.70710677 -0.70710677 255 125 0 255
0.06349918 0.044999983 0.50699997 0 -1 -0 255 125 0 255
-0.06378003 0.044999983 0.50699997 0 -1 -0 255 125 0 255
-0.0001404318 0.044999983 0.4433603 0 -1 -0 255 125 0 255
-0.0001404318 0.044999983 0.57063967 0 -1 -0 255 125 0 255
0.029719139 0.029859556 0.78499997 6.648645E-14 -1 1.238747E-14 255 125 0 255
-0.0001404318 0.029859556 0.57063967 6.648645E-14 -1 1.238747E-14 255 125 0 255
0.029719139 0.029859556 0.5407799 6.648645E-14 -1 1.238747E-14 255 125 0 255
-0.029999984 0.029859556 0.78499997 6.648645E-14 -1 1.238747E-14 255 125 0 255
-0.029999984 0.029859556 0.5407799 6.648645E-14 -1 1.238747E-14 255 125 0 255
-0.029999984 0.029859556 0.5407799 1 1.208845E-14 -8.867966E-15 255 125 0 255
-0.029999984 -0.029859576 0.78499997 1 1.208845E-14 -8.867966E-15 255 125 0 255
-0.029999984 -0.029859576 0.5407799 1 1.208845E-14 -8.867966E-15 255 125 0 255
-0.029999984 0.029859556 0.78499997 1 1.208845E-14 -8.867966E-15 255 125 0 255
-0.029999984 -0.029859576 0.78499997 0 1 -0 255 125 0 255
-0.0001404318 -0.029859576 0.57063967 0 1 -0 255 125 0 255
-0.029999984 -0.029859576 0.5407799 0 1 -0 255 125 0 255
0.029719139 -0.029859576 0.78499997 0 1 -0 255 125 0 255
0.029719139 -0.029859576 0.5407799 0 1 -0 255 125 0 255
0.06349918 -0.022500008 0.50699997 -0.70710677 -2.7422999E-28 0.70710677 255 125 0 255
-0.0001404318 -0.04500001 0.4433603 -0.70710677 -2.7422999E-28 0.70710677 255 125 0 255
0.06349918 -0.04500001 0.50699997 -0.70710677 -2.7422999E-28 0.70710677 255 125 0 255
0.029719139 -0.029859576 0.47322 -0.70710677 -2.7422999E-28 0.70710677 255 125 0 255
0.040999178 0 0.4844999 -0.70710677 -2.7422999E-28 0.70710677 255 125 0 255
0.029719139 0.029859556 0.47322 -0.70710677 -2.7422999E-28 0.70710677 255 125 0 255
0.06349918 0.022499982 0.50699997 -0.70710677 -2.7422999E-28 0.70710677 255 125 0 255
0.06349918 0.044999983 0.50699997 -0.70710677 -2.7422999E-28 0.70710677 255 125 0 255
-0.0001404318 0.029859556 0.4433603 -0.70710677 -2.7422999E-28 0.70710677 255 125 0 255
-0.0001404318 0.044999983 0.4433603 -0.70710677 -2.7422999E-28 0.70710677 255 125 0 255
-0.0001404318 -0.029859576 0.4433603 -0.70710677 -2.7422999E-28 0.70710677 255 125 0 255
0.040999178 0 0.5295 3.7669065E-13 -0.70710677 -0.70710677 255 125 0 255
0.12471912 0.022499982 0.50699997 3.7669065E-13 -0.70710677 -0.70710677 255 125 0 255
0.12471912 0 0.5295 3.7669065E-13 -0.70710677 -0.70710677 255 125 0 255
0.06349918 0.022499982 0.50699997 3.7669065E-13 -0.70710677 -0.70710677 255 125 0 255
0.12471912 -0.022500008 0.50699997 3.7669065E-13 0.70710677 -0.70710677 255 125 0 255
0.040999178 0 0.5295 3.7669065E-13 0.70710677 -0.70710677 255 125 0 255
0.12471912 0 0.5295 3.7669065E-13 0.70710677 -0.70710677 255 125 0 255
0.06349918 -0.022500008 0.50699997 3.7669065E-13 0.70710677 -0.70710677 255 125 0 255
0.029719139 0.029859556 0.78499997 -1 -0 9.163564E-14 255 125 0 255
0.029719139 -0.029859576 0.5407799 -1 -0 9.163564E-14 255 125 0 255
0.029719139 -0.029859576 0.78499997 -1 -0 9.163564E-14 255 125 0 255
0.029719139 0.029859556 0.5407799 -1 -0 9.163564E-14 255 125 0 255
-0.06378003 0.022499982 0.50699997 3.7619856E-13 -0.70710677 0.70710677 255 125 0 255
-0.124999985 0 0.4844999 3.7619856E-13 -0.70710677 0.70710677 255 125 0 255
-0.041280046 0 0.4844999 3.7619856E-13 -0.70710677 0.70710677 255 125 0 255
-0.124999985 0.022499982 0.50699997 3.7619856E-13 -0.70710677 0.70710677 255 125 0 255
-0.124999985 0 0.4844999 3.7620455E-13 0.70710677 0.70710677 255 125 0 255
-0.06378003 -0.022500008 0.50699997 3.7620455E-13 0.70710677 0.70710677 255 125 0 255
-0.041280046 0 0.4844999 3.7620455E-13 0.70710677 0.70710677 255 125 0 255
-0.124999985 -0.022500008 0.50699997 3.7620455E-13 0.70710677 0.70710677 255 125 0 255
-0.029999984 -0.029859576 0.47322 0 1 -0 255 125 0 255
-0.0001404318 -0.029859576 0.2806395 0 1 -0 255 125 0 255
-0.029999984 -0.029859576 0.25078002 0 1 -0 255 125 0 255
-0.0001404318 -0.029859576 0.4433603 0 1 -0 255 125 0 255
0.029719139 -0.029859576 0.47322 0 1 -0 255 125 0 255
0.029719139 -0.029859576 0.25078002 0 1 -0 255 125 0 255
-0.029999984 0.029859556 0.25078002 1 -2.767812E-31 -6.490844E-15 255 125 0 255
-0.029999984 -0.029859576 0.47322 1 -2.767812E-31 -6.490844E-15 255 125 0 255
-0.029999984 -0.029859576 0.25078002 1 -2.767812E-31 -6.490844E-15 255 125 0 255
-0.029999984 0.029859556 0.47322 1 -2.767812E-31 -6.490844E-15 255 125 0 255
0.029719139 0.029859556 0.47322 8.7641225E-14 -1 -1.85626E-14 255 125 0 255
-0.0001404318 0.029859556 0.2806395 8.7641225E-14 -1 -1.85626E-14 255 125 0 255
0.029719139 0.029859556 0.25078002 8.7641225E-14 -1 -1.85626E-14 255 125 0 255
-0.0001404318 0.029859556 0.4433603 8.7641225E-14 -1 -1.85626E-14 255 125 0 255
-0.029999984 0.029859556 0.47322 8.7641225E-14 -1 -1.85626E-14 255 125 0 255
-0.029999984 0.029859556 0.25078002 8.7641225E-14 -1 -1.85626E-14 255 125 0 255
-0.124999985 0 0.4844999 1 -0 1.893012E-12 255 125 0 255
-0.124999985 0 0.5295 1 -0 1.893012E-12 255 125 0 255
-0.124999985 -0.022500008 0.50699997 1 -0 1.893012E-12 255 125 0 255
-0.124999985 0.022499982 0.50699997 1 -0 1.893012E-12 255 125 0 255
0.06349918 -0.022500008 0.50699997 -3.7669065E-13 0.70710677 0.70710677 255 125 0 255
0.12471912 0 0.4844999 -3.7669065E-13 0.70710677 0.70710677 255 125 0 255
0.040999178 0 0.4844999 -3.7669065E-13 0.70710677 0.70710677 255 125 0 255
0.12471912 -0.022500008 0.50699997 -3.7669065E-13 0.70710677 0.70710677 255 125 0 255
0.12471912 0 0.4844999 -3.7667864E-13 -0.70710677 0.70710677 255 125 0 255
0.06349918 0.022499982 0.50699997 -3.7667864E-13 -0.70710677 0.70710677 255 125 0 255
0.040999178 0 0.4844999 -3.7667864E-13 -0.70710677 0.70710677 255 125 0 255
0.12471912 0.022499982 0.50699997 -3.7667864E-13 -0.70710677 0.70710677 255 125 0 255
0.029719139 0.029859556 0.47322 -1 -0 1.038535E-13 255 125 0 255
0.029719139 -0.029859576 0.25078002 -1 -0 1.038535E-13 255 125 0 255
0.029719139 -0.029859576 0.47322 -1 -0 1.038535E-13 255 125 0 255
0.029719139 0.029859556 0.25078002 -1 -0 1.038535E-13 255 125 0 255
0.12471912 0 0.5295 -1 -0 1.893012E-12 255 125 0 255
0.12471912 0 0.4844999 -1 -0 1.893012E-12 255 125 0 255
0.12471912 -0.022500008 0.50699997 -1 -0 1.893012E-12 255 125 0 255
0.12471912 0.022499982 0.50699997 -1 -0 1.893012E-12 255 125 0 255
-0.0001404318 0.044999983 0.2806395 -0.70710677 1.5978719E-17 -0.70710677 255 125 0 255
0.029719139 0.029859556 0.25078002 -0.70710677 1.5978719E-17 -0.70710677 255 125 0 255
-0.0001404318 0.029859556 0.2806395 -0.70710677 1.5978719E-17 -0.70710677 255 125 0 255
-0.0001404318 -0.029859576 0.2806395 -0.70710677 1.5978719E-17 -0.70710677 255 125 0 255
0.06349918 -0.04500001 0.21700007 -0.70710677 1.5978719E-17 -0.70710677 255 125 0 255
-0.0001404318 -0.04500001 0.2806395 -0.70710677 1.5978719E-17 -0.70710677 255 125 0 255
0.029719139 -0.029859576 0.25078002 -0.70710677 1.5978719E-17 -0.70710677 255 125 0 255
0.06349918 -0.022500008 0.21700007 -0.70710677 1.5978719E-17 -0.70710677 255 125 0 255
0.040999178 0 0.2394999 -0.70710677 1.5978719E-17 -0.70710677 255 125 0 255
0.06349918 0.022499982 0.21700007 -0.70710677 1.5978719E-17 -0.70710677 255 125 0 255
0.06349918 0.044999983 0.21700007 -0.70710677 1.5978719E-17 -0.70710677 255 125 0 255
-0.06378003 -0.022500008 0.21700007 0.70710677 -1.5036199E-28 -0.70710677 255 125 0 255
-0.0001404318 -0.04500001 0.2806395 0.70710677 -1.5036199E-28 -0.70710677 255 125 0 255
-0.06378003 -0.04500001 0.21700007 0.70710677 -1.5036199E-28 -0.70710677 255 125 0 255
-0.029999984 -0.029859576 0.25078002 0.70710677 -1.5036199E-28 -0.70710677 255 125 0 255
-0.041280046 0 0.2394999 0.70710677 -1.5036199E-28 -0.70710677 255 125 0 255
-0.029999984 0.029859556 0.25078002 0.70710677 -1.5036199E-28 -0.70710677 255 125 0 255
-0.06378003 0.022499982 0.21700007 0.70710677 -1.5036199E-28 -0.70710677 255 125 0 255
-0.06378003 0.044999983 0.21700007 0.70710677 -1.5036199E-28 -0.70710677 255 125 0 255
-0.0001404318 0.029859556 0.2806395 0.70710677 -1.5036199E-28 -0.70710677 255 125 0 255
-0.0001404318 0.044999983 0.2806395 0.70710677 -1.5036199E-28 -0.70710677 255 125 0 255
-0.0001404318 -0.029859576 0.2806395 0.70710677 -1.5036199E-28 -0.70710677 255 125 0 255
0.06349918 -0.022500008 0.21700007 -0.70710677 -6.880435E-14 0.70710677 255 125 0 255
-0.0001404318 -0.04500001 0.15336038 -0.70710677 -6.880435E-14 0.70710677 255 125 0 255
0.06349918 -0.04500001 0.21700007 -0.70710677 -6.880435E-14 0.70710677 255 125 0 255
0.029719139 -0.029859576 0.18321984 -0.70710677 -6.880435E-14 0.70710677 255 125 0 255
0.040999178 0 0.19449998 -0.70710677 -6.880435E-14 0.70710677 255 125 0 255
0.029719139 0.029859556 0.18321984 -0.70710677 -6.880435E-14 0.70710677 255 125 0 255
0.06349918 0.022499982 0.21700007 -0.70710677 -6.880435E-14 0.70710677 255 125 0 255
0.06349918 0.044999983 0.21700007 -0.70710677 -6.880435E-14 0.70710677 255 125 0 255
-0.0001404318 0.029859556 0.15336038 -0.70710677 -6.880435E-14 0.70710677 255 125 0 255
-0.0001404318 0.044999983 0.15336038 -0.70710677 -6.880435E-14 0.70710677 255 125 0 255
-0.0001404318 -0.029859576 0.15336038 -0.70710677 -6.880435E-14 0.70710677 255 125 0 255
0.12471912 0.022499982 0.21700007 3.7438043E-13 -0.70710677 -0.70710677 255 125 0 255
0.040999178 0 0.2394999 3.7438043E-13 -0.70710677 -0.70710677 255 125 0 255
0.06349918 0.022499982 0.21700007 3.7438043E-13 -0.70710677 -0.70710677 255 125 0 255
0.12471912 0.011249989 0.22824998 3.7438043E-13 -0.70710677 -0.70710677 255 125 0 255
0.12471912 0 0.2394999 3.7438043E-13 -0.70710677 -0.70710677 255 125 0 255
0.040999178 0 0.2394999 3.7436845E-13 0.70710677 -0.70710677 255 125 0 255
0.12471912 -0.022500008 0.21700007 3.7436845E-13 0.70710677 -0.70710677 255 125 0 255
0.06349918 -0.022500008 0.21700007 3.7436845E-13 0.70710677 -0.70710677 255 125 0 255
0.12471912 0 0.2394999 3.7436845E-13 0.70710677 -0.70710677 255 125 0 255
-0.06378003 -0.04500001 0.21700007 0 1 -0 255 125 0 255
0.06349918 -0.04500001 0.21700007 0 1 -0 255 125 0 255
-0.0001404318 -0.04500001 0.15336038 0 1 -0 255 125 0 255
-0.0001404318 -0.04500001 0.2806395 0 1 -0 255 125 0 255
0.06349918 0.044999983 0.21700007 0 -1 -0 255 125 0 255
-0.06378003 0.044999983 0.21700007 0 -1 -0 255 125 0 255
-0.0001404318 0.044999983 0.15336038 0 -1 -0 255 125 0 255
-0.0001404318 0.044999983 0.2806395 0 -1 -0 255 125 0 255
-0.06378003 0.044999983 0.21700007 0.70710677 1.6381008E-28 0.70710677 255 125 0 255
-0.0001404318 0.029859556 0.15336038 0.70710677 1.6381008E-28 0.70710677 255 125 0 255
-0.0001404318 0.044999983 0.15336038 0.70710677 1.6381008E-28 0.70710677 255 125 0 255
-0.029999984 0.029859556 0.18321984 0.70710677 1.6381008E-28 0.70710677 255 125 0 255
-0.041280046 0 0.19449998 0.70710677 1.6381008E-28 0.70710677 255 125 0 255
-0.029999984 -0.029859576 0.18321984 0.70710677 1.6381008E-28 0.70710677 255 125 0 255
-0.06378003 0.022499982 0.21700007 0.70710677 1.6381008E-28 0.70710677 255 125 0 255
-0.0001404318 -0.04500001 0.15336038 0.70710677 1.6381008E-28 0.70710677 255 125 0 255
-0.0001404318 -0.029859576 0.15336038 0.70710677 1.6381008E-28 0.70710677 255 125 0 255
-0.06378003 -0.04500001 0.21700007 0.70710677 1.6381008E-28 0.70710677 255 125 0 255
-0.06378003 -0.022500008 0.21700007 0.70710677 1.6381008E-28 0.70710677 255 125 0 255
-0.124999985 -0.022500008 0.21700007 -3.7437444E-13 0.70710677 -0.70710677 255 125 0 255
-0.041280046 0 0.2394999 -3.7437444E-13 0.70710677 -0.70710677 255 125 0 255
-0.06378003 -0.022500008 0.21700007 -3.7437444E-13 0.70710677 -0.70710677 255 125 0 255
-0.124999985 0 0.2394999 -3.7437444E-13 0.70710677 -0.70710677 255 125 0 255
-0.041280046 0 0.2394999 -3.7438043E-13 -0.70710677 -0.70710677 255 125 0 255
-0.124999985 0.022499982 0.21700007 -3.7438043E-13 -0.70710677 -0.70710677 255 125 0 255
-0.06378003 0.022499982 0.21700007 -3.7438043E-13 -0.70710677 -0.70710677 255 125 0 255
-0.124999985 0 0.2394999 -3.7438043E-13 -0.70710677 -0.70710677 255 125 0 255
0.12471912 0 0.19449998 -3.7436243E-13 0.70710677 0.70710677 255 125 0 255
0.06349918 -0.022500008 0.21700007 -3.7436243E-13 0.70710677 0.70710677 255 125 0 255
0.12471912 -0.022500008 0.21700007 -3.7436243E-13 0.70710677 0.70710677 255 125 0 255
0.040999178 0 0.19449998 -3.7436243E-13 0.70710677 0.70710677 255 125 0 255
0.06349918 0.022499982 0.21700007 -3.7437444E-13 -0.70710677 0.70710677 255 125 0 255
0.12471912 0 0.19449998 -3.7437444E-13 -0.70710677 0.70710677 255 125 0 255
0.12471912 0.022499982 0.21700007 -3.7437444E-13 -0.70710677 0.70710677 255 125 0 255
0.040999178 0 0.19449998 -3.7437444E-13 -0.70710677 0.70710677 255 125 0 255
0.029719139 0.029859556 0.18321984 0 -1 -0 255 125 0 255
-0.029999984 0.029859556 -0.125 0 -1 -0 255 125 0 255
0.029719139 0.029859556 -0.125 0 -1 -0 255 125 0 255
-0.0001404318 0.029859556 0.15336038 0 -1 -0 255 125 0 255
-0.029999984 0.029859556 0.18321984 0 -1 -0 255 125 0 255
0.029719139 0.029859556 0.18321984 -1 -3.6341768E-26 1.05398797E-13 255 125 0 255
0.029719139 -0.029859576 -0.125 -1 -3.6341768E-26 1.05398797E-13 255 125 0 255
0.029719139 -0.029859576 0.18321984 -1 -3.6341768E-26 1.05398797E-13 255 125 0 255
0.029719139 0.029859556 -0.125 -1 -3.6341768E-26 1.05398797E-13 255 125 0 255
-0.029999984 -0.029859576 0.18321984 0 1 -0 255 125 0 255
-0.0001404318 -0.029859576 0.15336038 0 1 -0 255 125 0 255
-0.029999984 -0.029859576 -0.125 0 1 -0 255 125 0 255
0.029719139 -0.029859576 0.18321984 0 1 -0 255 125 0 255
0.029719139 -0.029859576 -0.125 0 1 -0 255 125 0 255
0.12471912 0 0.2394999 -1 -5.3474922E-15 1.91975E-12 255 125 0 255
0.12471912 0 0.19449998 -1 -5.3474922E-15 1.91975E-12 255 125 0 255
0.12471912 -0.022500008 0.21700007 -1 -5.3474922E-15 1.91975E-12 255 125 0 255
0.12471912 0.011249989 0.22824998 -1 -5.3474922E-15 1.91975E-12 255 125 0 255
0.12471912 0.022499982 0.21700007 -1 -5.3474922E-15 1.91975E-12 255 125 0 255
-0.06378003 0.022499982 0.21700007 3.7437444E-13 -0.70710677 0.70710677 255 125 0 255
-0.124999985 0 0.19449998 3.7437444E-13 -0.70710677 0.70710677 255 125 0 255
-0.041280046 0 0.19449998 3.7437444E-13 -0.70710677 0.70710677 255 125 0 255
-0.124999985 0.022499982 0.21700007 3.7437444E-13 -0.70710677 0.70710677 255 125 0 255
-0.124999985 0 0.19449998 3.7436845E-13 0.70710677 0.70710677 255 125 0 255
-0.06378003 -0.022500008 0.21700007 3.7436845E-13 0.70710677 0.70710677 255 125 0 255
-0.041280046 0 0.19449998 3.7436845E-13 0.70710677 0.70710677 255 125 0 255
-0.124999985 -0.022500008 0.21700007 3.7436845E-13 0.70710677 0.70710677 255 125 0 255
-0.029999984 0.029859556 -0.125 1 -0 -4.684391E-15 255 125 0 255
-0.029999984 -0.029859576 0.18321984 1 -0 -4.684391E-15 255 125 0 255
-0.029999984 -0.029859576 -0.125 1 -0 -4.684391E-15 255 125 0 255
-0.029999984 0.029859556 0.18321984 1 -0 -4.684391E-15 255 125 0 255
-0.124999985 0 0.19449998 1 -0 1.925097E-12 255 125 0 255
-0.124999985 0 0.2394999 1 -0 1.925097E-12 255 125 0 255
-0.124999985 -0.022500008 0.21700007 1 -0 1.925097E-12 255 125 0 255
-0.124999985 0.022499982 0.21700007 1 -0 1.925097E-12 255 125 0 255
-0.029999984 0.029859556 -0.125 0 -0 1 255 125 0 255
0.029719139 -0.029859576 -0.125 0 -0 1 255 125 0 255
0.029719139 0.029859556 -0.125 0 -0 1 255 125 0 255
-0.029999984 -0.029859576 -0.125 0 -0 1 255 125 0 255
-0.045140427 0 0.86 -6.392998E-14 -0.70710677 -0.70710677 255 125 0 255
-0.124999985 0.029999986 0.8300001 -6.392998E-14 -0.70710677 -0.70710677 255 125 0 255
-0.045140427 0.029999986 0.8300001 -6.392998E-14 -0.70710677 -0.70710677 255 125 0 255
-0.124999985 0 0.86 -6.392998E-14 -0.70710677 -0.70710677 255 125 0 255
-0.124999985 0 0.86 6.392998E-14 0.70710677 0.70710677 255 125 0 255
-0.045140427 0 0.86 6.392998E-14 0.70710677 0.70710677 255 125 0 255
-0.124999985 0.029999986 0.8300001 6.392998E-14 0.70710677 0.70710677 255 125 0 255
-0.045140427 0.029999986 0.8300001 6.392998E-14 0.70710677 0.70710677 255 125 0 255
-0.045140427 0.029999986 0.8300001 6.3922046E-14 -0.70710677 0.70710677 255 125 0 255
-0.124999985 0 0.79999995 6.3922046E-14 -0.70710677 0.70710677 255 125 0 255
-0.045140427 0 0.79999995 6.3922046E-14 -0.70710677 0.70710677 255 125 0 255
-0.124999985 0.029999986 0.8300001 6.3922046E-14 -0.70710677 0.70710677 255 125 0 255
-0.124999985 0.029999986 0.8300001 -6.3922046E-14 0.70710677 -0.70710677 255 125 0 255
-0.045140427 0.029999986 0.8300001 -6.3922046E-14 0.70710677 -0.70710677 255 125 0 255
-0.124999985 0 0.79999995 -6.3922046E-14 0.70710677 -0.70710677 255 125 0 255
-0.045140427 0 0.79999995 -6.3922046E-14 0.70710677 -0.70710677 255 125 0 255
-0.124999985 -0.030000007 0.8300001 -6.3922046E-14 0.70710677 -0.70710677 255 125 0 255
-0.045140427 0 0.86 -6.3922046E-14 0.70710677 -0.70710677 255 125 0 255
-0.045140427 -0.030000007 0.8300001 -6.3922046E-14 0.70710677 -0.70710677 255 125 0 255
-0.124999985 0 0.86 -6.3922046E-14 0.70710677 -0.70710677 255 125 0 255
-0.124999985 0 0.86 6.3922046E-14 -0.70710677 0.70710677 255 125 0 255
-0.124999985 -0.030000007 0.8300001 6.3922046E-14 -0.70710677 0.70710677 255 125 0 255
-0.045140427 0 0.86 6.3922046E-14 -0.70710677 0.70710677 255 125 0 255
-0.045140427 -0.030000007 0.8300001 6.3922046E-14 -0.70710677 0.70710677 255 125 0 255
-0.124999985 0 0.79999995 6.3922046E-14 0.70710677 0.70710677 255 125 0 255
-0.045140427 -0.030000007 0.8300001 6.3922046E-14 0.70710677 0.70710677 255 125 0 255
-0.045140427 0 0.79999995 6.3922046E-14 0.70710677 0.70710677 255 125 0 255
-0.124999985 -0.030000007 0.8300001 6.3922046E-14 0.70710677 0.70710677 255 125 0 255
-0.124999985 -0.030000007 0.8300001 -6.3922046E-14 -0.70710677 -0.70710677 255 125 0 255
-0.124999985 0 0.79999995 -6.3922046E-14 -0.70710677 -0.70710677 255 125 0 255
-0.045140427 -0.030000007 0.8300001 -6.3922046E-14 -0.70710677 -0.70710677 255 125 0 255
-0.045140427 0 0.79999995 -6.3922046E-14 -0.70710677 -0.70710677 255 125 0 255
-0.045140427 -0.04500001 0.78499997 1 1.313614E-30 4.812743E-14 255 125 0 255
-0.045140427 -0.030000007 0.8300001 1 1.313614E-30 4.812743E-14 255 125 0 255
-0.045140427 -0.04500001 0.875 1 1.313614E-30 4.812743E-14 255 125 0 255
-0.045140427 0 0.79999995 1 1.313614E-30 4.812743E-14 255 125 0 255
-0.045140427 0.044999983 0.78499997 1 1.313614E-30 4.812743E-14 255 125 0 255
-0.045140427 0.029999986 0.8300001 1 1.313614E-30 4.812743E-14 255 125 0 255
-0.045140427 0 0.86 1 1.313614E-30 4.812743E-14 255 125 0 255
-0.045140427 0.044999983 0.875 1 1.313614E-30 4.812743E-14 255 125 0 255
-0.045140427 -0.04500001 0.875 4.852849E-13 3.919618E-30 -1 255 125 0 255
0.044859566 0.044999983 0.875 4.852849E-13 3.919618E-30 -1 255 125 0 255
0.044859566 -0.04500001 0.875 4.852849E-13 3.919618E-30 -1 255 125 0 255
-0.045140427 0.044999983 0.875 4.852849E-13 3.919618E-30 -1 255 125 0 255
-0.045140427 -0.04500001 0.875 8.0212385E-15 1 -8.0212385E-15 255 125 0 255
0.044859566 -0.04500001 0.78499997 8.0212385E-15 1 -8.0212385E-15 255 125 0 255
-0.045140427 -0.04500001 0.78499997 8.0212385E-15 1 -8.0212385E-15 255 125 0 255
0.044859566 -0.04500001 0.875 8.0212385E-15 1 -8.0212385E-15 255 125 0 255
0.044859566 0.044999983 0.78499997 -4.852849E-13 -0 1 255 125 0 255
0.029719139 0.029859556 0.78499997 -4.852849E-13 -0 1 255 125 0 255
0.044859566 -0.04500001 0.78499997 -4.852849E-13 -0 1 255 125 0 255
-0.045140427 0.044999983 0.78499997 -4.852849E-13 -0 1 255 125 0 255
-0.029999984 0.029859556 0.78499997 -4.852849E-13 -0 1 255 125 0 255
-0.029999984 -0.029859576 0.78499997 -4.852849E-13 -0 1 255 125 0 255
0.029719139 -0.029859576 0.78499997 -4.852849E-13 -0 1 255 125 0 255
-0.045140427 -0.04500001 0.78499997 -4.852849E-13 -0 1 255 125 0 255
0.044859566 0.044999983 0.78499997 0 -1 -0 255 125 0 255
-0.045140427 0.044999983 0.875 0 -1 -0 255 125 0 255
-0.045140427 0.044999983 0.78499997 0 -1 -0 255 125 0 255
0.044859566 0.044999983 0.875 0 -1 -0 255 125 0 255
0.044859566 -0.04500001 0.875 -1 -0 -1.026718E-12 255 125 0 255
0.044859566 -0.030000007 0.8300001 -1 -0 -1.026718E-12 255 125 0 255
0.044859566 -0.04500001 0.78499997 -1 -0 -1.026718E-12 255 125 0 255
0.044859566 0 0.86 -1 -0 -1.026718E-12 255 125 0 255
0.044859566 0.044999983 0.875 -1 -0 -1.026718E-12 255 125 0 255
0.044859566 0.029999986 0.8300001 -1 -0 -1.026718E-12 255 125 0 255
0.044859566 0 0.79999995 -1 -0 -1.026718E-12 255 125 0 255
0.044859566 0.044999983 0.78499997 -1 -0 -1.026718E-12 255 125 0 255
0.044859566 -0.030000007 0.8300001 -6.3922046E-14 0.70710677 0.70710677 255 125 0 255
0.12471912 0 0.79999995 -6.3922046E-14 0.70710677 0.70710677 255 125 0 255
0.044859566 0 0.79999995 -6.3922046E-14 0.70710677 0.70710677 255 125 0 255
0.12471912 -0.030000007 0.8300001 -6.3922046E-14 0.70710677 0.70710677 255 125 0 255
0.12471912 -0.030000007 0.8300001 6.3922046E-14 -0.70710677 -0.70710677 255 125 0 255
0.044859566 -0.030000007 0.8300001 6.3922046E-14 -0.70710677 -0.70710677 255 125 0 255
0.12471912 0 0.79999995 6.3922046E-14 -0.70710677 -0.70710677 255 125 0 255
0.044859566 0 0.79999995 6.3922046E-14 -0.70710677 -0.70710677 255 125 0 255
0.044859566 0 0.86 6.3922046E-14 0.70710677 -0.70710677 255 125 0 255
0.12471912 -0.030000007 0.8300001 6.3922046E-14 0.70710677 -0.70710677 255 125 0 255
0.044859566 -0.030000007 0.8300001 6.3922046E-14 0.70710677 -0.70710677 255 125 0 255
0.12471912 0 0.86 6.3922046E-14 0.70710677 -0.70710677 255 125 0 255
0.12471912 0 0.86 -6.3922046E-14 -0.70710677 0.70710677 255 125 0 255
0.044859566 0 0.86 -6.3922046E-14 -0.70710677 0.70710677 255 125 0 255
0.12471912 -0.030000007 0.8300001 -6.3922046E-14 -0.70710677 0.70710677 255 125 0 255
0.044859566 -0.030000007 0.8300001 -6.3922046E-14 -0.70710677 0.70710677 255 125 0 255
0.12471912 0 0.79999995 -6.3922046E-14 -0.70710677 0.70710677 255 125 0 255
0.044859566 0.029999986 0.8300001 -6.3922046E-14 -0.70710677 0.70710677 255 125 0 255
0.044859566 0 0.79999995 -6.3922046E-14 -0.70710677 0.70710677 255 125 0 255
0.12471912 0.029999986 0.8300001 -6.3922046E-14 -0.70710677 0.70710677 255 125 0 255
0.12471912 0.029999986 0.8300001 6.3922046E-14 0.70710677 -0.70710677 255 125 0 255
0.12471912 0 0.79999995 6.3922046E-14 0.70710677 -0.70710677 255 125 0 255
0.044859566 0.029999986 0.8300001 6.3922046E-14 0.70710677 -0.70710677 255 125 0 255
0.044859566 0 0.79999995 6.3922046E-14 0.70710677 -0.70710677 255 125 0 255
0.12471912 0.029999986 0.8300001 6.3922046E-14 -0.70710677 -0.70710677 255 125 0 255
0.044859566 0 0.86 6.3922046E-14 -0.70710677 -0.70710677 255 125 0 255
0.044859566 0.029999986 0.8300001 6.3922046E-14 -0.70710677 -0.70710677 255 125 0 255
0.12471912 0 0.86 6.3922046E-14 -0.70710677 -0.70710677 255 125 0 255
0.12471912 0 0.86 -6.3922046E-14 0.70710677 0.70710677 255 125 0 255
0.12471912 0.029999986 0.8300001 -6.3922046E-14 0.70710677 0.70710677 255 125 0 255
0.044859566 0 0.86 -6.3922046E-14 0.70710677 0.70710677 255 125 0 255
0.044859566 0.029999986 0.8300001 -6.3922046E-14 0.70710677 0.70710677 255 125 0 255
3 0 1 2
3 1 0 3
3 4 5 6
3 5 4 7
3 8 9 10
3 9 8 11
3 11 8 12
3 11 12 13
3 13 12 14
3 13 14 15
3 13 15 16
3 16 15 17
3 18 9 11
3 19 20 21
3 22 23 24
3 23 22 25
3 23 25 26
3 26 25 27
3 27 25 20
3 27 20 28
3 28 20 29
3 29 20 19
3 30 31 32
3 31 30 33
3 34 35 36
3 35 34 37
3 37 34 38
3 37 38 39
3 38 34 40
3 39 41 42
3 41 39 43
3 43 39 38
3 43 38 44
3 45 46 47
3 46 45 48
3 49 50 51
3 50 49 52
3 53 54 55
3 54 53 56
3 57 58 59
3 58 60 61
3 60 58 57
3 62 63 64
3 63 62 65
3 66 67 68
3 67 66 69
3 69 70 67
3 71 72 73
3 72 71 74
3 74 71 75
3 74 75 76
3 76 75 77
3 76 77 78
3 76 78 79
3 79 78 80
3 81 72 74
3 82 83 84
3 83 82 85
3 86 87 88
3 87 86 89
3 90 91 92
3 91 90 93
3 94 95 96
3 95 94 97
3 98 99 100
3 99 98 101
3 102 103 104
3 103 102 105
3 103 106 107
3 106 103 105
3 108 109 110
3 109 108 111
3 112 113 114
3 113 112 115
3 113 116 117
3 116 113 115
3 118 119 120
3 119 118 121
3 122 123 124
3 123 122 125
3 126 127 128
3 127 126 129
3 130 131 132
3 131 130 133
3 134 135 136
3 135 134 137
3 138 139 140
3 141 142 143
3 142 141 144
3 142 144 145
3 145 144 146
3 146 144 139
3 146 139 147
3 147 139 148
3 148 139 138
3 149 150 151
3 150 149 152
3 152 149 153
3 152 153 154
3 154 153 155
3 154 155 156
3 154 156 157
3 157 156 158
3 159 150 152
3 160 161 162
3 161 160 163
3 163 160 164
3 163 164 165
3 165 164 166
3 165 166 167
3 165 167 168
3 168 167 169
3 170 161 163
3 171 172 173
3 172 171 174
3 172 174 175
3 176 177 178
3 177 176 179
3 180 181 182
3 181 180 183
3 184 185 186
3 185 184 187
3 188 189 190
3 189 188 191
3 191 188 192
3 191 192 193
3 192 188 194
3 193 195 196
3 195 193 197
3 197 193 192
3 197 192 198
3 199 200 201
3 200 199 202
3 203 204 205
3 204 203 206
3 207 208 209
3 208 207 210
3 211 212 213
3 212 211 214
3 215 216 217
3 216 215 218
3 219 216 218
3 220 221 222
3 221 220 223
3 224 225 226
3 226 227 228
3 227 226 225
3 229 230 231
3 230 229 232
3 230 232 233
3 234 235 236
3 235 234 237
3 238 239 240
3 239 238 241
3 242 243 244
3 243 242 245
3 246 247 248
3 247 246 249
3 250 251 252
3 251 250 253
3 254 255 256
3 255 254 257
3 258 259 260
3 261 260 259
3 262 263 264
3 263 262 265
3 266 267 268
3 269 268 267
3 270 271 272
3 271 270 273
3 274 275 276
3 277 276 275
3 278 279 280
3 279 278 281
3 282 283 284
3 285 284 283
3 286 287 288
3 287 286 289
3 289 286 290
3 289 290 291
3 288 292 293
3 292 288 287
3 293 292 291
3 293 291 290
3 294 295 296
3 295 294 297
3 298 299 300
3 299 298 301
3 302 303 304
3 303 302 305
3 303 305 306
3 306 305 307
3 304 308 309
3 308 304 303
3 309 308 307
3 309 307 305
3 310 311 312
3 311 310 313
3 314 315 316
3 315 314 317
3 317 314 318
3 317 318 319
3 316 320 321
3 320 316 315
3 321 320 319
3 321 319 318
3 322 323 324
3 323 322 325
3 326 327 328
3 329 328 327
3 330 331 332
3 331 330 333
3 334 335 336
3 337 336 335
3 338 339 340
3 339 338 341
3 342 343 344
3 345 344 343
3 346 347 348
3 347 346 349
3 350 351 352
3 353 352 351

