ply
format ascii 1.0
commentY29udmVydGVyIGJ5IENvZGVMZW9wYXJk
comment Original mesh name: 'C:\Program Files (x86)\Steam\steamapps\common\Stormworks\rom\meshes\component_window_corner_full_small.mesh'
comment SubMesh index: 0
comment SubMesh name: 'ID2'
comment Shader: Opaque (0)
element vertex 160
property float x
property float y
property float z
property float nx
property float ny
property float nz
property uchar red
property uchar green
property uchar blue
property uchar alpha
element face 70
property list uchar ushort vertex_index
end_header
0.125 -0.105 0.07671574 0 -1 -0 255 125 0 255
0.094999984 -0.105 -0.105 0 -1 -0 255 125 0 255
0.125 -0.105 -0.105 0 -1 -0 255 125 0 255
0.094999984 -0.105 0.07671574 0 -1 -0 255 125 0 255
0.125 0.076715715 -0.105 -2.0000129E-28 0.70710677 0.70710677 255 125 0 255
0.094999984 -0.105 0.07671574 -2.0000129E-28 0.70710677 0.70710677 255 125 0 255
0.125 -0.105 0.07671574 -2.0000129E-28 0.70710677 0.70710677 255 125 0 255
0.094999984 0.076715715 -0.105 -2.0000129E-28 0.70710677 0.70710677 255 125 0 255
0.06499999 -0.105 -0.105 1.203186E-14 -1 -0 255 125 0 255
0.06499999 -0.105 0.07671574 1.203186E-14 -1 -0 255 125 0 255
0.094999984 -0.105 -0.105 0 -0 -1 255 125 0 255
0.125 0.076715715 -0.105 0 -0 -1 255 125 0 255
0.125 -0.105 -0.105 0 -0 -1 255 125 0 255
0.094999984 0.076715715 -0.105 0 -0 -1 255 125 0 255
0.06499999 -0.105 0.07671574 -4.7271507E-15 0.70710677 0.70710677 255 125 0 255
0.06499999 0.076715715 -0.105 -4.7271507E-15 0.70710677 0.70710677 255 125 0 255
0.06499999 -0.105 -0.105 0 -0 -1 255 125 0 255
0.06499999 0.076715715 -0.105 0 -0 -1 255 125 0 255
-0.125 -0.125 0.37499997 -0.57735026 -0.57735026 -0.57735026 55 125 0 255
-0.108670056 0.34234017 -0.108670056 -0.57735026 -0.57735026 -0.57735026 55 125 0 255
-0.108670056 -0.108670056 0.34234017 -0.57735026 -0.57735026 -0.57735026 55 125 0 255
-0.125 0.37499997 -0.12499997 -0.57735026 -0.57735026 -0.57735026 55 125 0 255
0.125 0.125 -0.12499997 -0.5773503 -0.5773503 -0.5773501 55 125 0 255
0.108670056 0.125 -0.108670056 -0.5773503 -0.5773503 -0.5773501 55 125 0 255
0.06499999 0.185 -0.125 -0.5773503 -0.5773503 -0.5773501 55 125 0 255
0.108670056 -0.108670056 0.125 -0.57735026 -0.57735026 -0.57735026 55 125 0 255
0.125 -0.125 0.125 -0.57735026 -0.57735026 -0.57735026 55 125 0 255
0.125 -0.125 0.125 -1 -1.082867E-15 -0 55 125 0 255
0.125 -0.105 0.07671574 -1 -1.082867E-15 -0 55 125 0 255
0.125 -0.125 -0.12499997 -1 -1.082867E-15 -0 55 125 0 255
0.125 0.125 -0.12499997 -1 -1.082867E-15 -0 55 125 0 255
0.125 0.076715715 -0.105 -1 -1.082867E-15 -0 55 125 0 255
0.125 -0.105 -0.105 -1 -1.082867E-15 -0 55 125 0 255
0.048670083 -0.108670056 0.125 0.5773503 0.57734966 0.5773507 255 125 0 255
-0.125 -0.125 0.31499985 0.5773503 0.57734966 0.5773507 255 125 0 255
0.06499999 -0.125 0.125 0.5773503 0.57734966 0.5773507 255 125 0 255
-0.108670056 -0.108670056 0.28234002 0.5773503 0.57734966 0.5773507 255 125 0 255
-0.125 0.30085763 -0.11085783 0.57735 0.5773504 0.5773504 255 125 0 255
0.048670083 0.12718777 -0.11085787 0.57735 0.5773504 0.5773504 255 125 0 255
-0.125 0.31499985 -0.12499997 0.57735 0.5773504 0.5773504 255 125 0 255
-0.108670056 0.28452775 -0.11085783 0.57735 0.5773504 0.5773504 255 125 0 255
0.06499999 0.125 -0.125 0.57735 0.5773504 0.5773504 255 125 0 255
0.07867006 -0.108670056 0.125 -2.690747E-09 -1 -2.69075E-09 255 125 0 255
-0.108670056 -0.108670056 0.28234002 -2.690747E-09 -1 -2.69075E-09 255 125 0 255
0.048670083 -0.108670056 0.125 -2.690747E-09 -1 -2.69075E-09 255 125 0 255
-0.108670056 -0.108670056 0.31234 -2.690747E-09 -1 -2.69075E-09 255 125 0 255
-0.125 -0.125 0.31499985 8.566282E-15 1 9.481487E-15 255 125 0 255
0.125 -0.125 0.125 8.566282E-15 1 9.481487E-15 255 125 0 255
0.06499999 -0.125 0.125 8.566282E-15 1 9.481487E-15 255 125 0 255
-0.125 -0.125 0.37499997 8.566282E-15 1 9.481487E-15 255 125 0 255
0.048670083 0.12718777 -0.11085787 0.03778913 0.0377892 -0.9985709 255 125 0 255
-0.108670056 0.31343395 -0.109763935 0.03778913 0.0377892 -0.9985709 255 125 0 255
0.07867006 0.12609386 -0.10976396 0.03778913 0.0377892 -0.9985709 255 125 0 255
-0.108670056 0.28452775 -0.11085783 0.03778913 0.0377892 -0.9985709 255 125 0 255
0.07867006 0.12609386 -0.10976396 2.549472E-07 -0.7071068 -0.7071067 255 125 0 255
0.048670083 -0.108670056 0.125 2.549472E-07 -0.7071068 -0.7071067 255 125 0 255
0.048670083 0.12718777 -0.11085787 2.549472E-07 -0.7071068 -0.7071067 255 125 0 255
0.07867006 -0.108670056 0.125 2.549472E-07 -0.7071068 -0.7071067 255 125 0 255
0.06499999 -0.125 -0.125 1 9.023893E-16 -2.7113509E-30 255 125 0 255
0.06499999 -0.105 -0.105 1 9.023893E-16 -2.7113509E-30 255 125 0 255
0.06499999 -0.125 0.125 1 9.023893E-16 -2.7113509E-30 255 125 0 255
0.06499999 0.125 -0.125 1 9.023893E-16 -2.7113509E-30 255 125 0 255
0.06499999 0.076715715 -0.105 1 9.023893E-16 -2.7113509E-30 255 125 0 255
0.06499999 -0.105 0.07671574 1 9.023893E-16 -2.7113509E-30 255 125 0 255
0.06499999 0.185 -0.125 8.421053E-08 1.503979E-15 1 255 125 0 255
-0.125 0.31499985 -0.12499997 8.421053E-08 1.503979E-15 1 255 125 0 255
0.06499999 0.125 -0.125 8.421053E-08 1.503979E-15 1 255 125 0 255
-0.125 0.37499997 -0.12499997 8.421053E-08 1.503979E-15 1 255 125 0 255
-0.125 -0.125 0.31499985 1 -1.445688E-15 -2.091167E-15 255 125 0 255
-0.125 0.37499997 -0.12499997 1 -1.445688E-15 -2.091167E-15 255 125 0 255
-0.125 -0.125 0.37499997 1 -1.445688E-15 -2.091167E-15 255 125 0 255
-0.125 0.30085763 -0.11085783 1 -1.445688E-15 -2.091167E-15 255 125 0 255
-0.125 0.31499985 -0.12499997 1 -1.445688E-15 -2.091167E-15 255 125 0 255
0.108670056 -0.108670056 0.125 -2.690778E-09 -1 -2.6907798E-09 255 125 0 255
-0.108670056 -0.108670056 0.34234017 -2.690778E-09 -1 -2.6907798E-09 255 125 0 255
-0.108670056 0.31343395 -0.109763935 -1 -1.161588E-07 -1.12835004E-07 255 125 0 255
-0.108670056 -0.108670056 0.28234002 -1 -1.161588E-07 -1.12835004E-07 255 125 0 255
-0.108670056 -0.108670056 0.31234 -1 -1.161588E-07 -1.12835004E-07 255 125 0 255
-0.108670056 0.28452775 -0.11085783 -1 -1.161588E-07 -1.12835004E-07 255 125 0 255
0.125 -0.125 -0.12499997 2.8876462E-22 1 -1.443823E-15 255 125 0 255
0.06499999 -0.125 -0.125 2.8876462E-22 1 -1.443823E-15 255 125 0 255
-0.108670056 0.34234017 -0.108670056 0.03778915 0.03778917 -0.9985709 255 125 0 255
0.108670056 0.125 -0.108670056 0.03778915 0.03778917 -0.9985709 255 125 0 255
0.108670056 0.125 -0.108670056 2.5570648E-07 -0.70710677 -0.70710677 255 125 0 255
0.108670056 -0.108670056 0.125 2.5570648E-07 -0.70710677 -0.70710677 255 125 0 255
-0.108670056 0.34234017 -0.108670056 -1 -1.14961004E-07 -1.139485E-07 255 125 0 255
-0.108670056 -0.108670056 0.34234017 -1 -1.14961004E-07 -1.139485E-07 255 125 0 255
0.125 0.125 -0.12499997 -2.666667E-07 -1.339748E-16 1 255 125 0 255
0.06499999 -0.125 -0.125 -2.666667E-07 -1.339748E-16 1 255 125 0 255
0.125 -0.125 -0.12499997 -2.666667E-07 -1.339748E-16 1 255 125 0 255
0.06499999 0.185 -0.125 -2.666667E-07 -1.339748E-16 1 255 125 0 255
0.06499999 0.125 -0.125 -2.666667E-07 -1.339748E-16 1 255 125 0 255
0.094999984 0.076715715 -0.105 1 9.93188E-16 -1.1563689E-31 160 160 199 128
0.094999984 -0.105 0.07671574 1 9.93188E-16 -1.1563689E-31 160 160 199 128
0.094999984 -0.105 -0.105 1 9.93188E-16 -1.1563689E-31 160 160 199 128
-0.108670056 0.31343395 -0.109763935 0.5773502 0.5773503 0.5773503 160 160 199 128
0.07867006 -0.108670056 0.125 0.5773502 0.5773503 0.5773503 160 160 199 128
0.07867006 0.12609386 -0.10976396 0.5773502 0.5773503 0.5773503 160 160 199 128
-0.108670056 -0.108670056 0.31234 0.5773502 0.5773503 0.5773503 160 160 199 128
-0.108670056 -0.108670056 0.34234017 -0.57735026 -0.57735026 -0.57735026 160 160 199 128
0.108670056 0.125 -0.108670056 -0.57735026 -0.57735026 -0.57735026 160 160 199 128
0.108670056 -0.108670056 0.125 -0.57735026 -0.57735026 -0.57735026 160 160 199 128
-0.108670056 0.34234017 -0.108670056 -0.57735026 -0.57735026 -0.57735026 160 160 199 128
-0.108670056 -0.108670056 0.28234002 -0.5773503 -0.57734966 -0.5773507 160 160 199 128
0.048670083 -0.108670056 0.125 -0.5773503 -0.57734966 -0.5773507 160 160 199 128
-0.125 -0.125 0.31499985 -0.5773503 -0.57734966 -0.5773507 160 160 199 128
0.06499999 -0.125 0.125 -0.5773503 -0.57734966 -0.5773507 160 160 199 128
0.048670083 0.12718777 -0.11085787 -0.57735 -0.5773504 -0.5773504 160 160 199 128
-0.125 0.31499985 -0.12499997 -0.57735 -0.5773504 -0.5773504 160 160 199 128
0.06499999 0.125 -0.125 -0.57735 -0.5773504 -0.5773504 160 160 199 128
-0.108670056 0.28452775 -0.11085783 -0.57735 -0.5773504 -0.5773504 160 160 199 128
-0.125 0.30085763 -0.11085783 -0.57735 -0.5773504 -0.5773504 160 160 199 128
-0.108670056 -0.108670056 0.31234 2.690747E-09 1 2.69075E-09 160 160 199 128
0.07867006 -0.108670056 0.125 2.690747E-09 1 2.69075E-09 160 160 199 128
-0.108670056 -0.108670056 0.28234002 2.690747E-09 1 2.69075E-09 160 160 199 128
0.048670083 -0.108670056 0.125 2.690747E-09 1 2.69075E-09 160 160 199 128
-0.125 -0.125 0.37499997 -8.566282E-15 -1 -9.481487E-15 160 160 199 128
-0.125 -0.125 0.31499985 -8.566282E-15 -1 -9.481487E-15 160 160 199 128
0.125 -0.125 0.125 -8.566282E-15 -1 -9.481487E-15 160 160 199 128
0.06499999 -0.125 0.125 -8.566282E-15 -1 -9.481487E-15 160 160 199 128
-0.108670056 0.28452775 -0.11085783 -0.03778913 -0.0377892 0.9985709 160 160 199 128
0.048670083 0.12718777 -0.11085787 -0.03778913 -0.0377892 0.9985709 160 160 199 128
-0.108670056 0.31343395 -0.109763935 -0.03778913 -0.0377892 0.9985709 160 160 199 128
0.07867006 0.12609386 -0.10976396 -0.03778913 -0.0377892 0.9985709 160 160 199 128
0.07867006 -0.108670056 0.125 -2.549472E-07 0.7071068 0.7071067 160 160 199 128
0.07867006 0.12609386 -0.10976396 -2.549472E-07 0.7071068 0.7071067 160 160 199 128
0.048670083 -0.108670056 0.125 -2.549472E-07 0.7071068 0.7071067 160 160 199 128
0.048670083 0.12718777 -0.11085787 -2.549472E-07 0.7071068 0.7071067 160 160 199 128
0.06499999 0.076715715 -0.105 -1 -9.023893E-16 2.7113509E-30 160 160 199 128
0.06499999 -0.105 0.07671574 -1 -9.023893E-16 2.7113509E-30 160 160 199 128
0.06499999 0.125 -0.125 -1 -9.023893E-16 2.7113509E-30 160 160 199 128
0.06499999 -0.105 -0.105 -1 -9.023893E-16 2.7113509E-30 160 160 199 128
0.06499999 -0.125 0.125 -1 -9.023893E-16 2.7113509E-30 160 160 199 128
0.06499999 -0.125 -0.125 -1 -9.023893E-16 2.7113509E-30 160 160 199 128
-0.125 0.37499997 -0.12499997 -8.421053E-08 -1.503979E-15 -1 160 160 199 128
0.06499999 0.185 -0.125 -8.421053E-08 -1.503979E-15 -1 160 160 199 128
-0.125 0.31499985 -0.12499997 -8.421053E-08 -1.503979E-15 -1 160 160 199 128
0.06499999 0.125 -0.125 -8.421053E-08 -1.503979E-15 -1 160 160 199 128
-0.125 0.31499985 -0.12499997 -1 1.445688E-15 2.091167E-15 160 160 199 128
-0.125 0.30085763 -0.11085783 -1 1.445688E-15 2.091167E-15 160 160 199 128
-0.125 0.37499997 -0.12499997 -1 1.445688E-15 2.091167E-15 160 160 199 128
-0.125 -0.125 0.31499985 -1 1.445688E-15 2.091167E-15 160 160 199 128
-0.125 -0.125 0.37499997 -1 1.445688E-15 2.091167E-15 160 160 199 128
-0.108670056 -0.108670056 0.34234017 2.690778E-09 1 2.6907798E-09 160 160 199 128
0.108670056 -0.108670056 0.125 2.690778E-09 1 2.6907798E-09 160 160 199 128
-0.108670056 0.28452775 -0.11085783 1 1.161588E-07 1.12835004E-07 160 160 199 128
-0.108670056 0.31343395 -0.109763935 1 1.161588E-07 1.12835004E-07 160 160 199 128
-0.108670056 -0.108670056 0.28234002 1 1.161588E-07 1.12835004E-07 160 160 199 128
-0.108670056 -0.108670056 0.31234 1 1.161588E-07 1.12835004E-07 160 160 199 128
0.125 -0.125 -0.12499997 -2.8876462E-22 -1 1.443823E-15 160 160 199 128
0.06499999 -0.125 -0.125 -2.8876462E-22 -1 1.443823E-15 160 160 199 128
-0.108670056 0.34234017 -0.108670056 -0.03778915 -0.03778917 0.9985709 160 160 199 128
0.108670056 0.125 -0.108670056 -0.03778915 -0.03778917 0.9985709 160 160 199 128
0.108670056 -0.108670056 0.125 -2.5570648E-07 0.70710677 0.70710677 160 160 199 128
0.108670056 0.125 -0.108670056 -2.5570648E-07 0.70710677 0.70710677 160 160 199 128
-0.108670056 0.34234017 -0.108670056 1 1.14961004E-07 1.139485E-07 160 160 199 128
-0.108670056 -0.108670056 0.34234017 1 1.14961004E-07 1.139485E-07 160 160 199 128
0.125 0.076715715 -0.105 -1 -7.448909E-16 -0 160 160 199 128
0.125 -0.105 -0.105 -1 -7.448909E-16 -0 160 160 199 128
0.125 -0.105 0.07671574 -1 -7.448909E-16 -0 160 160 199 128
3 0 1 2
3 1 0 3
3 4 5 6
3 5 4 7
3 3 8 1
3 8 3 9
3 10 11 12
3 11 10 13
3 7 14 5
3 14 7 15
3 16 13 10
3 13 16 17
3 18 19 20
3 19 18 21
3 19 22 23
3 22 19 24
3 24 19 21
3 18 25 26
3 25 18 20
3 25 22 26
3 22 25 23
3 27 28 29
3 28 27 30
3 28 30 31
3 29 32 30
3 32 29 28
3 30 32 31
3 33 34 35
3 34 33 36
3 37 38 39
3 38 37 40
3 41 38 35
3 38 41 39
3 35 38 33
3 42 43 44
3 43 42 45
3 37 36 40
3 36 37 34
3 46 47 48
3 47 46 49
3 50 51 52
3 51 50 53
3 54 55 56
3 55 54 57
3 58 59 60
3 59 58 61
3 59 61 62
3 60 63 61
3 63 60 59
3 61 63 62
3 64 65 66
3 65 64 67
3 68 69 70
3 69 68 71
3 69 71 72
3 73 45 42
3 45 73 74
3 75 76 77
3 76 75 78
3 48 79 80
3 79 48 47
3 52 81 82
3 81 52 51
3 83 57 54
3 57 83 84
3 85 77 86
3 77 85 75
3 87 88 89
3 88 87 90
3 88 90 91

