ply
format ascii 1.0
commentY29udmVydGVyIGJ5IENvZGVMZW9wYXJk
comment Original mesh name: 'C:\Program Files (x86)\Steam\steamapps\common\Stormworks\rom\meshes\component_radar_detector.mesh'
comment SubMesh index: 0
comment SubMesh name: 'ID19'
comment Shader: Opaque (0)
element vertex 140
property float x
property float y
property float z
property float nx
property float ny
property float nz
property uchar red
property uchar green
property uchar blue
property uchar alpha
element face 88
property list uchar ushort vertex_index
end_header
0.034126222 -0.08238794 0.20499998 6.5892315E-30 1.8580362E-15 -1 199 199 199 255
0.08238795 0.034126222 0.20499998 6.5892315E-30 1.8580362E-15 -1 199 199 199 255
0.08238795 -0.034126196 0.20499998 6.5892315E-30 1.8580362E-15 -1 199 199 199 255
0.034126222 0.08238795 0.20499998 6.5892315E-30 1.8580362E-15 -1 199 199 199 255
-0.034126196 -0.08238794 0.20499998 6.5892315E-30 1.8580362E-15 -1 199 199 199 255
-0.034126196 0.08238795 0.20499998 6.5892315E-30 1.8580362E-15 -1 199 199 199 255
-0.08238794 0.034126222 0.20499998 6.5892315E-30 1.8580362E-15 -1 199 199 199 255
-0.08238794 -0.034126196 0.20499998 6.5892315E-30 1.8580362E-15 -1 199 199 199 255
-0.034126196 0.08238795 0.105 0 -1 -1.8580362E-15 199 199 199 255
0.034126222 0.08238795 0.20499998 0 -1 -1.8580362E-15 199 199 199 255
-0.034126196 0.08238795 0.20499998 0 -1 -1.8580362E-15 199 199 199 255
0.034126222 0.08238795 0.105 0 -1 -1.8580362E-15 199 199 199 255
0.08238795 0.034126222 0.105 -0.70710677 -0.70710677 -1.3138303E-15 199 199 199 255
0.034126222 0.08238795 0.20499998 -0.70710677 -0.70710677 -1.3138303E-15 199 199 199 255
0.034126222 0.08238795 0.105 -0.70710677 -0.70710677 -1.3138303E-15 199 199 199 255
0.08238795 0.034126222 0.20499998 -0.70710677 -0.70710677 -1.3138303E-15 199 199 199 255
0.08238795 -0.034126196 0.105 -1 -0 -6.589231E-30 199 199 199 255
0.08238795 0.034126222 0.20499998 -1 -0 -6.589231E-30 199 199 199 255
0.08238795 0.034126222 0.105 -1 -0 -6.589231E-30 199 199 199 255
0.08238795 -0.034126196 0.20499998 -1 -0 -6.589231E-30 199 199 199 255
0.034126222 -0.08238794 0.105 -0.70710677 0.70710677 1.3138303E-15 199 199 199 255
0.08238795 -0.034126196 0.20499998 -0.70710677 0.70710677 1.3138303E-15 199 199 199 255
0.08238795 -0.034126196 0.105 -0.70710677 0.70710677 1.3138303E-15 199 199 199 255
0.034126222 -0.08238794 0.20499998 -0.70710677 0.70710677 1.3138303E-15 199 199 199 255
0.034126222 -0.08238794 0.105 0 1 1.8580362E-15 199 199 199 255
-0.034126196 -0.08238794 0.20499998 0 1 1.8580362E-15 199 199 199 255
0.034126222 -0.08238794 0.20499998 0 1 1.8580362E-15 199 199 199 255
-0.034126196 -0.08238794 0.105 0 1 1.8580362E-15 199 199 199 255
-0.034126196 -0.08238794 0.20499998 0.70710677 0.70710677 1.3138303E-15 199 199 199 255
-0.08238794 -0.034126196 0.105 0.70710677 0.70710677 1.3138303E-15 199 199 199 255
-0.08238794 -0.034126196 0.20499998 0.70710677 0.70710677 1.3138303E-15 199 199 199 255
-0.034126196 -0.08238794 0.105 0.70710677 0.70710677 1.3138303E-15 199 199 199 255
-0.08238794 -0.034126196 0.20499998 1 -0 6.589231E-30 199 199 199 255
-0.08238794 0.034126222 0.105 1 -0 6.589231E-30 199 199 199 255
-0.08238794 0.034126222 0.20499998 1 -0 6.589231E-30 199 199 199 255
-0.08238794 -0.034126196 0.105 1 -0 6.589231E-30 199 199 199 255
-0.08238794 0.034126222 0.20499998 0.70710677 -0.70710677 -1.3138303E-15 199 199 199 255
-0.034126196 0.08238795 0.105 0.70710677 -0.70710677 -1.3138303E-15 199 199 199 255
-0.034126196 0.08238795 0.20499998 0.70710677 -0.70710677 -1.3138303E-15 199 199 199 255
-0.08238794 0.034126222 0.105 0.70710677 -0.70710677 -1.3138303E-15 199 199 199 255
-0.034126196 0.08238795 0.20499998 -8.4551664E-18 -0.7409805 -0.6715265 199 199 199 255
0.026618432 0.0642626 0.225 -8.4551664E-18 -0.7409805 -0.6715265 199 199 199 255
-0.026618445 0.0642626 0.225 -8.4551664E-18 -0.7409805 -0.6715265 199 199 199 255
0.034126222 0.08238795 0.20499998 -8.4551664E-18 -0.7409805 -0.6715265 199 199 199 255
0.0642626 0.026618432 0.225 -0.52395236 -0.52395236 -0.67152655 199 199 199 255
0.034126222 0.08238795 0.20499998 -0.52395236 -0.52395236 -0.67152655 199 199 199 255
0.08238795 0.034126222 0.20499998 -0.52395236 -0.52395236 -0.67152655 199 199 199 255
0.026618432 0.0642626 0.225 -0.52395236 -0.52395236 -0.67152655 199 199 199 255
0.08238795 -0.034126196 0.20499998 -0.7409805 1.5021962E-15 -0.6715265 199 199 199 255
0.0642626 0.026618432 0.225 -0.7409805 1.5021962E-15 -0.6715265 199 199 199 255
0.08238795 0.034126222 0.20499998 -0.7409805 1.5021962E-15 -0.6715265 199 199 199 255
0.0642626 -0.026618445 0.225 -0.7409805 1.5021962E-15 -0.6715265 199 199 199 255
0.034126222 -0.08238794 0.20499998 -0.52395236 0.52395236 -0.67152655 199 199 199 255
0.0642626 -0.026618445 0.225 -0.52395236 0.52395236 -0.67152655 199 199 199 255
0.08238795 -0.034126196 0.20499998 -0.52395236 0.52395236 -0.67152655 199 199 199 255
0.026618432 -0.064262606 0.225 -0.52395236 0.52395236 -0.67152655 199 199 199 255
0.034126222 -0.08238794 0.20499998 -6.857818E-19 0.7409805 -0.6715265 199 199 199 255
-0.026618445 -0.064262606 0.225 -6.857818E-19 0.7409805 -0.6715265 199 199 199 255
0.026618432 -0.064262606 0.225 -6.857818E-19 0.7409805 -0.6715265 199 199 199 255
-0.034126196 -0.08238794 0.20499998 -6.857818E-19 0.7409805 -0.6715265 199 199 199 255
-0.034126196 -0.08238794 0.20499998 0.52395236 0.52395236 -0.67152655 199 199 199 255
-0.064262606 -0.026618445 0.225 0.52395236 0.52395236 -0.67152655 199 199 199 255
-0.026618445 -0.064262606 0.225 0.52395236 0.52395236 -0.67152655 199 199 199 255
-0.08238794 -0.034126196 0.20499998 0.52395236 0.52395236 -0.67152655 199 199 199 255
-0.064262606 0.026618432 0.225 0.7409805 1.5150352E-15 -0.6715265 199 199 199 255
-0.08238794 -0.034126196 0.20499998 0.7409805 1.5150352E-15 -0.6715265 199 199 199 255
-0.08238794 0.034126222 0.20499998 0.7409805 1.5150352E-15 -0.6715265 199 199 199 255
-0.064262606 -0.026618445 0.225 0.7409805 1.5150352E-15 -0.6715265 199 199 199 255
-0.064262606 0.026618432 0.225 0.52395236 -0.52395236 -0.67152655 199 199 199 255
-0.034126196 0.08238795 0.20499998 0.52395236 -0.52395236 -0.67152655 199 199 199 255
-0.026618445 0.0642626 0.225 0.52395236 -0.52395236 -0.67152655 199 199 199 255
-0.08238794 0.034126222 0.20499998 0.52395236 -0.52395236 -0.67152655 199 199 199 255
0.026618432 -0.064262606 0.225 8.4366076E-30 2.200429E-15 -1 199 199 199 255
0.0642626 0.026618432 0.225 8.4366076E-30 2.200429E-15 -1 199 199 199 255
0.0642626 -0.026618445 0.225 8.4366076E-30 2.200429E-15 -1 199 199 199 255
0.026618432 0.0642626 0.225 8.4366076E-30 2.200429E-15 -1 199 199 199 255
-0.026618445 -0.064262606 0.225 8.4366076E-30 2.200429E-15 -1 199 199 199 255
-0.026618445 0.0642626 0.225 8.4366076E-30 2.200429E-15 -1 199 199 199 255
-0.064262606 0.026618432 0.225 8.4366076E-30 2.200429E-15 -1 199 199 199 255
-0.064262606 -0.026618445 0.225 8.4366076E-30 2.200429E-15 -1 199 199 199 255
0.125 -0.125 0.125 -5.098617E-33 -8.326673E-17 -1 255 125 0 255
0.10238795 -0.042410474 0.125 -5.098617E-33 -8.326673E-17 -1 255 125 0 255
0.125 0.125 0.125 -5.098617E-33 -8.326673E-17 -1 255 125 0 255
0.04241048 -0.10238795 0.125 -5.098617E-33 -8.326673E-17 -1 255 125 0 255
-0.125 -0.125 0.125 -5.098617E-33 -8.326673E-17 -1 255 125 0 255
-0.042410474 -0.10238795 0.125 -5.098617E-33 -8.326673E-17 -1 255 125 0 255
-0.10238795 -0.042410474 0.125 -5.098617E-33 -8.326673E-17 -1 255 125 0 255
-0.10238795 0.04241048 0.125 -5.098617E-33 -8.326673E-17 -1 255 125 0 255
0.04241048 0.10238795 0.125 -5.098617E-33 -8.326673E-17 -1 255 125 0 255
-0.125 0.125 0.125 -5.098617E-33 -8.326673E-17 -1 255 125 0 255
0.10238795 0.04241048 0.125 -5.098617E-33 -8.326673E-17 -1 255 125 0 255
-0.042410474 0.10238795 0.125 -5.098617E-33 -8.326673E-17 -1 255 125 0 255
0.10238795 -0.042410474 0.105 -1.8801455E-30 8.3017403E-16 -1 86 86 86 255
0.08238795 -0.034126196 0.105 -1.8801455E-30 8.3017403E-16 -1 86 86 86 255
0.10238795 0.04241048 0.105 -1.8801455E-30 8.3017403E-16 -1 86 86 86 255
0.04241048 -0.10238795 0.105 -1.8801455E-30 8.3017403E-16 -1 86 86 86 255
0.034126222 -0.08238794 0.105 -1.8801455E-30 8.3017403E-16 -1 86 86 86 255
-0.042410474 -0.10238795 0.105 -1.8801455E-30 8.3017403E-16 -1 86 86 86 255
-0.034126196 -0.08238794 0.105 -1.8801455E-30 8.3017403E-16 -1 86 86 86 255
-0.08238794 -0.034126196 0.105 -1.8801455E-30 8.3017403E-16 -1 86 86 86 255
-0.10238795 -0.042410474 0.105 -1.8801455E-30 8.3017403E-16 -1 86 86 86 255
-0.08238794 0.034126222 0.105 -1.8801455E-30 8.3017403E-16 -1 86 86 86 255
0.08238795 0.034126222 0.105 -1.8801455E-30 8.3017403E-16 -1 86 86 86 255
0.04241048 0.10238795 0.105 -1.8801455E-30 8.3017403E-16 -1 86 86 86 255
0.034126222 0.08238795 0.105 -1.8801455E-30 8.3017403E-16 -1 86 86 86 255
-0.042410474 0.10238795 0.105 -1.8801455E-30 8.3017403E-16 -1 86 86 86 255
-0.034126196 0.08238795 0.105 -1.8801455E-30 8.3017403E-16 -1 86 86 86 255
-0.10238795 0.04241048 0.105 -1.8801455E-30 8.3017403E-16 -1 86 86 86 255
-0.042410474 -0.10238795 0.105 0 -1 -8.3017403E-16 86 86 86 255
0.04241048 -0.10238795 0.125 0 -1 -8.3017403E-16 86 86 86 255
-0.042410474 -0.10238795 0.125 0 -1 -8.3017403E-16 86 86 86 255
0.04241048 -0.10238795 0.105 0 -1 -8.3017403E-16 86 86 86 255
-0.042410474 -0.10238795 0.105 -0.70710677 -0.70710677 -5.8702157E-16 86 86 86 255
-0.10238795 -0.042410474 0.125 -0.70710677 -0.70710677 -5.8702157E-16 86 86 86 255
-0.10238795 -0.042410474 0.105 -0.70710677 -0.70710677 -5.8702157E-16 86 86 86 255
-0.042410474 -0.10238795 0.125 -0.70710677 -0.70710677 -5.8702157E-16 86 86 86 255
-0.10238795 -0.042410474 0.105 -1 -3.404401E-14 -2.638231E-29 86 86 86 255
-0.10238795 0.04241048 0.125 -1 -3.404401E-14 -2.638231E-29 86 86 86 255
-0.10238795 0.04241048 0.105 -1 -3.404401E-14 -2.638231E-29 86 86 86 255
-0.10238795 -0.042410474 0.125 -1 -3.404401E-14 -2.638231E-29 86 86 86 255
-0.042410474 0.10238795 0.105 -0.70710677 0.70710677 5.8702157E-16 86 86 86 255
-0.10238795 0.04241048 0.125 -0.70710677 0.70710677 5.8702157E-16 86 86 86 255
-0.042410474 0.10238795 0.125 -0.70710677 0.70710677 5.8702157E-16 86 86 86 255
-0.10238795 0.04241048 0.105 -0.70710677 0.70710677 5.8702157E-16 86 86 86 255
0.04241048 0.10238795 0.105 0 1 8.3017403E-16 86 86 86 255
-0.042410474 0.10238795 0.125 0 1 8.3017403E-16 86 86 86 255
0.04241048 0.10238795 0.125 0 1 8.3017403E-16 86 86 86 255
-0.042410474 0.10238795 0.105 0 1 8.3017403E-16 86 86 86 255
0.10238795 0.04241048 0.125 0.70710677 0.70710677 5.8702157E-16 86 86 86 255
0.04241048 0.10238795 0.105 0.70710677 0.70710677 5.8702157E-16 86 86 86 255
0.04241048 0.10238795 0.125 0.70710677 0.70710677 5.8702157E-16 86 86 86 255
0.10238795 0.04241048 0.105 0.70710677 0.70710677 5.8702157E-16 86 86 86 255
0.10238795 -0.042410474 0.125 1 3.404401E-14 2.638231E-29 86 86 86 255
0.10238795 0.04241048 0.105 1 3.404401E-14 2.638231E-29 86 86 86 255
0.10238795 0.04241048 0.125 1 3.404401E-14 2.638231E-29 86 86 86 255
0.10238795 -0.042410474 0.105 1 3.404401E-14 2.638231E-29 86 86 86 255
0.04241048 -0.10238795 0.125 0.70710677 -0.70710677 -5.8702157E-16 86 86 86 255
0.10238795 -0.042410474 0.105 0.70710677 -0.70710677 -5.8702157E-16 86 86 86 255
0.10238795 -0.042410474 0.125 0.70710677 -0.70710677 -5.8702157E-16 86 86 86 255
0.04241048 -0.10238795 0.105 0.70710677 -0.70710677 -5.8702157E-16 86 86 86 255
3 0 1 2
3 1 0 3
3 3 0 4
3 3 4 5
3 5 4 6
3 6 4 7
3 8 9 10
3 9 8 11
3 12 13 14
3 13 12 15
3 16 17 18
3 17 16 19
3 20 21 22
3 21 20 23
3 24 25 26
3 25 24 27
3 28 29 30
3 29 28 31
3 32 33 34
3 33 32 35
3 36 37 38
3 37 36 39
3 40 41 42
3 41 40 43
3 44 45 46
3 45 44 47
3 48 49 50
3 49 48 51
3 52 53 54
3 53 52 55
3 56 57 58
3 57 56 59
3 60 61 62
3 61 60 63
3 64 65 66
3 65 64 67
3 68 69 70
3 69 68 71
3 72 73 74
3 73 72 75
3 75 72 76
3 75 76 77
3 77 76 78
3 78 76 79
3 80 81 82
3 81 80 83
3 83 80 84
3 83 84 85
3 85 84 86
3 86 84 87
3 82 88 89
3 88 82 90
3 90 82 81
3 89 88 91
3 89 91 87
3 89 87 84
3 92 93 94
3 93 92 95
3 93 95 96
3 96 95 97
3 96 97 98
3 98 97 99
3 99 97 100
3 99 100 101
3 94 102 103
3 102 94 93
3 103 102 104
3 103 104 105
3 105 104 106
3 105 106 101
3 105 101 107
3 107 101 100
3 108 109 110
3 109 108 111
3 112 113 114
3 113 112 115
3 116 117 118
3 117 116 119
3 120 121 122
3 121 120 123
3 124 125 126
3 125 124 127
3 128 129 130
3 129 128 131
3 132 133 134
3 133 132 135
3 136 137 138
3 137 136 139

