ply
format ascii 1.0
commentY29udmVydGVyIGJ5IENvZGVMZW9wYXJk
comment Original mesh name: 'C:\Program Files (x86)\Steam\steamapps\common\Stormworks\rom\meshes\component_inventory_equipment_transponder.mesh'
comment SubMesh index: 0
comment SubMesh name: 'ID18'
comment Shader: Opaque (0)
element vertex 312
property float x
property float y
property float z
property float nx
property float ny
property float nz
property uchar red
property uchar green
property uchar blue
property uchar alpha
element face 186
property list uchar ushort vertex_index
end_header
-0.016352007 -0.04666238 -0.005000002 0 9.714451E-17 1 141 141 141 255
0.015147988 0.061337605 -0.005000002 0 9.714451E-17 1 141 141 141 255
-0.016352007 0.061337605 -0.005000002 0 9.714451E-17 1 141 141 141 255
0.015147988 -0.04666238 -0.005000002 0 9.714451E-17 1 141 141 141 255
-0.03210202 0.061337605 0.022279793 0.8660254 4.8572254E-17 0.5 141 141 141 255
-0.016352007 -0.04666238 -0.005000002 0.8660254 4.8572254E-17 0.5 141 141 141 255
-0.016352007 0.061337605 -0.005000002 0.8660254 4.8572254E-17 0.5 141 141 141 255
-0.03210202 -0.04666238 0.022279793 0.8660254 4.8572254E-17 0.5 141 141 141 255
-0.012099507 -0.05482015 0.002365535 9.6848E-18 0.6701483 0.7422272 141 141 141 255
0.015147988 -0.04666238 -0.005000002 9.6848E-18 0.6701483 0.7422272 141 141 141 255
-0.016352007 -0.04666238 -0.005000002 9.6848E-18 0.6701483 0.7422272 141 141 141 255
0.010895502 -0.05482015 0.002365535 9.6848E-18 0.6701483 0.7422272 141 141 141 255
0.030898007 -0.04666238 0.022279793 -0.8660252 4.8572297E-17 0.5000004 141 141 141 255
0.015147988 0.061337605 -0.005000002 -0.8660252 4.8572297E-17 0.5000004 141 141 141 255
0.015147988 -0.04666238 -0.005000002 -0.8660252 4.8572297E-17 0.5000004 141 141 141 255
0.030898007 0.061337605 0.022279793 -0.8660252 4.8572297E-17 0.5000004 141 141 141 255
-0.016352007 0.061337605 -0.005000002 -3.6627293E-18 -0.5547979 0.8319851 141 141 141 255
0.013415497 0.0658376 -0.001999239 -3.6627293E-18 -0.5547979 0.8319851 141 141 141 255
-0.014619508 0.0658376 -0.001999239 -3.6627293E-18 -0.5547979 0.8319851 141 141 141 255
0.015147988 0.061337605 -0.005000002 -3.6627293E-18 -0.5547979 0.8319851 141 141 141 255
-0.016352007 -0.04666238 -0.005000002 0.6427874 0.6701486 0.3711135 141 141 141 255
-0.02359701 -0.05482015 0.022279793 0.6427874 0.6701486 0.3711135 141 141 141 255
-0.012099507 -0.05482015 0.002365535 0.6427874 0.6701486 0.3711135 141 141 141 255
-0.03210202 -0.04666238 0.022279793 0.6427874 0.6701486 0.3711135 141 141 141 255
-0.014619508 0.0658376 -0.001999239 0.7205195 -0.5547993 0.4159921 141 141 141 255
-0.03210202 0.061337605 0.022279793 0.7205195 -0.5547993 0.4159921 141 141 141 255
-0.016352007 0.061337605 -0.005000002 0.7205195 -0.5547993 0.4159921 141 141 141 255
-0.028637001 0.0658376 0.022279793 0.7205195 -0.5547993 0.4159921 141 141 141 255
-0.016352007 0.061337605 0.049559593 0.8660254 -4.8572254E-17 -0.5 141 141 141 255
-0.03210202 -0.04666238 0.022279793 0.8660254 -4.8572254E-17 -0.5 141 141 141 255
-0.03210202 0.061337605 0.022279793 0.8660254 -4.8572254E-17 -0.5 141 141 141 255
-0.016352007 -0.04666238 0.049559593 0.8660254 -4.8572254E-17 -0.5 141 141 141 255
0.010895502 -0.05482015 0.002365535 0 1 -9.714451E-17 141 141 141 255
0.016032944 -0.05482015 0.022279793 0 1 -9.714451E-17 141 141 141 255
0.022392984 -0.05482015 0.022279793 0 1 -9.714451E-17 141 141 141 255
0.0077154706 -0.05482015 0.007873491 0 1 -9.714451E-17 141 141 141 255
-0.012099507 -0.05482015 0.002365535 0 1 -9.714451E-17 141 141 141 255
-0.008919499 -0.05482015 0.007873491 0 1 -9.714451E-17 141 141 141 255
-0.017236969 -0.05482015 0.022279793 0 1 -9.714451E-17 141 141 141 255
-0.02359701 -0.05482015 0.022279793 0 1 -9.714451E-17 141 141 141 255
0.010895502 -0.05482015 0.04219405 0 1 -9.714451E-17 141 141 141 255
0.0077154706 -0.05482015 0.03668608 0 1 -9.714451E-17 141 141 141 255
-0.012099507 -0.05482015 0.04219405 0 1 -9.714451E-17 141 141 141 255
-0.008919499 -0.05482015 0.03668608 0 1 -9.714451E-17 141 141 141 255
0.015147988 -0.04666238 -0.005000002 -0.64278734 0.6701486 0.37111348 141 141 141 255
0.022392984 -0.05482015 0.022279793 -0.64278734 0.6701486 0.37111348 141 141 141 255
0.030898007 -0.04666238 0.022279793 -0.64278734 0.6701486 0.37111348 141 141 141 255
0.010895502 -0.05482015 0.002365535 -0.64278734 0.6701486 0.37111348 141 141 141 255
0.030898007 0.061337605 0.022279793 -0.72051954 -0.55479896 0.41599226 141 141 141 255
0.013415497 0.0658376 -0.001999239 -0.72051954 -0.55479896 0.41599226 141 141 141 255
0.015147988 0.061337605 -0.005000002 -0.72051954 -0.55479896 0.41599226 141 141 141 255
0.027432987 0.0658376 0.022279793 -0.72051954 -0.55479896 0.41599226 141 141 141 255
0.015147988 -0.04666238 0.049559593 -0.8660252 -4.8572297E-17 -0.5000004 141 141 141 255
0.030898007 0.061337605 0.022279793 -0.8660252 -4.8572297E-17 -0.5000004 141 141 141 255
0.030898007 -0.04666238 0.022279793 -0.8660252 -4.8572297E-17 -0.5000004 141 141 141 255
0.015147988 0.061337605 0.049559593 -0.8660252 -4.8572297E-17 -0.5000004 141 141 141 255
0.013415497 0.0658376 0.04655881 0 -1 9.714451E-17 141 141 141 255
0.013415497 0.0658376 -0.001999239 0 -1 9.714451E-17 141 141 141 255
0.027432987 0.0658376 0.022279793 0 -1 9.714451E-17 141 141 141 255
-0.014619508 0.0658376 0.04655881 0 -1 9.714451E-17 141 141 141 255
-0.014619508 0.0658376 -0.001999239 0 -1 9.714451E-17 141 141 141 255
-0.028637001 0.0658376 0.022279793 0 -1 9.714451E-17 141 141 141 255
-0.02359701 -0.05482015 0.022279793 0.6427873 0.6701487 -0.3711135 141 141 141 255
-0.016352007 -0.04666238 0.049559593 0.6427873 0.6701487 -0.3711135 141 141 141 255
-0.012099507 -0.05482015 0.04219405 0.6427873 0.6701487 -0.3711135 141 141 141 255
-0.03210202 -0.04666238 0.022279793 0.6427873 0.6701487 -0.3711135 141 141 141 255
-0.014619508 0.0658376 0.04655881 0.72051924 -0.55479974 -0.41599202 141 141 141 255
-0.03210202 0.061337605 0.022279793 0.72051924 -0.55479974 -0.41599202 141 141 141 255
-0.028637001 0.0658376 0.022279793 0.72051924 -0.55479974 -0.41599202 141 141 141 255
-0.016352007 0.061337605 0.049559593 0.72051924 -0.55479974 -0.41599202 141 141 141 255
0.015147988 -0.04666238 0.049559593 0 -9.714451E-17 -1 141 141 141 255
-0.016352007 0.061337605 0.049559593 0 -9.714451E-17 -1 141 141 141 255
0.015147988 0.061337605 0.049559593 0 -9.714451E-17 -1 141 141 141 255
-0.016352007 -0.04666238 0.049559593 0 -9.714451E-17 -1 141 141 141 255
0.010895502 -0.05482015 0.04219405 9.304032E-19 0.67014873 -0.7422269 141 141 141 255
-0.016352007 -0.04666238 0.049559593 9.304032E-19 0.67014873 -0.7422269 141 141 141 255
0.015147988 -0.04666238 0.049559593 9.304032E-19 0.67014873 -0.7422269 141 141 141 255
-0.012099507 -0.05482015 0.04219405 9.304032E-19 0.67014873 -0.7422269 141 141 141 255
0.022392984 -0.05482015 0.022279793 -0.6427872 0.6701488 -0.3711134 141 141 141 255
0.015147988 -0.04666238 0.049559593 -0.6427872 0.6701488 -0.3711134 141 141 141 255
0.030898007 -0.04666238 0.022279793 -0.6427872 0.6701488 -0.3711134 141 141 141 255
0.010895502 -0.05482015 0.04219405 -0.6427872 0.6701488 -0.3711134 141 141 141 255
0.015147988 0.061337605 0.049559593 -0.7205193 -0.5547995 -0.4159922 141 141 141 255
0.027432987 0.0658376 0.022279793 -0.7205193 -0.5547995 -0.4159922 141 141 141 255
0.030898007 0.061337605 0.022279793 -0.7205193 -0.5547995 -0.4159922 141 141 141 255
0.013415497 0.0658376 0.04655881 -0.7205193 -0.5547995 -0.4159922 141 141 141 255
0.015147988 0.061337605 0.049559593 5.107645E-19 -0.5547997 -0.831984 141 141 141 255
-0.014619508 0.0658376 0.04655881 5.107645E-19 -0.5547997 -0.831984 141 141 141 255
0.013415497 0.0658376 0.04655881 5.107645E-19 -0.5547997 -0.831984 141 141 141 255
-0.016352007 0.061337605 0.049559593 5.107645E-19 -0.5547997 -0.831984 141 141 141 255
0.0077154706 -0.059820134 0.007873491 0 1 -9.714451E-17 176 33 33 255
0.0077154706 -0.059820134 0.03668608 0 1 -9.714451E-17 176 33 33 255
0.016032944 -0.059820134 0.022279793 0 1 -9.714451E-17 176 33 33 255
0.0023979822 -0.059820134 0.007873491 0 1 -9.714451E-17 176 33 33 255
0.0023979822 -0.059820134 0.03668608 0 1 -9.714451E-17 176 33 33 255
0.0077154706 -0.059820134 0.03668608 -0.8660255 -4.8572237E-17 -0.49999976 176 33 33 255
0.016032944 -0.05482015 0.022279793 -0.8660255 -4.8572237E-17 -0.49999976 176 33 33 255
0.016032944 -0.059820134 0.022279793 -0.8660255 -4.8572237E-17 -0.49999976 176 33 33 255
0.0077154706 -0.05482015 0.03668608 -0.8660255 -4.8572237E-17 -0.49999976 176 33 33 255
0.016032944 -0.059820134 0.022279793 -0.8660256 4.8572218E-17 0.4999996 176 33 33 255
0.0077154706 -0.05482015 0.007873491 -0.8660256 4.8572218E-17 0.4999996 176 33 33 255
0.0077154706 -0.059820134 0.007873491 -0.8660256 4.8572218E-17 0.4999996 176 33 33 255
0.016032944 -0.05482015 0.022279793 -0.8660256 4.8572218E-17 0.4999996 176 33 33 255
0.0023979822 -0.06982014 0.03668608 -1 -0 -0 176 33 33 255
0.0023979822 -0.059820134 0.007873491 -1 -0 -0 176 33 33 255
0.0023979822 -0.06982014 0.007873491 -1 -0 -0 176 33 33 255
0.0023979822 -0.059820134 0.03668608 -1 -0 -0 176 33 33 255
0.0077154706 -0.059820134 0.03668608 -3.3904082E-16 -9.714451E-17 -1 176 33 33 255
-0.008919499 -0.05482015 0.03668608 -3.3904082E-16 -9.714451E-17 -1 176 33 33 255
0.0077154706 -0.05482015 0.03668608 -3.3904082E-16 -9.714451E-17 -1 176 33 33 255
-0.008919499 -0.059820134 0.03668608 -3.3904082E-16 -9.714451E-17 -1 176 33 33 255
-0.008919499 -0.059820134 0.007873491 0 9.714451E-17 1 176 33 33 255
0.0077154706 -0.05482015 0.007873491 0 9.714451E-17 1 176 33 33 255
-0.008919499 -0.05482015 0.007873491 0 9.714451E-17 1 176 33 33 255
0.0077154706 -0.059820134 0.007873491 0 9.714451E-17 1 176 33 33 255
-0.0036020118 -0.06982014 0.007873491 0 9.714451E-17 1 176 33 33 255
0.0023979822 -0.059820134 0.007873491 0 9.714451E-17 1 176 33 33 255
-0.0036020118 -0.059820134 0.007873491 0 9.714451E-17 1 176 33 33 255
0.0023979822 -0.06982014 0.007873491 0 9.714451E-17 1 176 33 33 255
0.0023979822 -0.06982014 0.007873491 0 1 -9.714451E-17 176 33 33 255
0.00088206725 -0.06982014 0.022279793 0 1 -9.714451E-17 176 33 33 255
0.0023979822 -0.06982014 0.03668608 0 1 -9.714451E-17 176 33 33 255
-0.0036020118 -0.06982014 0.007873491 0 1 -9.714451E-17 176 33 33 255
-0.0020860978 -0.06982014 0.022279793 0 1 -9.714451E-17 176 33 33 255
-0.0020860978 -0.06982014 0.03668608 0 1 -9.714451E-17 176 33 33 255
-0.0036020118 -0.06982014 0.03668608 0 1 -9.714451E-17 176 33 33 255
0.00088206725 -0.06982014 0.03668608 0 1 -9.714451E-17 176 33 33 255
0.0023979822 -0.06982014 0.03668608 0 -9.714451E-17 -1 176 33 33 255
0.00088206725 -0.059820134 0.03668608 0 -9.714451E-17 -1 176 33 33 255
0.0023979822 -0.059820134 0.03668608 0 -9.714451E-17 -1 176 33 33 255
0.00088206725 -0.06982014 0.03668608 0 -9.714451E-17 -1 176 33 33 255
-0.008919499 -0.05482015 0.03668608 0.8660257 -4.8572218E-17 -0.4999996 176 33 33 255
-0.017236969 -0.059820134 0.022279793 0.8660257 -4.8572218E-17 -0.4999996 176 33 33 255
-0.017236969 -0.05482015 0.022279793 0.8660257 -4.8572218E-17 -0.4999996 176 33 33 255
-0.008919499 -0.059820134 0.03668608 0.8660257 -4.8572218E-17 -0.4999996 176 33 33 255
-0.017236969 -0.05482015 0.022279793 0.8660257 4.857219E-17 0.49999937 176 33 33 255
-0.008919499 -0.059820134 0.007873491 0.8660257 4.857219E-17 0.49999937 176 33 33 255
-0.008919499 -0.05482015 0.007873491 0.8660257 4.857219E-17 0.49999937 176 33 33 255
-0.017236969 -0.059820134 0.022279793 0.8660257 4.857219E-17 0.49999937 176 33 33 255
-0.0036020118 -0.059820134 0.03668608 1 -0 -0 176 33 33 255
-0.0036020118 -0.06982014 0.007873491 1 -0 -0 176 33 33 255
-0.0036020118 -0.059820134 0.007873491 1 -0 -0 176 33 33 255
-0.0036020118 -0.06982014 0.03668608 1 -0 -0 176 33 33 255
-0.0020860978 -0.06982014 0.03668608 -3.720481E-15 -9.714451E-17 -1 176 33 33 255
-0.0036020118 -0.059820134 0.03668608 -3.720481E-15 -9.714451E-17 -1 176 33 33 255
-0.0020860978 -0.059820134 0.03668608 -3.720481E-15 -9.714451E-17 -1 176 33 33 255
-0.0036020118 -0.06982014 0.03668608 -3.720481E-15 -9.714451E-17 -1 176 33 33 255
-0.008919499 -0.059820134 0.007873491 0 1 -9.714451E-17 176 33 33 255
-0.0036020118 -0.059820134 0.03668608 0 1 -9.714451E-17 176 33 33 255
-0.0036020118 -0.059820134 0.007873491 0 1 -9.714451E-17 176 33 33 255
-0.008919499 -0.059820134 0.03668608 0 1 -9.714451E-17 176 33 33 255
-0.017236969 -0.059820134 0.022279793 0 1 -9.714451E-17 176 33 33 255
0.00088206725 -0.06982014 0.03668608 0 -9.714451E-17 -1 255 255 255 255
-0.0020860978 -0.059820134 0.03668608 0 -9.714451E-17 -1 255 255 255 255
0.00088206725 -0.059820134 0.03668608 0 -9.714451E-17 -1 255 255 255 255
-0.0020860978 -0.06982014 0.03668608 0 -9.714451E-17 -1 255 255 255 255
-0.0020860978 -0.06982014 0.022279793 0 1 -9.714451E-17 255 255 255 255
0.00088206725 -0.06982014 0.03668608 0 1 -9.714451E-17 255 255 255 255
0.00088206725 -0.06982014 0.022279793 0 1 -9.714451E-17 255 255 255 255
-0.0020860978 -0.06982014 0.03668608 0 1 -9.714451E-17 255 255 255 255
0.034000006 0.019870657 0.02325609 -0.8741517 -2.0212635E-15 -0.485653 30 30 30 255
0.017888457 0.039870672 0.052256078 -0.8741517 -2.0212635E-15 -0.485653 30 30 30 255
0.034000006 0.039870672 0.02325609 -0.8741517 -2.0212635E-15 -0.485653 30 30 30 255
0.017888457 0.019870657 0.052256078 -0.8741517 -2.0212635E-15 -0.485653 30 30 30 255
0.034000006 0.039870672 0.02325609 1.637026E-17 -1 4.2951906E-15 30 30 30 255
0.03586363 0.039870672 -0.0058376035 1.637026E-17 -1 4.2951906E-15 30 30 30 255
0.038999997 0.039870672 -0.0058376035 1.637026E-17 -1 4.2951906E-15 30 30 30 255
0.03086364 0.039870672 0.02325609 1.637026E-17 -1 4.2951906E-15 30 30 30 255
0.017888457 0.039870672 0.052256078 1.637026E-17 -1 4.2951906E-15 30 30 30 255
0.015564078 0.039870672 0.049593143 1.637026E-17 -1 4.2951906E-15 30 30 30 255
-0.0013717522 0.039870672 0.054194406 1.637026E-17 -1 4.2951906E-15 30 30 30 255
-0.0013519911 0.039870672 0.051150903 1.637026E-17 -1 4.2951906E-15 30 30 30 255
-0.016342282 0.039870672 0.04953145 1.637026E-17 -1 4.2951906E-15 30 30 30 255
-0.018503213 0.039870672 0.05219441 1.637026E-17 -1 4.2951906E-15 30 30 30 255
-0.032415144 0.039870672 0.022627208 1.637026E-17 -1 4.2951906E-15 30 30 30 255
-0.035649866 0.039870672 0.022627208 1.637026E-17 -1 4.2951906E-15 30 30 30 255
-0.036415137 0.039870672 -0.0058376035 1.637026E-17 -1 4.2951906E-15 30 30 30 255
-0.039649855 0.039870672 -0.0058376035 1.637026E-17 -1 4.2951906E-15 30 30 30 255
0.038999997 0.019870657 -0.0058376035 -0.98555166 -7.121165E-16 -0.1693751 30 30 30 255
0.034000006 0.039870672 0.02325609 -0.98555166 -7.121165E-16 -0.1693751 30 30 30 255
0.038999997 0.039870672 -0.0058376035 -0.98555166 -7.121165E-16 -0.1693751 30 30 30 255
0.034000006 0.019870657 0.02325609 -0.98555166 -7.121165E-16 -0.1693751 30 30 30 255
0.03586363 0.019870657 -0.0058376035 -1.443342E-15 1 -1.8308456E-15 30 30 30 255
0.034000006 0.019870657 0.02325609 -1.443342E-15 1 -1.8308456E-15 30 30 30 255
0.038999997 0.019870657 -0.0058376035 -1.443342E-15 1 -1.8308456E-15 30 30 30 255
0.03086364 0.019870657 0.02325609 -1.443342E-15 1 -1.8308456E-15 30 30 30 255
0.017888457 0.019870657 0.052256078 -1.443342E-15 1 -1.8308456E-15 30 30 30 255
0.015564078 0.019870657 0.049593143 -1.443342E-15 1 -1.8308456E-15 30 30 30 255
-0.0013717522 0.019870657 0.054194406 -1.443342E-15 1 -1.8308456E-15 30 30 30 255
-0.0013519911 0.019870657 0.051150903 -1.443342E-15 1 -1.8308456E-15 30 30 30 255
-0.016342282 0.019870657 0.04953147 -1.443342E-15 1 -1.8308456E-15 30 30 30 255
-0.018503213 0.019870657 0.05219441 -1.443342E-15 1 -1.8308456E-15 30 30 30 255
-0.032415144 0.019870657 0.022627208 -1.443342E-15 1 -1.8308456E-15 30 30 30 255
-0.035649866 0.019870657 0.022627208 -1.443342E-15 1 -1.8308456E-15 30 30 30 255
-0.036415137 0.019870657 -0.0058376035 -1.443342E-15 1 -1.8308456E-15 30 30 30 255
-0.039649855 0.019870657 -0.0058376035 -1.443342E-15 1 -1.8308456E-15 30 30 30 255
0.017888457 0.039870672 0.052256078 -0.1001323 -4.021304E-15 -0.9949741 30 30 30 255
-0.0013717522 0.019870657 0.054194406 -0.1001323 -4.021304E-15 -0.9949741 30 30 30 255
-0.0013717522 0.039870672 0.054194406 -0.1001323 -4.021304E-15 -0.9949741 30 30 30 255
0.017888457 0.019870657 0.052256078 -0.1001323 -4.021304E-15 -0.9949741 30 30 30 255
-0.018503213 0.039870672 0.05219441 0.8650606 -2.2909622E-15 -0.50166726 30 30 30 255
-0.035649866 0.019870657 0.022627208 0.8650606 -2.2909622E-15 -0.50166726 30 30 30 255
-0.035649866 0.039870672 0.022627208 0.8650606 -2.2909622E-15 -0.50166726 30 30 30 255
-0.018503213 0.019870657 0.05219441 0.8650606 -2.2909622E-15 -0.50166726 30 30 30 255
-0.035649866 0.039870672 0.022627208 0.9902704 -5.855817E-16 -0.1391568 30 30 30 255
-0.039649855 0.019870657 -0.0058376035 0.9902704 -5.855817E-16 -0.1391568 30 30 30 255
-0.039649855 0.039870672 -0.0058376035 0.9902704 -5.855817E-16 -0.1391568 30 30 30 255
-0.035649866 0.019870657 0.022627208 0.9902704 -5.855817E-16 -0.1391568 30 30 30 255
-0.036415137 0.019870657 -0.0058376035 -0.9902704 5.855817E-16 0.1391568 30 30 30 255
-0.032415144 0.039870672 0.022627208 -0.9902704 5.855817E-16 0.1391568 30 30 30 255
-0.036415137 0.039870672 -0.0058376035 -0.9902704 5.855817E-16 0.1391568 30 30 30 255
-0.032415144 0.019870657 0.022627208 -0.9902704 5.855817E-16 0.1391568 30 30 30 255
-0.032415144 0.019870657 0.022627208 -0.8584723 2.3192535E-15 0.5128599 30 30 30 255
-0.016342282 0.039870672 0.04953145 -0.8584723 2.3192535E-15 0.5128599 30 30 30 255
-0.032415144 0.039870672 0.022627208 -0.8584723 2.3192535E-15 0.5128599 30 30 30 255
-0.016342282 0.019870657 0.04953147 -0.8584723 2.3192535E-15 0.5128599 30 30 30 255
-0.016342282 0.039870672 0.04953145 -0.1074073 4.30571E-15 0.9942151 30 30 30 255
-0.0013519911 0.019870657 0.051150903 -0.1074073 4.30571E-15 0.9942151 30 30 30 255
-0.0013519911 0.039870672 0.051150903 -0.1074073 4.30571E-15 0.9942151 30 30 30 255
-0.016342282 0.019870657 0.04953147 -0.1074073 4.30571E-15 0.9942151 30 30 30 255
-0.0013519911 0.019870657 0.051150903 0.0916988 4.308219E-15 0.99578685 30 30 30 255
0.015564078 0.039870672 0.049593143 0.0916988 4.308219E-15 0.99578685 30 30 30 255
-0.0013519911 0.039870672 0.051150903 0.0916988 4.308219E-15 0.99578685 30 30 30 255
0.015564078 0.019870657 0.049593143 0.0916988 4.308219E-15 0.99578685 30 30 30 255
0.015564078 0.039870672 0.049593143 0.8646881 2.2453605E-15 0.5023092 30 30 30 255
0.03086364 0.019870657 0.02325609 0.8646881 2.2453605E-15 0.5023092 30 30 30 255
0.03086364 0.039870672 0.02325609 0.8646881 2.2453605E-15 0.5023092 30 30 30 255
0.015564078 0.019870657 0.049593143 0.8646881 2.2453605E-15 0.5023092 30 30 30 255
0.03086364 0.039870672 0.02325609 0.98555166 7.121165E-16 0.1693751 30 30 30 255
0.03586363 0.019870657 -0.0058376035 0.98555166 7.121165E-16 0.1693751 30 30 30 255
0.03586363 0.039870672 -0.0058376035 0.98555166 7.121165E-16 0.1693751 30 30 30 255
0.03086364 0.019870657 0.02325609 0.98555166 7.121165E-16 0.1693751 30 30 30 255
-0.0013717522 0.019870657 0.054194406 0.11595669 -4.3003164E-15 -0.9932542 30 30 30 255
-0.018503213 0.039870672 0.05219441 0.11595669 -4.3003164E-15 -0.9932542 30 30 30 255
-0.0013717522 0.039870672 0.054194406 0.11595669 -4.3003164E-15 -0.9932542 30 30 30 255
-0.018503213 0.019870657 0.05219441 0.11595669 -4.3003164E-15 -0.9932542 30 30 30 255
0.034000006 -0.040129345 0.02325609 -0.8741517 -2.0299568E-15 -0.485653 30 30 30 255
0.017888457 -0.020129347 0.052256078 -0.8741517 -2.0299568E-15 -0.485653 30 30 30 255
0.034000006 -0.020129347 0.02325609 -0.8741517 -2.0299568E-15 -0.485653 30 30 30 255
0.017888457 -0.040129345 0.052256078 -0.8741517 -2.0299568E-15 -0.485653 30 30 30 255
0.034000006 -0.020129347 0.02325609 1.5561799E-19 -1 4.3173735E-15 30 30 30 255
0.03586363 -0.020129347 -0.0058376035 1.5561799E-19 -1 4.3173735E-15 30 30 30 255
0.038999997 -0.020129347 -0.0058376035 1.5561799E-19 -1 4.3173735E-15 30 30 30 255
0.03086364 -0.020129347 0.02325609 1.5561799E-19 -1 4.3173735E-15 30 30 30 255
0.017888457 -0.020129347 0.052256078 1.5561799E-19 -1 4.3173735E-15 30 30 30 255
0.015564078 -0.020129347 0.049593143 1.5561799E-19 -1 4.3173735E-15 30 30 30 255
-0.0013717522 -0.020129347 0.054194406 1.5561799E-19 -1 4.3173735E-15 30 30 30 255
-0.0013519911 -0.020129347 0.051150903 1.5561799E-19 -1 4.3173735E-15 30 30 30 255
-0.016342282 -0.020129347 0.04953145 1.5561799E-19 -1 4.3173735E-15 30 30 30 255
-0.018503213 -0.020129347 0.05219441 1.5561799E-19 -1 4.3173735E-15 30 30 30 255
-0.032415144 -0.020129347 0.022627208 1.5561799E-19 -1 4.3173735E-15 30 30 30 255
-0.035649866 -0.020129347 0.022627208 1.5561799E-19 -1 4.3173735E-15 30 30 30 255
-0.036415137 -0.020129347 -0.0058376035 1.5561799E-19 -1 4.3173735E-15 30 30 30 255
-0.039649855 -0.020129347 -0.0058376035 1.5561799E-19 -1 4.3173735E-15 30 30 30 255
0.038999997 -0.040129345 -0.0058376035 -0.98555166 -7.1280364E-16 -0.1693751 30 30 30 255
0.034000006 -0.020129347 0.02325609 -0.98555166 -7.1280364E-16 -0.1693751 30 30 30 255
0.038999997 -0.020129347 -0.0058376035 -0.98555166 -7.1280364E-16 -0.1693751 30 30 30 255
0.034000006 -0.040129345 0.02325609 -0.98555166 -7.1280364E-16 -0.1693751 30 30 30 255
0.03586363 -0.040129345 -0.0058376035 -1.426956E-15 1 -1.7967765E-15 30 30 30 255
0.034000006 -0.040129345 0.02325609 -1.426956E-15 1 -1.7967765E-15 30 30 30 255
0.038999997 -0.040129345 -0.0058376035 -1.426956E-15 1 -1.7967765E-15 30 30 30 255
0.03086364 -0.040129345 0.02325609 -1.426956E-15 1 -1.7967765E-15 30 30 30 255
0.017888457 -0.040129345 0.052256078 -1.426956E-15 1 -1.7967765E-15 30 30 30 255
0.015564078 -0.040129345 0.049593143 -1.426956E-15 1 -1.7967765E-15 30 30 30 255
-0.0013717522 -0.040129345 0.054194406 -1.426956E-15 1 -1.7967765E-15 30 30 30 255
-0.0013519911 -0.040129345 0.051150903 -1.426956E-15 1 -1.7967765E-15 30 30 30 255
-0.016342282 -0.040129345 0.04953147 -1.426956E-15 1 -1.7967765E-15 30 30 30 255
-0.018503213 -0.040129345 0.05219441 -1.426956E-15 1 -1.7967765E-15 30 30 30 255
-0.032415144 -0.040129345 0.022627208 -1.426956E-15 1 -1.7967765E-15 30 30 30 255
-0.035649866 -0.040129345 0.022627208 -1.426956E-15 1 -1.7967765E-15 30 30 30 255
-0.036415137 -0.040129345 -0.0058376035 -1.426956E-15 1 -1.7967765E-15 30 30 30 255
-0.039649855 -0.040129345 -0.0058376035 -1.426956E-15 1 -1.7967765E-15 30 30 30 255
0.017888457 -0.020129347 0.052256078 -0.1001323 -4.0240888E-15 -0.9949741 30 30 30 255
-0.0013717522 -0.040129345 0.054194406 -0.1001323 -4.0240888E-15 -0.9949741 30 30 30 255
-0.0013717522 -0.020129347 0.054194406 -0.1001323 -4.0240888E-15 -0.9949741 30 30 30 255
0.017888457 -0.040129345 0.052256078 -0.1001323 -4.0240888E-15 -0.9949741 30 30 30 255
-0.018503213 -0.020129347 0.05219441 0.8650606 -2.2297782E-15 -0.50166726 30 30 30 255
-0.035649866 -0.040129345 0.022627208 0.8650606 -2.2297782E-15 -0.50166726 30 30 30 255
-0.035649866 -0.020129347 0.022627208 0.8650606 -2.2297782E-15 -0.50166726 30 30 30 255
-0.018503213 -0.040129345 0.05219441 0.8650606 -2.2297782E-15 -0.50166726 30 30 30 255
-0.035649866 -0.020129347 0.022627208 0.9902704 -5.9181133E-16 -0.1391568 30 30 30 255
-0.039649855 -0.040129345 -0.0058376035 0.9902704 -5.9181133E-16 -0.1391568 30 30 30 255
-0.039649855 -0.020129347 -0.0058376035 0.9902704 -5.9181133E-16 -0.1391568 30 30 30 255
-0.035649866 -0.040129345 0.022627208 0.9902704 -5.9181133E-16 -0.1391568 30 30 30 255
-0.036415137 -0.040129345 -0.0058376035 -0.9902704 5.9181133E-16 0.1391568 30 30 30 255
-0.032415144 -0.020129347 0.022627208 -0.9902704 5.9181133E-16 0.1391568 30 30 30 255
-0.036415137 -0.020129347 -0.0058376035 -0.9902704 5.9181133E-16 0.1391568 30 30 30 255
-0.032415144 -0.040129345 0.022627208 -0.9902704 5.9181133E-16 0.1391568 30 30 30 255
-0.032415144 -0.040129345 0.022627208 -0.8584723 2.2770785E-15 0.5128599 30 30 30 255
-0.016342282 -0.020129347 0.04953145 -0.8584723 2.2770785E-15 0.5128599 30 30 30 255
-0.032415144 -0.020129347 0.022627208 -0.8584723 2.2770785E-15 0.5128599 30 30 30 255
-0.016342282 -0.040129345 0.04953147 -0.8584723 2.2770785E-15 0.5128599 30 30 30 255
-0.016342282 -0.020129347 0.04953145 -0.1074073 4.3048154E-15 0.9942151 30 30 30 255
-0.0013519911 -0.040129345 0.051150903 -0.1074073 4.3048154E-15 0.9942151 30 30 30 255
-0.0013519911 -0.020129347 0.051150903 -0.1074073 4.3048154E-15 0.9942151 30 30 30 255
-0.016342282 -0.040129345 0.04953147 -0.1074073 4.3048154E-15 0.9942151 30 30 30 255
-0.0013519911 -0.040129345 0.051150903 0.0916988 4.3111533E-15 0.99578685 30 30 30 255
0.015564078 -0.020129347 0.049593143 0.0916988 4.3111533E-15 0.99578685 30 30 30 255
-0.0013519911 -0.020129347 0.051150903 0.0916988 4.3111533E-15 0.99578685 30 30 30 255
0.015564078 -0.040129345 0.049593143 0.0916988 4.3111533E-15 0.99578685 30 30 30 255
0.015564078 -0.020129347 0.049593143 0.8646881 2.252187E-15 0.5023092 30 30 30 255
0.03086364 -0.040129345 0.02325609 0.8646881 2.252187E-15 0.5023092 30 30 30 255
0.03086364 -0.020129347 0.02325609 0.8646881 2.252187E-15 0.5023092 30 30 30 255
0.015564078 -0.040129345 0.049593143 0.8646881 2.252187E-15 0.5023092 30 30 30 255
0.03086364 -0.020129347 0.02325609 0.98555166 7.0177357E-16 0.1693751 30 30 30 255
0.03586363 -0.040129345 -0.0058376035 0.98555166 7.0177357E-16 0.1693751 30 30 30 255
0.03586363 -0.020129347 -0.0058376035 0.98555166 7.0177357E-16 0.1693751 30 30 30 255
0.03086364 -0.040129345 0.02325609 0.98555166 7.0177357E-16 0.1693751 30 30 30 255
-0.0013717522 -0.040129345 0.054194406 0.11595669 -4.3003164E-15 -0.9932542 30 30 30 255
-0.018503213 -0.020129347 0.05219441 0.11595669 -4.3003164E-15 -0.9932542 30 30 30 255
-0.0013717522 -0.020129347 0.054194406 0.11595669 -4.3003164E-15 -0.9932542 30 30 30 255
-0.018503213 -0.040129345 0.05219441 0.11595669 -4.3003164E-15 -0.9932542 30 30 30 255
3 0 1 2
3 1 0 3
3 4 5 6
3 5 4 7
3 8 9 10
3 9 8 11
3 12 13 14
3 13 12 15
3 16 17 18
3 17 16 19
3 20 21 22
3 21 20 23
3 24 25 26
3 25 24 27
3 28 29 30
3 29 28 31
3 32 33 34
3 33 32 35
3 35 32 36
3 35 36 37
3 37 36 38
3 38 36 39
3 33 40 34
3 40 33 41
3 40 41 42
3 42 41 43
3 42 43 38
3 42 38 39
3 44 45 46
3 45 44 47
3 48 49 50
3 49 48 51
3 52 53 54
3 53 52 55
3 56 57 58
3 57 56 59
3 57 59 60
3 60 59 61
3 62 63 64
3 63 62 65
3 66 67 68
3 67 66 69
3 70 71 72
3 71 70 73
3 74 75 76
3 75 74 77
3 78 79 80
3 79 78 81
3 82 83 84
3 83 82 85
3 86 87 88
3 87 86 89
3 90 91 92
3 91 90 93
3 91 93 94
3 95 96 97
3 96 95 98
3 99 100 101
3 100 99 102
3 103 104 105
3 104 103 106
3 107 108 109
3 108 107 110
3 111 112 113
3 112 111 114
3 115 116 117
3 116 115 118
3 119 120 121
3 120 119 122
3 120 122 123
3 123 122 124
3 124 122 125
3 126 121 120
3 127 128 129
3 128 127 130
3 131 132 133
3 132 131 134
3 135 136 137
3 136 135 138
3 139 140 141
3 140 139 142
3 143 144 145
3 144 143 146
3 147 148 149
3 148 147 150
3 150 147 151
3 152 153 154
3 153 152 155
3 156 157 158
3 157 156 159
3 160 161 162
3 161 160 163
3 164 165 166
3 165 164 167
3 167 164 168
3 167 168 169
3 169 168 170
3 169 170 171
3 171 170 172
3 172 170 173
3 172 173 174
3 174 173 175
3 174 175 176
3 176 175 177
3 178 179 180
3 179 178 181
3 182 183 184
3 183 182 185
3 183 185 186
3 186 185 187
3 186 187 188
3 188 187 189
3 188 189 190
3 188 190 191
3 191 190 192
3 191 192 193
3 193 192 194
3 193 194 195
3 196 197 198
3 197 196 199
3 200 201 202
3 201 200 203
3 204 205 206
3 205 204 207
3 208 209 210
3 209 208 211
3 212 213 214
3 213 212 215
3 216 217 218
3 217 216 219
3 220 221 222
3 221 220 223
3 224 225 226
3 225 224 227
3 228 229 230
3 229 228 231
3 232 233 234
3 233 232 235
3 236 237 238
3 237 236 239
3 240 241 242
3 241 240 243
3 243 240 244
3 243 244 245
3 245 244 246
3 245 246 247
3 247 246 248
3 248 246 249
3 248 249 250
3 250 249 251
3 250 251 252
3 252 251 253
3 254 255 256
3 255 254 257
3 258 259 260
3 259 258 261
3 259 261 262
3 262 261 263
3 262 263 264
3 264 263 265
3 264 265 266
3 264 266 267
3 267 266 268
3 267 268 269
3 269 268 270
3 269 270 271
3 272 273 274
3 273 272 275
3 276 277 278
3 277 276 279
3 280 281 282
3 281 280 283
3 284 285 286
3 285 284 287
3 288 289 290
3 289 288 291
3 292 293 294
3 293 292 295
3 296 297 298
3 297 296 299
3 300 301 302
3 301 300 303
3 304 305 306
3 305 304 307
3 308 309 310
3 309 308 311

