ply
format ascii 1.0
commentY29udmVydGVyIGJ5IENvZGVMZW9wYXJk
comment Original mesh name: 'C:\Program Files (x86)\Steam\steamapps\common\Stormworks\rom\meshes\component_solid_rocket_nozzle_small.mesh'
comment SubMesh index: 0
comment SubMesh name: 'ID33'
comment Shader: Opaque (0)
element vertex 144
property float x
property float y
property float z
property float nx
property float ny
property float nz
property uchar red
property uchar green
property uchar blue
property uchar alpha
element face 92
property list uchar ushort vertex_index
end_header
-0.10625 0.0440102 -0.0030000117 0.8831157 -0 -0.4691552 84 84 84 255
-0.07968748 -0.033007655 0.04699998 0.8831157 -0 -0.4691552 84 84 84 255
-0.10625 -0.0440102 -0.0030000117 0.8831157 -0 -0.4691552 84 84 84 255
-0.07968748 0.033007655 0.04699998 0.8831157 -0 -0.4691552 84 84 84 255
-0.033007655 0.07968748 0.04699998 0.6244571 -0.6244571 -0.4691553 84 84 84 255
-0.10625 0.0440102 -0.0030000117 0.6244571 -0.6244571 -0.4691553 84 84 84 255
-0.0440102 0.10625 -0.0030000117 0.6244571 -0.6244571 -0.4691553 84 84 84 255
-0.07968748 0.033007655 0.04699998 0.6244571 -0.6244571 -0.4691553 84 84 84 255
-0.07968748 0.033007655 0.04699998 -0.98072773 -0 -0.19537944 84 84 84 255
-0.05976561 -0.024755735 -0.053000018 -0.98072773 -0 -0.19537944 84 84 84 255
-0.07968748 -0.033007655 0.04699998 -0.98072773 -0 -0.19537944 84 84 84 255
-0.05976561 0.024755735 -0.053000018 -0.98072773 -0 -0.19537944 84 84 84 255
-0.07968748 -0.033007655 0.04699998 0.6244571 0.6244571 -0.4691553 84 84 84 255
-0.0440102 -0.10625 -0.0030000117 0.6244571 0.6244571 -0.4691553 84 84 84 255
-0.10625 -0.0440102 -0.0030000117 0.6244571 0.6244571 -0.4691553 84 84 84 255
-0.033007655 -0.07968748 0.04699998 0.6244571 0.6244571 -0.4691553 84 84 84 255
0.033007655 0.07968748 0.04699998 0 -0.8831157 -0.4691552 84 84 84 255
-0.0440102 0.10625 -0.0030000117 0 -0.8831157 -0.4691552 84 84 84 255
0.0440102 0.10625 -0.0030000117 0 -0.8831157 -0.4691552 84 84 84 255
-0.033007655 0.07968748 0.04699998 0 -0.8831157 -0.4691552 84 84 84 255
-0.07968748 0.033007655 0.04699998 -0.6934792 0.6934792 -0.1953794 84 84 84 255
-0.024755735 0.05976561 -0.053000018 -0.6934792 0.6934792 -0.1953794 84 84 84 255
-0.05976561 0.024755735 -0.053000018 -0.6934792 0.6934792 -0.1953794 84 84 84 255
-0.033007655 0.07968748 0.04699998 -0.6934792 0.6934792 -0.1953794 84 84 84 255
-0.033007655 -0.07968748 0.04699998 -0.6934792 -0.6934792 -0.1953794 84 84 84 255
-0.05976561 -0.024755735 -0.053000018 -0.6934792 -0.6934792 -0.1953794 84 84 84 255
-0.024755735 -0.05976561 -0.053000018 -0.6934792 -0.6934792 -0.1953794 84 84 84 255
-0.07968748 -0.033007655 0.04699998 -0.6934792 -0.6934792 -0.1953794 84 84 84 255
-0.033007655 -0.07968748 0.04699998 0 0.8831157 -0.4691552 84 84 84 255
0.0440102 -0.10625 -0.0030000117 0 0.8831157 -0.4691552 84 84 84 255
-0.0440102 -0.10625 -0.0030000117 0 0.8831157 -0.4691552 84 84 84 255
0.033007655 -0.07968748 0.04699998 0 0.8831157 -0.4691552 84 84 84 255
0.033007655 0.07968748 0.04699998 -0.6244571 -0.6244571 -0.4691553 84 84 84 255
0.10625 0.0440102 -0.0030000117 -0.6244571 -0.6244571 -0.4691553 84 84 84 255
0.07968748 0.033007655 0.04699998 -0.6244571 -0.6244571 -0.4691553 84 84 84 255
0.0440102 0.10625 -0.0030000117 -0.6244571 -0.6244571 -0.4691553 84 84 84 255
-0.033007655 0.07968748 0.04699998 -8.543047E-18 0.98072773 -0.19537944 84 84 84 255
0.024755735 0.05976561 -0.053000018 -8.543047E-18 0.98072773 -0.19537944 84 84 84 255
-0.024755735 0.05976561 -0.053000018 -8.543047E-18 0.98072773 -0.19537944 84 84 84 255
0.033007655 0.07968748 0.04699998 -8.543047E-18 0.98072773 -0.19537944 84 84 84 255
0.033007655 -0.07968748 0.04699998 -6.447582E-18 -0.98072773 -0.19537944 84 84 84 255
-0.024755735 -0.05976561 -0.053000018 -6.447582E-18 -0.98072773 -0.19537944 84 84 84 255
0.024755735 -0.05976561 -0.053000018 -6.447582E-18 -0.98072773 -0.19537944 84 84 84 255
-0.033007655 -0.07968748 0.04699998 -6.447582E-18 -0.98072773 -0.19537944 84 84 84 255
0.033007655 -0.07968748 0.04699998 -0.6244571 0.6244571 -0.4691553 84 84 84 255
0.10625 -0.0440102 -0.0030000117 -0.6244571 0.6244571 -0.4691553 84 84 84 255
0.0440102 -0.10625 -0.0030000117 -0.6244571 0.6244571 -0.4691553 84 84 84 255
0.07968748 -0.033007655 0.04699998 -0.6244571 0.6244571 -0.4691553 84 84 84 255
0.024755735 0.05976561 -0.053000018 0.6934792 0.6934792 -0.1953794 84 84 84 255
0.07968748 0.033007655 0.04699998 0.6934792 0.6934792 -0.1953794 84 84 84 255
0.05976561 0.024755735 -0.053000018 0.6934792 0.6934792 -0.1953794 84 84 84 255
0.033007655 0.07968748 0.04699998 0.6934792 0.6934792 -0.1953794 84 84 84 255
0.07968748 -0.033007655 0.04699998 -0.8831157 -0 -0.4691552 84 84 84 255
0.10625 0.0440102 -0.0030000117 -0.8831157 -0 -0.4691552 84 84 84 255
0.10625 -0.0440102 -0.0030000117 -0.8831157 -0 -0.4691552 84 84 84 255
0.07968748 0.033007655 0.04699998 -0.8831157 -0 -0.4691552 84 84 84 255
0.024755735 -0.05976561 -0.053000018 0.6934792 -0.6934792 -0.1953794 84 84 84 255
0.07968748 -0.033007655 0.04699998 0.6934792 -0.6934792 -0.1953794 84 84 84 255
0.033007655 -0.07968748 0.04699998 0.6934792 -0.6934792 -0.1953794 84 84 84 255
0.05976561 -0.024755735 -0.053000018 0.6934792 -0.6934792 -0.1953794 84 84 84 255
0.05976561 -0.024755735 -0.053000018 0.98072773 -0 -0.19537944 84 84 84 255
0.07968748 0.033007655 0.04699998 0.98072773 -0 -0.19537944 84 84 84 255
0.07968748 -0.033007655 0.04699998 0.98072773 -0 -0.19537944 84 84 84 255
0.05976561 0.024755735 -0.053000018 0.98072773 -0 -0.19537944 84 84 84 255
0.024755735 -0.05976561 -0.053000018 0 -0 -1 30 30 30 255
0.05976561 0.024755735 -0.053000018 0 -0 -1 30 30 30 255
0.05976561 -0.024755735 -0.053000018 0 -0 -1 30 30 30 255
0.024755735 0.05976561 -0.053000018 0 -0 -1 30 30 30 255
-0.024755735 -0.05976561 -0.053000018 0 -0 -1 30 30 30 255
-0.024755735 0.05976561 -0.053000018 0 -0 -1 30 30 30 255
-0.05976561 -0.024755735 -0.053000018 0 -0 -1 30 30 30 255
-0.05976561 0.024755735 -0.053000018 0 -0 -1 30 30 30 255
-0.051776703 -0.125 -0.0030000117 0 1 -0 255 125 0 255
0.051776703 -0.125 -0.125 0 1 -0 255 125 0 255
-0.051776703 -0.125 -0.125 0 1 -0 255 125 0 255
0.051776703 -0.125 -0.0030000117 0 1 -0 255 125 0 255
-0.125 -0.051776703 -0.0030000117 0.70710677 0.70710677 -6.805703E-17 255 125 0 255
-0.051776703 -0.125 -0.125 0.70710677 0.70710677 -6.805703E-17 255 125 0 255
-0.125 -0.051776703 -0.125 0.70710677 0.70710677 -6.805703E-17 255 125 0 255
-0.051776703 -0.125 -0.0030000117 0.70710677 0.70710677 -6.805703E-17 255 125 0 255
0.125 -0.051776703 -0.0030000117 -0.70710677 0.70710677 1.3611409E-16 255 125 0 255
0.051776703 -0.125 -0.125 -0.70710677 0.70710677 1.3611409E-16 255 125 0 255
0.051776703 -0.125 -0.0030000117 -0.70710677 0.70710677 1.3611409E-16 255 125 0 255
0.125 -0.051776703 -0.125 -0.70710677 0.70710677 1.3611409E-16 255 125 0 255
-0.125 0.051776703 -0.125 1 -0 -1.849158E-16 255 125 0 255
-0.125 -0.051776703 -0.0030000117 1 -0 -1.849158E-16 255 125 0 255
-0.125 -0.051776703 -0.125 1 -0 -1.849158E-16 255 125 0 255
-0.125 0.051776703 -0.0030000117 1 -0 -1.849158E-16 255 125 0 255
0.125 0.051776703 -0.0030000117 -1 -0 1.849158E-16 255 125 0 255
0.125 -0.051776703 -0.125 -1 -0 1.849158E-16 255 125 0 255
0.125 -0.051776703 -0.0030000117 -1 -0 1.849158E-16 255 125 0 255
0.125 0.051776703 -0.125 -1 -0 1.849158E-16 255 125 0 255
-0.051776703 0.125 -0.0030000117 0.70710677 -0.70710677 -6.805703E-17 255 125 0 255
-0.125 0.051776703 -0.125 0.70710677 -0.70710677 -6.805703E-17 255 125 0 255
-0.051776703 0.125 -0.125 0.70710677 -0.70710677 -6.805703E-17 255 125 0 255
-0.125 0.051776703 -0.0030000117 0.70710677 -0.70710677 -6.805703E-17 255 125 0 255
0.051776703 0.125 -0.0030000117 -0.70710677 -0.70710677 1.3611409E-16 255 125 0 255
0.125 0.051776703 -0.125 -0.70710677 -0.70710677 1.3611409E-16 255 125 0 255
0.125 0.051776703 -0.0030000117 -0.70710677 -0.70710677 1.3611409E-16 255 125 0 255
0.051776703 0.125 -0.125 -0.70710677 -0.70710677 1.3611409E-16 255 125 0 255
0.051776703 0.125 -0.0030000117 0 -1 -0 255 125 0 255
-0.051776703 0.125 -0.125 0 -1 -0 255 125 0 255
0.051776703 0.125 -0.125 0 -1 -0 255 125 0 255
-0.051776703 0.125 -0.0030000117 0 -1 -0 255 125 0 255
0.125 0.051776703 -0.125 0 -0 1 30 30 30 255
0.10625 0.0440102 -0.125 0 -0 1 30 30 30 255
0.125 -0.051776703 -0.125 0 -0 1 30 30 30 255
0.051776703 0.125 -0.125 0 -0 1 30 30 30 255
0.0440102 0.10625 -0.125 0 -0 1 30 30 30 255
-0.051776703 0.125 -0.125 0 -0 1 30 30 30 255
-0.0440102 0.10625 -0.125 0 -0 1 30 30 30 255
-0.10625 0.0440102 -0.125 0 -0 1 30 30 30 255
-0.125 0.051776703 -0.125 0 -0 1 30 30 30 255
-0.10625 -0.0440102 -0.125 0 -0 1 30 30 30 255
0.10625 -0.0440102 -0.125 0 -0 1 30 30 30 255
0.051776703 -0.125 -0.125 0 -0 1 30 30 30 255
0.0440102 -0.10625 -0.125 0 -0 1 30 30 30 255
-0.051776703 -0.125 -0.125 0 -0 1 30 30 30 255
-0.0440102 -0.10625 -0.125 0 -0 1 30 30 30 255
-0.125 -0.051776703 -0.125 0 -0 1 30 30 30 255
0.0440102 0.10625 -0.125 0 -0 1 84 84 84 255
0.10625 -0.0440102 -0.125 0 -0 1 84 84 84 255
0.10625 0.0440102 -0.125 0 -0 1 84 84 84 255
0.0440102 -0.10625 -0.125 0 -0 1 84 84 84 255
-0.0440102 0.10625 -0.125 0 -0 1 84 84 84 255
-0.0440102 -0.10625 -0.125 0 -0 1 84 84 84 255
-0.10625 0.0440102 -0.125 0 -0 1 84 84 84 255
-0.10625 -0.0440102 -0.125 0 -0 1 84 84 84 255
0.125 -0.051776703 -0.0030000117 0 -0 -1 84 84 84 255
0.10625 -0.0440102 -0.0030000117 0 -0 -1 84 84 84 255
0.125 0.051776703 -0.0030000117 0 -0 -1 84 84 84 255
0.051776703 -0.125 -0.0030000117 0 -0 -1 84 84 84 255
0.0440102 -0.10625 -0.0030000117 0 -0 -1 84 84 84 255
-0.051776703 -0.125 -0.0030000117 0 -0 -1 84 84 84 255
-0.0440102 -0.10625 -0.0030000117 0 -0 -1 84 84 84 255
-0.10625 -0.0440102 -0.0030000117 0 -0 -1 84 84 84 255
-0.125 -0.051776703 -0.0030000117 0 -0 -1 84 84 84 255
-0.10625 0.0440102 -0.0030000117 0 -0 -1 84 84 84 255
0.10625 0.0440102 -0.0030000117 0 -0 -1 84 84 84 255
0.051776703 0.125 -0.0030000117 0 -0 -1 84 84 84 255
0.0440102 0.10625 -0.0030000117 0 -0 -1 84 84 84 255
-0.051776703 0.125 -0.0030000117 0 -0 -1 84 84 84 255
-0.0440102 0.10625 -0.0030000117 0 -0 -1 84 84 84 255
-0.125 0.051776703 -0.0030000117 0 -0 -1 84 84 84 255
3 0 1 2
3 1 0 3
3 4 5 6
3 5 4 7
3 8 9 10
3 9 8 11
3 12 13 14
3 13 12 15
3 16 17 18
3 17 16 19
3 20 21 22
3 21 20 23
3 24 25 26
3 25 24 27
3 28 29 30
3 29 28 31
3 32 33 34
3 33 32 35
3 36 37 38
3 37 36 39
3 40 41 42
3 41 40 43
3 44 45 46
3 45 44 47
3 48 49 50
3 49 48 51
3 52 53 54
3 53 52 55
3 56 57 58
3 57 56 59
3 60 61 62
3 61 60 63
3 64 65 66
3 65 64 67
3 67 64 68
3 67 68 69
3 69 68 70
3 69 70 71
3 72 73 74
3 73 72 75
3 76 77 78
3 77 76 79
3 80 81 82
3 81 80 83
3 84 85 86
3 85 84 87
3 88 89 90
3 89 88 91
3 92 93 94
3 93 92 95
3 96 97 98
3 97 96 99
3 100 101 102
3 101 100 103
3 104 105 106
3 105 104 107
3 105 107 108
3 108 107 109
3 108 109 110
3 110 109 111
3 111 109 112
3 111 112 113
3 106 114 115
3 114 106 105
3 115 114 116
3 115 116 117
3 117 116 118
3 117 118 113
3 117 113 119
3 119 113 112
3 120 121 122
3 121 120 123
3 123 120 124
3 123 124 125
3 125 124 126
3 125 126 127
3 128 129 130
3 129 128 131
3 129 131 132
3 132 131 133
3 132 133 134
3 134 133 135
3 135 133 136
3 135 136 137
3 130 138 139
3 138 130 129
3 139 138 140
3 139 140 141
3 141 140 142
3 141 142 137
3 141 137 143
3 143 137 136

