ply
format ascii 1.0
commentY29udmVydGVyIGJ5IENvZGVMZW9wYXJk
comment Original mesh name: 'C:\Program Files (x86)\Steam\steamapps\common\Stormworks\rom\meshes\component_gun_xs_ammo_holder.mesh'
comment SubMesh index: 0
comment SubMesh name: 'ID22'
comment Shader: Opaque (0)
element vertex 184
property float x
property float y
property float z
property float nx
property float ny
property float nz
property uchar red
property uchar green
property uchar blue
property uchar alpha
element face 119
property list uchar ushort vertex_index
end_header
-0.07643657 -0.08643657 -0.114999995 -1 3.6776138E-16 1.9428899E-16 113 113 113 255
-0.07643657 -0.047563426 -0.125 -1 3.6776138E-16 1.9428899E-16 113 113 113 255
-0.07643657 -0.08643657 -0.125 -1 3.6776138E-16 1.9428899E-16 113 113 113 255
-0.07643657 -0.047563426 -0.114999995 -1 3.6776138E-16 1.9428899E-16 113 113 113 255
-0.07643657 -0.08643657 -0.114999995 -3.6776138E-16 -1 8.3266694E-17 113 113 113 255
0.07643657 -0.08643657 -0.125 -3.6776138E-16 -1 8.3266694E-17 113 113 113 255
0.07643657 -0.08643657 -0.114999995 -3.6776138E-16 -1 8.3266694E-17 113 113 113 255
-0.07643657 -0.08643657 -0.125 -3.6776138E-16 -1 8.3266694E-17 113 113 113 255
-0.07643657 -0.08643657 -0.114999995 1.9428899E-16 8.3266694E-17 1 113 113 113 255
0.07643657 -0.047563426 -0.114999995 1.9428899E-16 8.3266694E-17 1 113 113 113 255
-0.07643657 -0.047563426 -0.114999995 1.9428899E-16 8.3266694E-17 1 113 113 113 255
0.07643657 -0.08643657 -0.114999995 1.9428899E-16 8.3266694E-17 1 113 113 113 255
-0.07643657 -0.047563426 -0.125 3.6776138E-16 1 -8.3266694E-17 113 113 113 255
0.07643657 -0.047563426 -0.114999995 3.6776138E-16 1 -8.3266694E-17 113 113 113 255
0.07643657 -0.047563426 -0.125 3.6776138E-16 1 -8.3266694E-17 113 113 113 255
-0.07643657 -0.047563426 -0.114999995 3.6776138E-16 1 -8.3266694E-17 113 113 113 255
0.07643657 -0.047563426 -0.114999995 1 -3.6776138E-16 -1.9428899E-16 113 113 113 255
0.07643657 -0.08643657 -0.125 1 -3.6776138E-16 -1.9428899E-16 113 113 113 255
0.07643657 -0.047563426 -0.125 1 -3.6776138E-16 -1.9428899E-16 113 113 113 255
0.07643657 -0.08643657 -0.114999995 1 -3.6776138E-16 -1.9428899E-16 113 113 113 255
-0.114999995 0.05499999 0.047000006 -1 3.6776138E-16 1.9428899E-16 30 30 30 255
-0.114999995 0.074999996 -0.019999992 -1 3.6776138E-16 1.9428899E-16 30 30 30 255
-0.114999995 0.05499999 -0.019999992 -1 3.6776138E-16 1.9428899E-16 30 30 30 255
-0.114999995 -0.114999995 -0.09243761 -1 3.6776138E-16 1.9428899E-16 30 30 30 255
-0.114999995 0.114999995 -0.11243762 -1 3.6776138E-16 1.9428899E-16 30 30 30 255
-0.114999995 -0.114999995 -0.11243762 -1 3.6776138E-16 1.9428899E-16 30 30 30 255
-0.114999995 0.074999996 -0.03999999 -1 3.6776138E-16 1.9428899E-16 30 30 30 255
-0.114999995 0.114999995 0.10500002 -1 3.6776138E-16 1.9428899E-16 30 30 30 255
-0.114999995 0.074999996 0.047000006 -1 3.6776138E-16 1.9428899E-16 30 30 30 255
-0.114999995 0.074999996 0.10500002 -1 3.6776138E-16 1.9428899E-16 30 30 30 255
-0.114999995 0.05499999 0.047000006 -1.9428899E-16 -8.3266694E-17 -1 30 30 30 255
-0.125 0.074999996 0.047000006 -1.9428899E-16 -8.3266694E-17 -1 30 30 30 255
-0.114999995 0.074999996 0.047000006 -1.9428899E-16 -8.3266694E-17 -1 30 30 30 255
-0.125 0.05499999 0.047000006 -1.9428899E-16 -8.3266694E-17 -1 30 30 30 255
-0.125 0.074999996 0.047000006 3.6776138E-16 1 -8.3266694E-17 30 30 30 255
-0.114999995 0.074999996 0.10500002 3.6776138E-16 1 -8.3266694E-17 30 30 30 255
-0.114999995 0.074999996 0.047000006 3.6776138E-16 1 -8.3266694E-17 30 30 30 255
-0.114999995 0.074999996 0.125 3.6776138E-16 1 -8.3266694E-17 30 30 30 255
-0.125 0.074999996 0.114999995 3.6776138E-16 1 -8.3266694E-17 30 30 30 255
0.105 0.074999996 0.114999995 3.6776138E-16 1 -8.3266694E-17 30 30 30 255
0.114999995 0.074999996 0.125 3.6776138E-16 1 -8.3266694E-17 30 30 30 255
0.114999995 0.074999996 0.109000005 3.6776138E-16 1 -8.3266694E-17 30 30 30 255
-0.10500002 0.074999996 0.114999995 3.6776138E-16 1 -8.3266694E-17 30 30 30 255
-0.114999995 0.074999996 0.10500002 -0.70710677 3.1892503E-16 0.70710677 30 30 30 255
-0.10500002 0.114999995 0.114999995 -0.70710677 3.1892503E-16 0.70710677 30 30 30 255
-0.114999995 0.114999995 0.10500002 -0.70710677 3.1892503E-16 0.70710677 30 30 30 255
-0.10500002 0.074999996 0.114999995 -0.70710677 3.1892503E-16 0.70710677 30 30 30 255
-0.114999995 0.114999995 -0.11243762 3.6776138E-16 1 -8.3266694E-17 30 30 30 255
0.114999995 0.114999995 0.109000005 3.6776138E-16 1 -8.3266694E-17 30 30 30 255
0.114999995 0.114999995 -0.11243762 3.6776138E-16 1 -8.3266694E-17 30 30 30 255
0.105 0.114999995 0.114999995 3.6776138E-16 1 -8.3266694E-17 30 30 30 255
-0.10500002 0.114999995 0.114999995 3.6776138E-16 1 -8.3266694E-17 30 30 30 255
-0.114999995 0.114999995 0.10500002 3.6776138E-16 1 -8.3266694E-17 30 30 30 255
0.114999995 -0.114999995 -0.11243762 -1.9428899E-16 -8.3266694E-17 -1 30 30 30 255
-0.114999995 0.114999995 -0.11243762 -1.9428899E-16 -8.3266694E-17 -1 30 30 30 255
0.114999995 0.114999995 -0.11243762 -1.9428899E-16 -8.3266694E-17 -1 30 30 30 255
-0.114999995 -0.114999995 -0.11243762 -1.9428899E-16 -8.3266694E-17 -1 30 30 30 255
-0.114999995 -0.114999995 -0.09243761 -3.6776138E-16 -1 8.3266694E-17 30 30 30 255
0.114999995 -0.114999995 -0.11243762 -3.6776138E-16 -1 8.3266694E-17 30 30 30 255
0.114999995 -0.114999995 -0.09243761 -3.6776138E-16 -1 8.3266694E-17 30 30 30 255
-0.114999995 -0.114999995 -0.11243762 -3.6776138E-16 -1 8.3266694E-17 30 30 30 255
-0.114999995 -0.114999995 -0.09243761 -8.944742E-17 0.26604134 -0.96396166 30 30 30 255
-0.125 0.074999996 -0.03999999 -8.944742E-17 0.26604134 -0.96396166 30 30 30 255
-0.114999995 0.074999996 -0.03999999 -8.944742E-17 0.26604134 -0.96396166 30 30 30 255
-0.125 -0.114999995 -0.09243761 -8.944742E-17 0.26604134 -0.96396166 30 30 30 255
-0.125 0.074999996 -0.03999999 3.6776138E-16 1 -8.3266694E-17 30 30 30 255
-0.114999995 0.074999996 -0.019999992 3.6776138E-16 1 -8.3266694E-17 30 30 30 255
-0.114999995 0.074999996 -0.03999999 3.6776138E-16 1 -8.3266694E-17 30 30 30 255
-0.125 0.074999996 -0.019999992 3.6776138E-16 1 -8.3266694E-17 30 30 30 255
-0.125 0.05499999 -0.019999992 1.9428899E-16 8.3266694E-17 1 30 30 30 255
-0.114999995 0.074999996 -0.019999992 1.9428899E-16 8.3266694E-17 1 30 30 30 255
-0.125 0.074999996 -0.019999992 1.9428899E-16 8.3266694E-17 1 30 30 30 255
-0.114999995 0.05499999 -0.019999992 1.9428899E-16 8.3266694E-17 1 30 30 30 255
-0.125 0.05499999 -0.019999992 3.6776138E-16 1 -8.3266694E-17 30 30 30 255
-0.114999995 0.05499999 0.047000006 3.6776138E-16 1 -8.3266694E-17 30 30 30 255
-0.114999995 0.05499999 -0.019999992 3.6776138E-16 1 -8.3266694E-17 30 30 30 255
-0.125 0.05499999 0.047000006 3.6776138E-16 1 -8.3266694E-17 30 30 30 255
-0.125 0.125 -0.125 1 -3.6776138E-16 -1.9428899E-16 30 30 30 255
-0.125 0.074999996 -0.03999999 1 -3.6776138E-16 -1.9428899E-16 30 30 30 255
-0.125 -0.125 -0.125 1 -3.6776138E-16 -1.9428899E-16 30 30 30 255
-0.125 0.125 0.114999995 1 -3.6776138E-16 -1.9428899E-16 30 30 30 255
-0.125 -0.114999995 -0.09243761 1 -3.6776138E-16 -1.9428899E-16 30 30 30 255
-0.125 0.074999996 -0.019999992 1 -3.6776138E-16 -1.9428899E-16 30 30 30 255
-0.125 0.05499999 -0.019999992 1 -3.6776138E-16 -1.9428899E-16 30 30 30 255
-0.125 0.074999996 0.047000006 1 -3.6776138E-16 -1.9428899E-16 30 30 30 255
-0.125 0.074999996 0.114999995 1 -3.6776138E-16 -1.9428899E-16 30 30 30 255
-0.125 0.05499999 0.047000006 1 -3.6776138E-16 -1.9428899E-16 30 30 30 255
-0.125 -0.125 -0.09243761 1 -3.6776138E-16 -1.9428899E-16 30 30 30 255
-0.10500002 0.074999996 0.114999995 1.9428899E-16 8.3266694E-17 1 30 30 30 255
0.105 0.114999995 0.114999995 1.9428899E-16 8.3266694E-17 1 30 30 30 255
-0.10500002 0.114999995 0.114999995 1.9428899E-16 8.3266694E-17 1 30 30 30 255
0.105 0.074999996 0.114999995 1.9428899E-16 8.3266694E-17 1 30 30 30 255
-0.114999995 0.125 0.125 0.70710677 -3.1892503E-16 -0.70710677 30 30 30 255
-0.125 0.074999996 0.114999995 0.70710677 -3.1892503E-16 -0.70710677 30 30 30 255
-0.125 0.125 0.114999995 0.70710677 -3.1892503E-16 -0.70710677 30 30 30 255
-0.114999995 0.074999996 0.125 0.70710677 -3.1892503E-16 -0.70710677 30 30 30 255
0.114999995 0.074999996 0.125 -1.9428899E-16 -8.3266694E-17 -1 30 30 30 255
-0.114999995 0.125 0.125 -1.9428899E-16 -8.3266694E-17 -1 30 30 30 255
0.114999995 0.125 0.125 -1.9428899E-16 -8.3266694E-17 -1 30 30 30 255
-0.114999995 0.074999996 0.125 -1.9428899E-16 -8.3266694E-17 -1 30 30 30 255
0.105 0.074999996 0.114999995 0.5144947 -1.1301223E-16 0.85749346 30 30 30 255
0.114999995 0.114999995 0.109000005 0.5144947 -1.1301223E-16 0.85749346 30 30 30 255
0.105 0.114999995 0.114999995 0.5144947 -1.1301223E-16 0.85749346 30 30 30 255
0.114999995 0.074999996 0.109000005 0.5144947 -1.1301223E-16 0.85749346 30 30 30 255
0.114999995 0.114999995 -0.11243762 1 -3.6776138E-16 -1.9428899E-16 30 30 30 255
0.114999995 0.074999996 -0.03999999 1 -3.6776138E-16 -1.9428899E-16 30 30 30 255
0.114999995 -0.114999995 -0.11243762 1 -3.6776138E-16 -1.9428899E-16 30 30 30 255
0.114999995 0.114999995 0.109000005 1 -3.6776138E-16 -1.9428899E-16 30 30 30 255
0.114999995 -0.114999995 -0.09243761 1 -3.6776138E-16 -1.9428899E-16 30 30 30 255
0.114999995 0.074999996 -0.019999992 1 -3.6776138E-16 -1.9428899E-16 30 30 30 255
0.114999995 0.05499999 -0.019999992 1 -3.6776138E-16 -1.9428899E-16 30 30 30 255
0.114999995 0.074999996 0.047000006 1 -3.6776138E-16 -1.9428899E-16 30 30 30 255
0.114999995 0.074999996 0.109000005 1 -3.6776138E-16 -1.9428899E-16 30 30 30 255
0.114999995 0.05499999 0.047000006 1 -3.6776138E-16 -1.9428899E-16 30 30 30 255
0.125 -0.125 -0.09243761 -1.9428899E-16 -8.3266694E-17 -1 30 30 30 255
0.114999995 -0.114999995 -0.09243761 -1.9428899E-16 -8.3266694E-17 -1 30 30 30 255
0.125 -0.114999995 -0.09243761 -1.9428899E-16 -8.3266694E-17 -1 30 30 30 255
-0.114999995 -0.114999995 -0.09243761 -1.9428899E-16 -8.3266694E-17 -1 30 30 30 255
-0.125 -0.114999995 -0.09243761 -1.9428899E-16 -8.3266694E-17 -1 30 30 30 255
-0.125 -0.125 -0.09243761 -1.9428899E-16 -8.3266694E-17 -1 30 30 30 255
-0.125 -0.125 -0.125 3.6776138E-16 1 -8.3266694E-17 30 30 30 255
0.125 -0.125 -0.09243761 3.6776138E-16 1 -8.3266694E-17 30 30 30 255
0.125 -0.125 -0.125 3.6776138E-16 1 -8.3266694E-17 30 30 30 255
-0.125 -0.125 -0.09243761 3.6776138E-16 1 -8.3266694E-17 30 30 30 255
-0.125 0.125 -0.125 1.9428899E-16 8.3266694E-17 1 30 30 30 255
-0.08643657 -0.037563425 -0.125 1.9428899E-16 8.3266694E-17 1 30 30 30 255
0.125 0.125 -0.125 1.9428899E-16 8.3266694E-17 1 30 30 30 255
-0.125 -0.125 -0.125 1.9428899E-16 8.3266694E-17 1 30 30 30 255
-0.08643657 -0.09643655 -0.125 1.9428899E-16 8.3266694E-17 1 30 30 30 255
0.08643655 -0.09643655 -0.125 1.9428899E-16 8.3266694E-17 1 30 30 30 255
0.08643655 -0.037563425 -0.125 1.9428899E-16 8.3266694E-17 1 30 30 30 255
0.125 -0.125 -0.125 1.9428899E-16 8.3266694E-17 1 30 30 30 255
0.114999995 0.125 0.125 -3.6776138E-16 -1 8.3266694E-17 30 30 30 255
0.125 0.125 -0.125 -3.6776138E-16 -1 8.3266694E-17 30 30 30 255
0.125 0.125 0.114999995 -3.6776138E-16 -1 8.3266694E-17 30 30 30 255
-0.125 0.125 -0.125 -3.6776138E-16 -1 8.3266694E-17 30 30 30 255
-0.114999995 0.125 0.125 -3.6776138E-16 -1 8.3266694E-17 30 30 30 255
-0.125 0.125 0.114999995 -3.6776138E-16 -1 8.3266694E-17 30 30 30 255
0.114999995 0.074999996 0.125 -0.70710677 2.0116813E-16 -0.70710677 30 30 30 255
0.125 0.125 0.114999995 -0.70710677 2.0116813E-16 -0.70710677 30 30 30 255
0.125 0.074999996 0.114999995 -0.70710677 2.0116813E-16 -0.70710677 30 30 30 255
0.114999995 0.125 0.125 -0.70710677 2.0116813E-16 -0.70710677 30 30 30 255
0.125 0.05499999 0.047000006 -1.9428899E-16 -8.3266694E-17 -1 30 30 30 255
0.114999995 0.074999996 0.047000006 -1.9428899E-16 -8.3266694E-17 -1 30 30 30 255
0.125 0.074999996 0.047000006 -1.9428899E-16 -8.3266694E-17 -1 30 30 30 255
0.114999995 0.05499999 0.047000006 -1.9428899E-16 -8.3266694E-17 -1 30 30 30 255
0.114999995 0.05499999 -0.019999992 3.6776138E-16 1 -8.3266694E-17 30 30 30 255
0.125 0.05499999 0.047000006 3.6776138E-16 1 -8.3266694E-17 30 30 30 255
0.125 0.05499999 -0.019999992 3.6776138E-16 1 -8.3266694E-17 30 30 30 255
0.114999995 0.05499999 0.047000006 3.6776138E-16 1 -8.3266694E-17 30 30 30 255
0.114999995 0.05499999 -0.019999992 1.9428899E-16 8.3266694E-17 1 30 30 30 255
0.125 0.074999996 -0.019999992 1.9428899E-16 8.3266694E-17 1 30 30 30 255
0.114999995 0.074999996 -0.019999992 1.9428899E-16 8.3266694E-17 1 30 30 30 255
0.125 0.05499999 -0.019999992 1.9428899E-16 8.3266694E-17 1 30 30 30 255
0.114999995 0.074999996 -0.03999999 3.6776138E-16 1 -8.3266694E-17 30 30 30 255
0.125 0.074999996 -0.019999992 3.6776138E-16 1 -8.3266694E-17 30 30 30 255
0.125 0.074999996 -0.03999999 3.6776138E-16 1 -8.3266694E-17 30 30 30 255
0.114999995 0.074999996 -0.019999992 3.6776138E-16 1 -8.3266694E-17 30 30 30 255
0.125 -0.114999995 -0.09243761 -8.944742E-17 0.26604134 -0.96396166 30 30 30 255
0.114999995 0.074999996 -0.03999999 -8.944742E-17 0.26604134 -0.96396166 30 30 30 255
0.125 0.074999996 -0.03999999 -8.944742E-17 0.26604134 -0.96396166 30 30 30 255
0.114999995 -0.114999995 -0.09243761 -8.944742E-17 0.26604134 -0.96396166 30 30 30 255
0.125 0.05499999 0.047000006 -1 3.6776138E-16 1.9428899E-16 30 30 30 255
0.125 0.074999996 -0.019999992 -1 3.6776138E-16 1.9428899E-16 30 30 30 255
0.125 0.05499999 -0.019999992 -1 3.6776138E-16 1.9428899E-16 30 30 30 255
0.125 -0.125 -0.09243761 -1 3.6776138E-16 1.9428899E-16 30 30 30 255
0.125 0.125 -0.125 -1 3.6776138E-16 1.9428899E-16 30 30 30 255
0.125 -0.125 -0.125 -1 3.6776138E-16 1.9428899E-16 30 30 30 255
0.125 -0.114999995 -0.09243761 -1 3.6776138E-16 1.9428899E-16 30 30 30 255
0.125 0.074999996 -0.03999999 -1 3.6776138E-16 1.9428899E-16 30 30 30 255
0.125 0.125 0.114999995 -1 3.6776138E-16 1.9428899E-16 30 30 30 255
0.125 0.074999996 0.047000006 -1 3.6776138E-16 1.9428899E-16 30 30 30 255
0.125 0.074999996 0.114999995 -1 3.6776138E-16 1.9428899E-16 30 30 30 255
0.114999995 0.074999996 0.047000006 3.6776138E-16 1 -8.3266694E-17 30 30 30 255
0.125 0.074999996 0.114999995 3.6776138E-16 1 -8.3266694E-17 30 30 30 255
0.125 0.074999996 0.047000006 3.6776138E-16 1 -8.3266694E-17 30 30 30 255
-0.08643657 -0.037563425 -0.125 1.9428899E-16 8.3266694E-17 1 113 113 113 255
-0.07643657 -0.047563426 -0.125 1.9428899E-16 8.3266694E-17 1 113 113 113 255
0.08643655 -0.037563425 -0.125 1.9428899E-16 8.3266694E-17 1 113 113 113 255
-0.08643657 -0.09643655 -0.125 1.9428899E-16 8.3266694E-17 1 113 113 113 255
-0.07643657 -0.08643657 -0.125 1.9428899E-16 8.3266694E-17 1 113 113 113 255
0.07643657 -0.08643657 -0.125 1.9428899E-16 8.3266694E-17 1 113 113 113 255
0.07643657 -0.047563426 -0.125 1.9428899E-16 8.3266694E-17 1 113 113 113 255
0.08643655 -0.09643655 -0.125 1.9428899E-16 8.3266694E-17 1 113 113 113 255
3 0 1 2
3 1 0 3
3 4 5 6
3 5 4 7
3 8 9 10
3 9 8 11
3 12 13 14
3 13 12 15
3 16 17 18
3 17 16 19
3 20 21 22
3 23 24 25
3 24 23 26
3 24 26 27
3 27 26 21
3 27 21 28
3 28 21 20
3 27 28 29
3 30 31 32
3 31 30 33
3 34 35 36
3 35 34 37
3 37 34 38
3 39 40 41
3 40 39 37
3 37 39 42
3 37 42 35
3 43 44 45
3 44 43 46
3 47 48 49
3 48 47 50
3 50 47 51
3 51 47 52
3 53 54 55
3 54 53 56
3 57 58 59
3 58 57 60
3 61 62 63
3 62 61 64
3 65 66 67
3 66 65 68
3 69 70 71
3 70 69 72
3 73 74 75
3 74 73 76
3 77 78 79
3 78 77 80
3 79 78 81
3 78 80 82
3 82 80 83
3 83 80 84
3 84 80 85
3 86 83 84
3 87 79 81
3 88 89 90
3 89 88 91
3 92 93 94
3 93 92 95
3 96 97 98
3 97 96 99
3 100 101 102
3 101 100 103
3 104 105 106
3 105 104 107
3 106 105 108
3 105 107 109
3 109 107 110
3 110 107 111
3 111 107 112
3 113 110 111
3 114 115 116
3 115 114 117
3 117 114 118
3 118 114 119
3 120 121 122
3 121 120 123
3 124 125 126
3 125 124 127
3 125 127 128
3 128 127 129
3 126 130 131
3 130 126 125
3 131 130 129
3 131 129 127
3 132 133 134
3 133 132 135
3 135 132 136
3 135 136 137
3 138 139 140
3 139 138 141
3 142 143 144
3 143 142 145
3 146 147 148
3 147 146 149
3 150 151 152
3 151 150 153
3 154 155 156
3 155 154 157
3 158 159 160
3 159 158 161
3 162 163 164
3 165 166 167
3 166 165 168
3 166 168 169
3 166 169 170
3 170 169 163
3 170 163 171
3 171 163 162
3 170 171 172
3 173 174 175
3 174 173 40
3 176 177 178
3 177 176 179
3 177 179 180
3 180 179 181
3 178 182 183
3 182 178 177
3 183 182 181
3 183 181 179

