ply
format ascii 1.0
commentY29udmVydGVyIGJ5IENvZGVMZW9wYXJk
comment Original mesh name: 'C:\Program Files (x86)\Steam\steamapps\common\Stormworks\rom\meshes\component_instrument_display_bar.mesh'
comment SubMesh index: 0
comment SubMesh name: 'ID32'
comment Shader: Opaque (0)
element vertex 76
property float x
property float y
property float z
property float nx
property float ny
property float nz
property uchar red
property uchar green
property uchar blue
property uchar alpha
element face 74
property list uchar ushort vertex_index
end_header
0.0025 -0.027499994 0.125 0 -0 -1 113 113 113 255
0.01 0.027499994 0.125 0 -0 -1 113 113 113 255
0.01 -0.027499994 0.125 0 -0 -1 113 113 113 255
0.0025 0.027499994 0.125 0 -0 -1 113 113 113 255
0.015 -0.027499994 0.125 0 -0 -1 113 113 113 255
0.022499999 0.027499994 0.125 0 -0 -1 113 113 113 255
0.022499999 -0.027499994 0.125 0 -0 -1 113 113 113 255
0.015 0.027499994 0.125 0 -0 -1 113 113 113 255
-0.035000004 -0.027499994 0.125 0 -0 -1 113 113 113 255
-0.027499994 0.027499994 0.125 0 -0 -1 113 113 113 255
-0.027499994 -0.027499994 0.125 0 -0 -1 113 113 113 255
-0.035000004 0.027499994 0.125 0 -0 -1 113 113 113 255
0.027499994 -0.027499994 0.125 0 -0 -1 113 113 113 255
0.035000004 0.027499994 0.125 0 -0 -1 113 113 113 255
0.035000004 -0.027499994 0.125 0 -0 -1 113 113 113 255
0.027499994 0.027499994 0.125 0 -0 -1 113 113 113 255
-0.01 -0.027499994 0.125 0 -0 -1 113 113 113 255
-0.0025 0.027499994 0.125 0 -0 -1 113 113 113 255
-0.0025 -0.027499994 0.125 0 -0 -1 113 113 113 255
-0.01 0.027499994 0.125 0 -0 -1 113 113 113 255
0.03999999 -0.027499994 0.125 0 -0 -1 113 113 113 255
0.047500003 0.027499994 0.125 0 -0 -1 113 113 113 255
0.047500003 -0.027499994 0.125 0 -0 -1 113 113 113 255
0.03999999 0.027499994 0.125 0 -0 -1 113 113 113 255
0.0625 -0.0625 0.125 0 -0 -1 255 125 0 255
0.0525 -0.03250001 0.125 0 -0 -1 255 125 0 255
0.0625 0.0625 0.125 0 -0 -1 255 125 0 255
-0.0625 -0.0625 0.125 0 -0 -1 255 125 0 255
-0.0525 -0.03250001 0.125 0 -0 -1 255 125 0 255
-0.0525 0.03250001 0.125 0 -0 -1 255 125 0 255
0.0525 0.03250001 0.125 0 -0 -1 255 125 0 255
-0.0625 0.0625 0.125 0 -0 -1 255 125 0 255
0.0525 -0.03250001 0.125 0 -0 -1 86 86 86 255
0.047500003 -0.027499994 0.125 0 -0 -1 86 86 86 255
0.0525 0.03250001 0.125 0 -0 -1 86 86 86 255
-0.0525 -0.03250001 0.125 0 -0 -1 86 86 86 255
0.03999999 -0.027499994 0.125 0 -0 -1 86 86 86 255
0.035000004 -0.027499994 0.125 0 -0 -1 86 86 86 255
0.03999999 0.027499994 0.125 0 -0 -1 86 86 86 255
0.027499994 -0.027499994 0.125 0 -0 -1 86 86 86 255
0.022499999 -0.027499994 0.125 0 -0 -1 86 86 86 255
0.027499994 0.027499994 0.125 0 -0 -1 86 86 86 255
0.015 -0.027499994 0.125 0 -0 -1 86 86 86 255
0.01 -0.027499994 0.125 0 -0 -1 86 86 86 255
0.015 0.027499994 0.125 0 -0 -1 86 86 86 255
0.0025 -0.027499994 0.125 0 -0 -1 86 86 86 255
-0.0025 -0.027499994 0.125 0 -0 -1 86 86 86 255
0.0025 0.027499994 0.125 0 -0 -1 86 86 86 255
-0.01 -0.027499994 0.125 0 -0 -1 86 86 86 255
-0.015 -0.027499994 0.125 0 -0 -1 86 86 86 255
-0.01 0.027499994 0.125 0 -0 -1 86 86 86 255
-0.022499999 -0.027499994 0.125 0 -0 -1 86 86 86 255
-0.027499994 -0.027499994 0.125 0 -0 -1 86 86 86 255
-0.022499999 0.027499994 0.125 0 -0 -1 86 86 86 255
-0.035000004 -0.027499994 0.125 0 -0 -1 86 86 86 255
-0.03999999 -0.027499994 0.125 0 -0 -1 86 86 86 255
-0.035000004 0.027499994 0.125 0 -0 -1 86 86 86 255
-0.047500003 -0.027499994 0.125 0 -0 -1 86 86 86 255
-0.047500003 0.027499994 0.125 0 -0 -1 86 86 86 255
0.047500003 0.027499994 0.125 0 -0 -1 86 86 86 255
-0.0525 0.03250001 0.125 0 -0 -1 86 86 86 255
0.035000004 0.027499994 0.125 0 -0 -1 86 86 86 255
0.022499999 0.027499994 0.125 0 -0 -1 86 86 86 255
0.01 0.027499994 0.125 0 -0 -1 86 86 86 255
-0.0025 0.027499994 0.125 0 -0 -1 86 86 86 255
-0.015 0.027499994 0.125 0 -0 -1 86 86 86 255
-0.027499994 0.027499994 0.125 0 -0 -1 86 86 86 255
-0.03999999 0.027499994 0.125 0 -0 -1 86 86 86 255
-0.047500003 -0.027499994 0.125 0 -0 -1 113 113 113 255
-0.03999999 0.027499994 0.125 0 -0 -1 113 113 113 255
-0.03999999 -0.027499994 0.125 0 -0 -1 113 113 113 255
-0.047500003 0.027499994 0.125 0 -0 -1 113 113 113 255
-0.022499999 -0.027499994 0.125 0 -0 -1 113 113 113 255
-0.015 0.027499994 0.125 0 -0 -1 113 113 113 255
-0.015 -0.027499994 0.125 0 -0 -1 113 113 113 255
-0.022499999 0.027499994 0.125 0 -0 -1 113 113 113 255
3 0 1 2
3 1 0 3
3 4 5 6
3 5 4 7
3 8 9 10
3 9 8 11
3 12 13 14
3 13 12 15
3 16 17 18
3 17 16 19
3 20 21 22
3 21 20 23
3 24 25 26
3 25 24 27
3 25 27 28
3 28 27 29
3 26 30 31
3 30 26 25
3 31 30 29
3 31 29 27
3 32 33 34
3 33 32 35
3 33 35 36
3 36 35 37
3 36 37 38
3 37 35 39
3 39 35 40
3 39 40 41
3 40 35 42
3 42 35 43
3 42 43 44
3 43 35 45
3 45 35 46
3 45 46 47
3 46 35 48
3 48 35 49
3 48 49 50
3 49 35 51
3 51 35 52
3 51 52 53
3 52 35 54
3 54 35 55
3 54 55 56
3 55 35 57
3 57 35 58
3 34 59 60
3 59 34 33
3 60 59 38
3 60 38 61
3 61 38 37
3 60 61 41
3 60 41 62
3 62 41 40
3 60 62 44
3 60 44 63
3 63 44 43
3 60 63 47
3 60 47 64
3 64 47 46
3 60 64 50
3 60 50 65
3 65 50 49
3 60 65 53
3 60 53 66
3 66 53 52
3 60 66 56
3 60 56 67
3 67 56 55
3 60 67 58
3 60 58 35
3 68 69 70
3 69 68 71
3 72 73 74
3 73 72 75

