ply
format ascii 1.0
commentY29udmVydGVyIGJ5IENvZGVMZW9wYXJk
comment Original mesh name: 'C:\Program Files (x86)\Steam\steamapps\common\Stormworks\rom\meshes\component_window_large.mesh'
comment SubMesh index: 0
comment SubMesh name: 'ID18'
comment Shader: Opaque (0)
element vertex 56
property float x
property float y
property float z
property float nx
property float ny
property float nz
property uchar red
property uchar green
property uchar blue
property uchar alpha
element face 32
property list uchar ushort vertex_index
end_header
0.06499999 0.37499997 -0.37499997 0 -0 1 255 125 0 255
0.125 -0.37499997 -0.37499997 0 -0 1 255 125 0 255
0.125 0.37499997 -0.37499997 0 -0 1 255 125 0 255
0.06499999 -0.37499997 -0.37499997 0 -0 1 255 125 0 255
0.125 0.37499997 0.37499997 0 -1 -0 255 125 0 255
0.06499999 0.37499997 -0.37499997 0 -1 -0 255 125 0 255
0.125 0.37499997 -0.37499997 0 -1 -0 255 125 0 255
0.06499999 0.37499997 0.37499997 0 -1 -0 255 125 0 255
0.06499999 -0.37499997 -0.37499997 1 -0 -0 255 125 0 255
0.06499999 -0.35500005 -0.35500005 1 -0 -0 255 125 0 255
0.06499999 -0.37499997 0.37499997 1 -0 -0 255 125 0 255
0.06499999 0.37499997 -0.37499997 1 -0 -0 255 125 0 255
0.06499999 0.35500005 -0.35500005 1 -0 -0 255 125 0 255
0.06499999 0.35500005 0.35500005 1 -0 -0 255 125 0 255
0.06499999 -0.35500005 0.35500005 1 -0 -0 255 125 0 255
0.06499999 0.37499997 0.37499997 1 -0 -0 255 125 0 255
0.06499999 -0.37499997 0.37499997 0 1 -0 255 125 0 255
0.125 -0.37499997 -0.37499997 0 1 -0 255 125 0 255
0.06499999 -0.37499997 -0.37499997 0 1 -0 255 125 0 255
0.125 -0.37499997 0.37499997 0 1 -0 255 125 0 255
0.06499999 -0.37499997 0.37499997 0 -0 -1 255 125 0 255
0.125 0.37499997 0.37499997 0 -0 -1 255 125 0 255
0.125 -0.37499997 0.37499997 0 -0 -1 255 125 0 255
0.06499999 0.37499997 0.37499997 0 -0 -1 255 125 0 255
0.125 -0.37499997 0.37499997 -1 -0 -0 55 125 0 255
0.125 -0.35500005 0.35500005 -1 -0 -0 55 125 0 255
0.125 -0.37499997 -0.37499997 -1 -0 -0 55 125 0 255
0.125 0.37499997 0.37499997 -1 -0 -0 55 125 0 255
0.125 0.35500005 0.35500005 -1 -0 -0 55 125 0 255
0.125 0.35500005 -0.35500005 -1 -0 -0 55 125 0 255
0.125 -0.35500005 -0.35500005 -1 -0 -0 55 125 0 255
0.125 0.37499997 -0.37499997 -1 -0 -0 55 125 0 255
0.06499999 -0.35500005 -0.35500005 0 -0 -1 255 125 0 255
0.125 0.35500005 -0.35500005 0 -0 -1 255 125 0 255
0.125 -0.35500005 -0.35500005 0 -0 -1 255 125 0 255
0.06499999 0.35500005 -0.35500005 0 -0 -1 255 125 0 255
0.125 -0.35500005 0.35500005 0 -1 -0 255 125 0 255
0.06499999 -0.35500005 -0.35500005 0 -1 -0 255 125 0 255
0.125 -0.35500005 -0.35500005 0 -1 -0 255 125 0 255
0.06499999 -0.35500005 0.35500005 0 -1 -0 255 125 0 255
0.06499999 0.35500005 0.35500005 0 1 -0 255 125 0 255
0.125 0.35500005 -0.35500005 0 1 -0 255 125 0 255
0.06499999 0.35500005 -0.35500005 0 1 -0 255 125 0 255
0.125 0.35500005 0.35500005 0 1 -0 255 125 0 255
0.06499999 0.35500005 0.35500005 0 -0 1 255 125 0 255
0.125 -0.35500005 0.35500005 0 -0 1 255 125 0 255
0.125 0.35500005 0.35500005 0 -0 1 255 125 0 255
0.06499999 -0.35500005 0.35500005 0 -0 1 255 125 0 255
0.105 0.35500005 -0.35500005 1 -0 -0 160 160 199 128
0.105 -0.35500005 0.35500005 1 -0 -0 160 160 199 128
0.105 -0.35500005 -0.35500005 1 -0 -0 160 160 199 128
0.105 0.35500005 0.35500005 1 -0 -0 160 160 199 128
0.125 0.35500005 0.35500005 -1 -0 -0 160 160 199 128
0.125 -0.35500005 -0.35500005 -1 -0 -0 160 160 199 128
0.125 -0.35500005 0.35500005 -1 -0 -0 160 160 199 128
0.125 0.35500005 -0.35500005 -1 -0 -0 160 160 199 128
3 0 1 2
3 1 0 3
3 4 5 6
3 5 4 7
3 8 9 10
3 9 8 11
3 9 11 12
3 12 11 13
3 10 14 15
3 14 10 9
3 15 14 13
3 15 13 11
3 16 17 18
3 17 16 19
3 20 21 22
3 21 20 23
3 24 25 26
3 25 24 27
3 25 27 28
3 28 27 29
3 26 30 31
3 30 26 25
3 31 30 29
3 31 29 27
3 32 33 34
3 33 32 35
3 36 37 38
3 37 36 39
3 40 41 42
3 41 40 43
3 44 45 46
3 45 44 47

