ply
format ascii 1.0
commentY29udmVydGVyIGJ5IENvZGVMZW9wYXJk
comment Original mesh name: 'C:\Program Files (x86)\Steam\steamapps\common\Stormworks\rom\meshes\component_instrument_display_dial.mesh'
comment SubMesh index: 0
comment SubMesh name: 'ID18'
comment Shader: Transparent (1)
element vertex 198
property float x
property float y
property float z
property float nx
property float ny
property float nz
property uchar red
property uchar green
property uchar blue
property uchar alpha
element face 12
property list uchar ushort vertex_index
end_header
0.017604075 -0.04249999 0.125 0 -0 -1 109 160 199 207
0.04249999 0.017604075 0.125 0 -0 -1 109 160 199 207
0.04249999 -0.017604075 0.125 0 -0 -1 109 160 199 207
0.017604075 0.04249999 0.125 0 -0 -1 109 160 199 207
-0.017604075 -0.04249999 0.125 0 -0 -1 109 160 199 207
-0.017604075 0.04249999 0.125 0 -0 -1 109 160 199 207
-0.04249999 -0.017604075 0.125 0 -0 -1 109 160 199 207
-0.04249999 0.017604075 0.125 0 -0 -1 109 160 199 207
-0.04249999 0.017604075 0.125 0 -0 1 109 160 199 207
-0.04249999 -0.017604075 0.125 0 -0 1 109 160 199 207
-0.017604075 0.04249999 0.125 0 -0 1 109 160 199 207
-0.017604075 -0.04249999 0.125 0 -0 1 109 160 199 207
0.017604075 0.04249999 0.125 0 -0 1 109 160 199 207
0.017604075 -0.04249999 0.125 0 -0 1 109 160 199 207
0.04249999 0.017604075 0.125 0 -0 1 109 160 199 207
0.04249999 -0.017604075 0.125 0 -0 1 109 160 199 207
0.0625 -0.0625 0.125 0 -0 -1 255 125 0 255
0.0525 -0.02174621 0.125 0 -0 -1 255 125 0 255
0.0625 0.0625 0.125 0 -0 -1 255 125 0 255
0.02174621 -0.0525 0.125 0 -0 -1 255 125 0 255
-0.0625 -0.0625 0.125 0 -0 -1 255 125 0 255
-0.02174621 -0.0525 0.125 0 -0 -1 255 125 0 255
-0.0525 -0.02174621 0.125 0 -0 -1 255 125 0 255
-0.0525 0.02174621 0.125 0 -0 -1 255 125 0 255
0.02174621 0.0525 0.125 0 -0 -1 255 125 0 255
-0.0625 0.0625 0.125 0 -0 -1 255 125 0 255
0.0525 0.02174621 0.125 0 -0 -1 255 125 0 255
-0.02174621 0.0525 0.125 0 -0 -1 255 125 0 255
0.017604075 -0.04249999 0.125 0 -1 -0 86 86 86 255
-0.017604075 -0.04249999 0.114999995 0 -1 -0 86 86 86 255
0.017604075 -0.04249999 0.114999995 0 -1 -0 86 86 86 255
-0.017604075 -0.04249999 0.125 0 -1 -0 86 86 86 255
-0.017604075 -0.04249999 0.125 -0.70710677 -0.70710677 -0 86 86 86 255
-0.04249999 -0.017604075 0.114999995 -0.70710677 -0.70710677 -0 86 86 86 255
-0.017604075 -0.04249999 0.114999995 -0.70710677 -0.70710677 -0 86 86 86 255
-0.04249999 -0.017604075 0.125 -0.70710677 -0.70710677 -0 86 86 86 255
0.009053082 -0.033786565 0.114999995 0 -0 -1 86 86 86 255
0.015156683 -0.028752137 0.114999995 0 -0 -1 86 86 86 255
0.016324399 -0.030774686 0.114999995 0 -0 -1 86 86 86 255
0.015156683 0.028752137 0.114999995 0 -0 -1 86 86 86 255
0.017321745 -0.027502153 0.114999995 0 -0 -1 86 86 86 255
0.019750249 0.03170844 0.114999995 0 -0 -1 86 86 86 255
0.019750249 -0.03170844 0.114999995 0 -0 -1 86 86 86 255
0.017321745 0.027502153 0.114999995 0 -0 -1 86 86 86 255
0.017604075 -0.04249999 0.114999995 0 -0 -1 86 86 86 255
0.04249999 0.017604075 0.114999995 0 -0 -1 86 86 86 255
0.04249999 -0.017604075 0.114999995 0 -0 -1 86 86 86 255
0.018749999 -0.032475956 0.114999995 0 -0 -1 86 86 86 255
0.017585183 -0.032958426 0.114999995 0 -0 -1 86 86 86 255
0.009705713 -0.036222227 0.114999995 0 -0 -1 86 86 86 255
-0.017604075 -0.04249999 0.114999995 0 -0 -1 86 86 86 255
-0 -0.037499998 0.114999995 0 -0 -1 86 86 86 255
-0.009705713 -0.036222227 0.114999995 0 -0 -1 86 86 86 255
-0.017585183 -0.032958426 0.114999995 0 -0 -1 86 86 86 255
-0.018749999 -0.032475956 0.114999995 0 -0 -1 86 86 86 255
-0.04249999 -0.017604075 0.114999995 0 -0 -1 86 86 86 255
-0.019750249 -0.03170844 0.114999995 0 -0 -1 86 86 86 255
-0.026516506 -0.026516506 0.114999995 0 -0 -1 86 86 86 255
-0.032475956 -0.018749999 0.114999995 0 -0 -1 86 86 86 255
-0.036222227 -0.009705713 0.114999995 0 -0 -1 86 86 86 255
-0.03733543 -0.00125 0.114999995 0 -0 -1 86 86 86 255
-0.037499998 0 0.114999995 0 -0 -1 86 86 86 255
0.017604075 0.04249999 0.114999995 0 -0 -1 86 86 86 255
0.018749999 0.032475956 0.114999995 0 -0 -1 86 86 86 255
0.017585183 0.032958426 0.114999995 0 -0 -1 86 86 86 255
0.009705713 0.036222227 0.114999995 0 -0 -1 86 86 86 255
-0.017604075 0.04249999 0.114999995 0 -0 -1 86 86 86 255
-0 0.037499998 0.114999995 0 -0 -1 86 86 86 255
-0.009705713 0.036222227 0.114999995 0 -0 -1 86 86 86 255
-0.017585183 0.032958426 0.114999995 0 -0 -1 86 86 86 255
-0.018749999 0.032475956 0.114999995 0 -0 -1 86 86 86 255
-0.04249999 0.017604075 0.114999995 0 -0 -1 86 86 86 255
-0.019750249 0.03170844 0.114999995 0 -0 -1 86 86 86 255
-0.026516506 0.026516506 0.114999995 0 -0 -1 86 86 86 255
-0.032475956 0.018749999 0.114999995 0 -0 -1 86 86 86 255
-0.036222227 0.009705713 0.114999995 0 -0 -1 86 86 86 255
-0.03733543 0.00125 0.114999995 0 -0 -1 86 86 86 255
0.009053082 0.033786565 0.114999995 0 -0 -1 86 86 86 255
0.016324399 0.030774686 0.114999995 0 -0 -1 86 86 86 255
-0 -0.034978412 0.114999995 0 -0 -1 86 86 86 255
-0 0.034978412 0.114999995 0 -0 -1 86 86 86 255
-0.009053082 -0.033786565 0.114999995 0 -0 -1 86 86 86 255
-0.009053082 0.033786565 0.114999995 0 -0 -1 86 86 86 255
-0.015156683 -0.028752137 0.114999995 0 -0 -1 86 86 86 255
-0.016324399 -0.030774686 0.114999995 0 -0 -1 86 86 86 255
-0.017321745 -0.027502153 0.114999995 0 -0 -1 86 86 86 255
-0.015156683 0.028752137 0.114999995 0 -0 -1 86 86 86 255
-0.017321745 0.027502153 0.114999995 0 -0 -1 86 86 86 255
-0.018489463 -0.02952468 0.114999995 0 -0 -1 86 86 86 255
-0.018489463 0.02952468 0.114999995 0 -0 -1 86 86 86 255
-0.024733484 -0.024733484 0.114999995 0 -0 -1 86 86 86 255
-0.024733484 0.024733484 0.114999995 0 -0 -1 86 86 86 255
-0.030292219 -0.017489212 0.114999995 0 -0 -1 86 86 86 255
-0.030292219 0.017489212 0.114999995 0 -0 -1 86 86 86 255
-0.03247842 -0.00125 0.114999995 0 -0 -1 86 86 86 255
-0.033786565 -0.009053082 0.114999995 0 -0 -1 86 86 86 255
-0.034813847 -0.00125 0.114999995 0 -0 -1 86 86 86 255
-0.03247842 0.00125 0.114999995 0 -0 -1 86 86 86 255
-0.033786565 0.009053082 0.114999995 0 -0 -1 86 86 86 255
-0.034813847 0.00125 0.114999995 0 -0 -1 86 86 86 255
-0.016324399 0.030774686 0.114999995 0 -0 -1 86 86 86 255
0.04249999 -0.017604075 0.114999995 0.70710677 -0.70710677 -0 86 86 86 255
0.017604075 -0.04249999 0.125 0.70710677 -0.70710677 -0 86 86 86 255
0.017604075 -0.04249999 0.114999995 0.70710677 -0.70710677 -0 86 86 86 255
0.04249999 -0.017604075 0.125 0.70710677 -0.70710677 -0 86 86 86 255
-0.04249999 0.017604075 0.125 -1 -0 -0 86 86 86 255
-0.04249999 -0.017604075 0.114999995 -1 -0 -0 86 86 86 255
-0.04249999 -0.017604075 0.125 -1 -0 -0 86 86 86 255
-0.04249999 0.017604075 0.114999995 -1 -0 -0 86 86 86 255
-0.017604075 0.04249999 0.125 -0.70710677 0.70710677 -0 86 86 86 255
-0.04249999 0.017604075 0.114999995 -0.70710677 0.70710677 -0 86 86 86 255
-0.04249999 0.017604075 0.125 -0.70710677 0.70710677 -0 86 86 86 255
-0.017604075 0.04249999 0.114999995 -0.70710677 0.70710677 -0 86 86 86 255
-0.017604075 0.04249999 0.125 0 1 -0 86 86 86 255
0.017604075 0.04249999 0.114999995 0 1 -0 86 86 86 255
-0.017604075 0.04249999 0.114999995 0 1 -0 86 86 86 255
0.017604075 0.04249999 0.125 0 1 -0 86 86 86 255
0.017604075 0.04249999 0.114999995 0.70710677 0.70710677 -0 86 86 86 255
0.04249999 0.017604075 0.125 0.70710677 0.70710677 -0 86 86 86 255
0.04249999 0.017604075 0.114999995 0.70710677 0.70710677 -0 86 86 86 255
0.017604075 0.04249999 0.125 0.70710677 0.70710677 -0 86 86 86 255
0.04249999 0.017604075 0.114999995 1 -0 -0 86 86 86 255
0.04249999 -0.017604075 0.125 1 -0 -0 86 86 86 255
0.04249999 -0.017604075 0.114999995 1 -0 -0 86 86 86 255
0.04249999 0.017604075 0.125 1 -0 -0 86 86 86 255
0.0525 -0.02174621 0.125 0 -0 -1 86 86 86 255
0.04249999 -0.017604075 0.125 0 -0 -1 86 86 86 255
0.0525 0.02174621 0.125 0 -0 -1 86 86 86 255
0.02174621 -0.0525 0.125 0 -0 -1 86 86 86 255
0.017604075 -0.04249999 0.125 0 -0 -1 86 86 86 255
-0.02174621 -0.0525 0.125 0 -0 -1 86 86 86 255
-0.017604075 -0.04249999 0.125 0 -0 -1 86 86 86 255
-0.04249999 -0.017604075 0.125 0 -0 -1 86 86 86 255
-0.0525 -0.02174621 0.125 0 -0 -1 86 86 86 255
-0.04249999 0.017604075 0.125 0 -0 -1 86 86 86 255
0.04249999 0.017604075 0.125 0 -0 -1 86 86 86 255
0.02174621 0.0525 0.125 0 -0 -1 86 86 86 255
0.017604075 0.04249999 0.125 0 -0 -1 86 86 86 255
-0.02174621 0.0525 0.125 0 -0 -1 86 86 86 255
-0.017604075 0.04249999 0.125 0 -0 -1 86 86 86 255
-0.0525 0.02174621 0.125 0 -0 -1 86 86 86 255
0.015156683 0.028752137 0.114999995 0 -0 -1 255 255 255 255
0.016324399 0.030774686 0.114999995 0 -0 -1 255 255 255 255
0.017321745 0.027502153 0.114999995 0 -0 -1 255 255 255 255
-0.017321745 0.027502153 0.114999995 0 -0 -1 255 255 255 255
-0.016324399 0.030774686 0.114999995 0 -0 -1 255 255 255 255
-0.015156683 0.028752137 0.114999995 0 -0 -1 255 255 255 255
0.018749999 -0.032475956 0.114999995 0 -0 -1 255 255 255 255
0.017321745 -0.027502153 0.114999995 0 -0 -1 255 255 255 255
0.019750249 -0.03170844 0.114999995 0 -0 -1 255 255 255 255
0.017585183 -0.032958426 0.114999995 0 -0 -1 255 255 255 255
0.016324399 -0.030774686 0.114999995 0 -0 -1 255 255 255 255
0.009705713 -0.036222227 0.114999995 0 -0 -1 255 255 255 255
0.009053082 -0.033786565 0.114999995 0 -0 -1 255 255 255 255
-0 -0.037499998 0.114999995 0 -0 -1 255 255 255 255
-0 -0.034978412 0.114999995 0 -0 -1 255 255 255 255
-0.009705713 -0.036222227 0.114999995 0 -0 -1 255 255 255 255
-0.009053082 -0.033786565 0.114999995 0 -0 -1 255 255 255 255
-0.016324399 -0.030774686 0.114999995 0 -0 -1 255 255 255 255
-0.017585183 -0.032958426 0.114999995 0 -0 -1 255 255 255 255
-0.017321745 -0.027502153 0.114999995 0 -0 -1 255 255 255 255
-0.018489463 -0.02952468 0.114999995 0 -0 -1 255 255 255 255
-0.018749999 -0.032475956 0.114999995 0 -0 -1 255 255 255 255
-0.024733484 -0.024733484 0.114999995 0 -0 -1 255 255 255 255
-0.019750249 -0.03170844 0.114999995 0 -0 -1 255 255 255 255
-0.026516506 -0.026516506 0.114999995 0 -0 -1 255 255 255 255
-0.030292219 -0.017489212 0.114999995 0 -0 -1 255 255 255 255
-0.032475956 -0.018749999 0.114999995 0 -0 -1 255 255 255 255
-0.033786565 -0.009053082 0.114999995 0 -0 -1 255 255 255 255
-0.036222227 -0.009705713 0.114999995 0 -0 -1 255 255 255 255
-0.034813847 -0.00125 0.114999995 0 -0 -1 255 255 255 255
-0.034813847 0.00125 0.114999995 0 -0 -1 255 255 255 255
0.018749999 0.032475956 0.114999995 0 -0 -1 255 255 255 255
0.019750249 0.03170844 0.114999995 0 -0 -1 255 255 255 255
0.017585183 0.032958426 0.114999995 0 -0 -1 255 255 255 255
0.009705713 0.036222227 0.114999995 0 -0 -1 255 255 255 255
0.009053082 0.033786565 0.114999995 0 -0 -1 255 255 255 255
-0 0.037499998 0.114999995 0 -0 -1 255 255 255 255
-0 0.034978412 0.114999995 0 -0 -1 255 255 255 255
-0.009053082 0.033786565 0.114999995 0 -0 -1 255 255 255 255
-0.009705713 0.036222227 0.114999995 0 -0 -1 255 255 255 255
-0.017585183 0.032958426 0.114999995 0 -0 -1 255 255 255 255
-0.018489463 0.02952468 0.114999995 0 -0 -1 255 255 255 255
-0.018749999 0.032475956 0.114999995 0 -0 -1 255 255 255 255
-0.024733484 0.024733484 0.114999995 0 -0 -1 255 255 255 255
-0.019750249 0.03170844 0.114999995 0 -0 -1 255 255 255 255
-0.026516506 0.026516506 0.114999995 0 -0 -1 255 255 255 255
-0.030292219 0.017489212 0.114999995 0 -0 -1 255 255 255 255
-0.032475956 0.018749999 0.114999995 0 -0 -1 255 255 255 255
-0.033786565 0.009053082 0.114999995 0 -0 -1 255 255 255 255
-0.036222227 0.009705713 0.114999995 0 -0 -1 255 255 255 255
-0.03733543 -0.00125 0.114999995 0 -0 -1 255 255 255 255
-0.03733543 0.00125 0.114999995 0 -0 -1 255 255 255 255
-0.037499998 0 0.114999995 0 -0 -1 255 255 255 255
-0.03247842 0.00125 0.114999995 0 -0 -1 255 255 255 255
-0.03247842 -0.00125 0.114999995 0 -0 -1 255 255 255 255
-0.015156683 -0.028752137 0.114999995 0 -0 -1 255 255 255 255
0.015156683 -0.028752137 0.114999995 0 -0 -1 255 255 255 255
3 0 1 2
3 1 0 3
3 3 0 4
3 3 4 5
3 5 4 6
3 5 6 7
3 8 9 10
3 9 11 10
3 10 11 12
3 11 13 12
3 12 13 14
3 15 14 13

