ply
format ascii 1.0
commentY29udmVydGVyIGJ5IENvZGVMZW9wYXJk
comment Original mesh name: 'C:\Program Files (x86)\Steam\steamapps\common\Stormworks\rom\meshes\component_window_corner2_inv_1x1.mesh'
comment SubMesh index: 1
comment SubMesh name: 'ID16'
comment Shader: Opaque (0)
element vertex 48
property float x
property float y
property float z
property float nx
property float ny
property float nz
property uchar red
property uchar green
property uchar blue
property uchar alpha
element face 26
property list uchar ushort vertex_index
end_header
-0.08172569 0.09111538 0.085610285 0.57735026 0.57735026 0.57735026 160 160 199 128
0.09111538 -0.08172569 0.085610285 0.57735026 0.57735026 0.57735026 160 160 199 128
0.09111538 0.09111538 -0.08723078 0.57735026 0.57735026 0.57735026 160 160 199 128
0.10622057 0.10622057 -0.08744115 -0.57735026 -0.57735026 -0.57735026 160 160 199 128
0.10622057 -0.08744115 0.10622057 -0.57735026 -0.57735026 -0.57735026 160 160 199 128
-0.08744115 0.10622057 0.10622057 -0.57735026 -0.57735026 -0.57735026 160 160 199 128
0.125 0.06499999 -0.125 0.57735026 0.57735026 0.57735026 255 125 0 255
0.076010205 -0.076010205 0.06499999 0.57735026 0.57735026 0.57735026 255 125 0 255
0.125 -0.125 0.06499999 0.57735026 0.57735026 0.57735026 255 125 0 255
0.076010205 0.076010205 -0.08702043 0.57735026 0.57735026 0.57735026 255 125 0 255
0.06499999 0.125 -0.125 0.57735026 0.57735026 0.57735026 255 125 0 255
-0.076010205 0.076010205 0.06499999 0.57735026 0.57735026 0.57735026 255 125 0 255
-0.125 0.125 0.06499999 0.57735026 0.57735026 0.57735026 255 125 0 255
0.125 -0.125 0.125 -1 -8.704132E-12 -8.23672E-12 255 125 0 255
0.125 0.06499999 -0.125 -1 -8.704132E-12 -8.23672E-12 255 125 0 255
0.125 -0.125 0.06499999 -1 -8.704132E-12 -8.23672E-12 255 125 0 255
0.125 0.125 -0.125 -1 -8.704132E-12 -8.23672E-12 255 125 0 255
0.06499999 0.125 -0.125 -8.4343305E-12 -8.4358345E-12 1 255 125 0 255
0.125 0.06499999 -0.125 -8.4343305E-12 -8.4358345E-12 1 255 125 0 255
0.125 0.125 -0.125 -8.4343305E-12 -8.4358345E-12 1 255 125 0 255
0.125 0.125 -0.125 0 -1 -0 255 125 0 255
-0.125 0.125 0.06499999 0 -1 -0 255 125 0 255
0.06499999 0.125 -0.125 0 -1 -0 255 125 0 255
-0.125 0.125 0.125 0 -1 -0 255 125 0 255
-0.125 0.125 0.125 0.70710677 0.70710677 -2.1931449E-08 255 125 0 255
-0.076010205 0.076010205 0.06499999 0.70710677 0.70710677 -2.1931449E-08 255 125 0 255
-0.125 0.125 0.06499999 0.70710677 0.70710677 -2.1931449E-08 255 125 0 255
0.076010205 -0.076010205 0.06499999 0.70710677 0.70710677 -2.1931449E-08 255 125 0 255
0.125 -0.125 0.06499999 0.70710677 0.70710677 -2.1931449E-08 255 125 0 255
0.125 -0.125 0.125 0.70710677 0.70710677 -2.1931449E-08 255 125 0 255
0.076010205 0.076010205 -0.08702043 -0.5800304 0.5719523 -0.5800304 255 125 0 255
-0.08744115 0.10622057 0.10622055 -0.5800304 0.5719523 -0.5800304 255 125 0 255
0.10622057 0.10622057 -0.08744115 -0.5800304 0.5719523 -0.5800304 255 125 0 255
-0.076010205 0.076010205 0.06499999 -0.5800304 0.5719523 -0.5800304 255 125 0 255
0.076010205 -0.076010205 0.06499999 0.5719524 -0.5800303 -0.5800304 255 125 0 255
0.10622057 0.10622057 -0.08744115 0.5719524 -0.5800303 -0.5800304 255 125 0 255
0.10622057 -0.08744115 0.10622055 0.5719524 -0.5800303 -0.5800304 255 125 0 255
0.076010205 0.076010205 -0.08702043 0.5719524 -0.5800303 -0.5800304 255 125 0 255
-0.08744115 0.10622057 0.10622055 -0.6730449 -0.6730449 0.3066286 255 125 0 255
0.076010205 -0.076010205 0.06499999 -0.6730449 -0.6730449 0.3066286 255 125 0 255
0.10622057 -0.08744115 0.10622055 -0.6730449 -0.6730449 0.3066286 255 125 0 255
-0.076010205 0.076010205 0.06499999 -0.6730449 -0.6730449 0.3066286 255 125 0 255
0.125 -0.125 0.125 -0.57735026 -0.57735026 -0.57735026 55 125 0 255
0.10622057 -0.08744115 0.10622055 -0.57735026 -0.57735026 -0.57735026 55 125 0 255
0.125 0.125 -0.125 -0.57735026 -0.57735026 -0.57735026 55 125 0 255
-0.125 0.125 0.125 -0.57735026 -0.57735026 -0.57735026 55 125 0 255
-0.08744115 0.10622057 0.10622055 -0.57735026 -0.57735026 -0.57735026 55 125 0 255
0.10622057 0.10622057 -0.08744115 -0.57735026 -0.57735026 -0.57735026 55 125 0 255
3 6 7 8
3 7 6 9
3 9 6 10
3 9 10 11
3 11 10 12
3 13 14 15
3 14 13 16
3 17 18 19
3 20 21 22
3 21 20 23
3 24 25 26
3 25 24 27
3 27 24 28
3 28 24 29
3 30 31 32
3 31 30 33
3 34 35 36
3 35 34 37
3 38 39 40
3 39 38 41
3 42 43 44
3 43 42 45
3 43 45 46
3 44 47 45
3 47 44 43
3 45 47 46

