ply
format ascii 1.0
commentY29udmVydGVyIGJ5IENvZGVMZW9wYXJk
comment Original mesh name: 'C:\Program Files (x86)\Steam\steamapps\common\Stormworks\rom\meshes\component_light_glass.mesh'
comment SubMesh index: 1
comment SubMesh name: 'ID14'
comment Shader: Emissive (2)
element vertex 160
property float x
property float y
property float z
property float nx
property float ny
property float nz
property uchar red
property uchar green
property uchar blue
property uchar alpha
element face 44
property list uchar ushort vertex_index
end_header
0.038268354 0.09238795 0.19499998 -3.772891E-14 -1 -0 160 160 199 128
-0.038268343 0.09238795 0.14499998 -3.772891E-14 -1 -0 160 160 199 128
0.038268354 0.09238795 0.14499998 -3.772891E-14 -1 -0 160 160 199 128
-0.038268343 0.09238795 0.19499998 -3.772891E-14 -1 -0 160 160 199 128
0.038268354 0.09238795 0.19499998 -0.70710677 -0.70710677 -0 160 160 199 128
0.09238795 0.038268343 0.14499998 -0.70710677 -0.70710677 -0 160 160 199 128
0.09238795 0.038268343 0.19499998 -0.70710677 -0.70710677 -0 160 160 199 128
0.038268354 0.09238795 0.14499998 -0.70710677 -0.70710677 -0 160 160 199 128
0.038268354 -0.09238795 0.19499998 0 -0 -1 160 160 199 128
0.09238795 0.038268343 0.19499998 0 -0 -1 160 160 199 128
0.09238795 -0.038268354 0.19499998 0 -0 -1 160 160 199 128
0.038268354 0.09238795 0.19499998 0 -0 -1 160 160 199 128
-0.038268343 -0.09238795 0.19499998 0 -0 -1 160 160 199 128
-0.038268343 0.09238795 0.19499998 0 -0 -1 160 160 199 128
-0.09238795 -0.038268354 0.19499998 0 -0 -1 160 160 199 128
-0.09238795 0.038268343 0.19499998 0 -0 -1 160 160 199 128
0.027623191 0.06668828 0.219 -1.6933378E-14 -0.6825255 -0.73086166 160 160 199 128
-0.038268343 0.09238795 0.19499998 -1.6933378E-14 -0.6825255 -0.73086166 160 160 199 128
0.038268354 0.09238795 0.19499998 -1.6933378E-14 -0.6825255 -0.73086166 160 160 199 128
-0.027623173 0.06668828 0.219 -1.6933378E-14 -0.6825255 -0.73086166 160 160 199 128
-0.038268343 0.09238795 0.14499998 0.70710677 -0.70710677 -0 160 160 199 128
-0.09238795 0.038268343 0.19499998 0.70710677 -0.70710677 -0 160 160 199 128
-0.09238795 0.038268343 0.14499998 0.70710677 -0.70710677 -0 160 160 199 128
-0.038268343 0.09238795 0.19499998 0.70710677 -0.70710677 -0 160 160 199 128
0.09238795 0.038268343 0.19499998 -1 3.772891E-14 -0 160 160 199 128
0.09238795 -0.038268354 0.14499998 -1 3.772891E-14 -0 160 160 199 128
0.09238795 -0.038268354 0.19499998 -1 3.772891E-14 -0 160 160 199 128
0.09238795 0.038268343 0.14499998 -1 3.772891E-14 -0 160 160 199 128
0.066688284 0.027623173 0.219 -0.48261848 -0.48261848 -0.73086166 160 160 199 128
0.038268354 0.09238795 0.19499998 -0.48261848 -0.48261848 -0.73086166 160 160 199 128
0.09238795 0.038268343 0.19499998 -0.48261848 -0.48261848 -0.73086166 160 160 199 128
0.027623191 0.06668828 0.219 -0.48261848 -0.48261848 -0.73086166 160 160 199 128
-0.038268343 -0.09238795 0.19499998 0 1 -0 160 160 199 128
0.038268354 -0.09238795 0.14499998 0 1 -0 160 160 199 128
-0.038268343 -0.09238795 0.14499998 0 1 -0 160 160 199 128
0.038268354 -0.09238795 0.19499998 0 1 -0 160 160 199 128
-0.09238795 -0.038268354 0.19499998 0.70710677 0.70710677 -0 160 160 199 128
-0.038268343 -0.09238795 0.14499998 0.70710677 0.70710677 -0 160 160 199 128
-0.09238795 -0.038268354 0.14499998 0.70710677 0.70710677 -0 160 160 199 128
-0.038268343 -0.09238795 0.19499998 0.70710677 0.70710677 -0 160 160 199 128
-0.09238795 0.038268343 0.14499998 1 -1.131867E-13 -0 160 160 199 128
-0.09238795 -0.038268354 0.19499998 1 -1.131867E-13 -0 160 160 199 128
-0.09238795 -0.038268354 0.14499998 1 -1.131867E-13 -0 160 160 199 128
-0.09238795 0.038268343 0.19499998 1 -1.131867E-13 -0 160 160 199 128
0.09238795 -0.038268354 0.19499998 -0.70710677 0.70710677 -0 160 160 199 128
0.038268354 -0.09238795 0.14499998 -0.70710677 0.70710677 -0 160 160 199 128
0.038268354 -0.09238795 0.19499998 -0.70710677 0.70710677 -0 160 160 199 128
0.09238795 -0.038268354 0.14499998 -0.70710677 0.70710677 -0 160 160 199 128
0.027623191 -0.066688284 0.219 0 -0 -1 160 160 199 128
0.066688284 0.027623173 0.219 0 -0 -1 160 160 199 128
0.066688284 -0.027623191 0.219 0 -0 -1 160 160 199 128
0.027623191 0.06668828 0.219 0 -0 -1 160 160 199 128
-0.027623173 0.06668828 0.219 0 -0 -1 160 160 199 128
-0.027623173 -0.066688284 0.219 0 -0 -1 160 160 199 128
-0.06668828 -0.027623191 0.219 0 -0 -1 160 160 199 128
-0.06668828 0.027623173 0.219 0 -0 -1 160 160 199 128
-0.06668828 0.027623173 0.219 0.48261848 -0.48261848 -0.73086166 160 160 199 128
-0.038268343 0.09238795 0.19499998 0.48261848 -0.48261848 -0.73086166 160 160 199 128
-0.027623173 0.06668828 0.219 0.48261848 -0.48261848 -0.73086166 160 160 199 128
-0.09238795 0.038268343 0.19499998 0.48261848 -0.48261848 -0.73086166 160 160 199 128
0.066688284 -0.027623191 0.219 -0.6825255 1.6931807E-14 -0.73086166 160 160 199 128
0.09238795 0.038268343 0.19499998 -0.6825255 1.6931807E-14 -0.73086166 160 160 199 128
0.09238795 -0.038268354 0.19499998 -0.6825255 1.6931807E-14 -0.73086166 160 160 199 128
0.066688284 0.027623173 0.219 -0.6825255 1.6931807E-14 -0.73086166 160 160 199 128
-0.038268343 -0.09238795 0.19499998 -2.3449609E-18 0.6825255 -0.73086166 160 160 199 128
0.027623191 -0.066688284 0.219 -2.3449609E-18 0.6825255 -0.73086166 160 160 199 128
0.038268354 -0.09238795 0.19499998 -2.3449609E-18 0.6825255 -0.73086166 160 160 199 128
-0.027623173 -0.066688284 0.219 -2.3449609E-18 0.6825255 -0.73086166 160 160 199 128
-0.038268343 -0.09238795 0.19499998 0.48261848 0.48261848 -0.73086166 160 160 199 128
-0.06668828 -0.027623191 0.219 0.48261848 0.48261848 -0.73086166 160 160 199 128
-0.027623173 -0.066688284 0.219 0.48261848 0.48261848 -0.73086166 160 160 199 128
-0.09238795 -0.038268354 0.19499998 0.48261848 0.48261848 -0.73086166 160 160 199 128
-0.09238795 -0.038268354 0.19499998 0.6825255 -7.5238156E-14 -0.73086166 160 160 199 128
-0.06668828 0.027623173 0.219 0.6825255 -7.5238156E-14 -0.73086166 160 160 199 128
-0.06668828 -0.027623191 0.219 0.6825255 -7.5238156E-14 -0.73086166 160 160 199 128
-0.09238795 0.038268343 0.19499998 0.6825255 -7.5238156E-14 -0.73086166 160 160 199 128
0.038268354 -0.09238795 0.19499998 -0.48261848 0.48261848 -0.73086166 160 160 199 128
0.066688284 -0.027623191 0.219 -0.48261848 0.48261848 -0.73086166 160 160 199 128
0.09238795 -0.038268354 0.19499998 -0.48261848 0.48261848 -0.73086166 160 160 199 128
0.027623191 -0.066688284 0.219 -0.48261848 0.48261848 -0.73086166 160 160 199 128
0.038268354 0.09238795 0.19499998 -3.772891E-14 -1 -0 255 255 255 194
-0.038268343 0.09238795 0.14499998 -3.772891E-14 -1 -0 255 255 255 194
0.038268354 0.09238795 0.14499998 -3.772891E-14 -1 -0 255 255 255 194
-0.038268343 0.09238795 0.19499998 -3.772891E-14 -1 -0 255 255 255 194
0.038268354 0.09238795 0.19499998 -0.70710677 -0.70710677 -0 255 255 255 194
0.09238795 0.038268343 0.14499998 -0.70710677 -0.70710677 -0 255 255 255 194
0.09238795 0.038268343 0.19499998 -0.70710677 -0.70710677 -0 255 255 255 194
0.038268354 0.09238795 0.14499998 -0.70710677 -0.70710677 -0 255 255 255 194
0.09238795 -0.038268354 0.19499998 0 -0 -1 255 255 255 194
0.038268354 0.09238795 0.19499998 0 -0 -1 255 255 255 194
0.09238795 0.038268343 0.19499998 0 -0 -1 255 255 255 194
0.038268354 -0.09238795 0.19499998 0 -0 -1 255 255 255 194
-0.038268343 0.09238795 0.19499998 0 -0 -1 255 255 255 194
-0.038268343 -0.09238795 0.19499998 0 -0 -1 255 255 255 194
-0.09238795 -0.038268354 0.19499998 0 -0 -1 255 255 255 194
-0.09238795 0.038268343 0.19499998 0 -0 -1 255 255 255 194
0.027623191 0.06668828 0.219 -1.6933378E-14 -0.6825255 -0.73086166 255 255 255 194
-0.038268343 0.09238795 0.19499998 -1.6933378E-14 -0.6825255 -0.73086166 255 255 255 194
0.038268354 0.09238795 0.19499998 -1.6933378E-14 -0.6825255 -0.73086166 255 255 255 194
-0.027623173 0.06668828 0.219 -1.6933378E-14 -0.6825255 -0.73086166 255 255 255 194
-0.038268343 0.09238795 0.14499998 0.70710677 -0.70710677 -0 255 255 255 194
-0.09238795 0.038268343 0.19499998 0.70710677 -0.70710677 -0 255 255 255 194
-0.09238795 0.038268343 0.14499998 0.70710677 -0.70710677 -0 255 255 255 194
-0.038268343 0.09238795 0.19499998 0.70710677 -0.70710677 -0 255 255 255 194
0.09238795 0.038268343 0.19499998 -1 3.772891E-14 -0 255 255 255 194
0.09238795 -0.038268354 0.14499998 -1 3.772891E-14 -0 255 255 255 194
0.09238795 -0.038268354 0.19499998 -1 3.772891E-14 -0 255 255 255 194
0.09238795 0.038268343 0.14499998 -1 3.772891E-14 -0 255 255 255 194
0.066688284 0.027623173 0.219 -0.48261848 -0.48261848 -0.73086166 255 255 255 194
0.038268354 0.09238795 0.19499998 -0.48261848 -0.48261848 -0.73086166 255 255 255 194
0.09238795 0.038268343 0.19499998 -0.48261848 -0.48261848 -0.73086166 255 255 255 194
0.027623191 0.06668828 0.219 -0.48261848 -0.48261848 -0.73086166 255 255 255 194
-0.038268343 -0.09238795 0.19499998 0 1 -0 255 255 255 194
0.038268354 -0.09238795 0.14499998 0 1 -0 255 255 255 194
-0.038268343 -0.09238795 0.14499998 0 1 -0 255 255 255 194
0.038268354 -0.09238795 0.19499998 0 1 -0 255 255 255 194
-0.09238795 -0.038268354 0.19499998 0.70710677 0.70710677 -0 255 255 255 194
-0.038268343 -0.09238795 0.14499998 0.70710677 0.70710677 -0 255 255 255 194
-0.09238795 -0.038268354 0.14499998 0.70710677 0.70710677 -0 255 255 255 194
-0.038268343 -0.09238795 0.19499998 0.70710677 0.70710677 -0 255 255 255 194
-0.09238795 0.038268343 0.14499998 1 -1.131867E-13 -0 255 255 255 194
-0.09238795 -0.038268354 0.19499998 1 -1.131867E-13 -0 255 255 255 194
-0.09238795 -0.038268354 0.14499998 1 -1.131867E-13 -0 255 255 255 194
-0.09238795 0.038268343 0.19499998 1 -1.131867E-13 -0 255 255 255 194
0.09238795 -0.038268354 0.19499998 -0.70710677 0.70710677 -0 255 255 255 194
0.038268354 -0.09238795 0.14499998 -0.70710677 0.70710677 -0 255 255 255 194
0.038268354 -0.09238795 0.19499998 -0.70710677 0.70710677 -0 255 255 255 194
0.09238795 -0.038268354 0.14499998 -0.70710677 0.70710677 -0 255 255 255 194
0.027623191 -0.066688284 0.219 0 -0 -1 255 255 255 194
0.066688284 0.027623173 0.219 0 -0 -1 255 255 255 194
0.066688284 -0.027623191 0.219 0 -0 -1 255 255 255 194
0.027623191 0.06668828 0.219 0 -0 -1 255 255 255 194
-0.027623173 0.06668828 0.219 0 -0 -1 255 255 255 194
-0.027623173 -0.066688284 0.219 0 -0 -1 255 255 255 194
-0.06668828 -0.027623191 0.219 0 -0 -1 255 255 255 194
-0.06668828 0.027623173 0.219 0 -0 -1 255 255 255 194
-0.06668828 0.027623173 0.219 0.48261848 -0.48261848 -0.73086166 255 255 255 194
-0.038268343 0.09238795 0.19499998 0.48261848 -0.48261848 -0.73086166 255 255 255 194
-0.027623173 0.06668828 0.219 0.48261848 -0.48261848 -0.73086166 255 255 255 194
-0.09238795 0.038268343 0.19499998 0.48261848 -0.48261848 -0.73086166 255 255 255 194
0.09238795 -0.038268354 0.19499998 -0.6825255 1.6931807E-14 -0.73086166 255 255 255 194
0.066688284 0.027623173 0.219 -0.6825255 1.6931807E-14 -0.73086166 255 255 255 194
0.09238795 0.038268343 0.19499998 -0.6825255 1.6931807E-14 -0.73086166 255 255 255 194
0.066688284 -0.027623191 0.219 -0.6825255 1.6931807E-14 -0.73086166 255 255 255 194
-0.038268343 -0.09238795 0.19499998 -2.3449609E-18 0.6825255 -0.73086166 255 255 255 194
0.027623191 -0.066688284 0.219 -2.3449609E-18 0.6825255 -0.73086166 255 255 255 194
0.038268354 -0.09238795 0.19499998 -2.3449609E-18 0.6825255 -0.73086166 255 255 255 194
-0.027623173 -0.066688284 0.219 -2.3449609E-18 0.6825255 -0.73086166 255 255 255 194
-0.038268343 -0.09238795 0.19499998 0.48261848 0.48261848 -0.73086166 255 255 255 194
-0.06668828 -0.027623191 0.219 0.48261848 0.48261848 -0.73086166 255 255 255 194
-0.027623173 -0.066688284 0.219 0.48261848 0.48261848 -0.73086166 255 255 255 194
-0.09238795 -0.038268354 0.19499998 0.48261848 0.48261848 -0.73086166 255 255 255 194
-0.06668828 -0.027623191 0.219 0.6825255 -7.5238156E-14 -0.73086166 255 255 255 194
-0.09238795 0.038268343 0.19499998 0.6825255 -7.5238156E-14 -0.73086166 255 255 255 194
-0.06668828 0.027623173 0.219 0.6825255 -7.5238156E-14 -0.73086166 255 255 255 194
-0.09238795 -0.038268354 0.19499998 0.6825255 -7.5238156E-14 -0.73086166 255 255 255 194
0.038268354 -0.09238795 0.19499998 -0.48261848 0.48261848 -0.73086166 255 255 255 194
0.066688284 -0.027623191 0.219 -0.48261848 0.48261848 -0.73086166 255 255 255 194
0.09238795 -0.038268354 0.19499998 -0.48261848 0.48261848 -0.73086166 255 255 255 194
0.027623191 -0.066688284 0.219 -0.48261848 0.48261848 -0.73086166 255 255 255 194
3 80 81 82
3 81 80 83
3 84 85 86
3 85 84 87
3 88 89 90
3 89 88 91
3 89 91 92
3 92 91 93
3 92 93 94
3 92 94 95
3 96 97 98
3 97 96 99
3 100 101 102
3 101 100 103
3 104 105 106
3 105 104 107
3 108 109 110
3 109 108 111
3 112 113 114
3 113 112 115
3 116 117 118
3 117 116 119
3 120 121 122
3 121 120 123
3 124 125 126
3 125 124 127
3 128 129 130
3 129 128 131
3 131 128 132
3 132 128 133
3 132 133 134
3 132 134 135
3 136 137 138
3 137 136 139
3 140 141 142
3 141 140 143
3 144 145 146
3 145 144 147
3 148 149 150
3 149 148 151
3 152 153 154
3 153 152 155
3 156 157 158
3 157 156 159

