ply
format ascii 1.0
commentY29udmVydGVyIGJ5IENvZGVMZW9wYXJk
comment Original mesh name: 'C:\Program Files (x86)\Steam\steamapps\common\Stormworks\rom\meshes\component_inventory_equipment_pistol_ammo.mesh'
comment SubMesh index: 0
comment SubMesh name: 'ID18'
comment Shader: Opaque (0)
element vertex 447
property float x
property float y
property float z
property float nx
property float ny
property float nz
property uchar red
property uchar green
property uchar blue
property uchar alpha
element face 269
property list uchar ushort vertex_index
end_header
0.004862868 -0.049210485 0.003169864 -0.9799248 0.1992073 0.008000991 204 163 39 255
0.0049514994 -0.04896288 0.0078601185 -0.9799248 0.1992073 0.008000991 204 163 39 255
0.005401161 -0.0467545 0.007948815 -0.9799248 0.1992073 0.008000991 204 163 39 255
0.0046380353 -0.050393067 0.005077212 -0.9799248 0.1992073 0.008000991 204 163 39 255
0.0037862821 -0.05449783 0.0029575028 -0.9799248 0.1992073 0.008000991 204 163 39 255
0.0040111127 -0.05347203 0.0049535474 -0.9799248 0.1992073 0.008000991 204 163 39 255
0.0036976512 -0.055120792 0.00761279 -0.9799248 0.1992073 0.008000991 204 163 39 255
0.0032479875 -0.057329167 0.0075240927 -0.9799248 0.1992073 0.008000991 204 163 39 255
0.004862868 -0.04958584 0.012515403 -0.9799248 0.1992073 0.008000991 204 163 39 255
0.0046380353 -0.05061165 0.010519358 -0.9799248 0.1992073 0.008000991 204 163 39 255
0.0037862821 -0.054873187 0.012303042 -0.9799248 0.1992073 0.008000991 204 163 39 255
0.0040111127 -0.053690612 0.010395694 -0.9799248 0.1992073 0.008000991 204 163 39 255
0.0032479875 -0.057329167 0.0075240927 0.17265771 0.868022 -0.4655397 204 163 39 255
0.0025148673 -0.054614723 0.012313424 0.17265771 0.868022 -0.4655397 204 163 39 255
0.0037862821 -0.054873187 0.012303042 0.17265771 0.868022 -0.4655397 204 163 39 255
0.001976573 -0.057070702 0.0075344737 0.17265771 0.868022 -0.4655397 204 163 39 255
0.0037862821 -0.054873187 0.012303042 -1.8219791E-16 0.04013179 -0.9991944 204 163 39 255
0.003591454 -0.049327377 0.012525785 -1.8219791E-16 0.04013179 -0.9991944 204 163 39 255
0.004862868 -0.04958584 0.012515403 -1.8219791E-16 0.04013179 -0.9991944 204 163 39 255
0.0025148673 -0.054614723 0.012313424 -1.8219791E-16 0.04013179 -0.9991944 204 163 39 255
0.004129746 -0.046496037 0.007959196 -0.1726577 -0.82789016 -0.5336545 204 163 39 255
0.004862868 -0.04958584 0.012515403 -0.1726577 -0.82789016 -0.5336545 204 163 39 255
0.003591454 -0.049327377 0.012525785 -0.1726577 -0.82789016 -0.5336545 204 163 39 255
0.005401161 -0.0467545 0.007948815 -0.1726577 -0.82789016 -0.5336545 204 163 39 255
0.003591454 -0.04895202 0.0031802454 -0.17265771 -0.8680221 0.46553952 204 163 39 255
0.005401161 -0.0467545 0.007948815 -0.17265771 -0.8680221 0.46553952 204 163 39 255
0.004129746 -0.046496037 0.007959196 -0.17265771 -0.8680221 0.46553952 204 163 39 255
0.004862868 -0.049210485 0.003169864 -0.17265771 -0.8680221 0.46553952 204 163 39 255
0.003591454 -0.04895202 0.0031802454 1.561697E-16 -0.04013179 0.9991944 204 163 39 255
0.0037862821 -0.05449783 0.0029575028 1.561697E-16 -0.04013179 0.9991944 204 163 39 255
0.004862868 -0.049210485 0.003169864 1.561697E-16 -0.04013179 0.9991944 204 163 39 255
0.0025148673 -0.054239366 0.0029678834 1.561697E-16 -0.04013179 0.9991944 204 163 39 255
0.0037862821 -0.05449783 0.0029575028 0.17265771 0.8278903 0.5336544 204 163 39 255
0.001976573 -0.057070702 0.0075344737 0.17265771 0.8278903 0.5336544 204 163 39 255
0.0032479875 -0.057329167 0.0075240927 0.17265771 0.8278903 0.5336544 204 163 39 255
0.0025148673 -0.054239366 0.0029678834 0.17265771 0.8278903 0.5336544 204 163 39 255
0.003591454 -0.049327377 0.012525785 0.9799248 -0.1992073 -0.008000991 204 163 39 255
0.003968258 -0.047289148 0.007927341 0.9799248 -0.1992073 -0.008000991 204 163 39 255
0.004129746 -0.046496037 0.007959196 0.9799248 -0.1992073 -0.008000991 204 163 39 255
0.0035107099 -0.04969578 0.011808943 0.9799248 -0.1992073 -0.008000991 204 163 39 255
0.0025148673 -0.054614723 0.012313424 0.9799248 -0.1992073 -0.008000991 204 163 39 255
0.0025956114 -0.054190017 0.011628436 0.9799248 -0.1992073 -0.008000991 204 163 39 255
0.002138061 -0.056277588 0.0075663286 0.9799248 -0.1992073 -0.008000991 204 163 39 255
0.001976573 -0.057070702 0.0075344737 0.9799248 -0.1992073 -0.008000991 204 163 39 255
0.003591454 -0.04895202 0.0031802454 0.9799248 -0.1992073 -0.008000991 204 163 39 255
0.0035107099 -0.049376734 0.0038652353 0.9799248 -0.1992073 -0.008000991 204 163 39 255
0.0025148673 -0.054239366 0.0029678834 0.9799248 -0.1992073 -0.008000991 204 163 39 255
0.0025956114 -0.05387097 0.0036847275 0.9799248 -0.1992073 -0.008000991 204 163 39 255
-0.026357345 -0.04491949 0.009637222 0.9799248 -0.1992073 -0.008000991 204 163 122 255
-0.026357345 -0.044789996 0.006413012 0.9799248 -0.1992073 -0.008000991 204 163 122 255
-0.026171623 -0.04394268 0.00806175 0.9799248 -0.1992073 -0.008000991 204 163 122 255
-0.026728772 -0.04674362 0.009563956 0.9799248 -0.1992073 -0.008000991 204 163 122 255
-0.026728772 -0.04661412 0.006339747 0.9799248 -0.1992073 -0.008000991 204 163 122 255
-0.026914468 -0.047590937 0.00791522 0.9799248 -0.1992073 -0.008000991 204 163 122 255
-0.024311587 -0.048483934 0.011481761 0.5806522 -0.08571225 -0.8096273 204 163 122 255
-0.026357345 -0.04491949 0.009637222 0.5806522 -0.08571225 -0.8096273 204 163 122 255
-0.023482943 -0.0444143 0.011645215 0.5806522 -0.08571225 -0.8096273 204 163 122 255
-0.026728772 -0.04674362 0.009563956 0.5806522 -0.08571225 -0.8096273 204 163 122 255
-0.024311587 -0.048483934 0.011481761 0.719734 0.5811824 -0.37974983 204 163 122 255
-0.026914468 -0.047590937 0.00791522 0.719734 0.5811824 -0.37974983 204 163 122 255
-0.026728772 -0.04674362 0.009563956 0.719734 0.5811824 -0.37974983 204 163 122 255
-0.02472591 -0.050374288 0.00780343 0.719734 0.5811824 -0.37974983 204 163 122 255
-0.026914468 -0.047590937 0.00791522 0.719734 0.5488549 0.4251367 204 163 122 255
-0.024311587 -0.048195027 0.0042885486 0.719734 0.5488549 0.4251367 204 163 122 255
-0.026728772 -0.04661412 0.006339747 0.719734 0.5488549 0.4251367 204 163 122 255
-0.02472591 -0.050374288 0.00780343 0.719734 0.5488549 0.4251367 204 163 122 255
-0.026357345 -0.044789996 0.006413012 0.5806521 -0.1503674 0.80014545 204 163 122 255
-0.024311587 -0.048195027 0.0042885486 0.5806521 -0.1503674 0.80014545 204 163 122 255
-0.023482943 -0.044125393 0.0044520022 0.5806521 -0.1503674 0.80014545 204 163 122 255
-0.026728772 -0.04661412 0.006339747 0.5806521 -0.1503674 0.80014545 204 163 122 255
-0.026357345 -0.044789996 0.006413012 0.4415701 -0.8172623 0.3702676 204 163 122 255
-0.023068624 -0.042235047 0.008130335 0.4415701 -0.8172623 0.3702676 204 163 122 255
-0.026171623 -0.04394268 0.00806175 0.4415701 -0.8172623 0.3702676 204 163 122 255
-0.023482943 -0.044125393 0.0044520022 0.4415701 -0.8172623 0.3702676 204 163 122 255
-0.026357345 -0.04491949 0.009637222 0.4415702 -0.7849346 -0.43461865 204 163 122 255
-0.023068624 -0.042235047 0.008130335 0.4415702 -0.7849346 -0.43461865 204 163 122 255
-0.023482943 -0.0444143 0.011645215 0.4415702 -0.7849346 -0.43461865 204 163 122 255
-0.026171623 -0.04394268 0.00806175 0.4415702 -0.7849346 -0.43461865 204 163 122 255
-0.01914395 -0.05021173 0.012490265 0.19167043 0.00039226084 -0.98145926 204 163 122 255
-0.023482943 -0.0444143 0.011645215 0.19167043 0.00039226084 -0.98145926 204 163 122 255
-0.018067366 -0.044924404 0.012702626 0.19167043 0.00039226084 -0.98145926 204 163 122 255
-0.024311587 -0.048483934 0.011481761 0.19167043 0.00039226084 -0.98145926 204 163 122 255
-0.019682247 -0.052667707 0.007711316 0.360993 0.8122911 -0.45811254 204 163 122 255
-0.024311587 -0.048483934 0.011481761 0.360993 0.8122911 -0.45811254 204 163 122 255
-0.01914395 -0.05021173 0.012490265 0.360993 0.8122911 -0.45811254 204 163 122 255
-0.02472591 -0.050374288 0.00780343 0.360993 0.8122911 -0.45811254 204 163 122 255
-0.01914395 -0.049836375 0.0031447264 0.360993 0.7729346 0.52178156 204 163 122 255
-0.02472591 -0.050374288 0.00780343 0.360993 0.7729346 0.52178156 204 163 122 255
-0.019682247 -0.052667707 0.007711316 0.360993 0.7729346 0.52178156 204 163 122 255
-0.024311587 -0.048195027 0.0042885486 0.360993 0.7729346 0.52178156 204 163 122 255
-0.023482943 -0.044125393 0.0044520022 0.19167052 -0.078321 0.9783293 204 163 122 255
-0.01914395 -0.049836375 0.0031447264 0.19167052 -0.078321 0.9783293 204 163 122 255
-0.018067366 -0.04454905 0.0033570868 0.19167052 -0.078321 0.9783293 204 163 122 255
-0.024311587 -0.048195027 0.0042885486 0.19167052 -0.078321 0.9783293 204 163 122 255
-0.023482943 -0.044125393 0.0044520022 0.02234776 -0.89022 0.4549823 204 163 122 255
-0.017529074 -0.042093046 0.008136039 0.02234776 -0.89022 0.4549823 204 163 122 255
-0.023068624 -0.042235047 0.008130335 0.02234776 -0.89022 0.4549823 204 163 122 255
-0.018067366 -0.04454905 0.0033570868 0.02234776 -0.89022 0.4549823 204 163 122 255
-0.023482943 -0.0444143 0.011645215 0.02234774 -0.8508633 -0.5249117 204 163 122 255
-0.017529074 -0.042093046 0.008136039 0.02234774 -0.8508633 -0.5249117 204 163 122 255
-0.018067366 -0.044924404 0.012702626 0.02234774 -0.8508633 -0.5249117 204 163 122 255
-0.023068624 -0.042235047 0.008130335 0.02234774 -0.8508633 -0.5249117 204 163 122 255
0.0045382543 -0.0509179 0.0059237047 -0.9799248 0.1992073 0.008000991 204 163 39 255
0.0045382543 -0.0510669 0.009633499 -0.9799248 0.1992073 0.008000991 204 163 39 255
0.004751934 -0.04994299 0.007820752 -0.9799248 0.1992073 0.008000991 204 163 39 255
0.0041108937 -0.053016767 0.0058394056 -0.9799248 0.1992073 0.008000991 204 163 39 255
0.0041108937 -0.053165767 0.0095492015 -0.9799248 0.1992073 0.008000991 204 163 39 255
0.0038972138 -0.054140687 0.007652155 -0.9799248 0.1992073 0.008000991 204 163 39 255
-0.0001892513 -0.056630418 0.007552157 0.17265771 0.8278903 0.5336544 204 163 39 255
-0.01914395 -0.049836375 0.0031447264 0.17265771 0.8278903 0.5336544 204 163 39 255
-0.019682247 -0.052667707 0.007711316 0.17265771 0.8278903 0.5336544 204 163 39 255
0.0003490417 -0.05379908 0.0029855669 0.17265771 0.8278903 0.5336544 204 163 39 255
0.0011844018 -0.053584076 0.0036962505 -0.5322553 0.7461796 0.3999003 204 163 39 255
-0.0001892513 -0.056630418 0.007552157 -0.5322553 0.7461796 0.3999003 204 163 39 255
0.00072685245 -0.05599073 0.00757785 -0.5322553 0.7461796 0.3999003 204 163 39 255
0.0003490417 -0.05379908 0.0029855669 -0.5322553 0.7461796 0.3999003 204 163 39 255
-0.018067366 -0.04454905 0.0033570868 2.256274E-16 -0.04013179 0.9991944 204 163 39 255
0.0003490417 -0.05379908 0.0029855669 2.256274E-16 -0.04013179 0.9991944 204 163 39 255
0.0014256283 -0.048511736 0.003197929 2.256274E-16 -0.04013179 0.9991944 204 163 39 255
-0.01914395 -0.049836375 0.0031447264 2.256274E-16 -0.04013179 0.9991944 204 163 39 255
0.0003490417 -0.05417444 0.012331107 0.17265771 0.868022 -0.4655397 204 163 39 255
-0.019682247 -0.052667707 0.007711316 0.17265771 0.868022 -0.4655397 204 163 39 255
-0.01914395 -0.05021173 0.012490265 0.17265771 0.868022 -0.4655397 204 163 39 255
-0.0001892513 -0.056630418 0.007552157 0.17265771 0.868022 -0.4655397 204 163 39 255
0.0014256283 -0.048511736 0.003197929 -0.65989625 0.10448125 0.74405694 204 163 39 255
0.0011844018 -0.053584076 0.0036962505 -0.65989625 0.10448125 0.74405694 204 163 39 255
0.0020995012 -0.049089845 0.0038767576 -0.65989625 0.10448125 0.74405694 204 163 39 255
0.0003490417 -0.05379908 0.0029855669 -0.65989625 0.10448125 0.74405694 204 163 39 255
0.0011844018 -0.05390312 0.011639959 -0.5322551 0.77584773 -0.33876956 204 163 39 255
-0.0001892513 -0.056630418 0.007552157 -0.5322551 0.77584773 -0.33876956 204 163 39 255
0.0003490417 -0.05417444 0.012331107 -0.5322551 0.77584773 -0.33876956 204 163 39 255
0.00072685245 -0.05599073 0.00757785 -0.5322551 0.77584773 -0.33876956 204 163 39 255
0.0025956114 -0.05387097 0.0036847275 0.1726577 0.82789016 0.53365463 204 163 39 255
0.00072685245 -0.05599073 0.00757785 0.1726577 0.82789016 0.53365463 204 163 39 255
0.002138061 -0.056277588 0.0075663286 0.1726577 0.82789016 0.53365463 204 163 39 255
0.0011844018 -0.053584076 0.0036962505 0.1726577 0.82789016 0.53365463 204 163 39 255
-0.018067366 -0.04454905 0.0033570868 -0.17265771 -0.8680221 0.46553952 204 163 39 255
0.0019639211 -0.046055757 0.007976879 -0.17265771 -0.8680221 0.46553952 204 163 39 255
-0.017529074 -0.042093046 0.008136039 -0.17265771 -0.8680221 0.46553952 204 163 39 255
0.0014256283 -0.048511736 0.003197929 -0.17265771 -0.8680221 0.46553952 204 163 39 255
0.0003490417 -0.05417444 0.012331107 -2.2127711E-16 0.04013179 -0.9991944 204 163 39 255
-0.018067366 -0.044924404 0.012702626 -2.2127711E-16 0.04013179 -0.9991944 204 163 39 255
0.0014256283 -0.048887096 0.012543469 -2.2127711E-16 0.04013179 -0.9991944 204 163 39 255
-0.01914395 -0.05021173 0.012490265 -2.2127711E-16 0.04013179 -0.9991944 204 163 39 255
0.0014256283 -0.048511736 0.003197929 -0.7875357 -0.50754875 0.34954497 204 163 39 255
0.002557049 -0.04700226 0.007938865 -0.7875357 -0.50754875 0.34954497 204 163 39 255
0.0019639211 -0.046055757 0.007976879 -0.7875357 -0.50754875 0.34954497 204 163 39 255
0.0020995012 -0.049089845 0.0038767576 -0.7875357 -0.50754875 0.34954497 204 163 39 255
0.0020995012 -0.049089845 0.0038767576 1.83729E-16 -0.04013179 0.9991944 204 163 39 255
0.0025956114 -0.05387097 0.0036847275 1.83729E-16 -0.04013179 0.9991944 204 163 39 255
0.0035107099 -0.049376734 0.0038652353 1.83729E-16 -0.04013179 0.9991944 204 163 39 255
0.0011844018 -0.053584076 0.0036962505 1.83729E-16 -0.04013179 0.9991944 204 163 39 255
0.002138061 -0.056277588 0.0075663286 0.1726577 0.8680219 -0.46553975 204 163 39 255
0.0011844018 -0.05390312 0.011639959 0.1726577 0.8680219 -0.46553975 204 163 39 255
0.0025956114 -0.054190017 0.011628436 0.1726577 0.8680219 -0.46553975 204 163 39 255
0.00072685245 -0.05599073 0.00757785 0.1726577 0.8680219 -0.46553975 204 163 39 255
0.0011844018 -0.05390312 0.011639959 -0.6598955 0.16381706 -0.73328155 204 163 39 255
0.0014256283 -0.048887096 0.012543469 -0.6598955 0.16381706 -0.73328155 204 163 39 255
0.0020995012 -0.04940889 0.011820465 -0.6598955 0.16381706 -0.73328155 204 163 39 255
0.0003490417 -0.05417444 0.012331107 -0.6598955 0.16381706 -0.73328155 204 163 39 255
-0.017529074 -0.042093046 0.008136039 -0.1726577 -0.82789016 -0.5336545 204 163 39 255
0.0014256283 -0.048887096 0.012543469 -0.1726577 -0.82789016 -0.5336545 204 163 39 255
-0.018067366 -0.044924404 0.012702626 -0.1726577 -0.82789016 -0.5336545 204 163 39 255
0.0019639211 -0.046055757 0.007976879 -0.1726577 -0.82789016 -0.5336545 204 163 39 255
0.0020995012 -0.049089845 0.0038767576 -0.1726577 -0.8680219 0.46553987 204 163 39 255
0.003968258 -0.047289148 0.007927341 -0.1726577 -0.8680219 0.46553987 204 163 39 255
0.002557049 -0.04700226 0.007938865 -0.1726577 -0.8680219 0.46553987 204 163 39 255
0.0035107099 -0.049376734 0.0038652353 -0.1726577 -0.8680219 0.46553987 204 163 39 255
0.002557049 -0.04700226 0.007938865 -0.7875356 -0.47788092 -0.3891241 204 163 39 255
0.0014256283 -0.048887096 0.012543469 -0.7875356 -0.47788092 -0.3891241 204 163 39 255
0.0019639211 -0.046055757 0.007976879 -0.7875356 -0.47788092 -0.3891241 204 163 39 255
0.0020995012 -0.04940889 0.011820465 -0.7875356 -0.47788092 -0.3891241 204 163 39 255
0.0025956114 -0.054190017 0.011628436 -1.83729E-16 0.04013179 -0.9991944 204 163 39 255
0.0020995012 -0.04940889 0.011820465 -1.83729E-16 0.04013179 -0.9991944 204 163 39 255
0.0035107099 -0.04969578 0.011808943 -1.83729E-16 0.04013179 -0.9991944 204 163 39 255
0.0011844018 -0.05390312 0.011639959 -1.83729E-16 0.04013179 -0.9991944 204 163 39 255
0.002557049 -0.04700226 0.007938865 -0.1726576 -0.82789004 -0.5336548 204 163 39 255
0.0035107099 -0.04969578 0.011808943 -0.1726576 -0.82789004 -0.5336548 204 163 39 255
0.0020995012 -0.04940889 0.011820465 -0.1726576 -0.82789004 -0.5336548 204 163 39 255
0.003968258 -0.047289148 0.007927341 -0.1726576 -0.82789004 -0.5336548 204 163 39 255
0.0037561043 -0.05021378 0.0050844126 -0.9799248 0.1992073 0.008000991 153 129 61 255
0.003870003 -0.04976371 0.007827953 -0.9799248 0.1992073 0.008000991 153 129 61 255
0.004069566 -0.048783597 0.007867319 -0.9799248 0.1992073 0.008000991 153 129 61 255
0.003656323 -0.05073863 0.0059309057 -0.9799248 0.1992073 0.008000991 153 129 61 255
0.0031291791 -0.05329272 0.0049607493 -0.9799248 0.1992073 0.008000991 153 129 61 255
0.0032289606 -0.05283749 0.0058466066 -0.9799248 0.1992073 0.008000991 153 129 61 255
0.0030152805 -0.053961407 0.007659356 -0.9799248 0.1992073 0.008000991 153 129 61 255
0.0028157178 -0.054941483 0.007619992 -0.9799248 0.1992073 0.008000991 153 129 61 255
0.0037561043 -0.05043236 0.010526558 -0.9799248 0.1992073 0.008000991 153 129 61 255
0.003656323 -0.05088763 0.0096407 -0.9799248 0.1992073 0.008000991 153 129 61 255
0.0031291791 -0.053511303 0.0104028955 -0.9799248 0.1992073 0.008000991 153 129 61 255
0.0032289606 -0.05298649 0.0095564015 -0.9799248 0.1992073 0.008000991 153 129 61 255
0.0031291791 -0.053511303 0.0104028955 -0.1726577 -0.86802197 0.46553963 153 129 61 255
0.0036976512 -0.055120792 0.00761279 -0.1726577 -0.86802197 0.46553963 153 129 61 255
0.0040111127 -0.053690612 0.010395694 -0.1726577 -0.86802197 0.46553963 153 129 61 255
0.0028157178 -0.054941483 0.007619992 -0.1726577 -0.86802197 0.46553963 153 129 61 255
0.0037561043 -0.05043236 0.010526558 1.5643981E-16 -0.04013179 0.9991944 153 129 61 255
0.0040111127 -0.053690612 0.010395694 1.5643981E-16 -0.04013179 0.9991944 153 129 61 255
0.0046380353 -0.05061165 0.010519358 1.5643981E-16 -0.04013179 0.9991944 153 129 61 255
0.0031291791 -0.053511303 0.0104028955 1.5643981E-16 -0.04013179 0.9991944 153 129 61 255
0.0049514994 -0.04896288 0.0078601185 0.1726577 0.8278902 0.5336545 153 129 61 255
0.0037561043 -0.05043236 0.010526558 0.1726577 0.8278902 0.5336545 153 129 61 255
0.0046380353 -0.05061165 0.010519358 0.1726577 0.8278902 0.5336545 153 129 61 255
0.004069566 -0.048783597 0.007867319 0.1726577 0.8278902 0.5336545 153 129 61 255
0.0046380353 -0.050393067 0.005077212 0.17265771 0.8680221 -0.46553957 153 129 61 255
0.004069566 -0.048783597 0.007867319 0.17265771 0.8680221 -0.46553957 153 129 61 255
0.0049514994 -0.04896288 0.0078601185 0.17265771 0.8680221 -0.46553957 153 129 61 255
0.0037561043 -0.05021378 0.0050844126 0.17265771 0.8680221 -0.46553957 153 129 61 255
0.0040111127 -0.05347203 0.0049535474 -1.787884E-16 0.04013179 -0.9991944 153 129 61 255
0.0037561043 -0.05021378 0.0050844126 -1.787884E-16 0.04013179 -0.9991944 153 129 61 255
0.0046380353 -0.050393067 0.005077212 -1.787884E-16 0.04013179 -0.9991944 153 129 61 255
0.0031291791 -0.05329272 0.0049607493 -1.787884E-16 0.04013179 -0.9991944 153 129 61 255
0.0031291791 -0.05329272 0.0049607493 -0.1726577 -0.8278902 -0.5336544 153 129 61 255
0.0036976512 -0.055120792 0.00761279 -0.1726577 -0.8278902 -0.5336544 153 129 61 255
0.0028157178 -0.054941483 0.007619992 -0.1726577 -0.8278902 -0.5336544 153 129 61 255
0.0040111127 -0.05347203 0.0049535474 -0.1726577 -0.8278902 -0.5336544 153 129 61 255
0.0038972138 -0.054140687 0.007652155 0.1726577 0.8680218 -0.4655399 153 129 61 255
0.0032289606 -0.05298649 0.0095564015 0.1726577 0.8680218 -0.4655399 153 129 61 255
0.0041108937 -0.053165767 0.0095492015 0.1726577 0.8680218 -0.4655399 153 129 61 255
0.0030152805 -0.053961407 0.007659356 0.1726577 0.8680218 -0.4655399 153 129 61 255
0.0038972138 -0.054140687 0.007652155 0.1726577 0.8278903 0.53365433 153 129 61 255
0.0032289606 -0.05283749 0.0058466066 0.1726577 0.8278903 0.53365433 153 129 61 255
0.0030152805 -0.053961407 0.007659356 0.1726577 0.8278903 0.53365433 153 129 61 255
0.0041108937 -0.053016767 0.0058394056 0.1726577 0.8278903 0.53365433 153 129 61 255
0.0041108937 -0.053165767 0.0095492015 -1.63923E-16 0.04013179 -0.9991944 153 129 61 255
0.003656323 -0.05088763 0.0096407 -1.63923E-16 0.04013179 -0.9991944 153 129 61 255
0.0045382543 -0.0510669 0.009633499 -1.63923E-16 0.04013179 -0.9991944 153 129 61 255
0.0032289606 -0.05298649 0.0095564015 -1.63923E-16 0.04013179 -0.9991944 153 129 61 255
0.003656323 -0.05073863 0.0059309057 1.311384E-16 -0.04013179 0.9991944 153 129 61 255
0.0041108937 -0.053016767 0.0058394056 1.311384E-16 -0.04013179 0.9991944 153 129 61 255
0.0045382543 -0.0509179 0.0059237047 1.311384E-16 -0.04013179 0.9991944 153 129 61 255
0.0032289606 -0.05283749 0.0058466066 1.311384E-16 -0.04013179 0.9991944 153 129 61 255
0.003870003 -0.04976371 0.007827953 -0.1726577 -0.82789004 -0.53365475 153 129 61 255
0.0045382543 -0.0510669 0.009633499 -0.1726577 -0.82789004 -0.53365475 153 129 61 255
0.003656323 -0.05088763 0.0096407 -0.1726577 -0.82789004 -0.53365475 153 129 61 255
0.004751934 -0.04994299 0.007820752 -0.1726577 -0.82789004 -0.53365475 153 129 61 255
0.003656323 -0.05073863 0.0059309057 -0.1726577 -0.8680221 0.46553946 153 129 61 255
0.004751934 -0.04994299 0.007820752 -0.1726577 -0.8680221 0.46553946 153 129 61 255
0.003870003 -0.04976371 0.007827953 -0.1726577 -0.8680221 0.46553946 153 129 61 255
0.0045382543 -0.0509179 0.0059237047 -0.1726577 -0.8680221 0.46553946 153 129 61 255
-0.0024172948 -0.0074098064 0.028323125 0.0986192 0.022732237 -0.9948656 30 30 30 255
-0.021973563 0.016380772 0.026928153 0.0986192 0.022732237 -0.9948656 30 30 30 255
0.0010212872 0.012276506 0.02911381 0.0986192 0.022732237 -0.9948656 30 30 30 255
-0.025412146 -0.0033055427 0.02613747 0.0986192 0.022732237 -0.9948656 30 30 30 255
0.020004306 -0.011249943 0.026425518 -0.07517517 0.05312436 -0.9957542 30 30 30 255
0.0010212872 0.012276506 0.02911381 -0.07517517 0.05312436 -0.9957542 30 30 30 255
0.023442889 0.008436372 0.027216204 -0.07517517 0.05312436 -0.9957542 30 30 30 255
-0.0024172948 -0.0074098064 0.028323125 -0.07517517 0.05312436 -0.9957542 30 30 30 255
0.020004306 -0.011249943 0.026425518 0.1719291 0.9843157 0.0395342 30 30 30 255
-0.025412146 -0.0033055427 0.02613747 0.1719291 0.9843157 0.0395342 30 30 30 255
-0.0024172948 -0.0074098064 0.028323125 0.1719291 0.9843157 0.0395342 30 30 30 255
-0.0024367617 -0.007284272 0.025282212 0.1719291 0.9843157 0.0395342 30 30 30 255
0.017875556 -0.010771845 0.02377963 0.1719291 0.9843157 0.0395342 30 30 30 255
0.026248945 -0.010921474 -0.008909766 0.1719291 0.9843157 0.0395342 30 30 30 255
0.023062391 -0.010365779 -0.0088874465 0.1719291 0.9843157 0.0395342 30 30 30 255
-0.02312238 -0.0035979806 0.023460636 0.1719291 0.9843157 0.0395342 30 30 30 255
-0.034388013 -0.0003629428 -0.008092012 0.1719291 0.9843157 0.0395342 30 30 30 255
-0.031298332 -0.0009017416 -0.0081136525 0.1719291 0.9843157 0.0395342 30 30 30 255
-0.021973563 0.016380772 0.026928153 0.9521259 -0.15574096 -0.2630608 30 30 30 255
-0.034388013 -0.0003629428 -0.008092012 0.9521259 -0.15574096 -0.2630608 30 30 30 255
-0.030949436 0.01932337 -0.0073013282 0.9521259 -0.15574096 -0.2630608 30 30 30 255
-0.025412146 -0.0033055427 0.02613747 0.9521259 -0.15574096 -0.2630608 30 30 30 255
-0.021973563 0.016380772 0.026928153 -0.1719291 -0.9843157 -0.039534133 30 30 30 255
-0.015593556 0.015359113 0.02461987 -0.1719291 -0.9843157 -0.039534133 30 30 30 255
0.0010018202 0.012402042 0.026072897 -0.1719291 -0.9843157 -0.039534133 30 30 30 255
-0.019683797 0.016088335 0.02425132 -0.1719291 -0.9843157 -0.039534133 30 30 30 255
-0.030949436 0.01932337 -0.0073013282 -0.1719291 -0.9843157 -0.039534133 30 30 30 255
-0.027859759 0.018784573 -0.0073229684 -0.1719291 -0.9843157 -0.039534133 30 30 30 255
0.023442889 0.008436372 0.027216204 -0.1719291 -0.9843157 -0.039534133 30 30 30 255
0.0010212872 0.012276506 0.02911381 -0.1719291 -0.9843157 -0.039534133 30 30 30 255
0.021314135 0.008914467 0.024570316 -0.1719291 -0.9843157 -0.039534133 30 30 30 255
0.029687522 0.008764841 -0.008119082 -0.1719291 -0.9843157 -0.039534133 30 30 30 255
0.026500965 0.009320534 -0.008096764 -0.1719291 -0.9843157 -0.039534133 30 30 30 255
0.029687522 0.008764841 -0.008119082 -0.96961695 0.17617823 -0.169718 30 30 30 255
0.020004306 -0.011249943 0.026425518 -0.96961695 0.17617823 -0.169718 30 30 30 255
0.023442889 0.008436372 0.027216204 -0.96961695 0.17617823 -0.169718 30 30 30 255
0.026248945 -0.010921474 -0.008909766 -0.96961695 0.17617823 -0.169718 30 30 30 255
0.017875556 -0.010771845 0.02377963 0.9725499 -0.17598826 0.1522327 30 30 30 255
0.026500965 0.009320534 -0.008096764 0.9725499 -0.17598826 0.1522327 30 30 30 255
0.021314135 0.008914467 0.024570316 0.9725499 -0.17598826 0.1522327 30 30 30 255
0.023062391 -0.010365779 -0.0088874465 0.9725499 -0.17598826 0.1522327 30 30 30 255
0.0010018202 0.012402042 0.026072897 0.06490118 -0.051362544 0.996569 30 30 30 255
0.017875556 -0.010771845 0.02377963 0.06490118 -0.051362544 0.996569 30 30 30 255
0.021314135 0.008914467 0.024570316 0.06490118 -0.051362544 0.996569 30 30 30 255
-0.0024367617 -0.007284272 0.025282212 0.06490118 -0.051362544 0.996569 30 30 30 255
-0.015593556 0.015359113 0.02461987 -0.091874406 -0.024068037 0.99547964 30 30 30 255
-0.0024367617 -0.007284272 0.025282212 -0.091874406 -0.024068037 0.99547964 30 30 30 255
0.0010018202 0.012402042 0.026072897 -0.091874406 -0.024068037 0.99547964 30 30 30 255
-0.02312238 -0.0035979806 0.023460636 -0.091874406 -0.024068037 0.99547964 30 30 30 255
-0.019683797 0.016088335 0.02425132 -0.091874406 -0.024068037 0.99547964 30 30 30 255
-0.031298332 -0.0009017416 -0.0081136525 -0.9529053 0.1559972 0.26007003 30 30 30 255
-0.019683797 0.016088335 0.02425132 -0.9529053 0.1559972 0.26007003 30 30 30 255
-0.027859759 0.018784573 -0.0073229684 -0.9529053 0.1559972 0.26007003 30 30 30 255
-0.02312238 -0.0035979806 0.023460636 -0.9529053 0.1559972 0.26007003 30 30 30 255
0.032188255 0.04712659 -0.004120105 -0.7936639 0.60786635 0.024414435 30 30 30 255
0.028620416 0.041191474 0.027667327 -0.7936639 0.60786635 0.024414435 30 30 30 255
0.032188255 0.045842372 0.027854126 -0.7936639 0.60786635 0.024414435 30 30 30 255
0.028620416 0.04247569 -0.004306905 -0.7936639 0.60786635 0.024414435 30 30 30 255
0.031678677 0.04899772 -0.004044953 -0.9649126 -0.26235977 -0.010537457 30 30 30 255
0.032188255 0.045842372 0.027854126 -0.9649126 -0.26235977 -0.010537457 30 30 30 255
0.031678677 0.047713507 0.027929278 -0.9649126 -0.26235977 -0.010537457 30 30 30 255
0.032188255 0.04712659 -0.004120105 -0.9649126 -0.26235977 -0.010537457 30 30 30 255
0.031678677 0.04899772 -0.004044953 3.079745E-16 -0.04013179 0.9991944 30 30 30 255
0.028620416 0.04247569 -0.004306905 3.079745E-16 -0.04013179 0.9991944 30 30 30 255
0.032188255 0.04712659 -0.004120105 3.079745E-16 -0.04013179 0.9991944 30 30 30 255
-0.008240613 0.05696796 -0.0037248356 3.079745E-16 -0.04013179 0.9991944 30 30 30 255
-0.009612235 0.050109167 -0.004000312 3.079745E-16 -0.04013179 0.9991944 30 30 30 255
0.028620416 0.041191474 0.027667327 0.19594619 0.9798246 0.039353818 30 30 30 255
0.026933756 0.0416085 0.02568246 0.19594619 0.9798246 0.039353818 30 30 30 255
-0.009612235 0.04882495 0.027973918 0.19594619 0.9798246 0.039353818 30 30 30 255
0.028620416 0.04247569 -0.004306905 0.19594619 0.9798246 0.039353818 30 30 30 255
0.026933756 0.042732187 -0.0022949702 0.19594619 0.9798246 0.039353818 30 30 30 255
-0.008913601 0.04988942 -0.0020075066 0.19594619 0.9798246 0.039353818 30 30 30 255
-0.009612235 0.050109167 -0.004000312 0.19594619 0.9798246 0.039353818 30 30 30 255
-0.008913601 0.048765734 0.025969924 0.19594619 0.9798246 0.039353818 30 30 30 255
-0.014672206 0.050076023 0.022019329 0.19594619 0.9798246 0.039353818 30 30 30 255
-0.01298555 0.04977251 0.021178043 0.19594619 0.9798246 0.039353818 30 30 30 255
-0.014672206 0.05087866 0.0020354432 0.19594619 0.9798246 0.039353818 30 30 30 255
-0.01298555 0.05050865 0.0028496762 0.19594619 0.9798246 0.039353818 30 30 30 255
0.028620416 0.041191474 0.027667327 -2.416361E-16 0.04013179 -0.9991944 30 30 30 255
0.031678677 0.047713507 0.027929278 -2.416361E-16 0.04013179 -0.9991944 30 30 30 255
0.032188255 0.045842372 0.027854126 -2.416361E-16 0.04013179 -0.9991944 30 30 30 255
-0.008240613 0.055683747 0.028249394 -2.416361E-16 0.04013179 -0.9991944 30 30 30 255
-0.009612235 0.04882495 0.027973918 -2.416361E-16 0.04013179 -0.9991944 30 30 30 255
-0.013300585 0.056934793 0.022294806 -0.19594619 -0.9798246 -0.039353818 30 30 30 255
0.031678677 0.047713507 0.027929278 -0.19594619 -0.9798246 -0.039353818 30 30 30 255
-0.008240613 0.055683747 0.028249394 -0.19594619 -0.9798246 -0.039353818 30 30 30 255
0.031678677 0.04899772 -0.004044953 -0.19594619 -0.9798246 -0.039353818 30 30 30 255
-0.013300585 0.05773743 0.0023109198 -0.19594619 -0.9798246 -0.039353818 30 30 30 255
-0.008240613 0.05696796 -0.0037248356 -0.19594619 -0.9798246 -0.039353818 30 30 30 255
-0.014672206 0.05087866 0.0020354432 0.74348813 -0.17461136 0.6455511 30 30 30 255
-0.008240613 0.05696796 -0.0037248356 0.74348813 -0.17461136 0.6455511 30 30 30 255
-0.013300585 0.05773743 0.0023109198 0.74348813 -0.17461136 0.6455511 30 30 30 255
-0.009612235 0.050109167 -0.004000312 0.74348813 -0.17461136 0.6455511 30 30 30 255
-0.014672206 0.050076023 0.022019329 0.98061466 -0.19578823 -0.007863667 30 30 30 255
-0.013300585 0.05773743 0.0023109198 0.98061466 -0.19578823 -0.007863667 30 30 30 255
-0.013300585 0.056934793 0.022294806 0.98061466 -0.19578823 -0.007863667 30 30 30 255
-0.014672206 0.05087866 0.0020354432 0.98061466 -0.19578823 -0.007863667 30 30 30 255
-0.008240613 0.055683747 0.028249394 0.7434875 -0.1222762 -0.65747607 30 30 30 255
-0.014672206 0.050076023 0.022019329 0.7434875 -0.1222762 -0.65747607 30 30 30 255
-0.013300585 0.056934793 0.022294806 0.7434875 -0.1222762 -0.65747607 30 30 30 255
-0.009612235 0.04882495 0.027973918 0.7434875 -0.1222762 -0.65747607 30 30 30 255
-0.008913601 0.04988942 -0.0020075066 2.516515E-16 -0.04013179 0.9991944 30 30 30 255
0.012041847 -0.031734493 -0.005285862 2.516515E-16 -0.04013179 0.9991944 30 30 30 255
0.026933756 0.042732187 -0.0022949702 2.516515E-16 -0.04013179 0.9991944 30 30 30 255
-0.023805507 -0.024577256 -0.0049983975 2.516515E-16 -0.04013179 0.9991944 30 30 30 255
-0.02787746 -0.023958027 -0.0001412147 0.743487 -0.17461114 0.6455525 30 30 30 255
-0.008913601 0.04988942 -0.0020075066 0.743487 -0.17461114 0.6455525 30 30 30 255
-0.01298555 0.05050865 0.0028496762 0.743487 -0.17461114 0.6455525 30 30 30 255
-0.023805507 -0.024577256 -0.0049983975 0.743487 -0.17461114 0.6455525 30 30 30 255
-0.023805507 -0.024577256 -0.0049983975 0.05171671 0.21989954 0.97415066 30 30 30 255
0.007731038 -0.053532224 -0.00013650351 0.05171671 0.21989954 0.97415066 30 30 30 255
0.012041847 -0.031734493 -0.005285862 0.05171671 0.21989954 0.97415066 30 30 30 255
-0.028116323 -0.046374958 0.00015096157 0.05171671 0.21989954 0.97415066 30 30 30 255
0.007731038 -0.053532224 -0.00013650351 -0.98061466 0.19578823 0.007863667 30 30 30 255
0.008024957 -0.052208878 0.0035679252 -0.98061466 0.19578823 0.007863667 30 30 30 255
0.012041847 -0.031734493 -0.005285862 -0.98061466 0.19578823 0.007863667 30 30 30 255
0.007731038 -0.05367864 0.003508893 -0.98061466 0.19578823 0.007863667 30 30 30 255
0.026933756 0.042732187 -0.0022949702 -0.98061466 0.19578823 0.007863667 30 30 30 255
0.012041847 -0.03285818 0.02269157 -0.98061466 0.19578823 0.007863667 30 30 30 255
0.026933756 0.0416085 0.02568246 -0.98061466 0.19578823 0.007863667 30 30 30 255
0.007731038 -0.05417273 0.015810639 -0.98061466 0.19578823 0.007863667 30 30 30 255
0.008024957 -0.052556552 0.012224272 -0.98061466 0.19578823 0.007863667 30 30 30 255
0.007731038 -0.054026313 0.012165241 -0.98061466 0.19578823 0.007863667 30 30 30 255
-0.028116323 -0.046374958 0.00015096157 0.76634556 0.00020754924 0.64242864 30 30 30 255
-0.023805507 -0.024577256 -0.0049983975 0.76634556 0.00020754924 0.64242864 30 30 30 255
-0.02787746 -0.023958027 -0.0001412147 0.76634556 0.00020754924 0.64242864 30 30 30 255
-0.02787746 -0.024694169 0.018187152 0.98061466 -0.19578823 -0.007863667 30 30 30 255
-0.01298555 0.05050865 0.0028496762 0.98061466 -0.19578823 -0.007863667 30 30 30 255
-0.01298555 0.04977251 0.021178043 0.98061466 -0.19578823 -0.007863667 30 30 30 255
-0.02787746 -0.023958027 -0.0001412147 0.98061466 -0.19578823 -0.007863667 30 30 30 255
-0.03218827 -0.04609203 0.01338077 0.98061466 -0.19578823 -0.007863667 30 30 30 255
-0.03218827 -0.045672428 0.0029336014 0.98061466 -0.19578823 -0.007863667 30 30 30 255
0.007731038 -0.054026313 0.012165241 0.19594619 0.9798246 0.039353818 30 30 30 255
-0.028116323 -0.047015462 0.016098104 0.19594619 0.9798246 0.039353818 30 30 30 255
0.007731038 -0.05417273 0.015810639 0.19594619 0.9798246 0.039353818 30 30 30 255
-0.03218827 -0.04609203 0.01338077 0.19594619 0.9798246 0.039353818 30 30 30 255
-0.027038343 -0.047084294 0.012444061 0.19594619 0.9798246 0.039353818 30 30 30 255
-0.028610658 -0.0467277 0.011394816 0.19594619 0.9798246 0.039353818 30 30 30 255
-0.03218827 -0.045672428 0.0029336014 0.19594619 0.9798246 0.039353818 30 30 30 255
-0.028610658 -0.046465322 0.0048621777 0.19594619 0.9798246 0.039353818 30 30 30 255
-0.027038343 -0.04673662 0.0037877136 0.19594619 0.9798246 0.039353818 30 30 30 255
0.007731038 -0.05367864 0.003508893 0.19594619 0.9798246 0.039353818 30 30 30 255
0.007731038 -0.053532224 -0.00013650351 0.19594619 0.9798246 0.039353818 30 30 30 255
-0.028116323 -0.046374958 0.00015096157 0.19594619 0.9798246 0.039353818 30 30 30 255
0.008024957 -0.052208878 0.0035679252 -2.830034E-16 0.04013179 -0.9991944 30 30 30 255
0.00635763 -0.05034757 0.0036426827 -2.830034E-16 0.04013179 -0.9991944 30 30 30 255
0.008318876 -0.050739154 0.003626955 -2.830034E-16 0.04013179 -0.9991944 30 30 30 255
0.007731038 -0.05367864 0.003508893 -2.830034E-16 0.04013179 -0.9991944 30 30 30 255
-0.027038343 -0.04673662 0.0037877136 -2.830034E-16 0.04013179 -0.9991944 30 30 30 255
-0.024882942 -0.03595854 0.004220606 -2.830034E-16 0.04013179 -0.9991944 30 30 30 255
0.007925201 -0.042508975 0.0039575133 -2.830034E-16 0.04013179 -0.9991944 30 30 30 255
0.008024957 -0.052208878 0.0035679252 0.19594619 0.9798246 0.039353818 30 30 30 255
0.006063714 -0.052165 0.012239998 0.19594619 0.9798246 0.039353818 30 30 30 255
0.008024957 -0.052556552 0.012224272 0.19594619 0.9798246 0.039353818 30 30 30 255
0.006063714 -0.051817328 0.0035836515 0.19594619 0.9798246 0.039353818 30 30 30 255
-0.024882942 -0.036306214 0.012876953 2.57987E-16 -0.04013179 0.9991944 30 30 30 255
0.006063714 -0.052165 0.012239998 2.57987E-16 -0.04013179 0.9991944 30 30 30 255
0.007925201 -0.04285665 0.012613861 2.57987E-16 -0.04013179 0.9991944 30 30 30 255
0.007731038 -0.054026313 0.012165241 2.57987E-16 -0.04013179 0.9991944 30 30 30 255
0.008024957 -0.052556552 0.012224272 2.57987E-16 -0.04013179 0.9991944 30 30 30 255
-0.027038343 -0.047084294 0.012444061 2.57987E-16 -0.04013179 0.9991944 30 30 30 255
0.007731038 -0.05417273 0.015810639 0.051716786 0.29731748 -0.95337695 30 30 30 255
-0.023805507 -0.025700944 0.022979034 0.051716786 0.29731748 -0.95337695 30 30 30 255
0.012041847 -0.03285818 0.02269157 0.051716786 0.29731748 -0.95337695 30 30 30 255
-0.028116323 -0.047015462 0.016098104 0.051716786 0.29731748 -0.95337695 30 30 30 255
0.012041847 -0.03285818 0.02269157 7.333979E-05 0.040113345 -0.99919516 30 30 30 255
-0.008913601 0.048765734 0.025969924 7.333979E-05 0.040113345 -0.99919516 30 30 30 255
0.026933756 0.0416085 0.02568246 7.333979E-05 0.040113345 -0.99919516 30 30 30 255
-0.015593556 0.015359113 0.02461987 7.333979E-05 0.040113345 -0.99919516 30 30 30 255
-0.023805507 -0.025700944 0.022979034 7.333979E-05 0.040113345 -0.99919516 30 30 30 255
-0.03218827 -0.045672428 0.0029336014 0.56476074 0.0047382163 0.825241 30 30 30 255
-0.028116323 -0.046374958 0.00015096157 0.56476074 0.0047382163 0.825241 30 30 30 255
-0.02787746 -0.023958027 -0.0001412147 0.56476074 0.0047382163 0.825241 30 30 30 255
-0.03218827 -0.04609203 0.01338077 0.7612086 -0.0076957294 -0.64846146 30 30 30 255
-0.02787746 -0.024694169 0.018187152 0.7612086 -0.0076957294 -0.64846146 30 30 30 255
-0.023805507 -0.025700944 0.022979034 0.7612086 -0.0076957294 -0.64846146 30 30 30 255
-0.008913601 0.048765734 0.025969924 0.7432869 -0.122229405 -0.65771145 30 30 30 255
-0.02787746 -0.024694169 0.018187152 0.7432869 -0.122229405 -0.65771145 30 30 30 255
-0.01298555 0.04977251 0.021178043 0.7432869 -0.122229405 -0.65771145 30 30 30 255
-0.015593556 0.015359113 0.02461987 0.7432869 -0.122229405 -0.65771145 30 30 30 255
-0.023805507 -0.025700944 0.022979034 0.7432869 -0.122229405 -0.65771145 30 30 30 255
-0.027038343 -0.04673662 0.0037877136 -0.54175216 0.14161688 -0.8285224 30 30 30 255
-0.026455237 -0.035687268 0.0052950685 -0.54175216 0.14161688 -0.8285224 30 30 30 255
-0.024882942 -0.03595854 0.004220606 -0.54175216 0.14161688 -0.8285224 30 30 30 255
-0.028610658 -0.046465322 0.0048621777 -0.54175216 0.14161688 -0.8285224 30 30 30 255
-0.03218827 -0.04609203 0.01338077 0.5717607 0.14504565 -0.807497 30 30 30 255
-0.023805507 -0.025700944 0.022979034 0.5717607 0.14504565 -0.807497 30 30 30 255
-0.028116323 -0.047015462 0.016098104 0.5717607 0.14504565 -0.807497 30 30 30 255
-0.026455237 -0.035949644 0.011827708 -0.54175216 0.07471412 0.83721113 30 30 30 255
-0.027038343 -0.047084294 0.012444061 -0.54175216 0.07471412 0.83721113 30 30 30 255
-0.024882942 -0.036306214 0.012876953 -0.54175216 0.07471412 0.83721113 30 30 30 255
-0.028610658 -0.0467277 0.011394816 -0.54175216 0.07471412 0.83721113 30 30 30 255
-0.026455237 -0.035687268 0.0052950685 -0.98061466 0.19578823 0.007863667 30 30 30 255
-0.028610658 -0.0467277 0.011394816 -0.98061466 0.19578823 0.007863667 30 30 30 255
-0.026455237 -0.035949644 0.011827708 -0.98061466 0.19578823 0.007863667 30 30 30 255
-0.028610658 -0.046465322 0.0048621777 -0.98061466 0.19578823 0.007863667 30 30 30 255
0.007925201 -0.04285665 0.012613861 0.19594619 0.9798246 0.039353818 30 30 30 255
-0.026455237 -0.035949644 0.011827708 0.19594619 0.9798246 0.039353818 30 30 30 255
-0.024882942 -0.036306214 0.012876953 0.19594619 0.9798246 0.039353818 30 30 30 255
0.007925201 -0.042508975 0.0039575133 0.19594619 0.9798246 0.039353818 30 30 30 255
-0.026455237 -0.035687268 0.0052950685 0.19594619 0.9798246 0.039353818 30 30 30 255
-0.024882942 -0.03595854 0.004220606 0.19594619 0.9798246 0.039353818 30 30 30 255
0.006063714 -0.052165 0.012239998 0.98061466 -0.19578823 -0.007863667 30 30 30 255
0.007925201 -0.042508975 0.0039575133 0.98061466 -0.19578823 -0.007863667 30 30 30 255
0.007925201 -0.04285665 0.012613861 0.98061466 -0.19578823 -0.007863667 30 30 30 255
0.006063714 -0.051817328 0.0035836515 0.98061466 -0.19578823 -0.007863667 30 30 30 255
3 0 1 2
3 1 0 3
3 3 0 4
3 3 4 5
3 5 4 6
3 6 4 7
3 1 8 2
3 8 1 9
3 8 9 10
3 10 9 11
3 10 11 6
3 10 6 7
3 12 13 14
3 13 12 15
3 16 17 18
3 17 16 19
3 20 21 22
3 21 20 23
3 24 25 26
3 25 24 27
3 28 29 30
3 29 28 31
3 32 33 34
3 33 32 35
3 36 37 38
3 37 36 39
3 39 36 40
3 39 40 41
3 41 40 42
3 42 40 43
3 37 44 38
3 44 37 45
3 44 45 46
3 46 45 47
3 46 47 42
3 46 42 43
3 48 49 50
3 49 48 51
3 49 51 52
3 52 51 53
3 54 55 56
3 55 54 57
3 58 59 60
3 59 58 61
3 62 63 64
3 63 62 65
3 66 67 68
3 67 66 69
3 70 71 72
3 71 70 73
3 74 75 76
3 75 74 77
3 78 79 80
3 79 78 81
3 82 83 84
3 83 82 85
3 86 87 88
3 87 86 89
3 90 91 92
3 91 90 93
3 94 95 96
3 95 94 97
3 98 99 100
3 99 98 101
3 102 103 104
3 103 102 105
3 103 105 106
3 106 105 107
3 108 109 110
3 109 108 111
3 112 113 114
3 113 112 115
3 116 117 118
3 117 116 119
3 120 121 122
3 121 120 123
3 124 125 126
3 125 124 127
3 128 129 130
3 129 128 131
3 132 133 134
3 133 132 135
3 136 137 138
3 137 136 139
3 140 141 142
3 141 140 143
3 144 145 146
3 145 144 147
3 148 149 150
3 149 148 151
3 152 153 154
3 153 152 155
3 156 157 158
3 157 156 159
3 160 161 162
3 161 160 163
3 164 165 166
3 165 164 167
3 168 169 170
3 169 168 171
3 172 173 174
3 173 172 175
3 176 177 178
3 177 176 179
3 180 181 182
3 181 180 183
3 183 180 184
3 183 184 185
3 185 184 186
3 186 184 187
3 181 188 182
3 188 181 189
3 188 189 190
3 190 189 191
3 190 191 186
3 190 186 187
3 192 193 194
3 193 192 195
3 196 197 198
3 197 196 199
3 200 201 202
3 201 200 203
3 204 205 206
3 205 204 207
3 208 209 210
3 209 208 211
3 212 213 214
3 213 212 215
3 216 217 218
3 217 216 219
3 220 221 222
3 221 220 223
3 224 225 226
3 225 224 227
3 228 229 230
3 229 228 231
3 232 233 234
3 233 232 235
3 236 237 238
3 237 236 239
3 240 241 242
3 241 240 243
3 244 245 246
3 245 244 247
3 248 249 250
3 249 248 251
3 251 248 252
3 252 248 253
3 252 253 254
3 249 255 256
3 255 249 251
3 256 255 257
3 258 259 260
3 259 258 261
3 262 263 264
3 263 262 265
3 265 262 266
3 265 266 267
3 262 268 269
3 268 262 264
3 268 264 270
3 268 270 271
3 271 270 272
3 273 274 275
3 274 273 276
3 277 278 279
3 278 277 280
3 281 282 283
3 282 281 284
3 285 286 287
3 286 285 288
3 288 285 289
3 290 291 292
3 291 290 293
3 294 295 296
3 295 294 297
3 298 299 300
3 299 298 301
3 302 303 304
3 303 302 305
3 303 305 306
3 307 308 309
3 308 307 310
3 308 310 311
3 311 310 312
3 312 310 313
3 309 314 315
3 314 309 308
3 315 314 316
3 315 316 317
3 317 316 318
3 317 318 312
3 317 312 313
3 319 320 321
3 320 319 322
3 322 319 323
3 324 325 326
3 325 324 327
3 327 324 328
3 327 328 329
3 330 331 332
3 331 330 333
3 334 335 336
3 335 334 337
3 338 339 340
3 339 338 341
3 342 343 344
3 343 342 345
3 346 347 348
3 347 346 349
3 350 351 352
3 351 350 353
3 354 355 356
3 355 354 357
3 358 359 360
3 359 358 356
3 359 356 361
3 361 356 362
3 362 356 355
3 361 362 363
3 364 365 366
3 367 368 369
3 368 367 370
3 370 367 371
3 370 371 372
3 373 374 375
3 374 373 376
3 376 373 377
3 376 378 379
3 378 376 377
3 379 378 380
3 379 380 381
3 379 381 382
3 379 382 383
3 379 383 384
3 385 386 387
3 386 385 388
3 386 388 389
3 386 389 390
3 390 391 386
3 392 393 394
3 393 392 395
3 396 397 398
3 397 399 400
3 399 397 401
3 401 397 396
3 402 403 404
3 403 402 405
3 406 407 408
3 407 406 409
3 409 406 410
3 411 412 413
3 414 415 416
3 417 418 419
3 418 417 420
3 418 420 421
3 422 423 424
3 423 422 425
3 426 427 428
3 429 430 431
3 430 429 432
3 433 434 435
3 434 433 436
3 437 438 439
3 438 437 440
3 438 440 441
3 441 440 442
3 443 444 445
3 444 443 446

