ply
format ascii 1.0
commentY29udmVydGVyIGJ5IENvZGVMZW9wYXJk
comment Original mesh name: 'C:\Program Files (x86)\Steam\steamapps\common\Stormworks\rom\meshes\door_oil_rig.mesh'
comment SubMesh index: 0
comment SubMesh name: 'ID10'
comment Shader: Opaque (0)
element vertex 112
property float x
property float y
property float z
property float nx
property float ny
property float nz
property uchar red
property uchar green
property uchar blue
property uchar alpha
element face 88
property list uchar ushort vertex_index
end_header
-0.7627734 2.7793594E-14 1.2670634 -3.735103E-14 -1 -0 255 153 49 255
-0.88877344 3.2486014E-14 1.2670634 -3.735103E-14 -1 -0 255 153 49 255
-0.7627734 2.7793594E-14 0.95306325 -3.735103E-14 -1 -0 255 153 49 255
-0.88877344 3.2486014E-14 0.95306325 -3.735103E-14 -1 -0 255 153 49 255
-0.92849237 3.3929822E-14 0.1684923 3.66079E-14 1 -0 141 141 141 255
-0.011507667 3.6095557E-16 0.011507667 3.66079E-14 1 -0 141 141 141 255
-0.92849237 3.3929822E-14 0.011507667 3.66079E-14 1 -0 141 141 141 255
-0.011507667 3.6095557E-16 0.1684923 3.66079E-14 1 -0 141 141 141 255
-0.011507667 3.6095557E-16 0.1684923 -3.66079E-14 -1 -0 255 153 49 255
-0.92849237 3.3929822E-14 0.1684923 -3.66079E-14 -1 -0 255 153 49 255
-0.011507667 3.6095557E-16 0.011507667 -3.66079E-14 -1 -0 255 153 49 255
-0.92849237 3.3929822E-14 0.011507667 -3.66079E-14 -1 -0 255 153 49 255
-0.7627734 0.076 1.2670634 -3.735103E-14 -1 -0 113 113 113 255
-0.88877344 0.076 0.95306325 -3.735103E-14 -1 -0 113 113 113 255
-0.7627734 0.076 0.95306325 -3.735103E-14 -1 -0 113 113 113 255
-0.88877344 0.076 1.2670634 -3.735103E-14 -1 -0 113 113 113 255
-0.88877344 0.076 1.2670634 3.735103E-14 1 -0 255 153 49 255
-0.7627734 0.076 1.2670634 3.735103E-14 1 -0 255 153 49 255
-0.88877344 0.076 0.95306325 3.735103E-14 1 -0 255 153 49 255
-0.7627734 0.076 0.95306325 3.735103E-14 1 -0 255 153 49 255
-0.011999998 0.076 0.15599999 -3.664725E-14 -1 -0 141 141 141 255
-0.9279999 0.076 0.011999998 -3.664725E-14 -1 -0 141 141 141 255
-0.011999998 0.076 0.011999998 -3.664725E-14 -1 -0 141 141 141 255
-0.9279999 0.076 0.15599999 -3.664725E-14 -1 -0 141 141 141 255
-0.9279999 0.076 0.15599999 3.664725E-14 1 -0 255 153 49 255
-0.011999998 0.076 0.15599999 3.664725E-14 1 -0 255 153 49 255
-0.9279999 0.076 0.011999998 3.664725E-14 1 -0 255 153 49 255
-0.011999998 0.076 0.011999998 3.664725E-14 1 -0 255 153 49 255
-0.9399998 3.4290784E-14 0 3.647957E-14 1 2.8399318E-31 255 153 49 255
-0.92849237 3.3929822E-14 0.011507667 3.647957E-14 1 2.8399318E-31 255 153 49 255
-2.8876446E-15 0 0 3.647957E-14 1 2.8399318E-31 255 153 49 255
-0.9399998 3.4290784E-14 2.116 3.647957E-14 1 2.8399318E-31 255 153 49 255
-0.92849237 3.3929822E-14 0.1684923 3.647957E-14 1 2.8399318E-31 255 153 49 255
-0.88877344 3.2486014E-14 0.95306325 3.647957E-14 1 2.8399318E-31 255 153 49 255
-0.011507667 3.6095557E-16 0.1684923 3.647957E-14 1 2.8399318E-31 255 153 49 255
-0.88877344 3.2486014E-14 1.2670634 3.647957E-14 1 2.8399318E-31 255 153 49 255
-0.7627734 2.7793594E-14 1.2670634 3.647957E-14 1 2.8399318E-31 255 153 49 255
-0.011507667 3.6095557E-16 0.011507667 3.647957E-14 1 2.8399318E-31 255 153 49 255
-2.8876446E-15 0 2.116 3.647957E-14 1 2.8399318E-31 255 153 49 255
-0.7627734 2.7793594E-14 0.95306325 3.647957E-14 1 2.8399318E-31 255 153 49 255
-0.9399998 3.4290784E-14 2.116 -3.647957E-14 -1 -2.8399318E-31 255 153 49 255
-0.7627734 2.7793594E-14 1.2670634 -3.647957E-14 -1 -2.8399318E-31 255 153 49 255
-2.8876446E-15 0 2.116 -3.647957E-14 -1 -2.8399318E-31 255 153 49 255
-0.7627734 2.7793594E-14 0.95306325 -3.647957E-14 -1 -2.8399318E-31 255 153 49 255
-0.88877344 3.2486014E-14 0.95306325 -3.647957E-14 -1 -2.8399318E-31 255 153 49 255
-0.011507667 3.6095557E-16 0.1684923 -3.647957E-14 -1 -2.8399318E-31 255 153 49 255
-0.011507667 3.6095557E-16 0.011507667 -3.647957E-14 -1 -2.8399318E-31 255 153 49 255
-0.92849237 3.3929822E-14 0.011507667 -3.647957E-14 -1 -2.8399318E-31 255 153 49 255
-2.8876446E-15 0 0 -3.647957E-14 -1 -2.8399318E-31 255 153 49 255
-0.88877344 3.2486014E-14 1.2670634 -3.647957E-14 -1 -2.8399318E-31 255 153 49 255
-0.92849237 3.3929822E-14 0.1684923 -3.647957E-14 -1 -2.8399318E-31 255 153 49 255
-0.9399998 3.4290784E-14 0 -3.647957E-14 -1 -2.8399318E-31 255 153 49 255
-2.8876446E-15 0 2.116 0 -0 -1 255 153 49 255
-0.9399998 0.076 2.116 0 -0 -1 255 153 49 255
-0 0.076 2.116 0 -0 -1 255 153 49 255
-0.9399998 3.4290784E-14 2.116 0 -0 -1 255 153 49 255
-0.9399998 3.4290784E-14 2.116 0 -0 1 255 153 49 255
-2.8876446E-15 0 2.116 0 -0 1 255 153 49 255
-0.9399998 0.076 2.116 0 -0 1 255 153 49 255
-0 0.076 2.116 0 -0 1 255 153 49 255
-0 0.076 2.116 -1 3.644307E-14 -0 255 153 49 255
-2.8876446E-15 0 0 -1 3.644307E-14 -0 255 153 49 255
-2.8876446E-15 0 2.116 -1 3.644307E-14 -0 255 153 49 255
-0 0.076 0 -1 3.644307E-14 -0 255 153 49 255
-0 0.076 0 1 -3.644307E-14 -0 255 153 49 255
-0 0.076 2.116 1 -3.644307E-14 -0 255 153 49 255
-2.8876446E-15 0 0 1 -3.644307E-14 -0 255 153 49 255
-2.8876446E-15 0 2.116 1 -3.644307E-14 -0 255 153 49 255
-0.9399998 0.076 0 0 -0 1 255 153 49 255
-2.8876446E-15 0 0 0 -0 1 255 153 49 255
-0 0.076 0 0 -0 1 255 153 49 255
-0.9399998 3.4290784E-14 0 0 -0 1 255 153 49 255
-0.9399998 3.4290784E-14 0 0 -0 -1 255 153 49 255
-0.9399998 0.076 0 0 -0 -1 255 153 49 255
-2.8876446E-15 0 0 0 -0 -1 255 153 49 255
-0 0.076 0 0 -0 -1 255 153 49 255
-0.9399998 0.076 0 1 -3.644307E-14 -0 255 153 49 255
-0.9399998 3.4290784E-14 2.116 1 -3.644307E-14 -0 255 153 49 255
-0.9399998 3.4290784E-14 0 1 -3.644307E-14 -0 255 153 49 255
-0.9399998 0.076 2.116 1 -3.644307E-14 -0 255 153 49 255
-0.9399998 0.076 2.116 -1 3.644307E-14 -0 255 153 49 255
-0.9399998 0.076 0 -1 3.644307E-14 -0 255 153 49 255
-0.9399998 3.4290784E-14 2.116 -1 3.644307E-14 -0 255 153 49 255
-0.9399998 3.4290784E-14 0 -1 3.644307E-14 -0 255 153 49 255
-0 0.076 0 -3.647957E-14 -1 -3.8555129E-31 255 153 49 255
-0.011999998 0.076 0.011999998 -3.647957E-14 -1 -3.8555129E-31 255 153 49 255
-0.9399998 0.076 0 -3.647957E-14 -1 -3.8555129E-31 255 153 49 255
-0 0.076 2.116 -3.647957E-14 -1 -3.8555129E-31 255 153 49 255
-0.011999998 0.076 0.15599999 -3.647957E-14 -1 -3.8555129E-31 255 153 49 255
-0.9279999 0.076 0.15599999 -3.647957E-14 -1 -3.8555129E-31 255 153 49 255
-0.7627734 0.076 0.95306325 -3.647957E-14 -1 -3.8555129E-31 255 153 49 255
-0.7627734 0.076 1.2670634 -3.647957E-14 -1 -3.8555129E-31 255 153 49 255
-0.88877344 0.076 1.2670634 -3.647957E-14 -1 -3.8555129E-31 255 153 49 255
-0.9279999 0.076 0.011999998 -3.647957E-14 -1 -3.8555129E-31 255 153 49 255
-0.9399998 0.076 2.116 -3.647957E-14 -1 -3.8555129E-31 255 153 49 255
-0.88877344 0.076 0.95306325 -3.647957E-14 -1 -3.8555129E-31 255 153 49 255
-0 0.076 2.116 3.647957E-14 1 3.8555129E-31 255 153 49 255
-0.88877344 0.076 1.2670634 3.647957E-14 1 3.8555129E-31 255 153 49 255
-0.9399998 0.076 2.116 3.647957E-14 1 3.8555129E-31 255 153 49 255
-0.88877344 0.076 0.95306325 3.647957E-14 1 3.8555129E-31 255 153 49 255
-0.7627734 0.076 0.95306325 3.647957E-14 1 3.8555129E-31 255 153 49 255
-0.9279999 0.076 0.15599999 3.647957E-14 1 3.8555129E-31 255 153 49 255
-0.9279999 0.076 0.011999998 3.647957E-14 1 3.8555129E-31 255 153 49 255
-0.011999998 0.076 0.011999998 3.647957E-14 1 3.8555129E-31 255 153 49 255
-0.9399998 0.076 0 3.647957E-14 1 3.8555129E-31 255 153 49 255
-0.7627734 0.076 1.2670634 3.647957E-14 1 3.8555129E-31 255 153 49 255
-0.011999998 0.076 0.15599999 3.647957E-14 1 3.8555129E-31 255 153 49 255
-0 0.076 0 3.647957E-14 1 3.8555129E-31 255 153 49 255
-0.88877344 3.2486014E-14 1.2670634 3.735103E-14 1 -0 113 113 113 255
-0.7627734 2.7793594E-14 0.95306325 3.735103E-14 1 -0 113 113 113 255
-0.88877344 3.2486014E-14 0.95306325 3.735103E-14 1 -0 113 113 113 255
-0.7627734 2.7793594E-14 1.2670634 3.735103E-14 1 -0 113 113 113 255
3 0 1 2
3 3 2 1
3 4 5 6
3 5 4 7
3 8 9 10
3 11 10 9
3 12 13 14
3 13 12 15
3 16 17 18
3 19 18 17
3 20 21 22
3 21 20 23
3 24 25 26
3 27 26 25
3 28 29 30
3 29 28 31
3 29 31 32
3 32 31 33
3 32 33 34
3 33 31 35
3 35 31 36
3 30 37 38
3 37 30 29
3 38 37 34
3 38 34 39
3 39 34 33
3 38 39 36
3 38 36 31
3 40 41 42
3 41 43 42
3 44 45 43
3 43 45 42
3 45 46 42
3 47 48 46
3 42 46 48
3 41 40 49
3 49 40 44
3 45 44 50
3 44 40 50
3 50 40 47
3 40 51 47
3 48 47 51
3 52 53 54
3 53 52 55
3 56 57 58
3 59 58 57
3 60 61 62
3 61 60 63
3 64 65 66
3 67 66 65
3 68 69 70
3 69 68 71
3 72 73 74
3 75 74 73
3 76 77 78
3 77 76 79
3 80 81 82
3 83 82 81
3 84 85 86
3 85 84 87
3 85 87 88
3 88 87 89
3 89 87 90
3 90 87 91
3 91 87 92
3 86 93 94
3 93 86 85
3 94 93 89
3 94 89 95
3 95 89 90
3 94 95 92
3 94 92 87
3 96 97 98
3 97 99 98
3 100 101 99
3 99 101 98
3 101 102 98
3 103 104 102
3 98 102 104
3 97 96 105
3 105 96 100
3 100 96 101
3 101 96 106
3 106 96 103
3 96 107 103
3 104 103 107
3 108 109 110
3 109 108 111

