ply
format ascii 1.0
commentY29udmVydGVyIGJ5IENvZGVMZW9wYXJk
comment Original mesh name: 'C:\Program Files (x86)\Steam\steamapps\common\Stormworks\rom\meshes\door_sliding.mesh'
comment SubMesh index: 1
comment SubMesh name: 'ID22'
comment Shader: Transparent (1)
element vertex 108
property float x
property float y
property float z
property float nx
property float ny
property float nz
property uchar red
property uchar green
property uchar blue
property uchar alpha
element face 12
property list uchar ushort vertex_index
end_header
-1.0471292 -1.5599202E-08 0.22287078 7.896142E-16 -3.759955E-16 -1 255 255 255 255
-0.13287076 0.02999999 0.22287078 7.896142E-16 -3.759955E-16 -1 255 255 255 255
-0.13287076 -1.9793909E-09 0.22287078 7.896142E-16 -3.759955E-16 -1 255 255 255 255
-0.13287076 0.060000002 0.22287078 7.896142E-16 -3.759955E-16 -1 255 255 255 255
-1.0471292 0.05999998 0.22287078 7.896142E-16 -3.759955E-16 -1 255 255 255 255
-1.0471292 0.02999999 0.22287078 7.896142E-16 -3.759955E-16 -1 255 255 255 255
-1.0471292 0.02999999 0.96254927 -1 -1.48970996E-08 -9.759801E-16 255 255 255 255
-1.0471292 -1.5599202E-08 0.22287078 -1 -1.48970996E-08 -9.759801E-16 255 255 255 255
-1.0471292 -1.5599202E-08 0.96254927 -1 -1.48970996E-08 -9.759801E-16 255 255 255 255
-1.0471292 0.02999999 0.22287078 -1 -1.48970996E-08 -9.759801E-16 255 255 255 255
-1.0471292 0.05999998 0.96254927 -1 -1.489712E-08 4.2169617E-29 255 255 255 255
-1.0471292 0.05999998 0.22287078 -1 -1.489712E-08 4.2169617E-29 255 255 255 255
-0.13287076 0.060000002 0.22287078 1 1.489712E-08 -3.125503E-26 255 255 255 255
-0.13287076 0.02999999 0.96254927 1 1.489712E-08 -3.125503E-26 255 255 255 255
-0.13287076 0.02999999 0.22287078 1 1.489712E-08 -3.125503E-26 255 255 255 255
-0.13287076 0.060000002 0.96254927 1 1.489712E-08 -3.125503E-26 255 255 255 255
-0.13287076 -1.9793909E-09 0.96254927 1 1.48970996E-08 9.759801E-16 255 255 255 255
-0.13287076 -1.9793909E-09 0.22287078 1 1.48970996E-08 9.759801E-16 255 255 255 255
-0.13287076 0.02999999 0.96254927 -1.1844211E-15 -1.203186E-14 1 255 255 255 255
-1.0471292 -1.5599202E-08 0.96254927 -1.1844211E-15 -1.203186E-14 1 255 255 255 255
-0.13287076 -1.9793909E-09 0.96254927 -1.1844211E-15 -1.203186E-14 1 255 255 255 255
-1.0471292 0.02999999 0.96254927 -1.1844211E-15 -1.203186E-14 1 255 255 255 255
-0.13287076 0.060000002 0.96254927 -1.1844211E-15 1.203186E-14 1 255 255 255 255
-1.0471292 0.05999998 0.96254927 -1.1844211E-15 1.203186E-14 1 255 255 255 255
-1.1799998 -1.757859E-08 2.1999996 9.176841E-16 -6.015928E-15 -1 255 255 255 255
-8.938287E-10 0.060000002 2.1999996 9.176841E-16 -6.015928E-15 -1 255 255 255 255
-1.4438227E-15 0 2.1999996 9.176841E-16 -6.015928E-15 -1 255 255 255 255
-1.1799998 0.05999998 2.1999996 9.176841E-16 -6.015928E-15 -1 255 255 255 255
-1.1799998 -1.757859E-08 -9.023892E-16 -1.4897109E-08 1 -9.9343155E-24 255 255 255 255
-1.0471292 -1.5599202E-08 0.22287078 -1.4897109E-08 1 -9.9343155E-24 255 255 255 255
-0 0 0 -1.4897109E-08 1 -9.9343155E-24 255 255 255 255
-1.1799998 -1.757859E-08 2.1999996 -1.4897109E-08 1 -9.9343155E-24 255 255 255 255
-1.0471292 -1.5599202E-08 0.96254927 -1.4897109E-08 1 -9.9343155E-24 255 255 255 255
-1.0471292 -1.5599202E-08 1.1 -1.4897109E-08 1 -9.9343155E-24 255 255 255 255
-0.13287076 -1.9793909E-09 0.96254927 -1.4897109E-08 1 -9.9343155E-24 255 255 255 255
-1.0471292 -1.5599202E-08 2.110129 -1.4897109E-08 1 -9.9343155E-24 255 255 255 255
-0.13287076 -1.9793909E-09 2.110129 -1.4897109E-08 1 -9.9343155E-24 255 255 255 255
-0.13287076 -1.9793909E-09 0.22287078 -1.4897109E-08 1 -9.9343155E-24 255 255 255 255
-1.4438227E-15 0 2.1999996 -1.4897109E-08 1 -9.9343155E-24 255 255 255 255
-0.13287076 -1.9793909E-09 1.1 -1.4897109E-08 1 -9.9343155E-24 255 255 255 255
-1.1799998 0.05999998 -9.023892E-16 1 1.489712E-08 6.562831E-16 255 255 255 255
-1.1799998 -1.757859E-08 2.1999996 1 1.489712E-08 6.562831E-16 255 255 255 255
-1.1799998 -1.757859E-08 -9.023892E-16 1 1.489712E-08 6.562831E-16 255 255 255 255
-1.1799998 0.05999998 2.1999996 1 1.489712E-08 6.562831E-16 255 255 255 255
-8.93826E-10 0.060000002 0 1.4897109E-08 -1 1.490065E-23 255 255 255 255
-0.13287076 0.060000002 0.22287078 1.4897109E-08 -1 1.490065E-23 255 255 255 255
-1.0471292 0.05999998 0.22287078 1.4897109E-08 -1 1.490065E-23 255 255 255 255
-8.938287E-10 0.060000002 2.1999996 1.4897109E-08 -1 1.490065E-23 255 255 255 255
-0.13287076 0.060000002 0.96254927 1.4897109E-08 -1 1.490065E-23 255 255 255 255
-0.13287076 0.060000002 1.1 1.4897109E-08 -1 1.490065E-23 255 255 255 255
-1.0471292 0.05999998 1.1 1.4897109E-08 -1 1.490065E-23 255 255 255 255
-0.13287076 0.060000002 2.110129 1.4897109E-08 -1 1.490065E-23 255 255 255 255
-1.1799998 0.05999998 2.1999996 1.4897109E-08 -1 1.490065E-23 255 255 255 255
-1.1799998 0.05999998 -9.023892E-16 1.4897109E-08 -1 1.490065E-23 255 255 255 255
-1.0471292 0.05999998 0.96254927 1.4897109E-08 -1 1.490065E-23 255 255 255 255
-1.0471292 0.05999998 2.110129 1.4897109E-08 -1 1.490065E-23 255 255 255 255
-8.938287E-10 0.060000002 2.1999996 -1 -1.4897109E-08 -9.844247E-16 255 255 255 255
-0 0 0 -1 -1.4897109E-08 -9.844247E-16 255 255 255 255
-1.4438227E-15 0 2.1999996 -1 -1.4897109E-08 -9.844247E-16 255 255 255 255
-8.93826E-10 0.060000002 0 -1 -1.4897109E-08 -9.844247E-16 255 255 255 255
-8.93826E-10 0.060000002 0 -7.647367E-16 -1.139237E-23 1 255 255 255 255
-1.1799998 -1.757859E-08 -9.023892E-16 -7.647367E-16 -1.139237E-23 1 255 255 255 255
-0 0 0 -7.647367E-16 -1.139237E-23 1 255 255 255 255
-1.1799998 0.05999998 -9.023892E-16 -7.647367E-16 -1.139237E-23 1 255 255 255 255
-1.0471292 0.05999998 2.110129 -1 -1.489712E-08 -1.429345E-15 255 255 255 255
-1.0471292 0.02999999 1.1 -1 -1.489712E-08 -1.429345E-15 255 255 255 255
-1.0471292 0.02999999 2.110129 -1 -1.489712E-08 -1.429345E-15 255 255 255 255
-1.0471292 0.05999998 1.1 -1 -1.489712E-08 -1.429345E-15 255 255 255 255
-1.0471292 0.02999999 1.1 1.1844211E-15 -1.203186E-14 -1 255 255 255 255
-0.13287076 0.060000002 1.1 1.1844211E-15 -1.203186E-14 -1 255 255 255 255
-0.13287076 0.02999999 1.1 1.1844211E-15 -1.203186E-14 -1 255 255 255 255
-1.0471292 0.05999998 1.1 1.1844211E-15 -1.203186E-14 -1 255 255 255 255
-1.0471292 -1.5599202E-08 1.1 -1 -1.48970996E-08 -7.1467246E-16 255 255 255 255
-1.0471292 -1.5599202E-08 2.110129 -1 -1.48970996E-08 -7.1467246E-16 255 255 255 255
-0.13287076 0.060000002 2.110129 -7.896142E-16 -1.176298E-23 1 255 255 255 255
-1.0471292 0.02999999 2.110129 -7.896142E-16 -1.176298E-23 1 255 255 255 255
-0.13287076 0.02999999 2.110129 -7.896142E-16 -1.176298E-23 1 255 255 255 255
-1.0471292 0.05999998 2.110129 -7.896142E-16 -1.176298E-23 1 255 255 255 255
-0.13287076 0.060000002 1.1 1 1.489712E-08 1.429345E-15 255 255 255 255
-0.13287076 0.02999999 2.110129 1 1.489712E-08 1.429345E-15 255 255 255 255
-0.13287076 0.02999999 1.1 1 1.489712E-08 1.429345E-15 255 255 255 255
-0.13287076 0.060000002 2.110129 1 1.489712E-08 1.429345E-15 255 255 255 255
-1.0471292 -1.5599202E-08 1.1 1.1844211E-15 1.203186E-14 -1 255 255 255 255
-0.13287076 -1.9793909E-09 1.1 1.1844211E-15 1.203186E-14 -1 255 255 255 255
-1.0471292 -1.5599202E-08 2.110129 -7.896142E-16 -1.176298E-23 1 255 255 255 255
-0.13287076 -1.9793909E-09 2.110129 -7.896142E-16 -1.176298E-23 1 255 255 255 255
-0.13287076 -1.9793909E-09 2.110129 1 1.48970996E-08 7.1467246E-16 255 255 255 255
-0.13287076 -1.9793909E-09 1.1 1 1.48970996E-08 7.1467246E-16 255 255 255 255
-0.13287076 0.02999999 0.09287078 1.4897109E-08 -1 3.1563932E-25 160 160 199 128
-1.0471292 0.02999999 0.22287078 1.4897109E-08 -1 3.1563932E-25 160 160 199 128
-1.0471292 0.02999999 0.09287078 1.4897109E-08 -1 3.1563932E-25 160 160 199 128
-0.13287076 0.02999999 0.22287078 1.4897109E-08 -1 3.1563932E-25 160 160 199 128
-1.0471292 0.02999999 0.96254927 1.4897109E-08 -1 3.1563932E-25 160 160 199 128
-0.13287076 0.02999999 0.96254927 1.4897109E-08 -1 3.1563932E-25 160 160 199 128
-0.13287076 0.02999999 0.96254927 -1.4897109E-08 1 -3.1563932E-25 160 160 199 128
-0.13287076 0.02999999 0.22287078 -1.4897109E-08 1 -3.1563932E-25 160 160 199 128
-1.0471292 0.02999999 0.96254927 -1.4897109E-08 1 -3.1563932E-25 160 160 199 128
-1.0471292 0.02999999 0.22287078 -1.4897109E-08 1 -3.1563932E-25 160 160 199 128
-0.13287076 0.02999999 0.09287078 -1.4897109E-08 1 -3.1563932E-25 160 160 199 128
-1.0471292 0.02999999 0.09287078 -1.4897109E-08 1 -3.1563932E-25 160 160 199 128
-0.13287076 0.02999999 1.1 1.4897109E-08 -1 2.142021E-23 160 160 199 128
-1.0471292 0.02999999 2.110129 1.4897109E-08 -1 2.142021E-23 160 160 199 128
-1.0471292 0.02999999 1.1 1.4897109E-08 -1 2.142021E-23 160 160 199 128
-0.13287076 0.02999999 2.110129 1.4897109E-08 -1 2.142021E-23 160 160 199 128
-0.13287076 0.02999999 2.110129 -1.4897109E-08 1 -2.142021E-23 160 160 199 128
-0.13287076 0.02999999 1.1 -1.4897109E-08 1 -2.142021E-23 160 160 199 128
-1.0471292 0.02999999 2.110129 -1.4897109E-08 1 -2.142021E-23 160 160 199 128
-1.0471292 0.02999999 1.1 -1.4897109E-08 1 -2.142021E-23 160 160 199 128
3 88 89 90
3 89 88 91
3 89 91 92
3 92 91 93
3 94 95 96
3 96 95 97
3 95 98 97
3 99 97 98
3 100 101 102
3 101 100 103
3 104 105 106
3 107 106 105

