ply
format ascii 1.0
commentY29udmVydGVyIGJ5IENvZGVMZW9wYXJk
comment Original mesh name: 'C:\Program Files (x86)\Steam\steamapps\common\Stormworks\rom\meshes\arid_mainland_assets\door_gas_station.mesh'
comment SubMesh index: 1
comment SubMesh name: 'ID61'
comment Shader: Opaque (0)
element vertex 292
property float x
property float y
property float z
property float nx
property float ny
property float nz
property uchar red
property uchar green
property uchar blue
property uchar alpha
element face 142
property list uchar ushort vertex_index
end_header
-0.54947406 0.030000012 1.6920927 0 -1 -0 160 160 199 128
-0.5970531 0.030000012 1.6295176 0 -1 -0 160 160 199 128
-0.53722674 0.030000012 1.6850214 0 -1 -0 160 160 199 128
-0.5836902 0.030000012 1.6239136 0 -1 -0 160 160 199 128
-0.669545 0.030000012 1.6599197 0 -1 -0 160 160 199 128
-0.67661583 0.030000012 1.6476723 0 -1 -0 160 160 199 128
-0.6058235 0.030000012 1.617983 0 -1 -0 160 160 199 128
-0.5924608 0.030000012 1.6123786 0 -1 -0 160 160 199 128
-0.51289785 0.030000012 1.5942243 0 -1 -0 160 160 199 128
-0.5199689 0.030000012 1.5819769 0 -1 -0 160 160 199 128
-0.65228695 0.030000012 1.5568751 0 -1 -0 160 160 199 128
-0.64003956 0.030000012 1.549804 0 -1 -0 160 160 199 128
-0.6782785 0.030000012 1.5005522 0 -1 -0 160 160 199 128
-0.71707475 0.030000012 1.4904526 0 -1 -0 160 160 199 128
-0.6203 0.030000012 1.515645 0 -1 -0 160 160 199 128
-0.5851977 0.030000012 1.4800386 0 -1 -0 160 160 199 128
-0.5500954 0.030000012 1.444432 0 -1 -0 160 160 199 128
-0.74364465 0.030000012 1.3940469 0 -1 -0 160 160 199 128
-0.5766653 0.030000012 1.3480265 0 -1 -0 160 160 199 128
-0.67344004 0.030000012 1.3228339 0 -1 -0 160 160 199 128
-0.13287076 0.030000012 1.1 1.4897109E-08 -1 2.142021E-23 160 160 199 128
-0.26160195 0.030000012 1.3523262 1.4897109E-08 -1 2.142021E-23 160 160 199 128
-0.7764404 0.030000012 1.2143757 1.4897109E-08 -1 2.142021E-23 160 160 199 128
-0.13287076 0.030000012 2.110129 1.4897109E-08 -1 2.142021E-23 160 160 199 128
-0.43863413 0.030000012 2.0130196 1.4897109E-08 -1 2.142021E-23 160 160 199 128
-1.0471292 0.02999999 2.110129 1.4897109E-08 -1 2.142021E-23 160 160 199 128
-1.0471292 0.02999999 1.1 1.4897109E-08 -1 2.142021E-23 160 160 199 128
-0.9534726 0.030000012 1.8750688 1.4897109E-08 -1 2.142021E-23 160 160 199 128
-0.43863413 0.030000012 2.0130196 -1.4897109E-08 1 -2.142021E-23 160 160 199 128
-0.9534726 0.030000012 1.8750688 -1.4897109E-08 1 -2.142021E-23 160 160 199 128
-1.0471292 0.02999999 2.110129 -1.4897109E-08 1 -2.142021E-23 160 160 199 128
-0.7764404 0.030000012 1.2143757 -1.4897109E-08 1 -2.142021E-23 160 160 199 128
-0.13287076 0.030000012 1.1 -1.4897109E-08 1 -2.142021E-23 160 160 199 128
-1.0471292 0.02999999 1.1 -1.4897109E-08 1 -2.142021E-23 160 160 199 128
-0.13287076 0.030000012 2.110129 -1.4897109E-08 1 -2.142021E-23 160 160 199 128
-0.26160195 0.030000012 1.3523262 -1.4897109E-08 1 -2.142021E-23 160 160 199 128
-0.13287076 0.030000012 0.09287078 1.4897109E-08 -1 3.1563932E-25 160 160 199 128
-1.0471292 0.02999999 0.22287078 1.4897109E-08 -1 3.1563932E-25 160 160 199 128
-1.0471292 0.02999999 0.09287078 1.4897109E-08 -1 3.1563932E-25 160 160 199 128
-0.13287076 0.030000012 0.22287078 1.4897109E-08 -1 3.1563932E-25 160 160 199 128
-1.0471292 0.02999999 0.96254927 1.4897109E-08 -1 3.1563932E-25 160 160 199 128
-0.13287076 0.030000012 0.96254927 1.4897109E-08 -1 3.1563932E-25 160 160 199 128
-0.13287076 0.030000012 0.96254927 -1.4897109E-08 1 -3.1563932E-25 160 160 199 128
-0.13287076 0.030000012 0.22287078 -1.4897109E-08 1 -3.1563932E-25 160 160 199 128
-1.0471292 0.02999999 0.96254927 -1.4897109E-08 1 -3.1563932E-25 160 160 199 128
-1.0471292 0.02999999 0.22287078 -1.4897109E-08 1 -3.1563932E-25 160 160 199 128
-0.13287076 0.030000012 0.09287078 -1.4897109E-08 1 -3.1563932E-25 160 160 199 128
-1.0471292 0.02999999 0.09287078 -1.4897109E-08 1 -3.1563932E-25 160 160 199 128
-0.9534726 0.034000006 1.8750688 -0.9659258 -0 -0.258819 160 160 199 128
-0.7764404 0.034000006 1.2143757 -0.9659258 -0 -0.258819 160 160 199 128
-0.9534726 0.030000012 1.8750688 -0.9659258 -0 -0.258819 160 160 199 128
-0.7764404 0.030000012 1.2143757 -0.9659258 -0 -0.258819 160 160 199 128
-0.43863413 0.034000006 2.0130196 0 1 -0 160 160 199 128
-0.26160195 0.034000006 1.3523262 0 1 -0 160 160 199 128
-0.9534726 0.034000006 1.8750688 0 1 -0 160 160 199 128
-0.7764404 0.034000006 1.2143757 0 1 -0 160 160 199 128
-0.9534726 0.034000006 1.8750688 -0.258819 -0 0.9659258 160 160 199 128
-0.9534726 0.030000012 1.8750688 -0.258819 -0 0.9659258 160 160 199 128
-0.43863413 0.034000006 2.0130196 -0.258819 -0 0.9659258 160 160 199 128
-0.43863413 0.030000012 2.0130196 -0.258819 -0 0.9659258 160 160 199 128
-0.59256846 0.030000012 1.8083984 0 -1 -0 160 160 199 128
-0.6782785 0.030000012 1.8165529 0 -1 -0 160 160 199 128
-0.62996465 0.030000012 1.7978357 0 -1 -0 160 160 199 128
-0.5982766 0.030000012 1.8286079 0 -1 -0 160 160 199 128
-0.26160195 0.030000012 1.3523262 0 -1 -0 160 160 199 128
-0.67344004 0.030000012 1.3228339 0 -1 -0 160 160 199 128
-0.7764404 0.030000012 1.2143757 0 -1 -0 160 160 199 128
-0.5766653 0.030000012 1.3480265 0 -1 -0 160 160 199 128
-0.5500954 0.030000012 1.444432 0 -1 -0 160 160 199 128
-0.45431837 0.030000012 1.5170063 0 -1 -0 160 160 199 128
-0.44741315 0.030000012 1.5293478 0 -1 -0 160 160 199 128
-0.43863413 0.030000012 2.0130196 0 -1 -0 160 160 199 128
-0.5851977 0.030000012 1.4800386 0 -1 -0 160 160 199 128
-0.531134 0.030000012 1.8257508 0 -1 -0 160 160 199 128
-0.5694063 0.030000012 1.8367622 0 -1 -0 160 160 199 128
-0.9534726 0.030000012 1.8750688 0 -1 -0 160 160 199 128
-0.74364465 0.030000012 1.3940469 0 -1 -0 160 160 199 128
-0.71707475 0.030000012 1.4904526 0 -1 -0 160 160 199 128
-0.6782785 0.030000012 1.5005522 0 -1 -0 160 160 199 128
-0.75247395 0.030000012 1.7632325 0 -1 -0 160 160 199 128
-0.756464 0.030000012 1.7953873 0 -1 -0 160 160 199 128
-0.5636981 0.030000012 1.8165529 0 -1 -0 160 160 199 128
-0.7764404 0.030000012 1.2143757 0.258819 -0 -0.9659258 160 160 199 128
-0.7764404 0.034000006 1.2143757 0.258819 -0 -0.9659258 160 160 199 128
-0.26160195 0.030000012 1.3523262 0.258819 -0 -0.9659258 160 160 199 128
-0.26160195 0.034000006 1.3523262 0.258819 -0 -0.9659258 160 160 199 128
-0.26160195 0.034000006 1.3523262 0.9659258 -0 0.258819 160 160 199 128
-0.43863413 0.034000006 2.0130196 0.9659258 -0 0.258819 160 160 199 128
-0.26160195 0.030000012 1.3523262 0.9659258 -0 0.258819 160 160 199 128
-0.43863413 0.030000012 2.0130196 0.9659258 -0 0.258819 160 160 199 128
-0.6782785 0.030000012 1.8165529 0 -1 -0 160 160 199 128
-0.756464 0.030000012 1.7953873 0 -1 -0 160 160 199 128
-0.62996465 0.030000012 1.7978357 0 -1 -0 160 160 199 128
-0.75247395 0.030000012 1.7632325 0 -1 -0 160 160 199 128
-0.6203 0.030000012 1.515645 0 -1 -0 160 160 199 128
-0.5851977 0.030000012 1.4800386 0 -1 -0 160 160 199 128
-0.45431837 0.030000012 1.5170063 0 -1 -0 160 160 199 128
-0.669545 0.030000012 1.6599197 0 -1 -0 160 160 199 128
-0.5970531 0.030000012 1.6295176 0 -1 -0 160 160 199 128
-0.54947406 0.030000012 1.6920927 0 -1 -0 160 160 199 128
-0.59256846 0.030000012 1.8083984 0 -1 -0 160 160 199 128
-0.5636981 0.030000012 1.8165529 0 -1 -0 160 160 199 128
-0.531134 0.030000012 1.8257508 0 -1 -0 160 160 199 128
-0.53722674 0.030000012 1.6850214 0 -1 -0 160 160 199 128
-0.5836902 0.030000012 1.6239136 0 -1 -0 160 160 199 128
-0.51289785 0.030000012 1.5942243 0 -1 -0 160 160 199 128
-0.64003956 0.030000012 1.549804 0 -1 -0 160 160 199 128
-0.44741315 0.030000012 1.5293478 0 -1 -0 160 160 199 128
-0.5199689 0.030000012 1.5819769 0 -1 -0 160 160 199 128
-0.67661583 0.030000012 1.6476723 0 -1 -0 160 160 199 128
-0.6058235 0.030000012 1.617983 0 -1 -0 160 160 199 128
-0.65228695 0.030000012 1.5568751 0 -1 -0 160 160 199 128
-0.6782785 0.030000012 1.5005522 0 -1 -0 160 160 199 128
-0.5924608 0.030000012 1.6123786 0 -1 -0 160 160 199 128
-0.5694063 0.030000012 1.8367622 0 -1 -0 160 160 199 128
-0.5982766 0.030000012 1.8286079 0 -1 -0 160 160 199 128
-0.74364465 0.030000012 1.3940469 0 1 -0 177 33 33 255
-0.5766653 0.030000012 1.3480265 0 1 -0 177 33 33 255
-0.67344004 0.030000012 1.3228339 0 1 -0 177 33 33 255
-0.5500954 0.030000012 1.444432 0 1 -0 177 33 33 255
-0.71707475 0.030000012 1.4904526 0 1 -0 177 33 33 255
-0.5851977 0.030000012 1.4800386 0 1 -0 177 33 33 255
-0.6203 0.030000012 1.515645 0 1 -0 177 33 33 255
-0.6782785 0.030000012 1.5005522 0 1 -0 177 33 33 255
-0.13287076 0.030000012 0.96254927 -1.1844211E-15 -1.203186E-14 1 255 255 255 255
-1.0471292 1.9793884E-09 0.96254927 -1.1844211E-15 -1.203186E-14 1 255 255 255 255
-0.13287076 1.5599202E-08 0.96254927 -1.1844211E-15 -1.203186E-14 1 255 255 255 255
-1.0471292 0.02999999 0.96254927 -1.1844211E-15 -1.203186E-14 1 255 255 255 255
-0.13287076 0.030000012 0.22287078 1 1.48970996E-08 9.759801E-16 255 255 255 255
-0.13287076 1.5599202E-08 0.96254927 1 1.48970996E-08 9.759801E-16 255 255 255 255
-0.13287076 1.5599202E-08 0.22287078 1 1.48970996E-08 9.759801E-16 255 255 255 255
-0.13287076 0.030000012 0.96254927 1 1.48970996E-08 9.759801E-16 255 255 255 255
-0.13287076 0.060000002 0.96254927 -1.1844211E-15 1.203186E-14 1 255 255 255 255
-1.0471292 0.060000002 0.96254927 -1.1844211E-15 1.203186E-14 1 255 255 255 255
-1.0471292 0.02999999 0.96254927 -1 -1.48970996E-08 -9.759801E-16 255 255 255 255
-1.0471292 1.9793884E-09 0.22287078 -1 -1.48970996E-08 -9.759801E-16 255 255 255 255
-1.0471292 1.9793884E-09 0.96254927 -1 -1.48970996E-08 -9.759801E-16 255 255 255 255
-1.0471292 0.02999999 0.22287078 -1 -1.48970996E-08 -9.759801E-16 255 255 255 255
-1.0471292 1.9793884E-09 0.22287078 7.896142E-16 -3.759955E-16 -1 255 255 255 255
-0.13287076 0.030000012 0.22287078 7.896142E-16 -3.759955E-16 -1 255 255 255 255
-0.13287076 1.5599202E-08 0.22287078 7.896142E-16 -3.759955E-16 -1 255 255 255 255
-0.13287076 0.060000002 0.22287078 7.896142E-16 -3.759955E-16 -1 255 255 255 255
-1.0471292 0.02999999 0.22287078 7.896142E-16 -3.759955E-16 -1 255 255 255 255
-1.0471292 0.060000002 0.22287078 7.896142E-16 -3.759955E-16 -1 255 255 255 255
-0.13287076 0.060000002 0.22287078 1 1.489712E-08 -3.125503E-26 255 255 255 255
-0.13287076 0.060000002 0.96254927 1 1.489712E-08 -3.125503E-26 255 255 255 255
-1.0471292 0.060000002 0.96254927 -1 -1.489712E-08 4.2169617E-29 255 255 255 255
-1.0471292 0.060000002 0.22287078 -1 -1.489712E-08 4.2169617E-29 255 255 255 255
-1.0471292 0.02999999 2.110129 -1 -1.48970996E-08 -7.1467246E-16 255 255 255 255
-1.0471292 1.9793884E-09 1.1 -1 -1.48970996E-08 -7.1467246E-16 255 255 255 255
-1.0471292 1.9793884E-09 2.110129 -1 -1.48970996E-08 -7.1467246E-16 255 255 255 255
-1.0471292 0.02999999 1.1 -1 -1.48970996E-08 -7.1467246E-16 255 255 255 255
-0.13287076 0.030000012 2.110129 -7.896142E-16 -1.176298E-23 1 255 255 255 255
-1.0471292 1.9793884E-09 2.110129 -7.896142E-16 -1.176298E-23 1 255 255 255 255
-0.13287076 1.5599202E-08 2.110129 -7.896142E-16 -1.176298E-23 1 255 255 255 255
-1.0471292 0.02999999 2.110129 -7.896142E-16 -1.176298E-23 1 255 255 255 255
-1.0471292 0.060000002 2.110129 -1 -1.489712E-08 -1.429345E-15 255 255 255 255
-1.0471292 0.060000002 1.1 -1 -1.489712E-08 -1.429345E-15 255 255 255 255
-1.0471292 1.9793884E-09 1.1 1.1844211E-15 1.203186E-14 -1 255 255 255 255
-0.13287076 0.030000012 1.1 1.1844211E-15 1.203186E-14 -1 255 255 255 255
-0.13287076 1.5599202E-08 1.1 1.1844211E-15 1.203186E-14 -1 255 255 255 255
-1.0471292 0.02999999 1.1 1.1844211E-15 1.203186E-14 -1 255 255 255 255
-0.13287076 0.030000012 1.1 1 1.48970996E-08 7.1467246E-16 255 255 255 255
-0.13287076 1.5599202E-08 2.110129 1 1.48970996E-08 7.1467246E-16 255 255 255 255
-0.13287076 1.5599202E-08 1.1 1 1.48970996E-08 7.1467246E-16 255 255 255 255
-0.13287076 0.030000012 2.110129 1 1.48970996E-08 7.1467246E-16 255 255 255 255
-0.13287076 0.060000002 2.110129 -7.896142E-16 -1.176298E-23 1 255 255 255 255
-1.0471292 0.060000002 2.110129 -7.896142E-16 -1.176298E-23 1 255 255 255 255
-0.13287076 0.060000002 1.1 1.1844211E-15 -1.203186E-14 -1 255 255 255 255
-1.0471292 0.060000002 1.1 1.1844211E-15 -1.203186E-14 -1 255 255 255 255
-0.13287076 0.060000002 1.1 1 1.489712E-08 1.429345E-15 255 255 255 255
-0.13287076 0.060000002 2.110129 1 1.489712E-08 1.429345E-15 255 255 255 255
-8.9382435E-10 0.060000002 9.023892E-16 1.4897109E-08 -1 1.490065E-23 255 255 255 255
-0.13287076 0.060000002 0.22287078 1.4897109E-08 -1 1.490065E-23 255 255 255 255
-1.0471292 0.060000002 0.22287078 1.4897109E-08 -1 1.490065E-23 255 255 255 255
-8.9383023E-10 0.060000002 2.1999996 1.4897109E-08 -1 1.490065E-23 255 255 255 255
-0.13287076 0.060000002 0.96254927 1.4897109E-08 -1 1.490065E-23 255 255 255 255
-0.13287076 0.060000002 1.1 1.4897109E-08 -1 1.490065E-23 255 255 255 255
-1.0471292 0.060000002 1.1 1.4897109E-08 -1 1.490065E-23 255 255 255 255
-0.13287076 0.060000002 2.110129 1.4897109E-08 -1 1.490065E-23 255 255 255 255
-1.1799998 0.060000002 2.1999996 1.4897109E-08 -1 1.490065E-23 255 255 255 255
-1.1799998 0.060000002 0 1.4897109E-08 -1 1.490065E-23 255 255 255 255
-1.0471292 0.060000002 0.96254927 1.4897109E-08 -1 1.490065E-23 255 255 255 255
-1.0471292 0.060000002 2.110129 1.4897109E-08 -1 1.490065E-23 255 255 255 255
-8.9383023E-10 0.060000002 2.1999996 -1 -1.4897109E-08 -9.844247E-16 255 255 255 255
-0 1.7578587E-08 9.023892E-16 -1 -1.4897109E-08 -9.844247E-16 255 255 255 255
-0 1.7578587E-08 2.1999996 -1 -1.4897109E-08 -9.844247E-16 255 255 255 255
-8.9382435E-10 0.060000002 9.023892E-16 -1 -1.4897109E-08 -9.844247E-16 255 255 255 255
-1.1799998 0 2.1999996 9.176841E-16 -6.015928E-15 -1 255 255 255 255
-8.9383023E-10 0.060000002 2.1999996 9.176841E-16 -6.015928E-15 -1 255 255 255 255
-0 1.7578587E-08 2.1999996 9.176841E-16 -6.015928E-15 -1 255 255 255 255
-1.1799998 0.060000002 2.1999996 9.176841E-16 -6.015928E-15 -1 255 255 255 255
-1.1799998 0.060000002 0 1 1.489712E-08 6.562831E-16 255 255 255 255
-1.1799998 0 2.1999996 1 1.489712E-08 6.562831E-16 255 255 255 255
-1.1799998 0 0 1 1.489712E-08 6.562831E-16 255 255 255 255
-1.1799998 0.060000002 2.1999996 1 1.489712E-08 6.562831E-16 255 255 255 255
-8.9382435E-10 0.060000002 9.023892E-16 -7.647367E-16 -1.139237E-23 1 255 255 255 255
-1.1799998 0 0 -7.647367E-16 -1.139237E-23 1 255 255 255 255
-0 1.7578587E-08 9.023892E-16 -7.647367E-16 -1.139237E-23 1 255 255 255 255
-1.1799998 0.060000002 0 -7.647367E-16 -1.139237E-23 1 255 255 255 255
-1.1799998 0 0 -1.4897109E-08 1 -9.9343155E-24 255 255 255 255
-1.0471292 1.9793884E-09 0.22287078 -1.4897109E-08 1 -9.9343155E-24 255 255 255 255
-0 1.7578587E-08 9.023892E-16 -1.4897109E-08 1 -9.9343155E-24 255 255 255 255
-1.1799998 0 2.1999996 -1.4897109E-08 1 -9.9343155E-24 255 255 255 255
-1.0471292 1.9793884E-09 0.96254927 -1.4897109E-08 1 -9.9343155E-24 255 255 255 255
-1.0471292 1.9793884E-09 1.1 -1.4897109E-08 1 -9.9343155E-24 255 255 255 255
-0.13287076 1.5599202E-08 0.96254927 -1.4897109E-08 1 -9.9343155E-24 255 255 255 255
-1.0471292 1.9793884E-09 2.110129 -1.4897109E-08 1 -9.9343155E-24 255 255 255 255
-0.13287076 1.5599202E-08 2.110129 -1.4897109E-08 1 -9.9343155E-24 255 255 255 255
-0.13287076 1.5599202E-08 0.22287078 -1.4897109E-08 1 -9.9343155E-24 255 255 255 255
-0 1.7578587E-08 2.1999996 -1.4897109E-08 1 -9.9343155E-24 255 255 255 255
-0.13287076 1.5599202E-08 1.1 -1.4897109E-08 1 -9.9343155E-24 255 255 255 255
-0.7764404 0.034000006 1.2143757 0.9659258 -0 0.258819 198 198 198 255
-0.9534726 0.030000012 1.8750688 0.9659258 -0 0.258819 198 198 198 255
-0.7764404 0.030000012 1.2143757 0.9659258 -0 0.258819 198 198 198 255
-0.9534726 0.034000006 1.8750688 0.9659258 -0 0.258819 198 198 198 255
-0.26160195 0.034000006 1.3523262 0 -1 -0 198 198 198 255
-0.9534726 0.034000006 1.8750688 0 -1 -0 198 198 198 255
-0.7764404 0.034000006 1.2143757 0 -1 -0 198 198 198 255
-0.43863413 0.034000006 2.0130196 0 -1 -0 198 198 198 255
-0.9534726 0.030000012 1.8750688 0.258819 -0 -0.9659258 198 198 198 255
-0.43863413 0.034000006 2.0130196 0.258819 -0 -0.9659258 198 198 198 255
-0.43863413 0.030000012 2.0130196 0.258819 -0 -0.9659258 198 198 198 255
-0.9534726 0.034000006 1.8750688 0.258819 -0 -0.9659258 198 198 198 255
-0.531134 0.030000012 1.8257508 0 1 -0 198 198 198 255
-0.5636981 0.030000012 1.8165529 0 1 -0 198 198 198 255
-0.5694063 0.030000012 1.8367622 0 1 -0 198 198 198 255
-0.5982766 0.030000012 1.8286079 0 1 -0 198 198 198 255
-0.9534726 0.030000012 1.8750688 0 1 -0 198 198 198 255
-0.6782785 0.030000012 1.8165529 0 1 -0 198 198 198 255
-0.756464 0.030000012 1.7953873 0 1 -0 198 198 198 255
-0.75247395 0.030000012 1.7632325 0 1 -0 198 198 198 255
-0.6782785 0.030000012 1.5005522 0 1 -0 198 198 198 255
-0.71707475 0.030000012 1.4904526 0 1 -0 198 198 198 255
-0.74364465 0.030000012 1.3940469 0 1 -0 198 198 198 255
-0.67344004 0.030000012 1.3228339 0 1 -0 198 198 198 255
-0.7764404 0.030000012 1.2143757 0 1 -0 198 198 198 255
-0.43863413 0.030000012 2.0130196 0 1 -0 198 198 198 255
-0.44741315 0.030000012 1.5293478 0 1 -0 198 198 198 255
-0.5851977 0.030000012 1.4800386 0 1 -0 198 198 198 255
-0.45431837 0.030000012 1.5170063 0 1 -0 198 198 198 255
-0.5500954 0.030000012 1.444432 0 1 -0 198 198 198 255
-0.26160195 0.030000012 1.3523262 0 1 -0 198 198 198 255
-0.5766653 0.030000012 1.3480265 0 1 -0 198 198 198 255
-0.59256846 0.030000012 1.8083984 0 1 -0 198 198 198 255
-0.62996465 0.030000012 1.7978357 0 1 -0 198 198 198 255
-0.7764404 0.034000006 1.2143757 -0.258819 -0 0.9659258 198 198 198 255
-0.26160195 0.030000012 1.3523262 -0.258819 -0 0.9659258 198 198 198 255
-0.26160195 0.034000006 1.3523262 -0.258819 -0 0.9659258 198 198 198 255
-0.7764404 0.030000012 1.2143757 -0.258819 -0 0.9659258 198 198 198 255
-0.43863413 0.034000006 2.0130196 -0.9659258 -0 -0.258819 198 198 198 255
-0.26160195 0.030000012 1.3523262 -0.9659258 -0 -0.258819 198 198 198 255
-0.43863413 0.030000012 2.0130196 -0.9659258 -0 -0.258819 198 198 198 255
-0.26160195 0.034000006 1.3523262 -0.9659258 -0 -0.258819 198 198 198 255
-0.756464 0.030000012 1.7953873 0 1 -0 58 58 58 255
-0.62996465 0.030000012 1.7978357 0 1 -0 58 58 58 255
-0.75247395 0.030000012 1.7632325 0 1 -0 58 58 58 255
-0.6782785 0.030000012 1.8165529 0 1 -0 58 58 58 255
-0.5924608 0.030000012 1.6123786 0 1 -0 58 58 58 255
-0.5199689 0.030000012 1.5819769 0 1 -0 58 58 58 255
-0.64003956 0.030000012 1.549804 0 1 -0 58 58 58 255
-0.6782785 0.030000012 1.5005522 0 1 -0 58 58 58 255
-0.65228695 0.030000012 1.5568751 0 1 -0 58 58 58 255
-0.6203 0.030000012 1.515645 0 1 -0 58 58 58 255
-0.45431837 0.030000012 1.5170063 0 1 -0 58 58 58 255
-0.44741315 0.030000012 1.5293478 0 1 -0 58 58 58 255
-0.67661583 0.030000012 1.6476723 0 1 -0 58 58 58 255
-0.6058235 0.030000012 1.617983 0 1 -0 58 58 58 255
-0.669545 0.030000012 1.6599197 0 1 -0 58 58 58 255
-0.54947406 0.030000012 1.6920927 0 1 -0 58 58 58 255
-0.51289785 0.030000012 1.5942243 0 1 -0 58 58 58 255
-0.531134 0.030000012 1.8257508 0 1 -0 58 58 58 255
-0.53722674 0.030000012 1.6850214 0 1 -0 58 58 58 255
-0.5836902 0.030000012 1.6239136 0 1 -0 58 58 58 255
-0.5636981 0.030000012 1.8165529 0 1 -0 58 58 58 255
-0.59256846 0.030000012 1.8083984 0 1 -0 58 58 58 255
-0.5970531 0.030000012 1.6295176 0 1 -0 58 58 58 255
-0.5851977 0.030000012 1.4800386 0 1 -0 58 58 58 255
-0.5982766 0.030000012 1.8286079 0 1 -0 58 58 58 255
-0.5694063 0.030000012 1.8367622 0 1 -0 58 58 58 255
-0.65228695 0.030000012 1.5568751 0 1 -0 255 153 49 255
-0.5924608 0.030000012 1.6123786 0 1 -0 255 153 49 255
-0.64003956 0.030000012 1.549804 0 1 -0 255 153 49 255
-0.6058235 0.030000012 1.617983 0 1 -0 255 153 49 255
-0.51289785 0.030000012 1.5942243 0 1 -0 255 153 49 255
-0.5199689 0.030000012 1.5819769 0 1 -0 255 153 49 255
-0.5836902 0.030000012 1.6239136 0 1 -0 255 153 49 255
-0.67661583 0.030000012 1.6476723 0 1 -0 255 153 49 255
-0.5970531 0.030000012 1.6295176 0 1 -0 255 153 49 255
-0.669545 0.030000012 1.6599197 0 1 -0 255 153 49 255
-0.53722674 0.030000012 1.6850214 0 1 -0 255 153 49 255
-0.54947406 0.030000012 1.6920927 0 1 -0 255 153 49 255
3 116 117 118
3 117 116 119
3 119 116 120
3 119 120 121
3 121 120 122
3 122 120 123
3 124 125 126
3 125 124 127
3 128 129 130
3 129 128 131
3 132 127 124
3 127 132 133
3 134 135 136
3 135 134 137
3 138 139 140
3 139 138 141
3 141 138 142
3 141 142 143
3 144 131 128
3 131 144 145
3 146 137 134
3 137 146 147
3 148 149 150
3 149 148 151
3 152 153 154
3 153 152 155
3 156 151 148
3 151 156 157
3 158 159 160
3 159 158 161
3 162 163 164
3 163 162 165
3 166 155 152
3 155 166 167
3 161 168 159
3 168 161 169
3 170 165 162
3 165 170 171
3 172 173 174
3 173 172 175
3 173 175 176
3 176 175 177
3 176 177 178
3 177 175 179
3 179 175 180
3 181 174 180
3 174 181 172
3 180 174 182
3 180 182 178
3 178 182 176
3 180 178 183
3 180 183 179
3 184 185 186
3 185 184 187
3 188 189 190
3 189 188 191
3 192 193 194
3 193 192 195
3 196 197 198
3 197 196 199
3 200 201 202
3 201 200 203
3 201 203 204
3 204 203 205
3 204 205 206
3 205 203 207
3 207 203 208
3 202 209 210
3 209 202 201
3 210 209 206
3 210 206 211
3 211 206 205
3 210 211 208
3 210 208 203
3 212 213 214
3 213 212 215
3 216 217 218
3 217 216 219
3 220 221 222
3 221 220 223
3 224 225 226
3 226 227 228
3 227 229 228
3 229 230 228
3 230 231 228
3 231 232 228
3 232 233 228
3 233 234 228
3 235 236 234
3 228 234 236
3 228 237 226
3 226 237 224
3 224 237 238
3 239 240 241
3 237 242 238
3 238 242 240
3 240 242 241
3 241 242 243
3 243 242 235
3 236 235 242
3 227 244 229
3 245 229 244
3 246 247 248
3 247 246 249
3 250 251 252
3 251 250 253
3 254 255 256
3 255 254 257
3 258 259 260
3 261 262 263
3 262 261 256
3 263 262 260
3 263 260 264
3 264 260 265
3 262 256 266
3 262 266 267
3 266 256 268
3 268 256 269
3 265 270 271
3 270 265 259
3 259 265 260
3 271 270 272
3 272 270 273
3 271 272 269
3 271 269 274
3 274 269 275
3 275 269 256
3 275 256 255
3 269 276 268
3 264 277 263
3 278 274 275
3 274 278 279
3 280 281 282
3 281 280 283
3 281 284 285
3 284 281 286
3 286 281 283
3 286 283 287
3 286 287 288
3 288 287 289
3 288 290 286
3 290 288 291

