ply
format ascii 1.0
commentY29udmVydGVyIGJ5IENvZGVMZW9wYXJk
comment Original mesh name: 'C:\Program Files (x86)\Steam\steamapps\common\Stormworks\rom\meshes\door_cottages.mesh'
comment SubMesh index: 0
comment SubMesh name: 'ID18'
comment Shader: Opaque (0)
element vertex 360
property float x
property float y
property float z
property float nx
property float ny
property float nz
property uchar red
property uchar green
property uchar blue
property uchar alpha
element face 236
property list uchar ushort vertex_index
end_header
-0.7272479 0.093699984 1.0677598 -0.8660254 -0 0.5 58 58 58 255
-0.7562479 0.0737 1.0175302 -0.8660254 -0 0.5 58 58 58 255
-0.7272479 0.0737 1.0677598 -0.8660254 -0 0.5 58 58 58 255
-0.7562479 0.093699984 1.0175302 -0.8660254 -0 0.5 58 58 58 255
-0.7562479 0.093699984 1.1179891 -0.8660254 -0 -0.5 58 58 58 255
-0.7272479 0.0737 1.0677598 -0.8660254 -0 -0.5 58 58 58 255
-0.7562479 0.0737 1.1179891 -0.8660254 -0 -0.5 58 58 58 255
-0.7272479 0.093699984 1.0677598 -0.8660254 -0 -0.5 58 58 58 255
-0.7272479 0.093699984 1.0677598 0 -1 -0 58 58 58 255
-0.81424767 0.093699984 1.0175302 0 -1 -0 58 58 58 255
-0.7562479 0.093699984 1.0175302 0 -1 -0 58 58 58 255
-0.8432479 0.093699984 1.0677598 0 -1 -0 58 58 58 255
-0.7562479 0.093699984 1.1179891 0 -1 -0 58 58 58 255
-0.81424767 0.093699984 1.1179891 0 -1 -0 58 58 58 255
-0.81424767 0.093699984 1.0175302 0 -0 1 58 58 58 255
-0.7562479 0.0737 1.0175302 0 -0 1 58 58 58 255
-0.7562479 0.093699984 1.0175302 0 -0 1 58 58 58 255
-0.81424767 0.0737 1.0175302 0 -0 1 58 58 58 255
-0.81424767 0.0737 1.1179891 0 -0 -1 58 58 58 255
-0.7562479 0.093699984 1.1179891 0 -0 -1 58 58 58 255
-0.7562479 0.0737 1.1179891 0 -0 -1 58 58 58 255
-0.81424767 0.093699984 1.1179891 0 -0 -1 58 58 58 255
-0.8432479 0.093699984 1.0677598 0.8660254 -0 -0.5 58 58 58 255
-0.81424767 0.0737 1.1179891 0.8660254 -0 -0.5 58 58 58 255
-0.8432479 0.0737 1.0677598 0.8660254 -0 -0.5 58 58 58 255
-0.81424767 0.093699984 1.1179891 0.8660254 -0 -0.5 58 58 58 255
-0.81424767 0.093699984 1.0175302 0.8660254 -0 0.5 58 58 58 255
-0.8432479 0.0737 1.0677598 0.8660254 -0 0.5 58 58 58 255
-0.81424767 0.0737 1.0175302 0.8660254 -0 0.5 58 58 58 255
-0.8432479 0.093699984 1.0677598 0.8660254 -0 0.5 58 58 58 255
-0.8621979 0.1118 1.0173484 0.8660254 -6.823193E-17 -0.5 58 58 58 255
-0.82372266 0.09560001 1.083989 0.8660254 -6.823193E-17 -0.5 58 58 58 255
-0.8621979 0.09560001 1.0173484 0.8660254 -6.823193E-17 -0.5 58 58 58 255
-0.82372266 0.1118 1.083989 0.8660254 -6.823193E-17 -0.5 58 58 58 255
-0.82372266 0.09560001 0.950708 0 1 -0 58 58 58 255
-0.8120316 0.09560001 0.9709578 0 1 -0 58 58 58 255
-0.74677294 0.09560001 0.950708 0 1 -0 58 58 58 255
-0.8621979 0.09560001 1.0173484 0 1 -0 58 58 58 255
-0.83881515 0.09560001 1.0173484 0 1 -0 58 58 58 255
-0.8120316 0.09560001 1.0637392 0 1 -0 58 58 58 255
-0.82372266 0.09560001 1.083989 0 1 -0 58 58 58 255
-0.7584643 0.09560001 1.0637392 0 1 -0 58 58 58 255
-0.7584643 0.09560001 0.9709578 0 1 -0 58 58 58 255
-0.7082978 0.09560001 1.0173484 0 1 -0 58 58 58 255
-0.7316805 0.09560001 1.0173484 0 1 -0 58 58 58 255
-0.74677294 0.09560001 1.083989 0 1 -0 58 58 58 255
-0.82372266 0.1118 0.950708 0.8660254 6.879049E-27 0.5 58 58 58 255
-0.8621979 0.09560001 1.0173484 0.8660254 6.879049E-27 0.5 58 58 58 255
-0.82372266 0.09560001 0.950708 0.8660254 6.879049E-27 0.5 58 58 58 255
-0.8621979 0.1118 1.0173484 0.8660254 6.879049E-27 0.5 58 58 58 255
-0.74677294 0.1118 0.950708 0 -1 -0 58 58 58 255
-0.7584643 0.1118 0.9709578 0 -1 -0 58 58 58 255
-0.82372266 0.1118 0.950708 0 -1 -0 58 58 58 255
-0.7082978 0.1118 1.0173484 0 -1 -0 58 58 58 255
-0.7316805 0.1118 1.0173484 0 -1 -0 58 58 58 255
-0.74677294 0.1118 1.083989 0 -1 -0 58 58 58 255
-0.7584643 0.1118 1.0637392 0 -1 -0 58 58 58 255
-0.8120316 0.1118 1.0637392 0 -1 -0 58 58 58 255
-0.8120316 0.1118 0.9709578 0 -1 -0 58 58 58 255
-0.8621979 0.1118 1.0173484 0 -1 -0 58 58 58 255
-0.83881515 0.1118 1.0173484 0 -1 -0 58 58 58 255
-0.82372266 0.1118 1.083989 0 -1 -0 58 58 58 255
-0.82372266 0.09560001 1.083989 0 -0 -1 58 58 58 255
-0.74677294 0.1118 1.083989 0 -0 -1 58 58 58 255
-0.74677294 0.09560001 1.083989 0 -0 -1 58 58 58 255
-0.82372266 0.1118 1.083989 0 -0 -1 58 58 58 255
-0.82372266 0.1118 0.950708 0 -0 1 58 58 58 255
-0.74677294 0.09560001 0.950708 0 -0 1 58 58 58 255
-0.74677294 0.1118 0.950708 0 -0 1 58 58 58 255
-0.82372266 0.09560001 0.950708 0 -0 1 58 58 58 255
-0.74677294 0.1118 1.083989 -0.8660254 6.879049E-27 -0.5 58 58 58 255
-0.7082978 0.09560001 1.0173484 -0.8660254 6.879049E-27 -0.5 58 58 58 255
-0.74677294 0.09560001 1.083989 -0.8660254 6.879049E-27 -0.5 58 58 58 255
-0.7082978 0.1118 1.0173484 -0.8660254 6.879049E-27 -0.5 58 58 58 255
-0.7082978 0.1118 1.0173484 -0.8660254 -0 0.5 58 58 58 255
-0.74677294 0.09560001 0.950708 -0.8660254 -0 0.5 58 58 58 255
-0.7082978 0.09560001 1.0173484 -0.8660254 -0 0.5 58 58 58 255
-0.74677294 0.1118 0.950708 -0.8660254 -0 0.5 58 58 58 255
-0.8120316 0.1118 1.0637392 0 -0 1 58 58 58 255
-0.7584643 0.09560001 1.0637392 0 -0 1 58 58 58 255
-0.7584643 0.1118 1.0637392 0 -0 1 58 58 58 255
-0.8120316 0.09560001 1.0637392 0 -0 1 58 58 58 255
-0.7316805 0.1118 1.0173484 0.8660254 -0 0.5 58 58 58 255
-0.7584643 0.09560001 1.0637392 0.8660254 -0 0.5 58 58 58 255
-0.7316805 0.09560001 1.0173484 0.8660254 -0 0.5 58 58 58 255
-0.7584643 0.1118 1.0637392 0.8660254 -0 0.5 58 58 58 255
-0.8120316 0.1118 1.0637392 -0.8660254 6.879049E-27 0.5 58 58 58 255
-0.83881515 0.09560001 1.0173484 -0.8660254 6.879049E-27 0.5 58 58 58 255
-0.8120316 0.09560001 1.0637392 -0.8660254 6.879049E-27 0.5 58 58 58 255
-0.83881515 0.1118 1.0173484 -0.8660254 6.879049E-27 0.5 58 58 58 255
-0.7584643 0.1118 0.9709578 0.8660254 6.879049E-27 -0.5 58 58 58 255
-0.7316805 0.09560001 1.0173484 0.8660254 6.879049E-27 -0.5 58 58 58 255
-0.7584643 0.09560001 0.9709578 0.8660254 6.879049E-27 -0.5 58 58 58 255
-0.7316805 0.1118 1.0173484 0.8660254 6.879049E-27 -0.5 58 58 58 255
-0.83881515 0.1118 1.0173484 -0.8660254 -0 -0.5 58 58 58 255
-0.8120316 0.09560001 0.9709578 -0.8660254 -0 -0.5 58 58 58 255
-0.83881515 0.09560001 1.0173484 -0.8660254 -0 -0.5 58 58 58 255
-0.8120316 0.1118 0.9709578 -0.8660254 -0 -0.5 58 58 58 255
-0.8120316 0.09560001 0.9709578 0 -0 -1 58 58 58 255
-0.7584643 0.1118 0.9709578 0 -0 -1 58 58 58 255
-0.7584643 0.09560001 0.9709578 0 -0 -1 58 58 58 255
-0.8120316 0.1118 0.9709578 0 -0 -1 58 58 58 255
-0.8432479 0 1.0677598 0 1 -0 102 55 39 255
-0.7562479 0 1.0175302 0 1 -0 102 55 39 255
-0.81424767 0 1.0175302 0 1 -0 102 55 39 255
-0.7272479 0 1.0677598 0 1 -0 102 55 39 255
-0.81424767 0 1.1179891 0 1 -0 102 55 39 255
-0.7562479 0 1.1179891 0 1 -0 102 55 39 255
-0.74677294 -0.021899998 0.950708 0 -1 -0 58 58 58 255
-0.7584643 -0.021899998 0.9709578 0 -1 -0 58 58 58 255
-0.82372266 -0.021899998 0.950708 0 -1 -0 58 58 58 255
-0.7082978 -0.021899998 1.0173484 0 -1 -0 58 58 58 255
-0.7316805 -0.021899998 1.0173484 0 -1 -0 58 58 58 255
-0.74677294 -0.021899998 1.083989 0 -1 -0 58 58 58 255
-0.7584643 -0.021899998 1.0637392 0 -1 -0 58 58 58 255
-0.8120316 -0.021899998 1.0637392 0 -1 -0 58 58 58 255
-0.8120316 -0.021899998 0.9709578 0 -1 -0 58 58 58 255
-0.8621979 -0.021899998 1.0173484 0 -1 -0 58 58 58 255
-0.83881515 -0.021899998 1.0173484 0 -1 -0 58 58 58 255
-0.82372266 -0.021899998 1.083989 0 -1 -0 58 58 58 255
-0.82372266 -0.021899998 0.950708 0 -0 1 58 58 58 255
-0.74677294 -0.0381 0.950708 0 -0 1 58 58 58 255
-0.74677294 -0.021899998 0.950708 0 -0 1 58 58 58 255
-0.82372266 -0.0381 0.950708 0 -0 1 58 58 58 255
-0.7082978 -0.021899998 1.0173484 -0.8660254 -0 0.5 58 58 58 255
-0.74677294 -0.0381 0.950708 -0.8660254 -0 0.5 58 58 58 255
-0.7082978 -0.0381 1.0173484 -0.8660254 -0 0.5 58 58 58 255
-0.74677294 -0.021899998 0.950708 -0.8660254 -0 0.5 58 58 58 255
-0.74677294 -0.021899998 1.083989 -0.8660254 6.823193E-17 -0.5 58 58 58 255
-0.7082978 -0.0381 1.0173484 -0.8660254 6.823193E-17 -0.5 58 58 58 255
-0.74677294 -0.0381 1.083989 -0.8660254 6.823193E-17 -0.5 58 58 58 255
-0.7082978 -0.021899998 1.0173484 -0.8660254 6.823193E-17 -0.5 58 58 58 255
-0.82372266 -0.0381 1.083989 0 -0 -1 58 58 58 255
-0.74677294 -0.021899998 1.083989 0 -0 -1 58 58 58 255
-0.74677294 -0.0381 1.083989 0 -0 -1 58 58 58 255
-0.82372266 -0.021899998 1.083989 0 -0 -1 58 58 58 255
-0.8621979 -0.021899998 1.0173484 0.8660254 -0 -0.5 58 58 58 255
-0.82372266 -0.0381 1.083989 0.8660254 -0 -0.5 58 58 58 255
-0.8621979 -0.0381 1.0173484 0.8660254 -0 -0.5 58 58 58 255
-0.82372266 -0.021899998 1.083989 0.8660254 -0 -0.5 58 58 58 255
-0.82372266 -0.021899998 0.950708 0.8660254 -6.879049E-27 0.5 58 58 58 255
-0.8621979 -0.0381 1.0173484 0.8660254 -6.879049E-27 0.5 58 58 58 255
-0.82372266 -0.0381 0.950708 0.8660254 -6.879049E-27 0.5 58 58 58 255
-0.8621979 -0.021899998 1.0173484 0.8660254 -6.879049E-27 0.5 58 58 58 255
-0.82372266 -0.0381 0.950708 0 1 -0 58 58 58 255
-0.8120316 -0.0381 0.9709578 0 1 -0 58 58 58 255
-0.74677294 -0.0381 0.950708 0 1 -0 58 58 58 255
-0.8621979 -0.0381 1.0173484 0 1 -0 58 58 58 255
-0.83881515 -0.0381 1.0173484 0 1 -0 58 58 58 255
-0.8120316 -0.0381 1.0637392 0 1 -0 58 58 58 255
-0.82372266 -0.0381 1.083989 0 1 -0 58 58 58 255
-0.7584643 -0.0381 1.0637392 0 1 -0 58 58 58 255
-0.7584643 -0.0381 0.9709578 0 1 -0 58 58 58 255
-0.7082978 -0.0381 1.0173484 0 1 -0 58 58 58 255
-0.7316805 -0.0381 1.0173484 0 1 -0 58 58 58 255
-0.74677294 -0.0381 1.083989 0 1 -0 58 58 58 255
-0.7584643 -0.021899998 0.9709578 0.8660254 -6.879049E-27 -0.5 58 58 58 255
-0.7316805 -0.0381 1.0173484 0.8660254 -6.879049E-27 -0.5 58 58 58 255
-0.7584643 -0.0381 0.9709578 0.8660254 -6.879049E-27 -0.5 58 58 58 255
-0.7316805 -0.021899998 1.0173484 0.8660254 -6.879049E-27 -0.5 58 58 58 255
-0.7316805 -0.021899998 1.0173484 0.8660254 6.823193E-17 0.5 58 58 58 255
-0.7584643 -0.0381 1.0637392 0.8660254 6.823193E-17 0.5 58 58 58 255
-0.7316805 -0.0381 1.0173484 0.8660254 6.823193E-17 0.5 58 58 58 255
-0.7584643 -0.021899998 1.0637392 0.8660254 6.823193E-17 0.5 58 58 58 255
-0.8120316 -0.0381 0.9709578 0 -0 -1 58 58 58 255
-0.7584643 -0.021899998 0.9709578 0 -0 -1 58 58 58 255
-0.7584643 -0.0381 0.9709578 0 -0 -1 58 58 58 255
-0.8120316 -0.021899998 0.9709578 0 -0 -1 58 58 58 255
-0.8120316 -0.021899998 1.0637392 0 -0 1 58 58 58 255
-0.7584643 -0.0381 1.0637392 0 -0 1 58 58 58 255
-0.7584643 -0.021899998 1.0637392 0 -0 1 58 58 58 255
-0.8120316 -0.0381 1.0637392 0 -0 1 58 58 58 255
-0.83881515 -0.021899998 1.0173484 -0.8660254 -0 -0.5 58 58 58 255
-0.8120316 -0.0381 0.9709578 -0.8660254 -0 -0.5 58 58 58 255
-0.83881515 -0.0381 1.0173484 -0.8660254 -0 -0.5 58 58 58 255
-0.8120316 -0.021899998 0.9709578 -0.8660254 -0 -0.5 58 58 58 255
-0.8120316 -0.021899998 1.0637392 -0.8660254 -6.879049E-27 0.5 58 58 58 255
-0.83881515 -0.0381 1.0173484 -0.8660254 -6.879049E-27 0.5 58 58 58 255
-0.8120316 -0.0381 1.0637392 -0.8660254 -6.879049E-27 0.5 58 58 58 255
-0.83881515 -0.021899998 1.0173484 -0.8660254 -6.879049E-27 0.5 58 58 58 255
-0.7272479 0.0737 1.0677598 0 -1 -0 102 55 39 255
-0.81424767 0.0737 1.0175302 0 -1 -0 102 55 39 255
-0.7562479 0.0737 1.0175302 0 -1 -0 102 55 39 255
-0.8432479 0.0737 1.0677598 0 -1 -0 102 55 39 255
-0.7562479 0.0737 1.1179891 0 -1 -0 102 55 39 255
-0.81424767 0.0737 1.1179891 0 -1 -0 102 55 39 255
-0.27544826 0.0847 2.1158776 0 -1 -0 102 55 39 255
-0.5508965 0.0847 0 0 -1 -0 102 55 39 255
-0.27544826 0.0847 0 0 -1 -0 102 55 39 255
-0.5508965 0.0847 2.1158776 0 -1 -0 102 55 39 255
-0.7154806 0.09469998 0 0 -0 1 102 55 39 255
-0.5508965 0.0847 0 0 -0 1 102 55 39 255
-0.5508965 0.09469998 0 0 -0 1 102 55 39 255
-0.66598624 0 0 0 -0 1 102 55 39 255
-0.7154806 0.0737 0 0 -0 1 102 55 39 255
-0.8848364 0 0 0 -0 1 102 55 39 255
-0.9399998 0.0737 0 0 -0 1 102 55 39 255
-0.8848364 -0.007999999 0 0 -0 1 102 55 39 255
-0.9399998 -0.007999999 0 0 -0 1 102 55 39 255
-0.33685553 0 0 0 -0 1 102 55 39 255
-0.27544826 0.0847 0 0 -0 1 102 55 39 255
-0.48435056 0 0 0 -0 1 102 55 39 255
-0.48435056 -0.015 0 0 -0 1 102 55 39 255
-0.66598624 -0.015 0 0 -0 1 102 55 39 255
-0.27544826 0.101699986 0 0 -0 1 102 55 39 255
-0.08932082 0.0737 0 0 -0 1 102 55 39 255
-0.08932082 0.101699986 0 0 -0 1 102 55 39 255
-0.10868381 0 0 0 -0 1 102 55 39 255
-0.10868381 -0.017999997 0 0 -0 1 102 55 39 255
-0.33685553 -0.017999997 0 0 -0 1 102 55 39 255
-0 0 0 0 -0 1 102 55 39 255
-0 0.0737 0 0 -0 1 102 55 39 255
-0.27544826 0.101699986 0 1 -0 -0 102 55 39 255
-0.27544826 0.0847 2.1158776 1 -0 -0 102 55 39 255
-0.27544826 0.0847 0 1 -0 -0 102 55 39 255
-0.27544826 0.101699986 2.1158776 1 -0 -0 102 55 39 255
-0.9399998 -0.007999999 2.1158776 0 -0 -1 102 55 39 255
-0.8848364 0 2.1158776 0 -0 -1 102 55 39 255
-0.8848364 -0.007999999 2.1158776 0 -0 -1 102 55 39 255
-0.7154806 0.0737 2.1158776 0 -0 -1 102 55 39 255
-0.66598624 0 2.1158776 0 -0 -1 102 55 39 255
-0.9399998 0.0737 2.1158776 0 -0 -1 102 55 39 255
-0.66598624 -0.015 2.1158776 0 -0 -1 102 55 39 255
-0.48435056 0 2.1158776 0 -0 -1 102 55 39 255
-0.48435056 -0.015 2.1158776 0 -0 -1 102 55 39 255
-0.5508965 0.0847 2.1158776 0 -0 -1 102 55 39 255
-0.5508965 0.09469998 2.1158776 0 -0 -1 102 55 39 255
-0.7154806 0.09469998 2.1158776 0 -0 -1 102 55 39 255
-0.33685553 -0.017999997 2.1158776 0 -0 -1 102 55 39 255
-0.10868381 0 2.1158776 0 -0 -1 102 55 39 255
-0.10868381 -0.017999997 2.1158776 0 -0 -1 102 55 39 255
-0.27544826 0.0847 2.1158776 0 -0 -1 102 55 39 255
-0.33685553 0 2.1158776 0 -0 -1 102 55 39 255
-0 0.0737 2.1158776 0 -0 -1 102 55 39 255
-0 0 2.1158776 0 -0 -1 102 55 39 255
-0.08932082 0.0737 2.1158776 0 -0 -1 102 55 39 255
-0.08932082 0.101699986 2.1158776 0 -0 -1 102 55 39 255
-0.27544826 0.101699986 2.1158776 0 -0 -1 102 55 39 255
-0.5508965 0.09469998 2.1158776 -1 -0 -0 102 55 39 255
-0.5508965 0.0847 0 -1 -0 -0 102 55 39 255
-0.5508965 0.0847 2.1158776 -1 -0 -0 102 55 39 255
-0.5508965 0.09469998 0 -1 -0 -0 102 55 39 255
-0.9399998 0.0737 0 1 -0 -0 102 55 39 255
-0.9399998 -0.007999999 2.1158776 1 -0 -0 102 55 39 255
-0.9399998 -0.007999999 0 1 -0 -0 102 55 39 255
-0.9399998 0.0737 2.1158776 1 -0 -0 102 55 39 255
-0.9399998 -0.007999999 2.1158776 0 1 -0 102 55 39 255
-0.8848364 -0.007999999 0 0 1 -0 102 55 39 255
-0.9399998 -0.007999999 0 0 1 -0 102 55 39 255
-0.8848364 -0.007999999 2.1158776 0 1 -0 102 55 39 255
-0.8848364 0 2.1158776 -1 -0 -0 102 55 39 255
-0.8848364 -0.007999999 0 -1 -0 -0 102 55 39 255
-0.8848364 -0.007999999 2.1158776 -1 -0 -0 102 55 39 255
-0.8848364 0 0 -1 -0 -0 102 55 39 255
-0.8848364 0 0 0 1 -0 102 55 39 255
-0.8432479 0 1.0677598 0 1 -0 102 55 39 255
-0.66598624 0 0 0 1 -0 102 55 39 255
-0.8848364 0 2.1158776 0 1 -0 102 55 39 255
-0.81424767 0 1.0175302 0 1 -0 102 55 39 255
-0.81424767 0 1.1179891 0 1 -0 102 55 39 255
-0.7562479 0 1.1179891 0 1 -0 102 55 39 255
-0.7272479 0 1.0677598 0 1 -0 102 55 39 255
-0.66598624 0 2.1158776 0 1 -0 102 55 39 255
-0.7562479 0 1.0175302 0 1 -0 102 55 39 255
-0.66598624 0 0 1 -0 -0 102 55 39 255
-0.66598624 -0.015 2.1158776 1 -0 -0 102 55 39 255
-0.66598624 -0.015 0 1 -0 -0 102 55 39 255
-0.66598624 0 2.1158776 1 -0 -0 102 55 39 255
-0.66598624 -0.015 2.1158776 0 1 -0 102 55 39 255
-0.48435056 -0.015 0 0 1 -0 102 55 39 255
-0.66598624 -0.015 0 0 1 -0 102 55 39 255
-0.48435056 -0.015 2.1158776 0 1 -0 102 55 39 255
-0.48435056 0 2.1158776 -1 -0 -0 102 55 39 255
-0.48435056 -0.015 0 -1 -0 -0 102 55 39 255
-0.48435056 -0.015 2.1158776 -1 -0 -0 102 55 39 255
-0.48435056 0 0 -1 -0 -0 102 55 39 255
-0.48435056 0 2.1158776 0 1 -0 102 55 39 255
-0.33685553 0 0 0 1 -0 102 55 39 255
-0.48435056 0 0 0 1 -0 102 55 39 255
-0.33685553 0 2.1158776 0 1 -0 102 55 39 255
-0.33685553 0 0 1 -0 -0 102 55 39 255
-0.33685553 -0.017999997 2.1158776 1 -0 -0 102 55 39 255
-0.33685553 -0.017999997 0 1 -0 -0 102 55 39 255
-0.33685553 0 2.1158776 1 -0 -0 102 55 39 255
-0.33685553 -0.017999997 2.1158776 0 1 -0 102 55 39 255
-0.10868381 -0.017999997 0 0 1 -0 102 55 39 255
-0.33685553 -0.017999997 0 0 1 -0 102 55 39 255
-0.10868381 -0.017999997 2.1158776 0 1 -0 102 55 39 255
-0.10868381 0 2.1158776 -1 -0 -0 102 55 39 255
-0.10868381 -0.017999997 0 -1 -0 -0 102 55 39 255
-0.10868381 -0.017999997 2.1158776 -1 -0 -0 102 55 39 255
-0.10868381 0 0 -1 -0 -0 102 55 39 255
-0.10868381 0 2.1158776 0 1 -0 102 55 39 255
-0 0 0 0 1 -0 102 55 39 255
-0.10868381 0 0 0 1 -0 102 55 39 255
-0 0 2.1158776 0 1 -0 102 55 39 255
-0 0.0737 2.1158776 -1 -0 -0 102 55 39 255
-0 0 0 -1 -0 -0 102 55 39 255
-0 0 2.1158776 -1 -0 -0 102 55 39 255
-0 0.0737 0 -1 -0 -0 102 55 39 255
-0 0.0737 2.1158776 0 -1 -0 102 55 39 255
-0.08932082 0.0737 0 0 -1 -0 102 55 39 255
-0 0.0737 0 0 -1 -0 102 55 39 255
-0.08932082 0.0737 2.1158776 0 -1 -0 102 55 39 255
-0.08932082 0.101699986 2.1158776 -1 -0 -0 102 55 39 255
-0.08932082 0.0737 0 -1 -0 -0 102 55 39 255
-0.08932082 0.0737 2.1158776 -1 -0 -0 102 55 39 255
-0.08932082 0.101699986 0 -1 -0 -0 102 55 39 255
-0.08932082 0.101699986 2.1158776 0 -1 -0 102 55 39 255
-0.27544826 0.101699986 0 0 -1 -0 102 55 39 255
-0.08932082 0.101699986 0 0 -1 -0 102 55 39 255
-0.27544826 0.101699986 2.1158776 0 -1 -0 102 55 39 255
-0.5508965 0.09469998 2.1158776 0 -1 -0 102 55 39 255
-0.7154806 0.09469998 0 0 -1 -0 102 55 39 255
-0.5508965 0.09469998 0 0 -1 -0 102 55 39 255
-0.7154806 0.09469998 2.1158776 0 -1 -0 102 55 39 255
-0.7154806 0.09469998 0 1 -0 -0 102 55 39 255
-0.7154806 0.0737 2.1158776 1 -0 -0 102 55 39 255
-0.7154806 0.0737 0 1 -0 -0 102 55 39 255
-0.7154806 0.09469998 2.1158776 1 -0 -0 102 55 39 255
-0.7154806 0.0737 0 0 -1 -0 102 55 39 255
-0.7272479 0.0737 1.0677598 0 -1 -0 102 55 39 255
-0.9399998 0.0737 0 0 -1 -0 102 55 39 255
-0.7154806 0.0737 2.1158776 0 -1 -0 102 55 39 255
-0.7562479 0.0737 1.0175302 0 -1 -0 102 55 39 255
-0.7562479 0.0737 1.1179891 0 -1 -0 102 55 39 255
-0.81424767 0.0737 1.1179891 0 -1 -0 102 55 39 255
-0.8432479 0.0737 1.0677598 0 -1 -0 102 55 39 255
-0.9399998 0.0737 2.1158776 0 -1 -0 102 55 39 255
-0.81424767 0.0737 1.0175302 0 -1 -0 102 55 39 255
-0.81424767 0 1.0175302 0 -0 1 58 58 58 255
-0.7562479 -0.02 1.0175302 0 -0 1 58 58 58 255
-0.7562479 0 1.0175302 0 -0 1 58 58 58 255
-0.81424767 -0.02 1.0175302 0 -0 1 58 58 58 255
-0.81424767 0 1.0175302 0.8660254 -0 0.5 58 58 58 255
-0.8432479 -0.02 1.0677598 0.8660254 -0 0.5 58 58 58 255
-0.81424767 -0.02 1.0175302 0.8660254 -0 0.5 58 58 58 255
-0.8432479 0 1.0677598 0.8660254 -0 0.5 58 58 58 255
-0.8432479 -0.02 1.0677598 0 1 -0 58 58 58 255
-0.7562479 -0.02 1.0175302 0 1 -0 58 58 58 255
-0.81424767 -0.02 1.0175302 0 1 -0 58 58 58 255
-0.7272479 -0.02 1.0677598 0 1 -0 58 58 58 255
-0.81424767 -0.02 1.1179891 0 1 -0 58 58 58 255
-0.7562479 -0.02 1.1179891 0 1 -0 58 58 58 255
-0.7272479 0 1.0677598 -0.8660254 -0 0.5 58 58 58 255
-0.7562479 -0.02 1.0175302 -0.8660254 -0 0.5 58 58 58 255
-0.7272479 -0.02 1.0677598 -0.8660254 -0 0.5 58 58 58 255
-0.7562479 0 1.0175302 -0.8660254 -0 0.5 58 58 58 255
-0.8432479 0 1.0677598 0.8660254 -0 -0.5 58 58 58 255
-0.81424767 -0.02 1.1179891 0.8660254 -0 -0.5 58 58 58 255
-0.8432479 -0.02 1.0677598 0.8660254 -0 -0.5 58 58 58 255
-0.81424767 0 1.1179891 0.8660254 -0 -0.5 58 58 58 255
-0.81424767 -0.02 1.1179891 0 -0 -1 58 58 58 255
-0.7562479 0 1.1179891 0 -0 -1 58 58 58 255
-0.7562479 -0.02 1.1179891 0 -0 -1 58 58 58 255
-0.81424767 0 1.1179891 0 -0 -1 58 58 58 255
-0.7562479 0 1.1179891 -0.8660254 -0 -0.5 58 58 58 255
-0.7272479 -0.02 1.0677598 -0.8660254 -0 -0.5 58 58 58 255
-0.7562479 -0.02 1.1179891 -0.8660254 -0 -0.5 58 58 58 255
-0.7272479 0 1.0677598 -0.8660254 -0 -0.5 58 58 58 255
3 0 1 2
3 1 0 3
3 4 5 6
3 5 4 7
3 8 9 10
3 9 8 11
3 11 8 12
3 11 12 13
3 14 15 16
3 15 14 17
3 18 19 20
3 19 18 21
3 22 23 24
3 23 22 25
3 26 27 28
3 27 26 29
3 30 31 32
3 31 30 33
3 34 35 36
3 35 34 37
3 35 37 38
3 38 37 39
3 39 37 40
3 39 40 41
3 36 42 43
3 42 36 35
3 43 42 44
3 43 44 45
3 45 44 41
3 45 41 40
3 46 47 48
3 47 46 49
3 50 51 52
3 51 50 53
3 51 53 54
3 54 53 55
3 54 55 56
3 56 55 57
3 52 58 59
3 58 52 51
3 59 58 60
3 59 60 57
3 59 57 61
3 61 57 55
3 62 63 64
3 63 62 65
3 66 67 68
3 67 66 69
3 70 71 72
3 71 70 73
3 74 75 76
3 75 74 77
3 78 79 80
3 79 78 81
3 82 83 84
3 83 82 85
3 86 87 88
3 87 86 89
3 90 91 92
3 91 90 93
3 94 95 96
3 95 94 97
3 98 99 100
3 99 98 101
3 102 103 104
3 103 102 105
3 105 102 106
3 105 106 107
3 108 109 110
3 109 108 111
3 109 111 112
3 112 111 113
3 112 113 114
3 114 113 115
3 110 116 117
3 116 110 109
3 117 116 118
3 117 118 115
3 117 115 119
3 119 115 113
3 120 121 122
3 121 120 123
3 124 125 126
3 125 124 127
3 128 129 130
3 129 128 131
3 132 133 134
3 133 132 135
3 136 137 138
3 137 136 139
3 140 141 142
3 141 140 143
3 144 145 146
3 145 144 147
3 145 147 148
3 148 147 149
3 149 147 150
3 149 150 151
3 146 152 153
3 152 146 145
3 153 152 154
3 153 154 155
3 155 154 151
3 155 151 150
3 156 157 158
3 157 156 159
3 160 161 162
3 161 160 163
3 164 165 166
3 165 164 167
3 168 169 170
3 169 168 171
3 172 173 174
3 173 172 175
3 176 177 178
3 177 176 179
3 180 181 182
3 181 180 183
3 183 180 184
3 183 184 185
3 186 187 188
3 187 186 189
3 190 191 192
3 191 190 193
3 193 190 194
3 193 194 195
3 195 194 196
3 195 196 197
3 197 196 198
3 191 199 200
3 199 191 201
3 201 191 202
3 202 191 203
3 203 191 193
3 204 205 206
3 205 204 207
3 207 204 208
3 208 204 200
3 208 200 209
3 209 200 199
3 205 210 211
3 210 205 207
3 212 213 214
3 213 212 215
3 216 217 218
3 217 219 220
3 219 217 221
3 221 217 216
3 222 223 224
3 223 222 225
3 225 222 226
3 226 222 220
3 226 220 227
3 227 220 219
3 228 229 230
3 229 228 231
3 231 228 232
3 231 232 225
3 225 232 223
3 229 233 234
3 233 229 235
3 235 229 236
3 236 229 237
3 237 229 231
3 238 239 240
3 239 238 241
3 242 243 244
3 243 242 245
3 246 247 248
3 247 246 249
3 250 251 252
3 251 250 253
3 254 255 256
3 255 254 257
3 256 255 258
3 255 257 259
3 259 257 260
3 256 261 262
3 261 256 263
3 263 256 258
3 262 261 260
3 262 260 257
3 264 265 266
3 265 264 267
3 268 269 270
3 269 268 271
3 272 273 274
3 273 272 275
3 276 277 278
3 277 276 279
3 280 281 282
3 281 280 283
3 284 285 286
3 285 284 287
3 288 289 290
3 289 288 291
3 292 293 294
3 293 292 295
3 296 297 298
3 297 296 299
3 300 301 302
3 301 300 303
3 304 305 306
3 305 304 307
3 308 309 310
3 309 308 311
3 312 313 314
3 313 312 315
3 316 317 318
3 317 316 319
3 320 321 322
3 321 320 323
3 322 321 324
3 321 323 325
3 325 323 326
3 322 327 328
3 327 322 329
3 329 322 324
3 328 327 326
3 328 326 323
3 330 331 332
3 331 330 333
3 334 335 336
3 335 334 337
3 338 339 340
3 339 338 341
3 341 338 342
3 341 342 343
3 344 345 346
3 345 344 347
3 348 349 350
3 349 348 351
3 352 353 354
3 353 352 355
3 356 357 358
3 357 356 359

