ply
format ascii 1.0
commentY29udmVydGVyIGJ5IENvZGVMZW9wYXJk
comment Original mesh name: 'C:\Program Files (x86)\Steam\steamapps\common\Stormworks\rom\meshes\door_glass_sliding.mesh'
comment SubMesh index: 0
comment SubMesh name: 'ID3'
comment Shader: Transparent (1)
element vertex 104
property float x
property float y
property float z
property float nx
property float ny
property float nz
property uchar red
property uchar green
property uchar blue
property uchar alpha
element face 4
property list uchar ushort vertex_index
end_header
-0.01 1.2900001 2.045991 -1 -0 -0 160 160 199 128
-0.01 1.2900001 0.03999999 -1 -0 -0 160 160 199 128
-0.01 0.03999999 2.045991 -1 -0 -0 160 160 199 128
-0.01 0.03999999 0.03999999 -1 -0 -0 160 160 199 128
-0.035000004 1.2900001 0.03999999 1 -0 -0 160 160 199 128
-0.035000004 0.03999999 2.045991 1 -0 -0 160 160 199 128
-0.035000004 0.03999999 0.03999999 1 -0 -0 160 160 199 128
-0.035000004 1.2900001 2.045991 1 -0 -0 160 160 199 128
-0 1.3299999 2.0859911 0 -1 -0 39 39 51 255
-0.043999992 1.3299999 7.3319126E-17 0 -1 -0 39 39 51 255
-0 1.3299999 7.3319126E-17 0 -1 -0 39 39 51 255
-0.043999992 1.3299999 2.0859911 0 -1 -0 39 39 51 255
-0.043999992 1.3299999 2.0859911 0 1 -0 39 39 51 255
-0 1.3299999 2.0859911 0 1 -0 39 39 51 255
-0.043999992 1.3299999 7.3319126E-17 0 1 -0 39 39 51 255
-0 1.3299999 7.3319126E-17 0 1 -0 39 39 51 255
-0.043999992 0 0 1 -0 -0 39 39 51 255
-0.043999992 0.03999999 0.03999999 1 -0 -0 39 39 51 255
-0.043999992 0 2.0859911 1 -0 -0 39 39 51 255
-0.043999992 1.3299999 7.3319126E-17 1 -0 -0 39 39 51 255
-0.043999992 1.2899998 0.03999999 1 -0 -0 39 39 51 255
-0.043999992 1.2899998 2.045991 1 -0 -0 39 39 51 255
-0.043999992 0.03999999 2.045991 1 -0 -0 39 39 51 255
-0.043999992 1.3299999 2.0859911 1 -0 -0 39 39 51 255
-0.043999992 1.3299999 7.3319126E-17 -1 -0 -0 39 39 51 255
-0.043999992 1.2899998 2.045991 -1 -0 -0 39 39 51 255
-0.043999992 1.3299999 2.0859911 -1 -0 -0 39 39 51 255
-0.043999992 0.03999999 2.045991 -1 -0 -0 39 39 51 255
-0.043999992 0.03999999 0.03999999 -1 -0 -0 39 39 51 255
-0.043999992 0 2.0859911 -1 -0 -0 39 39 51 255
-0.043999992 1.2899998 0.03999999 -1 -0 -0 39 39 51 255
-0.043999992 0 0 -1 -0 -0 39 39 51 255
-0.043999992 1.3299999 7.3319126E-17 0 -5.5127157E-17 1 39 39 51 255
-0 0 0 0 -5.5127157E-17 1 39 39 51 255
-0 1.3299999 7.3319126E-17 0 -5.5127157E-17 1 39 39 51 255
-0.043999992 0 0 0 -5.5127157E-17 1 39 39 51 255
-0.043999992 0 0 0 5.5127157E-17 -1 39 39 51 255
-0.043999992 1.3299999 7.3319126E-17 0 5.5127157E-17 -1 39 39 51 255
-0 0 0 0 5.5127157E-17 -1 39 39 51 255
-0 1.3299999 7.3319126E-17 0 5.5127157E-17 -1 39 39 51 255
-0 0 2.0859911 -1 -0 -0 39 39 51 255
-0 0.03999999 2.045991 -1 -0 -0 39 39 51 255
-0 0 0 -1 -0 -0 39 39 51 255
-0 1.3299999 2.0859911 -1 -0 -0 39 39 51 255
-0 1.2899998 2.045991 -1 -0 -0 39 39 51 255
-0 1.2899998 0.03999999 -1 -0 -0 39 39 51 255
-0 0.03999999 0.03999999 -1 -0 -0 39 39 51 255
-0 1.3299999 7.3319126E-17 -1 -0 -0 39 39 51 255
-0 1.3299999 2.0859911 1 -0 -0 39 39 51 255
-0 1.2899998 0.03999999 1 -0 -0 39 39 51 255
-0 1.3299999 7.3319126E-17 1 -0 -0 39 39 51 255
-0 0.03999999 0.03999999 1 -0 -0 39 39 51 255
-0 0.03999999 2.045991 1 -0 -0 39 39 51 255
-0 0 0 1 -0 -0 39 39 51 255
-0 1.2899998 2.045991 1 -0 -0 39 39 51 255
-0 0 2.0859911 1 -0 -0 39 39 51 255
-0.043999992 0 2.0859911 0 -0 -1 39 39 51 255
-0 1.3299999 2.0859911 0 -0 -1 39 39 51 255
-0 0 2.0859911 0 -0 -1 39 39 51 255
-0.043999992 1.3299999 2.0859911 0 -0 -1 39 39 51 255
-0.043999992 1.3299999 2.0859911 0 -0 1 39 39 51 255
-0.043999992 0 2.0859911 0 -0 1 39 39 51 255
-0 1.3299999 2.0859911 0 -0 1 39 39 51 255
-0 0 2.0859911 0 -0 1 39 39 51 255
-0.043999992 0 2.0859911 0 1 -0 39 39 51 255
-0 0 0 0 1 -0 39 39 51 255
-0.043999992 0 0 0 1 -0 39 39 51 255
-0 0 2.0859911 0 1 -0 39 39 51 255
-0 0 2.0859911 0 -1 -0 39 39 51 255
-0.043999992 0 2.0859911 0 -1 -0 39 39 51 255
-0 0 0 0 -1 -0 39 39 51 255
-0.043999992 0 0 0 -1 -0 39 39 51 255
-0.043999992 1.2899998 2.045991 0 -0 1 39 39 51 255
-0 0.03999999 2.045991 0 -0 1 39 39 51 255
-0 1.2899998 2.045991 0 -0 1 39 39 51 255
-0.043999992 0.03999999 2.045991 0 -0 1 39 39 51 255
-0.043999992 0.03999999 2.045991 0 -0 -1 39 39 51 255
-0.043999992 1.2899998 2.045991 0 -0 -1 39 39 51 255
-0 0.03999999 2.045991 0 -0 -1 39 39 51 255
-0 1.2899998 2.045991 0 -0 -1 39 39 51 255
-0 0.03999999 2.045991 0 -1 -0 39 39 51 255
-0.043999992 0.03999999 0.03999999 0 -1 -0 39 39 51 255
-0 0.03999999 0.03999999 0 -1 -0 39 39 51 255
-0.043999992 0.03999999 2.045991 0 -1 -0 39 39 51 255
-0.043999992 0.03999999 2.045991 0 1 -0 39 39 51 255
-0 0.03999999 2.045991 0 1 -0 39 39 51 255
-0.043999992 0.03999999 0.03999999 0 1 -0 39 39 51 255
-0 0.03999999 0.03999999 0 1 -0 39 39 51 255
-0.043999992 1.2899998 2.045991 0 1 -0 39 39 51 255
-0 1.2899998 0.03999999 0 1 -0 39 39 51 255
-0.043999992 1.2899998 0.03999999 0 1 -0 39 39 51 255
-0 1.2899998 2.045991 0 1 -0 39 39 51 255
-0 1.2899998 2.045991 0 -1 -0 39 39 51 255
-0.043999992 1.2899998 2.045991 0 -1 -0 39 39 51 255
-0 1.2899998 0.03999999 0 -1 -0 39 39 51 255
-0.043999992 1.2899998 0.03999999 0 -1 -0 39 39 51 255
-0.043999992 0.03999999 0.03999999 0 6.3167244E-17 -1 39 39 51 255
-0 1.2899998 0.03999999 0 6.3167244E-17 -1 39 39 51 255
-0 0.03999999 0.03999999 0 6.3167244E-17 -1 39 39 51 255
-0.043999992 1.2899998 0.03999999 0 6.3167244E-17 -1 39 39 51 255
-0.043999992 1.2899998 0.03999999 0 -6.3167244E-17 1 39 39 51 255
-0.043999992 0.03999999 0.03999999 0 -6.3167244E-17 1 39 39 51 255
-0 1.2899998 0.03999999 0 -6.3167244E-17 1 39 39 51 255
-0 0.03999999 0.03999999 0 -6.3167244E-17 1 39 39 51 255
3 0 1 2
3 3 2 1
3 4 5 6
3 5 4 7

