ply
format ascii 1.0
commentY29udmVydGVyIGJ5IENvZGVMZW9wYXJk
comment Original mesh name: 'C:\Program Files (x86)\Steam\steamapps\common\Stormworks\rom\meshes\door_hospital.mesh'
comment SubMesh index: 0
comment SubMesh name: 'ID19'
comment Shader: Opaque (0)
element vertex 40
property float x
property float y
property float z
property float nx
property float ny
property float nz
property uchar red
property uchar green
property uchar blue
property uchar alpha
element face 28
property list uchar ushort vertex_index
end_header
-0.88877344 0 0.95306325 3.735103E-14 1 -0 113 113 113 255
-0.7627734 0 1.2670634 3.735103E-14 1 -0 113 113 113 255
-0.7627734 0 0.95306325 3.735103E-14 1 -0 113 113 113 255
-0.88877344 0 1.2670634 3.735103E-14 1 -0 113 113 113 255
-0.9399998 0 0 0 -0 1 58 29 0 255
2.8876446E-15 0.076 0 0 -0 1 58 29 0 255
-0.9399998 0.076 0 0 -0 1 58 29 0 255
1.1797133E-16 0 0 0 -0 1 58 29 0 255
1.1797133E-16 0 2.116 -1 3.644307E-14 -0 58 29 0 255
2.8876446E-15 0.076 0 -1 3.644307E-14 -0 58 29 0 255
1.1797133E-16 0 0 -1 3.644307E-14 -0 58 29 0 255
2.8876446E-15 0.076 2.116 -1 3.644307E-14 -0 58 29 0 255
-0.9399998 0.076 2.116 -3.644307E-14 -1 -0 58 29 0 255
2.8876446E-15 0.076 0 -3.644307E-14 -1 -0 58 29 0 255
2.8876446E-15 0.076 2.116 -3.644307E-14 -1 -0 58 29 0 255
-0.7627734 0.076 1.2670634 -3.644307E-14 -1 -0 58 29 0 255
-0.88877344 0.076 1.2670634 -3.644307E-14 -1 -0 58 29 0 255
-0.88877344 0.076 0.95306325 -3.644307E-14 -1 -0 58 29 0 255
-0.7627734 0.076 0.95306325 -3.644307E-14 -1 -0 58 29 0 255
-0.9399998 0.076 0 -3.644307E-14 -1 -0 58 29 0 255
-0.9399998 0.076 2.116 1 -3.644307E-14 -0 58 29 0 255
-0.9399998 0 0 1 -3.644307E-14 -0 58 29 0 255
-0.9399998 0.076 0 1 -3.644307E-14 -0 58 29 0 255
-0.9399998 0 2.116 1 -3.644307E-14 -0 58 29 0 255
-0.9399998 0 0 3.644307E-14 1 -0 58 29 0 255
1.1797133E-16 0 2.116 3.644307E-14 1 -0 58 29 0 255
1.1797133E-16 0 0 3.644307E-14 1 -0 58 29 0 255
-0.7627734 0 0.95306325 3.644307E-14 1 -0 58 29 0 255
-0.88877344 0 0.95306325 3.644307E-14 1 -0 58 29 0 255
-0.88877344 0 1.2670634 3.644307E-14 1 -0 58 29 0 255
-0.7627734 0 1.2670634 3.644307E-14 1 -0 58 29 0 255
-0.9399998 0 2.116 3.644307E-14 1 -0 58 29 0 255
1.1797133E-16 0 2.116 0 -0 -1 58 29 0 255
-0.9399998 0.076 2.116 0 -0 -1 58 29 0 255
2.8876446E-15 0.076 2.116 0 -0 -1 58 29 0 255
-0.9399998 0 2.116 0 -0 -1 58 29 0 255
-0.88877344 0.076 1.2670634 -3.735103E-14 -1 -0 113 113 113 255
-0.7627734 0.076 0.95306325 -3.735103E-14 -1 -0 113 113 113 255
-0.7627734 0.076 1.2670634 -3.735103E-14 -1 -0 113 113 113 255
-0.88877344 0.076 0.95306325 -3.735103E-14 -1 -0 113 113 113 255
3 0 1 2
3 1 0 3
3 4 5 6
3 5 4 7
3 8 9 10
3 9 8 11
3 12 13 14
3 13 12 15
3 15 12 16
3 16 12 17
3 13 18 19
3 18 13 15
3 19 18 17
3 19 17 12
3 20 21 22
3 21 20 23
3 24 25 26
3 25 24 27
3 27 24 28
3 28 24 29
3 25 30 31
3 30 25 27
3 31 30 29
3 31 29 24
3 32 33 34
3 33 32 35
3 36 37 38
3 37 36 39

