ply
format ascii 1.0
commentY29udmVydGVyIGJ5IENvZGVMZW9wYXJk
comment Original mesh name: 'C:\Program Files (x86)\Steam\steamapps\common\Stormworks\rom\meshes\door_arctic_module_interior_mirrored.mesh'
comment SubMesh index: 0
comment SubMesh name: 'ID48'
comment Shader: Transparent (1)
element vertex 458
property float x
property float y
property float z
property float nx
property float ny
property float nz
property uchar red
property uchar green
property uchar blue
property uchar alpha
element face 16
property list uchar ushort vertex_index
end_header
0.3985694 0 1.316341 0 1 -0 160 160 199 128
0.543291 0 1.3163624 0 1 -0 160 160 199 128
0.47010747 0 1.2991269 0 1 -0 160 160 199 128
0.3219259 0 1.387038 0 1 -0 160 160 199 128
0.6180739 0 1.3868108 0 1 -0 160 160 199 128
0.6180739 0 1.8166853 0 1 -0 160 160 199 128
0.3219259 0 1.8148398 0 1 -0 160 160 199 128
0.3985694 0 1.8855366 0 1 -0 160 160 199 128
0.5435107 0 1.8854637 0 1 -0 160 160 199 128
0.47010747 0 1.9027511 0 1 -0 160 160 199 128
0.47010747 0 1.9027511 0 -1 -0 160 160 199 128
0.3985694 0 1.8855366 0 -1 -0 160 160 199 128
0.5435107 0 1.8854637 0 -1 -0 160 160 199 128
0.6180739 0 1.8166853 0 -1 -0 160 160 199 128
0.3219259 0 1.8148398 0 -1 -0 160 160 199 128
0.3219259 0 1.387038 0 -1 -0 160 160 199 128
0.6180739 0 1.3868108 0 -1 -0 160 160 199 128
0.543291 0 1.3163624 0 -1 -0 160 160 199 128
0.3985694 0 1.316341 0 -1 -0 160 160 199 128
0.47010747 0 1.2991269 0 -1 -0 160 160 199 128
0.9399998 0.03684999 0.19999999 0 -1 -0 198 198 198 255
-0 0.03684999 0 0 -1 -0 198 198 198 255
0.9399998 0.03684999 0 0 -1 -0 198 198 198 255
-0 0.03684999 0.19999999 0 -1 -0 198 198 198 255
0.47000003 -0.046849992 1.9408753 -0.2292384 9.5575175E-27 -0.9733703 255 255 255 255
0.56404686 -0.03684999 1.9187264 -0.2292384 9.5575175E-27 -0.9733703 255 255 255 255
0.56404686 -0.046849992 1.9187264 -0.2292384 9.5575175E-27 -0.9733703 255 255 255 255
0.47000003 -0.03684999 1.9408753 -0.2292384 9.5575175E-27 -0.9733703 255 255 255 255
0.56404686 -0.046849992 1.9187264 -0.6780169 -0 -0.7350463 255 255 255 255
0.6580939 -0.03684999 1.8319763 -0.6780169 -0 -0.7350463 255 255 255 255
0.6580939 -0.046849992 1.8319763 -0.6780169 -0 -0.7350463 255 255 255 255
0.56404686 -0.03684999 1.9187264 -0.6780169 -0 -0.7350463 255 255 255 255
0.377954 -0.046849992 1.2831513 0 1 -0 255 255 255 255
0.56404686 -0.046849992 1.2831513 0 1 -0 255 255 255 255
0.47000003 -0.046849992 1.2610022 0 1 -0 255 255 255 255
0.47010747 -0.046849992 1.2991269 0 1 -0 255 255 255 255
0.3985694 -0.046849992 1.316341 0 1 -0 255 255 255 255
0.28190598 -0.046849992 1.3717471 0 1 -0 255 255 255 255
0.3219259 -0.046849992 1.387038 0 1 -0 255 255 255 255
0.28190598 -0.046849992 1.8301305 0 1 -0 255 255 255 255
0.3219259 -0.046849992 1.8148398 0 1 -0 255 255 255 255
0.3985694 -0.046849992 1.8855366 0 1 -0 255 255 255 255
0.377954 -0.046849992 1.9187264 0 1 -0 255 255 255 255
0.47010747 -0.046849992 1.9027511 0 1 -0 255 255 255 255
0.543291 -0.046849992 1.3163624 0 1 -0 255 255 255 255
0.6580939 -0.046849992 1.3717471 0 1 -0 255 255 255 255
0.6180739 -0.046849992 1.3868108 0 1 -0 255 255 255 255
0.6580939 -0.046849992 1.8319763 0 1 -0 255 255 255 255
0.6180739 -0.046849992 1.8166853 0 1 -0 255 255 255 255
0.5435107 -0.046849992 1.8854637 0 1 -0 255 255 255 255
0.56404686 -0.046849992 1.9187264 0 1 -0 255 255 255 255
0.47000003 -0.046849992 1.9408753 0 1 -0 255 255 255 255
0.377954 -0.046849992 1.9187264 0.23395178 9.754031E-27 -0.97224814 255 255 255 255
0.47000003 -0.03684999 1.9408753 0.23395178 9.754031E-27 -0.97224814 255 255 255 255
0.47000003 -0.046849992 1.9408753 0.23395178 9.754031E-27 -0.97224814 255 255 255 255
0.377954 -0.03684999 1.9187264 0.23395178 9.754031E-27 -0.97224814 255 255 255 255
0.6580939 -0.03684999 1.8319763 -1 -0 -0 255 255 255 255
0.6580939 -0.046849992 1.3717471 -1 -0 -0 255 255 255 255
0.6580939 -0.046849992 1.8319763 -1 -0 -0 255 255 255 255
0.6580939 -0.03684999 1.3717471 -1 -0 -0 255 255 255 255
0.56404686 -0.03684999 1.2831513 -0.6856978 -0 0.7278864 255 255 255 255
0.6580939 -0.046849992 1.3717471 -0.6856978 -0 0.7278864 255 255 255 255
0.6580939 -0.03684999 1.3717471 -0.6856978 -0 0.7278864 255 255 255 255
0.56404686 -0.046849992 1.2831513 -0.6856978 -0 0.7278864 255 255 255 255
0.47000003 -0.03684999 1.2610022 -0.2292384 -9.5575175E-27 0.9733703 255 255 255 255
0.56404686 -0.046849992 1.2831513 -0.2292384 -9.5575175E-27 0.9733703 255 255 255 255
0.56404686 -0.03684999 1.2831513 -0.2292384 -9.5575175E-27 0.9733703 255 255 255 255
0.47000003 -0.046849992 1.2610022 -0.2292384 -9.5575175E-27 0.9733703 255 255 255 255
0.377954 -0.03684999 1.2831513 0.23395178 -9.754031E-27 0.97224814 255 255 255 255
0.47000003 -0.046849992 1.2610022 0.23395178 -9.754031E-27 0.97224814 255 255 255 255
0.47000003 -0.03684999 1.2610022 0.23395178 -9.754031E-27 0.97224814 255 255 255 255
0.377954 -0.046849992 1.2831513 0.23395178 -9.754031E-27 0.97224814 255 255 255 255
0.28190598 -0.03684999 1.3717471 0.6780169 -5.653642E-26 0.7350463 255 255 255 255
0.377954 -0.046849992 1.2831513 0.6780169 -5.653642E-26 0.7350463 255 255 255 255
0.377954 -0.03684999 1.2831513 0.6780169 -5.653642E-26 0.7350463 255 255 255 255
0.28190598 -0.046849992 1.3717471 0.6780169 -5.653642E-26 0.7350463 255 255 255 255
0.28190598 -0.03684999 1.3717471 1 -0 -0 255 255 255 255
0.28190598 -0.046849992 1.8301305 1 -0 -0 255 255 255 255
0.28190598 -0.046849992 1.3717471 1 -0 -0 255 255 255 255
0.28190598 -0.03684999 1.8301305 1 -0 -0 255 255 255 255
0.28190598 -0.046849992 1.8301305 0.6780169 -0 -0.7350463 255 255 255 255
0.377954 -0.03684999 1.9187264 0.6780169 -0 -0.7350463 255 255 255 255
0.377954 -0.046849992 1.9187264 0.6780169 -0 -0.7350463 255 255 255 255
0.28190598 -0.03684999 1.8301305 0.6780169 -0 -0.7350463 255 255 255 255
0.8375726 -0.06874339 0.73089105 0.6123724 -0.6123724 -0.5 198 198 198 255
0.8088594 -0.08684999 0.7179007 0.6123724 -0.6123724 -0.5 198 198 198 255
0.8300727 -0.0656368 0.7179007 0.6123724 -0.6123724 -0.5 198 198 198 255
0.81196606 -0.094349995 0.73089105 0.6123724 -0.6123724 -0.5 198 198 198 255
0.81196606 -0.094349995 0.73089105 -9.007833E-18 -0.8660254 -0.5 198 198 198 255
0.7540726 -0.08684999 0.7179007 -9.007833E-18 -0.8660254 -0.5 198 198 198 255
0.8088594 -0.08684999 0.7179007 -9.007833E-18 -0.8660254 -0.5 198 198 198 255
0.75945336 -0.094349995 0.73089105 -9.007833E-18 -0.8660254 -0.5 198 198 198 255
0.8300727 -0.0656368 0.7179007 0.6123724 -0.6123724 0.5 198 198 198 255
0.81196606 -0.094349995 0.7049104 0.6123724 -0.6123724 0.5 198 198 198 255
0.8375726 -0.06874339 0.7049104 0.6123724 -0.6123724 0.5 198 198 198 255
0.8088594 -0.08684999 0.7179007 0.6123724 -0.6123724 0.5 198 198 198 255
0.8300727 -0.0656368 0.7179007 0.8660254 6.0224402E-18 -0.5 198 198 198 255
0.8375726 -0.03684999 0.73089105 0.8660254 6.0224402E-18 -0.5 198 198 198 255
0.8375726 -0.06874339 0.73089105 0.8660254 6.0224402E-18 -0.5 198 198 198 255
0.8300727 -0.03684999 0.7179007 0.8660254 6.0224402E-18 -0.5 198 198 198 255
0.85257256 -0.07495659 0.73089105 0 -0 -1 198 198 198 255
0.8375726 -0.06874339 0.73089105 0 -0 -1 198 198 198 255
0.85257256 -0.03684999 0.73089105 0 -0 -1 198 198 198 255
0.8181792 -0.109349996 0.73089105 0 -0 -1 198 198 198 255
0.81196606 -0.094349995 0.73089105 0 -0 -1 198 198 198 255
0.75945336 -0.109349996 0.73089105 0 -0 -1 198 198 198 255
0.75945336 -0.094349995 0.73089105 0 -0 -1 198 198 198 255
0.8375726 -0.03684999 0.73089105 0 -0 -1 198 198 198 255
0.75945336 -0.094349995 0.73089105 -0.3535534 -0.8660254 -0.3535534 198 198 198 255
0.72407264 -0.08684999 0.74790066 -0.3535534 -0.8660254 -0.3535534 198 198 198 255
0.7540726 -0.08684999 0.7179007 -0.3535534 -0.8660254 -0.3535534 198 198 198 255
0.73706305 -0.094349995 0.7532814 -0.3535534 -0.8660254 -0.3535534 198 198 198 255
0.8088594 -0.08684999 0.7179007 1.5869081E-18 -0.8660254 0.5 198 198 198 255
0.7486919 -0.094349995 0.7049104 1.5869081E-18 -0.8660254 0.5 198 198 198 255
0.81196606 -0.094349995 0.7049104 1.5869081E-18 -0.8660254 0.5 198 198 198 255
0.7540726 -0.08684999 0.7179007 1.5869081E-18 -0.8660254 0.5 198 198 198 255
0.8375726 -0.03684999 0.7049104 0 -0 1 198 198 198 255
0.85257256 -0.07495659 0.7049104 0 -0 1 198 198 198 255
0.85257256 -0.03684999 0.7049104 0 -0 1 198 198 198 255
0.8375726 -0.06874339 0.7049104 0 -0 1 198 198 198 255
0.8181792 -0.109349996 0.7049104 0 -0 1 198 198 198 255
0.81196606 -0.094349995 0.7049104 0 -0 1 198 198 198 255
0.7486919 -0.109349996 0.7049104 0 -0 1 198 198 198 255
0.7486919 -0.094349995 0.7049104 0 -0 1 198 198 198 255
0.8375726 -0.03684999 0.7049104 0.8660254 -8.02992E-18 0.5 198 198 198 255
0.8300727 -0.0656368 0.7179007 0.8660254 -8.02992E-18 0.5 198 198 198 255
0.8375726 -0.06874339 0.7049104 0.8660254 -8.02992E-18 0.5 198 198 198 255
0.8300727 -0.03684999 0.7179007 0.8660254 -8.02992E-18 0.5 198 198 198 255
0.73706305 -0.094349995 0.7532814 -0.70710677 -0 -0.70710677 198 198 198 255
0.75945336 -0.109349996 0.73089105 -0.70710677 -0 -0.70710677 198 198 198 255
0.73706305 -0.109349996 0.7532814 -0.70710677 -0 -0.70710677 198 198 198 255
0.75945336 -0.094349995 0.73089105 -0.70710677 -0 -0.70710677 198 198 198 255
0.85257256 -0.07495659 0.73089105 -0.8660254 5.8806193E-18 -0.5 198 198 198 255
0.8600727 -0.03684999 0.7179007 -0.8660254 5.8806193E-18 -0.5 198 198 198 255
0.8600727 -0.07806318 0.7179007 -0.8660254 5.8806193E-18 -0.5 198 198 198 255
0.85257256 -0.03684999 0.73089105 -0.8660254 5.8806193E-18 -0.5 198 198 198 255
0.8181792 -0.109349996 0.73089105 -0.6123724 0.6123724 -0.5 198 198 198 255
0.8600727 -0.07806318 0.7179007 -0.6123724 0.6123724 -0.5 198 198 198 255
0.8212859 -0.11685 0.7179007 -0.6123724 0.6123724 -0.5 198 198 198 255
0.85257256 -0.07495659 0.73089105 -0.6123724 0.6123724 -0.5 198 198 198 255
0.75945336 -0.109349996 0.73089105 1.8606022E-18 0.8660254 -0.5 198 198 198 255
0.8212859 -0.11685 0.7179007 1.8606022E-18 0.8660254 -0.5 198 198 198 255
0.7540726 -0.11685 0.7179007 1.8606022E-18 0.8660254 -0.5 198 198 198 255
0.8181792 -0.109349996 0.73089105 1.8606022E-18 0.8660254 -0.5 198 198 198 255
0.73706305 -0.094349995 0.7532814 -0.5 -0.8660254 -2.525125E-19 198 198 198 255
0.72407264 -0.08684999 1.2769005 -0.5 -0.8660254 -2.525125E-19 198 198 198 255
0.72407264 -0.08684999 0.74790066 -0.5 -0.8660254 -2.525125E-19 198 198 198 255
0.73706305 -0.094349995 1.2715199 -0.5 -0.8660254 -2.525125E-19 198 198 198 255
0.7540726 -0.08684999 0.7179007 0.3535534 -0.8660254 0.3535534 198 198 198 255
0.7110824 -0.094349995 0.7425199 0.3535534 -0.8660254 0.3535534 198 198 198 255
0.7486919 -0.094349995 0.7049104 0.3535534 -0.8660254 0.3535534 198 198 198 255
0.72407264 -0.08684999 0.74790066 0.3535534 -0.8660254 0.3535534 198 198 198 255
0.7110824 -0.094349995 0.7425199 0.70710677 -0 0.70710677 198 198 198 255
0.7486919 -0.109349996 0.7049104 0.70710677 -0 0.70710677 198 198 198 255
0.7486919 -0.094349995 0.7049104 0.70710677 -0 0.70710677 198 198 198 255
0.7110824 -0.109349996 0.7425199 0.70710677 -0 0.70710677 198 198 198 255
0.7540726 -0.11685 0.7179007 -3.964797E-18 0.8660254 0.5 198 198 198 255
0.8181792 -0.109349996 0.7049104 -3.964797E-18 0.8660254 0.5 198 198 198 255
0.7486919 -0.109349996 0.7049104 -3.964797E-18 0.8660254 0.5 198 198 198 255
0.8212859 -0.11685 0.7179007 -3.964797E-18 0.8660254 0.5 198 198 198 255
0.8600727 -0.07806318 0.7179007 -0.6123724 0.6123724 0.5 198 198 198 255
0.8181792 -0.109349996 0.7049104 -0.6123724 0.6123724 0.5 198 198 198 255
0.8212859 -0.11685 0.7179007 -0.6123724 0.6123724 0.5 198 198 198 255
0.85257256 -0.07495659 0.7049104 -0.6123724 0.6123724 0.5 198 198 198 255
0.8600727 -0.03684999 0.7179007 -0.8660254 1.1761241E-18 0.5 198 198 198 255
0.85257256 -0.07495659 0.7049104 -0.8660254 1.1761241E-18 0.5 198 198 198 255
0.8600727 -0.07806318 0.7179007 -0.8660254 1.1761241E-18 0.5 198 198 198 255
0.85257256 -0.03684999 0.7049104 -0.8660254 1.1761241E-18 0.5 198 198 198 255
0.73706305 -0.094349995 1.2715199 -1 -0 -0 198 198 198 255
0.73706305 -0.109349996 0.7532814 -1 -0 -0 198 198 198 255
0.73706305 -0.109349996 1.2715199 -1 -0 -0 198 198 198 255
0.73706305 -0.094349995 0.7532814 -1 -0 -0 198 198 198 255
0.72407264 -0.11685 0.74790066 -0.3535534 0.8660254 -0.3535534 198 198 198 255
0.75945336 -0.109349996 0.73089105 -0.3535534 0.8660254 -0.3535534 198 198 198 255
0.7540726 -0.11685 0.7179007 -0.3535534 0.8660254 -0.3535534 198 198 198 255
0.73706305 -0.109349996 0.7532814 -0.3535534 0.8660254 -0.3535534 198 198 198 255
0.75945336 -0.094349995 1.2939101 -0.3535534 -0.8660254 0.3535534 198 198 198 255
0.72407264 -0.08684999 1.2769005 -0.3535534 -0.8660254 0.3535534 198 198 198 255
0.73706305 -0.094349995 1.2715199 -0.3535534 -0.8660254 0.3535534 198 198 198 255
0.7540726 -0.08684999 1.3069006 -0.3535534 -0.8660254 0.3535534 198 198 198 255
0.72407264 -0.08684999 0.74790066 0.5 -0.8660254 2.424456E-19 198 198 198 255
0.7110824 -0.094349995 1.2822813 0.5 -0.8660254 2.424456E-19 198 198 198 255
0.7110824 -0.094349995 0.7425199 0.5 -0.8660254 2.424456E-19 198 198 198 255
0.72407264 -0.08684999 1.2769005 0.5 -0.8660254 2.424456E-19 198 198 198 255
0.7110824 -0.094349995 0.7425199 1 -0 -0 198 198 198 255
0.7110824 -0.109349996 1.2822813 1 -0 -0 198 198 198 255
0.7110824 -0.109349996 0.7425199 1 -0 -0 198 198 198 255
0.7110824 -0.094349995 1.2822813 1 -0 -0 198 198 198 255
0.7110824 -0.109349996 0.7425199 0.3535534 0.8660254 0.3535534 198 198 198 255
0.7540726 -0.11685 0.7179007 0.3535534 0.8660254 0.3535534 198 198 198 255
0.7486919 -0.109349996 0.7049104 0.3535534 0.8660254 0.3535534 198 198 198 255
0.72407264 -0.11685 0.74790066 0.3535534 0.8660254 0.3535534 198 198 198 255
0.75945336 -0.094349995 1.2939101 -0.70710677 -0 0.70710677 198 198 198 255
0.73706305 -0.109349996 1.2715199 -0.70710677 -0 0.70710677 198 198 198 255
0.75945336 -0.109349996 1.2939101 -0.70710677 -0 0.70710677 198 198 198 255
0.73706305 -0.094349995 1.2715199 -0.70710677 -0 0.70710677 198 198 198 255
0.72407264 -0.11685 1.2769005 -0.5 0.8660254 2.6992049E-19 198 198 198 255
0.73706305 -0.109349996 0.7532814 -0.5 0.8660254 2.6992049E-19 198 198 198 255
0.72407264 -0.11685 0.74790066 -0.5 0.8660254 2.6992049E-19 198 198 198 255
0.73706305 -0.109349996 1.2715199 -0.5 0.8660254 2.6992049E-19 198 198 198 255
0.8088594 -0.08684999 1.3069006 -3.8605E-18 -0.8660254 0.5 198 198 198 255
0.75945336 -0.094349995 1.2939101 -3.8605E-18 -0.8660254 0.5 198 198 198 255
0.81196606 -0.094349995 1.2939101 -3.8605E-18 -0.8660254 0.5 198 198 198 255
0.7540726 -0.08684999 1.3069006 -3.8605E-18 -0.8660254 0.5 198 198 198 255
0.7540726 -0.08684999 1.3069006 0.3535534 -0.8660254 -0.3535534 198 198 198 255
0.7110824 -0.094349995 1.2822813 0.3535534 -0.8660254 -0.3535534 198 198 198 255
0.72407264 -0.08684999 1.2769005 0.3535534 -0.8660254 -0.3535534 198 198 198 255
0.7486919 -0.094349995 1.319891 0.3535534 -0.8660254 -0.3535534 198 198 198 255
0.7110824 -0.109349996 1.2822813 0.70710677 -0 -0.70710677 198 198 198 255
0.7486919 -0.094349995 1.319891 0.70710677 -0 -0.70710677 198 198 198 255
0.7486919 -0.109349996 1.319891 0.70710677 -0 -0.70710677 198 198 198 255
0.7110824 -0.094349995 1.2822813 0.70710677 -0 -0.70710677 198 198 198 255
0.7110824 -0.109349996 1.2822813 0.5 0.8660254 -2.5915949E-19 198 198 198 255
0.72407264 -0.11685 0.74790066 0.5 0.8660254 -2.5915949E-19 198 198 198 255
0.7110824 -0.109349996 0.7425199 0.5 0.8660254 -2.5915949E-19 198 198 198 255
0.72407264 -0.11685 1.2769005 0.5 0.8660254 -2.5915949E-19 198 198 198 255
0.8375726 -0.03684999 1.2939101 0 -0 1 198 198 198 255
0.85257256 -0.07495659 1.2939101 0 -0 1 198 198 198 255
0.85257256 -0.03684999 1.2939101 0 -0 1 198 198 198 255
0.8375726 -0.06874339 1.2939101 0 -0 1 198 198 198 255
0.8181792 -0.109349996 1.2939101 0 -0 1 198 198 198 255
0.81196606 -0.094349995 1.2939101 0 -0 1 198 198 198 255
0.75945336 -0.109349996 1.2939101 0 -0 1 198 198 198 255
0.75945336 -0.094349995 1.2939101 0 -0 1 198 198 198 255
0.72407264 -0.11685 1.2769005 -0.3535534 0.8660254 0.3535534 198 198 198 255
0.75945336 -0.109349996 1.2939101 -0.3535534 0.8660254 0.3535534 198 198 198 255
0.73706305 -0.109349996 1.2715199 -0.3535534 0.8660254 0.3535534 198 198 198 255
0.7540726 -0.11685 1.3069006 -0.3535534 0.8660254 0.3535534 198 198 198 255
0.8375726 -0.06874339 1.2939101 0.6123724 -0.6123724 0.5 198 198 198 255
0.8088594 -0.08684999 1.3069006 0.6123724 -0.6123724 0.5 198 198 198 255
0.81196606 -0.094349995 1.2939101 0.6123724 -0.6123724 0.5 198 198 198 255
0.8300727 -0.0656368 1.3069006 0.6123724 -0.6123724 0.5 198 198 198 255
0.81196606 -0.094349995 1.319891 -5.289693E-19 -0.8660254 -0.5 198 198 198 255
0.7540726 -0.08684999 1.3069006 -5.289693E-19 -0.8660254 -0.5 198 198 198 255
0.8088594 -0.08684999 1.3069006 -5.289693E-19 -0.8660254 -0.5 198 198 198 255
0.7486919 -0.094349995 1.319891 -5.289693E-19 -0.8660254 -0.5 198 198 198 255
0.85257256 -0.07495659 1.319891 0 -0 -1 198 198 198 255
0.8375726 -0.06874339 1.319891 0 -0 -1 198 198 198 255
0.85257256 -0.03684999 1.319891 0 -0 -1 198 198 198 255
0.8181792 -0.109349996 1.319891 0 -0 -1 198 198 198 255
0.81196606 -0.094349995 1.319891 0 -0 -1 198 198 198 255
0.7486919 -0.109349996 1.319891 0 -0 -1 198 198 198 255
0.7486919 -0.094349995 1.319891 0 -0 -1 198 198 198 255
0.8375726 -0.03684999 1.319891 0 -0 -1 198 198 198 255
0.7110824 -0.109349996 1.2822813 0.3535534 0.8660254 -0.3535534 198 198 198 255
0.7540726 -0.11685 1.3069006 0.3535534 0.8660254 -0.3535534 198 198 198 255
0.72407264 -0.11685 1.2769005 0.3535534 0.8660254 -0.3535534 198 198 198 255
0.7486919 -0.109349996 1.319891 0.3535534 0.8660254 -0.3535534 198 198 198 255
0.7540726 -0.11685 1.3069006 4.418929E-18 0.8660254 0.5 198 198 198 255
0.8181792 -0.109349996 1.2939101 4.418929E-18 0.8660254 0.5 198 198 198 255
0.75945336 -0.109349996 1.2939101 4.418929E-18 0.8660254 0.5 198 198 198 255
0.8212859 -0.11685 1.3069006 4.418929E-18 0.8660254 0.5 198 198 198 255
0.8212859 -0.11685 1.3069006 -0.6123724 0.6123724 0.5 198 198 198 255
0.85257256 -0.07495659 1.2939101 -0.6123724 0.6123724 0.5 198 198 198 255
0.8181792 -0.109349996 1.2939101 -0.6123724 0.6123724 0.5 198 198 198 255
0.8600727 -0.07806318 1.3069006 -0.6123724 0.6123724 0.5 198 198 198 255
0.8600727 -0.03684999 1.3069006 -0.8660254 -3.528371E-18 0.5 198 198 198 255
0.85257256 -0.07495659 1.2939101 -0.8660254 -3.528371E-18 0.5 198 198 198 255
0.8600727 -0.07806318 1.3069006 -0.8660254 -3.528371E-18 0.5 198 198 198 255
0.85257256 -0.03684999 1.2939101 -0.8660254 -3.528371E-18 0.5 198 198 198 255
0.8375726 -0.03684999 1.2939101 0.8660254 6.0224402E-18 0.5 198 198 198 255
0.8300727 -0.0656368 1.3069006 0.8660254 6.0224402E-18 0.5 198 198 198 255
0.8375726 -0.06874339 1.2939101 0.8660254 6.0224402E-18 0.5 198 198 198 255
0.8300727 -0.03684999 1.3069006 0.8660254 6.0224402E-18 0.5 198 198 198 255
0.8375726 -0.06874339 1.319891 0.6123724 -0.6123724 -0.5 198 198 198 255
0.8088594 -0.08684999 1.3069006 0.6123724 -0.6123724 -0.5 198 198 198 255
0.8300727 -0.0656368 1.3069006 0.6123724 -0.6123724 -0.5 198 198 198 255
0.81196606 -0.094349995 1.319891 0.6123724 -0.6123724 -0.5 198 198 198 255
0.8300727 -0.0656368 1.3069006 0.8660254 -4.01496E-18 -0.5 198 198 198 255
0.8375726 -0.03684999 1.319891 0.8660254 -4.01496E-18 -0.5 198 198 198 255
0.8375726 -0.06874339 1.319891 0.8660254 -4.01496E-18 -0.5 198 198 198 255
0.8300727 -0.03684999 1.3069006 0.8660254 -4.01496E-18 -0.5 198 198 198 255
0.85257256 -0.07495659 1.319891 -0.8660254 1.1761241E-18 -0.5 198 198 198 255
0.8600727 -0.03684999 1.3069006 -0.8660254 1.1761241E-18 -0.5 198 198 198 255
0.8600727 -0.07806318 1.3069006 -0.8660254 1.1761241E-18 -0.5 198 198 198 255
0.85257256 -0.03684999 1.319891 -0.8660254 1.1761241E-18 -0.5 198 198 198 255
0.8181792 -0.109349996 1.319891 -0.6123724 0.6123724 -0.5 198 198 198 255
0.8600727 -0.07806318 1.3069006 -0.6123724 0.6123724 -0.5 198 198 198 255
0.8212859 -0.11685 1.3069006 -0.6123724 0.6123724 -0.5 198 198 198 255
0.85257256 -0.07495659 1.319891 -0.6123724 0.6123724 -0.5 198 198 198 255
0.7486919 -0.109349996 1.319891 7.929594E-19 0.8660254 -0.5 198 198 198 255
0.8212859 -0.11685 1.3069006 7.929594E-19 0.8660254 -0.5 198 198 198 255
0.7540726 -0.11685 1.3069006 7.929594E-19 0.8660254 -0.5 198 198 198 255
0.8181792 -0.109349996 1.319891 7.929594E-19 0.8660254 -0.5 198 198 198 255
0.9 0.03684999 1.5595932 0 -1 -0 198 198 198 255
0.76 0.03684999 0.659593 0 -1 -0 198 198 198 255
0.9 0.03684999 0.659593 0 -1 -0 198 198 198 255
0.76 0.03684999 1.5595932 0 -1 -0 198 198 198 255
0.6180739 0.046849992 1.3868108 1 -0 -0 255 255 255 255
0.6180739 0 1.8166853 1 -0 -0 255 255 255 255
0.6180739 0 1.3868108 1 -0 -0 255 255 255 255
0.6180739 0.046849992 1.8166853 1 -0 -0 255 255 255 255
0.543291 0 1.3163624 0.6856978 -0 -0.7278864 255 255 255 255
0.6180739 0.046849992 1.3868108 0.6856978 -0 -0.7278864 255 255 255 255
0.6180739 0 1.3868108 0.6856978 -0 -0.7278864 255 255 255 255
0.543291 0.046849992 1.3163624 0.6856978 -0 -0.7278864 255 255 255 255
0.5435107 0.046849992 1.8854637 0.6780169 -0 0.7350463 255 255 255 255
0.6180739 0 1.8166853 0.6780169 -0 0.7350463 255 255 255 255
0.6180739 0.046849992 1.8166853 0.6780169 -0 0.7350463 255 255 255 255
0.5435107 0 1.8854637 0.6780169 -0 0.7350463 255 255 255 255
0.6180739 -0.046849992 1.8166853 1 -0 -0 255 255 255 255
0.6180739 -0.046849992 1.3868108 1 -0 -0 255 255 255 255
0.47010747 0 1.2991269 0.2292384 -1.496152E-17 -0.9733703 255 255 255 255
0.543291 0.046849992 1.3163624 0.2292384 -1.496152E-17 -0.9733703 255 255 255 255
0.543291 0 1.3163624 0.2292384 -1.496152E-17 -0.9733703 255 255 255 255
0.47010747 0.046849992 1.2991269 0.2292384 -1.496152E-17 -0.9733703 255 255 255 255
0.543291 -0.046849992 1.3163624 0.6856978 2.604962E-27 -0.7278864 255 255 255 255
0.6180739 -0.046849992 1.3868108 0.6856978 2.604962E-27 -0.7278864 255 255 255 255
0.47010747 0.046849992 1.9027511 0.2292384 3.198804E-28 0.9733703 255 255 255 255
0.5435107 0 1.8854637 0.2292384 3.198804E-28 0.9733703 255 255 255 255
0.5435107 0.046849992 1.8854637 0.2292384 3.198804E-28 0.9733703 255 255 255 255
0.47010747 0 1.9027511 0.2292384 3.198804E-28 0.9733703 255 255 255 255
0.6180739 -0.046849992 1.8166853 0.6780169 -0 0.7350463 255 255 255 255
0.5435107 -0.046849992 1.8854637 0.6780169 -0 0.7350463 255 255 255 255
0.3985694 0 1.316341 -0.23395178 -1.5269149E-17 -0.97224814 255 255 255 255
0.47010747 0.046849992 1.2991269 -0.23395178 -1.5269149E-17 -0.97224814 255 255 255 255
0.47010747 0 1.2991269 -0.23395178 -1.5269149E-17 -0.97224814 255 255 255 255
0.3985694 0.046849992 1.316341 -0.23395178 -1.5269149E-17 -0.97224814 255 255 255 255
0.47010747 -0.046849992 1.2991269 0.2292384 -1.496152E-17 -0.9733703 255 255 255 255
0.543291 -0.046849992 1.3163624 0.2292384 -1.496152E-17 -0.9733703 255 255 255 255
0.3985694 0.046849992 1.8855366 -0.23395178 1.5269149E-17 0.97224814 255 255 255 255
0.47010747 0 1.9027511 -0.23395178 1.5269149E-17 0.97224814 255 255 255 255
0.47010747 0.046849992 1.9027511 -0.23395178 1.5269149E-17 0.97224814 255 255 255 255
0.3985694 0 1.8855366 -0.23395178 1.5269149E-17 0.97224814 255 255 255 255
0.5435107 -0.046849992 1.8854637 0.2292384 -4.354376E-28 0.9733703 255 255 255 255
0.47010747 -0.046849992 1.9027511 0.2292384 -4.354376E-28 0.9733703 255 255 255 255
0.3219259 0 1.387038 -0.6780169 -4.42516E-17 -0.7350463 255 255 255 255
0.3985694 0.046849992 1.316341 -0.6780169 -4.42516E-17 -0.7350463 255 255 255 255
0.3985694 0 1.316341 -0.6780169 -4.42516E-17 -0.7350463 255 255 255 255
0.3219259 0.046849992 1.387038 -0.6780169 -4.42516E-17 -0.7350463 255 255 255 255
0.3985694 -0.046849992 1.316341 -0.23395178 -1.5269149E-17 -0.97224814 255 255 255 255
0.47010747 -0.046849992 1.2991269 -0.23395178 -1.5269149E-17 -0.97224814 255 255 255 255
0.3219259 0.046849992 1.8148398 -0.6780169 4.42516E-17 0.7350463 255 255 255 255
0.3985694 0 1.8855366 -0.6780169 4.42516E-17 0.7350463 255 255 255 255
0.3985694 0.046849992 1.8855366 -0.6780169 4.42516E-17 0.7350463 255 255 255 255
0.3219259 0 1.8148398 -0.6780169 4.42516E-17 0.7350463 255 255 255 255
0.47010747 -0.046849992 1.9027511 -0.23395178 1.5269149E-17 0.97224814 255 255 255 255
0.3985694 -0.046849992 1.8855366 -0.23395178 1.5269149E-17 0.97224814 255 255 255 255
0.3219259 0.046849992 1.8148398 -1 -0 -0 255 255 255 255
0.3219259 0 1.387038 -1 -0 -0 255 255 255 255
0.3219259 0 1.8148398 -1 -0 -0 255 255 255 255
0.3219259 0.046849992 1.387038 -1 -0 -0 255 255 255 255
0.3219259 -0.046849992 1.387038 -0.6780169 -4.42516E-17 -0.7350463 255 255 255 255
0.3985694 -0.046849992 1.316341 -0.6780169 -4.42516E-17 -0.7350463 255 255 255 255
0.3985694 -0.046849992 1.8855366 -0.6780169 4.42516E-17 0.7350463 255 255 255 255
0.3219259 -0.046849992 1.8148398 -0.6780169 4.42516E-17 0.7350463 255 255 255 255
0.3219259 -0.046849992 1.387038 -1 -0 -0 255 255 255 255
0.3219259 -0.046849992 1.8148398 -1 -0 -0 255 255 255 255
0.377954 0.046849992 1.2831513 0.23395178 -9.754031E-27 0.97224814 255 255 255 255
0.47000003 0.03684999 1.2610022 0.23395178 -9.754031E-27 0.97224814 255 255 255 255
0.47000003 0.046849992 1.2610022 0.23395178 -9.754031E-27 0.97224814 255 255 255 255
0.377954 0.03684999 1.2831513 0.23395178 -9.754031E-27 0.97224814 255 255 255 255
0.47000003 0.046849992 1.2610022 -0.2292384 -9.5575175E-27 0.9733703 255 255 255 255
0.56404686 0.03684999 1.2831513 -0.2292384 -9.5575175E-27 0.9733703 255 255 255 255
0.56404686 0.046849992 1.2831513 -0.2292384 -9.5575175E-27 0.9733703 255 255 255 255
0.47000003 0.03684999 1.2610022 -0.2292384 -9.5575175E-27 0.9733703 255 255 255 255
0.56404686 0.046849992 1.2831513 0 -1 -0 255 255 255 255
0.377954 0.046849992 1.2831513 0 -1 -0 255 255 255 255
0.47000003 0.046849992 1.2610022 0 -1 -0 255 255 255 255
0.47010747 0.046849992 1.2991269 0 -1 -0 255 255 255 255
0.543291 0.046849992 1.3163624 0 -1 -0 255 255 255 255
0.6580939 0.046849992 1.3717471 0 -1 -0 255 255 255 255
0.6180739 0.046849992 1.3868108 0 -1 -0 255 255 255 255
0.6580939 0.046849992 1.8319763 0 -1 -0 255 255 255 255
0.6180739 0.046849992 1.8166853 0 -1 -0 255 255 255 255
0.5435107 0.046849992 1.8854637 0 -1 -0 255 255 255 255
0.56404686 0.046849992 1.9187264 0 -1 -0 255 255 255 255
0.47010747 0.046849992 1.9027511 0 -1 -0 255 255 255 255
0.3985694 0.046849992 1.316341 0 -1 -0 255 255 255 255
0.28190598 0.046849992 1.3717471 0 -1 -0 255 255 255 255
0.3219259 0.046849992 1.387038 0 -1 -0 255 255 255 255
0.28190598 0.046849992 1.8301305 0 -1 -0 255 255 255 255
0.3219259 0.046849992 1.8148398 0 -1 -0 255 255 255 255
0.3985694 0.046849992 1.8855366 0 -1 -0 255 255 255 255
0.377954 0.046849992 1.9187264 0 -1 -0 255 255 255 255
0.47000003 0.046849992 1.9408753 0 -1 -0 255 255 255 255
0.28190598 0.046849992 1.3717471 0.6780169 -0 0.7350463 255 255 255 255
0.377954 0.03684999 1.2831513 0.6780169 -0 0.7350463 255 255 255 255
0.377954 0.046849992 1.2831513 0.6780169 -0 0.7350463 255 255 255 255
0.28190598 0.03684999 1.3717471 0.6780169 -0 0.7350463 255 255 255 255
0.56404686 0.046849992 1.2831513 -0.6856978 -0 0.7278864 255 255 255 255
0.6580939 0.03684999 1.3717471 -0.6856978 -0 0.7278864 255 255 255 255
0.6580939 0.046849992 1.3717471 -0.6856978 -0 0.7278864 255 255 255 255
0.56404686 0.03684999 1.2831513 -0.6856978 -0 0.7278864 255 255 255 255
0.377954 0.03684999 1.9187264 0.23395178 9.754031E-27 -0.97224814 255 255 255 255
0.47000003 0.046849992 1.9408753 0.23395178 9.754031E-27 -0.97224814 255 255 255 255
0.47000003 0.03684999 1.9408753 0.23395178 9.754031E-27 -0.97224814 255 255 255 255
0.377954 0.046849992 1.9187264 0.23395178 9.754031E-27 -0.97224814 255 255 255 255
0.28190598 0.03684999 1.8301305 0.6780169 5.653642E-26 -0.7350463 255 255 255 255
0.377954 0.046849992 1.9187264 0.6780169 5.653642E-26 -0.7350463 255 255 255 255
0.377954 0.03684999 1.9187264 0.6780169 5.653642E-26 -0.7350463 255 255 255 255
0.28190598 0.046849992 1.8301305 0.6780169 5.653642E-26 -0.7350463 255 255 255 255
0.28190598 0.046849992 1.3717471 1 -0 -0 255 255 255 255
0.28190598 0.03684999 1.8301305 1 -0 -0 255 255 255 255
0.28190598 0.03684999 1.3717471 1 -0 -0 255 255 255 255
0.28190598 0.046849992 1.8301305 1 -0 -0 255 255 255 255
0.6580939 0.046849992 1.8319763 -1 -0 -0 255 255 255 255
0.6580939 0.03684999 1.3717471 -1 -0 -0 255 255 255 255
0.6580939 0.03684999 1.8319763 -1 -0 -0 255 255 255 255
0.6580939 0.046849992 1.3717471 -1 -0 -0 255 255 255 255
0.56404686 0.03684999 1.9187264 -0.6780169 -0 -0.7350463 255 255 255 255
0.6580939 0.046849992 1.8319763 -0.6780169 -0 -0.7350463 255 255 255 255
0.6580939 0.03684999 1.8319763 -0.6780169 -0 -0.7350463 255 255 255 255
0.56404686 0.046849992 1.9187264 -0.6780169 -0 -0.7350463 255 255 255 255
0.47000003 0.03684999 1.9408753 -0.2292384 9.5575175E-27 -0.9733703 255 255 255 255
0.56404686 0.046849992 1.9187264 -0.2292384 9.5575175E-27 -0.9733703 255 255 255 255
0.56404686 0.03684999 1.9187264 -0.2292384 9.5575175E-27 -0.9733703 255 255 255 255
0.47000003 0.046849992 1.9408753 -0.2292384 9.5575175E-27 -0.9733703 255 255 255 255
0.9399998 0.03684999 0.19999999 0 -1 -0 255 255 255 255
0.9 0.03684999 0.659593 0 -1 -0 255 255 255 255
-0 0.03684999 0.19999999 0 -1 -0 255 255 255 255
0.9399998 0.03684999 2.1158776 0 -1 -0 255 255 255 255
0.9 0.03684999 1.5595932 0 -1 -0 255 255 255 255
0.76 0.03684999 1.5595932 0 -1 -0 255 255 255 255
0.6580939 0.03684999 1.8319763 0 -1 -0 255 255 255 255
0.56404686 0.03684999 1.9187264 0 -1 -0 255 255 255 255
0.47000003 0.03684999 1.9408753 0 -1 -0 255 255 255 255
0.28190598 0.03684999 1.3717471 0 -1 -0 255 255 255 255
-0 0.03684999 2.1158776 0 -1 -0 255 255 255 255
0.76 0.03684999 0.659593 0 -1 -0 255 255 255 255
0.377954 0.03684999 1.2831513 0 -1 -0 255 255 255 255
0.47000003 0.03684999 1.2610022 0 -1 -0 255 255 255 255
0.28190598 0.03684999 1.8301305 0 -1 -0 255 255 255 255
0.377954 0.03684999 1.9187264 0 -1 -0 255 255 255 255
0.56404686 0.03684999 1.2831513 0 -1 -0 255 255 255 255
0.6580939 0.03684999 1.3717471 0 -1 -0 255 255 255 255
0.9399998 0.03684999 2.1158776 -1 -0 -0 255 255 255 255
0.9399998 -0.03684999 0 -1 -0 -0 255 255 255 255
0.9399998 -0.03684999 2.1158776 -1 -0 -0 255 255 255 255
0.9399998 0.03684999 0 -1 -0 -0 255 255 255 255
0.9399998 0.03684999 0.19999999 -1 -0 -0 255 255 255 255
-0 -0.03684999 2.1158776 0 -0 -1 255 255 255 255
0.9399998 0.03684999 2.1158776 0 -0 -1 255 255 255 255
0.9399998 -0.03684999 2.1158776 0 -0 -1 255 255 255 255
-0 0.03684999 2.1158776 0 -0 -1 255 255 255 255
-0 0.03684999 0 1 -0 -0 255 255 255 255
-0 -0.03684999 2.1158776 1 -0 -0 255 255 255 255
-0 -0.03684999 0 1 -0 -0 255 255 255 255
-0 0.03684999 2.1158776 1 -0 -0 255 255 255 255
-0 0.03684999 0.19999999 1 -0 -0 255 255 255 255
-0 0.03684999 0 0 -0 1 255 255 255 255
0.9399998 -0.03684999 0 0 -0 1 255 255 255 255
0.9399998 0.03684999 0 0 -0 1 255 255 255 255
-0 -0.03684999 0 0 -0 1 255 255 255 255
-0 -0.03684999 0 0 1 -0 255 255 255 255
0.28190598 -0.03684999 1.3717471 0 1 -0 255 255 255 255
0.9399998 -0.03684999 0 0 1 -0 255 255 255 255
-0 -0.03684999 2.1158776 0 1 -0 255 255 255 255
0.377954 -0.03684999 1.2831513 0 1 -0 255 255 255 255
0.47000003 -0.03684999 1.2610022 0 1 -0 255 255 255 255
0.28190598 -0.03684999 1.8301305 0 1 -0 255 255 255 255
0.377954 -0.03684999 1.9187264 0 1 -0 255 255 255 255
0.47000003 -0.03684999 1.9408753 0 1 -0 255 255 255 255
0.6580939 -0.03684999 1.3717471 0 1 -0 255 255 255 255
0.9399998 -0.03684999 2.1158776 0 1 -0 255 255 255 255
0.56404686 -0.03684999 1.2831513 0 1 -0 255 255 255 255
0.6580939 -0.03684999 1.8319763 0 1 -0 255 255 255 255
0.56404686 -0.03684999 1.9187264 0 1 -0 255 255 255 255
3 0 1 2
3 1 0 3
3 1 3 4
3 4 3 5
3 5 3 6
3 5 6 7
3 5 7 8
3 8 7 9
3 10 11 12
3 12 11 13
3 11 14 13
3 14 15 13
3 13 15 16
3 16 15 17
3 15 18 17
3 19 17 18

