ply
format ascii 1.0
commentY29udmVydGVyIGJ5IENvZGVMZW9wYXJk
comment Original mesh name: 'C:\Program Files (x86)\Steam\steamapps\common\Stormworks\rom\meshes\equipment_impure_gold_ingot.mesh'
comment SubMesh index: 0
comment SubMesh name: 'ID2'
comment Shader: Opaque (0)
element vertex 224
property float x
property float y
property float z
property float nx
property float ny
property float nz
property uchar red
property uchar green
property uchar blue
property uchar alpha
element face 112
property list uchar ushort vertex_index
end_header
0.02999999 0.049999997 -0.114999995 0 -1 -0 102 75 0 255
-0.030000012 0.049999997 0.114999995 0 -1 -0 102 75 0 255
-0.02999999 0.049999997 -0.114999995 0 -1 -0 102 75 0 255
0.02999999 0.049999997 0.114999995 0 -1 -0 102 75 0 255
-0.02999999 0.049999997 -0.114999995 0.70710677 -0.70710677 1.0536779E-08 102 75 0 255
-0.03999999 0.03999999 0.114999995 0.70710677 -0.70710677 1.0536779E-08 102 75 0 255
-0.03999999 0.03999999 -0.114999995 0.70710677 -0.70710677 1.0536779E-08 102 75 0 255
-0.030000012 0.049999997 0.114999995 0.70710677 -0.70710677 1.0536779E-08 102 75 0 255
0.02999999 0.03999999 -0.125 -1.0536769E-08 -0.70710677 0.70710677 102 75 0 255
-0.02999999 0.049999997 -0.114999995 -1.0536769E-08 -0.70710677 0.70710677 102 75 0 255
-0.02999999 0.03999999 -0.125 -1.0536769E-08 -0.70710677 0.70710677 102 75 0 255
0.02999999 0.049999997 -0.114999995 -1.0536769E-08 -0.70710677 0.70710677 102 75 0 255
0.03999999 0.03999999 -0.114999995 -1.251705E-08 -7.4470486E-16 1 102 75 0 255
0.02999999 -0.049999997 -0.114999995 -1.251705E-08 -7.4470486E-16 1 102 75 0 255
0.03999999 -0.03999999 -0.114999995 -1.251705E-08 -7.4470486E-16 1 102 75 0 255
0.02999999 0.049999997 -0.114999995 -1.251705E-08 -7.4470486E-16 1 102 75 0 255
-0.02999999 0.049999997 -0.114999995 -1.251705E-08 -7.4470486E-16 1 102 75 0 255
-0.02999999 -0.049999997 -0.114999995 -1.251705E-08 -7.4470486E-16 1 102 75 0 255
-0.03999999 0.03999999 -0.114999995 -1.251705E-08 -7.4470486E-16 1 102 75 0 255
-0.03999999 -0.03999999 -0.114999995 -1.251705E-08 -7.4470486E-16 1 102 75 0 255
0.03999999 0.03999999 0.114999995 -0.70710677 -0.70710677 -1.0347018E-08 102 75 0 255
0.02999999 0.049999997 -0.114999995 -0.70710677 -0.70710677 -1.0347018E-08 102 75 0 255
0.03999999 0.03999999 -0.114999995 -0.70710677 -0.70710677 -1.0347018E-08 102 75 0 255
0.02999999 0.049999997 0.114999995 -0.70710677 -0.70710677 -1.0347018E-08 102 75 0 255
0.02999999 0.049999997 0.114999995 1.0536769E-08 -0.70710677 -0.70710677 102 75 0 255
-0.030000012 0.03999999 0.125 1.0536769E-08 -0.70710677 -0.70710677 102 75 0 255
-0.030000012 0.049999997 0.114999995 1.0536769E-08 -0.70710677 -0.70710677 102 75 0 255
0.02999999 0.03999999 0.125 1.0536769E-08 -0.70710677 -0.70710677 102 75 0 255
0.03999999 -0.03999999 0.114999995 1.251705E-08 1.912075E-15 -1 102 75 0 255
0.02999999 0.049999997 0.114999995 1.251705E-08 1.912075E-15 -1 102 75 0 255
0.03999999 0.03999999 0.114999995 1.251705E-08 1.912075E-15 -1 102 75 0 255
0.02999999 -0.049999997 0.114999995 1.251705E-08 1.912075E-15 -1 102 75 0 255
-0.030000012 -0.049999997 0.114999995 1.251705E-08 1.912075E-15 -1 102 75 0 255
-0.030000012 0.049999997 0.114999995 1.251705E-08 1.912075E-15 -1 102 75 0 255
-0.03999999 -0.03999999 0.114999995 1.251705E-08 1.912075E-15 -1 102 75 0 255
-0.03999999 0.03999999 0.114999995 1.251705E-08 1.912075E-15 -1 102 75 0 255
-0.03999999 0.03999999 -0.114999995 0.57735026 -0.57735026 0.57735026 102 75 0 255
-0.02999999 0.03999999 -0.125 0.57735026 -0.57735026 0.57735026 102 75 0 255
-0.02999999 0.049999997 -0.114999995 0.57735026 -0.57735026 0.57735026 102 75 0 255
-0.030000012 0.049999997 0.114999995 0.57735026 -0.57735026 -0.57735026 102 75 0 255
-0.030000012 0.03999999 0.125 0.57735026 -0.57735026 -0.57735026 102 75 0 255
-0.03999999 0.03999999 0.114999995 0.57735026 -0.57735026 -0.57735026 102 75 0 255
-0.03999999 0.03999999 -0.114999995 1 3.85768E-10 1.4767079E-08 102 75 0 255
-0.03999999 -0.03999999 0.114999995 1 3.85768E-10 1.4767079E-08 102 75 0 255
-0.03999999 -0.03999999 -0.114999995 1 3.85768E-10 1.4767079E-08 102 75 0 255
-0.03999999 0.03999999 0.114999995 1 3.85768E-10 1.4767079E-08 102 75 0 255
0.02999999 0.049999997 -0.114999995 -0.57735026 -0.57735026 0.57735026 102 75 0 255
0.02999999 0.03999999 -0.125 -0.57735026 -0.57735026 0.57735026 102 75 0 255
0.03999999 0.03999999 -0.114999995 -0.57735026 -0.57735026 0.57735026 102 75 0 255
-0.02999999 0.03999999 -0.125 -1.490125E-08 -8.4598993E-16 1 102 75 0 255
0.02999999 -0.03999999 -0.125 -1.490125E-08 -8.4598993E-16 1 102 75 0 255
0.02999999 0.03999999 -0.125 -1.490125E-08 -8.4598993E-16 1 102 75 0 255
-0.02999999 -0.03999999 -0.125 -1.490125E-08 -8.4598993E-16 1 102 75 0 255
-0.03999999 -0.03999999 -0.114999995 0.70710677 0.70710677 1.04419E-08 102 75 0 255
-0.030000012 -0.049999997 0.114999995 0.70710677 0.70710677 1.04419E-08 102 75 0 255
-0.02999999 -0.049999997 -0.114999995 0.70710677 0.70710677 1.04419E-08 102 75 0 255
-0.03999999 -0.03999999 0.114999995 0.70710677 0.70710677 1.04419E-08 102 75 0 255
-0.030000012 -0.049999997 0.114999995 0 1 -0 102 75 0 255
0.02999999 -0.049999997 -0.114999995 0 1 -0 102 75 0 255
-0.02999999 -0.049999997 -0.114999995 0 1 -0 102 75 0 255
0.02999999 -0.049999997 0.114999995 0 1 -0 102 75 0 255
0.03999999 -0.03999999 0.114999995 -0.70710677 0.70710677 -1.0536779E-08 102 75 0 255
0.02999999 -0.049999997 -0.114999995 -0.70710677 0.70710677 -1.0536779E-08 102 75 0 255
0.02999999 -0.049999997 0.114999995 -0.70710677 0.70710677 -1.0536779E-08 102 75 0 255
0.03999999 -0.03999999 -0.114999995 -0.70710677 0.70710677 -1.0536779E-08 102 75 0 255
0.03999999 0.03999999 0.114999995 -1 6.485084E-25 -1.46328984E-08 102 75 0 255
0.03999999 -0.03999999 -0.114999995 -1 6.485084E-25 -1.46328984E-08 102 75 0 255
0.03999999 -0.03999999 0.114999995 -1 6.485084E-25 -1.46328984E-08 102 75 0 255
0.03999999 0.03999999 -0.114999995 -1 6.485084E-25 -1.46328984E-08 102 75 0 255
0.02999999 0.03999999 0.125 -0.57735026 -0.57735026 -0.57735026 102 75 0 255
0.02999999 0.049999997 0.114999995 -0.57735026 -0.57735026 -0.57735026 102 75 0 255
0.03999999 0.03999999 0.114999995 -0.57735026 -0.57735026 -0.57735026 102 75 0 255
-0.030000012 -0.03999999 0.125 1.490125E-08 4.088951E-15 -1 102 75 0 255
0.02999999 0.03999999 0.125 1.490125E-08 4.088951E-15 -1 102 75 0 255
0.02999999 -0.03999999 0.125 1.490125E-08 4.088951E-15 -1 102 75 0 255
-0.030000012 0.03999999 0.125 1.490125E-08 4.088951E-15 -1 102 75 0 255
-0.03999999 -0.03999999 0.114999995 -0.57735026 -0.57735026 0.57735026 102 75 0 255
-0.030000012 -0.049999997 0.114999995 -0.57735026 -0.57735026 0.57735026 102 75 0 255
-0.030000012 -0.03999999 0.125 -0.57735026 -0.57735026 0.57735026 102 75 0 255
-0.03999999 0.03999999 -0.114999995 0.70710677 -1.5985788E-15 0.70710677 102 75 0 255
-0.02999999 -0.03999999 -0.125 0.70710677 -1.5985788E-15 0.70710677 102 75 0 255
-0.02999999 0.03999999 -0.125 0.70710677 -1.5985788E-15 0.70710677 102 75 0 255
-0.03999999 -0.03999999 -0.114999995 0.70710677 -1.5985788E-15 0.70710677 102 75 0 255
-0.03999999 0.03999999 0.114999995 0.70710677 2.7278427E-10 -0.70710677 102 75 0 255
-0.030000012 -0.03999999 0.125 0.70710677 2.7278427E-10 -0.70710677 102 75 0 255
-0.03999999 -0.03999999 0.114999995 0.70710677 2.7278427E-10 -0.70710677 102 75 0 255
-0.030000012 0.03999999 0.125 0.70710677 2.7278427E-10 -0.70710677 102 75 0 255
0.03999999 0.03999999 -0.114999995 -0.70710677 -2.7277958E-10 0.70710677 102 75 0 255
0.02999999 -0.03999999 -0.125 -0.70710677 -2.7277958E-10 0.70710677 102 75 0 255
0.03999999 -0.03999999 -0.114999995 -0.70710677 -2.7277958E-10 0.70710677 102 75 0 255
0.02999999 0.03999999 -0.125 -0.70710677 -2.7277958E-10 0.70710677 102 75 0 255
-0.02999999 -0.049999997 -0.114999995 -1.0536769E-08 0.70710677 0.70710677 102 75 0 255
0.02999999 -0.03999999 -0.125 -1.0536769E-08 0.70710677 0.70710677 102 75 0 255
-0.02999999 -0.03999999 -0.125 -1.0536769E-08 0.70710677 0.70710677 102 75 0 255
0.02999999 -0.049999997 -0.114999995 -1.0536769E-08 0.70710677 0.70710677 102 75 0 255
-0.03999999 -0.03999999 -0.114999995 0.57735026 0.57735026 0.57735026 102 75 0 255
-0.02999999 -0.049999997 -0.114999995 0.57735026 0.57735026 0.57735026 102 75 0 255
-0.02999999 -0.03999999 -0.125 0.57735026 0.57735026 0.57735026 102 75 0 255
-0.030000012 -0.049999997 0.114999995 1.0536779E-08 0.70710677 -0.70710677 102 75 0 255
0.02999999 -0.03999999 0.125 1.0536779E-08 0.70710677 -0.70710677 102 75 0 255
0.02999999 -0.049999997 0.114999995 1.0536779E-08 0.70710677 -0.70710677 102 75 0 255
-0.030000012 -0.03999999 0.125 1.0536779E-08 0.70710677 -0.70710677 102 75 0 255
0.02999999 -0.03999999 -0.125 -0.57735026 0.57735026 0.57735026 102 75 0 255
0.02999999 -0.049999997 -0.114999995 -0.57735026 0.57735026 0.57735026 102 75 0 255
0.03999999 -0.03999999 -0.114999995 -0.57735026 0.57735026 0.57735026 102 75 0 255
0.02999999 -0.03999999 0.125 -0.57735026 0.57735026 -0.57735026 102 75 0 255
0.03999999 -0.03999999 0.114999995 -0.57735026 0.57735026 -0.57735026 102 75 0 255
0.02999999 -0.049999997 0.114999995 -0.57735026 0.57735026 -0.57735026 102 75 0 255
0.03999999 -0.03999999 0.114999995 -0.70710677 2.7277958E-10 -0.70710677 102 75 0 255
0.02999999 0.03999999 0.125 -0.70710677 2.7277958E-10 -0.70710677 102 75 0 255
0.03999999 0.03999999 0.114999995 -0.70710677 2.7277958E-10 -0.70710677 102 75 0 255
0.02999999 -0.03999999 0.125 -0.70710677 2.7277958E-10 -0.70710677 102 75 0 255
0.02999999 0.049999997 0.114999995 0 1 -0 153 113 0 255
0.02999999 0.049999997 -0.114999995 0 1 -0 153 113 0 255
-0.030000012 0.049999997 0.114999995 0 1 -0 153 113 0 255
-0.02999999 0.049999997 -0.114999995 0 1 -0 153 113 0 255
-0.030000012 0.049999997 0.114999995 -0.70710677 0.70710677 -1.0536779E-08 153 113 0 255
-0.02999999 0.049999997 -0.114999995 -0.70710677 0.70710677 -1.0536779E-08 153 113 0 255
-0.03999999 0.03999999 0.114999995 -0.70710677 0.70710677 -1.0536779E-08 153 113 0 255
-0.03999999 0.03999999 -0.114999995 -0.70710677 0.70710677 -1.0536779E-08 153 113 0 255
0.02999999 0.049999997 -0.114999995 1.0536769E-08 0.70710677 -0.70710677 153 113 0 255
0.02999999 0.03999999 -0.125 1.0536769E-08 0.70710677 -0.70710677 153 113 0 255
-0.02999999 0.049999997 -0.114999995 1.0536769E-08 0.70710677 -0.70710677 153 113 0 255
-0.02999999 0.03999999 -0.125 1.0536769E-08 0.70710677 -0.70710677 153 113 0 255
-0.03999999 -0.03999999 -0.114999995 1.251705E-08 7.4470486E-16 -1 153 113 0 255
-0.03999999 0.03999999 -0.114999995 1.251705E-08 7.4470486E-16 -1 153 113 0 255
-0.02999999 -0.049999997 -0.114999995 1.251705E-08 7.4470486E-16 -1 153 113 0 255
-0.02999999 0.049999997 -0.114999995 1.251705E-08 7.4470486E-16 -1 153 113 0 255
0.02999999 -0.049999997 -0.114999995 1.251705E-08 7.4470486E-16 -1 153 113 0 255
0.02999999 0.049999997 -0.114999995 1.251705E-08 7.4470486E-16 -1 153 113 0 255
0.03999999 0.03999999 -0.114999995 1.251705E-08 7.4470486E-16 -1 153 113 0 255
0.03999999 -0.03999999 -0.114999995 1.251705E-08 7.4470486E-16 -1 153 113 0 255
0.02999999 0.049999997 0.114999995 0.70710677 0.70710677 1.0347018E-08 153 113 0 255
0.03999999 0.03999999 0.114999995 0.70710677 0.70710677 1.0347018E-08 153 113 0 255
0.02999999 0.049999997 -0.114999995 0.70710677 0.70710677 1.0347018E-08 153 113 0 255
0.03999999 0.03999999 -0.114999995 0.70710677 0.70710677 1.0347018E-08 153 113 0 255
0.02999999 0.03999999 0.125 -1.0536769E-08 0.70710677 0.70710677 153 113 0 255
0.02999999 0.049999997 0.114999995 -1.0536769E-08 0.70710677 0.70710677 153 113 0 255
-0.030000012 0.03999999 0.125 -1.0536769E-08 0.70710677 0.70710677 153 113 0 255
-0.030000012 0.049999997 0.114999995 -1.0536769E-08 0.70710677 0.70710677 153 113 0 255
-0.03999999 0.03999999 0.114999995 -1.251705E-08 -1.912075E-15 1 153 113 0 255
-0.03999999 -0.03999999 0.114999995 -1.251705E-08 -1.912075E-15 1 153 113 0 255
-0.030000012 0.049999997 0.114999995 -1.251705E-08 -1.912075E-15 1 153 113 0 255
-0.030000012 -0.049999997 0.114999995 -1.251705E-08 -1.912075E-15 1 153 113 0 255
0.02999999 0.049999997 0.114999995 -1.251705E-08 -1.912075E-15 1 153 113 0 255
0.02999999 -0.049999997 0.114999995 -1.251705E-08 -1.912075E-15 1 153 113 0 255
0.03999999 -0.03999999 0.114999995 -1.251705E-08 -1.912075E-15 1 153 113 0 255
0.03999999 0.03999999 0.114999995 -1.251705E-08 -1.912075E-15 1 153 113 0 255
-0.02999999 0.049999997 -0.114999995 -0.57735026 0.57735026 -0.57735026 153 113 0 255
-0.02999999 0.03999999 -0.125 -0.57735026 0.57735026 -0.57735026 153 113 0 255
-0.03999999 0.03999999 -0.114999995 -0.57735026 0.57735026 -0.57735026 153 113 0 255
-0.03999999 0.03999999 0.114999995 -0.57735026 0.57735026 0.57735026 153 113 0 255
-0.030000012 0.03999999 0.125 -0.57735026 0.57735026 0.57735026 153 113 0 255
-0.030000012 0.049999997 0.114999995 -0.57735026 0.57735026 0.57735026 153 113 0 255
-0.03999999 0.03999999 0.114999995 -1 -3.85768E-10 -1.4767079E-08 153 113 0 255
-0.03999999 0.03999999 -0.114999995 -1 -3.85768E-10 -1.4767079E-08 153 113 0 255
-0.03999999 -0.03999999 0.114999995 -1 -3.85768E-10 -1.4767079E-08 153 113 0 255
-0.03999999 -0.03999999 -0.114999995 -1 -3.85768E-10 -1.4767079E-08 153 113 0 255
0.03999999 0.03999999 -0.114999995 0.57735026 0.57735026 -0.57735026 153 113 0 255
0.02999999 0.03999999 -0.125 0.57735026 0.57735026 -0.57735026 153 113 0 255
0.02999999 0.049999997 -0.114999995 0.57735026 0.57735026 -0.57735026 153 113 0 255
-0.02999999 -0.03999999 -0.125 1.490125E-08 8.4598993E-16 -1 153 113 0 255
-0.02999999 0.03999999 -0.125 1.490125E-08 8.4598993E-16 -1 153 113 0 255
0.02999999 -0.03999999 -0.125 1.490125E-08 8.4598993E-16 -1 153 113 0 255
0.02999999 0.03999999 -0.125 1.490125E-08 8.4598993E-16 -1 153 113 0 255
-0.03999999 -0.03999999 0.114999995 -0.70710677 -0.70710677 -1.04419E-08 153 113 0 255
-0.03999999 -0.03999999 -0.114999995 -0.70710677 -0.70710677 -1.04419E-08 153 113 0 255
-0.030000012 -0.049999997 0.114999995 -0.70710677 -0.70710677 -1.04419E-08 153 113 0 255
-0.02999999 -0.049999997 -0.114999995 -0.70710677 -0.70710677 -1.04419E-08 153 113 0 255
0.02999999 -0.049999997 0.114999995 0 -1 -0 153 113 0 255
-0.030000012 -0.049999997 0.114999995 0 -1 -0 153 113 0 255
0.02999999 -0.049999997 -0.114999995 0 -1 -0 153 113 0 255
-0.02999999 -0.049999997 -0.114999995 0 -1 -0 153 113 0 255
0.03999999 -0.03999999 -0.114999995 0.70710677 -0.70710677 1.0536779E-08 153 113 0 255
0.03999999 -0.03999999 0.114999995 0.70710677 -0.70710677 1.0536779E-08 153 113 0 255
0.02999999 -0.049999997 -0.114999995 0.70710677 -0.70710677 1.0536779E-08 153 113 0 255
0.02999999 -0.049999997 0.114999995 0.70710677 -0.70710677 1.0536779E-08 153 113 0 255
0.03999999 0.03999999 -0.114999995 1 -6.485084E-25 1.46328984E-08 153 113 0 255
0.03999999 0.03999999 0.114999995 1 -6.485084E-25 1.46328984E-08 153 113 0 255
0.03999999 -0.03999999 -0.114999995 1 -6.485084E-25 1.46328984E-08 153 113 0 255
0.03999999 -0.03999999 0.114999995 1 -6.485084E-25 1.46328984E-08 153 113 0 255
0.03999999 0.03999999 0.114999995 0.57735026 0.57735026 0.57735026 153 113 0 255
0.02999999 0.049999997 0.114999995 0.57735026 0.57735026 0.57735026 153 113 0 255
0.02999999 0.03999999 0.125 0.57735026 0.57735026 0.57735026 153 113 0 255
-0.030000012 0.03999999 0.125 -1.490125E-08 -4.088951E-15 1 153 113 0 255
-0.030000012 -0.03999999 0.125 -1.490125E-08 -4.088951E-15 1 153 113 0 255
0.02999999 0.03999999 0.125 -1.490125E-08 -4.088951E-15 1 153 113 0 255
0.02999999 -0.03999999 0.125 -1.490125E-08 -4.088951E-15 1 153 113 0 255
-0.030000012 -0.03999999 0.125 0.57735026 0.57735026 -0.57735026 153 113 0 255
-0.030000012 -0.049999997 0.114999995 0.57735026 0.57735026 -0.57735026 153 113 0 255
-0.03999999 -0.03999999 0.114999995 0.57735026 0.57735026 -0.57735026 153 113 0 255
-0.03999999 -0.03999999 -0.114999995 -0.70710677 1.5985788E-15 -0.70710677 153 113 0 255
-0.03999999 0.03999999 -0.114999995 -0.70710677 1.5985788E-15 -0.70710677 153 113 0 255
-0.02999999 -0.03999999 -0.125 -0.70710677 1.5985788E-15 -0.70710677 153 113 0 255
-0.02999999 0.03999999 -0.125 -0.70710677 1.5985788E-15 -0.70710677 153 113 0 255
-0.030000012 0.03999999 0.125 -0.70710677 -2.7278427E-10 0.70710677 153 113 0 255
-0.03999999 0.03999999 0.114999995 -0.70710677 -2.7278427E-10 0.70710677 153 113 0 255
-0.030000012 -0.03999999 0.125 -0.70710677 -2.7278427E-10 0.70710677 153 113 0 255
-0.03999999 -0.03999999 0.114999995 -0.70710677 -2.7278427E-10 0.70710677 153 113 0 255
0.02999999 0.03999999 -0.125 0.70710677 2.7277958E-10 -0.70710677 153 113 0 255
0.03999999 0.03999999 -0.114999995 0.70710677 2.7277958E-10 -0.70710677 153 113 0 255
0.02999999 -0.03999999 -0.125 0.70710677 2.7277958E-10 -0.70710677 153 113 0 255
0.03999999 -0.03999999 -0.114999995 0.70710677 2.7277958E-10 -0.70710677 153 113 0 255
0.02999999 -0.049999997 -0.114999995 1.0536769E-08 -0.70710677 -0.70710677 153 113 0 255
-0.02999999 -0.049999997 -0.114999995 1.0536769E-08 -0.70710677 -0.70710677 153 113 0 255
0.02999999 -0.03999999 -0.125 1.0536769E-08 -0.70710677 -0.70710677 153 113 0 255
-0.02999999 -0.03999999 -0.125 1.0536769E-08 -0.70710677 -0.70710677 153 113 0 255
-0.02999999 -0.03999999 -0.125 -0.57735026 -0.57735026 -0.57735026 153 113 0 255
-0.02999999 -0.049999997 -0.114999995 -0.57735026 -0.57735026 -0.57735026 153 113 0 255
-0.03999999 -0.03999999 -0.114999995 -0.57735026 -0.57735026 -0.57735026 153 113 0 255
-0.030000012 -0.03999999 0.125 -1.0536779E-08 -0.70710677 0.70710677 153 113 0 255
-0.030000012 -0.049999997 0.114999995 -1.0536779E-08 -0.70710677 0.70710677 153 113 0 255
0.02999999 -0.03999999 0.125 -1.0536779E-08 -0.70710677 0.70710677 153 113 0 255
0.02999999 -0.049999997 0.114999995 -1.0536779E-08 -0.70710677 0.70710677 153 113 0 255
0.03999999 -0.03999999 -0.114999995 0.57735026 -0.57735026 -0.57735026 153 113 0 255
0.02999999 -0.049999997 -0.114999995 0.57735026 -0.57735026 -0.57735026 153 113 0 255
0.02999999 -0.03999999 -0.125 0.57735026 -0.57735026 -0.57735026 153 113 0 255
0.02999999 -0.049999997 0.114999995 0.57735026 -0.57735026 0.57735026 153 113 0 255
0.03999999 -0.03999999 0.114999995 0.57735026 -0.57735026 0.57735026 153 113 0 255
0.02999999 -0.03999999 0.125 0.57735026 -0.57735026 0.57735026 153 113 0 255
0.02999999 -0.03999999 0.125 0.70710677 -2.7277958E-10 0.70710677 153 113 0 255
0.03999999 -0.03999999 0.114999995 0.70710677 -2.7277958E-10 0.70710677 153 113 0 255
0.02999999 0.03999999 0.125 0.70710677 -2.7277958E-10 0.70710677 153 113 0 255
0.03999999 0.03999999 0.114999995 0.70710677 -2.7277958E-10 0.70710677 153 113 0 255
3 0 1 2
3 1 0 3
3 4 5 6
3 5 4 7
3 8 9 10
3 9 8 11
3 12 13 14
3 13 12 15
3 13 15 16
3 13 16 17
3 17 16 18
3 17 18 19
3 20 21 22
3 21 20 23
3 24 25 26
3 25 24 27
3 28 29 30
3 29 28 31
3 29 31 32
3 29 32 33
3 33 32 34
3 33 34 35
3 36 37 38
3 39 40 41
3 42 43 44
3 43 42 45
3 46 47 48
3 49 50 51
3 50 49 52
3 53 54 55
3 54 53 56
3 57 58 59
3 58 57 60
3 61 62 63
3 62 61 64
3 65 66 67
3 66 65 68
3 69 70 71
3 72 73 74
3 73 72 75
3 76 77 78
3 79 80 81
3 80 79 82
3 83 84 85
3 84 83 86
3 87 88 89
3 88 87 90
3 91 92 93
3 92 91 94
3 95 96 97
3 98 99 100
3 99 98 101
3 102 103 104
3 105 106 107
3 108 109 110
3 109 108 111
3 112 113 114
3 115 114 113
3 116 117 118
3 119 118 117
3 120 121 122
3 123 122 121
3 124 125 126
3 125 127 126
3 126 127 128
3 127 129 128
3 129 130 128
3 131 128 130
3 132 133 134
3 135 134 133
3 136 137 138
3 139 138 137
3 140 141 142
3 141 143 142
3 142 143 144
3 143 145 144
3 145 146 144
3 147 144 146
3 148 149 150
3 151 152 153
3 154 155 156
3 157 156 155
3 158 159 160
3 161 162 163
3 164 163 162
3 165 166 167
3 168 167 166
3 169 170 171
3 172 171 170
3 173 174 175
3 176 175 174
3 177 178 179
3 180 179 178
3 181 182 183
3 184 185 186
3 187 186 185
3 188 189 190
3 191 192 193
3 194 193 192
3 195 196 197
3 198 197 196
3 199 200 201
3 202 201 200
3 203 204 205
3 206 205 204
3 207 208 209
3 210 211 212
3 213 212 211
3 214 215 216
3 217 218 219
3 220 221 222
3 223 222 221

