ply
format ascii 1.0
commentY29udmVydGVyIGJ5IENvZGVMZW9wYXJk
comment Original mesh name: 'C:\Program Files (x86)\Steam\steamapps\common\Stormworks\rom\meshes\equipment_gold_rich_dirt.mesh'
comment SubMesh index: 0
comment SubMesh name: 'ID3'
comment Shader: Opaque (0)
element vertex 544
property float x
property float y
property float z
property float nx
property float ny
property float nz
property uchar red
property uchar green
property uchar blue
property uchar alpha
element face 196
property list uchar ushort vertex_index
end_header
0.05316339 0.076828666 -0.047307573 -0.1694462 -0.9451613 0.2792098 102 75 0 255
-0.057477098 0.088415876 -0.0752285 -0.1694462 -0.9451613 0.2792098 102 75 0 255
0.09618791 0.05807825 -0.08466949 -0.1694462 -0.9451613 0.2792098 102 75 0 255
-0.057477098 0.088415876 -0.0752285 -0.0767197 -0.6292738 0.7733877 102 75 0 255
-0.009926851 0.040222496 -0.10972454 -0.0767197 -0.6292738 0.7733877 102 75 0 255
0.09618791 0.05807825 -0.08466949 -0.0767197 -0.6292738 0.7733877 102 75 0 255
0.05316339 0.076828666 -0.047307573 -0.6759689 -0.5292244 -0.5128232 102 75 0 255
0.09618791 0.05807825 -0.08466949 -0.6759689 -0.5292244 -0.5128232 102 75 0 255
0.083815075 0.029211596 -0.038570557 -0.6759689 -0.5292244 -0.5128232 102 75 0 255
-0.057477098 0.088415876 -0.0752285 -0.2635188 -0.3869778 0.8836323 102 75 0 255
0.05316339 0.076828666 -0.047307573 -0.2635188 -0.3869778 0.8836323 102 75 0 255
0.006727467 0.104360215 -0.049098626 -0.2635188 -0.3869778 0.8836323 102 75 0 255
-0.009926851 0.040222496 -0.10972454 -0.2078893 -0.1256927 0.970043 102 75 0 255
0.041579064 -0.026628397 -0.10734849 -0.2078893 -0.1256927 0.970043 102 75 0 255
0.09618791 0.05807825 -0.08466949 -0.2078893 -0.1256927 0.970043 102 75 0 255
-0.09363891 0.004056224 -0.036029723 0.6383524 0.08199849 0.7653643 102 75 0 255
-0.009926851 0.040222496 -0.10972454 0.6383524 0.08199849 0.7653643 102 75 0 255
-0.057477098 0.088415876 -0.0752285 0.6383524 0.08199849 0.7653643 102 75 0 255
0.05316339 0.076828666 -0.047307573 -0.3490033 -0.05298488 0.9356224 102 75 0 255
0.083815075 0.029211596 -0.038570557 -0.3490033 -0.05298488 0.9356224 102 75 0 255
0.10718399 0.037236895 -0.029399049 -0.3490033 -0.05298488 0.9356224 102 75 0 255
0.09618791 0.05807825 -0.08466949 -0.8481878 0.5204985 0.09827885 102 75 0 255
0.041579064 -0.026628397 -0.10734849 -0.8481878 0.5204985 0.09827885 102 75 0 255
0.083815075 0.029211596 -0.038570557 -0.8481878 0.5204985 0.09827885 102 75 0 255
0.006727467 0.104360215 -0.049098626 -0.23954147 -0.34498218 0.90752804 102 75 0 255
0.05316339 0.076828666 -0.047307573 -0.23954147 -0.34498218 0.90752804 102 75 0 255
0.0352806 0.11624601 -0.03704384 -0.23954147 -0.34498218 0.90752804 102 75 0 255
-0.057477098 0.088415876 -0.0752285 -0.1865416 -0.5654641 0.8034006 102 75 0 255
0.006727467 0.104360215 -0.049098626 -0.1865416 -0.5654641 0.8034006 102 75 0 255
-0.04101604 0.11978147 -0.049330097 -0.1865416 -0.5654641 0.8034006 102 75 0 255
-0.009926851 0.040222496 -0.10972454 0.16247782 0.15978992 0.97368795 102 75 0 255
-0.0020781416 -0.07240643 -0.09255094 0.16247782 0.15978992 0.97368795 102 75 0 255
0.041579064 -0.026628397 -0.10734849 0.16247782 0.15978992 0.97368795 102 75 0 255
-0.057477098 0.088415876 -0.0752285 0.9218483 -0.2628152 0.2848225 102 75 0 255
-0.07439634 0.085204236 -0.023431698 0.9218483 -0.2628152 0.2848225 102 75 0 255
-0.09363891 0.004056224 -0.036029723 0.9218483 -0.2628152 0.2848225 102 75 0 255
-0.009926851 0.040222496 -0.10972454 0.6993674 -0.3568947 0.619283 102 75 0 255
-0.09363891 0.004056224 -0.036029723 0.6993674 -0.3568947 0.619283 102 75 0 255
-0.07824687 -0.021399552 -0.06808246 0.6993674 -0.3568947 0.619283 102 75 0 255
0.11542233 0.007235515 -0.023212807 -0.38852614 0.082546666 0.91773283 102 75 0 255
0.083815075 0.029211596 -0.038570557 -0.38852614 0.082546666 0.91773283 102 75 0 255
0.13159975 -0.024089694 -0.013546424 -0.38852614 0.082546666 0.91773283 102 75 0 255
0.10718399 0.037236895 -0.029399049 -0.38852614 0.082546666 0.91773283 102 75 0 255
0.05316339 0.076828666 -0.047307573 -0.1792252 0.1919139 0.964908 102 75 0 255
0.10718399 0.037236895 -0.029399049 -0.1792252 0.1919139 0.964908 102 75 0 255
0.08969628 0.055970766 -0.03637333 -0.1792252 0.1919139 0.964908 102 75 0 255
0.083815075 0.029211596 -0.038570557 -0.68391764 -0.30116206 0.66449827 102 75 0 255
0.041579064 -0.026628397 -0.10734849 -0.68391764 -0.30116206 0.66449827 102 75 0 255
0.13159975 -0.024089694 -0.013546424 -0.68391764 -0.30116206 0.66449827 102 75 0 255
-0.007234444 0.14114708 -0.023431726 -0.09103675 -0.5928385 0.8001593 102 75 0 255
0.006727467 0.104360215 -0.049098626 -0.09103675 -0.5928385 0.8001593 102 75 0 255
0.0352806 0.11624601 -0.03704384 -0.09103675 -0.5928385 0.8001593 102 75 0 255
0.067956015 0.093942694 0.041827872 -0.8624122 -0.4510757 0.2297298 102 75 0 255
0.0352806 0.11624601 -0.03704384 -0.8624122 -0.4510757 0.2297298 102 75 0 255
0.05316339 0.076828666 -0.047307573 -0.8624122 -0.4510757 0.2297298 102 75 0 255
0.07014316 0.096473075 0.05500689 -0.8624122 -0.4510757 0.2297298 102 75 0 255
-0.04101604 0.11978147 -0.049330097 0.8615681 -0.5037783 0.06251247 102 75 0 255
-0.049615443 0.10828832 -0.023431698 0.8615681 -0.5037783 0.06251247 102 75 0 255
-0.057477098 0.088415876 -0.0752285 0.8615681 -0.5037783 0.06251247 102 75 0 255
-0.04101604 0.11978147 -0.049330097 -0.2009677 -0.6106889 0.7659445 102 75 0 255
0.006727467 0.104360215 -0.049098626 -0.2009677 -0.6106889 0.7659445 102 75 0 255
-0.007234444 0.14114708 -0.023431726 -0.2009677 -0.6106889 0.7659445 102 75 0 255
-0.035371188 -0.08545297 -0.06026673 0.6546905 0.1583251 0.7391302 102 75 0 255
-0.0020781416 -0.07240643 -0.09255094 0.6546905 0.1583251 0.7391302 102 75 0 255
-0.009926851 0.040222496 -0.10972454 0.6546905 0.1583251 0.7391302 102 75 0 255
-0.0020781416 -0.07240643 -0.09255094 0.1223863 0.1976718 0.97259825 102 75 0 255
0.019705597 -0.081614114 -0.093420714 0.1223863 0.1976718 0.97259825 102 75 0 255
0.041579064 -0.026628397 -0.10734849 0.1223863 0.1976718 0.97259825 102 75 0 255
-0.07439634 0.085204236 -0.023431698 0.96987915 -0.23802297 0.05176341 102 75 0 255
-0.07960784 0.07523313 0.028365094 0.96987915 -0.23802297 0.05176341 102 75 0 255
-0.09363891 0.004056224 -0.036029723 0.96987915 -0.23802297 0.05176341 102 75 0 255
-0.07439634 0.085204236 -0.023431698 0.67114735 -0.72048026 0.17455459 102 75 0 255
-0.057477098 0.088415876 -0.0752285 0.67114735 -0.72048026 0.17455459 102 75 0 255
-0.049615443 0.10828832 -0.023431698 0.67114735 -0.72048026 0.17455459 102 75 0 255
-0.09363891 0.004056224 -0.036029723 0.6641691 -0.3964562 0.6337996 102 75 0 255
-0.101479806 -0.016187575 -0.040476095 0.6641691 -0.3964562 0.6337996 102 75 0 255
-0.07824687 -0.021399552 -0.06808246 0.6641691 -0.3964562 0.6337996 102 75 0 255
-0.07824687 -0.021399552 -0.06808246 0.3245361 0.2555978 0.9106844 102 75 0 255
-0.065315366 -0.07759987 -0.056917306 0.3245361 0.2555978 0.9106844 102 75 0 255
-0.009926851 0.040222496 -0.10972454 0.3245361 0.2555978 0.9106844 102 75 0 255
0.0997395 0.029811345 0.017931055 -0.8767127 -0.4753924 -0.07332729 102 75 0 255
0.11542233 0.007235515 -0.023212807 -0.8767127 -0.4753924 -0.07332729 102 75 0 255
0.13159975 -0.024089694 -0.013546424 -0.8767127 -0.4753924 -0.07332729 102 75 0 255
0.10413012 0.037786935 0.010165537 -0.9581476 -0.2775599 -0.0700979 102 75 0 255
0.10718399 0.037236895 -0.029399049 -0.9581476 -0.2775599 -0.0700979 102 75 0 255
0.11542233 0.007235515 -0.023212807 -0.9581476 -0.2775599 -0.0700979 102 75 0 255
0.08969628 0.055970766 -0.03637333 -0.53863066 -0.68981665 0.48376638 102 75 0 255
0.078150645 0.07448122 -0.022833737 -0.53863066 -0.68981665 0.48376638 102 75 0 255
0.05316339 0.076828666 -0.047307573 -0.53863066 -0.68981665 0.48376638 102 75 0 255
0.1208858 0.070466496 0.019023277 -0.53863066 -0.68981665 0.48376638 102 75 0 255
0.1208858 0.070466496 0.019023277 -0.71134365 -0.46921733 0.52328306 102 75 0 255
0.08969628 0.055970766 -0.03637333 -0.71134365 -0.46921733 0.52328306 102 75 0 255
0.10718399 0.037236895 -0.029399049 -0.71134365 -0.46921733 0.52328306 102 75 0 255
0.13159975 -0.024089694 -0.013546424 -0.6603289 0.4203168 0.6223339 102 75 0 255
0.019705597 -0.081614114 -0.093420714 -0.6603289 0.4203168 0.6223339 102 75 0 255
0.043912865 -0.09399702 -0.05937227 -0.6603289 0.4203168 0.6223339 102 75 0 255
0.041579064 -0.026628397 -0.10734849 -0.6603289 0.4203168 0.6223339 102 75 0 255
0.07014316 0.096473075 0.05500689 -0.5040969 -0.8636302 0.005405628 102 75 0 255
-0.007234444 0.14114708 -0.023431726 -0.5040969 -0.8636302 0.005405628 102 75 0 255
0.0352806 0.11624601 -0.03704384 -0.5040969 -0.8636302 0.005405628 102 75 0 255
0.07014316 0.096473075 0.05500689 -0.7474495 -0.6183699 0.2427715 102 75 0 255
0.067956015 0.093942694 0.041827872 -0.7474495 -0.6183699 0.2427715 102 75 0 255
0.10413012 0.037786935 0.010165537 -0.7474495 -0.6183699 0.2427715 102 75 0 255
0.067956015 0.093942694 0.041827872 -0.6577489 -0.711983 0.2458588 102 75 0 255
0.05316339 0.076828666 -0.047307573 -0.6577489 -0.711983 0.2458588 102 75 0 255
0.09097972 0.07044698 0.035382226 -0.6577489 -0.711983 0.2458588 102 75 0 255
-0.049615443 0.10828832 -0.023431698 0.60619086 -0.781861 -0.14569089 102 75 0 255
-0.04101604 0.11978147 -0.049330097 0.60619086 -0.781861 -0.14569089 102 75 0 255
-0.007234444 0.14114708 -0.023431726 0.60619086 -0.781861 -0.14569089 102 75 0 255
-0.065315366 -0.07759987 -0.056917306 0.1891455 0.3261933 0.9261868 102 75 0 255
-0.035371188 -0.08545297 -0.06026673 0.1891455 0.3261933 0.9261868 102 75 0 255
-0.009926851 0.040222496 -0.10972454 0.1891455 0.3261933 0.9261868 102 75 0 255
-0.035371188 -0.08545297 -0.06026673 0.5141027 0.4675329 0.7191046 102 75 0 255
0.013715064 -0.10605426 -0.081965365 0.5141027 0.4675329 0.7191046 102 75 0 255
-0.0020781416 -0.07240643 -0.09255094 0.5141027 0.4675329 0.7191046 102 75 0 255
-0.0020781416 -0.07240643 -0.09255094 0.19532722 0.37656942 0.90556216 102 75 0 255
0.013715064 -0.10605426 -0.081965365 0.19532722 0.37656942 0.90556216 102 75 0 255
0.019705597 -0.081614114 -0.093420714 0.19532722 0.37656942 0.90556216 102 75 0 255
-0.07960784 0.07523313 0.028365094 0.6798384 -0.7298101 -0.07209005 102 75 0 255
-0.07439634 0.085204236 -0.023431698 0.6798384 -0.7298101 -0.07209005 102 75 0 255
-0.049615443 0.10828832 -0.023431698 0.6798384 -0.7298101 -0.07209005 102 75 0 255
-0.07960784 0.07523313 0.028365094 0.8845578 -0.396548 0.24557522 102 75 0 255
-0.101479806 -0.016187575 -0.040476095 0.8845578 -0.396548 0.24557522 102 75 0 255
-0.09363891 0.004056224 -0.036029723 0.8845578 -0.396548 0.24557522 102 75 0 255
-0.101479806 -0.016187575 -0.040476095 0.6564651 -0.4139677 0.6306222 102 75 0 255
-0.103238024 -0.034748297 -0.050829846 0.6564651 -0.4139677 0.6306222 102 75 0 255
-0.07824687 -0.021399552 -0.06808246 0.6564651 -0.4139677 0.6306222 102 75 0 255
-0.103238024 -0.034748297 -0.050829846 0.444177 0.2718086 0.8537136 102 75 0 255
-0.065315366 -0.07759987 -0.056917306 0.444177 0.2718086 0.8537136 102 75 0 255
-0.07824687 -0.021399552 -0.06808246 0.444177 0.2718086 0.8537136 102 75 0 255
0.0997395 0.029811345 0.017931055 -0.8887343 -0.4250616 -0.17168 102 75 0 255
0.13159975 -0.024089694 -0.013546424 -0.8887343 -0.4250616 -0.17168 102 75 0 255
0.10566181 -0.00371536 0.07028157 -0.8887343 -0.4250616 -0.17168 102 75 0 255
0.10413012 0.037786935 0.010165537 -0.90834737 0.106199786 -0.40450785 102 75 0 255
0.11542233 0.007235515 -0.023212807 -0.90834737 0.106199786 -0.40450785 102 75 0 255
0.0997395 0.029811345 0.017931055 -0.90834737 0.106199786 -0.40450785 102 75 0 255
0.1208858 0.070466496 0.019023277 -0.8790546 0.47088 -0.07439805 102 75 0 255
0.10718399 0.037236895 -0.029399049 -0.8790546 0.47088 -0.07439805 102 75 0 255
0.10413012 0.037786935 0.010165537 -0.8790546 0.47088 -0.07439805 102 75 0 255
0.09097972 0.07044698 0.035382226 -0.033165053 -0.99753624 -0.061818544 102 75 0 255
0.078150645 0.07448122 -0.022833737 -0.033165053 -0.99753624 -0.061818544 102 75 0 255
0.1208858 0.070466496 0.019023277 -0.033165053 -0.99753624 -0.061818544 102 75 0 255
0.05316339 0.076828666 -0.047307573 -0.033165053 -0.99753624 -0.061818544 102 75 0 255
0.019705597 -0.081614114 -0.093420714 -0.64330506 0.44850773 0.62048316 102 75 0 255
0.013715064 -0.10605426 -0.081965365 -0.64330506 0.44850773 0.62048316 102 75 0 255
0.043912865 -0.09399702 -0.05937227 -0.64330506 0.44850773 0.62048316 102 75 0 255
0.13159975 -0.024089694 -0.013546424 -0.68806046 0.6446204 0.33322245 102 75 0 255
0.043912865 -0.09399702 -0.05937227 -0.68806046 0.6446204 0.33322245 102 75 0 255
0.04837549 -0.11191037 -0.01550403 -0.68806046 0.6446204 0.33322245 102 75 0 255
-0.008770358 0.080378145 0.10361324 -0.08209088 -0.8986799 -0.4308544 102 75 0 255
-0.007234444 0.14114708 -0.023431726 -0.08209088 -0.8986799 -0.4308544 102 75 0 255
0.07014316 0.096473075 0.05500689 -0.08209088 -0.8986799 -0.4308544 102 75 0 255
0.067956015 0.093942694 0.041827872 0.4981399 0.6466169 -0.5777052 102 75 0 255
0.09097972 0.07044698 0.035382226 0.4981399 0.6466169 -0.5777052 102 75 0 255
0.10413012 0.037786935 0.010165537 0.4981399 0.6466169 -0.5777052 102 75 0 255
0.07014316 0.096473075 0.05500689 -0.8364258 -0.0689452 -0.5437265 102 75 0 255
0.10413012 0.037786935 0.010165537 -0.8364258 -0.0689452 -0.5437265 102 75 0 255
0.0997395 0.029811345 0.017931055 -0.8364258 -0.0689452 -0.5437265 102 75 0 255
-0.07960784 0.07523313 0.028365094 0.6059897 -0.7816016 -0.1479032 102 75 0 255
-0.049615443 0.10828832 -0.023431698 0.6059897 -0.7816016 -0.1479032 102 75 0 255
-0.007234444 0.14114708 -0.023431726 0.6059897 -0.7816016 -0.1479032 102 75 0 255
-0.082739525 -0.08771341 -0.025353994 0.27377436 0.86169297 0.42723837 102 75 0 255
-0.035371188 -0.08545297 -0.06026673 0.27377436 0.86169297 0.42723837 102 75 0 255
-0.065315366 -0.07759987 -0.056917306 0.27377436 0.86169297 0.42723837 102 75 0 255
-0.035371188 -0.08545297 -0.06026673 0.5204329 0.5780479 0.6284984 102 75 0 255
-0.021974858 -0.11806078 -0.04136933 0.5204329 0.5780479 0.6284984 102 75 0 255
0.013715064 -0.10605426 -0.081965365 0.5204329 0.5780479 0.6284984 102 75 0 255
-0.07960784 0.07523313 0.028365094 0.96770346 -0.250789 0.02559134 102 75 0 255
-0.100060284 -0.003265147 0.032483727 0.96770346 -0.250789 0.02559134 102 75 0 255
-0.101479806 -0.016187575 -0.040476095 0.96770346 -0.250789 0.02559134 102 75 0 255
-0.101479806 -0.016187575 -0.040476095 0.9531897 -0.2110726 0.2165128 102 75 0 255
-0.11182748 -0.03918189 -0.017337356 0.9531897 -0.2110726 0.2165128 102 75 0 255
-0.103238024 -0.034748297 -0.050829846 0.9531897 -0.2110726 0.2165128 102 75 0 255
-0.103238024 -0.034748297 -0.050829846 0.669068 0.5161457 0.5347351 102 75 0 255
-0.082739525 -0.08771341 -0.025353994 0.669068 0.5161457 0.5347351 102 75 0 255
-0.065315366 -0.07759987 -0.056917306 0.669068 0.5161457 0.5347351 102 75 0 255
0.10566181 -0.00371536 0.07028157 -0.8411343 0.4048009 -0.3586492 102 75 0 255
0.13159975 -0.024089694 -0.013546424 -0.8411343 0.4048009 -0.3586492 102 75 0 255
0.085283615 -0.088426754 0.022462033 -0.8411343 0.4048009 -0.3586492 102 75 0 255
0.08596309 0.04585865 0.08756618 -0.936236 -0.3343034 -0.1081821 102 75 0 255
0.0997395 0.029811345 0.017931055 -0.936236 -0.3343034 -0.1081821 102 75 0 255
0.10566181 -0.00371536 0.07028157 -0.936236 -0.3343034 -0.1081821 102 75 0 255
0.09097972 0.07044698 0.035382226 -0.4321961 0.4356146 -0.7895862 102 75 0 255
0.1208858 0.070466496 0.019023277 -0.4321961 0.4356146 -0.7895862 102 75 0 255
0.10413012 0.037786935 0.010165537 -0.4321961 0.4356146 -0.7895862 102 75 0 255
0.030216273 -0.117720224 -0.04136933 -0.5955726 0.6747015 0.4359715 102 75 0 255
0.043912865 -0.09399702 -0.05937227 -0.5955726 0.6747015 0.4359715 102 75 0 255
0.013715064 -0.10605426 -0.081965365 -0.5955726 0.6747015 0.4359715 102 75 0 255
0.13159975 -0.024089694 -0.013546424 -0.7044109 0.6618253 0.2565004 102 75 0 255
0.04837549 -0.11191037 -0.01550403 -0.7044109 0.6618253 0.2565004 102 75 0 255
0.05832531 -0.11203836 0.012150722 -0.7044109 0.6618253 0.2565004 102 75 0 255
0.043912865 -0.09399702 -0.05937227 -0.6837899 0.6485473 0.3343915 102 75 0 255
0.030216273 -0.117720224 -0.04136933 -0.6837899 0.6485473 0.3343915 102 75 0 255
0.04837549 -0.11191037 -0.01550403 -0.6837899 0.6485473 0.3343915 102 75 0 255
-0.008770358 0.080378145 0.10361324 -0.3753005 -0.5057397 -0.7767734 102 75 0 255
0.07014316 0.096473075 0.05500689 -0.3753005 -0.5057397 -0.7767734 102 75 0 255
0.047476463 0.032672822 0.107497305 -0.3753005 -0.5057397 -0.7767734 102 75 0 255
-0.008770358 0.080378145 0.10361324 0.4604027 -0.8029672 -0.3785142 102 75 0 255
-0.07960784 0.07523313 0.028365094 0.4604027 -0.8029672 -0.3785142 102 75 0 255
-0.007234444 0.14114708 -0.023431726 0.4604027 -0.8029672 -0.3785142 102 75 0 255
0.07014316 0.096473075 0.05500689 -0.9289878 -0.355839 -0.1017853 102 75 0 255
0.0997395 0.029811345 0.017931055 -0.9289878 -0.355839 -0.1017853 102 75 0 255
0.08596309 0.04585865 0.08756618 -0.9289878 -0.355839 -0.1017853 102 75 0 255
-0.05744131 -0.10100322 -0.024649298 0.3743668 0.7421184 0.5559765 102 75 0 255
-0.035371188 -0.08545297 -0.06026673 0.3743668 0.7421184 0.5559765 102 75 0 255
-0.082739525 -0.08771341 -0.025353994 0.3743668 0.7421184 0.5559765 102 75 0 255
-0.035371188 -0.08545297 -0.06026673 0.7817486 0.5203412 0.3436775 102 75 0 255
-0.032143086 -0.114293024 -0.023944605 0.7817486 0.5203412 0.3436775 102 75 0 255
-0.021974858 -0.11806078 -0.04136933 0.7817486 0.5203412 0.3436775 102 75 0 255
-0.021974858 -0.11806078 -0.04136933 -0.0062668854 0.96040535 0.27853602 102 75 0 255
0.030216273 -0.117720224 -0.04136933 -0.0062668854 0.96040535 0.27853602 102 75 0 255
0.013715064 -0.10605426 -0.081965365 -0.0062668854 0.96040535 0.27853602 102 75 0 255
-0.07960784 0.07523313 0.028365094 0.9192113 -0.2552296 -0.2998474 102 75 0 255
-0.072503425 0.0059021637 0.10915874 0.9192113 -0.2552296 -0.2998474 102 75 0 255
-0.100060284 -0.003265147 0.032483727 0.9192113 -0.2552296 -0.2998474 102 75 0 255
-0.100060284 -0.003265147 0.032483727 0.9278928 -0.3698157 0.04744752 102 75 0 255
-0.11182748 -0.03918189 -0.017337356 0.9278928 -0.3698157 0.04744752 102 75 0 255
-0.101479806 -0.016187575 -0.040476095 0.9278928 -0.3698157 0.04744752 102 75 0 255
-0.103238024 -0.034748297 -0.050829846 0.9178908 0.2875622 0.2734675 102 75 0 255
-0.11182748 -0.03918189 -0.017337356 0.9178908 0.2875622 0.2734675 102 75 0 255
-0.099717885 -0.07783538 -0.017337356 0.9178908 0.2875622 0.2734675 102 75 0 255
-0.103238024 -0.034748297 -0.050829846 0.59332705 0.52367526 0.61133224 102 75 0 255
-0.099717885 -0.07783538 -0.017337356 0.59332705 0.52367526 0.61133224 102 75 0 255
-0.082739525 -0.08771341 -0.025353994 0.59332705 0.52367526 0.61133224 102 75 0 255
0.13159975 -0.024089694 -0.013546424 -0.69092053 0.6611085 0.29251403 102 75 0 255
0.05832531 -0.11203836 0.012150722 -0.69092053 0.6611085 0.29251403 102 75 0 255
0.085283615 -0.088426754 0.022462033 -0.69092053 0.6611085 0.29251403 102 75 0 255
0.10566181 -0.00371536 0.07028157 -0.8457297 0.4017188 -0.351231 102 75 0 255
0.085283615 -0.088426754 0.022462033 -0.8457297 0.4017188 -0.351231 102 75 0 255
0.08796802 -0.03262841 0.07981729 -0.8457297 0.4017188 -0.351231 102 75 0 255
0.08596309 0.04585865 0.08756618 -0.9029288 -0.2328288 -0.361262 102 75 0 255
0.10566181 -0.00371536 0.07028157 -0.9029288 -0.2328288 -0.361262 102 75 0 255
0.089399025 -0.002883491 0.11039218 -0.9029288 -0.2328288 -0.361262 102 75 0 255
-0.0674754 -0.10120093 0.036602363 0.081065305 0.99640626 -0.024554865 102 75 0 255
0.05832531 -0.11203836 0.012150722 0.081065305 0.99640626 -0.024554865 102 75 0 255
0.04837549 -0.11191037 -0.01550403 0.081065305 0.99640626 -0.024554865 102 75 0 255
-0.021974858 -0.11806078 -0.04136933 -0.006372669 0.9766168 -0.214893 102 75 0 255
0.04837549 -0.11191037 -0.01550403 -0.006372669 0.9766168 -0.214893 102 75 0 255
0.030216273 -0.117720224 -0.04136933 -0.006372669 0.9766168 -0.214893 102 75 0 255
-0.032143086 -0.114293024 -0.023944605 -0.006372669 0.9766168 -0.214893 102 75 0 255
0.047476463 0.032672822 0.107497305 -0.2123545 -0.5747538 -0.7902934 102 75 0 255
0.07014316 0.096473075 0.05500689 -0.2123545 -0.5747538 -0.7902934 102 75 0 255
0.08596309 0.04585865 0.08756618 -0.2123545 -0.5747538 -0.7902934 102 75 0 255
-0.008770358 0.080378145 0.10361324 0.2566173 0.2260558 -0.9397054 102 75 0 255
0.047476463 0.032672822 0.107497305 0.2566173 0.2260558 -0.9397054 102 75 0 255
0.056287974 -0.036929116 0.09316008 0.2566173 0.2260558 -0.9397054 102 75 0 255
-0.008770358 0.080378145 0.10361324 0.6177874 -0.5690808 -0.5426654 102 75 0 255
-0.072503425 0.0059021637 0.10915874 0.6177874 -0.5690808 -0.5426654 102 75 0 255
-0.07960784 0.07523313 0.028365094 0.6177874 -0.5690808 -0.5426654 102 75 0 255
-0.0674754 -0.10120093 0.036602363 0.4619089 0.8834448 0.07852036 102 75 0 255
-0.05744131 -0.10100322 -0.024649298 0.4619089 0.8834448 0.07852036 102 75 0 255
-0.082739525 -0.08771341 -0.025353994 0.4619089 0.8834448 0.07852036 102 75 0 255
-0.032143086 -0.114293024 -0.023944605 0.4619089 0.8834448 0.07852036 102 75 0 255
-0.032143086 -0.114293024 -0.023944605 0.3743668 0.7421184 0.5559765 102 75 0 255
-0.072503425 0.0059021637 0.10915874 0.89778256 0.26205918 -0.35399345 102 75 0 255
-0.06825378 -0.048596755 0.079591304 0.89778256 0.26205918 -0.35399345 102 75 0 255
-0.100060284 -0.003265147 0.032483727 0.89778256 0.26205918 -0.35399345 102 75 0 255
-0.099717885 -0.07783538 -0.017337356 0.8731609 0.273549 -0.4034364 102 75 0 255
-0.100060284 -0.003265147 0.032483727 0.8731609 0.273549 -0.4034364 102 75 0 255
-0.0674754 -0.10120093 0.036602363 0.8731609 0.273549 -0.4034364 102 75 0 255
-0.11182748 -0.03918189 -0.017337356 0.8731609 0.273549 -0.4034364 102 75 0 255
-0.0674754 -0.10120093 0.036602363 0.5219376 0.8510978 0.05668941 102 75 0 255
-0.082739525 -0.08771341 -0.025353994 0.5219376 0.8510978 0.05668941 102 75 0 255
-0.099717885 -0.07783538 -0.017337356 0.5219376 0.8510978 0.05668941 102 75 0 255
0.053314142 -0.1189931 0.042441312 -0.67038393 0.73967123 0.058923118 102 75 0 255
0.085283615 -0.088426754 0.022462033 -0.67038393 0.73967123 0.058923118 102 75 0 255
0.05832531 -0.11203836 0.012150722 -0.67038393 0.73967123 0.058923118 102 75 0 255
0.089399025 -0.002883491 0.11039218 -0.8457297 0.4017188 -0.351231 102 75 0 255
0.07836654 -0.067201085 0.06321095 -0.8435286 0.4041628 -0.3537116 102 75 0 255
0.08796802 -0.03262841 0.07981729 -0.8435286 0.4041628 -0.3537116 102 75 0 255
0.085283615 -0.088426754 0.022462033 -0.8435286 0.4041628 -0.3537116 102 75 0 255
0.07978074 -0.05895658 0.06925886 -0.8435286 0.4041628 -0.3537116 102 75 0 255
0.089399025 -0.002883491 0.11039218 -0.8435286 0.4041628 -0.3537116 102 75 0 255
0.047476463 0.032672822 0.107497305 -0.298742 -0.4219239 -0.8559985 102 75 0 255
0.08596309 0.04585865 0.08756618 -0.298742 -0.4219239 -0.8559985 102 75 0 255
0.089399025 -0.002883491 0.11039218 -0.298742 -0.4219239 -0.8559985 102 75 0 255
-0.0674754 -0.10120093 0.036602363 -0.006372669 0.9766168 -0.214893 102 75 0 255
0.053314142 -0.1189931 0.042441312 0.1299143 0.961477 0.24224842 102 75 0 255
0.05832531 -0.11203836 0.012150722 0.1299143 0.961477 0.24224842 102 75 0 255
-0.0674754 -0.10120093 0.036602363 0.1299143 0.961477 0.24224842 102 75 0 255
-0.008770358 0.080378145 0.10361324 -0.4243338 -0.1558497 -0.8919931 102 75 0 255
0.056287974 -0.036929116 0.09316008 -0.4243338 -0.1558497 -0.8919931 102 75 0 255
0.03441771 -0.055818994 0.10686454 -0.4243338 -0.1558497 -0.8919931 102 75 0 255
0.089399025 -0.002883491 0.11039218 0.2566173 0.2260558 -0.9397054 102 75 0 255
-0.072503425 0.0059021637 0.10915874 0.07013756 -0.133628 -0.9885466 102 75 0 255
0.009279175 -0.04970694 0.12247828 0.07013756 -0.133628 -0.9885466 102 75 0 255
0.012214167 -0.07085978 0.12554587 0.07013756 -0.133628 -0.9885466 102 75 0 255
-0.008770358 0.080378145 0.10361324 0.07013756 -0.133628 -0.9885466 102 75 0 255
-0.072503425 0.0059021637 0.10915874 0.5342787 0.4349124 -0.7248431 102 75 0 255
0.012214167 -0.07085978 0.12554587 0.5342787 0.4349124 -0.7248431 102 75 0 255
-0.06825378 -0.048596755 0.079591304 0.5342787 0.4349124 -0.7248431 102 75 0 255
-0.100060284 -0.003265147 0.032483727 0.8989403 0.2851053 -0.3325978 102 75 0 255
-0.06825378 -0.048596755 0.079591304 0.8989403 0.2851053 -0.3325978 102 75 0 255
-0.0674754 -0.10120093 0.036602363 0.8989403 0.2851053 -0.3325978 102 75 0 255
0.07836654 -0.067201085 0.06321095 -0.7515132 0.5241641 -0.4005994 102 75 0 255
0.085283615 -0.088426754 0.022462033 -0.7515132 0.5241641 -0.4005994 102 75 0 255
0.053314142 -0.1189931 0.042441312 -0.7515132 0.5241641 -0.4005994 102 75 0 255
0.056287974 -0.036929116 0.09316008 -0.21823028 0.6012902 -0.7686517 102 75 0 255
0.07978074 -0.05895658 0.06925886 -0.21823028 0.6012902 -0.7686517 102 75 0 255
0.07836654 -0.067201085 0.06321095 -0.21823028 0.6012902 -0.7686517 102 75 0 255
0.089399025 -0.002883491 0.11039218 -0.21823028 0.6012902 -0.7686517 102 75 0 255
-0.06825378 -0.048596755 0.079591304 0.12966092 0.62859726 -0.76684654 102 75 0 255
0.053314142 -0.1189931 0.042441312 0.12966092 0.62859726 -0.76684654 102 75 0 255
-0.0674754 -0.10120093 0.036602363 0.12966092 0.62859726 -0.76684654 102 75 0 255
0.056287974 -0.036929116 0.09316008 -0.7037694 0.3787556 -0.6010431 102 75 0 255
0.027043175 -0.088439755 0.09494308 -0.7037694 0.3787556 -0.6010431 102 75 0 255
0.03441771 -0.055818994 0.10686454 -0.7037694 0.3787556 -0.6010431 102 75 0 255
-0.008770358 0.080378145 0.10361324 -0.55121166 -0.19416012 -0.8114602 102 75 0 255
0.03441771 -0.055818994 0.10686454 -0.55121166 -0.19416012 -0.8114602 102 75 0 255
0.009279175 -0.04970694 0.12247828 -0.55121166 -0.19416012 -0.8114602 102 75 0 255
0.012214167 -0.07085978 0.12554587 -0.55121166 -0.19416012 -0.8114602 102 75 0 255
-0.06825378 -0.048596755 0.079591304 0.4086718 0.862795 -0.2976107 102 75 0 255
0.027043175 -0.088439755 0.09494308 0.4086718 0.862795 -0.2976107 102 75 0 255
0.053314142 -0.1189931 0.042441312 0.4086718 0.862795 -0.2976107 102 75 0 255
0.02225414 -0.08276227 0.104826316 0.4086718 0.862795 -0.2976107 102 75 0 255
0.012214167 -0.07085978 0.12554587 0.4086718 0.862795 -0.2976107 102 75 0 255
0.027043175 -0.088439755 0.09494308 -0.5936925 0.5299951 -0.6055034 102 75 0 255
0.07836654 -0.067201085 0.06321095 -0.5936925 0.5299951 -0.6055034 102 75 0 255
0.053314142 -0.1189931 0.042441312 -0.5936925 0.5299951 -0.6055034 102 75 0 255
0.027043175 -0.088439755 0.09494308 -0.58934665 0.30875635 -0.746552 102 75 0 255
0.056287974 -0.036929116 0.09316008 -0.58934665 0.30875635 -0.746552 102 75 0 255
0.07836654 -0.067201085 0.06321095 -0.58934665 0.30875635 -0.746552 102 75 0 255
0.03441771 -0.055818994 0.10686454 -0.7322115 0.3736361 -0.5694405 102 75 0 255
0.027043175 -0.088439755 0.09494308 -0.7322115 0.3736361 -0.5694405 102 75 0 255
0.02225414 -0.08276227 0.104826316 -0.7322115 0.3736361 -0.5694405 102 75 0 255
0.012214167 -0.07085978 0.12554587 -0.7322115 0.3736361 -0.5694405 102 75 0 255
0.037104182 0.09079166 0.103614375 -0.6077846 -0.04019666 -0.7930839 51 34 30 255
0.106924154 0.058237046 0.051757403 -0.6077846 -0.04019666 -0.7930839 51 34 30 255
0.134 -0.036353663 0.035801914 -0.6077846 -0.04019666 -0.7930839 51 34 30 255
0.037104182 0.09079166 0.103614375 -0.5477616 -0.8035126 -0.2330768 51 34 30 255
0.03945932 0.10094708 0.0630695 -0.5477616 -0.8035126 -0.2330768 51 34 30 255
0.106924154 0.058237046 0.051757403 -0.5477616 -0.8035126 -0.2330768 51 34 30 255
0.084625445 0.06474008 -0.016161077 -0.9125986 -0.30680868 0.27024448 51 34 30 255
0.134 -0.036353663 0.035801914 -0.9125986 -0.30680868 0.27024448 51 34 30 255
0.106924154 0.058237046 0.051757403 -0.9125986 -0.30680868 0.27024448 51 34 30 255
0.0073816394 -0.013458845 0.14389329 -0.6564758 -0.1016319 -0.7474694 51 34 30 255
0.037104182 0.09079166 0.103614375 -0.6564758 -0.1016319 -0.7474694 51 34 30 255
0.134 -0.036353663 0.035801914 -0.6564758 -0.1016319 -0.7474694 51 34 30 255
0.05695705 0.1137635 0.02449127 -0.5264587 -0.7062113 -0.4733992 51 34 30 255
0.03945932 0.10094708 0.0630695 -0.5264587 -0.7062113 -0.4733992 51 34 30 255
0.028008083 0.13875023 0.019409716 -0.5264587 -0.7062113 -0.4733992 51 34 30 255
0.106924154 0.058237046 0.051757403 -0.5264587 -0.7062113 -0.4733992 51 34 30 255
0.037104182 0.09079166 0.103614375 -0.1330842 -0.9595561 -0.2480741 51 34 30 255
-0.04696158 0.12317672 0.023447303 -0.1330842 -0.9595561 -0.2480741 51 34 30 255
0.03945932 0.10094708 0.0630695 -0.1330842 -0.9595561 -0.2480741 51 34 30 255
0.07969942 0.112469636 0.009883836 -0.9270442 -0.24876449 0.2805447 51 34 30 255
0.084625445 0.06474008 -0.016161077 -0.9270442 -0.24876449 0.2805447 51 34 30 255
0.106924154 0.058237046 0.051757403 -0.9270442 -0.24876449 0.2805447 51 34 30 255
0.07741627 0.06559303 -0.068461426 -0.9149839 -0.385283 0.1198394 51 34 30 255
0.134 -0.036353663 0.035801914 -0.9149839 -0.385283 0.1198394 51 34 30 255
0.084625445 0.06474008 -0.016161077 -0.9149839 -0.385283 0.1198394 51 34 30 255
0.0073816394 -0.013458845 0.14389329 -0.5881282 0.2976912 -0.7519875 51 34 30 255
0.134 -0.036353663 0.035801914 -0.5881282 0.2976912 -0.7519875 51 34 30 255
0.027844146 -0.12178446 0.08500653 -0.5881282 0.2976912 -0.7519875 51 34 30 255
-0.02297908 0.092555165 0.10537683 -0.037742876 -0.35076427 -0.9357028 51 34 30 255
0.037104182 0.09079166 0.103614375 -0.037742876 -0.35076427 -0.9357028 51 34 30 255
0.0073816394 -0.013458845 0.14389329 -0.037742876 -0.35076427 -0.9357028 51 34 30 255
0.106924154 0.058237046 0.051757403 -0.4245493 -0.677165 -0.6010037 51 34 30 255
0.05695705 0.1137635 0.02449127 -0.4245493 -0.677165 -0.6010037 51 34 30 255
0.07969942 0.112469636 0.009883836 -0.4245493 -0.677165 -0.6010037 51 34 30 255
0.03945932 0.10094708 0.0630695 0.1168312 -0.7354453 -0.6674359 51 34 30 255
-0.04696158 0.12317672 0.023447303 0.1168312 -0.7354453 -0.6674359 51 34 30 255
0.028008083 0.13875023 0.019409716 0.1168312 -0.7354453 -0.6674359 51 34 30 255
0.05695705 0.1137635 0.02449127 -0.4410545 -0.6391268 -0.6300698 51 34 30 255
0.028008083 0.13875023 0.019409716 -0.4410545 -0.6391268 -0.6300698 51 34 30 255
0.07969942 0.112469636 0.009883836 -0.4410545 -0.6391268 -0.6300698 51 34 30 255
-0.02297908 0.092555165 0.10537683 -0.0375579 -0.9396073 -0.3401874 51 34 30 255
-0.04696158 0.12317672 0.023447303 -0.0375579 -0.9396073 -0.3401874 51 34 30 255
0.037104182 0.09079166 0.103614375 -0.0375579 -0.9396073 -0.3401874 51 34 30 255
0.043293957 0.13804743 -0.008801289 -0.6304688 -0.4209399 0.6521646 51 34 30 255
0.084625445 0.06474008 -0.016161077 -0.6304688 -0.4209399 0.6521646 51 34 30 255
0.07969942 0.112469636 0.009883836 -0.6304688 -0.4209399 0.6521646 51 34 30 255
0.07741627 0.06559303 -0.068461426 -0.9018003 -0.4259574 0.07291402 51 34 30 255
0.119237885 -0.021405576 -0.059450418 -0.9018003 -0.4259574 0.07291402 51 34 30 255
0.134 -0.036353663 0.035801914 -0.9018003 -0.4259574 0.07291402 51 34 30 255
0.043293957 0.13804743 -0.008801289 -0.8609548 -0.49651727 0.1105778 51 34 30 255
0.07741627 0.06559303 -0.068461426 -0.8609548 -0.49651727 0.1105778 51 34 30 255
0.084625445 0.06474008 -0.016161077 -0.8609548 -0.49651727 0.1105778 51 34 30 255
0.027844146 -0.12178446 0.08500653 -0.6743513 0.6961798 -0.2461383 51 34 30 255
0.134 -0.036353663 0.035801914 -0.6743513 0.6961798 -0.2461383 51 34 30 255
0.069503404 -0.109269165 0.0062699663 -0.6743513 0.6961798 -0.2461383 51 34 30 255
-0.085859306 -0.051345874 0.08860653 0.28306198 0.49879265 -0.81919575 51 34 30 255
0.0073816394 -0.013458845 0.14389329 0.28306198 0.49879265 -0.81919575 51 34 30 255
0.027844146 -0.12178446 0.08500653 0.28306198 0.49879265 -0.81919575 51 34 30 255
-0.06225142 0.021019671 0.093679 0.5271815 -0.1527248 -0.8359155 51 34 30 255
-0.02297908 0.092555165 0.10537683 0.5271815 -0.1527248 -0.8359155 51 34 30 255
0.0073816394 -0.013458845 0.14389329 0.5271815 -0.1527248 -0.8359155 51 34 30 255
-0.04696158 0.12317672 0.023447303 0.20506649 -0.8718488 0.44477776 51 34 30 255
0.0023201806 0.06465889 -0.113980085 0.20506649 -0.8718488 0.44477776 51 34 30 255
0.028008083 0.13875023 0.019409716 0.20506649 -0.8718488 0.44477776 51 34 30 255
0.028008083 0.13875023 0.019409716 -0.4746127 -0.8479562 -0.236036 51 34 30 255
0.043293957 0.13804743 -0.008801289 -0.4746127 -0.8479562 -0.236036 51 34 30 255
0.07969942 0.112469636 0.009883836 -0.4746127 -0.8479562 -0.236036 51 34 30 255
-0.02297908 0.092555165 0.10537683 0.6137924 -0.66358346 -0.42768645 51 34 30 255
-0.11454479 0.05067289 0.038949843 0.6137924 -0.66358346 -0.42768645 51 34 30 255
-0.04696158 0.12317672 0.023447303 0.6137924 -0.66358346 -0.42768645 51 34 30 255
0.07741627 0.06559303 -0.068461426 -0.9018158 -0.4318041 0.01653784 51 34 30 255
0.10264411 0.011206022 -0.112825096 -0.9018158 -0.4318041 0.01653784 51 34 30 255
0.119237885 -0.021405576 -0.059450418 -0.9018158 -0.4318041 0.01653784 51 34 30 255
0.119237885 -0.021405576 -0.059450418 -0.98844165 -0.03232717 0.1481147 51 34 30 255
0.12545544 -0.07621745 -0.029920734 -0.98844165 -0.03232717 0.1481147 51 34 30 255
0.134 -0.036353663 0.035801914 -0.98844165 -0.03232717 0.1481147 51 34 30 255
0.043293957 0.13804743 -0.008801289 -0.9295546 -0.3545659 -0.1010509 51 34 30 255
0.058957044 0.108148575 -0.04797533 -0.9295546 -0.3545659 -0.1010509 51 34 30 255
0.07741627 0.06559303 -0.068461426 -0.9295546 -0.3545659 -0.1010509 51 34 30 255
0.134 -0.036353663 0.035801914 -0.7048911 0.6900332 -0.1642642 51 34 30 255
0.11661603 -0.06770421 -0.021295773 -0.7048911 0.6900332 -0.1642642 51 34 30 255
0.069503404 -0.109269165 0.0062699663 -0.7048911 0.6900332 -0.1642642 51 34 30 255
0.027844146 -0.12178446 0.08500653 0.0038846342 0.9872736 0.15898392 51 34 30 255
0.069503404 -0.109269165 0.0062699663 0.0038846342 0.9872736 0.15898392 51 34 30 255
-0.03550842 -0.11392045 0.037719857 0.0038846342 0.9872736 0.15898392 51 34 30 255
-0.085859306 -0.051345874 0.08860653 0.5013283 0.8229187 -0.2673477 51 34 30 255
0.027844146 -0.12178446 0.08500653 0.5013283 0.8229187 -0.2673477 51 34 30 255
-0.05977687 -0.082563385 0.041426033 0.5013283 0.8229187 -0.2673477 51 34 30 255
-0.085859306 -0.051345874 0.08860653 0.5415817 -0.1183424 -0.8322766 51 34 30 255
-0.06225142 0.021019671 0.093679 0.5415817 -0.1183424 -0.8322766 51 34 30 255
0.0073816394 -0.013458845 0.14389329 0.5415817 -0.1183424 -0.8322766 51 34 30 255
-0.11454479 0.05067289 0.038949843 0.6382397 -0.2302632 -0.7345944 51 34 30 255
-0.02297908 0.092555165 0.10537683 0.6382397 -0.2302632 -0.7345944 51 34 30 255
-0.06225142 0.021019671 0.093679 0.6382397 -0.2302632 -0.7345944 51 34 30 255
-0.04696158 0.12317672 0.023447303 0.22966076 -0.86306655 0.44985774 51 34 30 255
-0.077643104 0.08890566 -0.026639108 0.22966076 -0.86306655 0.44985774 51 34 30 255
0.0023201806 0.06465889 -0.113980085 0.22966076 -0.86306655 0.44985774 51 34 30 255
0.028008083 0.13875023 0.019409716 0.4050476 -0.8301589 0.3831092 51 34 30 255
0.0023201806 0.06465889 -0.113980085 0.4050476 -0.8301589 0.3831092 51 34 30 255
0.043826498 0.11438274 -0.050116528 0.4050476 -0.8301589 0.3831092 51 34 30 255
0.028008083 0.13875023 0.019409716 0.6663147 -0.6433093 0.3770648 51 34 30 255
0.043826498 0.11438274 -0.050116528 0.6663147 -0.6433093 0.3770648 51 34 30 255
0.043293957 0.13804743 -0.008801289 0.6663147 -0.6433093 0.3770648 51 34 30 255
-0.04696158 0.12317672 0.023447303 0.7331158 -0.6799124 0.01613476 51 34 30 255
-0.11454479 0.05067289 0.038949843 0.7331158 -0.6799124 0.01613476 51 34 30 255
-0.077643104 0.08890566 -0.026639108 0.7331158 -0.6799124 0.01613476 51 34 30 255
0.10264411 0.011206022 -0.112825096 -0.8981973 0.1909891 0.3959354 51 34 30 255
0.09301453 -0.044242863 -0.10792315 -0.8981973 0.1909891 0.3959354 51 34 30 255
0.119237885 -0.021405576 -0.059450418 -0.8981973 0.1909891 0.3959354 51 34 30 255
0.058957044 0.108148575 -0.04797533 -0.9282588 -0.3624297 -0.08354782 51 34 30 255
0.10264411 0.011206022 -0.112825096 -0.9282588 -0.3624297 -0.08354782 51 34 30 255
0.07741627 0.06559303 -0.068461426 -0.9282588 -0.3624297 -0.08354782 51 34 30 255
0.119237885 -0.021405576 -0.059450418 -0.8199106 0.1966539 0.5376559 51 34 30 255
0.102633215 -0.093163796 -0.058525678 -0.8199106 0.1966539 0.5376559 51 34 30 255
0.12545544 -0.07621745 -0.029920734 -0.8199106 0.1966539 0.5376559 51 34 30 255
0.134 -0.036353663 0.035801914 0.2663432 0.8083864 -0.5249502 51 34 30 255
0.12545544 -0.07621745 -0.029920734 0.2663432 0.8083864 -0.5249502 51 34 30 255
0.11661603 -0.06770421 -0.021295773 0.2663432 0.8083864 -0.5249502 51 34 30 255
0.043293957 0.13804743 -0.008801289 -0.39367816 -0.79984486 0.45306253 51 34 30 255
0.043826498 0.11438274 -0.050116528 -0.39367816 -0.79984486 0.45306253 51 34 30 255
0.058957044 0.108148575 -0.04797533 -0.39367816 -0.79984486 0.45306253 51 34 30 255
0.11661603 -0.06770421 -0.021295773 -0.7106178 0.6759199 -0.1953323 51 34 30 255
0.102633215 -0.093163796 -0.058525678 -0.7106178 0.6759199 -0.1953323 51 34 30 255
0.069503404 -0.109269165 0.0062699663 -0.7106178 0.6759199 -0.1953323 51 34 30 255
-0.03550842 -0.11392045 0.037719857 -0.2781785 0.411299 -0.8680149 51 34 30 255
0.069503404 -0.109269165 0.0062699663 -0.2781785 0.411299 -0.8680149 51 34 30 255
-0.0057832454 -0.152 0.010150066 -0.2781785 0.411299 -0.8680149 51 34 30 255
-0.05977687 -0.082563385 0.041426033 0.5549901 0.5074362 -0.659162 51 34 30 255
0.027844146 -0.12178446 0.08500653 0.5549901 0.5074362 -0.659162 51 34 30 255
-0.03550842 -0.11392045 0.037719857 0.5549901 0.5074362 -0.659162 51 34 30 255
-0.085859306 -0.051345874 0.08860653 0.6373939 0.7561952 -0.1479793 51 34 30 255
-0.05977687 -0.082563385 0.041426033 0.6373939 0.7561952 -0.1479793 51 34 30 255
-0.10486564 -0.043039024 0.049189292 0.6373939 0.7561952 -0.1479793 51 34 30 255
-0.11454479 0.05067289 0.038949843 0.6663292 -0.1664289 -0.7268472 51 34 30 255
-0.06225142 0.021019671 0.093679 0.6663292 -0.1664289 -0.7268472 51 34 30 255
-0.085859306 -0.051345874 0.08860653 0.6663292 -0.1664289 -0.7268472 51 34 30 255
-0.10266611 0.0072509167 -0.03976204 0.65620613 -0.31154573 0.68726474 51 34 30 255
0.0023201806 0.06465889 -0.113980085 0.65620613 -0.31154573 0.68726474 51 34 30 255
-0.077643104 0.08890566 -0.026639108 0.65620613 -0.31154573 0.68726474 51 34 30 255
0.043826498 0.11438274 -0.050116528 -0.3527087 -0.613287 0.7067359 51 34 30 255
0.018596044 0.07976431 -0.09274923 -0.3527087 -0.613287 0.7067359 51 34 30 255
0.058957044 0.108148575 -0.04797533 -0.3527087 -0.613287 0.7067359 51 34 30 255
0.0023201806 0.06465889 -0.113980085 -0.3527087 -0.613287 0.7067359 51 34 30 255
-0.077643104 0.08890566 -0.026639108 0.892663 -0.32392463 0.31340984 51 34 30 255
-0.11454479 0.05067289 0.038949843 0.892663 -0.32392463 0.31340984 51 34 30 255
-0.10266611 0.0072509167 -0.03976204 0.892663 -0.32392463 0.31340984 51 34 30 255
0.021207076 -0.024234701 -0.122999996 -0.1728913 0.1164878 0.97802824 51 34 30 255
0.09301453 -0.044242863 -0.10792315 -0.1728913 0.1164878 0.97802824 51 34 30 255
0.10264411 0.011206022 -0.112825096 -0.1728913 0.1164878 0.97802824 51 34 30 255
0.119237885 -0.021405576 -0.059450418 -0.8978489 0.2127279 0.385505 51 34 30 255
0.09301453 -0.044242863 -0.10792315 -0.8978489 0.2127279 0.385505 51 34 30 255
0.102633215 -0.093163796 -0.058525678 -0.8978489 0.2127279 0.385505 51 34 30 255
0.0444568 0.05078849 -0.10783346 -0.36662775 -0.62577355 0.68847054 51 34 30 255
0.10264411 0.011206022 -0.112825096 -0.36662775 -0.62577355 0.68847054 51 34 30 255
0.058957044 0.108148575 -0.04797533 -0.36662775 -0.62577355 0.68847054 51 34 30 255
0.11661603 -0.06770421 -0.021295773 0.1694556 0.7826974 -0.5988903 51 34 30 255
0.12545544 -0.07621745 -0.029920734 0.1694556 0.7826974 -0.5988903 51 34 30 255
0.102633215 -0.093163796 -0.058525678 0.1694556 0.7826974 -0.5988903 51 34 30 255
-0.0057832454 -0.152 0.010150066 -0.49471673 0.86826044 -0.037135415 51 34 30 255
0.069503404 -0.109269165 0.0062699663 -0.49471673 0.86826044 -0.037135415 51 34 30 255
0.102633215 -0.093163796 -0.058525678 -0.49471673 0.86826044 -0.037135415 51 34 30 255
-0.05977687 -0.082563385 0.041426033 0.7912895 0.6113796 0.00871091 51 34 30 255
-0.03550842 -0.11392045 0.037719857 0.7912895 0.6113796 0.00871091 51 34 30 255
-0.0057832454 -0.152 0.010150066 0.7912895 0.6113796 0.00871091 51 34 30 255
-0.10486564 -0.043039024 0.049189292 0.49330246 0.67138577 -0.5530766 51 34 30 255
-0.05977687 -0.082563385 0.041426033 0.49330246 0.67138577 -0.5530766 51 34 30 255
-0.12005917 -0.06465087 0.009402959 0.49330246 0.67138577 -0.5530766 51 34 30 255
-0.11454479 0.05067289 0.038949843 0.9035902 0.04679921 -0.425834 51 34 30 255
-0.085859306 -0.051345874 0.08860653 0.9035902 0.04679921 -0.425834 51 34 30 255
-0.10486564 -0.043039024 0.049189292 0.9035902 0.04679921 -0.425834 51 34 30 255
-0.10266611 0.0072509167 -0.03976204 0.6407865 -0.2215671 0.7350515 51 34 30 255
-0.044706695 -0.059599422 -0.11043933 0.6407865 -0.2215671 0.7350515 51 34 30 255
0.0023201806 0.06465889 -0.113980085 0.6407865 -0.2215671 0.7350515 51 34 30 255
0.0023201806 0.06465889 -0.113980085 -0.3136686 -0.6434527 0.6982697 51 34 30 255
0.0444568 0.05078849 -0.10783346 -0.3136686 -0.6434527 0.6982697 51 34 30 255
0.018596044 0.07976431 -0.09274923 -0.3136686 -0.6434527 0.6982697 51 34 30 255
0.018596044 0.07976431 -0.09274923 -0.3173857 -0.6451005 0.6950623 51 34 30 255
0.0444568 0.05078849 -0.10783346 -0.3173857 -0.6451005 0.6950623 51 34 30 255
0.058957044 0.108148575 -0.04797533 -0.3173857 -0.6451005 0.6950623 51 34 30 255
-0.11454479 0.05067289 0.038949843 0.9746128 -0.09816033 0.2012326 51 34 30 255
-0.12005917 -0.06465087 0.009402959 0.9746128 -0.09816033 0.2012326 51 34 30 255
-0.10266611 0.0072509167 -0.03976204 0.9746128 -0.09816033 0.2012326 51 34 30 255
0.021207076 -0.024234701 -0.122999996 -0.04194737 -0.1854699 0.9817542 51 34 30 255
0.10264411 0.011206022 -0.112825096 -0.04194737 -0.1854699 0.9817542 51 34 30 255
0.0444568 0.05078849 -0.10783346 -0.04194737 -0.1854699 0.9817542 51 34 30 255
0.102633215 -0.093163796 -0.058525678 0.05267923 0.7146489 0.6974969 51 34 30 255
0.09301453 -0.044242863 -0.10792315 0.05267923 0.7146489 0.6974969 51 34 30 255
0.021207076 -0.024234701 -0.122999996 0.05267923 0.7146489 0.6974969 51 34 30 255
-0.07350124 -0.07170156 -0.048142187 0.123338304 0.6489995 0.7507245 51 34 30 255
-0.0057832454 -0.152 0.010150066 0.123338304 0.6489995 0.7507245 51 34 30 255
0.102633215 -0.093163796 -0.058525678 0.123338304 0.6489995 0.7507245 51 34 30 255
-0.05977687 -0.082563385 0.041426033 0.49859437 0.64736354 -0.57647556 51 34 30 255
-0.0057832454 -0.152 0.010150066 0.49859437 0.64736354 -0.57647556 51 34 30 255
-0.12005917 -0.06465087 0.009402959 0.49859437 0.64736354 -0.57647556 51 34 30 255
-0.11454479 0.05067289 0.038949843 0.92280114 0.053624716 -0.38152653 51 34 30 255
-0.10486564 -0.043039024 0.049189292 0.92280114 0.053624716 -0.38152653 51 34 30 255
-0.12005917 -0.06465087 0.009402959 0.92280114 0.053624716 -0.38152653 51 34 30 255
-0.10266611 0.0072509167 -0.03976204 0.8536615 0.26793557 0.44662338 51 34 30 255
-0.07350124 -0.07170156 -0.048142187 0.8536615 0.26793557 0.44662338 51 34 30 255
-0.044706695 -0.059599422 -0.11043933 0.8536615 0.26793557 0.44662338 51 34 30 255
-0.044706695 -0.059599422 -0.11043933 -0.1201612 0.07368687 0.9900159 51 34 30 255
0.0444568 0.05078849 -0.10783346 -0.1201612 0.07368687 0.9900159 51 34 30 255
0.0023201806 0.06465889 -0.113980085 -0.1201612 0.07368687 0.9900159 51 34 30 255
-0.10266611 0.0072509167 -0.03976204 0.7711964 0.22153237 0.59680766 51 34 30 255
-0.12005917 -0.06465087 0.009402959 0.7711964 0.22153237 0.59680766 51 34 30 255
-0.07350124 -0.07170156 -0.048142187 0.7711964 0.22153237 0.59680766 51 34 30 255
-0.044706695 -0.059599422 -0.11043933 0.323815 -0.2828677 0.9028453 51 34 30 255
0.021207076 -0.024234701 -0.122999996 0.323815 -0.2828677 0.9028453 51 34 30 255
0.0444568 0.05078849 -0.10783346 0.323815 -0.2828677 0.9028453 51 34 30 255
-0.044706695 -0.059599422 -0.11043933 -0.1534947 0.5722193 0.8056081 51 34 30 255
0.102633215 -0.093163796 -0.058525678 -0.1534947 0.5722193 0.8056081 51 34 30 255
0.021207076 -0.024234701 -0.122999996 -0.1534947 0.5722193 0.8056081 51 34 30 255
-0.07350124 -0.07170156 -0.048142187 0.13155198 0.9599688 0.24729297 51 34 30 255
0.102633215 -0.093163796 -0.058525678 0.13155198 0.9599688 0.24729297 51 34 30 255
-0.044706695 -0.059599422 -0.11043933 0.13155198 0.9599688 0.24729297 51 34 30 255
-0.0057832454 -0.152 0.010150066 0.5637832 0.740704 0.3653848 51 34 30 255
-0.07350124 -0.07170156 -0.048142187 0.5637832 0.740704 0.3653848 51 34 30 255
-0.12005917 -0.06465087 0.009402959 0.5637832 0.740704 0.3653848 51 34 30 255
3 0 1 2
3 3 4 5
3 6 7 8
3 9 10 11
3 12 13 14
3 15 16 17
3 18 19 20
3 21 22 23
3 24 25 26
3 27 28 29
3 30 31 32
3 33 34 35
3 36 37 38
3 39 40 41
3 40 39 42
3 43 44 45
3 46 47 48
3 49 50 51
3 52 53 54
3 53 52 55
3 56 57 58
3 59 60 61
3 62 63 64
3 65 66 67
3 68 69 70
3 71 72 73
3 74 75 76
3 77 78 79
3 80 81 82
3 83 84 85
3 86 87 88
3 87 86 89
3 90 91 92
3 93 94 95
3 94 93 96
3 97 98 99
3 100 101 102
3 103 104 105
3 106 107 108
3 109 110 111
3 112 113 114
3 115 116 117
3 118 119 120
3 121 122 123
3 124 125 126
3 127 128 129
3 130 131 132
3 133 134 135
3 136 137 138
3 139 140 141
3 139 142 140
3 143 144 145
3 146 147 148
3 149 150 151
3 152 153 154
3 155 156 157
3 158 159 160
3 161 162 163
3 164 165 166
3 167 168 169
3 170 171 172
3 173 174 175
3 176 177 178
3 179 180 181
3 182 183 184
3 185 186 187
3 188 189 190
3 191 192 193
3 194 195 196
3 197 198 199
3 200 201 202
3 203 204 205
3 206 207 208
3 209 210 211
3 212 213 214
3 215 216 217
3 218 219 220
3 221 222 223
3 224 225 226
3 227 228 229
3 230 231 232
3 233 234 235
3 236 237 238
3 237 236 239
3 240 241 242
3 243 244 245
3 246 247 248
3 249 250 251
3 250 249 252
3 253 204 203
3 254 255 256
3 257 258 259
3 258 257 260
3 261 262 263
3 264 265 266
3 267 227 229
3 268 269 270
3 269 268 271
3 269 271 272
3 273 274 275
3 276 237 239
3 277 278 279
3 280 281 282
3 244 283 245
3 284 285 286
3 285 284 287
3 288 289 290
3 291 292 293
3 294 295 296
3 297 298 299
3 297 300 298
3 301 302 303
3 304 305 306
3 307 308 309
3 309 308 310
3 311 312 313
3 312 311 314
3 314 311 315
3 316 317 318
3 319 320 321
3 322 323 324
3 322 324 325
3 326 327 328
3 329 330 331
3 332 333 334
3 335 336 337
3 338 339 340
3 339 338 341
3 342 343 344
3 345 346 347
3 348 349 350
3 351 352 353
3 354 355 356
3 357 358 359
3 360 361 362
3 363 364 365
3 366 367 368
3 369 370 371
3 372 373 374
3 375 376 377
3 378 379 380
3 381 382 383
3 384 385 386
3 387 388 389
3 390 391 392
3 393 394 395
3 396 397 398
3 399 400 401
3 402 403 404
3 405 406 407
3 408 409 410
3 411 412 413
3 414 415 416
3 417 418 419
3 420 421 422
3 423 424 425
3 426 427 428
3 429 430 431
3 432 433 434
3 435 436 437
3 438 439 440
3 441 442 443
3 444 445 446
3 447 448 449
3 450 451 452
3 453 454 455
3 456 457 458
3 459 460 461
3 462 463 464
3 465 466 467
3 466 465 468
3 469 470 471
3 472 473 474
3 475 476 477
3 478 479 480
3 481 482 483
3 484 485 486
3 487 488 489
3 490 491 492
3 493 494 495
3 496 497 498
3 499 500 501
3 502 503 504
3 505 506 507
3 508 509 510
3 511 512 513
3 514 515 516
3 517 518 519
3 520 521 522
3 523 524 525
3 526 527 528
3 529 530 531
3 532 533 534
3 535 536 537
3 538 539 540
3 541 542 543

