ply
format ascii 1.0
commentY29udmVydGVyIGJ5IENvZGVMZW9wYXJk
comment Original mesh name: 'C:\Program Files (x86)\Steam\steamapps\common\Stormworks\rom\meshes\equipment_pistol_ammo.mesh'
comment SubMesh index: 0
comment SubMesh name: 'ID4'
comment Shader: Opaque (0)
element vertex 391
property float x
property float y
property float z
property float nx
property float ny
property float nz
property uchar red
property uchar green
property uchar blue
property uchar alpha
element face 233
property list uchar ushort vertex_index
end_header
-0.032861453 -0.016 -0.046521977 0.7936639 -5.9098495E-17 -0.6083565 30 30 30 255
-0.029293614 0.01600001 -0.041867323 0.7936639 -5.9098495E-17 -0.6083565 30 30 30 255
-0.029293614 -0.016 -0.041867323 0.7936639 -5.9098495E-17 -0.6083565 30 30 30 255
-0.032861453 0.01600001 -0.046521977 0.7936639 -5.9098495E-17 -0.6083565 30 30 30 255
-0.032351878 -0.016 -0.048394617 0.9649126 2.550736E-17 0.2625713 30 30 30 255
-0.032861453 0.01600001 -0.046521977 0.9649126 2.550736E-17 0.2625713 30 30 30 255
-0.032861453 -0.016 -0.046521977 0.9649126 2.550736E-17 0.2625713 30 30 30 255
-0.032351878 0.01600001 -0.048394617 0.9649126 2.550736E-17 0.2625713 30 30 30 255
-0.029293614 0.01600001 -0.041867323 0 -1 9.714451E-17 30 30 30 255
0.007567414 0.01600001 -0.056371287 0 -1 9.714451E-17 30 30 30 255
0.008939036 0.01600001 -0.04950696 0 -1 9.714451E-17 30 30 30 255
-0.032351878 0.01600001 -0.048394617 0 -1 9.714451E-17 30 30 30 255
-0.032861453 0.01600001 -0.046521977 0 -1 9.714451E-17 30 30 30 255
-0.029293614 -0.016 -0.041867323 -0.1959462 -4.742704E-17 -0.98061466 30 30 30 255
-0.027606953 -0.013999999 -0.042204358 -0.1959462 -4.742704E-17 -0.98061466 30 30 30 255
0.008939036 -0.016 -0.04950696 -0.1959462 -4.742704E-17 -0.98061466 30 30 30 255
-0.029293614 0.01600001 -0.041867323 -0.1959462 -4.742704E-17 -0.98061466 30 30 30 255
-0.027606953 0.013999988 -0.042204358 -0.1959462 -4.742704E-17 -0.98061466 30 30 30 255
0.008240403 0.013999988 -0.04936736 -0.1959462 -4.742704E-17 -0.98061466 30 30 30 255
0.008240403 -0.013999999 -0.04936736 -0.1959462 -4.742704E-17 -0.98061466 30 30 30 255
0.013999008 -0.01 -0.05051806 -0.1959462 -4.742704E-17 -0.98061466 30 30 30 255
0.012312353 -0.009171573 -0.050181024 -0.1959462 -4.742704E-17 -0.98061466 30 30 30 255
0.013999008 0.009999997 -0.05051806 -0.1959462 -4.742704E-17 -0.98061466 30 30 30 255
0.012312353 0.009171572 -0.050181024 -0.1959462 -4.742704E-17 -0.98061466 30 30 30 255
0.008939036 0.01600001 -0.04950696 -0.1959462 -4.742704E-17 -0.98061466 30 30 30 255
0.007567414 -0.016 -0.056371287 0 1 -9.714451E-17 30 30 30 255
-0.029293614 -0.016 -0.041867323 0 1 -9.714451E-17 30 30 30 255
0.008939036 -0.016 -0.04950696 0 1 -9.714451E-17 30 30 30 255
-0.032351878 -0.016 -0.048394617 0 1 -9.714451E-17 30 30 30 255
-0.032861453 -0.016 -0.046521977 0 1 -9.714451E-17 30 30 30 255
0.0126273865 -0.01 -0.057382356 0.1959462 8.491546E-17 0.98061466 30 30 30 255
-0.032351878 -0.016 -0.048394617 0.1959462 8.491546E-17 0.98061466 30 30 30 255
0.007567414 -0.016 -0.056371287 0.1959462 8.491546E-17 0.98061466 30 30 30 255
-0.032351878 0.01600001 -0.048394617 0.1959462 8.491546E-17 0.98061466 30 30 30 255
0.0126273865 0.009999997 -0.057382356 0.1959462 8.491546E-17 0.98061466 30 30 30 255
0.007567414 0.01600001 -0.056371287 0.1959462 8.491546E-17 0.98061466 30 30 30 255
0.007567414 0.01600001 -0.056371287 -0.74348813 -0.65203846 0.14856358 30 30 30 255
0.013999008 0.009999997 -0.05051806 -0.74348813 -0.65203846 0.14856358 30 30 30 255
0.008939036 0.01600001 -0.04950696 -0.74348813 -0.65203846 0.14856358 30 30 30 255
0.0126273865 0.009999997 -0.057382356 -0.74348813 -0.65203846 0.14856358 30 30 30 255
0.0126273865 0.009999997 -0.057382356 -0.98061466 1.9035087E-17 0.1959461 30 30 30 255
0.013999008 -0.01 -0.05051806 -0.98061466 1.9035087E-17 0.1959461 30 30 30 255
0.013999008 0.009999997 -0.05051806 -0.98061466 1.9035087E-17 0.1959461 30 30 30 255
0.0126273865 -0.01 -0.057382356 -0.98061466 1.9035087E-17 0.1959461 30 30 30 255
0.013999008 -0.01 -0.05051806 -0.7434875 0.6520393 0.1485634 30 30 30 255
0.007567414 -0.016 -0.056371287 -0.7434875 0.6520393 0.1485634 30 30 30 255
0.008939036 -0.016 -0.04950696 -0.7434875 0.6520393 0.1485634 30 30 30 255
0.0126273865 -0.01 -0.057382356 -0.7434875 0.6520393 0.1485634 30 30 30 255
-0.012715046 0.013999988 0.032322362 0 -1 9.714451E-17 30 30 30 255
0.008240403 0.013999988 -0.04936736 0 -1 9.714451E-17 30 30 30 255
0.023132307 0.013999988 0.025159353 0 -1 9.714451E-17 30 30 30 255
-0.027606953 0.013999988 -0.042204358 0 -1 9.714451E-17 30 30 30 255
0.008240403 0.013999988 -0.04936736 -0.743487 -0.6520399 0.1485633 30 30 30 255
0.027204262 0.009171572 0.024345698 -0.743487 -0.6520399 0.1485633 30 30 30 255
0.023132307 0.013999988 0.025159353 -0.743487 -0.6520399 0.1485633 30 30 30 255
0.012312353 0.009171572 -0.050181024 -0.743487 -0.6520399 0.1485633 30 30 30 255
-0.008404236 0.007979999 0.053895876 -0.05171672 -0.96454096 -0.25881684 30 30 30 255
0.023132307 0.013999988 0.025159353 -0.05171672 -0.96454096 -0.25881684 30 30 30 255
0.027443126 0.007979999 0.046732847 -0.05171672 -0.96454096 -0.25881684 30 30 30 255
-0.012715046 0.013999988 0.032322362 -0.05171672 -0.96454096 -0.25881684 30 30 30 255
-0.012715046 -0.013999999 0.032322362 0.98061466 -3.3202385E-17 -0.1959461 30 30 30 255
-0.008404236 -0.0043316646 0.053895876 0.98061466 -3.3202385E-17 -0.1959461 30 30 30 255
-0.008404236 -0.007980002 0.053895876 0.98061466 -3.3202385E-17 -0.1959461 30 30 30 255
-0.008698155 -0.0043316646 0.052424934 0.98061466 -3.3202385E-17 -0.1959461 30 30 30 255
-0.008698155 0.0043316623 0.052424934 0.98061466 -3.3202385E-17 -0.1959461 30 30 30 255
-0.008404236 0.007979999 0.053895876 0.98061466 -3.3202385E-17 -0.1959461 30 30 30 255
-0.008404236 0.0043316623 0.053895876 0.98061466 -3.3202385E-17 -0.1959461 30 30 30 255
-0.012715046 0.013999988 0.032322362 0.98061466 -3.3202385E-17 -0.1959461 30 30 30 255
-0.027606953 -0.013999999 -0.042204358 0.98061466 -3.3202385E-17 -0.1959461 30 30 30 255
-0.027606953 0.013999988 -0.042204358 0.98061466 -3.3202385E-17 -0.1959461 30 30 30 255
0.027204262 0.009171572 0.024345698 -0.7663455 -0.6419027 -0.02598919 30 30 30 255
0.027443126 0.007979999 0.046732847 -0.7663455 -0.6419027 -0.02598919 30 30 30 255
0.023132307 0.013999988 0.025159353 -0.7663455 -0.6419027 -0.02598919 30 30 30 255
0.027204262 0.009171572 0.024345698 -0.98061466 -7.998833E-18 0.1959461 30 30 30 255
0.031515073 -0.005227797 0.04591921 -0.98061466 -7.998833E-18 0.1959461 30 30 30 255
0.031515073 0.0052277944 0.04591921 -0.98061466 -7.998833E-18 0.1959461 30 30 30 255
0.027204262 -0.009171573 0.024345698 -0.98061466 -7.998833E-18 0.1959461 30 30 30 255
0.012312353 0.009171572 -0.050181024 -0.98061466 -7.998833E-18 0.1959461 30 30 30 255
0.012312353 -0.009171573 -0.050181024 -0.98061466 -7.998833E-18 0.1959461 30 30 30 255
-0.008404236 0.007979999 0.053895876 -0.1959462 -8.173916E-17 -0.98061466 30 30 30 255
0.026365146 0.0043316623 0.046948265 -0.1959462 -8.173916E-17 -0.98061466 30 30 30 255
-0.008404236 0.0043316623 0.053895876 -0.1959462 -8.173916E-17 -0.98061466 30 30 30 255
0.031515073 0.0052277944 0.04591921 -0.1959462 -8.173916E-17 -0.98061466 30 30 30 255
0.027443126 0.007979999 0.046732847 -0.1959462 -8.173916E-17 -0.98061466 30 30 30 255
-0.008404236 -0.0043316646 0.053895876 -0.1959462 -8.173916E-17 -0.98061466 30 30 30 255
0.027443126 -0.007980002 0.046732847 -0.1959462 -8.173916E-17 -0.98061466 30 30 30 255
-0.008404236 -0.007980002 0.053895876 -0.1959462 -8.173916E-17 -0.98061466 30 30 30 255
0.031515073 -0.005227797 0.04591921 -0.1959462 -8.173916E-17 -0.98061466 30 30 30 255
0.026365146 -0.0043316646 0.046948265 -0.1959462 -8.173916E-17 -0.98061466 30 30 30 255
0.027937459 -0.0032689546 0.046634067 -0.1959462 -8.173916E-17 -0.98061466 30 30 30 255
0.027937459 0.0032689518 0.046634067 -0.1959462 -8.173916E-17 -0.98061466 30 30 30 255
-0.008598399 0.0043316623 0.042717207 0 1 -9.714451E-17 30 30 30 255
-0.0070308284 0.0043316623 0.050562125 0 1 -9.714451E-17 30 30 30 255
0.024209745 0.0043316623 0.036161494 0 1 -9.714451E-17 30 30 30 255
-0.008404236 0.0043316623 0.053895876 0 1 -9.714451E-17 30 30 30 255
0.026365146 0.0043316623 0.046948265 0 1 -9.714451E-17 30 30 30 255
-0.008698155 0.0043316623 0.052424934 0 1 -9.714451E-17 30 30 30 255
-0.008992074 0.0043316623 0.05095402 0 1 -9.714451E-17 30 30 30 255
-0.008698155 0.0043316623 0.052424934 -0.1959462 -9.526134E-17 -0.98061466 30 30 30 255
-0.0067369123 -0.0043316646 0.052033067 -0.1959462 -9.526134E-17 -0.98061466 30 30 30 255
-0.008698155 -0.0043316646 0.052424934 -0.1959462 -9.526134E-17 -0.98061466 30 30 30 255
-0.0067369123 0.0043316623 0.052033067 -0.1959462 -9.526134E-17 -0.98061466 30 30 30 255
-0.008404236 -0.0043316646 0.053895876 -3.344572E-17 -1 8.300512E-18 30 30 30 255
0.024209745 -0.0043316646 0.036161494 -3.344572E-17 -1 8.300512E-18 30 30 30 255
0.026365146 -0.0043316646 0.046948265 -3.344572E-17 -1 8.300512E-18 30 30 30 255
-0.0067369123 -0.0043316646 0.052033067 -3.344572E-17 -1 8.300512E-18 30 30 30 255
-0.008698155 -0.0043316646 0.052424934 -3.344572E-17 -1 8.300512E-18 30 30 30 255
-0.008598399 -0.0043316646 0.042717207 -3.344572E-17 -1 8.300512E-18 30 30 30 255
0.023132307 -0.013999999 0.025159353 -0.051716786 0.9645409 -0.25881723 30 30 30 255
-0.008404236 -0.007980002 0.053895876 -0.051716786 0.9645409 -0.25881723 30 30 30 255
0.027443126 -0.007980002 0.046732847 -0.051716786 0.9645409 -0.25881723 30 30 30 255
-0.012715046 -0.013999999 0.032322362 -0.051716786 0.9645409 -0.25881723 30 30 30 255
0.008240403 -0.013999999 -0.04936736 7.270546E-18 1 -6.075898E-17 30 30 30 255
-0.012715046 -0.013999999 0.032322362 7.270546E-18 1 -6.075898E-17 30 30 30 255
0.023132307 -0.013999999 0.025159353 7.270546E-18 1 -6.075898E-17 30 30 30 255
-0.027606953 -0.013999999 -0.042204358 7.270546E-18 1 -6.075898E-17 30 30 30 255
0.027204262 0.009171572 0.024345698 -0.5647608 -0.8243861 -0.0378528 30 30 30 255
0.031515073 0.0052277944 0.04591921 -0.5647608 -0.8243861 -0.0378528 30 30 30 255
0.027443126 0.007979999 0.046732847 -0.5647608 -0.8243861 -0.0378528 30 30 30 255
0.027204262 -0.009171573 0.024345698 -0.7612086 0.6476302 0.03371345 30 30 30 255
0.023132307 -0.013999999 0.025159353 -0.7612086 0.6476302 0.03371345 30 30 30 255
0.031515073 -0.005227797 0.04591921 -0.7612086 0.6476302 0.03371345 30 30 30 255
0.027204262 -0.009171573 0.024345698 -0.7434875 0.6520393 0.1485634 30 30 30 255
0.008240403 -0.013999999 -0.04936736 -0.7434875 0.6520393 0.1485634 30 30 30 255
0.023132307 -0.013999999 0.025159353 -0.7434875 0.6520393 0.1485634 30 30 30 255
0.012312353 -0.009171573 -0.050181024 -0.7434875 0.6520393 0.1485634 30 30 30 255
0.02578204 0.0032689518 0.03584732 0.5417521 0.8335382 -0.1082527 30 30 30 255
0.026365146 0.0043316623 0.046948265 0.5417521 0.8335382 -0.1082527 30 30 30 255
0.027937459 0.0032689518 0.046634067 0.5417521 0.8335382 -0.1082527 30 30 30 255
0.024209745 0.0043316623 0.036161494 0.5417521 0.8335382 -0.1082527 30 30 30 255
0.023132307 -0.013999999 0.025159353 -0.5717607 0.8126674 -0.1125225 30 30 30 255
0.027443126 -0.007980002 0.046732847 -0.5717607 0.8126674 -0.1125225 30 30 30 255
0.031515073 -0.005227797 0.04591921 -0.5717607 0.8126674 -0.1125225 30 30 30 255
0.026365146 -0.0043316646 0.046948265 0.5417521 -0.8335382 -0.1082527 30 30 30 255
0.02578204 -0.0032689546 0.03584732 0.5417521 -0.8335382 -0.1082527 30 30 30 255
0.027937459 -0.0032689546 0.046634067 0.5417521 -0.8335382 -0.1082527 30 30 30 255
0.024209745 -0.0043316646 0.036161494 0.5417521 -0.8335382 -0.1082527 30 30 30 255
0.02578204 -0.0032689546 0.03584732 0.98061466 -1.9035087E-17 -0.1959461 30 30 30 255
0.027937459 0.0032689518 0.046634067 0.98061466 -1.9035087E-17 -0.1959461 30 30 30 255
0.027937459 -0.0032689546 0.046634067 0.98061466 -1.9035087E-17 -0.1959461 30 30 30 255
0.02578204 0.0032689518 0.03584732 0.98061466 -1.9035087E-17 -0.1959461 30 30 30 255
-0.008598399 0.0043316623 0.042717207 -0.1959462 -7.9269605E-17 -0.98061466 30 30 30 255
0.024209745 -0.0043316646 0.036161494 -0.1959462 -7.9269605E-17 -0.98061466 30 30 30 255
-0.008598399 -0.0043316646 0.042717207 -0.1959462 -7.9269605E-17 -0.98061466 30 30 30 255
0.02578204 -0.0032689546 0.03584732 -0.1959462 -7.9269605E-17 -0.98061466 30 30 30 255
0.02578204 0.0032689518 0.03584732 -0.1959462 -7.9269605E-17 -0.98061466 30 30 30 255
0.024209745 0.0043316623 0.036161494 -0.1959462 -7.9269605E-17 -0.98061466 30 30 30 255
-0.008598399 0.0043316623 0.042717207 -0.98061466 1.9035087E-17 0.1959461 30 30 30 255
-0.0067369123 -0.0043316646 0.052033067 -0.98061466 1.9035087E-17 0.1959461 30 30 30 255
-0.0067369123 0.0043316623 0.052033067 -0.98061466 1.9035087E-17 0.1959461 30 30 30 255
-0.008598399 -0.0043316646 0.042717207 -0.98061466 1.9035087E-17 0.1959461 30 30 30 255
-0.0044594803 -0.0045033414 0.05473654 0.9799247 3.4570308E-14 -0.1993679 204 163 39 255
-0.004370849 0.00017319522 0.05517217 0.9799247 3.4570308E-14 -0.1993679 204 163 39 255
-0.0039211856 0.00017319522 0.05738233 0.9799247 3.4570308E-14 -0.1993679 204 163 39 255
-0.004684311 -0.0025500709 0.053631462 0.9799247 3.4570308E-14 -0.1993679 204 163 39 255
-0.0055360664 -0.0045033414 0.049444932 0.9799247 3.4570308E-14 -0.1993679 204 163 39 255
-0.005311234 -0.0025500709 0.050550014 0.9799247 3.4570308E-14 -0.1993679 204 163 39 255
-0.0056246975 0.00017319522 0.049009297 0.9799247 3.4570308E-14 -0.1993679 204 163 39 255
-0.006074359 0.00017319522 0.046799142 0.9799247 3.4570308E-14 -0.1993679 204 163 39 255
-0.0044594803 0.0048497333 0.05473654 0.9799247 3.4570308E-14 -0.1993679 204 163 39 255
-0.004684311 0.0028964635 0.053631462 0.9799247 3.4570308E-14 -0.1993679 204 163 39 255
-0.0055360664 0.0048497333 0.049444932 0.9799247 3.4570308E-14 -0.1993679 204 163 39 255
-0.005311234 0.0028964635 0.050550014 0.9799247 3.4570308E-14 -0.1993679 204 163 39 255
-0.0039211856 0.00017319522 0.05738233 -0.1726577 0.49999988 -0.8486397 204 163 39 255
-0.0031880657 -0.0045033414 0.054477867 -0.1726577 0.49999988 -0.8486397 204 163 39 255
-0.0044594803 -0.0045033414 0.05473654 -0.1726577 0.49999988 -0.8486397 204 163 39 255
-0.002649771 0.00017319522 0.057123654 -0.1726577 0.49999988 -0.8486397 204 163 39 255
-0.004264652 -0.0045033414 0.04918626 0 1 -9.714451E-17 204 163 39 255
-0.0044594803 -0.0045033414 0.05473654 0 1 -9.714451E-17 204 163 39 255
-0.0031880657 -0.0045033414 0.054477867 0 1 -9.714451E-17 204 163 39 255
-0.0055360664 -0.0045033414 0.049444932 0 1 -9.714451E-17 204 163 39 255
-0.004802944 0.00017319522 0.04654047 0.1726577 0.49999988 0.8486397 204 163 39 255
-0.0055360664 -0.0045033414 0.049444932 0.1726577 0.49999988 0.8486397 204 163 39 255
-0.004264652 -0.0045033414 0.04918626 0.1726577 0.49999988 0.8486397 204 163 39 255
-0.006074359 0.00017319522 0.046799142 0.1726577 0.49999988 0.8486397 204 163 39 255
-0.004264652 0.0048497333 0.04918626 0.1726577 -0.4999997 0.8486398 204 163 39 255
-0.006074359 0.00017319522 0.046799142 0.1726577 -0.4999997 0.8486398 204 163 39 255
-0.004802944 0.00017319522 0.04654047 0.1726577 -0.4999997 0.8486398 204 163 39 255
-0.0055360664 0.0048497333 0.049444932 0.1726577 -0.4999997 0.8486398 204 163 39 255
-0.0044594803 0.0048497333 0.05473654 0 -1 9.714451E-17 204 163 39 255
-0.004264652 0.0048497333 0.04918626 0 -1 9.714451E-17 204 163 39 255
-0.0031880657 0.0048497333 0.054477867 0 -1 9.714451E-17 204 163 39 255
-0.0055360664 0.0048497333 0.049444932 0 -1 9.714451E-17 204 163 39 255
-0.0044594803 0.0048497333 0.05473654 -0.1726577 -0.4999997 -0.8486398 204 163 39 255
-0.002649771 0.00017319522 0.057123654 -0.1726577 -0.4999997 -0.8486398 204 163 39 255
-0.0039211856 0.00017319522 0.05738233 -0.1726577 -0.4999997 -0.8486398 204 163 39 255
-0.0031880657 0.0048497333 0.054477867 -0.1726577 -0.4999997 -0.8486398 204 163 39 255
-0.0031880657 0.0048497333 0.054477867 -0.9799247 2.7078396E-17 0.1993679 204 163 39 255
-0.0028112591 0.00017319522 0.056329906 -0.9799247 2.7078396E-17 0.1993679 204 163 39 255
-0.002649771 0.00017319522 0.057123654 -0.9799247 2.7078396E-17 0.1993679 204 163 39 255
-0.0032688095 0.0041482514 0.054080993 -0.9799247 2.7078396E-17 0.1993679 204 163 39 255
-0.004264652 0.0048497333 0.04918626 -0.9799247 2.7078396E-17 0.1993679 204 163 39 255
-0.004183908 0.0041482514 0.04958313 -0.9799247 2.7078396E-17 0.1993679 204 163 39 255
-0.004641456 0.00017319522 0.047334217 -0.9799247 2.7078396E-17 0.1993679 204 163 39 255
-0.004802944 0.00017319522 0.04654047 -0.9799247 2.7078396E-17 0.1993679 204 163 39 255
-0.0031880657 -0.0045033414 0.054477867 -0.9799247 2.7078396E-17 0.1993679 204 163 39 255
-0.0032688095 -0.0038018618 0.054080993 -0.9799247 2.7078396E-17 0.1993679 204 163 39 255
-0.004264652 -0.0045033414 0.04918626 -0.9799247 2.7078396E-17 0.1993679 204 163 39 255
-0.004183908 -0.0038018618 0.04958313 -0.9799247 2.7078396E-17 0.1993679 204 163 39 255
0.026055574 0.0017866013 0.046723448 -0.9799247 2.1470652E-17 0.1993679 204 163 122 255
0.026055574 -0.0014402086 0.046723448 -0.9799247 2.1470652E-17 0.1993679 204 163 122 255
0.02624127 0.00017319522 0.04763625 -0.9799247 2.1470652E-17 0.1993679 204 163 122 255
0.025684148 0.0017866013 0.04489785 -0.9799247 2.1470652E-17 0.1993679 204 163 122 255
0.025684148 -0.0014402086 0.04489785 -0.9799247 2.1470652E-17 0.1993679 204 163 122 255
0.025498424 0.00017319522 0.04398505 -0.9799247 2.1470652E-17 0.1993679 204 163 122 255
0.025684148 -0.0014402086 0.04489785 -0.5806522 0.8055353 0.118135 204 163 122 255
0.023638388 -0.00342631 0.048385397 -0.5806522 0.8055353 0.118135 204 163 122 255
0.026055574 -0.0014402086 0.046723448 -0.5806522 0.8055353 0.118135 204 163 122 255
0.022809746 -0.00342631 0.04431248 -0.5806522 0.8055353 0.118135 204 163 122 255
0.02624127 0.00017319522 0.04763625 -0.719734 0.4027678 -0.5654742 204 163 122 255
0.023638388 -0.00342631 0.048385397 -0.719734 0.4027678 -0.5654742 204 163 122 255
0.024052711 0.00017319522 0.050421838 -0.719734 0.4027678 -0.5654742 204 163 122 255
0.026055574 -0.0014402086 0.046723448 -0.719734 0.4027678 -0.5654742 204 163 122 255
0.023638388 0.0037727023 0.048385397 -0.719734 -0.4027677 -0.5654743 204 163 122 255
0.02624127 0.00017319522 0.04763625 -0.719734 -0.4027677 -0.5654743 204 163 122 255
0.024052711 0.00017319522 0.050421838 -0.719734 -0.4027677 -0.5654743 204 163 122 255
0.026055574 0.0017866013 0.046723448 -0.719734 -0.4027677 -0.5654743 204 163 122 255
0.023638388 0.0037727023 0.048385397 -0.5806521 -0.8055354 0.118135 204 163 122 255
0.025684148 0.0017866013 0.04489785 -0.5806521 -0.8055354 0.118135 204 163 122 255
0.026055574 0.0017866013 0.046723448 -0.5806521 -0.8055354 0.118135 204 163 122 255
0.022809746 0.0037727023 0.04431248 -0.5806521 -0.8055354 0.118135 204 163 122 255
0.025684148 0.0017866013 0.04489785 -0.4415701 -0.4027675 0.8017444 204 163 122 255
0.022395425 0.00017319522 0.04227604 -0.4415701 -0.4027675 0.8017444 204 163 122 255
0.025498424 0.00017319522 0.04398505 -0.4415701 -0.4027675 0.8017444 204 163 122 255
0.022809746 0.0037727023 0.04431248 -0.4415701 -0.4027675 0.8017444 204 163 122 255
0.025684148 -0.0014402086 0.04489785 -0.4415702 0.4027677 0.8017443 204 163 122 255
0.022395425 0.00017319522 0.04227604 -0.4415702 0.4027677 0.8017443 204 163 122 255
0.022809746 -0.00342631 0.04431248 -0.4415702 0.4027677 0.8017443 204 163 122 255
0.025498424 0.00017319522 0.04398505 -0.4415702 0.4027677 0.8017443 204 163 122 255
0.022809746 -0.00342631 0.04431248 -0.1916704 0.98068434 0.03899577 204 163 122 255
0.018470753 -0.0045033414 0.050071325 -0.1916704 0.98068434 0.03899577 204 163 122 255
0.023638388 -0.00342631 0.048385397 -0.1916704 0.98068434 0.03899577 204 163 122 255
0.017394168 -0.0045033414 0.04477974 -0.1916704 0.98068434 0.03899577 204 163 122 255
0.019009048 0.00017319522 0.05271711 -0.360993 0.49034223 -0.7932519 204 163 122 255
0.023638388 -0.00342631 0.048385397 -0.360993 0.49034223 -0.7932519 204 163 122 255
0.018470753 -0.0045033414 0.050071325 -0.360993 0.49034223 -0.7932519 204 163 122 255
0.024052711 0.00017319522 0.050421838 -0.360993 0.49034223 -0.7932519 204 163 122 255
0.018470753 0.0048497333 0.050071325 -0.360993 -0.490342 -0.793252 204 163 122 255
0.024052711 0.00017319522 0.050421838 -0.360993 -0.490342 -0.793252 204 163 122 255
0.019009048 0.00017319522 0.05271711 -0.360993 -0.490342 -0.793252 204 163 122 255
0.023638388 0.0037727023 0.048385397 -0.360993 -0.490342 -0.793252 204 163 122 255
0.018470753 0.0048497333 0.050071325 -0.1916705 -0.98068434 0.0389958 204 163 122 255
0.022809746 0.0037727023 0.04431248 -0.1916705 -0.98068434 0.0389958 204 163 122 255
0.023638388 0.0037727023 0.048385397 -0.1916705 -0.98068434 0.0389958 204 163 122 255
0.017394168 0.0048497333 0.04477974 -0.1916705 -0.98068434 0.0389958 204 163 122 255
0.022809746 0.0037727023 0.04431248 -0.02234776 -0.49034187 0.8712436 204 163 122 255
0.016855877 0.00017319522 0.042133924 -0.02234776 -0.49034187 0.8712436 204 163 122 255
0.022395425 0.00017319522 0.04227604 -0.02234776 -0.49034187 0.8712436 204 163 122 255
0.017394168 0.0048497333 0.04477974 -0.02234776 -0.49034187 0.8712436 204 163 122 255
0.022809746 -0.00342631 0.04431248 -0.02234774 0.4903421 0.8712435 204 163 122 255
0.016855877 0.00017319522 0.042133924 -0.02234774 0.4903421 0.8712435 204 163 122 255
0.017394168 -0.0045033414 0.04477974 -0.02234774 0.4903421 0.8712435 204 163 122 255
0.022395425 0.00017319522 0.04227604 -0.02234774 0.4903421 0.8712435 204 163 122 255
-0.004784092 -0.0016831965 0.05314101 0.9799247 -2.0682538E-17 -0.1993679 204 163 39 255
-0.004784092 0.0020295894 0.05314101 0.9799247 -2.0682538E-17 -0.1993679 204 163 39 255
-0.004570412 0.00017319522 0.054191273 0.9799247 -2.0682538E-17 -0.1993679 204 163 39 255
-0.0052114525 -0.0016831965 0.05104046 0.9799247 -2.0682538E-17 -0.1993679 204 163 39 255
-0.0052114525 0.0020295894 0.05104046 0.9799247 -2.0682538E-17 -0.1993679 204 163 39 255
-0.0054251323 0.00017319522 0.049990196 0.9799247 -2.0682538E-17 -0.1993679 204 163 39 255
-0.0010222399 0.0048497333 0.05403723 -0.1726577 -0.4999997 -0.8486398 204 163 39 255
0.019009048 0.00017319522 0.05271711 -0.1726577 -0.4999997 -0.8486398 204 163 39 255
-0.00048394696 0.00017319522 0.056683023 -0.1726577 -0.4999997 -0.8486398 204 163 39 255
0.018470753 0.0048497333 0.050071325 -0.1726577 -0.4999997 -0.8486398 204 163 39 255
-0.0018576 0.0041482514 0.053793866 0.5322553 -0.3696326 -0.7616272 204 163 39 255
-0.00048394696 0.00017319522 0.056683023 0.5322553 -0.3696326 -0.7616272 204 163 39 255
-0.0014000507 0.00017319522 0.05604281 0.5322553 -0.3696326 -0.7616272 204 163 39 255
-0.0010222399 0.0048497333 0.05403723 0.5322553 -0.3696326 -0.7616272 204 163 39 255
-0.0010222399 0.0048497333 0.05403723 0 -1 9.714451E-17 204 163 39 255
0.017394168 0.0048497333 0.04477974 0 -1 9.714451E-17 204 163 39 255
0.018470753 0.0048497333 0.050071325 0 -1 9.714451E-17 204 163 39 255
-0.0020988265 0.0048497333 0.048745617 0 -1 9.714451E-17 204 163 39 255
-0.00048394696 0.00017319522 0.056683023 -0.1726577 0.49999988 -0.8486397 204 163 39 255
0.018470753 -0.0045033414 0.050071325 -0.1726577 0.49999988 -0.8486397 204 163 39 255
-0.0010222399 -0.0045033414 0.05403723 -0.1726577 0.49999988 -0.8486397 204 163 39 255
0.019009048 0.00017319522 0.05271711 -0.1726577 0.49999988 -0.8486397 204 163 39 255
-0.0018576 0.0041482514 0.053793866 0.6598962 -0.7392644 -0.1342574 204 163 39 255
-0.0020988265 0.0048497333 0.048745617 0.6598962 -0.7392644 -0.1342574 204 163 39 255
-0.0010222399 0.0048497333 0.05403723 0.6598962 -0.7392644 -0.1342574 204 163 39 255
-0.0027726993 0.0041482514 0.049296014 0.6598962 -0.7392644 -0.1342574 204 163 39 255
-0.0018576 -0.0038018618 0.053793866 0.5322551 0.3696328 -0.7616273 204 163 39 255
-0.00048394696 0.00017319522 0.056683023 0.5322551 0.3696328 -0.7616273 204 163 39 255
-0.0010222399 -0.0045033414 0.05403723 0.5322551 0.3696328 -0.7616273 204 163 39 255
-0.0014000507 0.00017319522 0.05604281 0.5322551 0.3696328 -0.7616273 204 163 39 255
-0.0032688095 0.0041482514 0.054080993 -0.1726577 -0.5 -0.8486397 204 163 39 255
-0.0014000507 0.00017319522 0.05604281 -0.1726577 -0.5 -0.8486397 204 163 39 255
-0.0028112591 0.00017319522 0.056329906 -0.1726577 -0.5 -0.8486397 204 163 39 255
-0.0018576 0.0041482514 0.053793866 -0.1726577 -0.5 -0.8486397 204 163 39 255
0.017394168 0.0048497333 0.04477974 0.1726577 -0.4999997 0.8486398 204 163 39 255
-0.0026371193 0.00017319522 0.04609983 0.1726577 -0.4999997 0.8486398 204 163 39 255
0.016855877 0.00017319522 0.042133924 0.1726577 -0.4999997 0.8486398 204 163 39 255
-0.0020988265 0.0048497333 0.048745617 0.1726577 -0.4999997 0.8486398 204 163 39 255
0.017394168 -0.0045033414 0.04477974 0 1 -9.714451E-17 204 163 39 255
-0.0010222399 -0.0045033414 0.05403723 0 1 -9.714451E-17 204 163 39 255
0.018470753 -0.0045033414 0.050071325 0 1 -9.714451E-17 204 163 39 255
-0.0020988265 -0.0045033414 0.048745617 0 1 -9.714451E-17 204 163 39 255
-0.0032302472 0.00017319522 0.047047097 0.7875357 -0.3696322 0.49311203 204 163 39 255
-0.0020988265 0.0048497333 0.048745617 0.7875357 -0.3696322 0.49311203 204 163 39 255
-0.0027726993 0.0041482514 0.049296014 0.7875357 -0.3696322 0.49311203 204 163 39 255
-0.0026371193 0.00017319522 0.04609983 0.7875357 -0.3696322 0.49311203 204 163 39 255
-0.0032688095 0.0041482514 0.054080993 0 -1 9.714451E-17 204 163 39 255
-0.0027726993 0.0041482514 0.049296014 0 -1 9.714451E-17 204 163 39 255
-0.0018576 0.0041482514 0.053793866 0 -1 9.714451E-17 204 163 39 255
-0.004183908 0.0041482514 0.04958313 0 -1 9.714451E-17 204 163 39 255
-0.0028112591 0.00017319522 0.056329906 -0.1726577 0.5 -0.8486397 204 163 39 255
-0.0018576 -0.0038018618 0.053793866 -0.1726577 0.5 -0.8486397 204 163 39 255
-0.0032688095 -0.0038018618 0.054080993 -0.1726577 0.5 -0.8486397 204 163 39 255
-0.0014000507 0.00017319522 0.05604281 -0.1726577 0.5 -0.8486397 204 163 39 255
-0.0020988265 -0.0045033414 0.048745617 0.6598955 0.7392651 -0.1342572 204 163 39 255
-0.0018576 -0.0038018618 0.053793866 0.6598955 0.7392651 -0.1342572 204 163 39 255
-0.0010222399 -0.0045033414 0.05403723 0.6598955 0.7392651 -0.1342572 204 163 39 255
-0.0027726993 -0.0038018618 0.049296014 0.6598955 0.7392651 -0.1342572 204 163 39 255
0.016855877 0.00017319522 0.042133924 0.1726577 0.49999988 0.8486397 204 163 39 255
-0.0020988265 -0.0045033414 0.048745617 0.1726577 0.49999988 0.8486397 204 163 39 255
0.017394168 -0.0045033414 0.04477974 0.1726577 0.49999988 0.8486397 204 163 39 255
-0.0026371193 0.00017319522 0.04609983 0.1726577 0.49999988 0.8486397 204 163 39 255
-0.0027726993 0.0041482514 0.049296014 0.17265768 -0.50000006 0.8486396 204 163 39 255
-0.004641456 0.00017319522 0.047334217 0.17265768 -0.50000006 0.8486396 204 163 39 255
-0.0032302472 0.00017319522 0.047047097 0.17265768 -0.50000006 0.8486396 204 163 39 255
-0.004183908 0.0041482514 0.04958313 0.17265768 -0.50000006 0.8486396 204 163 39 255
-0.0020988265 -0.0045033414 0.048745617 0.7875356 0.3696324 0.49311218 204 163 39 255
-0.0032302472 0.00017319522 0.047047097 0.7875356 0.3696324 0.49311218 204 163 39 255
-0.0027726993 -0.0038018618 0.049296014 0.7875356 0.3696324 0.49311218 204 163 39 255
-0.0026371193 0.00017319522 0.04609983 0.7875356 0.3696324 0.49311218 204 163 39 255
-0.0027726993 -0.0038018618 0.049296014 0 1 -9.714451E-17 204 163 39 255
-0.0032688095 -0.0038018618 0.054080993 0 1 -9.714451E-17 204 163 39 255
-0.0018576 -0.0038018618 0.053793866 0 1 -9.714451E-17 204 163 39 255
-0.004183908 -0.0038018618 0.04958313 0 1 -9.714451E-17 204 163 39 255
-0.0032302472 0.00017319522 0.047047097 0.1726576 0.5000002 0.8486396 204 163 39 255
-0.004183908 -0.0038018618 0.04958313 0.1726576 0.5000002 0.8486396 204 163 39 255
-0.0027726993 -0.0038018618 0.049296014 0.1726576 0.5000002 0.8486396 204 163 39 255
-0.004641456 0.00017319522 0.047334217 0.1726576 0.5000002 0.8486396 204 163 39 255
-0.0038023773 -0.0025500709 0.053452007 0.9799247 -8.0163655E-19 -0.1993679 153 129 61 255
-0.0036884786 0.00017319522 0.054011855 0.9799247 -8.0163655E-19 -0.1993679 153 129 61 255
-0.003488916 0.00017319522 0.054992724 0.9799247 -8.0163655E-19 -0.1993679 153 129 61 255
-0.0039021587 -0.0016831965 0.05296159 0.9799247 -8.0163655E-19 -0.1993679 153 129 61 255
-0.0044293026 -0.0025500709 0.05037058 0.9799247 -8.0163655E-19 -0.1993679 153 129 61 255
-0.004329521 -0.0016831965 0.050861035 0.9799247 -8.0163655E-19 -0.1993679 153 129 61 255
-0.004543201 0.00017319522 0.04981077 0.9799247 -8.0163655E-19 -0.1993679 153 129 61 255
-0.004742764 0.00017319522 0.048829872 0.9799247 -8.0163655E-19 -0.1993679 153 129 61 255
-0.0038023773 0.0028964635 0.053452007 0.9799247 -8.0163655E-19 -0.1993679 153 129 61 255
-0.0039021587 0.0020295894 0.05296159 0.9799247 -8.0163655E-19 -0.1993679 153 129 61 255
-0.0044293026 0.0028964635 0.05037058 0.9799247 -8.0163655E-19 -0.1993679 153 129 61 255
-0.004329521 0.0020295894 0.050861035 0.9799247 -8.0163655E-19 -0.1993679 153 129 61 255
-0.003488916 0.00017319522 0.054992724 0.1726577 -0.49999988 0.8486398 153 129 61 255
-0.004684311 -0.0025500709 0.053631462 0.1726577 -0.49999988 0.8486398 153 129 61 255
-0.0038023773 -0.0025500709 0.053452007 0.1726577 -0.49999988 0.8486398 153 129 61 255
-0.004370849 0.00017319522 0.05517217 0.1726577 -0.49999988 0.8486398 153 129 61 255
-0.004684311 -0.0025500709 0.053631462 0 -1 9.714451E-17 153 129 61 255
-0.0044293026 -0.0025500709 0.05037058 0 -1 9.714451E-17 153 129 61 255
-0.0038023773 -0.0025500709 0.053452007 0 -1 9.714451E-17 153 129 61 255
-0.005311234 -0.0025500709 0.050550014 0 -1 9.714451E-17 153 129 61 255
-0.0056246975 0.00017319522 0.049009297 -0.1726577 -0.49999988 -0.8486398 153 129 61 255
-0.0044293026 -0.0025500709 0.05037058 -0.1726577 -0.49999988 -0.8486398 153 129 61 255
-0.005311234 -0.0025500709 0.050550014 -0.1726577 -0.49999988 -0.8486398 153 129 61 255
-0.004742764 0.00017319522 0.048829872 -0.1726577 -0.49999988 -0.8486398 153 129 61 255
-0.005311234 0.0028964635 0.050550014 -0.1726577 0.49999976 -0.8486398 153 129 61 255
-0.004742764 0.00017319522 0.048829872 -0.1726577 0.49999976 -0.8486398 153 129 61 255
-0.0056246975 0.00017319522 0.049009297 -0.1726577 0.49999976 -0.8486398 153 129 61 255
-0.0044293026 0.0028964635 0.05037058 -0.1726577 0.49999976 -0.8486398 153 129 61 255
-0.0044293026 0.0028964635 0.05037058 0 1 -9.714451E-17 153 129 61 255
-0.004684311 0.0028964635 0.053631462 0 1 -9.714451E-17 153 129 61 255
-0.0038023773 0.0028964635 0.053452007 0 1 -9.714451E-17 153 129 61 255
-0.005311234 0.0028964635 0.050550014 0 1 -9.714451E-17 153 129 61 255
-0.0038023773 0.0028964635 0.053452007 0.1726577 0.49999976 0.8486398 153 129 61 255
-0.004370849 0.00017319522 0.05517217 0.1726577 0.49999976 0.8486398 153 129 61 255
-0.003488916 0.00017319522 0.054992724 0.1726577 0.49999976 0.8486398 153 129 61 255
-0.004684311 0.0028964635 0.053631462 0.1726577 0.49999976 0.8486398 153 129 61 255
-0.004570412 0.00017319522 0.054191273 -0.1726577 0.5000001 -0.8486396 153 129 61 255
-0.0039021587 -0.0016831965 0.05296159 -0.1726577 0.5000001 -0.8486396 153 129 61 255
-0.004784092 -0.0016831965 0.05314101 -0.1726577 0.5000001 -0.8486396 153 129 61 255
-0.0036884786 0.00017319522 0.054011855 -0.1726577 0.5000001 -0.8486396 153 129 61 255
-0.004784092 0.0020295894 0.05314101 -0.17265768 -0.49999964 -0.8486398 153 129 61 255
-0.0036884786 0.00017319522 0.054011855 -0.17265768 -0.49999964 -0.8486398 153 129 61 255
-0.004570412 0.00017319522 0.054191273 -0.17265768 -0.49999964 -0.8486398 153 129 61 255
-0.0039021587 0.0020295894 0.05296159 -0.17265768 -0.49999964 -0.8486398 153 129 61 255
-0.004329521 -0.0016831965 0.050861035 0 1 -9.714451E-17 153 129 61 255
-0.004784092 -0.0016831965 0.05314101 0 1 -9.714451E-17 153 129 61 255
-0.0039021587 -0.0016831965 0.05296159 0 1 -9.714451E-17 153 129 61 255
-0.0052114525 -0.0016831965 0.05104046 0 1 -9.714451E-17 153 129 61 255
-0.004784092 0.0020295894 0.05314101 0 -1 9.714451E-17 153 129 61 255
-0.004329521 0.0020295894 0.050861035 0 -1 9.714451E-17 153 129 61 255
-0.0039021587 0.0020295894 0.05296159 0 -1 9.714451E-17 153 129 61 255
-0.0052114525 0.0020295894 0.05104046 0 -1 9.714451E-17 153 129 61 255
-0.004543201 0.00017319522 0.04981077 0.1726577 0.5000001 0.8486396 153 129 61 255
-0.0052114525 -0.0016831965 0.05104046 0.1726577 0.5000001 0.8486396 153 129 61 255
-0.004329521 -0.0016831965 0.050861035 0.1726577 0.5000001 0.8486396 153 129 61 255
-0.0054251323 0.00017319522 0.049990196 0.1726577 0.5000001 0.8486396 153 129 61 255
-0.004329521 0.0020295894 0.050861035 0.17265768 -0.49999964 0.8486398 153 129 61 255
-0.0054251323 0.00017319522 0.049990196 0.17265768 -0.49999964 0.8486398 153 129 61 255
-0.004543201 0.00017319522 0.04981077 0.17265768 -0.49999964 0.8486398 153 129 61 255
-0.0052114525 0.0020295894 0.05104046 0.17265768 -0.49999964 0.8486398 153 129 61 255
3 0 1 2
3 1 0 3
3 4 5 6
3 5 4 7
3 8 9 10
3 9 8 11
3 11 8 12
3 13 14 15
3 14 13 16
3 14 16 17
3 17 16 18
3 15 19 20
3 19 15 14
3 20 19 21
3 20 21 22
3 22 21 23
3 22 23 18
3 22 18 24
3 24 18 16
3 25 26 27
3 26 25 28
3 26 28 29
3 30 31 32
3 31 30 33
3 33 30 34
3 33 34 35
3 36 37 38
3 37 36 39
3 40 41 42
3 41 40 43
3 44 45 46
3 45 44 47
3 48 49 50
3 49 48 51
3 52 53 54
3 53 52 55
3 56 57 58
3 57 56 59
3 60 61 62
3 61 60 63
3 63 60 64
3 64 65 66
3 65 64 67
3 67 64 60
3 67 60 68
3 67 68 69
3 70 71 72
3 73 74 75
3 74 73 76
3 76 73 77
3 76 77 78
3 79 80 81
3 80 79 82
3 82 79 83
3 84 85 86
3 85 84 87
3 87 84 88
3 87 88 89
3 87 89 82
3 82 89 90
3 82 90 80
3 91 92 93
3 93 94 95
3 94 93 92
3 94 92 96
3 96 92 97
3 98 99 100
3 99 98 101
3 102 103 104
3 103 102 105
3 105 102 106
3 107 103 105
3 108 109 110
3 109 108 111
3 112 113 114
3 113 112 115
3 116 117 118
3 119 120 121
3 122 123 124
3 123 122 125
3 126 127 128
3 127 126 129
3 130 131 132
3 133 134 135
3 134 133 136
3 137 138 139
3 138 137 140
3 141 142 143
3 142 141 144
3 144 141 145
3 145 141 146
3 147 148 149
3 148 147 150
3 151 152 153
3 152 151 154
3 154 151 155
3 154 155 156
3 156 155 157
3 157 155 158
3 152 159 153
3 159 152 160
3 159 160 161
3 161 160 162
3 161 162 157
3 161 157 158
3 163 164 165
3 164 163 166
3 167 168 169
3 168 167 170
3 171 172 173
3 172 171 174
3 175 176 177
3 176 175 178
3 179 180 181
3 180 179 182
3 183 184 185
3 184 183 186
3 187 188 189
3 188 187 190
3 190 187 191
3 190 191 192
3 192 191 193
3 193 191 194
3 188 195 189
3 195 188 196
3 195 196 197
3 197 196 198
3 197 198 193
3 197 193 194
3 199 200 201
3 200 199 202
3 200 202 203
3 203 202 204
3 205 206 207
3 206 205 208
3 209 210 211
3 210 209 212
3 213 214 215
3 214 213 216
3 217 218 219
3 218 217 220
3 221 222 223
3 222 221 224
3 225 226 227
3 226 225 228
3 229 230 231
3 230 229 232
3 233 234 235
3 234 233 236
3 237 238 239
3 238 237 240
3 241 242 243
3 242 241 244
3 245 246 247
3 246 245 248
3 249 250 251
3 250 249 252
3 253 254 255
3 254 253 256
3 254 256 257
3 257 256 258
3 259 260 261
3 260 259 262
3 263 264 265
3 264 263 266
3 267 268 269
3 268 267 270
3 271 272 273
3 272 271 274
3 275 276 277
3 276 275 278
3 279 280 281
3 280 279 282
3 283 284 285
3 284 283 286
3 287 288 289
3 288 287 290
3 291 292 293
3 292 291 294
3 295 296 297
3 296 295 298
3 299 300 301
3 300 299 302
3 303 304 305
3 304 303 306
3 307 308 309
3 308 307 310
3 311 312 313
3 312 311 314
3 315 316 317
3 316 315 318
3 319 320 321
3 320 319 322
3 323 324 325
3 324 323 326
3 327 328 329
3 328 327 330
3 331 332 333
3 332 331 334
3 334 331 335
3 334 335 336
3 336 335 337
3 337 335 338
3 332 339 333
3 339 332 340
3 339 340 341
3 341 340 342
3 341 342 337
3 341 337 338
3 343 344 345
3 344 343 346
3 347 348 349
3 348 347 350
3 351 352 353
3 352 351 354
3 355 356 357
3 356 355 358
3 359 360 361
3 360 359 362
3 363 364 365
3 364 363 366
3 367 368 369
3 368 367 370
3 371 372 373
3 372 371 374
3 375 376 377
3 376 375 378
3 379 380 381
3 380 379 382
3 383 384 385
3 384 383 386
3 387 388 389
3 388 387 390

