ply
format ascii 1.0
commentY29udmVydGVyIGJ5IENvZGVMZW9wYXJk
comment Original mesh name: 'C:\Program Files (x86)\Steam\steamapps\common\Stormworks\rom\meshes\equipment_shell_xl.mesh'
comment SubMesh index: 0
comment SubMesh name: 'ID78'
comment Shader: Opaque (0)
element vertex 320
property float x
property float y
property float z
property float nx
property float ny
property float nz
property uchar red
property uchar green
property uchar blue
property uchar alpha
element face 192
property list uchar ushort vertex_index
end_header
-0.07421063 -0.030739035 0.37 0.68552214 0.68552196 -0.24519168 255 128 0 255
-0.016072739 -0.038802933 0.50999993 0.68552214 0.68552196 -0.24519168 255 128 0 255
-0.030739062 -0.07421061 0.37 0.68552214 0.68552196 -0.24519168 255 128 0 255
-0.03880296 -0.016072694 0.50999993 0.68552214 0.68552196 -0.24519168 255 128 0 255
-0.07421063 -0.030739035 0.37 0.9694747 5.7291015E-08 -0.24519171 255 128 0 255
-0.038802978 0.01607272 0.50999993 0.9694747 5.7291015E-08 -0.24519171 255 128 0 255
-0.03880296 -0.016072694 0.50999993 0.9694747 5.7291015E-08 -0.24519171 255 128 0 255
-0.07421063 0.030739052 0.37 0.9694747 5.7291015E-08 -0.24519171 255 128 0 255
-0.016072739 -0.038802933 0.50999993 5.7291007E-08 0.96947455 -0.2451918 255 128 0 255
0.030739024 -0.07421061 0.37 5.7291007E-08 0.96947455 -0.2451918 255 128 0 255
-0.030739062 -0.07421061 0.37 5.7291007E-08 0.96947455 -0.2451918 255 128 0 255
0.016072685 -0.038802937 0.50999993 5.7291007E-08 0.96947455 -0.2451918 255 128 0 255
-0.016072722 0.038802948 0.50999993 0.68552196 -0.68552214 -0.24519168 255 128 0 255
-0.07421063 0.030739052 0.37 0.68552196 -0.68552214 -0.24519168 255 128 0 255
-0.030739058 0.074210614 0.37 0.68552196 -0.68552214 -0.24519168 255 128 0 255
-0.038802978 0.01607272 0.50999993 0.68552196 -0.68552214 -0.24519168 255 128 0 255
0.016072685 -0.038802937 0.50999993 -0.685522 0.68552196 -0.2451918 255 128 0 255
0.0742106 -0.030739037 0.37 -0.685522 0.68552196 -0.2451918 255 128 0 255
0.030739024 -0.07421061 0.37 -0.685522 0.68552196 -0.2451918 255 128 0 255
0.03880291 -0.016072692 0.50999993 -0.685522 0.68552196 -0.2451918 255 128 0 255
0.016072674 0.03880296 0.50999993 5.7291015E-08 -0.9694747 -0.24519171 255 128 0 255
-0.030739058 0.074210614 0.37 5.7291015E-08 -0.9694747 -0.24519171 255 128 0 255
0.03073903 0.07421062 0.37 5.7291015E-08 -0.9694747 -0.24519171 255 128 0 255
-0.016072722 0.038802948 0.50999993 5.7291015E-08 -0.9694747 -0.24519171 255 128 0 255
0.03880291 -0.016072692 0.50999993 -0.96947455 5.7291007E-08 -0.2451918 255 128 0 255
0.07421059 0.030739047 0.37 -0.96947455 5.7291007E-08 -0.2451918 255 128 0 255
0.0742106 -0.030739037 0.37 -0.96947455 5.7291007E-08 -0.2451918 255 128 0 255
0.03880292 0.016072711 0.50999993 -0.96947455 5.7291007E-08 -0.2451918 255 128 0 255
0.016072674 0.03880296 0.50999993 -0.6855221 -0.68552214 -0.24519183 255 128 0 255
0.07421059 0.030739047 0.37 -0.6855221 -0.68552214 -0.24519183 255 128 0 255
0.03880292 0.016072711 0.50999993 -0.6855221 -0.68552214 -0.24519183 255 128 0 255
0.03073903 0.07421062 0.37 -0.6855221 -0.68552214 -0.24519183 255 128 0 255
0.014147253 0.03415449 -0.35000002 3.1802898E-24 -0 1 255 128 0 255
0.03415449 -0.014147253 -0.35000002 3.1802898E-24 -0 1 255 128 0 255
0.03415446 0.014147254 -0.35000002 3.1802898E-24 -0 1 255 128 0 255
-0.014147264 0.034154486 -0.35000002 3.1802898E-24 -0 1 255 128 0 255
0.01414723 -0.03415447 -0.35000002 3.1802898E-24 -0 1 255 128 0 255
-0.014147253 -0.03415449 -0.35000002 3.1802898E-24 -0 1 255 128 0 255
-0.03415452 0.014147266 -0.35000002 3.1802898E-24 -0 1 255 128 0 255
-0.034154497 -0.014147241 -0.35000002 3.1802898E-24 -0 1 255 128 0 255
0.018289369 0.044154488 -0.35000002 3.1802898E-24 -0 1 199 125 55 255
0.03415446 0.014147254 -0.35000002 3.1802898E-24 -0 1 199 125 55 255
0.044154465 0.018289393 -0.35000002 3.1802898E-24 -0 1 199 125 55 255
0.014147253 0.03415449 -0.35000002 3.1802898E-24 -0 1 199 125 55 255
-0.018289402 0.044154488 -0.35000002 3.1802898E-24 -0 1 199 125 55 255
-0.014147264 0.034154486 -0.35000002 3.1802898E-24 -0 1 199 125 55 255
-0.0441545 0.018289393 -0.35000002 3.1802898E-24 -0 1 199 125 55 255
-0.03415452 0.014147266 -0.35000002 3.1802898E-24 -0 1 199 125 55 255
-0.034154497 -0.014147241 -0.35000002 3.1802898E-24 -0 1 199 125 55 255
-0.044154502 -0.018289378 -0.35000002 3.1802898E-24 -0 1 199 125 55 255
0.044154465 -0.01828938 -0.35000002 3.1802898E-24 -0 1 199 125 55 255
0.03415449 -0.014147253 -0.35000002 3.1802898E-24 -0 1 199 125 55 255
0.018289369 -0.044154476 -0.35000002 3.1802898E-24 -0 1 199 125 55 255
0.01414723 -0.03415447 -0.35000002 3.1802898E-24 -0 1 199 125 55 255
-0.018289402 -0.044154476 -0.35000002 3.1802898E-24 -0 1 199 125 55 255
-0.014147253 -0.03415449 -0.35000002 3.1802898E-24 -0 1 199 125 55 255
0.097007334 -0.040181756 -0.14 -4.645183E-17 2.335291E-16 -1 255 255 255 255
0.040181745 0.09700736 -0.14 -4.645183E-17 2.335291E-16 -1 255 255 255 255
0.097007334 0.040181763 -0.14 -4.645183E-17 2.335291E-16 -1 255 255 255 255
-0.040181763 0.097007334 -0.14 -4.645183E-17 2.335291E-16 -1 255 255 255 255
0.04018174 -0.09700734 -0.14 -4.645183E-17 2.335291E-16 -1 255 255 255 255
-0.04018178 -0.09700734 -0.14 -4.645183E-17 2.335291E-16 -1 255 255 255 255
-0.097007364 0.04018177 -0.14 -4.645183E-17 2.335291E-16 -1 255 255 255 255
-0.09700734 -0.04018174 -0.14 -4.645183E-17 2.335291E-16 -1 255 255 255 255
0.09215696 -0.038172666 0.17000017 -4.645183E-17 2.335291E-16 -1 255 255 255 255
0.03817266 0.09215699 0.17000017 -4.645183E-17 2.335291E-16 -1 255 255 255 255
0.09215696 0.038172673 0.17000017 -4.645183E-17 2.335291E-16 -1 255 255 255 255
0.03817265 -0.09215697 0.17000017 -4.645183E-17 2.335291E-16 -1 255 255 255 255
-0.038172714 0.09215706 0.17000017 -4.645183E-17 2.335291E-16 -1 255 255 255 255
-0.03817269 -0.09215698 0.17000017 -4.645183E-17 2.335291E-16 -1 255 255 255 255
-0.092157 0.03817268 0.17000017 -4.645183E-17 2.335291E-16 -1 255 255 255 255
-0.092157066 -0.038172692 0.17000017 -4.645183E-17 2.335291E-16 -1 255 255 255 255
0.0742106 -0.030739037 0.37 -4.645183E-17 2.335291E-16 -1 255 128 0 255
0.03073903 0.07421062 0.37 -4.645183E-17 2.335291E-16 -1 255 128 0 255
0.07421059 0.030739047 0.37 -4.645183E-17 2.335291E-16 -1 255 128 0 255
0.030739024 -0.07421061 0.37 -4.645183E-17 2.335291E-16 -1 255 128 0 255
-0.030739058 0.074210614 0.37 -4.645183E-17 2.335291E-16 -1 255 128 0 255
-0.030739062 -0.07421061 0.37 -4.645183E-17 2.335291E-16 -1 255 128 0 255
-0.07421063 0.030739052 0.37 -4.645183E-17 2.335291E-16 -1 255 128 0 255
-0.07421063 -0.030739035 0.37 -4.645183E-17 2.335291E-16 -1 255 128 0 255
0.03880291 -0.016072692 0.50999993 -4.645183E-17 2.335291E-16 -1 255 128 0 255
0.016072674 0.03880296 0.50999993 -4.645183E-17 2.335291E-16 -1 255 128 0 255
0.03880292 0.016072711 0.50999993 -4.645183E-17 2.335291E-16 -1 255 128 0 255
0.016072685 -0.038802937 0.50999993 -4.645183E-17 2.335291E-16 -1 255 128 0 255
-0.016072722 0.038802948 0.50999993 -4.645183E-17 2.335291E-16 -1 255 128 0 255
-0.016072739 -0.038802933 0.50999993 -4.645183E-17 2.335291E-16 -1 255 128 0 255
-0.038802978 0.01607272 0.50999993 -4.645183E-17 2.335291E-16 -1 255 128 0 255
-0.03880296 -0.016072694 0.50999993 -4.645183E-17 2.335291E-16 -1 255 128 0 255
0.014551079 -0.0060272543 0.5800001 -4.645183E-17 2.335291E-16 -1 113 113 113 255
0.0060272426 0.014551106 0.5800001 -4.645183E-17 2.335291E-16 -1 113 113 113 255
0.01455109 0.006027274 0.5800001 -4.645183E-17 2.335291E-16 -1 113 113 113 255
0.0060272478 -0.014551102 0.5800001 -4.645183E-17 2.335291E-16 -1 113 113 113 255
-0.0060272845 0.014551115 0.5800001 -4.645183E-17 2.335291E-16 -1 113 113 113 255
-0.006027282 -0.01455109 0.5800001 -4.645183E-17 2.335291E-16 -1 113 113 113 255
-0.014551118 0.0060272706 0.5800001 -4.645183E-17 2.335291E-16 -1 113 113 113 255
-0.014551126 -0.006027258 0.5800001 -4.645183E-17 2.335291E-16 -1 113 113 113 255
-0.006027282 -0.01455109 0.5800001 1.4322754E-07 0.94489825 -0.32736412 113 113 113 255
0.016072685 -0.038802937 0.50999993 1.4322754E-07 0.94489825 -0.32736412 113 113 113 255
-0.016072739 -0.038802933 0.50999993 1.4322754E-07 0.94489825 -0.32736412 113 113 113 255
0.0060272478 -0.014551102 0.5800001 1.4322754E-07 0.94489825 -0.32736412 113 113 113 255
-0.03880296 -0.016072694 0.50999993 0.66814417 0.6681438 -0.3273641 113 113 113 255
-0.006027282 -0.01455109 0.5800001 0.66814417 0.6681438 -0.3273641 113 113 113 255
-0.016072739 -0.038802933 0.50999993 0.66814417 0.6681438 -0.3273641 113 113 113 255
-0.014551126 -0.006027258 0.5800001 0.66814417 0.6681438 -0.3273641 113 113 113 255
-0.03880296 -0.016072694 0.50999993 0.9448982 4.2968256E-07 -0.3273642 113 113 113 255
-0.014551118 0.0060272706 0.5800001 0.9448982 4.2968256E-07 -0.3273642 113 113 113 255
-0.014551126 -0.006027258 0.5800001 0.9448982 4.2968256E-07 -0.3273642 113 113 113 255
-0.038802978 0.01607272 0.50999993 0.9448982 4.2968256E-07 -0.3273642 113 113 113 255
-0.0060272845 0.014551115 0.5800001 0.6681436 -0.6681442 -0.3273642 113 113 113 255
-0.038802978 0.01607272 0.50999993 0.6681436 -0.6681442 -0.3273642 113 113 113 255
-0.016072722 0.038802948 0.50999993 0.6681436 -0.6681442 -0.3273642 113 113 113 255
-0.014551118 0.0060272706 0.5800001 0.6681436 -0.6681442 -0.3273642 113 113 113 255
0.0060272426 0.014551106 0.5800001 2.2916403E-07 -0.94489825 -0.3273641 113 113 113 255
-0.016072722 0.038802948 0.50999993 2.2916403E-07 -0.94489825 -0.3273641 113 113 113 255
0.016072674 0.03880296 0.50999993 2.2916403E-07 -0.94489825 -0.3273641 113 113 113 255
-0.0060272845 0.014551115 0.5800001 2.2916403E-07 -0.94489825 -0.3273641 113 113 113 255
0.01455109 0.006027274 0.5800001 -0.6681439 -0.6681441 -0.32736412 113 113 113 255
0.016072674 0.03880296 0.50999993 -0.6681439 -0.6681441 -0.32736412 113 113 113 255
0.03880292 0.016072711 0.50999993 -0.6681439 -0.6681441 -0.32736412 113 113 113 255
0.0060272426 0.014551106 0.5800001 -0.6681439 -0.6681441 -0.32736412 113 113 113 255
0.014551079 -0.0060272543 0.5800001 -0.94489825 4.0103706E-07 -0.327364 113 113 113 255
0.03880292 0.016072711 0.50999993 -0.94489825 4.0103706E-07 -0.327364 113 113 113 255
0.03880291 -0.016072692 0.50999993 -0.94489825 4.0103706E-07 -0.327364 113 113 113 255
0.01455109 0.006027274 0.5800001 -0.94489825 4.0103706E-07 -0.327364 113 113 113 255
0.0060272478 -0.014551102 0.5800001 -0.6681442 0.66814375 -0.327364 113 113 113 255
0.03880291 -0.016072692 0.50999993 -0.6681442 0.66814375 -0.327364 113 113 113 255
0.016072685 -0.038802937 0.50999993 -0.6681442 0.66814375 -0.327364 113 113 113 255
0.014551079 -0.0060272543 0.5800001 -0.6681442 0.66814375 -0.327364 113 113 113 255
0.097007334 -0.040181756 -0.19000004 6.7831686E-15 2.2349083E-07 -1 255 255 255 255
0.040181745 0.09700736 -0.19 6.7831686E-15 2.2349083E-07 -1 255 255 255 255
0.097007334 0.040181763 -0.19000004 6.7831686E-15 2.2349083E-07 -1 255 255 255 255
0.04018174 -0.09700734 -0.19000004 6.7831686E-15 2.2349083E-07 -1 255 255 255 255
-0.040181763 0.097007334 -0.19 6.7831686E-15 2.2349083E-07 -1 255 255 255 255
-0.097007364 0.04018177 -0.19000004 6.7831686E-15 2.2349083E-07 -1 255 255 255 255
-0.04018178 -0.09700734 -0.19000004 6.7831686E-15 2.2349083E-07 -1 255 255 255 255
-0.09700734 -0.04018174 -0.19000004 6.7831686E-15 2.2349083E-07 -1 255 255 255 255
0.040181745 0.09700736 -0.25495097 4.645183E-17 -2.335291E-16 1 255 255 255 255
0.097007334 -0.040181756 -0.25495097 4.645183E-17 -2.335291E-16 1 255 255 255 255
0.097007334 0.040181763 -0.25495097 4.645183E-17 -2.335291E-16 1 255 255 255 255
-0.040181763 0.097007334 -0.25495097 4.645183E-17 -2.335291E-16 1 255 255 255 255
0.04018174 -0.09700734 -0.25495097 4.645183E-17 -2.335291E-16 1 255 255 255 255
-0.097007364 0.04018177 -0.25495097 4.645183E-17 -2.335291E-16 1 255 255 255 255
-0.04018178 -0.09700734 -0.25495097 4.645183E-17 -2.335291E-16 1 255 255 255 255
-0.09700734 -0.04018174 -0.25495097 4.645183E-17 -2.335291E-16 1 255 255 255 255
0.03415448 0.08245625 -0.35000002 4.645183E-17 -2.335291E-16 1 43 58 26 255
0.018289369 0.044154488 -0.35000002 4.645183E-17 -2.335291E-16 1 43 58 26 255
0.044154465 0.018289393 -0.35000002 4.645183E-17 -2.335291E-16 1 43 58 26 255
-0.03415451 0.08245625 -0.35000002 4.645183E-17 -2.335291E-16 1 43 58 26 255
-0.018289402 0.044154488 -0.35000002 4.645183E-17 -2.335291E-16 1 43 58 26 255
-0.0441545 0.018289393 -0.35000002 4.645183E-17 -2.335291E-16 1 43 58 26 255
-0.08245625 0.034154505 -0.35000002 4.645183E-17 -2.335291E-16 1 43 58 26 255
-0.044154502 -0.018289378 -0.35000002 4.645183E-17 -2.335291E-16 1 43 58 26 255
0.08245623 -0.034154486 -0.35000002 4.645183E-17 -2.335291E-16 1 43 58 26 255
0.08245622 0.034154497 -0.35000002 4.645183E-17 -2.335291E-16 1 43 58 26 255
0.044154465 -0.01828938 -0.35000002 4.645183E-17 -2.335291E-16 1 43 58 26 255
0.034154475 -0.08245623 -0.35000002 4.645183E-17 -2.335291E-16 1 43 58 26 255
0.018289369 -0.044154476 -0.35000002 4.645183E-17 -2.335291E-16 1 43 58 26 255
-0.018289402 -0.044154476 -0.35000002 4.645183E-17 -2.335291E-16 1 43 58 26 255
-0.03415451 -0.08245623 -0.35000002 4.645183E-17 -2.335291E-16 1 43 58 26 255
-0.08245626 -0.034154486 -0.35000002 4.645183E-17 -2.335291E-16 1 43 58 26 255
-0.040181763 0.097007334 -0.25495097 0.69896334 -0.6989637 0.1513273 43 58 26 255
-0.08245625 0.034154505 -0.35000002 0.69896334 -0.6989637 0.1513273 43 58 26 255
-0.03415451 0.08245625 -0.35000002 0.69896334 -0.6989637 0.1513273 43 58 26 255
-0.097007364 0.04018177 -0.25495097 0.69896334 -0.6989637 0.1513273 43 58 26 255
-0.08245625 0.034154505 -0.35000002 0.9884837 2.5780955E-07 0.1513273 43 58 26 255
-0.09700734 -0.04018174 -0.25495097 0.9884837 2.5780955E-07 0.1513273 43 58 26 255
-0.08245626 -0.034154486 -0.35000002 0.9884837 2.5780955E-07 0.1513273 43 58 26 255
-0.097007364 0.04018177 -0.25495097 0.9884837 2.5780955E-07 0.1513273 43 58 26 255
-0.03415451 -0.08245623 -0.35000002 0.6989637 0.69896334 0.1513273 43 58 26 255
-0.09700734 -0.04018174 -0.25495097 0.6989637 0.69896334 0.1513273 43 58 26 255
-0.04018178 -0.09700734 -0.25495097 0.6989637 0.69896334 0.1513273 43 58 26 255
-0.08245626 -0.034154486 -0.35000002 0.6989637 0.69896334 0.1513273 43 58 26 255
-0.04018178 -0.09700734 -0.25495097 -2.8645504E-08 0.9884837 0.1513274 43 58 26 255
0.034154475 -0.08245623 -0.35000002 -2.8645504E-08 0.9884837 0.1513274 43 58 26 255
-0.03415451 -0.08245623 -0.35000002 -2.8645504E-08 0.9884837 0.1513274 43 58 26 255
0.04018174 -0.09700734 -0.25495097 -2.8645504E-08 0.9884837 0.1513274 43 58 26 255
0.04018174 -0.09700734 -0.25495097 -0.69896346 0.6989635 0.1513274 43 58 26 255
0.08245623 -0.034154486 -0.35000002 -0.69896346 0.6989635 0.1513274 43 58 26 255
0.034154475 -0.08245623 -0.35000002 -0.69896346 0.6989635 0.1513274 43 58 26 255
0.097007334 -0.040181756 -0.25495097 -0.69896346 0.6989635 0.1513274 43 58 26 255
0.097007334 0.040181763 -0.25495097 -0.9884837 -2.8645504E-08 0.1513274 43 58 26 255
0.08245623 -0.034154486 -0.35000002 -0.9884837 -2.8645504E-08 0.1513274 43 58 26 255
0.097007334 -0.040181756 -0.25495097 -0.9884837 -2.8645504E-08 0.1513274 43 58 26 255
0.08245622 0.034154497 -0.35000002 -0.9884837 -2.8645504E-08 0.1513274 43 58 26 255
0.097007334 0.040181763 -0.25495097 -0.6989635 -0.69896346 0.1513274 43 58 26 255
0.03415448 0.08245625 -0.35000002 -0.6989635 -0.69896346 0.1513274 43 58 26 255
0.08245622 0.034154497 -0.35000002 -0.6989635 -0.69896346 0.1513274 43 58 26 255
0.040181745 0.09700736 -0.25495097 -0.6989635 -0.69896346 0.1513274 43 58 26 255
0.040181745 0.09700736 -0.25495097 2.5780955E-07 -0.9884837 0.1513273 43 58 26 255
-0.03415451 0.08245625 -0.35000002 2.5780955E-07 -0.9884837 0.1513273 43 58 26 255
0.03415448 0.08245625 -0.35000002 2.5780955E-07 -0.9884837 0.1513273 43 58 26 255
-0.040181763 0.097007334 -0.25495097 2.5780955E-07 -0.9884837 0.1513273 43 58 26 255
-0.040181763 0.097007334 -0.19 0.7071065 -0.70710707 -2.1105666E-16 43 58 26 255
-0.097007364 0.04018177 -0.25495097 0.7071065 -0.70710707 -2.1105666E-16 43 58 26 255
-0.040181763 0.097007334 -0.25495097 0.7071065 -0.70710707 -2.1105666E-16 43 58 26 255
-0.097007364 0.04018177 -0.19000004 0.7071065 -0.70710707 -2.1105666E-16 43 58 26 255
-0.097007364 0.04018177 -0.25495097 1 3.4374605E-07 -4.645174E-17 43 58 26 255
-0.09700734 -0.04018174 -0.19000004 1 3.4374605E-07 -4.645174E-17 43 58 26 255
-0.09700734 -0.04018174 -0.25495097 1 3.4374605E-07 -4.645174E-17 43 58 26 255
-0.097007364 0.04018177 -0.19000004 1 3.4374605E-07 -4.645174E-17 43 58 26 255
-0.09700734 -0.04018174 -0.25495097 0.70710707 0.7071065 1.3228352E-16 43 58 26 255
-0.04018178 -0.09700734 -0.19000004 0.70710707 0.7071065 1.3228352E-16 43 58 26 255
-0.04018178 -0.09700734 -0.25495097 0.70710707 0.7071065 1.3228352E-16 43 58 26 255
-0.09700734 -0.04018174 -0.19000004 0.70710707 0.7071065 1.3228352E-16 43 58 26 255
-0.04018178 -0.09700734 -0.19000004 0 1 2.3352913E-16 43 58 26 255
0.04018174 -0.09700734 -0.25495097 0 1 2.3352913E-16 43 58 26 255
-0.04018178 -0.09700734 -0.25495097 0 1 2.3352913E-16 43 58 26 255
0.04018174 -0.09700734 -0.19000004 0 1 2.3352913E-16 43 58 26 255
0.04018174 -0.09700734 -0.19000004 -0.7071067 0.7071069 1.9797643E-16 43 58 26 255
0.097007334 -0.040181756 -0.25495097 -0.7071067 0.7071069 1.9797643E-16 43 58 26 255
0.04018174 -0.09700734 -0.25495097 -0.7071067 0.7071069 1.9797643E-16 43 58 26 255
0.097007334 -0.040181756 -0.19000004 -0.7071067 0.7071069 1.9797643E-16 43 58 26 255
0.097007334 0.040181763 -0.19000004 -1 -2.86455E-08 4.6451806E-17 43 58 26 255
0.097007334 -0.040181756 -0.25495097 -1 -2.86455E-08 4.6451806E-17 43 58 26 255
0.097007334 -0.040181756 -0.19000004 -1 -2.86455E-08 4.6451806E-17 43 58 26 255
0.097007334 0.040181763 -0.25495097 -1 -2.86455E-08 4.6451806E-17 43 58 26 255
0.040181745 0.09700736 -0.19 -0.70710677 -0.7071067 -1.3176411E-16 43 58 26 255
0.097007334 0.040181763 -0.25495097 -0.70710677 -0.7071067 -1.3176411E-16 43 58 26 255
0.097007334 0.040181763 -0.19000004 -0.70710677 -0.7071067 -1.3176411E-16 43 58 26 255
0.040181745 0.09700736 -0.25495097 -0.70710677 -0.7071067 -1.3176411E-16 43 58 26 255
0.040181745 0.09700736 -0.19 3.4374605E-07 -1 -2.335291E-16 43 58 26 255
-0.040181763 0.097007334 -0.25495097 3.4374605E-07 -1 -2.335291E-16 43 58 26 255
0.040181745 0.09700736 -0.25495097 3.4374605E-07 -1 -2.335291E-16 43 58 26 255
-0.040181763 0.097007334 -0.19 3.4374605E-07 -1 -2.335291E-16 43 58 26 255
-0.097007364 0.04018177 -0.19000004 1 3.4374605E-07 -4.645174E-17 199 125 55 255
-0.09700734 -0.04018174 -0.14 1 3.4374605E-07 -4.645174E-17 199 125 55 255
-0.09700734 -0.04018174 -0.19000004 1 3.4374605E-07 -4.645174E-17 199 125 55 255
-0.097007364 0.04018177 -0.14 1 3.4374605E-07 -4.645174E-17 199 125 55 255
-0.040181763 0.097007334 -0.19 0.7071065 -0.70710707 -1.9357873E-16 199 125 55 255
-0.097007364 0.04018177 -0.14 0.7071065 -0.70710707 -1.9357873E-16 199 125 55 255
-0.097007364 0.04018177 -0.19000004 0.7071065 -0.70710707 -1.9357873E-16 199 125 55 255
-0.040181763 0.097007334 -0.14 0.7071065 -0.70710707 -1.9357873E-16 199 125 55 255
-0.09700734 -0.04018174 -0.19000004 0.70710707 0.7071065 1.3228352E-16 199 125 55 255
-0.04018178 -0.09700734 -0.14 0.70710707 0.7071065 1.3228352E-16 199 125 55 255
-0.04018178 -0.09700734 -0.19000004 0.70710707 0.7071065 1.3228352E-16 199 125 55 255
-0.09700734 -0.04018174 -0.14 0.70710707 0.7071065 1.3228352E-16 199 125 55 255
0.040181745 0.09700736 -0.14 3.4374605E-07 -1 -2.335291E-16 199 125 55 255
-0.040181763 0.097007334 -0.19 3.4374605E-07 -1 -2.335291E-16 199 125 55 255
0.040181745 0.09700736 -0.19 3.4374605E-07 -1 -2.335291E-16 199 125 55 255
-0.040181763 0.097007334 -0.14 3.4374605E-07 -1 -2.335291E-16 199 125 55 255
-0.04018178 -0.09700734 -0.14 0 1 2.3352913E-16 199 125 55 255
0.04018174 -0.09700734 -0.19000004 0 1 2.3352913E-16 199 125 55 255
-0.04018178 -0.09700734 -0.19000004 0 1 2.3352913E-16 199 125 55 255
0.04018174 -0.09700734 -0.14 0 1 2.3352913E-16 199 125 55 255
0.097007334 0.040181763 -0.14 -0.70710677 -0.7071067 -1.31407E-16 199 125 55 255
0.040181745 0.09700736 -0.19 -0.70710677 -0.7071067 -1.31407E-16 199 125 55 255
0.097007334 0.040181763 -0.19000004 -0.70710677 -0.7071067 -1.31407E-16 199 125 55 255
0.040181745 0.09700736 -0.14 -0.70710677 -0.7071067 -1.31407E-16 199 125 55 255
0.04018174 -0.09700734 -0.14 -0.7071067 0.7071069 1.9797643E-16 199 125 55 255
0.097007334 -0.040181756 -0.19000004 -0.7071067 0.7071069 1.9797643E-16 199 125 55 255
0.04018174 -0.09700734 -0.19000004 -0.7071067 0.7071069 1.9797643E-16 199 125 55 255
0.097007334 -0.040181756 -0.14 -0.7071067 0.7071069 1.9797643E-16 199 125 55 255
0.097007334 0.040181763 -0.14 -1 -2.86455E-08 4.6451806E-17 199 125 55 255
0.097007334 -0.040181756 -0.19000004 -1 -2.86455E-08 4.6451806E-17 199 125 55 255
0.097007334 -0.040181756 -0.14 -1 -2.86455E-08 4.6451806E-17 199 125 55 255
0.097007334 0.040181763 -0.19000004 -1 -2.86455E-08 4.6451806E-17 199 125 55 255
-0.09700734 -0.04018174 -0.14 0.70702016 0.7070204 -0.015644282 43 58 26 255
-0.03817269 -0.09215698 0.17000017 0.70702016 0.7070204 -0.015644282 43 58 26 255
-0.04018178 -0.09700734 -0.14 0.70702016 0.7070204 -0.015644282 43 58 26 255
-0.092157066 -0.038172692 0.17000017 0.70702016 0.7070204 -0.015644282 43 58 26 255
-0.09700734 -0.04018174 -0.14 0.99987763 -2.2916406E-07 -0.015644282 43 58 26 255
-0.092157 0.03817268 0.17000017 0.99987763 -2.2916406E-07 -0.015644282 43 58 26 255
-0.092157066 -0.038172692 0.17000017 0.99987763 -2.2916406E-07 -0.015644282 43 58 26 255
-0.097007364 0.04018177 -0.14 0.99987763 -2.2916406E-07 -0.015644282 43 58 26 255
-0.092157066 -0.038172692 0.17000017 0.70427674 0.70427746 -0.089373 43 58 26 255
-0.030739062 -0.07421061 0.37 0.70427674 0.70427746 -0.089373 43 58 26 255
-0.03817269 -0.09215698 0.17000017 0.70427674 0.70427746 -0.089373 43 58 26 255
-0.07421063 -0.030739035 0.37 0.70427674 0.70427746 -0.089373 43 58 26 255
-0.03817269 -0.09215698 0.17000017 2.8645504E-08 0.99987763 -0.01564443 43 58 26 255
0.04018174 -0.09700734 -0.14 2.8645504E-08 0.99987763 -0.01564443 43 58 26 255
-0.04018178 -0.09700734 -0.14 2.8645504E-08 0.99987763 -0.01564443 43 58 26 255
0.03817265 -0.09215697 0.17000017 2.8645504E-08 0.99987763 -0.01564443 43 58 26 255
-0.038172714 0.09215706 0.17000017 0.7070204 -0.70702016 -0.015644282 43 58 26 255
-0.097007364 0.04018177 -0.14 0.7070204 -0.70702016 -0.015644282 43 58 26 255
-0.040181763 0.097007334 -0.14 0.7070204 -0.70702016 -0.015644282 43 58 26 255
-0.092157 0.03817268 0.17000017 0.7070204 -0.70702016 -0.015644282 43 58 26 255
-0.092157 0.03817268 0.17000017 0.9959982 -5.156191E-07 -0.089373 43 58 26 255
-0.07421063 -0.030739035 0.37 0.9959982 -5.156191E-07 -0.089373 43 58 26 255
-0.092157066 -0.038172692 0.17000017 0.9959982 -5.156191E-07 -0.089373 43 58 26 255
-0.07421063 0.030739052 0.37 0.9959982 -5.156191E-07 -0.089373 43 58 26 255
-0.030739062 -0.07421061 0.37 -4.151531E-18 0.9959982 -0.08937282 43 58 26 255
0.03817265 -0.09215697 0.17000017 -4.151531E-18 0.9959982 -0.08937282 43 58 26 255
-0.03817269 -0.09215698 0.17000017 -4.151531E-18 0.9959982 -0.08937282 43 58 26 255
0.030739024 -0.07421061 0.37 -4.151531E-18 0.9959982 -0.08937282 43 58 26 255
0.03817265 -0.09215697 0.17000017 -0.7070201 0.70702034 -0.01564443 43 58 26 255
0.097007334 -0.040181756 -0.14 -0.7070201 0.70702034 -0.01564443 43 58 26 255
0.04018174 -0.09700734 -0.14 -0.7070201 0.70702034 -0.01564443 43 58 26 255
0.09215696 -0.038172666 0.17000017 -0.7070201 0.70702034 -0.01564443 43 58 26 255
0.03817266 0.09215699 0.17000017 -2.2916406E-07 -0.99987763 -0.015644282 43 58 26 255
-0.040181763 0.097007334 -0.14 -2.2916406E-07 -0.99987763 -0.015644282 43 58 26 255
0.040181745 0.09700736 -0.14 -2.2916406E-07 -0.99987763 -0.015644282 43 58 26 255
-0.038172714 0.09215706 0.17000017 -2.2916406E-07 -0.99987763 -0.015644282 43 58 26 255
-0.030739058 0.074210614 0.37 0.70427746 -0.70427674 -0.089373 43 58 26 255
-0.092157 0.03817268 0.17000017 0.70427746 -0.70427674 -0.089373 43 58 26 255
-0.038172714 0.09215706 0.17000017 0.70427746 -0.70427674 -0.089373 43 58 26 255
-0.07421063 0.030739052 0.37 0.70427746 -0.70427674 -0.089373 43 58 26 255
0.030739024 -0.07421061 0.37 -0.70427704 0.7042771 -0.08937282 43 58 26 255
0.09215696 -0.038172666 0.17000017 -0.70427704 0.7042771 -0.08937282 43 58 26 255
0.03817265 -0.09215697 0.17000017 -0.70427704 0.7042771 -0.08937282 43 58 26 255
0.0742106 -0.030739037 0.37 -0.70427704 0.7042771 -0.08937282 43 58 26 255
0.09215696 -0.038172666 0.17000017 -0.99987763 -8.593652E-08 -0.015644431 43 58 26 255
0.097007334 0.040181763 -0.14 -0.99987763 -8.593652E-08 -0.015644431 43 58 26 255
0.097007334 -0.040181756 -0.14 -0.99987763 -8.593652E-08 -0.015644431 43 58 26 255
0.09215696 0.038172673 0.17000017 -0.99987763 -8.593652E-08 -0.015644431 43 58 26 255
0.09215696 0.038172673 0.17000017 -0.7070203 -0.7070202 -0.01564443 43 58 26 255
0.040181745 0.09700736 -0.14 -0.7070203 -0.7070202 -0.01564443 43 58 26 255
0.097007334 0.040181763 -0.14 -0.7070203 -0.7070202 -0.01564443 43 58 26 255
0.03817266 0.09215699 0.17000017 -0.7070203 -0.7070202 -0.01564443 43 58 26 255
0.03073903 0.07421062 0.37 -5.156191E-07 -0.9959982 -0.089373 43 58 26 255
-0.038172714 0.09215706 0.17000017 -5.156191E-07 -0.9959982 -0.089373 43 58 26 255
0.03817266 0.09215699 0.17000017 -5.156191E-07 -0.9959982 -0.089373 43 58 26 255
-0.030739058 0.074210614 0.37 -5.156191E-07 -0.9959982 -0.089373 43 58 26 255
0.0742106 -0.030739037 0.37 -0.9959982 2.0871153E-17 -0.08937282 43 58 26 255
0.09215696 0.038172673 0.17000017 -0.9959982 2.0871153E-17 -0.08937282 43 58 26 255
0.09215696 -0.038172666 0.17000017 -0.9959982 2.0871153E-17 -0.08937282 43 58 26 255
0.07421059 0.030739047 0.37 -0.9959982 2.0871153E-17 -0.08937282 43 58 26 255
0.03073903 0.07421062 0.37 -0.7042771 -0.70427704 -0.08937282 43 58 26 255
0.09215696 0.038172673 0.17000017 -0.7042771 -0.70427704 -0.08937282 43 58 26 255
0.07421059 0.030739047 0.37 -0.7042771 -0.70427704 -0.08937282 43 58 26 255
0.03817266 0.09215699 0.17000017 -0.7042771 -0.70427704 -0.08937282 43 58 26 255
3 0 1 2
3 1 0 3
3 4 5 6
3 5 4 7
3 8 9 10
3 9 8 11
3 12 13 14
3 13 12 15
3 16 17 18
3 17 16 19
3 20 21 22
3 21 20 23
3 24 25 26
3 25 24 27
3 28 29 30
3 29 28 31
3 32 33 34
3 33 32 35
3 33 35 36
3 36 35 37
3 37 35 38
3 37 38 39
3 40 41 42
3 41 40 43
3 43 40 44
3 43 44 45
3 45 44 46
3 45 46 47
3 47 46 48
3 48 46 49
3 41 50 42
3 50 41 51
3 50 51 52
3 52 51 53
3 52 53 54
3 54 53 55
3 54 55 48
3 54 48 49
3 56 57 58
3 57 56 59
3 59 56 60
3 59 60 61
3 59 61 62
3 62 61 63
3 64 65 66
3 65 64 67
3 65 67 68
3 68 67 69
3 68 69 70
3 70 69 71
3 72 73 74
3 73 72 75
3 73 75 76
3 76 75 77
3 76 77 78
3 78 77 79
3 80 81 82
3 81 80 83
3 81 83 84
3 84 83 85
3 84 85 86
3 86 85 87
3 88 89 90
3 89 88 91
3 89 91 92
3 92 91 93
3 92 93 94
3 94 93 95
3 96 97 98
3 97 96 99
3 100 101 102
3 101 100 103
3 104 105 106
3 105 104 107
3 108 109 110
3 109 108 111
3 112 113 114
3 113 112 115
3 116 117 118
3 117 116 119
3 120 121 122
3 121 120 123
3 124 125 126
3 125 124 127
3 128 129 130
3 129 128 131
3 129 131 132
3 132 131 133
3 133 131 134
3 133 134 135
3 136 137 138
3 137 136 139
3 137 139 140
3 140 139 141
3 140 141 142
3 142 141 143
3 144 145 146
3 145 144 147
3 145 147 148
3 148 147 149
3 149 147 150
3 149 150 151
3 144 152 153
3 152 144 146
3 152 146 154
3 152 154 155
3 155 154 156
3 155 156 157
3 155 157 158
3 158 157 151
3 158 151 150
3 158 150 159
3 160 161 162
3 161 160 163
3 164 165 166
3 165 164 167
3 168 169 170
3 169 168 171
3 172 173 174
3 173 172 175
3 176 177 178
3 177 176 179
3 180 181 182
3 181 180 183
3 184 185 186
3 185 184 187
3 188 189 190
3 189 188 191
3 192 193 194
3 193 192 195
3 196 197 198
3 197 196 199
3 200 201 202
3 201 200 203
3 204 205 206
3 205 204 207
3 208 209 210
3 209 208 211
3 212 213 214
3 213 212 215
3 216 217 218
3 217 216 219
3 220 221 222
3 221 220 223
3 224 225 226
3 225 224 227
3 228 229 230
3 229 228 231
3 232 233 234
3 233 232 235
3 236 237 238
3 237 236 239
3 240 241 242
3 241 240 243
3 244 245 246
3 245 244 247
3 248 249 250
3 249 248 251
3 252 253 254
3 253 252 255
3 256 257 258
3 257 256 259
3 260 261 262
3 261 260 263
3 264 265 266
3 265 264 267
3 268 269 270
3 269 268 271
3 272 273 274
3 273 272 275
3 276 277 278
3 277 276 279
3 280 281 282
3 281 280 283
3 284 285 286
3 285 284 287
3 288 289 290
3 289 288 291
3 292 293 294
3 293 292 295
3 296 297 298
3 297 296 299
3 300 301 302
3 301 300 303
3 304 305 306
3 305 304 307
3 308 309 310
3 309 308 311
3 312 313 314
3 313 312 315
3 316 317 318
3 317 316 319

