ply
format ascii 1.0
commentY29udmVydGVyIGJ5IENvZGVMZW9wYXJk
comment Original mesh name: 'C:\Program Files (x86)\Steam\steamapps\common\Stormworks\rom\meshes\equipment_oxygen_mask.mesh'
comment SubMesh index: 0
comment SubMesh name: 'ID4'
comment Shader: Opaque (0)
element vertex 460
property float x
property float y
property float z
property float nx
property float ny
property float nz
property uchar red
property uchar green
property uchar blue
property uchar alpha
element face 272
property list uchar ushort vertex_index
end_header
-0.015840016 0.013810114 0.041849166 3.979556E-09 -0.2670626 0.96367913 255 125 0 255
0.01799999 0.0003101156 0.03810794 3.979556E-09 -0.2670626 0.96367913 255 125 0 255
0.01583999 0.013810115 0.041849166 3.979556E-09 -0.2670626 0.96367913 255 125 0 255
-0.018000014 0.00031011508 0.03810794 3.979556E-09 -0.2670626 0.96367913 255 125 0 255
0.01583999 0.013810115 0.09672054 1.490121E-08 -1 -8.6847196E-14 255 125 0 255
0.026809707 0.013810115 0.06928486 1.490121E-08 -1 -8.6847196E-14 255 125 0 255
0.031679988 0.013810115 0.06928486 1.490121E-08 -1 -8.6847196E-14 255 125 0 255
0.01340485 0.013810115 0.092502736 1.490121E-08 -1 -8.6847196E-14 255 125 0 255
-0.015840016 0.013810114 0.09672054 1.490121E-08 -1 -8.6847196E-14 255 125 0 255
-0.013404852 0.013810114 0.092502736 1.490121E-08 -1 -8.6847196E-14 255 125 0 255
-0.026809726 0.013810114 0.06928486 1.490121E-08 -1 -8.6847196E-14 255 125 0 255
-0.03168001 0.013810114 0.06928486 1.490121E-08 -1 -8.6847196E-14 255 125 0 255
0.01583999 0.013810115 0.041849166 1.490121E-08 -1 -8.6847196E-14 255 125 0 255
0.01340485 0.013810115 0.04606696 1.490121E-08 -1 -8.6847196E-14 255 125 0 255
-0.015840016 0.013810114 0.041849166 1.490121E-08 -1 -8.6847196E-14 255 125 0 255
-0.013404852 0.013810114 0.04606696 1.490121E-08 -1 -8.6847196E-14 255 125 0 255
-0.015840016 0.013810114 0.041849166 0.83457065 -0.2670626 0.48183957 255 125 0 255
-0.021499192 0.009897579 0.04948264 0.83457065 -0.2670626 0.48183957 255 125 0 255
-0.02240719 0.0042226473 0.047909953 0.83457065 -0.2670626 0.48183957 255 125 0 255
-0.03168001 0.013810114 0.06928486 0.83457065 -0.2670626 0.48183957 255 125 0 255
-0.027898828 0.009897579 0.060567107 0.83457065 -0.2670626 0.48183957 255 125 0 255
-0.018000014 0.00031011508 0.03810794 0.83457065 -0.2670626 0.48183957 255 125 0 255
-0.036000002 0.0003101148 0.06928486 0.83457065 -0.2670626 0.48183957 255 125 0 255
-0.0297148 0.0042226473 0.060567107 0.83457065 -0.2670626 0.48183957 255 125 0 255
0.01799999 0.0003101156 0.03810794 -0.83457065 -0.2670626 0.48183957 255 125 0 255
0.022407176 0.0042226478 0.047909953 -0.83457065 -0.2670626 0.48183957 255 125 0 255
0.01583999 0.013810115 0.041849166 -0.83457065 -0.2670626 0.48183957 255 125 0 255
0.035999987 0.00031011587 0.06928486 -0.83457065 -0.2670626 0.48183957 255 125 0 255
0.029714787 0.004222648 0.060567107 -0.83457065 -0.2670626 0.48183957 255 125 0 255
0.021499187 0.00989758 0.04948264 -0.83457065 -0.2670626 0.48183957 255 125 0 255
0.031679988 0.013810115 0.06928486 -0.83457065 -0.2670626 0.48183957 255 125 0 255
0.027898809 0.00989758 0.060567107 -0.83457065 -0.2670626 0.48183957 255 125 0 255
0.035999987 0.00031011587 0.06928486 -0.83457065 -0.2670626 -0.48183957 255 125 0 255
0.029714787 0.004222648 0.07800259 -0.83457065 -0.2670626 -0.48183957 255 125 0 255
0.031679988 0.013810115 0.06928486 -0.83457065 -0.2670626 -0.48183957 255 125 0 255
0.01799999 0.0003101156 0.100461766 -0.83457065 -0.2670626 -0.48183957 255 125 0 255
0.022407176 0.0042226478 0.09065974 -0.83457065 -0.2670626 -0.48183957 255 125 0 255
0.01583999 0.013810115 0.09672054 -0.83457065 -0.2670626 -0.48183957 255 125 0 255
0.027898809 0.00989758 0.07800259 -0.83457065 -0.2670626 -0.48183957 255 125 0 255
0.021499187 0.00989758 0.089087054 -0.83457065 -0.2670626 -0.48183957 255 125 0 255
0.01583999 0.013810115 0.09672054 3.979556E-09 -0.2670626 -0.96367913 255 125 0 255
0.0063996064 0.009897579 0.09780482 3.979556E-09 -0.2670626 -0.96367913 255 125 0 255
-0.015840016 0.013810114 0.09672054 3.979556E-09 -0.2670626 -0.96367913 255 125 0 255
0.01799999 0.0003101156 0.100461766 3.979556E-09 -0.2670626 -0.96367913 255 125 0 255
0.007307605 0.0042226478 0.09937748 3.979556E-09 -0.2670626 -0.96367913 255 125 0 255
-0.0073076137 0.0042226473 0.09937748 3.979556E-09 -0.2670626 -0.96367913 255 125 0 255
-0.0063996385 0.009897579 0.09780482 3.979556E-09 -0.2670626 -0.96367913 255 125 0 255
-0.018000014 0.00031011508 0.100461766 3.979556E-09 -0.2670626 -0.96367913 255 125 0 255
-0.03168001 0.013810114 0.06928486 0.83457065 -0.2670626 -0.48183957 255 125 0 255
-0.027898828 0.009897579 0.07800259 0.83457065 -0.2670626 -0.48183957 255 125 0 255
-0.036000002 0.0003101148 0.06928486 0.83457065 -0.2670626 -0.48183957 255 125 0 255
-0.015840016 0.013810114 0.09672054 0.83457065 -0.2670626 -0.48183957 255 125 0 255
-0.021499192 0.009897579 0.089087054 0.83457065 -0.2670626 -0.48183957 255 125 0 255
-0.02240719 0.0042226473 0.09065974 0.83457065 -0.2670626 -0.48183957 255 125 0 255
-0.0297148 0.0042226473 0.07800259 0.83457065 -0.2670626 -0.48183957 255 125 0 255
-0.018000014 0.00031011508 0.100461766 0.83457065 -0.2670626 -0.48183957 255 125 0 255
0.014939992 -0.027589872 0.07289443 -1.490121E-08 1 8.614479E-14 58 58 58 255
0.01566188 -0.027589872 0.086504176 -1.490121E-08 1 8.614479E-14 58 58 58 255
0.019889992 -0.027589872 0.08647695 -1.490121E-08 1 8.614479E-14 58 58 58 255
0.0121531 -0.027589872 0.076876275 -1.490121E-08 1 8.614479E-14 58 58 58 255
-0.015085133 -0.027589872 0.07289443 -1.490121E-08 1 8.614479E-14 58 58 58 255
-0.012194283 -0.027589872 0.076876275 -1.490121E-08 1 8.614479E-14 58 58 58 255
-0.015490054 -0.027589872 0.08699528 -1.490121E-08 1 8.614479E-14 58 58 58 255
-0.01969266 -0.027589872 0.08704095 -1.490121E-08 1 8.614479E-14 58 58 58 255
0.014939992 -0.027589872 0.100623466 -1.490121E-08 1 8.614479E-14 58 58 58 255
0.012114698 -0.027589872 0.09664163 -1.490121E-08 1 8.614479E-14 58 58 58 255
-0.014939997 -0.027589872 0.100623466 -1.490121E-08 1 8.614479E-14 58 58 58 255
-0.0121147055 -0.027589872 0.09664163 -1.490121E-08 1 8.614479E-14 58 58 58 255
-0.01969266 -0.027589872 0.08704095 0.95083547 0.002389161 0.30968717 58 58 58 255
-0.015085133 -0.027589872 0.07289443 0.95083547 0.002389161 0.30968717 58 58 58 255
-0.01969266 -0.013189885 0.08692986 0.95083547 0.002389161 0.30968717 58 58 58 255
-0.014939997 -0.027589872 0.100623466 0.93218577 -0.034951646 -0.3602889 58 58 58 255
-0.01969266 -0.027589872 0.08704095 0.943882 -0.0025479468 -0.330273 58 58 58 255
-0.01969266 -0.013189885 0.08692986 0.9303719 -0.039535098 -0.36447918 58 58 58 255
0.014939992 -0.027589872 0.100623466 2.8067526E-09 -0.18835741 -0.98210055 58 58 58 255
-0.014939997 -0.013189885 0.097861685 2.8067526E-09 -0.18835741 -0.98210055 58 58 58 255
0.014939992 -0.013189884 0.097861685 2.8067526E-09 -0.18835741 -0.98210055 58 58 58 255
-0.014939997 -0.027589872 0.100623466 2.8067526E-09 -0.18835741 -0.98210055 58 58 58 255
0.014939992 -0.027589872 0.100623466 -0.9314015 -0.033135936 -0.3624822 58 58 58 255
0.019889992 -0.013189884 0.086588025 -0.93018955 -0.036281552 -0.3652821 58 58 58 255
0.019889992 -0.027589872 0.08647695 -0.943882 0.0025479468 -0.330273 58 58 58 255
0.019889992 -0.027589872 0.08647695 -0.93172616 -0.1287908 0.3395574 58 58 58 255
0.014939992 -0.013189884 0.078356214 -0.93172616 -0.1287908 0.3395574 58 58 58 255
0.014939992 -0.027589872 0.07289443 -0.93172616 -0.1287908 0.3395574 58 58 58 255
-0.015085133 -0.013189885 0.078356214 5.2845346E-09 -0.3546379 0.9350037 58 58 58 255
0.014939992 -0.027589872 0.07289443 5.2845346E-09 -0.3546379 0.9350037 58 58 58 255
0.014939992 -0.013189884 0.078356214 5.2845346E-09 -0.3546379 0.9350037 58 58 58 255
-0.015085133 -0.027589872 0.07289443 5.2845346E-09 -0.3546379 0.9350037 58 58 58 255
-0.01969266 -0.013189885 0.08692986 0.8669953 -0.17672189 0.4659276 58 58 58 255
-0.015085133 -0.027589872 0.07289443 0.8669953 -0.17672189 0.4659276 58 58 58 255
-0.015085133 -0.013189885 0.078356214 0.8669953 -0.17672189 0.4659276 58 58 58 255
-0.014939997 -0.013189885 0.097861685 0.9144104 -0.076244906 -0.3975429 58 58 58 255
0.014939992 -0.013189884 0.097861685 -2.8181555E-09 0.1891225 -0.9819535 58 58 58 255
-0.018000014 0.00031011508 0.100461766 -2.8181555E-09 0.1891225 -0.9819535 58 58 58 255
0.01799999 0.0003101156 0.100461766 -2.8181555E-09 0.1891225 -0.9819535 58 58 58 255
-0.014939997 -0.013189885 0.097861685 -2.8181555E-09 0.1891225 -0.9819535 58 58 58 255
0.014939992 -0.013189884 0.097861685 -0.9129166 -0.07687739 -0.4008406 58 58 58 255
0.019889992 -0.013189884 0.086588025 -0.85698503 -0.0039756033 0.515326 58 58 58 255
0.014939992 -0.013189884 0.078356214 -0.85698503 -0.0039756033 0.515326 58 58 58 255
0.019889992 -0.027589872 0.08647695 -0.85698503 -0.0039756033 0.515326 58 58 58 255
-0.014939997 -0.013189885 0.043408014 -1.4901211E-08 1 8.6587184E-14 58 58 58 255
0.014939992 -0.013189884 0.078356214 -1.4901211E-08 1 8.6587184E-14 58 58 58 255
0.014939992 -0.013189884 0.043408014 -1.4901211E-08 1 8.6587184E-14 58 58 58 255
-0.015085133 -0.013189885 0.078356214 -1.4901211E-08 1 8.6587184E-14 58 58 58 255
-0.024642644 -0.013189885 0.078356214 -1.4901141E-08 1 6.147169E-14 58 58 58 255
-0.01969266 -0.013189885 0.08692986 -1.4901141E-08 1 6.147169E-14 58 58 58 255
-0.029880011 -0.013189885 0.06928486 -1.4901141E-08 1 6.147169E-14 58 58 58 255
-0.018000014 0.00031011508 0.100461766 0.8820393 0.2737844 -0.38346946 58 58 58 255
-0.014939997 -0.013189885 0.097861685 0.8820393 0.2737844 -0.38346946 58 58 58 255
-0.01969266 -0.013189885 0.08692986 0.8820393 0.2737844 -0.38346946 58 58 58 255
0.01799999 0.0003101156 0.100461766 -0.88056904 0.2740613 -0.38663754 58 58 58 255
0.019889992 -0.013189884 0.086588025 -0.88056904 0.2740613 -0.38663754 58 58 58 255
0.014939992 -0.013189884 0.097861685 -0.88056904 0.2740613 -0.38663754 58 58 58 255
0.024642639 -0.013189884 0.078356214 -1.4901243E-08 1 1.3014326E-13 58 58 58 255
0.02987999 -0.013189884 0.06928486 -1.4901243E-08 1 1.3014326E-13 58 58 58 255
0.019889992 -0.013189884 0.086588025 -1.4901243E-08 1 1.3014326E-13 58 58 58 255
-0.014939997 -0.013189885 0.043408014 -5.4455502E-09 0.3654435 0.9308335 58 58 58 255
0.01799999 0.0003101156 0.03810794 -5.4455502E-09 0.3654435 0.9308335 58 58 58 255
-0.018000014 0.00031011508 0.03810794 -5.4455502E-09 0.3654435 0.9308335 58 58 58 255
0.014939992 -0.013189884 0.043408014 -5.4455502E-09 0.3654435 0.9308335 58 58 58 255
-0.01969266 -0.013189885 0.08692986 0.8061255 0.3654435 -0.4654168 58 58 58 255
-0.029880011 -0.013189885 0.06928486 0.8061255 0.3654435 -0.4654168 58 58 58 255
-0.036000002 0.0003101148 0.06928486 0.8061255 0.3654435 -0.4654168 58 58 58 255
-0.024642644 -0.013189885 0.078356214 0.8061255 0.3654435 -0.4654168 58 58 58 255
-0.018000014 0.00031011508 0.100461766 0.8061255 0.3654435 -0.4654168 58 58 58 255
0.01799999 0.0003101156 0.100461766 -0.8061255 0.3654435 -0.4654168 58 58 58 255
0.035999987 0.00031011587 0.06928486 -0.8061255 0.3654435 -0.4654168 58 58 58 255
0.019889992 -0.013189884 0.086588025 -0.8061255 0.3654435 -0.4654168 58 58 58 255
0.024642639 -0.013189884 0.078356214 -0.8061255 0.3654435 -0.4654168 58 58 58 255
0.02987999 -0.013189884 0.06928486 -0.8061255 0.3654435 -0.4654168 58 58 58 255
0.014939992 -0.013189884 0.043408014 -0.8061255 0.3654435 0.4654168 58 58 58 255
0.035999987 0.00031011587 0.06928486 -0.8061255 0.3654435 0.4654168 58 58 58 255
0.01799999 0.0003101156 0.03810794 -0.8061255 0.3654435 0.4654168 58 58 58 255
0.02987999 -0.013189884 0.06928486 -0.8061255 0.3654435 0.4654168 58 58 58 255
-0.036000002 0.0003101148 0.06928486 0.8061255 0.3654435 0.4654168 58 58 58 255
-0.014939997 -0.013189885 0.043408014 0.8061255 0.3654435 0.4654168 58 58 58 255
-0.018000014 0.00031011508 0.03810794 0.8061255 0.3654435 0.4654168 58 58 58 255
-0.029880011 -0.013189885 0.06928486 0.8061255 0.3654435 0.4654168 58 58 58 255
0.00889496 -0.021289883 0.07954459 -1.4901207E-08 1 8.881558E-14 58 58 58 255
0.00886693 -0.021289883 0.093973294 -1.4901207E-08 1 8.881558E-14 58 58 58 255
0.011456374 -0.021289883 0.08657297 -1.4901207E-08 1 8.881558E-14 58 58 58 255
-0.008878647 -0.021289883 0.07954459 -1.4901207E-08 1 8.881558E-14 58 58 58 255
-0.008820536 -0.021289883 0.093973294 -1.4901207E-08 1 8.881558E-14 58 58 58 255
-0.011284545 -0.021289883 0.086931475 -1.4901207E-08 1 8.881558E-14 58 58 58 255
-0.015490054 -0.027589872 0.08699528 -0.8039202 0.53399795 -0.2618368 58 58 58 255
-0.008878647 -0.021289883 0.07954459 -0.8039202 0.53399795 -0.2618368 58 58 58 255
-0.012194283 -0.027589872 0.076876275 -0.8039202 0.53399795 -0.2618368 58 58 58 255
-0.011284545 -0.021289883 0.086931475 -0.8039202 0.53399795 -0.2618368 58 58 58 255
-0.015490054 -0.027589872 0.08699528 -0.7973781 0.535109 0.27901 58 58 58 255
-0.008820536 -0.021289883 0.093973294 -0.7973781 0.535109 0.27901 58 58 58 255
-0.011284545 -0.021289883 0.086931475 -0.7973781 0.535109 0.27901 58 58 58 255
-0.0121147055 -0.027589872 0.09664163 -0.7973781 0.535109 0.27901 58 58 58 255
-0.0121147055 -0.027589872 0.09664163 -5.811532E-09 0.390004 0.9208132 58 58 58 255
0.00886693 -0.021289883 0.093973294 -5.811532E-09 0.390004 0.9208132 58 58 58 255
-0.008820536 -0.021289883 0.093973294 -5.811532E-09 0.390004 0.9208132 58 58 58 255
0.012114698 -0.027589872 0.09664163 -5.811532E-09 0.390004 0.9208132 58 58 58 255
0.011456374 -0.021289883 0.08657297 0.7998817 0.5308984 0.279886 58 58 58 255
0.012114698 -0.027589872 0.09664163 0.7998817 0.5308984 0.279886 58 58 58 255
0.01566188 -0.027589872 0.086504176 0.7998817 0.5308984 0.279886 58 58 58 255
0.00886693 -0.021289883 0.093973294 0.7998817 0.5308984 0.279886 58 58 58 255
0.00889496 -0.021289883 0.07954459 0.7946134 0.5335993 -0.2895881 58 58 58 255
0.01566188 -0.027589872 0.086504176 0.7946134 0.5335993 -0.2895881 58 58 58 255
0.0121531 -0.027589872 0.076876275 0.7946134 0.5335993 -0.2895881 58 58 58 255
0.011456374 -0.021289883 0.08657297 0.7946134 0.5335993 -0.2895881 58 58 58 255
0.0121531 -0.027589872 0.076876275 -5.8115317E-09 0.390004 -0.9208132 58 58 58 255
-0.008878647 -0.021289883 0.07954459 -5.8115317E-09 0.390004 -0.9208132 58 58 58 255
0.00889496 -0.021289883 0.07954459 -5.8115317E-09 0.390004 -0.9208132 58 58 58 255
-0.012194283 -0.027589872 0.076876275 -5.8115317E-09 0.390004 -0.9208132 58 58 58 255
0.009958862 0.017410114 0.08653414 1.4901202E-08 -1 -7.4349E-14 255 125 0 255
0.009958862 0.017410114 0.052035566 1.4901202E-08 -1 -7.4349E-14 255 125 0 255
0.019917753 0.017410114 0.06928486 1.4901202E-08 -1 -7.4349E-14 255 125 0 255
-0.009958891 0.017410114 0.08653414 1.4901202E-08 -1 -7.4349E-14 255 125 0 255
-0.009958891 0.017410114 0.052035566 1.4901202E-08 -1 -7.4349E-14 255 125 0 255
-0.01991776 0.017410114 0.06928486 1.4901202E-08 -1 -7.4349E-14 255 125 0 255
0.012501306 0.012910115 0.09093774 -0.6189659 -0.6994105 -0.3573601 255 125 0 255
0.019917753 0.017410114 0.06928486 -0.6189659 -0.6994105 -0.3573601 255 125 0 255
0.0250026 0.012910115 0.06928486 -0.6189659 -0.6994105 -0.3573601 255 125 0 255
0.009958862 0.017410114 0.08653414 -0.6189659 -0.6994105 -0.3573601 255 125 0 255
0.012501306 0.012910115 0.09093774 1.042209E-08 -0.6994105 -0.7147202 255 125 0 255
-0.009958891 0.017410114 0.08653414 1.042209E-08 -0.6994105 -0.7147202 255 125 0 255
0.009958862 0.017410114 0.08653414 1.042209E-08 -0.6994105 -0.7147202 255 125 0 255
-0.0125013115 0.012910115 0.09093774 1.042209E-08 -0.6994105 -0.7147202 255 125 0 255
-0.0125013115 0.012910115 0.09093774 0.6189659 -0.6994105 -0.3573601 255 125 0 255
-0.01991776 0.017410114 0.06928486 0.6189659 -0.6994105 -0.3573601 255 125 0 255
-0.009958891 0.017410114 0.08653414 0.6189659 -0.6994105 -0.3573601 255 125 0 255
-0.025002623 0.012910113 0.06928486 0.6189659 -0.6994105 -0.3573601 255 125 0 255
-0.01991776 0.017410114 0.06928486 0.6189659 -0.6994105 0.3573601 255 125 0 255
-0.0125013115 0.012910115 0.047631957 0.6189659 -0.6994105 0.3573601 255 125 0 255
-0.009958891 0.017410114 0.052035566 0.6189659 -0.6994105 0.3573601 255 125 0 255
-0.025002623 0.012910113 0.06928486 0.6189659 -0.6994105 0.3573601 255 125 0 255
-0.009958891 0.017410114 0.052035566 1.04220605E-08 -0.6994105 0.7147202 255 125 0 255
0.012501306 0.012910115 0.047631957 1.04220605E-08 -0.6994105 0.7147202 255 125 0 255
0.009958862 0.017410114 0.052035566 1.04220605E-08 -0.6994105 0.7147202 255 125 0 255
-0.0125013115 0.012910115 0.047631957 1.04220605E-08 -0.6994105 0.7147202 255 125 0 255
0.019917753 0.017410114 0.06928486 -0.6189659 -0.6994105 0.3573601 255 125 0 255
0.012501306 0.012910115 0.047631957 -0.6189659 -0.6994105 0.3573601 255 125 0 255
0.0250026 0.012910115 0.06928486 -0.6189659 -0.6994105 0.3573601 255 125 0 255
0.009958862 0.017410114 0.052035566 -0.6189659 -0.6994105 0.3573601 255 125 0 255
0.01340485 0.012910115 0.092502736 1.4901204E-08 -1 -7.433144E-14 255 125 0 255
0.0250026 0.012910115 0.06928486 1.4901204E-08 -1 -7.433144E-14 255 125 0 255
0.026809707 0.012910115 0.06928486 1.4901204E-08 -1 -7.433144E-14 255 125 0 255
0.012501306 0.012910115 0.09093774 1.4901204E-08 -1 -7.433144E-14 255 125 0 255
-0.013404852 0.012910113 0.092502736 1.4901204E-08 -1 -7.433144E-14 255 125 0 255
-0.0125013115 0.012910115 0.09093774 1.4901204E-08 -1 -7.433144E-14 255 125 0 255
-0.025002623 0.012910113 0.06928486 1.4901204E-08 -1 -7.433144E-14 255 125 0 255
-0.026809726 0.012910113 0.06928486 1.4901204E-08 -1 -7.433144E-14 255 125 0 255
0.01340485 0.012910115 0.04606696 1.4901204E-08 -1 -7.433144E-14 255 125 0 255
0.012501306 0.012910115 0.047631957 1.4901204E-08 -1 -7.433144E-14 255 125 0 255
-0.013404852 0.012910113 0.04606696 1.4901204E-08 -1 -7.433144E-14 255 125 0 255
-0.0125013115 0.012910115 0.047631957 1.4901204E-08 -1 -7.433144E-14 255 125 0 255
0.026809707 0.013810115 0.06928486 0.86602545 1.29048585E-08 -0.5 255 125 0 255
0.01340485 0.012910115 0.04606696 0.86602545 1.29048585E-08 -0.5 255 125 0 255
0.01340485 0.013810115 0.04606696 0.86602545 1.29048585E-08 -0.5 255 125 0 255
0.026809707 0.012910115 0.06928486 0.86602545 1.29048585E-08 -0.5 255 125 0 255
0.01340485 0.013810115 0.092502736 0.86602545 1.2904783E-08 0.5 255 125 0 255
0.026809707 0.012910115 0.06928486 0.86602545 1.2904783E-08 0.5 255 125 0 255
0.026809707 0.013810115 0.06928486 0.86602545 1.2904783E-08 0.5 255 125 0 255
0.01340485 0.012910115 0.092502736 0.86602545 1.2904783E-08 0.5 255 125 0 255
-0.013404852 0.013810114 0.092502736 1.8933321E-16 -7.433144E-14 1 255 125 0 255
0.01340485 0.012910115 0.092502736 1.8933321E-16 -7.433144E-14 1 255 125 0 255
0.01340485 0.013810115 0.092502736 1.8933321E-16 -7.433144E-14 1 255 125 0 255
-0.013404852 0.012910113 0.092502736 1.8933321E-16 -7.433144E-14 1 255 125 0 255
-0.013404852 0.012910113 0.092502736 -0.86602545 -1.29048585E-08 0.5 255 125 0 255
-0.026809726 0.013810114 0.06928486 -0.86602545 -1.29048585E-08 0.5 255 125 0 255
-0.026809726 0.012910113 0.06928486 -0.86602545 -1.29048585E-08 0.5 255 125 0 255
-0.013404852 0.013810114 0.092502736 -0.86602545 -1.29048585E-08 0.5 255 125 0 255
-0.026809726 0.012910113 0.06928486 -0.86602545 -1.2904783E-08 -0.5 255 125 0 255
-0.013404852 0.013810114 0.04606696 -0.86602545 -1.2904783E-08 -0.5 255 125 0 255
-0.013404852 0.012910113 0.04606696 -0.86602545 -1.2904783E-08 -0.5 255 125 0 255
-0.026809726 0.013810114 0.06928486 -0.86602545 -1.2904783E-08 -0.5 255 125 0 255
0.01340485 0.012910115 0.04606696 -9.466716E-17 7.433144E-14 -1 255 125 0 255
-0.013404852 0.013810114 0.04606696 -9.466716E-17 7.433144E-14 -1 255 125 0 255
0.01340485 0.013810115 0.04606696 -9.466716E-17 7.433144E-14 -1 255 125 0 255
-0.013404852 0.012910113 0.04606696 -9.466716E-17 7.433144E-14 -1 255 125 0 255
0.007307605 0.0037419363 0.09764287 3.9795593E-09 -0.2670626 -0.96367913 58 58 58 255
-0.0063996385 0.009416869 0.09607017 3.9795593E-09 -0.2670626 -0.96367913 58 58 58 255
0.0063996064 0.009416869 0.09607017 3.9795593E-09 -0.2670626 -0.96367913 58 58 58 255
-0.0073076137 0.0037419358 0.09764287 3.9795593E-09 -0.2670626 -0.96367913 58 58 58 255
-0.0063996385 0.009416869 0.09607017 -1.43599435E-08 0.96367913 -0.2670626 255 125 0 255
0.0063996064 0.009897579 0.09780482 -1.43599435E-08 0.96367913 -0.2670626 255 125 0 255
0.0063996064 0.009416869 0.09607017 -1.43599435E-08 0.96367913 -0.2670626 255 125 0 255
-0.0063996385 0.009897579 0.09780482 -1.43599435E-08 0.96367913 -0.2670626 255 125 0 255
0.0063996064 0.009897579 0.09780482 0.98832077 0.146853 -0.0406971 255 125 0 255
0.007307605 0.0037419363 0.09764287 0.98832077 0.146853 -0.0406971 255 125 0 255
0.0063996064 0.009416869 0.09607017 0.98832077 0.146853 -0.0406971 255 125 0 255
0.007307605 0.0042226478 0.09937748 0.98832077 0.146853 -0.0406971 255 125 0 255
-0.0073076137 0.0037419358 0.09764287 -0.98832077 0.14685297 -0.0406971 255 125 0 255
-0.0063996385 0.009897579 0.09780482 -0.98832077 0.14685297 -0.0406971 255 125 0 255
-0.0063996385 0.009416869 0.09607017 -0.98832077 0.14685297 -0.0406971 255 125 0 255
-0.0073076137 0.0042226473 0.09937748 -0.98832077 0.14685297 -0.0406971 255 125 0 255
-0.0073076137 0.0042226473 0.09937748 1.43600225E-08 -0.96367913 0.2670626 255 125 0 255
0.007307605 0.0037419363 0.09764287 1.43600225E-08 -0.96367913 0.2670626 255 125 0 255
0.007307605 0.0042226478 0.09937748 1.43600225E-08 -0.96367913 0.2670626 255 125 0 255
-0.0073076137 0.0037419358 0.09764287 1.43600225E-08 -0.96367913 0.2670626 255 125 0 255
0.020904949 0.0037419363 0.08979243 -0.83457065 -0.2670626 -0.48183957 58 58 58 255
0.02639658 0.00941687 0.07713528 -0.83457065 -0.2670626 -0.48183957 58 58 58 255
0.02821256 0.0037419365 0.07713528 -0.83457065 -0.2670626 -0.48183957 58 58 58 255
0.01999696 0.00941687 0.088219754 -0.83457065 -0.2670626 -0.48183957 58 58 58 255
0.02639658 0.00941687 0.07713528 -0.231283 0.96367913 -0.1335313 255 125 0 255
0.021499187 0.00989758 0.089087054 -0.231283 0.96367913 -0.1335313 255 125 0 255
0.027898809 0.00989758 0.07800259 -0.231283 0.96367913 -0.1335313 255 125 0 255
0.01999696 0.00941687 0.088219754 -0.231283 0.96367913 -0.1335313 255 125 0 255
0.029714787 0.004222648 0.07800259 0.45891574 0.146853 -0.87625945 255 125 0 255
0.02639658 0.00941687 0.07713528 0.45891574 0.146853 -0.87625945 255 125 0 255
0.027898809 0.00989758 0.07800259 0.45891574 0.146853 -0.87625945 255 125 0 255
0.02821256 0.0037419365 0.07713528 0.45891574 0.146853 -0.87625945 255 125 0 255
0.01999696 0.00941687 0.088219754 -0.5294052 0.146853 0.8355623 255 125 0 255
0.022407176 0.0042226478 0.09065974 -0.5294052 0.146853 0.8355623 255 125 0 255
0.021499187 0.00989758 0.089087054 -0.5294052 0.146853 0.8355623 255 125 0 255
0.020904949 0.0037419363 0.08979243 -0.5294052 0.146853 0.8355623 255 125 0 255
0.022407176 0.0042226478 0.09065974 0.231283 -0.96367913 0.1335313 255 125 0 255
0.02821256 0.0037419365 0.07713528 0.231283 -0.96367913 0.1335313 255 125 0 255
0.029714787 0.004222648 0.07800259 0.231283 -0.96367913 0.1335313 255 125 0 255
0.020904949 0.0037419363 0.08979243 0.231283 -0.96367913 0.1335313 255 125 0 255
0.02821256 0.0037419365 0.06143442 -0.83457065 -0.2670626 0.48183957 58 58 58 255
0.01999696 0.00941687 0.05034995 -0.83457065 -0.2670626 0.48183957 58 58 58 255
0.020904949 0.0037419363 0.048777267 -0.83457065 -0.2670626 0.48183957 58 58 58 255
0.02639658 0.00941687 0.06143442 -0.83457065 -0.2670626 0.48183957 58 58 58 255
0.021499187 0.00989758 0.04948264 -0.231283 0.96367913 0.1335313 255 125 0 255
0.02639658 0.00941687 0.06143442 -0.231283 0.96367913 0.1335313 255 125 0 255
0.027898809 0.00989758 0.060567107 -0.231283 0.96367913 0.1335313 255 125 0 255
0.01999696 0.00941687 0.05034995 -0.231283 0.96367913 0.1335313 255 125 0 255
0.022407176 0.0042226478 0.047909953 -0.5294052 0.146853 -0.8355623 255 125 0 255
0.01999696 0.00941687 0.05034995 -0.5294052 0.146853 -0.8355623 255 125 0 255
0.021499187 0.00989758 0.04948264 -0.5294052 0.146853 -0.8355623 255 125 0 255
0.020904949 0.0037419363 0.048777267 -0.5294052 0.146853 -0.8355623 255 125 0 255
0.02639658 0.00941687 0.06143442 0.45891574 0.146853 0.87625945 255 125 0 255
0.029714787 0.004222648 0.060567107 0.45891574 0.146853 0.87625945 255 125 0 255
0.027898809 0.00989758 0.060567107 0.45891574 0.146853 0.87625945 255 125 0 255
0.02821256 0.0037419365 0.06143442 0.45891574 0.146853 0.87625945 255 125 0 255
0.02821256 0.0037419365 0.06143442 0.231283 -0.96367913 -0.1335313 255 125 0 255
0.022407176 0.0042226478 0.047909953 0.231283 -0.96367913 -0.1335313 255 125 0 255
0.029714787 0.004222648 0.060567107 0.231283 -0.96367913 -0.1335313 255 125 0 255
0.020904949 0.0037419363 0.048777267 0.231283 -0.96367913 -0.1335313 255 125 0 255
-0.019996975 0.009416869 0.088219754 0.83457065 -0.2670626 -0.48183957 58 58 58 255
-0.028212577 0.0037419356 0.07713528 0.83457065 -0.2670626 -0.48183957 58 58 58 255
-0.026396604 0.009416869 0.07713528 0.83457065 -0.2670626 -0.48183957 58 58 58 255
-0.020904968 0.0037419358 0.08979243 0.83457065 -0.2670626 -0.48183957 58 58 58 255
-0.026396604 0.009416869 0.07713528 -0.45891574 0.146853 -0.87625945 255 125 0 255
-0.0297148 0.0042226473 0.07800259 -0.45891574 0.146853 -0.87625945 255 125 0 255
-0.027898828 0.009897579 0.07800259 -0.45891574 0.146853 -0.87625945 255 125 0 255
-0.028212577 0.0037419356 0.07713528 -0.45891574 0.146853 -0.87625945 255 125 0 255
-0.026396604 0.009416869 0.07713528 0.23128298 0.9636792 -0.1335313 255 125 0 255
-0.021499192 0.009897579 0.089087054 0.23128298 0.9636792 -0.1335313 255 125 0 255
-0.019996975 0.009416869 0.088219754 0.23128298 0.9636792 -0.1335313 255 125 0 255
-0.027898828 0.009897579 0.07800259 0.23128298 0.9636792 -0.1335313 255 125 0 255
-0.02240719 0.0042226473 0.09065974 -0.23128298 -0.9636792 0.1335313 255 125 0 255
-0.028212577 0.0037419356 0.07713528 -0.23128298 -0.9636792 0.1335313 255 125 0 255
-0.020904968 0.0037419358 0.08979243 -0.23128298 -0.9636792 0.1335313 255 125 0 255
-0.0297148 0.0042226473 0.07800259 -0.23128298 -0.9636792 0.1335313 255 125 0 255
-0.02240719 0.0042226473 0.09065974 0.5294052 0.146853 0.8355623 255 125 0 255
-0.019996975 0.009416869 0.088219754 0.5294052 0.146853 0.8355623 255 125 0 255
-0.021499192 0.009897579 0.089087054 0.5294052 0.146853 0.8355623 255 125 0 255
-0.020904968 0.0037419358 0.08979243 0.5294052 0.146853 0.8355623 255 125 0 255
-0.019996975 0.009416869 0.05034995 0.83457065 -0.2670626 0.48183957 58 58 58 255
-0.028212577 0.0037419356 0.06143442 0.83457065 -0.2670626 0.48183957 58 58 58 255
-0.020904968 0.0037419358 0.048777267 0.83457065 -0.2670626 0.48183957 58 58 58 255
-0.026396604 0.009416869 0.06143442 0.83457065 -0.2670626 0.48183957 58 58 58 255
-0.019996975 0.009416869 0.05034995 0.5294052 0.146853 -0.8355623 255 125 0 255
-0.02240719 0.0042226473 0.047909953 0.5294052 0.146853 -0.8355623 255 125 0 255
-0.021499192 0.009897579 0.04948264 0.5294052 0.146853 -0.8355623 255 125 0 255
-0.020904968 0.0037419358 0.048777267 0.5294052 0.146853 -0.8355623 255 125 0 255
-0.021499192 0.009897579 0.04948264 0.23128298 0.9636792 0.1335313 255 125 0 255
-0.026396604 0.009416869 0.06143442 0.23128298 0.9636792 0.1335313 255 125 0 255
-0.019996975 0.009416869 0.05034995 0.23128298 0.9636792 0.1335313 255 125 0 255
-0.027898828 0.009897579 0.060567107 0.23128298 0.9636792 0.1335313 255 125 0 255
-0.028212577 0.0037419356 0.06143442 -0.23128298 -0.9636792 -0.1335313 255 125 0 255
-0.02240719 0.0042226473 0.047909953 -0.23128298 -0.9636792 -0.1335313 255 125 0 255
-0.020904968 0.0037419358 0.048777267 -0.23128298 -0.9636792 -0.1335313 255 125 0 255
-0.0297148 0.0042226473 0.060567107 -0.23128298 -0.9636792 -0.1335313 255 125 0 255
-0.0297148 0.0042226473 0.060567107 -0.45891574 0.146853 0.87625945 255 125 0 255
-0.026396604 0.009416869 0.06143442 -0.45891574 0.146853 0.87625945 255 125 0 255
-0.027898828 0.009897579 0.060567107 -0.45891574 0.146853 0.87625945 255 125 0 255
-0.028212577 0.0037419356 0.06143442 -0.45891574 0.146853 0.87625945 255 125 0 255
-0.015750002 -0.026969679 0.011876494 4.8572257E-17 1 -0 141 141 141 255
0.015749995 -0.026969679 -0.096123494 4.8572257E-17 1 -0 141 141 141 255
-0.015750002 -0.026969679 -0.096123494 4.8572257E-17 1 -0 141 141 141 255
0.015749995 -0.026969679 0.011876494 4.8572257E-17 1 -0 141 141 141 255
-0.015750002 -0.026969679 -0.096123494 4.0411336E-17 0.8319839 0.5547998 141 141 141 255
0.014017502 -0.023968916 -0.10062349 4.0411336E-17 0.8319839 0.5547998 141 141 141 255
-0.014017504 -0.023968916 -0.10062349 4.0411336E-17 0.8319839 0.5547998 141 141 141 255
0.015749995 -0.026969679 -0.096123494 4.0411336E-17 0.8319839 0.5547998 141 141 141 255
-0.015750002 -0.026969679 0.011876494 0.86602545 0.5 -0 141 141 141 255
-0.0315 0.00031011587 -0.096123494 0.86602545 0.5 -0 141 141 141 255
-0.0315 0.00031011587 0.011876494 0.86602545 0.5 -0 141 141 141 255
-0.015750002 -0.026969679 -0.096123494 0.86602545 0.5 -0 141 141 141 255
-0.011497503 -0.019604143 0.02627651 4.7829482E-17 0.8902957 -0.4553829 141 141 141 255
0.015749995 -0.026969679 0.011876494 4.7829482E-17 0.8902957 -0.4553829 141 141 141 255
-0.015750002 -0.026969679 0.011876494 4.7829482E-17 0.8902957 -0.4553829 141 141 141 255
0.011497506 -0.019604143 0.02627651 4.7829482E-17 0.8902957 -0.4553829 141 141 141 255
0.015749995 -0.026969679 -0.096123494 -0.86602545 0.5 -0 141 141 141 255
0.031500008 0.00031011587 0.011876494 -0.86602545 0.5 -0 141 141 141 255
0.031500008 0.00031011587 -0.096123494 -0.86602545 0.5 -0 141 141 141 255
0.015749995 -0.026969679 0.011876494 -0.86602545 0.5 -0 141 141 141 255
-0.015750002 -0.026969679 -0.096123494 0.72051924 0.41599193 0.5547998 141 141 141 255
-0.028035002 0.00031011587 -0.10062349 0.72051924 0.41599193 0.5547998 141 141 141 255
-0.0315 0.00031011587 -0.096123494 0.72051924 0.41599193 0.5547998 141 141 141 255
-0.014017504 -0.023968916 -0.10062349 0.72051924 0.41599193 0.5547998 141 141 141 255
0.014017502 -0.023968916 -0.10062349 -0.72051924 0.41599193 0.5547998 141 141 141 255
0.031500008 0.00031011587 -0.096123494 -0.72051924 0.41599193 0.5547998 141 141 141 255
0.028034998 0.00031011587 -0.10062349 -0.72051924 0.41599193 0.5547998 141 141 141 255
0.015749995 -0.026969679 -0.096123494 -0.72051924 0.41599193 0.5547998 141 141 141 255
-0.014017504 -0.023968916 -0.10062349 0 -0 1 141 141 141 255
-0.014017504 0.024589134 -0.10062349 0 -0 1 141 141 141 255
-0.028035002 0.00031011587 -0.10062349 0 -0 1 141 141 141 255
0.014017502 -0.023968916 -0.10062349 0 -0 1 141 141 141 255
0.014017502 0.024589134 -0.10062349 0 -0 1 141 141 141 255
0.028034998 0.00031011587 -0.10062349 0 -0 1 141 141 141 255
-0.0315 0.00031011587 0.011876494 0.86602545 -0.5 -0 141 141 141 255
-0.015750002 0.02758991 -0.096123494 0.86602545 -0.5 -0 141 141 141 255
-0.015750002 0.02758991 0.011876494 0.86602545 -0.5 -0 141 141 141 255
-0.0315 0.00031011587 -0.096123494 0.86602545 -0.5 -0 141 141 141 255
-0.011497503 -0.019604143 0.02627651 0.7710187 0.44514784 -0.45538294 141 141 141 255
-0.0315 0.00031011587 0.011876494 0.7710187 0.44514784 -0.45538294 141 141 141 255
-0.022995003 0.00031011587 0.02627651 0.7710187 0.44514784 -0.45538294 141 141 141 255
-0.015750002 -0.026969679 0.011876494 0.7710187 0.44514784 -0.45538294 141 141 141 255
-0.0059350017 -0.0099696135 0.030626241 2.5307874E-17 0.4114812 -0.9114182 141 141 141 255
0.011497506 -0.019604143 0.02627651 2.5307874E-17 0.4114812 -0.9114182 141 141 141 255
-0.011497503 -0.019604143 0.02627651 2.5307874E-17 0.4114812 -0.9114182 141 141 141 255
0.0059350072 -0.0099696135 0.030626241 2.5307874E-17 0.4114812 -0.9114182 141 141 141 255
0.015749995 -0.026969679 0.011876494 -0.7710187 0.44514784 -0.45538294 141 141 141 255
0.02299499 0.00031011587 0.02627651 -0.7710187 0.44514784 -0.45538294 141 141 141 255
0.031500008 0.00031011587 0.011876494 -0.7710187 0.44514784 -0.45538294 141 141 141 255
0.011497506 -0.019604143 0.02627651 -0.7710187 0.44514784 -0.45538294 141 141 141 255
0.031500008 0.00031011587 -0.096123494 -0.86602545 -0.5 -0 141 141 141 255
0.015749995 0.02758991 0.011876494 -0.86602545 -0.5 -0 141 141 141 255
0.015749995 0.02758991 -0.096123494 -0.86602545 -0.5 -0 141 141 141 255
0.031500008 0.00031011587 0.011876494 -0.86602545 -0.5 -0 141 141 141 255
-0.0315 0.00031011587 -0.096123494 0.72051924 -0.41599193 0.5547998 141 141 141 255
-0.014017504 0.024589134 -0.10062349 0.72051924 -0.41599193 0.5547998 141 141 141 255
-0.015750002 0.02758991 -0.096123494 0.72051924 -0.41599193 0.5547998 141 141 141 255
-0.028035002 0.00031011587 -0.10062349 0.72051924 -0.41599193 0.5547998 141 141 141 255
0.014017502 0.024589134 -0.10062349 -0.72051924 -0.41599193 0.5547998 141 141 141 255
0.031500008 0.00031011587 -0.096123494 -0.72051924 -0.41599193 0.5547998 141 141 141 255
0.015749995 0.02758991 -0.096123494 -0.72051924 -0.41599193 0.5547998 141 141 141 255
0.028034998 0.00031011587 -0.10062349 -0.72051924 -0.41599193 0.5547998 141 141 141 255
0.015749995 0.02758991 -0.096123494 -3.8148643E-17 -0.8319839 0.5547998 141 141 141 255
-0.014017504 0.024589134 -0.10062349 -3.8148643E-17 -0.8319839 0.5547998 141 141 141 255
0.014017502 0.024589134 -0.10062349 -3.8148643E-17 -0.8319839 0.5547998 141 141 141 255
-0.015750002 0.02758991 -0.096123494 -3.8148643E-17 -0.8319839 0.5547998 141 141 141 255
0.015749995 0.02758991 0.011876494 -4.8572257E-17 -1 -0 141 141 141 255
-0.015750002 0.02758991 -0.096123494 -4.8572257E-17 -1 -0 141 141 141 255
0.015749995 0.02758991 -0.096123494 -4.8572257E-17 -1 -0 141 141 141 255
-0.015750002 0.02758991 0.011876494 -4.8572257E-17 -1 -0 141 141 141 255
-0.011497503 0.020224364 0.02627651 0.7710187 -0.44514784 -0.45538294 141 141 141 255
-0.0315 0.00031011587 0.011876494 0.7710187 -0.44514784 -0.45538294 141 141 141 255
-0.015750002 0.02758991 0.011876494 0.7710187 -0.44514784 -0.45538294 141 141 141 255
-0.022995003 0.00031011587 0.02627651 0.7710187 -0.44514784 -0.45538294 141 141 141 255
-0.011870022 0.00031011587 0.030626241 0.35635322 0.2057406 -0.9114182 141 141 141 255
-0.011497503 -0.019604143 0.02627651 0.35635322 0.2057406 -0.9114182 141 141 141 255
-0.022995003 0.00031011587 0.02627651 0.35635322 0.2057406 -0.9114182 141 141 141 255
-0.0059350017 -0.0099696135 0.030626241 0.35635322 0.2057406 -0.9114182 141 141 141 255
-0.0059350017 -0.0099696135 0.04275822 4.8572257E-17 1 -0 141 141 141 255
0.0059350072 -0.0099696135 0.030626241 4.8572257E-17 1 -0 141 141 141 255
-0.0059350017 -0.0099696135 0.030626241 4.8572257E-17 1 -0 141 141 141 255
0.0059350072 -0.0099696135 0.04275822 4.8572257E-17 1 -0 141 141 141 255
0.011870012 0.00031011587 0.030626241 -0.35635322 0.2057406 -0.9114182 141 141 141 255
0.011497506 -0.019604143 0.02627651 -0.35635322 0.2057406 -0.9114182 141 141 141 255
0.0059350072 -0.0099696135 0.030626241 -0.35635322 0.2057406 -0.9114182 141 141 141 255
0.02299499 0.00031011587 0.02627651 -0.35635322 0.2057406 -0.9114182 141 141 141 255
0.031500008 0.00031011587 0.011876494 -0.7710187 -0.44514784 -0.45538294 141 141 141 255
0.011497506 0.020224364 0.02627651 -0.7710187 -0.44514784 -0.45538294 141 141 141 255
0.015749995 0.02758991 0.011876494 -0.7710187 -0.44514784 -0.45538294 141 141 141 255
0.02299499 0.00031011587 0.02627651 -0.7710187 -0.44514784 -0.45538294 141 141 141 255
0.011497506 0.020224364 0.02627651 -5.3982842E-17 -0.8902957 -0.4553829 141 141 141 255
-0.015750002 0.02758991 0.011876494 -5.3982842E-17 -0.8902957 -0.4553829 141 141 141 255
0.015749995 0.02758991 0.011876494 -5.3982842E-17 -0.8902957 -0.4553829 141 141 141 255
-0.011497503 0.020224364 0.02627651 -5.3982842E-17 -0.8902957 -0.4553829 141 141 141 255
-0.011497503 0.020224364 0.02627651 0.35635322 -0.2057406 -0.9114182 141 141 141 255
-0.011870022 0.00031011587 0.030626241 0.35635322 -0.2057406 -0.9114182 141 141 141 255
-0.022995003 0.00031011587 0.02627651 0.35635322 -0.2057406 -0.9114182 141 141 141 255
-0.0059350017 0.010589849 0.030626241 0.35635322 -0.2057406 -0.9114182 141 141 141 255
-0.0059350017 -0.0099696135 0.04275822 0.86602545 0.5 -0 141 141 141 255
-0.011870022 0.00031011587 0.030626241 0.86602545 0.5 -0 141 141 141 255
-0.011870022 0.00031011587 0.04275822 0.86602545 0.5 -0 141 141 141 255
-0.0059350017 -0.0099696135 0.030626241 0.86602545 0.5 -0 141 141 141 255
0.0059350072 -0.0099696135 0.030626241 -0.86602545 0.5 -0 141 141 141 255
0.011870012 0.00031011587 0.04275822 -0.86602545 0.5 -0 141 141 141 255
0.011870012 0.00031011587 0.030626241 -0.86602545 0.5 -0 141 141 141 255
0.0059350072 -0.0099696135 0.04275822 -0.86602545 0.5 -0 141 141 141 255
0.011497506 0.020224364 0.02627651 -0.35635322 -0.2057406 -0.9114182 141 141 141 255
0.011870012 0.00031011587 0.030626241 -0.35635322 -0.2057406 -0.9114182 141 141 141 255
0.0059350072 0.010589849 0.030626241 -0.35635322 -0.2057406 -0.9114182 141 141 141 255
0.02299499 0.00031011587 0.02627651 -0.35635322 -0.2057406 -0.9114182 141 141 141 255
0.011497506 0.020224364 0.02627651 -2.049064E-17 -0.4114812 -0.9114182 141 141 141 255
-0.0059350017 0.010589849 0.030626241 -2.049064E-17 -0.4114812 -0.9114182 141 141 141 255
-0.011497503 0.020224364 0.02627651 -2.049064E-17 -0.4114812 -0.9114182 141 141 141 255
0.0059350072 0.010589849 0.030626241 -2.049064E-17 -0.4114812 -0.9114182 141 141 141 255
-0.011870022 0.00031011587 0.04275822 0.86602545 -0.5 -0 141 141 141 255
-0.0059350017 0.010589849 0.030626241 0.86602545 -0.5 -0 141 141 141 255
-0.0059350017 0.010589849 0.04275822 0.86602545 -0.5 -0 141 141 141 255
-0.011870022 0.00031011587 0.030626241 0.86602545 -0.5 -0 141 141 141 255
0.011870012 0.00031011587 0.030626241 -0.86602545 -0.5 -0 141 141 141 255
0.0059350072 0.010589849 0.04275822 -0.86602545 -0.5 -0 141 141 141 255
0.0059350072 0.010589849 0.030626241 -0.86602545 -0.5 -0 141 141 141 255
0.011870012 0.00031011587 0.04275822 -0.86602545 -0.5 -0 141 141 141 255
0.0059350072 0.010589849 0.04275822 -4.8572257E-17 -1 -0 141 141 141 255
-0.0059350017 0.010589849 0.030626241 -4.8572257E-17 -1 -0 141 141 141 255
0.0059350072 0.010589849 0.030626241 -4.8572257E-17 -1 -0 141 141 141 255
-0.0059350017 0.010589849 0.04275822 -4.8572257E-17 -1 -0 141 141 141 255
3 0 1 2
3 1 0 3
3 4 5 6
3 5 4 7
3 7 4 8
3 7 8 9
3 9 8 10
3 10 8 11
3 5 12 6
3 12 5 13
3 12 13 14
3 14 13 15
3 14 15 10
3 14 10 11
3 16 17 18
3 17 16 19
3 17 19 20
3 21 18 22
3 18 21 16
3 22 18 23
3 22 23 20
3 22 20 19
3 24 25 26
3 25 24 27
3 25 27 28
3 26 29 30
3 29 26 25
3 30 29 31
3 30 31 28
3 30 28 27
3 32 33 34
3 33 32 35
3 33 35 36
3 36 35 37
3 34 38 37
3 38 34 33
3 37 38 39
3 37 39 36
3 40 41 42
3 41 40 43
3 41 43 44
3 44 43 45
3 42 46 47
3 46 42 41
3 47 46 45
3 47 45 43
3 48 49 50
3 49 48 51
3 49 51 52
3 52 51 53
3 50 54 55
3 54 50 49
3 55 54 53
3 55 53 51
3 56 57 58
3 57 56 59
3 59 56 60
3 59 60 61
3 61 60 62
3 62 60 63
3 57 64 58
3 64 57 65
3 64 65 66
3 66 65 67
3 66 67 62
3 66 62 63
3 68 69 70
3 71 72 73
3 74 75 76
3 75 74 77
3 78 79 80
3 81 82 83
3 84 85 86
3 85 84 87
3 88 89 90
3 71 73 91
3 92 93 94
3 93 92 95
3 78 96 79
3 97 98 99
3 100 101 102
3 101 100 103
3 103 104 105
3 104 103 106
3 107 108 109
3 110 111 112
3 101 113 114
3 113 101 115
3 101 114 102
3 116 117 118
3 117 116 119
3 106 103 100
3 120 121 122
3 121 120 123
3 124 120 122
3 125 126 127
3 128 126 129
3 126 128 127
3 130 131 132
3 131 130 133
3 134 135 136
3 135 134 137
3 138 139 140
3 139 138 141
3 139 141 142
3 142 141 143
3 144 145 146
3 145 144 147
3 148 149 150
3 149 148 151
3 152 153 154
3 153 152 155
3 156 157 158
3 157 156 159
3 160 161 162
3 161 160 163
3 164 165 166
3 165 164 167
3 168 169 170
3 169 168 171
3 169 171 172
3 172 171 173
3 174 175 176
3 175 174 177
3 178 179 180
3 179 178 181
3 182 183 184
3 183 182 185
3 186 187 188
3 187 186 189
3 190 191 192
3 191 190 193
3 194 195 196
3 195 194 197
3 198 199 200
3 199 198 201
3 201 198 202
3 201 202 203
3 203 202 204
3 204 202 205
3 199 206 200
3 206 199 207
3 206 207 208
3 208 207 209
3 208 209 204
3 208 204 205
3 210 211 212
3 211 210 213
3 214 215 216
3 215 214 217
3 218 219 220
3 219 218 221
3 222 223 224
3 223 222 225
3 226 227 228
3 227 226 229
3 230 231 232
3 231 230 233
3 234 235 236
3 235 234 237
3 238 239 240
3 239 238 241
3 242 243 244
3 243 242 245
3 246 247 248
3 247 246 249
3 250 251 252
3 251 250 253
3 254 255 256
3 255 254 257
3 258 259 260
3 259 258 261
3 262 263 264
3 263 262 265
3 266 267 268
3 267 266 269
3 270 271 272
3 271 270 273
3 274 275 276
3 275 274 277
3 278 279 280
3 279 278 281
3 282 283 284
3 283 282 285
3 286 287 288
3 287 286 289
3 290 291 292
3 291 290 293
3 294 295 296
3 295 294 297
3 298 299 300
3 299 298 301
3 302 303 304
3 303 302 305
3 306 307 308
3 307 306 309
3 310 311 312
3 311 310 313
3 314 315 316
3 315 314 317
3 318 319 320
3 319 318 321
3 322 323 324
3 323 322 325
3 326 327 328
3 327 326 329
3 330 331 332
3 331 330 333
3 334 335 336
3 335 334 337
3 338 339 340
3 339 338 341
3 342 343 344
3 343 342 345
3 346 347 348
3 347 346 349
3 350 351 352
3 351 350 353
3 354 355 356
3 355 354 357
3 358 359 360
3 359 358 361
3 362 363 364
3 363 362 365
3 363 365 366
3 366 365 367
3 368 369 370
3 369 368 371
3 372 373 374
3 373 372 375
3 376 377 378
3 377 376 379
3 380 381 382
3 381 380 383
3 384 385 386
3 385 384 387
3 388 389 390
3 389 388 391
3 392 393 394
3 393 392 395
3 396 397 398
3 397 396 399
3 400 401 402
3 401 400 403
3 404 405 406
3 405 404 407
3 408 409 410
3 409 408 411
3 412 413 414
3 413 412 415
3 416 417 418
3 417 416 419
3 420 421 422
3 421 420 423
3 424 425 426
3 425 424 427
3 428 429 430
3 429 428 431
3 432 433 434
3 433 432 435
3 436 437 438
3 437 436 439
3 440 441 442
3 441 440 443
3 444 445 446
3 445 444 447
3 448 449 450
3 449 448 451
3 452 453 454
3 453 452 455
3 456 457 458
3 457 456 459

