ply
format ascii 1.0
commentY29udmVydGVyIGJ5IENvZGVMZW9wYXJk
comment Original mesh name: 'C:\Program Files (x86)\Steam\steamapps\common\Stormworks\rom\meshes\equipment_uranium_ingot.mesh'
comment SubMesh index: 0
comment SubMesh name: 'ID2'
comment Shader: Opaque (0)
element vertex 112
property float x
property float y
property float z
property float nx
property float ny
property float nz
property uchar red
property uchar green
property uchar blue
property uchar alpha
element face 60
property list uchar ushort vertex_index
end_header
0.09600001 0.058000006 -0.038764484 0 -1 4.1633358E-16 86 86 86 255
-0.03976451 0.058000006 -0.094999984 0 -1 4.1633358E-16 86 86 86 255
0.03976451 0.058000006 -0.094999984 0 -1 4.1633358E-16 86 86 86 255
-0.09600001 0.058000006 -0.038764484 0 -1 4.1633358E-16 86 86 86 255
0.09600001 0.058000006 0.04076451 0 -1 4.1633358E-16 86 86 86 255
-0.09600001 0.058000006 0.04076451 0 -1 4.1633358E-16 86 86 86 255
0.03976451 0.058000006 0.097 0 -1 4.1633358E-16 86 86 86 255
-0.03976451 0.058000006 0.097 0 -1 4.1633358E-16 86 86 86 255
0.10099999 0.052999992 0.042835575 -0.70710677 -0.70710677 2.1666948E-16 86 86 86 255
0.09600001 0.058000006 -0.038764484 -0.70710677 -0.70710677 2.1666948E-16 86 86 86 255
0.10099999 0.052999992 -0.040835574 -0.70710677 -0.70710677 2.1666948E-16 86 86 86 255
0.09600001 0.058000006 0.04076451 -0.70710677 -0.70710677 2.1666948E-16 86 86 86 255
0.10099999 0.052999992 0.042835575 -0.49999994 -0.70710677 -0.49999994 86 86 86 255
0.03976451 0.058000006 0.097 -0.49999994 -0.70710677 -0.49999994 86 86 86 255
0.09600001 0.058000006 0.04076451 -0.49999994 -0.70710677 -0.49999994 86 86 86 255
0.041835576 0.052999992 0.102 -0.49999994 -0.70710677 -0.49999994 86 86 86 255
-0.041835576 0.052999992 0.102 -1.9003858E-18 -0.70710677 -0.70710677 86 86 86 255
0.03976451 0.058000006 0.097 -1.9003858E-18 -0.70710677 -0.70710677 86 86 86 255
0.041835576 0.052999992 0.102 -1.9003858E-18 -0.70710677 -0.70710677 86 86 86 255
-0.03976451 0.058000006 0.097 -1.9003858E-18 -0.70710677 -0.70710677 86 86 86 255
-0.03976451 0.058000006 0.097 0.49999994 -0.70710677 -0.49999994 86 86 86 255
-0.10099999 0.052999992 0.042835575 0.49999994 -0.70710677 -0.49999994 86 86 86 255
-0.09600001 0.058000006 0.04076451 0.49999994 -0.70710677 -0.49999994 86 86 86 255
-0.041835576 0.052999992 0.102 0.49999994 -0.70710677 -0.49999994 86 86 86 255
-0.09600001 0.058000006 -0.038764484 0.70710677 -0.70710677 2.1666948E-16 86 86 86 255
-0.10099999 0.052999992 0.042835575 0.70710677 -0.70710677 2.1666948E-16 86 86 86 255
-0.10099999 0.052999992 -0.040835574 0.70710677 -0.70710677 2.1666948E-16 86 86 86 255
-0.09600001 0.058000006 0.04076451 0.70710677 -0.70710677 2.1666948E-16 86 86 86 255
-0.03976451 0.058000006 -0.094999984 0.49999994 -0.70710677 0.49999994 86 86 86 255
-0.10099999 0.052999992 -0.040835574 0.49999994 -0.70710677 0.49999994 86 86 86 255
-0.041835576 0.052999992 -0.099999994 0.49999994 -0.70710677 0.49999994 86 86 86 255
-0.09600001 0.058000006 -0.038764484 0.49999994 -0.70710677 0.49999994 86 86 86 255
0.03976451 0.058000006 -0.094999984 1.9003858E-18 -0.70710677 0.70710677 86 86 86 255
-0.041835576 0.052999992 -0.099999994 1.9003858E-18 -0.70710677 0.70710677 86 86 86 255
0.041835576 0.052999992 -0.099999994 1.9003858E-18 -0.70710677 0.70710677 86 86 86 255
-0.03976451 0.058000006 -0.094999984 1.9003858E-18 -0.70710677 0.70710677 86 86 86 255
0.10099999 0.052999992 -0.040835574 -0.49999994 -0.70710677 0.49999994 86 86 86 255
0.03976451 0.058000006 -0.094999984 -0.49999994 -0.70710677 0.49999994 86 86 86 255
0.041835576 0.052999992 -0.099999994 -0.49999994 -0.70710677 0.49999994 86 86 86 255
0.09600001 0.058000006 -0.038764484 -0.49999994 -0.70710677 0.49999994 86 86 86 255
0.10099999 0.052999992 0.042835575 -1 -0 -0 86 86 86 255
0.10099999 -0.052999992 -0.040835574 -1 -0 -0 86 86 86 255
0.10099999 -0.052999992 0.042835575 -1 -0 -0 86 86 86 255
0.10099999 0.052999992 -0.040835574 -1 -0 -0 86 86 86 255
0.041835576 -0.052999992 0.102 -0.70710677 -2.9993625E-16 -0.70710677 86 86 86 255
0.10099999 0.052999992 0.042835575 -0.70710677 -2.9993625E-16 -0.70710677 86 86 86 255
0.10099999 -0.052999992 0.042835575 -0.70710677 -2.9993625E-16 -0.70710677 86 86 86 255
0.041835576 0.052999992 0.102 -0.70710677 -2.9993625E-16 -0.70710677 86 86 86 255
-0.041835576 -0.052999992 0.102 0 -4.1633358E-16 -1 86 86 86 255
0.041835576 0.052999992 0.102 0 -4.1633358E-16 -1 86 86 86 255
0.041835576 -0.052999992 0.102 0 -4.1633358E-16 -1 86 86 86 255
-0.041835576 0.052999992 0.102 0 -4.1633358E-16 -1 86 86 86 255
-0.10099999 0.052999992 0.042835575 0.70710677 -2.1666948E-16 -0.70710677 86 86 86 255
-0.041835576 -0.052999992 0.102 0.70710677 -2.1666948E-16 -0.70710677 86 86 86 255
-0.10099999 -0.052999992 0.042835575 0.70710677 -2.1666948E-16 -0.70710677 86 86 86 255
-0.041835576 0.052999992 0.102 0.70710677 -2.1666948E-16 -0.70710677 86 86 86 255
-0.10099999 0.052999992 -0.040835574 1 -0 -0 86 86 86 255
-0.10099999 -0.052999992 0.042835575 1 -0 -0 86 86 86 255
-0.10099999 -0.052999992 -0.040835574 1 -0 -0 86 86 86 255
-0.10099999 0.052999992 0.042835575 1 -0 -0 86 86 86 255
-0.041835576 0.052999992 -0.099999994 0.70710677 2.9993625E-16 0.70710677 86 86 86 255
-0.10099999 -0.052999992 -0.040835574 0.70710677 2.9993625E-16 0.70710677 86 86 86 255
-0.041835576 -0.052999992 -0.099999994 0.70710677 2.9993625E-16 0.70710677 86 86 86 255
-0.10099999 0.052999992 -0.040835574 0.70710677 2.9993625E-16 0.70710677 86 86 86 255
-0.041835576 0.052999992 -0.099999994 0 4.1633358E-16 1 86 86 86 255
0.041835576 -0.052999992 -0.099999994 0 4.1633358E-16 1 86 86 86 255
0.041835576 0.052999992 -0.099999994 0 4.1633358E-16 1 86 86 86 255
-0.041835576 -0.052999992 -0.099999994 0 4.1633358E-16 1 86 86 86 255
0.10099999 0.052999992 -0.040835574 -0.70710677 1.0564719E-16 0.70710677 86 86 86 255
0.041835576 -0.052999992 -0.099999994 -0.70710677 1.0564719E-16 0.70710677 86 86 86 255
0.10099999 -0.052999992 -0.040835574 -0.70710677 1.0564719E-16 0.70710677 86 86 86 255
0.041835576 0.052999992 -0.099999994 -0.70710677 1.0564719E-16 0.70710677 86 86 86 255
0.09600001 -0.058000006 -0.038764484 -0.70710677 0.70710677 -2.9993625E-16 86 86 86 255
0.10099999 -0.052999992 0.042835575 -0.70710677 0.70710677 -2.9993625E-16 86 86 86 255
0.10099999 -0.052999992 -0.040835574 -0.70710677 0.70710677 -2.9993625E-16 86 86 86 255
0.09600001 -0.058000006 0.04076451 -0.70710677 0.70710677 -2.9993625E-16 86 86 86 255
0.03976451 -0.058000006 0.097 -0.49999994 0.70710677 -0.49999994 86 86 86 255
0.10099999 -0.052999992 0.042835575 -0.49999994 0.70710677 -0.49999994 86 86 86 255
0.09600001 -0.058000006 0.04076451 -0.49999994 0.70710677 -0.49999994 86 86 86 255
0.041835576 -0.052999992 0.102 -0.49999994 0.70710677 -0.49999994 86 86 86 255
0.03976451 -0.058000006 0.097 -2.552236E-32 0.70710677 -0.70710677 86 86 86 255
-0.041835576 -0.052999992 0.102 -2.552236E-32 0.70710677 -0.70710677 86 86 86 255
0.041835576 -0.052999992 0.102 -2.552236E-32 0.70710677 -0.70710677 86 86 86 255
-0.03976451 -0.058000006 0.097 -2.552236E-32 0.70710677 -0.70710677 86 86 86 255
-0.10099999 -0.052999992 0.042835575 0.49999994 0.70710677 -0.49999994 86 86 86 255
-0.03976451 -0.058000006 0.097 0.49999994 0.70710677 -0.49999994 86 86 86 255
-0.09600001 -0.058000006 0.04076451 0.49999994 0.70710677 -0.49999994 86 86 86 255
-0.041835576 -0.052999992 0.102 0.49999994 0.70710677 -0.49999994 86 86 86 255
-0.10099999 -0.052999992 0.042835575 0.70710677 0.70710677 -2.9993625E-16 86 86 86 255
-0.09600001 -0.058000006 -0.038764484 0.70710677 0.70710677 -2.9993625E-16 86 86 86 255
-0.10099999 -0.052999992 -0.040835574 0.70710677 0.70710677 -2.9993625E-16 86 86 86 255
-0.09600001 -0.058000006 0.04076451 0.70710677 0.70710677 -2.9993625E-16 86 86 86 255
-0.10099999 -0.052999992 -0.040835574 0.49999994 0.70710677 0.49999994 86 86 86 255
-0.03976451 -0.058000006 -0.094999984 0.49999994 0.70710677 0.49999994 86 86 86 255
-0.041835576 -0.052999992 -0.099999994 0.49999994 0.70710677 0.49999994 86 86 86 255
-0.09600001 -0.058000006 -0.038764484 0.49999994 0.70710677 0.49999994 86 86 86 255
-0.041835576 -0.052999992 -0.099999994 2.552236E-32 0.70710677 0.70710677 86 86 86 255
0.03976451 -0.058000006 -0.094999984 2.552236E-32 0.70710677 0.70710677 86 86 86 255
0.041835576 -0.052999992 -0.099999994 2.552236E-32 0.70710677 0.70710677 86 86 86 255
-0.03976451 -0.058000006 -0.094999984 2.552236E-32 0.70710677 0.70710677 86 86 86 255
0.03976451 -0.058000006 -0.094999984 -0.49999994 0.70710677 0.49999994 86 86 86 255
0.10099999 -0.052999992 -0.040835574 -0.49999994 0.70710677 0.49999994 86 86 86 255
0.041835576 -0.052999992 -0.099999994 -0.49999994 0.70710677 0.49999994 86 86 86 255
0.09600001 -0.058000006 -0.038764484 -0.49999994 0.70710677 0.49999994 86 86 86 255
-0.09600001 -0.058000006 -0.038764484 0 1 -4.1633358E-16 86 86 86 255
0.03976451 -0.058000006 -0.094999984 0 1 -4.1633358E-16 86 86 86 255
-0.03976451 -0.058000006 -0.094999984 0 1 -4.1633358E-16 86 86 86 255
0.09600001 -0.058000006 -0.038764484 0 1 -4.1633358E-16 86 86 86 255
-0.09600001 -0.058000006 0.04076451 0 1 -4.1633358E-16 86 86 86 255
0.09600001 -0.058000006 0.04076451 0 1 -4.1633358E-16 86 86 86 255
-0.03976451 -0.058000006 0.097 0 1 -4.1633358E-16 86 86 86 255
0.03976451 -0.058000006 0.097 0 1 -4.1633358E-16 86 86 86 255
3 0 1 2
3 1 0 3
3 3 0 4
3 3 4 5
3 5 4 6
3 5 6 7
3 8 9 10
3 9 8 11
3 12 13 14
3 13 12 15
3 16 17 18
3 17 16 19
3 20 21 22
3 21 20 23
3 24 25 26
3 25 24 27
3 28 29 30
3 29 28 31
3 32 33 34
3 33 32 35
3 36 37 38
3 37 36 39
3 40 41 42
3 41 40 43
3 44 45 46
3 45 44 47
3 48 49 50
3 49 48 51
3 52 53 54
3 53 52 55
3 56 57 58
3 57 56 59
3 60 61 62
3 61 60 63
3 64 65 66
3 65 64 67
3 68 69 70
3 69 68 71
3 72 73 74
3 73 72 75
3 76 77 78
3 77 76 79
3 80 81 82
3 81 80 83
3 84 85 86
3 85 84 87
3 88 89 90
3 89 88 91
3 92 93 94
3 93 92 95
3 96 97 98
3 97 96 99
3 100 101 102
3 101 100 103
3 104 105 106
3 105 104 107
3 107 104 108
3 107 108 109
3 109 108 110
3 109 110 111

