ply
format ascii 1.0
commentY29udmVydGVyIGJ5IENvZGVMZW9wYXJk
comment Original mesh name: 'C:\Program Files (x86)\Steam\steamapps\common\Stormworks\rom\meshes\trees\fir_tree_snow_lod_1.mesh'
comment SubMesh index: 0
comment SubMesh name: 'ID45'
comment Shader: Opaque (0)
element vertex 416
property float x
property float y
property float z
property float nx
property float ny
property float nz
property uchar red
property uchar green
property uchar blue
property uchar alpha
element face 142
property list uchar ushort vertex_index
end_header
-1.5533453 0.8755712 5.55945 0.9451142 -0.08011159 -0.316767 173 173 173 255
-1.4756571 -4.800107E-06 6.01268 0.9451142 -0.08011159 -0.316767 173 173 173 255
-1.9525789 -2.625966E-06 4.5897236 0.9451142 -0.08011159 -0.316767 173 173 173 255
-1.9525789 -2.625966E-06 4.5897236 0.9451142 0.08011242 -0.3167667 173 173 173 255
-1.4756571 -4.800107E-06 6.01268 0.9451142 0.08011242 -0.3167667 173 173 173 255
-1.5533453 -0.8755785 5.55945 0.9451142 0.08011242 -0.3167667 173 173 173 255
-1.5533453 0.8755712 5.55945 0.9315713 -0.09849616 -0.349962 173 173 173 255
-1.034792 0.57618344 7.0240626 0.9315713 -0.09849616 -0.349962 173 173 173 255
-1.4756571 -4.800107E-06 6.01268 0.9315713 -0.09849616 -0.349962 173 173 173 255
-1.4756571 -4.800107E-06 6.01268 0.93157136 0.09849697 -0.34996158 173 173 173 255
-1.034792 -0.5761931 7.0240626 0.93157136 0.09849697 -0.34996158 173 173 173 255
-1.5533453 -0.8755785 5.55945 0.93157136 0.09849697 -0.34996158 173 173 173 255
-1.034792 0.57618344 7.0240626 0.5510838 -0.7575178 -0.3499619 173 173 173 255
-1.5533453 0.8755712 5.55945 0.5510838 -0.7575178 -0.3499619 173 173 173 255
-0.75623137 1.2460766 6.012677 0.5510838 -0.7575178 -0.3499619 173 173 173 255
-1.034792 -0.5761931 7.0240626 0.5510849 0.7575176 -0.3499607 173 173 173 255
-0.75623137 -1.246084 6.01268 0.5510849 0.7575176 -0.3499607 173 173 173 255
-1.5533453 -0.8755785 5.55945 0.5510849 0.7575176 -0.3499607 173 173 173 255
-0.75623137 1.2460766 6.012677 0.541934 -0.778438 -0.3167678 173 173 173 255
-1.5533453 0.8755712 5.55945 0.541934 -0.778438 -0.3167678 173 173 173 255
-0.9946921 1.659104 4.5897236 0.541934 -0.778438 -0.3167678 173 173 173 255
-0.75623137 -1.246084 6.01268 0.5419349 0.778438 -0.3167663 173 173 173 255
-0.9946921 -1.6591091 4.5897236 0.5419349 0.778438 -0.3167663 173 173 173 255
-1.5533453 -0.8755785 5.55945 0.5419349 0.778438 -0.3167663 173 173 173 255
-0.75623137 1.2460766 6.012677 0.4031793 -0.858548 -0.3167678 173 173 173 255
-0.9946921 1.659104 4.5897236 0.4031793 -0.858548 -0.3167678 173 173 173 255
-0.036805462 1.751145 5.55945 0.4031793 -0.858548 -0.3167678 173 173 173 255
-0.75623137 -1.246084 6.01268 0.40317976 0.85854834 -0.31676623 173 173 173 255
-0.036805462 -1.7511523 5.5594525 0.40317976 0.85854834 -0.31676623 173 173 173 255
-0.9946921 -1.6591091 4.5897236 0.40317976 0.85854834 -0.31676623 173 173 173 255
-0.036805462 1.1523696 7.0240626 0.38048664 -0.85601175 -0.34996244 173 173 173 255
-0.75623137 1.2460766 6.012677 0.38048664 -0.85601175 -0.34996244 173 173 173 255
-0.036805462 1.751145 5.55945 0.38048664 -0.85601175 -0.34996244 173 173 173 255
-0.036805462 -1.152379 7.0240626 0.38048664 0.8560121 -0.34996146 173 173 173 255
-0.036805462 -1.7511523 5.5594525 0.38048664 0.8560121 -0.34996146 173 173 173 255
-0.75623137 -1.246084 6.01268 0.38048664 0.8560121 -0.34996146 173 173 173 255
-0.036805462 1.1523696 7.0240626 -0.38048664 -0.85601175 -0.34996244 173 173 173 255
-0.036805462 1.751145 5.55945 -0.38048664 -0.85601175 -0.34996244 173 173 173 255
0.6826204 1.2460766 6.012677 -0.38048664 -0.85601175 -0.34996244 173 173 173 255
-0.036805462 -1.152379 7.0240626 -0.38048664 0.8560121 -0.34996146 173 173 173 255
0.6826204 -1.246084 6.01268 -0.38048664 0.8560121 -0.34996146 173 173 173 255
-0.036805462 -1.7511523 5.5594525 -0.38048664 0.8560121 -0.34996146 173 173 173 255
0.6826204 1.2460766 6.012677 -0.4031797 -0.858548 -0.3167673 173 173 173 255
-0.036805462 1.751145 5.55945 -0.4031797 -0.858548 -0.3167673 173 173 173 255
0.92107904 1.659104 4.5897236 -0.4031797 -0.858548 -0.3167673 173 173 173 255
0.6826204 -1.246084 6.01268 -0.4031801 0.8585484 -0.3167657 173 173 173 255
0.92107904 -1.6591091 4.5897236 -0.4031801 0.8585484 -0.3167657 173 173 173 255
-0.036805462 -1.7511523 5.5594525 -0.4031801 0.8585484 -0.3167657 173 173 173 255
0.6826204 1.2460766 6.012677 -0.5419349 -0.7784377 -0.316767 173 173 173 255
0.92107904 1.659104 4.5897236 -0.5419349 -0.7784377 -0.316767 173 173 173 255
1.4797323 0.8755712 5.55945 -0.5419349 -0.7784377 -0.316767 173 173 173 255
0.6826204 -1.246084 6.01268 -0.5419352 0.7784381 -0.3167655 173 173 173 255
1.4797323 -0.8755785 5.5594525 -0.5419352 0.7784381 -0.3167655 173 173 173 255
0.92107904 -1.6591091 4.5897236 -0.5419352 0.7784381 -0.3167655 173 173 173 255
0.96118116 0.57618344 7.0240626 -0.5510848 -0.7575174 -0.3499614 173 173 173 255
0.6826204 1.2460766 6.012677 -0.5510848 -0.7575174 -0.3499614 173 173 173 255
1.4797323 0.8755712 5.55945 -0.5510848 -0.7575174 -0.3499614 173 173 173 255
0.96118116 -0.5761931 7.0240626 -0.5510853 0.7575174 -0.3499605 173 173 173 255
1.4797323 -0.8755785 5.5594525 -0.5510853 0.7575174 -0.3499605 173 173 173 255
0.6826204 -1.246084 6.01268 -0.5510853 0.7575174 -0.3499605 173 173 173 255
1.4797323 0.8755712 5.55945 -0.9315715 -0.09849801 -0.3499611 173 173 173 255
1.4020462 -4.800107E-06 6.01268 -0.9315715 -0.09849801 -0.3499611 173 173 173 255
0.96118116 0.57618344 7.0240626 -0.9315715 -0.09849801 -0.3499611 173 173 173 255
1.4020462 -4.800107E-06 6.01268 -0.9315715 0.09849818 -0.349961 173 173 173 255
1.4797323 -0.8755785 5.5594525 -0.9315715 0.09849818 -0.349961 173 173 173 255
0.96118116 -0.5761931 7.0240626 -0.9315715 0.09849818 -0.349961 173 173 173 255
1.4797323 0.8755712 5.55945 -0.9451145 -0.08011326 -0.3167656 173 173 173 255
1.8789656 -2.625966E-06 4.5897236 -0.9451145 -0.08011326 -0.3167656 173 173 173 255
1.4020462 -4.800107E-06 6.01268 -0.9451145 -0.08011326 -0.3167656 173 173 173 255
1.8789656 -2.625966E-06 4.5897236 -0.94511455 0.08011329 -0.31676537 173 173 173 255
1.4797323 -0.8755785 5.5594525 -0.94511455 0.08011329 -0.31676537 173 173 173 255
1.4020462 -4.800107E-06 6.01268 -0.94511455 0.08011329 -0.31676537 173 173 173 255
-3.4573689 1.9748615 1.3634307 0.2303659 0.6040758 0.762905 14 39 3 255
-2.5968983 -4.7365813E-07 2.66732 0.2303659 0.6040758 0.762905 14 39 3 255
-0.036807697 -5.0744876E-07 1.8942776 0.2303659 0.6040758 0.762905 14 39 3 255
-3.4573689 1.9748615 1.3634307 -0.4079622 -0.5015411 0.7629045 14 39 3 255
-0.036807697 -5.0744876E-07 1.8942776 -0.4079622 -0.5015411 0.7629045 14 39 3 255
-1.3168525 2.2170997 2.66732 -0.4079622 -0.5015411 0.7629045 14 39 3 255
-3.4573667 -1.9748648 1.363431 0.230366 -0.6040751 0.7629055 14 39 3 255
-0.036807697 -5.0744876E-07 1.8942776 0.230366 -0.6040751 0.7629055 14 39 3 255
-2.5968983 -4.7365813E-07 2.66732 0.230366 -0.6040751 0.7629055 14 39 3 255
-1.3168525 2.2170997 2.66732 0.63832784 0.102535315 0.76290506 14 39 3 255
-0.036807697 -5.0744876E-07 1.8942776 0.63832784 0.102535315 0.76290506 14 39 3 255
-0.036807697 3.9497201 1.3634307 0.63832784 0.102535315 0.76290506 14 39 3 255
-3.4573667 -1.9748648 1.363431 -0.4079625 0.5015405 0.7629048 14 39 3 255
-1.3168503 -2.2171028 2.66732 -0.4079625 0.5015405 0.7629048 14 39 3 255
-0.036807697 -5.0744876E-07 1.8942776 -0.4079625 0.5015405 0.7629048 14 39 3 255
-0.036807697 -5.0744876E-07 1.8942776 -0.63832784 0.102535315 0.76290506 14 39 3 255
1.2432373 2.2170997 2.66732 -0.63832784 0.102535315 0.76290506 14 39 3 255
-0.036807697 3.9497201 1.3634307 -0.63832784 0.102535315 0.76290506 14 39 3 255
-1.3168503 -2.2171028 2.66732 0.63832814 -0.10253471 0.762905 14 39 3 255
-0.036805462 -3.9497275 1.363431 0.63832814 -0.10253471 0.762905 14 39 3 255
-0.036807697 -5.0744876E-07 1.8942776 0.63832814 -0.10253471 0.762905 14 39 3 255
-0.036807697 -5.0744876E-07 1.8942776 0.4079622 -0.5015411 0.7629045 14 39 3 255
3.383755 1.9748615 1.3634307 0.4079622 -0.5015411 0.7629045 14 39 3 255
1.2432373 2.2170997 2.66732 0.4079622 -0.5015411 0.7629045 14 39 3 255
-0.036807697 -5.0744876E-07 1.8942776 -0.6383282 -0.1025354 0.7629047 14 39 3 255
-0.036805462 -3.9497275 1.363431 -0.6383282 -0.1025354 0.7629047 14 39 3 255
1.2432373 -2.2171028 2.66732 -0.6383282 -0.1025354 0.7629047 14 39 3 255
-0.036807697 -5.0744876E-07 1.8942776 -0.2303659 0.6040758 0.762905 14 39 3 255
2.5232818 -4.7365813E-07 2.66732 -0.2303659 0.6040758 0.762905 14 39 3 255
3.383755 1.9748615 1.3634307 -0.2303659 0.6040758 0.762905 14 39 3 255
-0.036807697 -5.0744876E-07 1.8942776 0.407962 0.5015407 0.7629049 14 39 3 255
1.2432373 -2.2171028 2.66732 0.407962 0.5015407 0.7629049 14 39 3 255
3.383755 -1.9748626 1.363431 0.407962 0.5015407 0.7629049 14 39 3 255
-0.036807697 -5.0744876E-07 1.8942776 -0.2303659 -0.6040757 0.762905 14 39 3 255
3.383755 -1.9748626 1.363431 -0.2303659 -0.6040757 0.762905 14 39 3 255
2.5232818 -4.7365813E-07 2.66732 -0.2303659 -0.6040757 0.762905 14 39 3 255
-1.8783615 1.06322 4.641469 0.9469445 -0.05065476 -0.3173802 14 39 3 255
-1.9525789 -2.625966E-06 4.5897236 0.9469445 -0.05065476 -0.3173802 14 39 3 255
-2.2515013 -2.6649527E-06 3.6978512 0.9469445 -0.05065476 -0.3173802 14 39 3 255
-1.8783615 1.06322 4.641469 0.938352 -0.048846453 -0.34221256 14 39 3 255
-1.5533453 0.8755712 5.55945 0.938352 -0.048846453 -0.34221256 14 39 3 255
-1.9525789 -2.625966E-06 4.5897236 0.938352 -0.048846453 -0.34221256 14 39 3 255
-1.9525789 -2.625966E-06 4.5897236 0.9469445 0.05065463 -0.3173802 14 39 3 255
-1.8783615 -1.0632277 4.641469 0.9469445 0.05065463 -0.3173802 14 39 3 255
-2.2515013 -2.6649527E-06 3.6978512 0.9469445 0.05065463 -0.3173802 14 39 3 255
-1.5533453 0.8755712 5.55945 0.5114771 -0.7882141 -0.3422129 14 39 3 255
-1.8783615 1.06322 4.641469 0.5114771 -0.7882141 -0.3422129 14 39 3 255
-0.9946921 1.659104 4.5897236 0.5114771 -0.7882141 -0.3422129 14 39 3 255
-1.9525789 -2.625966E-06 4.5897236 0.9383518 0.04884628 -0.3422132 14 39 3 255
-1.5533453 -0.8755785 5.55945 0.9383518 0.04884628 -0.3422132 14 39 3 255
-1.8783615 -1.0632277 4.641469 0.9383518 0.04884628 -0.3422132 14 39 3 255
-1.8783615 1.06322 4.641469 0.5173395 -0.7947514 -0.3173799 14 39 3 255
-1.1441534 1.917978 3.6978512 0.5173395 -0.7947514 -0.3173799 14 39 3 255
-0.9946921 1.659104 4.5897236 0.5173395 -0.7947514 -0.3173799 14 39 3 255
-1.5533453 -0.8755785 5.55945 0.5114756 0.7882149 -0.3422134 14 39 3 255
-0.9946921 -1.6591091 4.5897236 0.5114756 0.7882149 -0.3422134 14 39 3 255
-1.8783615 -1.0632277 4.641469 0.5114756 0.7882149 -0.3422134 14 39 3 255
-0.036805462 2.1264405 4.641469 0.4296036 -0.8454057 -0.3173799 14 39 3 255
-0.9946921 1.659104 4.5897236 0.4296036 -0.8454057 -0.3173799 14 39 3 255
-1.1441534 1.917978 3.6978512 0.4296036 -0.8454057 -0.3173799 14 39 3 255
-1.8783615 -1.0632277 4.641469 0.5173383 0.7947526 -0.3173789 14 39 3 255
-0.9946921 -1.6591091 4.5897236 0.5173383 0.7947526 -0.3173789 14 39 3 255
-1.1441513 -1.9179834 3.6978512 0.5173383 0.7947526 -0.3173789 14 39 3 255
-0.036805462 1.751145 5.55945 0.42687345 -0.83706033 -0.34221214 14 39 3 255
-0.9946921 1.659104 4.5897236 0.42687345 -0.83706033 -0.34221214 14 39 3 255
-0.036805462 2.1264405 4.641469 0.42687345 -0.83706033 -0.34221214 14 39 3 255
-0.036805462 -2.1264482 4.641469 0.4296059 0.8454048 -0.317379 14 39 3 255
-1.1441513 -1.9179834 3.6978512 0.4296059 0.8454048 -0.317379 14 39 3 255
-0.9946921 -1.6591091 4.5897236 0.4296059 0.8454048 -0.317379 14 39 3 255
-0.036805462 1.751145 5.55945 -0.4268743 -0.8370599 -0.342212 14 39 3 255
-0.036805462 2.1264405 4.641469 -0.4268743 -0.8370599 -0.342212 14 39 3 255
0.92107904 1.659104 4.5897236 -0.4268743 -0.8370599 -0.342212 14 39 3 255
-0.036805462 -1.7511523 5.5594525 0.4268756 0.837059 -0.3422125 14 39 3 255
-0.036805462 -2.1264482 4.641469 0.4268756 0.837059 -0.3422125 14 39 3 255
-0.9946921 -1.6591091 4.5897236 0.4268756 0.837059 -0.3422125 14 39 3 255
-0.036805462 2.1264405 4.641469 -0.4296044 -0.8454053 -0.3173799 14 39 3 255
1.0705403 1.917978 3.6978512 -0.4296044 -0.8454053 -0.3173799 14 39 3 255
0.92107904 1.659104 4.5897236 -0.4296044 -0.8454053 -0.3173799 14 39 3 255
-0.036805462 -1.7511523 5.5594525 -0.4268764 0.8370587 -0.3422123 14 39 3 255
0.92107904 -1.6591091 4.5897236 -0.4268764 0.8370587 -0.3422123 14 39 3 255
-0.036805462 -2.1264482 4.641469 -0.4268764 0.8370587 -0.3422123 14 39 3 255
1.8047484 1.06322 4.641469 -0.5173389 -0.7947518 -0.31738 14 39 3 255
0.92107904 1.659104 4.5897236 -0.5173389 -0.7947518 -0.31738 14 39 3 255
1.0705403 1.917978 3.6978512 -0.5173389 -0.7947518 -0.31738 14 39 3 255
-0.036805462 -2.1264482 4.641469 -0.4296066 0.8454041 -0.31738 14 39 3 255
0.92107904 -1.6591091 4.5897236 -0.4296066 0.8454041 -0.31738 14 39 3 255
1.0705403 -1.9179834 3.6978512 -0.4296066 0.8454041 -0.31738 14 39 3 255
1.4797323 0.8755712 5.55945 -0.5114763 -0.7882144 -0.3422135 14 39 3 255
0.92107904 1.659104 4.5897236 -0.5114763 -0.7882144 -0.3422135 14 39 3 255
1.8047484 1.06322 4.641469 -0.5114763 -0.7882144 -0.3422135 14 39 3 255
1.8047484 -1.0632253 4.641469 -0.5173389 0.7947518 -0.31738 14 39 3 255
1.0705403 -1.9179834 3.6978512 -0.5173389 0.7947518 -0.31738 14 39 3 255
0.92107904 -1.6591091 4.5897236 -0.5173389 0.7947518 -0.31738 14 39 3 255
1.8047484 1.06322 4.641469 -0.93835187 -0.048845712 -0.34221303 14 39 3 255
1.8789656 -2.625966E-06 4.5897236 -0.93835187 -0.048845712 -0.34221303 14 39 3 255
1.4797323 0.8755712 5.55945 -0.93835187 -0.048845712 -0.34221303 14 39 3 255
1.4797323 -0.8755785 5.5594525 -0.51147676 0.7882147 -0.34221187 14 39 3 255
1.8047484 -1.0632253 4.641469 -0.51147676 0.7882147 -0.34221187 14 39 3 255
0.92107904 -1.6591091 4.5897236 -0.51147676 0.7882147 -0.34221187 14 39 3 255
1.8047484 1.06322 4.641469 -0.9469452 -0.05065427 -0.3173781 14 39 3 255
2.177886 -2.6649527E-06 3.6978512 -0.9469452 -0.05065427 -0.3173781 14 39 3 255
1.8789656 -2.625966E-06 4.5897236 -0.9469452 -0.05065427 -0.3173781 14 39 3 255
1.8789656 -2.625966E-06 4.5897236 -0.9383519 0.0488457 -0.342213 14 39 3 255
1.8047484 -1.0632253 4.641469 -0.9383519 0.0488457 -0.342213 14 39 3 255
1.4797323 -0.8755785 5.5594525 -0.9383519 0.0488457 -0.342213 14 39 3 255
1.8789656 -2.625966E-06 4.5897236 -0.9469452 0.05065424 -0.3173781 14 39 3 255
2.177886 -2.6649527E-06 3.6978512 -0.9469452 0.05065424 -0.3173781 14 39 3 255
1.8047484 -1.0632253 4.641469 -0.9469452 0.05065424 -0.3173781 14 39 3 255
-1.034792 0.57618344 7.0240626 0.9258007 -0.05088375 -0.3745716 14 39 3 255
-0.036807697 -1.7197776E-07 9.568977 0.9258007 -0.05088375 -0.3745716 14 39 3 255
-1.4756571 -4.800107E-06 6.01268 0.9258007 -0.05088375 -0.3745716 14 39 3 255
-0.036807697 -1.7197776E-07 9.568977 0.5069662 -0.776326 -0.3745707 14 39 3 255
-1.034792 0.57618344 7.0240626 0.5069662 -0.776326 -0.3745707 14 39 3 255
-0.75623137 1.2460766 6.012677 0.5069662 -0.776326 -0.3745707 14 39 3 255
-0.036807697 -1.7197776E-07 9.568977 0.9258007 0.05088349 -0.3745717 14 39 3 255
-1.034792 -0.5761931 7.0240626 0.9258007 0.05088349 -0.3745717 14 39 3 255
-1.4756571 -4.800107E-06 6.01268 0.9258007 0.05088349 -0.3745717 14 39 3 255
-0.036807697 -1.7197776E-07 9.568977 0.41883287 -0.8272096 -0.37457067 14 39 3 255
-0.75623137 1.2460766 6.012677 0.41883287 -0.8272096 -0.37457067 14 39 3 255
-0.036805462 1.1523696 7.0240626 0.41883287 -0.8272096 -0.37457067 14 39 3 255
-0.036807697 -1.7197776E-07 9.568977 0.506962 0.7763279 -0.3745724 14 39 3 255
-0.75623137 -1.246084 6.01268 0.506962 0.7763279 -0.3745724 14 39 3 255
-1.034792 -0.5761931 7.0240626 0.506962 0.7763279 -0.3745724 14 39 3 255
-0.036807697 -1.7197776E-07 9.568977 -0.4188336 -0.8272091 -0.3745711 14 39 3 255
-0.036805462 1.1523696 7.0240626 -0.4188336 -0.8272091 -0.3745711 14 39 3 255
0.6826204 1.2460766 6.012677 -0.4188336 -0.8272091 -0.3745711 14 39 3 255
-0.036807697 -1.7197776E-07 9.568977 0.418837 0.8272068 -0.3745724 14 39 3 255
-0.036805462 -1.152379 7.0240626 0.418837 0.8272068 -0.3745724 14 39 3 255
-0.75623137 -1.246084 6.01268 0.418837 0.8272068 -0.3745724 14 39 3 255
-0.036807697 -1.7197776E-07 9.568977 -0.5069651 -0.7763264 -0.3745713 14 39 3 255
0.6826204 1.2460766 6.012677 -0.5069651 -0.7763264 -0.3745713 14 39 3 255
0.96118116 0.57618344 7.0240626 -0.5069651 -0.7763264 -0.3745713 14 39 3 255
-0.036807697 -1.7197776E-07 9.568977 -0.4188377 0.8272062 -0.3745729 14 39 3 255
0.6826204 -1.246084 6.01268 -0.4188377 0.8272062 -0.3745729 14 39 3 255
-0.036805462 -1.152379 7.0240626 -0.4188377 0.8272062 -0.3745729 14 39 3 255
0.96118116 0.57618344 7.0240626 -0.9258004 -0.05088169 -0.3745727 14 39 3 255
1.4020462 -4.800107E-06 6.01268 -0.9258004 -0.05088169 -0.3745727 14 39 3 255
-0.036807697 -1.7197776E-07 9.568977 -0.9258004 -0.05088169 -0.3745727 14 39 3 255
-0.036807697 -1.7197776E-07 9.568977 -0.5069609 0.7763284 -0.3745729 14 39 3 255
0.96118116 -0.5761931 7.0240626 -0.5069609 0.7763284 -0.3745729 14 39 3 255
0.6826204 -1.246084 6.01268 -0.5069609 0.7763284 -0.3745729 14 39 3 255
-0.036807697 -1.7197776E-07 9.568977 -0.9258003 0.050881423 -0.37457278 14 39 3 255
1.4020462 -4.800107E-06 6.01268 -0.9258003 0.050881423 -0.37457278 14 39 3 255
0.96118116 -0.5761931 7.0240626 -0.9258003 0.050881423 -0.37457278 14 39 3 255
-0.21549568 0.03184487 -0.102457196 0.8081139 -0.5871285 -0.04724542 42 11 3 255
-0.041445863 0.08993387 2.1527116 0.8081139 -0.5871285 -0.04724542 42 11 3 255
-0.15015881 -0.059697334 2.1527116 0.8081139 -0.5871285 -0.04724542 42 11 3 255
-0.06163553 0.24361502 -0.102457196 0.8081139 -0.5871285 -0.04724542 42 11 3 255
-0.06163553 -0.17992748 -0.102457196 0.8090178 0.587784 0.000420078 42 11 3 255
-0.15015881 -0.059697334 2.1527116 0.8090178 0.587784 0.000420078 42 11 3 255
-0.041445863 -0.20932633 2.1527116 0.8090178 0.587784 0.000420078 42 11 3 255
-0.21549568 0.03184487 -0.102457196 0.8090178 0.587784 0.000420078 42 11 3 255
0.18731822 0.16272664 -0.102457196 -0.3084183 -0.949233 -0.06192544 42 11 3 255
-0.041445863 0.08993387 2.1527116 -0.3084183 -0.949233 -0.06192544 42 11 3 255
-0.06163553 0.24361502 -0.102457196 -0.3084183 -0.949233 -0.06192544 42 11 3 255
0.13446009 0.032779764 2.1527116 -0.3084183 -0.949233 -0.06192544 42 11 3 255
-0.06163553 -0.17992748 -0.102457196 -0.3089686 0.9509514 0.01516396 42 11 3 255
0.13446009 -0.15217668 2.1527116 -0.3089686 0.9509514 0.01516396 42 11 3 255
0.18731822 -0.099039115 -0.102457196 -0.3089686 0.9509514 0.01516396 42 11 3 255
-0.041445863 -0.20932633 2.1527116 -0.3089686 0.9509514 0.01516396 42 11 3 255
0.13446009 0.032779764 2.1527116 -0.99972546 -1.0242551E-09 -0.023432221 42 11 3 255
0.18731822 -0.099039115 -0.102457196 -0.99972546 -1.0242551E-09 -0.023432221 42 11 3 255
0.13446009 -0.15217668 2.1527116 -0.99972546 -1.0242551E-09 -0.023432221 42 11 3 255
0.18731822 0.16272664 -0.102457196 -0.99972546 -1.0242551E-09 -0.023432221 42 11 3 255
-2.2539074 1.280042 3.58077 0.36844707 -0.81116366 -0.45415875 173 173 173 255
-3.4573689 1.9748615 1.3634307 0.36844707 -0.81116366 -0.45415875 173 173 173 255
-1.3168525 2.2170997 2.66732 0.36844707 -0.81116366 -0.45415875 173 173 173 255
-1.1441534 1.917978 3.6978512 0.49752325 -0.80719006 -0.31767088 173 173 173 255
-2.2539074 1.280042 3.58077 0.49752325 -0.80719006 -0.31767088 173 173 173 255
-1.3168525 2.2170997 2.66732 0.49752325 -0.80719006 -0.31767088 173 173 173 255
-3.4573689 1.9748615 1.3634307 0.8867119 0.08649616 -0.454159 173 173 173 255
-2.2539074 1.280042 3.58077 0.8867119 0.08649616 -0.454159 173 173 173 255
-2.5968983 -4.7365813E-07 2.66732 0.8867119 0.08649616 -0.454159 173 173 173 255
-1.8783615 1.06322 4.641469 0.49549508 -0.7997628 -0.338916 173 173 173 255
-2.2539074 1.280042 3.58077 0.49549508 -0.7997628 -0.338916 173 173 173 255
-1.1441534 1.917978 3.6978512 0.49549508 -0.7997628 -0.338916 173 173 173 255
-1.1441534 1.917978 3.6978512 0.4502844 -0.8344635 -0.3176708 173 173 173 255
-1.3168525 2.2170997 2.66732 0.4502844 -0.8344635 -0.3176708 173 173 173 255
-0.036805462 2.5600839 3.58077 0.4502844 -0.8344635 -0.3176708 173 173 173 255
-2.2539074 1.280042 3.58077 0.9478088 -0.02727431 -0.3176705 173 173 173 255
-2.2515013 -2.6649527E-06 3.6978512 0.9478088 -0.02727431 -0.3176705 173 173 173 255
-2.5968983 -4.7365813E-07 2.66732 0.9478088 -0.02727431 -0.3176705 173 173 173 255
-2.2539074 1.280042 3.58077 0.9403623 -0.029231546 -0.33891606 173 173 173 255
-1.8783615 1.06322 4.641469 0.9403623 -0.029231546 -0.33891606 173 173 173 255
-2.2515013 -2.6649527E-06 3.6978512 0.9403623 -0.029231546 -0.33891606 173 173 173 255
-0.036805462 2.5600839 3.58077 0.5182637 -0.7246669 -0.4541592 173 173 173 255
-1.3168525 2.2170997 2.66732 0.5182637 -0.7246669 -0.4541592 173 173 173 255
-0.036807697 3.9497201 1.3634307 0.5182637 -0.7246669 -0.4541592 173 173 173 255
-0.036805462 2.1264405 4.641469 0.4448661 -0.8289933 -0.3389164 173 173 173 255
-1.1441534 1.917978 3.6978512 0.4448661 -0.8289933 -0.3389164 173 173 173 255
-0.036805462 2.5600839 3.58077 0.4448661 -0.8289933 -0.3389164 173 173 173 255
-2.5968983 -4.7365813E-07 2.66732 0.9478089 0.02727427 -0.3176704 173 173 173 255
-2.2515013 -2.6649527E-06 3.6978512 0.9478089 0.02727427 -0.3176704 173 173 173 255
-2.2539074 -1.2800474 3.58077 0.9478089 0.02727427 -0.3176704 173 173 173 255
-0.036805462 2.5600839 3.58077 -0.5182647 -0.7246669 -0.4541581 173 173 173 255
-0.036807697 3.9497201 1.3634307 -0.5182647 -0.7246669 -0.4541581 173 173 173 255
1.2432373 2.2170997 2.66732 -0.5182647 -0.7246669 -0.4541581 173 173 173 255
-0.036805462 2.1264405 4.641469 -0.4448668 -0.8289929 -0.3389163 173 173 173 255
-0.036805462 2.5600839 3.58077 -0.4448668 -0.8289929 -0.3389163 173 173 173 255
1.0705403 1.917978 3.6978512 -0.4448668 -0.8289929 -0.3389163 173 173 173 255
-2.2515013 -2.6649527E-06 3.6978512 0.9403624 0.02923152 -0.338916 173 173 173 255
-1.8783615 -1.0632277 4.641469 0.9403624 0.02923152 -0.338916 173 173 173 255
-2.2539074 -1.2800474 3.58077 0.9403624 0.02923152 -0.338916 173 173 173 255
-2.5968983 -4.7365813E-07 2.66732 0.8867122 -0.08649551 -0.4541585 173 173 173 255
-2.2539074 -1.2800474 3.58077 0.8867122 -0.08649551 -0.4541585 173 173 173 255
-3.4573667 -1.9748648 1.363431 0.8867122 -0.08649551 -0.4541585 173 173 173 255
1.0705403 1.917978 3.6978512 -0.4502853 -0.8344633 -0.3176699 173 173 173 255
-0.036805462 2.5600839 3.58077 -0.4502853 -0.8344633 -0.3176699 173 173 173 255
1.2432373 2.2170997 2.66732 -0.4502853 -0.8344633 -0.3176699 173 173 173 255
-1.8783615 -1.0632277 4.641469 0.49549457 0.7997638 -0.3389144 173 173 173 255
-1.1441513 -1.9179834 3.6978512 0.49549457 0.7997638 -0.3389144 173 173 173 255
-2.2539074 -1.2800474 3.58077 0.49549457 0.7997638 -0.3389144 173 173 173 255
-2.2539074 -1.2800474 3.58077 0.3684465 0.8111646 -0.4541577 173 173 173 255
-1.3168503 -2.2171028 2.66732 0.3684465 0.8111646 -0.4541577 173 173 173 255
-3.4573667 -1.9748648 1.363431 0.3684465 0.8111646 -0.4541577 173 173 173 255
1.0705403 1.917978 3.6978512 -0.4975241 -0.8071899 -0.3176699 173 173 173 255
1.2432373 2.2170997 2.66732 -0.4975241 -0.8071899 -0.3176699 173 173 173 255
2.1802924 1.280042 3.58077 -0.4975241 -0.8071899 -0.3176699 173 173 173 255
-1.1441513 -1.9179834 3.6978512 0.49752274 0.807191 -0.3176694 173 173 173 255
-1.3168503 -2.2171028 2.66732 0.49752274 0.807191 -0.3176694 173 173 173 255
-2.2539074 -1.2800474 3.58077 0.49752274 0.807191 -0.3176694 173 173 173 255
2.1802924 1.280042 3.58077 -0.36844707 -0.81116366 -0.45415875 173 173 173 255
1.2432373 2.2170997 2.66732 -0.36844707 -0.81116366 -0.45415875 173 173 173 255
3.383755 1.9748615 1.3634307 -0.36844707 -0.81116366 -0.45415875 173 173 173 255
1.8047484 1.06322 4.641469 -0.495496 -0.7997628 -0.3389146 173 173 173 255
1.0705403 1.917978 3.6978512 -0.495496 -0.7997628 -0.3389146 173 173 173 255
2.1802924 1.280042 3.58077 -0.495496 -0.7997628 -0.3389146 173 173 173 255
-1.1441513 -1.9179834 3.6978512 0.4502854 0.8344635 -0.3176693 173 173 173 255
-0.036805462 -2.5600913 3.58077 0.4502854 0.8344635 -0.3176693 173 173 173 255
-1.3168503 -2.2171028 2.66732 0.4502854 0.8344635 -0.3176693 173 173 173 255
3.383755 1.9748615 1.3634307 -0.8867119 0.08649616 -0.454159 173 173 173 255
2.5232818 -4.7365813E-07 2.66732 -0.8867119 0.08649616 -0.454159 173 173 173 255
2.1802924 1.280042 3.58077 -0.8867119 0.08649616 -0.454159 173 173 173 255
2.1802924 1.280042 3.58077 -0.9403633 -0.02923133 -0.3389137 173 173 173 255
2.177886 -2.6649527E-06 3.6978512 -0.9403633 -0.02923133 -0.3389137 173 173 173 255
1.8047484 1.06322 4.641469 -0.9403633 -0.02923133 -0.3389137 173 173 173 255
-0.036805462 -2.5600913 3.58077 0.5182652 0.7246664 -0.4541584 173 173 173 255
-0.036805462 -3.9497275 1.363431 0.5182652 0.7246664 -0.4541584 173 173 173 255
-1.3168503 -2.2171028 2.66732 0.5182652 0.7246664 -0.4541584 173 173 173 255
-0.036805462 -2.1264482 4.641469 0.44486734 0.8289934 -0.33891416 173 173 173 255
-0.036805462 -2.5600913 3.58077 0.44486734 0.8289934 -0.33891416 173 173 173 255
-1.1441513 -1.9179834 3.6978512 0.44486734 0.8289934 -0.33891416 173 173 173 255
2.1802924 1.280042 3.58077 -0.9478088 -0.02727431 -0.3176705 173 173 173 255
2.5232818 -4.7365813E-07 2.66732 -0.9478088 -0.02727431 -0.3176705 173 173 173 255
2.177886 -2.6649527E-06 3.6978512 -0.9478088 -0.02727431 -0.3176705 173 173 173 255
-0.036805462 -2.5600913 3.58077 -0.5182657 0.72466606 -0.45415816 173 173 173 255
1.2432373 -2.2171028 2.66732 -0.5182657 0.72466606 -0.45415816 173 173 173 255
-0.036805462 -3.9497275 1.363431 -0.5182657 0.72466606 -0.45415816 173 173 173 255
-0.036805462 -2.1264482 4.641469 -0.44486734 0.8289934 -0.33891416 173 173 173 255
1.0705403 -1.9179834 3.6978512 -0.44486734 0.8289934 -0.33891416 173 173 173 255
-0.036805462 -2.5600913 3.58077 -0.44486734 0.8289934 -0.33891416 173 173 173 255
2.5232818 -4.7365813E-07 2.66732 -0.9478089 0.02727432 -0.3176704 173 173 173 255
2.1802924 -1.2800452 3.58077 -0.9478089 0.02727432 -0.3176704 173 173 173 255
2.177886 -2.6649527E-06 3.6978512 -0.9478089 0.02727432 -0.3176704 173 173 173 255
1.0705403 -1.9179834 3.6978512 -0.45028564 0.8344636 -0.31766838 173 173 173 255
1.2432373 -2.2171028 2.66732 -0.45028564 0.8344636 -0.31766838 173 173 173 255
-0.036805462 -2.5600913 3.58077 -0.45028564 0.8344636 -0.31766838 173 173 173 255
2.5232818 -4.7365813E-07 2.66732 -0.8867119 -0.08649613 -0.454159 173 173 173 255
3.383755 -1.9748626 1.363431 -0.8867119 -0.08649613 -0.454159 173 173 173 255
2.1802924 -1.2800452 3.58077 -0.8867119 -0.08649613 -0.454159 173 173 173 255
2.177886 -2.6649527E-06 3.6978512 -0.9403633 0.02923135 -0.3389136 173 173 173 255
2.1802924 -1.2800452 3.58077 -0.9403633 0.02923135 -0.3389136 173 173 173 255
1.8047484 -1.0632253 4.641469 -0.9403633 0.02923135 -0.3389136 173 173 173 255
1.0705403 -1.9179834 3.6978512 -0.49752536 0.8071897 -0.3176684 173 173 173 255
2.1802924 -1.2800452 3.58077 -0.49752536 0.8071897 -0.3176684 173 173 173 255
1.2432373 -2.2171028 2.66732 -0.49752536 0.8071897 -0.3176684 173 173 173 255
2.1802924 -1.2800452 3.58077 -0.36844757 0.81116366 -0.45415834 173 173 173 255
3.383755 -1.9748626 1.363431 -0.36844757 0.81116366 -0.45415834 173 173 173 255
1.2432373 -2.2171028 2.66732 -0.36844757 0.81116366 -0.45415834 173 173 173 255
1.8047484 -1.0632253 4.641469 -0.49549726 0.7997625 -0.3389134 173 173 173 255
2.1802924 -1.2800452 3.58077 -0.49549726 0.7997625 -0.3389134 173 173 173 255
1.0705403 -1.9179834 3.6978512 -0.49549726 0.7997625 -0.3389134 173 173 173 255
0.5183903 0.5376984 8.511001 0.4763662 -0.7352869 0.4821083 173 173 173 255
-0.017174877 0.0021310004 8.223367 0.4763662 -0.7352869 0.4821083 173 173 173 255
1.2811632 0.35002035 7.471077 0.4763662 -0.7352869 0.4821083 173 173 173 255
0.71442115 -0.19389978 8.511001 0.04490031 0.8749607 0.4821075 173 173 173 255
1.2811632 0.35002035 7.471077 0.04490031 0.8749607 0.4821075 173 173 173 255
-0.017174877 0.0021310004 8.223367 0.04490031 0.8749607 0.4821075 173 173 173 255
0.5183903 0.5376984 8.511001 -0.805509 -0.2158351 -0.5518791 173 173 173 255
1.2811632 0.35002035 7.471077 -0.805509 -0.2158351 -0.5518791 173 173 173 255
0.71442115 -0.19389978 8.511001 -0.805509 -0.2158351 -0.5518791 173 173 173 255
0.33071 1.3004689 7.471077 -0.73528904 0.47636387 0.48210743 173 173 173 255
-0.017174877 0.0021310004 8.223367 -0.73528904 0.47636387 0.48210743 173 173 173 255
0.5183903 0.5376984 8.511001 -0.73528904 0.47636387 0.48210743 173 173 173 255
0.71442115 -0.19389978 8.511001 -0.3985959 -0.7801884 0.48210722 173 173 173 255
-0.017174877 0.0021310004 8.223367 -0.3985959 -0.7801884 0.48210722 173 173 173 255
0.93327165 -0.9483175 7.471077 -0.3985959 -0.7801884 0.48210722 173 173 173 255
0.5183903 0.5376984 8.511001 -0.9163298 -0.24552941 -0.3163147 173 173 173 255
0.71442115 -0.19389978 8.511001 -0.9163298 -0.24552941 -0.3163147 173 173 173 255
-0.017174877 0.0021310989 10.478193 -0.9163298 -0.24552941 -0.3163147 173 173 173 255
0.33071 1.3004689 7.471077 0.8749608 0.04490306 0.4821071 173 173 173 255
-0.21320792 0.73372924 8.511001 0.8749608 0.04490306 0.4821071 173 173 173 255
-0.017174877 0.0021310004 8.223367 0.8749608 0.04490306 0.4821071 173 173 173 255
0.5183903 0.5376984 8.511001 -0.2158353 -0.80551 -0.5518775 173 173 173 255
-0.21320792 0.73372924 8.511001 -0.2158353 -0.80551 -0.5518775 173 173 173 255
0.33071 1.3004689 7.471077 -0.2158353 -0.80551 -0.5518775 173 173 173 255
-0.017174877 0.0021310004 8.223367 0.7801895 0.3985947 0.48210642 173 173 173 255
0.17885593 -0.7294671 8.511001 0.7801895 0.3985947 0.48210642 173 173 173 255
0.93327165 -0.9483175 7.471077 0.7801895 0.3985947 0.48210642 173 173 173 255
0.71442115 -0.19389978 8.511001 -0.5896756 0.5896731 -0.5518771 173 173 173 255
0.93327165 -0.9483175 7.471077 -0.5896756 0.5896731 -0.5518771 173 173 173 255
0.17885593 -0.7294671 8.511001 -0.5896756 0.5896731 -0.5518771 173 173 173 255
-0.017174877 0.0021310989 10.478193 -0.6708012 0.6707984 -0.3163151 173 173 173 255
0.71442115 -0.19389978 8.511001 -0.6708012 0.6707984 -0.3163151 173 173 173 255
0.17885593 -0.7294671 8.511001 -0.6708012 0.6707984 -0.3163151 173 173 173 255
-0.017174877 0.0021310989 10.478193 -0.2455293 -0.9163296 -0.3163154 173 173 173 255
-0.21320792 0.73372924 8.511001 -0.2455293 -0.9163296 -0.3163154 173 173 173 255
0.5183903 0.5376984 8.511001 -0.2455293 -0.9163296 -0.3163154 173 173 173 255
-0.9676256 0.9525796 7.471077 -0.7801882 -0.3985968 0.4821068 173 173 173 255
-0.017174877 0.0021310004 8.223367 -0.7801882 -0.3985968 0.4821068 173 173 173 255
-0.21320792 0.73372924 8.511001 -0.7801882 -0.3985968 0.4821068 173 173 173 255
-0.017174877 0.0021310004 8.223367 -0.8749608 -0.04490021 0.4821075 173 173 173 255
-0.36506426 -1.2962071 7.471077 -0.8749608 -0.04490021 0.4821075 173 173 173 255
0.17885593 -0.7294671 8.511001 -0.8749608 -0.04490021 0.4821075 173 173 173 255
-0.017174877 0.0021310989 10.478193 0.2455319 0.916329 -0.3163152 173 173 173 255
0.17885593 -0.7294671 8.511001 0.2455319 0.916329 -0.3163152 173 173 173 255
-0.5527423 -0.5334343 8.511001 0.2455319 0.916329 -0.3163152 173 173 173 255
-0.017174877 0.0021310989 10.478193 0.67079955 -0.67079955 -0.31631607 173 173 173 255
-0.7487754 0.19816181 8.511001 0.67079955 -0.67079955 -0.31631607 173 173 173 255
-0.21320792 0.73372924 8.511001 0.67079955 -0.67079955 -0.31631607 173 173 173 255
-0.7487754 0.19816181 8.511001 0.3985939 0.780189 0.4821079 173 173 173 255
-0.017174877 0.0021310004 8.223367 0.3985939 0.780189 0.4821079 173 173 173 255
-0.9676256 0.9525796 7.471077 0.3985939 0.780189 0.4821079 173 173 173 255
-0.7487754 0.19816181 8.511001 0.5896742 -0.5896742 -0.5518774 173 173 173 255
-0.9676256 0.9525796 7.471077 0.5896742 -0.5896742 -0.5518774 173 173 173 255
-0.21320792 0.73372924 8.511001 0.5896742 -0.5896742 -0.5518774 173 173 173 255
-0.017174877 0.0021310004 8.223367 0.7352869 -0.4763662 0.4821083 173 173 173 255
-0.5527423 -0.5334343 8.511001 0.7352869 -0.4763662 0.4821083 173 173 173 255
-0.36506426 -1.2962071 7.471077 0.7352869 -0.4763662 0.4821083 173 173 173 255
0.17885593 -0.7294671 8.511001 0.2158375 0.8055087 -0.5518785 173 173 173 255
-0.36506426 -1.2962071 7.471077 0.2158375 0.8055087 -0.5518785 173 173 173 255
-0.5527423 -0.5334343 8.511001 0.2158375 0.8055087 -0.5518785 173 173 173 255
-0.7487754 0.19816181 8.511001 0.9163285 0.24553259 -0.316316 173 173 173 255
-0.017174877 0.0021310989 10.478193 0.9163285 0.24553259 -0.316316 173 173 173 255
-0.5527423 -0.5334343 8.511001 0.9163285 0.24553259 -0.316316 173 173 173 255
-0.7487754 0.19816181 8.511001 -0.04490015 -0.8749608 0.4821074 173 173 173 255
-1.315513 -0.3457585 7.471077 -0.04490015 -0.8749608 0.4821074 173 173 173 255
-0.017174877 0.0021310004 8.223367 -0.04490015 -0.8749608 0.4821074 173 173 173 255
-0.5527423 -0.5334343 8.511001 -0.4763652 0.7352894 0.48210537 173 173 173 255
-0.017174877 0.0021310004 8.223367 -0.4763652 0.7352894 0.48210537 173 173 173 255
-1.315513 -0.3457585 7.471077 -0.4763652 0.7352894 0.48210537 173 173 173 255
-0.7487754 0.19816181 8.511001 0.80550915 0.21583816 -0.55187744 173 173 173 255
-0.5527423 -0.5334343 8.511001 0.80550915 0.21583816 -0.55187744 173 173 173 255
-1.315513 -0.3457585 7.471077 0.80550915 0.21583816 -0.55187744 173 173 173 255
3 0 1 2
3 3 4 5
3 6 7 8
3 9 10 11
3 12 13 14
3 15 16 17
3 18 19 20
3 21 22 23
3 24 25 26
3 27 28 29
3 30 31 32
3 33 34 35
3 36 37 38
3 39 40 41
3 42 43 44
3 45 46 47
3 48 49 50
3 51 52 53
3 54 55 56
3 57 58 59
3 60 61 62
3 63 64 65
3 66 67 68
3 69 70 71
3 72 73 74
3 75 76 77
3 78 79 80
3 81 82 83
3 84 85 86
3 87 88 89
3 90 91 92
3 93 94 95
3 96 97 98
3 99 100 101
3 102 103 104
3 105 106 107
3 108 109 110
3 111 112 113
3 114 115 116
3 117 118 119
3 120 121 122
3 123 124 125
3 126 127 128
3 129 130 131
3 132 133 134
3 135 136 137
3 138 139 140
3 141 142 143
3 144 145 146
3 147 148 149
3 150 151 152
3 153 154 155
3 156 157 158
3 159 160 161
3 162 163 164
3 165 166 167
3 168 169 170
3 171 172 173
3 174 175 176
3 177 178 179
3 180 181 182
3 183 184 185
3 186 187 188
3 189 190 191
3 192 193 194
3 195 196 197
3 198 199 200
3 201 202 203
3 204 205 206
3 207 208 209
3 210 211 212
3 213 214 215
3 216 217 218
3 217 216 219
3 220 221 222
3 221 220 223
3 224 225 226
3 225 224 227
3 228 229 230
3 229 228 231
3 232 233 234
3 233 232 235
3 236 237 238
3 239 240 241
3 242 243 244
3 245 246 247
3 248 249 250
3 251 252 253
3 254 255 256
3 257 258 259
3 260 261 262
3 263 264 265
3 266 267 268
3 269 270 271
3 272 273 274
3 275 276 277
3 278 279 280
3 281 282 283
3 284 285 286
3 287 288 289
3 290 291 292
3 293 294 295
3 296 297 298
3 299 300 301
3 302 303 304
3 305 306 307
3 308 309 310
3 311 312 313
3 314 315 316
3 317 318 319
3 320 321 322
3 323 324 325
3 326 327 328
3 329 330 331
3 332 333 334
3 335 336 337
3 338 339 340
3 341 342 343
3 344 345 346
3 347 348 349
3 350 351 352
3 353 354 355
3 356 357 358
3 359 360 361
3 362 363 364
3 365 366 367
3 368 369 370
3 371 372 373
3 374 375 376
3 377 378 379
3 380 381 382
3 383 384 385
3 386 387 388
3 389 390 391
3 392 393 394
3 395 396 397
3 398 399 400
3 401 402 403
3 404 405 406
3 407 408 409
3 410 411 412
3 413 414 415

