ply
format ascii 1.0
commentY29udmVydGVyIGJ5IENvZGVMZW9wYXJk
comment Original mesh name: 'C:\Program Files (x86)\Steam\steamapps\common\Stormworks\rom\meshes\geiger_screen.mesh'
comment SubMesh index: 0
comment SubMesh name: 'ID14'
comment Shader: Opaque (0)
element vertex 40
property float x
property float y
property float z
property float nx
property float ny
property float nz
property uchar red
property uchar green
property uchar blue
property uchar alpha
element face 20
property list uchar ushort vertex_index
end_header
0.017738374 -0.020404799 -0.010389349 0 -0 1 9 255 0 255
0.024915874 -0.040404793 -0.010389349 0 -0 1 9 255 0 255
0.024915874 -0.020404799 -0.010389349 0 -0 1 9 255 0 255
0.017738374 -0.040404793 -0.010389349 0 -0 1 9 255 0 255
0.017738374 -0.040404793 -0.010389349 0 -0 -1 9 255 0 255
0.017738374 -0.020404799 -0.010389349 0 -0 -1 9 255 0 255
0.024915874 -0.040404793 -0.010389349 0 -0 -1 9 255 0 255
0.024915874 -0.020404799 -0.010389349 0 -0 -1 9 255 0 255
0.0069721243 -0.020404799 -0.010389349 0 -0 1 148 255 0 255
0.014149623 -0.040404793 -0.010389349 0 -0 1 148 255 0 255
0.014149623 -0.020404799 -0.010389349 0 -0 1 148 255 0 255
0.0069721243 -0.040404793 -0.010389349 0 -0 1 148 255 0 255
0.0069721243 -0.040404793 -0.010389349 0 -0 -1 148 255 0 255
0.0069721243 -0.020404799 -0.010389349 0 -0 -1 148 255 0 255
0.014149623 -0.040404793 -0.010389349 0 -0 -1 148 255 0 255
0.014149623 -0.020404799 -0.010389349 0 -0 -1 148 255 0 255
-0.0037941248 -0.020404799 -0.010389349 0 -0 1 255 106 0 255
0.0033833738 -0.040404793 -0.010389349 0 -0 1 255 106 0 255
0.0033833738 -0.020404799 -0.010389349 0 -0 1 255 106 0 255
-0.0037941248 -0.040404793 -0.010389349 0 -0 1 255 106 0 255
-0.0037941248 -0.040404793 -0.010389349 0 -0 -1 255 106 0 255
-0.0037941248 -0.020404799 -0.010389349 0 -0 -1 255 106 0 255
0.0033833738 -0.040404793 -0.010389349 0 -0 -1 255 106 0 255
0.0033833738 -0.020404799 -0.010389349 0 -0 -1 255 106 0 255
-0.014560375 -0.020404799 -0.010389349 0 -0 1 255 43 0 255
-0.007382876 -0.040404793 -0.010389349 0 -0 1 255 43 0 255
-0.007382876 -0.020404799 -0.010389349 0 -0 1 255 43 0 255
-0.014560375 -0.040404793 -0.010389349 0 -0 1 255 43 0 255
-0.014560375 -0.040404793 -0.010389349 0 -0 -1 255 43 0 255
-0.014560375 -0.020404799 -0.010389349 0 -0 -1 255 43 0 255
-0.007382876 -0.040404793 -0.010389349 0 -0 -1 255 43 0 255
-0.007382876 -0.020404799 -0.010389349 0 -0 -1 255 43 0 255
-0.025326625 -0.020404799 -0.010389349 0 -0 1 255 3 0 255
-0.018149124 -0.040404793 -0.010389349 0 -0 1 255 3 0 255
-0.018149124 -0.020404799 -0.010389349 0 -0 1 255 3 0 255
-0.025326625 -0.040404793 -0.010389349 0 -0 1 255 3 0 255
-0.025326625 -0.040404793 -0.010389349 0 -0 -1 255 3 0 255
-0.025326625 -0.020404799 -0.010389349 0 -0 -1 255 3 0 255
-0.018149124 -0.040404793 -0.010389349 0 -0 -1 255 3 0 255
-0.018149124 -0.020404799 -0.010389349 0 -0 -1 255 3 0 255
3 0 1 2
3 1 0 3
3 4 5 6
3 7 6 5
3 8 9 10
3 9 8 11
3 12 13 14
3 15 14 13
3 16 17 18
3 17 16 19
3 20 21 22
3 23 22 21
3 24 25 26
3 25 24 27
3 28 29 30
3 31 30 29
3 32 33 34
3 33 32 35
3 36 37 38
3 39 38 37

