ply
format ascii 1.0
commentY29udmVydGVyIGJ5IENvZGVMZW9wYXJk
comment Original mesh name: 'C:\Program Files (x86)\Steam\steamapps\common\Stormworks\rom\meshes\geiger_dial.mesh'
comment SubMesh index: 0
comment SubMesh name: 'ID2'
comment Shader: Opaque (0)
element vertex 42
property float x
property float y
property float z
property float nx
property float ny
property float nz
property uchar red
property uchar green
property uchar blue
property uchar alpha
element face 24
property list uchar ushort vertex_index
end_header
-0.0017551007 -0.029041748 0.001875 0.22195388 0.9750571 -5.955677E-13 141 141 141 255
4.6247454E-16 -0.029441265 -0.001875 0.22195388 0.9750571 -5.955677E-13 141 141 141 255
-0.0017551007 -0.029041748 -0.001875 0.22195388 0.9750571 -5.955677E-13 141 141 141 255
-4.511946E-16 -0.029441265 0.001875 0.22195388 0.9750571 -5.955677E-13 141 141 141 255
0.0017551007 -0.029041748 0.001875 2.412173E-13 -6.645019E-13 -1 141 141 141 255
0.0036000004 0.0036268532 0.001875 2.412173E-13 -6.645019E-13 -1 141 141 141 255
0.005556168 0.00014474148 0.001875 2.412173E-13 -6.645019E-13 -1 141 141 141 255
-0.0036000004 0.0036268532 0.001875 2.412173E-13 -6.645019E-13 -1 141 141 141 255
-4.511946E-16 -0.029441265 0.001875 2.412173E-13 -6.645019E-13 -1 141 141 141 255
-0.0017551007 -0.029041748 0.001875 2.412173E-13 -6.645019E-13 -1 141 141 141 255
-0.005556168 0.00014474148 0.001875 2.412173E-13 -6.645019E-13 -1 141 141 141 255
-4.511946E-16 -0.029441265 0.001875 -0.22195388 0.9750571 -7.037253E-13 141 141 141 255
0.0017551007 -0.029041748 -0.001875 -0.22195388 0.9750571 -7.037253E-13 141 141 141 255
4.6247454E-16 -0.029441265 -0.001875 -0.22195388 0.9750571 -7.037253E-13 141 141 141 255
0.0017551007 -0.029041748 0.001875 -0.22195388 0.9750571 -7.037253E-13 141 141 141 255
0.0036000004 0.0036268532 -0.001875 -2.425585E-13 6.6426557E-13 1 141 141 141 255
0.0017551007 -0.029041748 -0.001875 -2.425585E-13 6.6426557E-13 1 141 141 141 255
0.005556168 0.00014474148 -0.001875 -2.425585E-13 6.6426557E-13 1 141 141 141 255
-0.0036000004 0.0036268532 -0.001875 -2.425585E-13 6.6426557E-13 1 141 141 141 255
4.6247454E-16 -0.029441265 -0.001875 -2.425585E-13 6.6426557E-13 1 141 141 141 255
-0.0017551007 -0.029041748 -0.001875 -2.425585E-13 6.6426557E-13 1 141 141 141 255
-0.005556168 0.00014474148 -0.001875 -2.425585E-13 6.6426557E-13 1 141 141 141 255
-0.005556168 0.00014474148 -0.001875 0.9916259 0.12914318 1.5566469E-13 141 141 141 255
-0.0017551007 -0.029041748 0.001875 0.9916259 0.12914318 1.5566469E-13 141 141 141 255
-0.0017551007 -0.029041748 -0.001875 0.9916259 0.12914318 1.5566469E-13 141 141 141 255
-0.005556168 0.00014474148 0.001875 0.9916259 0.12914318 1.5566469E-13 141 141 141 255
0.0017551007 -0.029041748 0.001875 -0.9916259 0.12914318 -3.2752794E-13 141 141 141 255
0.005556168 0.00014474148 -0.001875 -0.9916259 0.12914318 -3.2752794E-13 141 141 141 255
0.0017551007 -0.029041748 -0.001875 -0.9916259 0.12914318 -3.2752794E-13 141 141 141 255
0.005556168 0.00014474148 0.001875 -0.9916259 0.12914318 -3.2752794E-13 141 141 141 255
-0.0036000004 0.0036268532 -0.001875 0.871845 -0.4897818 5.3762376E-13 141 141 141 255
-0.005556168 0.00014474148 0.001875 0.871845 -0.4897818 5.3762376E-13 141 141 141 255
-0.005556168 0.00014474148 -0.001875 0.871845 -0.4897818 5.3762376E-13 141 141 141 255
-0.0036000004 0.0036268532 0.001875 0.871845 -0.4897818 5.3762376E-13 141 141 141 255
0.0036000004 0.0036268532 -0.001875 -1.607193E-25 -1 6.647601E-13 141 141 141 255
-0.0036000004 0.0036268532 0.001875 -1.607193E-25 -1 6.647601E-13 141 141 141 255
-0.0036000004 0.0036268532 -0.001875 -1.607193E-25 -1 6.647601E-13 141 141 141 255
0.0036000004 0.0036268532 0.001875 -1.607193E-25 -1 6.647601E-13 141 141 141 255
0.005556168 0.00014474148 0.001875 -0.871845 -0.4897818 1.141333E-13 141 141 141 255
0.0036000004 0.0036268532 -0.001875 -0.871845 -0.4897818 1.141333E-13 141 141 141 255
0.005556168 0.00014474148 -0.001875 -0.871845 -0.4897818 1.141333E-13 141 141 141 255
0.0036000004 0.0036268532 0.001875 -0.871845 -0.4897818 1.141333E-13 141 141 141 255
3 0 1 2
3 1 0 3
3 4 5 6
3 5 4 7
3 7 4 8
3 7 8 9
3 7 9 10
3 11 12 13
3 12 11 14
3 15 16 17
3 16 15 18
3 16 18 19
3 19 18 20
3 20 18 21
3 22 23 24
3 23 22 25
3 26 27 28
3 27 26 29
3 30 31 32
3 31 30 33
3 34 35 36
3 35 34 37
3 38 39 40
3 39 38 41

