ply
format ascii 1.0
commentY29udmVydGVyIGJ5IENvZGVMZW9wYXJk
comment Original mesh name: 'C:\Program Files (x86)\Steam\steamapps\common\Stormworks\rom\meshes\modular_engine_intake_manifold_fuel.mesh'
comment SubMesh index: 0
comment SubMesh name: 'ID66'
comment Shader: Opaque (0)
element vertex 398
property float x
property float y
property float z
property float nx
property float ny
property float nz
property uchar red
property uchar green
property uchar blue
property uchar alpha
element face 258
property list uchar ushort vertex_index
end_header
0.050696183 -0.038572643 -0.115 -3.8604675E-14 2.886926E-15 1 84 84 84 255
0.021427363 -0.050696183 -0.115 -3.8604675E-14 2.886926E-15 1 84 84 84 255
0.038572643 -0.050696183 -0.115 -3.8604675E-14 2.886926E-15 1 84 84 84 255
0.009303819 -0.038572643 -0.115 -3.8604675E-14 2.886926E-15 1 84 84 84 255
0.050696183 -0.021427363 -0.115 -3.8604675E-14 2.886926E-15 1 84 84 84 255
0.009303819 -0.021427363 -0.115 -3.8604675E-14 2.886926E-15 1 84 84 84 255
0.038572643 -0.009303819 -0.115 -3.8604675E-14 2.886926E-15 1 84 84 84 255
0.021427363 -0.009303819 -0.115 -3.8604675E-14 2.886926E-15 1 84 84 84 255
0.050696183 -0.021427363 -0.125 0.7071069 0.7071066 2.5995389E-14 84 84 84 255
0.038572643 -0.009303819 -0.115 0.7071069 0.7071066 2.5995389E-14 84 84 84 255
0.050696183 -0.021427363 -0.115 0.7071069 0.7071066 2.5995389E-14 84 84 84 255
0.038572643 -0.009303819 -0.125 0.7071069 0.7071066 2.5995389E-14 84 84 84 255
0.021427363 -0.009303819 -0.125 3.350253E-14 1 -1.026106E-15 84 84 84 255
0.038572643 -0.009303819 -0.115 3.350253E-14 1 -1.026106E-15 84 84 84 255
0.038572643 -0.009303819 -0.125 3.350253E-14 1 -1.026106E-15 84 84 84 255
0.021427363 -0.009303819 -0.115 3.350253E-14 1 -1.026106E-15 84 84 84 255
0.009303819 -0.021427363 -0.125 -0.70710677 0.70710677 -2.7478174E-14 84 84 84 255
0.021427363 -0.009303819 -0.115 -0.70710677 0.70710677 -2.7478174E-14 84 84 84 255
0.021427363 -0.009303819 -0.125 -0.70710677 0.70710677 -2.7478174E-14 84 84 84 255
0.009303819 -0.021427363 -0.115 -0.70710677 0.70710677 -2.7478174E-14 84 84 84 255
0.009303819 -0.021427363 -0.125 -1 3.350253E-14 -3.78339E-14 84 84 84 255
0.009303819 -0.038572643 -0.115 -1 3.350253E-14 -3.78339E-14 84 84 84 255
0.009303819 -0.021427363 -0.115 -1 3.350253E-14 -3.78339E-14 84 84 84 255
0.009303819 -0.038572643 -0.125 -1 3.350253E-14 -3.78339E-14 84 84 84 255
0.009303819 -0.038572643 -0.115 -0.7071066 -0.7071069 -2.5995377E-14 84 84 84 255
0.021427363 -0.050696183 -0.125 -0.7071066 -0.7071069 -2.5995377E-14 84 84 84 255
0.021427363 -0.050696183 -0.115 -0.7071066 -0.7071069 -2.5995377E-14 84 84 84 255
0.009303819 -0.038572643 -0.125 -0.7071066 -0.7071069 -2.5995377E-14 84 84 84 255
0.021427363 -0.050696183 -0.115 -3.350253E-14 -1 1.026106E-15 84 84 84 255
0.038572643 -0.050696183 -0.125 -3.350253E-14 -1 1.026106E-15 84 84 84 255
0.038572643 -0.050696183 -0.115 -3.350253E-14 -1 1.026106E-15 84 84 84 255
0.021427363 -0.050696183 -0.125 -3.350253E-14 -1 1.026106E-15 84 84 84 255
0.038572643 -0.050696183 -0.115 0.70710677 -0.70710677 2.7478174E-14 84 84 84 255
0.050696183 -0.038572643 -0.125 0.70710677 -0.70710677 2.7478174E-14 84 84 84 255
0.050696183 -0.038572643 -0.115 0.70710677 -0.70710677 2.7478174E-14 84 84 84 255
0.038572643 -0.050696183 -0.125 0.70710677 -0.70710677 2.7478174E-14 84 84 84 255
0.050696183 -0.038572643 -0.125 1 -3.350253E-14 3.78339E-14 84 84 84 255
0.050696183 -0.021427363 -0.115 1 -3.350253E-14 3.78339E-14 84 84 84 255
0.050696183 -0.038572643 -0.115 1 -3.350253E-14 3.78339E-14 84 84 84 255
0.050696183 -0.021427363 -0.125 1 -3.350253E-14 3.78339E-14 84 84 84 255
-0.009303814 -0.038572643 -0.115 -3.8764307E-14 1.4114939E-15 1 84 84 84 255
-0.03857263 -0.050696183 -0.115 -3.8764307E-14 1.4114939E-15 1 84 84 84 255
-0.021427358 -0.050696183 -0.115 -3.8764307E-14 1.4114939E-15 1 84 84 84 255
-0.050696183 -0.038572643 -0.115 -3.8764307E-14 1.4114939E-15 1 84 84 84 255
-0.009303814 -0.021427363 -0.115 -3.8764307E-14 1.4114939E-15 1 84 84 84 255
-0.050696183 -0.021427363 -0.115 -3.8764307E-14 1.4114939E-15 1 84 84 84 255
-0.021427358 -0.009303819 -0.115 -3.8764307E-14 1.4114939E-15 1 84 84 84 255
-0.03857263 -0.009303819 -0.115 -3.8764307E-14 1.4114939E-15 1 84 84 84 255
-0.021427358 -0.009303819 -0.125 0.70710677 0.70710677 2.6027039E-14 84 84 84 255
-0.009303814 -0.021427363 -0.115 0.70710677 0.70710677 2.6027039E-14 84 84 84 255
-0.009303814 -0.021427363 -0.125 0.70710677 0.70710677 2.6027039E-14 84 84 84 255
-0.021427358 -0.009303819 -0.115 0.70710677 0.70710677 2.6027039E-14 84 84 84 255
-0.03857263 -0.009303819 -0.125 3.350253E-14 1 -1.026106E-15 84 84 84 255
-0.021427358 -0.009303819 -0.115 3.350253E-14 1 -1.026106E-15 84 84 84 255
-0.021427358 -0.009303819 -0.125 3.350253E-14 1 -1.026106E-15 84 84 84 255
-0.03857263 -0.009303819 -0.115 3.350253E-14 1 -1.026106E-15 84 84 84 255
-0.03857263 -0.009303819 -0.125 -0.70710677 0.70710677 -2.7478174E-14 84 84 84 255
-0.050696183 -0.021427363 -0.115 -0.70710677 0.70710677 -2.7478174E-14 84 84 84 255
-0.03857263 -0.009303819 -0.115 -0.70710677 0.70710677 -2.7478174E-14 84 84 84 255
-0.050696183 -0.021427363 -0.125 -0.70710677 0.70710677 -2.7478174E-14 84 84 84 255
-0.050696183 -0.021427363 -0.115 -1 3.350253E-14 -3.78339E-14 84 84 84 255
-0.050696183 -0.038572643 -0.125 -1 3.350253E-14 -3.78339E-14 84 84 84 255
-0.050696183 -0.038572643 -0.115 -1 3.350253E-14 -3.78339E-14 84 84 84 255
-0.050696183 -0.021427363 -0.125 -1 3.350253E-14 -3.78339E-14 84 84 84 255
-0.050696183 -0.038572643 -0.115 -0.7071066 -0.7071069 -2.6027032E-14 84 84 84 255
-0.03857263 -0.050696183 -0.125 -0.7071066 -0.7071069 -2.6027032E-14 84 84 84 255
-0.03857263 -0.050696183 -0.115 -0.7071066 -0.7071069 -2.6027032E-14 84 84 84 255
-0.050696183 -0.038572643 -0.125 -0.7071066 -0.7071069 -2.6027032E-14 84 84 84 255
-0.03857263 -0.050696183 -0.115 -3.350253E-14 -1 1.026106E-15 84 84 84 255
-0.021427358 -0.050696183 -0.125 -3.350253E-14 -1 1.026106E-15 84 84 84 255
-0.021427358 -0.050696183 -0.115 -3.350253E-14 -1 1.026106E-15 84 84 84 255
-0.03857263 -0.050696183 -0.125 -3.350253E-14 -1 1.026106E-15 84 84 84 255
-0.021427358 -0.050696183 -0.115 0.7071066 -0.7071069 2.7478167E-14 84 84 84 255
-0.009303814 -0.038572643 -0.125 0.7071066 -0.7071069 2.7478167E-14 84 84 84 255
-0.009303814 -0.038572643 -0.115 0.7071066 -0.7071069 2.7478167E-14 84 84 84 255
-0.021427358 -0.050696183 -0.125 0.7071066 -0.7071069 2.7478167E-14 84 84 84 255
-0.009303814 -0.038572643 -0.125 1 -3.350253E-14 3.78339E-14 84 84 84 255
-0.009303814 -0.021427363 -0.115 1 -3.350253E-14 3.78339E-14 84 84 84 255
-0.009303814 -0.038572643 -0.115 1 -3.350253E-14 3.78339E-14 84 84 84 255
-0.009303814 -0.021427363 -0.125 1 -3.350253E-14 3.78339E-14 84 84 84 255
-0.009303814 0.021427358 -0.115 -3.9309335E-14 1.9565146E-15 1 84 84 84 255
-0.03857263 0.009303814 -0.115 -3.9309335E-14 1.9565146E-15 1 84 84 84 255
-0.021427358 0.009303814 -0.115 -3.9309335E-14 1.9565146E-15 1 84 84 84 255
-0.050696183 0.021427358 -0.115 -3.9309335E-14 1.9565146E-15 1 84 84 84 255
-0.009303814 0.03857263 -0.115 -3.9309335E-14 1.9565146E-15 1 84 84 84 255
-0.050696183 0.03857263 -0.115 -3.9309335E-14 1.9565146E-15 1 84 84 84 255
-0.021427358 0.050696183 -0.115 -3.9309335E-14 1.9565146E-15 1 84 84 84 255
-0.03857263 0.050696183 -0.115 -3.9309335E-14 1.9565146E-15 1 84 84 84 255
-0.021427358 0.050696183 -0.125 0.70710677 0.70710677 2.6027039E-14 84 84 84 255
-0.009303814 0.03857263 -0.115 0.70710677 0.70710677 2.6027039E-14 84 84 84 255
-0.009303814 0.03857263 -0.125 0.70710677 0.70710677 2.6027039E-14 84 84 84 255
-0.021427358 0.050696183 -0.115 0.70710677 0.70710677 2.6027039E-14 84 84 84 255
-0.03857263 0.050696183 -0.125 3.350253E-14 1 -1.026106E-15 84 84 84 255
-0.021427358 0.050696183 -0.115 3.350253E-14 1 -1.026106E-15 84 84 84 255
-0.021427358 0.050696183 -0.125 3.350253E-14 1 -1.026106E-15 84 84 84 255
-0.03857263 0.050696183 -0.115 3.350253E-14 1 -1.026106E-15 84 84 84 255
-0.050696183 0.03857263 -0.125 -0.70710677 0.70710677 -2.7478174E-14 84 84 84 255
-0.03857263 0.050696183 -0.115 -0.70710677 0.70710677 -2.7478174E-14 84 84 84 255
-0.03857263 0.050696183 -0.125 -0.70710677 0.70710677 -2.7478174E-14 84 84 84 255
-0.050696183 0.03857263 -0.115 -0.70710677 0.70710677 -2.7478174E-14 84 84 84 255
-0.050696183 0.03857263 -0.125 -1 3.350253E-14 -3.78339E-14 84 84 84 255
-0.050696183 0.021427358 -0.115 -1 3.350253E-14 -3.78339E-14 84 84 84 255
-0.050696183 0.03857263 -0.115 -1 3.350253E-14 -3.78339E-14 84 84 84 255
-0.050696183 0.021427358 -0.125 -1 3.350253E-14 -3.78339E-14 84 84 84 255
-0.050696183 0.021427358 -0.115 -0.70710677 -0.70710677 -2.6027039E-14 84 84 84 255
-0.03857263 0.009303814 -0.125 -0.70710677 -0.70710677 -2.6027039E-14 84 84 84 255
-0.03857263 0.009303814 -0.115 -0.70710677 -0.70710677 -2.6027039E-14 84 84 84 255
-0.050696183 0.021427358 -0.125 -0.70710677 -0.70710677 -2.6027039E-14 84 84 84 255
-0.03857263 0.009303814 -0.115 -3.350253E-14 -1 1.026106E-15 84 84 84 255
-0.021427358 0.009303814 -0.125 -3.350253E-14 -1 1.026106E-15 84 84 84 255
-0.021427358 0.009303814 -0.115 -3.350253E-14 -1 1.026106E-15 84 84 84 255
-0.03857263 0.009303814 -0.125 -3.350253E-14 -1 1.026106E-15 84 84 84 255
-0.021427358 0.009303814 -0.115 0.70710677 -0.70710677 2.7478174E-14 84 84 84 255
-0.009303814 0.021427358 -0.125 0.70710677 -0.70710677 2.7478174E-14 84 84 84 255
-0.009303814 0.021427358 -0.115 0.70710677 -0.70710677 2.7478174E-14 84 84 84 255
-0.021427358 0.009303814 -0.125 0.70710677 -0.70710677 2.7478174E-14 84 84 84 255
-0.009303814 0.021427358 -0.125 1 -3.350253E-14 3.78339E-14 84 84 84 255
-0.009303814 0.03857263 -0.115 1 -3.350253E-14 3.78339E-14 84 84 84 255
-0.009303814 0.021427358 -0.115 1 -3.350253E-14 3.78339E-14 84 84 84 255
-0.009303814 0.03857263 -0.125 1 -3.350253E-14 3.78339E-14 84 84 84 255
0.09534436 0.03949292 0.025888335 -0.5586213 -0.5586211 -0.6130944 84 84 84 255
0.0625 0.09428755 0.005888345 -0.5586213 -0.5586211 -0.6130944 84 84 84 255
0.11086553 0.045922004 0.005888345 -0.5586213 -0.5586211 -0.6130944 84 84 84 255
0.0625 0.07233728 0.025888335 -0.5586213 -0.5586211 -0.6130944 84 84 84 255
0.09534436 -0.03949293 0.025888335 -0.7900096 -3.424988E-33 -0.6130944 84 84 84 255
0.11086553 0.045922004 0.005888345 -0.7900096 -3.424988E-33 -0.6130944 84 84 84 255
0.11086553 -0.045922004 0.005888345 -0.7900096 -3.424988E-33 -0.6130944 84 84 84 255
0.09534436 0.03949292 0.025888335 -0.7900096 -3.424988E-33 -0.6130944 84 84 84 255
0.03949293 -0.09534436 0.025888335 0 -0 -1 84 84 84 255
0.09534436 0.03949292 0.025888335 0 -0 -1 84 84 84 255
0.09534436 -0.03949293 0.025888335 0 -0 -1 84 84 84 255
0.0625 -0.03949293 0.025888335 0 -0 -1 84 84 84 255
-0.0625 -0.03949293 0.025888335 0 -0 -1 84 84 84 255
-0.03949292 -0.09534436 0.025888335 0 -0 -1 84 84 84 255
-0.09534435 -0.03949293 0.025888335 0 -0 -1 84 84 84 255
-0.0625 0.07233728 0.025888335 0 -0 -1 84 84 84 255
-0.09534435 0.03949292 0.025888335 0 -0 -1 84 84 84 255
0.0625 0.07233728 0.025888335 0 -0 -1 84 84 84 255
0.0625 0.124999985 0.025888335 -1 -0 -0 84 84 84 255
0.0625 0.09428755 0.005888345 -1 -0 -0 84 84 84 255
0.0625 0.07233728 0.025888335 -1 -0 -0 84 84 84 255
0.0625 0.09428755 -0.025888335 -1 -0 -0 84 84 84 255
0.0625 0.124999985 -0.025888335 -1 -0 -0 84 84 84 255
0.0625 0.09428755 0.005888345 -0.7071068 -0.7071067 9.825978E-08 84 84 84 255
0.11086553 0.045922004 -0.107170016 -0.7071068 -0.7071067 9.825978E-08 84 84 84 255
0.11086553 0.045922004 0.005888345 -0.7071068 -0.7071067 9.825978E-08 84 84 84 255
0.0625 0.09428755 -0.025888335 -0.7071068 -0.7071067 9.825978E-08 84 84 84 255
0.045922004 0.11086553 -0.107170016 -0.7071068 -0.7071067 9.825978E-08 84 84 84 255
0.045922004 0.11086553 -0.042466335 -0.7071068 -0.7071067 9.825978E-08 84 84 84 255
0.045922004 -0.11086553 0.005888345 -0.5586212 0.5586212 -0.61309415 84 84 84 255
0.09534436 -0.03949293 0.025888335 -0.5586212 0.5586212 -0.61309415 84 84 84 255
0.11086553 -0.045922004 0.005888345 -0.5586212 0.5586212 -0.61309415 84 84 84 255
0.03949293 -0.09534436 0.025888335 -0.5586212 0.5586212 -0.61309415 84 84 84 255
0.11086553 0.045922004 0.005888345 -1 -0 -0 84 84 84 255
0.11086553 -0.045922004 -0.107170016 -1 -0 -0 84 84 84 255
0.11086553 -0.045922004 0.005888345 -1 -0 -0 84 84 84 255
0.11086553 0.045922004 -0.107170016 -1 -0 -0 84 84 84 255
-0.045922004 -0.11086553 0.005888345 0.5586212 0.5586212 -0.61309415 84 84 84 255
-0.09534435 -0.03949293 0.025888335 0.5586212 0.5586212 -0.61309415 84 84 84 255
-0.03949292 -0.09534436 0.025888335 0.5586212 0.5586212 -0.61309415 84 84 84 255
-0.11086553 -0.045922004 0.005888345 0.5586212 0.5586212 -0.61309415 84 84 84 255
-0.11086553 0.045922004 0.005888345 0.7900096 -0 -0.6130944 84 84 84 255
-0.09534435 -0.03949293 0.025888335 0.7900096 -0 -0.6130944 84 84 84 255
-0.11086553 -0.045922004 0.005888345 0.7900096 -0 -0.6130944 84 84 84 255
-0.09534435 0.03949292 0.025888335 0.7900096 -0 -0.6130944 84 84 84 255
-0.09534435 0.03949292 0.025888335 0.5586213 -0.5586211 -0.6130944 84 84 84 255
-0.0625 0.09428755 0.005888345 0.5586213 -0.5586211 -0.6130944 84 84 84 255
-0.0625 0.07233728 0.025888335 0.5586213 -0.5586211 -0.6130944 84 84 84 255
-0.11086553 0.045922004 0.005888345 0.5586213 -0.5586211 -0.6130944 84 84 84 255
-0.0625 0.07233728 0.025888335 0.70710677 5.559337E-18 -0.70710677 84 84 84 255
-0.025888335 0 0.062499985 0.70710677 5.559337E-18 -0.70710677 84 84 84 255
-0.0625 -0.03949293 0.025888335 0.70710677 5.559337E-18 -0.70710677 84 84 84 255
-0.025888335 0.124999985 0.062499985 0.70710677 5.559337E-18 -0.70710677 84 84 84 255
-0.0625 0.124999985 0.025888335 0.70710677 5.559337E-18 -0.70710677 84 84 84 255
-0.0625 -0.03949293 0.025888335 0 0.6798491 -0.733352 84 84 84 255
0.02588834 0 0.062499985 0 0.6798491 -0.733352 84 84 84 255
0.0625 -0.03949293 0.025888335 0 0.6798491 -0.733352 84 84 84 255
-0.025888335 0 0.062499985 0 0.6798491 -0.733352 84 84 84 255
0.02588834 0 0.062499985 -0.70710677 1.8531118E-18 -0.70710677 84 84 84 255
0.0625 0.07233728 0.025888335 -0.70710677 1.8531118E-18 -0.70710677 84 84 84 255
0.0625 -0.03949293 0.025888335 -0.70710677 1.8531118E-18 -0.70710677 84 84 84 255
0.02588834 0.124999985 0.062499985 -0.70710677 1.8531118E-18 -0.70710677 84 84 84 255
0.0625 0.124999985 0.025888335 -0.70710677 1.8531118E-18 -0.70710677 84 84 84 255
-0.03949292 -0.09534436 0.025888335 -3.424988E-33 0.7900096 -0.6130944 84 84 84 255
0.045922004 -0.11086553 0.005888345 -3.424988E-33 0.7900096 -0.6130944 84 84 84 255
-0.045922004 -0.11086553 0.005888345 -3.424988E-33 0.7900096 -0.6130944 84 84 84 255
0.03949293 -0.09534436 0.025888335 -3.424988E-33 0.7900096 -0.6130944 84 84 84 255
0.0625 0.124999985 -0.025888335 -0.70710677 -4.2200356E-17 0.70710677 84 84 84 255
0.045922004 0.11086553 -0.042466335 -0.70710677 -4.2200356E-17 0.70710677 84 84 84 255
0.0625 0.09428755 -0.025888335 -0.70710677 -4.2200356E-17 0.70710677 84 84 84 255
0.02588834 0.11086553 -0.0625 -0.70710677 -4.2200356E-17 0.70710677 84 84 84 255
0.02588834 0.124999985 -0.0625 -0.70710677 -4.2200356E-17 0.70710677 84 84 84 255
0.045922004 0.11086553 -0.107170016 0 -1 -0 84 84 84 255
0.02588834 0.11086553 -0.0625 0 -1 -0 84 84 84 255
-0.045922004 0.11086553 -0.107170016 0 -1 -0 84 84 84 255
0.045922004 0.11086553 -0.042466335 0 -1 -0 84 84 84 255
-0.025888335 0.11086553 -0.0625 0 -1 -0 84 84 84 255
-0.045922004 0.11086553 -0.042466335 0 -1 -0 84 84 84 255
0.11086553 0.045922004 -0.107170016 0 -0 1 84 84 84 255
0.075 0.045000006 -0.107170016 0 -0 1 84 84 84 255
0.11086553 -0.045922004 -0.107170016 0 -0 1 84 84 84 255
0.045922004 0.11086553 -0.107170016 0 -0 1 84 84 84 255
0.044999987 0.075 -0.107170016 0 -0 1 84 84 84 255
-0.045922004 0.11086553 -0.107170016 0 -0 1 84 84 84 255
-0.045000006 0.075 -0.107170016 0 -0 1 84 84 84 255
-0.075 0.045000006 -0.107170016 0 -0 1 84 84 84 255
-0.11086553 0.045922004 -0.107170016 0 -0 1 84 84 84 255
-0.075 -0.044999987 -0.107170016 0 -0 1 84 84 84 255
0.075 -0.044999987 -0.107170016 0 -0 1 84 84 84 255
0.045922004 -0.11086553 -0.107170016 0 -0 1 84 84 84 255
0.044999987 -0.075 -0.107170016 0 -0 1 84 84 84 255
-0.045922004 -0.11086553 -0.107170016 0 -0 1 84 84 84 255
-0.045000006 -0.075 -0.107170016 0 -0 1 84 84 84 255
-0.11086553 -0.045922004 -0.107170016 0 -0 1 84 84 84 255
0.11086553 -0.045922004 0.005888345 -0.70710677 0.70710677 -0 84 84 84 255
0.045922004 -0.11086553 -0.107170016 -0.70710677 0.70710677 -0 84 84 84 255
0.045922004 -0.11086553 0.005888345 -0.70710677 0.70710677 -0 84 84 84 255
0.11086553 -0.045922004 -0.107170016 -0.70710677 0.70710677 -0 84 84 84 255
-0.11086553 -0.045922004 -0.107170016 0.70710677 0.70710677 1.4077238E-32 84 84 84 255
-0.045922004 -0.11086553 0.005888345 0.70710677 0.70710677 1.4077238E-32 84 84 84 255
-0.045922004 -0.11086553 -0.107170016 0.70710677 0.70710677 1.4077238E-32 84 84 84 255
-0.11086553 -0.045922004 0.005888345 0.70710677 0.70710677 1.4077238E-32 84 84 84 255
-0.11086553 0.045922004 -0.107170016 1 -0 -0 84 84 84 255
-0.11086553 -0.045922004 0.005888345 1 -0 -0 84 84 84 255
-0.11086553 -0.045922004 -0.107170016 1 -0 -0 84 84 84 255
-0.11086553 0.045922004 0.005888345 1 -0 -0 84 84 84 255
-0.045922004 0.11086553 -0.107170016 0.7071068 -0.7071067 9.825978E-08 84 84 84 255
-0.11086553 0.045922004 0.005888345 0.7071068 -0.7071067 9.825978E-08 84 84 84 255
-0.11086553 0.045922004 -0.107170016 0.7071068 -0.7071067 9.825978E-08 84 84 84 255
-0.0625 0.09428755 -0.025888335 0.7071068 -0.7071067 9.825978E-08 84 84 84 255
-0.045922004 0.11086553 -0.042466335 0.7071068 -0.7071067 9.825978E-08 84 84 84 255
-0.0625 0.09428755 0.005888345 0.7071068 -0.7071067 9.825978E-08 84 84 84 255
-0.0625 0.124999985 -0.025888335 1 -0 -0 84 84 84 255
-0.0625 0.09428755 0.005888345 1 -0 -0 84 84 84 255
-0.0625 0.09428755 -0.025888335 1 -0 -0 84 84 84 255
-0.0625 0.124999985 0.025888335 1 -0 -0 84 84 84 255
-0.0625 0.07233728 0.025888335 1 -0 -0 84 84 84 255
-0.025888335 0 0.062499985 0 -0 -1 84 84 84 255
0.02588834 0.124999985 0.062499985 0 -0 -1 84 84 84 255
0.02588834 0 0.062499985 0 -0 -1 84 84 84 255
-0.025888335 0.124999985 0.062499985 0 -0 -1 84 84 84 255
-0.045922004 -0.11086553 0.005888345 0 1 -0 84 84 84 255
0.045922004 -0.11086553 -0.107170016 0 1 -0 84 84 84 255
-0.045922004 -0.11086553 -0.107170016 0 1 -0 84 84 84 255
0.045922004 -0.11086553 0.005888345 0 1 -0 84 84 84 255
-0.025888335 0.124999985 -0.0625 0 -0 1 84 84 84 255
0.02588834 0.11086553 -0.0625 0 -0 1 84 84 84 255
0.02588834 0.124999985 -0.0625 0 -0 1 84 84 84 255
-0.025888335 0.11086553 -0.0625 0 -0 1 84 84 84 255
-0.025888335 0.124999985 -0.0625 0.70710677 -0 0.70710677 84 84 84 255
-0.045922004 0.11086553 -0.042466335 0.70710677 -0 0.70710677 84 84 84 255
-0.025888335 0.11086553 -0.0625 0.70710677 -0 0.70710677 84 84 84 255
-0.0625 0.124999985 -0.025888335 0.70710677 -0 0.70710677 84 84 84 255
-0.0625 0.09428755 -0.025888335 0.70710677 -0 0.70710677 84 84 84 255
0.057928935 -0.052928936 -0.125 -3.78339E-14 1.026106E-15 1 84 84 84 255
0.04792894 -0.052928936 -0.125 -3.78339E-14 1.026106E-15 1 84 84 84 255
0.052928936 -0.057928935 -0.125 -3.78339E-14 1.026106E-15 1 84 84 84 255
0.052928936 -0.04792894 -0.125 -3.78339E-14 1.026106E-15 1 84 84 84 255
-0.047928933 -0.052928936 -0.125 -3.78339E-14 1.026106E-15 1 84 84 84 255
-0.05792894 -0.052928936 -0.125 -3.78339E-14 1.026106E-15 1 84 84 84 255
-0.052928925 -0.057928935 -0.125 -3.78339E-14 1.026106E-15 1 84 84 84 255
-0.052928925 -0.04792894 -0.125 -3.78339E-14 1.026106E-15 1 84 84 84 255
0.057928935 0.052928925 -0.125 -3.78339E-14 1.026106E-15 1 84 84 84 255
0.04792894 0.052928925 -0.125 -3.78339E-14 1.026106E-15 1 84 84 84 255
0.052928936 0.047928933 -0.125 -3.78339E-14 1.026106E-15 1 84 84 84 255
0.052928936 0.05792894 -0.125 -3.78339E-14 1.026106E-15 1 84 84 84 255
-0.044999983 -0.075 -0.125 3.34712E-14 1 -2.4495352E-15 84 84 84 255
0.04500001 -0.075 -0.10717002 3.34712E-14 1 -2.4495352E-15 84 84 84 255
0.04500001 -0.075 -0.125 3.34712E-14 1 -2.4495352E-15 84 84 84 255
-0.044999983 -0.075 -0.10717002 3.34712E-14 1 -2.4495352E-15 84 84 84 255
-0.07499999 -0.04500001 -0.125 0.7071065 0.7071071 2.5588908E-14 84 84 84 255
-0.044999983 -0.075 -0.10717002 0.7071065 0.7071071 2.5588908E-14 84 84 84 255
-0.044999983 -0.075 -0.125 0.7071065 0.7071071 2.5588908E-14 84 84 84 255
-0.07499999 -0.04500001 -0.10717002 0.7071065 0.7071071 2.5588908E-14 84 84 84 255
0.075 -0.04500001 -0.125 -0.70710677 0.70710677 -2.8035781E-14 84 84 84 255
0.04500001 -0.075 -0.10717002 -0.70710677 0.70710677 -2.8035781E-14 84 84 84 255
0.075 -0.04500001 -0.10717002 -0.70710677 0.70710677 -2.8035781E-14 84 84 84 255
0.04500001 -0.075 -0.125 -0.70710677 0.70710677 -2.8035781E-14 84 84 84 255
-0.07499999 -0.04500001 -0.125 1 -3.350253E-14 3.78339E-14 84 84 84 255
-0.07499999 0.044999983 -0.10717002 1 -3.350253E-14 3.78339E-14 84 84 84 255
-0.07499999 -0.04500001 -0.10717002 1 -3.350253E-14 3.78339E-14 84 84 84 255
-0.07499999 0.044999983 -0.125 1 -3.350253E-14 3.78339E-14 84 84 84 255
0.075 0.044999983 -0.125 -1 3.350253E-14 -3.78339E-14 84 84 84 255
0.075 -0.04500001 -0.10717002 -1 3.350253E-14 -3.78339E-14 84 84 84 255
0.075 0.044999983 -0.10717002 -1 3.350253E-14 -3.78339E-14 84 84 84 255
0.075 -0.04500001 -0.125 -1 3.350253E-14 -3.78339E-14 84 84 84 255
-0.07499999 0.044999983 -0.125 0.70710677 -0.70710677 2.7478174E-14 84 84 84 255
-0.044999983 0.07499999 -0.10717002 0.70710677 -0.70710677 2.7478174E-14 84 84 84 255
-0.07499999 0.044999983 -0.10717002 0.70710677 -0.70710677 2.7478174E-14 84 84 84 255
-0.044999983 0.07499999 -0.125 0.70710677 -0.70710677 2.7478174E-14 84 84 84 255
0.04500001 0.07499999 -0.125 -0.7071071 -0.7071065 -2.6027054E-14 84 84 84 255
0.075 0.044999983 -0.10717002 -0.7071071 -0.7071065 -2.6027054E-14 84 84 84 255
0.04500001 0.07499999 -0.10717002 -0.7071071 -0.7071065 -2.6027054E-14 84 84 84 255
0.075 0.044999983 -0.125 -0.7071071 -0.7071065 -2.6027054E-14 84 84 84 255
-0.044999983 0.07499999 -0.10717002 -3.350253E-14 -1 1.026106E-15 84 84 84 255
0.04500001 0.07499999 -0.125 -3.350253E-14 -1 1.026106E-15 84 84 84 255
0.04500001 0.07499999 -0.10717002 -3.350253E-14 -1 1.026106E-15 84 84 84 255
-0.044999983 0.07499999 -0.125 -3.350253E-14 -1 1.026106E-15 84 84 84 255
-0.047928933 0.052928925 -0.125 -3.78339E-14 1.026106E-15 1 84 84 84 255
-0.05792894 0.052928925 -0.125 -3.78339E-14 1.026106E-15 1 84 84 84 255
-0.052928925 0.047928933 -0.125 -3.78339E-14 1.026106E-15 1 84 84 84 255
-0.052928925 0.05792894 -0.125 -3.78339E-14 1.026106E-15 1 84 84 84 255
0.009303819 -0.038572643 -0.125 -3.78339E-14 1.026106E-15 1 199 199 199 255
-0.021427358 -0.050696183 -0.125 -3.78339E-14 1.026106E-15 1 199 199 199 255
0.021427363 -0.050696183 -0.125 -3.78339E-14 1.026106E-15 1 199 199 199 255
-0.009303814 -0.038572643 -0.125 -3.78339E-14 1.026106E-15 1 199 199 199 255
0.009303819 -0.021427363 -0.125 -3.78339E-14 1.026106E-15 1 199 199 199 255
-0.009303814 -0.021427363 -0.125 -3.78339E-14 1.026106E-15 1 199 199 199 255
0.021427363 -0.009303819 -0.125 -3.78339E-14 1.026106E-15 1 199 199 199 255
-0.021427358 -0.009303819 -0.125 -3.78339E-14 1.026106E-15 1 199 199 199 255
0.009303819 0.021427358 -0.125 -3.78339E-14 1.026106E-15 1 199 199 199 255
-0.021427358 0.009303814 -0.125 -3.78339E-14 1.026106E-15 1 199 199 199 255
0.021427363 0.009303814 -0.125 -3.78339E-14 1.026106E-15 1 199 199 199 255
-0.009303814 0.021427358 -0.125 -3.78339E-14 1.026106E-15 1 199 199 199 255
0.009303819 0.03857263 -0.125 -3.78339E-14 1.026106E-15 1 199 199 199 255
-0.009303814 0.03857263 -0.125 -3.78339E-14 1.026106E-15 1 199 199 199 255
0.021427363 0.050696183 -0.125 -3.78339E-14 1.026106E-15 1 199 199 199 255
-0.021427358 0.050696183 -0.125 -3.78339E-14 1.026106E-15 1 199 199 199 255
0.04792894 -0.052928936 -0.125 -3.78339E-14 1.026106E-15 1 199 199 199 255
-0.052928925 -0.057928935 -0.125 -3.78339E-14 1.026106E-15 1 199 199 199 255
0.052928936 -0.057928935 -0.125 -3.78339E-14 1.026106E-15 1 199 199 199 255
-0.047928933 -0.052928936 -0.125 -3.78339E-14 1.026106E-15 1 199 199 199 255
0.038572643 -0.050696183 -0.125 -3.78339E-14 1.026106E-15 1 199 199 199 255
0.052928936 -0.04792894 -0.125 -3.78339E-14 1.026106E-15 1 199 199 199 255
0.050696183 -0.038572643 -0.125 -3.78339E-14 1.026106E-15 1 199 199 199 255
0.075 -0.04500001 -0.125 -3.78339E-14 1.026106E-15 1 199 199 199 255
0.075 0.044999983 -0.125 -3.78339E-14 1.026106E-15 1 199 199 199 255
0.050696183 -0.021427363 -0.125 -3.78339E-14 1.026106E-15 1 199 199 199 255
0.038572643 -0.009303819 -0.125 -3.78339E-14 1.026106E-15 1 199 199 199 255
0.038572643 0.009303814 -0.125 -3.78339E-14 1.026106E-15 1 199 199 199 255
-0.03857263 -0.009303819 -0.125 -3.78339E-14 1.026106E-15 1 199 199 199 255
0.050696183 0.021427358 -0.125 -3.78339E-14 1.026106E-15 1 199 199 199 255
0.050696183 0.03857263 -0.125 -3.78339E-14 1.026106E-15 1 199 199 199 255
0.052928936 0.047928933 -0.125 -3.78339E-14 1.026106E-15 1 199 199 199 255
0.038572643 0.050696183 -0.125 -3.78339E-14 1.026106E-15 1 199 199 199 255
0.04792894 0.052928925 -0.125 -3.78339E-14 1.026106E-15 1 199 199 199 255
-0.03857263 0.050696183 -0.125 -3.78339E-14 1.026106E-15 1 199 199 199 255
0.057928935 0.052928925 -0.125 -3.78339E-14 1.026106E-15 1 199 199 199 255
0.04500001 0.07499999 -0.125 -3.78339E-14 1.026106E-15 1 199 199 199 255
0.052928936 0.05792894 -0.125 -3.78339E-14 1.026106E-15 1 199 199 199 255
-0.052928925 0.05792894 -0.125 -3.78339E-14 1.026106E-15 1 199 199 199 255
-0.07499999 0.044999983 -0.125 -3.78339E-14 1.026106E-15 1 199 199 199 255
-0.05792894 0.052928925 -0.125 -3.78339E-14 1.026106E-15 1 199 199 199 255
-0.044999983 0.07499999 -0.125 -3.78339E-14 1.026106E-15 1 199 199 199 255
-0.052928925 0.047928933 -0.125 -3.78339E-14 1.026106E-15 1 199 199 199 255
-0.03857263 -0.050696183 -0.125 -3.78339E-14 1.026106E-15 1 199 199 199 255
-0.052928925 -0.04792894 -0.125 -3.78339E-14 1.026106E-15 1 199 199 199 255
-0.050696183 -0.038572643 -0.125 -3.78339E-14 1.026106E-15 1 199 199 199 255
-0.07499999 -0.04500001 -0.125 -3.78339E-14 1.026106E-15 1 199 199 199 255
-0.050696183 -0.021427363 -0.125 -3.78339E-14 1.026106E-15 1 199 199 199 255
-0.03857263 0.009303814 -0.125 -3.78339E-14 1.026106E-15 1 199 199 199 255
-0.050696183 0.021427358 -0.125 -3.78339E-14 1.026106E-15 1 199 199 199 255
-0.050696183 0.03857263 -0.125 -3.78339E-14 1.026106E-15 1 199 199 199 255
-0.047928933 0.052928925 -0.125 -3.78339E-14 1.026106E-15 1 199 199 199 255
0.04500001 -0.075 -0.125 -3.78339E-14 1.026106E-15 1 199 199 199 255
-0.044999983 -0.075 -0.125 -3.78339E-14 1.026106E-15 1 199 199 199 255
0.057928935 -0.052928936 -0.125 -3.78339E-14 1.026106E-15 1 199 199 199 255
-0.05792894 -0.052928936 -0.125 -3.78339E-14 1.026106E-15 1 199 199 199 255
0.050696183 0.021427358 -0.115 -3.9149697E-14 2.341903E-15 1 84 84 84 255
0.021427363 0.009303814 -0.115 -3.9149697E-14 2.341903E-15 1 84 84 84 255
0.038572643 0.009303814 -0.115 -3.9149697E-14 2.341903E-15 1 84 84 84 255
0.009303819 0.021427358 -0.115 -3.9149697E-14 2.341903E-15 1 84 84 84 255
0.050696183 0.03857263 -0.115 -3.9149697E-14 2.341903E-15 1 84 84 84 255
0.009303819 0.03857263 -0.115 -3.9149697E-14 2.341903E-15 1 84 84 84 255
0.038572643 0.050696183 -0.115 -3.9149697E-14 2.341903E-15 1 84 84 84 255
0.021427363 0.050696183 -0.115 -3.9149697E-14 2.341903E-15 1 84 84 84 255
0.050696183 0.03857263 -0.125 0.7071069 0.7071066 2.6027042E-14 84 84 84 255
0.038572643 0.050696183 -0.115 0.7071069 0.7071066 2.6027042E-14 84 84 84 255
0.050696183 0.03857263 -0.115 0.7071069 0.7071066 2.6027042E-14 84 84 84 255
0.038572643 0.050696183 -0.125 0.7071069 0.7071066 2.6027042E-14 84 84 84 255
0.021427363 0.050696183 -0.125 3.350253E-14 1 -1.026106E-15 84 84 84 255
0.038572643 0.050696183 -0.115 3.350253E-14 1 -1.026106E-15 84 84 84 255
0.038572643 0.050696183 -0.125 3.350253E-14 1 -1.026106E-15 84 84 84 255
0.021427363 0.050696183 -0.115 3.350253E-14 1 -1.026106E-15 84 84 84 255
0.009303819 0.03857263 -0.125 -0.70710677 0.70710677 -2.7478174E-14 84 84 84 255
0.021427363 0.050696183 -0.115 -0.70710677 0.70710677 -2.7478174E-14 84 84 84 255
0.021427363 0.050696183 -0.125 -0.70710677 0.70710677 -2.7478174E-14 84 84 84 255
0.009303819 0.03857263 -0.115 -0.70710677 0.70710677 -2.7478174E-14 84 84 84 255
0.009303819 0.03857263 -0.115 -1 3.350253E-14 -3.78339E-14 84 84 84 255
0.009303819 0.021427358 -0.125 -1 3.350253E-14 -3.78339E-14 84 84 84 255
0.009303819 0.021427358 -0.115 -1 3.350253E-14 -3.78339E-14 84 84 84 255
0.009303819 0.03857263 -0.125 -1 3.350253E-14 -3.78339E-14 84 84 84 255
0.009303819 0.021427358 -0.115 -0.70710677 -0.70710677 -2.6058694E-14 84 84 84 255
0.021427363 0.009303814 -0.125 -0.70710677 -0.70710677 -2.6058694E-14 84 84 84 255
0.021427363 0.009303814 -0.115 -0.70710677 -0.70710677 -2.6058694E-14 84 84 84 255
0.009303819 0.021427358 -0.125 -0.70710677 -0.70710677 -2.6058694E-14 84 84 84 255
0.021427363 0.009303814 -0.115 -3.350253E-14 -1 1.026106E-15 84 84 84 255
0.038572643 0.009303814 -0.125 -3.350253E-14 -1 1.026106E-15 84 84 84 255
0.038572643 0.009303814 -0.115 -3.350253E-14 -1 1.026106E-15 84 84 84 255
0.021427363 0.009303814 -0.125 -3.350253E-14 -1 1.026106E-15 84 84 84 255
0.038572643 0.009303814 -0.125 0.7071069 -0.7071066 2.7478176E-14 84 84 84 255
0.050696183 0.021427358 -0.115 0.7071069 -0.7071066 2.7478176E-14 84 84 84 255
0.038572643 0.009303814 -0.115 0.7071069 -0.7071066 2.7478176E-14 84 84 84 255
0.050696183 0.021427358 -0.125 0.7071069 -0.7071066 2.7478176E-14 84 84 84 255
0.050696183 0.021427358 -0.125 1 -3.350253E-14 3.78339E-14 84 84 84 255
0.050696183 0.03857263 -0.115 1 -3.350253E-14 3.78339E-14 84 84 84 255
0.050696183 0.021427358 -0.115 1 -3.350253E-14 3.78339E-14 84 84 84 255
0.050696183 0.03857263 -0.125 1 -3.350253E-14 3.78339E-14 84 84 84 255
3 0 1 2
3 1 0 3
3 3 0 4
3 3 4 5
3 5 4 6
3 5 6 7
3 8 9 10
3 9 8 11
3 12 13 14
3 13 12 15
3 16 17 18
3 17 16 19
3 20 21 22
3 21 20 23
3 24 25 26
3 25 24 27
3 28 29 30
3 29 28 31
3 32 33 34
3 33 32 35
3 36 37 38
3 37 36 39
3 40 41 42
3 41 40 43
3 43 40 44
3 43 44 45
3 45 44 46
3 45 46 47
3 48 49 50
3 49 48 51
3 52 53 54
3 53 52 55
3 56 57 58
3 57 56 59
3 60 61 62
3 61 60 63
3 64 65 66
3 65 64 67
3 68 69 70
3 69 68 71
3 72 73 74
3 73 72 75
3 76 77 78
3 77 76 79
3 80 81 82
3 81 80 83
3 83 80 84
3 83 84 85
3 85 84 86
3 85 86 87
3 88 89 90
3 89 88 91
3 92 93 94
3 93 92 95
3 96 97 98
3 97 96 99
3 100 101 102
3 101 100 103
3 104 105 106
3 105 104 107
3 108 109 110
3 109 108 111
3 112 113 114
3 113 112 115
3 116 117 118
3 117 116 119
3 120 121 122
3 121 120 123
3 124 125 126
3 125 124 127
3 128 129 130
3 129 128 131
3 131 128 132
3 132 128 133
3 132 133 134
3 132 134 135
3 135 134 136
3 137 129 131
3 138 139 140
3 139 138 141
3 141 138 142
3 143 144 145
3 144 143 146
3 144 146 147
3 147 146 148
3 149 150 151
3 150 149 152
3 153 154 155
3 154 153 156
3 157 158 159
3 158 157 160
3 161 162 163
3 162 161 164
3 165 166 167
3 166 165 168
3 169 170 171
3 170 169 172
3 172 169 173
3 174 175 176
3 175 174 177
3 178 179 180
3 179 178 181
3 179 181 182
3 183 184 185
3 184 183 186
3 187 188 189
3 188 187 190
3 190 187 191
3 192 193 194
3 193 192 195
3 194 196 197
3 196 194 193
3 198 199 200
3 199 198 201
3 199 201 202
3 202 201 203
3 202 203 204
3 204 203 205
3 205 203 206
3 205 206 207
3 200 208 209
3 208 200 199
3 209 208 210
3 209 210 211
3 211 210 212
3 211 212 207
3 211 207 213
3 213 207 206
3 214 215 216
3 215 214 217
3 218 219 220
3 219 218 221
3 222 223 224
3 223 222 225
3 226 227 228
3 227 226 229
3 229 226 230
3 231 227 229
3 232 233 234
3 233 235 236
3 235 233 232
3 237 238 239
3 238 237 240
3 241 242 243
3 242 241 244
3 245 246 247
3 246 245 248
3 249 250 251
3 250 252 253
3 252 250 249
3 254 255 256
3 255 254 257
3 258 259 260
3 259 258 261
3 262 263 264
3 263 262 265
3 266 267 268
3 267 266 269
3 270 271 272
3 271 270 273
3 274 275 276
3 275 274 277
3 278 279 280
3 279 278 281
3 282 283 284
3 283 282 285
3 286 287 288
3 287 286 289
3 290 291 292
3 291 290 293
3 294 295 296
3 295 294 297
3 298 299 300
3 299 298 301
3 302 303 304
3 303 302 305
3 305 302 306
3 305 306 307
3 307 306 308
3 307 308 309
3 310 311 312
3 311 310 313
3 313 310 314
3 313 314 315
3 315 314 316
3 315 316 317
3 318 319 320
3 319 318 321
3 321 318 322
3 322 318 323
3 322 323 324
3 324 323 325
3 324 325 326
3 324 326 327
3 327 326 328
3 328 326 329
3 328 329 330
3 329 326 331
3 331 326 332
3 332 326 333
3 332 333 334
3 334 333 335
3 334 335 336
3 326 337 333
3 337 326 338
3 337 338 339
3 339 338 340
3 341 342 343
3 342 341 344
3 343 342 340
3 343 340 338
3 321 345 346
3 345 321 322
3 346 345 347
3 346 347 348
3 348 347 341
3 341 347 349
3 341 349 330
3 341 330 350
3 350 330 329
3 341 350 351
3 341 351 352
3 341 352 344
3 344 352 336
3 344 336 353
3 353 336 335
3 353 335 339
3 353 339 340
3 354 320 355
3 320 354 325
3 320 325 356
3 356 325 323
3 355 319 348
3 319 355 320
3 348 319 357
3 348 357 346
3 358 359 360
3 359 358 361
3 361 358 362
3 361 362 363
3 363 362 364
3 363 364 365
3 366 367 368
3 367 366 369
3 370 371 372
3 371 370 373
3 374 375 376
3 375 374 377
3 378 379 380
3 379 378 381
3 382 383 384
3 383 382 385
3 386 387 388
3 387 386 389
3 390 391 392
3 391 390 393
3 394 395 396
3 395 394 397

