ply
format ascii 1.0
commentY29udmVydGVyIGJ5IENvZGVMZW9wYXJk
comment Original mesh name: 'C:\Program Files (x86)\Steam\steamapps\common\Stormworks\rom\meshes\modular_engine_exhaust_manifold_corner.mesh'
comment SubMesh index: 0
comment SubMesh name: 'ID31'
comment Shader: Opaque (0)
element vertex 408
property float x
property float y
property float z
property float nx
property float ny
property float nz
property uchar red
property uchar green
property uchar blue
property uchar alpha
element face 278
property list uchar ushort vertex_index
end_header
0.038572636 -0.009303819 -0.11477174 -3.04196E-14 -2.07898E-15 1 84 84 84 255
0.050696183 -0.03857264 -0.11477174 -3.04196E-14 -2.07898E-15 1 84 84 84 255
0.050696183 -0.021427369 -0.11477174 -3.04196E-14 -2.07898E-15 1 84 84 84 255
0.038572636 -0.05069619 -0.11477174 -3.04196E-14 -2.07898E-15 1 84 84 84 255
0.021427358 -0.009303819 -0.11477174 -3.04196E-14 -2.07898E-15 1 84 84 84 255
0.021427358 -0.05069619 -0.11477174 -3.04196E-14 -2.07898E-15 1 84 84 84 255
0.009303814 -0.021427369 -0.11477174 -3.04196E-14 -2.07898E-15 1 84 84 84 255
0.009303814 -0.03857264 -0.11477174 -3.04196E-14 -2.07898E-15 1 84 84 84 255
0.009303814 -0.03857264 -0.11477174 -0.70710677 -0.70710677 -2.3931196E-14 84 84 84 255
0.021427358 -0.05069619 -0.12477173 -0.70710677 -0.70710677 -2.3931196E-14 84 84 84 255
0.021427358 -0.05069619 -0.11477174 -0.70710677 -0.70710677 -2.3931196E-14 84 84 84 255
0.009303814 -0.03857264 -0.12477173 -0.70710677 -0.70710677 -2.3931196E-14 84 84 84 255
0.038572636 -0.05069619 -0.12477173 -3.157916E-14 -1 -2.2559732E-15 84 84 84 255
0.021427358 -0.05069619 -0.11477174 -3.157916E-14 -1 -2.2559732E-15 84 84 84 255
0.021427358 -0.05069619 -0.12477173 -3.157916E-14 -1 -2.2559732E-15 84 84 84 255
0.038572636 -0.05069619 -0.11477174 -3.157916E-14 -1 -2.2559732E-15 84 84 84 255
0.050696183 -0.03857264 -0.12477173 0.70710677 -0.70710677 2.0734038E-14 84 84 84 255
0.038572636 -0.05069619 -0.11477174 0.70710677 -0.70710677 2.0734038E-14 84 84 84 255
0.038572636 -0.05069619 -0.12477173 0.70710677 -0.70710677 2.0734038E-14 84 84 84 255
0.050696183 -0.03857264 -0.11477174 0.70710677 -0.70710677 2.0734038E-14 84 84 84 255
0.050696183 -0.03857264 -0.12477173 1 -3.157916E-14 3.158362E-14 84 84 84 255
0.050696183 -0.021427369 -0.11477174 1 -3.157916E-14 3.158362E-14 84 84 84 255
0.050696183 -0.03857264 -0.11477174 1 -3.157916E-14 3.158362E-14 84 84 84 255
0.050696183 -0.021427369 -0.12477173 1 -3.157916E-14 3.158362E-14 84 84 84 255
0.038572636 -0.009303819 -0.12477173 0.70710677 0.70710677 2.3108167E-14 84 84 84 255
0.050696183 -0.021427369 -0.11477174 0.70710677 0.70710677 2.3108167E-14 84 84 84 255
0.050696183 -0.021427369 -0.12477173 0.70710677 0.70710677 2.3108167E-14 84 84 84 255
0.038572636 -0.009303819 -0.11477174 0.70710677 0.70710677 2.3108167E-14 84 84 84 255
0.021427358 -0.009303819 -0.11477174 3.223706E-14 1 1.127987E-15 84 84 84 255
0.038572636 -0.009303819 -0.12477173 3.223706E-14 1 1.127987E-15 84 84 84 255
0.021427358 -0.009303819 -0.12477173 3.223706E-14 1 1.127987E-15 84 84 84 255
0.038572636 -0.009303819 -0.11477174 3.223706E-14 1 1.127987E-15 84 84 84 255
0.009303814 -0.021427369 -0.11477174 -0.70710677 0.70710677 -2.1557065E-14 84 84 84 255
0.021427358 -0.009303819 -0.12477173 -0.70710677 0.70710677 -2.1557065E-14 84 84 84 255
0.009303814 -0.021427369 -0.12477173 -0.70710677 0.70710677 -2.1557065E-14 84 84 84 255
0.021427358 -0.009303819 -0.11477174 -0.70710677 0.70710677 -2.1557065E-14 84 84 84 255
0.009303814 -0.021427369 -0.11477174 -1 3.223706E-14 -3.158362E-14 84 84 84 255
0.009303814 -0.03857264 -0.12477173 -1 3.223706E-14 -3.158362E-14 84 84 84 255
0.009303814 -0.03857264 -0.11477174 -1 3.223706E-14 -3.158362E-14 84 84 84 255
0.009303814 -0.021427369 -0.12477173 -1 3.223706E-14 -3.158362E-14 84 84 84 255
-0.021427363 -0.009303819 -0.12477173 -3.1671528E-14 -1.026757E-15 1 199 199 199 255
0.009303814 -0.021427369 -0.12477173 -3.1671528E-14 -1.026757E-15 1 199 199 199 255
0.021427358 -0.009303819 -0.12477173 -3.1671528E-14 -1.026757E-15 1 199 199 199 255
0.009303814 -0.03857264 -0.12477173 -3.1671528E-14 -1.026757E-15 1 199 199 199 255
-0.009303819 -0.021427369 -0.12477173 -3.1671528E-14 -1.026757E-15 1 199 199 199 255
-0.021427363 -0.05069619 -0.12477173 -3.1671528E-14 -1.026757E-15 1 199 199 199 255
0.021427358 -0.05069619 -0.12477173 -3.1671528E-14 -1.026757E-15 1 199 199 199 255
-0.009303819 -0.03857264 -0.12477173 -3.1671528E-14 -1.026757E-15 1 199 199 199 255
0.074999996 -0.04500001 -0.106941745 0 -0 -1 199 199 199 255
0.05792894 -0.052928925 -0.106941745 0 -0 -1 199 199 199 255
0.074999996 0.044999983 -0.106941745 0 -0 -1 199 199 199 255
0.045000006 -0.075 -0.106941745 0 -0 -1 199 199 199 255
0.0625 -0.025888335 -0.106941745 0 -0 -1 199 199 199 255
0.052928917 -0.05792894 -0.106941745 0 -0 -1 199 199 199 255
0.047928933 -0.052928925 -0.106941745 0 -0 -1 199 199 199 255
0.05792894 0.052928925 -0.106941745 0 -0 -1 199 199 199 255
0.045000006 0.07499999 -0.106941745 0 -0 -1 199 199 199 255
0.0625 0.025888335 -0.106941745 0 -0 -1 199 199 199 255
0.052928917 0.057928916 -0.106941745 0 -0 -1 199 199 199 255
0.047928933 0.052928925 -0.106941745 0 -0 -1 199 199 199 255
0.052928917 0.047928933 -0.106941745 0 -0 -1 199 199 199 255
0.025888335 0.062499985 -0.106941745 0 -0 -1 199 199 199 255
-0.044999987 0.07499999 -0.106941745 0 -0 -1 199 199 199 255
-0.02588834 0.062499985 -0.106941745 0 -0 -1 199 199 199 255
-0.04792894 0.052928925 -0.106941745 0 -0 -1 199 199 199 255
-0.062499993 0.025888335 -0.106941745 0 -0 -1 199 199 199 255
-0.052928932 0.047928933 -0.106941745 0 -0 -1 199 199 199 255
-0.057928946 0.052928925 -0.106941745 0 -0 -1 199 199 199 255
-0.044999987 -0.075 -0.106941745 0 -0 -1 199 199 199 255
-0.052928932 -0.05792894 -0.106941745 0 -0 -1 199 199 199 255
-0.04792894 -0.052928925 -0.106941745 0 -0 -1 199 199 199 255
-0.074999996 -0.04500001 -0.106941745 0 -0 -1 199 199 199 255
-0.057928946 -0.052928925 -0.106941745 0 -0 -1 199 199 199 255
-0.062499993 -0.025888335 -0.106941745 0 -0 -1 199 199 199 255
-0.052928932 0.057928916 -0.106941745 0 -0 -1 199 199 199 255
-0.074999996 0.044999983 -0.106941745 0 -0 -1 199 199 199 255
0.052928917 -0.04792894 -0.106941745 0 -0 -1 199 199 199 255
0.025888335 -0.0625 -0.106941745 0 -0 -1 199 199 199 255
-0.02588834 -0.0625 -0.106941745 0 -0 -1 199 199 199 255
-0.052928932 -0.04792894 -0.106941745 0 -0 -1 199 199 199 255
0.052928917 -0.05792894 -0.106941745 0 -0 -1 84 84 84 255
0.052928917 -0.04792894 -0.106941745 0 -0 -1 84 84 84 255
0.05792894 -0.052928925 -0.106941745 0 -0 -1 84 84 84 255
0.047928933 -0.052928925 -0.106941745 0 -0 -1 84 84 84 255
0.044999983 0.07499999 -0.12477173 -1.604248E-14 -1 1.328533E-13 84 84 84 255
-0.044999987 0.07499999 -0.106941745 -1.604248E-14 -1 1.328533E-13 84 84 84 255
-0.04500001 0.07499999 -0.12477173 -1.604248E-14 -1 1.328533E-13 84 84 84 255
0.045000006 0.07499999 -0.106941745 -1.604248E-14 -1 1.328533E-13 84 84 84 255
0.045000006 0.07499999 -0.106941745 -0.70710677 -0.70710677 1.7779737E-13 84 84 84 255
0.074999996 0.045000006 -0.12477173 -0.70710677 -0.70710677 1.7779737E-13 84 84 84 255
0.074999996 0.044999983 -0.106941745 -0.70710677 -0.70710677 1.7779737E-13 84 84 84 255
0.044999983 0.07499999 -0.12477173 -0.70710677 -0.70710677 1.7779737E-13 84 84 84 255
-0.04500001 0.07499999 -0.12477173 0.70710677 -0.70710677 -1.0073209E-06 84 84 84 255
-0.074999996 0.044999983 -0.106941745 0.70710677 -0.70710677 -1.0073209E-06 84 84 84 255
-0.074999996 0.045000006 -0.12477173 0.70710677 -0.70710677 -1.0073209E-06 84 84 84 255
-0.044999987 0.07499999 -0.106941745 0.70710677 -0.70710677 -1.0073209E-06 84 84 84 255
0.074999996 0.044999983 -0.106941745 -1 1.604248E-14 1.1767009E-13 84 84 84 255
0.074999996 -0.044999987 -0.12477173 -1 1.604248E-14 1.1767009E-13 84 84 84 255
0.074999996 -0.04500001 -0.106941745 -1 1.604248E-14 1.1767009E-13 84 84 84 255
0.074999996 0.045000006 -0.12477173 -1 1.604248E-14 1.1767009E-13 84 84 84 255
-0.074999996 -0.044999987 -0.12477173 1 -1.604248E-14 -1.170374E-13 84 84 84 255
-0.074999996 0.044999983 -0.106941745 1 -1.604248E-14 -1.170374E-13 84 84 84 255
-0.074999996 -0.04500001 -0.106941745 1 -1.604248E-14 -1.170374E-13 84 84 84 255
-0.074999996 0.045000006 -0.12477173 1 -1.604248E-14 -1.170374E-13 84 84 84 255
0.045000006 -0.075 -0.106941745 -0.70710677 0.70710677 1.0073209E-06 84 84 84 255
0.074999996 -0.044999987 -0.12477173 -0.70710677 0.70710677 1.0073209E-06 84 84 84 255
0.044999983 -0.075 -0.12477173 -0.70710677 0.70710677 1.0073209E-06 84 84 84 255
0.074999996 -0.04500001 -0.106941745 -0.70710677 0.70710677 1.0073209E-06 84 84 84 255
-0.074999996 -0.044999987 -0.12477173 0.70710677 0.70710677 -1.7704066E-13 84 84 84 255
-0.044999987 -0.075 -0.106941745 0.70710677 0.70710677 -1.7704066E-13 84 84 84 255
-0.04500001 -0.075 -0.12477173 0.70710677 0.70710677 -1.7704066E-13 84 84 84 255
-0.074999996 -0.04500001 -0.106941745 0.70710677 0.70710677 -1.7704066E-13 84 84 84 255
-0.044999987 -0.075 -0.106941745 1.604248E-14 1 -1.341186E-13 84 84 84 255
0.044999983 -0.075 -0.12477173 1.604248E-14 1 -1.341186E-13 84 84 84 255
-0.04500001 -0.075 -0.12477173 1.604248E-14 1 -1.341186E-13 84 84 84 255
0.045000006 -0.075 -0.106941745 1.604248E-14 1 -1.341186E-13 84 84 84 255
-0.052928932 -0.05792894 -0.106941745 0 -0 -1 84 84 84 255
-0.052928932 -0.04792894 -0.106941745 0 -0 -1 84 84 84 255
-0.04792894 -0.052928925 -0.106941745 0 -0 -1 84 84 84 255
-0.057928946 -0.052928925 -0.106941745 0 -0 -1 84 84 84 255
0.052928917 -0.04792894 -0.12477173 -3.158361E-14 -2.255975E-15 1 84 84 84 255
0.052928917 -0.05792894 -0.12477173 -3.158361E-14 -2.255975E-15 1 84 84 84 255
0.05792894 -0.052928925 -0.12477173 -3.158361E-14 -2.255975E-15 1 84 84 84 255
0.047928933 -0.052928925 -0.12477173 -3.158361E-14 -2.255975E-15 1 84 84 84 255
-0.052928932 0.05792894 -0.12477173 -3.158363E-14 -2.255974E-15 1 84 84 84 255
-0.052928932 0.047928933 -0.12477173 -3.158363E-14 -2.255974E-15 1 84 84 84 255
-0.04792894 0.052928925 -0.12477173 -3.158363E-14 -2.255974E-15 1 84 84 84 255
-0.057928946 0.052928925 -0.12477173 -3.158363E-14 -2.255974E-15 1 84 84 84 255
-0.021427363 0.050696183 -0.12477173 -3.176769E-14 -1.123104E-15 1 199 199 199 255
0.009303814 0.03857263 -0.12477173 -3.176769E-14 -1.123104E-15 1 199 199 199 255
0.021427358 0.050696183 -0.12477173 -3.176769E-14 -1.123104E-15 1 199 199 199 255
0.009303814 0.021427358 -0.12477173 -3.176769E-14 -1.123104E-15 1 199 199 199 255
-0.009303819 0.03857263 -0.12477173 -3.176769E-14 -1.123104E-15 1 199 199 199 255
-0.021427363 0.009303808 -0.12477173 -3.176769E-14 -1.123104E-15 1 199 199 199 255
0.021427358 0.009303808 -0.12477173 -3.176769E-14 -1.123104E-15 1 199 199 199 255
-0.009303819 0.021427358 -0.12477173 -3.176769E-14 -1.123104E-15 1 199 199 199 255
-0.052928932 0.047928933 -0.106941745 0 -0 -1 84 84 84 255
-0.052928932 0.057928916 -0.106941745 0 -0 -1 84 84 84 255
-0.04792894 0.052928925 -0.106941745 0 -0 -1 84 84 84 255
-0.057928946 0.052928925 -0.106941745 0 -0 -1 84 84 84 255
0.052928917 0.047928933 -0.106941745 0 -0 -1 84 84 84 255
0.052928917 0.057928916 -0.106941745 0 -0 -1 84 84 84 255
0.05792894 0.052928925 -0.106941745 0 -0 -1 84 84 84 255
0.047928933 0.052928925 -0.106941745 0 -0 -1 84 84 84 255
0.052928917 0.047928933 -0.12477173 -3.187115E-14 -1.216456E-15 1 199 199 199 255
0.05792894 -0.052928925 -0.12477173 -3.187115E-14 -1.216456E-15 1 199 199 199 255
0.05792894 0.052928925 -0.12477173 -3.187115E-14 -1.216456E-15 1 199 199 199 255
0.052928917 -0.04792894 -0.12477173 -3.187115E-14 -1.216456E-15 1 199 199 199 255
0.050696183 0.03857263 -0.12477173 -3.187115E-14 -1.216456E-15 1 199 199 199 255
0.047928933 0.052928925 -0.12477173 -3.187115E-14 -1.216456E-15 1 199 199 199 255
0.038572636 0.050696183 -0.12477173 -3.187115E-14 -1.216456E-15 1 199 199 199 255
0.044999983 0.07499999 -0.12477173 -3.187115E-14 -1.216456E-15 1 199 199 199 255
-0.04500001 0.07499999 -0.12477173 -3.187115E-14 -1.216456E-15 1 199 199 199 255
0.021427358 0.050696183 -0.12477173 -3.187115E-14 -1.216456E-15 1 199 199 199 255
-0.021427363 0.050696183 -0.12477173 -3.187115E-14 -1.216456E-15 1 199 199 199 255
-0.03857264 0.050696183 -0.12477173 -3.187115E-14 -1.216456E-15 1 199 199 199 255
-0.04792894 0.052928925 -0.12477173 -3.187115E-14 -1.216456E-15 1 199 199 199 255
-0.05069619 0.03857263 -0.12477173 -3.187115E-14 -1.216456E-15 1 199 199 199 255
-0.052928932 0.047928933 -0.12477173 -3.187115E-14 -1.216456E-15 1 199 199 199 255
-0.05069619 0.021427358 -0.12477173 -3.187115E-14 -1.216456E-15 1 199 199 199 255
-0.05069619 -0.021427369 -0.12477173 -3.187115E-14 -1.216456E-15 1 199 199 199 255
-0.05069619 -0.03857264 -0.12477173 -3.187115E-14 -1.216456E-15 1 199 199 199 255
-0.052928932 0.05792894 -0.12477173 -3.187115E-14 -1.216456E-15 1 199 199 199 255
-0.074999996 0.045000006 -0.12477173 -3.187115E-14 -1.216456E-15 1 199 199 199 255
-0.057928946 0.052928925 -0.12477173 -3.187115E-14 -1.216456E-15 1 199 199 199 255
-0.057928946 -0.052928925 -0.12477173 -3.187115E-14 -1.216456E-15 1 199 199 199 255
-0.04500001 -0.075 -0.12477173 -3.187115E-14 -1.216456E-15 1 199 199 199 255
-0.052928932 -0.05792894 -0.12477173 -3.187115E-14 -1.216456E-15 1 199 199 199 255
-0.074999996 -0.044999987 -0.12477173 -3.187115E-14 -1.216456E-15 1 199 199 199 255
-0.04792894 -0.052928925 -0.12477173 -3.187115E-14 -1.216456E-15 1 199 199 199 255
0.050696183 -0.03857264 -0.12477173 -3.187115E-14 -1.216456E-15 1 199 199 199 255
0.047928933 -0.052928925 -0.12477173 -3.187115E-14 -1.216456E-15 1 199 199 199 255
0.050696183 0.021427358 -0.12477173 -3.187115E-14 -1.216456E-15 1 199 199 199 255
0.050696183 -0.021427369 -0.12477173 -3.187115E-14 -1.216456E-15 1 199 199 199 255
0.038572636 -0.05069619 -0.12477173 -3.187115E-14 -1.216456E-15 1 199 199 199 255
0.044999983 -0.075 -0.12477173 -3.187115E-14 -1.216456E-15 1 199 199 199 255
0.021427358 -0.05069619 -0.12477173 -3.187115E-14 -1.216456E-15 1 199 199 199 255
-0.021427363 -0.05069619 -0.12477173 -3.187115E-14 -1.216456E-15 1 199 199 199 255
-0.03857264 -0.05069619 -0.12477173 -3.187115E-14 -1.216456E-15 1 199 199 199 255
-0.052928932 -0.04792894 -0.12477173 -3.187115E-14 -1.216456E-15 1 199 199 199 255
0.038572636 0.009303808 -0.12477173 -3.187115E-14 -1.216456E-15 1 199 199 199 255
0.038572636 -0.009303819 -0.12477173 -3.187115E-14 -1.216456E-15 1 199 199 199 255
0.021427358 0.009303808 -0.12477173 -3.187115E-14 -1.216456E-15 1 199 199 199 255
0.021427358 -0.009303819 -0.12477173 -3.187115E-14 -1.216456E-15 1 199 199 199 255
-0.021427363 0.009303808 -0.12477173 -3.187115E-14 -1.216456E-15 1 199 199 199 255
-0.021427363 -0.009303819 -0.12477173 -3.187115E-14 -1.216456E-15 1 199 199 199 255
-0.03857264 0.009303808 -0.12477173 -3.187115E-14 -1.216456E-15 1 199 199 199 255
-0.03857264 -0.009303819 -0.12477173 -3.187115E-14 -1.216456E-15 1 199 199 199 255
0.074999996 0.045000006 -0.12477173 -3.187115E-14 -1.216456E-15 1 199 199 199 255
0.074999996 -0.044999987 -0.12477173 -3.187115E-14 -1.216456E-15 1 199 199 199 255
0.052928917 0.05792894 -0.12477173 -3.187115E-14 -1.216456E-15 1 199 199 199 255
0.052928917 -0.05792894 -0.12477173 -3.187115E-14 -1.216456E-15 1 199 199 199 255
0.052928917 0.05792894 -0.12477173 -3.158361E-14 -9.1907195E-27 1 84 84 84 255
0.052928917 0.047928933 -0.12477173 -3.158361E-14 -9.1907195E-27 1 84 84 84 255
0.05792894 0.052928925 -0.12477173 -3.158361E-14 -9.1907195E-27 1 84 84 84 255
0.047928933 0.052928925 -0.12477173 -3.158361E-14 -9.1907195E-27 1 84 84 84 255
-0.052928932 -0.04792894 -0.12477173 -3.158363E-14 -9.155086E-27 1 84 84 84 255
-0.052928932 -0.05792894 -0.12477173 -3.158363E-14 -9.155086E-27 1 84 84 84 255
-0.04792894 -0.052928925 -0.12477173 -3.158363E-14 -9.155086E-27 1 84 84 84 255
-0.057928946 -0.052928925 -0.12477173 -3.158363E-14 -9.155086E-27 1 84 84 84 255
0.025888335 -0.047334958 0.062728256 -0.70710677 -4.9058854E-18 -0.70710677 199 199 199 255
0.0625 -0.125 0.026116602 -0.70710677 -4.9058854E-18 -0.70710677 199 199 199 255
0.025888335 -0.125 0.062728256 -0.70710677 -4.9058854E-18 -0.70710677 199 199 199 255
0.0625 -0.0625 0.026116602 -0.70710677 -4.9058854E-18 -0.70710677 199 199 199 255
-0.02588834 -0.125 0.062728256 0 -0 -1 199 199 199 255
0.025888335 -0.047334958 0.062728256 0 -0 -1 199 199 199 255
0.025888335 -0.125 0.062728256 0 -0 -1 199 199 199 255
-0.02588834 -0.047334958 0.062728256 0 -0 -1 199 199 199 255
0.025888335 -0.047334958 0.062728256 -0.70710677 -0.49999994 -0.49999994 199 199 199 255
0.0625 0.025888335 -0.062271733 -0.70710677 -0.49999994 -0.49999994 199 199 199 255
0.0625 -0.0625 0.026116602 -0.70710677 -0.49999994 -0.49999994 199 199 199 255
0.025888335 0.062499985 -0.04710669 -0.70710677 -0.49999994 -0.49999994 199 199 199 255
0.0625 -0.0625 0.026116602 -1 -0 -0 199 199 199 255
0.0625 -0.125 -0.025660068 -1 -0 -0 199 199 199 255
0.0625 -0.125 0.026116602 -1 -0 -0 199 199 199 255
0.0625 -0.08394661 -0.025660068 -1 -0 -0 199 199 199 255
0.0625 -0.025888335 -0.083718345 -1 -0 -0 199 199 199 255
0.0625 0.025888335 -0.062271733 -1 -0 -0 199 199 199 255
0.0625 -0.025888335 -0.106941745 -1 -0 -0 199 199 199 255
0.0625 0.025888335 -0.106941745 -1 -0 -0 199 199 199 255
-0.062499993 -0.0625 0.026116602 0.70710677 -1.4717657E-17 -0.70710677 199 199 199 255
-0.02588834 -0.125 0.062728256 0.70710677 -1.4717657E-17 -0.70710677 199 199 199 255
-0.062499993 -0.125 0.026116602 0.70710677 -1.4717657E-17 -0.70710677 199 199 199 255
-0.02588834 -0.047334958 0.062728256 0.70710677 -1.4717657E-17 -0.70710677 199 199 199 255
0.025888335 -0.047334958 0.062728256 0 -0.70710677 -0.70710677 199 199 199 255
-0.02588834 0.062499985 -0.04710669 0 -0.70710677 -0.70710677 199 199 199 255
0.025888335 0.062499985 -0.04710669 0 -0.70710677 -0.70710677 199 199 199 255
-0.02588834 -0.047334958 0.062728256 0 -0.70710677 -0.70710677 199 199 199 255
0.025888335 0.062499985 -0.04710669 -0.70710677 -0.70710677 -0 199 199 199 255
0.0625 0.025888335 -0.106941745 -0.70710677 -0.70710677 -0 199 199 199 255
0.0625 0.025888335 -0.062271733 -0.70710677 -0.70710677 -0 199 199 199 255
0.025888335 0.062499985 -0.106941745 -0.70710677 -0.70710677 -0 199 199 199 255
0.0625 -0.025888335 -0.083718345 -0.70710677 0.70710677 -0 199 199 199 255
0.025888335 -0.0625 -0.106941745 -0.70710677 0.70710677 -0 199 199 199 255
0.025888335 -0.0625 -0.09888336 -0.70710677 0.70710677 -0 199 199 199 255
0.0625 -0.025888335 -0.106941745 -0.70710677 0.70710677 -0 199 199 199 255
0.0625 -0.08394661 -0.025660068 -0.7071067 0.5 0.5000001 199 199 199 255
0.025888335 -0.0625 -0.09888336 -0.7071067 0.5 0.5000001 199 199 199 255
0.025888335 -0.09911166 -0.062271733 -0.7071067 0.5 0.5000001 199 199 199 255
0.0625 -0.025888335 -0.083718345 -0.7071067 0.5 0.5000001 199 199 199 255
0.0625 -0.08394661 -0.025660068 -0.70710677 -0 0.70710677 199 199 199 255
0.025888335 -0.125 -0.062271733 -0.70710677 -0 0.70710677 199 199 199 255
0.0625 -0.125 -0.025660068 -0.70710677 -0 0.70710677 199 199 199 255
0.025888335 -0.09911166 -0.062271733 -0.70710677 -0 0.70710677 199 199 199 255
-0.062499993 0.025888335 -0.106941745 1 -0 -0 199 199 199 255
-0.062499993 -0.025888335 -0.083718345 1 -0 -0 199 199 199 255
-0.062499993 -0.025888335 -0.106941745 1 -0 -0 199 199 199 255
-0.062499993 -0.08394661 -0.025660068 1 -0 -0 199 199 199 255
-0.062499993 -0.125 0.026116602 1 -0 -0 199 199 199 255
-0.062499993 -0.125 -0.025660068 1 -0 -0 199 199 199 255
-0.062499993 -0.0625 0.026116602 1 -0 -0 199 199 199 255
-0.062499993 0.025888335 -0.062271733 1 -0 -0 199 199 199 255
-0.062499993 0.025888335 -0.062271733 0.70710677 -0.49999994 -0.49999994 199 199 199 255
-0.02588834 -0.047334958 0.062728256 0.70710677 -0.49999994 -0.49999994 199 199 199 255
-0.062499993 -0.0625 0.026116602 0.70710677 -0.49999994 -0.49999994 199 199 199 255
-0.02588834 0.062499985 -0.04710669 0.70710677 -0.49999994 -0.49999994 199 199 199 255
0.025888335 0.062499985 -0.04710669 0 -1 -0 199 199 199 255
-0.02588834 0.062499985 -0.106941745 0 -1 -0 199 199 199 255
0.025888335 0.062499985 -0.106941745 0 -1 -0 199 199 199 255
-0.02588834 0.062499985 -0.04710669 0 -1 -0 199 199 199 255
-0.02588834 -0.0625 -0.09888336 0 1 -0 199 199 199 255
0.025888335 -0.0625 -0.106941745 0 1 -0 199 199 199 255
-0.02588834 -0.0625 -0.106941745 0 1 -0 199 199 199 255
0.025888335 -0.0625 -0.09888336 0 1 -0 199 199 199 255
-0.02588834 -0.0625 -0.09888336 0 0.7071065 0.707107 199 199 199 255
0.025888335 -0.09911166 -0.062271733 0 0.7071065 0.707107 199 199 199 255
0.025888335 -0.0625 -0.09888336 0 0.7071065 0.707107 199 199 199 255
-0.02588834 -0.09911166 -0.062271733 0 0.7071065 0.707107 199 199 199 255
-0.02588834 -0.09911166 -0.062271733 0 -0 1 199 199 199 255
0.025888335 -0.125 -0.062271733 0 -0 1 199 199 199 255
0.025888335 -0.09911166 -0.062271733 0 -0 1 199 199 199 255
-0.02588834 -0.125 -0.062271733 0 -0 1 199 199 199 255
-0.02588834 -0.0625 -0.09888336 0.7071067 0.5 0.5000001 199 199 199 255
-0.062499993 -0.08394661 -0.025660068 0.7071067 0.5 0.5000001 199 199 199 255
-0.02588834 -0.09911166 -0.062271733 0.7071067 0.5 0.5000001 199 199 199 255
-0.062499993 -0.025888335 -0.083718345 0.7071067 0.5 0.5000001 199 199 199 255
-0.062499993 -0.025888335 -0.106941745 0.70710677 0.70710677 2.4205608E-16 199 199 199 255
-0.02588834 -0.0625 -0.09888336 0.70710677 0.70710677 2.4205608E-16 199 199 199 255
-0.02588834 -0.0625 -0.106941745 0.70710677 0.70710677 2.4205608E-16 199 199 199 255
-0.062499993 -0.025888335 -0.083718345 0.70710677 0.70710677 2.4205608E-16 199 199 199 255
-0.02588834 0.062499985 -0.106941745 0.70710677 -0.70710677 -0 199 199 199 255
-0.062499993 0.025888335 -0.062271733 0.70710677 -0.70710677 -0 199 199 199 255
-0.062499993 0.025888335 -0.106941745 0.70710677 -0.70710677 -0 199 199 199 255
-0.02588834 0.062499985 -0.04710669 0.70710677 -0.70710677 -0 199 199 199 255
-0.02588834 -0.09911166 -0.062271733 0.70710677 2.0697697E-17 0.70710677 199 199 199 255
-0.062499993 -0.125 -0.025660068 0.70710677 2.0697697E-17 0.70710677 199 199 199 255
-0.02588834 -0.125 -0.062271733 0.70710677 2.0697697E-17 0.70710677 199 199 199 255
-0.062499993 -0.08394661 -0.025660068 0.70710677 2.0697697E-17 0.70710677 199 199 199 255
-0.05069619 0.021427358 -0.11477174 -0.7071069 -0.7071066 -2.351968E-14 84 84 84 255
-0.03857264 0.009303808 -0.12477173 -0.7071069 -0.7071066 -2.351968E-14 84 84 84 255
-0.03857264 0.009303808 -0.11477174 -0.7071069 -0.7071066 -2.351968E-14 84 84 84 255
-0.05069619 0.021427358 -0.12477173 -0.7071069 -0.7071066 -2.351968E-14 84 84 84 255
-0.05069619 0.03857263 -0.11477174 -1 3.2072587E-14 -3.186562E-14 84 84 84 255
-0.05069619 0.021427358 -0.12477173 -1 3.2072587E-14 -3.186562E-14 84 84 84 255
-0.05069619 0.021427358 -0.11477174 -1 3.2072587E-14 -3.186562E-14 84 84 84 255
-0.05069619 0.03857263 -0.12477173 -1 3.2072587E-14 -3.186562E-14 84 84 84 255
-0.021427363 0.009303808 -0.12477173 -3.157916E-14 -1 -1.127987E-15 84 84 84 255
-0.03857264 0.009303808 -0.11477174 -3.157916E-14 -1 -1.127987E-15 84 84 84 255
-0.03857264 0.009303808 -0.12477173 -3.157916E-14 -1 -1.127987E-15 84 84 84 255
-0.021427363 0.009303808 -0.11477174 -3.157916E-14 -1 -1.127987E-15 84 84 84 255
-0.021427363 0.050696183 -0.11477174 -3.112426E-14 -3.0093912E-15 1 84 84 84 255
-0.009303819 0.021427358 -0.11477174 -3.112426E-14 -3.0093912E-15 1 84 84 84 255
-0.009303819 0.03857263 -0.11477174 -3.112426E-14 -3.0093912E-15 1 84 84 84 255
-0.021427363 0.009303808 -0.11477174 -3.112426E-14 -3.0093912E-15 1 84 84 84 255
-0.03857264 0.050696183 -0.11477174 -3.112426E-14 -3.0093912E-15 1 84 84 84 255
-0.03857264 0.009303808 -0.11477174 -3.112426E-14 -3.0093912E-15 1 84 84 84 255
-0.05069619 0.03857263 -0.11477174 -3.112426E-14 -3.0093912E-15 1 84 84 84 255
-0.05069619 0.021427358 -0.11477174 -3.112426E-14 -3.0093912E-15 1 84 84 84 255
-0.05069619 0.03857263 -0.11477174 -0.70710677 0.70710677 -2.1746997E-14 84 84 84 255
-0.03857264 0.050696183 -0.12477173 -0.70710677 0.70710677 -2.1746997E-14 84 84 84 255
-0.05069619 0.03857263 -0.12477173 -0.70710677 0.70710677 -2.1746997E-14 84 84 84 255
-0.03857264 0.050696183 -0.11477174 -0.70710677 0.70710677 -2.1746997E-14 84 84 84 255
-0.009303819 0.021427358 -0.12477173 0.70710677 -0.70710677 2.1525418E-14 84 84 84 255
-0.021427363 0.009303808 -0.11477174 0.70710677 -0.70710677 2.1525418E-14 84 84 84 255
-0.021427363 0.009303808 -0.12477173 0.70710677 -0.70710677 2.1525418E-14 84 84 84 255
-0.009303819 0.021427358 -0.11477174 0.70710677 -0.70710677 2.1525418E-14 84 84 84 255
-0.009303819 0.03857263 -0.12477173 1 -3.157916E-14 3.158362E-14 84 84 84 255
-0.009303819 0.021427358 -0.11477174 1 -3.157916E-14 3.158362E-14 84 84 84 255
-0.009303819 0.021427358 -0.12477173 1 -3.157916E-14 3.158362E-14 84 84 84 255
-0.009303819 0.03857263 -0.11477174 1 -3.157916E-14 3.158362E-14 84 84 84 255
-0.021427363 0.050696183 -0.11477174 0.7071066 0.7071069 2.3139829E-14 84 84 84 255
-0.009303819 0.03857263 -0.12477173 0.7071066 0.7071069 2.3139829E-14 84 84 84 255
-0.021427363 0.050696183 -0.12477173 0.7071066 0.7071069 2.3139829E-14 84 84 84 255
-0.009303819 0.03857263 -0.11477174 0.7071066 0.7071069 2.3139829E-14 84 84 84 255
-0.03857264 0.050696183 -0.11477174 3.223706E-14 1 1.127987E-15 84 84 84 255
-0.021427363 0.050696183 -0.12477173 3.223706E-14 1 1.127987E-15 84 84 84 255
-0.03857264 0.050696183 -0.12477173 3.223706E-14 1 1.127987E-15 84 84 84 255
-0.021427363 0.050696183 -0.11477174 3.223706E-14 1 1.127987E-15 84 84 84 255
-0.03857264 -0.009303819 -0.11477174 -0.7071069 0.7071066 -2.1968579E-14 84 84 84 255
-0.05069619 -0.021427369 -0.12477173 -0.7071069 0.7071066 -2.1968579E-14 84 84 84 255
-0.05069619 -0.021427369 -0.11477174 -0.7071069 0.7071066 -2.1968579E-14 84 84 84 255
-0.03857264 -0.009303819 -0.12477173 -0.7071069 0.7071066 -2.1968579E-14 84 84 84 255
-0.03857264 -0.009303819 -0.11477174 3.157916E-14 1 1.127987E-15 84 84 84 255
-0.021427363 -0.009303819 -0.12477173 3.157916E-14 1 1.127987E-15 84 84 84 255
-0.03857264 -0.009303819 -0.12477173 3.157916E-14 1 1.127987E-15 84 84 84 255
-0.021427363 -0.009303819 -0.11477174 3.157916E-14 1 1.127987E-15 84 84 84 255
-0.05069619 -0.021427369 -0.11477174 -1 3.1908107E-14 -3.2147618E-14 84 84 84 255
-0.05069619 -0.03857264 -0.12477173 -1 3.1908107E-14 -3.2147618E-14 84 84 84 255
-0.05069619 -0.03857264 -0.11477174 -1 3.1908107E-14 -3.2147618E-14 84 84 84 255
-0.05069619 -0.021427369 -0.12477173 -1 3.1908107E-14 -3.2147618E-14 84 84 84 255
-0.021427363 -0.009303819 -0.11477174 -3.057924E-14 -2.4643678E-15 1 84 84 84 255
-0.009303819 -0.03857264 -0.11477174 -3.057924E-14 -2.4643678E-15 1 84 84 84 255
-0.009303819 -0.021427369 -0.11477174 -3.057924E-14 -2.4643678E-15 1 84 84 84 255
-0.021427363 -0.05069619 -0.11477174 -3.057924E-14 -2.4643678E-15 1 84 84 84 255
-0.03857264 -0.009303819 -0.11477174 -3.057924E-14 -2.4643678E-15 1 84 84 84 255
-0.03857264 -0.05069619 -0.11477174 -3.057924E-14 -2.4643678E-15 1 84 84 84 255
-0.05069619 -0.021427369 -0.11477174 -3.057924E-14 -2.4643678E-15 1 84 84 84 255
-0.05069619 -0.03857264 -0.11477174 -3.057924E-14 -2.4643678E-15 1 84 84 84 255
-0.009303819 -0.021427369 -0.12477173 0.70710677 0.70710677 2.3139819E-14 84 84 84 255
-0.021427363 -0.009303819 -0.11477174 0.70710677 0.70710677 2.3139819E-14 84 84 84 255
-0.009303819 -0.021427369 -0.11477174 0.70710677 0.70710677 2.3139819E-14 84 84 84 255
-0.021427363 -0.009303819 -0.12477173 0.70710677 0.70710677 2.3139819E-14 84 84 84 255
-0.05069619 -0.03857264 -0.11477174 -0.7071069 -0.7071066 -2.4279398E-14 84 84 84 255
-0.03857264 -0.05069619 -0.12477173 -0.7071069 -0.7071066 -2.4279398E-14 84 84 84 255
-0.03857264 -0.05069619 -0.11477174 -0.7071069 -0.7071066 -2.4279398E-14 84 84 84 255
-0.05069619 -0.03857264 -0.12477173 -0.7071069 -0.7071066 -2.4279398E-14 84 84 84 255
-0.021427363 -0.05069619 -0.12477173 -3.157916E-14 -1 -2.2559732E-15 84 84 84 255
-0.03857264 -0.05069619 -0.11477174 -3.157916E-14 -1 -2.2559732E-15 84 84 84 255
-0.03857264 -0.05069619 -0.12477173 -3.157916E-14 -1 -2.2559732E-15 84 84 84 255
-0.021427363 -0.05069619 -0.11477174 -3.157916E-14 -1 -2.2559732E-15 84 84 84 255
-0.009303819 -0.03857264 -0.12477173 0.70710677 -0.70710677 2.0765697E-14 84 84 84 255
-0.021427363 -0.05069619 -0.11477174 0.70710677 -0.70710677 2.0765697E-14 84 84 84 255
-0.021427363 -0.05069619 -0.12477173 0.70710677 -0.70710677 2.0765697E-14 84 84 84 255
-0.009303819 -0.03857264 -0.11477174 0.70710677 -0.70710677 2.0765697E-14 84 84 84 255
-0.009303819 -0.03857264 -0.12477173 1 -3.223706E-14 3.158362E-14 84 84 84 255
-0.009303819 -0.021427369 -0.11477174 1 -3.223706E-14 3.158362E-14 84 84 84 255
-0.009303819 -0.03857264 -0.11477174 1 -3.223706E-14 3.158362E-14 84 84 84 255
-0.009303819 -0.021427369 -0.12477173 1 -3.223706E-14 3.158362E-14 84 84 84 255
0.021427358 0.050696183 -0.11477174 3.1908107E-14 1 1.127987E-15 84 84 84 255
0.038572636 0.050696183 -0.12477173 3.1908107E-14 1 1.127987E-15 84 84 84 255
0.021427358 0.050696183 -0.12477173 3.1908107E-14 1 1.127987E-15 84 84 84 255
0.038572636 0.050696183 -0.11477174 3.1908107E-14 1 1.127987E-15 84 84 84 255
0.038572636 0.050696183 -0.11477174 -3.0964628E-14 -1.5339589E-15 1 84 84 84 255
0.050696183 0.021427358 -0.11477174 -3.0964628E-14 -1.5339589E-15 1 84 84 84 255
0.050696183 0.03857263 -0.11477174 -3.0964628E-14 -1.5339589E-15 1 84 84 84 255
0.038572636 0.009303808 -0.11477174 -3.0964628E-14 -1.5339589E-15 1 84 84 84 255
0.021427358 0.050696183 -0.11477174 -3.0964628E-14 -1.5339589E-15 1 84 84 84 255
0.021427358 0.009303808 -0.11477174 -3.0964628E-14 -1.5339589E-15 1 84 84 84 255
0.009303814 0.03857263 -0.11477174 -3.0964628E-14 -1.5339589E-15 1 84 84 84 255
0.009303814 0.021427358 -0.11477174 -3.0964628E-14 -1.5339589E-15 1 84 84 84 255
0.038572636 0.050696183 -0.11477174 0.7071066 0.7071069 2.3108179E-14 84 84 84 255
0.050696183 0.03857263 -0.12477173 0.7071066 0.7071069 2.3108179E-14 84 84 84 255
0.038572636 0.050696183 -0.12477173 0.7071066 0.7071069 2.3108179E-14 84 84 84 255
0.050696183 0.03857263 -0.11477174 0.7071066 0.7071069 2.3108179E-14 84 84 84 255
0.009303814 0.03857263 -0.11477174 -0.7071066 0.7071069 -2.1493771E-14 84 84 84 255
0.021427358 0.050696183 -0.12477173 -0.7071066 0.7071069 -2.1493771E-14 84 84 84 255
0.009303814 0.03857263 -0.12477173 -0.7071066 0.7071069 -2.1493771E-14 84 84 84 255
0.021427358 0.050696183 -0.11477174 -0.7071066 0.7071069 -2.1493771E-14 84 84 84 255
0.009303814 0.021427358 -0.11477174 -0.70710677 -0.70710677 -2.3139819E-14 84 84 84 255
0.021427358 0.009303808 -0.12477173 -0.70710677 -0.70710677 -2.3139819E-14 84 84 84 255
0.021427358 0.009303808 -0.11477174 -0.70710677 -0.70710677 -2.3139819E-14 84 84 84 255
0.009303814 0.021427358 -0.12477173 -0.70710677 -0.70710677 -2.3139819E-14 84 84 84 255
0.038572636 0.009303808 -0.12477173 -3.223706E-14 -1 -1.127987E-15 84 84 84 255
0.021427358 0.009303808 -0.11477174 -3.223706E-14 -1 -1.127987E-15 84 84 84 255
0.021427358 0.009303808 -0.12477173 -3.223706E-14 -1 -1.127987E-15 84 84 84 255
0.038572636 0.009303808 -0.11477174 -3.223706E-14 -1 -1.127987E-15 84 84 84 255
0.050696183 0.021427358 -0.12477173 0.70710677 -0.70710677 2.1557065E-14 84 84 84 255
0.038572636 0.009303808 -0.11477174 0.70710677 -0.70710677 2.1557065E-14 84 84 84 255
0.038572636 0.009303808 -0.12477173 0.70710677 -0.70710677 2.1557065E-14 84 84 84 255
0.050696183 0.021427358 -0.11477174 0.70710677 -0.70710677 2.1557065E-14 84 84 84 255
0.050696183 0.021427358 -0.12477173 1 -3.157916E-14 3.158362E-14 84 84 84 255
0.050696183 0.03857263 -0.11477174 1 -3.157916E-14 3.158362E-14 84 84 84 255
0.050696183 0.021427358 -0.11477174 1 -3.157916E-14 3.158362E-14 84 84 84 255
0.050696183 0.03857263 -0.12477173 1 -3.157916E-14 3.158362E-14 84 84 84 255
0.009303814 0.03857263 -0.11477174 -1 3.157916E-14 -3.158362E-14 84 84 84 255
0.009303814 0.021427358 -0.12477173 -1 3.157916E-14 -3.158362E-14 84 84 84 255
0.009303814 0.021427358 -0.11477174 -1 3.157916E-14 -3.158362E-14 84 84 84 255
0.009303814 0.03857263 -0.12477173 -1 3.157916E-14 -3.158362E-14 84 84 84 255
3 0 1 2
3 1 0 3
3 3 0 4
3 3 4 5
3 5 4 6
3 5 6 7
3 8 9 10
3 9 8 11
3 12 13 14
3 13 12 15
3 16 17 18
3 17 16 19
3 20 21 22
3 21 20 23
3 24 25 26
3 25 24 27
3 28 29 30
3 29 28 31
3 32 33 34
3 33 32 35
3 36 37 38
3 37 36 39
3 40 41 42
3 41 40 43
3 43 40 44
3 43 45 46
3 45 43 47
3 47 43 44
3 48 49 50
3 49 48 51
3 50 49 52
3 49 51 53
3 53 51 54
3 50 55 56
3 55 50 57
3 57 50 52
3 56 55 58
3 56 58 59
3 57 60 55
3 60 57 61
3 60 61 59
3 59 61 56
3 56 61 62
3 62 61 63
3 62 63 64
3 64 63 65
3 64 65 66
3 66 65 67
3 68 69 70
3 69 68 71
3 69 71 72
3 72 71 73
3 73 71 65
3 62 74 75
3 74 62 64
3 75 74 67
3 75 67 65
3 75 65 71
3 52 76 77
3 76 52 49
3 77 76 54
3 77 54 51
3 77 51 68
3 77 68 78
3 78 68 70
3 78 70 73
3 73 70 79
3 73 79 72
3 80 81 82
3 81 80 83
3 84 85 86
3 85 84 87
3 88 89 90
3 89 88 91
3 92 93 94
3 93 92 95
3 96 97 98
3 97 96 99
3 100 101 102
3 101 100 103
3 104 105 106
3 105 104 107
3 108 109 110
3 109 108 111
3 112 113 114
3 113 112 115
3 116 117 118
3 117 116 119
3 120 121 122
3 121 120 123
3 124 125 126
3 125 124 127
3 128 129 130
3 129 128 131
3 131 128 132
3 131 133 134
3 133 131 135
3 135 131 132
3 136 137 138
3 137 136 139
3 140 141 142
3 141 140 143
3 144 145 146
3 145 144 147
3 147 144 148
3 148 144 149
3 148 149 150
3 150 149 151
3 150 151 152
3 150 152 153
3 153 152 154
3 154 152 155
3 155 152 156
3 155 156 157
3 157 156 158
3 157 158 159
3 159 158 160
3 160 158 161
3 152 162 156
3 162 152 163
3 162 163 164
3 164 163 165
3 166 167 168
3 167 166 169
3 168 167 165
3 168 165 163
3 147 170 171
3 170 147 172
3 172 147 148
3 170 172 173
3 171 170 174
3 171 174 175
3 175 174 166
3 166 174 176
3 166 176 177
3 166 177 178
3 166 178 169
3 169 178 161
3 169 161 179
3 179 161 158
3 179 158 164
3 179 164 165
3 180 173 172
3 173 180 181
3 181 180 182
3 181 182 183
3 183 182 184
3 183 184 185
3 185 184 186
3 185 186 187
3 187 186 159
3 187 159 160
3 188 146 189
3 146 188 151
3 146 151 190
3 190 151 149
3 189 145 175
3 145 189 146
3 175 145 191
3 175 191 171
3 192 193 194
3 193 192 195
3 196 197 198
3 197 196 199
3 200 201 202
3 201 200 203
3 204 205 206
3 205 204 207
3 208 209 210
3 209 208 211
3 212 213 214
3 213 212 215
3 215 212 216
3 216 212 217
3 216 217 218
3 218 217 219
3 220 221 222
3 221 220 223
3 224 225 226
3 225 224 227
3 228 229 230
3 229 228 231
3 232 233 234
3 233 232 235
3 236 237 238
3 237 236 239
3 240 241 242
3 241 240 243
3 244 245 246
3 247 248 249
3 248 247 250
3 250 247 245
3 250 245 251
3 251 245 244
3 252 253 254
3 253 252 255
3 256 257 258
3 257 256 259
3 260 261 262
3 261 260 263
3 264 265 266
3 265 264 267
3 268 269 270
3 269 268 271
3 272 273 274
3 273 272 275
3 276 277 278
3 277 276 279
3 280 281 282
3 281 280 283
3 284 285 286
3 285 284 287
3 288 289 290
3 289 288 291
3 292 293 294
3 293 292 295
3 296 297 298
3 297 296 299
3 300 301 302
3 301 300 303
3 303 300 304
3 303 304 305
3 305 304 306
3 305 306 307
3 308 309 310
3 309 308 311
3 312 313 314
3 313 312 315
3 316 317 318
3 317 316 319
3 320 321 322
3 321 320 323
3 324 325 326
3 325 324 327
3 328 329 330
3 329 328 331
3 332 333 334
3 333 332 335
3 336 337 338
3 337 336 339
3 340 341 342
3 341 340 343
3 343 340 344
3 343 344 345
3 345 344 346
3 345 346 347
3 348 349 350
3 349 348 351
3 352 353 354
3 353 352 355
3 356 357 358
3 357 356 359
3 360 361 362
3 361 360 363
3 364 365 366
3 365 364 367
3 368 369 370
3 369 368 371
3 372 373 374
3 373 372 375
3 375 372 376
3 375 376 377
3 377 376 378
3 377 378 379
3 380 381 382
3 381 380 383
3 384 385 386
3 385 384 387
3 388 389 390
3 389 388 391
3 392 393 394
3 393 392 395
3 396 397 398
3 397 396 399
3 400 401 402
3 401 400 403
3 404 405 406
3 405 404 407

