ply
format ascii 1.0
commentY29udmVydGVyIGJ5IENvZGVMZW9wYXJk
comment Original mesh name: 'C:\Program Files (x86)\Steam\steamapps\common\Stormworks\rom\meshes\modular_engine_exhaust_manifold_t.mesh'
comment SubMesh index: 0
comment SubMesh name: 'ID43'
comment Shader: Opaque (0)
element vertex 432
property float x
property float y
property float z
property float nx
property float ny
property float nz
property uchar red
property uchar green
property uchar blue
property uchar alpha
element face 294
property list uchar ushort vertex_index
end_header
0.052928917 -0.057928964 -0.106941745 0 -0 -1 84 84 84 255
0.052928917 -0.047928963 -0.106941745 0 -0 -1 84 84 84 255
0.05792894 -0.052928947 -0.106941745 0 -0 -1 84 84 84 255
0.047928933 -0.052928947 -0.106941745 0 -0 -1 84 84 84 255
-0.052928932 -0.057928964 -0.106941745 0 -0 -1 84 84 84 255
-0.052928932 -0.047928963 -0.106941745 0 -0 -1 84 84 84 255
-0.04792894 -0.052928947 -0.106941745 0 -0 -1 84 84 84 255
-0.057928946 -0.052928947 -0.106941745 0 -0 -1 84 84 84 255
-0.052928932 0.04792891 -0.106941745 0 -0 -1 84 84 84 255
-0.052928932 0.057928894 -0.106941745 0 -0 -1 84 84 84 255
-0.04792894 0.052928902 -0.106941745 0 -0 -1 84 84 84 255
-0.057928946 0.052928902 -0.106941745 0 -0 -1 84 84 84 255
0.025888335 -0.06250002 -0.106941745 0 -0 -1 84 84 84 255
0.0625 0.02588831 -0.106941745 0 -0 -1 84 84 84 255
0.0625 -0.025888357 -0.106941745 0 -0 -1 84 84 84 255
0.025888335 0.062499963 -0.106941745 0 -0 -1 84 84 84 255
-0.02588834 -0.06250002 -0.106941745 0 -0 -1 84 84 84 255
-0.02588834 0.062499963 -0.106941745 0 -0 -1 84 84 84 255
-0.062499993 -0.025888357 -0.106941745 0 -0 -1 84 84 84 255
-0.062499993 0.02588831 -0.106941745 0 -0 -1 84 84 84 255
0.074999996 -0.045000035 -0.106941745 0 -0 -1 199 199 199 255
0.05792894 -0.052928947 -0.106941745 0 -0 -1 199 199 199 255
0.074999996 0.044999957 -0.106941745 0 -0 -1 199 199 199 255
0.045000006 -0.075000025 -0.106941745 0 -0 -1 199 199 199 255
0.0625 -0.025888357 -0.106941745 0 -0 -1 199 199 199 255
0.052928917 -0.057928964 -0.106941745 0 -0 -1 199 199 199 255
0.047928933 -0.052928947 -0.106941745 0 -0 -1 199 199 199 255
0.05792894 0.052928902 -0.106941745 0 -0 -1 199 199 199 255
0.045000006 0.074999966 -0.106941745 0 -0 -1 199 199 199 255
0.0625 0.02588831 -0.106941745 0 -0 -1 199 199 199 255
0.052928917 0.057928894 -0.106941745 0 -0 -1 199 199 199 255
0.047928933 0.052928902 -0.106941745 0 -0 -1 199 199 199 255
0.052928917 0.04792891 -0.106941745 0 -0 -1 199 199 199 255
0.025888335 0.062499963 -0.106941745 0 -0 -1 199 199 199 255
-0.044999987 0.074999966 -0.106941745 0 -0 -1 199 199 199 255
-0.02588834 0.062499963 -0.106941745 0 -0 -1 199 199 199 255
-0.04792894 0.052928902 -0.106941745 0 -0 -1 199 199 199 255
-0.062499993 0.02588831 -0.106941745 0 -0 -1 199 199 199 255
-0.052928932 0.04792891 -0.106941745 0 -0 -1 199 199 199 255
-0.057928946 0.052928902 -0.106941745 0 -0 -1 199 199 199 255
-0.044999987 -0.075000025 -0.106941745 0 -0 -1 199 199 199 255
-0.052928932 -0.057928964 -0.106941745 0 -0 -1 199 199 199 255
-0.04792894 -0.052928947 -0.106941745 0 -0 -1 199 199 199 255
-0.074999996 -0.045000035 -0.106941745 0 -0 -1 199 199 199 255
-0.057928946 -0.052928947 -0.106941745 0 -0 -1 199 199 199 255
-0.062499993 -0.025888357 -0.106941745 0 -0 -1 199 199 199 255
-0.052928932 0.057928894 -0.106941745 0 -0 -1 199 199 199 255
-0.074999996 0.044999957 -0.106941745 0 -0 -1 199 199 199 255
0.052928917 -0.047928963 -0.106941745 0 -0 -1 199 199 199 255
0.025888335 -0.06250002 -0.106941745 0 -0 -1 199 199 199 255
-0.02588834 -0.06250002 -0.106941745 0 -0 -1 199 199 199 255
-0.052928932 -0.047928963 -0.106941745 0 -0 -1 199 199 199 255
0.052928917 -0.047928963 -0.12477173 -3.15836E-14 -2.2559691E-15 1 84 84 84 255
0.052928917 -0.057928964 -0.12477173 -3.15836E-14 -2.2559691E-15 1 84 84 84 255
0.05792894 -0.052928947 -0.12477173 -3.15836E-14 -2.2559691E-15 1 84 84 84 255
0.047928933 -0.052928947 -0.12477173 -3.15836E-14 -2.2559691E-15 1 84 84 84 255
-0.021427363 -0.009303843 -0.12477173 -3.201829E-14 -1.123104E-15 1 199 199 199 255
0.009303814 -0.021427393 -0.12477173 -3.201829E-14 -1.123104E-15 1 199 199 199 255
0.021427358 -0.009303843 -0.12477173 -3.201829E-14 -1.123104E-15 1 199 199 199 255
0.009303814 -0.03857266 -0.12477173 -3.201829E-14 -1.123104E-15 1 199 199 199 255
-0.009303819 -0.021427393 -0.12477173 -3.201829E-14 -1.123104E-15 1 199 199 199 255
-0.021427363 -0.050696213 -0.12477173 -3.201829E-14 -1.123104E-15 1 199 199 199 255
0.021427358 -0.050696213 -0.12477173 -3.201829E-14 -1.123104E-15 1 199 199 199 255
-0.009303819 -0.03857266 -0.12477173 -3.201829E-14 -1.123104E-15 1 199 199 199 255
0.052928917 0.04792891 -0.12477173 -3.2048088E-14 -1.216456E-15 1 199 199 199 255
0.05792894 -0.052928947 -0.12477173 -3.2048088E-14 -1.216456E-15 1 199 199 199 255
0.05792894 0.052928902 -0.12477173 -3.2048088E-14 -1.216456E-15 1 199 199 199 255
0.052928917 -0.047928963 -0.12477173 -3.2048088E-14 -1.216456E-15 1 199 199 199 255
0.050696183 0.03857261 -0.12477173 -3.2048088E-14 -1.216456E-15 1 199 199 199 255
0.047928933 0.052928902 -0.12477173 -3.2048088E-14 -1.216456E-15 1 199 199 199 255
0.038572636 0.05069616 -0.12477173 -3.2048088E-14 -1.216456E-15 1 199 199 199 255
0.044999983 0.074999966 -0.12477173 -3.2048088E-14 -1.216456E-15 1 199 199 199 255
-0.04500001 0.074999966 -0.12477173 -3.2048088E-14 -1.216456E-15 1 199 199 199 255
0.021427358 0.05069616 -0.12477173 -3.2048088E-14 -1.216456E-15 1 199 199 199 255
-0.021427363 0.05069616 -0.12477173 -3.2048088E-14 -1.216456E-15 1 199 199 199 255
-0.03857264 0.05069616 -0.12477173 -3.2048088E-14 -1.216456E-15 1 199 199 199 255
-0.04792894 0.052928902 -0.12477173 -3.2048088E-14 -1.216456E-15 1 199 199 199 255
-0.05069619 0.03857261 -0.12477173 -3.2048088E-14 -1.216456E-15 1 199 199 199 255
-0.052928932 0.04792891 -0.12477173 -3.2048088E-14 -1.216456E-15 1 199 199 199 255
-0.05069619 0.021427333 -0.12477173 -3.2048088E-14 -1.216456E-15 1 199 199 199 255
-0.05069619 -0.021427393 -0.12477173 -3.2048088E-14 -1.216456E-15 1 199 199 199 255
-0.05069619 -0.03857266 -0.12477173 -3.2048088E-14 -1.216456E-15 1 199 199 199 255
-0.052928932 0.057928916 -0.12477173 -3.2048088E-14 -1.216456E-15 1 199 199 199 255
-0.074999996 0.044999983 -0.12477173 -3.2048088E-14 -1.216456E-15 1 199 199 199 255
-0.057928946 0.052928902 -0.12477173 -3.2048088E-14 -1.216456E-15 1 199 199 199 255
-0.057928946 -0.052928947 -0.12477173 -3.2048088E-14 -1.216456E-15 1 199 199 199 255
-0.04500001 -0.075000025 -0.12477173 -3.2048088E-14 -1.216456E-15 1 199 199 199 255
-0.052928932 -0.057928964 -0.12477173 -3.2048088E-14 -1.216456E-15 1 199 199 199 255
-0.074999996 -0.04500001 -0.12477173 -3.2048088E-14 -1.216456E-15 1 199 199 199 255
-0.04792894 -0.052928947 -0.12477173 -3.2048088E-14 -1.216456E-15 1 199 199 199 255
0.050696183 -0.03857266 -0.12477173 -3.2048088E-14 -1.216456E-15 1 199 199 199 255
0.047928933 -0.052928947 -0.12477173 -3.2048088E-14 -1.216456E-15 1 199 199 199 255
0.050696183 0.021427333 -0.12477173 -3.2048088E-14 -1.216456E-15 1 199 199 199 255
0.050696183 -0.021427393 -0.12477173 -3.2048088E-14 -1.216456E-15 1 199 199 199 255
0.038572636 -0.050696213 -0.12477173 -3.2048088E-14 -1.216456E-15 1 199 199 199 255
0.044999983 -0.075000025 -0.12477173 -3.2048088E-14 -1.216456E-15 1 199 199 199 255
0.021427358 -0.050696213 -0.12477173 -3.2048088E-14 -1.216456E-15 1 199 199 199 255
-0.021427363 -0.050696213 -0.12477173 -3.2048088E-14 -1.216456E-15 1 199 199 199 255
-0.03857264 -0.050696213 -0.12477173 -3.2048088E-14 -1.216456E-15 1 199 199 199 255
-0.052928932 -0.047928963 -0.12477173 -3.2048088E-14 -1.216456E-15 1 199 199 199 255
0.038572636 0.009303784 -0.12477173 -3.2048088E-14 -1.216456E-15 1 199 199 199 255
0.038572636 -0.009303843 -0.12477173 -3.2048088E-14 -1.216456E-15 1 199 199 199 255
0.021427358 0.009303784 -0.12477173 -3.2048088E-14 -1.216456E-15 1 199 199 199 255
0.021427358 -0.009303843 -0.12477173 -3.2048088E-14 -1.216456E-15 1 199 199 199 255
-0.021427363 0.009303784 -0.12477173 -3.2048088E-14 -1.216456E-15 1 199 199 199 255
-0.021427363 -0.009303843 -0.12477173 -3.2048088E-14 -1.216456E-15 1 199 199 199 255
-0.03857264 0.009303784 -0.12477173 -3.2048088E-14 -1.216456E-15 1 199 199 199 255
-0.03857264 -0.009303843 -0.12477173 -3.2048088E-14 -1.216456E-15 1 199 199 199 255
0.074999996 0.044999983 -0.12477173 -3.2048088E-14 -1.216456E-15 1 199 199 199 255
0.074999996 -0.04500001 -0.12477173 -3.2048088E-14 -1.216456E-15 1 199 199 199 255
0.052928917 0.057928916 -0.12477173 -3.2048088E-14 -1.216456E-15 1 199 199 199 255
0.052928917 -0.057928964 -0.12477173 -3.2048088E-14 -1.216456E-15 1 199 199 199 255
-0.052928932 -0.047928963 -0.12477173 -3.158363E-14 -9.1907126E-27 1 84 84 84 255
-0.052928932 -0.057928964 -0.12477173 -3.158363E-14 -9.1907126E-27 1 84 84 84 255
-0.04792894 -0.052928947 -0.12477173 -3.158363E-14 -9.1907126E-27 1 84 84 84 255
-0.057928946 -0.052928947 -0.12477173 -3.158363E-14 -9.1907126E-27 1 84 84 84 255
-0.074999996 -0.04500001 -0.12477173 1 -1.604248E-14 -1.170374E-13 84 84 84 255
-0.074999996 0.044999957 -0.106941745 1 -1.604248E-14 -1.170374E-13 84 84 84 255
-0.074999996 -0.045000035 -0.106941745 1 -1.604248E-14 -1.170374E-13 84 84 84 255
-0.074999996 0.044999983 -0.12477173 1 -1.604248E-14 -1.170374E-13 84 84 84 255
-0.074999996 -0.04500001 -0.12477173 0.70710677 0.70710677 -1.7704066E-13 84 84 84 255
-0.044999987 -0.075000025 -0.106941745 0.70710677 0.70710677 -1.7704066E-13 84 84 84 255
-0.04500001 -0.075000025 -0.12477173 0.70710677 0.70710677 -1.7704066E-13 84 84 84 255
-0.074999996 -0.045000035 -0.106941745 0.70710677 0.70710677 -1.7704066E-13 84 84 84 255
-0.04500001 0.074999966 -0.12477173 0.70710677 -0.70710677 -1.0073209E-06 84 84 84 255
-0.074999996 0.044999957 -0.106941745 0.70710677 -0.70710677 -1.0073209E-06 84 84 84 255
-0.074999996 0.044999983 -0.12477173 0.70710677 -0.70710677 -1.0073209E-06 84 84 84 255
-0.044999987 0.074999966 -0.106941745 0.70710677 -0.70710677 -1.0073209E-06 84 84 84 255
-0.044999987 -0.075000025 -0.106941745 1.604248E-14 1 -1.341186E-13 84 84 84 255
0.044999983 -0.075000025 -0.12477173 1.604248E-14 1 -1.341186E-13 84 84 84 255
-0.04500001 -0.075000025 -0.12477173 1.604248E-14 1 -1.341186E-13 84 84 84 255
0.045000006 -0.075000025 -0.106941745 1.604248E-14 1 -1.341186E-13 84 84 84 255
0.044999983 0.074999966 -0.12477173 -1.604248E-14 -1 1.328533E-13 84 84 84 255
-0.044999987 0.074999966 -0.106941745 -1.604248E-14 -1 1.328533E-13 84 84 84 255
-0.04500001 0.074999966 -0.12477173 -1.604248E-14 -1 1.328533E-13 84 84 84 255
0.045000006 0.074999966 -0.106941745 -1.604248E-14 -1 1.328533E-13 84 84 84 255
0.045000006 -0.075000025 -0.106941745 -0.70710677 0.70710677 1.0073209E-06 84 84 84 255
0.074999996 -0.04500001 -0.12477173 -0.70710677 0.70710677 1.0073209E-06 84 84 84 255
0.044999983 -0.075000025 -0.12477173 -0.70710677 0.70710677 1.0073209E-06 84 84 84 255
0.074999996 -0.045000035 -0.106941745 -0.70710677 0.70710677 1.0073209E-06 84 84 84 255
0.045000006 0.074999966 -0.106941745 -0.70710677 -0.70710677 1.7803638E-13 84 84 84 255
0.074999996 0.044999983 -0.12477173 -0.70710677 -0.70710677 1.7803638E-13 84 84 84 255
0.074999996 0.044999957 -0.106941745 -0.70710677 -0.70710677 1.7803638E-13 84 84 84 255
0.044999983 0.074999966 -0.12477173 -0.70710677 -0.70710677 1.7803638E-13 84 84 84 255
0.074999996 0.044999957 -0.106941745 -1 1.604248E-14 1.1767009E-13 84 84 84 255
0.074999996 -0.04500001 -0.12477173 -1 1.604248E-14 1.1767009E-13 84 84 84 255
0.074999996 -0.045000035 -0.106941745 -1 1.604248E-14 1.1767009E-13 84 84 84 255
0.074999996 0.044999983 -0.12477173 -1 1.604248E-14 1.1767009E-13 84 84 84 255
0.052928917 0.057928916 -0.12477173 -3.158361E-14 -9.1907195E-27 1 84 84 84 255
0.052928917 0.04792891 -0.12477173 -3.158361E-14 -9.1907195E-27 1 84 84 84 255
0.05792894 0.052928902 -0.12477173 -3.158361E-14 -9.1907195E-27 1 84 84 84 255
0.047928933 0.052928902 -0.12477173 -3.158361E-14 -9.1907195E-27 1 84 84 84 255
-0.052928932 0.057928916 -0.12477173 -3.383961E-14 -2.255974E-15 1 84 84 84 255
-0.052928932 0.04792891 -0.12477173 -3.383961E-14 -2.255974E-15 1 84 84 84 255
-0.04792894 0.052928902 -0.12477173 -3.383961E-14 -2.255974E-15 1 84 84 84 255
-0.057928946 0.052928902 -0.12477173 -3.383961E-14 -2.255974E-15 1 84 84 84 255
-0.021427363 0.05069616 -0.12477173 -3.201829E-14 -1.123104E-15 1 199 199 199 255
0.009303814 0.03857261 -0.12477173 -3.201829E-14 -1.123104E-15 1 199 199 199 255
0.021427358 0.05069616 -0.12477173 -3.201829E-14 -1.123104E-15 1 199 199 199 255
0.009303814 0.021427333 -0.12477173 -3.201829E-14 -1.123104E-15 1 199 199 199 255
-0.009303819 0.03857261 -0.12477173 -3.201829E-14 -1.123104E-15 1 199 199 199 255
-0.021427363 0.009303784 -0.12477173 -3.201829E-14 -1.123104E-15 1 199 199 199 255
0.021427358 0.009303784 -0.12477173 -3.201829E-14 -1.123104E-15 1 199 199 199 255
-0.009303819 0.021427333 -0.12477173 -3.201829E-14 -1.123104E-15 1 199 199 199 255
0.050696183 -0.03857266 -0.12477173 0.70710677 -0.70710677 2.0734038E-14 84 84 84 255
0.038572636 -0.050696213 -0.11477174 0.70710677 -0.70710677 2.0734038E-14 84 84 84 255
0.038572636 -0.050696213 -0.12477173 0.70710677 -0.70710677 2.0734038E-14 84 84 84 255
0.050696183 -0.03857266 -0.11477174 0.70710677 -0.70710677 2.0734038E-14 84 84 84 255
0.050696183 -0.03857266 -0.12477173 1 -3.157916E-14 3.158362E-14 84 84 84 255
0.050696183 -0.021427393 -0.11477174 1 -3.157916E-14 3.158362E-14 84 84 84 255
0.050696183 -0.03857266 -0.11477174 1 -3.157916E-14 3.158362E-14 84 84 84 255
0.050696183 -0.021427393 -0.12477173 1 -3.157916E-14 3.158362E-14 84 84 84 255
0.038572636 -0.009303843 -0.11477174 -3.056532E-14 -2.07898E-15 1 84 84 84 255
0.050696183 -0.03857266 -0.11477174 -3.056532E-14 -2.07898E-15 1 84 84 84 255
0.050696183 -0.021427393 -0.11477174 -3.056532E-14 -2.07898E-15 1 84 84 84 255
0.038572636 -0.050696213 -0.11477174 -3.056532E-14 -2.07898E-15 1 84 84 84 255
0.021427358 -0.009303843 -0.11477174 -3.056532E-14 -2.07898E-15 1 84 84 84 255
0.021427358 -0.050696213 -0.11477174 -3.056532E-14 -2.07898E-15 1 84 84 84 255
0.009303814 -0.021427393 -0.11477174 -3.056532E-14 -2.07898E-15 1 84 84 84 255
0.009303814 -0.03857266 -0.11477174 -3.056532E-14 -2.07898E-15 1 84 84 84 255
0.038572636 -0.050696213 -0.12477173 -3.157916E-14 -1 -2.2559732E-15 84 84 84 255
0.021427358 -0.050696213 -0.11477174 -3.157916E-14 -1 -2.2559732E-15 84 84 84 255
0.021427358 -0.050696213 -0.12477173 -3.157916E-14 -1 -2.2559732E-15 84 84 84 255
0.038572636 -0.050696213 -0.11477174 -3.157916E-14 -1 -2.2559732E-15 84 84 84 255
0.038572636 -0.009303843 -0.12477173 0.70710677 0.70710677 2.3108167E-14 84 84 84 255
0.050696183 -0.021427393 -0.11477174 0.70710677 0.70710677 2.3108167E-14 84 84 84 255
0.050696183 -0.021427393 -0.12477173 0.70710677 0.70710677 2.3108167E-14 84 84 84 255
0.038572636 -0.009303843 -0.11477174 0.70710677 0.70710677 2.3108167E-14 84 84 84 255
0.009303814 -0.03857266 -0.11477174 -0.70710677 -0.70710677 -2.3867888E-14 84 84 84 255
0.021427358 -0.050696213 -0.12477173 -0.70710677 -0.70710677 -2.3867888E-14 84 84 84 255
0.021427358 -0.050696213 -0.11477174 -0.70710677 -0.70710677 -2.3867888E-14 84 84 84 255
0.009303814 -0.03857266 -0.12477173 -0.70710677 -0.70710677 -2.3867888E-14 84 84 84 255
0.021427358 -0.009303843 -0.11477174 3.223706E-14 1 1.127987E-15 84 84 84 255
0.038572636 -0.009303843 -0.12477173 3.223706E-14 1 1.127987E-15 84 84 84 255
0.021427358 -0.009303843 -0.12477173 3.223706E-14 1 1.127987E-15 84 84 84 255
0.038572636 -0.009303843 -0.11477174 3.223706E-14 1 1.127987E-15 84 84 84 255
0.009303814 -0.021427393 -0.11477174 -0.70710677 0.70710677 -2.1557065E-14 84 84 84 255
0.021427358 -0.009303843 -0.12477173 -0.70710677 0.70710677 -2.1557065E-14 84 84 84 255
0.009303814 -0.021427393 -0.12477173 -0.70710677 0.70710677 -2.1557065E-14 84 84 84 255
0.021427358 -0.009303843 -0.11477174 -0.70710677 0.70710677 -2.1557065E-14 84 84 84 255
0.009303814 -0.021427393 -0.11477174 -1 3.223706E-14 -3.158362E-14 84 84 84 255
0.009303814 -0.03857266 -0.12477173 -1 3.223706E-14 -3.158362E-14 84 84 84 255
0.009303814 -0.03857266 -0.11477174 -1 3.223706E-14 -3.158362E-14 84 84 84 255
0.009303814 -0.021427393 -0.12477173 -1 3.223706E-14 -3.158362E-14 84 84 84 255
-0.05069619 0.021427333 -0.11477174 -0.7071069 -0.7071066 -2.370961E-14 84 84 84 255
-0.03857264 0.009303784 -0.12477173 -0.7071069 -0.7071066 -2.370961E-14 84 84 84 255
-0.03857264 0.009303784 -0.11477174 -0.7071069 -0.7071066 -2.370961E-14 84 84 84 255
-0.05069619 0.021427333 -0.12477173 -0.7071069 -0.7071066 -2.370961E-14 84 84 84 255
-0.05069619 0.03857261 -0.11477174 -1 3.2072587E-14 -3.242961E-14 84 84 84 255
-0.05069619 0.021427333 -0.12477173 -1 3.2072587E-14 -3.242961E-14 84 84 84 255
-0.05069619 0.021427333 -0.11477174 -1 3.2072587E-14 -3.242961E-14 84 84 84 255
-0.05069619 0.03857261 -0.12477173 -1 3.2072587E-14 -3.242961E-14 84 84 84 255
-0.021427363 0.009303784 -0.12477173 -3.157916E-14 -1 -1.127987E-15 84 84 84 255
-0.03857264 0.009303784 -0.11477174 -3.157916E-14 -1 -1.127987E-15 84 84 84 255
-0.03857264 0.009303784 -0.12477173 -3.157916E-14 -1 -1.127987E-15 84 84 84 255
-0.021427363 0.009303784 -0.11477174 -3.157916E-14 -1 -1.127987E-15 84 84 84 255
-0.021427363 0.05069616 -0.11477174 -3.126998E-14 -3.0093912E-15 1 84 84 84 255
-0.009303819 0.021427333 -0.11477174 -3.126998E-14 -3.0093912E-15 1 84 84 84 255
-0.009303819 0.03857261 -0.11477174 -3.126998E-14 -3.0093912E-15 1 84 84 84 255
-0.021427363 0.009303784 -0.11477174 -3.126998E-14 -3.0093912E-15 1 84 84 84 255
-0.03857264 0.05069616 -0.11477174 -3.126998E-14 -3.0093912E-15 1 84 84 84 255
-0.03857264 0.009303784 -0.11477174 -3.126998E-14 -3.0093912E-15 1 84 84 84 255
-0.05069619 0.03857261 -0.11477174 -3.126998E-14 -3.0093912E-15 1 84 84 84 255
-0.05069619 0.021427333 -0.11477174 -3.126998E-14 -3.0093912E-15 1 84 84 84 255
-0.05069619 0.03857261 -0.11477174 -0.70710677 0.70710677 -2.1905275E-14 84 84 84 255
-0.03857264 0.05069616 -0.12477173 -0.70710677 0.70710677 -2.1905275E-14 84 84 84 255
-0.05069619 0.03857261 -0.12477173 -0.70710677 0.70710677 -2.1905275E-14 84 84 84 255
-0.03857264 0.05069616 -0.11477174 -0.70710677 0.70710677 -2.1905275E-14 84 84 84 255
-0.009303819 0.021427333 -0.12477173 0.70710677 -0.70710677 2.1525418E-14 84 84 84 255
-0.021427363 0.009303784 -0.11477174 0.70710677 -0.70710677 2.1525418E-14 84 84 84 255
-0.021427363 0.009303784 -0.12477173 0.70710677 -0.70710677 2.1525418E-14 84 84 84 255
-0.009303819 0.021427333 -0.11477174 0.70710677 -0.70710677 2.1525418E-14 84 84 84 255
-0.009303819 0.03857261 -0.12477173 1 -3.157916E-14 3.158362E-14 84 84 84 255
-0.009303819 0.021427333 -0.11477174 1 -3.157916E-14 3.158362E-14 84 84 84 255
-0.009303819 0.021427333 -0.12477173 1 -3.157916E-14 3.158362E-14 84 84 84 255
-0.009303819 0.03857261 -0.11477174 1 -3.157916E-14 3.158362E-14 84 84 84 255
-0.021427363 0.05069616 -0.11477174 0.7071066 0.7071069 2.3108179E-14 84 84 84 255
-0.009303819 0.03857261 -0.12477173 0.7071066 0.7071069 2.3108179E-14 84 84 84 255
-0.021427363 0.05069616 -0.12477173 0.7071066 0.7071069 2.3108179E-14 84 84 84 255
-0.009303819 0.03857261 -0.11477174 0.7071066 0.7071069 2.3108179E-14 84 84 84 255
-0.03857264 0.05069616 -0.11477174 3.223706E-14 1 1.127987E-15 84 84 84 255
-0.021427363 0.05069616 -0.12477173 3.223706E-14 1 1.127987E-15 84 84 84 255
-0.03857264 0.05069616 -0.12477173 3.223706E-14 1 1.127987E-15 84 84 84 255
-0.021427363 0.05069616 -0.11477174 3.223706E-14 1 1.127987E-15 84 84 84 255
0.050696183 0.021427333 -0.12477173 0.70710677 -0.70710677 2.1525418E-14 84 84 84 255
0.038572636 0.009303784 -0.11477174 0.70710677 -0.70710677 2.1525418E-14 84 84 84 255
0.038572636 0.009303784 -0.12477173 0.70710677 -0.70710677 2.1525418E-14 84 84 84 255
0.050696183 0.021427333 -0.11477174 0.70710677 -0.70710677 2.1525418E-14 84 84 84 255
0.038572636 0.009303784 -0.12477173 -3.223706E-14 -1 -1.127987E-15 84 84 84 255
0.021427358 0.009303784 -0.11477174 -3.223706E-14 -1 -1.127987E-15 84 84 84 255
0.021427358 0.009303784 -0.12477173 -3.223706E-14 -1 -1.127987E-15 84 84 84 255
0.038572636 0.009303784 -0.11477174 -3.223706E-14 -1 -1.127987E-15 84 84 84 255
0.050696183 0.021427333 -0.12477173 1 -3.157916E-14 3.158362E-14 84 84 84 255
0.050696183 0.03857261 -0.11477174 1 -3.157916E-14 3.158362E-14 84 84 84 255
0.050696183 0.021427333 -0.11477174 1 -3.157916E-14 3.158362E-14 84 84 84 255
0.050696183 0.03857261 -0.12477173 1 -3.157916E-14 3.158362E-14 84 84 84 255
0.038572636 0.05069616 -0.11477174 -3.111035E-14 -1.5339589E-15 1 84 84 84 255
0.050696183 0.021427333 -0.11477174 -3.111035E-14 -1.5339589E-15 1 84 84 84 255
0.050696183 0.03857261 -0.11477174 -3.111035E-14 -1.5339589E-15 1 84 84 84 255
0.038572636 0.009303784 -0.11477174 -3.111035E-14 -1.5339589E-15 1 84 84 84 255
0.021427358 0.05069616 -0.11477174 -3.111035E-14 -1.5339589E-15 1 84 84 84 255
0.021427358 0.009303784 -0.11477174 -3.111035E-14 -1.5339589E-15 1 84 84 84 255
0.009303814 0.03857261 -0.11477174 -3.111035E-14 -1.5339589E-15 1 84 84 84 255
0.009303814 0.021427333 -0.11477174 -3.111035E-14 -1.5339589E-15 1 84 84 84 255
0.009303814 0.021427333 -0.11477174 -0.70710677 -0.70710677 -2.3171477E-14 84 84 84 255
0.021427358 0.009303784 -0.12477173 -0.70710677 -0.70710677 -2.3171477E-14 84 84 84 255
0.021427358 0.009303784 -0.11477174 -0.70710677 -0.70710677 -2.3171477E-14 84 84 84 255
0.009303814 0.021427333 -0.12477173 -0.70710677 -0.70710677 -2.3171477E-14 84 84 84 255
0.038572636 0.05069616 -0.11477174 0.7071066 0.7071069 2.3108179E-14 84 84 84 255
0.050696183 0.03857261 -0.12477173 0.7071066 0.7071069 2.3108179E-14 84 84 84 255
0.038572636 0.05069616 -0.12477173 0.7071066 0.7071069 2.3108179E-14 84 84 84 255
0.050696183 0.03857261 -0.11477174 0.7071066 0.7071069 2.3108179E-14 84 84 84 255
0.021427358 0.05069616 -0.11477174 3.1908107E-14 1 1.127987E-15 84 84 84 255
0.038572636 0.05069616 -0.12477173 3.1908107E-14 1 1.127987E-15 84 84 84 255
0.021427358 0.05069616 -0.12477173 3.1908107E-14 1 1.127987E-15 84 84 84 255
0.038572636 0.05069616 -0.11477174 3.1908107E-14 1 1.127987E-15 84 84 84 255
0.009303814 0.03857261 -0.11477174 -0.7071066 0.7071069 -2.155708E-14 84 84 84 255
0.021427358 0.05069616 -0.12477173 -0.7071066 0.7071069 -2.155708E-14 84 84 84 255
0.009303814 0.03857261 -0.12477173 -0.7071066 0.7071069 -2.155708E-14 84 84 84 255
0.021427358 0.05069616 -0.11477174 -0.7071066 0.7071069 -2.155708E-14 84 84 84 255
0.009303814 0.03857261 -0.11477174 -1 3.157916E-14 -3.158362E-14 84 84 84 255
0.009303814 0.021427333 -0.12477173 -1 3.157916E-14 -3.158362E-14 84 84 84 255
0.009303814 0.021427333 -0.11477174 -1 3.157916E-14 -3.158362E-14 84 84 84 255
0.009303814 0.03857261 -0.12477173 -1 3.157916E-14 -3.158362E-14 84 84 84 255
-0.009303819 -0.03857266 -0.12477173 1 -3.223706E-14 3.158362E-14 84 84 84 255
-0.009303819 -0.021427393 -0.11477174 1 -3.223706E-14 3.158362E-14 84 84 84 255
-0.009303819 -0.03857266 -0.11477174 1 -3.223706E-14 3.158362E-14 84 84 84 255
-0.009303819 -0.021427393 -0.12477173 1 -3.223706E-14 3.158362E-14 84 84 84 255
-0.021427363 -0.009303843 -0.11477174 -3.0724958E-14 -2.4643678E-15 1 84 84 84 255
-0.009303819 -0.03857266 -0.11477174 -3.0724958E-14 -2.4643678E-15 1 84 84 84 255
-0.009303819 -0.021427393 -0.11477174 -3.0724958E-14 -2.4643678E-15 1 84 84 84 255
-0.021427363 -0.050696213 -0.11477174 -3.0724958E-14 -2.4643678E-15 1 84 84 84 255
-0.03857264 -0.009303843 -0.11477174 -3.0724958E-14 -2.4643678E-15 1 84 84 84 255
-0.03857264 -0.050696213 -0.11477174 -3.0724958E-14 -2.4643678E-15 1 84 84 84 255
-0.05069619 -0.021427393 -0.11477174 -3.0724958E-14 -2.4643678E-15 1 84 84 84 255
-0.05069619 -0.03857266 -0.11477174 -3.0724958E-14 -2.4643678E-15 1 84 84 84 255
-0.009303819 -0.03857266 -0.12477173 0.70710677 -0.70710677 2.0765697E-14 84 84 84 255
-0.021427363 -0.050696213 -0.11477174 0.70710677 -0.70710677 2.0765697E-14 84 84 84 255
-0.021427363 -0.050696213 -0.12477173 0.70710677 -0.70710677 2.0765697E-14 84 84 84 255
-0.009303819 -0.03857266 -0.11477174 0.70710677 -0.70710677 2.0765697E-14 84 84 84 255
-0.009303819 -0.021427393 -0.12477173 0.70710677 0.70710677 2.3139819E-14 84 84 84 255
-0.021427363 -0.009303843 -0.11477174 0.70710677 0.70710677 2.3139819E-14 84 84 84 255
-0.009303819 -0.021427393 -0.11477174 0.70710677 0.70710677 2.3139819E-14 84 84 84 255
-0.021427363 -0.009303843 -0.12477173 0.70710677 0.70710677 2.3139819E-14 84 84 84 255
-0.05069619 -0.03857266 -0.11477174 -0.7071069 -0.7071066 -2.424774E-14 84 84 84 255
-0.03857264 -0.050696213 -0.12477173 -0.7071069 -0.7071066 -2.424774E-14 84 84 84 255
-0.03857264 -0.050696213 -0.11477174 -0.7071069 -0.7071066 -2.424774E-14 84 84 84 255
-0.05069619 -0.03857266 -0.12477173 -0.7071069 -0.7071066 -2.424774E-14 84 84 84 255
-0.021427363 -0.050696213 -0.12477173 -3.157916E-14 -1 -2.2559732E-15 84 84 84 255
-0.03857264 -0.050696213 -0.11477174 -3.157916E-14 -1 -2.2559732E-15 84 84 84 255
-0.03857264 -0.050696213 -0.12477173 -3.157916E-14 -1 -2.2559732E-15 84 84 84 255
-0.021427363 -0.050696213 -0.11477174 -3.157916E-14 -1 -2.2559732E-15 84 84 84 255
-0.03857264 -0.009303843 -0.11477174 3.157916E-14 1 1.127987E-15 84 84 84 255
-0.021427363 -0.009303843 -0.12477173 3.157916E-14 1 1.127987E-15 84 84 84 255
-0.03857264 -0.009303843 -0.12477173 3.157916E-14 1 1.127987E-15 84 84 84 255
-0.021427363 -0.009303843 -0.11477174 3.157916E-14 1 1.127987E-15 84 84 84 255
-0.03857264 -0.009303843 -0.11477174 -0.7071069 0.7071066 -2.215851E-14 84 84 84 255
-0.05069619 -0.021427393 -0.12477173 -0.7071069 0.7071066 -2.215851E-14 84 84 84 255
-0.05069619 -0.021427393 -0.11477174 -0.7071069 0.7071066 -2.215851E-14 84 84 84 255
-0.03857264 -0.009303843 -0.12477173 -0.7071069 0.7071066 -2.215851E-14 84 84 84 255
-0.05069619 -0.021427393 -0.11477174 -1 3.2072587E-14 -3.242961E-14 84 84 84 255
-0.05069619 -0.03857266 -0.12477173 -1 3.2072587E-14 -3.242961E-14 84 84 84 255
-0.05069619 -0.03857266 -0.11477174 -1 3.2072587E-14 -3.242961E-14 84 84 84 255
-0.05069619 -0.021427393 -0.12477173 -1 3.2072587E-14 -3.242961E-14 84 84 84 255
0.052928917 0.04792891 -0.106941745 0 -0 -1 84 84 84 255
0.052928917 0.057928894 -0.106941745 0 -0 -1 84 84 84 255
0.05792894 0.052928902 -0.106941745 0 -0 -1 84 84 84 255
0.047928933 0.052928902 -0.106941745 0 -0 -1 84 84 84 255
-0.02588834 0.0991116 -0.062271733 0.70710677 -0 0.70710677 199 199 199 255
-0.062499993 0.12499997 -0.025660068 0.70710677 -0 0.70710677 199 199 199 255
-0.062499993 0.083946556 -0.025660068 0.70710677 -0 0.70710677 199 199 199 255
-0.02588834 0.12499997 -0.062271733 0.70710677 -0 0.70710677 199 199 199 255
-0.02588834 0.062499963 -0.09888336 0.7071067 -0.5000002 0.5 199 199 199 255
-0.062499993 0.083946556 -0.025660068 0.7071067 -0.5000002 0.5 199 199 199 255
-0.062499993 0.02588831 -0.083718345 0.7071067 -0.5000002 0.5 199 199 199 255
-0.02588834 0.0991116 -0.062271733 0.7071067 -0.5000002 0.5 199 199 199 255
-0.02588834 0.12499997 -0.062271733 0 -0 1 199 199 199 255
0.025888335 0.0991116 -0.062271733 0 -0 1 199 199 199 255
0.025888335 0.12499997 -0.062271733 0 -0 1 199 199 199 255
-0.02588834 0.0991116 -0.062271733 0 -0 1 199 199 199 255
-0.062499993 -0.08394664 -0.025660068 1 -0 -0 199 199 199 255
-0.062499993 -0.12500001 0.026116602 1 -0 -0 199 199 199 255
-0.062499993 -0.12500001 -0.025660068 1 -0 -0 199 199 199 255
-0.062499993 0.12499997 0.026116602 1 -0 -0 199 199 199 255
-0.062499993 0.083946556 -0.025660068 1 -0 -0 199 199 199 255
-0.062499993 0.12499997 -0.025660068 1 -0 -0 199 199 199 255
-0.02588834 0.062499963 -0.106941745 0.70710677 -0.70710677 8.068534E-17 199 199 199 255
-0.062499993 0.02588831 -0.083718345 0.70710677 -0.70710677 8.068534E-17 199 199 199 255
-0.062499993 0.02588831 -0.106941745 0.70710677 -0.70710677 8.068534E-17 199 199 199 255
-0.02588834 0.062499963 -0.09888336 0.70710677 -0.70710677 8.068534E-17 199 199 199 255
0.025888335 0.0991116 -0.062271733 0 -0.70710677 0.70710677 199 199 199 255
-0.02588834 0.062499963 -0.09888336 0 -0.70710677 0.70710677 199 199 199 255
0.025888335 0.062499963 -0.09888336 0 -0.70710677 0.70710677 199 199 199 255
-0.02588834 0.0991116 -0.062271733 0 -0.70710677 0.70710677 199 199 199 255
-0.062499993 0.02588831 -0.106941745 1 -0 -0 199 199 199 255
-0.062499993 -0.025888357 -0.083718345 1 -0 -0 199 199 199 255
-0.062499993 -0.025888357 -0.106941745 1 -0 -0 199 199 199 255
-0.062499993 0.02588831 -0.083718345 1 -0 -0 199 199 199 255
0.0625 0.12499997 -0.025660068 -0.70710677 -0 0.70710677 199 199 199 255
0.025888335 0.0991116 -0.062271733 -0.70710677 -0 0.70710677 199 199 199 255
0.0625 0.083946556 -0.025660068 -0.70710677 -0 0.70710677 199 199 199 255
0.025888335 0.12499997 -0.062271733 -0.70710677 -0 0.70710677 199 199 199 255
-0.02588834 -0.09911168 -0.062271733 0.70710677 4.1395403E-17 0.70710677 199 199 199 255
-0.062499993 -0.12500001 -0.025660068 0.70710677 4.1395403E-17 0.70710677 199 199 199 255
-0.02588834 -0.12500001 -0.062271733 0.70710677 4.1395403E-17 0.70710677 199 199 199 255
-0.062499993 -0.08394664 -0.025660068 0.70710677 4.1395403E-17 0.70710677 199 199 199 255
-0.062499993 0.12499997 0.026116602 0.70710677 -0 -0.70710677 199 199 199 255
-0.02588834 -0.12500001 0.062728256 0.70710677 -0 -0.70710677 199 199 199 255
-0.062499993 -0.12500001 0.026116602 0.70710677 -0 -0.70710677 199 199 199 255
-0.02588834 0.12499997 0.062728256 0.70710677 -0 -0.70710677 199 199 199 255
0.025888335 0.062499963 -0.09888336 0 -1 -0 199 199 199 255
-0.02588834 0.062499963 -0.106941745 0 -1 -0 199 199 199 255
0.025888335 0.062499963 -0.106941745 0 -1 -0 199 199 199 255
-0.02588834 0.062499963 -0.09888336 0 -1 -0 199 199 199 255
0.0625 0.083946556 -0.025660068 -0.7071067 -0.5000002 0.5 199 199 199 255
0.025888335 0.062499963 -0.09888336 -0.7071067 -0.5000002 0.5 199 199 199 255
0.0625 0.02588831 -0.083718345 -0.7071067 -0.5000002 0.5 199 199 199 255
0.025888335 0.0991116 -0.062271733 -0.7071067 -0.5000002 0.5 199 199 199 255
-0.02588834 -0.06250002 -0.09888336 0.7071067 0.5 0.5000001 199 199 199 255
-0.062499993 -0.08394664 -0.025660068 0.7071067 0.5 0.5000001 199 199 199 255
-0.02588834 -0.09911168 -0.062271733 0.7071067 0.5 0.5000001 199 199 199 255
-0.062499993 -0.025888357 -0.083718345 0.7071067 0.5 0.5000001 199 199 199 255
-0.062499993 -0.025888357 -0.106941745 0.70710677 0.70710677 1.6137068E-16 199 199 199 255
-0.02588834 -0.06250002 -0.09888336 0.70710677 0.70710677 1.6137068E-16 199 199 199 255
-0.02588834 -0.06250002 -0.106941745 0.70710677 0.70710677 1.6137068E-16 199 199 199 255
-0.062499993 -0.025888357 -0.083718345 0.70710677 0.70710677 1.6137068E-16 199 199 199 255
0.0625 0.12499997 0.026116602 -1 -0 -0 199 199 199 255
0.0625 -0.12500001 -0.025660068 -1 -0 -0 199 199 199 255
0.0625 -0.12500001 0.026116602 -1 -0 -0 199 199 199 255
0.0625 -0.08394664 -0.025660068 -1 -0 -0 199 199 199 255
0.0625 0.083946556 -0.025660068 -1 -0 -0 199 199 199 255
0.0625 0.12499997 -0.025660068 -1 -0 -0 199 199 199 255
-0.02588834 -0.09911168 -0.062271733 0 -0 1 199 199 199 255
0.025888335 -0.12500001 -0.062271733 0 -0 1 199 199 199 255
0.025888335 -0.09911168 -0.062271733 0 -0 1 199 199 199 255
-0.02588834 -0.12500001 -0.062271733 0 -0 1 199 199 199 255
-0.02588834 -0.12500001 0.062728256 0 -0 -1 199 199 199 255
0.025888335 0.12499997 0.062728256 0 -0 -1 199 199 199 255
0.025888335 -0.12500001 0.062728256 0 -0 -1 199 199 199 255
-0.02588834 0.12499997 0.062728256 0 -0 -1 199 199 199 255
0.025888335 0.062499963 -0.09888336 -0.70710677 -0.70710677 2.4205608E-16 199 199 199 255
0.0625 0.02588831 -0.106941745 -0.70710677 -0.70710677 2.4205608E-16 199 199 199 255
0.0625 0.02588831 -0.083718345 -0.70710677 -0.70710677 2.4205608E-16 199 199 199 255
0.025888335 0.062499963 -0.106941745 -0.70710677 -0.70710677 2.4205608E-16 199 199 199 255
0.0625 -0.025888357 -0.083718345 -1 -0 -0 199 199 199 255
0.0625 -0.025888357 -0.106941745 -1 -0 -0 199 199 199 255
0.0625 0.02588831 -0.083718345 -1 -0 -0 199 199 199 255
0.0625 0.02588831 -0.106941745 -1 -0 -0 199 199 199 255
-0.02588834 -0.06250002 -0.09888336 0 0.7071065 0.707107 199 199 199 255
0.025888335 -0.09911168 -0.062271733 0 0.7071065 0.707107 199 199 199 255
0.025888335 -0.06250002 -0.09888336 0 0.7071065 0.707107 199 199 199 255
-0.02588834 -0.09911168 -0.062271733 0 0.7071065 0.707107 199 199 199 255
-0.02588834 -0.06250002 -0.09888336 0 1 -0 199 199 199 255
0.025888335 -0.06250002 -0.106941745 0 1 -0 199 199 199 255
-0.02588834 -0.06250002 -0.106941745 0 1 -0 199 199 199 255
0.025888335 -0.06250002 -0.09888336 0 1 -0 199 199 199 255
0.025888335 0.12499997 0.062728256 -0.70710677 -0 -0.70710677 199 199 199 255
0.0625 -0.12500001 0.026116602 -0.70710677 -0 -0.70710677 199 199 199 255
0.025888335 -0.12500001 0.062728256 -0.70710677 -0 -0.70710677 199 199 199 255
0.0625 0.12499997 0.026116602 -0.70710677 -0 -0.70710677 199 199 199 255
0.0625 -0.08394664 -0.025660068 -0.70710677 -0 0.70710677 199 199 199 255
0.025888335 -0.12500001 -0.062271733 -0.70710677 -0 0.70710677 199 199 199 255
0.0625 -0.12500001 -0.025660068 -0.70710677 -0 0.70710677 199 199 199 255
0.025888335 -0.09911168 -0.062271733 -0.70710677 -0 0.70710677 199 199 199 255
0.0625 -0.025888357 -0.083718345 -0.70710677 0.70710677 -0 199 199 199 255
0.025888335 -0.06250002 -0.106941745 -0.70710677 0.70710677 -0 199 199 199 255
0.025888335 -0.06250002 -0.09888336 -0.70710677 0.70710677 -0 199 199 199 255
0.0625 -0.025888357 -0.106941745 -0.70710677 0.70710677 -0 199 199 199 255
0.0625 -0.08394664 -0.025660068 -0.7071067 0.5 0.5000001 199 199 199 255
0.025888335 -0.06250002 -0.09888336 -0.7071067 0.5 0.5000001 199 199 199 255
0.025888335 -0.09911168 -0.062271733 -0.7071067 0.5 0.5000001 199 199 199 255
0.0625 -0.025888357 -0.083718345 -0.7071067 0.5 0.5000001 199 199 199 255
3 0 1 2
3 1 0 3
3 4 5 6
3 5 4 7
3 8 9 10
3 9 8 11
3 12 13 14
3 13 12 15
3 15 12 16
3 15 16 17
3 17 16 18
3 17 18 19
3 20 21 22
3 21 20 23
3 22 21 24
3 21 23 25
3 25 23 26
3 22 27 28
3 27 22 29
3 29 22 24
3 28 27 30
3 28 30 31
3 29 32 27
3 32 29 33
3 32 33 31
3 31 33 28
3 28 33 34
3 34 33 35
3 34 35 36
3 36 35 37
3 36 37 38
3 38 37 39
3 40 41 42
3 41 40 43
3 41 43 44
3 44 43 45
3 45 43 37
3 34 46 47
3 46 34 36
3 47 46 39
3 47 39 37
3 47 37 43
3 24 48 49
3 48 24 21
3 49 48 26
3 49 26 23
3 49 23 40
3 49 40 50
3 50 40 42
3 50 42 45
3 45 42 51
3 45 51 44
3 52 53 54
3 53 52 55
3 56 57 58
3 57 56 59
3 59 56 60
3 59 61 62
3 61 59 63
3 63 59 60
3 64 65 66
3 65 64 67
3 67 64 68
3 68 64 69
3 68 69 70
3 70 69 71
3 70 71 72
3 70 72 73
3 73 72 74
3 74 72 75
3 75 72 76
3 75 76 77
3 77 76 78
3 77 78 79
3 79 78 80
3 80 78 81
3 72 82 76
3 82 72 83
3 82 83 84
3 84 83 85
3 86 87 88
3 87 86 89
3 88 87 85
3 88 85 83
3 67 90 91
3 90 67 92
3 92 67 68
3 90 92 93
3 91 90 94
3 91 94 95
3 95 94 86
3 86 94 96
3 86 96 97
3 86 97 98
3 86 98 89
3 89 98 81
3 89 81 99
3 99 81 78
3 99 78 84
3 99 84 85
3 100 93 92
3 93 100 101
3 101 100 102
3 101 102 103
3 103 102 104
3 103 104 105
3 105 104 106
3 105 106 107
3 107 106 79
3 107 79 80
3 108 66 109
3 66 108 71
3 66 71 110
3 110 71 69
3 109 65 95
3 65 109 66
3 95 65 111
3 95 111 91
3 112 113 114
3 113 112 115
3 116 117 118
3 117 116 119
3 120 121 122
3 121 120 123
3 124 125 126
3 125 124 127
3 128 129 130
3 129 128 131
3 132 133 134
3 133 132 135
3 136 137 138
3 137 136 139
3 140 141 142
3 141 140 143
3 144 145 146
3 145 144 147
3 148 149 150
3 149 148 151
3 152 153 154
3 153 152 155
3 156 157 158
3 157 156 159
3 159 156 160
3 159 161 162
3 161 159 163
3 163 159 160
3 164 165 166
3 165 164 167
3 168 169 170
3 169 168 171
3 172 173 174
3 173 172 175
3 175 172 176
3 175 176 177
3 177 176 178
3 177 178 179
3 180 181 182
3 181 180 183
3 184 185 186
3 185 184 187
3 188 189 190
3 189 188 191
3 192 193 194
3 193 192 195
3 196 197 198
3 197 196 199
3 200 201 202
3 201 200 203
3 204 205 206
3 205 204 207
3 208 209 210
3 209 208 211
3 212 213 214
3 213 212 215
3 216 217 218
3 217 216 219
3 219 216 220
3 219 220 221
3 221 220 222
3 221 222 223
3 224 225 226
3 225 224 227
3 228 229 230
3 229 228 231
3 232 233 234
3 233 232 235
3 236 237 238
3 237 236 239
3 240 241 242
3 241 240 243
3 244 245 246
3 245 244 247
3 248 249 250
3 249 248 251
3 252 253 254
3 253 252 255
3 256 257 258
3 257 256 259
3 259 256 260
3 259 260 261
3 261 260 262
3 261 262 263
3 264 265 266
3 265 264 267
3 268 269 270
3 269 268 271
3 272 273 274
3 273 272 275
3 276 277 278
3 277 276 279
3 280 281 282
3 281 280 283
3 284 285 286
3 285 284 287
3 288 289 290
3 289 288 291
3 291 288 292
3 291 292 293
3 293 292 294
3 293 294 295
3 296 297 298
3 297 296 299
3 300 301 302
3 301 300 303
3 304 305 306
3 305 304 307
3 308 309 310
3 309 308 311
3 312 313 314
3 313 312 315
3 316 317 318
3 317 316 319
3 320 321 322
3 321 320 323
3 324 325 326
3 325 324 327
3 328 329 330
3 329 328 331
3 332 333 334
3 333 332 335
3 336 337 338
3 337 336 339
3 340 341 342
3 341 340 343
3 343 340 344
3 343 344 345
3 346 347 348
3 347 346 349
3 350 351 352
3 351 350 353
3 354 355 356
3 355 344 340
3 344 355 357
3 357 355 354
3 358 359 360
3 359 358 361
3 362 363 364
3 363 362 365
3 366 367 368
3 367 366 369
3 370 371 372
3 371 370 373
3 374 375 376
3 375 374 377
3 378 379 380
3 379 378 381
3 382 383 384
3 383 382 385
3 386 387 388
3 387 386 389
3 389 386 390
3 390 386 391
3 392 393 394
3 393 392 395
3 396 397 398
3 397 396 399
3 400 401 402
3 401 400 403
3 390 404 389
3 404 390 405
3 405 390 406
3 407 405 406
3 408 409 410
3 409 408 411
3 412 413 414
3 413 412 415
3 416 417 418
3 417 416 419
3 420 421 422
3 421 420 423
3 424 425 426
3 425 424 427
3 428 429 430
3 429 428 431

