ply
format ascii 1.0
commentY29udmVydGVyIGJ5IENvZGVMZW9wYXJk
comment Original mesh name: 'C:\Program Files (x86)\Steam\steamapps\common\Stormworks\rom\meshes\modular_engine_cone_air_filter.mesh'
comment SubMesh index: 0
comment SubMesh name: 'ID66'
comment Shader: Opaque (0)
element vertex 440
property float x
property float y
property float z
property float nx
property float ny
property float nz
property uchar red
property uchar green
property uchar blue
property uchar alpha
element face 262
property list uchar ushort vertex_index
end_header
-0.09134296 0.05766025 -0.085 1.420349E-13 9.2385165E-14 -1 199 199 199 255
-0.06447592 0.09815862 -0.085 1.420349E-13 9.2385165E-14 -1 199 199 199 255
-0.05766025 0.09134296 -0.085 1.420349E-13 9.2385165E-14 -1 199 199 199 255
-0.09815862 0.06447592 -0.085 1.420349E-13 9.2385165E-14 -1 199 199 199 255
-0.0625 -0.025888337 -0.125 1 -6.2742536E-14 1.263345E-13 199 199 199 255
-0.0625 0.025888337 -0.105 1 -6.2742536E-14 1.263345E-13 199 199 199 255
-0.0625 -0.025888337 -0.105 1 -6.2742536E-14 1.263345E-13 199 199 199 255
-0.0625 0.025888337 -0.125 1 -6.2742536E-14 1.263345E-13 199 199 199 255
-0.025888337 -0.0625 -0.125 0.70710677 0.70710677 1.6599898E-13 199 199 199 255
-0.0625 -0.025888337 -0.105 0.70710677 0.70710677 1.6599898E-13 199 199 199 255
-0.025888337 -0.0625 -0.105 0.70710677 0.70710677 1.6599898E-13 199 199 199 255
-0.0625 -0.025888337 -0.125 0.70710677 0.70710677 1.6599898E-13 199 199 199 255
-0.0625 0.025888337 -0.125 0.70710677 -0.70710677 1.2788629E-14 199 199 199 255
-0.025888337 0.0625 -0.105 0.70710677 -0.70710677 1.2788629E-14 199 199 199 255
-0.0625 0.025888337 -0.105 0.70710677 -0.70710677 1.2788629E-14 199 199 199 255
-0.025888337 0.0625 -0.125 0.70710677 -0.70710677 1.2788629E-14 199 199 199 255
-0.025888337 -0.0625 -0.105 2.788557E-14 1 1.082867E-13 199 199 199 255
0.025888337 -0.0625 -0.125 2.788557E-14 1 1.082867E-13 199 199 199 255
-0.025888337 -0.0625 -0.125 2.788557E-14 1 1.082867E-13 199 199 199 255
0.025888337 -0.0625 -0.105 2.788557E-14 1 1.082867E-13 199 199 199 255
0.025888337 0.0625 -0.125 1.679673E-26 -1 -1.082867E-13 199 199 199 255
-0.025888337 0.0625 -0.105 1.679673E-26 -1 -1.082867E-13 199 199 199 255
-0.025888337 0.0625 -0.125 1.679673E-26 -1 -1.082867E-13 199 199 199 255
0.025888337 0.0625 -0.105 1.679673E-26 -1 -1.082867E-13 199 199 199 255
0.025888337 -0.0625 -0.105 -0.70710677 0.70710677 -1.2662008E-14 199 199 199 255
0.0625 -0.025888337 -0.125 -0.70710677 0.70710677 -1.2662008E-14 199 199 199 255
0.025888337 -0.0625 -0.125 -0.70710677 0.70710677 -1.2662008E-14 199 199 199 255
0.0625 -0.025888337 -0.105 -0.70710677 0.70710677 -1.2662008E-14 199 199 199 255
0.025888337 0.0625 -0.105 -0.70710677 -0.70710677 -1.6574567E-13 199 199 199 255
0.0625 0.025888337 -0.125 -0.70710677 -0.70710677 -1.6574567E-13 199 199 199 255
0.0625 0.025888337 -0.105 -0.70710677 -0.70710677 -1.6574567E-13 199 199 199 255
0.025888337 0.0625 -0.125 -0.70710677 -0.70710677 -1.6574567E-13 199 199 199 255
0.0625 0.025888337 -0.105 -1 8.365672E-14 -1.263345E-13 199 199 199 255
0.0625 -0.025888337 -0.125 -1 8.365672E-14 -1.263345E-13 199 199 199 255
0.0625 -0.025888337 -0.105 -1 8.365672E-14 -1.263345E-13 199 199 199 255
0.0625 0.025888337 -0.125 -1 8.365672E-14 -1.263345E-13 199 199 199 255
-0.01346194 -0.03250001 0.125 -0.70710677 -0.70710677 1.9141789E-13 86 86 86 255
-0.03250001 -0.01346194 0.105 -0.70710677 -0.70710677 1.9141789E-13 86 86 86 255
-0.01346194 -0.03250001 0.105 -0.70710677 -0.70710677 1.9141789E-13 86 86 86 255
-0.03250001 -0.01346194 0.125 -0.70710677 -0.70710677 1.9141789E-13 86 86 86 255
-0.03250001 -0.01346194 0.125 -1 6.703263E-14 1.443823E-13 86 86 86 255
-0.03250001 0.01346194 0.105 -1 6.703263E-14 1.443823E-13 86 86 86 255
-0.03250001 -0.01346194 0.105 -1 6.703263E-14 1.443823E-13 86 86 86 255
-0.03250001 0.01346194 0.125 -1 6.703263E-14 1.443823E-13 86 86 86 255
0.03250001 -0.01346194 0.105 1.280591E-13 1.1049791E-13 -1 86 86 86 255
0.01346194 0.03250001 0.105 1.280591E-13 1.1049791E-13 -1 86 86 86 255
0.03250001 0.01346194 0.105 1.280591E-13 1.1049791E-13 -1 86 86 86 255
0.01346194 -0.03250001 0.105 1.280591E-13 1.1049791E-13 -1 86 86 86 255
-0.01346194 0.03250001 0.105 1.280591E-13 1.1049791E-13 -1 86 86 86 255
-0.01346194 -0.03250001 0.105 1.280591E-13 1.1049791E-13 -1 86 86 86 255
-0.03250001 -0.01346194 0.105 1.280591E-13 1.1049791E-13 -1 86 86 86 255
-0.03250001 0.01346194 0.105 1.280591E-13 1.1049791E-13 -1 86 86 86 255
0.01346194 -0.03250001 0.105 -2.6813048E-14 -1 1.263345E-13 86 86 86 255
-0.01346194 -0.03250001 0.125 -2.6813048E-14 -1 1.263345E-13 86 86 86 255
-0.01346194 -0.03250001 0.105 -2.6813048E-14 -1 1.263345E-13 86 86 86 255
0.01346194 -0.03250001 0.125 -2.6813048E-14 -1 1.263345E-13 86 86 86 255
-0.03250001 0.01346194 0.125 -0.70710677 0.70710677 1.27569786E-14 86 86 86 255
-0.01346194 0.03250001 0.105 -0.70710677 0.70710677 1.27569786E-14 86 86 86 255
-0.03250001 0.01346194 0.105 -0.70710677 0.70710677 1.27569786E-14 86 86 86 255
-0.01346194 0.03250001 0.125 -0.70710677 0.70710677 1.27569786E-14 86 86 86 255
-0.01346194 0.03250001 0.125 1.9058038E-26 1 -1.263345E-13 86 86 86 255
0.01346194 0.03250001 0.105 1.9058038E-26 1 -1.263345E-13 86 86 86 255
-0.01346194 0.03250001 0.105 1.9058038E-26 1 -1.263345E-13 86 86 86 255
0.01346194 0.03250001 0.125 1.9058038E-26 1 -1.263345E-13 86 86 86 255
0.01346194 0.03250001 0.105 0.70710677 0.70710677 -1.9144956E-13 86 86 86 255
0.03250001 0.01346194 0.125 0.70710677 0.70710677 -1.9144956E-13 86 86 86 255
0.03250001 0.01346194 0.105 0.70710677 0.70710677 -1.9144956E-13 86 86 86 255
0.01346194 0.03250001 0.125 0.70710677 0.70710677 -1.9144956E-13 86 86 86 255
0.03250001 0.01346194 0.105 1 -8.043915E-14 -1.443823E-13 86 86 86 255
0.03250001 -0.01346194 0.125 1 -8.043915E-14 -1.443823E-13 86 86 86 255
0.03250001 -0.01346194 0.105 1 -8.043915E-14 -1.443823E-13 86 86 86 255
0.03250001 0.01346194 0.125 1 -8.043915E-14 -1.443823E-13 86 86 86 255
0.03250001 -0.01346194 0.105 0.70710677 -0.70710677 -1.2788629E-14 86 86 86 255
0.01346194 -0.03250001 0.125 0.70710677 -0.70710677 -1.2788629E-14 86 86 86 255
0.01346194 -0.03250001 0.105 0.70710677 -0.70710677 -1.2788629E-14 86 86 86 255
0.03250001 -0.01346194 0.125 0.70710677 -0.70710677 -1.2788629E-14 86 86 86 255
-0.05334709 -0.035041254 0.105 -0.70595175 0.70595175 0.05713339 86 86 86 255
-0.09134296 -0.05766025 -0.085 -0.70595175 0.70595175 0.05713339 86 86 86 255
-0.09815862 -0.06447592 -0.085 -0.70595175 0.70595175 0.05713339 86 86 86 255
-0.046531424 -0.028225597 0.105 -0.70595175 0.70595175 0.05713339 86 86 86 255
-0.114999995 -0.04763455 -0.085 0.68156636 0.68156636 -0.26633537 86 86 86 255
-0.05334709 -0.035041254 0.105 0.68156636 0.68156636 -0.26633537 86 86 86 255
-0.09815862 -0.06447592 -0.085 0.68156636 0.68156636 -0.26633537 86 86 86 255
-0.0625 -0.025888337 0.105 0.68156636 0.68156636 -0.26633537 86 86 86 255
-0.046531424 -0.028225597 0.105 0.68156636 0.68156636 -0.26633537 86 86 86 255
-0.05766025 -0.09134296 -0.085 0.68156636 0.68156636 -0.26633537 86 86 86 255
-0.09134296 -0.05766025 -0.085 0.68156636 0.68156636 -0.26633537 86 86 86 255
-0.028225597 -0.046531424 0.105 0.68156636 0.68156636 -0.26633537 86 86 86 255
-0.114999995 -0.023817278 -0.085 0.9638804 2.235253E-14 -0.2663354 86 86 86 255
-0.0625 -0.025888337 0.105 0.9638804 2.235253E-14 -0.2663354 86 86 86 255
-0.114999995 -0.04763455 -0.085 0.9638804 2.235253E-14 -0.2663354 86 86 86 255
-0.0625 -0.012944171 0.105 0.9638804 2.235253E-14 -0.2663354 86 86 86 255
-0.05766025 -0.09134296 -0.085 0.70595175 -0.70595175 0.05713339 86 86 86 255
-0.035041254 -0.05334709 0.105 0.70595175 -0.70595175 0.05713339 86 86 86 255
-0.06447592 -0.09815862 -0.085 0.70595175 -0.70595175 0.05713339 86 86 86 255
-0.028225597 -0.046531424 0.105 0.70595175 -0.70595175 0.05713339 86 86 86 255
-0.052861184 -0.012944171 0.105 -1.7607248E-14 -0.99836653 0.05713339 86 86 86 255
-0.114999995 -0.023817278 -0.085 -1.7607248E-14 -0.99836653 0.05713339 86 86 86 255
-0.1053612 -0.023817278 -0.085 -1.7607248E-14 -0.99836653 0.05713339 86 86 86 255
-0.0625 -0.012944171 0.105 -1.7607248E-14 -0.99836653 0.05713339 86 86 86 255
-0.06447592 -0.09815862 -0.085 0.68156636 0.68156636 -0.26633537 86 86 86 255
-0.025888337 -0.0625 0.105 0.68156636 0.68156636 -0.26633537 86 86 86 255
-0.04763455 -0.114999995 -0.085 0.68156636 0.68156636 -0.26633537 86 86 86 255
-0.035041254 -0.05334709 0.105 0.68156636 0.68156636 -0.26633537 86 86 86 255
-0.1053612 0.023817278 -0.085 0.9638804 2.207217E-14 -0.2663354 86 86 86 255
-0.052861184 -0.012944171 0.105 0.9638804 2.207217E-14 -0.2663354 86 86 86 255
-0.1053612 -0.023817278 -0.085 0.9638804 2.207217E-14 -0.2663354 86 86 86 255
-0.052861184 0.012944171 0.105 0.9638804 2.207217E-14 -0.2663354 86 86 86 255
-0.025888337 -0.0625 0.105 3.395865E-14 0.9638804 -0.2663354 86 86 86 255
-0.023817278 -0.114999995 -0.085 3.395865E-14 0.9638804 -0.2663354 86 86 86 255
-0.04763455 -0.114999995 -0.085 3.395865E-14 0.9638804 -0.2663354 86 86 86 255
-0.012944171 -0.0625 0.105 3.395865E-14 0.9638804 -0.2663354 86 86 86 255
-0.114999995 0.023817278 -0.085 1.9367978E-14 0.99836653 0.05713339 86 86 86 255
-0.052861184 0.012944171 0.105 1.9367978E-14 0.99836653 0.05713339 86 86 86 255
-0.1053612 0.023817278 -0.085 1.9367978E-14 0.99836653 0.05713339 86 86 86 255
-0.0625 0.012944171 0.105 1.9367978E-14 0.99836653 0.05713339 86 86 86 255
-0.012944171 -0.0625 0.105 -0.99836653 3.6975224E-14 0.05713339 86 86 86 255
-0.023817278 -0.1053612 -0.085 -0.99836653 3.6975224E-14 0.05713339 86 86 86 255
-0.023817278 -0.114999995 -0.085 -0.99836653 3.6975224E-14 0.05713339 86 86 86 255
-0.012944171 -0.052861184 0.105 -0.99836653 3.6975224E-14 0.05713339 86 86 86 255
-0.114999995 0.023817278 -0.085 0.9638804 2.708095E-14 -0.2663354 86 86 86 255
-0.0625 0.025888337 0.105 0.9638804 2.708095E-14 -0.2663354 86 86 86 255
-0.0625 0.012944171 0.105 0.9638804 2.708095E-14 -0.2663354 86 86 86 255
-0.114999995 0.04763455 -0.085 0.9638804 2.708095E-14 -0.2663354 86 86 86 255
-0.012944171 -0.052861184 0.105 2.7563636E-14 0.9638804 -0.2663354 86 86 86 255
0.023817278 -0.1053612 -0.085 2.7563636E-14 0.9638804 -0.2663354 86 86 86 255
-0.023817278 -0.1053612 -0.085 2.7563636E-14 0.9638804 -0.2663354 86 86 86 255
0.012944171 -0.052861184 0.105 2.7563636E-14 0.9638804 -0.2663354 86 86 86 255
-0.114999995 0.04763455 -0.085 0.68156636 -0.68156636 -0.26633537 86 86 86 255
-0.05334709 0.035041254 0.105 0.68156636 -0.68156636 -0.26633537 86 86 86 255
-0.0625 0.025888337 0.105 0.68156636 -0.68156636 -0.26633537 86 86 86 255
-0.09815862 0.06447592 -0.085 0.68156636 -0.68156636 -0.26633537 86 86 86 255
0.023817278 -0.1053612 -0.085 0.99836653 -3.6975224E-14 0.05713339 86 86 86 255
0.012944171 -0.0625 0.105 0.99836653 -3.6975224E-14 0.05713339 86 86 86 255
0.023817278 -0.114999995 -0.085 0.99836653 -3.6975224E-14 0.05713339 86 86 86 255
0.012944171 -0.052861184 0.105 0.99836653 -3.6975224E-14 0.05713339 86 86 86 255
-0.09134296 0.05766025 -0.085 -0.70595175 -0.70595175 0.05713339 86 86 86 255
-0.05334709 0.035041254 0.105 -0.70595175 -0.70595175 0.05713339 86 86 86 255
-0.09815862 0.06447592 -0.085 -0.70595175 -0.70595175 0.05713339 86 86 86 255
-0.046531424 0.028225597 0.105 -0.70595175 -0.70595175 0.05713339 86 86 86 255
0.012944171 -0.0625 0.105 2.235253E-14 0.9638804 -0.2663354 86 86 86 255
0.04763455 -0.114999995 -0.085 2.235253E-14 0.9638804 -0.2663354 86 86 86 255
0.023817278 -0.114999995 -0.085 2.235253E-14 0.9638804 -0.2663354 86 86 86 255
0.025888337 -0.0625 0.105 2.235253E-14 0.9638804 -0.2663354 86 86 86 255
-0.09134296 0.05766025 -0.085 0.68156636 -0.68156636 -0.26633537 86 86 86 255
-0.028225597 0.046531424 0.105 0.68156636 -0.68156636 -0.26633537 86 86 86 255
-0.046531424 0.028225597 0.105 0.68156636 -0.68156636 -0.26633537 86 86 86 255
-0.05766025 0.09134296 -0.085 0.68156636 -0.68156636 -0.26633537 86 86 86 255
0.025888337 -0.0625 0.105 -0.68156636 0.68156636 -0.26633537 86 86 86 255
0.06447592 -0.09815862 -0.085 -0.68156636 0.68156636 -0.26633537 86 86 86 255
0.04763455 -0.114999995 -0.085 -0.68156636 0.68156636 -0.26633537 86 86 86 255
0.035041254 -0.05334709 0.105 -0.68156636 0.68156636 -0.26633537 86 86 86 255
-0.035041254 0.05334709 0.105 0.70595175 0.70595175 0.05713339 86 86 86 255
-0.05766025 0.09134296 -0.085 0.70595175 0.70595175 0.05713339 86 86 86 255
-0.06447592 0.09815862 -0.085 0.70595175 0.70595175 0.05713339 86 86 86 255
-0.028225597 0.046531424 0.105 0.70595175 0.70595175 0.05713339 86 86 86 255
0.035041254 -0.05334709 0.105 -0.70595175 -0.70595175 0.05713339 86 86 86 255
0.05766025 -0.09134296 -0.085 -0.70595175 -0.70595175 0.05713339 86 86 86 255
0.06447592 -0.09815862 -0.085 -0.70595175 -0.70595175 0.05713339 86 86 86 255
-0.06447592 0.09815862 -0.085 0.68156636 -0.68156636 -0.26633537 86 86 86 255
-0.025888337 0.0625 0.105 0.68156636 -0.68156636 -0.26633537 86 86 86 255
-0.035041254 0.05334709 0.105 0.68156636 -0.68156636 -0.26633537 86 86 86 255
-0.04763455 0.114999995 -0.085 0.68156636 -0.68156636 -0.26633537 86 86 86 255
0.028225597 -0.046531424 0.105 -0.70595175 -0.70595175 0.05713339 86 86 86 255
-0.023817278 0.114999995 -0.085 4.556477E-14 -0.9638804 -0.2663354 86 86 86 255
-0.025888337 0.0625 0.105 4.556477E-14 -0.9638804 -0.2663354 86 86 86 255
-0.04763455 0.114999995 -0.085 4.556477E-14 -0.9638804 -0.2663354 86 86 86 255
-0.012944171 0.0625 0.105 4.556477E-14 -0.9638804 -0.2663354 86 86 86 255
0.028225597 -0.046531424 0.105 -0.68156636 0.68156636 -0.26633537 86 86 86 255
0.09134296 -0.05766025 -0.085 -0.68156636 0.68156636 -0.26633537 86 86 86 255
0.05766025 -0.09134296 -0.085 -0.68156636 0.68156636 -0.26633537 86 86 86 255
0.046531424 -0.028225597 0.105 -0.68156636 0.68156636 -0.26633537 86 86 86 255
-0.012944171 0.0625 0.105 -0.99836653 -3.6094866E-14 0.05713339 86 86 86 255
-0.023817278 0.1053612 -0.085 -0.99836653 -3.6094866E-14 0.05713339 86 86 86 255
-0.012944171 0.052861184 0.105 -0.99836653 -3.6094866E-14 0.05713339 86 86 86 255
-0.023817278 0.114999995 -0.085 -0.99836653 -3.6094866E-14 0.05713339 86 86 86 255
0.09134296 -0.05766025 -0.085 0.70595175 0.70595175 0.05713339 86 86 86 255
0.05334709 -0.035041254 0.105 0.70595175 0.70595175 0.05713339 86 86 86 255
0.09815862 -0.06447592 -0.085 0.70595175 0.70595175 0.05713339 86 86 86 255
0.046531424 -0.028225597 0.105 0.70595175 0.70595175 0.05713339 86 86 86 255
0.023817278 0.1053612 -0.085 3.3945208E-14 -0.9638804 -0.2663354 86 86 86 255
-0.012944171 0.052861184 0.105 3.3945208E-14 -0.9638804 -0.2663354 86 86 86 255
-0.023817278 0.1053612 -0.085 3.3945208E-14 -0.9638804 -0.2663354 86 86 86 255
0.012944171 0.052861184 0.105 3.3945208E-14 -0.9638804 -0.2663354 86 86 86 255
0.05334709 -0.035041254 0.105 -0.68156636 0.68156636 -0.26633537 86 86 86 255
0.114999995 -0.04763455 -0.085 -0.68156636 0.68156636 -0.26633537 86 86 86 255
0.09815862 -0.06447592 -0.085 -0.68156636 0.68156636 -0.26633537 86 86 86 255
0.0625 -0.025888337 0.105 -0.68156636 0.68156636 -0.26633537 86 86 86 255
0.023817278 0.1053612 -0.085 0.99836653 3.8735945E-14 0.05713339 86 86 86 255
0.012944171 0.0625 0.105 0.99836653 3.8735945E-14 0.05713339 86 86 86 255
0.012944171 0.052861184 0.105 0.99836653 3.8735945E-14 0.05713339 86 86 86 255
0.023817278 0.114999995 -0.085 0.99836653 3.8735945E-14 0.05713339 86 86 86 255
0.0625 -0.025888337 0.105 -0.9638804 3.4388508E-14 -0.2663354 86 86 86 255
0.114999995 -0.023817278 -0.085 -0.9638804 3.4388508E-14 -0.2663354 86 86 86 255
0.114999995 -0.04763455 -0.085 -0.9638804 3.4388508E-14 -0.2663354 86 86 86 255
0.0625 -0.012944171 0.105 -0.9638804 3.4388508E-14 -0.2663354 86 86 86 255
0.04763455 0.114999995 -0.085 4.5994628E-14 -0.9638804 -0.2663354 86 86 86 255
0.012944171 0.0625 0.105 4.5994628E-14 -0.9638804 -0.2663354 86 86 86 255
0.023817278 0.114999995 -0.085 4.5994628E-14 -0.9638804 -0.2663354 86 86 86 255
0.025888337 0.0625 0.105 4.5994628E-14 -0.9638804 -0.2663354 86 86 86 255
0.0625 -0.012944171 0.105 2.2009057E-14 -0.99836653 0.05713339 86 86 86 255
0.1053612 -0.023817278 -0.085 2.2009057E-14 -0.99836653 0.05713339 86 86 86 255
0.114999995 -0.023817278 -0.085 2.2009057E-14 -0.99836653 0.05713339 86 86 86 255
0.052861184 -0.012944171 0.105 2.2009057E-14 -0.99836653 0.05713339 86 86 86 255
0.025888337 0.0625 0.105 -0.68156636 -0.68156636 -0.26633537 86 86 86 255
0.06447592 0.09815862 -0.085 -0.68156636 -0.68156636 -0.26633537 86 86 86 255
0.035041254 0.05334709 0.105 -0.68156636 -0.68156636 -0.26633537 86 86 86 255
0.04763455 0.114999995 -0.085 -0.68156636 -0.68156636 -0.26633537 86 86 86 255
0.052861184 -0.012944171 0.105 -0.9638804 3.9607267E-14 -0.2663354 86 86 86 255
0.1053612 0.023817278 -0.085 -0.9638804 3.9607267E-14 -0.2663354 86 86 86 255
0.1053612 -0.023817278 -0.085 -0.9638804 3.9607267E-14 -0.2663354 86 86 86 255
0.052861184 0.012944171 0.105 -0.9638804 3.9607267E-14 -0.2663354 86 86 86 255
0.035041254 0.05334709 0.105 -0.70595175 0.70595175 0.05713339 86 86 86 255
0.05766025 0.09134296 -0.085 -0.70595175 0.70595175 0.05713339 86 86 86 255
0.028225597 0.046531424 0.105 -0.70595175 0.70595175 0.05713339 86 86 86 255
0.06447592 0.09815862 -0.085 -0.70595175 0.70595175 0.05713339 86 86 86 255
0.1053612 0.023817278 -0.085 -1.6726886E-14 0.99836653 0.05713339 86 86 86 255
0.0625 0.012944171 0.105 -1.6726886E-14 0.99836653 0.05713339 86 86 86 255
0.114999995 0.023817278 -0.085 -1.6726886E-14 0.99836653 0.05713339 86 86 86 255
0.052861184 0.012944171 0.105 -1.6726886E-14 0.99836653 0.05713339 86 86 86 255
0.028225597 0.046531424 0.105 -0.68156636 -0.68156636 -0.26633537 86 86 86 255
0.09134296 0.05766025 -0.085 -0.68156636 -0.68156636 -0.26633537 86 86 86 255
0.046531424 0.028225597 0.105 -0.68156636 -0.68156636 -0.26633537 86 86 86 255
0.05766025 0.09134296 -0.085 -0.68156636 -0.68156636 -0.26633537 86 86 86 255
0.0625 0.025888337 0.105 -0.9638804 3.395865E-14 -0.2663354 86 86 86 255
0.114999995 0.023817278 -0.085 -0.9638804 3.395865E-14 -0.2663354 86 86 86 255
0.0625 0.012944171 0.105 -0.9638804 3.395865E-14 -0.2663354 86 86 86 255
0.114999995 0.04763455 -0.085 -0.9638804 3.395865E-14 -0.2663354 86 86 86 255
0.09134296 0.05766025 -0.085 0.70595175 -0.70595175 0.05713339 86 86 86 255
0.05334709 0.035041254 0.105 0.70595175 -0.70595175 0.05713339 86 86 86 255
0.046531424 0.028225597 0.105 0.70595175 -0.70595175 0.05713339 86 86 86 255
0.09815862 0.06447592 -0.085 0.70595175 -0.70595175 0.05713339 86 86 86 255
0.114999995 0.04763455 -0.085 -0.68156636 -0.68156636 -0.26633537 86 86 86 255
0.05334709 0.035041254 0.105 -0.68156636 -0.68156636 -0.26633537 86 86 86 255
0.09815862 0.06447592 -0.085 -0.68156636 -0.68156636 -0.26633537 86 86 86 255
0.0625 0.025888337 0.105 -0.68156636 -0.68156636 -0.26633537 86 86 86 255
-0.023817278 0.1053612 -0.085 1.1982079E-13 -4.798049E-14 -1 199 199 199 255
0.023817278 0.114999995 -0.085 1.1982079E-13 -4.798049E-14 -1 199 199 199 255
0.023817278 0.1053612 -0.085 1.1982079E-13 -4.798049E-14 -1 199 199 199 255
-0.023817278 0.114999995 -0.085 1.1982079E-13 -4.798049E-14 -1 199 199 199 255
0.1053612 -0.023817278 -0.085 -6.72897E-14 1.147296E-13 -1 199 199 199 255
0.114999995 0.023817278 -0.085 -6.72897E-14 1.147296E-13 -1 199 199 199 255
0.114999995 -0.023817278 -0.085 -6.72897E-14 1.147296E-13 -1 199 199 199 255
0.1053612 0.023817278 -0.085 -6.72897E-14 1.147296E-13 -1 199 199 199 255
0.051776703 0.125 -0.105 -1.198349E-13 -1.147559E-13 1 199 199 199 255
0.0625 0.025888337 -0.105 -1.198349E-13 -1.147559E-13 1 199 199 199 255
0.125 0.051776703 -0.105 -1.198349E-13 -1.147559E-13 1 199 199 199 255
0.025888337 0.0625 -0.105 -1.198349E-13 -1.147559E-13 1 199 199 199 255
-0.051776703 0.125 -0.105 -1.198349E-13 -1.147559E-13 1 199 199 199 255
-0.025888337 0.0625 -0.105 -1.198349E-13 -1.147559E-13 1 199 199 199 255
-0.0625 0.025888337 -0.105 -1.198349E-13 -1.147559E-13 1 199 199 199 255
-0.125 0.051776703 -0.105 -1.198349E-13 -1.147559E-13 1 199 199 199 255
-0.0625 -0.025888337 -0.105 -1.198349E-13 -1.147559E-13 1 199 199 199 255
-0.125 -0.051776703 -0.105 -1.198349E-13 -1.147559E-13 1 199 199 199 255
0.051776703 -0.125 -0.105 -1.198349E-13 -1.147559E-13 1 199 199 199 255
0.125 -0.051776703 -0.105 -1.198349E-13 -1.147559E-13 1 199 199 199 255
0.0625 -0.025888337 -0.105 -1.198349E-13 -1.147559E-13 1 199 199 199 255
0.025888337 -0.0625 -0.105 -1.198349E-13 -1.147559E-13 1 199 199 199 255
-0.051776703 -0.125 -0.105 -1.198349E-13 -1.147559E-13 1 199 199 199 255
-0.025888337 -0.0625 -0.105 -1.198349E-13 -1.147559E-13 1 199 199 199 255
-0.125 -0.051776703 -0.105 1 1.045709E-14 1.263345E-13 199 199 199 255
-0.125 0.051776703 -0.085 1 1.045709E-14 1.263345E-13 199 199 199 255
-0.125 -0.051776703 -0.085 1 1.045709E-14 1.263345E-13 199 199 199 255
-0.125 0.051776703 -0.105 1 1.045709E-14 1.263345E-13 199 199 199 255
-0.125 -0.051776703 -0.085 0.70710677 0.70710677 1.7220329E-13 199 199 199 255
-0.051776703 -0.125 -0.105 0.70710677 0.70710677 1.7220329E-13 199 199 199 255
-0.125 -0.051776703 -0.105 0.70710677 0.70710677 1.7220329E-13 199 199 199 255
-0.051776703 -0.125 -0.085 0.70710677 0.70710677 1.7220329E-13 199 199 199 255
-0.051776703 -0.125 -0.085 -1.045709E-14 1 1.263345E-13 199 199 199 255
0.051776703 -0.125 -0.105 -1.045709E-14 1 1.263345E-13 199 199 199 255
-0.051776703 -0.125 -0.105 -1.045709E-14 1 1.263345E-13 199 199 199 255
0.051776703 -0.125 -0.085 -1.045709E-14 1 1.263345E-13 199 199 199 255
0.125 -0.051776703 -0.085 -0.70710677 0.70710677 -6.331004E-15 199 199 199 255
0.051776703 -0.125 -0.105 -0.70710677 0.70710677 -6.331004E-15 199 199 199 255
0.051776703 -0.125 -0.085 -0.70710677 0.70710677 -6.331004E-15 199 199 199 255
0.125 -0.051776703 -0.105 -0.70710677 0.70710677 -6.331004E-15 199 199 199 255
0.125 0.051776703 -0.085 -1 -1.045709E-14 -1.263345E-13 199 199 199 255
0.125 -0.051776703 -0.105 -1 -1.045709E-14 -1.263345E-13 199 199 199 255
0.125 -0.051776703 -0.085 -1 -1.045709E-14 -1.263345E-13 199 199 199 255
0.125 0.051776703 -0.105 -1 -1.045709E-14 -1.263345E-13 199 199 199 255
0.125 0.051776703 -0.105 -0.70710677 -0.70710677 -1.6587228E-13 199 199 199 255
0.051776703 0.125 -0.085 -0.70710677 -0.70710677 -1.6587228E-13 199 199 199 255
0.051776703 0.125 -0.105 -0.70710677 -0.70710677 -1.6587228E-13 199 199 199 255
0.125 0.051776703 -0.085 -0.70710677 -0.70710677 -1.6587228E-13 199 199 199 255
0.051776703 0.125 -0.105 1.045709E-14 -1 -1.082867E-13 199 199 199 255
-0.051776703 0.125 -0.085 1.045709E-14 -1 -1.082867E-13 199 199 199 255
-0.051776703 0.125 -0.105 1.045709E-14 -1 -1.082867E-13 199 199 199 255
0.051776703 0.125 -0.085 1.045709E-14 -1 -1.082867E-13 199 199 199 255
-0.125 0.051776703 -0.105 0.70710677 -0.70710677 1.2662008E-14 199 199 199 255
-0.051776703 0.125 -0.085 0.70710677 -0.70710677 1.2662008E-14 199 199 199 255
-0.125 0.051776703 -0.085 0.70710677 -0.70710677 1.2662008E-14 199 199 199 255
-0.051776703 0.125 -0.105 0.70710677 -0.70710677 1.2662008E-14 199 199 199 255
0.125 -0.051776703 -0.085 1.198156E-13 1.147413E-13 -1 199 199 199 255
0.114999995 -0.04763455 -0.085 1.198156E-13 1.147413E-13 -1 199 199 199 255
0.125 0.051776703 -0.085 1.198156E-13 1.147413E-13 -1 199 199 199 255
0.051776703 -0.125 -0.085 1.198156E-13 1.147413E-13 -1 199 199 199 255
0.09815862 -0.06447592 -0.085 1.198156E-13 1.147413E-13 -1 199 199 199 255
0.06447592 -0.09815862 -0.085 1.198156E-13 1.147413E-13 -1 199 199 199 255
0.04763455 -0.114999995 -0.085 1.198156E-13 1.147413E-13 -1 199 199 199 255
-0.051776703 -0.125 -0.085 1.198156E-13 1.147413E-13 -1 199 199 199 255
0.023817278 -0.114999995 -0.085 1.198156E-13 1.147413E-13 -1 199 199 199 255
-0.023817278 -0.114999995 -0.085 1.198156E-13 1.147413E-13 -1 199 199 199 255
-0.04763455 -0.114999995 -0.085 1.198156E-13 1.147413E-13 -1 199 199 199 255
-0.06447592 -0.09815862 -0.085 1.198156E-13 1.147413E-13 -1 199 199 199 255
-0.125 -0.051776703 -0.085 1.198156E-13 1.147413E-13 -1 199 199 199 255
-0.09815862 -0.06447592 -0.085 1.198156E-13 1.147413E-13 -1 199 199 199 255
-0.114999995 -0.04763455 -0.085 1.198156E-13 1.147413E-13 -1 199 199 199 255
-0.114999995 -0.023817278 -0.085 1.198156E-13 1.147413E-13 -1 199 199 199 255
-0.114999995 0.023817278 -0.085 1.198156E-13 1.147413E-13 -1 199 199 199 255
-0.114999995 0.04763455 -0.085 1.198156E-13 1.147413E-13 -1 199 199 199 255
0.114999995 0.04763455 -0.085 1.198156E-13 1.147413E-13 -1 199 199 199 255
0.051776703 0.125 -0.085 1.198156E-13 1.147413E-13 -1 199 199 199 255
0.114999995 0.023817278 -0.085 1.198156E-13 1.147413E-13 -1 199 199 199 255
0.114999995 -0.023817278 -0.085 1.198156E-13 1.147413E-13 -1 199 199 199 255
0.09815862 0.06447592 -0.085 1.198156E-13 1.147413E-13 -1 199 199 199 255
0.06447592 0.09815862 -0.085 1.198156E-13 1.147413E-13 -1 199 199 199 255
0.04763455 0.114999995 -0.085 1.198156E-13 1.147413E-13 -1 199 199 199 255
-0.051776703 0.125 -0.085 1.198156E-13 1.147413E-13 -1 199 199 199 255
0.023817278 0.114999995 -0.085 1.198156E-13 1.147413E-13 -1 199 199 199 255
-0.023817278 0.114999995 -0.085 1.198156E-13 1.147413E-13 -1 199 199 199 255
-0.04763455 0.114999995 -0.085 1.198156E-13 1.147413E-13 -1 199 199 199 255
-0.06447592 0.09815862 -0.085 1.198156E-13 1.147413E-13 -1 199 199 199 255
-0.125 0.051776703 -0.085 1.198156E-13 1.147413E-13 -1 199 199 199 255
-0.09815862 0.06447592 -0.085 1.198156E-13 1.147413E-13 -1 199 199 199 255
0.09134296 0.05766025 -0.085 -5.789555E-14 -6.291883E-14 -1 199 199 199 255
0.06447592 0.09815862 -0.085 -5.789555E-14 -6.291883E-14 -1 199 199 199 255
0.09815862 0.06447592 -0.085 -5.789555E-14 -6.291883E-14 -1 199 199 199 255
0.05766025 0.09134296 -0.085 -5.789555E-14 -6.291883E-14 -1 199 199 199 255
0.06447592 -0.09815862 -0.085 8.162772E-14 1.527924E-13 -1 199 199 199 255
0.09134296 -0.05766025 -0.085 8.162772E-14 1.527924E-13 -1 199 199 199 255
0.09815862 -0.06447592 -0.085 8.162772E-14 1.527924E-13 -1 199 199 199 255
0.05766025 -0.09134296 -0.085 8.162772E-14 1.527924E-13 -1 199 199 199 255
-0.114999995 -0.023817278 -0.085 -5.266151E-15 1.147296E-13 -1 199 199 199 255
-0.1053612 0.023817278 -0.085 -5.266151E-15 1.147296E-13 -1 199 199 199 255
-0.1053612 -0.023817278 -0.085 -5.266151E-15 1.147296E-13 -1 199 199 199 255
-0.114999995 0.023817278 -0.085 -5.266151E-15 1.147296E-13 -1 199 199 199 255
0.012944171 0.0625 0.105 -1.533707E-13 1.404307E-14 1 199 199 199 255
-0.012944171 0.052861184 0.105 -1.533707E-13 1.404307E-14 1 199 199 199 255
0.012944171 0.052861184 0.105 -1.533707E-13 1.404307E-14 1 199 199 199 255
-0.012944171 0.0625 0.105 -1.533707E-13 1.404307E-14 1 199 199 199 255
-0.012944171 0.0625 0.105 1.677353E-26 -1 -1.082867E-13 199 199 199 255
-0.025888337 0.0625 0.125 1.677353E-26 -1 -1.082867E-13 199 199 199 255
-0.025888337 0.0625 0.105 1.677353E-26 -1 -1.082867E-13 199 199 199 255
0.012944171 0.0625 0.105 1.677353E-26 -1 -1.082867E-13 199 199 199 255
0.025888337 0.0625 0.105 1.677353E-26 -1 -1.082867E-13 199 199 199 255
0.025888337 0.0625 0.125 1.677353E-26 -1 -1.082867E-13 199 199 199 255
0.0625 -0.025888337 0.125 1.287096E-13 1.1077589E-13 -1 199 199 199 255
0.03250001 -0.01346194 0.125 1.287096E-13 1.1077589E-13 -1 199 199 199 255
0.03250001 0.01346194 0.125 1.287096E-13 1.1077589E-13 -1 199 199 199 255
0.025888337 -0.0625 0.125 1.287096E-13 1.1077589E-13 -1 199 199 199 255
0.01346194 -0.03250001 0.125 1.287096E-13 1.1077589E-13 -1 199 199 199 255
-0.025888337 -0.0625 0.125 1.287096E-13 1.1077589E-13 -1 199 199 199 255
-0.01346194 -0.03250001 0.125 1.287096E-13 1.1077589E-13 -1 199 199 199 255
-0.03250001 -0.01346194 0.125 1.287096E-13 1.1077589E-13 -1 199 199 199 255
-0.0625 -0.025888337 0.125 1.287096E-13 1.1077589E-13 -1 199 199 199 255
-0.0625 0.025888337 0.125 1.287096E-13 1.1077589E-13 -1 199 199 199 255
0.025888337 0.0625 0.125 1.287096E-13 1.1077589E-13 -1 199 199 199 255
0.0625 0.025888337 0.125 1.287096E-13 1.1077589E-13 -1 199 199 199 255
0.01346194 0.03250001 0.125 1.287096E-13 1.1077589E-13 -1 199 199 199 255
-0.025888337 0.0625 0.125 1.287096E-13 1.1077589E-13 -1 199 199 199 255
-0.01346194 0.03250001 0.125 1.287096E-13 1.1077589E-13 -1 199 199 199 255
-0.03250001 0.01346194 0.125 1.287096E-13 1.1077589E-13 -1 199 199 199 255
-0.0625 0.025888337 0.105 0.70710677 -0.70710677 1.2749059E-14 199 199 199 255
-0.025888337 0.0625 0.125 0.70710677 -0.70710677 1.2749059E-14 199 199 199 255
-0.0625 0.025888337 0.125 0.70710677 -0.70710677 1.2749059E-14 199 199 199 255
-0.05334709 0.035041254 0.105 0.70710677 -0.70710677 1.2749059E-14 199 199 199 255
-0.035041254 0.05334709 0.105 0.70710677 -0.70710677 1.2749059E-14 199 199 199 255
-0.025888337 0.0625 0.105 0.70710677 -0.70710677 1.2749059E-14 199 199 199 255
0.025888337 0.0625 0.125 -0.70710677 -0.70710677 -1.6588026E-13 199 199 199 255
0.0625 0.025888337 0.105 -0.70710677 -0.70710677 -1.6588026E-13 199 199 199 255
0.0625 0.025888337 0.125 -0.70710677 -0.70710677 -1.6588026E-13 199 199 199 255
0.05334709 0.035041254 0.105 -0.70710677 -0.70710677 -1.6588026E-13 199 199 199 255
0.035041254 0.05334709 0.105 -0.70710677 -0.70710677 -1.6588026E-13 199 199 199 255
0.025888337 0.0625 0.105 -0.70710677 -0.70710677 -1.6588026E-13 199 199 199 255
0.025888337 -0.0625 0.125 -0.70710677 0.70710677 -1.2725318E-14 199 199 199 255
0.035041254 -0.05334709 0.105 -0.70710677 0.70710677 -1.2725318E-14 199 199 199 255
0.025888337 -0.0625 0.105 -0.70710677 0.70710677 -1.2725318E-14 199 199 199 255
0.05334709 -0.035041254 0.105 -0.70710677 0.70710677 -1.2725318E-14 199 199 199 255
0.0625 -0.025888337 0.105 -0.70710677 0.70710677 -1.2725318E-14 199 199 199 255
0.0625 -0.025888337 0.125 -0.70710677 0.70710677 -1.2725318E-14 199 199 199 255
-0.025888337 -0.0625 0.125 2.788557E-14 1 9.9262815E-14 199 199 199 255
-0.012944171 -0.0625 0.105 2.788557E-14 1 9.9262815E-14 199 199 199 255
-0.025888337 -0.0625 0.105 2.788557E-14 1 9.9262815E-14 199 199 199 255
0.012944171 -0.0625 0.105 2.788557E-14 1 9.9262815E-14 199 199 199 255
0.025888337 -0.0625 0.105 2.788557E-14 1 9.9262815E-14 199 199 199 255
0.025888337 -0.0625 0.125 2.788557E-14 1 9.9262815E-14 199 199 199 255
-0.025888337 -0.0625 0.105 0.70710677 0.70710677 1.6595148E-13 199 199 199 255
-0.0625 -0.025888337 0.125 0.70710677 0.70710677 1.6595148E-13 199 199 199 255
-0.025888337 -0.0625 0.125 0.70710677 0.70710677 1.6595148E-13 199 199 199 255
-0.035041254 -0.05334709 0.105 0.70710677 0.70710677 1.6595148E-13 199 199 199 255
-0.05334709 -0.035041254 0.105 0.70710677 0.70710677 1.6595148E-13 199 199 199 255
-0.0625 -0.025888337 0.105 0.70710677 0.70710677 1.6595148E-13 199 199 199 255
-0.0625 -0.025888337 0.105 1 -6.196794E-14 1.308464E-13 199 199 199 255
-0.0625 0.025888337 0.125 1 -6.196794E-14 1.308464E-13 199 199 199 255
-0.0625 -0.025888337 0.125 1 -6.196794E-14 1.308464E-13 199 199 199 255
-0.0625 -0.012944171 0.105 1 -6.196794E-14 1.308464E-13 199 199 199 255
-0.0625 0.012944171 0.105 1 -6.196794E-14 1.308464E-13 199 199 199 255
-0.0625 0.025888337 0.105 1 -6.196794E-14 1.308464E-13 199 199 199 255
0.0625 0.025888337 0.125 -1 8.365672E-14 -1.263345E-13 199 199 199 255
0.0625 -0.025888337 0.105 -1 8.365672E-14 -1.263345E-13 199 199 199 255
0.0625 -0.025888337 0.125 -1 8.365672E-14 -1.263345E-13 199 199 199 255
0.0625 -0.012944171 0.105 -1 8.365672E-14 -1.263345E-13 199 199 199 255
0.0625 0.012944171 0.105 -1 8.365672E-14 -1.263345E-13 199 199 199 255
0.0625 0.025888337 0.105 -1 8.365672E-14 -1.263345E-13 199 199 199 255
-0.035041254 0.05334709 0.105 -1.13378904E-13 -1.13378904E-13 1 199 199 199 255
-0.046531424 0.028225597 0.105 -1.13378904E-13 -1.13378904E-13 1 199 199 199 255
-0.028225597 0.046531424 0.105 -1.13378904E-13 -1.13378904E-13 1 199 199 199 255
-0.05334709 0.035041254 0.105 -1.13378904E-13 -1.13378904E-13 1 199 199 199 255
0.035041254 0.05334709 0.105 5.612789E-14 1.669174E-14 1 199 199 199 255
0.046531424 0.028225597 0.105 5.612789E-14 1.669174E-14 1 199 199 199 255
0.05334709 0.035041254 0.105 5.612789E-14 1.669174E-14 1 199 199 199 255
0.028225597 0.046531424 0.105 5.612789E-14 1.669174E-14 1 199 199 199 255
0.046531424 -0.028225597 0.105 -1.404204E-13 -1.6028029E-13 1 199 199 199 255
0.035041254 -0.05334709 0.105 -1.404204E-13 -1.6028029E-13 1 199 199 199 255
0.05334709 -0.035041254 0.105 -1.404204E-13 -1.6028029E-13 1 199 199 199 255
0.028225597 -0.046531424 0.105 -1.404204E-13 -1.6028029E-13 1 199 199 199 255
-0.012944171 -0.052861184 0.105 -1.3245649E-13 1.872409E-14 1 199 199 199 255
0.012944171 -0.0625 0.105 -1.3245649E-13 1.872409E-14 1 199 199 199 255
0.012944171 -0.052861184 0.105 -1.3245649E-13 1.872409E-14 1 199 199 199 255
-0.012944171 -0.0625 0.105 -1.3245649E-13 1.872409E-14 1 199 199 199 255
-0.046531424 -0.028225597 0.105 4.2887958E-14 3.4518028E-15 1 199 199 199 255
-0.035041254 -0.05334709 0.105 4.2887958E-14 3.4518028E-15 1 199 199 199 255
-0.028225597 -0.046531424 0.105 4.2887958E-14 3.4518028E-15 1 199 199 199 255
-0.05334709 -0.035041254 0.105 4.2887958E-14 3.4518028E-15 1 199 199 199 255
-0.0625 0.012944171 0.105 3.744818E-14 -8.365672E-14 1 199 199 199 255
-0.052861184 -0.012944171 0.105 3.744818E-14 -8.365672E-14 1 199 199 199 255
-0.052861184 0.012944171 0.105 3.744818E-14 -8.365672E-14 1 199 199 199 255
-0.0625 -0.012944171 0.105 3.744818E-14 -8.365672E-14 1 199 199 199 255
0.052861184 0.012944171 0.105 3.2767158E-14 -5.5771153E-14 1 199 199 199 255
0.0625 -0.012944171 0.105 3.2767158E-14 -5.5771153E-14 1 199 199 199 255
0.0625 0.012944171 0.105 3.2767158E-14 -5.5771153E-14 1 199 199 199 255
0.052861184 -0.012944171 0.105 3.2767158E-14 -5.5771153E-14 1 199 199 199 255
0.023817278 -0.114999995 -0.085 1.1982079E-13 1.755384E-14 -1 199 199 199 255
-0.023817278 -0.1053612 -0.085 1.1982079E-13 1.755384E-14 -1 199 199 199 255
0.023817278 -0.1053612 -0.085 1.1982079E-13 1.755384E-14 -1 199 199 199 255
-0.023817278 -0.114999995 -0.085 1.1982079E-13 1.755384E-14 -1 199 199 199 255
-0.06447592 -0.09815862 -0.085 3.0091131E-15 -2.181617E-15 -1 199 199 199 255
-0.09134296 -0.05766025 -0.085 3.0091131E-15 -2.181617E-15 -1 199 199 199 255
-0.05766025 -0.09134296 -0.085 3.0091131E-15 -2.181617E-15 -1 199 199 199 255
-0.09815862 -0.06447592 -0.085 3.0091131E-15 -2.181617E-15 -1 199 199 199 255
3 0 1 2
3 1 0 3
3 4 5 6
3 5 4 7
3 8 9 10
3 9 8 11
3 12 13 14
3 13 12 15
3 16 17 18
3 17 16 19
3 20 21 22
3 21 20 23
3 24 25 26
3 25 24 27
3 28 29 30
3 29 28 31
3 32 33 34
3 33 32 35
3 36 37 38
3 37 36 39
3 40 41 42
3 41 40 43
3 44 45 46
3 45 44 47
3 45 47 48
3 48 47 49
3 48 49 50
3 48 50 51
3 52 53 54
3 53 52 55
3 56 57 58
3 57 56 59
3 60 61 62
3 61 60 63
3 64 65 66
3 65 64 67
3 68 69 70
3 69 68 71
3 72 73 74
3 73 72 75
3 76 77 78
3 77 76 79
3 80 81 82
3 81 80 83
3 84 85 86
3 85 84 87
3 88 89 90
3 89 88 91
3 92 93 94
3 93 92 95
3 96 97 98
3 97 96 99
3 100 101 102
3 101 100 103
3 104 105 106
3 105 104 107
3 108 109 110
3 109 108 111
3 112 113 114
3 113 112 115
3 116 117 118
3 117 116 119
3 120 121 122
3 121 120 123
3 124 125 126
3 125 124 127
3 128 129 130
3 129 128 131
3 132 133 134
3 133 132 135
3 136 137 138
3 137 136 139
3 140 141 142
3 141 140 143
3 144 145 146
3 145 144 147
3 148 149 150
3 149 148 151
3 152 153 154
3 153 152 155
3 156 157 158
3 159 160 161
3 160 159 162
3 163 157 156
3 164 165 166
3 165 164 167
3 168 169 170
3 169 168 171
3 172 173 174
3 173 172 175
3 176 177 178
3 177 176 179
3 180 181 182
3 181 180 183
3 184 185 186
3 185 184 187
3 188 189 190
3 189 188 191
3 192 193 194
3 193 192 195
3 196 197 198
3 197 196 199
3 200 201 202
3 201 200 203
3 204 205 206
3 205 204 207
3 208 209 210
3 209 208 211
3 212 213 214
3 213 212 215
3 216 217 218
3 217 216 219
3 220 221 222
3 221 220 223
3 224 225 226
3 225 224 227
3 228 229 230
3 229 228 231
3 232 233 234
3 233 232 235
3 236 237 238
3 237 236 239
3 240 241 242
3 241 240 243
3 244 245 246
3 245 244 247
3 247 244 248
3 247 248 249
3 249 248 250
3 250 248 251
3 250 251 252
3 252 251 253
3 246 254 255
3 254 246 256
3 256 246 245
3 254 256 257
3 254 257 258
3 258 257 259
3 258 259 252
3 258 252 253
3 260 261 262
3 261 260 263
3 264 265 266
3 265 264 267
3 268 269 270
3 269 268 271
3 272 273 274
3 273 272 275
3 276 277 278
3 277 276 279
3 280 281 282
3 281 280 283
3 284 285 286
3 285 284 287
3 288 289 290
3 289 288 291
3 292 293 294
3 293 292 295
3 293 295 296
3 296 295 297
3 297 295 298
3 298 295 299
3 298 299 300
3 300 299 301
3 301 299 302
3 302 299 303
3 303 299 304
3 303 304 305
3 305 304 306
3 306 304 307
3 307 304 308
3 308 304 309
3 294 310 311
3 310 294 312
3 312 294 293
3 312 293 313
3 311 310 314
3 311 314 315
3 311 315 316
3 311 316 317
3 317 316 318
3 317 318 319
3 317 319 320
3 317 320 321
3 317 321 322
3 322 321 323
3 322 323 309
3 322 309 304
3 324 325 326
3 325 324 327
3 328 329 330
3 329 328 331
3 332 333 334
3 333 332 335
3 336 337 338
3 337 336 339
3 340 341 342
3 341 340 343
3 341 343 344
3 341 344 345
3 346 347 348
3 347 346 349
3 347 349 350
3 350 349 351
3 350 351 352
3 352 351 353
3 353 351 354
3 353 354 355
3 346 356 357
3 356 346 348
3 356 348 358
3 356 358 359
3 359 358 360
3 359 360 361
3 359 361 355
3 355 361 353
3 362 363 364
3 363 362 365
3 363 365 366
3 363 366 367
3 368 369 370
3 369 368 371
3 371 368 372
3 372 368 373
3 374 375 376
3 375 374 377
3 377 374 378
3 378 374 379
3 380 381 382
3 381 380 383
3 383 380 384
3 384 380 385
3 386 387 388
3 387 386 389
3 387 389 390
3 387 390 391
3 392 393 394
3 393 392 395
3 393 395 396
3 393 396 397
3 398 399 400
3 399 398 401
3 401 398 402
3 402 398 403
3 404 405 406
3 405 404 407
3 408 409 410
3 409 408 411
3 412 413 414
3 413 412 415
3 416 417 418
3 417 416 419
3 420 421 422
3 421 420 423
3 424 425 426
3 425 424 427
3 428 429 430
3 429 428 431
3 432 433 434
3 433 432 435
3 436 437 438
3 437 436 439

