ply
format ascii 1.0
commentY29udmVydGVyIGJ5IENvZGVMZW9wYXJk
comment Original mesh name: 'C:\Program Files (x86)\Steam\steamapps\common\Stormworks\rom\meshes\modular_engine_starter.mesh'
comment SubMesh index: 0
comment SubMesh name: 'ID56'
comment Shader: Opaque (0)
element vertex 556
property float x
property float y
property float z
property float nx
property float ny
property float nz
property uchar red
property uchar green
property uchar blue
property uchar alpha
element face 356
property list uchar ushort vertex_index
end_header
-0.053451065 0.120000005 0.022140147 0.23938324 0.94095236 -0.23938324 84 84 84 255
-0.015002169 0.11379998 0.036218423 0.23938324 0.94095236 -0.23938324 84 84 84 255
-0.03621843 0.11379998 0.015002165 0.23938324 0.94095236 -0.23938324 84 84 84 255
-0.02214015 0.120000005 0.053451058 0.23938324 0.94095236 -0.23938324 84 84 84 255
-0.053451065 0.120000005 0.022140147 0.338539 0.9409524 -1.651567E-18 84 84 84 255
-0.03621843 0.11379998 -0.015002169 0.338539 0.9409524 -1.651567E-18 84 84 84 255
-0.053451065 0.120000005 -0.022140153 0.338539 0.9409524 -1.651567E-18 84 84 84 255
-0.03621843 0.11379998 0.015002165 0.338539 0.9409524 -1.651567E-18 84 84 84 255
-0.053451065 0.120000005 0.022140147 0.70710677 -0 -0.70710677 84 84 84 255
-0.02214015 0.124999985 0.053451058 0.70710677 -0 -0.70710677 84 84 84 255
-0.02214015 0.120000005 0.053451058 0.70710677 -0 -0.70710677 84 84 84 255
-0.053451065 0.124999985 0.022140147 0.70710677 -0 -0.70710677 84 84 84 255
-0.02214015 0.120000005 0.053451058 2.586206E-18 0.9409524 -0.338539 84 84 84 255
0.015002165 0.11379998 0.036218423 2.586206E-18 0.9409524 -0.338539 84 84 84 255
-0.015002169 0.11379998 0.036218423 2.586206E-18 0.9409524 -0.338539 84 84 84 255
0.022140149 0.120000005 0.053451058 2.586206E-18 0.9409524 -0.338539 84 84 84 255
-0.03621843 0.11379998 -0.015002169 0 1 -0 84 84 84 255
0.015002165 0.11379998 -0.03621843 0 1 -0 84 84 84 255
-0.015002169 0.11379998 -0.03621843 0 1 -0 84 84 84 255
0.036218427 0.11379998 -0.015002169 0 1 -0 84 84 84 255
-0.03621843 0.11379998 0.015002165 0 1 -0 84 84 84 255
0.036218427 0.11379998 0.015002165 0 1 -0 84 84 84 255
-0.015002169 0.11379998 0.036218423 0 1 -0 84 84 84 255
0.015002165 0.11379998 0.036218423 0 1 -0 84 84 84 255
-0.03621843 0.11379998 0.015002165 0.70710677 -0 -0.70710677 84 84 84 255
-0.015002169 0.09619999 0.036218423 0.70710677 -0 -0.70710677 84 84 84 255
-0.03621843 0.09619999 0.015002165 0.70710677 -0 -0.70710677 84 84 84 255
-0.015002169 0.11379998 0.036218423 0.70710677 -0 -0.70710677 84 84 84 255
-0.053451065 0.124999985 -0.022140153 1 -0 -0 84 84 84 255
-0.053451065 0.120000005 0.022140147 1 -0 -0 84 84 84 255
-0.053451065 0.120000005 -0.022140153 1 -0 -0 84 84 84 255
-0.053451065 0.124999985 0.022140147 1 -0 -0 84 84 84 255
-0.03621843 0.11379998 -0.015002169 1 -0 -0 84 84 84 255
-0.03621843 0.09619999 0.015002165 1 -0 -0 84 84 84 255
-0.03621843 0.09619999 -0.015002169 1 -0 -0 84 84 84 255
-0.03621843 0.11379998 0.015002165 1 -0 -0 84 84 84 255
-0.053451065 0.120000005 -0.022140153 0.2393833 0.9409523 0.2393834 84 84 84 255
-0.015002169 0.11379998 -0.03621843 0.2393833 0.9409523 0.2393834 84 84 84 255
-0.02214015 0.120000005 -0.053451035 0.2393833 0.9409523 0.2393834 84 84 84 255
-0.03621843 0.11379998 -0.015002169 0.2393833 0.9409523 0.2393834 84 84 84 255
0.05345103 0.124999985 -0.022140153 0 -1 -0 84 84 84 255
-0.02214015 0.124999985 -0.053451035 0 -1 -0 84 84 84 255
0.022140149 0.124999985 -0.053451035 0 -1 -0 84 84 84 255
-0.053451065 0.124999985 -0.022140153 0 -1 -0 84 84 84 255
0.05345103 0.124999985 0.022140147 0 -1 -0 84 84 84 255
-0.053451065 0.124999985 0.022140147 0 -1 -0 84 84 84 255
0.022140149 0.124999985 0.053451058 0 -1 -0 84 84 84 255
-0.02214015 0.124999985 0.053451058 0 -1 -0 84 84 84 255
-0.02214015 0.120000005 0.053451058 0 -0 -1 84 84 84 255
0.022140149 0.124999985 0.053451058 0 -0 -1 84 84 84 255
0.022140149 0.120000005 0.053451058 0 -0 -1 84 84 84 255
-0.02214015 0.124999985 0.053451058 0 -0 -1 84 84 84 255
-0.053451065 0.120000005 -0.022140153 0 1 -0 84 84 84 255
0.022140149 0.120000005 -0.053451035 0 1 -0 84 84 84 255
-0.02214015 0.120000005 -0.053451035 0 1 -0 84 84 84 255
0.05345103 0.120000005 -0.022140153 0 1 -0 84 84 84 255
-0.053451065 0.120000005 0.022140147 0 1 -0 84 84 84 255
0.05345103 0.120000005 0.022140147 0 1 -0 84 84 84 255
-0.02214015 0.120000005 0.053451058 0 1 -0 84 84 84 255
0.022140149 0.120000005 0.053451058 0 1 -0 84 84 84 255
0.015002165 0.11379998 0.036218423 -0.2393834 0.9409523 -0.2393833 84 84 84 255
0.05345103 0.120000005 0.022140147 -0.2393834 0.9409523 -0.2393833 84 84 84 255
0.036218427 0.11379998 0.015002165 -0.2393834 0.9409523 -0.2393833 84 84 84 255
0.022140149 0.120000005 0.053451058 -0.2393834 0.9409523 -0.2393833 84 84 84 255
-0.015002169 0.09619999 0.036218423 0 -0 -1 84 84 84 255
0.015002165 0.11379998 0.036218423 0 -0 -1 84 84 84 255
0.015002165 0.09619999 0.036218423 0 -0 -1 84 84 84 255
-0.015002169 0.11379998 0.036218423 0 -0 -1 84 84 84 255
0.036218427 0.11379998 -0.015002169 -0.3385394 0.9409522 2.586218E-18 84 84 84 255
0.05345103 0.120000005 0.022140147 -0.3385394 0.9409522 2.586218E-18 84 84 84 255
0.05345103 0.120000005 -0.022140153 -0.3385394 0.9409522 2.586218E-18 84 84 84 255
0.036218427 0.11379998 0.015002165 -0.3385394 0.9409522 2.586218E-18 84 84 84 255
0.015002165 0.11379998 -0.03621843 -0.2393835 0.9409522 0.2393835 84 84 84 255
0.05345103 0.120000005 -0.022140153 -0.2393835 0.9409522 0.2393835 84 84 84 255
0.022140149 0.120000005 -0.053451035 -0.2393835 0.9409522 0.2393835 84 84 84 255
0.036218427 0.11379998 -0.015002169 -0.2393835 0.9409522 0.2393835 84 84 84 255
-0.015002169 0.11379998 -0.03621843 2.586218E-18 0.9409522 0.3385394 84 84 84 255
0.022140149 0.120000005 -0.053451035 2.586218E-18 0.9409522 0.3385394 84 84 84 255
-0.02214015 0.120000005 -0.053451035 2.586218E-18 0.9409522 0.3385394 84 84 84 255
0.015002165 0.11379998 -0.03621843 2.586218E-18 0.9409522 0.3385394 84 84 84 255
-0.03621843 0.09619999 -0.015002169 0 1 -0 84 84 84 255
0.015002165 0.09619999 -0.03621843 0 1 -0 84 84 84 255
-0.015002169 0.09619999 -0.03621843 0 1 -0 84 84 84 255
0.036218427 0.09619999 -0.015002169 0 1 -0 84 84 84 255
-0.03621843 0.09619999 0.015002165 0 1 -0 84 84 84 255
0.036218427 0.09619999 0.015002165 0 1 -0 84 84 84 255
-0.015002169 0.09619999 0.036218423 0 1 -0 84 84 84 255
0.015002165 0.09619999 0.036218423 0 1 -0 84 84 84 255
-0.015002169 0.09619999 0.036218423 0.23938324 -0.94095236 -0.23938324 84 84 84 255
-0.053451065 0.089999974 0.022140147 0.23938324 -0.94095236 -0.23938324 84 84 84 255
-0.03621843 0.09619999 0.015002165 0.23938324 -0.94095236 -0.23938324 84 84 84 255
-0.02214015 0.089999974 0.053451058 0.23938324 -0.94095236 -0.23938324 84 84 84 255
-0.053451065 0.124999985 -0.022140153 0.7071065 -0 0.7071071 84 84 84 255
-0.02214015 0.120000005 -0.053451035 0.7071065 -0 0.7071071 84 84 84 255
-0.02214015 0.124999985 -0.053451035 0.7071065 -0 0.7071071 84 84 84 255
-0.053451065 0.120000005 -0.022140153 0.7071065 -0 0.7071071 84 84 84 255
-0.015002169 0.11379998 -0.03621843 0.70710677 1.4522389E-31 0.70710677 84 84 84 255
-0.03621843 0.09619999 -0.015002169 0.70710677 1.4522389E-31 0.70710677 84 84 84 255
-0.015002169 0.09619999 -0.03621843 0.70710677 1.4522389E-31 0.70710677 84 84 84 255
-0.03621843 0.11379998 -0.015002169 0.70710677 1.4522389E-31 0.70710677 84 84 84 255
-0.03621843 0.09619999 -0.015002169 0.338539 -0.9409524 -5.8893403E-18 84 84 84 255
-0.053451065 0.089999974 0.022140147 0.338539 -0.9409524 -5.8893403E-18 84 84 84 255
-0.053451065 0.089999974 -0.022140153 0.338539 -0.9409524 -5.8893403E-18 84 84 84 255
-0.03621843 0.09619999 0.015002165 0.338539 -0.9409524 -5.8893403E-18 84 84 84 255
0.022140149 0.124999985 0.053451058 -0.7071071 -0 -0.7071065 84 84 84 255
0.05345103 0.120000005 0.022140147 -0.7071071 -0 -0.7071065 84 84 84 255
0.022140149 0.120000005 0.053451058 -0.7071071 -0 -0.7071065 84 84 84 255
0.05345103 0.124999985 0.022140147 -0.7071071 -0 -0.7071065 84 84 84 255
-0.02214015 0.124999985 -0.053451035 0 -0 1 84 84 84 255
0.022140149 0.120000005 -0.053451035 0 -0 1 84 84 84 255
0.022140149 0.124999985 -0.053451035 0 -0 1 84 84 84 255
-0.02214015 0.120000005 -0.053451035 0 -0 1 84 84 84 255
0.022140149 0.124999985 -0.053451035 -0.70710677 -0 0.70710677 84 84 84 255
0.05345103 0.120000005 -0.022140153 -0.70710677 -0 0.70710677 84 84 84 255
0.05345103 0.124999985 -0.022140153 -0.70710677 -0 0.70710677 84 84 84 255
0.022140149 0.120000005 -0.053451035 -0.70710677 -0 0.70710677 84 84 84 255
0.05345103 0.124999985 0.022140147 -1 -0 -0 84 84 84 255
0.05345103 0.120000005 -0.022140153 -1 -0 -0 84 84 84 255
0.05345103 0.120000005 0.022140147 -1 -0 -0 84 84 84 255
0.05345103 0.124999985 -0.022140153 -1 -0 -0 84 84 84 255
0.015002165 0.11379998 0.036218423 -0.70710677 -1.4522389E-31 -0.70710677 84 84 84 255
0.036218427 0.09619999 0.015002165 -0.70710677 -1.4522389E-31 -0.70710677 84 84 84 255
0.015002165 0.09619999 0.036218423 -0.70710677 -1.4522389E-31 -0.70710677 84 84 84 255
0.036218427 0.11379998 0.015002165 -0.70710677 -1.4522389E-31 -0.70710677 84 84 84 255
0.022140149 0.089999974 0.053451058 2.586206E-18 -0.9409524 -0.338539 84 84 84 255
-0.015002169 0.09619999 0.036218423 2.586206E-18 -0.9409524 -0.338539 84 84 84 255
0.015002165 0.09619999 0.036218423 2.586206E-18 -0.9409524 -0.338539 84 84 84 255
-0.02214015 0.089999974 0.053451058 2.586206E-18 -0.9409524 -0.338539 84 84 84 255
0.036218427 0.11379998 0.015002165 -1 -0 -0 84 84 84 255
0.036218427 0.09619999 -0.015002169 -1 -0 -0 84 84 84 255
0.036218427 0.09619999 0.015002165 -1 -0 -0 84 84 84 255
0.036218427 0.11379998 -0.015002169 -1 -0 -0 84 84 84 255
0.015002165 0.11379998 -0.03621843 -0.70710677 -0 0.70710677 84 84 84 255
0.036218427 0.09619999 -0.015002169 -0.70710677 -0 0.70710677 84 84 84 255
0.036218427 0.11379998 -0.015002169 -0.70710677 -0 0.70710677 84 84 84 255
0.015002165 0.09619999 -0.03621843 -0.70710677 -0 0.70710677 84 84 84 255
-0.015002169 0.11379998 -0.03621843 0 -0 1 84 84 84 255
0.015002165 0.09619999 -0.03621843 0 -0 1 84 84 84 255
0.015002165 0.11379998 -0.03621843 0 -0 1 84 84 84 255
-0.015002169 0.09619999 -0.03621843 0 -0 1 84 84 84 255
-0.053451065 0.089999974 -0.022140153 0 1 -0 84 84 84 255
0.022140149 0.089999974 -0.053451035 0 1 -0 84 84 84 255
-0.02214015 0.089999974 -0.053451035 0 1 -0 84 84 84 255
0.05345103 0.089999974 -0.022140153 0 1 -0 84 84 84 255
-0.053451065 0.089999974 0.022140147 0 1 -0 84 84 84 255
0.05345103 0.089999974 0.022140147 0 1 -0 84 84 84 255
-0.02214015 0.089999974 0.053451058 0 1 -0 84 84 84 255
0.022140149 0.089999974 0.053451058 0 1 -0 84 84 84 255
-0.053451065 0.084999986 0.022140147 0.70710677 -1.2662057E-16 -0.70710677 84 84 84 255
-0.02214015 0.089999974 0.053451058 0.70710677 -1.2662057E-16 -0.70710677 84 84 84 255
-0.02214015 0.084999986 0.053451058 0.70710677 -1.2662057E-16 -0.70710677 84 84 84 255
-0.053451065 0.089999974 0.022140147 0.70710677 -1.2662057E-16 -0.70710677 84 84 84 255
-0.015002169 0.09619999 -0.03621843 0.2393833 -0.9409523 0.2393834 84 84 84 255
-0.053451065 0.089999974 -0.022140153 0.2393833 -0.9409523 0.2393834 84 84 84 255
-0.02214015 0.089999974 -0.053451035 0.2393833 -0.9409523 0.2393834 84 84 84 255
-0.03621843 0.09619999 -0.015002169 0.2393833 -0.9409523 0.2393834 84 84 84 255
-0.053451065 0.089999974 -0.022140153 1 -0 -0 84 84 84 255
-0.053451065 0.084999986 0.022140147 1 -0 -0 84 84 84 255
-0.053451065 0.084999986 -0.022140153 1 -0 -0 84 84 84 255
-0.053451065 0.089999974 0.022140147 1 -0 -0 84 84 84 255
0.05345103 0.089999974 0.022140147 -0.2393834 -0.9409523 -0.2393833 84 84 84 255
0.015002165 0.09619999 0.036218423 -0.2393834 -0.9409523 -0.2393833 84 84 84 255
0.036218427 0.09619999 0.015002165 -0.2393834 -0.9409523 -0.2393833 84 84 84 255
0.022140149 0.089999974 0.053451058 -0.2393834 -0.9409523 -0.2393833 84 84 84 255
-0.02214015 0.084999986 0.053451058 0 -0 -1 84 84 84 255
0.022140149 0.089999974 0.053451058 0 -0 -1 84 84 84 255
0.022140149 0.084999986 0.053451058 0 -0 -1 84 84 84 255
-0.02214015 0.089999974 0.053451058 0 -0 -1 84 84 84 255
0.05345103 0.089999974 0.022140147 -0.3385394 -0.9409522 2.586218E-18 84 84 84 255
0.036218427 0.09619999 -0.015002169 -0.3385394 -0.9409522 2.586218E-18 84 84 84 255
0.05345103 0.089999974 -0.022140153 -0.3385394 -0.9409522 2.586218E-18 84 84 84 255
0.036218427 0.09619999 0.015002165 -0.3385394 -0.9409522 2.586218E-18 84 84 84 255
0.05345103 0.089999974 -0.022140153 -0.2393835 -0.9409522 0.2393835 84 84 84 255
0.015002165 0.09619999 -0.03621843 -0.2393835 -0.9409522 0.2393835 84 84 84 255
0.022140149 0.089999974 -0.053451035 -0.2393835 -0.9409522 0.2393835 84 84 84 255
0.036218427 0.09619999 -0.015002169 -0.2393835 -0.9409522 0.2393835 84 84 84 255
0.015002165 0.09619999 -0.03621843 2.586218E-18 -0.9409522 0.3385394 84 84 84 255
-0.02214015 0.089999974 -0.053451035 2.586218E-18 -0.9409522 0.3385394 84 84 84 255
0.022140149 0.089999974 -0.053451035 2.586218E-18 -0.9409522 0.3385394 84 84 84 255
-0.015002169 0.09619999 -0.03621843 2.586218E-18 -0.9409522 0.3385394 84 84 84 255
-0.053451065 0.084999986 -0.022140153 0 1 -0 84 84 84 255
0.022140149 0.084999986 -0.053451035 0 1 -0 84 84 84 255
-0.02214015 0.084999986 -0.053451035 0 1 -0 84 84 84 255
0.05345103 0.084999986 -0.022140153 0 1 -0 84 84 84 255
-0.006607139 0.084999986 -0.015951062 0 1 -0 84 84 84 255
-0.053451065 0.084999986 0.022140147 0 1 -0 84 84 84 255
-0.015951062 0.084999986 -0.006607139 0 1 -0 84 84 84 255
-0.015951062 0.084999986 0.006607134 0 1 -0 84 84 84 255
-0.006607139 0.084999986 0.015951058 0 1 -0 84 84 84 255
0.006607134 0.084999986 0.015951058 0 1 -0 84 84 84 255
0.006607134 0.084999986 -0.015951062 0 1 -0 84 84 84 255
0.05345103 0.084999986 0.022140147 0 1 -0 84 84 84 255
0.015951058 0.084999986 -0.006607139 0 1 -0 84 84 84 255
0.015951058 0.084999986 0.006607134 0 1 -0 84 84 84 255
-0.02214015 0.084999986 0.053451058 0 1 -0 84 84 84 255
0.022140149 0.084999986 0.053451058 0 1 -0 84 84 84 255
-0.053451065 0.089999974 -0.022140153 0.7071065 -1.027171E-22 0.7071071 84 84 84 255
-0.02214015 0.084999986 -0.053451035 0.7071065 -1.027171E-22 0.7071071 84 84 84 255
-0.02214015 0.089999974 -0.053451035 0.7071065 -1.027171E-22 0.7071071 84 84 84 255
-0.053451065 0.084999986 -0.022140153 0.7071065 -1.027171E-22 0.7071071 84 84 84 255
0.022140149 0.089999974 0.053451058 -0.7071071 1.266206E-16 -0.7071065 84 84 84 255
0.05345103 0.084999986 0.022140147 -0.7071071 1.266206E-16 -0.7071065 84 84 84 255
0.022140149 0.084999986 0.053451058 -0.7071071 1.266206E-16 -0.7071065 84 84 84 255
0.05345103 0.089999974 0.022140147 -0.7071071 1.266206E-16 -0.7071065 84 84 84 255
0.05345103 0.089999974 0.022140147 -1 -0 -0 84 84 84 255
0.05345103 0.084999986 -0.022140153 -1 -0 -0 84 84 84 255
0.05345103 0.084999986 0.022140147 -1 -0 -0 84 84 84 255
0.05345103 0.089999974 -0.022140153 -1 -0 -0 84 84 84 255
0.022140149 0.089999974 -0.053451035 -0.70710677 1.2662057E-16 0.70710677 84 84 84 255
0.05345103 0.084999986 -0.022140153 -0.70710677 1.2662057E-16 0.70710677 84 84 84 255
0.05345103 0.089999974 -0.022140153 -0.70710677 1.2662057E-16 0.70710677 84 84 84 255
0.022140149 0.084999986 -0.053451035 -0.70710677 1.2662057E-16 0.70710677 84 84 84 255
-0.02214015 0.089999974 -0.053451035 0 -0 1 84 84 84 255
0.022140149 0.084999986 -0.053451035 0 -0 1 84 84 84 255
0.022140149 0.089999974 -0.053451035 0 -0 1 84 84 84 255
-0.02214015 0.084999986 -0.053451035 0 -0 1 84 84 84 255
-0.03618018 -0.115 0.08734664 0 -0 -1 199 199 199 255
0.03618015 -0.095 0.08734664 0 -0 -1 199 199 199 255
0.03618015 -0.115 0.08734664 0 -0 -1 199 199 199 255
-0.03618018 -0.095 0.08734664 0 -0 -1 199 199 199 255
-0.08734665 -0.115 -0.036180153 0 1 -0 199 199 199 255
0.03618015 -0.115 -0.08734665 0 1 -0 199 199 199 255
-0.03618018 -0.115 -0.08734665 0 1 -0 199 199 199 255
0.087346636 -0.115 -0.036180153 0 1 -0 199 199 199 255
-0.08734665 -0.115 0.036180176 0 1 -0 199 199 199 255
0.087346636 -0.115 0.036180176 0 1 -0 199 199 199 255
-0.03618018 -0.115 0.08734664 0 1 -0 199 199 199 255
0.03618015 -0.115 0.08734664 0 1 -0 199 199 199 255
-0.08734665 -0.095 0.036180176 0.70710677 -6.330996E-17 -0.70710677 199 199 199 255
-0.03618018 -0.115 0.08734664 0.70710677 -6.330996E-17 -0.70710677 199 199 199 255
-0.08734665 -0.115 0.036180176 0.70710677 -6.330996E-17 -0.70710677 199 199 199 255
-0.03618018 -0.095 0.08734664 0.70710677 -6.330996E-17 -0.70710677 199 199 199 255
0.03618015 -0.115 0.08734664 -0.7071066 -6.3309995E-17 -0.707107 199 199 199 255
0.087346636 -0.095 0.036180176 -0.7071066 -6.3309995E-17 -0.707107 199 199 199 255
0.087346636 -0.115 0.036180176 -0.7071066 -6.3309995E-17 -0.707107 199 199 199 255
0.03618015 -0.095 0.08734664 -0.7071066 -6.3309995E-17 -0.707107 199 199 199 255
0.087346636 -0.095 0.036180176 -1 -0 -0 199 199 199 255
0.087346636 -0.115 -0.036180153 -1 -0 -0 199 199 199 255
0.087346636 -0.115 0.036180176 -1 -0 -0 199 199 199 255
0.087346636 -0.095 -0.036180153 -1 -0 -0 199 199 199 255
0.087346636 -0.095 -0.036180153 -0.70710677 2.2492215E-31 0.70710677 199 199 199 255
0.03618015 -0.115 -0.08734665 -0.70710677 2.2492215E-31 0.70710677 199 199 199 255
0.087346636 -0.115 -0.036180153 -0.70710677 2.2492215E-31 0.70710677 199 199 199 255
0.03618015 -0.095 -0.08734665 -0.70710677 2.2492215E-31 0.70710677 199 199 199 255
-0.03618018 -0.095 -0.08734665 0 -0 1 199 199 199 255
0.03618015 -0.115 -0.08734665 0 -0 1 199 199 199 255
0.03618015 -0.095 -0.08734665 0 -0 1 199 199 199 255
-0.03618018 -0.115 -0.08734665 0 -0 1 199 199 199 255
-0.03618018 -0.095 -0.08734665 0.707107 -2.249222E-31 0.7071066 199 199 199 255
-0.08734665 -0.115 -0.036180153 0.707107 -2.249222E-31 0.7071066 199 199 199 255
-0.03618018 -0.115 -0.08734665 0.707107 -2.249222E-31 0.7071066 199 199 199 255
-0.08734665 -0.095 -0.036180153 0.707107 -2.249222E-31 0.7071066 199 199 199 255
-0.08734665 -0.095 -0.036180153 1 -0 -0 199 199 199 255
-0.08734665 -0.115 0.036180176 1 -0 -0 199 199 199 255
-0.08734665 -0.115 -0.036180153 1 -0 -0 199 199 199 255
-0.08734665 -0.095 0.036180176 1 -0 -0 199 199 199 255
-0.03618018 -0.095 0.08734664 0 -0 1 84 84 84 255
-0.03618018 -0.115 0.08734664 0 -0 1 84 84 84 255
0.03618015 -0.095 0.08734664 0 -0 1 84 84 84 255
0.03618015 -0.115 0.08734664 0 -0 1 84 84 84 255
0.03618015 -0.115 0.08734664 0 -1 -0 84 84 84 255
-0.03618018 -0.115 0.08734664 0 -1 -0 84 84 84 255
0.087346636 -0.115 0.036180176 0 -1 -0 84 84 84 255
-0.08734665 -0.115 0.036180176 0 -1 -0 84 84 84 255
0.087346636 -0.115 -0.036180153 0 -1 -0 84 84 84 255
-0.08734665 -0.115 -0.036180153 0 -1 -0 84 84 84 255
0.03618015 -0.115 -0.08734665 0 -1 -0 84 84 84 255
-0.03618018 -0.115 -0.08734665 0 -1 -0 84 84 84 255
-0.03618018 -0.095 0.08734664 -0.70710677 6.330996E-17 0.70710677 84 84 84 255
-0.08734665 -0.095 0.036180176 -0.70710677 6.330996E-17 0.70710677 84 84 84 255
-0.03618018 -0.115 0.08734664 -0.70710677 6.330996E-17 0.70710677 84 84 84 255
-0.08734665 -0.115 0.036180176 -0.70710677 6.330996E-17 0.70710677 84 84 84 255
0.03618015 -0.095 0.08734664 0.7071066 6.3309995E-17 0.707107 84 84 84 255
0.03618015 -0.115 0.08734664 0.7071066 6.3309995E-17 0.707107 84 84 84 255
0.087346636 -0.095 0.036180176 0.7071066 6.3309995E-17 0.707107 84 84 84 255
0.087346636 -0.115 0.036180176 0.7071066 6.3309995E-17 0.707107 84 84 84 255
0.087346636 -0.095 -0.036180153 1 -0 -0 84 84 84 255
0.087346636 -0.095 0.036180176 1 -0 -0 84 84 84 255
0.087346636 -0.115 -0.036180153 1 -0 -0 84 84 84 255
0.087346636 -0.115 0.036180176 1 -0 -0 84 84 84 255
0.03618015 -0.095 -0.08734665 0.70710677 -2.2492215E-31 -0.70710677 84 84 84 255
0.087346636 -0.095 -0.036180153 0.70710677 -2.2492215E-31 -0.70710677 84 84 84 255
0.03618015 -0.115 -0.08734665 0.70710677 -2.2492215E-31 -0.70710677 84 84 84 255
0.087346636 -0.115 -0.036180153 0.70710677 -2.2492215E-31 -0.70710677 84 84 84 255
-0.03618018 -0.115 -0.08734665 0 -0 -1 84 84 84 255
-0.03618018 -0.095 -0.08734665 0 -0 -1 84 84 84 255
0.03618015 -0.115 -0.08734665 0 -0 -1 84 84 84 255
0.03618015 -0.095 -0.08734665 0 -0 -1 84 84 84 255
-0.08734665 -0.095 -0.036180153 -0.707107 2.249222E-31 -0.7071066 84 84 84 255
-0.03618018 -0.095 -0.08734665 -0.707107 2.249222E-31 -0.7071066 84 84 84 255
-0.08734665 -0.115 -0.036180153 -0.707107 2.249222E-31 -0.7071066 84 84 84 255
-0.03618018 -0.115 -0.08734665 -0.707107 2.249222E-31 -0.7071066 84 84 84 255
-0.08734665 -0.095 0.036180176 -1 -0 -0 84 84 84 255
-0.08734665 -0.095 -0.036180153 -1 -0 -0 84 84 84 255
-0.08734665 -0.115 0.036180176 -1 -0 -0 84 84 84 255
-0.08734665 -0.115 -0.036180153 -1 -0 -0 84 84 84 255
-0.08734665 0.07499998 0.036180176 0.70710677 -0 -0.70710677 199 199 199 255
-0.03618018 0.014999979 0.08734664 0.70710677 -0 -0.70710677 199 199 199 255
-0.08734665 0.014999979 0.036180176 0.70710677 -0 -0.70710677 199 199 199 255
-0.03618018 0.07499998 0.08734664 0.70710677 -0 -0.70710677 199 199 199 255
-0.03618018 0.014999979 0.08734664 0 -0 -1 199 199 199 255
0.03618015 0.07499998 0.08734664 0 -0 -1 199 199 199 255
0.03618015 0.014999979 0.08734664 0 -0 -1 199 199 199 255
-0.03618018 0.07499998 0.08734664 0 -0 -1 199 199 199 255
0.03618015 0.014999979 0.08734664 -0.7071066 -0 -0.707107 199 199 199 255
0.087346636 0.07499998 0.036180176 -0.7071066 -0 -0.707107 199 199 199 255
0.087346636 0.014999979 0.036180176 -0.7071066 -0 -0.707107 199 199 199 255
0.03618015 0.07499998 0.08734664 -0.7071066 -0 -0.707107 199 199 199 255
-0.03618018 0.07499998 0.08734664 -0.70710677 -0 0.70710677 84 84 84 255
-0.08734665 0.07499998 0.036180176 -0.70710677 -0 0.70710677 84 84 84 255
-0.03618018 0.014999979 0.08734664 -0.70710677 -0 0.70710677 84 84 84 255
-0.08734665 0.014999979 0.036180176 -0.70710677 -0 0.70710677 84 84 84 255
-0.03618018 0.07499998 0.08734664 0 -0 1 84 84 84 255
-0.03618018 0.014999979 0.08734664 0 -0 1 84 84 84 255
0.03618015 0.07499998 0.08734664 0 -0 1 84 84 84 255
0.03618015 0.014999979 0.08734664 0 -0 1 84 84 84 255
0.03618015 0.07499998 0.08734664 0.7071066 -0 0.707107 84 84 84 255
0.03618015 0.014999979 0.08734664 0.7071066 -0 0.707107 84 84 84 255
0.087346636 0.07499998 0.036180176 0.7071066 -0 0.707107 84 84 84 255
0.087346636 0.014999979 0.036180176 0.7071066 -0 0.707107 84 84 84 255
-0.006607139 0.07499998 0.015951058 0 -0 -1 84 84 84 255
0.006607134 0.084999986 0.015951058 0 -0 -1 84 84 84 255
0.006607134 0.07499998 0.015951058 0 -0 -1 84 84 84 255
-0.006607139 0.084999986 0.015951058 0 -0 -1 84 84 84 255
-0.015951062 0.07499998 0.006607134 0.70710677 -0 -0.70710677 84 84 84 255
-0.006607139 0.084999986 0.015951058 0.70710677 -0 -0.70710677 84 84 84 255
-0.006607139 0.07499998 0.015951058 0.70710677 -0 -0.70710677 84 84 84 255
-0.015951062 0.084999986 0.006607134 0.70710677 -0 -0.70710677 84 84 84 255
0.006607134 0.084999986 0.015951058 -0.70710677 -0 -0.70710677 84 84 84 255
0.015951058 0.07499998 0.006607134 -0.70710677 -0 -0.70710677 84 84 84 255
0.006607134 0.07499998 0.015951058 -0.70710677 -0 -0.70710677 84 84 84 255
0.015951058 0.084999986 0.006607134 -0.70710677 -0 -0.70710677 84 84 84 255
-0.015951062 0.084999986 -0.006607139 1 -0 -0 84 84 84 255
-0.015951062 0.07499998 0.006607134 1 -0 -0 84 84 84 255
-0.015951062 0.07499998 -0.006607139 1 -0 -0 84 84 84 255
-0.015951062 0.084999986 0.006607134 1 -0 -0 84 84 84 255
0.015951058 0.084999986 0.006607134 -1 -0 -0 84 84 84 255
0.015951058 0.07499998 -0.006607139 -1 -0 -0 84 84 84 255
0.015951058 0.07499998 0.006607134 -1 -0 -0 84 84 84 255
0.015951058 0.084999986 -0.006607139 -1 -0 -0 84 84 84 255
-0.015951062 0.084999986 -0.006607139 0.70710677 -0 0.70710677 84 84 84 255
-0.006607139 0.07499998 -0.015951062 0.70710677 -0 0.70710677 84 84 84 255
-0.006607139 0.084999986 -0.015951062 0.70710677 -0 0.70710677 84 84 84 255
-0.015951062 0.07499998 -0.006607139 0.70710677 -0 0.70710677 84 84 84 255
0.006607134 0.084999986 -0.015951062 -0.70710677 -0 0.70710677 84 84 84 255
0.015951058 0.07499998 -0.006607139 -0.70710677 -0 0.70710677 84 84 84 255
0.015951058 0.084999986 -0.006607139 -0.70710677 -0 0.70710677 84 84 84 255
0.006607134 0.07499998 -0.015951062 -0.70710677 -0 0.70710677 84 84 84 255
-0.006607139 0.084999986 -0.015951062 0 -0 1 84 84 84 255
0.006607134 0.07499998 -0.015951062 0 -0 1 84 84 84 255
0.006607134 0.084999986 -0.015951062 0 -0 1 84 84 84 255
-0.006607139 0.07499998 -0.015951062 0 -0 1 84 84 84 255
-0.044999998 -0.095 0.10534666 0 -0 -1 84 84 84 255
0.044999994 0.014999979 0.10534666 0 -0 -1 84 84 84 255
0.044999994 -0.095 0.10534666 0 -0 -1 84 84 84 255
-0.044999998 0.014999979 0.10534666 0 -0 -1 84 84 84 255
-0.105000004 -0.095 -0.124999985 0 1 -0 84 84 84 255
-0.03618018 -0.095 -0.08734665 0 1 -0 84 84 84 255
0.105000004 -0.095 -0.124999985 0 1 -0 84 84 84 255
-0.08734665 -0.095 -0.036180153 0 1 -0 84 84 84 255
-0.105000004 -0.095 0.045346655 0 1 -0 84 84 84 255
-0.08734665 -0.095 0.036180176 0 1 -0 84 84 84 255
-0.03618018 -0.095 0.08734664 0 1 -0 84 84 84 255
-0.044999998 -0.095 0.10534666 0 1 -0 84 84 84 255
0.03618015 -0.095 0.08734664 0 1 -0 84 84 84 255
0.087346636 -0.095 -0.036180153 0 1 -0 84 84 84 255
0.105000004 -0.095 0.045346655 0 1 -0 84 84 84 255
0.03618015 -0.095 -0.08734665 0 1 -0 84 84 84 255
0.087346636 -0.095 0.036180176 0 1 -0 84 84 84 255
0.044999994 -0.095 0.10534666 0 1 -0 84 84 84 255
-0.105000004 0.014999979 0.045346655 0.70710677 -1.1153179E-32 -0.70710677 84 84 84 255
-0.044999998 -0.095 0.10534666 0.70710677 -1.1153179E-32 -0.70710677 84 84 84 255
-0.105000004 -0.095 0.045346655 0.70710677 -1.1153179E-32 -0.70710677 84 84 84 255
-0.044999998 0.014999979 0.10534666 0.70710677 -1.1153179E-32 -0.70710677 84 84 84 255
0.105000004 0.014999979 -0.124999985 0 -1 -0 84 84 84 255
0.03618015 0.014999979 -0.08734665 0 -1 -0 84 84 84 255
-0.105000004 0.014999979 -0.124999985 0 -1 -0 84 84 84 255
0.087346636 0.014999979 -0.036180153 0 -1 -0 84 84 84 255
0.105000004 0.014999979 0.045346655 0 -1 -0 84 84 84 255
0.087346636 0.014999979 0.036180176 0 -1 -0 84 84 84 255
0.03618015 0.014999979 0.08734664 0 -1 -0 84 84 84 255
0.044999994 0.014999979 0.10534666 0 -1 -0 84 84 84 255
-0.03618018 0.014999979 0.08734664 0 -1 -0 84 84 84 255
-0.08734665 0.014999979 -0.036180153 0 -1 -0 84 84 84 255
-0.105000004 0.014999979 0.045346655 0 -1 -0 84 84 84 255
-0.03618018 0.014999979 -0.08734665 0 -1 -0 84 84 84 255
-0.08734665 0.014999979 0.036180176 0 -1 -0 84 84 84 255
-0.044999998 0.014999979 0.10534666 0 -1 -0 84 84 84 255
0.044999994 -0.095 0.10534666 -0.70710677 -1.1153179E-32 -0.70710677 84 84 84 255
0.105000004 0.014999979 0.045346655 -0.70710677 -1.1153179E-32 -0.70710677 84 84 84 255
0.105000004 -0.095 0.045346655 -0.70710677 -1.1153179E-32 -0.70710677 84 84 84 255
0.044999994 0.014999979 0.10534666 -0.70710677 -1.1153179E-32 -0.70710677 84 84 84 255
0.105000004 0.014999979 0.045346655 -1 -0 -0 84 84 84 255
0.105000004 -0.095 -0.124999985 -1 -0 -0 84 84 84 255
0.105000004 -0.095 0.045346655 -1 -0 -0 84 84 84 255
0.105000004 0.014999979 -0.124999985 -1 -0 -0 84 84 84 255
-0.105000004 0.014999979 -0.124999985 1 -0 -0 84 84 84 255
-0.105000004 -0.095 0.045346655 1 -0 -0 84 84 84 255
-0.105000004 -0.095 -0.124999985 1 -0 -0 84 84 84 255
-0.105000004 0.014999979 0.045346655 1 -0 -0 84 84 84 255
0.087346636 0.07499998 -0.036180153 -0.70710677 -0 0.70710677 199 199 199 255
0.03618015 0.014999979 -0.08734665 -0.70710677 -0 0.70710677 199 199 199 255
0.087346636 0.014999979 -0.036180153 -0.70710677 -0 0.70710677 199 199 199 255
0.03618015 0.07499998 -0.08734665 -0.70710677 -0 0.70710677 199 199 199 255
-0.03618018 0.07499998 -0.08734665 0 -0 1 199 199 199 255
0.03618015 0.014999979 -0.08734665 0 -0 1 199 199 199 255
0.03618015 0.07499998 -0.08734665 0 -0 1 199 199 199 255
-0.03618018 0.014999979 -0.08734665 0 -0 1 199 199 199 255
-0.03618018 0.07499998 -0.08734665 0.707107 -0 0.7071066 199 199 199 255
-0.08734665 0.014999979 -0.036180153 0.707107 -0 0.7071066 199 199 199 255
-0.03618018 0.014999979 -0.08734665 0.707107 -0 0.7071066 199 199 199 255
-0.08734665 0.07499998 -0.036180153 0.707107 -0 0.7071066 199 199 199 255
0.03618015 0.07499998 -0.08734665 0.70710677 -0 -0.70710677 84 84 84 255
0.087346636 0.07499998 -0.036180153 0.70710677 -0 -0.70710677 84 84 84 255
0.03618015 0.014999979 -0.08734665 0.70710677 -0 -0.70710677 84 84 84 255
0.087346636 0.014999979 -0.036180153 0.70710677 -0 -0.70710677 84 84 84 255
-0.03618018 0.014999979 -0.08734665 0 -0 -1 84 84 84 255
-0.03618018 0.07499998 -0.08734665 0 -0 -1 84 84 84 255
0.03618015 0.014999979 -0.08734665 0 -0 -1 84 84 84 255
0.03618015 0.07499998 -0.08734665 0 -0 -1 84 84 84 255
-0.08734665 0.07499998 -0.036180153 -0.707107 -0 -0.7071066 84 84 84 255
-0.03618018 0.07499998 -0.08734665 -0.707107 -0 -0.7071066 84 84 84 255
-0.08734665 0.014999979 -0.036180153 -0.707107 -0 -0.7071066 84 84 84 255
-0.03618018 0.014999979 -0.08734665 -0.707107 -0 -0.7071066 84 84 84 255
0.087346636 0.014999979 -0.036180153 0 -1 -0 199 199 199 255
-0.03618018 0.014999979 -0.08734665 0 -1 -0 199 199 199 255
0.03618015 0.014999979 -0.08734665 0 -1 -0 199 199 199 255
-0.08734665 0.014999979 -0.036180153 0 -1 -0 199 199 199 255
0.087346636 0.014999979 0.036180176 0 -1 -0 199 199 199 255
-0.08734665 0.014999979 0.036180176 0 -1 -0 199 199 199 255
0.03618015 0.014999979 0.08734664 0 -1 -0 199 199 199 255
-0.03618018 0.014999979 0.08734664 0 -1 -0 199 199 199 255
-0.08734665 0.07499998 -0.036180153 1 -0 -0 199 199 199 255
-0.08734665 0.014999979 0.036180176 1 -0 -0 199 199 199 255
-0.08734665 0.014999979 -0.036180153 1 -0 -0 199 199 199 255
-0.08734665 0.07499998 0.036180176 1 -0 -0 199 199 199 255
0.087346636 0.07499998 0.036180176 -1 -0 -0 199 199 199 255
0.087346636 0.014999979 -0.036180153 -1 -0 -0 199 199 199 255
0.087346636 0.014999979 0.036180176 -1 -0 -0 199 199 199 255
0.087346636 0.07499998 -0.036180153 -1 -0 -0 199 199 199 255
0.0875 -0.072500005 -0.125 0 -0 1 84 84 84 255
0.0875 -0.08250001 -0.125 0 -0 1 84 84 84 255
0.09249999 -0.07750002 -0.125 0 -0 1 84 84 84 255
0.08249998 -0.07750002 -0.125 0 -0 1 84 84 84 255
0.074999996 -0.060857892 -0.114999995 0.5000001 -0.5000001 0.7071066 84 84 84 255
0.074999996 -0.075000025 -0.125 0.5000001 -0.5000001 0.7071066 84 84 84 255
0.085 -0.06500002 -0.125 0.5000001 -0.5000001 0.7071066 84 84 84 255
0.07085787 -0.06500002 -0.114999995 0.5000001 -0.5000001 0.7071066 84 84 84 255
0.085 -0.015000021 -0.125 0.70710677 4.3598226E-16 0.70710677 84 84 84 255
0.074999996 -0.060857892 -0.114999995 0.70710677 4.3598226E-16 0.70710677 84 84 84 255
0.085 -0.06500002 -0.125 0.70710677 4.3598226E-16 0.70710677 84 84 84 255
0.074999996 -0.019142147 -0.114999995 0.70710677 4.3598226E-16 0.70710677 84 84 84 255
0.074999996 -0.019142147 -0.114999995 0 -0 1 84 84 84 255
0.07085787 -0.06500002 -0.114999995 0 -0 1 84 84 84 255
0.074999996 -0.060857892 -0.114999995 0 -0 1 84 84 84 255
0.07085787 -0.015000021 -0.114999995 0 -0 1 84 84 84 255
-0.070857875 -0.06500002 -0.114999995 0 -0 1 84 84 84 255
-0.070857875 -0.015000021 -0.114999995 0 -0 1 84 84 84 255
-0.075 -0.060857892 -0.114999995 0 -0 1 84 84 84 255
-0.075 -0.019142147 -0.114999995 0 -0 1 84 84 84 255
0.07085787 -0.06500002 -0.114999995 4.9240577E-16 -0.70710677 0.70710677 84 84 84 255
-0.075 -0.075000025 -0.125 4.9240577E-16 -0.70710677 0.70710677 84 84 84 255
0.074999996 -0.075000025 -0.125 4.9240577E-16 -0.70710677 0.70710677 84 84 84 255
-0.070857875 -0.06500002 -0.114999995 4.9240577E-16 -0.70710677 0.70710677 84 84 84 255
0.074999996 -0.005000015 -0.125 0.5000001 0.5000001 0.7071066 84 84 84 255
0.074999996 -0.019142147 -0.114999995 0.5000001 0.5000001 0.7071066 84 84 84 255
0.085 -0.015000021 -0.125 0.5000001 0.5000001 0.7071066 84 84 84 255
0.07085787 -0.015000021 -0.114999995 0.5000001 0.5000001 0.7071066 84 84 84 255
-0.075 -0.005000015 -0.125 -5.0429954E-16 0.70710677 0.70710677 84 84 84 255
0.07085787 -0.015000021 -0.114999995 -5.0429954E-16 0.70710677 0.70710677 84 84 84 255
0.074999996 -0.005000015 -0.125 -5.0429954E-16 0.70710677 0.70710677 84 84 84 255
-0.070857875 -0.015000021 -0.114999995 -5.0429954E-16 0.70710677 0.70710677 84 84 84 255
-0.075 -0.005000015 -0.125 -0.5000001 0.5000001 0.7071066 84 84 84 255
-0.075 -0.019142147 -0.114999995 -0.5000001 0.5000001 0.7071066 84 84 84 255
-0.070857875 -0.015000021 -0.114999995 -0.5000001 0.5000001 0.7071066 84 84 84 255
-0.08500001 -0.015000021 -0.125 -0.5000001 0.5000001 0.7071066 84 84 84 255
-0.075 -0.060857892 -0.114999995 -0.70710677 -4.4195466E-16 0.70710677 84 84 84 255
-0.08500001 -0.015000021 -0.125 -0.70710677 -4.4195466E-16 0.70710677 84 84 84 255
-0.08500001 -0.06500002 -0.125 -0.70710677 -4.4195466E-16 0.70710677 84 84 84 255
-0.075 -0.019142147 -0.114999995 -0.70710677 -4.4195466E-16 0.70710677 84 84 84 255
-0.075 -0.060857892 -0.114999995 -0.5000001 -0.5000001 0.7071066 84 84 84 255
-0.075 -0.075000025 -0.125 -0.5000001 -0.5000001 0.7071066 84 84 84 255
-0.070857875 -0.06500002 -0.114999995 -0.5000001 -0.5000001 0.7071066 84 84 84 255
-0.08500001 -0.06500002 -0.125 -0.5000001 -0.5000001 0.7071066 84 84 84 255
0.0875 0.0024999725 -0.125 0 -0 1 84 84 84 255
0.0875 -0.0075000105 -0.125 0 -0 1 84 84 84 255
0.09249999 -0.002500019 -0.125 0 -0 1 84 84 84 255
0.08249998 -0.002500019 -0.125 0 -0 1 84 84 84 255
-0.087500006 0.0024999725 -0.125 0 -0 1 84 84 84 255
-0.087500006 -0.0075000105 -0.125 0 -0 1 84 84 84 255
-0.08249997 -0.002500019 -0.125 0 -0 1 84 84 84 255
-0.09249999 -0.002500019 -0.125 0 -0 1 84 84 84 255
-0.08249997 -0.002500019 -0.125 0 -0 1 199 199 199 255
-0.08500001 -0.015000021 -0.125 0 -0 1 199 199 199 255
-0.075 -0.005000015 -0.125 0 -0 1 199 199 199 255
-0.087500006 -0.0075000105 -0.125 0 -0 1 199 199 199 255
-0.087500006 -0.072500005 -0.125 0 -0 1 199 199 199 255
-0.09249999 -0.07750002 -0.125 0 -0 1 199 199 199 255
-0.09249999 -0.002500019 -0.125 0 -0 1 199 199 199 255
0.10499998 0.014999969 -0.125 0 -0 1 199 199 199 255
0.09249999 -0.002500019 -0.125 0 -0 1 199 199 199 255
0.09249999 -0.07750002 -0.125 0 -0 1 199 199 199 255
0.0875 0.0024999725 -0.125 0 -0 1 199 199 199 255
-0.105000004 0.014999969 -0.125 0 -0 1 199 199 199 255
0.08249998 -0.002500019 -0.125 0 -0 1 199 199 199 255
0.074999996 -0.005000015 -0.125 0 -0 1 199 199 199 255
-0.087500006 0.0024999725 -0.125 0 -0 1 199 199 199 255
-0.105000004 -0.095000006 -0.125 0 -0 1 199 199 199 255
0.10499998 -0.095000006 -0.125 0 -0 1 199 199 199 255
0.0875 -0.08250001 -0.125 0 -0 1 199 199 199 255
0.08249998 -0.07750002 -0.125 0 -0 1 199 199 199 255
0.074999996 -0.075000025 -0.125 0 -0 1 199 199 199 255
-0.075 -0.075000025 -0.125 0 -0 1 199 199 199 255
-0.087500006 -0.08250001 -0.125 0 -0 1 199 199 199 255
-0.08249997 -0.07750002 -0.125 0 -0 1 199 199 199 255
-0.08500001 -0.06500002 -0.125 0 -0 1 199 199 199 255
0.0875 -0.072500005 -0.125 0 -0 1 199 199 199 255
0.0875 -0.0075000105 -0.125 0 -0 1 199 199 199 255
0.085 -0.06500002 -0.125 0 -0 1 199 199 199 255
0.085 -0.015000021 -0.125 0 -0 1 199 199 199 255
-0.087500006 -0.072500005 -0.125 0 -0 1 84 84 84 255
-0.087500006 -0.08250001 -0.125 0 -0 1 84 84 84 255
-0.08249997 -0.07750002 -0.125 0 -0 1 84 84 84 255
-0.09249999 -0.07750002 -0.125 0 -0 1 84 84 84 255
-0.08734665 0.07499998 -0.036180153 0 1 -0 255 255 255 255
0.03618015 0.07499998 -0.08734665 0 1 -0 255 255 255 255
-0.03618018 0.07499998 -0.08734665 0 1 -0 255 255 255 255
0.087346636 0.07499998 -0.036180153 0 1 -0 255 255 255 255
-0.006607139 0.07499998 -0.015951062 0 1 -0 255 255 255 255
-0.08734665 0.07499998 0.036180176 0 1 -0 255 255 255 255
-0.015951062 0.07499998 -0.006607139 0 1 -0 255 255 255 255
-0.015951062 0.07499998 0.006607134 0 1 -0 255 255 255 255
-0.006607139 0.07499998 0.015951058 0 1 -0 255 255 255 255
0.006607134 0.07499998 0.015951058 0 1 -0 255 255 255 255
0.006607134 0.07499998 -0.015951062 0 1 -0 255 255 255 255
0.087346636 0.07499998 0.036180176 0 1 -0 255 255 255 255
0.015951058 0.07499998 -0.006607139 0 1 -0 255 255 255 255
0.015951058 0.07499998 0.006607134 0 1 -0 255 255 255 255
-0.03618018 0.07499998 0.08734664 0 1 -0 255 255 255 255
0.03618015 0.07499998 0.08734664 0 1 -0 255 255 255 255
0.03618015 0.07499998 0.08734664 0 -1 -0 84 84 84 255
-0.03618018 0.07499998 0.08734664 0 -1 -0 84 84 84 255
0.087346636 0.07499998 0.036180176 0 -1 -0 84 84 84 255
-0.08734665 0.07499998 0.036180176 0 -1 -0 84 84 84 255
0.006607134 0.07499998 0.015951058 0 -1 -0 84 84 84 255
0.015951058 0.07499998 0.006607134 0 -1 -0 84 84 84 255
0.015951058 0.07499998 -0.006607139 0 -1 -0 84 84 84 255
0.006607134 0.07499998 -0.015951062 0 -1 -0 84 84 84 255
-0.006607139 0.07499998 -0.015951062 0 -1 -0 84 84 84 255
0.087346636 0.07499998 -0.036180153 0 -1 -0 84 84 84 255
-0.006607139 0.07499998 0.015951058 0 -1 -0 84 84 84 255
-0.015951062 0.07499998 0.006607134 0 -1 -0 84 84 84 255
-0.015951062 0.07499998 -0.006607139 0 -1 -0 84 84 84 255
-0.08734665 0.07499998 -0.036180153 0 -1 -0 84 84 84 255
0.03618015 0.07499998 -0.08734665 0 -1 -0 84 84 84 255
-0.03618018 0.07499998 -0.08734665 0 -1 -0 84 84 84 255
3 0 1 2
3 1 0 3
3 4 5 6
3 5 4 7
3 8 9 10
3 9 8 11
3 12 13 14
3 13 12 15
3 16 17 18
3 17 16 19
3 19 16 20
3 19 20 21
3 21 20 22
3 21 22 23
3 24 25 26
3 25 24 27
3 28 29 30
3 29 28 31
3 32 33 34
3 33 32 35
3 36 37 38
3 37 36 39
3 40 41 42
3 41 40 43
3 43 40 44
3 43 44 45
3 45 44 46
3 45 46 47
3 48 49 50
3 49 48 51
3 52 53 54
3 53 52 55
3 55 52 56
3 55 56 57
3 57 56 58
3 57 58 59
3 60 61 62
3 61 60 63
3 64 65 66
3 65 64 67
3 68 69 70
3 69 68 71
3 72 73 74
3 73 72 75
3 76 77 78
3 77 76 79
3 80 81 82
3 81 80 83
3 83 80 84
3 83 84 85
3 85 84 86
3 85 86 87
3 88 89 90
3 89 88 91
3 92 93 94
3 93 92 95
3 96 97 98
3 97 96 99
3 100 101 102
3 101 100 103
3 104 105 106
3 105 104 107
3 108 109 110
3 109 108 111
3 112 113 114
3 113 112 115
3 116 117 118
3 117 116 119
3 120 121 122
3 121 120 123
3 124 125 126
3 125 124 127
3 128 129 130
3 129 128 131
3 132 133 134
3 133 132 135
3 136 137 138
3 137 136 139
3 140 141 142
3 141 140 143
3 143 140 144
3 143 144 145
3 145 144 146
3 145 146 147
3 148 149 150
3 149 148 151
3 152 153 154
3 153 152 155
3 156 157 158
3 157 156 159
3 160 161 162
3 161 160 163
3 164 165 166
3 165 164 167
3 168 169 170
3 169 168 171
3 172 173 174
3 173 172 175
3 176 177 178
3 177 176 179
3 180 181 182
3 181 180 183
3 183 180 184
3 184 180 185
3 184 185 186
3 186 185 187
3 187 185 188
3 188 185 189
3 183 190 191
3 190 183 184
3 191 190 192
3 191 192 193
3 191 193 189
3 191 189 185
3 191 185 194
3 191 194 195
3 196 197 198
3 197 196 199
3 200 201 202
3 201 200 203
3 204 205 206
3 205 204 207
3 208 209 210
3 209 208 211
3 212 213 214
3 213 212 215
3 216 217 218
3 217 216 219
3 220 221 222
3 221 220 223
3 223 220 224
3 223 224 225
3 225 224 226
3 225 226 227
3 228 229 230
3 229 228 231
3 232 233 234
3 233 232 235
3 236 237 238
3 237 236 239
3 240 241 242
3 241 240 243
3 244 245 246
3 245 244 247
3 248 249 250
3 249 248 251
3 252 253 254
3 253 252 255
3 256 257 258
3 259 258 257
3 260 261 262
3 261 263 262
3 262 263 264
3 263 265 264
3 264 265 266
3 267 266 265
3 268 269 270
3 271 270 269
3 272 273 274
3 275 274 273
3 276 277 278
3 279 278 277
3 280 281 282
3 283 282 281
3 284 285 286
3 287 286 285
3 288 289 290
3 291 290 289
3 292 293 294
3 295 294 293
3 296 297 298
3 297 296 299
3 300 301 302
3 301 300 303
3 304 305 306
3 305 304 307
3 308 309 310
3 311 310 309
3 312 313 314
3 315 314 313
3 316 317 318
3 319 318 317
3 320 321 322
3 321 320 323
3 324 325 326
3 325 324 327
3 328 329 330
3 329 328 331
3 332 333 334
3 333 332 335
3 336 337 338
3 337 336 339
3 340 341 342
3 341 340 343
3 344 345 346
3 345 344 347
3 348 349 350
3 349 348 351
3 352 353 354
3 353 352 355
3 356 357 358
3 357 356 359
3 359 356 360
3 359 360 361
3 361 360 362
3 362 360 363
3 362 363 364
3 358 365 366
3 365 358 367
3 367 358 357
3 366 365 368
3 366 368 364
3 366 364 369
3 369 364 363
3 370 371 372
3 371 370 373
3 374 375 376
3 375 374 377
3 377 374 378
3 377 378 379
3 379 378 380
3 380 378 381
3 380 381 382
3 376 383 384
3 383 376 385
3 385 376 375
3 384 383 386
3 384 386 382
3 384 382 387
3 387 382 381
3 388 389 390
3 389 388 391
3 392 393 394
3 393 392 395
3 396 397 398
3 397 396 399
3 400 401 402
3 401 400 403
3 404 405 406
3 405 404 407
3 408 409 410
3 409 408 411
3 412 413 414
3 415 414 413
3 416 417 418
3 419 418 417
3 420 421 422
3 423 422 421
3 424 425 426
3 425 424 427
3 427 424 428
3 427 428 429
3 429 428 430
3 429 430 431
3 432 433 434
3 433 432 435
3 436 437 438
3 437 436 439
3 440 441 442
3 441 440 443
3 444 445 446
3 445 444 447
3 448 449 450
3 449 448 451
3 452 453 454
3 453 452 455
3 453 455 456
3 456 455 457
3 456 457 458
3 458 457 459
3 460 461 462
3 461 460 463
3 464 465 466
3 465 464 467
3 468 469 470
3 469 468 471
3 472 473 474
3 473 472 475
3 476 477 478
3 477 476 479
3 480 481 482
3 481 480 483
3 484 485 486
3 485 484 487
3 488 489 490
3 489 488 491
3 492 493 494
3 493 492 495
3 493 495 496
3 496 495 497
3 497 495 498
3 499 500 501
3 500 499 502
3 502 499 503
3 502 503 504
3 504 503 505
3 505 503 494
3 494 503 506
3 494 506 492
3 506 503 498
3 498 503 507
3 508 509 507
3 509 508 501
3 501 508 499
3 507 509 510
3 507 510 511
3 507 511 512
3 507 512 513
3 513 512 514
3 507 513 497
3 507 497 498
3 515 514 512
3 514 515 496
3 496 515 493
3 500 516 501
3 516 500 517
3 516 517 518
3 516 518 510
3 510 518 511
3 517 519 518
3 519 517 504
3 519 504 505
3 520 521 522
3 521 520 523
3 524 525 526
3 525 524 527
3 527 524 528
3 528 524 529
3 528 529 530
3 530 529 531
3 531 529 532
3 532 529 533
3 527 534 535
3 534 527 528
3 535 534 536
3 535 536 537
3 535 537 533
3 535 533 529
3 535 529 538
3 535 538 539
3 540 541 542
3 541 543 542
3 543 544 542
3 544 545 542
3 545 546 542
3 546 547 542
3 548 549 547
3 542 547 549
3 544 543 550
3 550 543 551
3 551 543 552
3 552 543 548
3 543 553 548
3 548 553 549
3 549 553 554
3 555 554 553

