ply
format ascii 1.0
commentY29udmVydGVyIGJ5IENvZGVMZW9wYXJk
comment Original mesh name: 'C:\Program Files (x86)\Steam\steamapps\common\Stormworks\rom\meshes\modular_engine_clutch_5.mesh'
comment SubMesh index: 0
comment SubMesh name: 'ID20'
comment Shader: Opaque (0)
element vertex 584
property float x
property float y
property float z
property float nx
property float ny
property float nz
property uchar red
property uchar green
property uchar blue
property uchar alpha
element face 370
property list uchar ushort vertex_index
end_header
-0.089055896 0.20610066 0.085 9.15934E-16 -0 -1 255 255 255 255
-0.21499999 -0.09795524 0.085 9.15934E-16 -0 -1 255 255 255 255
-0.21499999 0.08015658 0.085 9.15934E-16 -0 -1 255 255 255 255
-0.089055896 -0.2238993 0.085 9.15934E-16 -0 -1 255 255 255 255
0.089055896 0.20610066 0.085 9.15934E-16 -0 -1 255 255 255 255
0.089055896 -0.2238993 0.085 9.15934E-16 -0 -1 255 255 255 255
0.21499999 0.08015658 0.085 9.15934E-16 -0 -1 255 255 255 255
0.21499999 -0.09795524 0.085 9.15934E-16 -0 -1 255 255 255 255
0.23628096 0.49203885 0.06499999 9.15934E-16 -0 -1 84 84 84 255
0.2620391 0.14101185 0.06499999 9.15934E-16 -0 -1 84 84 84 255
0.14101185 0.2620391 0.06499999 9.15934E-16 -0 -1 84 84 84 255
0.49203885 0.23628096 0.06499999 9.15934E-16 -0 -1 84 84 84 255
0.23628096 0.49203885 0.085 -0.9238794 0.3826837 -8.462125E-16 84 84 84 255
0.14101185 0.2620391 0.06499999 -0.9238794 0.3826837 -8.462125E-16 84 84 84 255
0.14101185 0.2620391 0.085 -0.9238794 0.3826837 -8.462125E-16 84 84 84 255
0.23628096 0.49203885 0.06499999 -0.9238794 0.3826837 -8.462125E-16 84 84 84 255
0.23628096 0.49203885 0.06499999 0.70710677 0.70710677 6.476631E-16 84 84 84 255
0.49203885 0.23628096 0.085 0.70710677 0.70710677 6.476631E-16 84 84 84 255
0.49203885 0.23628096 0.06499999 0.70710677 0.70710677 6.476631E-16 84 84 84 255
0.23628096 0.49203885 0.085 0.70710677 0.70710677 6.476631E-16 84 84 84 255
0.2620391 0.14101185 0.06499999 0.3826837 -0.9238794 3.50513E-16 84 84 84 255
0.49203885 0.23628096 0.085 0.3826837 -0.9238794 3.50513E-16 84 84 84 255
0.2620391 0.14101185 0.085 0.3826837 -0.9238794 3.50513E-16 84 84 84 255
0.49203885 0.23628096 0.06499999 0.3826837 -0.9238794 3.50513E-16 84 84 84 255
0.14101185 0.2620391 0.085 -0.70710677 -0.70710677 -6.476631E-16 84 84 84 255
0.2620391 0.14101185 0.06499999 -0.70710677 -0.70710677 -6.476631E-16 84 84 84 255
0.2620391 0.14101185 0.085 -0.70710677 -0.70710677 -6.476631E-16 84 84 84 255
0.14101185 0.2620391 0.06499999 -0.70710677 -0.70710677 -6.476631E-16 84 84 84 255
0.18084821 0.515 0.06499999 9.15934E-16 -0 -1 84 84 84 255
-0.0855791 0.28499994 0.06499999 9.15934E-16 -0 -1 84 84 84 255
-0.18084821 0.515 0.06499999 9.15934E-16 -0 -1 84 84 84 255
0.0855791 0.28499994 0.06499999 9.15934E-16 -0 -1 84 84 84 255
0.18084821 0.515 0.06499999 0 1 -0 84 84 84 255
-0.18084821 0.515 0.085 0 1 -0 84 84 84 255
0.18084821 0.515 0.085 0 1 -0 84 84 84 255
-0.18084821 0.515 0.06499999 0 1 -0 84 84 84 255
0.18084821 0.515 0.06499999 0.9238795 -0.38268337 8.4621265E-16 84 84 84 255
0.0855791 0.28499994 0.085 0.9238795 -0.38268337 8.4621265E-16 84 84 84 255
0.0855791 0.28499994 0.06499999 0.9238795 -0.38268337 8.4621265E-16 84 84 84 255
0.18084821 0.515 0.085 0.9238795 -0.38268337 8.4621265E-16 84 84 84 255
-0.0855791 0.28499994 0.06499999 0 -1 -0 84 84 84 255
0.0855791 0.28499994 0.085 0 -1 -0 84 84 84 255
-0.0855791 0.28499994 0.085 0 -1 -0 84 84 84 255
0.0855791 0.28499994 0.06499999 0 -1 -0 84 84 84 255
-0.18084821 0.515 0.085 -0.9238795 -0.38268337 -8.4621265E-16 84 84 84 255
-0.0855791 0.28499994 0.06499999 -0.9238795 -0.38268337 -8.4621265E-16 84 84 84 255
-0.0855791 0.28499994 0.085 -0.9238795 -0.38268337 -8.4621265E-16 84 84 84 255
-0.18084821 0.515 0.06499999 -0.9238795 -0.38268337 -8.4621265E-16 84 84 84 255
-0.28499994 0.0855791 0.06499999 0.38268337 0.9238795 3.505127E-16 84 84 84 255
-0.515 0.18084821 0.085 0.38268337 0.9238795 3.505127E-16 84 84 84 255
-0.28499994 0.0855791 0.085 0.38268337 0.9238795 3.505127E-16 84 84 84 255
-0.515 0.18084821 0.06499999 0.38268337 0.9238795 3.505127E-16 84 84 84 255
-0.28499994 0.0855791 0.06499999 1 -0 9.15934E-16 84 84 84 255
-0.28499994 -0.0855791 0.085 1 -0 9.15934E-16 84 84 84 255
-0.28499994 -0.0855791 0.06499999 1 -0 9.15934E-16 84 84 84 255
-0.28499994 0.0855791 0.085 1 -0 9.15934E-16 84 84 84 255
-0.28499994 0.0855791 0.06499999 9.15934E-16 -0 -1 84 84 84 255
-0.515 -0.18084821 0.06499999 9.15934E-16 -0 -1 84 84 84 255
-0.515 0.18084821 0.06499999 9.15934E-16 -0 -1 84 84 84 255
-0.28499994 -0.0855791 0.06499999 9.15934E-16 -0 -1 84 84 84 255
-0.515 0.18084821 0.085 -1 -0 -9.15934E-16 84 84 84 255
-0.515 -0.18084821 0.06499999 -1 -0 -9.15934E-16 84 84 84 255
-0.515 -0.18084821 0.085 -1 -0 -9.15934E-16 84 84 84 255
-0.515 0.18084821 0.06499999 -1 -0 -9.15934E-16 84 84 84 255
-0.515 -0.18084821 0.06499999 0.38268337 -0.9238795 3.505127E-16 84 84 84 255
-0.28499994 -0.0855791 0.085 0.38268337 -0.9238795 3.505127E-16 84 84 84 255
-0.515 -0.18084821 0.085 0.38268337 -0.9238795 3.505127E-16 84 84 84 255
-0.28499994 -0.0855791 0.06499999 0.38268337 -0.9238795 3.505127E-16 84 84 84 255
-0.49203885 -0.23628096 0.085 -0.70710677 -0.70710677 -6.476631E-16 84 84 84 255
-0.23628096 -0.49203885 0.06499999 -0.70710677 -0.70710677 -6.476631E-16 84 84 84 255
-0.23628096 -0.49203885 0.085 -0.70710677 -0.70710677 -6.476631E-16 84 84 84 255
-0.49203885 -0.23628096 0.06499999 -0.70710677 -0.70710677 -6.476631E-16 84 84 84 255
-0.2620391 -0.14101185 0.06499999 -0.3826837 0.9238794 -3.50513E-16 84 84 84 255
-0.49203885 -0.23628096 0.085 -0.3826837 0.9238794 -3.50513E-16 84 84 84 255
-0.2620391 -0.14101185 0.085 -0.3826837 0.9238794 -3.50513E-16 84 84 84 255
-0.49203885 -0.23628096 0.06499999 -0.3826837 0.9238794 -3.50513E-16 84 84 84 255
-0.2620391 -0.14101185 0.06499999 9.15934E-16 -0 -1 84 84 84 255
-0.23628096 -0.49203885 0.06499999 9.15934E-16 -0 -1 84 84 84 255
-0.49203885 -0.23628096 0.06499999 9.15934E-16 -0 -1 84 84 84 255
-0.14101185 -0.2620391 0.06499999 9.15934E-16 -0 -1 84 84 84 255
-0.14101185 -0.2620391 0.06499999 0.9238794 -0.3826837 8.462125E-16 84 84 84 255
-0.23628096 -0.49203885 0.085 0.9238794 -0.3826837 8.462125E-16 84 84 84 255
-0.23628096 -0.49203885 0.06499999 0.9238794 -0.3826837 8.462125E-16 84 84 84 255
-0.14101185 -0.2620391 0.085 0.9238794 -0.3826837 8.462125E-16 84 84 84 255
-0.2620391 -0.14101185 0.06499999 0.70710677 0.70710677 6.476631E-16 84 84 84 255
-0.14101185 -0.2620391 0.085 0.70710677 0.70710677 6.476631E-16 84 84 84 255
-0.14101185 -0.2620391 0.06499999 0.70710677 0.70710677 6.476631E-16 84 84 84 255
-0.2620391 -0.14101185 0.085 0.70710677 0.70710677 6.476631E-16 84 84 84 255
0.49203885 -0.23628096 0.06499999 0.3826837 0.9238794 3.50513E-16 84 84 84 255
0.2620391 -0.14101185 0.085 0.3826837 0.9238794 3.50513E-16 84 84 84 255
0.49203885 -0.23628096 0.085 0.3826837 0.9238794 3.50513E-16 84 84 84 255
0.2620391 -0.14101185 0.06499999 0.3826837 0.9238794 3.50513E-16 84 84 84 255
0.49203885 -0.23628096 0.06499999 0.70710677 -0.70710677 6.476631E-16 84 84 84 255
0.23628096 -0.49203885 0.085 0.70710677 -0.70710677 6.476631E-16 84 84 84 255
0.23628096 -0.49203885 0.06499999 0.70710677 -0.70710677 6.476631E-16 84 84 84 255
0.49203885 -0.23628096 0.085 0.70710677 -0.70710677 6.476631E-16 84 84 84 255
0.2620391 -0.14101185 0.06499999 9.15934E-16 -0 -1 84 84 84 255
0.23628096 -0.49203885 0.06499999 9.15934E-16 -0 -1 84 84 84 255
0.14101185 -0.2620391 0.06499999 9.15934E-16 -0 -1 84 84 84 255
0.49203885 -0.23628096 0.06499999 9.15934E-16 -0 -1 84 84 84 255
0.2620391 -0.14101185 0.085 -0.70710677 0.70710677 -6.476631E-16 84 84 84 255
0.14101185 -0.2620391 0.06499999 -0.70710677 0.70710677 -6.476631E-16 84 84 84 255
0.14101185 -0.2620391 0.085 -0.70710677 0.70710677 -6.476631E-16 84 84 84 255
0.2620391 -0.14101185 0.06499999 -0.70710677 0.70710677 -6.476631E-16 84 84 84 255
0.14101185 -0.2620391 0.085 -0.9238794 -0.3826837 -8.462125E-16 84 84 84 255
0.23628096 -0.49203885 0.06499999 -0.9238794 -0.3826837 -8.462125E-16 84 84 84 255
0.23628096 -0.49203885 0.085 -0.9238794 -0.3826837 -8.462125E-16 84 84 84 255
0.14101185 -0.2620391 0.06499999 -0.9238794 -0.3826837 -8.462125E-16 84 84 84 255
0.515 0.18084821 0.06499999 -0.38268337 0.9238795 -3.505127E-16 84 84 84 255
0.28499994 0.0855791 0.085 -0.38268337 0.9238795 -3.505127E-16 84 84 84 255
0.515 0.18084821 0.085 -0.38268337 0.9238795 -3.505127E-16 84 84 84 255
0.28499994 0.0855791 0.06499999 -0.38268337 0.9238795 -3.505127E-16 84 84 84 255
0.515 0.18084821 0.06499999 1 -0 9.15934E-16 84 84 84 255
0.515 -0.18084821 0.085 1 -0 9.15934E-16 84 84 84 255
0.515 -0.18084821 0.06499999 1 -0 9.15934E-16 84 84 84 255
0.515 0.18084821 0.085 1 -0 9.15934E-16 84 84 84 255
0.515 0.18084821 0.06499999 9.15934E-16 -0 -1 84 84 84 255
0.28499994 -0.0855791 0.06499999 9.15934E-16 -0 -1 84 84 84 255
0.28499994 0.0855791 0.06499999 9.15934E-16 -0 -1 84 84 84 255
0.515 -0.18084821 0.06499999 9.15934E-16 -0 -1 84 84 84 255
0.28499994 0.0855791 0.085 -1 -0 -9.15934E-16 84 84 84 255
0.28499994 -0.0855791 0.06499999 -1 -0 -9.15934E-16 84 84 84 255
0.28499994 -0.0855791 0.085 -1 -0 -9.15934E-16 84 84 84 255
0.28499994 0.0855791 0.06499999 -1 -0 -9.15934E-16 84 84 84 255
0.28499994 -0.0855791 0.06499999 -0.38268337 -0.9238795 -3.505127E-16 84 84 84 255
0.515 -0.18084821 0.085 -0.38268337 -0.9238795 -3.505127E-16 84 84 84 255
0.28499994 -0.0855791 0.085 -0.38268337 -0.9238795 -3.505127E-16 84 84 84 255
0.515 -0.18084821 0.06499999 -0.38268337 -0.9238795 -3.505127E-16 84 84 84 255
-0.14101185 0.2620391 0.06499999 0.70710677 -0.70710677 6.476631E-16 84 84 84 255
-0.2620391 0.14101185 0.085 0.70710677 -0.70710677 6.476631E-16 84 84 84 255
-0.2620391 0.14101185 0.06499999 0.70710677 -0.70710677 6.476631E-16 84 84 84 255
-0.14101185 0.2620391 0.085 0.70710677 -0.70710677 6.476631E-16 84 84 84 255
-0.23628096 0.49203885 0.06499999 9.15934E-16 -0 -1 84 84 84 255
-0.2620391 0.14101185 0.06499999 9.15934E-16 -0 -1 84 84 84 255
-0.49203885 0.23628096 0.06499999 9.15934E-16 -0 -1 84 84 84 255
-0.14101185 0.2620391 0.06499999 9.15934E-16 -0 -1 84 84 84 255
-0.23628096 0.49203885 0.06499999 0.9238794 0.3826837 8.462125E-16 84 84 84 255
-0.14101185 0.2620391 0.085 0.9238794 0.3826837 8.462125E-16 84 84 84 255
-0.14101185 0.2620391 0.06499999 0.9238794 0.3826837 8.462125E-16 84 84 84 255
-0.23628096 0.49203885 0.085 0.9238794 0.3826837 8.462125E-16 84 84 84 255
-0.49203885 0.23628096 0.06499999 -0.3826837 -0.9238794 -3.50513E-16 84 84 84 255
-0.2620391 0.14101185 0.085 -0.3826837 -0.9238794 -3.50513E-16 84 84 84 255
-0.49203885 0.23628096 0.085 -0.3826837 -0.9238794 -3.50513E-16 84 84 84 255
-0.2620391 0.14101185 0.06499999 -0.3826837 -0.9238794 -3.50513E-16 84 84 84 255
-0.23628096 0.49203885 0.085 -0.70710677 0.70710677 -6.476631E-16 84 84 84 255
-0.49203885 0.23628096 0.06499999 -0.70710677 0.70710677 -6.476631E-16 84 84 84 255
-0.49203885 0.23628096 0.085 -0.70710677 0.70710677 -6.476631E-16 84 84 84 255
-0.23628096 0.49203885 0.06499999 -0.70710677 0.70710677 -6.476631E-16 84 84 84 255
-0.18084821 -0.515 0.06499999 0 -1 -0 84 84 84 255
0.18084821 -0.515 0.085 0 -1 -0 84 84 84 255
-0.18084821 -0.515 0.085 0 -1 -0 84 84 84 255
0.18084821 -0.515 0.06499999 0 -1 -0 84 84 84 255
-0.0855791 -0.28499994 0.085 -0.9238795 0.38268337 -8.4621265E-16 84 84 84 255
-0.18084821 -0.515 0.06499999 -0.9238795 0.38268337 -8.4621265E-16 84 84 84 255
-0.18084821 -0.515 0.085 -0.9238795 0.38268337 -8.4621265E-16 84 84 84 255
-0.0855791 -0.28499994 0.06499999 -0.9238795 0.38268337 -8.4621265E-16 84 84 84 255
-0.0855791 -0.28499994 0.06499999 9.15934E-16 -0 -1 84 84 84 255
0.18084821 -0.515 0.06499999 9.15934E-16 -0 -1 84 84 84 255
-0.18084821 -0.515 0.06499999 9.15934E-16 -0 -1 84 84 84 255
0.0855791 -0.28499994 0.06499999 9.15934E-16 -0 -1 84 84 84 255
0.0855791 -0.28499994 0.06499999 0.9238795 0.38268337 8.4621265E-16 84 84 84 255
0.18084821 -0.515 0.085 0.9238795 0.38268337 8.4621265E-16 84 84 84 255
0.18084821 -0.515 0.06499999 0.9238795 0.38268337 8.4621265E-16 84 84 84 255
0.0855791 -0.28499994 0.085 0.9238795 0.38268337 8.4621265E-16 84 84 84 255
0.0855791 -0.28499994 0.06499999 0 1 -0 84 84 84 255
-0.0855791 -0.28499994 0.085 0 1 -0 84 84 84 255
0.0855791 -0.28499994 0.085 0 1 -0 84 84 84 255
-0.0855791 -0.28499994 0.06499999 0 1 -0 84 84 84 255
-0.34726828 0.13494383 -0.04500001 -1 -0 -9.15934E-16 84 84 84 255
-0.34726828 -0.15274258 -0.125 -1 -0 -9.15934E-16 84 84 84 255
-0.34726828 -0.15274258 -0.04500001 -1 -0 -9.15934E-16 84 84 84 255
-0.34726828 0.13494383 -0.125 -1 -0 -9.15934E-16 84 84 84 255
-0.14384319 0.3383689 -0.04500001 -0.7071069 0.7071067 -7.1094085E-16 84 84 84 255
-0.34726828 0.13494383 -0.125 -0.7071069 0.7071067 -7.1094085E-16 84 84 84 255
-0.34726828 0.13494383 -0.04500001 -0.7071069 0.7071067 -7.1094085E-16 84 84 84 255
-0.14384319 0.3383689 -0.125 -0.7071069 0.7071067 -7.1094085E-16 84 84 84 255
-0.34726828 -0.15274258 -0.04500001 -0.70710677 -0.70710677 -7.1097314E-16 84 84 84 255
-0.14384319 -0.35616767 -0.125 -0.70710677 -0.70710677 -7.1097314E-16 84 84 84 255
-0.14384319 -0.35616767 -0.04500001 -0.70710677 -0.70710677 -7.1097314E-16 84 84 84 255
-0.34726828 -0.15274258 -0.125 -0.70710677 -0.70710677 -7.1097314E-16 84 84 84 255
0.14384323 0.3383689 -0.125 0 1 -0 84 84 84 255
-0.14384319 0.3383689 -0.04500001 0 1 -0 84 84 84 255
0.14384323 0.3383689 -0.04500001 0 1 -0 84 84 84 255
-0.14384319 0.3383689 -0.125 0 1 -0 84 84 84 255
-0.14384319 -0.35616767 -0.125 0 -1 -0 84 84 84 255
0.14384323 -0.35616767 -0.04500001 0 -1 -0 84 84 84 255
-0.14384319 -0.35616767 -0.04500001 0 -1 -0 84 84 84 255
0.14384323 -0.35616767 -0.125 0 -1 -0 84 84 84 255
0.14384323 0.3383689 -0.125 0.70710677 0.70710677 6.476631E-16 84 84 84 255
0.34726828 0.13494383 -0.04500001 0.70710677 0.70710677 6.476631E-16 84 84 84 255
0.34726828 0.13494383 -0.125 0.70710677 0.70710677 6.476631E-16 84 84 84 255
0.14384323 0.3383689 -0.04500001 0.70710677 0.70710677 6.476631E-16 84 84 84 255
0.14384323 -0.35616767 -0.04500001 0.7071067 -0.7071069 6.4769544E-16 84 84 84 255
0.34726828 -0.15274258 -0.125 0.7071067 -0.7071069 6.4769544E-16 84 84 84 255
0.34726828 -0.15274258 -0.04500001 0.7071067 -0.7071069 6.4769544E-16 84 84 84 255
0.14384323 -0.35616767 -0.125 0.7071067 -0.7071069 6.4769544E-16 84 84 84 255
0.34726828 0.13494383 -0.125 1 -0 9.15934E-16 84 84 84 255
0.34726828 -0.15274258 -0.04500001 1 -0 9.15934E-16 84 84 84 255
0.34726828 -0.15274258 -0.125 1 -0 9.15934E-16 84 84 84 255
0.34726828 0.13494383 -0.04500001 1 -0 9.15934E-16 84 84 84 255
-0.39726818 0.15565449 -0.125 1 -0 9.15934E-16 84 84 84 255
-0.39726818 -0.17345326 -0.095000006 1 -0 9.15934E-16 84 84 84 255
-0.39726818 -0.17345326 -0.125 1 -0 9.15934E-16 84 84 84 255
-0.39726818 0.15565449 -0.095000006 1 -0 9.15934E-16 84 84 84 255
-0.39726818 0.15565449 -0.125 0.7071067 -0.7071068 6.4766304E-16 84 84 84 255
-0.16455387 0.38836876 -0.095000006 0.7071067 -0.7071068 6.4766304E-16 84 84 84 255
-0.39726818 0.15565449 -0.095000006 0.7071067 -0.7071068 6.4766304E-16 84 84 84 255
-0.16455387 0.38836876 -0.125 0.7071067 -0.7071068 6.4766304E-16 84 84 84 255
-0.39726818 -0.17345326 -0.125 0.70710677 0.70710677 6.476631E-16 84 84 84 255
-0.16455387 -0.40616757 -0.095000006 0.70710677 0.70710677 6.476631E-16 84 84 84 255
-0.16455387 -0.40616757 -0.125 0.70710677 0.70710677 6.476631E-16 84 84 84 255
-0.39726818 -0.17345326 -0.095000006 0.70710677 0.70710677 6.476631E-16 84 84 84 255
-0.16455387 0.38836876 -0.125 0 -1 -0 84 84 84 255
0.16455388 0.38836876 -0.095000006 0 -1 -0 84 84 84 255
-0.16455387 0.38836876 -0.095000006 0 -1 -0 84 84 84 255
0.16455388 0.38836876 -0.125 0 -1 -0 84 84 84 255
0.16455388 -0.40616757 -0.125 0 1 -0 84 84 84 255
-0.16455387 -0.40616757 -0.095000006 0 1 -0 84 84 84 255
0.16455388 -0.40616757 -0.095000006 0 1 -0 84 84 84 255
-0.16455387 -0.40616757 -0.125 0 1 -0 84 84 84 255
0.16455388 0.38836876 -0.095000006 -0.70710677 -0.70710677 -6.476631E-16 84 84 84 255
0.39726818 0.15565449 -0.125 -0.70710677 -0.70710677 -6.476631E-16 84 84 84 255
0.39726818 0.15565449 -0.095000006 -0.70710677 -0.70710677 -6.476631E-16 84 84 84 255
0.16455388 0.38836876 -0.125 -0.70710677 -0.70710677 -6.476631E-16 84 84 84 255
0.39726818 -0.17345326 -0.095000006 -0.7071068 0.7071067 -6.4766315E-16 84 84 84 255
0.16455388 -0.40616757 -0.125 -0.7071068 0.7071067 -6.4766315E-16 84 84 84 255
0.16455388 -0.40616757 -0.095000006 -0.7071068 0.7071067 -6.4766315E-16 84 84 84 255
0.39726818 -0.17345326 -0.125 -0.7071068 0.7071067 -6.4766315E-16 84 84 84 255
0.39726818 0.15565449 -0.095000006 -1 -0 -9.15934E-16 84 84 84 255
0.39726818 -0.17345326 -0.125 -1 -0 -9.15934E-16 84 84 84 255
0.39726818 -0.17345326 -0.095000006 -1 -0 -9.15934E-16 84 84 84 255
0.39726818 0.15565449 -0.125 -1 -0 -9.15934E-16 84 84 84 255
-0.04556353 -0.11889943 -0.06500002 -9.15934E-16 -0 1 199 199 199 255
-0.11000002 0.036664136 -0.06500002 -9.15934E-16 -0 1 199 199 199 255
-0.11000002 -0.054462936 -0.06500002 -9.15934E-16 -0 1 199 199 199 255
-0.04556353 0.10110063 -0.06500002 -9.15934E-16 -0 1 199 199 199 255
0.04556353 -0.11889943 -0.06500002 -9.15934E-16 -0 1 199 199 199 255
0.04556353 0.10110063 -0.06500002 -9.15934E-16 -0 1 199 199 199 255
0.11000002 -0.054462936 -0.06500002 -9.15934E-16 -0 1 199 199 199 255
0.11000002 0.036664136 -0.06500002 -9.15934E-16 -0 1 199 199 199 255
0.11000002 -0.054462936 -0.10500002 0.70710677 -0.70710677 6.476631E-16 199 199 199 255
0.04556353 -0.11889943 -0.06500002 0.70710677 -0.70710677 6.476631E-16 199 199 199 255
0.04556353 -0.11889943 -0.10500002 0.70710677 -0.70710677 6.476631E-16 199 199 199 255
0.11000002 -0.054462936 -0.06500002 0.70710677 -0.70710677 6.476631E-16 199 199 199 255
0.11000002 0.036664136 -0.10500002 1 -0 9.15934E-16 199 199 199 255
0.11000002 -0.054462936 -0.06500002 1 -0 9.15934E-16 199 199 199 255
0.11000002 -0.054462936 -0.10500002 1 -0 9.15934E-16 199 199 199 255
0.11000002 0.036664136 -0.06500002 1 -0 9.15934E-16 199 199 199 255
0.04556353 0.10110063 -0.10500002 0.70710677 0.70710677 6.476631E-16 199 199 199 255
0.11000002 0.036664136 -0.06500002 0.70710677 0.70710677 6.476631E-16 199 199 199 255
0.11000002 0.036664136 -0.10500002 0.70710677 0.70710677 6.476631E-16 199 199 199 255
0.04556353 0.10110063 -0.06500002 0.70710677 0.70710677 6.476631E-16 199 199 199 255
0.04556353 0.10110063 -0.10500002 0 1 -0 199 199 199 255
-0.04556353 0.10110063 -0.06500002 0 1 -0 199 199 199 255
0.04556353 0.10110063 -0.06500002 0 1 -0 199 199 199 255
-0.04556353 0.10110063 -0.10500002 0 1 -0 199 199 199 255
-0.04556353 0.10110063 -0.06500002 -0.70710677 0.70710677 -6.476631E-16 199 199 199 255
-0.11000002 0.036664136 -0.10500002 -0.70710677 0.70710677 -6.476631E-16 199 199 199 255
-0.11000002 0.036664136 -0.06500002 -0.70710677 0.70710677 -6.476631E-16 199 199 199 255
-0.04556353 0.10110063 -0.10500002 -0.70710677 0.70710677 -6.476631E-16 199 199 199 255
-0.11000002 0.036664136 -0.06500002 -1 -0 -9.15934E-16 199 199 199 255
-0.11000002 -0.054462936 -0.10500002 -1 -0 -9.15934E-16 199 199 199 255
-0.11000002 -0.054462936 -0.06500002 -1 -0 -9.15934E-16 199 199 199 255
-0.11000002 0.036664136 -0.10500002 -1 -0 -9.15934E-16 199 199 199 255
-0.11000002 -0.054462936 -0.06500002 -0.70710677 -0.70710677 -6.476631E-16 199 199 199 255
-0.04556353 -0.11889943 -0.10500002 -0.70710677 -0.70710677 -6.476631E-16 199 199 199 255
-0.04556353 -0.11889943 -0.06500002 -0.70710677 -0.70710677 -6.476631E-16 199 199 199 255
-0.11000002 -0.054462936 -0.10500002 -0.70710677 -0.70710677 -6.476631E-16 199 199 199 255
-0.04556353 -0.11889943 -0.10500002 0 -1 -0 199 199 199 255
0.04556353 -0.11889943 -0.06500002 0 -1 -0 199 199 199 255
-0.04556353 -0.11889943 -0.06500002 0 -1 -0 199 199 199 255
0.04556353 -0.11889943 -0.10500002 0 -1 -0 199 199 199 255
-0.14999999 -0.07103135 -0.10500002 -9.15934E-16 -0 1 199 199 199 255
-0.11000002 -0.054462936 -0.10500002 -9.15934E-16 -0 1 199 199 199 255
-0.14999999 0.053232554 -0.10500002 -9.15934E-16 -0 1 199 199 199 255
-0.062131952 -0.15889938 -0.10500002 -9.15934E-16 -0 1 199 199 199 255
-0.04556353 -0.11889943 -0.10500002 -9.15934E-16 -0 1 199 199 199 255
0.062131952 -0.15889938 -0.10500002 -9.15934E-16 -0 1 199 199 199 255
0.04556353 -0.11889943 -0.10500002 -9.15934E-16 -0 1 199 199 199 255
0.11000002 -0.054462936 -0.10500002 -9.15934E-16 -0 1 199 199 199 255
0.14999995 -0.07103135 -0.10500002 -9.15934E-16 -0 1 199 199 199 255
0.11000002 0.036664136 -0.10500002 -9.15934E-16 -0 1 199 199 199 255
-0.11000002 0.036664136 -0.10500002 -9.15934E-16 -0 1 199 199 199 255
-0.062131952 0.14110056 -0.10500002 -9.15934E-16 -0 1 199 199 199 255
-0.04556353 0.10110063 -0.10500002 -9.15934E-16 -0 1 199 199 199 255
0.062131952 0.14110056 -0.10500002 -9.15934E-16 -0 1 199 199 199 255
0.04556353 0.10110063 -0.10500002 -9.15934E-16 -0 1 199 199 199 255
0.14999995 0.053232554 -0.10500002 -9.15934E-16 -0 1 199 199 199 255
0.14999995 0.053232554 -0.04500001 -1 -0 -9.15934E-16 199 199 199 255
0.14999995 -0.07103135 -0.10500002 -1 -0 -9.15934E-16 199 199 199 255
0.14999995 -0.07103135 -0.04500001 -1 -0 -9.15934E-16 199 199 199 255
0.14999995 0.053232554 -0.10500002 -1 -0 -9.15934E-16 199 199 199 255
0.062131952 0.14110056 -0.04500001 -0.70710677 -0.70710677 -6.476631E-16 199 199 199 255
0.14999995 0.053232554 -0.10500002 -0.70710677 -0.70710677 -6.476631E-16 199 199 199 255
0.14999995 0.053232554 -0.04500001 -0.70710677 -0.70710677 -6.476631E-16 199 199 199 255
0.062131952 0.14110056 -0.10500002 -0.70710677 -0.70710677 -6.476631E-16 199 199 199 255
-0.062131952 0.14110056 -0.10500002 0 -1 -0 199 199 199 255
0.062131952 0.14110056 -0.04500001 0 -1 -0 199 199 199 255
-0.062131952 0.14110056 -0.04500001 0 -1 -0 199 199 199 255
0.062131952 0.14110056 -0.10500002 0 -1 -0 199 199 199 255
-0.14999999 0.053232554 -0.10500002 0.7071066 -0.707107 6.4766294E-16 199 199 199 255
-0.062131952 0.14110056 -0.04500001 0.7071066 -0.707107 6.4766294E-16 199 199 199 255
-0.14999999 0.053232554 -0.04500001 0.7071066 -0.707107 6.4766294E-16 199 199 199 255
-0.062131952 0.14110056 -0.10500002 0.7071066 -0.707107 6.4766294E-16 199 199 199 255
-0.14999999 0.053232554 -0.10500002 1 -0 9.15934E-16 199 199 199 255
-0.14999999 -0.07103135 -0.04500001 1 -0 9.15934E-16 199 199 199 255
-0.14999999 -0.07103135 -0.10500002 1 -0 9.15934E-16 199 199 199 255
-0.14999999 0.053232554 -0.04500001 1 -0 9.15934E-16 199 199 199 255
-0.14999999 -0.07103135 -0.10500002 0.70710677 0.70710677 6.476631E-16 199 199 199 255
-0.062131952 -0.15889938 -0.04500001 0.70710677 0.70710677 6.476631E-16 199 199 199 255
-0.062131952 -0.15889938 -0.10500002 0.70710677 0.70710677 6.476631E-16 199 199 199 255
-0.14999999 -0.07103135 -0.04500001 0.70710677 0.70710677 6.476631E-16 199 199 199 255
0.062131952 -0.15889938 -0.10500002 0 1 -0 199 199 199 255
-0.062131952 -0.15889938 -0.04500001 0 1 -0 199 199 199 255
0.062131952 -0.15889938 -0.04500001 0 1 -0 199 199 199 255
-0.062131952 -0.15889938 -0.10500002 0 1 -0 199 199 199 255
0.14999995 -0.07103135 -0.04500001 -0.707107 0.7071066 -6.476057E-16 199 199 199 255
0.062131952 -0.15889938 -0.10500002 -0.707107 0.7071066 -6.476057E-16 199 199 199 255
0.062131952 -0.15889938 -0.04500001 -0.707107 0.7071066 -6.476057E-16 199 199 199 255
0.14999995 -0.07103135 -0.10500002 -0.707107 0.7071066 -6.476057E-16 199 199 199 255
-0.39726818 -0.17345326 -0.125 -9.15934E-16 -0 1 199 199 199 255
-0.34726828 -0.15274258 -0.125 -9.15934E-16 -0 1 199 199 199 255
-0.39726818 0.15565449 -0.125 -9.15934E-16 -0 1 199 199 199 255
-0.16455387 -0.40616757 -0.125 -9.15934E-16 -0 1 199 199 199 255
-0.14384319 -0.35616767 -0.125 -9.15934E-16 -0 1 199 199 199 255
0.16455388 -0.40616757 -0.125 -9.15934E-16 -0 1 199 199 199 255
0.14384323 -0.35616767 -0.125 -9.15934E-16 -0 1 199 199 199 255
0.34726828 -0.15274258 -0.125 -9.15934E-16 -0 1 199 199 199 255
0.39726818 -0.17345326 -0.125 -9.15934E-16 -0 1 199 199 199 255
0.34726828 0.13494383 -0.125 -9.15934E-16 -0 1 199 199 199 255
-0.34726828 0.13494383 -0.125 -9.15934E-16 -0 1 199 199 199 255
-0.16455387 0.38836876 -0.125 -9.15934E-16 -0 1 199 199 199 255
-0.14384319 0.3383689 -0.125 -9.15934E-16 -0 1 199 199 199 255
0.16455388 0.38836876 -0.125 -9.15934E-16 -0 1 199 199 199 255
0.14384323 0.3383689 -0.125 -9.15934E-16 -0 1 199 199 199 255
0.39726818 0.15565449 -0.125 -9.15934E-16 -0 1 199 199 199 255
-0.14384319 -0.35616767 -0.04500001 -9.15934E-16 -1.33340596E-14 1 199 199 199 255
-0.34726828 0.13494383 -0.04500001 -9.15934E-16 -1.33340596E-14 1 199 199 199 255
-0.34726828 -0.15274258 -0.04500001 -9.15934E-16 -1.33340596E-14 1 199 199 199 255
-0.14384319 0.3383689 -0.04500001 -9.15934E-16 -1.33340596E-14 1 199 199 199 255
0.14384323 -0.35616767 -0.04500001 -9.15934E-16 -1.33340596E-14 1 199 199 199 255
0.14384323 0.3383689 -0.04500001 -9.15934E-16 -1.33340596E-14 1 199 199 199 255
0.34726828 -0.15274258 -0.04500001 -9.15934E-16 -1.33340596E-14 1 199 199 199 255
0.34726828 0.13494383 -0.04500001 -9.15934E-16 -1.33340596E-14 1 199 199 199 255
-0.089055896 -0.2238993 0.085 0.7071067 0.7071069 7.7428335E-16 199 199 199 255
-0.21499999 -0.09795524 0.105 0.7071067 0.7071069 7.7428335E-16 199 199 199 255
-0.089055896 -0.2238993 0.105 0.7071067 0.7071069 7.7428335E-16 199 199 199 255
-0.21499999 -0.09795524 0.085 0.7071067 0.7071069 7.7428335E-16 199 199 199 255
-0.19499998 -0.08967096 0.125 0.5000001 0.5000001 -0.7071066 199 199 199 255
-0.089055896 -0.2238993 0.105 0.5000001 0.5000001 -0.7071066 199 199 199 255
-0.21499999 -0.09795524 0.105 0.5000001 0.5000001 -0.7071066 199 199 199 255
-0.08077164 -0.20389932 0.125 0.5000001 0.5000001 -0.7071066 199 199 199 255
0.089055896 -0.2238993 0.085 0 1 -0 199 199 199 255
-0.089055896 -0.2238993 0.105 0 1 -0 199 199 199 255
0.089055896 -0.2238993 0.105 0 1 -0 199 199 199 255
-0.089055896 -0.2238993 0.085 0 1 -0 199 199 199 255
-0.21499999 0.08015658 0.085 1 -0 9.15934E-16 199 199 199 255
-0.21499999 -0.09795524 0.105 1 -0 9.15934E-16 199 199 199 255
-0.21499999 -0.09795524 0.085 1 -0 9.15934E-16 199 199 199 255
-0.21499999 0.08015658 0.105 1 -0 9.15934E-16 199 199 199 255
-0.19499998 0.07187232 0.125 0.70710677 6.736916E-24 -0.70710677 199 199 199 255
-0.21499999 -0.09795524 0.105 0.70710677 6.736916E-24 -0.70710677 199 199 199 255
-0.21499999 0.08015658 0.105 0.70710677 6.736916E-24 -0.70710677 199 199 199 255
-0.19499998 -0.08967096 0.125 0.70710677 6.736916E-24 -0.70710677 199 199 199 255
-0.08077164 0.18610066 0.125 9.15934E-16 -0 -1 199 199 199 255
-0.19499998 -0.08967096 0.125 9.15934E-16 -0 -1 199 199 199 255
-0.19499998 0.07187232 0.125 9.15934E-16 -0 -1 199 199 199 255
-0.08077164 -0.20389932 0.125 9.15934E-16 -0 -1 199 199 199 255
-0.0625 0.016989017 0.125 9.15934E-16 -0 -1 199 199 199 255
0.08077164 0.18610066 0.125 9.15934E-16 -0 -1 199 199 199 255
-0.025888337 0.05360068 0.125 9.15934E-16 -0 -1 199 199 199 255
0.025888337 0.05360068 0.125 9.15934E-16 -0 -1 199 199 199 255
0.0625 0.016989017 0.125 9.15934E-16 -0 -1 199 199 199 255
0.0625 -0.034787685 0.125 9.15934E-16 -0 -1 199 199 199 255
-0.0625 -0.034787685 0.125 9.15934E-16 -0 -1 199 199 199 255
0.08077164 -0.20389932 0.125 9.15934E-16 -0 -1 199 199 199 255
-0.025888337 -0.07139932 0.125 9.15934E-16 -0 -1 199 199 199 255
0.025888337 -0.07139932 0.125 9.15934E-16 -0 -1 199 199 199 255
0.19499998 0.07187232 0.125 9.15934E-16 -0 -1 199 199 199 255
0.19499998 -0.08967096 0.125 9.15934E-16 -0 -1 199 199 199 255
0.089055896 -0.2238993 0.105 6.441695E-16 0.7071072 -0.7071063 199 199 199 255
-0.08077164 -0.20389932 0.125 6.441695E-16 0.7071072 -0.7071063 199 199 199 255
0.08077164 -0.20389932 0.125 6.441695E-16 0.7071072 -0.7071063 199 199 199 255
-0.089055896 -0.2238993 0.105 6.441695E-16 0.7071072 -0.7071063 199 199 199 255
0.21499999 -0.09795524 0.085 -0.7071067 0.7071069 -5.210427E-16 199 199 199 255
0.089055896 -0.2238993 0.105 -0.7071067 0.7071069 -5.210427E-16 199 199 199 255
0.21499999 -0.09795524 0.105 -0.7071067 0.7071069 -5.210427E-16 199 199 199 255
0.089055896 -0.2238993 0.085 -0.7071067 0.7071069 -5.210427E-16 199 199 199 255
-0.089055896 0.20610066 0.085 0.70710677 -0.70710677 6.476631E-16 199 199 199 255
-0.21499999 0.08015658 0.105 0.70710677 -0.70710677 6.476631E-16 199 199 199 255
-0.21499999 0.08015658 0.085 0.70710677 -0.70710677 6.476631E-16 199 199 199 255
-0.089055896 0.20610066 0.105 0.70710677 -0.70710677 6.476631E-16 199 199 199 255
-0.089055896 0.20610066 0.105 0.5000001 -0.5000001 -0.7071066 199 199 199 255
-0.19499998 0.07187232 0.125 0.5000001 -0.5000001 -0.7071066 199 199 199 255
-0.21499999 0.08015658 0.105 0.5000001 -0.5000001 -0.7071066 199 199 199 255
-0.08077164 0.18610066 0.125 0.5000001 -0.5000001 -0.7071066 199 199 199 255
0.19499998 -0.08967096 0.125 -0.5000001 0.5000001 -0.7071066 199 199 199 255
0.089055896 -0.2238993 0.105 -0.5000001 0.5000001 -0.7071066 199 199 199 255
0.08077164 -0.20389932 0.125 -0.5000001 0.5000001 -0.7071066 199 199 199 255
0.21499999 -0.09795524 0.105 -0.5000001 0.5000001 -0.7071066 199 199 199 255
-0.089055896 0.20610066 0.105 6.476631E-16 -0.70710677 -0.70710677 199 199 199 255
0.08077164 0.18610066 0.125 6.476631E-16 -0.70710677 -0.70710677 199 199 199 255
-0.08077164 0.18610066 0.125 6.476631E-16 -0.70710677 -0.70710677 199 199 199 255
0.089055896 0.20610066 0.105 6.476631E-16 -0.70710677 -0.70710677 199 199 199 255
0.089055896 0.20610066 0.105 -0.5000001 -0.5000001 -0.7071066 199 199 199 255
0.19499998 0.07187232 0.125 -0.5000001 -0.5000001 -0.7071066 199 199 199 255
0.08077164 0.18610066 0.125 -0.5000001 -0.5000001 -0.7071066 199 199 199 255
0.21499999 0.08015658 0.105 -0.5000001 -0.5000001 -0.7071066 199 199 199 255
0.21499999 0.08015658 0.105 -0.70710677 7.859735E-24 -0.70710677 199 199 199 255
0.19499998 -0.08967096 0.125 -0.70710677 7.859735E-24 -0.70710677 199 199 199 255
0.19499998 0.07187232 0.125 -0.70710677 7.859735E-24 -0.70710677 199 199 199 255
0.21499999 -0.09795524 0.105 -0.70710677 7.859735E-24 -0.70710677 199 199 199 255
0.21499999 0.08015658 0.105 -1 -0 -9.15934E-16 199 199 199 255
0.21499999 -0.09795524 0.085 -1 -0 -9.15934E-16 199 199 199 255
0.21499999 -0.09795524 0.105 -1 -0 -9.15934E-16 199 199 199 255
0.21499999 0.08015658 0.085 -1 -0 -9.15934E-16 199 199 199 255
-0.089055896 0.20610066 0.085 0 -1 -0 199 199 199 255
0.089055896 0.20610066 0.105 0 -1 -0 199 199 199 255
-0.089055896 0.20610066 0.105 0 -1 -0 199 199 199 255
0.089055896 0.20610066 0.085 0 -1 -0 199 199 199 255
0.089055896 0.20610066 0.105 -0.70710677 -0.70710677 -6.476631E-16 199 199 199 255
0.21499999 0.08015658 0.085 -0.70710677 -0.70710677 -6.476631E-16 199 199 199 255
0.21499999 0.08015658 0.105 -0.70710677 -0.70710677 -6.476631E-16 199 199 199 255
0.089055896 0.20610066 0.085 -0.70710677 -0.70710677 -6.476631E-16 199 199 199 255
-0.5850001 0.2423149 -0.098000005 0.50000066 -0.50000066 0.70710593 84 84 84 255
-0.2588834 0.625 -0.058000006 0.50000066 -0.50000066 0.70710593 84 84 84 255
-0.625 0.2588834 -0.058000006 0.50000066 -0.50000066 0.70710593 84 84 84 255
-0.2423149 0.5850001 -0.098000005 0.50000066 -0.50000066 0.70710593 84 84 84 255
-0.5850001 -0.2423149 -0.098000005 0.7071074 -6.439795E-33 0.70710605 84 84 84 255
-0.625 0.2588834 -0.058000006 0.7071074 -6.439795E-33 0.70710605 84 84 84 255
-0.625 -0.2588834 -0.058000006 0.7071074 -6.439795E-33 0.70710605 84 84 84 255
-0.5850001 0.2423149 -0.098000005 0.7071074 -6.439795E-33 0.70710605 84 84 84 255
-0.2423149 -0.5850001 -0.098000005 -9.15934E-16 -0 1 84 84 84 255
-0.5850001 0.2423149 -0.098000005 -9.15934E-16 -0 1 84 84 84 255
-0.5850001 -0.2423149 -0.098000005 -9.15934E-16 -0 1 84 84 84 255
-0.39726818 -0.17345318 -0.098000005 -9.15934E-16 -0 1 84 84 84 255
-0.16455387 -0.40616757 -0.098000005 -9.15934E-16 -0 1 84 84 84 255
0.2423149 -0.5850001 -0.098000005 -9.15934E-16 -0 1 84 84 84 255
0.16455387 -0.40616757 -0.098000005 -9.15934E-16 -0 1 84 84 84 255
0.39726818 -0.17345318 -0.098000005 -9.15934E-16 -0 1 84 84 84 255
0.5850001 -0.2423149 -0.098000005 -9.15934E-16 -0 1 84 84 84 255
0.39726818 0.15565453 -0.098000005 -9.15934E-16 -0 1 84 84 84 255
-0.39726818 0.15565453 -0.098000005 -9.15934E-16 -0 1 84 84 84 255
-0.2423149 0.5850001 -0.098000005 -9.15934E-16 -0 1 84 84 84 255
-0.16455387 0.38836876 -0.098000005 -9.15934E-16 -0 1 84 84 84 255
0.2423149 0.5850001 -0.098000005 -9.15934E-16 -0 1 84 84 84 255
0.16455387 0.38836876 -0.098000005 -9.15934E-16 -0 1 84 84 84 255
0.5850001 0.2423149 -0.098000005 -9.15934E-16 -0 1 84 84 84 255
-0.2423149 0.5850001 -0.098000005 -6.4766246E-16 -0.7071074 0.70710605 84 84 84 255
0.2588834 0.625 -0.058000006 -6.4766246E-16 -0.7071074 0.70710605 84 84 84 255
-0.2588834 0.625 -0.058000006 -6.4766246E-16 -0.7071074 0.70710605 84 84 84 255
0.2423149 0.5850001 -0.098000005 -6.4766246E-16 -0.7071074 0.70710605 84 84 84 255
-0.2588834 0.625 -0.058000006 0.70710677 -0.70710677 6.476631E-16 84 84 84 255
-0.625 0.2588834 0.04500001 0.70710677 -0.70710677 6.476631E-16 84 84 84 255
-0.625 0.2588834 -0.058000006 0.70710677 -0.70710677 6.476631E-16 84 84 84 255
-0.2588834 0.625 0.04500001 0.70710677 -0.70710677 6.476631E-16 84 84 84 255
-0.2588834 -0.625 -0.058000006 0.50000066 0.50000066 0.70710593 84 84 84 255
-0.5850001 -0.2423149 -0.098000005 0.50000066 0.50000066 0.70710593 84 84 84 255
-0.625 -0.2588834 -0.058000006 0.50000066 0.50000066 0.70710593 84 84 84 255
-0.2423149 -0.5850001 -0.098000005 0.50000066 0.50000066 0.70710593 84 84 84 255
-0.625 0.2588834 -0.058000006 1 -0 9.15934E-16 84 84 84 255
-0.625 -0.2588834 0.04500001 1 -0 9.15934E-16 84 84 84 255
-0.625 -0.2588834 -0.058000006 1 -0 9.15934E-16 84 84 84 255
-0.625 0.2588834 0.04500001 1 -0 9.15934E-16 84 84 84 255
0.625 0.2588834 -0.058000006 -0.7071074 6.439795E-33 0.70710605 84 84 84 255
0.5850001 -0.2423149 -0.098000005 -0.7071074 6.439795E-33 0.70710605 84 84 84 255
0.625 -0.2588834 -0.058000006 -0.7071074 6.439795E-33 0.70710605 84 84 84 255
0.5850001 0.2423149 -0.098000005 -0.7071074 6.439795E-33 0.70710605 84 84 84 255
0.5850001 0.2423149 -0.098000005 -0.50000066 -0.50000066 0.70710593 84 84 84 255
0.2588834 0.625 -0.058000006 -0.50000066 -0.50000066 0.70710593 84 84 84 255
0.2423149 0.5850001 -0.098000005 -0.50000066 -0.50000066 0.70710593 84 84 84 255
0.625 0.2588834 -0.058000006 -0.50000066 -0.50000066 0.70710593 84 84 84 255
0.2423149 -0.5850001 -0.098000005 -6.4766246E-16 0.7071074 0.70710605 84 84 84 255
-0.2588834 -0.625 -0.058000006 -6.4766246E-16 0.7071074 0.70710605 84 84 84 255
0.2588834 -0.625 -0.058000006 -6.4766246E-16 0.7071074 0.70710605 84 84 84 255
-0.2423149 -0.5850001 -0.098000005 -6.4766246E-16 0.7071074 0.70710605 84 84 84 255
0.2588834 -0.625 -0.058000006 -0.50000066 0.50000066 0.70710593 84 84 84 255
0.5850001 -0.2423149 -0.098000005 -0.50000066 0.50000066 0.70710593 84 84 84 255
0.2423149 -0.5850001 -0.098000005 -0.50000066 0.50000066 0.70710593 84 84 84 255
0.625 -0.2588834 -0.058000006 -0.50000066 0.50000066 0.70710593 84 84 84 255
-0.2588834 0.625 -0.058000006 0 -1 -0 84 84 84 255
0.2588834 0.625 0.04500001 0 -1 -0 84 84 84 255
-0.2588834 0.625 0.04500001 0 -1 -0 84 84 84 255
0.2588834 0.625 -0.058000006 0 -1 -0 84 84 84 255
-0.2588834 0.625 0.04500001 0.50000066 -0.50000066 -0.70710593 84 84 84 255
-0.5850001 0.2423149 0.085 0.50000066 -0.50000066 -0.70710593 84 84 84 255
-0.625 0.2588834 0.04500001 0.50000066 -0.50000066 -0.70710593 84 84 84 255
-0.2423149 0.5850001 0.085 0.50000066 -0.50000066 -0.70710593 84 84 84 255
-0.625 -0.2588834 -0.058000006 0.70710677 0.70710677 6.476631E-16 84 84 84 255
-0.2588834 -0.625 0.04500001 0.70710677 0.70710677 6.476631E-16 84 84 84 255
-0.2588834 -0.625 -0.058000006 0.70710677 0.70710677 6.476631E-16 84 84 84 255
-0.625 -0.2588834 0.04500001 0.70710677 0.70710677 6.476631E-16 84 84 84 255
-0.625 0.2588834 0.04500001 0.7071074 -0 -0.70710605 84 84 84 255
-0.5850001 -0.2423149 0.085 0.7071074 -0 -0.70710605 84 84 84 255
-0.625 -0.2588834 0.04500001 0.7071074 -0 -0.70710605 84 84 84 255
-0.5850001 0.2423149 0.085 0.7071074 -0 -0.70710605 84 84 84 255
0.625 0.2588834 0.04500001 -1 -0 -9.15934E-16 84 84 84 255
0.625 -0.2588834 -0.058000006 -1 -0 -9.15934E-16 84 84 84 255
0.625 -0.2588834 0.04500001 -1 -0 -9.15934E-16 84 84 84 255
0.625 0.2588834 -0.058000006 -1 -0 -9.15934E-16 84 84 84 255
0.2588834 0.625 0.04500001 -0.70710677 -0.70710677 -6.476631E-16 84 84 84 255
0.625 0.2588834 -0.058000006 -0.70710677 -0.70710677 -6.476631E-16 84 84 84 255
0.625 0.2588834 0.04500001 -0.70710677 -0.70710677 -6.476631E-16 84 84 84 255
0.2588834 0.625 -0.058000006 -0.70710677 -0.70710677 -6.476631E-16 84 84 84 255
0.2588834 -0.625 -0.058000006 0 1 -0 84 84 84 255
-0.2588834 -0.625 0.04500001 0 1 -0 84 84 84 255
0.2588834 -0.625 0.04500001 0 1 -0 84 84 84 255
-0.2588834 -0.625 -0.058000006 0 1 -0 84 84 84 255
0.625 -0.2588834 0.04500001 -0.70710677 0.70710677 -6.476631E-16 84 84 84 255
0.2588834 -0.625 -0.058000006 -0.70710677 0.70710677 -6.476631E-16 84 84 84 255
0.2588834 -0.625 0.04500001 -0.70710677 0.70710677 -6.476631E-16 84 84 84 255
0.625 -0.2588834 -0.058000006 -0.70710677 0.70710677 -6.476631E-16 84 84 84 255
-0.2588834 0.625 0.04500001 6.4766246E-16 -0.7071074 -0.70710605 84 84 84 255
0.2423149 0.5850001 0.085 6.4766246E-16 -0.7071074 -0.70710605 84 84 84 255
-0.2423149 0.5850001 0.085 6.4766246E-16 -0.7071074 -0.70710605 84 84 84 255
0.2588834 0.625 0.04500001 6.4766246E-16 -0.7071074 -0.70710605 84 84 84 255
-0.14101185 -0.2620391 0.085 9.15934E-16 -0 -1 84 84 84 255
-0.18084821 -0.515 0.085 9.15934E-16 -0 -1 84 84 84 255
-0.23628096 -0.49203885 0.085 9.15934E-16 -0 -1 84 84 84 255
-0.0855791 -0.28499994 0.085 9.15934E-16 -0 -1 84 84 84 255
-0.089055896 -0.2238993 0.085 9.15934E-16 -0 -1 84 84 84 255
0.089055896 -0.2238993 0.085 9.15934E-16 -0 -1 84 84 84 255
0.0855791 -0.28499994 0.085 9.15934E-16 -0 -1 84 84 84 255
0.18084821 -0.515 0.085 9.15934E-16 -0 -1 84 84 84 255
0.14101185 -0.2620391 0.085 9.15934E-16 -0 -1 84 84 84 255
0.23628096 -0.49203885 0.085 9.15934E-16 -0 -1 84 84 84 255
0.14101185 0.2620391 0.085 9.15934E-16 -0 -1 84 84 84 255
0.21499999 0.08015658 0.085 9.15934E-16 -0 -1 84 84 84 255
0.089055896 0.20610066 0.085 9.15934E-16 -0 -1 84 84 84 255
0.2620391 0.14101185 0.085 9.15934E-16 -0 -1 84 84 84 255
0.21499999 -0.09795524 0.085 9.15934E-16 -0 -1 84 84 84 255
-0.18084821 0.515 0.085 9.15934E-16 -0 -1 84 84 84 255
-0.14101185 0.2620391 0.085 9.15934E-16 -0 -1 84 84 84 255
-0.23628096 0.49203885 0.085 9.15934E-16 -0 -1 84 84 84 255
-0.0855791 0.28499994 0.085 9.15934E-16 -0 -1 84 84 84 255
-0.089055896 0.20610066 0.085 9.15934E-16 -0 -1 84 84 84 255
0.0855791 0.28499994 0.085 9.15934E-16 -0 -1 84 84 84 255
0.18084821 0.515 0.085 9.15934E-16 -0 -1 84 84 84 255
0.23628096 0.49203885 0.085 9.15934E-16 -0 -1 84 84 84 255
-0.49203885 0.23628096 0.085 9.15934E-16 -0 -1 84 84 84 255
-0.28499994 0.0855791 0.085 9.15934E-16 -0 -1 84 84 84 255
-0.515 0.18084821 0.085 9.15934E-16 -0 -1 84 84 84 255
-0.2620391 0.14101185 0.085 9.15934E-16 -0 -1 84 84 84 255
-0.28499994 -0.0855791 0.085 9.15934E-16 -0 -1 84 84 84 255
0.2620391 -0.14101185 0.085 9.15934E-16 -0 -1 84 84 84 255
0.28499994 -0.0855791 0.085 9.15934E-16 -0 -1 84 84 84 255
0.49203885 -0.23628096 0.085 9.15934E-16 -0 -1 84 84 84 255
0.28499994 0.0855791 0.085 9.15934E-16 -0 -1 84 84 84 255
0.515 -0.18084821 0.085 9.15934E-16 -0 -1 84 84 84 255
-0.5850001 0.2423149 0.085 9.15934E-16 -0 -1 84 84 84 255
-0.5850001 -0.2423149 0.085 9.15934E-16 -0 -1 84 84 84 255
-0.2423149 0.5850001 0.085 9.15934E-16 -0 -1 84 84 84 255
0.2423149 0.5850001 0.085 9.15934E-16 -0 -1 84 84 84 255
0.49203885 0.23628096 0.085 9.15934E-16 -0 -1 84 84 84 255
0.5850001 0.2423149 0.085 9.15934E-16 -0 -1 84 84 84 255
0.515 0.18084821 0.085 9.15934E-16 -0 -1 84 84 84 255
-0.49203885 -0.23628096 0.085 9.15934E-16 -0 -1 84 84 84 255
-0.2423149 -0.5850001 0.085 9.15934E-16 -0 -1 84 84 84 255
-0.515 -0.18084821 0.085 9.15934E-16 -0 -1 84 84 84 255
0.2423149 -0.5850001 0.085 9.15934E-16 -0 -1 84 84 84 255
0.5850001 -0.2423149 0.085 9.15934E-16 -0 -1 84 84 84 255
-0.2620391 -0.14101185 0.085 9.15934E-16 -0 -1 84 84 84 255
-0.21499999 -0.09795524 0.085 9.15934E-16 -0 -1 84 84 84 255
-0.21499999 0.08015658 0.085 9.15934E-16 -0 -1 84 84 84 255
-0.5850001 -0.2423149 0.085 0.50000066 0.50000066 -0.70710593 84 84 84 255
-0.2588834 -0.625 0.04500001 0.50000066 0.50000066 -0.70710593 84 84 84 255
-0.625 -0.2588834 0.04500001 0.50000066 0.50000066 -0.70710593 84 84 84 255
-0.2423149 -0.5850001 0.085 0.50000066 0.50000066 -0.70710593 84 84 84 255
0.5850001 -0.2423149 0.085 -0.7071074 -5.3664983E-33 -0.70710605 84 84 84 255
0.625 0.2588834 0.04500001 -0.7071074 -5.3664983E-33 -0.70710605 84 84 84 255
0.625 -0.2588834 0.04500001 -0.7071074 -5.3664983E-33 -0.70710605 84 84 84 255
0.5850001 0.2423149 0.085 -0.7071074 -5.3664983E-33 -0.70710605 84 84 84 255
0.2588834 0.625 0.04500001 -0.50000066 -0.50000066 -0.70710593 84 84 84 255
0.5850001 0.2423149 0.085 -0.50000066 -0.50000066 -0.70710593 84 84 84 255
0.2423149 0.5850001 0.085 -0.50000066 -0.50000066 -0.70710593 84 84 84 255
0.625 0.2588834 0.04500001 -0.50000066 -0.50000066 -0.70710593 84 84 84 255
0.2588834 -0.625 0.04500001 6.4766246E-16 0.7071074 -0.70710605 84 84 84 255
-0.2423149 -0.5850001 0.085 6.4766246E-16 0.7071074 -0.70710605 84 84 84 255
0.2423149 -0.5850001 0.085 6.4766246E-16 0.7071074 -0.70710605 84 84 84 255
-0.2588834 -0.625 0.04500001 6.4766246E-16 0.7071074 -0.70710605 84 84 84 255
0.5850001 -0.2423149 0.085 -0.50000066 0.50000066 -0.70710593 84 84 84 255
0.2588834 -0.625 0.04500001 -0.50000066 0.50000066 -0.70710593 84 84 84 255
0.2423149 -0.5850001 0.085 -0.50000066 0.50000066 -0.70710593 84 84 84 255
0.625 -0.2588834 0.04500001 -0.50000066 0.50000066 -0.70710593 84 84 84 255
3 0 1 2
3 1 0 3
3 3 0 4
3 3 4 5
3 5 4 6
3 5 6 7
3 8 9 10
3 9 8 11
3 12 13 14
3 13 12 15
3 16 17 18
3 17 16 19
3 20 21 22
3 21 20 23
3 24 25 26
3 25 24 27
3 28 29 30
3 29 28 31
3 32 33 34
3 33 32 35
3 36 37 38
3 37 36 39
3 40 41 42
3 41 40 43
3 44 45 46
3 45 44 47
3 48 49 50
3 49 48 51
3 52 53 54
3 53 52 55
3 56 57 58
3 57 56 59
3 60 61 62
3 61 60 63
3 64 65 66
3 65 64 67
3 68 69 70
3 69 68 71
3 72 73 74
3 73 72 75
3 76 77 78
3 77 76 79
3 80 81 82
3 81 80 83
3 84 85 86
3 85 84 87
3 88 89 90
3 89 88 91
3 92 93 94
3 93 92 95
3 96 97 98
3 97 96 99
3 100 101 102
3 101 100 103
3 104 105 106
3 105 104 107
3 108 109 110
3 109 108 111
3 112 113 114
3 113 112 115
3 116 117 118
3 117 116 119
3 120 121 122
3 121 120 123
3 124 125 126
3 125 124 127
3 128 129 130
3 129 128 131
3 132 133 134
3 133 132 135
3 136 137 138
3 137 136 139
3 140 141 142
3 141 140 143
3 144 145 146
3 145 144 147
3 148 149 150
3 149 148 151
3 152 153 154
3 153 152 155
3 156 157 158
3 157 156 159
3 160 161 162
3 161 160 163
3 164 165 166
3 165 164 167
3 168 169 170
3 169 168 171
3 172 173 174
3 173 172 175
3 176 177 178
3 177 176 179
3 180 181 182
3 181 180 183
3 184 185 186
3 185 184 187
3 188 189 190
3 189 188 191
3 192 193 194
3 193 192 195
3 196 197 198
3 197 196 199
3 200 201 202
3 201 200 203
3 204 205 206
3 205 204 207
3 208 209 210
3 209 208 211
3 212 213 214
3 213 212 215
3 216 217 218
3 217 216 219
3 220 221 222
3 221 220 223
3 224 225 226
3 225 224 227
3 228 229 230
3 229 228 231
3 232 233 234
3 233 232 235
3 235 232 236
3 235 236 237
3 237 236 238
3 237 238 239
3 240 241 242
3 241 240 243
3 244 245 246
3 245 244 247
3 248 249 250
3 249 248 251
3 252 253 254
3 253 252 255
3 256 257 258
3 257 256 259
3 260 261 262
3 261 260 263
3 264 265 266
3 265 264 267
3 268 269 270
3 269 268 271
3 272 273 274
3 273 272 275
3 273 275 276
3 276 275 277
3 276 277 278
3 278 277 279
3 279 277 280
3 279 280 281
3 274 282 283
3 282 274 273
3 283 282 284
3 283 284 285
3 285 284 286
3 285 286 281
3 285 281 287
3 287 281 280
3 288 289 290
3 289 288 291
3 292 293 294
3 293 292 295
3 296 297 298
3 297 296 299
3 300 301 302
3 301 300 303
3 304 305 306
3 305 304 307
3 308 309 310
3 309 308 311
3 312 313 314
3 313 312 315
3 316 317 318
3 317 316 319
3 320 321 322
3 321 320 323
3 321 323 324
3 324 323 325
3 324 325 326
3 326 325 327
3 327 325 328
3 327 328 329
3 322 330 331
3 330 322 321
3 331 330 332
3 331 332 333
3 333 332 334
3 333 334 329
3 333 329 335
3 335 329 328
3 336 337 338
3 337 336 339
3 339 336 340
3 339 340 341
3 341 340 342
3 341 342 343
3 344 345 346
3 345 344 347
3 348 349 350
3 349 348 351
3 352 353 354
3 353 352 355
3 356 357 358
3 357 356 359
3 360 361 362
3 361 360 363
3 364 365 366
3 365 364 367
3 367 364 368
3 368 364 369
3 368 369 370
3 370 369 371
3 371 369 372
3 372 369 373
3 367 374 375
3 374 367 368
3 375 374 376
3 375 376 377
3 375 377 373
3 375 373 369
3 375 369 378
3 375 378 379
3 380 381 382
3 381 380 383
3 384 385 386
3 385 384 387
3 388 389 390
3 389 388 391
3 392 393 394
3 393 392 395
3 396 397 398
3 397 396 399
3 400 401 402
3 401 400 403
3 404 405 406
3 405 404 407
3 408 409 410
3 409 408 411
3 412 413 414
3 413 412 415
3 416 417 418
3 417 416 419
3 420 421 422
3 421 420 423
3 424 425 426
3 425 424 427
3 428 429 430
3 429 428 431
3 432 433 434
3 433 432 435
3 435 432 436
3 436 432 437
3 436 437 438
3 438 437 439
3 439 437 440
3 439 440 441
3 433 442 443
3 442 433 435
3 443 442 444
3 443 444 445
3 445 444 446
3 445 446 441
3 445 441 447
3 447 441 440
3 448 449 450
3 449 448 451
3 452 453 454
3 453 452 455
3 456 457 458
3 457 456 459
3 460 461 462
3 461 460 463
3 464 465 466
3 465 464 467
3 468 469 470
3 469 468 471
3 472 473 474
3 473 472 475
3 476 477 478
3 477 476 479
3 480 481 482
3 481 480 483
3 484 485 486
3 485 484 487
3 488 489 490
3 489 488 491
3 492 493 494
3 493 492 495
3 496 497 498
3 497 496 499
3 500 501 502
3 501 500 503
3 504 505 506
3 505 504 507
3 508 509 510
3 509 508 511
3 512 513 514
3 513 512 515
3 516 517 518
3 517 516 519
3 519 516 520
3 519 520 521
3 519 521 522
3 522 521 523
3 523 521 524
3 523 524 525
3 526 527 528
3 527 526 529
3 527 529 530
3 531 532 533
3 532 531 534
3 532 534 535
3 535 534 528
3 528 534 536
3 528 536 537
3 528 537 526
3 526 537 538
3 539 540 541
3 540 539 542
3 540 542 543
3 544 545 546
3 545 544 547
3 546 545 548
3 549 541 550
3 541 549 539
3 539 549 551
3 539 551 533
3 533 551 531
3 531 551 552
3 531 552 537
3 537 552 538
3 538 552 553
3 553 552 554
3 553 554 555
3 555 554 548
3 550 556 557
3 556 550 558
3 558 550 541
3 557 556 518
3 557 518 517
3 557 517 559
3 559 517 523
3 559 523 525
3 559 525 546
3 559 546 560
3 560 546 548
3 560 548 554
3 530 524 521
3 524 530 544
3 544 530 529
3 544 529 547
3 547 529 553
3 547 553 555
3 561 562 516
3 562 561 563
3 516 562 520
3 543 556 558
3 556 543 561
3 561 543 542
3 561 542 563
3 563 542 532
3 563 532 535
3 564 565 566
3 565 564 567
3 568 569 570
3 569 568 571
3 572 573 574
3 573 572 575
3 576 577 578
3 577 576 579
3 580 581 582
3 581 580 583

