ply
format ascii 1.0
commentY29udmVydGVyIGJ5IENvZGVMZW9wYXJk
comment Original mesh name: 'C:\Program Files (x86)\Steam\steamapps\common\Stormworks\rom\meshes\modular_engine_exhaust_manifold_straight.mesh'
comment SubMesh index: 0
comment SubMesh name: 'ID117'
comment Shader: Opaque (0)
element vertex 355
property float x
property float y
property float z
property float nx
property float ny
property float nz
property uchar red
property uchar green
property uchar blue
property uchar alpha
element face 247
property list uchar ushort vertex_index
end_header
0.021746207 -0.05249999 -0.107170016 -1.833899E-16 -1.433811E-14 -1 255 255 255 255
0.05249999 0.021746213 -0.107170016 -1.833899E-16 -1.433811E-14 -1 255 255 255 255
0.05249999 -0.021746207 -0.107170016 -1.833899E-16 -1.433811E-14 -1 255 255 255 255
0.021746207 0.052499987 -0.107170016 -1.833899E-16 -1.433811E-14 -1 255 255 255 255
-0.021746213 -0.05249999 -0.107170016 -1.833899E-16 -1.433811E-14 -1 255 255 255 255
-0.021746213 0.052499987 -0.107170016 -1.833899E-16 -1.433811E-14 -1 255 255 255 255
-0.052499987 -0.021746207 -0.107170016 -1.833899E-16 -1.433811E-14 -1 255 255 255 255
-0.052499987 0.021746213 -0.107170016 -1.833899E-16 -1.433811E-14 -1 255 255 255 255
-0.057928927 0.052928925 -0.125 -3.211709E-14 1.319255E-14 1 84 84 84 255
-0.047928933 0.052928925 -0.125 -3.211709E-14 1.319255E-14 1 84 84 84 255
-0.052928925 0.057928927 -0.125 -3.211709E-14 1.319255E-14 1 84 84 84 255
-0.052928925 0.047928933 -0.125 -3.211709E-14 1.319255E-14 1 84 84 84 255
0.04792894 0.052928925 -0.125 -3.211709E-14 1.319255E-14 1 84 84 84 255
0.057928946 0.052928925 -0.125 -3.211709E-14 1.319255E-14 1 84 84 84 255
0.052928932 0.057928927 -0.125 -3.211709E-14 1.319255E-14 1 84 84 84 255
0.052928932 0.047928933 -0.125 -3.211709E-14 1.319255E-14 1 84 84 84 255
-0.057928927 -0.052928932 -0.125 -3.211709E-14 1.319255E-14 1 84 84 84 255
-0.047928933 -0.052928932 -0.125 -3.211709E-14 1.319255E-14 1 84 84 84 255
-0.052928925 -0.04792894 -0.125 -3.211709E-14 1.319255E-14 1 84 84 84 255
-0.052928925 -0.057928946 -0.125 -3.211709E-14 1.319255E-14 1 84 84 84 255
0.044999987 0.074999996 -0.125 -2.0673687E-14 -1 1.17691205E-14 84 84 84 255
-0.045000006 0.074999996 -0.10717002 -2.0673687E-14 -1 1.17691205E-14 84 84 84 255
-0.045000006 0.074999996 -0.125 -2.0673687E-14 -1 1.17691205E-14 84 84 84 255
0.044999987 0.074999996 -0.10717002 -2.0673687E-14 -1 1.17691205E-14 84 84 84 255
0.074999996 0.045000006 -0.125 -0.7071065 -0.7071071 -1.3819777E-14 84 84 84 255
0.044999987 0.074999996 -0.10717002 -0.7071065 -0.7071071 -1.3819777E-14 84 84 84 255
0.044999987 0.074999996 -0.125 -0.7071065 -0.7071071 -1.3819777E-14 84 84 84 255
0.074999996 0.045000006 -0.10717002 -0.7071065 -0.7071071 -1.3819777E-14 84 84 84 255
-0.074999996 0.045000006 -0.125 0.70710677 -0.70710677 3.1481145E-14 84 84 84 255
-0.045000006 0.074999996 -0.10717002 0.70710677 -0.70710677 3.1481145E-14 84 84 84 255
-0.074999996 0.045000006 -0.10717002 0.70710677 -0.70710677 3.1481145E-14 84 84 84 255
-0.045000006 0.074999996 -0.125 0.70710677 -0.70710677 3.1481145E-14 84 84 84 255
0.074999996 0.045000006 -0.125 -1 2.070502E-14 -3.211709E-14 84 84 84 255
0.074999996 -0.044999987 -0.10717002 -1 2.070502E-14 -3.211709E-14 84 84 84 255
0.074999996 0.045000006 -0.10717002 -1 2.070502E-14 -3.211709E-14 84 84 84 255
0.074999996 -0.044999987 -0.125 -1 2.070502E-14 -3.211709E-14 84 84 84 255
-0.074999996 -0.044999987 -0.125 1 -2.070502E-14 3.211709E-14 84 84 84 255
-0.074999996 0.045000006 -0.10717002 1 -2.070502E-14 3.211709E-14 84 84 84 255
-0.074999996 -0.044999987 -0.10717002 1 -2.070502E-14 3.211709E-14 84 84 84 255
-0.074999996 0.045000006 -0.125 1 -2.070502E-14 3.211709E-14 84 84 84 255
0.074999996 -0.044999987 -0.125 -0.70710677 0.70710677 -3.203875E-14 84 84 84 255
0.044999987 -0.074999996 -0.10717002 -0.70710677 0.70710677 -3.203875E-14 84 84 84 255
0.074999996 -0.044999987 -0.10717002 -0.70710677 0.70710677 -3.203875E-14 84 84 84 255
0.044999987 -0.074999996 -0.125 -0.70710677 0.70710677 -3.203875E-14 84 84 84 255
-0.045000006 -0.074999996 -0.125 0.7071071 0.7071065 1.33816865E-14 84 84 84 255
-0.074999996 -0.044999987 -0.10717002 0.7071071 0.7071065 1.33816865E-14 84 84 84 255
-0.045000006 -0.074999996 -0.10717002 0.7071071 0.7071065 1.33816865E-14 84 84 84 255
-0.074999996 -0.044999987 -0.125 0.7071071 0.7071065 1.33816865E-14 84 84 84 255
0.044999987 -0.074999996 -0.10717002 2.070502E-14 1 -1.319255E-14 84 84 84 255
-0.045000006 -0.074999996 -0.125 2.070502E-14 1 -1.319255E-14 84 84 84 255
-0.045000006 -0.074999996 -0.10717002 2.070502E-14 1 -1.319255E-14 84 84 84 255
0.044999987 -0.074999996 -0.125 2.070502E-14 1 -1.319255E-14 84 84 84 255
0.04792894 -0.052928932 -0.125 -3.211709E-14 1.319255E-14 1 84 84 84 255
0.057928946 -0.052928932 -0.125 -3.211709E-14 1.319255E-14 1 84 84 84 255
0.052928932 -0.04792894 -0.125 -3.211709E-14 1.319255E-14 1 84 84 84 255
0.052928932 -0.057928946 -0.125 -3.211709E-14 1.319255E-14 1 84 84 84 255
-0.009303814 0.038572636 -0.125 -3.211709E-14 1.319255E-14 1 199 199 199 255
0.021427363 0.05069618 -0.125 -3.211709E-14 1.319255E-14 1 199 199 199 255
-0.021427358 0.05069618 -0.125 -3.211709E-14 1.319255E-14 1 199 199 199 255
0.009303819 0.038572636 -0.125 -3.211709E-14 1.319255E-14 1 199 199 199 255
-0.009303814 0.021427358 -0.125 -3.211709E-14 1.319255E-14 1 199 199 199 255
0.009303819 0.021427358 -0.125 -3.211709E-14 1.319255E-14 1 199 199 199 255
-0.021427358 0.009303814 -0.125 -3.211709E-14 1.319255E-14 1 199 199 199 255
0.021427363 0.009303814 -0.125 -3.211709E-14 1.319255E-14 1 199 199 199 255
-0.009303814 -0.021427363 -0.125 -3.211709E-14 1.319255E-14 1 199 199 199 255
0.021427363 -0.009303819 -0.125 -3.211709E-14 1.319255E-14 1 199 199 199 255
-0.021427358 -0.009303819 -0.125 -3.211709E-14 1.319255E-14 1 199 199 199 255
0.009303819 -0.021427363 -0.125 -3.211709E-14 1.319255E-14 1 199 199 199 255
-0.009303814 -0.03857264 -0.125 -3.211709E-14 1.319255E-14 1 199 199 199 255
0.009303819 -0.03857264 -0.125 -3.211709E-14 1.319255E-14 1 199 199 199 255
-0.021427358 -0.05069619 -0.125 -3.211709E-14 1.319255E-14 1 199 199 199 255
0.021427363 -0.05069619 -0.125 -3.211709E-14 1.319255E-14 1 199 199 199 255
-0.047928933 0.052928925 -0.125 -3.211709E-14 1.319255E-14 1 199 199 199 255
0.052928932 0.057928927 -0.125 -3.211709E-14 1.319255E-14 1 199 199 199 255
-0.052928925 0.057928927 -0.125 -3.211709E-14 1.319255E-14 1 199 199 199 255
0.04792894 0.052928925 -0.125 -3.211709E-14 1.319255E-14 1 199 199 199 255
-0.038572636 0.05069618 -0.125 -3.211709E-14 1.319255E-14 1 199 199 199 255
-0.052928925 0.047928933 -0.125 -3.211709E-14 1.319255E-14 1 199 199 199 255
-0.05069618 0.038572636 -0.125 -3.211709E-14 1.319255E-14 1 199 199 199 255
-0.074999996 0.045000006 -0.125 -3.211709E-14 1.319255E-14 1 199 199 199 255
-0.074999996 -0.044999987 -0.125 -3.211709E-14 1.319255E-14 1 199 199 199 255
-0.05069618 0.021427358 -0.125 -3.211709E-14 1.319255E-14 1 199 199 199 255
-0.038572636 0.009303814 -0.125 -3.211709E-14 1.319255E-14 1 199 199 199 255
-0.021427358 0.009303814 -0.125 -3.211709E-14 1.319255E-14 1 199 199 199 255
-0.038572636 -0.009303819 -0.125 -3.211709E-14 1.319255E-14 1 199 199 199 255
0.03857264 0.009303814 -0.125 -3.211709E-14 1.319255E-14 1 199 199 199 255
-0.05069618 -0.021427363 -0.125 -3.211709E-14 1.319255E-14 1 199 199 199 255
-0.05069618 -0.03857264 -0.125 -3.211709E-14 1.319255E-14 1 199 199 199 255
-0.052928925 -0.04792894 -0.125 -3.211709E-14 1.319255E-14 1 199 199 199 255
-0.038572636 -0.05069619 -0.125 -3.211709E-14 1.319255E-14 1 199 199 199 255
-0.047928933 -0.052928932 -0.125 -3.211709E-14 1.319255E-14 1 199 199 199 255
0.03857264 -0.05069619 -0.125 -3.211709E-14 1.319255E-14 1 199 199 199 255
-0.057928927 -0.052928932 -0.125 -3.211709E-14 1.319255E-14 1 199 199 199 255
-0.045000006 -0.074999996 -0.125 -3.211709E-14 1.319255E-14 1 199 199 199 255
-0.052928925 -0.057928946 -0.125 -3.211709E-14 1.319255E-14 1 199 199 199 255
0.052928932 -0.057928946 -0.125 -3.211709E-14 1.319255E-14 1 199 199 199 255
0.074999996 -0.044999987 -0.125 -3.211709E-14 1.319255E-14 1 199 199 199 255
0.057928946 -0.052928932 -0.125 -3.211709E-14 1.319255E-14 1 199 199 199 255
0.044999987 -0.074999996 -0.125 -3.211709E-14 1.319255E-14 1 199 199 199 255
0.052928932 -0.04792894 -0.125 -3.211709E-14 1.319255E-14 1 199 199 199 255
0.03857264 0.05069618 -0.125 -3.211709E-14 1.319255E-14 1 199 199 199 255
0.052928932 0.047928933 -0.125 -3.211709E-14 1.319255E-14 1 199 199 199 255
0.021427363 0.05069618 -0.125 -3.211709E-14 1.319255E-14 1 199 199 199 255
0.05069619 0.038572636 -0.125 -3.211709E-14 1.319255E-14 1 199 199 199 255
0.074999996 0.045000006 -0.125 -3.211709E-14 1.319255E-14 1 199 199 199 255
0.05069619 0.021427358 -0.125 -3.211709E-14 1.319255E-14 1 199 199 199 255
0.03857264 -0.009303819 -0.125 -3.211709E-14 1.319255E-14 1 199 199 199 255
0.021427363 -0.009303819 -0.125 -3.211709E-14 1.319255E-14 1 199 199 199 255
0.05069619 -0.021427363 -0.125 -3.211709E-14 1.319255E-14 1 199 199 199 255
0.05069619 -0.03857264 -0.125 -3.211709E-14 1.319255E-14 1 199 199 199 255
0.04792894 -0.052928932 -0.125 -3.211709E-14 1.319255E-14 1 199 199 199 255
-0.045000006 0.074999996 -0.125 -3.211709E-14 1.319255E-14 1 199 199 199 255
0.044999987 0.074999996 -0.125 -3.211709E-14 1.319255E-14 1 199 199 199 255
-0.057928927 0.052928925 -0.125 -3.211709E-14 1.319255E-14 1 199 199 199 255
0.057928946 0.052928925 -0.125 -3.211709E-14 1.319255E-14 1 199 199 199 255
-0.05069618 -0.021427363 -0.115 -3.0801293E-14 1.1876753E-14 1 84 84 84 255
-0.021427358 -0.009303819 -0.115 -3.0801293E-14 1.1876753E-14 1 84 84 84 255
-0.038572636 -0.009303819 -0.115 -3.0801293E-14 1.1876753E-14 1 84 84 84 255
-0.009303814 -0.021427363 -0.115 -3.0801293E-14 1.1876753E-14 1 84 84 84 255
-0.05069618 -0.03857264 -0.115 -3.0801293E-14 1.1876753E-14 1 84 84 84 255
-0.009303814 -0.03857264 -0.115 -3.0801293E-14 1.1876753E-14 1 84 84 84 255
-0.038572636 -0.05069619 -0.115 -3.0801293E-14 1.1876753E-14 1 84 84 84 255
-0.021427358 -0.05069619 -0.115 -3.0801293E-14 1.1876753E-14 1 84 84 84 255
-0.05069618 -0.03857264 -0.125 -0.7071069 -0.7071066 -1.3381679E-14 84 84 84 255
-0.038572636 -0.05069619 -0.115 -0.7071069 -0.7071066 -1.3381679E-14 84 84 84 255
-0.05069618 -0.03857264 -0.115 -0.7071069 -0.7071066 -1.3381679E-14 84 84 84 255
-0.038572636 -0.05069619 -0.125 -0.7071069 -0.7071066 -1.3381679E-14 84 84 84 255
-0.021427358 -0.05069619 -0.125 -2.070502E-14 -1 1.319255E-14 84 84 84 255
-0.038572636 -0.05069619 -0.115 -2.070502E-14 -1 1.319255E-14 84 84 84 255
-0.038572636 -0.05069619 -0.125 -2.070502E-14 -1 1.319255E-14 84 84 84 255
-0.021427358 -0.05069619 -0.115 -2.070502E-14 -1 1.319255E-14 84 84 84 255
-0.009303814 -0.03857264 -0.125 0.70710677 -0.70710677 3.203875E-14 84 84 84 255
-0.021427358 -0.05069619 -0.115 0.70710677 -0.70710677 3.203875E-14 84 84 84 255
-0.021427358 -0.05069619 -0.125 0.70710677 -0.70710677 3.203875E-14 84 84 84 255
-0.009303814 -0.03857264 -0.115 0.70710677 -0.70710677 3.203875E-14 84 84 84 255
-0.009303814 -0.03857264 -0.115 1 -2.070502E-14 3.211709E-14 84 84 84 255
-0.009303814 -0.021427363 -0.125 1 -2.070502E-14 3.211709E-14 84 84 84 255
-0.009303814 -0.021427363 -0.115 1 -2.070502E-14 3.211709E-14 84 84 84 255
-0.009303814 -0.03857264 -0.125 1 -2.070502E-14 3.211709E-14 84 84 84 255
-0.009303814 -0.021427363 -0.115 0.70710677 0.70710677 1.33816704E-14 84 84 84 255
-0.021427358 -0.009303819 -0.125 0.70710677 0.70710677 1.33816704E-14 84 84 84 255
-0.021427358 -0.009303819 -0.115 0.70710677 0.70710677 1.33816704E-14 84 84 84 255
-0.009303814 -0.021427363 -0.125 0.70710677 0.70710677 1.33816704E-14 84 84 84 255
-0.021427358 -0.009303819 -0.115 2.070502E-14 1 -1.319255E-14 84 84 84 255
-0.038572636 -0.009303819 -0.125 2.070502E-14 1 -1.319255E-14 84 84 84 255
-0.038572636 -0.009303819 -0.115 2.070502E-14 1 -1.319255E-14 84 84 84 255
-0.021427358 -0.009303819 -0.125 2.070502E-14 1 -1.319255E-14 84 84 84 255
-0.038572636 -0.009303819 -0.125 -0.7071069 0.7071066 -3.2038757E-14 84 84 84 255
-0.05069618 -0.021427363 -0.115 -0.7071069 0.7071066 -3.2038757E-14 84 84 84 255
-0.038572636 -0.009303819 -0.115 -0.7071069 0.7071066 -3.2038757E-14 84 84 84 255
-0.05069618 -0.021427363 -0.125 -0.7071069 0.7071066 -3.2038757E-14 84 84 84 255
-0.05069618 -0.021427363 -0.125 -1 2.070502E-14 -3.211709E-14 84 84 84 255
-0.05069618 -0.03857264 -0.115 -1 2.070502E-14 -3.211709E-14 84 84 84 255
-0.05069618 -0.021427363 -0.115 -1 2.070502E-14 -3.211709E-14 84 84 84 255
-0.05069618 -0.03857264 -0.125 -1 2.070502E-14 -3.211709E-14 84 84 84 255
-0.05069618 0.038572636 -0.115 -3.1346314E-14 1.133173E-14 1 84 84 84 255
-0.021427358 0.05069618 -0.115 -3.1346314E-14 1.133173E-14 1 84 84 84 255
-0.038572636 0.05069618 -0.115 -3.1346314E-14 1.133173E-14 1 84 84 84 255
-0.009303814 0.038572636 -0.115 -3.1346314E-14 1.133173E-14 1 84 84 84 255
-0.05069618 0.021427358 -0.115 -3.1346314E-14 1.133173E-14 1 84 84 84 255
-0.009303814 0.021427358 -0.115 -3.1346314E-14 1.133173E-14 1 84 84 84 255
-0.038572636 0.009303814 -0.115 -3.1346314E-14 1.133173E-14 1 84 84 84 255
-0.021427358 0.009303814 -0.115 -3.1346314E-14 1.133173E-14 1 84 84 84 255
-0.05069618 0.021427358 -0.125 -0.7071069 -0.7071066 -1.3413333E-14 84 84 84 255
-0.038572636 0.009303814 -0.115 -0.7071069 -0.7071066 -1.3413333E-14 84 84 84 255
-0.05069618 0.021427358 -0.115 -0.7071069 -0.7071066 -1.3413333E-14 84 84 84 255
-0.038572636 0.009303814 -0.125 -0.7071069 -0.7071066 -1.3413333E-14 84 84 84 255
-0.021427358 0.009303814 -0.125 -2.070502E-14 -1 1.319255E-14 84 84 84 255
-0.038572636 0.009303814 -0.115 -2.070502E-14 -1 1.319255E-14 84 84 84 255
-0.038572636 0.009303814 -0.125 -2.070502E-14 -1 1.319255E-14 84 84 84 255
-0.021427358 0.009303814 -0.115 -2.070502E-14 -1 1.319255E-14 84 84 84 255
-0.009303814 0.021427358 -0.125 0.70710677 -0.70710677 3.203875E-14 84 84 84 255
-0.021427358 0.009303814 -0.115 0.70710677 -0.70710677 3.203875E-14 84 84 84 255
-0.021427358 0.009303814 -0.125 0.70710677 -0.70710677 3.203875E-14 84 84 84 255
-0.009303814 0.021427358 -0.115 0.70710677 -0.70710677 3.203875E-14 84 84 84 255
-0.009303814 0.021427358 -0.125 1 -2.070502E-14 3.211709E-14 84 84 84 255
-0.009303814 0.038572636 -0.115 1 -2.070502E-14 3.211709E-14 84 84 84 255
-0.009303814 0.021427358 -0.115 1 -2.070502E-14 3.211709E-14 84 84 84 255
-0.009303814 0.038572636 -0.125 1 -2.070502E-14 3.211709E-14 84 84 84 255
-0.009303814 0.038572636 -0.115 0.7071066 0.7071069 1.341332E-14 84 84 84 255
-0.021427358 0.05069618 -0.125 0.7071066 0.7071069 1.341332E-14 84 84 84 255
-0.021427358 0.05069618 -0.115 0.7071066 0.7071069 1.341332E-14 84 84 84 255
-0.009303814 0.038572636 -0.125 0.7071066 0.7071069 1.341332E-14 84 84 84 255
-0.021427358 0.05069618 -0.115 2.070502E-14 1 -1.319255E-14 84 84 84 255
-0.038572636 0.05069618 -0.125 2.070502E-14 1 -1.319255E-14 84 84 84 255
-0.038572636 0.05069618 -0.115 2.070502E-14 1 -1.319255E-14 84 84 84 255
-0.021427358 0.05069618 -0.125 2.070502E-14 1 -1.319255E-14 84 84 84 255
-0.038572636 0.05069618 -0.115 -0.70710677 0.70710677 -3.203875E-14 84 84 84 255
-0.05069618 0.038572636 -0.125 -0.70710677 0.70710677 -3.203875E-14 84 84 84 255
-0.05069618 0.038572636 -0.115 -0.70710677 0.70710677 -3.203875E-14 84 84 84 255
-0.038572636 0.05069618 -0.125 -0.70710677 0.70710677 -3.203875E-14 84 84 84 255
-0.05069618 0.038572636 -0.125 -1 2.070502E-14 -3.211709E-14 84 84 84 255
-0.05069618 0.021427358 -0.115 -1 2.070502E-14 -3.211709E-14 84 84 84 255
-0.05069618 0.038572636 -0.115 -1 2.070502E-14 -3.211709E-14 84 84 84 255
-0.05069618 0.021427358 -0.125 -1 2.070502E-14 -3.211709E-14 84 84 84 255
0.009303819 0.038572636 -0.115 -3.1186682E-14 1.2807162E-14 1 84 84 84 255
0.03857264 0.05069618 -0.115 -3.1186682E-14 1.2807162E-14 1 84 84 84 255
0.021427363 0.05069618 -0.115 -3.1186682E-14 1.2807162E-14 1 84 84 84 255
0.05069619 0.038572636 -0.115 -3.1186682E-14 1.2807162E-14 1 84 84 84 255
0.009303819 0.021427358 -0.115 -3.1186682E-14 1.2807162E-14 1 84 84 84 255
0.05069619 0.021427358 -0.115 -3.1186682E-14 1.2807162E-14 1 84 84 84 255
0.021427363 0.009303814 -0.115 -3.1186682E-14 1.2807162E-14 1 84 84 84 255
0.03857264 0.009303814 -0.115 -3.1186682E-14 1.2807162E-14 1 84 84 84 255
0.021427363 0.009303814 -0.125 -0.70710677 -0.70710677 -1.33816704E-14 84 84 84 255
0.009303819 0.021427358 -0.115 -0.70710677 -0.70710677 -1.33816704E-14 84 84 84 255
0.009303819 0.021427358 -0.125 -0.70710677 -0.70710677 -1.33816704E-14 84 84 84 255
0.021427363 0.009303814 -0.115 -0.70710677 -0.70710677 -1.33816704E-14 84 84 84 255
0.03857264 0.009303814 -0.125 -2.070502E-14 -1 1.319255E-14 84 84 84 255
0.021427363 0.009303814 -0.115 -2.070502E-14 -1 1.319255E-14 84 84 84 255
0.021427363 0.009303814 -0.125 -2.070502E-14 -1 1.319255E-14 84 84 84 255
0.03857264 0.009303814 -0.115 -2.070502E-14 -1 1.319255E-14 84 84 84 255
0.03857264 0.009303814 -0.125 0.70710677 -0.70710677 3.203875E-14 84 84 84 255
0.05069619 0.021427358 -0.115 0.70710677 -0.70710677 3.203875E-14 84 84 84 255
0.03857264 0.009303814 -0.115 0.70710677 -0.70710677 3.203875E-14 84 84 84 255
0.05069619 0.021427358 -0.125 0.70710677 -0.70710677 3.203875E-14 84 84 84 255
0.05069619 0.021427358 -0.115 1 -2.070502E-14 3.211709E-14 84 84 84 255
0.05069619 0.038572636 -0.125 1 -2.070502E-14 3.211709E-14 84 84 84 255
0.05069619 0.038572636 -0.115 1 -2.070502E-14 3.211709E-14 84 84 84 255
0.05069619 0.021427358 -0.125 1 -2.070502E-14 3.211709E-14 84 84 84 255
0.05069619 0.038572636 -0.115 0.7071066 0.7071069 1.3381663E-14 84 84 84 255
0.03857264 0.05069618 -0.125 0.7071066 0.7071069 1.3381663E-14 84 84 84 255
0.03857264 0.05069618 -0.115 0.7071066 0.7071069 1.3381663E-14 84 84 84 255
0.05069619 0.038572636 -0.125 0.7071066 0.7071069 1.3381663E-14 84 84 84 255
0.03857264 0.05069618 -0.115 2.070502E-14 1 -1.319255E-14 84 84 84 255
0.021427363 0.05069618 -0.125 2.070502E-14 1 -1.319255E-14 84 84 84 255
0.021427363 0.05069618 -0.115 2.070502E-14 1 -1.319255E-14 84 84 84 255
0.03857264 0.05069618 -0.125 2.070502E-14 1 -1.319255E-14 84 84 84 255
0.021427363 0.05069618 -0.115 -0.7071066 0.7071069 -3.203875E-14 84 84 84 255
0.009303819 0.038572636 -0.125 -0.7071066 0.7071069 -3.203875E-14 84 84 84 255
0.009303819 0.038572636 -0.115 -0.7071066 0.7071069 -3.203875E-14 84 84 84 255
0.021427363 0.05069618 -0.125 -0.7071066 0.7071069 -3.203875E-14 84 84 84 255
0.009303819 0.038572636 -0.125 -1 2.070502E-14 -3.211709E-14 84 84 84 255
0.009303819 0.021427358 -0.115 -1 2.070502E-14 -3.211709E-14 84 84 84 255
0.009303819 0.038572636 -0.115 -1 2.070502E-14 -3.211709E-14 84 84 84 255
0.009303819 0.021427358 -0.125 -1 2.070502E-14 -3.211709E-14 84 84 84 255
0.009303819 -0.021427363 -0.115 -3.0641654E-14 1.2262141E-14 1 84 84 84 255
0.03857264 -0.009303819 -0.115 -3.0641654E-14 1.2262141E-14 1 84 84 84 255
0.021427363 -0.009303819 -0.115 -3.0641654E-14 1.2262141E-14 1 84 84 84 255
0.05069619 -0.021427363 -0.115 -3.0641654E-14 1.2262141E-14 1 84 84 84 255
0.009303819 -0.03857264 -0.115 -3.0641654E-14 1.2262141E-14 1 84 84 84 255
0.05069619 -0.03857264 -0.115 -3.0641654E-14 1.2262141E-14 1 84 84 84 255
0.021427363 -0.05069619 -0.115 -3.0641654E-14 1.2262141E-14 1 84 84 84 255
0.03857264 -0.05069619 -0.115 -3.0641654E-14 1.2262141E-14 1 84 84 84 255
0.021427363 -0.05069619 -0.125 -0.70710677 -0.70710677 -1.33816704E-14 84 84 84 255
0.009303819 -0.03857264 -0.115 -0.70710677 -0.70710677 -1.33816704E-14 84 84 84 255
0.009303819 -0.03857264 -0.125 -0.70710677 -0.70710677 -1.33816704E-14 84 84 84 255
0.021427363 -0.05069619 -0.115 -0.70710677 -0.70710677 -1.33816704E-14 84 84 84 255
0.03857264 -0.05069619 -0.125 -2.070502E-14 -1 1.319255E-14 84 84 84 255
0.021427363 -0.05069619 -0.115 -2.070502E-14 -1 1.319255E-14 84 84 84 255
0.021427363 -0.05069619 -0.125 -2.070502E-14 -1 1.319255E-14 84 84 84 255
0.03857264 -0.05069619 -0.115 -2.070502E-14 -1 1.319255E-14 84 84 84 255
0.05069619 -0.03857264 -0.125 0.70710677 -0.70710677 3.203875E-14 84 84 84 255
0.03857264 -0.05069619 -0.115 0.70710677 -0.70710677 3.203875E-14 84 84 84 255
0.03857264 -0.05069619 -0.125 0.70710677 -0.70710677 3.203875E-14 84 84 84 255
0.05069619 -0.03857264 -0.115 0.70710677 -0.70710677 3.203875E-14 84 84 84 255
0.05069619 -0.03857264 -0.125 1 -2.070502E-14 3.211709E-14 84 84 84 255
0.05069619 -0.021427363 -0.115 1 -2.070502E-14 3.211709E-14 84 84 84 255
0.05069619 -0.03857264 -0.115 1 -2.070502E-14 3.211709E-14 84 84 84 255
0.05069619 -0.021427363 -0.125 1 -2.070502E-14 3.211709E-14 84 84 84 255
0.05069619 -0.021427363 -0.115 0.70710677 0.70710677 1.3350015E-14 84 84 84 255
0.03857264 -0.009303819 -0.125 0.70710677 0.70710677 1.3350015E-14 84 84 84 255
0.03857264 -0.009303819 -0.115 0.70710677 0.70710677 1.3350015E-14 84 84 84 255
0.05069619 -0.021427363 -0.125 0.70710677 0.70710677 1.3350015E-14 84 84 84 255
0.03857264 -0.009303819 -0.115 2.070502E-14 1 -1.319255E-14 84 84 84 255
0.021427363 -0.009303819 -0.125 2.070502E-14 1 -1.319255E-14 84 84 84 255
0.021427363 -0.009303819 -0.115 2.070502E-14 1 -1.319255E-14 84 84 84 255
0.03857264 -0.009303819 -0.125 2.070502E-14 1 -1.319255E-14 84 84 84 255
0.021427363 -0.009303819 -0.115 -0.70710677 0.70710677 -3.203875E-14 84 84 84 255
0.009303819 -0.021427363 -0.125 -0.70710677 0.70710677 -3.203875E-14 84 84 84 255
0.009303819 -0.021427363 -0.115 -0.70710677 0.70710677 -3.203875E-14 84 84 84 255
0.021427363 -0.009303819 -0.125 -0.70710677 0.70710677 -3.203875E-14 84 84 84 255
0.009303819 -0.021427363 -0.125 -1 2.070502E-14 -3.211709E-14 84 84 84 255
0.009303819 -0.03857264 -0.115 -1 2.070502E-14 -3.211709E-14 84 84 84 255
0.009303819 -0.021427363 -0.115 -1 2.070502E-14 -3.211709E-14 84 84 84 255
0.009303819 -0.03857264 -0.125 -1 2.070502E-14 -3.211709E-14 84 84 84 255
-0.052928932 -0.05792894 -0.107170016 -4.351116E-26 -1.353583E-14 -1 84 84 84 255
-0.052928932 -0.047928933 -0.107170016 -4.351116E-26 -1.353583E-14 -1 84 84 84 255
-0.04792894 -0.052928917 -0.107170016 -4.351116E-26 -1.353583E-14 -1 84 84 84 255
-0.057928946 -0.052928917 -0.107170016 -4.351116E-26 -1.353583E-14 -1 84 84 84 255
0.052928925 -0.05792894 -0.107170016 4.5190733E-27 -1.353583E-14 -1 84 84 84 255
0.052928925 -0.047928933 -0.107170016 4.5190733E-27 -1.353583E-14 -1 84 84 84 255
0.057928927 -0.052928917 -0.107170016 4.5190733E-27 -1.353583E-14 -1 84 84 84 255
0.047928933 -0.052928917 -0.107170016 4.5190733E-27 -1.353583E-14 -1 84 84 84 255
-0.052928932 0.04792894 -0.107170016 1.526827E-28 -1.353587E-14 -1 84 84 84 255
-0.052928932 0.05792891 -0.107170016 1.526827E-28 -1.353587E-14 -1 84 84 84 255
-0.04792894 0.052928932 -0.107170016 1.526827E-28 -1.353587E-14 -1 84 84 84 255
-0.057928946 0.052928932 -0.107170016 1.526827E-28 -1.353587E-14 -1 84 84 84 255
0.074999996 -0.045000006 -0.107170016 -1.7693911E-16 -1.428783E-14 -1 199 199 199 255
0.057928927 -0.052928917 -0.107170016 -1.7693911E-16 -1.428783E-14 -1 199 199 199 255
0.0625 -0.025888335 -0.107170016 -1.7693911E-16 -1.428783E-14 -1 199 199 199 255
0.045000006 -0.074999996 -0.107170016 -1.7693911E-16 -1.428783E-14 -1 199 199 199 255
0.052928925 -0.05792894 -0.107170016 -1.7693911E-16 -1.428783E-14 -1 199 199 199 255
0.047928933 -0.052928917 -0.107170016 -1.7693911E-16 -1.428783E-14 -1 199 199 199 255
0.074999996 0.044999987 -0.107170016 -1.7693911E-16 -1.428783E-14 -1 199 199 199 255
0.057928927 0.052928932 -0.107170016 -1.7693911E-16 -1.428783E-14 -1 199 199 199 255
0.045000006 0.074999996 -0.107170016 -1.7693911E-16 -1.428783E-14 -1 199 199 199 255
0.0625 0.02588834 -0.107170016 -1.7693911E-16 -1.428783E-14 -1 199 199 199 255
0.052928925 0.05792891 -0.107170016 -1.7693911E-16 -1.428783E-14 -1 199 199 199 255
0.047928933 0.052928932 -0.107170016 -1.7693911E-16 -1.428783E-14 -1 199 199 199 255
0.052928925 0.04792894 -0.107170016 -1.7693911E-16 -1.428783E-14 -1 199 199 199 255
0.025888335 0.062499993 -0.107170016 -1.7693911E-16 -1.428783E-14 -1 199 199 199 255
-0.044999987 0.074999996 -0.107170016 -1.7693911E-16 -1.428783E-14 -1 199 199 199 255
-0.02588834 0.062499993 -0.107170016 -1.7693911E-16 -1.428783E-14 -1 199 199 199 255
-0.04792894 0.052928932 -0.107170016 -1.7693911E-16 -1.428783E-14 -1 199 199 199 255
-0.062499993 0.02588834 -0.107170016 -1.7693911E-16 -1.428783E-14 -1 199 199 199 255
-0.052928932 0.04792894 -0.107170016 -1.7693911E-16 -1.428783E-14 -1 199 199 199 255
-0.057928946 0.052928932 -0.107170016 -1.7693911E-16 -1.428783E-14 -1 199 199 199 255
-0.044999987 -0.074999996 -0.107170016 -1.7693911E-16 -1.428783E-14 -1 199 199 199 255
-0.052928932 -0.05792894 -0.107170016 -1.7693911E-16 -1.428783E-14 -1 199 199 199 255
-0.04792894 -0.052928917 -0.107170016 -1.7693911E-16 -1.428783E-14 -1 199 199 199 255
-0.074999996 -0.045000006 -0.107170016 -1.7693911E-16 -1.428783E-14 -1 199 199 199 255
-0.057928946 -0.052928917 -0.107170016 -1.7693911E-16 -1.428783E-14 -1 199 199 199 255
-0.062499993 -0.025888335 -0.107170016 -1.7693911E-16 -1.428783E-14 -1 199 199 199 255
-0.052928932 0.05792891 -0.107170016 -1.7693911E-16 -1.428783E-14 -1 199 199 199 255
-0.074999996 0.044999987 -0.107170016 -1.7693911E-16 -1.428783E-14 -1 199 199 199 255
0.052928925 -0.047928933 -0.107170016 -1.7693911E-16 -1.428783E-14 -1 199 199 199 255
0.025888335 -0.0625 -0.107170016 -1.7693911E-16 -1.428783E-14 -1 199 199 199 255
-0.02588834 -0.0625 -0.107170016 -1.7693911E-16 -1.428783E-14 -1 199 199 199 255
-0.052928932 -0.047928933 -0.107170016 -1.7693911E-16 -1.428783E-14 -1 199 199 199 255
-0.02588834 0.062499993 -0.107170016 0.70710677 -0.70710677 9.993755E-15 199 199 199 255
-0.062499993 0.02588834 0.125 0.70710677 -0.70710677 9.993755E-15 199 199 199 255
-0.062499993 0.02588834 -0.107170016 0.70710677 -0.70710677 9.993755E-15 199 199 199 255
-0.02588834 0.062499993 0.125 0.70710677 -0.70710677 9.993755E-15 199 199 199 255
-0.062499993 0.02588834 -0.107170016 1 1.1328519E-14 -2.91507E-16 199 199 199 255
-0.062499993 -0.025888335 0.125 1 1.1328519E-14 -2.91507E-16 199 199 199 255
-0.062499993 -0.025888335 -0.107170016 1 1.1328519E-14 -2.91507E-16 199 199 199 255
-0.062499993 0.02588834 0.125 1 1.1328519E-14 -2.91507E-16 199 199 199 255
0.025888335 0.062499993 0.125 1.1328519E-14 -1 1.438101E-14 199 199 199 255
-0.02588834 0.062499993 -0.107170016 1.1328519E-14 -1 1.438101E-14 199 199 199 255
0.025888335 0.062499993 -0.107170016 1.1328519E-14 -1 1.438101E-14 199 199 199 255
-0.02588834 0.062499993 0.125 1.1328519E-14 -1 1.438101E-14 199 199 199 255
-0.062499993 -0.025888335 0.125 0.70710677 0.70710677 -1.0305708E-14 199 199 199 255
-0.02588834 -0.0625 -0.107170016 0.70710677 0.70710677 -1.0305708E-14 199 199 199 255
-0.062499993 -0.025888335 -0.107170016 0.70710677 0.70710677 -1.0305708E-14 199 199 199 255
-0.02588834 -0.0625 0.125 0.70710677 0.70710677 -1.0305708E-14 199 199 199 255
0.0625 0.02588834 -0.107170016 -0.70710677 -0.70710677 1.0328258E-14 199 199 199 255
0.025888335 0.062499993 0.125 -0.70710677 -0.70710677 1.0328258E-14 199 199 199 255
0.025888335 0.062499993 -0.107170016 -0.70710677 -0.70710677 1.0328258E-14 199 199 199 255
0.0625 0.02588834 0.125 -0.70710677 -0.70710677 1.0328258E-14 199 199 199 255
-0.02588834 -0.0625 -0.107170016 -1.15463694E-14 1 -1.433243E-14 199 199 199 255
0.025888335 -0.0625 0.125 -1.15463694E-14 1 -1.433243E-14 199 199 199 255
0.025888335 -0.0625 -0.107170016 -1.15463694E-14 1 -1.433243E-14 199 199 199 255
-0.02588834 -0.0625 0.125 -1.15463694E-14 1 -1.433243E-14 199 199 199 255
0.0625 -0.025888335 0.125 -1 -1.14374495E-14 2.186303E-16 199 199 199 255
0.0625 0.02588834 -0.107170016 -1 -1.14374495E-14 2.186303E-16 199 199 199 255
0.0625 -0.025888335 -0.107170016 -1 -1.14374495E-14 2.186303E-16 199 199 199 255
0.0625 0.02588834 0.125 -1 -1.14374495E-14 2.186303E-16 199 199 199 255
0.025888335 -0.0625 0.125 -0.70710677 0.70710677 -9.967445E-15 199 199 199 255
0.0625 -0.025888335 -0.107170016 -0.70710677 0.70710677 -9.967445E-15 199 199 199 255
0.025888335 -0.0625 -0.107170016 -0.70710677 0.70710677 -9.967445E-15 199 199 199 255
0.0625 -0.025888335 0.125 -0.70710677 0.70710677 -9.967445E-15 199 199 199 255
0.052928925 0.04792894 -0.107170016 1.526828E-28 -1.353587E-14 -1 84 84 84 255
0.052928925 0.05792891 -0.107170016 1.526828E-28 -1.353587E-14 -1 84 84 84 255
0.057928927 0.052928932 -0.107170016 1.526828E-28 -1.353587E-14 -1 84 84 84 255
0.047928933 0.052928932 -0.107170016 1.526828E-28 -1.353587E-14 -1 84 84 84 255
3 0 1 2
3 1 0 3
3 3 0 4
3 3 4 5
3 5 4 6
3 5 6 7
3 8 9 10
3 9 8 11
3 12 13 14
3 13 12 15
3 16 17 18
3 17 16 19
3 20 21 22
3 21 20 23
3 24 25 26
3 25 24 27
3 28 29 30
3 29 28 31
3 32 33 34
3 33 32 35
3 36 37 38
3 37 36 39
3 40 41 42
3 41 40 43
3 44 45 46
3 45 44 47
3 48 49 50
3 49 48 51
3 52 53 54
3 53 52 55
3 56 57 58
3 57 56 59
3 59 56 60
3 59 60 61
3 61 60 62
3 61 62 63
3 64 65 66
3 65 64 67
3 67 64 68
3 67 68 69
3 69 68 70
3 69 70 71
3 72 73 74
3 73 72 75
3 75 72 76
3 76 72 77
3 76 77 78
3 78 77 79
3 78 79 80
3 78 80 81
3 81 80 82
3 82 80 83
3 83 80 84
3 83 84 85
3 84 80 86
3 86 80 87
3 87 80 88
3 87 88 89
3 89 88 90
3 89 90 91
3 80 92 88
3 92 80 93
3 92 93 94
3 94 93 95
3 96 97 98
3 97 96 99
3 98 97 95
3 98 95 93
3 75 100 101
3 100 75 76
3 100 76 102
3 101 100 103
3 101 103 104
3 104 103 96
3 96 103 105
3 96 105 85
3 96 85 106
3 106 85 84
3 106 84 107
3 96 106 108
3 96 108 109
3 96 109 99
3 99 109 91
3 99 91 110
3 110 91 90
3 110 90 94
3 110 94 95
3 111 74 112
3 74 111 79
3 74 79 113
3 113 79 77
3 112 73 104
3 73 112 74
3 104 73 114
3 104 114 101
3 115 116 117
3 116 115 118
3 118 115 119
3 118 119 120
3 120 119 121
3 120 121 122
3 123 124 125
3 124 123 126
3 127 128 129
3 128 127 130
3 131 132 133
3 132 131 134
3 135 136 137
3 136 135 138
3 139 140 141
3 140 139 142
3 143 144 145
3 144 143 146
3 147 148 149
3 148 147 150
3 151 152 153
3 152 151 154
3 155 156 157
3 156 155 158
3 158 155 159
3 158 159 160
3 160 159 161
3 160 161 162
3 163 164 165
3 164 163 166
3 167 168 169
3 168 167 170
3 171 172 173
3 172 171 174
3 175 176 177
3 176 175 178
3 179 180 181
3 180 179 182
3 183 184 185
3 184 183 186
3 187 188 189
3 188 187 190
3 191 192 193
3 192 191 194
3 195 196 197
3 196 195 198
3 198 195 199
3 198 199 200
3 200 199 201
3 200 201 202
3 203 204 205
3 204 203 206
3 207 208 209
3 208 207 210
3 211 212 213
3 212 211 214
3 215 216 217
3 216 215 218
3 219 220 221
3 220 219 222
3 223 224 225
3 224 223 226
3 227 228 229
3 228 227 230
3 231 232 233
3 232 231 234
3 235 236 237
3 236 235 238
3 238 235 239
3 238 239 240
3 240 239 241
3 240 241 242
3 243 244 245
3 244 243 246
3 247 248 249
3 248 247 250
3 251 252 253
3 252 251 254
3 255 256 257
3 256 255 258
3 259 260 261
3 260 259 262
3 263 264 265
3 264 263 266
3 267 268 269
3 268 267 270
3 271 272 273
3 272 271 274
3 275 276 277
3 276 275 278
3 279 280 281
3 280 279 282
3 283 284 285
3 284 283 286
3 287 288 289
3 288 287 290
3 288 290 291
3 291 290 292
3 293 294 295
3 294 293 287
3 294 287 296
3 296 287 289
3 295 294 297
3 295 297 298
3 296 299 294
3 299 296 300
3 299 300 298
3 298 300 295
3 295 300 301
3 301 300 302
3 301 302 303
3 303 302 304
3 303 304 305
3 305 304 306
3 307 308 309
3 308 307 310
3 308 310 311
3 311 310 312
3 312 310 304
3 301 313 314
3 313 301 303
3 314 313 306
3 314 306 304
3 314 304 310
3 289 315 316
3 315 289 288
3 316 315 292
3 316 292 290
3 316 290 307
3 316 307 317
3 317 307 309
3 317 309 312
3 312 309 318
3 312 318 311
3 319 320 321
3 320 319 322
3 323 324 325
3 324 323 326
3 327 328 329
3 328 327 330
3 331 332 333
3 332 331 334
3 335 336 337
3 336 335 338
3 339 340 341
3 340 339 342
3 343 344 345
3 344 343 346
3 347 348 349
3 348 347 350
3 351 352 353
3 352 351 354

