ply
format ascii 1.0
commentY29udmVydGVyIGJ5IENvZGVMZW9wYXJk
comment Original mesh name: 'C:\Program Files (x86)\Steam\steamapps\common\Stormworks\rom\meshes\modular_engine_sensor_1x1.mesh'
comment SubMesh index: 0
comment SubMesh name: 'ID51'
comment Shader: Opaque (0)
element vertex 304
property float x
property float y
property float z
property float nx
property float ny
property float nz
property uchar red
property uchar green
property uchar blue
property uchar alpha
element face 204
property list uchar ushort vertex_index
end_header
0.105 -0.043492418 -0.094999984 -0.49999994 0.49999994 0.70710677 86 86 86 255
0.051776703 -0.125 -0.074999996 -0.49999994 0.49999994 0.70710677 86 86 86 255
0.125 -0.051776703 -0.074999996 -0.49999994 0.49999994 0.70710677 86 86 86 255
0.043492418 -0.105 -0.094999984 -0.49999994 0.49999994 0.70710677 86 86 86 255
0.125 3.6095557E-16 -0.074999996 -0.70710677 3.3374586E-14 0.70710677 86 86 86 255
0.105 -0.043492418 -0.094999984 -0.70710677 3.3374586E-14 0.70710677 86 86 86 255
0.125 -0.051776703 -0.074999996 -0.70710677 3.3374586E-14 0.70710677 86 86 86 255
0.105 -6.1362455E-15 -0.094999984 -0.70710677 3.3374586E-14 0.70710677 86 86 86 255
0.105 0.043492418 -0.094999984 -0.70710677 3.3374586E-14 0.70710677 86 86 86 255
0.125 0.051776703 -0.074999996 -0.70710677 3.3374586E-14 0.70710677 86 86 86 255
0.043492418 -0.105 -0.094999984 -0.70710677 0.70710677 -4.786239E-13 86 86 86 255
0.105 -0.043492418 -0.114999995 -0.70710677 0.70710677 -4.786239E-13 86 86 86 255
0.043492418 -0.105 -0.114999995 -0.70710677 0.70710677 -4.786239E-13 86 86 86 255
0.105 -0.043492418 -0.094999984 -0.70710677 0.70710677 -4.786239E-13 86 86 86 255
0.043492418 -0.105 -0.094999984 -4.886558E-14 0.70710677 0.70710677 86 86 86 255
-0 -0.125 -0.074999996 -4.886558E-14 0.70710677 0.70710677 86 86 86 255
0.051776703 -0.125 -0.074999996 -4.886558E-14 0.70710677 0.70710677 86 86 86 255
-0.043492418 -0.105 -0.094999984 -4.886558E-14 0.70710677 0.70710677 86 86 86 255
-0.051776703 -0.125 -0.074999996 -4.886558E-14 0.70710677 0.70710677 86 86 86 255
0.051776703 -0.125 0.085 -0.70710677 0.70710677 -2.389955E-15 86 86 86 255
0.125 -0.051776703 -0.074999996 -0.70710677 0.70710677 -2.389955E-15 86 86 86 255
0.051776703 -0.125 -0.074999996 -0.70710677 0.70710677 -2.389955E-15 86 86 86 255
0.125 -0.051776703 0.085 -0.70710677 0.70710677 -2.389955E-15 86 86 86 255
0.125 -0.051776703 0.085 -1 -0 -0 86 86 86 255
0.125 3.6095557E-16 -0.074999996 -1 -0 -0 86 86 86 255
0.125 -0.051776703 -0.074999996 -1 -0 -0 86 86 86 255
0.125 7.2191136E-16 0.085 -1 -0 -0 86 86 86 255
0.125 0.051776703 -0.074999996 -1 -0 -0 86 86 86 255
0.125 0.051776703 0.085 -1 -0 -0 86 86 86 255
0.051776703 0.125 -0.074999996 -0.49999994 -0.49999994 0.70710677 86 86 86 255
0.105 0.043492418 -0.094999984 -0.49999994 -0.49999994 0.70710677 86 86 86 255
0.125 0.051776703 -0.074999996 -0.49999994 -0.49999994 0.70710677 86 86 86 255
0.043492418 0.105 -0.094999984 -0.49999994 -0.49999994 0.70710677 86 86 86 255
0.105 0.043492418 -0.094999984 -1 1.576863E-13 -3.970513E-13 86 86 86 255
0.105 -0.043492418 -0.114999995 -1 1.576863E-13 -3.970513E-13 86 86 86 255
0.105 -6.1362455E-15 -0.094999984 -1 1.576863E-13 -3.970513E-13 86 86 86 255
0.105 -0.043492418 -0.094999984 -1 7.46935E-14 -2.165734E-13 86 86 86 255
0.043492418 -0.105 -0.094999984 5.3945313E-14 1 -5.414336E-13 86 86 86 255
0.043492418 -0.105 -0.114999995 5.3945313E-14 1 -5.414336E-13 86 86 86 255
-0.043492418 -0.105 -0.114999995 5.3945313E-14 1 -5.414336E-13 86 86 86 255
0.043492418 0.105 -0.114999995 -2.410134E-15 -1.3033121E-17 1 86 86 86 255
0.074999996 0.04500001 -0.114999995 -2.410134E-15 -1.3033121E-17 1 86 86 86 255
0.105 0.043492418 -0.114999995 -2.410134E-15 -1.3033121E-17 1 86 86 86 255
0.04500001 0.074999996 -0.114999995 -2.410134E-15 -1.3033121E-17 1 86 86 86 255
-0.04500001 0.074999996 -0.114999995 -2.410134E-15 -1.3033121E-17 1 86 86 86 255
-0.043492418 0.105 -0.114999995 -2.410134E-15 -1.3033121E-17 1 86 86 86 255
-0.105 0.043492418 -0.114999995 -2.410134E-15 -1.3033121E-17 1 86 86 86 255
-0.074999996 0.04500001 -0.114999995 -2.410134E-15 -1.3033121E-17 1 86 86 86 255
-0.074999996 -0.04500001 -0.114999995 -2.410134E-15 -1.3033121E-17 1 86 86 86 255
-0.105 -0.043492418 -0.114999995 -2.410134E-15 -1.3033121E-17 1 86 86 86 255
0.105 -0.043492418 -0.114999995 -2.410134E-15 -1.3033121E-17 1 86 86 86 255
0.074999996 -0.04500001 -0.114999995 -2.410134E-15 -1.3033121E-17 1 86 86 86 255
0.043492418 -0.105 -0.114999995 -2.410134E-15 -1.3033121E-17 1 86 86 86 255
0.04500001 -0.074999996 -0.114999995 -2.410134E-15 -1.3033121E-17 1 86 86 86 255
-0.04500001 -0.074999996 -0.114999995 -2.410134E-15 -1.3033121E-17 1 86 86 86 255
-0.043492418 -0.105 -0.114999995 -2.410134E-15 -1.3033121E-17 1 86 86 86 255
-0.105 -0.043492418 -0.094999984 0.49999994 0.49999994 0.70710677 86 86 86 255
-0.051776703 -0.125 -0.074999996 0.49999994 0.49999994 0.70710677 86 86 86 255
-0.043492418 -0.105 -0.094999984 0.49999994 0.49999994 0.70710677 86 86 86 255
-0.125 -0.051776703 -0.074999996 0.49999994 0.49999994 0.70710677 86 86 86 255
-0.051776703 -0.125 0.085 -7.9102095E-32 1 -3.759955E-15 86 86 86 255
-0 -0.125 -0.074999996 -7.9102095E-32 1 -3.759955E-15 86 86 86 255
-0.051776703 -0.125 -0.074999996 -7.9102095E-32 1 -3.759955E-15 86 86 86 255
0.051776703 -0.125 -0.074999996 -7.9102095E-32 1 -3.759955E-15 86 86 86 255
0.051776703 -0.125 0.085 -7.9102095E-32 1 -3.759955E-15 86 86 86 255
-0 -0.125 0.085 -7.9102095E-32 1 -3.759955E-15 86 86 86 255
-0.043492418 -0.105 -0.094999984 -1.742848E-13 1 4.511946E-13 86 86 86 255
0.051776703 -0.125 0.085 -0.49999994 0.49999994 -0.70710677 86 86 86 255
0.105 -0.043492418 0.105 -0.49999994 0.49999994 -0.70710677 86 86 86 255
0.125 -0.051776703 0.085 -0.49999994 0.49999994 -0.70710677 86 86 86 255
0.043492418 -0.105 0.105 -0.49999994 0.49999994 -0.70710677 86 86 86 255
0.105 -0.043492418 0.105 -0.70710677 1.1076858E-17 -0.70710677 86 86 86 255
0.125 7.2191136E-16 0.085 -0.70710677 1.1076858E-17 -0.70710677 86 86 86 255
0.125 -0.051776703 0.085 -0.70710677 1.1076858E-17 -0.70710677 86 86 86 255
0.125 0.051776703 0.085 -0.70710677 1.1076858E-17 -0.70710677 86 86 86 255
0.105 0.043492418 0.105 -0.70710677 1.1076858E-17 -0.70710677 86 86 86 255
0.105 7.2191136E-16 0.105 -0.70710677 1.1076858E-17 -0.70710677 86 86 86 255
0.051776703 0.125 0.085 -0.70710677 -0.70710677 -0 86 86 86 255
0.125 0.051776703 -0.074999996 -0.70710677 -0.70710677 -0 86 86 86 255
0.125 0.051776703 0.085 -0.70710677 -0.70710677 -0 86 86 86 255
0.051776703 0.125 -0.074999996 -0.70710677 -0.70710677 -0 86 86 86 255
0.043492418 0.105 -0.094999984 2.6401707E-14 -0.70710677 0.70710677 86 86 86 255
-0.043492418 0.105 -0.094999984 2.6401707E-14 -0.70710677 0.70710677 86 86 86 255
-5.0533808E-15 0.105 -0.094999984 2.6401707E-14 -0.70710677 0.70710677 86 86 86 255
-0.051776703 0.125 -0.074999996 2.6401707E-14 -0.70710677 0.70710677 86 86 86 255
0.051776703 0.125 -0.074999996 2.6401707E-14 -0.70710677 0.70710677 86 86 86 255
-0 0.125 -0.074999996 2.6401707E-14 -0.70710677 0.70710677 86 86 86 255
0.043492418 0.105 -0.094999984 -0.70710677 -0.70710677 -3.8289912E-13 86 86 86 255
0.105 0.043492418 -0.114999995 -0.70710677 -0.70710677 -3.8289912E-13 86 86 86 255
0.105 0.043492418 -0.094999984 -0.70710677 -0.70710677 -3.8289912E-13 86 86 86 255
0.043492418 0.105 -0.114999995 -0.70710677 -0.70710677 -3.8289912E-13 86 86 86 255
0.105 0.043492418 -0.114999995 -1 -2.074819E-14 3.790035E-13 86 86 86 255
-0.043492418 0.105 -0.094999984 2.904747E-14 -1 -3.248601E-13 86 86 86 255
-0.043492418 0.105 -0.114999995 2.904747E-14 -1 -3.248601E-13 86 86 86 255
0.043492418 0.105 -0.114999995 2.904747E-14 -1 -3.248601E-13 86 86 86 255
-0.043492418 0.105 -0.114999995 0.70710677 -0.70710677 1.212388E-13 86 86 86 255
-0.105 0.043492418 -0.094999984 0.70710677 -0.70710677 1.212388E-13 86 86 86 255
-0.105 0.043492418 -0.114999995 0.70710677 -0.70710677 1.212388E-13 86 86 86 255
-0.043492418 0.105 -0.094999984 0.70710677 -0.70710677 1.212388E-13 86 86 86 255
-0.105 0.043492418 -0.114999995 1 1.49387E-13 5.05338E-13 86 86 86 255
-0.105 -0.043492418 -0.094999984 1 1.49387E-13 5.05338E-13 86 86 86 255
-0.105 -0.043492418 -0.114999995 1 1.49387E-13 5.05338E-13 86 86 86 255
-0.043492418 -0.105 -0.114999995 0.70710677 0.70710677 6.3803856E-13 86 86 86 255
-0.105 -0.043492418 -0.094999984 0.70710677 0.70710677 6.3803856E-13 86 86 86 255
-0.043492418 -0.105 -0.094999984 0.70710677 0.70710677 6.3803856E-13 86 86 86 255
-0.105 -0.043492418 -0.114999995 0.70710677 0.70710677 6.3803856E-13 86 86 86 255
-0.105 0.043492418 -0.094999984 0.70710677 -1.1514398E-14 0.70710677 86 86 86 255
-0.105 -0.043492418 -0.094999984 0.70710677 -1.1514398E-14 0.70710677 86 86 86 255
-0.105 -6.1362455E-15 -0.094999984 0.70710677 -1.1514398E-14 0.70710677 86 86 86 255
-0.125 0.051776703 -0.074999996 0.70710677 -1.1514398E-14 0.70710677 86 86 86 255
-0.125 -0.051776703 -0.074999996 0.70710677 -1.1514398E-14 0.70710677 86 86 86 255
-0.125 3.6095557E-16 -0.074999996 0.70710677 -1.1514398E-14 0.70710677 86 86 86 255
-0.125 -0.051776703 -0.074999996 0.70710677 0.70710677 -2.4057815E-15 86 86 86 255
-0.051776703 -0.125 0.085 0.70710677 0.70710677 -2.4057815E-15 86 86 86 255
-0.051776703 -0.125 -0.074999996 0.70710677 0.70710677 -2.4057815E-15 86 86 86 255
-0.125 -0.051776703 0.085 0.70710677 0.70710677 -2.4057815E-15 86 86 86 255
-0 -0.125 0.085 0 0.70710677 -0.70710677 86 86 86 255
0.043492418 -0.105 0.105 0 0.70710677 -0.70710677 86 86 86 255
0.051776703 -0.125 0.085 0 0.70710677 -0.70710677 86 86 86 255
-0 -0.105 0.105 0 0.70710677 -0.70710677 86 86 86 255
-0.051776703 -0.125 0.085 0 0.70710677 -0.70710677 86 86 86 255
-0.043492418 -0.105 0.105 0 0.70710677 -0.70710677 86 86 86 255
0.043492418 -0.105 0.105 0 -0 -1 86 86 86 255
0.105 7.2191136E-16 0.105 0 -0 -1 86 86 86 255
0.105 -0.043492418 0.105 0 -0 -1 86 86 86 255
0.105 0.043492418 0.105 0 -0 -1 86 86 86 255
0.043492418 0.105 0.105 0 -0 -1 86 86 86 255
-0 -0.105 0.105 0 -0 -1 86 86 86 255
-0 0.105 0.105 0 -0 -1 86 86 86 255
-0.043492418 -0.105 0.105 0 -0 -1 86 86 86 255
-0.043492418 0.105 0.105 0 -0 -1 86 86 86 255
-0.105 0.043492418 0.105 0 -0 -1 86 86 86 255
-0.105 -0.043492418 0.105 0 -0 -1 86 86 86 255
-0.105 7.2191136E-16 0.105 0 -0 -1 86 86 86 255
0.105 0.043492418 0.105 -0.49999994 -0.49999994 -0.70710677 86 86 86 255
0.051776703 0.125 0.085 -0.49999994 -0.49999994 -0.70710677 86 86 86 255
0.125 0.051776703 0.085 -0.49999994 -0.49999994 -0.70710677 86 86 86 255
0.043492418 0.105 0.105 -0.49999994 -0.49999994 -0.70710677 86 86 86 255
0.051776703 0.125 0.085 0 -1 -0 86 86 86 255
-0 0.125 -0.074999996 0 -1 -0 86 86 86 255
0.051776703 0.125 -0.074999996 0 -1 -0 86 86 86 255
-0.051776703 0.125 -0.074999996 0 -1 -0 86 86 86 255
-0.051776703 0.125 0.085 0 -1 -0 86 86 86 255
-0 0.125 0.085 0 -1 -0 86 86 86 255
0.043492418 0.105 -0.094999984 -4.979567E-14 -1 -5.4143362E-14 86 86 86 255
-5.0533808E-15 0.105 -0.094999984 -4.979567E-14 -1 -5.4143362E-14 86 86 86 255
-0.051776703 0.125 -0.074999996 0.49999994 -0.49999994 0.70710677 86 86 86 255
-0.105 0.043492418 -0.094999984 0.49999994 -0.49999994 0.70710677 86 86 86 255
-0.043492418 0.105 -0.094999984 0.49999994 -0.49999994 0.70710677 86 86 86 255
-0.125 0.051776703 -0.074999996 0.49999994 -0.49999994 0.70710677 86 86 86 255
-0.105 0.043492418 -0.094999984 1 6.639422E-14 -3.068124E-13 86 86 86 255
-0.105 -6.1362455E-15 -0.094999984 1 6.639422E-14 -3.068124E-13 86 86 86 255
-0.125 3.6095557E-16 -0.074999996 1 -0 -0 86 86 86 255
-0.125 -0.051776703 0.085 1 -0 -0 86 86 86 255
-0.125 -0.051776703 -0.074999996 1 -0 -0 86 86 86 255
-0.125 7.2191136E-16 0.085 1 -0 -0 86 86 86 255
-0.125 0.051776703 -0.074999996 1 -0 -0 86 86 86 255
-0.125 0.051776703 0.085 1 -0 -0 86 86 86 255
-0.051776703 -0.125 0.085 0.49999994 0.49999994 -0.70710677 86 86 86 255
-0.105 -0.043492418 0.105 0.49999994 0.49999994 -0.70710677 86 86 86 255
-0.043492418 -0.105 0.105 0.49999994 0.49999994 -0.70710677 86 86 86 255
-0.125 -0.051776703 0.085 0.49999994 0.49999994 -0.70710677 86 86 86 255
-0.125 -0.051776703 0.085 0.70710677 5.538432E-18 -0.70710677 86 86 86 255
-0.105 7.2191136E-16 0.105 0.70710677 5.538432E-18 -0.70710677 86 86 86 255
-0.105 -0.043492418 0.105 0.70710677 5.538432E-18 -0.70710677 86 86 86 255
-0.105 0.043492418 0.105 0.70710677 5.538432E-18 -0.70710677 86 86 86 255
-0.125 0.051776703 0.085 0.70710677 5.538432E-18 -0.70710677 86 86 86 255
-0.125 7.2191136E-16 0.085 0.70710677 5.538432E-18 -0.70710677 86 86 86 255
-0.105 0.043492418 0.105 0.49999994 -0.49999994 -0.70710677 86 86 86 255
-0.051776703 0.125 0.085 0.49999994 -0.49999994 -0.70710677 86 86 86 255
-0.043492418 0.105 0.105 0.49999994 -0.49999994 -0.70710677 86 86 86 255
-0.125 0.051776703 0.085 0.49999994 -0.49999994 -0.70710677 86 86 86 255
0.043492418 0.105 0.105 0 -0.70710677 -0.70710677 86 86 86 255
-0 0.125 0.085 0 -0.70710677 -0.70710677 86 86 86 255
0.051776703 0.125 0.085 0 -0.70710677 -0.70710677 86 86 86 255
-0.051776703 0.125 0.085 0 -0.70710677 -0.70710677 86 86 86 255
-0.043492418 0.105 0.105 0 -0.70710677 -0.70710677 86 86 86 255
-0 0.105 0.105 0 -0.70710677 -0.70710677 86 86 86 255
-0.051776703 0.125 -0.074999996 0.70710677 -0.70710677 3.1655027E-17 86 86 86 255
-0.125 0.051776703 0.085 0.70710677 -0.70710677 3.1655027E-17 86 86 86 255
-0.125 0.051776703 -0.074999996 0.70710677 -0.70710677 3.1655027E-17 86 86 86 255
-0.051776703 0.125 0.085 0.70710677 -0.70710677 3.1655027E-17 86 86 86 255
-0.052928925 -0.057928927 -0.124999985 -3.2096887E-14 1.110223E-16 1 86 86 86 255
-0.052928925 -0.047928933 -0.124999985 -3.2096887E-14 1.110223E-16 1 86 86 86 255
-0.057928927 -0.052928925 -0.124999985 -3.2096887E-14 1.110223E-16 1 86 86 86 255
-0.050428927 -0.055428926 -0.124999985 -3.2096887E-14 1.110223E-16 1 86 86 86 255
-0.047928933 -0.052928925 -0.124999985 -3.2096887E-14 1.110223E-16 1 86 86 86 255
-0.052928925 0.04792894 -0.124999985 -3.2096887E-14 1.110223E-16 1 86 86 86 255
-0.052928925 0.057928946 -0.124999985 -3.2096887E-14 1.110223E-16 1 86 86 86 255
-0.057928927 0.052928932 -0.124999985 -3.2096887E-14 1.110223E-16 1 86 86 86 255
-0.047928933 0.052928932 -0.124999985 -3.2096887E-14 1.110223E-16 1 86 86 86 255
0.052928932 -0.057928927 -0.124999985 -3.2096887E-14 1.110223E-16 1 86 86 86 255
0.052928932 -0.047928933 -0.124999985 -3.2096887E-14 1.110223E-16 1 86 86 86 255
0.04792894 -0.052928925 -0.124999985 -3.2096887E-14 1.110223E-16 1 86 86 86 255
0.057928946 -0.052928925 -0.124999985 -3.2096887E-14 1.110223E-16 1 86 86 86 255
-0.074999996 0.044999987 -0.124999985 1 1.7798675E-30 3.2096887E-14 86 86 86 255
-0.074999996 -0.045000006 -0.114999995 1 1.7798675E-30 3.2096887E-14 86 86 86 255
-0.074999996 -0.045000006 -0.124999985 1 1.7798675E-30 3.2096887E-14 86 86 86 255
-0.074999996 0.044999987 -0.114999995 1 1.7798675E-30 3.2096887E-14 86 86 86 255
-0.045000006 0.074999996 -0.124999985 0.70710677 -0.70710677 2.2774429E-14 86 86 86 255
-0.074999996 0.044999987 -0.114999995 0.70710677 -0.70710677 2.2774429E-14 86 86 86 255
-0.074999996 0.044999987 -0.124999985 0.70710677 -0.70710677 2.2774429E-14 86 86 86 255
-0.045000006 0.074999996 -0.114999995 0.70710677 -0.70710677 2.2774429E-14 86 86 86 255
-0.074999996 -0.045000006 -0.124999985 0.70710677 0.70710677 2.2617421E-14 86 86 86 255
-0.045000006 -0.074999996 -0.114999995 0.70710677 0.70710677 2.2617421E-14 86 86 86 255
-0.045000006 -0.074999996 -0.124999985 0.70710677 0.70710677 2.2617421E-14 86 86 86 255
-0.074999996 -0.045000006 -0.114999995 0.70710677 0.70710677 2.2617421E-14 86 86 86 255
-0.045000006 0.074999996 -0.114999995 -1.7836026E-30 -1 1.110223E-16 86 86 86 255
0.044999987 0.074999996 -0.124999985 -1.7836026E-30 -1 1.110223E-16 86 86 86 255
0.044999987 0.074999996 -0.114999995 -1.7836026E-30 -1 1.110223E-16 86 86 86 255
-0.045000006 0.074999996 -0.124999985 -1.7836026E-30 -1 1.110223E-16 86 86 86 255
0.044999987 -0.074999996 -0.124999985 1.7836026E-30 1 -1.110223E-16 86 86 86 255
-0.045000006 -0.074999996 -0.114999995 1.7836026E-30 1 -1.110223E-16 86 86 86 255
0.044999987 -0.074999996 -0.114999995 1.7836026E-30 1 -1.110223E-16 86 86 86 255
-0.045000006 -0.074999996 -0.124999985 1.7836026E-30 1 -1.110223E-16 86 86 86 255
0.044999987 0.074999996 -0.124999985 -0.70710677 -0.70710677 -2.2617421E-14 86 86 86 255
0.074999996 0.044999987 -0.114999995 -0.70710677 -0.70710677 -2.2617421E-14 86 86 86 255
0.044999987 0.074999996 -0.114999995 -0.70710677 -0.70710677 -2.2617421E-14 86 86 86 255
0.074999996 0.044999987 -0.124999985 -0.70710677 -0.70710677 -2.2617421E-14 86 86 86 255
0.074999996 -0.045000006 -0.114999995 -0.70710677 0.70710677 -2.2774429E-14 86 86 86 255
0.044999987 -0.074999996 -0.124999985 -0.70710677 0.70710677 -2.2774429E-14 86 86 86 255
0.044999987 -0.074999996 -0.114999995 -0.70710677 0.70710677 -2.2774429E-14 86 86 86 255
0.074999996 -0.045000006 -0.124999985 -0.70710677 0.70710677 -2.2774429E-14 86 86 86 255
0.074999996 -0.045000006 -0.114999995 -1 -1.7798675E-30 -3.2096887E-14 86 86 86 255
0.074999996 0.044999987 -0.124999985 -1 -1.7798675E-30 -3.2096887E-14 86 86 86 255
0.074999996 -0.045000006 -0.124999985 -1 -1.7798675E-30 -3.2096887E-14 86 86 86 255
0.074999996 0.044999987 -0.114999995 -1 -1.7798675E-30 -3.2096887E-14 86 86 86 255
-0.054999992 0.036715724 -0.114999995 -1 -1.7798675E-30 -3.2096887E-14 199 199 199 255
-0.054999992 -0.03671572 -0.124999985 -1 -1.7798675E-30 -3.2096887E-14 199 199 199 255
-0.054999992 -0.03671572 -0.114999995 -1 -1.7798675E-30 -3.2096887E-14 199 199 199 255
-0.054999992 0.036715724 -0.124999985 -1 -1.7798675E-30 -3.2096887E-14 199 199 199 255
-0.03671572 -0.054999992 -0.114999995 -0.70710677 -0.70710677 -2.2617421E-14 199 199 199 255
-0.054999992 -0.03671572 -0.124999985 -0.70710677 -0.70710677 -2.2617421E-14 199 199 199 255
-0.03671572 -0.054999992 -0.124999985 -0.70710677 -0.70710677 -2.2617421E-14 199 199 199 255
-0.054999992 -0.03671572 -0.114999995 -0.70710677 -0.70710677 -2.2617421E-14 199 199 199 255
-0.03671572 -0.054999992 -0.114999995 -3.2096887E-14 1.110223E-16 1 199 199 199 255
-0.054999992 0.036715724 -0.114999995 -3.2096887E-14 1.110223E-16 1 199 199 199 255
-0.054999992 -0.03671572 -0.114999995 -3.2096887E-14 1.110223E-16 1 199 199 199 255
-0.03671572 0.054999992 -0.114999995 -3.2096887E-14 1.110223E-16 1 199 199 199 255
0.036715724 -0.054999992 -0.114999995 -3.2096887E-14 1.110223E-16 1 199 199 199 255
0.036715724 0.054999992 -0.114999995 -3.2096887E-14 1.110223E-16 1 199 199 199 255
0.054999992 -0.03671572 -0.114999995 -3.2096887E-14 1.110223E-16 1 199 199 199 255
0.054999992 0.036715724 -0.114999995 -3.2096887E-14 1.110223E-16 1 199 199 199 255
-0.03671572 0.054999992 -0.114999995 -0.70710677 0.70710677 -2.2774429E-14 199 199 199 255
-0.054999992 0.036715724 -0.124999985 -0.70710677 0.70710677 -2.2774429E-14 199 199 199 255
-0.054999992 0.036715724 -0.114999995 -0.70710677 0.70710677 -2.2774429E-14 199 199 199 255
-0.03671572 0.054999992 -0.124999985 -0.70710677 0.70710677 -2.2774429E-14 199 199 199 255
-0.03671572 -0.054999992 -0.114999995 -1.7836026E-30 -1 1.110223E-16 199 199 199 255
0.036715724 -0.054999992 -0.124999985 -1.7836026E-30 -1 1.110223E-16 199 199 199 255
0.036715724 -0.054999992 -0.114999995 -1.7836026E-30 -1 1.110223E-16 199 199 199 255
-0.03671572 -0.054999992 -0.124999985 -1.7836026E-30 -1 1.110223E-16 199 199 199 255
0.054999992 0.036715724 -0.124999985 1 1.7798675E-30 3.2096887E-14 199 199 199 255
0.054999992 -0.03671572 -0.114999995 1 1.7798675E-30 3.2096887E-14 199 199 199 255
0.054999992 -0.03671572 -0.124999985 1 1.7798675E-30 3.2096887E-14 199 199 199 255
0.054999992 0.036715724 -0.114999995 1 1.7798675E-30 3.2096887E-14 199 199 199 255
0.054999992 0.036715724 -0.124999985 0.70710677 0.70710677 2.2617421E-14 199 199 199 255
0.036715724 0.054999992 -0.114999995 0.70710677 0.70710677 2.2617421E-14 199 199 199 255
0.054999992 0.036715724 -0.114999995 0.70710677 0.70710677 2.2617421E-14 199 199 199 255
0.036715724 0.054999992 -0.124999985 0.70710677 0.70710677 2.2617421E-14 199 199 199 255
0.036715724 0.054999992 -0.124999985 1.7836026E-30 1 -1.110223E-16 199 199 199 255
-0.03671572 0.054999992 -0.114999995 1.7836026E-30 1 -1.110223E-16 199 199 199 255
0.036715724 0.054999992 -0.114999995 1.7836026E-30 1 -1.110223E-16 199 199 199 255
-0.03671572 0.054999992 -0.124999985 1.7836026E-30 1 -1.110223E-16 199 199 199 255
0.036715724 -0.054999992 -0.124999985 0.70710677 -0.70710677 2.2774429E-14 199 199 199 255
0.054999992 -0.03671572 -0.114999995 0.70710677 -0.70710677 2.2774429E-14 199 199 199 255
0.036715724 -0.054999992 -0.114999995 0.70710677 -0.70710677 2.2774429E-14 199 199 199 255
0.054999992 -0.03671572 -0.124999985 0.70710677 -0.70710677 2.2774429E-14 199 199 199 255
0.052928932 0.04792894 -0.124999985 -3.2096887E-14 1.110223E-16 1 86 86 86 255
0.052928932 0.057928946 -0.124999985 -3.2096887E-14 1.110223E-16 1 86 86 86 255
0.04792894 0.052928932 -0.124999985 -3.2096887E-14 1.110223E-16 1 86 86 86 255
0.057928946 0.052928932 -0.124999985 -3.2096887E-14 1.110223E-16 1 86 86 86 255
-0.074999996 -0.045000006 -0.124999985 -3.2096887E-14 1.110223E-16 1 199 199 199 255
-0.057928927 -0.052928925 -0.124999985 -3.2096887E-14 1.110223E-16 1 199 199 199 255
-0.074999996 0.044999987 -0.124999985 -3.2096887E-14 1.110223E-16 1 199 199 199 255
-0.045000006 -0.074999996 -0.124999985 -3.2096887E-14 1.110223E-16 1 199 199 199 255
-0.052928925 -0.057928927 -0.124999985 -3.2096887E-14 1.110223E-16 1 199 199 199 255
-0.050428927 -0.055428926 -0.124999985 -3.2096887E-14 1.110223E-16 1 199 199 199 255
-0.047928933 -0.052928925 -0.124999985 -3.2096887E-14 1.110223E-16 1 199 199 199 255
-0.057928927 0.052928932 -0.124999985 -3.2096887E-14 1.110223E-16 1 199 199 199 255
-0.045000006 0.074999996 -0.124999985 -3.2096887E-14 1.110223E-16 1 199 199 199 255
-0.052928925 0.057928946 -0.124999985 -3.2096887E-14 1.110223E-16 1 199 199 199 255
-0.047928933 0.052928932 -0.124999985 -3.2096887E-14 1.110223E-16 1 199 199 199 255
-0.054999992 -0.03671572 -0.124999985 -3.2096887E-14 1.110223E-16 1 199 199 199 255
-0.052928925 -0.047928933 -0.124999985 -3.2096887E-14 1.110223E-16 1 199 199 199 255
-0.03671572 -0.054999992 -0.124999985 -3.2096887E-14 1.110223E-16 1 199 199 199 255
0.044999987 -0.074999996 -0.124999985 -3.2096887E-14 1.110223E-16 1 199 199 199 255
0.036715724 -0.054999992 -0.124999985 -3.2096887E-14 1.110223E-16 1 199 199 199 255
0.04792894 -0.052928925 -0.124999985 -3.2096887E-14 1.110223E-16 1 199 199 199 255
0.054999992 -0.03671572 -0.124999985 -3.2096887E-14 1.110223E-16 1 199 199 199 255
0.052928932 -0.047928933 -0.124999985 -3.2096887E-14 1.110223E-16 1 199 199 199 255
0.057928946 -0.052928925 -0.124999985 -3.2096887E-14 1.110223E-16 1 199 199 199 255
0.054999992 0.036715724 -0.124999985 -3.2096887E-14 1.110223E-16 1 199 199 199 255
0.052928932 -0.057928927 -0.124999985 -3.2096887E-14 1.110223E-16 1 199 199 199 255
0.074999996 -0.045000006 -0.124999985 -3.2096887E-14 1.110223E-16 1 199 199 199 255
0.057928946 0.052928932 -0.124999985 -3.2096887E-14 1.110223E-16 1 199 199 199 255
0.044999987 0.074999996 -0.124999985 -3.2096887E-14 1.110223E-16 1 199 199 199 255
0.052928932 0.057928946 -0.124999985 -3.2096887E-14 1.110223E-16 1 199 199 199 255
0.074999996 0.044999987 -0.124999985 -3.2096887E-14 1.110223E-16 1 199 199 199 255
0.04792894 0.052928932 -0.124999985 -3.2096887E-14 1.110223E-16 1 199 199 199 255
-0.054999992 0.036715724 -0.124999985 -3.2096887E-14 1.110223E-16 1 199 199 199 255
-0.052928925 0.04792894 -0.124999985 -3.2096887E-14 1.110223E-16 1 199 199 199 255
-0.03671572 0.054999992 -0.124999985 -3.2096887E-14 1.110223E-16 1 199 199 199 255
0.036715724 0.054999992 -0.124999985 -3.2096887E-14 1.110223E-16 1 199 199 199 255
0.052928932 0.04792894 -0.124999985 -3.2096887E-14 1.110223E-16 1 199 199 199 255
3 0 1 2
3 1 0 3
3 4 5 6
3 5 4 7
3 7 4 8
3 8 4 9
3 10 11 12
3 11 10 13
3 14 15 16
3 15 14 17
3 15 17 18
3 19 20 21
3 20 19 22
3 23 24 25
3 24 23 26
3 24 26 27
3 27 26 28
3 29 30 31
3 30 29 32
3 33 34 35
3 35 34 36
3 37 38 39
3 40 41 42
3 41 40 43
3 43 40 44
3 44 40 45
3 44 45 46
3 44 46 47
3 47 46 48
3 48 46 49
3 50 51 52
3 51 50 42
3 51 42 41
3 52 51 53
3 52 53 54
3 52 54 55
3 55 54 49
3 49 54 48
3 56 57 58
3 57 56 59
3 60 61 62
3 61 60 63
3 63 60 64
3 64 60 65
3 66 37 39
3 67 68 69
3 68 67 70
3 71 72 73
3 72 71 74
3 74 71 75
3 75 71 76
3 77 78 79
3 78 77 80
3 81 82 83
3 82 81 84
3 84 81 85
3 84 85 86
3 87 88 89
3 88 87 90
3 91 34 33
3 92 93 94
3 95 96 97
3 96 95 98
3 99 100 101
3 102 103 104
3 103 102 105
3 106 107 108
3 107 106 109
3 107 109 110
3 110 109 111
3 112 113 114
3 113 112 115
3 116 117 118
3 117 116 119
3 119 116 120
3 119 120 121
3 122 123 124
3 123 122 125
3 125 122 126
3 126 122 127
3 126 127 128
3 128 127 129
3 128 129 130
3 130 129 131
3 131 129 132
3 131 132 133
3 134 135 136
3 135 134 137
3 138 139 140
3 139 138 141
3 141 138 142
3 142 138 143
3 144 145 94
3 146 147 148
3 147 146 149
3 92 94 145
3 150 151 99
3 99 151 100
3 152 153 154
3 153 152 155
3 155 152 156
3 155 156 157
3 158 159 160
3 159 158 161
3 162 163 164
3 163 162 165
3 165 162 166
3 166 162 167
3 168 169 170
3 169 168 171
3 172 173 174
3 173 172 175
3 175 172 176
3 176 172 177
3 178 179 180
3 179 178 181
3 182 183 184
3 183 182 185
3 183 185 186
3 187 188 189
3 188 187 190
3 191 192 193
3 192 191 194
3 195 196 197
3 196 195 198
3 199 200 201
3 200 199 202
3 203 204 205
3 204 203 206
3 207 208 209
3 208 207 210
3 211 212 213
3 212 211 214
3 215 216 217
3 216 215 218
3 219 220 221
3 220 219 222
3 223 224 225
3 224 223 226
3 227 228 229
3 228 227 230
3 231 232 233
3 232 231 234
3 235 236 237
3 236 235 238
3 238 235 239
3 238 239 240
3 240 239 241
3 240 241 242
3 243 244 245
3 244 243 246
3 247 248 249
3 248 247 250
3 251 252 253
3 252 251 254
3 255 256 257
3 256 255 258
3 259 260 261
3 260 259 262
3 263 264 265
3 264 263 266
3 267 268 269
3 268 267 270
3 271 272 273
3 272 271 274
3 272 274 275
3 275 274 276
3 276 274 277
3 273 278 279
3 278 273 272
3 279 278 280
3 279 280 281
3 272 282 278
3 282 272 283
3 282 283 284
3 284 283 277
3 284 277 274
3 284 274 285
3 284 285 286
3 286 285 287
3 286 287 288
3 288 287 289
3 288 289 290
3 288 290 291
3 285 292 287
3 292 285 293
3 292 293 290
3 290 293 294
3 295 296 297
3 296 295 298
3 297 296 294
3 297 294 293
3 278 299 300
3 299 278 282
3 300 299 301
3 300 301 281
3 281 301 279
3 279 301 295
3 295 301 302
3 295 302 298
3 298 302 291
3 298 291 303
3 303 291 294
3 294 291 290

