ply
format ascii 1.0
commentY29udmVydGVyIGJ5IENvZGVMZW9wYXJk
comment Original mesh name: 'C:\Program Files (x86)\Steam\steamapps\common\Stormworks\rom\meshes\modular_engine_coolant_manifold.mesh'
comment SubMesh index: 0
comment SubMesh name: 'ID56'
comment Shader: Opaque (0)
element vertex 436
property float x
property float y
property float z
property float nx
property float ny
property float nz
property uchar red
property uchar green
property uchar blue
property uchar alpha
element face 278
property list uchar ushort vertex_index
end_header
0.052928925 0.05792894 -0.12477173 2.255975E-15 -2.865076E-21 1 84 84 84 255
0.052928925 0.047928933 -0.12477173 2.255975E-15 -2.865076E-21 1 84 84 84 255
0.05792894 0.052928925 -0.12477173 2.255975E-15 -2.865076E-21 1 84 84 84 255
0.047928933 0.052928925 -0.12477173 2.255975E-15 -2.865076E-21 1 84 84 84 255
-0.021427361 -0.009303817 -0.11477171 0 -0 1 84 84 84 255
-0.009303817 -0.03857264 -0.11477171 0 -0 1 84 84 84 255
-0.009303817 -0.021427361 -0.11477171 0 -0 1 84 84 84 255
-0.021427361 -0.05069619 -0.11477171 0 -0 1 84 84 84 255
-0.03857264 -0.009303817 -0.11477171 0 -0 1 84 84 84 255
-0.03857264 -0.05069619 -0.11477171 0 -0 1 84 84 84 255
-0.05069619 -0.021427361 -0.11477171 0 -0 1 84 84 84 255
-0.05069619 -0.03857264 -0.11477171 0 -0 1 84 84 84 255
-0.03857264 -0.009303817 -0.11477171 -0.70710677 0.70710677 -0 84 84 84 255
-0.05069619 -0.021427361 -0.12477173 -0.70710677 0.70710677 -0 84 84 84 255
-0.05069619 -0.021427361 -0.11477171 -0.70710677 0.70710677 -0 84 84 84 255
-0.03857264 -0.009303817 -0.12477173 -0.70710677 0.70710677 -0 84 84 84 255
-0.05069619 -0.021427361 -0.11477171 -1 -0 -0 84 84 84 255
-0.05069619 -0.03857264 -0.12477173 -1 -0 -0 84 84 84 255
-0.05069619 -0.03857264 -0.11477171 -1 -0 -0 84 84 84 255
-0.05069619 -0.021427361 -0.12477173 -1 -0 -0 84 84 84 255
-0.05069619 -0.03857264 -0.11477171 -0.70710677 -0.70710677 -3.1655018E-17 84 84 84 255
-0.03857264 -0.05069619 -0.12477173 -0.70710677 -0.70710677 -3.1655018E-17 84 84 84 255
-0.03857264 -0.05069619 -0.11477171 -0.70710677 -0.70710677 -3.1655018E-17 84 84 84 255
-0.05069619 -0.03857264 -0.12477173 -0.70710677 -0.70710677 -3.1655018E-17 84 84 84 255
-0.021427361 -0.05069619 -0.11477171 0 -1 -0 84 84 84 255
-0.03857264 -0.05069619 -0.12477173 0 -1 -0 84 84 84 255
-0.021427361 -0.05069619 -0.12477173 0 -1 -0 84 84 84 255
-0.03857264 -0.05069619 -0.11477171 0 -1 -0 84 84 84 255
-0.009303817 -0.03857264 -0.11477171 0.70710677 -0.70710677 -0 84 84 84 255
-0.021427361 -0.05069619 -0.12477173 0.70710677 -0.70710677 -0 84 84 84 255
-0.009303817 -0.03857264 -0.12477173 0.70710677 -0.70710677 -0 84 84 84 255
-0.021427361 -0.05069619 -0.11477171 0.70710677 -0.70710677 -0 84 84 84 255
-0.009303817 -0.021427361 -0.12477173 1 -0 -0 84 84 84 255
-0.009303817 -0.03857264 -0.11477171 1 -0 -0 84 84 84 255
-0.009303817 -0.03857264 -0.12477173 1 -0 -0 84 84 84 255
-0.009303817 -0.021427361 -0.11477171 1 -0 -0 84 84 84 255
-0.021427361 -0.009303817 -0.11477171 0.70710677 0.70710677 -0 84 84 84 255
-0.009303817 -0.021427361 -0.12477173 0.70710677 0.70710677 -0 84 84 84 255
-0.021427361 -0.009303817 -0.12477173 0.70710677 0.70710677 -0 84 84 84 255
-0.009303817 -0.021427361 -0.11477171 0.70710677 0.70710677 -0 84 84 84 255
-0.03857264 -0.009303817 -0.12477173 0 1 -0 84 84 84 255
-0.021427361 -0.009303817 -0.11477171 0 1 -0 84 84 84 255
-0.021427361 -0.009303817 -0.12477173 0 1 -0 84 84 84 255
-0.03857264 -0.009303817 -0.11477171 0 1 -0 84 84 84 255
-0.009303817 0.021427361 -0.12477173 0.70710677 -0.70710677 -0 84 84 84 255
-0.021427361 0.009303817 -0.11477171 0.70710677 -0.70710677 -0 84 84 84 255
-0.021427361 0.009303817 -0.12477173 0.70710677 -0.70710677 -0 84 84 84 255
-0.009303817 0.021427361 -0.11477171 0.70710677 -0.70710677 -0 84 84 84 255
-0.009303817 0.03857264 -0.12477173 1 -0 -0 84 84 84 255
-0.009303817 0.021427361 -0.11477171 1 -0 -0 84 84 84 255
-0.009303817 0.021427361 -0.12477173 1 -0 -0 84 84 84 255
-0.009303817 0.03857264 -0.11477171 1 -0 -0 84 84 84 255
-0.021427361 0.05069619 -0.11477171 0 -0 1 84 84 84 255
-0.009303817 0.021427361 -0.11477171 0 -0 1 84 84 84 255
-0.009303817 0.03857264 -0.11477171 0 -0 1 84 84 84 255
-0.021427361 0.009303817 -0.11477171 0 -0 1 84 84 84 255
-0.03857264 0.05069619 -0.11477171 0 -0 1 84 84 84 255
-0.03857264 0.009303817 -0.11477171 0 -0 1 84 84 84 255
-0.05069619 0.03857264 -0.11477171 0 -0 1 84 84 84 255
-0.05069619 0.021427361 -0.11477171 0 -0 1 84 84 84 255
-0.021427361 0.009303817 -0.11477171 0 -1 -0 84 84 84 255
-0.03857264 0.009303817 -0.12477173 0 -1 -0 84 84 84 255
-0.021427361 0.009303817 -0.12477173 0 -1 -0 84 84 84 255
-0.03857264 0.009303817 -0.11477171 0 -1 -0 84 84 84 255
-0.021427361 0.05069619 -0.12477173 0.70710677 0.70710677 -0 84 84 84 255
-0.009303817 0.03857264 -0.11477171 0.70710677 0.70710677 -0 84 84 84 255
-0.009303817 0.03857264 -0.12477173 0.70710677 0.70710677 -0 84 84 84 255
-0.021427361 0.05069619 -0.11477171 0.70710677 0.70710677 -0 84 84 84 255
-0.03857264 0.05069619 -0.11477171 -0.70710677 0.70710677 -1.7277418E-30 84 84 84 255
-0.05069619 0.03857264 -0.12477173 -0.70710677 0.70710677 -1.7277418E-30 84 84 84 255
-0.05069619 0.03857264 -0.11477171 -0.70710677 0.70710677 -1.7277418E-30 84 84 84 255
-0.03857264 0.05069619 -0.12477173 -0.70710677 0.70710677 -1.7277418E-30 84 84 84 255
-0.05069619 0.03857264 -0.11477171 -1 -0 -0 84 84 84 255
-0.05069619 0.021427361 -0.12477173 -1 -0 -0 84 84 84 255
-0.05069619 0.021427361 -0.11477171 -1 -0 -0 84 84 84 255
-0.05069619 0.03857264 -0.12477173 -1 -0 -0 84 84 84 255
-0.05069619 0.021427361 -0.11477171 -0.70710677 -0.70710677 -1.7277418E-30 84 84 84 255
-0.03857264 0.009303817 -0.12477173 -0.70710677 -0.70710677 -1.7277418E-30 84 84 84 255
-0.03857264 0.009303817 -0.11477171 -0.70710677 -0.70710677 -1.7277418E-30 84 84 84 255
-0.05069619 0.021427361 -0.12477173 -0.70710677 -0.70710677 -1.7277418E-30 84 84 84 255
-0.03857264 0.05069619 -0.12477173 0 1 -0 84 84 84 255
-0.021427361 0.05069619 -0.11477171 0 1 -0 84 84 84 255
-0.021427361 0.05069619 -0.12477173 0 1 -0 84 84 84 255
-0.03857264 0.05069619 -0.11477171 0 1 -0 84 84 84 255
0.021427361 0.05069619 -0.11477171 -0.70710677 0.70710677 -3.1655018E-17 84 84 84 255
0.009303817 0.03857264 -0.12477173 -0.70710677 0.70710677 -3.1655018E-17 84 84 84 255
0.009303817 0.03857264 -0.11477171 -0.70710677 0.70710677 -3.1655018E-17 84 84 84 255
0.021427361 0.05069619 -0.12477173 -0.70710677 0.70710677 -3.1655018E-17 84 84 84 255
0.009303817 0.03857264 -0.11477171 -1 -0 -0 84 84 84 255
0.009303817 0.021427361 -0.12477173 -1 -0 -0 84 84 84 255
0.009303817 0.021427361 -0.11477171 -1 -0 -0 84 84 84 255
0.009303817 0.03857264 -0.12477173 -1 -0 -0 84 84 84 255
0.03857264 0.05069619 -0.11477171 0 -0 1 84 84 84 255
0.05069619 0.021427361 -0.11477171 0 -0 1 84 84 84 255
0.05069619 0.03857264 -0.11477171 0 -0 1 84 84 84 255
0.03857264 0.009303817 -0.11477171 0 -0 1 84 84 84 255
0.021427361 0.05069619 -0.11477171 0 -0 1 84 84 84 255
0.021427361 0.009303817 -0.11477171 0 -0 1 84 84 84 255
0.009303817 0.03857264 -0.11477171 0 -0 1 84 84 84 255
0.009303817 0.021427361 -0.11477171 0 -0 1 84 84 84 255
0.021427361 0.05069619 -0.12477173 0 1 -0 84 84 84 255
0.03857264 0.05069619 -0.11477171 0 1 -0 84 84 84 255
0.03857264 0.05069619 -0.12477173 0 1 -0 84 84 84 255
0.021427361 0.05069619 -0.11477171 0 1 -0 84 84 84 255
0.009303817 0.021427361 -0.11477171 -0.70710677 -0.70710677 -3.1655018E-17 84 84 84 255
0.021427361 0.009303817 -0.12477173 -0.70710677 -0.70710677 -3.1655018E-17 84 84 84 255
0.021427361 0.009303817 -0.11477171 -0.70710677 -0.70710677 -3.1655018E-17 84 84 84 255
0.009303817 0.021427361 -0.12477173 -0.70710677 -0.70710677 -3.1655018E-17 84 84 84 255
0.03857264 0.009303817 -0.11477171 0 -1 -0 84 84 84 255
0.021427361 0.009303817 -0.12477173 0 -1 -0 84 84 84 255
0.03857264 0.009303817 -0.12477173 0 -1 -0 84 84 84 255
0.021427361 0.009303817 -0.11477171 0 -1 -0 84 84 84 255
0.05069619 0.021427361 -0.12477173 0.70710677 -0.70710677 -0 84 84 84 255
0.03857264 0.009303817 -0.11477171 0.70710677 -0.70710677 -0 84 84 84 255
0.03857264 0.009303817 -0.12477173 0.70710677 -0.70710677 -0 84 84 84 255
0.05069619 0.021427361 -0.11477171 0.70710677 -0.70710677 -0 84 84 84 255
0.05069619 0.03857264 -0.12477173 1 -0 -0 84 84 84 255
0.05069619 0.021427361 -0.11477171 1 -0 -0 84 84 84 255
0.05069619 0.021427361 -0.12477173 1 -0 -0 84 84 84 255
0.05069619 0.03857264 -0.11477171 1 -0 -0 84 84 84 255
0.03857264 0.05069619 -0.12477173 0.70710677 0.70710677 -0 84 84 84 255
0.05069619 0.03857264 -0.11477171 0.70710677 0.70710677 -0 84 84 84 255
0.05069619 0.03857264 -0.12477173 0.70710677 0.70710677 -0 84 84 84 255
0.03857264 0.05069619 -0.11477171 0.70710677 0.70710677 -0 84 84 84 255
-0.06499999 -0.105 0.08555824 0.336557 0.4759634 -0.8125197 84 84 84 255
-0.016715739 -0.105 0.105558254 0.336557 0.4759634 -0.8125197 84 84 84 255
-0.036715724 -0.125 0.08555824 0.336557 0.4759634 -0.8125197 84 84 84 255
-0.06499999 -0.105 0.08555824 0.3826837 -0 -0.9238794 84 84 84 255
-0.016715739 0.105 0.105558254 0.3826837 -0 -0.9238794 84 84 84 255
-0.016715739 -0.105 0.105558254 0.3826837 -0 -0.9238794 84 84 84 255
-0.06499999 0.105 0.08555824 0.3826837 -0 -0.9238794 84 84 84 255
-0.016715739 -0.105 0.105558254 6.921773E-18 0.707107 -0.7071066 84 84 84 255
0.036715724 -0.125 0.08555824 6.921773E-18 0.707107 -0.7071066 84 84 84 255
-0.036715724 -0.125 0.08555824 6.921773E-18 0.707107 -0.7071066 84 84 84 255
0.016715713 -0.105 0.105558254 6.921773E-18 0.707107 -0.7071066 84 84 84 255
-0.074999996 -0.105 0.07555824 0.49999994 0.70710677 -0.49999994 84 84 84 255
-0.036715724 -0.125 0.08555824 0.49999994 0.70710677 -0.49999994 84 84 84 255
-0.074999996 -0.125 0.04727397 0.49999994 0.70710677 -0.49999994 84 84 84 255
-0.06499999 -0.105 0.08555824 0.49999994 0.70710677 -0.49999994 84 84 84 255
-0.074999996 0.105 0.07555824 0.70710677 -0 -0.70710677 84 84 84 255
-0.06499999 -0.105 0.08555824 0.70710677 -0 -0.70710677 84 84 84 255
-0.074999996 -0.105 0.07555824 0.70710677 -0 -0.70710677 84 84 84 255
-0.06499999 0.105 0.08555824 0.70710677 -0 -0.70710677 84 84 84 255
-0.06499999 0.105 0.08555824 0.336557 -0.4759632 -0.8125198 84 84 84 255
-0.036715724 0.125 0.08555824 0.336557 -0.4759632 -0.8125198 84 84 84 255
-0.016715739 0.105 0.105558254 0.336557 -0.4759632 -0.8125198 84 84 84 255
-0.016715739 -0.105 0.105558254 0 -0 -1 84 84 84 255
0.016715713 0.105 0.105558254 0 -0 -1 84 84 84 255
0.016715713 -0.105 0.105558254 0 -0 -1 84 84 84 255
-0.016715739 0.105 0.105558254 0 -0 -1 84 84 84 255
0.016715713 -0.105 0.105558254 -0.3365568 0.4759632 -0.8125198 84 84 84 255
0.06499999 -0.105 0.08555824 -0.3365568 0.4759632 -0.8125198 84 84 84 255
0.036715724 -0.125 0.08555824 -0.3365568 0.4759632 -0.8125198 84 84 84 255
-0.074999996 -0.125 -0.08694176 0 1 -0 84 84 84 255
-0.025888337 -0.125 -0.06254175 0 1 -0 84 84 84 255
0.074999996 -0.125 -0.08694176 0 1 -0 84 84 84 255
-0.0625 -0.125 -0.025930095 0 1 -0 84 84 84 255
-0.074999996 -0.125 0.04727397 0 1 -0 84 84 84 255
-0.0625 -0.125 0.02584658 0 1 -0 84 84 84 255
-0.025888337 -0.125 0.06245824 0 1 -0 84 84 84 255
-0.036715724 -0.125 0.08555824 0 1 -0 84 84 84 255
0.025888337 -0.125 0.06245824 0 1 -0 84 84 84 255
0.0625 -0.125 -0.025930095 0 1 -0 84 84 84 255
0.074999996 -0.125 0.04727397 0 1 -0 84 84 84 255
0.025888337 -0.125 -0.06254175 0 1 -0 84 84 84 255
0.0625 -0.125 0.02584658 0 1 -0 84 84 84 255
0.036715724 -0.125 0.08555824 0 1 -0 84 84 84 255
-0.074999996 -0.105 0.07555824 0.8125197 0.4759634 -0.336557 84 84 84 255
-0.074999996 -0.125 0.04727397 0.8125197 0.4759634 -0.336557 84 84 84 255
-0.095000006 -0.105 0.027273985 0.8125197 0.4759634 -0.336557 84 84 84 255
-0.095000006 0.105 0.027273985 0.9238794 -0 -0.3826837 84 84 84 255
-0.074999996 -0.105 0.07555824 0.9238794 -0 -0.3826837 84 84 84 255
-0.095000006 -0.105 0.027273985 0.9238794 -0 -0.3826837 84 84 84 255
-0.074999996 0.105 0.07555824 0.9238794 -0 -0.3826837 84 84 84 255
-0.036715724 0.125 0.08555824 0.5000001 -0.7071066 -0.5000001 84 84 84 255
-0.074999996 0.105 0.07555824 0.5000001 -0.7071066 -0.5000001 84 84 84 255
-0.074999996 0.125 0.04727397 0.5000001 -0.7071066 -0.5000001 84 84 84 255
-0.06499999 0.105 0.08555824 0.5000001 -0.7071066 -0.5000001 84 84 84 255
0.016715713 0.105 0.105558254 0 -0.70710677 -0.70710677 84 84 84 255
-0.036715724 0.125 0.08555824 0 -0.70710677 -0.70710677 84 84 84 255
0.036715724 0.125 0.08555824 0 -0.70710677 -0.70710677 84 84 84 255
-0.016715739 0.105 0.105558254 0 -0.70710677 -0.70710677 84 84 84 255
0.016715713 -0.105 0.105558254 -0.3826835 -0 -0.9238795 84 84 84 255
0.06499999 0.105 0.08555824 -0.3826835 -0 -0.9238795 84 84 84 255
0.06499999 -0.105 0.08555824 -0.3826835 -0 -0.9238795 84 84 84 255
0.016715713 0.105 0.105558254 -0.3826835 -0 -0.9238795 84 84 84 255
0.036715724 -0.125 0.08555824 -0.49999994 0.70710677 -0.49999994 84 84 84 255
0.074999996 -0.105 0.07555824 -0.49999994 0.70710677 -0.49999994 84 84 84 255
0.074999996 -0.125 0.04727397 -0.49999994 0.70710677 -0.49999994 84 84 84 255
0.06499999 -0.105 0.08555824 -0.49999994 0.70710677 -0.49999994 84 84 84 255
0.094999984 -0.105 0.027273985 -0.7071071 0.7071065 -1.249324E-16 84 84 84 255
0.074999996 -0.125 -0.08694176 -0.7071071 0.7071065 -1.249324E-16 84 84 84 255
0.074999996 -0.125 0.04727397 -0.7071071 0.7071065 -1.249324E-16 84 84 84 255
0.094999984 -0.105 -0.08694176 -0.7071071 0.7071065 -1.249324E-16 84 84 84 255
-0.074999996 -0.105 -0.10694177 0 0.7071067 0.7071068 84 84 84 255
0.074999996 -0.125 -0.08694176 0 0.7071067 0.7071068 84 84 84 255
0.074999996 -0.105 -0.10694177 0 0.7071067 0.7071068 84 84 84 255
-0.074999996 -0.125 -0.08694176 0 0.7071067 0.7071068 84 84 84 255
-0.095000006 -0.105 0.027273985 0.7071066 0.707107 -3.9452284E-18 84 84 84 255
-0.074999996 -0.125 -0.08694176 0.7071066 0.707107 -3.9452284E-18 84 84 84 255
-0.095000006 -0.105 -0.08694176 0.7071066 0.707107 -3.9452284E-18 84 84 84 255
-0.074999996 -0.125 0.04727397 0.7071066 0.707107 -3.9452284E-18 84 84 84 255
-0.095000006 0.105 -0.08694176 1 -0 -0 84 84 84 255
-0.095000006 -0.105 0.027273985 1 -0 -0 84 84 84 255
-0.095000006 -0.105 -0.08694176 1 -0 -0 84 84 84 255
-0.095000006 0.105 0.027273985 1 -0 -0 84 84 84 255
-0.074999996 0.125 0.04727397 0.8125198 -0.4759632 -0.336557 84 84 84 255
-0.074999996 0.105 0.07555824 0.8125198 -0.4759632 -0.336557 84 84 84 255
-0.095000006 0.105 0.027273985 0.8125198 -0.4759632 -0.336557 84 84 84 255
0.074999996 0.125 -0.08694176 0 -1 -0 84 84 84 255
0.025888337 0.125 -0.06254175 0 -1 -0 84 84 84 255
-0.074999996 0.125 -0.08694176 0 -1 -0 84 84 84 255
0.0625 0.125 -0.025930095 0 -1 -0 84 84 84 255
0.074999996 0.125 0.04727397 0 -1 -0 84 84 84 255
0.0625 0.125 0.02584658 0 -1 -0 84 84 84 255
0.025888337 0.125 0.06245824 0 -1 -0 84 84 84 255
0.036715724 0.125 0.08555824 0 -1 -0 84 84 84 255
-0.025888337 0.125 0.06245824 0 -1 -0 84 84 84 255
-0.0625 0.125 -0.025930095 0 -1 -0 84 84 84 255
-0.074999996 0.125 0.04727397 0 -1 -0 84 84 84 255
-0.025888337 0.125 -0.06254175 0 -1 -0 84 84 84 255
-0.0625 0.125 0.02584658 0 -1 -0 84 84 84 255
-0.036715724 0.125 0.08555824 0 -1 -0 84 84 84 255
0.016715713 0.105 0.105558254 -0.3365569 -0.4759631 -0.8125199 84 84 84 255
0.036715724 0.125 0.08555824 -0.3365569 -0.4759631 -0.8125199 84 84 84 255
0.06499999 0.105 0.08555824 -0.3365569 -0.4759631 -0.8125199 84 84 84 255
0.06499999 0.105 0.08555824 -0.70710677 -0 -0.70710677 84 84 84 255
0.074999996 -0.105 0.07555824 -0.70710677 -0 -0.70710677 84 84 84 255
0.06499999 -0.105 0.08555824 -0.70710677 -0 -0.70710677 84 84 84 255
0.074999996 0.105 0.07555824 -0.70710677 -0 -0.70710677 84 84 84 255
0.094999984 -0.105 0.027273985 -0.81252 0.475963 -0.3365567 84 84 84 255
0.074999996 -0.125 0.04727397 -0.81252 0.475963 -0.3365567 84 84 84 255
0.074999996 -0.105 0.07555824 -0.81252 0.475963 -0.3365567 84 84 84 255
0.094999984 0.105 0.027273985 -1 -0 -3.9503721E-16 84 84 84 255
0.094999984 -0.105 -0.08694176 -1 -0 -3.9503721E-16 84 84 84 255
0.094999984 -0.105 0.027273985 -1 -0 -3.9503721E-16 84 84 84 255
0.094999984 0.105 -0.08694176 -1 -0 -3.9503721E-16 84 84 84 255
0.074999996 -0.105 -0.10694177 -0.5773505 0.5773501 0.5773502 84 84 84 255
0.074999996 -0.125 -0.08694176 -0.5773505 0.5773501 0.5773502 84 84 84 255
0.094999984 -0.105 -0.08694176 -0.5773505 0.5773501 0.5773502 84 84 84 255
0.044999983 -0.074999996 -0.10694177 0 -0 1 84 84 84 255
0.074999996 -0.105 -0.10694177 0 -0 1 84 84 84 255
0.074999996 -0.04500001 -0.10694177 0 -0 1 84 84 84 255
-0.074999996 -0.105 -0.10694177 0 -0 1 84 84 84 255
-0.04500001 -0.074999996 -0.10694177 0 -0 1 84 84 84 255
-0.074999996 -0.04500001 -0.10694177 0 -0 1 84 84 84 255
-0.095000006 -0.105 -0.08694176 0.57735 0.5773503 0.5773504 84 84 84 255
-0.074999996 -0.125 -0.08694176 0.57735 0.5773503 0.5773504 84 84 84 255
-0.074999996 -0.105 -0.10694177 0.57735 0.5773503 0.5773504 84 84 84 255
-0.095000006 0.105 -0.08694176 0.7071066 -2.313363E-19 0.707107 84 84 84 255
-0.074999996 0.044999983 -0.10694177 0.7071066 -2.313363E-19 0.707107 84 84 84 255
-0.074999996 0.105 -0.10694177 0.7071066 -2.313363E-19 0.707107 84 84 84 255
-0.074999996 -0.04500001 -0.10694177 0.7071066 -2.313363E-19 0.707107 84 84 84 255
-0.074999996 -0.105 -0.10694177 0.7071066 -2.313363E-19 0.707107 84 84 84 255
-0.095000006 -0.105 -0.08694176 0.7071066 -2.313363E-19 0.707107 84 84 84 255
-0.074999996 0.125 0.04727397 0.70710677 -0.70710677 -2.6301519E-18 84 84 84 255
-0.095000006 0.105 -0.08694176 0.70710677 -0.70710677 -2.6301519E-18 84 84 84 255
-0.074999996 0.125 -0.08694176 0.70710677 -0.70710677 -2.6301519E-18 84 84 84 255
-0.095000006 0.105 0.027273985 0.70710677 -0.70710677 -2.6301519E-18 84 84 84 255
-0.074999996 0.125 -0.08694176 0 -0.7071066 0.707107 84 84 84 255
0.074999996 0.105 -0.10694177 0 -0.7071066 0.707107 84 84 84 255
0.074999996 0.125 -0.08694176 0 -0.7071066 0.707107 84 84 84 255
-0.074999996 0.105 -0.10694177 0 -0.7071066 0.707107 84 84 84 255
0.074999996 0.125 0.04727397 -0.7071072 -0.7071063 -1.1178151E-16 84 84 84 255
0.094999984 0.105 -0.08694176 -0.7071072 -0.7071063 -1.1178151E-16 84 84 84 255
0.094999984 0.105 0.027273985 -0.7071072 -0.7071063 -1.1178151E-16 84 84 84 255
0.074999996 0.125 -0.08694176 -0.7071072 -0.7071063 -1.1178151E-16 84 84 84 255
0.074999996 0.105 0.07555824 -0.5000001 -0.7071066 -0.5000001 84 84 84 255
0.036715724 0.125 0.08555824 -0.5000001 -0.7071066 -0.5000001 84 84 84 255
0.074999996 0.125 0.04727397 -0.5000001 -0.7071066 -0.5000001 84 84 84 255
0.06499999 0.105 0.08555824 -0.5000001 -0.7071066 -0.5000001 84 84 84 255
0.074999996 0.105 0.07555824 -0.9238796 -0 -0.3826833 84 84 84 255
0.094999984 -0.105 0.027273985 -0.9238796 -0 -0.3826833 84 84 84 255
0.074999996 -0.105 0.07555824 -0.9238796 -0 -0.3826833 84 84 84 255
0.094999984 0.105 0.027273985 -0.9238796 -0 -0.3826833 84 84 84 255
0.094999984 0.105 -0.08694176 -0.707107 4.9647992E-18 0.7071066 84 84 84 255
0.074999996 -0.105 -0.10694177 -0.707107 4.9647992E-18 0.7071066 84 84 84 255
0.094999984 -0.105 -0.08694176 -0.707107 4.9647992E-18 0.7071066 84 84 84 255
0.074999996 -0.04500001 -0.10694177 -0.707107 4.9647992E-18 0.7071066 84 84 84 255
0.074999996 0.044999983 -0.10694177 -0.707107 4.9647992E-18 0.7071066 84 84 84 255
0.074999996 0.105 -0.10694177 -0.707107 4.9647992E-18 0.7071066 84 84 84 255
0.044999983 0.074999996 -0.10694177 0 -0 1 84 84 84 255
0.074999996 0.044999983 -0.10694177 0 -0 1 84 84 84 255
-0.04500001 0.074999996 -0.10694177 0 -0 1 84 84 84 255
-0.074999996 0.044999983 -0.10694177 0 -0 1 84 84 84 255
-0.04500001 -0.074999996 -0.12477173 0 1 -0 84 84 84 255
0.044999983 -0.074999996 -0.10694177 0 1 -0 84 84 84 255
0.044999983 -0.074999996 -0.12477173 0 1 -0 84 84 84 255
-0.04500001 -0.074999996 -0.10694177 0 1 -0 84 84 84 255
-0.074999996 -0.04500001 -0.12477173 0.70710677 0.70710677 -0 84 84 84 255
-0.04500001 -0.074999996 -0.10694177 0.70710677 0.70710677 -0 84 84 84 255
-0.04500001 -0.074999996 -0.12477173 0.70710677 0.70710677 -0 84 84 84 255
-0.074999996 -0.04500001 -0.10694177 0.70710677 0.70710677 -0 84 84 84 255
0.044999983 -0.074999996 -0.12477173 -0.7071065 0.7071071 -3.9828508E-17 84 84 84 255
0.074999996 -0.04500001 -0.10694177 -0.7071065 0.7071071 -3.9828508E-17 84 84 84 255
0.074999996 -0.04500001 -0.12477173 -0.7071065 0.7071071 -3.9828508E-17 84 84 84 255
0.044999983 -0.074999996 -0.10694177 -0.7071065 0.7071071 -3.9828508E-17 84 84 84 255
-0.095000006 0.105 -0.08694176 0.57735014 -0.57735014 0.57735056 84 84 84 255
-0.074999996 0.105 -0.10694177 0.57735014 -0.57735014 0.57735056 84 84 84 255
-0.074999996 0.125 -0.08694176 0.57735014 -0.57735014 0.57735056 84 84 84 255
-0.074999996 0.044999983 -0.12477173 1 -0 -0 84 84 84 255
-0.074999996 -0.04500001 -0.10694177 1 -0 -0 84 84 84 255
-0.074999996 -0.04500001 -0.12477173 1 -0 -0 84 84 84 255
-0.074999996 0.044999983 -0.10694177 1 -0 -0 84 84 84 255
0.074999996 0.105 -0.10694177 0 -0 1 84 84 84 255
-0.074999996 0.105 -0.10694177 0 -0 1 84 84 84 255
0.074999996 0.125 -0.08694176 -0.5773506 -0.5773499 0.5773503 84 84 84 255
0.074999996 0.105 -0.10694177 -0.5773506 -0.5773499 0.5773503 84 84 84 255
0.094999984 0.105 -0.08694176 -0.5773506 -0.5773499 0.5773503 84 84 84 255
0.074999996 0.125 0.04727397 -0.8125201 -0.4759628 -0.3365567 84 84 84 255
0.094999984 0.105 0.027273985 -0.8125201 -0.4759628 -0.3365567 84 84 84 255
0.074999996 0.105 0.07555824 -0.8125201 -0.4759628 -0.3365567 84 84 84 255
0.074999996 0.044999983 -0.10694177 -1 -0 -0 84 84 84 255
0.074999996 -0.04500001 -0.12477173 -1 -0 -0 84 84 84 255
0.074999996 -0.04500001 -0.10694177 -1 -0 -0 84 84 84 255
0.074999996 0.044999983 -0.12477173 -1 -0 -0 84 84 84 255
-0.04500001 0.074999996 -0.12477173 0.7071071 -0.7071065 6.4071853E-22 84 84 84 255
-0.074999996 0.044999983 -0.10694177 0.7071071 -0.7071065 6.4071853E-22 84 84 84 255
-0.074999996 0.044999983 -0.12477173 0.7071071 -0.7071065 6.4071853E-22 84 84 84 255
-0.04500001 0.074999996 -0.10694177 0.7071071 -0.7071065 6.4071853E-22 84 84 84 255
0.044999983 0.074999996 -0.10694177 0 -1 -0 84 84 84 255
-0.04500001 0.074999996 -0.12477173 0 -1 -0 84 84 84 255
0.044999983 0.074999996 -0.12477173 0 -1 -0 84 84 84 255
-0.04500001 0.074999996 -0.10694177 0 -1 -0 84 84 84 255
0.044999983 0.074999996 -0.10694177 -0.70710677 -0.70710677 3.9829167E-17 84 84 84 255
0.074999996 0.044999983 -0.12477173 -0.70710677 -0.70710677 3.9829167E-17 84 84 84 255
0.074999996 0.044999983 -0.10694177 -0.70710677 -0.70710677 3.9829167E-17 84 84 84 255
0.044999983 0.074999996 -0.12477173 -0.70710677 -0.70710677 3.9829167E-17 84 84 84 255
0.052928925 0.047928933 -0.12477173 1.1058691E-15 1.16049504E-29 1 199 199 199 255
0.05792894 -0.052928925 -0.12477173 1.1058691E-15 1.16049504E-29 1 199 199 199 255
0.05792894 0.052928925 -0.12477173 1.1058691E-15 1.16049504E-29 1 199 199 199 255
0.052928925 -0.047928933 -0.12477173 1.1058691E-15 1.16049504E-29 1 199 199 199 255
0.05069619 0.03857264 -0.12477173 1.1058691E-15 1.16049504E-29 1 199 199 199 255
0.047928933 0.052928925 -0.12477173 1.1058691E-15 1.16049504E-29 1 199 199 199 255
0.03857264 0.05069619 -0.12477173 1.1058691E-15 1.16049504E-29 1 199 199 199 255
0.044999983 0.074999996 -0.12477173 1.1058691E-15 1.16049504E-29 1 199 199 199 255
-0.04500001 0.074999996 -0.12477173 1.1058691E-15 1.16049504E-29 1 199 199 199 255
0.021427361 0.05069619 -0.12477173 1.1058691E-15 1.16049504E-29 1 199 199 199 255
0.009303817 0.03857264 -0.12477173 1.1058691E-15 1.16049504E-29 1 199 199 199 255
-0.009303817 0.03857264 -0.12477173 1.1058691E-15 1.16049504E-29 1 199 199 199 255
0.009303817 -0.03857264 -0.12477173 1.1058691E-15 1.16049504E-29 1 199 199 199 255
-0.021427361 0.05069619 -0.12477173 1.1058691E-15 1.16049504E-29 1 199 199 199 255
-0.03857264 0.05069619 -0.12477173 1.1058691E-15 1.16049504E-29 1 199 199 199 255
-0.047928933 0.052928925 -0.12477173 1.1058691E-15 1.16049504E-29 1 199 199 199 255
-0.05069619 0.03857264 -0.12477173 1.1058691E-15 1.16049504E-29 1 199 199 199 255
-0.052928925 0.047928933 -0.12477173 1.1058691E-15 1.16049504E-29 1 199 199 199 255
-0.05069619 -0.03857264 -0.12477173 1.1058691E-15 1.16049504E-29 1 199 199 199 255
-0.052928925 0.05792894 -0.12477173 1.1058691E-15 1.16049504E-29 1 199 199 199 255
-0.074999996 0.044999983 -0.12477173 1.1058691E-15 1.16049504E-29 1 199 199 199 255
-0.05792894 0.052928925 -0.12477173 1.1058691E-15 1.16049504E-29 1 199 199 199 255
-0.05792894 -0.052928925 -0.12477173 1.1058691E-15 1.16049504E-29 1 199 199 199 255
-0.04500001 -0.074999996 -0.12477173 1.1058691E-15 1.16049504E-29 1 199 199 199 255
-0.052928925 -0.05792894 -0.12477173 1.1058691E-15 1.16049504E-29 1 199 199 199 255
-0.074999996 -0.04500001 -0.12477173 1.1058691E-15 1.16049504E-29 1 199 199 199 255
-0.047928933 -0.052928925 -0.12477173 1.1058691E-15 1.16049504E-29 1 199 199 199 255
0.05069619 -0.03857264 -0.12477173 1.1058691E-15 1.16049504E-29 1 199 199 199 255
0.047928933 -0.052928925 -0.12477173 1.1058691E-15 1.16049504E-29 1 199 199 199 255
0.03857264 -0.05069619 -0.12477173 1.1058691E-15 1.16049504E-29 1 199 199 199 255
0.044999983 -0.074999996 -0.12477173 1.1058691E-15 1.16049504E-29 1 199 199 199 255
0.021427361 -0.05069619 -0.12477173 1.1058691E-15 1.16049504E-29 1 199 199 199 255
-0.009303817 -0.03857264 -0.12477173 1.1058691E-15 1.16049504E-29 1 199 199 199 255
-0.021427361 -0.05069619 -0.12477173 1.1058691E-15 1.16049504E-29 1 199 199 199 255
-0.03857264 -0.05069619 -0.12477173 1.1058691E-15 1.16049504E-29 1 199 199 199 255
-0.052928925 -0.047928933 -0.12477173 1.1058691E-15 1.16049504E-29 1 199 199 199 255
0.074999996 0.044999983 -0.12477173 1.1058691E-15 1.16049504E-29 1 199 199 199 255
0.074999996 -0.04500001 -0.12477173 1.1058691E-15 1.16049504E-29 1 199 199 199 255
0.052928925 0.05792894 -0.12477173 1.1058691E-15 1.16049504E-29 1 199 199 199 255
0.052928925 -0.05792894 -0.12477173 1.1058691E-15 1.16049504E-29 1 199 199 199 255
0.05069619 -0.03857264 -0.11477171 0.70710677 -0.70710677 -0 84 84 84 255
0.03857264 -0.05069619 -0.12477173 0.70710677 -0.70710677 -0 84 84 84 255
0.05069619 -0.03857264 -0.12477173 0.70710677 -0.70710677 -0 84 84 84 255
0.03857264 -0.05069619 -0.11477171 0.70710677 -0.70710677 -0 84 84 84 255
0.05069619 -0.021427361 -0.12477173 1 -0 -0 84 84 84 255
0.05069619 -0.03857264 -0.11477171 1 -0 -0 84 84 84 255
0.05069619 -0.03857264 -0.12477173 1 -0 -0 84 84 84 255
0.05069619 -0.021427361 -0.11477171 1 -0 -0 84 84 84 255
0.03857264 -0.009303817 -0.11477171 0 -0 1 84 84 84 255
0.05069619 -0.03857264 -0.11477171 0 -0 1 84 84 84 255
0.05069619 -0.021427361 -0.11477171 0 -0 1 84 84 84 255
0.03857264 -0.05069619 -0.11477171 0 -0 1 84 84 84 255
0.021427361 -0.009303817 -0.11477171 0 -0 1 84 84 84 255
0.021427361 -0.05069619 -0.11477171 0 -0 1 84 84 84 255
0.009303817 -0.021427361 -0.11477171 0 -0 1 84 84 84 255
0.009303817 -0.03857264 -0.11477171 0 -0 1 84 84 84 255
0.03857264 -0.05069619 -0.11477171 0 -1 -0 84 84 84 255
0.021427361 -0.05069619 -0.12477173 0 -1 -0 84 84 84 255
0.03857264 -0.05069619 -0.12477173 0 -1 -0 84 84 84 255
0.021427361 -0.05069619 -0.11477171 0 -1 -0 84 84 84 255
0.03857264 -0.009303817 -0.11477171 0.70710677 0.70710677 -0 84 84 84 255
0.05069619 -0.021427361 -0.12477173 0.70710677 0.70710677 -0 84 84 84 255
0.03857264 -0.009303817 -0.12477173 0.70710677 0.70710677 -0 84 84 84 255
0.05069619 -0.021427361 -0.11477171 0.70710677 0.70710677 -0 84 84 84 255
0.009303817 -0.021427361 -0.12477173 -0.70710677 0.70710677 9.8728125E-31 84 84 84 255
0.021427361 -0.009303817 -0.11477171 -0.70710677 0.70710677 9.8728125E-31 84 84 84 255
0.021427361 -0.009303817 -0.12477173 -0.70710677 0.70710677 9.8728125E-31 84 84 84 255
0.009303817 -0.021427361 -0.11477171 -0.70710677 0.70710677 9.8728125E-31 84 84 84 255
0.009303817 -0.021427361 -0.11477171 -1 -0 -0 84 84 84 255
0.009303817 -0.03857264 -0.12477173 -1 -0 -0 84 84 84 255
0.009303817 -0.03857264 -0.11477171 -1 -0 -0 84 84 84 255
0.009303817 -0.021427361 -0.12477173 -1 -0 -0 84 84 84 255
0.009303817 -0.03857264 -0.11477171 -0.70710677 -0.70710677 -3.1655018E-17 84 84 84 255
0.021427361 -0.05069619 -0.12477173 -0.70710677 -0.70710677 -3.1655018E-17 84 84 84 255
0.021427361 -0.05069619 -0.11477171 -0.70710677 -0.70710677 -3.1655018E-17 84 84 84 255
0.009303817 -0.03857264 -0.12477173 -0.70710677 -0.70710677 -3.1655018E-17 84 84 84 255
0.021427361 -0.009303817 -0.12477173 0 1 -0 84 84 84 255
0.03857264 -0.009303817 -0.11477171 0 1 -0 84 84 84 255
0.03857264 -0.009303817 -0.12477173 0 1 -0 84 84 84 255
0.021427361 -0.009303817 -0.11477171 0 1 -0 84 84 84 255
0.052928925 -0.047928933 -0.12477173 2.255975E-15 2.865076E-21 1 84 84 84 255
0.052928925 -0.05792894 -0.12477173 2.255975E-15 2.865076E-21 1 84 84 84 255
0.05792894 -0.052928925 -0.12477173 2.255975E-15 2.865076E-21 1 84 84 84 255
0.047928933 -0.052928925 -0.12477173 2.255975E-15 2.865076E-21 1 84 84 84 255
-0.021427361 0.009303817 -0.12477173 1.123104E-15 -4.447034E-32 1 199 199 199 255
-0.009303817 -0.021427361 -0.12477173 1.123104E-15 -4.447034E-32 1 199 199 199 255
-0.009303817 0.021427361 -0.12477173 1.123104E-15 -4.447034E-32 1 199 199 199 255
-0.021427361 -0.009303817 -0.12477173 1.123104E-15 -4.447034E-32 1 199 199 199 255
-0.03857264 0.009303817 -0.12477173 1.123104E-15 -4.447034E-32 1 199 199 199 255
-0.03857264 -0.009303817 -0.12477173 1.123104E-15 -4.447034E-32 1 199 199 199 255
-0.05069619 0.021427361 -0.12477173 1.123104E-15 -4.447034E-32 1 199 199 199 255
-0.05069619 -0.021427361 -0.12477173 1.123104E-15 -4.447034E-32 1 199 199 199 255
0.03857264 0.009303817 -0.12477173 1.123104E-15 -1.257951E-31 1 199 199 199 255
0.05069619 -0.021427361 -0.12477173 1.123104E-15 -1.257951E-31 1 199 199 199 255
0.05069619 0.021427361 -0.12477173 1.123104E-15 -1.257951E-31 1 199 199 199 255
0.03857264 -0.009303817 -0.12477173 1.123104E-15 -1.257951E-31 1 199 199 199 255
0.021427361 0.009303817 -0.12477173 1.123104E-15 -1.257951E-31 1 199 199 199 255
0.021427361 -0.009303817 -0.12477173 1.123104E-15 -1.257951E-31 1 199 199 199 255
0.009303817 0.021427361 -0.12477173 1.123104E-15 -1.257951E-31 1 199 199 199 255
0.009303817 -0.021427361 -0.12477173 1.123104E-15 -1.257951E-31 1 199 199 199 255
-0.052928925 0.05792894 -0.12477173 0 -0 1 84 84 84 255
-0.052928925 0.047928933 -0.12477173 0 -0 1 84 84 84 255
-0.047928933 0.052928925 -0.12477173 0 -0 1 84 84 84 255
-0.05792894 0.052928925 -0.12477173 0 -0 1 84 84 84 255
-0.052928925 -0.047928933 -0.12477173 0 -0 1 84 84 84 255
-0.052928925 -0.05792894 -0.12477173 0 -0 1 84 84 84 255
-0.047928933 -0.052928925 -0.12477173 0 -0 1 84 84 84 255
-0.05792894 -0.052928925 -0.12477173 0 -0 1 84 84 84 255
3 0 1 2
3 1 0 3
3 4 5 6
3 5 4 7
3 7 4 8
3 7 8 9
3 9 8 10
3 9 10 11
3 12 13 14
3 13 12 15
3 16 17 18
3 17 16 19
3 20 21 22
3 21 20 23
3 24 25 26
3 25 24 27
3 28 29 30
3 29 28 31
3 32 33 34
3 33 32 35
3 36 37 38
3 37 36 39
3 40 41 42
3 41 40 43
3 44 45 46
3 45 44 47
3 48 49 50
3 49 48 51
3 52 53 54
3 53 52 55
3 55 52 56
3 55 56 57
3 57 56 58
3 57 58 59
3 60 61 62
3 61 60 63
3 64 65 66
3 65 64 67
3 68 69 70
3 69 68 71
3 72 73 74
3 73 72 75
3 76 77 78
3 77 76 79
3 80 81 82
3 81 80 83
3 84 85 86
3 85 84 87
3 88 89 90
3 89 88 91
3 92 93 94
3 93 92 95
3 95 92 96
3 95 96 97
3 97 96 98
3 97 98 99
3 100 101 102
3 101 100 103
3 104 105 106
3 105 104 107
3 108 109 110
3 109 108 111
3 112 113 114
3 113 112 115
3 116 117 118
3 117 116 119
3 120 121 122
3 121 120 123
3 124 125 126
3 127 128 129
3 128 127 130
3 131 132 133
3 132 131 134
3 135 136 137
3 136 135 138
3 139 140 141
3 140 139 142
3 143 144 145
3 146 147 148
3 147 146 149
3 150 151 152
3 153 154 155
3 154 153 156
3 156 153 157
3 156 157 158
3 158 157 159
3 159 157 160
3 159 160 161
3 155 162 163
3 162 155 164
3 164 155 154
3 163 162 165
3 163 165 161
3 163 161 166
3 166 161 160
3 167 168 169
3 170 171 172
3 171 170 173
3 174 175 176
3 175 174 177
3 178 179 180
3 179 178 181
3 182 183 184
3 183 182 185
3 186 187 188
3 187 186 189
3 190 191 192
3 191 190 193
3 194 195 196
3 195 194 197
3 198 199 200
3 199 198 201
3 202 203 204
3 203 202 205
3 206 207 208
3 209 210 211
3 210 209 212
3 212 209 213
3 212 213 214
3 214 213 215
3 215 213 216
3 215 216 217
3 211 218 219
3 218 211 220
3 220 211 210
3 219 218 221
3 219 221 217
3 219 217 222
3 222 217 216
3 223 224 225
3 226 227 228
3 227 226 229
3 230 231 232
3 233 234 235
3 234 233 236
3 237 238 239
3 240 241 242
3 241 240 243
3 243 240 244
3 243 244 245
3 246 247 248
3 249 250 251
3 250 249 252
3 252 249 253
3 253 249 254
3 255 256 257
3 256 255 258
3 259 260 261
3 260 259 262
3 263 264 265
3 264 263 266
3 267 268 269
3 268 267 270
3 271 272 273
3 272 271 274
3 275 276 277
3 276 275 278
3 278 275 279
3 279 275 280
3 281 242 282
3 242 281 240
3 240 281 283
3 240 283 244
3 244 283 284
3 244 284 245
3 285 286 287
3 286 285 288
3 289 290 291
3 290 289 292
3 293 294 295
3 294 293 296
3 297 298 299
3 300 301 302
3 301 300 303
3 304 281 282
3 281 304 305
3 281 305 283
3 283 305 284
3 306 307 308
3 309 310 311
3 312 313 314
3 313 312 315
3 316 317 318
3 317 316 319
3 320 321 322
3 321 320 323
3 324 325 326
3 325 324 327
3 328 329 330
3 329 328 331
3 331 328 332
3 332 328 333
3 332 333 334
3 334 333 335
3 334 335 336
3 334 336 337
3 337 336 338
3 338 336 339
3 338 339 340
3 339 336 341
3 341 336 342
3 342 336 343
3 342 343 344
3 344 343 345
3 344 345 346
3 336 347 343
3 347 336 348
3 347 348 349
3 349 348 350
3 351 352 353
3 352 351 354
3 353 352 350
3 353 350 348
3 331 355 356
3 355 331 332
3 356 355 357
3 356 357 358
3 358 357 351
3 351 357 359
3 351 359 340
3 351 340 360
3 360 340 339
3 351 360 361
3 351 361 362
3 351 362 354
3 354 362 346
3 354 346 363
3 363 346 345
3 363 345 349
3 363 349 350
3 364 330 365
3 330 364 335
3 330 335 366
3 366 335 333
3 365 329 358
3 329 365 330
3 358 329 367
3 358 367 356
3 368 369 370
3 369 368 371
3 372 373 374
3 373 372 375
3 376 377 378
3 377 376 379
3 379 376 380
3 379 380 381
3 381 380 382
3 381 382 383
3 384 385 386
3 385 384 387
3 388 389 390
3 389 388 391
3 392 393 394
3 393 392 395
3 396 397 398
3 397 396 399
3 400 401 402
3 401 400 403
3 404 405 406
3 405 404 407
3 408 409 410
3 409 408 411
3 412 413 414
3 413 412 415
3 415 412 416
3 415 416 417
3 417 416 418
3 417 418 419
3 420 421 422
3 421 420 423
3 423 420 424
3 423 424 425
3 425 424 426
3 425 426 427
3 428 429 430
3 429 428 431
3 432 433 434
3 433 432 435

