ply
format ascii 1.0
commentY29udmVydGVyIGJ5IENvZGVMZW9wYXJk
comment Original mesh name: 'C:\Program Files (x86)\Steam\steamapps\common\Stormworks\rom\meshes\oil_drill_rod.mesh'
comment SubMesh index: 0
comment SubMesh name: 'ID42'
comment Shader: Opaque (0)
element vertex 416
property float x
property float y
property float z
property float nx
property float ny
property float nz
property uchar red
property uchar green
property uchar blue
property uchar alpha
element face 256
property list uchar ushort vertex_index
end_header
0.030988352 -4.8 0.074812494 -0.70710677 -8.0092166E-17 -0.70710677 153 84 61 255
0.074812494 -5 0.030988352 -0.70710677 -8.0092166E-17 -0.70710677 153 84 61 255
0.030988352 -5 0.074812494 -0.70710677 -8.0092166E-17 -0.70710677 153 84 61 255
0.074812494 -4.8 0.030988352 -0.70710677 -8.0092166E-17 -0.70710677 153 84 61 255
-0.030988352 -5 0.074812494 3.112229E-16 -1.779826E-16 -1 204 112 81 255
0.030988352 -4.8 0.074812494 3.112229E-16 -1.779826E-16 -1 204 112 81 255
0.030988352 -5 0.074812494 3.112229E-16 -1.779826E-16 -1 204 112 81 255
-0.030988352 -4.8 0.074812494 3.112229E-16 -1.779826E-16 -1 204 112 81 255
-0.074812494 -4.8 0.030988352 0.70710677 -1.1272228E-16 -0.70710677 204 112 81 255
-0.030988352 -5 0.074812494 0.70710677 -1.1272228E-16 -0.70710677 204 112 81 255
-0.074812494 -5 0.030988352 0.70710677 -1.1272228E-16 -0.70710677 204 112 81 255
-0.030988352 -4.8 0.074812494 0.70710677 -1.1272228E-16 -0.70710677 204 112 81 255
-0.030988352 -4.8 0.074812494 3.2354607E-16 -0.21898979 -0.9757271 204 112 81 255
0.0263401 -4.7500005 0.06359062 3.2354607E-16 -0.21898979 -0.9757271 204 112 81 255
0.030988352 -4.8 0.074812494 3.2354607E-16 -0.21898979 -0.9757271 204 112 81 255
-0.0263401 -4.7500005 0.06359062 3.2354607E-16 -0.21898979 -0.9757271 204 112 81 255
-0.074812494 -5 -0.030988352 1 7.904016E-33 1.5561149E-16 204 112 81 255
-0.074812494 -4.8 0.030988352 1 7.904016E-33 1.5561149E-16 204 112 81 255
-0.074812494 -5 0.030988352 1 7.904016E-33 1.5561149E-16 204 112 81 255
-0.074812494 -4.8 -0.030988352 1 7.904016E-33 1.5561149E-16 204 112 81 255
-0.074812494 -4.8 0.030988352 0.6899433 -0.2189898 -0.6899433 204 112 81 255
-0.0263401 -4.7500005 0.06359062 0.6899433 -0.2189898 -0.6899433 204 112 81 255
-0.030988352 -4.8 0.074812494 0.6899433 -0.2189898 -0.6899433 204 112 81 255
-0.06359062 -4.7500005 0.0263401 0.6899433 -0.2189898 -0.6899433 204 112 81 255
0.0263401 -4.7500005 0.06359062 -0.6899433 -0.2189898 -0.6899433 204 112 81 255
0.074812494 -4.8 0.030988352 -0.6899433 -0.2189898 -0.6899433 204 112 81 255
0.030988352 -4.8 0.074812494 -0.6899433 -0.2189898 -0.6899433 204 112 81 255
0.06359062 -4.7500005 0.0263401 -0.6899433 -0.2189898 -0.6899433 204 112 81 255
-0.030988352 -4.8 -0.074812494 0.70710677 1.1272228E-16 0.70710677 204 112 81 255
-0.074812494 -5 -0.030988352 0.70710677 1.1272228E-16 0.70710677 204 112 81 255
-0.030988352 -5 -0.074812494 0.70710677 1.1272228E-16 0.70710677 204 112 81 255
-0.074812494 -4.8 -0.030988352 0.70710677 1.1272228E-16 0.70710677 204 112 81 255
-0.074812494 -4.8 -0.030988352 0.9757271 -0.21898979 2.4469779E-16 204 112 81 255
-0.06359062 -4.7500005 0.0263401 0.9757271 -0.21898979 2.4469779E-16 204 112 81 255
-0.074812494 -4.8 0.030988352 0.9757271 -0.21898979 2.4469779E-16 204 112 81 255
-0.06359062 -4.7500005 -0.0263401 0.9757271 -0.21898979 2.4469779E-16 204 112 81 255
0.06359062 -4.7500005 0.0263401 -0.9757271 -0.21898979 1.1852549E-16 204 112 81 255
0.074812494 -4.8 -0.030988352 -0.9757271 -0.21898979 1.1852549E-16 204 112 81 255
0.074812494 -4.8 0.030988352 -0.9757271 -0.21898979 1.1852549E-16 204 112 81 255
0.06359062 -4.7500005 -0.0263401 -0.9757271 -0.21898979 1.1852549E-16 204 112 81 255
-0.030988352 -4.8 -0.074812494 -3.112229E-16 1.779826E-16 1 204 112 81 255
0.030988352 -5 -0.074812494 -3.112229E-16 1.779826E-16 1 204 112 81 255
0.030988352 -4.8 -0.074812494 -3.112229E-16 1.779826E-16 1 204 112 81 255
-0.030988352 -5 -0.074812494 -3.112229E-16 1.779826E-16 1 204 112 81 255
-0.0263401 -4.7500005 -0.06359062 0.6899433 -0.2189898 0.6899433 204 112 81 255
-0.074812494 -4.8 -0.030988352 0.6899433 -0.2189898 0.6899433 204 112 81 255
-0.030988352 -4.8 -0.074812494 0.6899433 -0.2189898 0.6899433 204 112 81 255
-0.06359062 -4.7500005 -0.0263401 0.6899433 -0.2189898 0.6899433 204 112 81 255
0.074812494 -4.8 0.030988352 -1 -0 -0 204 112 81 255
0.074812494 -5 -0.030988352 -1 -0 -0 204 112 81 255
0.074812494 -5 0.030988352 -1 -0 -0 204 112 81 255
0.074812494 -4.8 -0.030988352 -1 -0 -0 204 112 81 255
0.074812494 -4.8 -0.030988352 -0.6899433 -0.2189898 0.6899433 204 112 81 255
0.0263401 -4.7500005 -0.06359062 -0.6899433 -0.2189898 0.6899433 204 112 81 255
0.030988352 -4.8 -0.074812494 -0.6899433 -0.2189898 0.6899433 204 112 81 255
0.06359062 -4.7500005 -0.0263401 -0.6899433 -0.2189898 0.6899433 204 112 81 255
0.074812494 -4.8 -0.030988352 -0.70710677 4.7462022E-17 0.70710677 204 112 81 255
0.030988352 -5 -0.074812494 -0.70710677 4.7462022E-17 0.70710677 204 112 81 255
0.074812494 -5 -0.030988352 -0.70710677 4.7462022E-17 0.70710677 204 112 81 255
0.030988352 -4.8 -0.074812494 -0.70710677 4.7462022E-17 0.70710677 204 112 81 255
0.0263401 -4.7500005 -0.06359062 -3.250904E-16 -0.21898979 0.9757271 204 112 81 255
-0.030988352 -4.8 -0.074812494 -3.250904E-16 -0.21898979 0.9757271 204 112 81 255
0.030988352 -4.8 -0.074812494 -3.250904E-16 -0.21898979 0.9757271 204 112 81 255
-0.0263401 -4.7500005 -0.06359062 -3.250904E-16 -0.21898979 0.9757271 204 112 81 255
0.06359062 -4.7500005 -0.0263401 0 -1 9.738798E-16 51 45 39 255
-0.0263401 -4.7500005 -0.06359062 0 -1 9.738798E-16 51 45 39 255
0.0263401 -4.7500005 -0.06359062 0 -1 9.738798E-16 51 45 39 255
-0.06359062 -4.7500005 -0.0263401 0 -1 9.738798E-16 51 45 39 255
0.06359062 -4.7500005 0.0263401 0 -1 9.738798E-16 51 45 39 255
-0.06359062 -4.7500005 0.0263401 0 -1 9.738798E-16 51 45 39 255
0.0263401 -4.7500005 0.06359062 0 -1 9.738798E-16 51 45 39 255
-0.0263401 -4.7500005 0.06359062 0 -1 9.738798E-16 51 45 39 255
-0.06359062 4.7500005 -0.0263401 0 1 -9.738798E-16 51 45 39 255
0.0263401 4.7500005 -0.06359062 0 1 -9.738798E-16 51 45 39 255
-0.0263401 4.7500005 -0.06359062 0 1 -9.738798E-16 51 45 39 255
0.06359062 4.7500005 -0.0263401 0 1 -9.738798E-16 51 45 39 255
-0.06359062 4.7500005 0.0263401 0 1 -9.738798E-16 51 45 39 255
0.06359062 4.7500005 0.0263401 0 1 -9.738798E-16 51 45 39 255
-0.0263401 4.7500005 0.06359062 0 1 -9.738798E-16 51 45 39 255
0.0263401 4.7500005 0.06359062 0 1 -9.738798E-16 51 45 39 255
-0.0534375 4.8500004 -0.022134537 0 1 -9.738798E-16 51 45 39 255
0.022134537 4.8500004 -0.0534375 0 1 -9.738798E-16 51 45 39 255
-0.022134537 4.8500004 -0.0534375 0 1 -9.738798E-16 51 45 39 255
0.0534375 4.8500004 -0.022134537 0 1 -9.738798E-16 51 45 39 255
-0.0534375 4.8500004 0.022134537 0 1 -9.738798E-16 51 45 39 255
0.0534375 4.8500004 0.022134537 0 1 -9.738798E-16 51 45 39 255
-0.022134537 4.8500004 0.0534375 0 1 -9.738798E-16 51 45 39 255
0.022134537 4.8500004 0.0534375 0 1 -9.738798E-16 51 45 39 255
0.022134537 4.8500004 0.0534375 0 -1 9.738798E-16 0 0 0 255
-0.022134537 4.8500004 0.0534375 0 -1 9.738798E-16 0 0 0 255
0.0534375 4.8500004 0.022134537 0 -1 9.738798E-16 0 0 0 255
-0.0534375 4.8500004 0.022134537 0 -1 9.738798E-16 0 0 0 255
0.0534375 4.8500004 -0.022134537 0 -1 9.738798E-16 0 0 0 255
-0.0534375 4.8500004 -0.022134537 0 -1 9.738798E-16 0 0 0 255
0.022134537 4.8500004 -0.0534375 0 -1 9.738798E-16 0 0 0 255
-0.022134537 4.8500004 -0.0534375 0 -1 9.738798E-16 0 0 0 255
-0.0534375 5 -0.022134537 1 2.107738E-32 2.1785601E-16 51 45 39 255
-0.0534375 4.8500004 0.022134537 1 2.107738E-32 2.1785601E-16 51 45 39 255
-0.0534375 4.8500004 -0.022134537 1 2.107738E-32 2.1785601E-16 51 45 39 255
-0.0534375 5 0.022134537 1 2.107738E-32 2.1785601E-16 51 45 39 255
-0.0534375 5 0.022134537 0.70710677 -8.0092166E-17 -0.70710677 51 45 39 255
-0.022134537 4.8500004 0.0534375 0.70710677 -8.0092166E-17 -0.70710677 51 45 39 255
-0.0534375 4.8500004 0.022134537 0.70710677 -8.0092166E-17 -0.70710677 51 45 39 255
-0.022134537 5 0.0534375 0.70710677 -8.0092166E-17 -0.70710677 51 45 39 255
-0.022134537 4.8500004 -0.0534375 0.70710677 3.2630148E-17 0.70710677 51 45 39 255
-0.0534375 5 -0.022134537 0.70710677 3.2630148E-17 0.70710677 51 45 39 255
-0.0534375 4.8500004 -0.022134537 0.70710677 3.2630148E-17 0.70710677 51 45 39 255
-0.022134537 5 -0.0534375 0.70710677 3.2630148E-17 0.70710677 51 45 39 255
-0.022134537 4.8500004 0.0534375 2.1785601E-16 -1.779826E-16 -1 51 45 39 255
0.022134537 5 0.0534375 2.1785601E-16 -1.779826E-16 -1 51 45 39 255
0.022134537 4.8500004 0.0534375 2.1785601E-16 -1.779826E-16 -1 51 45 39 255
-0.022134537 5 0.0534375 2.1785601E-16 -1.779826E-16 -1 51 45 39 255
-0.022134537 5 -0.0534375 -4.3571213E-16 1.779826E-16 1 51 45 39 255
0.022134537 4.8500004 -0.0534375 -4.3571213E-16 1.779826E-16 1 51 45 39 255
0.022134537 5 -0.0534375 -4.3571213E-16 1.779826E-16 1 51 45 39 255
-0.022134537 4.8500004 -0.0534375 -4.3571213E-16 1.779826E-16 1 51 45 39 255
0.022134537 4.8500004 0.0534375 -0.70710677 -3.2630148E-17 -0.70710677 51 45 39 255
0.0534375 5 0.022134537 -0.70710677 -3.2630148E-17 -0.70710677 51 45 39 255
0.0534375 4.8500004 0.022134537 -0.70710677 -3.2630148E-17 -0.70710677 51 45 39 255
0.022134537 5 0.0534375 -0.70710677 -3.2630148E-17 -0.70710677 51 45 39 255
0.0534375 5 -0.022134537 -0.70710677 8.0092166E-17 0.70710677 51 45 39 255
0.022134537 4.8500004 -0.0534375 -0.70710677 8.0092166E-17 0.70710677 51 45 39 255
0.0534375 4.8500004 -0.022134537 -0.70710677 8.0092166E-17 0.70710677 51 45 39 255
0.022134537 5 -0.0534375 -0.70710677 8.0092166E-17 0.70710677 51 45 39 255
0.0534375 4.8500004 0.022134537 -1 -0 -0 51 45 39 255
0.0534375 5 -0.022134537 -1 -0 -0 51 45 39 255
0.0534375 4.8500004 -0.022134537 -1 -0 -0 51 45 39 255
0.0534375 5 0.022134537 -1 -0 -0 51 45 39 255
-0.0534375 5 0.022134537 -1 -2.107738E-32 -2.1785601E-16 30 30 30 255
-0.0534375 5 -0.022134537 -1 -2.107738E-32 -2.1785601E-16 30 30 30 255
-0.0534375 4.8500004 0.022134537 -1 -2.107738E-32 -2.1785601E-16 30 30 30 255
-0.0534375 4.8500004 -0.022134537 -1 -2.107738E-32 -2.1785601E-16 30 30 30 255
-0.022134537 5 0.0534375 -0.70710677 8.0092166E-17 0.70710677 30 30 30 255
-0.0534375 5 0.022134537 -0.70710677 8.0092166E-17 0.70710677 30 30 30 255
-0.022134537 4.8500004 0.0534375 -0.70710677 8.0092166E-17 0.70710677 30 30 30 255
-0.0534375 4.8500004 0.022134537 -0.70710677 8.0092166E-17 0.70710677 30 30 30 255
-0.022134537 5 -0.0534375 -0.70710677 -3.2630148E-17 -0.70710677 30 30 30 255
-0.022134537 4.8500004 -0.0534375 -0.70710677 -3.2630148E-17 -0.70710677 30 30 30 255
-0.0534375 5 -0.022134537 -0.70710677 -3.2630148E-17 -0.70710677 30 30 30 255
-0.0534375 4.8500004 -0.022134537 -0.70710677 -3.2630148E-17 -0.70710677 30 30 30 255
-0.022134537 5 0.0534375 -2.1785601E-16 1.779826E-16 1 30 30 30 255
-0.022134537 4.8500004 0.0534375 -2.1785601E-16 1.779826E-16 1 30 30 30 255
0.022134537 5 0.0534375 -2.1785601E-16 1.779826E-16 1 30 30 30 255
0.022134537 4.8500004 0.0534375 -2.1785601E-16 1.779826E-16 1 30 30 30 255
-0.022134537 4.8500004 -0.0534375 4.3571213E-16 -1.779826E-16 -1 30 30 30 255
-0.022134537 5 -0.0534375 4.3571213E-16 -1.779826E-16 -1 30 30 30 255
0.022134537 4.8500004 -0.0534375 4.3571213E-16 -1.779826E-16 -1 30 30 30 255
0.022134537 5 -0.0534375 4.3571213E-16 -1.779826E-16 -1 30 30 30 255
0.022134537 5 0.0534375 0.70710677 3.2630148E-17 0.70710677 30 30 30 255
0.022134537 4.8500004 0.0534375 0.70710677 3.2630148E-17 0.70710677 30 30 30 255
0.0534375 5 0.022134537 0.70710677 3.2630148E-17 0.70710677 30 30 30 255
0.0534375 4.8500004 0.022134537 0.70710677 3.2630148E-17 0.70710677 30 30 30 255
0.022134537 5 -0.0534375 0.70710677 -8.0092166E-17 -0.70710677 30 30 30 255
0.0534375 5 -0.022134537 0.70710677 -8.0092166E-17 -0.70710677 30 30 30 255
0.022134537 4.8500004 -0.0534375 0.70710677 -8.0092166E-17 -0.70710677 30 30 30 255
0.0534375 4.8500004 -0.022134537 0.70710677 -8.0092166E-17 -0.70710677 30 30 30 255
0.0534375 5 0.022134537 1 -0 -0 30 30 30 255
0.0534375 4.8500004 0.022134537 1 -0 -0 30 30 30 255
0.0534375 5 -0.022134537 1 -0 -0 30 30 30 255
0.0534375 4.8500004 -0.022134537 1 -0 -0 30 30 30 255
0.0534375 -4.8500004 -0.022134537 0 -1 9.738798E-16 51 45 39 255
-0.022134537 -4.8500004 -0.0534375 0 -1 9.738798E-16 51 45 39 255
0.022134537 -4.8500004 -0.0534375 0 -1 9.738798E-16 51 45 39 255
-0.0534375 -4.8500004 -0.022134537 0 -1 9.738798E-16 51 45 39 255
0.0534375 -4.8500004 0.022134537 0 -1 9.738798E-16 51 45 39 255
-0.0534375 -4.8500004 0.022134537 0 -1 9.738798E-16 51 45 39 255
0.022134537 -4.8500004 0.0534375 0 -1 9.738798E-16 51 45 39 255
-0.022134537 -4.8500004 0.0534375 0 -1 9.738798E-16 51 45 39 255
-0.022134537 -4.8500004 0.0534375 0 1 -9.738798E-16 0 0 0 255
0.022134537 -4.8500004 0.0534375 0 1 -9.738798E-16 0 0 0 255
-0.0534375 -4.8500004 0.022134537 0 1 -9.738798E-16 0 0 0 255
0.0534375 -4.8500004 0.022134537 0 1 -9.738798E-16 0 0 0 255
-0.0534375 -4.8500004 -0.022134537 0 1 -9.738798E-16 0 0 0 255
0.0534375 -4.8500004 -0.022134537 0 1 -9.738798E-16 0 0 0 255
-0.022134537 -4.8500004 -0.0534375 0 1 -9.738798E-16 0 0 0 255
0.022134537 -4.8500004 -0.0534375 0 1 -9.738798E-16 0 0 0 255
-0.022134537 -5 0.0534375 4.3571213E-16 -1.779826E-16 -1 51 45 39 255
0.022134537 -4.8500004 0.0534375 4.3571213E-16 -1.779826E-16 -1 51 45 39 255
0.022134537 -5 0.0534375 4.3571213E-16 -1.779826E-16 -1 51 45 39 255
-0.022134537 -4.8500004 0.0534375 4.3571213E-16 -1.779826E-16 -1 51 45 39 255
-0.0534375 -4.8500004 0.022134537 0.70710677 -3.2630148E-17 -0.70710677 51 45 39 255
-0.022134537 -5 0.0534375 0.70710677 -3.2630148E-17 -0.70710677 51 45 39 255
-0.0534375 -5 0.022134537 0.70710677 -3.2630148E-17 -0.70710677 51 45 39 255
-0.022134537 -4.8500004 0.0534375 0.70710677 -3.2630148E-17 -0.70710677 51 45 39 255
0.022134537 -4.8500004 0.0534375 -0.70710677 -1.1272228E-16 -0.70710677 51 45 39 255
0.0534375 -5 0.022134537 -0.70710677 -1.1272228E-16 -0.70710677 51 45 39 255
0.022134537 -5 0.0534375 -0.70710677 -1.1272228E-16 -0.70710677 51 45 39 255
0.0534375 -4.8500004 0.022134537 -0.70710677 -1.1272228E-16 -0.70710677 51 45 39 255
-0.0534375 -4.8500004 -0.022134537 1 5.9280125E-33 2.1785601E-16 51 45 39 255
-0.0534375 -5 0.022134537 1 5.9280125E-33 2.1785601E-16 51 45 39 255
-0.0534375 -5 -0.022134537 1 5.9280125E-33 2.1785601E-16 51 45 39 255
-0.0534375 -4.8500004 0.022134537 1 5.9280125E-33 2.1785601E-16 51 45 39 255
0.0534375 -4.8500004 0.022134537 -1 1.251469E-32 -2.1785601E-16 51 45 39 255
0.0534375 -5 -0.022134537 -1 1.251469E-32 -2.1785601E-16 51 45 39 255
0.0534375 -5 0.022134537 -1 1.251469E-32 -2.1785601E-16 51 45 39 255
0.0534375 -4.8500004 -0.022134537 -1 1.251469E-32 -2.1785601E-16 51 45 39 255
-0.022134537 -5 -0.0534375 0.70710677 9.1957675E-17 0.70710677 51 45 39 255
-0.0534375 -4.8500004 -0.022134537 0.70710677 9.1957675E-17 0.70710677 51 45 39 255
-0.0534375 -5 -0.022134537 0.70710677 9.1957675E-17 0.70710677 51 45 39 255
-0.022134537 -4.8500004 -0.0534375 0.70710677 9.1957675E-17 0.70710677 51 45 39 255
0.0534375 -4.8500004 -0.022134537 -0.70710677 -4.7462022E-17 0.70710677 51 45 39 255
0.022134537 -5 -0.0534375 -0.70710677 -4.7462022E-17 0.70710677 51 45 39 255
0.0534375 -5 -0.022134537 -0.70710677 -4.7462022E-17 0.70710677 51 45 39 255
0.022134537 -4.8500004 -0.0534375 -0.70710677 -4.7462022E-17 0.70710677 51 45 39 255
-0.022134537 -4.8500004 -0.0534375 -4.3571213E-16 1.779826E-16 1 51 45 39 255
0.022134537 -5 -0.0534375 -4.3571213E-16 1.779826E-16 1 51 45 39 255
0.022134537 -4.8500004 -0.0534375 -4.3571213E-16 1.779826E-16 1 51 45 39 255
-0.022134537 -5 -0.0534375 -4.3571213E-16 1.779826E-16 1 51 45 39 255
-0.022134537 -4.8500004 0.0534375 -4.3571213E-16 1.779826E-16 1 30 30 30 255
-0.022134537 -5 0.0534375 -4.3571213E-16 1.779826E-16 1 30 30 30 255
0.022134537 -4.8500004 0.0534375 -4.3571213E-16 1.779826E-16 1 30 30 30 255
0.022134537 -5 0.0534375 -4.3571213E-16 1.779826E-16 1 30 30 30 255
-0.022134537 -4.8500004 0.0534375 -0.70710677 3.2630148E-17 0.70710677 30 30 30 255
-0.0534375 -4.8500004 0.022134537 -0.70710677 3.2630148E-17 0.70710677 30 30 30 255
-0.022134537 -5 0.0534375 -0.70710677 3.2630148E-17 0.70710677 30 30 30 255
-0.0534375 -5 0.022134537 -0.70710677 3.2630148E-17 0.70710677 30 30 30 255
0.0534375 -4.8500004 0.022134537 0.70710677 1.1272228E-16 0.70710677 30 30 30 255
0.022134537 -4.8500004 0.0534375 0.70710677 1.1272228E-16 0.70710677 30 30 30 255
0.0534375 -5 0.022134537 0.70710677 1.1272228E-16 0.70710677 30 30 30 255
0.022134537 -5 0.0534375 0.70710677 1.1272228E-16 0.70710677 30 30 30 255
-0.0534375 -4.8500004 0.022134537 -1 -5.9280125E-33 -2.1785601E-16 30 30 30 255
-0.0534375 -4.8500004 -0.022134537 -1 -5.9280125E-33 -2.1785601E-16 30 30 30 255
-0.0534375 -5 0.022134537 -1 -5.9280125E-33 -2.1785601E-16 30 30 30 255
-0.0534375 -5 -0.022134537 -1 -5.9280125E-33 -2.1785601E-16 30 30 30 255
0.0534375 -4.8500004 -0.022134537 1 -1.251469E-32 2.1785601E-16 30 30 30 255
0.0534375 -4.8500004 0.022134537 1 -1.251469E-32 2.1785601E-16 30 30 30 255
0.0534375 -5 -0.022134537 1 -1.251469E-32 2.1785601E-16 30 30 30 255
0.0534375 -5 0.022134537 1 -1.251469E-32 2.1785601E-16 30 30 30 255
-0.022134537 -4.8500004 -0.0534375 -0.70710677 -9.1957675E-17 -0.70710677 30 30 30 255
-0.022134537 -5 -0.0534375 -0.70710677 -9.1957675E-17 -0.70710677 30 30 30 255
-0.0534375 -4.8500004 -0.022134537 -0.70710677 -9.1957675E-17 -0.70710677 30 30 30 255
-0.0534375 -5 -0.022134537 -0.70710677 -9.1957675E-17 -0.70710677 30 30 30 255
0.022134537 -4.8500004 -0.0534375 0.70710677 4.7462022E-17 -0.70710677 30 30 30 255
0.0534375 -4.8500004 -0.022134537 0.70710677 4.7462022E-17 -0.70710677 30 30 30 255
0.022134537 -5 -0.0534375 0.70710677 4.7462022E-17 -0.70710677 30 30 30 255
0.0534375 -5 -0.022134537 0.70710677 4.7462022E-17 -0.70710677 30 30 30 255
-0.022134537 -5 -0.0534375 4.3571213E-16 -1.779826E-16 -1 30 30 30 255
-0.022134537 -4.8500004 -0.0534375 4.3571213E-16 -1.779826E-16 -1 30 30 30 255
0.022134537 -5 -0.0534375 4.3571213E-16 -1.779826E-16 -1 30 30 30 255
0.022134537 -4.8500004 -0.0534375 4.3571213E-16 -1.779826E-16 -1 30 30 30 255
-0.030988352 5 -0.074812494 0 1 -9.738798E-16 51 45 39 255
-0.022134537 5 -0.0534375 0 1 -9.738798E-16 51 45 39 255
0.030988352 5 -0.074812494 0 1 -9.738798E-16 51 45 39 255
-0.074812494 5 -0.030988352 0 1 -9.738798E-16 51 45 39 255
-0.0534375 5 -0.022134537 0 1 -9.738798E-16 51 45 39 255
-0.074812494 5 0.030988352 0 1 -9.738798E-16 51 45 39 255
-0.0534375 5 0.022134537 0 1 -9.738798E-16 51 45 39 255
-0.022134537 5 0.0534375 0 1 -9.738798E-16 51 45 39 255
-0.030988352 5 0.074812494 0 1 -9.738798E-16 51 45 39 255
0.022134537 5 0.0534375 0 1 -9.738798E-16 51 45 39 255
0.022134537 5 -0.0534375 0 1 -9.738798E-16 51 45 39 255
0.074812494 5 -0.030988352 0 1 -9.738798E-16 51 45 39 255
0.0534375 5 -0.022134537 0 1 -9.738798E-16 51 45 39 255
0.074812494 5 0.030988352 0 1 -9.738798E-16 51 45 39 255
0.0534375 5 0.022134537 0 1 -9.738798E-16 51 45 39 255
0.030988352 5 0.074812494 0 1 -9.738798E-16 51 45 39 255
-0.030988352 5 0.074812494 0 -1 9.738798E-16 204 112 81 255
0.022134537 5 0.0534375 0 -1 9.738798E-16 204 112 81 255
0.030988352 5 0.074812494 0 -1 9.738798E-16 204 112 81 255
0.074812494 5 0.030988352 0 -1 9.738798E-16 204 112 81 255
0.0534375 5 0.022134537 0 -1 9.738798E-16 204 112 81 255
0.0534375 5 -0.022134537 0 -1 9.738798E-16 204 112 81 255
0.074812494 5 -0.030988352 0 -1 9.738798E-16 204 112 81 255
0.022134537 5 -0.0534375 0 -1 9.738798E-16 204 112 81 255
-0.022134537 5 -0.0534375 0 -1 9.738798E-16 204 112 81 255
0.030988352 5 -0.074812494 0 -1 9.738798E-16 204 112 81 255
-0.022134537 5 0.0534375 0 -1 9.738798E-16 204 112 81 255
-0.074812494 5 0.030988352 0 -1 9.738798E-16 204 112 81 255
-0.0534375 5 0.022134537 0 -1 9.738798E-16 204 112 81 255
-0.0534375 5 -0.022134537 0 -1 9.738798E-16 204 112 81 255
-0.074812494 5 -0.030988352 0 -1 9.738798E-16 204 112 81 255
-0.030988352 5 -0.074812494 0 -1 9.738798E-16 204 112 81 255
0.030988352 -5 -0.074812494 0 -1 9.738798E-16 51 45 39 255
0.022134537 -5 -0.0534375 0 -1 9.738798E-16 51 45 39 255
-0.030988352 -5 -0.074812494 0 -1 9.738798E-16 51 45 39 255
0.074812494 -5 -0.030988352 0 -1 9.738798E-16 51 45 39 255
0.0534375 -5 -0.022134537 0 -1 9.738798E-16 51 45 39 255
0.074812494 -5 0.030988352 0 -1 9.738798E-16 51 45 39 255
0.0534375 -5 0.022134537 0 -1 9.738798E-16 51 45 39 255
0.022134537 -5 0.0534375 0 -1 9.738798E-16 51 45 39 255
0.030988352 -5 0.074812494 0 -1 9.738798E-16 51 45 39 255
-0.022134537 -5 0.0534375 0 -1 9.738798E-16 51 45 39 255
-0.022134537 -5 -0.0534375 0 -1 9.738798E-16 51 45 39 255
-0.074812494 -5 -0.030988352 0 -1 9.738798E-16 51 45 39 255
-0.0534375 -5 -0.022134537 0 -1 9.738798E-16 51 45 39 255
-0.074812494 -5 0.030988352 0 -1 9.738798E-16 51 45 39 255
-0.0534375 -5 0.022134537 0 -1 9.738798E-16 51 45 39 255
-0.030988352 -5 0.074812494 0 -1 9.738798E-16 51 45 39 255
0.030988352 -5 0.074812494 0 1 -9.738798E-16 204 112 81 255
-0.022134537 -5 0.0534375 0 1 -9.738798E-16 204 112 81 255
-0.030988352 -5 0.074812494 0 1 -9.738798E-16 204 112 81 255
-0.074812494 -5 0.030988352 0 1 -9.738798E-16 204 112 81 255
-0.0534375 -5 0.022134537 0 1 -9.738798E-16 204 112 81 255
-0.0534375 -5 -0.022134537 0 1 -9.738798E-16 204 112 81 255
-0.074812494 -5 -0.030988352 0 1 -9.738798E-16 204 112 81 255
-0.022134537 -5 -0.0534375 0 1 -9.738798E-16 204 112 81 255
0.022134537 -5 -0.0534375 0 1 -9.738798E-16 204 112 81 255
-0.030988352 -5 -0.074812494 0 1 -9.738798E-16 204 112 81 255
0.022134537 -5 0.0534375 0 1 -9.738798E-16 204 112 81 255
0.074812494 -5 0.030988352 0 1 -9.738798E-16 204 112 81 255
0.0534375 -5 0.022134537 0 1 -9.738798E-16 204 112 81 255
0.0534375 -5 -0.022134537 0 1 -9.738798E-16 204 112 81 255
0.074812494 -5 -0.030988352 0 1 -9.738798E-16 204 112 81 255
0.030988352 -5 -0.074812494 0 1 -9.738798E-16 204 112 81 255
0.0263401 4.7500005 0.06359062 -0.70710677 -3.5596527E-17 -0.70710677 51 45 39 255
0.06359062 -4.7500005 0.0263401 -0.70710677 -3.5596527E-17 -0.70710677 51 45 39 255
0.0263401 -4.7500005 0.06359062 -0.70710677 -3.5596527E-17 -0.70710677 51 45 39 255
0.06359062 4.7500005 0.0263401 -0.70710677 -3.5596527E-17 -0.70710677 51 45 39 255
-0.0263401 -4.7500005 0.06359062 3.661446E-16 -1.779826E-16 -1 51 45 39 255
0.0263401 4.7500005 0.06359062 3.661446E-16 -1.779826E-16 -1 51 45 39 255
0.0263401 -4.7500005 0.06359062 3.661446E-16 -1.779826E-16 -1 51 45 39 255
-0.0263401 4.7500005 0.06359062 3.661446E-16 -1.779826E-16 -1 51 45 39 255
0.06359062 -4.7500005 0.0263401 -1 -0 -0 51 45 39 255
0.06359062 4.7500005 -0.0263401 -1 -0 -0 51 45 39 255
0.06359062 -4.7500005 -0.0263401 -1 -0 -0 51 45 39 255
0.06359062 4.7500005 0.0263401 -1 -0 -0 51 45 39 255
-0.06359062 4.7500005 0.0263401 0.70710677 -3.2630148E-17 -0.70710677 51 45 39 255
-0.0263401 -4.7500005 0.06359062 0.70710677 -3.2630148E-17 -0.70710677 51 45 39 255
-0.06359062 -4.7500005 0.0263401 0.70710677 -3.2630148E-17 -0.70710677 51 45 39 255
-0.0263401 4.7500005 0.06359062 0.70710677 -3.2630148E-17 -0.70710677 51 45 39 255
0.06359062 4.7500005 -0.0263401 -0.70710677 -0 0.70710677 51 45 39 255
0.0263401 -4.7500005 -0.06359062 -0.70710677 -0 0.70710677 51 45 39 255
0.06359062 -4.7500005 -0.0263401 -0.70710677 -0 0.70710677 51 45 39 255
0.0263401 4.7500005 -0.06359062 -0.70710677 -0 0.70710677 51 45 39 255
-0.06359062 4.7500005 -0.0263401 1 -0 -0 51 45 39 255
-0.06359062 -4.7500005 0.0263401 1 -0 -0 51 45 39 255
-0.06359062 -4.7500005 -0.0263401 1 -0 -0 51 45 39 255
-0.06359062 4.7500005 0.0263401 1 -0 -0 51 45 39 255
-0.0263401 4.7500005 -0.06359062 -3.661446E-16 1.779826E-16 1 51 45 39 255
0.0263401 -4.7500005 -0.06359062 -3.661446E-16 1.779826E-16 1 51 45 39 255
0.0263401 4.7500005 -0.06359062 -3.661446E-16 1.779826E-16 1 51 45 39 255
-0.0263401 -4.7500005 -0.06359062 -3.661446E-16 1.779826E-16 1 51 45 39 255
-0.0263401 -4.7500005 -0.06359062 0.70710677 3.2630148E-17 0.70710677 51 45 39 255
-0.06359062 4.7500005 -0.0263401 0.70710677 3.2630148E-17 0.70710677 51 45 39 255
-0.06359062 -4.7500005 -0.0263401 0.70710677 3.2630148E-17 0.70710677 51 45 39 255
-0.0263401 4.7500005 -0.06359062 0.70710677 3.2630148E-17 0.70710677 51 45 39 255
-0.074812494 4.8 -0.030988352 0 1 -9.738798E-16 51 45 39 255
0.030988352 4.8 -0.074812494 0 1 -9.738798E-16 51 45 39 255
-0.030988352 4.8 -0.074812494 0 1 -9.738798E-16 51 45 39 255
0.074812494 4.8 -0.030988352 0 1 -9.738798E-16 51 45 39 255
-0.074812494 4.8 0.030988352 0 1 -9.738798E-16 51 45 39 255
0.074812494 4.8 0.030988352 0 1 -9.738798E-16 51 45 39 255
-0.030988352 4.8 0.074812494 0 1 -9.738798E-16 51 45 39 255
0.030988352 4.8 0.074812494 0 1 -9.738798E-16 51 45 39 255
0.030988352 4.8 0.074812494 -0.70710677 -8.0092166E-17 -0.70710677 204 112 81 255
0.074812494 5 0.030988352 -0.70710677 -8.0092166E-17 -0.70710677 204 112 81 255
0.074812494 4.8 0.030988352 -0.70710677 -8.0092166E-17 -0.70710677 204 112 81 255
0.030988352 5 0.074812494 -0.70710677 -8.0092166E-17 -0.70710677 204 112 81 255
0.074812494 5 0.030988352 -1 -0 -0 204 112 81 255
0.074812494 4.8 -0.030988352 -1 -0 -0 204 112 81 255
0.074812494 4.8 0.030988352 -1 -0 -0 204 112 81 255
0.074812494 5 -0.030988352 -1 -0 -0 204 112 81 255
0.030988352 4.8 0.074812494 -0.6899433 0.2189898 -0.6899433 204 112 81 255
0.06359062 4.7500005 0.0263401 -0.6899433 0.2189898 -0.6899433 204 112 81 255
0.0263401 4.7500005 0.06359062 -0.6899433 0.2189898 -0.6899433 204 112 81 255
0.074812494 4.8 0.030988352 -0.6899433 0.2189898 -0.6899433 204 112 81 255
-0.030988352 4.8 0.074812494 3.112229E-16 -1.779826E-16 -1 204 112 81 255
0.030988352 5 0.074812494 3.112229E-16 -1.779826E-16 -1 204 112 81 255
0.030988352 4.8 0.074812494 3.112229E-16 -1.779826E-16 -1 204 112 81 255
-0.030988352 5 0.074812494 3.112229E-16 -1.779826E-16 -1 204 112 81 255
0.074812494 5 -0.030988352 -0.70710677 4.7462022E-17 0.70710677 204 112 81 255
0.030988352 4.8 -0.074812494 -0.70710677 4.7462022E-17 0.70710677 204 112 81 255
0.074812494 4.8 -0.030988352 -0.70710677 4.7462022E-17 0.70710677 204 112 81 255
0.030988352 5 -0.074812494 -0.70710677 4.7462022E-17 0.70710677 204 112 81 255
0.074812494 4.8 0.030988352 -0.9757271 0.21898979 -1.5293608E-17 204 112 81 255
0.06359062 4.7500005 -0.0263401 -0.9757271 0.21898979 -1.5293608E-17 204 112 81 255
0.06359062 4.7500005 0.0263401 -0.9757271 0.21898979 -1.5293608E-17 204 112 81 255
0.074812494 4.8 -0.030988352 -0.9757271 0.21898979 -1.5293608E-17 204 112 81 255
0.0263401 4.7500005 0.06359062 3.2354607E-16 0.21898979 -0.9757271 204 112 81 255
-0.030988352 4.8 0.074812494 3.2354607E-16 0.21898979 -0.9757271 204 112 81 255
0.030988352 4.8 0.074812494 3.2354607E-16 0.21898979 -0.9757271 204 112 81 255
-0.0263401 4.7500005 0.06359062 3.2354607E-16 0.21898979 -0.9757271 204 112 81 255
-0.074812494 5 0.030988352 0.70710677 -1.1272228E-16 -0.70710677 204 112 81 255
-0.030988352 4.8 0.074812494 0.70710677 -1.1272228E-16 -0.70710677 204 112 81 255
-0.074812494 4.8 0.030988352 0.70710677 -1.1272228E-16 -0.70710677 204 112 81 255
-0.030988352 5 0.074812494 0.70710677 -1.1272228E-16 -0.70710677 204 112 81 255
-0.030988352 5 -0.074812494 -3.112229E-16 1.779826E-16 1 204 112 81 255
0.030988352 4.8 -0.074812494 -3.112229E-16 1.779826E-16 1 204 112 81 255
0.030988352 5 -0.074812494 -3.112229E-16 1.779826E-16 1 204 112 81 255
-0.030988352 4.8 -0.074812494 -3.112229E-16 1.779826E-16 1 204 112 81 255
0.074812494 4.8 -0.030988352 -0.6899433 0.2189898 0.6899433 204 112 81 255
0.0263401 4.7500005 -0.06359062 -0.6899433 0.2189898 0.6899433 204 112 81 255
0.06359062 4.7500005 -0.0263401 -0.6899433 0.2189898 0.6899433 204 112 81 255
0.030988352 4.8 -0.074812494 -0.6899433 0.2189898 0.6899433 204 112 81 255
-0.074812494 4.8 0.030988352 0.6899433 0.2189898 -0.6899433 204 112 81 255
-0.0263401 4.7500005 0.06359062 0.6899433 0.2189898 -0.6899433 204 112 81 255
-0.06359062 4.7500005 0.0263401 0.6899433 0.2189898 -0.6899433 204 112 81 255
-0.030988352 4.8 0.074812494 0.6899433 0.2189898 -0.6899433 204 112 81 255
-0.074812494 4.8 -0.030988352 1 7.245348E-33 1.5561149E-16 204 112 81 255
-0.074812494 5 0.030988352 1 7.245348E-33 1.5561149E-16 204 112 81 255
-0.074812494 4.8 0.030988352 1 7.245348E-33 1.5561149E-16 204 112 81 255
-0.074812494 5 -0.030988352 1 7.245348E-33 1.5561149E-16 204 112 81 255
-0.030988352 4.8 -0.074812494 0.70710677 1.1272228E-16 0.70710677 204 112 81 255
-0.074812494 5 -0.030988352 0.70710677 1.1272228E-16 0.70710677 204 112 81 255
-0.074812494 4.8 -0.030988352 0.70710677 1.1272228E-16 0.70710677 204 112 81 255
-0.030988352 5 -0.074812494 0.70710677 1.1272228E-16 0.70710677 204 112 81 255
-0.030988352 4.8 -0.074812494 -3.250904E-16 0.21898979 0.9757271 204 112 81 255
0.0263401 4.7500005 -0.06359062 -3.250904E-16 0.21898979 0.9757271 204 112 81 255
0.030988352 4.8 -0.074812494 -3.250904E-16 0.21898979 0.9757271 204 112 81 255
-0.0263401 4.7500005 -0.06359062 -3.250904E-16 0.21898979 0.9757271 204 112 81 255
-0.074812494 4.8 -0.030988352 0.9757271 0.21898979 -1.5293608E-17 204 112 81 255
-0.06359062 4.7500005 0.0263401 0.9757271 0.21898979 -1.5293608E-17 204 112 81 255
-0.06359062 4.7500005 -0.0263401 0.9757271 0.21898979 -1.5293608E-17 204 112 81 255
-0.074812494 4.8 0.030988352 0.9757271 0.21898979 -1.5293608E-17 204 112 81 255
-0.030988352 4.8 -0.074812494 0.6899433 0.2189898 0.6899433 204 112 81 255
-0.06359062 4.7500005 -0.0263401 0.6899433 0.2189898 0.6899433 204 112 81 255
-0.0263401 4.7500005 -0.06359062 0.6899433 0.2189898 0.6899433 204 112 81 255
-0.074812494 4.8 -0.030988352 0.6899433 0.2189898 0.6899433 204 112 81 255
0.074812494 -4.8 -0.030988352 0 -1 9.738798E-16 51 45 39 255
-0.030988352 -4.8 -0.074812494 0 -1 9.738798E-16 51 45 39 255
0.030988352 -4.8 -0.074812494 0 -1 9.738798E-16 51 45 39 255
-0.074812494 -4.8 -0.030988352 0 -1 9.738798E-16 51 45 39 255
0.074812494 -4.8 0.030988352 0 -1 9.738798E-16 51 45 39 255
-0.074812494 -4.8 0.030988352 0 -1 9.738798E-16 51 45 39 255
0.030988352 -4.8 0.074812494 0 -1 9.738798E-16 51 45 39 255
-0.030988352 -4.8 0.074812494 0 -1 9.738798E-16 51 45 39 255
3 0 1 2
3 1 0 3
3 4 5 6
3 5 4 7
3 8 9 10
3 9 8 11
3 12 13 14
3 13 12 15
3 16 17 18
3 17 16 19
3 20 21 22
3 21 20 23
3 24 25 26
3 25 24 27
3 28 29 30
3 29 28 31
3 32 33 34
3 33 32 35
3 36 37 38
3 37 36 39
3 40 41 42
3 41 40 43
3 44 45 46
3 45 44 47
3 48 49 50
3 49 48 51
3 52 53 54
3 53 52 55
3 56 57 58
3 57 56 59
3 60 61 62
3 61 60 63
3 64 65 66
3 65 64 67
3 67 64 68
3 67 68 69
3 69 68 70
3 69 70 71
3 72 73 74
3 73 72 75
3 75 72 76
3 75 76 77
3 77 76 78
3 77 78 79
3 80 81 82
3 81 80 83
3 83 80 84
3 83 84 85
3 85 84 86
3 85 86 87
3 88 89 90
3 89 91 90
3 90 91 92
3 91 93 92
3 92 93 94
3 95 94 93
3 96 97 98
3 97 96 99
3 100 101 102
3 101 100 103
3 104 105 106
3 105 104 107
3 108 109 110
3 109 108 111
3 112 113 114
3 113 112 115
3 116 117 118
3 117 116 119
3 120 121 122
3 121 120 123
3 124 125 126
3 125 124 127
3 128 129 130
3 131 130 129
3 132 133 134
3 135 134 133
3 136 137 138
3 139 138 137
3 140 141 142
3 143 142 141
3 144 145 146
3 147 146 145
3 148 149 150
3 151 150 149
3 152 153 154
3 155 154 153
3 156 157 158
3 159 158 157
3 160 161 162
3 161 160 163
3 163 160 164
3 163 164 165
3 165 164 166
3 165 166 167
3 168 169 170
3 169 171 170
3 170 171 172
3 171 173 172
3 172 173 174
3 175 174 173
3 176 177 178
3 177 176 179
3 180 181 182
3 181 180 183
3 184 185 186
3 185 184 187
3 188 189 190
3 189 188 191
3 192 193 194
3 193 192 195
3 196 197 198
3 197 196 199
3 200 201 202
3 201 200 203
3 204 205 206
3 205 204 207
3 208 209 210
3 211 210 209
3 212 213 214
3 215 214 213
3 216 217 218
3 219 218 217
3 220 221 222
3 223 222 221
3 224 225 226
3 227 226 225
3 228 229 230
3 231 230 229
3 232 233 234
3 235 234 233
3 236 237 238
3 239 238 237
3 240 241 242
3 241 240 243
3 241 243 244
3 244 243 245
3 244 245 246
3 246 245 247
3 247 245 248
3 247 248 249
3 242 250 251
3 250 242 241
3 251 250 252
3 251 252 253
3 253 252 254
3 253 254 249
3 253 249 255
3 255 249 248
3 256 257 258
3 258 257 259
3 257 260 259
3 260 261 259
3 259 261 262
3 261 263 262
3 264 265 263
3 262 263 265
3 257 256 266
3 256 267 266
3 266 267 268
3 268 267 269
3 267 270 269
3 269 270 264
3 270 271 264
3 265 264 271
3 272 273 274
3 273 272 275
3 273 275 276
3 276 275 277
3 276 277 278
3 278 277 279
3 279 277 280
3 279 280 281
3 274 282 283
3 282 274 273
3 283 282 284
3 283 284 285
3 285 284 286
3 285 286 281
3 285 281 287
3 287 281 280
3 288 289 290
3 290 289 291
3 289 292 291
3 292 293 291
3 291 293 294
3 293 295 294
3 296 297 295
3 294 295 297
3 289 288 298
3 288 299 298
3 298 299 300
3 300 299 301
3 299 302 301
3 301 302 296
3 302 303 296
3 297 296 303
3 304 305 306
3 305 304 307
3 308 309 310
3 309 308 311
3 312 313 314
3 313 312 315
3 316 317 318
3 317 316 319
3 320 321 322
3 321 320 323
3 324 325 326
3 325 324 327
3 328 329 330
3 329 328 331
3 332 333 334
3 333 332 335
3 336 337 338
3 337 336 339
3 339 336 340
3 339 340 341
3 341 340 342
3 341 342 343
3 344 345 346
3 345 344 347
3 348 349 350
3 349 348 351
3 352 353 354
3 353 352 355
3 356 357 358
3 357 356 359
3 360 361 362
3 361 360 363
3 364 365 366
3 365 364 367
3 368 369 370
3 369 368 371
3 372 373 374
3 373 372 375
3 376 377 378
3 377 376 379
3 380 381 382
3 381 380 383
3 384 385 386
3 385 384 387
3 388 389 390
3 389 388 391
3 392 393 394
3 393 392 395
3 396 397 398
3 397 396 399
3 400 401 402
3 401 400 403
3 404 405 406
3 405 404 407
3 408 409 410
3 409 408 411
3 411 408 412
3 411 412 413
3 413 412 414
3 413 414 415

