ply
format ascii 1.0
commentY29udmVydGVyIGJ5IENvZGVMZW9wYXJk
comment Original mesh name: 'C:\Program Files (x86)\Steam\steamapps\common\Stormworks\rom\meshes\radar_advanced_phalanx_base.mesh'
comment SubMesh index: 0
comment SubMesh name: 'ID19'
comment Shader: Opaque (0)
element vertex 104
property float x
property float y
property float z
property float nx
property float ny
property float nz
property uchar red
property uchar green
property uchar blue
property uchar alpha
element face 66
property list uchar ushort vertex_index
end_header
0.120000005 0.36000004 -0.055832345 0 -0 1 84 84 84 255
0.35999998 -0.120000005 -0.055832345 0 -0 1 84 84 84 255
0.35999998 0.12000003 -0.055832345 0 -0 1 84 84 84 255
0.120000005 -0.35999998 -0.055832345 0 -0 1 84 84 84 255
-0.12000003 0.36000004 -0.055832345 0 -0 1 84 84 84 255
-0.12000003 -0.35999998 -0.055832345 0 -0 1 84 84 84 255
-0.36000004 0.12000003 -0.055832345 0 -0 1 84 84 84 255
-0.36000004 -0.120000005 -0.055832345 0 -0 1 84 84 84 255
0.37499997 0.12500001 -0.075 -1 -0 -0 255 125 0 255
0.37499997 -0.12499997 -0.125 -1 -0 -0 255 125 0 255
0.37499997 -0.12499997 -0.075 -1 -0 -0 255 125 0 255
0.37499997 0.12500001 -0.125 -1 -0 -0 255 125 0 255
0.36031213 -0.12010413 -0.055416167 -0.8000007 1.289129E-18 -0.599999 255 125 0 255
0.37499997 0.12500001 -0.075 -0.8000007 1.289129E-18 -0.599999 255 125 0 255
0.37499997 -0.12499997 -0.075 -0.8000007 1.289129E-18 -0.599999 255 125 0 255
0.35999998 -0.120000005 -0.05499999 -0.8000007 1.289129E-18 -0.599999 255 125 0 255
0.36031213 0.12010419 -0.055416167 -0.8000007 1.289129E-18 -0.599999 255 125 0 255
0.35999998 0.12000003 -0.05499999 -0.8000007 1.289129E-18 -0.599999 255 125 0 255
0.12499997 -0.37499997 -0.075 0 -0 -1 255 125 0 255
0.37499997 0.12500001 -0.075 0 -0 -1 255 125 0 255
0.37499997 -0.12499997 -0.075 0 -0 -1 255 125 0 255
0.12499997 0.37499997 -0.075 0 -0 -1 255 125 0 255
-0.12500001 -0.37499997 -0.075 0 -0 -1 255 125 0 255
-0.12500001 0.37499997 -0.075 0 -0 -1 255 125 0 255
-0.37499997 -0.12499997 -0.075 0 -0 -1 255 125 0 255
-0.37499997 0.12500001 -0.075 0 -0 -1 255 125 0 255
0.12499997 0.37499997 -0.075 -0.70710677 -0.70710677 -2.8790076E-31 255 125 0 255
0.37499997 0.12500001 -0.125 -0.70710677 -0.70710677 -2.8790076E-31 255 125 0 255
0.37499997 0.12500001 -0.075 -0.70710677 -0.70710677 -2.8790076E-31 255 125 0 255
0.12499997 0.37499997 -0.125 -0.70710677 -0.70710677 -2.8790076E-31 255 125 0 255
0.37499997 -0.12499997 -0.075 -0.70710677 0.70710677 -2.8790076E-31 255 125 0 255
0.12499997 -0.37499997 -0.125 -0.70710677 0.70710677 -2.8790076E-31 255 125 0 255
0.12499997 -0.37499997 -0.075 -0.70710677 0.70710677 -2.8790076E-31 255 125 0 255
0.37499997 -0.12499997 -0.125 -0.70710677 0.70710677 -2.8790076E-31 255 125 0 255
0.12010413 -0.36031213 -0.055416167 -0.5773508 0.5773508 -0.5773493 255 125 0 255
0.37499997 -0.12499997 -0.075 -0.5773508 0.5773508 -0.5773493 255 125 0 255
0.12499997 -0.37499997 -0.075 -0.5773508 0.5773508 -0.5773493 255 125 0 255
0.120000005 -0.35999998 -0.05499999 -0.5773508 0.5773508 -0.5773493 255 125 0 255
0.35999998 -0.120000005 -0.05499999 -0.5773508 0.5773508 -0.5773493 255 125 0 255
0.36031213 -0.12010413 -0.055416167 -0.5773508 0.5773508 -0.5773493 255 125 0 255
0.36031213 0.12010419 -0.055416167 -0.5773508 -0.5773508 -0.5773493 255 125 0 255
0.12499997 0.37499997 -0.075 -0.5773508 -0.5773508 -0.5773493 255 125 0 255
0.37499997 0.12500001 -0.075 -0.5773508 -0.5773508 -0.5773493 255 125 0 255
0.12010413 0.36031222 -0.055416167 -0.5773508 -0.5773508 -0.5773493 255 125 0 255
0.35999998 0.12000003 -0.05499999 -0.5773508 -0.5773508 -0.5773493 255 125 0 255
0.120000005 0.36000004 -0.05499999 -0.5773508 -0.5773508 -0.5773493 255 125 0 255
-0.37499997 -0.12499997 -0.125 0.70710677 0.70710677 -0 255 125 0 255
-0.12500001 -0.37499997 -0.075 0.70710677 0.70710677 -0 255 125 0 255
-0.12500001 -0.37499997 -0.125 0.70710677 0.70710677 -0 255 125 0 255
-0.37499997 -0.12499997 -0.075 0.70710677 0.70710677 -0 255 125 0 255
-0.37499997 0.12500001 -0.125 1 -0 -0 255 125 0 255
-0.37499997 -0.12499997 -0.075 1 -0 -0 255 125 0 255
-0.37499997 -0.12499997 -0.125 1 -0 -0 255 125 0 255
-0.37499997 0.12500001 -0.075 1 -0 -0 255 125 0 255
-0.12500001 0.37499997 -0.125 0.70710677 -0.70710677 2.8790076E-31 255 125 0 255
-0.37499997 0.12500001 -0.075 0.70710677 -0.70710677 2.8790076E-31 255 125 0 255
-0.37499997 0.12500001 -0.125 0.70710677 -0.70710677 2.8790076E-31 255 125 0 255
-0.12500001 0.37499997 -0.075 0.70710677 -0.70710677 2.8790076E-31 255 125 0 255
0.12499997 0.37499997 -0.075 0 -1 -0 255 125 0 255
-0.12500001 0.37499997 -0.125 0 -1 -0 255 125 0 255
0.12499997 0.37499997 -0.125 0 -1 -0 255 125 0 255
-0.12500001 0.37499997 -0.075 0 -1 -0 255 125 0 255
-0.12500001 -0.37499997 -0.075 0 1 -0 255 125 0 255
0.12499997 -0.37499997 -0.125 0 1 -0 255 125 0 255
-0.12500001 -0.37499997 -0.125 0 1 -0 255 125 0 255
0.12499997 -0.37499997 -0.075 0 1 -0 255 125 0 255
-0.12010419 -0.36031213 -0.055416167 2.480784E-33 0.8000007 -0.599999 255 125 0 255
0.12499997 -0.37499997 -0.075 2.480784E-33 0.8000007 -0.599999 255 125 0 255
-0.12500001 -0.37499997 -0.075 2.480784E-33 0.8000007 -0.599999 255 125 0 255
0.12010413 -0.36031213 -0.055416167 2.480784E-33 0.8000007 -0.599999 255 125 0 255
-0.12000003 -0.35999998 -0.05499999 2.480784E-33 0.8000007 -0.599999 255 125 0 255
0.120000005 -0.35999998 -0.05499999 2.480784E-33 0.8000007 -0.599999 255 125 0 255
0.12010413 0.36031222 -0.055416167 -2.480784E-33 -0.8000007 -0.599999 255 125 0 255
-0.12500001 0.37499997 -0.075 -2.480784E-33 -0.8000007 -0.599999 255 125 0 255
0.12499997 0.37499997 -0.075 -2.480784E-33 -0.8000007 -0.599999 255 125 0 255
-0.12010419 0.36031222 -0.055416167 -2.480784E-33 -0.8000007 -0.599999 255 125 0 255
0.120000005 0.36000004 -0.05499999 -2.480784E-33 -0.8000007 -0.599999 255 125 0 255
-0.12000003 0.36000004 -0.05499999 -2.480784E-33 -0.8000007 -0.599999 255 125 0 255
-0.36031222 -0.12010413 -0.055416167 0.5773508 0.5773508 -0.5773493 255 125 0 255
-0.12500001 -0.37499997 -0.075 0.5773508 0.5773508 -0.5773493 255 125 0 255
-0.37499997 -0.12499997 -0.075 0.5773508 0.5773508 -0.5773493 255 125 0 255
-0.12010419 -0.36031213 -0.055416167 0.5773508 0.5773508 -0.5773493 255 125 0 255
-0.36000004 -0.120000005 -0.05499999 0.5773508 0.5773508 -0.5773493 255 125 0 255
-0.12000003 -0.35999998 -0.05499999 0.5773508 0.5773508 -0.5773493 255 125 0 255
-0.37499997 0.12500001 -0.075 0.8000007 -0 -0.599999 255 125 0 255
-0.36031222 -0.12010413 -0.055416167 0.8000007 -0 -0.599999 255 125 0 255
-0.37499997 -0.12499997 -0.075 0.8000007 -0 -0.599999 255 125 0 255
-0.36000004 -0.120000005 -0.05499999 0.8000007 -0 -0.599999 255 125 0 255
-0.36031222 0.12010419 -0.055416167 0.8000007 -0 -0.599999 255 125 0 255
-0.36000004 0.12000003 -0.05499999 0.8000007 -0 -0.599999 255 125 0 255
-0.36031222 0.12010419 -0.055416167 0.5773508 -0.5773508 -0.5773493 255 125 0 255
-0.12000003 0.36000004 -0.05499999 0.5773508 -0.5773508 -0.5773493 255 125 0 255
-0.36000004 0.12000003 -0.05499999 0.5773508 -0.5773508 -0.5773493 255 125 0 255
-0.37499997 0.12500001 -0.075 0.5773508 -0.5773508 -0.5773493 255 125 0 255
-0.12500001 0.37499997 -0.075 0.5773508 -0.5773508 -0.5773493 255 125 0 255
-0.12010419 0.36031222 -0.055416167 0.5773508 -0.5773508 -0.5773493 255 125 0 255
0.120000005 -0.35999998 -0.05499999 0 -0 -1 84 84 84 255
0.35999998 0.12000003 -0.05499999 0 -0 -1 84 84 84 255
0.35999998 -0.120000005 -0.05499999 0 -0 -1 84 84 84 255
0.120000005 0.36000004 -0.05499999 0 -0 -1 84 84 84 255
-0.12000003 -0.35999998 -0.05499999 0 -0 -1 84 84 84 255
-0.12000003 0.36000004 -0.05499999 0 -0 -1 84 84 84 255
-0.36000004 -0.120000005 -0.05499999 0 -0 -1 84 84 84 255
-0.36000004 0.12000003 -0.05499999 0 -0 -1 84 84 84 255
3 0 1 2
3 1 0 3
3 3 0 4
3 3 4 5
3 5 4 6
3 5 6 7
3 8 9 10
3 9 8 11
3 12 13 14
3 13 12 15
3 13 15 16
3 16 15 17
3 18 19 20
3 19 18 21
3 21 18 22
3 21 22 23
3 23 22 24
3 23 24 25
3 26 27 28
3 27 26 29
3 30 31 32
3 31 30 33
3 34 35 36
3 35 34 37
3 35 37 38
3 35 38 39
3 40 41 42
3 41 40 43
3 43 40 44
3 43 44 45
3 46 47 48
3 47 46 49
3 50 51 52
3 51 50 53
3 54 55 56
3 55 54 57
3 58 59 60
3 59 58 61
3 62 63 64
3 63 62 65
3 66 67 68
3 67 66 69
3 69 66 70
3 69 70 71
3 72 73 74
3 73 72 75
3 75 72 76
3 75 76 77
3 78 79 80
3 79 78 81
3 81 78 82
3 81 82 83
3 84 85 86
3 85 84 87
3 87 84 88
3 87 88 89
3 90 91 92
3 91 90 93
3 91 93 94
3 91 94 95
3 96 97 98
3 97 96 99
3 99 96 100
3 99 100 101
3 101 100 102
3 101 102 103

