ply
format ascii 1.0
commentY29udmVydGVyIGJ5IENvZGVMZW9wYXJk
comment Original mesh name: 'C:\Program Files (x86)\Steam\steamapps\common\Stormworks\rom\meshes\radar_advanced_dish_base.mesh'
comment SubMesh index: 0
comment SubMesh name: 'ID2'
comment Shader: Opaque (0)
element vertex 150
property float x
property float y
property float z
property float nx
property float ny
property float nz
property uchar red
property uchar green
property uchar blue
property uchar alpha
element face 84
property list uchar ushort vertex_index
end_header
-0.375097 0.6250142 -0.17499991 0.70710677 -0.70710677 -1.6207568E-16 84 84 84 255
-0.62509704 0.37501422 -0.2249998 0.70710677 -0.70710677 -1.6207568E-16 84 84 84 255
-0.375097 0.6250142 -0.22499983 0.70710677 -0.70710677 -1.6207568E-16 84 84 84 255
-0.62509704 0.37501422 -0.1749999 0.70710677 -0.70710677 -1.6207568E-16 84 84 84 255
-0.375097 0.6250142 -0.17499991 5.417659E-06 -1 8.12865E-05 84 84 84 255
-0.375097 0.6250142 -0.22499983 5.417659E-06 -1 8.12865E-05 84 84 84 255
-9.706889E-05 0.6250142 -0.17499997 5.417659E-06 -1 8.12865E-05 84 84 84 255
0.37490296 0.6250142 -0.22499987 5.417659E-06 -1 8.12865E-05 84 84 84 255
-0.37499997 0.625 -0.225 5.417659E-06 -1 8.12865E-05 84 84 84 255
0.37490296 0.6250142 -0.17499997 5.417659E-06 -1 8.12865E-05 84 84 84 255
0.37490296 -0.62498575 -0.17499991 -5.08E-08 -3.3875647E-08 -1 84 84 84 255
0.62490296 0.37501422 -0.17499997 -5.08E-08 -3.3875647E-08 -1 84 84 84 255
0.62490296 -0.37498575 -0.17499995 -5.08E-08 -3.3875647E-08 -1 84 84 84 255
0.37490296 0.6250142 -0.17499997 -5.08E-08 -3.3875647E-08 -1 84 84 84 255
-0.375097 -0.62498575 -0.1749999 -5.08E-08 -3.3875647E-08 -1 84 84 84 255
-9.706889E-05 0.6250142 -0.17499997 -5.08E-08 -3.3875647E-08 -1 84 84 84 255
-0.375097 0.6250142 -0.17499991 -5.08E-08 -3.3875647E-08 -1 84 84 84 255
-0.62509704 -0.37498575 -0.1749999 -5.08E-08 -3.3875647E-08 -1 84 84 84 255
-0.62509704 0.37501422 -0.1749999 -5.08E-08 -3.3875647E-08 -1 84 84 84 255
-0.62509704 0.37501422 -0.2249998 1 -0 -0 84 84 84 255
-0.62509704 -0.37498575 -0.1749999 1 -0 -0 84 84 84 255
-0.62509704 -0.37498575 -0.2249998 1 -0 -0 84 84 84 255
-0.62509704 0.37501422 -0.1749999 1 -0 -0 84 84 84 255
-0.375097 0.6250142 -0.22499983 0.0017123298 -0.0017122789 0.999997 84 84 84 255
-0.625 0.37499997 -0.225 0.0017123298 -0.0017122789 0.999997 84 84 84 255
-0.37499997 0.625 -0.225 0.0017123298 -0.0017122789 0.999997 84 84 84 255
-0.62509704 0.37501422 -0.2249998 0.0017123298 -0.0017122789 0.999997 84 84 84 255
0.37490296 0.6250142 -0.22499987 -1.359765E-07 1.942339E-08 1 84 84 84 255
0.62490296 -0.37498575 -0.22499985 -1.359765E-07 1.942339E-08 1 84 84 84 255
0.62490296 0.37501422 -0.22499987 -1.359765E-07 1.942339E-08 1 84 84 84 255
0.37490296 -0.62498575 -0.22499983 -1.359765E-07 1.942339E-08 1 84 84 84 255
-0.37499997 0.625 -0.225 -1.359765E-07 1.942339E-08 1 84 84 84 255
-0.37499997 -0.625 -0.225 -1.359765E-07 1.942339E-08 1 84 84 84 255
-0.625 0.37499997 -0.225 -1.359765E-07 1.942339E-08 1 84 84 84 255
-0.625 -0.37499997 -0.225 -1.359765E-07 1.942339E-08 1 84 84 84 255
0.37499997 0.625 -0.225 5.417662E-06 -1 2.709537E-05 84 84 84 255
-0.37499997 0.625 -0.37499997 5.417662E-06 -1 2.709537E-05 84 84 84 255
0.37499997 0.625 -0.37499997 5.417662E-06 -1 2.709537E-05 84 84 84 255
-0.37499997 0.625 -0.225 5.417662E-06 -1 2.709537E-05 84 84 84 255
0.37490296 0.6250142 -0.22499987 5.417662E-06 -1 2.709537E-05 84 84 84 255
0.62490296 0.37501422 -0.17499997 -0.70710677 -0.70710677 -0 84 84 84 255
0.37490296 0.6250142 -0.22499987 -0.70710677 -0.70710677 -0 84 84 84 255
0.62490296 0.37501422 -0.22499987 -0.70710677 -0.70710677 -0 84 84 84 255
0.37490296 0.6250142 -0.17499997 -0.70710677 -0.70710677 -0 84 84 84 255
0.62490296 0.37501422 -0.17499997 -1 -0 -0 84 84 84 255
0.62490296 -0.37498575 -0.22499985 -1 -0 -0 84 84 84 255
0.62490296 -0.37498575 -0.17499995 -1 -0 -0 84 84 84 255
0.62490296 0.37501422 -0.22499987 -1 -0 -0 84 84 84 255
0.62490296 -0.37498575 -0.17499995 -0.70710677 0.70710677 -6.1267896E-22 84 84 84 255
0.37490296 -0.62498575 -0.22499983 -0.70710677 0.70710677 -6.1267896E-22 84 84 84 255
0.37490296 -0.62498575 -0.17499991 -0.70710677 0.70710677 -6.1267896E-22 84 84 84 255
0.62490296 -0.37498575 -0.22499985 -0.70710677 0.70710677 -6.1267896E-22 84 84 84 255
-0.375097 -0.62498575 -0.2249998 -5.417655E-06 1 -8.1286635E-05 84 84 84 255
0.37490296 -0.62498575 -0.22499983 -5.417655E-06 1 -8.1286635E-05 84 84 84 255
-0.37499997 -0.625 -0.225 -5.417655E-06 1 -8.1286635E-05 84 84 84 255
0.37490296 -0.62498575 -0.17499991 -5.417655E-06 1 -8.1286635E-05 84 84 84 255
-0.375097 -0.62498575 -0.1749999 -5.417655E-06 1 -8.1286635E-05 84 84 84 255
-0.62509704 -0.37498575 -0.2249998 0.70710677 0.70710677 -0 84 84 84 255
-0.375097 -0.62498575 -0.1749999 0.70710677 0.70710677 -0 84 84 84 255
-0.375097 -0.62498575 -0.2249998 0.70710677 0.70710677 -0 84 84 84 255
-0.62509704 -0.37498575 -0.1749999 0.70710677 0.70710677 -0 84 84 84 255
-0.62509704 0.37501422 -0.2249998 0.002094236 -1.224201E-24 0.9999978 84 84 84 255
-0.625 -0.37499997 -0.225 0.002094236 -1.224201E-24 0.9999978 84 84 84 255
-0.625 0.37499997 -0.225 0.002094236 -1.224201E-24 0.9999978 84 84 84 255
-0.62509704 -0.37498575 -0.2249998 0.002094236 -1.224201E-24 0.9999978 84 84 84 255
-0.37499997 0.625 -0.37499997 0.70710677 -0.70710677 -0 84 84 84 255
-0.625 0.37499997 -0.225 0.70710677 -0.70710677 -0 84 84 84 255
-0.625 0.37499997 -0.37499997 0.70710677 -0.70710677 -0 84 84 84 255
-0.37499997 0.625 -0.225 0.70710677 -0.70710677 -0 84 84 84 255
-0.625 -0.37499997 -0.225 0.002453973 0.002453973 0.9999939 84 84 84 255
-0.375097 -0.62498575 -0.2249998 0.002453973 0.002453973 0.9999939 84 84 84 255
-0.37499997 -0.625 -0.225 0.002453973 0.002453973 0.9999939 84 84 84 255
-0.62509704 -0.37498575 -0.2249998 0.002453973 0.002453973 0.9999939 84 84 84 255
0.625 0.37499997 -0.225 -0.70710677 -0.70710677 -0 84 84 84 255
0.37499997 0.625 -0.37499997 -0.70710677 -0.70710677 -0 84 84 84 255
0.625 0.37499997 -0.37499997 -0.70710677 -0.70710677 -0 84 84 84 255
0.37499997 0.625 -0.225 -0.70710677 -0.70710677 -0 84 84 84 255
0.62490296 0.37501422 -0.22499987 -0.0015337393 -0.0015337393 -0.99999774 84 84 84 255
0.37499997 0.625 -0.225 -0.0015337393 -0.0015337393 -0.99999774 84 84 84 255
0.625 0.37499997 -0.225 -0.0015337393 -0.0015337393 -0.99999774 84 84 84 255
0.37490296 0.6250142 -0.22499987 -0.0015337393 -0.0015337393 -0.99999774 84 84 84 255
0.62490296 -0.37498575 -0.22499985 -0.001439792 -1.6933319E-08 -0.999999 84 84 84 255
0.625 0.37499997 -0.225 -0.001439792 -1.6933319E-08 -0.999999 84 84 84 255
0.625 -0.37499997 -0.225 -0.001439792 -1.6933319E-08 -0.999999 84 84 84 255
0.62490296 0.37501422 -0.22499987 -0.001439792 -1.6933319E-08 -0.999999 84 84 84 255
0.37499997 -0.625 -0.225 -0.001484021 0.001483971 -0.9999978 84 84 84 255
0.62490296 -0.37498575 -0.22499985 -0.001484021 0.001483971 -0.9999978 84 84 84 255
0.625 -0.37499997 -0.225 -0.001484021 0.001483971 -0.9999978 84 84 84 255
0.37490296 -0.62498575 -0.22499983 -0.001484021 0.001483971 -0.9999978 84 84 84 255
-0.37499997 -0.625 -0.225 -5.417661E-06 1 -2.7095379E-05 84 84 84 255
0.37499997 -0.625 -0.37499997 -5.417661E-06 1 -2.7095379E-05 84 84 84 255
-0.37499997 -0.625 -0.37499997 -5.417661E-06 1 -2.7095379E-05 84 84 84 255
0.37499997 -0.625 -0.225 -5.417661E-06 1 -2.7095379E-05 84 84 84 255
0.37490296 -0.62498575 -0.22499983 -5.417661E-06 1 -2.7095379E-05 84 84 84 255
-0.625 0.37499997 -0.37499997 1 -0 -0 84 84 84 255
-0.625 -0.37499997 -0.225 1 -0 -0 84 84 84 255
-0.625 -0.37499997 -0.37499997 1 -0 -0 84 84 84 255
-0.625 0.37499997 -0.225 1 -0 -0 84 84 84 255
-0.625 -0.37499997 -0.37499997 0.70710677 0.70710677 -0 84 84 84 255
-0.37499997 -0.625 -0.225 0.70710677 0.70710677 -0 84 84 84 255
-0.37499997 -0.625 -0.37499997 0.70710677 0.70710677 -0 84 84 84 255
-0.625 -0.37499997 -0.225 0.70710677 0.70710677 -0 84 84 84 255
0.625 0.37499997 -0.225 -1 -0 -0 84 84 84 255
0.625 -0.37499997 -0.37499997 -1 -0 -0 84 84 84 255
0.625 -0.37499997 -0.225 -1 -0 -0 84 84 84 255
0.625 0.37499997 -0.37499997 -1 -0 -0 84 84 84 255
0.625 -0.37499997 -0.225 -0.70710677 0.70710677 -0 84 84 84 255
0.37499997 -0.625 -0.37499997 -0.70710677 0.70710677 -0 84 84 84 255
0.37499997 -0.625 -0.225 -0.70710677 0.70710677 -0 84 84 84 255
0.625 -0.37499997 -0.37499997 -0.70710677 0.70710677 -0 84 84 84 255
0.35419232 0.57501405 -0.2749997 -8.255179E-08 -9.548842E-08 1 84 84 84 255
0.57490283 -0.3542751 -0.27499992 -8.255179E-08 -9.548842E-08 1 84 84 84 255
0.57490283 0.35430357 -0.2749997 -8.255179E-08 -9.548842E-08 1 84 84 84 255
0.35419232 -0.57498586 -0.27499992 -8.255179E-08 -9.548842E-08 1 84 84 84 255
-0.35438636 0.57501405 -0.27499992 -8.255179E-08 -9.548842E-08 1 84 84 84 255
-0.35438636 -0.57498586 -0.27499992 -8.255179E-08 -9.548842E-08 1 84 84 84 255
-0.57509714 0.35430357 -0.27499992 -8.255179E-08 -9.548842E-08 1 84 84 84 255
-0.57509714 -0.3542751 -0.27499992 -8.255179E-08 -9.548842E-08 1 84 84 84 255
-0.35438636 0.57501405 -0.22499983 0.7071064 -0.7071072 -0 84 84 84 255
-0.57509714 0.35430357 -0.27499992 0.7071064 -0.7071072 -0 84 84 84 255
-0.35438636 0.57501405 -0.27499992 0.7071064 -0.7071072 -0 84 84 84 255
-0.57509714 0.35430357 -0.22499983 0.7071064 -0.7071072 -0 84 84 84 255
-0.57509714 0.35430357 -0.27499992 1 -0 -0 84 84 84 255
-0.57509714 -0.3542751 -0.2249998 1 -0 -0 84 84 84 255
-0.57509714 -0.3542751 -0.27499992 1 -0 -0 84 84 84 255
-0.57509714 0.35430357 -0.22499983 1 -0 -0 84 84 84 255
-0.57509714 -0.3542751 -0.2249998 0.70710677 0.70710677 -0 84 84 84 255
-0.35438636 -0.57498586 -0.27499992 0.70710677 0.70710677 -0 84 84 84 255
-0.57509714 -0.3542751 -0.27499992 0.70710677 0.70710677 -0 84 84 84 255
-0.35438636 -0.57498586 -0.2249998 0.70710677 0.70710677 -0 84 84 84 255
-0.35438636 -0.57498586 -0.27499992 0 1 -0 84 84 84 255
0.35419232 -0.57498586 -0.22499983 0 1 -0 84 84 84 255
0.35419232 -0.57498586 -0.27499992 0 1 -0 84 84 84 255
-0.35438636 -0.57498586 -0.2249998 0 1 -0 84 84 84 255
0.57490283 -0.3542751 -0.22499985 -0.7071072 0.7071064 1.622244E-16 84 84 84 255
0.35419232 -0.57498586 -0.27499992 -0.7071072 0.7071064 1.622244E-16 84 84 84 255
0.35419232 -0.57498586 -0.22499983 -0.7071072 0.7071064 1.622244E-16 84 84 84 255
0.57490283 -0.3542751 -0.27499992 -0.7071072 0.7071064 1.622244E-16 84 84 84 255
0.57490283 0.35430357 -0.22499987 -1 -0 -0 84 84 84 255
0.57490283 -0.3542751 -0.27499992 -1 -0 -0 84 84 84 255
0.57490283 -0.3542751 -0.22499985 -1 -0 -0 84 84 84 255
0.57490283 0.35430357 -0.2749997 -1 -0 -0 84 84 84 255
0.57490283 0.35430357 -0.22499987 -0.70710677 -0.70710677 -0 84 84 84 255
0.35419232 0.57501405 -0.2749997 -0.70710677 -0.70710677 -0 84 84 84 255
0.57490283 0.35430357 -0.2749997 -0.70710677 -0.70710677 -0 84 84 84 255
0.35419232 0.57501405 -0.22499987 -0.70710677 -0.70710677 -0 84 84 84 255
0.35419232 0.57501405 -0.2749997 0 -1 -0 84 84 84 255
-0.35438636 0.57501405 -0.22499983 0 -1 -0 84 84 84 255
-0.35438636 0.57501405 -0.27499992 0 -1 -0 84 84 84 255
0.35419232 0.57501405 -0.22499987 0 -1 -0 84 84 84 255
3 0 1 2
3 1 0 3
3 4 5 6
3 7 5 8
3 5 7 9
3 5 9 6
3 10 11 12
3 11 10 13
3 13 10 14
3 13 14 15
3 15 14 16
3 16 14 17
3 16 17 18
3 19 20 21
3 20 19 22
3 23 24 25
3 24 23 26
3 27 28 29
3 28 27 30
3 30 27 31
3 30 31 32
3 32 31 33
3 32 33 34
3 35 36 37
3 36 35 38
3 38 35 39
3 40 41 42
3 41 40 43
3 44 45 46
3 45 44 47
3 48 49 50
3 49 48 51
3 52 53 54
3 53 52 55
3 55 52 56
3 57 58 59
3 58 57 60
3 61 62 63
3 62 61 64
3 65 66 67
3 66 65 68
3 69 70 71
3 70 69 72
3 73 74 75
3 74 73 76
3 77 78 79
3 78 77 80
3 81 82 83
3 82 81 84
3 85 86 87
3 86 85 88
3 89 90 91
3 90 89 92
3 92 89 93
3 94 95 96
3 95 94 97
3 98 99 100
3 99 98 101
3 102 103 104
3 103 102 105
3 106 107 108
3 107 106 109
3 110 111 112
3 111 110 113
3 113 110 114
3 113 114 115
3 115 114 116
3 115 116 117
3 118 119 120
3 119 118 121
3 122 123 124
3 123 122 125
3 126 127 128
3 127 126 129
3 130 131 132
3 131 130 133
3 134 135 136
3 135 134 137
3 138 139 140
3 139 138 141
3 142 143 144
3 143 142 145
3 146 147 148
3 147 146 149

