ply
format ascii 1.0
commentY29udmVydGVyIGJ5IENvZGVMZW9wYXJk
comment Original mesh name: 'C:\Program Files (x86)\Steam\steamapps\common\Stormworks\rom\meshes\radio_dish.mesh'
comment SubMesh index: 0
comment SubMesh name: 'ID19'
comment Shader: Opaque (0)
element vertex 542
property float x
property float y
property float z
property float nx
property float ny
property float nz
property uchar red
property uchar green
property uchar blue
property uchar alpha
element face 314
property list uchar ushort vertex_index
end_header
-0.16113502 0.16113491 7.738886E-15 -9.226287E-15 2.77132E-16 1 113 113 113 255
0.16113478 -0.16113506 2.321667E-14 -9.226287E-15 2.77132E-16 1 113 113 113 255
0.16113478 0.16113491 -7.738891E-15 -9.226287E-15 2.77132E-16 1 113 113 113 255
-0.16113502 -0.16113506 -2.3216673E-14 -9.226287E-15 2.77132E-16 1 113 113 113 255
-0.16113502 0.16113491 7.738886E-15 1 7.1253115E-15 1.281882E-13 113 113 113 255
-0.16113502 -0.16113506 0.04891 1 7.1253115E-15 1.281882E-13 113 113 113 255
-0.16113502 -0.16113506 -2.3216673E-14 1 7.1253115E-15 1.281882E-13 113 113 113 255
-0.16113502 -0.074035116 0.04891 1 7.1253115E-15 1.281882E-13 113 113 113 255
-0.16113502 0.07403491 0.04891 1 7.1253115E-15 1.281882E-13 113 113 113 255
-0.16113502 0.16113491 0.04891 1 7.1253115E-15 1.281882E-13 113 113 113 255
-0.16113502 -0.16113506 0.04891 6.04823E-15 1 -2.77132E-16 113 113 113 255
0.16113478 -0.16113506 2.321667E-14 6.04823E-15 1 -2.77132E-16 113 113 113 255
-0.16113502 -0.16113506 -2.3216673E-14 6.04823E-15 1 -2.77132E-16 113 113 113 255
0.16113478 -0.16113506 0.04891 6.04823E-15 1 -2.77132E-16 113 113 113 255
0.16113478 -0.16113506 0.04891 -1 1.4913449E-15 -9.226287E-15 113 113 113 255
0.16113478 0.16113491 -7.738891E-15 -1 1.4913449E-15 -9.226287E-15 113 113 113 255
0.16113478 -0.16113506 2.321667E-14 -1 1.4913449E-15 -9.226287E-15 113 113 113 255
0.16113478 0.16113491 0.04891 -1 1.4913449E-15 -9.226287E-15 113 113 113 255
0.16113478 0.16113491 0.04891 -4.391181E-15 -1 2.77132E-16 113 113 113 255
-0.16113502 0.16113491 7.738886E-15 -4.391181E-15 -1 2.77132E-16 113 113 113 255
0.16113478 0.16113491 -7.738891E-15 -4.391181E-15 -1 2.77132E-16 113 113 113 255
-0.16113502 0.16113491 0.04891 -4.391181E-15 -1 2.77132E-16 113 113 113 255
0.16113478 0.16113491 0.04891 2.466616E-14 -3.890044E-14 -1 113 113 113 255
0.14103484 0.07403491 0.04891 2.466616E-14 -3.890044E-14 -1 113 113 113 255
-0.16113502 0.16113491 0.04891 2.466616E-14 -3.890044E-14 -1 113 113 113 255
0.14103484 -2.3283064E-08 0.04891 2.466616E-14 -3.890044E-14 -1 113 113 113 255
-0.16113502 0.07403491 0.04891 2.466616E-14 -3.890044E-14 -1 113 113 113 255
0.16113478 -0.16113506 0.04891 2.466616E-14 -3.890044E-14 -1 113 113 113 255
0.14103484 -0.074035116 0.04891 2.466616E-14 -3.890044E-14 -1 113 113 113 255
-0.16113502 -0.16113506 0.04891 2.466616E-14 -3.890044E-14 -1 113 113 113 255
-0.16113502 -0.074035116 0.04891 2.466616E-14 -3.890044E-14 -1 113 113 113 255
-0.66135854 -0.058624476 0.624227 0.2423375 0.5112073 -0.8245845 30 30 30 255
-0.63766694 -0.046105705 0.6389508 0.2423375 0.5112073 -0.8245845 30 30 30 255
-0.63623923 -0.059909165 0.6308128 0.2423375 0.5112073 -0.8245845 30 30 30 255
-0.6416529 -0.0075689517 0.66167057 0.2423375 0.5112073 -0.8245845 30 30 30 255
-0.6627863 -0.04482118 0.6323648 0.2423375 0.5112073 -0.8245845 30 30 30 255
-0.66677207 -0.006284262 0.65508455 0.2423375 0.5112073 -0.8245845 30 30 30 255
-0.6416529 -0.0075689517 0.66167057 0.19802828 -0.48747748 -0.85038257 30 30 30 255
-0.6566769 0.046891533 0.62695265 0.19802828 -0.48747748 -0.85038257 30 30 30 255
-0.6315578 0.04560703 0.63353854 0.19802828 -0.48747748 -0.85038257 30 30 30 255
-0.66677207 -0.006284262 0.65508455 0.19802828 -0.48747748 -0.85038257 30 30 30 255
-0.66135854 -0.058624476 0.624227 0.04430926 0.9986847 0.02579805 30 30 30 255
-0.62073034 -0.05907342 0.5718233 0.04430926 0.9986847 0.02579805 30 30 30 255
-0.6458495 -0.057788894 0.56523734 0.04430926 0.9986847 0.02579805 30 30 30 255
-0.63623923 -0.059909165 0.6308128 0.04430926 0.9986847 0.02579805 30 30 30 255
-0.6160488 0.046442777 0.5745489 -0.04430926 -0.9986847 -0.02579805 30 30 30 255
-0.6566769 0.046891533 0.62695265 -0.04430926 -0.9986847 -0.02579805 30 30 30 255
-0.6411681 0.0477273 0.5679631 -0.04430926 -0.9986847 -0.02579805 30 30 30 255
-0.6315578 0.04560703 0.63353854 -0.04430926 -0.9986847 -0.02579805 30 30 30 255
-0.6357543 -0.0046129106 0.53710544 -0.19802828 0.48747748 0.85038257 30 30 30 255
-0.62073034 -0.05907342 0.5718233 -0.19802828 0.48747748 0.85038257 30 30 30 255
-0.610635 -0.005897437 0.5436914 -0.19802828 0.48747748 0.85038257 30 30 30 255
-0.6458495 -0.057788894 0.56523734 -0.19802828 0.48747748 0.85038257 30 30 30 255
-0.614621 0.032639295 0.5664111 -0.2423375 -0.5112073 0.8245845 30 30 30 255
-0.6357543 -0.0046129106 0.53710544 -0.2423375 -0.5112073 0.8245845 30 30 30 255
-0.610635 -0.005897437 0.5436914 -0.2423375 -0.5112073 0.8245845 30 30 30 255
-0.6160488 0.046442777 0.5745489 -0.2423375 -0.5112073 0.8245845 30 30 30 255
-0.6411681 0.0477273 0.5679631 -0.2423375 -0.5112073 0.8245845 30 30 30 255
-0.63974035 0.033923842 0.5598251 -0.2423375 -0.5112073 0.8245845 30 30 30 255
-0.6192225 -0.07365002 0.5632294 0.96612424 -0.04940798 0.2533038 30 30 30 255
-0.62073034 -0.05907342 0.5718233 0.96612424 -0.04940798 0.2533038 30 30 30 255
-0.63623923 -0.059909165 0.6308128 0.96612424 -0.04940798 0.2533038 30 30 30 255
-0.6063158 -0.005664816 0.52726287 0.96612424 -0.04940798 0.2533038 30 30 30 255
-0.610635 -0.005897437 0.5436914 0.96612424 -0.04940798 0.2533038 30 30 30 255
-0.614621 0.032639295 0.5664111 0.96612424 -0.04940798 0.2533038 30 30 30 255
-0.6110558 0.04016042 0.55427945 0.96612424 -0.04940798 0.2533038 30 30 30 255
-0.6160488 0.046442777 0.5745489 0.96612424 -0.04940798 0.2533038 30 30 30 255
-0.6132373 0.0612522 0.56671435 0.96612424 -0.04940798 0.2533038 30 30 30 255
-0.6330655 0.060183626 0.64213234 0.96612424 -0.04940798 0.2533038 30 30 30 255
-0.63905066 -0.074718565 0.63864756 0.96612424 -0.04940798 0.2533038 30 30 30 255
-0.64123243 -0.053626813 0.65108246 0.96612424 -0.04940798 0.2533038 30 30 30 255
-0.63766694 -0.046105705 0.6389508 0.96612424 -0.04940798 0.2533038 30 30 30 255
-0.6459722 -0.007801759 0.678099 0.96612424 -0.04940798 0.2533038 30 30 30 255
-0.6416529 -0.0075689517 0.66167057 0.96612424 -0.04940798 0.2533038 30 30 30 255
-0.6315578 0.04560703 0.63353854 0.96612424 -0.04940798 0.2533038 30 30 30 255
-0.5476153 -0.013561663 0.73214686 -0.96612424 0.04940798 -0.2533038 226 226 226 255
-0.53132653 -0.06737446 0.65952337 -0.96612424 0.04940798 -0.2533038 226 226 226 255
-0.54166245 -0.0711157 0.6982155 -0.96612424 0.04940798 -0.2533038 226 226 226 255
-0.53286016 -0.052547526 0.6682646 -0.96612424 0.04940798 -0.2533038 226 226 226 255
-0.53695214 -0.012987154 0.69158787 -0.96612424 0.04940798 -0.2533038 226 226 226 255
-0.5301841 0.07825587 0.6835722 -0.96612424 0.04940798 -0.2533038 226 226 226 255
-0.52646196 0.042268775 0.66235566 -0.96612424 0.04940798 -0.2533038 226 226 226 255
-0.5103465 0.043137044 0.6010587 -0.96612424 0.04940798 -0.2533038 226 226 226 255
-0.50001055 0.046878263 0.56236655 -0.96612424 0.04940798 -0.2533038 226 226 226 255
-0.50340533 0.07969886 0.58171636 -0.96612424 0.04940798 -0.2533038 226 226 226 255
-0.51148874 -0.102493145 0.5770099 -0.96612424 0.04940798 -0.2533038 226 226 226 255
-0.53826773 -0.10393626 0.67886585 -0.96612424 0.04940798 -0.2533038 226 226 226 255
-0.5152109 -0.06650603 0.59822637 -0.96612424 0.04940798 -0.2533038 226 226 226 255
-0.49405745 -0.010675588 0.5284353 -0.96612424 0.04940798 -0.2533038 226 226 226 255
-0.5047209 -0.011250284 0.5689942 -0.96612424 0.04940798 -0.2533038 226 226 226 255
-0.5088128 0.02831011 0.59231746 -0.96612424 0.04940798 -0.2533038 226 226 226 255
-0.50340533 0.07969886 0.58171636 0.1617719 -0.9864149 0.028556602 226 226 226 255
-0.6330655 0.060183626 0.64213234 0.1617719 -0.9864149 0.028556602 226 226 226 255
-0.6132373 0.0612522 0.56671435 0.1617719 -0.9864149 0.028556602 226 226 226 255
-0.5301841 0.07825587 0.6835722 0.1617719 -0.9864149 0.028556602 226 226 226 255
-0.50001055 0.046878263 0.56236655 -0.03174387 -0.5100457 0.8595614 226 226 226 255
-0.6063158 -0.005664816 0.52726287 -0.03174387 -0.5100457 0.8595614 226 226 226 255
-0.49405745 -0.010675588 0.5284353 -0.03174387 -0.5100457 0.8595614 226 226 226 255
-0.50340533 0.07969886 0.58171636 -0.03174387 -0.5100457 0.8595614 226 226 226 255
-0.6110558 0.04016042 0.55427945 -0.03174387 -0.5100457 0.8595614 226 226 226 255
-0.6132373 0.0612522 0.56671435 -0.03174387 -0.5100457 0.8595614 226 226 226 255
-0.6063158 -0.005664816 0.52726287 0.01155571 0.4658818 0.8847715 226 226 226 255
-0.51148874 -0.102493145 0.5770099 0.01155571 0.4658818 0.8847715 226 226 226 255
-0.49405745 -0.010675588 0.5284353 0.01155571 0.4658818 0.8847715 226 226 226 255
-0.6192225 -0.07365002 0.5632294 0.01155571 0.4658818 0.8847715 226 226 226 255
-0.63905066 -0.074718565 0.63864756 0.248371 0.96544003 0.07897696 226 226 226 255
-0.51148874 -0.102493145 0.5770099 0.248371 0.96544003 0.07897696 226 226 226 255
-0.6192225 -0.07365002 0.5632294 0.248371 0.96544003 0.07897696 226 226 226 255
-0.53826773 -0.10393626 0.67886585 0.248371 0.96544003 0.07897696 226 226 226 255
-0.63905066 -0.074718565 0.63864756 0.4418868 0.4890708 -0.75202787 226 226 226 255
-0.54166245 -0.0711157 0.6982155 0.4418868 0.4890708 -0.75202787 226 226 226 255
-0.53826773 -0.10393626 0.67886585 0.4418868 0.4890708 -0.75202787 226 226 226 255
-0.5476153 -0.013561663 0.73214686 0.4418868 0.4890708 -0.75202787 226 226 226 255
-0.64123243 -0.053626813 0.65108246 0.4418868 0.4890708 -0.75202787 226 226 226 255
-0.6459722 -0.007801759 0.678099 0.4418868 0.4890708 -0.75202787 226 226 226 255
-0.5476153 -0.013561663 0.73214686 0.39858717 -0.48685664 -0.777238 226 226 226 255
-0.6330655 0.060183626 0.64213234 0.39858717 -0.48685664 -0.777238 226 226 226 255
-0.5301841 0.07825587 0.6835722 0.39858717 -0.48685664 -0.777238 226 226 226 255
-0.6459722 -0.007801759 0.678099 0.39858717 -0.48685664 -0.777238 226 226 226 255
-0.5193345 -0.053239148 0.6718111 -0.96612424 0.04940798 -0.2533038 30 30 30 255
-0.50168526 -0.067197815 0.60177284 -0.96612424 0.04940798 -0.2533038 30 30 30 255
-0.51780087 -0.06806625 0.6630696 -0.96612424 0.04940798 -0.2533038 30 30 30 255
-0.49119523 -0.01194207 0.57254046 -0.96612424 0.04940798 -0.2533038 30 30 30 255
-0.52342635 -0.013678754 0.6951342 -0.96612424 0.04940798 -0.2533038 30 30 30 255
-0.5129363 0.04157699 0.6659019 -0.96612424 0.04940798 -0.2533038 30 30 30 255
-0.4952871 0.027618324 0.59586364 -0.96612424 0.04940798 -0.2533038 30 30 30 255
-0.4968207 0.04244542 0.6046051 -0.96612424 0.04940798 -0.2533038 30 30 30 255
-0.53132653 -0.06737446 0.65952337 0.2423375 0.5112073 -0.8245845 30 30 30 255
-0.5193345 -0.053239148 0.6718111 0.2423375 0.5112073 -0.8245845 30 30 30 255
-0.51780087 -0.06806625 0.6630696 0.2423375 0.5112073 -0.8245845 30 30 30 255
-0.52342635 -0.013678754 0.6951342 0.2423375 0.5112073 -0.8245845 30 30 30 255
-0.53286016 -0.052547526 0.6682646 0.2423375 0.5112073 -0.8245845 30 30 30 255
-0.53695214 -0.012987154 0.69158787 0.2423375 0.5112073 -0.8245845 30 30 30 255
-0.52342635 -0.013678754 0.6951342 0.19802828 -0.48747748 -0.85038257 30 30 30 255
-0.52646196 0.042268775 0.66235566 0.19802828 -0.48747748 -0.85038257 30 30 30 255
-0.5129363 0.04157699 0.6659019 0.19802828 -0.48747748 -0.85038257 30 30 30 255
-0.53695214 -0.012987154 0.69158787 0.19802828 -0.48747748 -0.85038257 30 30 30 255
-0.4968207 0.04244542 0.6046051 -0.04430926 -0.9986847 -0.02579805 30 30 30 255
-0.52646196 0.042268775 0.66235566 -0.04430926 -0.9986847 -0.02579805 30 30 30 255
-0.5103465 0.043137044 0.6010587 -0.04430926 -0.9986847 -0.02579805 30 30 30 255
-0.5129363 0.04157699 0.6659019 -0.04430926 -0.9986847 -0.02579805 30 30 30 255
-0.4952871 0.027618324 0.59586364 -0.2423375 -0.5112073 0.8245845 30 30 30 255
-0.5047209 -0.011250284 0.5689942 -0.2423375 -0.5112073 0.8245845 30 30 30 255
-0.49119523 -0.01194207 0.57254046 -0.2423375 -0.5112073 0.8245845 30 30 30 255
-0.4968207 0.04244542 0.6046051 -0.2423375 -0.5112073 0.8245845 30 30 30 255
-0.5088128 0.02831011 0.59231746 -0.2423375 -0.5112073 0.8245845 30 30 30 255
-0.5103465 0.043137044 0.6010587 -0.2423375 -0.5112073 0.8245845 30 30 30 255
-0.5047209 -0.011250284 0.5689942 -0.19802828 0.48747748 0.85038257 30 30 30 255
-0.50168526 -0.067197815 0.60177284 -0.19802828 0.48747748 0.85038257 30 30 30 255
-0.49119523 -0.01194207 0.57254046 -0.19802828 0.48747748 0.85038257 30 30 30 255
-0.5152109 -0.06650603 0.59822637 -0.19802828 0.48747748 0.85038257 30 30 30 255
-0.53132653 -0.06737446 0.65952337 0.04430926 0.9986847 0.02579805 30 30 30 255
-0.50168526 -0.067197815 0.60177284 0.04430926 0.9986847 0.02579805 30 30 30 255
-0.5152109 -0.06650603 0.59822637 0.04430926 0.9986847 0.02579805 30 30 30 255
-0.51780087 -0.06806625 0.6630696 0.04430926 0.9986847 0.02579805 30 30 30 255
0.4938931 0.30380005 1.4168417 5.322127E-13 -2.7768071E-14 -1 255 100 49 255
0.46035716 0.5538 1.4168417 5.322127E-13 -2.7768071E-14 -1 255 100 49 255
0.4938931 0.5538 1.4168417 5.322127E-13 -2.7768071E-14 -1 255 100 49 255
0.46035716 0.30380005 1.4168417 5.322127E-13 -2.7768071E-14 -1 255 100 49 255
0.4938931 0.5538 1.4168417 -0.9958887 6.947577E-14 0.09058537 255 100 49 255
0.43989307 0.30380005 0.82317007 -0.9958887 6.947577E-14 0.09058537 255 100 49 255
0.4938931 0.30380005 1.4168417 -0.9958887 6.947577E-14 0.09058537 255 100 49 255
0.43989307 0.5538 0.82317007 -0.9958887 6.947577E-14 0.09058537 255 100 49 255
0.40635717 0.30380005 0.82317007 0.9958887 7.314657E-15 -0.09058537 255 100 49 255
0.46035716 0.5538 1.4168417 0.9958887 7.314657E-15 -0.09058537 255 100 49 255
0.46035716 0.30380005 1.4168417 0.9958887 7.314657E-15 -0.09058537 255 100 49 255
0.40635717 0.5538 0.82317007 0.9958887 7.314657E-15 -0.09058537 255 100 49 255
0.46035716 0.5538 1.4168417 3.7314758E-13 -0.70519936 -0.70900905 255 100 49 255
0.35853478 0.85223985 1.120006 3.7314758E-13 -0.70519936 -0.70900905 255 100 49 255
0.4938931 0.5538 1.4168417 3.7314758E-13 -0.70519936 -0.70900905 255 100 49 255
0.3249989 0.85223985 1.120006 3.7314758E-13 -0.70519936 -0.70900905 255 100 49 255
0.43989307 0.30380005 0.82317007 -0.95349324 1.19434E-13 0.3014142 255 100 49 255
0.25629306 0.5538 0.24236996 -0.95349324 1.19434E-13 0.3014142 255 100 49 255
0.25629306 0.30380005 0.24236996 -0.95349324 1.19434E-13 0.3014142 255 100 49 255
0.43989307 0.5538 0.82317007 -0.95349324 1.19434E-13 0.3014142 255 100 49 255
0.35853478 0.85223985 1.120006 -0.93654364 -0.340043 0.08518738 255 100 49 255
0.43989307 0.5538 0.82317007 -0.93654364 -0.340043 0.08518738 255 100 49 255
0.4938931 0.5538 1.4168417 -0.93654364 -0.340043 0.08518738 255 100 49 255
0.33153477 0.85223985 0.82317007 -0.93654364 -0.340043 0.08518738 255 100 49 255
0.22275718 0.5538 0.24236996 0.95349324 -5.774961E-15 -0.3014142 255 100 49 255
0.40635717 0.30380005 0.82317007 0.95349324 -5.774961E-15 -0.3014142 255 100 49 255
0.22275718 0.30380005 0.24236996 0.95349324 -5.774961E-15 -0.3014142 255 100 49 255
0.40635717 0.5538 0.82317007 0.95349324 -5.774961E-15 -0.3014142 255 100 49 255
0.40635717 0.5538 0.82317007 0.93654364 0.340043 -0.08518738 255 100 49 255
0.3249989 0.85223985 1.120006 0.93654364 0.340043 -0.08518738 255 100 49 255
0.46035716 0.5538 1.4168417 0.93654364 0.340043 -0.08518738 255 100 49 255
0.29799888 0.85223985 0.82317007 0.93654364 0.340043 -0.08518738 255 100 49 255
0.33153477 0.85223985 0.82317007 2.171411E-13 -1 -9.436984E-14 255 100 49 255
0.3249989 0.85223985 1.120006 2.171411E-13 -1 -9.436984E-14 255 100 49 255
0.29799888 0.85223985 0.82317007 2.171411E-13 -1 -9.436984E-14 255 100 49 255
0.35853478 0.85223985 1.120006 2.171411E-13 -1 -9.436984E-14 255 100 49 255
0.22275718 0.5538 0.24236996 -1.877882E-13 -2.5181471E-14 1 255 100 49 255
0.25629306 0.30380005 0.24236996 -1.877882E-13 -2.5181471E-14 1 255 100 49 255
0.25629306 0.5538 0.24236996 -1.877882E-13 -2.5181471E-14 1 255 100 49 255
0.25629306 -0.30379984 0.24236996 -1.877882E-13 -2.5181471E-14 1 255 100 49 255
0.22275718 -0.55379987 0.24236996 -1.877882E-13 -2.5181471E-14 1 255 100 49 255
0.25629306 -0.55379987 0.24236996 -1.877882E-13 -2.5181471E-14 1 255 100 49 255
0.22275718 0.30380005 0.24236996 -1.877882E-13 -2.5181471E-14 1 255 100 49 255
0.22275718 -0.30379984 0.24236996 -1.877882E-13 -2.5181471E-14 1 255 100 49 255
0.43989307 -0.55379987 0.82317007 -5.6473398E-14 5.692216E-14 -1 255 100 49 255
0.40635717 -0.55379987 0.82317007 -5.6473398E-14 5.692216E-14 -1 255 100 49 255
0.43989307 -0.30379984 0.82317007 -5.6473398E-14 5.692216E-14 -1 255 100 49 255
0.33153477 -0.9553603 0.82317007 -5.6473398E-14 5.692216E-14 -1 255 100 49 255
0.43989307 0.30380005 0.82317007 -5.6473398E-14 5.692216E-14 -1 255 100 49 255
0.40635717 -0.30379984 0.82317007 -5.6473398E-14 5.692216E-14 -1 255 100 49 255
0.29799888 -0.9553603 0.82317007 -5.6473398E-14 5.692216E-14 -1 255 100 49 255
0.43989307 0.5538 0.82317007 -5.6473398E-14 5.692216E-14 -1 255 100 49 255
0.40635717 0.5538 0.82317007 -5.6473398E-14 5.692216E-14 -1 255 100 49 255
0.33153477 0.85223985 0.82317007 -5.6473398E-14 5.692216E-14 -1 255 100 49 255
0.40635717 0.30380005 0.82317007 -5.6473398E-14 5.692216E-14 -1 255 100 49 255
0.29799888 0.85223985 0.82317007 -5.6473398E-14 5.692216E-14 -1 255 100 49 255
0.33153477 0.85223985 0.82317007 -0.9010259 -0.32714713 0.28482842 255 100 49 255
0.25629306 0.5538 0.24236996 -0.9010259 -0.32714713 0.28482842 255 100 49 255
0.43989307 0.5538 0.82317007 -0.9010259 -0.32714713 0.28482842 255 100 49 255
0.2397348 0.85223985 0.53277 -0.9010259 -0.32714713 0.28482842 255 100 49 255
0.20619889 0.85223985 0.53277 0.9010259 0.32714713 -0.28482842 255 100 49 255
0.40635717 0.5538 0.82317007 0.9010259 0.32714713 -0.28482842 255 100 49 255
0.22275718 0.5538 0.24236996 0.9010259 0.32714713 -0.28482842 255 100 49 255
0.29799888 0.85223985 0.82317007 0.9010259 0.32714713 -0.28482842 255 100 49 255
0.2397348 0.85223985 0.53277 3.2427758E-13 -1 -3.92737E-14 255 100 49 255
0.20619889 0.85223985 0.53277 3.2427758E-13 -1 -3.92737E-14 255 100 49 255
0.22275718 -0.55379987 0.24236996 5.237579E-13 0.58599985 0.81031114 255 100 49 255
0.2397348 -0.9553603 0.53277 5.237579E-13 0.58599985 0.81031114 255 100 49 255
0.25629306 -0.55379987 0.24236996 5.237579E-13 0.58599985 0.81031114 255 100 49 255
0.20619889 -0.9553603 0.53277 5.237579E-13 0.58599985 0.81031114 255 100 49 255
0.43989307 -0.30379984 0.82317007 -0.95349324 -5.4870967E-14 0.3014142 255 100 49 255
0.25629306 -0.55379987 0.24236996 -0.95349324 -5.4870967E-14 0.3014142 255 100 49 255
0.43989307 -0.55379987 0.82317007 -0.95349324 -5.4870967E-14 0.3014142 255 100 49 255
0.25629306 -0.30379984 0.24236996 -0.95349324 -5.4870967E-14 0.3014142 255 100 49 255
0.2397348 0.85223985 0.53277 3.2667738E-13 -0.6973875 0.7166943 255 100 49 255
0.22275718 0.5538 0.24236996 3.2667738E-13 -0.6973875 0.7166943 255 100 49 255
0.25629306 0.5538 0.24236996 3.2667738E-13 -0.6973875 0.7166943 255 100 49 255
0.20619889 0.85223985 0.53277 3.2667738E-13 -0.6973875 0.7166943 255 100 49 255
0.22275718 -0.30379984 0.24236996 0.95349324 -5.266109E-15 -0.3014142 255 100 49 255
0.40635717 -0.55379987 0.82317007 0.95349324 -5.266109E-15 -0.3014142 255 100 49 255
0.22275718 -0.55379987 0.24236996 0.95349324 -5.266109E-15 -0.3014142 255 100 49 255
0.40635717 -0.30379984 0.82317007 0.95349324 -5.266109E-15 -0.3014142 255 100 49 255
0.33153477 -0.9553603 0.82317007 -0.923418 0.2491779 0.2919069 255 100 49 255
0.25629306 -0.55379987 0.24236996 -0.923418 0.2491779 0.2919069 255 100 49 255
0.2397348 -0.9553603 0.53277 -0.923418 0.2491779 0.2919069 255 100 49 255
0.43989307 -0.55379987 0.82317007 -0.923418 0.2491779 0.2919069 255 100 49 255
0.20619889 -0.9553603 0.53277 5.614028E-13 1 -2.392729E-13 255 100 49 255
0.33153477 -0.9553603 0.82317007 5.614028E-13 1 -2.392729E-13 255 100 49 255
0.2397348 -0.9553603 0.53277 5.614028E-13 1 -2.392729E-13 255 100 49 255
0.29799888 -0.9553603 0.82317007 5.614028E-13 1 -2.392729E-13 255 100 49 255
0.22275718 -0.55379987 0.24236996 0.923418 -0.2491779 -0.2919069 255 100 49 255
0.29799888 -0.9553603 0.82317007 0.923418 -0.2491779 -0.2919069 255 100 49 255
0.20619889 -0.9553603 0.53277 0.923418 -0.2491779 -0.2919069 255 100 49 255
0.40635717 -0.55379987 0.82317007 0.923418 -0.2491779 -0.2919069 255 100 49 255
0.4938931 -0.30379984 1.4168417 -0.9958887 -4.117646E-14 0.09058537 255 100 49 255
0.43989307 -0.55379987 0.82317007 -0.9958887 -4.117646E-14 0.09058537 255 100 49 255
0.4938931 -0.55379987 1.4168417 -0.9958887 -4.117646E-14 0.09058537 255 100 49 255
0.43989307 -0.30379984 0.82317007 -0.9958887 -4.117646E-14 0.09058537 255 100 49 255
0.40635717 -0.55379987 0.82317007 0.9958887 -1.3687059E-14 -0.09058537 255 100 49 255
0.46035716 -0.30379984 1.4168417 0.9958887 -1.3687059E-14 -0.09058537 255 100 49 255
0.46035716 -0.55379987 1.4168417 0.9958887 -1.3687059E-14 -0.09058537 255 100 49 255
0.40635717 -0.30379984 0.82317007 0.9958887 -1.3687059E-14 -0.09058537 255 100 49 255
0.4938931 -0.55379987 1.4168417 -0.9617657 0.2595258 0.08748157 255 100 49 255
0.33153477 -0.9553603 0.82317007 -0.9617657 0.2595258 0.08748157 255 100 49 255
0.35853478 -0.9553603 1.120006 -0.9617657 0.2595258 0.08748157 255 100 49 255
0.43989307 -0.55379987 0.82317007 -0.9617657 0.2595258 0.08748157 255 100 49 255
0.35853478 -0.9553603 1.120006 4.659236E-13 1 2.460996E-14 255 100 49 255
0.3249989 -0.9553603 1.120006 4.659236E-13 1 2.460996E-14 255 100 49 255
0.29799888 -0.9553603 0.82317007 0.9617657 -0.2595258 -0.08748157 255 100 49 255
0.46035716 -0.55379987 1.4168417 0.9617657 -0.2595258 -0.08748157 255 100 49 255
0.3249989 -0.9553603 1.120006 0.9617657 -0.2595258 -0.08748157 255 100 49 255
0.40635717 -0.55379987 0.82317007 0.9617657 -0.2595258 -0.08748157 255 100 49 255
0.46035716 -0.55379987 1.4168417 1.877882E-13 1.843426E-14 -1 255 100 49 255
0.4938931 -0.30379984 1.4168417 1.877882E-13 1.843426E-14 -1 255 100 49 255
0.4938931 -0.55379987 1.4168417 1.877882E-13 1.843426E-14 -1 255 100 49 255
0.46035716 -0.30379984 1.4168417 1.877882E-13 1.843426E-14 -1 255 100 49 255
0.35853478 -0.9553603 1.120006 1.367529E-13 0.5944305 -0.80414695 255 100 49 255
0.46035716 -0.55379987 1.4168417 1.367529E-13 0.5944305 -0.80414695 255 100 49 255
0.4938931 -0.55379987 1.4168417 1.367529E-13 0.5944305 -0.80414695 255 100 49 255
0.3249989 -0.9553603 1.120006 1.367529E-13 0.5944305 -0.80414695 255 100 49 255
0.40635717 -0.30379984 0.82317007 0.9958887 -4.7456352E-14 -0.09058537 226 226 226 255
0.46035716 0.30380005 1.4168417 0.9958887 -4.7456352E-14 -0.09058537 226 226 226 255
0.46035716 -0.30379984 1.4168417 0.9958887 -4.7456352E-14 -0.09058537 226 226 226 255
0.40635717 0.30380005 0.82317007 0.9958887 -4.7456352E-14 -0.09058537 226 226 226 255
0.4938931 -0.30379984 1.4168417 3.600004E-13 -8.64867E-14 -1 226 226 226 255
0.46035716 0.30380005 1.4168417 3.600004E-13 -8.64867E-14 -1 226 226 226 255
0.4938931 0.30380005 1.4168417 3.600004E-13 -8.64867E-14 -1 226 226 226 255
0.46035716 -0.30379984 1.4168417 3.600004E-13 -8.64867E-14 -1 226 226 226 255
0.22275718 0.30380005 0.24236996 0.95349324 -1.51656E-14 -0.3014142 226 226 226 255
0.40635717 -0.30379984 0.82317007 0.95349324 -1.51656E-14 -0.3014142 226 226 226 255
0.22275718 -0.30379984 0.24236996 0.95349324 -1.51656E-14 -0.3014142 226 226 226 255
0.40635717 0.30380005 0.82317007 0.95349324 -1.51656E-14 -0.3014142 226 226 226 255
0.4938931 0.30380005 1.4168417 -0.9958887 4.6161087E-14 0.09058537 226 226 226 255
0.43989307 -0.30379984 0.82317007 -0.9958887 4.6161087E-14 0.09058537 226 226 226 255
0.4938931 -0.30379984 1.4168417 -0.9958887 4.6161087E-14 0.09058537 226 226 226 255
0.43989307 0.30380005 0.82317007 -0.9958887 4.6161087E-14 0.09058537 226 226 226 255
0.43989307 0.30380005 0.82317007 -0.95349324 1.632208E-14 0.3014142 226 226 226 255
0.25629306 -0.30379984 0.24236996 -0.95349324 1.632208E-14 0.3014142 226 226 226 255
0.43989307 -0.30379984 0.82317007 -0.95349324 1.632208E-14 0.3014142 226 226 226 255
0.25629306 0.30380005 0.24236996 -0.95349324 1.632208E-14 0.3014142 226 226 226 255
0.55509484 0.134135 0.93178684 -1.299332E-13 2.156323E-13 -1 255 100 49 255
0.47469485 0.2357049 0.93178684 -1.299332E-13 2.156323E-13 -1 255 100 49 255
0.55509484 0.2357049 0.93178684 -1.299332E-13 2.156323E-13 -1 255 100 49 255
0.47469485 0.134135 0.93178684 -1.299332E-13 2.156323E-13 -1 255 100 49 255
0.44454485 0.27570483 0.60032 0.9958887 1.878832E-14 -0.09058538 255 100 49 255
0.47469485 0.134135 0.93178684 0.9958887 1.878832E-14 -0.09058538 255 100 49 255
0.44454485 0.094134875 0.60032 0.9958887 1.878832E-14 -0.09058538 255 100 49 255
0.47469485 0.2357049 0.93178684 0.9958887 1.878832E-14 -0.09058538 255 100 49 255
0.55509484 0.2357049 0.93178684 -1.3349352E-13 -0.99279726 -0.11980648 255 100 49 255
0.44454485 0.27570483 0.60032 -1.3349352E-13 -0.99279726 -0.11980648 255 100 49 255
0.52494484 0.27570483 0.60032 -1.3349352E-13 -0.99279726 -0.11980648 255 100 49 255
0.47469485 0.2357049 0.93178684 -1.3349352E-13 -0.99279726 -0.11980648 255 100 49 255
0.55509484 0.134135 0.93178684 -0.9958887 -2.931058E-14 0.09058538 255 100 49 255
0.52494484 0.27570483 0.60032 -0.9958887 -2.931058E-14 0.09058538 255 100 49 255
0.52494484 0.094134875 0.60032 -0.9958887 -2.931058E-14 0.09058538 255 100 49 255
0.55509484 0.2357049 0.93178684 -0.9958887 -2.931058E-14 0.09058538 255 100 49 255
0.44454485 0.094134875 0.60032 7.189291E-14 0.99279726 -0.11980648 255 100 49 255
0.55509484 0.134135 0.93178684 7.189291E-14 0.99279726 -0.11980648 255 100 49 255
0.52494484 0.094134875 0.60032 7.189291E-14 0.99279726 -0.11980648 255 100 49 255
0.47469485 0.134135 0.93178684 7.189291E-14 0.99279726 -0.11980648 255 100 49 255
0.3420348 0.27570483 0.27603996 0.9534933 -6.7620626E-15 -0.3014142 255 100 49 255
0.44454485 0.094134875 0.60032 0.9534933 -6.7620626E-15 -0.3014142 255 100 49 255
0.3420348 0.094134875 0.27603996 0.9534933 -6.7620626E-15 -0.3014142 255 100 49 255
0.44454485 0.27570483 0.60032 0.9534933 -6.7620626E-15 -0.3014142 255 100 49 255
0.52494484 0.27570483 0.60032 -9.610886E-15 -1 -1.16041295E-14 255 100 49 255
0.3420348 0.27570483 0.27603996 -9.610886E-15 -1 -1.16041295E-14 255 100 49 255
0.42243484 0.27570483 0.27603996 -9.610886E-15 -1 -1.16041295E-14 255 100 49 255
0.44454485 0.27570483 0.60032 -9.610886E-15 -1 -1.16041295E-14 255 100 49 255
0.52494484 0.27570483 0.60032 -0.9534933 6.7620626E-15 0.3014142 255 100 49 255
0.42243484 0.094134875 0.27603996 -0.9534933 6.7620626E-15 0.3014142 255 100 49 255
0.52494484 0.094134875 0.60032 -0.9534933 6.7620626E-15 0.3014142 255 100 49 255
0.42243484 0.27570483 0.27603996 -0.9534933 6.7620626E-15 0.3014142 255 100 49 255
0.44454485 0.094134875 0.60032 9.196625E-15 1 1.1668921E-14 255 100 49 255
0.42243484 0.094134875 0.27603996 9.196625E-15 1 1.1668921E-14 255 100 49 255
0.3420348 0.094134875 0.27603996 9.196625E-15 1 1.1668921E-14 255 100 49 255
0.52494484 0.094134875 0.60032 9.196625E-15 1 1.1668921E-14 255 100 49 255
0.14103484 -2.3283064E-08 0.17553999 0.4472136 5.6306048E-14 -0.8944272 255 100 49 255
0.3420348 0.27570483 0.27603996 0.4472136 5.6306048E-14 -0.8944272 255 100 49 255
0.3420348 0.094134875 0.27603996 0.4472136 5.6306048E-14 -0.8944272 255 100 49 255
0.14103484 0.07403491 0.17553999 0.4472136 5.6306048E-14 -0.8944272 255 100 49 255
0.44454485 0.094134875 0.60032 -9.114397E-14 2.15263E-15 -1 255 100 49 255
0.52494484 0.27570483 0.60032 -9.114397E-14 2.15263E-15 -1 255 100 49 255
0.52494484 0.094134875 0.60032 -9.114397E-14 2.15263E-15 -1 255 100 49 255
0.44454485 0.27570483 0.60032 -9.114397E-14 2.15263E-15 -1 255 100 49 255
0.3420348 0.27570483 0.14941 -9.610886E-15 -1 1.024832E-13 255 100 49 255
0.42243484 0.27570483 0.27603996 -0.8442128 1.0115958E-14 0.5360081 255 100 49 255
0.3420348 0.094134875 0.14941 -0.8442128 1.0115958E-14 0.5360081 255 100 49 255
0.42243484 0.094134875 0.27603996 -0.8442128 1.0115958E-14 0.5360081 255 100 49 255
0.3420348 0.27570483 0.14941 -0.8442128 1.0115958E-14 0.5360081 255 100 49 255
0.3420348 0.094134875 0.14941 9.196625E-15 1 -1.6298489E-13 255 100 49 255
0.3420348 0.27570483 0.27603996 -1 1.3836359E-14 6.302441E-14 255 100 49 255
0.3420348 0.094134875 0.14941 -1 1.3836359E-14 6.302441E-14 255 100 49 255
0.3420348 0.094134875 0.27603996 -1 1.3836359E-14 6.302441E-14 255 100 49 255
0.3420348 0.27570483 0.14941 -1 1.3836359E-14 6.302441E-14 255 100 49 255
0.42243484 0.094134875 0.27603996 -9.114397E-14 2.15263E-15 -1 255 100 49 255
0.3420348 0.27570483 0.27603996 -9.114397E-14 2.15263E-15 -1 255 100 49 255
0.42243484 0.27570483 0.27603996 -9.114397E-14 2.15263E-15 -1 255 100 49 255
0.3420348 0.094134875 0.27603996 -9.114397E-14 2.15263E-15 -1 255 100 49 255
0.14103484 -2.3283064E-08 0.17553999 -0.4241245 0.90560395 -1.228115E-13 255 100 49 255
0.3420348 0.094134875 0.14941 -0.4241245 0.90560395 -1.228115E-13 255 100 49 255
0.14103484 -2.3283064E-08 0.04891 -0.4241245 0.90560395 -1.228115E-13 255 100 49 255
0.3420348 0.094134875 0.27603996 -0.4241245 0.90560395 -1.228115E-13 255 100 49 255
-0.34828508 -0.074035116 0.17553999 -4.057339E-14 -3.764851E-14 -1 255 100 49 255
0.14103484 -2.3283064E-08 0.17553999 -4.057339E-14 -3.764851E-14 -1 255 100 49 255
0.14103484 -0.074035116 0.17553999 -4.057339E-14 -3.764851E-14 -1 255 100 49 255
-0.34828508 0.07403491 0.17553999 -4.057339E-14 -3.764851E-14 -1 255 100 49 255
0.14103484 0.07403491 0.17553999 -4.057339E-14 -3.764851E-14 -1 255 100 49 255
0.14103484 0.07403491 0.04891 0.7082824 -0.7059293 4.3212042E-15 255 100 49 255
0.3420348 0.27570483 0.27603996 0.7082824 -0.7059293 4.3212042E-15 255 100 49 255
0.14103484 0.07403491 0.17553999 0.7082824 -0.7059293 4.3212042E-15 255 100 49 255
0.3420348 0.27570483 0.14941 0.7082824 -0.7059293 4.3212042E-15 255 100 49 255
0.14103484 0.07403491 0.04891 -0.4472136 -3.86999E-14 0.8944272 255 100 49 255
0.3420348 0.094134875 0.14941 -0.4472136 -3.86999E-14 0.8944272 255 100 49 255
0.3420348 0.27570483 0.14941 -0.4472136 -3.86999E-14 0.8944272 255 100 49 255
0.14103484 -2.3283064E-08 0.04891 -0.4472136 -3.86999E-14 0.8944272 255 100 49 255
0.3420348 -0.09413509 0.14941 -0.4241245 -0.90560395 1.7670978E-13 255 100 49 255
0.14103484 -2.3283064E-08 0.17553999 -0.4241245 -0.90560395 1.7670978E-13 255 100 49 255
0.14103484 -2.3283064E-08 0.04891 -0.4241245 -0.90560395 1.7670978E-13 255 100 49 255
0.3420348 -0.09413509 0.27603996 -0.4241245 -0.90560395 1.7670978E-13 255 100 49 255
-0.6306891 0.03394545 0.355037 -0.53641915 -4.247465E-14 -0.84395176 255 100 49 255
-0.34828508 0.07403491 0.17553999 -0.53641915 -4.247465E-14 -0.84395176 255 100 49 255
-0.34828508 -0.074035116 0.17553999 -0.53641915 -4.247465E-14 -0.84395176 255 100 49 255
0.14103484 0.07403491 0.04891 2.7672722E-14 -1 -1.574371E-14 255 100 49 255
-0.34828508 0.07403491 0.04891 2.7672722E-14 -1 -1.574371E-14 255 100 49 255
-0.16113502 0.07403491 0.04891 2.7672722E-14 -1 -1.574371E-14 255 100 49 255
-0.34828508 0.07403491 0.17553999 2.7672722E-14 -1 -1.574371E-14 255 100 49 255
0.14103484 0.07403491 0.17553999 2.7672722E-14 -1 -1.574371E-14 255 100 49 255
0.3420348 -0.27570507 0.27603996 0.4472136 -4.7135266E-14 -0.8944272 255 100 49 255
0.3420348 -0.09413509 0.27603996 0.4472136 -4.7135266E-14 -0.8944272 255 100 49 255
0.14103484 -0.074035116 0.17553999 0.4472136 -4.7135266E-14 -0.8944272 255 100 49 255
-0.34828508 -0.074035116 0.04891 -1.15993395E-14 1 -2.1389219E-13 255 100 49 255
0.14103484 -0.074035116 0.04891 -1.15993395E-14 1 -2.1389219E-13 255 100 49 255
-0.16113502 -0.074035116 0.04891 -1.15993395E-14 1 -2.1389219E-13 255 100 49 255
-0.34828508 -0.074035116 0.17553999 -1.15993395E-14 1 -2.1389219E-13 255 100 49 255
0.14103484 -0.074035116 0.17553999 -1.15993395E-14 1 -2.1389219E-13 255 100 49 255
0.3420348 -0.09413509 0.14941 -0.4472136 4.2868354E-14 0.8944272 255 100 49 255
0.14103484 -0.074035116 0.04891 -0.4472136 4.2868354E-14 0.8944272 255 100 49 255
0.3420348 -0.27570507 0.14941 -0.4472136 4.2868354E-14 0.8944272 255 100 49 255
0.3420348 -0.09413509 0.27603996 -9.610886E-15 -1 2.235403E-13 255 100 49 255
0.3420348 -0.09413509 0.14941 -9.610886E-15 -1 2.235403E-13 255 100 49 255
0.42243484 -0.09413509 0.27603996 -9.610886E-15 -1 2.235403E-13 255 100 49 255
0.3420348 -0.27570507 0.27603996 -1 2.1955899E-14 8.7977606E-14 255 100 49 255
0.3420348 -0.09413509 0.14941 -1 2.1955899E-14 8.7977606E-14 255 100 49 255
0.3420348 -0.27570507 0.14941 -1 2.1955899E-14 8.7977606E-14 255 100 49 255
0.3420348 -0.09413509 0.27603996 -1 2.1955899E-14 8.7977606E-14 255 100 49 255
-0.6337052 -0.03403502 0.35328093 -0.52350247 0.04520507 -0.85082406 255 100 49 255
-0.6306891 0.03394545 0.355037 -0.52350247 0.04520507 -0.85082406 255 100 49 255
-0.34828508 -0.074035116 0.17553999 -0.52350247 0.04520507 -0.85082406 255 100 49 255
-0.6306891 0.03394545 0.355037 0.140549 -0.9900737 3.4884059E-15 255 100 49 255
-0.34828508 0.07403491 0.04891 0.140549 -0.9900737 3.4884059E-15 255 100 49 255
-0.34828508 0.07403491 0.17553999 0.140549 -0.9900737 3.4884059E-15 255 100 49 255
0.14103484 -0.074035116 0.04891 0.7082824 0.7059293 -1.8658381E-13 255 100 49 255
0.3420348 -0.27570507 0.27603996 0.7082824 0.7059293 -1.8658381E-13 255 100 49 255
0.3420348 -0.27570507 0.14941 0.7082824 0.7059293 -1.8658381E-13 255 100 49 255
0.14103484 -0.074035116 0.17553999 0.7082824 0.7059293 -1.8658381E-13 255 100 49 255
0.3420348 -0.27570507 0.27603996 0.9534933 -2.0764125E-14 -0.3014142 255 100 49 255
0.44454485 -0.09413509 0.60032 0.9534933 -2.0764125E-14 -0.3014142 255 100 49 255
0.44454485 -0.27570507 0.60032 0.9534933 -2.0764125E-14 -0.3014142 255 100 49 255
0.3420348 -0.09413509 0.27603996 0.9534933 -2.0764125E-14 -0.3014142 255 100 49 255
0.3420348 -0.27570507 0.27603996 -9.114397E-14 2.15263E-15 -1 255 100 49 255
0.42243484 -0.09413509 0.27603996 -9.114397E-14 2.15263E-15 -1 255 100 49 255
0.42243484 -0.27570507 0.27603996 -9.114397E-14 2.15263E-15 -1 255 100 49 255
0.3420348 -0.09413509 0.27603996 -9.114397E-14 2.15263E-15 -1 255 100 49 255
-0.6337052 -0.03403502 0.35328093 0.138788 0.9903221 -2.564122E-13 255 100 49 255
-0.34828508 -0.074035116 0.17553999 0.138788 0.9903221 -2.564122E-13 255 100 49 255
-0.34828508 -0.074035116 0.04891 0.138788 0.9903221 -2.564122E-13 255 100 49 255
0.42243484 -0.27570507 0.27603996 -0.8442128 1.719984E-14 0.5360081 255 100 49 255
0.3420348 -0.09413509 0.14941 -0.8442128 1.719984E-14 0.5360081 255 100 49 255
0.3420348 -0.27570507 0.14941 -0.8442128 1.719984E-14 0.5360081 255 100 49 255
0.42243484 -0.09413509 0.27603996 -0.8442128 1.719984E-14 0.5360081 255 100 49 255
0.52494484 -0.09413509 0.60032 -9.610886E-15 -1 4.5938667E-15 255 100 49 255
0.44454485 -0.09413509 0.60032 -9.610886E-15 -1 4.5938667E-15 255 100 49 255
-0.67099905 0.07162516 0.5161329 -0.96612424 0.04940798 -0.2533038 255 100 49 255
-0.6337052 -0.03403502 0.35328093 -0.96612424 0.04940798 -0.2533038 255 100 49 255
-0.67755985 -0.076250196 0.5123131 -0.96612424 0.04940798 -0.2533038 255 100 49 255
-0.6306891 0.03394545 0.355037 -0.96612424 0.04940798 -0.2533038 255 100 49 255
-0.6337052 -0.03403502 0.35328093 0.60950935 -0.006564101 -0.79275167 255 100 49 255
-0.734856 0.040637422 0.27489242 0.60950935 -0.006564101 -0.79275167 255 100 49 255
-0.6306891 0.03394545 0.355037 0.60950935 -0.006564101 -0.79275167 255 100 49 255
-0.7378723 -0.027343187 0.27313635 0.60950935 -0.006564101 -0.79275167 255 100 49 255
-0.6306891 0.03394545 0.355037 0.0212205 -0.9936441 -0.1105488 255 100 49 255
-0.734856 0.040637422 0.27489242 0.0212205 -0.9936441 -0.1105488 255 100 49 255
-0.34828508 0.07403491 0.04891 0.0212205 -0.9936441 -0.1105488 255 100 49 255
0.42243484 -0.27570507 0.27603996 9.196625E-15 1 -1.894498E-13 255 100 49 255
0.3420348 -0.27570507 0.14941 9.196625E-15 1 -1.894498E-13 255 100 49 255
0.3420348 -0.27570507 0.27603996 9.196625E-15 1 -1.894498E-13 255 100 49 255
0.44454485 -0.09413509 0.60032 0.9958887 -2.3880698E-14 -0.09058538 255 100 49 255
0.47469485 -0.23570508 0.93178684 0.9958887 -2.3880698E-14 -0.09058538 255 100 49 255
0.44454485 -0.27570507 0.60032 0.9958887 -2.3880698E-14 -0.09058538 255 100 49 255
0.47469485 -0.13413507 0.93178684 0.9958887 -2.3880698E-14 -0.09058538 255 100 49 255
0.44454485 -0.27570507 0.60032 -9.114397E-14 2.15263E-15 -1 255 100 49 255
0.52494484 -0.09413509 0.60032 -9.114397E-14 2.15263E-15 -1 255 100 49 255
0.52494484 -0.27570507 0.60032 -9.114397E-14 2.15263E-15 -1 255 100 49 255
0.44454485 -0.09413509 0.60032 -9.114397E-14 2.15263E-15 -1 255 100 49 255
0.44454485 -0.27570507 0.60032 9.610886E-15 1 -4.5938667E-15 255 100 49 255
0.52494484 -0.27570507 0.60032 9.610886E-15 1 -4.5938667E-15 255 100 49 255
-0.6337052 -0.03403502 0.35328093 0.09553232 0.9945766 -0.04112162 255 100 49 255
-0.34828508 -0.074035116 0.04891 0.09553232 0.9945766 -0.04112162 255 100 49 255
-0.7378723 -0.027343187 0.27313635 0.09553232 0.9945766 -0.04112162 255 100 49 255
0.52494484 -0.09413509 0.60032 -0.9534933 2.1012685E-14 0.3014142 255 100 49 255
0.42243484 -0.27570507 0.27603996 -0.9534933 2.1012685E-14 0.3014142 255 100 49 255
0.52494484 -0.27570507 0.60032 -0.9534933 2.1012685E-14 0.3014142 255 100 49 255
0.42243484 -0.09413509 0.27603996 -0.9534933 2.1012685E-14 0.3014142 255 100 49 255
0.52494484 -0.09413509 0.60032 -1.2610373E-15 -0.99279726 -0.11980648 255 100 49 255
0.47469485 -0.13413507 0.93178684 -1.2610373E-15 -0.99279726 -0.11980648 255 100 49 255
0.44454485 -0.09413509 0.60032 -1.2610373E-15 -0.99279726 -0.11980648 255 100 49 255
0.55509484 -0.13413507 0.93178684 -1.2610373E-15 -0.99279726 -0.11980648 255 100 49 255
-0.67755985 -0.076250196 0.5123131 -0.0166533 0.9675223 0.2522365 255 100 49 255
-0.6337052 -0.03403502 0.35328093 -0.0166533 0.9675223 0.2522365 255 100 49 255
-0.7947218 -0.07025848 0.48159492 -0.0166533 0.9675223 0.2522365 255 100 49 255
-0.67099905 0.07162516 0.5161329 -0.2542453 -0.01370041 0.9670427 255 100 49 255
-0.6358909 -0.07838102 0.523238 -0.2542453 -0.01370041 0.9670427 255 100 49 255
-0.6293302 0.06949417 0.527058 -0.2542453 -0.01370041 0.9670427 255 100 49 255
-0.67755985 -0.076250196 0.5123131 -0.2542453 -0.01370041 0.9670427 255 100 49 255
-0.67755985 -0.076250196 0.5123131 0.2542453 0.01370041 -0.9670427 255 100 49 255
-0.788161 0.07761684 0.48541477 0.2542453 0.01370041 -0.9670427 255 100 49 255
-0.67099905 0.07162516 0.5161329 0.2542453 0.01370041 -0.9670427 255 100 49 255
-0.7947218 -0.07025848 0.48159492 0.2542453 0.01370041 -0.9670427 255 100 49 255
-0.67099905 0.07162516 0.5161329 -0.10279221 -0.97395885 0.20208411 255 100 49 255
-0.788161 0.07761684 0.48541477 -0.10279221 -0.97395885 0.20208411 255 100 49 255
-0.6306891 0.03394545 0.355037 -0.10279221 -0.97395885 0.20208411 255 100 49 255
-0.7378723 -0.027343187 0.27313635 0.49433863 -0.04435836 0.8681369 255 100 49 255
-0.34828508 -0.074035116 0.04891 0.49433863 -0.04435836 0.8681369 255 100 49 255
-0.734856 0.040637422 0.27489242 0.49433863 -0.04435836 0.8681369 255 100 49 255
-0.734856 0.040637422 0.27489242 0.504675 1.6638316E-14 0.8633094 255 100 49 255
-0.34828508 -0.074035116 0.04891 0.504675 1.6638316E-14 0.8633094 255 100 49 255
-0.34828508 0.07403491 0.04891 0.504675 1.6638316E-14 0.8633094 255 100 49 255
-0.788161 0.07761684 0.48541477 -0.1631965 -0.97793037 0.1304573 255 100 49 255
-0.734856 0.040637422 0.27489242 -0.1631965 -0.97793037 0.1304573 255 100 49 255
-0.6306891 0.03394545 0.355037 -0.1631965 -0.97793037 0.1304573 255 100 49 255
0.47469485 -0.23570508 0.93178684 -1.299332E-13 -1.25529E-13 -1 255 100 49 255
0.55509484 -0.13413507 0.93178684 -1.299332E-13 -1.25529E-13 -1 255 100 49 255
0.55509484 -0.23570508 0.93178684 -1.299332E-13 -1.25529E-13 -1 255 100 49 255
0.47469485 -0.13413507 0.93178684 -1.299332E-13 -1.25529E-13 -1 255 100 49 255
0.47469485 -0.23570508 0.93178684 2.0014849E-13 0.99279726 -0.11980648 255 100 49 255
0.52494484 -0.27570507 0.60032 2.0014849E-13 0.99279726 -0.11980648 255 100 49 255
0.44454485 -0.27570507 0.60032 2.0014849E-13 0.99279726 -0.11980648 255 100 49 255
0.55509484 -0.23570508 0.93178684 2.0014849E-13 0.99279726 -0.11980648 255 100 49 255
-0.7947218 -0.07025848 0.48159492 -0.07630516 0.9805097 0.1810478 255 100 49 255
-0.6337052 -0.03403502 0.35328093 -0.07630516 0.9805097 0.1810478 255 100 49 255
-0.7378723 -0.027343187 0.27313635 -0.07630516 0.9805097 0.1810478 255 100 49 255
0.55509484 -0.23570508 0.93178684 -0.9958887 1.1121416E-14 0.09058538 255 100 49 255
0.52494484 -0.09413509 0.60032 -0.9958887 1.1121416E-14 0.09058538 255 100 49 255
0.52494484 -0.27570507 0.60032 -0.9958887 1.1121416E-14 0.09058538 255 100 49 255
0.55509484 -0.13413507 0.93178684 -0.9958887 1.1121416E-14 0.09058538 255 100 49 255
-0.81337464 -0.07126357 0.552542 0.04430926 0.9986847 0.02579805 255 100 49 255
-0.67755985 -0.076250196 0.5123131 0.04430926 0.9986847 0.02579805 255 100 49 255
-0.7947218 -0.07025848 0.48159492 0.04430926 0.9986847 0.02579805 255 100 49 255
-0.6358909 -0.07838102 0.523238 0.04430926 0.9986847 0.02579805 255 100 49 255
-0.67319643 -0.08039137 0.66513216 0.04430926 0.9986847 0.02579805 255 100 49 255
-0.75261176 -0.07633001 0.6443106 0.04430926 0.9986847 0.02579805 255 100 49 255
-0.67099905 0.07162516 0.5161329 -0.04430926 -0.9986847 -0.02579805 255 100 49 255
-0.8068135 0.07661162 0.5563618 -0.04430926 -0.9986847 -0.02579805 255 100 49 255
-0.788161 0.07761684 0.48541477 -0.04430926 -0.9986847 -0.02579805 255 100 49 255
-0.6293302 0.06949417 0.527058 -0.04430926 -0.9986847 -0.02579805 255 100 49 255
-0.6666355 0.06748382 0.668952 -0.04430926 -0.9986847 -0.02579805 255 100 49 255
-0.746051 0.071545176 0.6481305 -0.04430926 -0.9986847 -0.02579805 255 100 49 255
-0.67319643 -0.08039137 0.66513216 -0.96612424 0.04940798 -0.2533038 255 100 49 255
-0.66135854 -0.058624476 0.624227 -0.96612424 0.04940798 -0.2533038 255 100 49 255
-0.6358909 -0.07838102 0.523238 -0.96612424 0.04940798 -0.2533038 255 100 49 255
-0.6627863 -0.04482118 0.6323648 -0.96612424 0.04940798 -0.2533038 255 100 49 255
-0.66677207 -0.006284262 0.65508455 -0.96612424 0.04940798 -0.2533038 255 100 49 255
-0.6666355 0.06748382 0.668952 -0.96612424 0.04940798 -0.2533038 255 100 49 255
-0.6566769 0.046891533 0.62695265 -0.96612424 0.04940798 -0.2533038 255 100 49 255
-0.6411681 0.0477273 0.5679631 -0.96612424 0.04940798 -0.2533038 255 100 49 255
-0.6357543 -0.0046129106 0.53710544 -0.96612424 0.04940798 -0.2533038 255 100 49 255
-0.6293302 0.06949417 0.527058 -0.96612424 0.04940798 -0.2533038 255 100 49 255
-0.6458495 -0.057788894 0.56523734 -0.96612424 0.04940798 -0.2533038 255 100 49 255
-0.63974035 0.033923842 0.5598251 -0.96612424 0.04940798 -0.2533038 255 100 49 255
-0.7378723 -0.027343187 0.27313635 0.96612424 -0.04940798 0.2533038 255 100 49 255
-0.788161 0.07761684 0.48541477 0.96612424 -0.04940798 0.2533038 255 100 49 255
-0.7947218 -0.07025848 0.48159492 0.96612424 -0.04940798 0.2533038 255 100 49 255
-0.734856 0.040637422 0.27489242 0.96612424 -0.04940798 0.2533038 255 100 49 255
-0.8068135 0.07661162 0.5563618 0.96612424 -0.04940798 0.2533038 255 100 49 255
-0.81337464 -0.07126357 0.552542 0.96612424 -0.04940798 0.2533038 255 100 49 255
-0.81337464 -0.07126357 0.552542 0.83300114 -0.022678172 -0.5528064 255 100 49 255
-0.746051 0.071545176 0.6481305 0.83300114 -0.022678172 -0.5528064 255 100 49 255
-0.75261176 -0.07633001 0.6443106 0.83300114 -0.022678172 -0.5528064 255 100 49 255
-0.8068135 0.07661162 0.5563618 0.83300114 -0.022678172 -0.5528064 255 100 49 255
-0.67319643 -0.08039137 0.66513216 0.2542453 0.01370041 -0.9670427 255 100 49 255
-0.746051 0.071545176 0.6481305 0.2542453 0.01370041 -0.9670427 255 100 49 255
-0.6666355 0.06748382 0.668952 0.2542453 0.01370041 -0.9670427 255 100 49 255
-0.75261176 -0.07633001 0.6443106 0.2542453 0.01370041 -0.9670427 255 100 49 255
-0.16113502 0.07403491 0.04891 5.213286E-14 -1.355283E-15 1 153 30 30 255
-0.34828508 -0.074035116 0.04891 5.213286E-14 -1.355283E-15 1 153 30 30 255
-0.16113502 -0.074035116 0.04891 5.213286E-14 -1.355283E-15 1 153 30 30 255
-0.34828508 0.07403491 0.04891 5.213286E-14 -1.355283E-15 1 153 30 30 255
3 0 1 2
3 1 0 3
3 4 5 6
3 5 4 7
3 7 4 8
3 8 4 9
3 10 11 12
3 11 10 13
3 14 15 16
3 15 14 17
3 18 19 20
3 19 18 21
3 22 23 24
3 23 22 25
3 24 23 26
3 27 28 22
3 28 27 29
3 22 28 25
3 28 29 30
3 31 32 33
3 32 31 34
3 34 31 35
3 34 35 36
3 37 38 39
3 38 37 40
3 41 42 43
3 42 41 44
3 45 46 47
3 46 45 48
3 49 50 51
3 50 49 52
3 53 54 55
3 54 53 56
3 54 56 57
3 54 57 58
3 59 60 61
3 60 59 62
3 60 62 63
3 63 62 64
3 64 62 65
3 64 65 66
3 66 65 67
3 66 67 68
3 69 61 70
3 61 69 59
3 70 61 71
3 70 71 72
3 72 71 73
3 72 73 68
3 68 73 74
3 68 74 66
3 75 76 77
3 76 75 78
3 78 75 79
3 79 75 80
3 79 80 81
3 81 80 82
3 82 80 83
3 83 80 84
3 77 85 86
3 85 77 87
3 85 87 88
3 87 77 76
3 88 87 89
3 88 89 90
3 88 90 83
3 83 90 82
3 91 92 93
3 92 91 94
3 95 96 97
3 96 95 98
3 96 98 99
3 99 98 100
3 101 102 103
3 102 101 104
3 105 106 107
3 106 105 108
3 109 110 111
3 110 109 112
3 112 109 113
3 112 113 114
3 115 116 117
3 116 115 118
3 119 120 121
3 120 119 122
3 122 119 123
3 122 123 124
3 122 124 125
3 125 124 126
3 127 128 129
3 128 127 130
3 130 127 131
3 130 131 132
3 133 134 135
3 134 133 136
3 137 138 139
3 138 137 140
3 141 142 143
3 142 141 144
3 142 144 145
3 145 144 146
3 147 148 149
3 148 147 150
3 151 152 153
3 152 151 154
3 155 156 157
3 156 155 158
3 159 160 161
3 160 159 162
3 163 164 165
3 164 163 166
3 167 168 169
3 168 167 170
3 171 172 173
3 172 171 174
3 175 176 177
3 176 175 178
3 179 180 181
3 180 179 182
3 183 184 185
3 184 183 186
3 187 188 189
3 188 187 190
3 191 192 193
3 192 191 194
3 194 195 196
3 195 194 197
3 197 194 191
3 195 197 198
3 199 200 201
3 200 199 202
3 201 200 203
3 203 200 204
3 200 202 205
3 206 207 208
3 207 206 203
3 207 203 209
3 209 203 204
3 208 207 210
3 211 212 213
3 212 211 214
3 215 216 217
3 216 215 218
3 219 189 220
3 189 219 187
3 221 222 223
3 222 221 224
3 225 226 227
3 226 225 228
3 229 230 231
3 230 229 232
3 233 234 235
3 234 233 236
3 237 238 239
3 238 237 240
3 241 242 243
3 242 241 244
3 245 246 247
3 246 245 248
3 249 250 251
3 250 249 252
3 253 254 255
3 254 253 256
3 257 258 259
3 258 257 260
3 244 261 242
3 261 244 262
3 263 264 265
3 264 263 266
3 267 268 269
3 268 267 270
3 271 272 273
3 272 271 274
3 275 276 277
3 276 275 278
3 279 280 281
3 280 279 282
3 283 284 285
3 284 283 286
3 287 288 289
3 288 287 290
3 291 292 293
3 292 291 294
3 295 296 297
3 296 295 298
3 299 300 301
3 300 299 302
3 303 304 305
3 304 303 306
3 307 308 309
3 308 307 310
3 311 312 313
3 312 311 314
3 315 316 317
3 316 315 318
3 319 320 321
3 320 319 322
3 323 324 325
3 324 323 326
3 327 328 329
3 328 327 330
3 331 332 333
3 332 331 334
3 335 336 337
3 336 335 338
3 320 339 321
3 340 341 342
3 341 340 343
3 328 344 329
3 345 346 347
3 346 345 348
3 349 350 351
3 350 349 352
3 353 354 355
3 354 353 356
3 357 358 359
3 358 360 361
3 360 358 357
3 362 363 364
3 363 362 365
3 366 367 368
3 367 366 369
3 370 371 372
3 371 370 373
3 374 375 376
3 377 378 379
3 378 377 380
3 380 377 381
3 382 331 383
3 331 382 384
3 385 386 387
3 386 385 388
3 386 388 389
3 390 391 392
3 391 390 369
3 393 394 395
3 396 397 398
3 397 396 399
3 400 401 402
3 403 404 405
3 406 407 408
3 407 406 409
3 410 411 412
3 411 410 413
3 414 415 416
3 415 414 417
3 418 419 420
3 421 422 423
3 422 421 424
3 425 393 395
3 393 425 426
3 427 428 429
3 428 427 430
3 431 432 433
3 432 431 434
3 435 436 437
3 438 439 440
3 441 442 443
3 442 441 444
3 445 446 447
3 446 445 448
3 449 438 440
3 438 449 450
3 451 452 453
3 454 455 456
3 455 454 457
3 458 459 460
3 459 458 461
3 462 463 464
3 465 466 467
3 466 465 468
3 469 470 471
3 470 469 472
3 473 474 475
3 476 477 478
3 479 480 481
3 482 483 484
3 485 486 487
3 486 485 488
3 489 490 491
3 490 489 492
3 493 494 495
3 496 497 498
3 497 496 499
3 500 501 502
3 501 500 503
3 503 500 504
3 504 500 505
3 506 507 508
3 507 506 509
3 507 509 510
3 507 510 511
3 512 513 514
3 513 512 515
3 515 512 516
3 516 512 517
3 516 517 518
3 518 517 519
3 514 520 521
3 520 514 522
3 522 514 513
3 521 520 523
3 521 523 519
3 521 519 517
3 524 525 526
3 525 524 527
3 526 528 529
3 528 526 525
3 530 531 532
3 531 530 533
3 534 535 536
3 535 534 537
3 538 539 540
3 539 538 541

