ply
format ascii 1.0
commentY29udmVydGVyIGJ5IENvZGVMZW9wYXJk
comment Original mesh name: 'C:\Program Files (x86)\Steam\steamapps\common\Stormworks\rom\meshes\arid_mainland_assets\railway_mid_signalbox.mesh'
comment SubMesh index: 0
comment SubMesh name: 'ID18'
comment Shader: Opaque (0)
element vertex 290
property float x
property float y
property float z
property float nx
property float ny
property float nz
property uchar red
property uchar green
property uchar blue
property uchar alpha
element face 164
property list uchar ushort vertex_index
end_header
-0.055598654 0.04098879 1.6200122 -4.4504287E-14 1 -0 170 170 170 255
-0.60388297 0.04098879 0.33274 -4.4504287E-14 1 -0 170 170 170 255
-0.60388297 0.04098879 1.6200122 -4.4504287E-14 1 -0 170 170 170 255
-0.055598654 0.04098879 0.33274 -4.4504287E-14 1 -0 170 170 170 255
-0.055598654 0.05439999 0.33274 0 -0 1 170 170 170 255
-0.60388297 0.04098879 0.33274 0 -0 1 170 170 170 255
-0.055598654 0.04098879 0.33274 0 -0 1 170 170 170 255
-0.60388297 0.05439999 0.33274 0 -0 1 170 170 170 255
-0.60388297 0.05439999 1.6200122 1 4.3989104E-14 -0 170 170 170 255
-0.60388297 0.04098879 0.33274 1 4.3989104E-14 -0 170 170 170 255
-0.60388297 0.05439999 0.33274 1 4.3989104E-14 -0 170 170 170 255
-0.60388297 0.04098879 1.6200122 1 4.3989104E-14 -0 170 170 170 255
-0.60388297 0.05439999 1.6200122 0 -0 -1 170 170 170 255
-0.055598654 0.04098879 1.6200122 0 -0 -1 170 170 170 255
-0.60388297 0.04098879 1.6200122 0 -0 -1 170 170 170 255
-0.055598654 0.05439999 1.6200122 0 -0 -1 170 170 170 255
-0.055598654 0.04098879 1.6200122 -1 -4.3989104E-14 -0 170 170 170 255
-0.055598654 0.05439999 0.33274 -1 -4.3989104E-14 -0 170 170 170 255
-0.055598654 0.04098879 0.33274 -1 -4.3989104E-14 -0 170 170 170 255
-0.055598654 0.05439999 1.6200122 -1 -4.3989104E-14 -0 170 170 170 255
-0.055598654 0.05439999 0.33274 4.4504287E-14 -1 -0 170 170 170 255
-0.60388297 0.05439999 1.6200122 4.4504287E-14 -1 -0 170 170 170 255
-0.60388297 0.05439999 0.33274 4.4504287E-14 -1 -0 170 170 170 255
-0.055598654 0.05439999 1.6200122 4.4504287E-14 -1 -0 170 170 170 255
-0.026109198 0.3516815 1.6581118 -1 -4.3863784E-14 -0 170 170 170 255
-0.026109198 0.4075615 1.5831819 -1 -4.3863784E-14 -0 170 170 170 255
-0.026109198 0.3516815 1.5831819 -1 -4.3863784E-14 -0 170 170 170 255
-0.026109198 0.4075615 1.6581118 -1 -4.3863784E-14 -0 170 170 170 255
-0.041399986 0.3516815 1.5831819 -4.438461E-14 1 -0 170 170 170 255
-0.026109198 0.3516815 1.6581118 -4.438461E-14 1 -0 170 170 170 255
-0.026109198 0.3516815 1.5831819 -4.438461E-14 1 -0 170 170 170 255
-0.007541801 0.3516815 1.7317718 -4.438461E-14 1 -0 170 170 170 255
-0.007541801 0.3516815 1.6581118 -4.438461E-14 1 -0 170 170 170 255
-0.041399986 0.3516815 1.7317718 -4.438461E-14 1 -0 170 170 170 255
-0.026109198 0.3516815 1.6581118 0 -0 1 170 170 170 255
-0.007541801 0.4075615 1.6581118 0 -0 1 170 170 170 255
-0.026109198 0.4075615 1.6581118 0 -0 1 170 170 170 255
-0.007541801 0.3516815 1.6581118 0 -0 1 170 170 170 255
-0.041399986 0.4075615 1.7317718 4.438461E-14 -1 -0 170 170 170 255
-0.007541801 0.4075615 1.6581118 4.438461E-14 -1 -0 170 170 170 255
-0.007541801 0.4075615 1.7317718 4.438461E-14 -1 -0 170 170 170 255
-0.026109198 0.4075615 1.6581118 4.438461E-14 -1 -0 170 170 170 255
-0.026109198 0.4075615 1.5831819 4.438461E-14 -1 -0 170 170 170 255
-0.041399986 0.4075615 1.5831819 4.438461E-14 -1 -0 170 170 170 255
-0.041399986 0.3516815 1.5831819 0 -0 1 170 170 170 255
-0.026109198 0.4075615 1.5831819 0 -0 1 170 170 170 255
-0.041399986 0.4075615 1.5831819 0 -0 1 170 170 170 255
-0.026109198 0.3516815 1.5831819 0 -0 1 170 170 170 255
-0.041399986 0.4075615 1.7317718 1 4.3863784E-14 -0 170 170 170 255
-0.041399986 0.3516815 1.5831819 1 4.3863784E-14 -0 170 170 170 255
-0.041399986 0.4075615 1.5831819 1 4.3863784E-14 -0 170 170 170 255
-0.041399986 0.3516815 1.7317718 1 4.3863784E-14 -0 170 170 170 255
-0.007541801 0.3516815 1.7317718 0 -0 -1 170 170 170 255
-0.041399986 0.4075615 1.7317718 0 -0 -1 170 170 170 255
-0.007541801 0.4075615 1.7317718 0 -0 -1 170 170 170 255
-0.041399986 0.3516815 1.7317718 0 -0 -1 170 170 170 255
-0.007541801 0.3516815 1.7317718 -1 -4.3863784E-14 -0 170 170 170 255
-0.007541801 0.4075615 1.6581118 -1 -4.3863784E-14 -0 170 170 170 255
-0.007541801 0.3516815 1.6581118 -1 -4.3863784E-14 -0 170 170 170 255
-0.007541801 0.4075615 1.7317718 -1 -4.3863784E-14 -0 170 170 170 255
-1.1838411 0.73837113 1.7089119 6.045988E-15 -0.13580184 -0.990736 170 170 170 255
-0.041400082 0.3796217 1.7724121 6.045988E-15 -0.13580184 -0.990736 170 170 170 255
-1.1838411 0.3796217 1.7724121 6.045988E-15 -0.13580184 -0.990736 170 170 170 255
-0.041400082 0.73837113 1.7089119 6.045988E-15 -0.13580184 -0.990736 170 170 170 255
-0.041400082 0.020871999 1.7089119 -1 -4.3989104E-14 -0 170 170 170 255
-0.041400082 0.054399982 1.658112 -1 -4.3989104E-14 -0 170 170 170 255
-0.041400082 0.020871999 1.658112 -1 -4.3989104E-14 -0 170 170 170 255
-0.041400082 0.7048432 1.658112 -1 -4.3989104E-14 -0 170 170 170 255
-0.041400082 0.73837113 1.658112 -1 -4.3989104E-14 -0 170 170 170 255
-0.041400082 0.73837113 1.7089119 -1 -4.3989104E-14 -0 170 170 170 255
-0.041400082 0.3796217 1.7724121 -1 -4.3989104E-14 -0 170 170 170 255
-1.1838411 0.3796217 1.7724121 -6.043764E-15 0.13580184 -0.990736 170 170 170 255
-0.041400082 0.020871999 1.7089119 -6.043764E-15 0.13580184 -0.990736 170 170 170 255
-1.1838411 0.020871999 1.7089119 -6.043764E-15 0.13580184 -0.990736 170 170 170 255
-0.041400082 0.3796217 1.7724121 -6.043764E-15 0.13580184 -0.990736 170 170 170 255
-1.1838411 0.73837113 1.7089119 1 4.3989104E-14 -0 170 170 170 255
-1.1838411 0.7048432 1.658112 1 4.3989104E-14 -0 170 170 170 255
-1.1838411 0.73837113 1.658112 1 4.3989104E-14 -0 170 170 170 255
-1.1838411 0.054399982 1.658112 1 4.3989104E-14 -0 170 170 170 255
-1.1838411 0.020871999 1.658112 1 4.3989104E-14 -0 170 170 170 255
-1.1838411 0.020871999 1.7089119 1 4.3989104E-14 -0 170 170 170 255
-1.1838411 0.3796217 1.7724121 1 4.3989104E-14 -0 170 170 170 255
-0.041400082 0.73837113 1.658112 4.4504287E-14 -1 -0 170 170 170 255
-1.1838411 0.73837113 1.7089119 4.4504287E-14 -1 -0 170 170 170 255
-1.1838411 0.73837113 1.658112 4.4504287E-14 -1 -0 170 170 170 255
-0.041400082 0.73837113 1.7089119 4.4504287E-14 -1 -0 170 170 170 255
-0.041400082 0.7048432 0.26924 -1 -4.3989104E-14 -0 170 170 170 255
-0.041400082 0.054399982 0.26924 -1 -4.3989104E-14 -0 170 170 170 255
-0.041400082 0.054399982 1.658112 0 -0 1 170 170 170 255
-1.1838411 0.020871999 1.658112 0 -0 1 170 170 170 255
-0.041400082 0.020871999 1.658112 0 -0 1 170 170 170 255
-1.1838411 0.054399982 1.658112 0 -0 1 170 170 170 255
-0.041400082 0.020871999 1.7089119 -4.4504287E-14 1 -0 170 170 170 255
-1.1838411 0.020871999 1.658112 -4.4504287E-14 1 -0 170 170 170 255
-1.1838411 0.020871999 1.7089119 -4.4504287E-14 1 -0 170 170 170 255
-0.041400082 0.020871999 1.658112 -4.4504287E-14 1 -0 170 170 170 255
-0.041400082 0.73837113 1.658112 0 -0 1 170 170 170 255
-1.1838411 0.7048432 1.658112 0 -0 1 170 170 170 255
-0.041400082 0.7048432 1.658112 0 -0 1 170 170 170 255
-1.1838411 0.73837113 1.658112 0 -0 1 170 170 170 255
-1.1838411 0.054399982 0.26924 1 4.3989104E-14 -0 170 170 170 255
-1.1838411 0.7048432 0.26924 1 4.3989104E-14 -0 170 170 170 255
-0.041400082 0.054399982 1.658112 -4.4504287E-14 1 -0 170 170 170 255
-1.1838411 0.054399982 0.26924 -4.4504287E-14 1 -0 170 170 170 255
-1.1838411 0.054399982 1.658112 -4.4504287E-14 1 -0 170 170 170 255
-0.041400082 0.054399982 0.26924 -4.4504287E-14 1 -0 170 170 170 255
-1.1838411 0.7048432 1.658112 0 -0 -1 170 170 170 255
-0.041400082 0.054399982 1.658112 0 -0 -1 170 170 170 255
-1.1838411 0.054399982 1.658112 0 -0 -1 170 170 170 255
-0.041400082 0.7048432 1.658112 0 -0 -1 170 170 170 255
-0.041400082 0.7048432 0.26924 4.4504287E-14 -1 -0 170 170 170 255
-1.1838411 0.7048432 1.658112 4.4504287E-14 -1 -0 170 170 170 255
-1.1838411 0.7048432 0.26924 4.4504287E-14 -1 -0 170 170 170 255
-0.041400082 0.7048432 1.658112 4.4504287E-14 -1 -0 170 170 170 255
-0.041400082 0.7048432 0.26924 0 -0 1 30 30 30 255
-1.1838411 0.054399982 0.26924 0 -0 1 30 30 30 255
-0.041400082 0.054399982 0.26924 0 -0 1 30 30 30 255
-1.1838411 0.7048432 0.26924 0 -0 1 30 30 30 255
-0.01599975 0.7302431 2.3283064E-08 0 -0 1 30 30 30 255
-1.209241 0.028999997 2.3283064E-08 0 -0 1 30 30 30 255
-0.01599975 0.028999997 2.3283064E-08 0 -0 1 30 30 30 255
-1.209241 0.7302431 2.3283064E-08 0 -0 1 30 30 30 255
-0.01599975 0.028999997 0.26924 -4.4504287E-14 1 -0 30 30 30 255
-1.209241 0.028999997 2.3283064E-08 -4.4504287E-14 1 -0 30 30 30 255
-1.209241 0.028999997 0.26924 -4.4504287E-14 1 -0 30 30 30 255
-0.01599975 0.028999997 2.3283064E-08 -4.4504287E-14 1 -0 30 30 30 255
-0.01599975 0.028999997 0.26924 -1 -4.3989104E-14 -0 30 30 30 255
-0.01599975 0.7302431 2.3283064E-08 -1 -4.3989104E-14 -0 30 30 30 255
-0.01599975 0.028999997 2.3283064E-08 -1 -4.3989104E-14 -0 30 30 30 255
-0.01599975 0.7302431 0.26924 -1 -4.3989104E-14 -0 30 30 30 255
-0.01599975 0.7302431 2.3283064E-08 4.4504287E-14 -1 -0 30 30 30 255
-1.209241 0.7302431 0.26924 4.4504287E-14 -1 -0 30 30 30 255
-1.209241 0.7302431 2.3283064E-08 4.4504287E-14 -1 -0 30 30 30 255
-0.01599975 0.7302431 0.26924 4.4504287E-14 -1 -0 30 30 30 255
-1.209241 0.7302431 0.26924 1 4.3989104E-14 -0 30 30 30 255
-1.209241 0.028999997 2.3283064E-08 1 4.3989104E-14 -0 30 30 30 255
-1.209241 0.7302431 2.3283064E-08 1 4.3989104E-14 -0 30 30 30 255
-1.209241 0.028999997 0.26924 1 4.3989104E-14 -0 30 30 30 255
-1.209241 0.028999997 0.26924 0 -0 -1 30 30 30 255
-1.1838411 0.054399982 0.26924 0 -0 -1 30 30 30 255
-0.01599975 0.028999997 0.26924 0 -0 -1 30 30 30 255
-1.209241 0.7302431 0.26924 0 -0 -1 30 30 30 255
-1.1838411 0.7048432 0.26924 0 -0 -1 30 30 30 255
-0.041400082 0.7048432 0.26924 0 -0 -1 30 30 30 255
-0.041400082 0.054399982 0.26924 0 -0 -1 30 30 30 255
-0.01599975 0.7302431 0.26924 0 -0 -1 30 30 30 255
-0.6587167 0.04098879 1.0277019 -1 -4.450429E-14 -0 170 170 170 255
-0.6587167 0.023208799 1.011192 -1 -4.450429E-14 -0 170 170 170 255
-0.6587167 0.023208799 1.0277019 -1 -4.450429E-14 -0 170 170 170 255
-0.6587167 0.04098879 1.011192 -1 -4.450429E-14 -0 170 170 170 255
-0.6587167 0.04098879 1.0277019 4.3989108E-14 -1 -0 170 170 170 255
-0.76031667 0.04098879 1.011192 4.3989108E-14 -1 -0 170 170 170 255
-0.6587167 0.04098879 1.011192 4.3989108E-14 -1 -0 170 170 170 255
-0.76031667 0.04098879 1.0277019 4.3989108E-14 -1 -0 170 170 170 255
-0.76031667 0.04098879 1.011192 0 -0 1 170 170 170 255
-0.6587167 0.023208799 1.011192 0 -0 1 170 170 170 255
-0.6587167 0.04098879 1.011192 0 -0 1 170 170 170 255
-0.76031667 0.023208799 1.011192 0 -0 1 170 170 170 255
-0.76031667 0.023208799 1.0277019 -4.3989108E-14 1 -0 170 170 170 255
-0.6587167 0.023208799 1.011192 -4.3989108E-14 1 -0 170 170 170 255
-0.76031667 0.023208799 1.011192 -4.3989108E-14 1 -0 170 170 170 255
-0.6587167 0.023208799 1.0277019 -4.3989108E-14 1 -0 170 170 170 255
-0.76031667 0.023208799 1.0277019 0 -0 -1 170 170 170 255
-0.6587167 0.04098879 1.0277019 0 -0 -1 170 170 170 255
-0.6587167 0.023208799 1.0277019 0 -0 -1 170 170 170 255
-0.76031667 0.04098879 1.0277019 0 -0 -1 170 170 170 255
-0.76031667 0.04098879 1.011192 1 4.450429E-14 -0 170 170 170 255
-0.76031667 0.023208799 1.0277019 1 4.450429E-14 -0 170 170 170 255
-0.76031667 0.023208799 1.011192 1 4.450429E-14 -0 170 170 170 255
-0.76031667 0.04098879 1.0277019 1 4.450429E-14 -0 170 170 170 255
-0.6643474 0.033988807 0.98877007 -1.727154E-14 0.4143584 -0.9101138 198 198 198 255
-0.6785074 0.04098879 0.991957 -1.727154E-14 0.4143584 -0.9101138 198 198 198 255
-0.6625074 0.04098879 0.991957 -1.727154E-14 0.4143584 -0.9101138 198 198 198 255
-0.6766674 0.033988807 0.98877007 -1.727154E-14 0.4143584 -0.9101138 198 198 198 255
-0.6625074 0.04098879 0.991957 -0.78818166 0.41435838 -0.45505685 198 198 198 255
-0.6581874 0.033988807 0.9781006 -0.78818166 0.41435838 -0.45505685 198 198 198 255
-0.6643474 0.033988807 0.98877007 -0.78818166 0.41435838 -0.45505685 198 198 198 255
-0.6545074 0.04098879 0.9781006 -0.78818166 0.41435838 -0.45505685 198 198 198 255
-0.6766674 0.033988807 0.96743125 -1.739554E-14 1 -2.1896359E-16 198 198 198 255
-0.67278606 0.033988807 0.9713127 -1.739554E-14 1 -2.1896359E-16 198 198 198 255
-0.6643474 0.033988807 0.96743125 -1.739554E-14 1 -2.1896359E-16 198 198 198 255
-0.6828274 0.033988807 0.9781006 -1.739554E-14 1 -2.1896359E-16 198 198 198 255
-0.67278606 0.033988807 0.98488873 -1.739554E-14 1 -2.1896359E-16 198 198 198 255
-0.6766674 0.033988807 0.98877007 -1.739554E-14 1 -2.1896359E-16 198 198 198 255
-0.668229 0.033988807 0.98488873 -1.739554E-14 1 -2.1896359E-16 198 198 198 255
-0.668229 0.033988807 0.9713127 -1.739554E-14 1 -2.1896359E-16 198 198 198 255
-0.6581874 0.033988807 0.9781006 -1.739554E-14 1 -2.1896359E-16 198 198 198 255
-0.6643474 0.033988807 0.98877007 -1.739554E-14 1 -2.1896359E-16 198 198 198 255
-0.68650734 0.04098879 0.9781006 0.78818166 0.41435838 -0.45505685 198 198 198 255
-0.6766674 0.033988807 0.98877007 0.78818166 0.41435838 -0.45505685 198 198 198 255
-0.6828274 0.033988807 0.9781006 0.78818166 0.41435838 -0.45505685 198 198 198 255
-0.6785074 0.04098879 0.991957 0.78818166 0.41435838 -0.45505685 198 198 198 255
-0.6545074 0.04098879 0.9781006 -0.78818166 0.41435838 0.45505685 198 198 198 255
-0.6643474 0.033988807 0.96743125 -0.78818166 0.41435838 0.45505685 198 198 198 255
-0.6581874 0.033988807 0.9781006 -0.78818166 0.41435838 0.45505685 198 198 198 255
-0.6625074 0.04098879 0.96424437 -0.78818166 0.41435838 0.45505685 198 198 198 255
-0.6785074 0.04098879 0.96424437 -1.727154E-14 0.4143584 0.9101138 198 198 198 255
-0.6643474 0.033988807 0.96743125 -1.727154E-14 0.4143584 0.9101138 198 198 198 255
-0.6625074 0.04098879 0.96424437 -1.727154E-14 0.4143584 0.9101138 198 198 198 255
-0.6766674 0.033988807 0.96743125 -1.727154E-14 0.4143584 0.9101138 198 198 198 255
-0.6785074 0.04098879 0.96424437 0.78818166 0.41435838 0.45505685 198 198 198 255
-0.6828274 0.033988807 0.9781006 0.78818166 0.41435838 0.45505685 198 198 198 255
-0.6766674 0.033988807 0.96743125 0.78818166 0.41435838 0.45505685 198 198 198 255
-0.68650734 0.04098879 0.9781006 0.78818166 0.41435838 0.45505685 198 198 198 255
-0.668229 0.037988797 0.9713127 1 -3.403667E-14 1.711389E-29 58 58 58 255
-0.668229 0.033988807 0.98488873 1 -3.403667E-14 1.711389E-29 58 58 58 255
-0.668229 0.033988807 0.9713127 1 -3.403667E-14 1.711389E-29 58 58 58 255
-0.668229 0.037988797 0.98488873 1 -3.403667E-14 1.711389E-29 58 58 58 255
-0.67278606 0.033988807 0.9713127 9.632011E-30 -2.1896359E-16 -1 58 58 58 255
-0.668229 0.037988797 0.9713127 9.632011E-30 -2.1896359E-16 -1 58 58 58 255
-0.668229 0.033988807 0.9713127 9.632011E-30 -2.1896359E-16 -1 58 58 58 255
-0.67278606 0.037988797 0.9713127 9.632011E-30 -2.1896359E-16 -1 58 58 58 255
-0.67278606 0.037988797 0.98488873 1.095442E-13 1 -2.1896359E-16 58 58 58 255
-0.668229 0.037988797 0.9713127 1.095442E-13 1 -2.1896359E-16 58 58 58 255
-0.67278606 0.037988797 0.9713127 1.095442E-13 1 -2.1896359E-16 58 58 58 255
-0.668229 0.037988797 0.98488873 1.095442E-13 1 -2.1896359E-16 58 58 58 255
-0.67278606 0.037988797 0.98488873 -9.632011E-30 2.1896359E-16 1 58 58 58 255
-0.668229 0.033988807 0.98488873 -9.632011E-30 2.1896359E-16 1 58 58 58 255
-0.668229 0.037988797 0.98488873 -9.632011E-30 2.1896359E-16 1 58 58 58 255
-0.67278606 0.033988807 0.98488873 -9.632011E-30 2.1896359E-16 1 58 58 58 255
-0.67278606 0.037988797 0.98488873 -1 3.403667E-14 -1.711389E-29 58 58 58 255
-0.67278606 0.033988807 0.9713127 -1 3.403667E-14 -1.711389E-29 58 58 58 255
-0.67278606 0.033988807 0.98488873 -1 3.403667E-14 -1.711389E-29 58 58 58 255
-0.67278606 0.037988797 0.9713127 -1 3.403667E-14 -1.711389E-29 58 58 58 255
-0.68650734 0.04098879 0.9781006 -5.606934E-14 1 -2.1896359E-16 255 153 49 255
-0.6625074 0.04098879 0.96424437 -5.606934E-14 1 -2.1896359E-16 255 153 49 255
-0.6785074 0.04098879 0.96424437 -5.606934E-14 1 -2.1896359E-16 255 153 49 255
-0.6545074 0.04098879 0.9781006 -5.606934E-14 1 -2.1896359E-16 255 153 49 255
-0.6785074 0.04098879 0.991957 -5.606934E-14 1 -2.1896359E-16 255 153 49 255
-0.6625074 0.04098879 0.991957 -5.606934E-14 1 -2.1896359E-16 255 153 49 255
-1.199132 0.4075615 1.6581118 1 4.3989104E-14 -0 170 170 170 255
-1.199132 0.3516815 1.5831819 1 4.3989104E-14 -0 170 170 170 255
-1.199132 0.4075615 1.5831819 1 4.3989104E-14 -0 170 170 170 255
-1.199132 0.3516815 1.6581118 1 4.3989104E-14 -0 170 170 170 255
-1.1838412 0.4075615 1.5831819 4.4504287E-14 -1 -0 170 170 170 255
-1.199132 0.4075615 1.6581118 4.4504287E-14 -1 -0 170 170 170 255
-1.199132 0.4075615 1.5831819 4.4504287E-14 -1 -0 170 170 170 255
-1.2176993 0.4075615 1.7317718 4.4504287E-14 -1 -0 170 170 170 255
-1.2176993 0.4075615 1.6581118 4.4504287E-14 -1 -0 170 170 170 255
-1.1838412 0.4075615 1.7317718 4.4504287E-14 -1 -0 170 170 170 255
-1.199132 0.4075615 1.6581118 0 -0 1 170 170 170 255
-1.2176993 0.3516815 1.6581118 0 -0 1 170 170 170 255
-1.199132 0.3516815 1.6581118 0 -0 1 170 170 170 255
-1.2176993 0.4075615 1.6581118 0 -0 1 170 170 170 255
-1.1838412 0.3516815 1.7317718 -4.4504287E-14 1 -0 170 170 170 255
-1.2176993 0.3516815 1.6581118 -4.4504287E-14 1 -0 170 170 170 255
-1.2176993 0.3516815 1.7317718 -4.4504287E-14 1 -0 170 170 170 255
-1.199132 0.3516815 1.6581118 -4.4504287E-14 1 -0 170 170 170 255
-1.199132 0.3516815 1.5831819 -4.4504287E-14 1 -0 170 170 170 255
-1.1838412 0.3516815 1.5831819 -4.4504287E-14 1 -0 170 170 170 255
-1.1838412 0.4075615 1.5831819 0 -0 1 170 170 170 255
-1.199132 0.3516815 1.5831819 0 -0 1 170 170 170 255
-1.1838412 0.3516815 1.5831819 0 -0 1 170 170 170 255
-1.199132 0.4075615 1.5831819 0 -0 1 170 170 170 255
-1.1838412 0.3516815 1.7317718 -1 -4.3989104E-14 -0 170 170 170 255
-1.1838412 0.4075615 1.5831819 -1 -4.3989104E-14 -0 170 170 170 255
-1.1838412 0.3516815 1.5831819 -1 -4.3989104E-14 -0 170 170 170 255
-1.1838412 0.4075615 1.7317718 -1 -4.3989104E-14 -0 170 170 170 255
-1.2176993 0.4075615 1.7317718 0 -0 -1 170 170 170 255
-1.1838412 0.3516815 1.7317718 0 -0 -1 170 170 170 255
-1.2176993 0.3516815 1.7317718 0 -0 -1 170 170 170 255
-1.1838412 0.4075615 1.7317718 0 -0 -1 170 170 170 255
-1.2176993 0.4075615 1.7317718 1 4.3989104E-14 -0 170 170 170 255
-1.2176993 0.3516815 1.6581118 1 4.3989104E-14 -0 170 170 170 255
-1.2176993 0.4075615 1.6581118 1 4.3989104E-14 -0 170 170 170 255
-1.2176993 0.3516815 1.7317718 1 4.3989104E-14 -0 170 170 170 255
-0.6213581 0.05439999 0.33274 0 -0 1 170 170 170 255
-1.1696426 0.04098879 0.33274 0 -0 1 170 170 170 255
-0.6213581 0.04098879 0.33274 0 -0 1 170 170 170 255
-1.1696426 0.05439999 0.33274 0 -0 1 170 170 170 255
-0.6213581 0.05439999 0.33274 4.4504287E-14 -1 -0 170 170 170 255
-1.1696426 0.05439999 1.6200122 4.4504287E-14 -1 -0 170 170 170 255
-1.1696426 0.05439999 0.33274 4.4504287E-14 -1 -0 170 170 170 255
-0.6213581 0.05439999 1.6200122 4.4504287E-14 -1 -0 170 170 170 255
-1.1696426 0.05439999 1.6200122 1 4.3989104E-14 -0 170 170 170 255
-1.1696426 0.04098879 0.33274 1 4.3989104E-14 -0 170 170 170 255
-1.1696426 0.05439999 0.33274 1 4.3989104E-14 -0 170 170 170 255
-1.1696426 0.04098879 1.6200122 1 4.3989104E-14 -0 170 170 170 255
-0.6213581 0.04098879 1.6200122 -4.4504287E-14 1 -0 170 170 170 255
-1.1696426 0.04098879 0.33274 -4.4504287E-14 1 -0 170 170 170 255
-1.1696426 0.04098879 1.6200122 -4.4504287E-14 1 -0 170 170 170 255
-0.6213581 0.04098879 0.33274 -4.4504287E-14 1 -0 170 170 170 255
-0.6213581 0.04098879 1.6200122 -1 -4.3989104E-14 -0 170 170 170 255
-0.6213581 0.05439999 0.33274 -1 -4.3989104E-14 -0 170 170 170 255
-0.6213581 0.04098879 0.33274 -1 -4.3989104E-14 -0 170 170 170 255
-0.6213581 0.05439999 1.6200122 -1 -4.3989104E-14 -0 170 170 170 255
-1.1696426 0.05439999 1.6200122 0 -0 -1 170 170 170 255
-0.6213581 0.04098879 1.6200122 0 -0 -1 170 170 170 255
-1.1696426 0.04098879 1.6200122 0 -0 -1 170 170 170 255
-0.6213581 0.05439999 1.6200122 0 -0 -1 170 170 170 255
3 0 1 2
3 1 0 3
3 4 5 6
3 5 4 7
3 8 9 10
3 9 8 11
3 12 13 14
3 13 12 15
3 16 17 18
3 17 16 19
3 20 21 22
3 21 20 23
3 24 25 26
3 25 24 27
3 28 29 30
3 29 31 32
3 31 29 33
3 33 29 28
3 34 35 36
3 35 34 37
3 38 39 40
3 39 38 41
3 41 38 42
3 42 38 43
3 44 45 46
3 45 44 47
3 48 49 50
3 49 48 51
3 52 53 54
3 53 52 55
3 56 57 58
3 57 56 59
3 60 61 62
3 61 60 63
3 64 65 66
3 65 64 67
3 67 64 68
3 68 64 69
3 69 64 70
3 71 72 73
3 72 71 74
3 75 76 77
3 76 75 78
3 78 75 79
3 79 75 80
3 80 75 81
3 82 83 84
3 83 82 85
3 65 86 87
3 86 65 67
3 88 89 90
3 89 88 91
3 92 93 94
3 93 92 95
3 96 97 98
3 97 96 99
3 76 100 101
3 100 76 78
3 102 103 104
3 103 102 105
3 106 107 108
3 107 106 109
3 110 111 112
3 111 110 113
3 114 115 116
3 115 114 117
3 118 119 120
3 119 118 121
3 122 123 124
3 123 122 125
3 126 127 128
3 127 126 129
3 130 131 132
3 131 130 133
3 134 135 136
3 135 134 137
3 138 139 140
3 139 138 141
3 139 141 142
3 142 141 143
3 140 144 145
3 144 140 139
3 145 144 143
3 145 143 141
3 146 147 148
3 147 146 149
3 150 151 152
3 151 150 153
3 154 155 156
3 155 154 157
3 158 159 160
3 159 158 161
3 162 163 164
3 163 162 165
3 166 167 168
3 167 166 169
3 170 171 172
3 171 170 173
3 174 175 176
3 175 174 177
3 178 179 180
3 179 178 181
3 179 181 182
3 182 181 183
3 182 183 184
3 180 185 186
3 185 180 179
3 186 185 184
3 186 184 187
3 187 184 183
3 188 189 190
3 189 188 191
3 192 193 194
3 193 192 195
3 196 197 198
3 197 196 199
3 200 201 202
3 201 200 203
3 204 205 206
3 205 204 207
3 208 209 210
3 209 208 211
3 212 213 214
3 213 212 215
3 216 217 218
3 217 216 219
3 220 221 222
3 221 220 223
3 224 225 226
3 225 224 227
3 227 224 228
3 227 228 229
3 230 231 232
3 231 230 233
3 234 235 236
3 235 237 238
3 237 235 239
3 239 235 234
3 240 241 242
3 241 240 243
3 244 245 246
3 245 244 247
3 247 244 248
3 248 244 249
3 250 251 252
3 251 250 253
3 254 255 256
3 255 254 257
3 258 259 260
3 259 258 261
3 262 263 264
3 263 262 265
3 266 267 268
3 267 266 269
3 270 271 272
3 271 270 273
3 274 275 276
3 275 274 277
3 278 279 280
3 279 278 281
3 282 283 284
3 283 282 285
3 286 287 288
3 287 286 289

