ply
format ascii 1.0
commentY29udmVydGVyIGJ5IENvZGVMZW9wYXJk
comment Original mesh name: 'C:\Program Files (x86)\Steam\steamapps\common\Stormworks\rom\meshes\arid_mainland_assets\railway_small_signalbox.mesh'
comment SubMesh index: 0
comment SubMesh name: 'ID158'
comment Shader: Opaque (0)
element vertex 628
property float x
property float y
property float z
property float nx
property float ny
property float nz
property uchar red
property uchar green
property uchar blue
property uchar alpha
element face 356
property list uchar ushort vertex_index
end_header
-0.21800688 0.0171168 0.90330225 6.8870834E-29 -1.6017663E-15 -1 58 58 58 255
-0.21345001 0.013116798 0.90330225 6.8870834E-29 -1.6017663E-15 -1 58 58 58 255
-0.21800688 0.013116798 0.90330225 6.8870834E-29 -1.6017663E-15 -1 58 58 58 255
-0.21345001 0.0171168 0.90330225 6.8870834E-29 -1.6017663E-15 -1 58 58 58 255
-0.21800688 0.013116798 0.91687834 -1 3.990008E-14 -2.1858173E-28 58 58 58 255
-0.21800688 0.0171168 0.90330225 -1 3.990008E-14 -2.1858173E-28 58 58 58 255
-0.21800688 0.013116798 0.90330225 -1 3.990008E-14 -2.1858173E-28 58 58 58 255
-0.21800688 0.0171168 0.91687834 -1 3.990008E-14 -2.1858173E-28 58 58 58 255
-0.21345001 0.0171168 0.91687834 1.0363708E-13 1 -2.670967E-15 58 58 58 255
-0.21800688 0.0171168 0.90330225 1.0363708E-13 1 -2.670967E-15 58 58 58 255
-0.21800688 0.0171168 0.91687834 1.0363708E-13 1 -2.670967E-15 58 58 58 255
-0.21345001 0.0171168 0.90330225 1.0363708E-13 1 -2.670967E-15 58 58 58 255
-0.21345001 0.0171168 0.91687834 1 -3.990008E-14 2.1858173E-28 58 58 58 255
-0.21345001 0.013116798 0.90330225 1 -3.990008E-14 2.1858173E-28 58 58 58 255
-0.21345001 0.0171168 0.90330225 1 -3.990008E-14 2.1858173E-28 58 58 58 255
-0.21345001 0.013116798 0.91687834 1 -3.990008E-14 2.1858173E-28 58 58 58 255
-0.21345001 0.013116798 0.91687834 -6.8870834E-29 1.6017663E-15 1 58 58 58 255
-0.21800688 0.0171168 0.91687834 -6.8870834E-29 1.6017663E-15 1 58 58 58 255
-0.21800688 0.013116798 0.91687834 -6.8870834E-29 1.6017663E-15 1 58 58 58 255
-0.21345001 0.0171168 0.91687834 -6.8870834E-29 1.6017663E-15 1 58 58 58 255
-0.22372836 0.020116797 0.9239467 -5.453417E-14 1 -2.670967E-15 255 153 49 255
-0.22372836 0.020116797 0.89623386 -5.453417E-14 1 -2.670967E-15 255 153 49 255
-0.23172829 0.020116797 0.91009027 -5.453417E-14 1 -2.670967E-15 255 153 49 255
-0.20772852 0.020116797 0.9239467 -5.453417E-14 1 -2.670967E-15 255 153 49 255
-0.20772852 0.020116797 0.89623386 -5.453417E-14 1 -2.670967E-15 255 153 49 255
-0.19972833 0.020116797 0.91009027 -5.453417E-14 1 -2.670967E-15 255 153 49 255
-0.6246318 0.4202177 1.5299608 1 4.3989104E-14 -0 170 170 170 255
-0.6246318 0.3643377 1.4550308 1 4.3989104E-14 -0 170 170 170 255
-0.6246318 0.4202177 1.4550308 1 4.3989104E-14 -0 170 170 170 255
-0.6246318 0.3643377 1.5299608 1 4.3989104E-14 -0 170 170 170 255
-0.609341 0.4202177 1.4550308 4.4504287E-14 -1 -0 170 170 170 255
-0.6246318 0.4202177 1.5299608 4.4504287E-14 -1 -0 170 170 170 255
-0.6246318 0.4202177 1.4550308 4.4504287E-14 -1 -0 170 170 170 255
-0.6431992 0.4202177 1.6036206 4.4504287E-14 -1 -0 170 170 170 255
-0.6431992 0.4202177 1.5299608 4.4504287E-14 -1 -0 170 170 170 255
-0.609341 0.4202177 1.6036206 4.4504287E-14 -1 -0 170 170 170 255
-0.6246318 0.4202177 1.5299608 0 -0 1 170 170 170 255
-0.6431992 0.3643377 1.5299608 0 -0 1 170 170 170 255
-0.6246318 0.3643377 1.5299608 0 -0 1 170 170 170 255
-0.6431992 0.4202177 1.5299608 0 -0 1 170 170 170 255
-0.609341 0.3643377 1.6036206 -4.4504287E-14 1 -0 170 170 170 255
-0.6431992 0.3643377 1.5299608 -4.4504287E-14 1 -0 170 170 170 255
-0.6431992 0.3643377 1.6036206 -4.4504287E-14 1 -0 170 170 170 255
-0.6246318 0.3643377 1.5299608 -4.4504287E-14 1 -0 170 170 170 255
-0.6246318 0.3643377 1.4550308 -4.4504287E-14 1 -0 170 170 170 255
-0.609341 0.3643377 1.4550308 -4.4504287E-14 1 -0 170 170 170 255
-0.609341 0.4202177 1.4550308 0 -0 1 170 170 170 255
-0.6246318 0.3643377 1.4550308 0 -0 1 170 170 170 255
-0.609341 0.3643377 1.4550308 0 -0 1 170 170 170 255
-0.6246318 0.4202177 1.4550308 0 -0 1 170 170 170 255
-0.609341 0.3643377 1.6036206 -1 -4.3989104E-14 -0 170 170 170 255
-0.609341 0.4202177 1.4550308 -1 -4.3989104E-14 -0 170 170 170 255
-0.609341 0.3643377 1.4550308 -1 -4.3989104E-14 -0 170 170 170 255
-0.609341 0.4202177 1.6036206 -1 -4.3989104E-14 -0 170 170 170 255
-0.6431992 0.4202177 1.6036206 0 -0 -1 170 170 170 255
-0.609341 0.3643377 1.6036206 0 -0 -1 170 170 170 255
-0.6431992 0.3643377 1.6036206 0 -0 -1 170 170 170 255
-0.609341 0.4202177 1.6036206 0 -0 -1 170 170 170 255
-0.6431992 0.4202177 1.6036206 1 4.3989104E-14 -0 170 170 170 255
-0.6431992 0.3643377 1.5299608 1 4.3989104E-14 -0 170 170 170 255
-0.6431992 0.4202177 1.5299608 1 4.3989104E-14 -0 170 170 170 255
-0.6431992 0.3643377 1.6036206 1 4.3989104E-14 -0 170 170 170 255
-0.018567165 0.3643376 1.5299608 -1 -4.386379E-14 -0 170 170 170 255
-0.018567165 0.42021757 1.4550308 -1 -4.386379E-14 -0 170 170 170 255
-0.018567165 0.3643376 1.4550308 -1 -4.386379E-14 -0 170 170 170 255
-0.018567165 0.42021757 1.5299608 -1 -4.386379E-14 -0 170 170 170 255
-0.033857953 0.3643376 1.4550308 -4.4384604E-14 1 -0 170 170 170 255
-0.018567165 0.3643376 1.5299608 -4.4384604E-14 1 -0 170 170 170 255
-0.018567165 0.3643376 1.4550308 -4.4384604E-14 1 -0 170 170 170 255
2.3283064E-07 0.3643376 1.6036206 -4.4384604E-14 1 -0 170 170 170 255
2.3283064E-07 0.3643376 1.5299608 -4.4384604E-14 1 -0 170 170 170 255
-0.033857953 0.3643376 1.6036206 -4.4384604E-14 1 -0 170 170 170 255
-0.018567165 0.3643376 1.5299608 0 -0 1 170 170 170 255
2.3283064E-07 0.42021757 1.5299608 0 -0 1 170 170 170 255
-0.018567165 0.42021757 1.5299608 0 -0 1 170 170 170 255
2.3283064E-07 0.3643376 1.5299608 0 -0 1 170 170 170 255
-0.033857953 0.42021757 1.6036206 4.4384604E-14 -1 -0 170 170 170 255
2.3283064E-07 0.42021757 1.5299608 4.4384604E-14 -1 -0 170 170 170 255
2.3283064E-07 0.42021757 1.6036206 4.4384604E-14 -1 -0 170 170 170 255
-0.018567165 0.42021757 1.5299608 4.4384604E-14 -1 -0 170 170 170 255
-0.018567165 0.42021757 1.4550308 4.4384604E-14 -1 -0 170 170 170 255
-0.033857953 0.42021757 1.4550308 4.4384604E-14 -1 -0 170 170 170 255
-0.033857953 0.3643376 1.4550308 0 -0 1 170 170 170 255
-0.018567165 0.42021757 1.4550308 0 -0 1 170 170 170 255
-0.033857953 0.42021757 1.4550308 0 -0 1 170 170 170 255
-0.018567165 0.3643376 1.4550308 0 -0 1 170 170 170 255
-0.033857953 0.42021757 1.6036206 1 4.386379E-14 -0 170 170 170 255
-0.033857953 0.3643376 1.4550308 1 4.386379E-14 -0 170 170 170 255
-0.033857953 0.42021757 1.4550308 1 4.386379E-14 -0 170 170 170 255
-0.033857953 0.3643376 1.6036206 1 4.386379E-14 -0 170 170 170 255
2.3283064E-07 0.3643376 1.6036206 0 -0 -1 170 170 170 255
-0.033857953 0.42021757 1.6036206 0 -0 -1 170 170 170 255
2.3283064E-07 0.42021757 1.6036206 0 -0 -1 170 170 170 255
-0.033857953 0.3643376 1.6036206 0 -0 -1 170 170 170 255
2.3283064E-07 0.3643376 1.6036206 -1 -4.386379E-14 -0 170 170 170 255
2.3283064E-07 0.42021757 1.5299608 -1 -4.386379E-14 -0 170 170 170 255
2.3283064E-07 0.3643376 1.5299608 -1 -4.386379E-14 -0 170 170 170 255
2.3283064E-07 0.42021757 1.6036206 -1 -4.386379E-14 -0 170 170 170 255
-0.6093411 0.35874972 1.6442606 5.060426E-15 -0.13580184 -0.990736 170 170 170 255
-0.033858 0.71749914 1.5807605 5.060426E-15 -0.13580184 -0.990736 170 170 170 255
-0.033858 0.35874972 1.6442606 5.060426E-15 -0.13580184 -0.990736 170 170 170 255
-0.6093411 0.71749914 1.5807605 5.060426E-15 -0.13580184 -0.990736 170 170 170 255
-0.033858 5.1070127E-14 1.5807605 -1 -3.8386307E-14 -1.396286E-13 170 170 170 255
-0.033858 0.03352799 1.5299608 -1 -3.8386307E-14 -1.396286E-13 170 170 170 255
-0.033858 5.1070127E-14 1.5299608 -1 -3.8386307E-14 -1.396286E-13 170 170 170 255
-0.033858 0.6839712 1.5299608 -1 -3.8386307E-14 -1.396286E-13 170 170 170 255
-0.033858 0.71749914 1.5299608 -1 -3.8386307E-14 -1.396286E-13 170 170 170 255
-0.033858 0.71749914 1.5807605 -1 -3.8386307E-14 -1.396286E-13 170 170 170 255
-0.033858 0.35874972 1.6442606 -1 -3.8386307E-14 -1.396286E-13 170 170 170 255
-0.6093411 0.35874972 1.6442606 -6.9063712E-15 0.13580184 -0.990736 170 170 170 255
-0.033858 5.1070127E-14 1.5807605 -6.9063712E-15 0.13580184 -0.990736 170 170 170 255
-0.6093411 2.5553439E-14 1.5807605 -6.9063712E-15 0.13580184 -0.990736 170 170 170 255
-0.033858 0.35874972 1.6442606 -6.9063712E-15 0.13580184 -0.990736 170 170 170 255
-0.6093411 0.71749914 1.5807605 1 4.921659E-14 -5.6341372E-14 170 170 170 255
-0.6093411 0.6839712 1.5299608 1 4.921659E-14 -5.6341372E-14 170 170 170 255
-0.6093411 0.71749914 1.5299608 1 4.921659E-14 -5.6341372E-14 170 170 170 255
-0.6093411 0.03352799 1.5299608 1 4.921659E-14 -5.6341372E-14 170 170 170 255
-0.6093411 2.5553439E-14 1.5299608 1 4.921659E-14 -5.6341372E-14 170 170 170 255
-0.6093411 2.5553439E-14 1.5807605 1 4.921659E-14 -5.6341372E-14 170 170 170 255
-0.6093411 0.35874972 1.6442606 1 4.921659E-14 -5.6341372E-14 170 170 170 255
-0.033858 0.71749914 1.5299608 4.4659463E-14 -1 2.855817E-29 170 170 170 255
-0.6093411 0.71749914 1.5807605 4.4659463E-14 -1 2.855817E-29 170 170 170 255
-0.6093411 0.71749914 1.5299608 4.4659463E-14 -1 2.855817E-29 170 170 170 255
-0.033858 0.71749914 1.5807605 4.4659463E-14 -1 2.855817E-29 170 170 170 255
-0.033858 0.6839712 0.26924 -1 -1.5724325E-14 5.5399704E-31 170 170 170 255
-0.033858 0.03352799 0.26924 -1 -1.5724325E-14 5.5399704E-31 170 170 170 255
-0.033858 5.1070127E-14 1.5299608 4.6389353E-16 -1.23402E-30 1 170 170 170 255
-0.6093411 0.03352799 1.5299608 4.6389353E-16 -1.23402E-30 1 170 170 170 255
-0.6093411 2.5553439E-14 1.5299608 4.6389353E-16 -1.23402E-30 1 170 170 170 255
-0.033858 0.03352799 1.5299608 4.6389353E-16 -1.23402E-30 1 170 170 170 255
-0.033858 5.1070127E-14 1.5807605 -4.4659463E-14 1 2.251757E-29 170 170 170 255
-0.6093411 2.5553439E-14 1.5299608 -4.4659463E-14 1 2.251757E-29 170 170 170 255
-0.6093411 2.5553439E-14 1.5807605 -4.4659463E-14 1 2.251757E-29 170 170 170 255
-0.033858 5.1070127E-14 1.5299608 -4.4659463E-14 1 2.251757E-29 170 170 170 255
-0.033858 0.6839712 1.5299608 4.6389353E-16 1.6595457E-28 1 170 170 170 255
-0.6093411 0.71749914 1.5299608 4.6389353E-16 1.6595457E-28 1 170 170 170 255
-0.6093411 0.6839712 1.5299608 4.6389353E-16 1.6595457E-28 1 170 170 170 255
-0.033858 0.71749914 1.5299608 4.6389353E-16 1.6595457E-28 1 170 170 170 255
-0.6093411 0.03352799 0.26924 1 5.2911475E-14 8.866723E-31 170 170 170 255
-0.6093411 0.6839712 0.26924 1 5.2911475E-14 8.866723E-31 170 170 170 255
-0.033858 0.03352799 1.5299608 -4.5258502E-14 1 6.962168E-31 170 170 170 255
-0.6093411 0.03352799 0.26924 -4.5258502E-14 1 6.962168E-31 170 170 170 255
-0.6093411 0.03352799 1.5299608 -4.5258502E-14 1 6.962168E-31 170 170 170 255
-0.033858 0.03352799 0.26924 -4.5258502E-14 1 6.962168E-31 170 170 170 255
-0.6093411 0.6839712 1.5299608 -4.6389353E-16 -1.5916767E-29 -1 170 170 170 255
-0.033858 0.03352799 1.5299608 -4.6389353E-16 -1.5916767E-29 -1 170 170 170 255
-0.6093411 0.03352799 1.5299608 -4.6389353E-16 -1.5916767E-29 -1 170 170 170 255
-0.033858 0.6839712 1.5299608 -4.6389353E-16 -1.5916767E-29 -1 170 170 170 255
-0.033858 0.6839712 0.26924 4.5857537E-14 -1 7.3185653E-31 170 170 170 255
-0.6093411 0.6839712 1.5299608 4.5857537E-14 -1 7.3185653E-31 170 170 170 255
-0.6093411 0.6839712 0.26924 4.5857537E-14 -1 7.3185653E-31 170 170 170 255
-0.033858 0.6839712 1.5299608 4.5857537E-14 -1 7.3185653E-31 170 170 170 255
-0.033858 0.03352799 0.26924 0 -0 1 30 30 30 255
-0.6093411 0.6839712 0.26924 0 -0 1 30 30 30 255
-0.6093411 0.03352799 0.26924 0 -0 1 30 30 30 255
-0.033858 0.6839712 0.26924 0 -0 1 30 30 30 255
-0.008458085 0.008127999 2.3283064E-08 0 -0 1 30 30 30 255
-0.63474107 0.7093711 2.3283064E-08 0 -0 1 30 30 30 255
-0.63474107 0.008127999 2.3283064E-08 0 -0 1 30 30 30 255
-0.008458085 0.7093711 2.3283064E-08 0 -0 1 30 30 30 255
-0.008458085 0.008127999 0.26924 -4.5062705E-14 1 -7.342113E-30 30 30 30 255
-0.63474107 0.008127999 2.3283064E-08 -4.5062705E-14 1 -7.342113E-30 30 30 30 255
-0.63474107 0.008127999 0.26924 -4.5062705E-14 1 -7.342113E-30 30 30 30 255
-0.008458085 0.008127999 2.3283064E-08 -4.5062705E-14 1 -7.342113E-30 30 30 30 255
-0.008458085 0.008127999 0.26924 -1 -4.8870565E-14 -0 30 30 30 255
-0.008458085 0.7093711 2.3283064E-08 -1 -4.8870565E-14 -0 30 30 30 255
-0.008458085 0.008127999 2.3283064E-08 -1 -4.8870565E-14 -0 30 30 30 255
-0.008458085 0.7093711 0.26924 -1 -4.8870565E-14 -0 30 30 30 255
-0.008458085 0.7093711 2.3283064E-08 4.5062705E-14 -1 -7.922347E-30 30 30 30 255
-0.63474107 0.7093711 0.26924 4.5062705E-14 -1 -7.922347E-30 30 30 30 255
-0.63474107 0.7093711 2.3283064E-08 4.5062705E-14 -1 -7.922347E-30 30 30 30 255
-0.008458085 0.7093711 0.26924 4.5062705E-14 -1 -7.922347E-30 30 30 30 255
-0.63474107 0.7093711 0.26924 1 4.3989104E-14 -0 30 30 30 255
-0.63474107 0.008127999 2.3283064E-08 1 4.3989104E-14 -0 30 30 30 255
-0.63474107 0.7093711 2.3283064E-08 1 4.3989104E-14 -0 30 30 30 255
-0.63474107 0.008127999 0.26924 1 4.3989104E-14 -0 30 30 30 255
-0.63474107 0.008127999 0.26924 0 -0 -1 30 30 30 255
-0.6093411 0.03352799 0.26924 0 -0 -1 30 30 30 255
-0.008458085 0.008127999 0.26924 0 -0 -1 30 30 30 255
-0.63474107 0.7093711 0.26924 0 -0 -1 30 30 30 255
-0.6093411 0.6839712 0.26924 0 -0 -1 30 30 30 255
-0.033858 0.6839712 0.26924 0 -0 -1 30 30 30 255
-0.033858 0.03352799 0.26924 0 -0 -1 30 30 30 255
-0.008458085 0.7093711 0.26924 0 -0 -1 30 30 30 255
-0.04685805 0.033527996 0.33274 0 -0 1 170 170 170 255
-0.5951425 0.020116797 0.33274 0 -0 1 170 170 170 255
-0.04685805 0.020116797 0.33274 0 -0 1 170 170 170 255
-0.5951425 0.033527996 0.33274 0 -0 1 170 170 170 255
-0.04685805 0.033527996 0.33274 4.8341197E-14 -1 -1.9901786E-16 170 170 170 255
-0.5951425 0.033527996 1.5037658 4.8341197E-14 -1 -1.9901786E-16 170 170 170 255
-0.5951425 0.033527996 0.33274 4.8341197E-14 -1 -1.9901786E-16 170 170 170 255
-0.04685805 0.033527996 1.5037658 4.8341197E-14 -1 -1.9901786E-16 170 170 170 255
-0.5951425 0.033527996 1.5037658 1 -2.8692576E-15 -0 170 170 170 255
-0.5951425 0.020116797 0.33274 1 -2.8692576E-15 -0 170 170 170 255
-0.5951425 0.033527996 0.33274 1 -2.8692576E-15 -0 170 170 170 255
-0.5951425 0.020116797 1.5037658 1 -2.8692576E-15 -0 170 170 170 255
-0.04685805 0.020116797 1.5037658 -4.2996802E-14 1 -2.3882147E-15 170 170 170 255
-0.5951425 0.020116797 0.33274 -4.2996802E-14 1 -2.3882147E-15 170 170 170 255
-0.5951425 0.020116797 1.5037658 -4.2996802E-14 1 -2.3882147E-15 170 170 170 255
-0.04685805 0.020116797 0.33274 -4.2996802E-14 1 -2.3882147E-15 170 170 170 255
-0.04685805 0.020116797 1.5037658 -1 2.8692576E-15 -0 170 170 170 255
-0.04685805 0.033527996 0.33274 -1 2.8692576E-15 -0 170 170 170 255
-0.04685805 0.020116797 0.33274 -1 2.8692576E-15 -0 170 170 170 255
-0.04685805 0.033527996 1.5037658 -1 2.8692576E-15 -0 170 170 170 255
-0.5951425 0.020116797 1.5037658 0 -0 -1 170 170 170 255
-0.04685805 0.033527996 1.5037658 0 -0 -1 170 170 170 255
-0.04685805 0.020116797 1.5037658 0 -0 -1 170 170 170 255
-0.5951425 0.033527996 1.5037658 0 -0 -1 170 170 170 255
-0.82749987 0.0023368 0.954702 -1 -2.0377489E-12 -0 170 170 170 255
-0.82749987 0.020116797 0.9381922 -1 -2.0377489E-12 -0 170 170 170 255
-0.82749987 0.0023368 0.9381922 -1 -2.0377489E-12 -0 170 170 170 255
-0.82749987 0.020116797 0.954702 -1 -2.0377489E-12 -0 170 170 170 255
-0.82749987 0.020116797 0.9381922 4.623771E-14 -1 -0 170 170 170 255
-0.9290998 0.020116797 0.954702 4.623771E-14 -1 -0 170 170 170 255
-0.9290998 0.020116797 0.9381922 4.623771E-14 -1 -0 170 170 170 255
-0.82749987 0.020116797 0.954702 4.623771E-14 -1 -0 170 170 170 255
-0.82749987 0.020116797 0.9381922 0 -0 1 170 170 170 255
-0.9290998 0.0023368 0.9381922 0 -0 1 170 170 170 255
-0.82749987 0.0023368 0.9381922 0 -0 1 170 170 170 255
-0.9290998 0.020116797 0.9381922 0 -0 1 170 170 170 255
-0.82749987 0.0023368 0.954702 -4.623771E-14 1 -0 170 170 170 255
-0.9290998 0.0023368 0.9381922 -4.623771E-14 1 -0 170 170 170 255
-0.9290998 0.0023368 0.954702 -4.623771E-14 1 -0 170 170 170 255
-0.82749987 0.0023368 0.9381922 -4.623771E-14 1 -0 170 170 170 255
-0.9290998 0.020116797 0.954702 0 -0 -1 170 170 170 255
-0.82749987 0.0023368 0.954702 0 -0 -1 170 170 170 255
-0.9290998 0.0023368 0.954702 0 -0 -1 170 170 170 255
-0.82749987 0.020116797 0.954702 0 -0 -1 170 170 170 255
-0.9290998 0.020116797 0.954702 1 -2.8692576E-15 -0 170 170 170 255
-0.9290998 0.0023368 0.9381922 1 -2.8692576E-15 -0 170 170 170 255
-0.9290998 0.020116797 0.9381922 1 -2.8692576E-15 -0 170 170 170 255
-0.9290998 0.0023368 0.954702 1 -2.8692576E-15 -0 170 170 170 255
-0.8481715 0.013116798 0.9207596 -1.7598295E-14 1 -2.670967E-15 198 198 198 255
-0.8481715 0.013116798 0.899421 -1.7598295E-14 1 -2.670967E-15 198 198 198 255
-0.85433155 0.013116798 0.91009027 -1.7598295E-14 1 -2.670967E-15 198 198 198 255
-0.84429014 0.013116798 0.91687834 -1.7598295E-14 1 -2.670967E-15 198 198 198 255
-0.83585155 0.013116798 0.9207596 -1.7598295E-14 1 -2.670967E-15 198 198 198 255
-0.8397331 0.013116798 0.91687834 -1.7598295E-14 1 -2.670967E-15 198 198 198 255
-0.8397331 0.013116798 0.90330225 -1.7598295E-14 1 -2.670967E-15 198 198 198 255
-0.84429014 0.013116798 0.90330225 -1.7598295E-14 1 -2.670967E-15 198 198 198 255
-0.83585155 0.013116798 0.899421 -1.7598295E-14 1 -2.670967E-15 198 198 198 255
-0.8296914 0.013116798 0.91009027 -1.7598295E-14 1 -2.670967E-15 198 198 198 255
-0.8340117 0.020116797 0.89623386 -1.3564359E-14 0.33250904 0.94310004 198 198 198 255
-0.8481715 0.013116798 0.899421 -1.3564359E-14 0.33250904 0.94310004 198 198 198 255
-0.83585155 0.013116798 0.899421 -1.3564359E-14 0.33250904 0.94310004 198 198 198 255
-0.8500116 0.020116797 0.89623386 -1.3564359E-14 0.33250904 0.94310004 198 198 198 255
-0.8580115 0.020116797 0.91009027 0.7231259 0.39804497 0.5644902 198 198 198 255
-0.8481715 0.013116798 0.899421 0.7231259 0.39804497 0.5644902 198 198 198 255
-0.8500116 0.020116797 0.89623386 0.7231259 0.39804497 0.5644902 198 198 198 255
-0.85433155 0.013116798 0.91009027 0.7231259 0.39804497 0.5644902 198 198 198 255
-0.8500116 0.020116797 0.9239467 0.7231259 0.39804497 -0.5644902 198 198 198 255
-0.85433155 0.013116798 0.91009027 0.7231259 0.39804497 -0.5644902 198 198 198 255
-0.8580115 0.020116797 0.91009027 0.7231259 0.39804497 -0.5644902 198 198 198 255
-0.8481715 0.013116798 0.9207596 0.7231259 0.39804497 -0.5644902 198 198 198 255
-0.8481715 0.013116798 0.9207596 -1.3564362E-14 0.33250904 -0.94310004 198 198 198 255
-0.8340117 0.020116797 0.9239467 -1.3564362E-14 0.33250904 -0.94310004 198 198 198 255
-0.83585155 0.013116798 0.9207596 -1.3564362E-14 0.33250904 -0.94310004 198 198 198 255
-0.8500116 0.020116797 0.9239467 -1.3564362E-14 0.33250904 -0.94310004 198 198 198 255
-0.8296914 0.013116798 0.91009027 -0.7231259 0.39804497 -0.5644902 198 198 198 255
-0.8340117 0.020116797 0.9239467 -0.7231259 0.39804497 -0.5644902 198 198 198 255
-0.8260115 0.020116797 0.91009027 -0.7231259 0.39804497 -0.5644902 198 198 198 255
-0.83585155 0.013116798 0.9207596 -0.7231259 0.39804497 -0.5644902 198 198 198 255
-0.83585155 0.013116798 0.899421 -0.7231259 0.39804497 0.5644902 198 198 198 255
-0.8260115 0.020116797 0.91009027 -0.7231259 0.39804497 0.5644902 198 198 198 255
-0.8340117 0.020116797 0.89623386 -0.7231259 0.39804497 0.5644902 198 198 198 255
-0.8296914 0.013116798 0.91009027 -0.7231259 0.39804497 0.5644902 198 198 198 255
-0.84429014 0.0171168 0.90330225 6.8870834E-29 -1.6017663E-15 -1 58 58 58 255
-0.8397331 0.013116798 0.90330225 6.8870834E-29 -1.6017663E-15 -1 58 58 58 255
-0.84429014 0.013116798 0.90330225 6.8870834E-29 -1.6017663E-15 -1 58 58 58 255
-0.8397331 0.0171168 0.90330225 6.8870834E-29 -1.6017663E-15 -1 58 58 58 255
-0.84429014 0.013116798 0.91687834 -1 3.990008E-14 -2.1858173E-28 58 58 58 255
-0.84429014 0.0171168 0.90330225 -1 3.990008E-14 -2.1858173E-28 58 58 58 255
-0.84429014 0.013116798 0.90330225 -1 3.990008E-14 -2.1858173E-28 58 58 58 255
-0.84429014 0.0171168 0.91687834 -1 3.990008E-14 -2.1858173E-28 58 58 58 255
-0.8397331 0.0171168 0.91687834 1.0363708E-13 1 -2.670967E-15 58 58 58 255
-0.84429014 0.0171168 0.90330225 1.0363708E-13 1 -2.670967E-15 58 58 58 255
-0.84429014 0.0171168 0.91687834 1.0363708E-13 1 -2.670967E-15 58 58 58 255
-0.8397331 0.0171168 0.90330225 1.0363708E-13 1 -2.670967E-15 58 58 58 255
-0.8397331 0.0171168 0.91687834 1 -3.990008E-14 2.1858173E-28 58 58 58 255
-0.8397331 0.013116798 0.90330225 1 -3.990008E-14 2.1858173E-28 58 58 58 255
-0.8397331 0.0171168 0.90330225 1 -3.990008E-14 2.1858173E-28 58 58 58 255
-0.8397331 0.013116798 0.91687834 1 -3.990008E-14 2.1858173E-28 58 58 58 255
-0.8397331 0.013116798 0.91687834 -6.8870834E-29 1.6017663E-15 1 58 58 58 255
-0.84429014 0.0171168 0.91687834 -6.8870834E-29 1.6017663E-15 1 58 58 58 255
-0.84429014 0.013116798 0.91687834 -6.8870834E-29 1.6017663E-15 1 58 58 58 255
-0.8397331 0.0171168 0.91687834 -6.8870834E-29 1.6017663E-15 1 58 58 58 255
-0.8500116 0.020116797 0.9239467 -5.453417E-14 1 -2.670967E-15 255 153 49 255
-0.8500116 0.020116797 0.89623386 -5.453417E-14 1 -2.670967E-15 255 153 49 255
-0.8580115 0.020116797 0.91009027 -5.453417E-14 1 -2.670967E-15 255 153 49 255
-0.8340117 0.020116797 0.9239467 -5.453417E-14 1 -2.670967E-15 255 153 49 255
-0.8340117 0.020116797 0.89623386 -5.453417E-14 1 -2.670967E-15 255 153 49 255
-0.8260115 0.020116797 0.91009027 -5.453417E-14 1 -2.670967E-15 255 153 49 255
-1.250915 0.4202177 1.5299608 1 4.3989104E-14 -0 170 170 170 255
-1.250915 0.3643377 1.4550308 1 4.3989104E-14 -0 170 170 170 255
-1.250915 0.4202177 1.4550308 1 4.3989104E-14 -0 170 170 170 255
-1.250915 0.3643377 1.5299608 1 4.3989104E-14 -0 170 170 170 255
-1.2356242 0.4202177 1.4550308 4.4504287E-14 -1 -0 170 170 170 255
-1.250915 0.4202177 1.5299608 4.4504287E-14 -1 -0 170 170 170 255
-1.250915 0.4202177 1.4550308 4.4504287E-14 -1 -0 170 170 170 255
-1.2694825 0.4202177 1.6036206 4.4504287E-14 -1 -0 170 170 170 255
-1.2694825 0.4202177 1.5299608 4.4504287E-14 -1 -0 170 170 170 255
-1.2356242 0.4202177 1.6036206 4.4504287E-14 -1 -0 170 170 170 255
-1.250915 0.4202177 1.5299608 0 -0 1 170 170 170 255
-1.2694825 0.3643377 1.5299608 0 -0 1 170 170 170 255
-1.250915 0.3643377 1.5299608 0 -0 1 170 170 170 255
-1.2694825 0.4202177 1.5299608 0 -0 1 170 170 170 255
-1.2356242 0.3643377 1.6036206 -4.4504287E-14 1 -0 170 170 170 255
-1.2694825 0.3643377 1.5299608 -4.4504287E-14 1 -0 170 170 170 255
-1.2694825 0.3643377 1.6036206 -4.4504287E-14 1 -0 170 170 170 255
-1.250915 0.3643377 1.5299608 -4.4504287E-14 1 -0 170 170 170 255
-1.250915 0.3643377 1.4550308 -4.4504287E-14 1 -0 170 170 170 255
-1.2356242 0.3643377 1.4550308 -4.4504287E-14 1 -0 170 170 170 255
-1.2356242 0.4202177 1.4550308 0 -0 1 170 170 170 255
-1.250915 0.3643377 1.4550308 0 -0 1 170 170 170 255
-1.2356242 0.3643377 1.4550308 0 -0 1 170 170 170 255
-1.250915 0.4202177 1.4550308 0 -0 1 170 170 170 255
-1.2356242 0.3643377 1.6036206 -1 -4.3989104E-14 -0 170 170 170 255
-1.2356242 0.4202177 1.4550308 -1 -4.3989104E-14 -0 170 170 170 255
-1.2356242 0.3643377 1.4550308 -1 -4.3989104E-14 -0 170 170 170 255
-1.2356242 0.4202177 1.6036206 -1 -4.3989104E-14 -0 170 170 170 255
-1.2694825 0.4202177 1.6036206 0 -0 -1 170 170 170 255
-1.2356242 0.3643377 1.6036206 0 -0 -1 170 170 170 255
-1.2694825 0.3643377 1.6036206 0 -0 -1 170 170 170 255
-1.2356242 0.4202177 1.6036206 0 -0 -1 170 170 170 255
-1.2694825 0.4202177 1.6036206 1 4.3989104E-14 -0 170 170 170 255
-1.2694825 0.3643377 1.5299608 1 4.3989104E-14 -0 170 170 170 255
-1.2694825 0.4202177 1.5299608 1 4.3989104E-14 -0 170 170 170 255
-1.2694825 0.3643377 1.6036206 1 4.3989104E-14 -0 170 170 170 255
-0.6448504 0.3643376 1.5299608 -1 -4.386379E-14 -0 170 170 170 255
-0.6448504 0.42021757 1.4550308 -1 -4.386379E-14 -0 170 170 170 255
-0.6448504 0.3643376 1.4550308 -1 -4.386379E-14 -0 170 170 170 255
-0.6448504 0.42021757 1.5299608 -1 -4.386379E-14 -0 170 170 170 255
-0.6601411 0.3643376 1.4550308 -4.4384604E-14 1 -0 170 170 170 255
-0.6448504 0.3643376 1.5299608 -4.4384604E-14 1 -0 170 170 170 255
-0.6448504 0.3643376 1.4550308 -4.4384604E-14 1 -0 170 170 170 255
-0.62628293 0.3643376 1.6036206 -4.4384604E-14 1 -0 170 170 170 255
-0.62628293 0.3643376 1.5299608 -4.4384604E-14 1 -0 170 170 170 255
-0.6601411 0.3643376 1.6036206 -4.4384604E-14 1 -0 170 170 170 255
-0.6448504 0.3643376 1.5299608 0 -0 1 170 170 170 255
-0.62628293 0.42021757 1.5299608 0 -0 1 170 170 170 255
-0.6448504 0.42021757 1.5299608 0 -0 1 170 170 170 255
-0.62628293 0.3643376 1.5299608 0 -0 1 170 170 170 255
-0.6601411 0.42021757 1.6036206 4.4384604E-14 -1 -0 170 170 170 255
-0.62628293 0.42021757 1.5299608 4.4384604E-14 -1 -0 170 170 170 255
-0.62628293 0.42021757 1.6036206 4.4384604E-14 -1 -0 170 170 170 255
-0.6448504 0.42021757 1.5299608 4.4384604E-14 -1 -0 170 170 170 255
-0.6448504 0.42021757 1.4550308 4.4384604E-14 -1 -0 170 170 170 255
-0.6601411 0.42021757 1.4550308 4.4384604E-14 -1 -0 170 170 170 255
-0.6601411 0.3643376 1.4550308 0 -0 1 170 170 170 255
-0.6448504 0.42021757 1.4550308 0 -0 1 170 170 170 255
-0.6601411 0.42021757 1.4550308 0 -0 1 170 170 170 255
-0.6448504 0.3643376 1.4550308 0 -0 1 170 170 170 255
-0.6601411 0.42021757 1.6036206 1 4.386379E-14 -0 170 170 170 255
-0.6601411 0.3643376 1.4550308 1 4.386379E-14 -0 170 170 170 255
-0.6601411 0.42021757 1.4550308 1 4.386379E-14 -0 170 170 170 255
-0.6601411 0.3643376 1.6036206 1 4.386379E-14 -0 170 170 170 255
-0.62628293 0.3643376 1.6036206 0 -0 -1 170 170 170 255
-0.6601411 0.42021757 1.6036206 0 -0 -1 170 170 170 255
-0.62628293 0.42021757 1.6036206 0 -0 -1 170 170 170 255
-0.6601411 0.3643376 1.6036206 0 -0 -1 170 170 170 255
-0.62628293 0.3643376 1.6036206 -1 -4.386379E-14 -0 170 170 170 255
-0.62628293 0.42021757 1.5299608 -1 -4.386379E-14 -0 170 170 170 255
-0.62628293 0.3643376 1.5299608 -1 -4.386379E-14 -0 170 170 170 255
-0.62628293 0.42021757 1.6036206 -1 -4.386379E-14 -0 170 170 170 255
-1.2356242 0.35874972 1.6442606 5.060426E-15 -0.13580184 -0.990736 170 170 170 255
-0.6601411 0.71749914 1.5807605 5.060426E-15 -0.13580184 -0.990736 170 170 170 255
-0.6601411 0.35874972 1.6442606 5.060426E-15 -0.13580184 -0.990736 170 170 170 255
-1.2356242 0.71749914 1.5807605 5.060426E-15 -0.13580184 -0.990736 170 170 170 255
-0.6601411 2.7968964E-14 1.5807605 -1 -3.8386307E-14 -1.396286E-13 170 170 170 255
-0.6601411 0.03352799 1.5299608 -1 -3.8386307E-14 -1.396286E-13 170 170 170 255
-0.6601411 2.7968964E-14 1.5299608 -1 -3.8386307E-14 -1.396286E-13 170 170 170 255
-0.6601411 0.6839712 1.5299608 -1 -3.8386307E-14 -1.396286E-13 170 170 170 255
-0.6601411 0.71749914 1.5299608 -1 -3.8386307E-14 -1.396286E-13 170 170 170 255
-0.6601411 0.71749914 1.5807605 -1 -3.8386307E-14 -1.396286E-13 170 170 170 255
-0.6601411 0.35874972 1.6442606 -1 -3.8386307E-14 -1.396286E-13 170 170 170 255
-1.2356242 0.35874972 1.6442606 -6.9063712E-15 0.13580184 -0.990736 170 170 170 255
-0.6601411 2.7968964E-14 1.5807605 -6.9063712E-15 0.13580184 -0.990736 170 170 170 255
-1.2356242 2.452277E-15 1.5807605 -6.9063712E-15 0.13580184 -0.990736 170 170 170 255
-0.6601411 0.35874972 1.6442606 -6.9063712E-15 0.13580184 -0.990736 170 170 170 255
-1.2356242 0.71749914 1.5807605 1 4.921659E-14 -5.6341372E-14 170 170 170 255
-1.2356242 0.6839712 1.5299608 1 4.921659E-14 -5.6341372E-14 170 170 170 255
-1.2356242 0.71749914 1.5299608 1 4.921659E-14 -5.6341372E-14 170 170 170 255
-1.2356242 0.03352799 1.5299608 1 4.921659E-14 -5.6341372E-14 170 170 170 255
-1.2356242 2.452277E-15 1.5299608 1 4.921659E-14 -5.6341372E-14 170 170 170 255
-1.2356242 2.452277E-15 1.5807605 1 4.921659E-14 -5.6341372E-14 170 170 170 255
-1.2356242 0.35874972 1.6442606 1 4.921659E-14 -5.6341372E-14 170 170 170 255
-0.6601411 0.71749914 1.5299608 4.4659463E-14 -1 2.855817E-29 170 170 170 255
-1.2356242 0.71749914 1.5807605 4.4659463E-14 -1 2.855817E-29 170 170 170 255
-1.2356242 0.71749914 1.5299608 4.4659463E-14 -1 2.855817E-29 170 170 170 255
-0.6601411 0.71749914 1.5807605 4.4659463E-14 -1 2.855817E-29 170 170 170 255
-0.6601411 0.6839712 0.26924 -1 -1.5724325E-14 5.5399704E-31 170 170 170 255
-0.6601411 0.03352799 0.26924 -1 -1.5724325E-14 5.5399704E-31 170 170 170 255
-0.6601411 2.7968964E-14 1.5299608 4.6389353E-16 -1.23402E-30 1 170 170 170 255
-1.2356242 0.03352799 1.5299608 4.6389353E-16 -1.23402E-30 1 170 170 170 255
-1.2356242 2.452277E-15 1.5299608 4.6389353E-16 -1.23402E-30 1 170 170 170 255
-0.6601411 0.03352799 1.5299608 4.6389353E-16 -1.23402E-30 1 170 170 170 255
-0.6601411 2.7968964E-14 1.5807605 -4.4659463E-14 1 2.251757E-29 170 170 170 255
-1.2356242 2.452277E-15 1.5299608 -4.4659463E-14 1 2.251757E-29 170 170 170 255
-1.2356242 2.452277E-15 1.5807605 -4.4659463E-14 1 2.251757E-29 170 170 170 255
-0.6601411 2.7968964E-14 1.5299608 -4.4659463E-14 1 2.251757E-29 170 170 170 255
-0.6601411 0.6839712 1.5299608 4.6389353E-16 1.6595457E-28 1 170 170 170 255
-1.2356242 0.71749914 1.5299608 4.6389353E-16 1.6595457E-28 1 170 170 170 255
-1.2356242 0.6839712 1.5299608 4.6389353E-16 1.6595457E-28 1 170 170 170 255
-0.6601411 0.71749914 1.5299608 4.6389353E-16 1.6595457E-28 1 170 170 170 255
-1.2356242 0.03352799 0.26924 1 5.2911475E-14 8.866723E-31 170 170 170 255
-1.2356242 0.6839712 0.26924 1 5.2911475E-14 8.866723E-31 170 170 170 255
-0.6601411 0.03352799 1.5299608 -4.5258502E-14 1 6.962168E-31 170 170 170 255
-1.2356242 0.03352799 0.26924 -4.5258502E-14 1 6.962168E-31 170 170 170 255
-1.2356242 0.03352799 1.5299608 -4.5258502E-14 1 6.962168E-31 170 170 170 255
-0.6601411 0.03352799 0.26924 -4.5258502E-14 1 6.962168E-31 170 170 170 255
-1.2356242 0.6839712 1.5299608 -4.6389353E-16 -1.5916767E-29 -1 170 170 170 255
-0.6601411 0.03352799 1.5299608 -4.6389353E-16 -1.5916767E-29 -1 170 170 170 255
-1.2356242 0.03352799 1.5299608 -4.6389353E-16 -1.5916767E-29 -1 170 170 170 255
-0.6601411 0.6839712 1.5299608 -4.6389353E-16 -1.5916767E-29 -1 170 170 170 255
-0.6601411 0.6839712 0.26924 4.5857537E-14 -1 7.3185653E-31 170 170 170 255
-1.2356242 0.6839712 1.5299608 4.5857537E-14 -1 7.3185653E-31 170 170 170 255
-1.2356242 0.6839712 0.26924 4.5857537E-14 -1 7.3185653E-31 170 170 170 255
-0.6601411 0.6839712 1.5299608 4.5857537E-14 -1 7.3185653E-31 170 170 170 255
-0.6601411 0.03352799 0.26924 0 -0 1 30 30 30 255
-1.2356242 0.6839712 0.26924 0 -0 1 30 30 30 255
-1.2356242 0.03352799 0.26924 0 -0 1 30 30 30 255
-0.6601411 0.6839712 0.26924 0 -0 1 30 30 30 255
-0.63474125 0.008127999 2.3283064E-08 0 -0 1 30 30 30 255
-1.2610242 0.7093711 2.3283064E-08 0 -0 1 30 30 30 255
-1.2610242 0.008127999 2.3283064E-08 0 -0 1 30 30 30 255
-0.63474125 0.7093711 2.3283064E-08 0 -0 1 30 30 30 255
-0.63474125 0.008127999 0.26924 -4.5062705E-14 1 -7.342113E-30 30 30 30 255
-1.2610242 0.008127999 2.3283064E-08 -4.5062705E-14 1 -7.342113E-30 30 30 30 255
-1.2610242 0.008127999 0.26924 -4.5062705E-14 1 -7.342113E-30 30 30 30 255
-0.63474125 0.008127999 2.3283064E-08 -4.5062705E-14 1 -7.342113E-30 30 30 30 255
-0.63474125 0.008127999 0.26924 -1 -4.8870565E-14 -0 30 30 30 255
-0.63474125 0.7093711 2.3283064E-08 -1 -4.8870565E-14 -0 30 30 30 255
-0.63474125 0.008127999 2.3283064E-08 -1 -4.8870565E-14 -0 30 30 30 255
-0.63474125 0.7093711 0.26924 -1 -4.8870565E-14 -0 30 30 30 255
-0.63474125 0.7093711 2.3283064E-08 4.5062705E-14 -1 -7.922347E-30 30 30 30 255
-1.2610242 0.7093711 0.26924 4.5062705E-14 -1 -7.922347E-30 30 30 30 255
-1.2610242 0.7093711 2.3283064E-08 4.5062705E-14 -1 -7.922347E-30 30 30 30 255
-0.63474125 0.7093711 0.26924 4.5062705E-14 -1 -7.922347E-30 30 30 30 255
-1.2610242 0.7093711 0.26924 1 4.3989104E-14 -0 30 30 30 255
-1.2610242 0.008127999 2.3283064E-08 1 4.3989104E-14 -0 30 30 30 255
-1.2610242 0.7093711 2.3283064E-08 1 4.3989104E-14 -0 30 30 30 255
-1.2610242 0.008127999 0.26924 1 4.3989104E-14 -0 30 30 30 255
-1.2610242 0.008127999 0.26924 0 -0 -1 30 30 30 255
-1.2356242 0.03352799 0.26924 0 -0 -1 30 30 30 255
-0.63474125 0.008127999 0.26924 0 -0 -1 30 30 30 255
-1.2610242 0.7093711 0.26924 0 -0 -1 30 30 30 255
-1.2356242 0.6839712 0.26924 0 -0 -1 30 30 30 255
-0.6601411 0.6839712 0.26924 0 -0 -1 30 30 30 255
-0.6601411 0.03352799 0.26924 0 -0 -1 30 30 30 255
-0.63474125 0.7093711 0.26924 0 -0 -1 30 30 30 255
-0.67314124 0.033527996 0.33274 0 -0 1 170 170 170 255
-1.2214257 0.020116797 0.33274 0 -0 1 170 170 170 255
-0.67314124 0.020116797 0.33274 0 -0 1 170 170 170 255
-1.2214257 0.033527996 0.33274 0 -0 1 170 170 170 255
-0.67314124 0.033527996 0.33274 4.8341197E-14 -1 -1.9901786E-16 170 170 170 255
-1.2214257 0.033527996 1.5037658 4.8341197E-14 -1 -1.9901786E-16 170 170 170 255
-1.2214257 0.033527996 0.33274 4.8341197E-14 -1 -1.9901786E-16 170 170 170 255
-0.67314124 0.033527996 1.5037658 4.8341197E-14 -1 -1.9901786E-16 170 170 170 255
-1.2214257 0.033527996 1.5037658 1 -2.8692576E-15 -0 170 170 170 255
-1.2214257 0.020116797 0.33274 1 -2.8692576E-15 -0 170 170 170 255
-1.2214257 0.033527996 0.33274 1 -2.8692576E-15 -0 170 170 170 255
-1.2214257 0.020116797 1.5037658 1 -2.8692576E-15 -0 170 170 170 255
-0.67314124 0.020116797 1.5037658 -4.2996802E-14 1 -2.3882147E-15 170 170 170 255
-1.2214257 0.020116797 0.33274 -4.2996802E-14 1 -2.3882147E-15 170 170 170 255
-1.2214257 0.020116797 1.5037658 -4.2996802E-14 1 -2.3882147E-15 170 170 170 255
-0.67314124 0.020116797 0.33274 -4.2996802E-14 1 -2.3882147E-15 170 170 170 255
-0.67314124 0.020116797 1.5037658 -1 2.8692576E-15 -0 170 170 170 255
-0.67314124 0.033527996 0.33274 -1 2.8692576E-15 -0 170 170 170 255
-0.67314124 0.020116797 0.33274 -1 2.8692576E-15 -0 170 170 170 255
-0.67314124 0.033527996 1.5037658 -1 2.8692576E-15 -0 170 170 170 255
-1.2214257 0.020116797 1.5037658 0 -0 -1 170 170 170 255
-0.67314124 0.033527996 1.5037658 0 -0 -1 170 170 170 255
-0.67314124 0.020116797 1.5037658 0 -0 -1 170 170 170 255
-1.2214257 0.033527996 1.5037658 0 -0 -1 170 170 170 255
-1.3891498 0.38894674 0.70800006 -1 4.302114E-16 -0 30 30 30 255
-1.3891498 0.41994676 9.023892E-17 -1 4.302114E-16 -0 30 30 30 255
-1.3891498 0.38894674 9.023892E-17 -1 4.302114E-16 -0 30 30 30 255
-1.3891498 0.41994676 0.70800006 -1 4.302114E-16 -0 30 30 30 255
-1.3891498 0.41994676 9.023892E-17 0 -0 1 30 30 30 255
-1.4181497 0.38894674 9.023892E-17 0 -0 1 30 30 30 255
-1.3891498 0.38894674 9.023892E-17 0 -0 1 30 30 30 255
-1.4181497 0.41994676 9.023892E-17 0 -0 1 30 30 30 255
-1.3891498 0.38894674 0.70800006 4.302114E-16 1 -0 30 30 30 255
-1.4181497 0.38894674 9.023892E-17 4.302114E-16 1 -0 30 30 30 255
-1.4181497 0.38894674 0.70800006 4.302114E-16 1 -0 30 30 30 255
-1.3891498 0.38894674 9.023892E-17 4.302114E-16 1 -0 30 30 30 255
-1.4181497 0.41994676 0.70800006 0 -0 -1 30 30 30 255
-1.3891498 0.38894674 0.70800006 0 -0 -1 30 30 30 255
-1.4181497 0.38894674 0.70800006 0 -0 -1 30 30 30 255
-1.3891498 0.41994676 0.70800006 0 -0 -1 30 30 30 255
-1.3891498 0.41994676 9.023892E-17 -4.302114E-16 -1 -0 30 30 30 255
-1.4181497 0.41994676 0.70800006 -4.302114E-16 -1 -0 30 30 30 255
-1.4181497 0.41994676 9.023892E-17 -4.302114E-16 -1 -0 30 30 30 255
-1.3891498 0.41994676 0.70800006 -4.302114E-16 -1 -0 30 30 30 255
-1.4181497 0.41994676 0.70800006 1 -4.302114E-16 -0 30 30 30 255
-1.4181497 0.38894674 9.023892E-17 1 -4.302114E-16 -0 30 30 30 255
-1.4181497 0.41994676 9.023892E-17 1 -4.302114E-16 -0 30 30 30 255
-1.4181497 0.38894674 0.70800006 1 -4.302114E-16 -0 30 30 30 255
-1.6441497 0.41994676 1.3535839E-16 0 -0 1 30 30 30 255
-1.6731497 0.38894674 1.3535839E-16 0 -0 1 30 30 30 255
-1.6441497 0.38894674 1.3535839E-16 0 -0 1 30 30 30 255
-1.6731497 0.41994676 1.3535839E-16 0 -0 1 30 30 30 255
-1.6441497 0.38894674 0.70800006 -1 4.302114E-16 -0 30 30 30 255
-1.6441497 0.41994676 1.3535839E-16 -1 4.302114E-16 -0 30 30 30 255
-1.6441497 0.38894674 1.3535839E-16 -1 4.302114E-16 -0 30 30 30 255
-1.6441497 0.41994676 0.70800006 -1 4.302114E-16 -0 30 30 30 255
-1.6441497 0.41994676 1.3535839E-16 -4.302114E-16 -1 -0 30 30 30 255
-1.6731497 0.41994676 0.70800006 -4.302114E-16 -1 -0 30 30 30 255
-1.6731497 0.41994676 1.3535839E-16 -4.302114E-16 -1 -0 30 30 30 255
-1.6441497 0.41994676 0.70800006 -4.302114E-16 -1 -0 30 30 30 255
-1.6731497 0.41994676 0.70800006 1 -4.302114E-16 -0 30 30 30 255
-1.6731497 0.38894674 1.3535839E-16 1 -4.302114E-16 -0 30 30 30 255
-1.6731497 0.41994676 1.3535839E-16 1 -4.302114E-16 -0 30 30 30 255
-1.6731497 0.38894674 0.70800006 1 -4.302114E-16 -0 30 30 30 255
-1.6441497 0.38894674 0.70800006 4.302114E-16 1 -0 30 30 30 255
-1.6731497 0.38894674 1.3535839E-16 4.302114E-16 1 -0 30 30 30 255
-1.6731497 0.38894674 0.70800006 4.302114E-16 1 -0 30 30 30 255
-1.6441497 0.38894674 1.3535839E-16 4.302114E-16 1 -0 30 30 30 255
-1.6731497 0.41994676 0.70800006 0 -0 -1 30 30 30 255
-1.6441497 0.38894674 0.70800006 0 -0 -1 30 30 30 255
-1.6731497 0.38894674 0.70800006 0 -0 -1 30 30 30 255
-1.6441497 0.41994676 0.70800006 0 -0 -1 30 30 30 255
-1.6441497 0.4821591 0.8099998 1 -4.302114E-16 -0 255 126 0 255
-1.6441497 0.33215913 0.43199983 1 -4.302114E-16 -0 255 126 0 255
-1.6441497 0.4821591 0.43199983 1 -4.302114E-16 -0 255 126 0 255
-1.6441497 0.33215913 0.8099998 1 -4.302114E-16 -0 255 126 0 255
-1.4181497 0.4821591 0.43199983 0 -0 1 255 126 0 255
-1.6441497 0.33215913 0.43199983 0 -0 1 255 126 0 255
-1.4181497 0.33215913 0.43199983 0 -0 1 255 126 0 255
-1.6441497 0.4821591 0.43199983 0 -0 1 255 126 0 255
-1.4181497 0.4821591 0.43199983 -4.302114E-16 -1 -0 255 126 0 255
-1.6441497 0.4821591 0.8099998 -4.302114E-16 -1 -0 255 126 0 255
-1.6441497 0.4821591 0.43199983 -4.302114E-16 -1 -0 255 126 0 255
-1.4181497 0.4821591 0.8099998 -4.302114E-16 -1 -0 255 126 0 255
-1.6441497 0.4821591 0.8099998 0 -0 -1 255 126 0 255
-1.4181497 0.33215913 0.8099998 0 -0 -1 255 126 0 255
-1.6441497 0.33215913 0.8099998 0 -0 -1 255 126 0 255
-1.4181497 0.4821591 0.8099998 0 -0 -1 255 126 0 255
-1.6441497 0.33215913 0.8099998 4.302114E-16 1 -0 255 126 0 255
-1.6327987 0.33215913 0.7986488 4.302114E-16 1 -0 255 126 0 255
-1.6441497 0.33215913 0.43199983 4.302114E-16 1 -0 255 126 0 255
-1.4181497 0.33215913 0.8099998 4.302114E-16 1 -0 255 126 0 255
-1.4295006 0.33215913 0.7986488 4.302114E-16 1 -0 255 126 0 255
-1.4295006 0.33215913 0.44335085 4.302114E-16 1 -0 255 126 0 255
-1.6327987 0.33215913 0.44335085 4.302114E-16 1 -0 255 126 0 255
-1.4181497 0.33215913 0.43199983 4.302114E-16 1 -0 255 126 0 255
-1.4181497 0.33215913 0.8099998 -1 4.302114E-16 -0 255 126 0 255
-1.4181497 0.4821591 0.43199983 -1 4.302114E-16 -0 255 126 0 255
-1.4181497 0.33215913 0.43199983 -1 4.302114E-16 -0 255 126 0 255
-1.4181497 0.4821591 0.8099998 -1 4.302114E-16 -0 255 126 0 255
-1.4295006 0.33215913 0.44335085 0 -0 1 255 126 0 255
-1.6327987 0.31615913 0.44335085 0 -0 1 255 126 0 255
-1.4295006 0.31615913 0.44335085 0 -0 1 255 126 0 255
-1.6327987 0.33215913 0.44335085 0 -0 1 255 126 0 255
-1.6327987 0.33215913 0.7986488 1 -4.302114E-16 -0 255 126 0 255
-1.6327987 0.31615913 0.44335085 1 -4.302114E-16 -0 255 126 0 255
-1.6327987 0.33215913 0.44335085 1 -4.302114E-16 -0 255 126 0 255
-1.6327987 0.31615913 0.7986488 1 -4.302114E-16 -0 255 126 0 255
-1.4295006 0.31615913 0.7986488 4.302114E-16 1 -0 255 126 0 255
-1.6327987 0.31615913 0.44335085 4.302114E-16 1 -0 255 126 0 255
-1.6327987 0.31615913 0.7986488 4.302114E-16 1 -0 255 126 0 255
-1.4295006 0.31615913 0.44335085 4.302114E-16 1 -0 255 126 0 255
-1.4295006 0.31615913 0.7986488 -1 4.302114E-16 -0 255 126 0 255
-1.4295006 0.33215913 0.44335085 -1 4.302114E-16 -0 255 126 0 255
-1.4295006 0.31615913 0.44335085 -1 4.302114E-16 -0 255 126 0 255
-1.4295006 0.33215913 0.7986488 -1 4.302114E-16 -0 255 126 0 255
-1.6327987 0.33215913 0.7986488 0 -0 -1 255 126 0 255
-1.4295006 0.31615913 0.7986488 0 -0 -1 255 126 0 255
-1.6327987 0.31615913 0.7986488 0 -0 -1 255 126 0 255
-1.4295006 0.33215913 0.7986488 0 -0 -1 255 126 0 255
-0.20121667 0.0023368 0.954702 -1 -2.0377489E-12 -0 170 170 170 255
-0.20121667 0.020116797 0.9381922 -1 -2.0377489E-12 -0 170 170 170 255
-0.20121667 0.0023368 0.9381922 -1 -2.0377489E-12 -0 170 170 170 255
-0.20121667 0.020116797 0.954702 -1 -2.0377489E-12 -0 170 170 170 255
-0.20121667 0.020116797 0.9381922 4.623771E-14 -1 -0 170 170 170 255
-0.30281657 0.020116797 0.954702 4.623771E-14 -1 -0 170 170 170 255
-0.30281657 0.020116797 0.9381922 4.623771E-14 -1 -0 170 170 170 255
-0.20121667 0.020116797 0.954702 4.623771E-14 -1 -0 170 170 170 255
-0.20121667 0.020116797 0.9381922 0 -0 1 170 170 170 255
-0.30281657 0.0023368 0.9381922 0 -0 1 170 170 170 255
-0.20121667 0.0023368 0.9381922 0 -0 1 170 170 170 255
-0.30281657 0.020116797 0.9381922 0 -0 1 170 170 170 255
-0.20121667 0.0023368 0.954702 -4.623771E-14 1 -0 170 170 170 255
-0.30281657 0.0023368 0.9381922 -4.623771E-14 1 -0 170 170 170 255
-0.30281657 0.0023368 0.954702 -4.623771E-14 1 -0 170 170 170 255
-0.20121667 0.0023368 0.9381922 -4.623771E-14 1 -0 170 170 170 255
-0.30281657 0.020116797 0.954702 0 -0 -1 170 170 170 255
-0.20121667 0.0023368 0.954702 0 -0 -1 170 170 170 255
-0.30281657 0.0023368 0.954702 0 -0 -1 170 170 170 255
-0.20121667 0.020116797 0.954702 0 -0 -1 170 170 170 255
-0.30281657 0.020116797 0.954702 1 -2.8692576E-15 -0 170 170 170 255
-0.30281657 0.0023368 0.9381922 1 -2.8692576E-15 -0 170 170 170 255
-0.30281657 0.020116797 0.9381922 1 -2.8692576E-15 -0 170 170 170 255
-0.30281657 0.0023368 0.954702 1 -2.8692576E-15 -0 170 170 170 255
-0.22188826 0.013116798 0.9207596 -1.7598295E-14 1 -2.670967E-15 198 198 198 255
-0.22188826 0.013116798 0.899421 -1.7598295E-14 1 -2.670967E-15 198 198 198 255
-0.22804835 0.013116798 0.91009027 -1.7598295E-14 1 -2.670967E-15 198 198 198 255
-0.21800688 0.013116798 0.91687834 -1.7598295E-14 1 -2.670967E-15 198 198 198 255
-0.20956835 0.013116798 0.9207596 -1.7598295E-14 1 -2.670967E-15 198 198 198 255
-0.21345001 0.013116798 0.91687834 -1.7598295E-14 1 -2.670967E-15 198 198 198 255
-0.21345001 0.013116798 0.90330225 -1.7598295E-14 1 -2.670967E-15 198 198 198 255
-0.21800688 0.013116798 0.90330225 -1.7598295E-14 1 -2.670967E-15 198 198 198 255
-0.20956835 0.013116798 0.899421 -1.7598295E-14 1 -2.670967E-15 198 198 198 255
-0.20340826 0.013116798 0.91009027 -1.7598295E-14 1 -2.670967E-15 198 198 198 255
-0.20772852 0.020116797 0.89623386 -1.3564359E-14 0.33250904 0.94310004 198 198 198 255
-0.22188826 0.013116798 0.899421 -1.3564359E-14 0.33250904 0.94310004 198 198 198 255
-0.20956835 0.013116798 0.899421 -1.3564359E-14 0.33250904 0.94310004 198 198 198 255
-0.22372836 0.020116797 0.89623386 -1.3564359E-14 0.33250904 0.94310004 198 198 198 255
-0.23172829 0.020116797 0.91009027 0.7231259 0.39804497 0.5644902 198 198 198 255
-0.22188826 0.013116798 0.899421 0.7231259 0.39804497 0.5644902 198 198 198 255
-0.22372836 0.020116797 0.89623386 0.7231259 0.39804497 0.5644902 198 198 198 255
-0.22804835 0.013116798 0.91009027 0.7231259 0.39804497 0.5644902 198 198 198 255
-0.22372836 0.020116797 0.9239467 0.7231259 0.39804497 -0.5644902 198 198 198 255
-0.22804835 0.013116798 0.91009027 0.7231259 0.39804497 -0.5644902 198 198 198 255
-0.23172829 0.020116797 0.91009027 0.7231259 0.39804497 -0.5644902 198 198 198 255
-0.22188826 0.013116798 0.9207596 0.7231259 0.39804497 -0.5644902 198 198 198 255
-0.22188826 0.013116798 0.9207596 -1.3564362E-14 0.33250904 -0.94310004 198 198 198 255
-0.20772852 0.020116797 0.9239467 -1.3564362E-14 0.33250904 -0.94310004 198 198 198 255
-0.20956835 0.013116798 0.9207596 -1.3564362E-14 0.33250904 -0.94310004 198 198 198 255
-0.22372836 0.020116797 0.9239467 -1.3564362E-14 0.33250904 -0.94310004 198 198 198 255
-0.20340826 0.013116798 0.91009027 -0.7231259 0.39804497 -0.5644902 198 198 198 255
-0.20772852 0.020116797 0.9239467 -0.7231259 0.39804497 -0.5644902 198 198 198 255
-0.19972833 0.020116797 0.91009027 -0.7231259 0.39804497 -0.5644902 198 198 198 255
-0.20956835 0.013116798 0.9207596 -0.7231259 0.39804497 -0.5644902 198 198 198 255
-0.20956835 0.013116798 0.899421 -0.7231259 0.39804497 0.5644902 198 198 198 255
-0.19972833 0.020116797 0.91009027 -0.7231259 0.39804497 0.5644902 198 198 198 255
-0.20772852 0.020116797 0.89623386 -0.7231259 0.39804497 0.5644902 198 198 198 255
-0.20340826 0.013116798 0.91009027 -0.7231259 0.39804497 0.5644902 198 198 198 255
3 0 1 2
3 1 0 3
3 4 5 6
3 5 4 7
3 8 9 10
3 9 8 11
3 12 13 14
3 13 12 15
3 16 17 18
3 17 16 19
3 20 21 22
3 21 20 23
3 21 23 24
3 24 23 25
3 26 27 28
3 27 26 29
3 30 31 32
3 31 33 34
3 33 31 35
3 35 31 30
3 36 37 38
3 37 36 39
3 40 41 42
3 41 40 43
3 43 40 44
3 44 40 45
3 46 47 48
3 47 46 49
3 50 51 52
3 51 50 53
3 54 55 56
3 55 54 57
3 58 59 60
3 59 58 61
3 62 63 64
3 63 62 65
3 66 67 68
3 67 69 70
3 69 67 71
3 71 67 66
3 72 73 74
3 73 72 75
3 76 77 78
3 77 76 79
3 79 76 80
3 80 76 81
3 82 83 84
3 83 82 85
3 86 87 88
3 87 86 89
3 90 91 92
3 91 90 93
3 94 95 96
3 95 94 97
3 98 99 100
3 99 98 101
3 102 103 104
3 103 102 105
3 105 102 106
3 106 102 107
3 107 102 108
3 109 110 111
3 110 109 112
3 113 114 115
3 114 113 116
3 116 113 117
3 117 113 118
3 118 113 119
3 120 121 122
3 121 120 123
3 103 124 125
3 124 103 105
3 126 127 128
3 127 126 129
3 130 131 132
3 131 130 133
3 134 135 136
3 135 134 137
3 114 138 139
3 138 114 116
3 140 141 142
3 141 140 143
3 144 145 146
3 145 144 147
3 148 149 150
3 149 148 151
3 152 153 154
3 153 152 155
3 156 157 158
3 157 156 159
3 160 161 162
3 161 160 163
3 164 165 166
3 165 164 167
3 168 169 170
3 169 168 171
3 172 173 174
3 173 172 175
3 176 177 178
3 177 176 179
3 177 179 180
3 180 179 181
3 178 182 183
3 182 178 177
3 183 182 181
3 183 181 179
3 184 185 186
3 185 184 187
3 188 189 190
3 189 188 191
3 192 193 194
3 193 192 195
3 196 197 198
3 197 196 199
3 200 201 202
3 201 200 203
3 204 205 206
3 205 204 207
3 208 209 210
3 209 208 211
3 212 213 214
3 213 212 215
3 216 217 218
3 217 216 219
3 220 221 222
3 221 220 223
3 224 225 226
3 225 224 227
3 228 229 230
3 229 228 231
3 232 233 234
3 233 232 235
3 235 232 236
3 235 236 237
3 237 236 238
3 233 239 240
3 239 233 235
3 240 239 238
3 240 238 236
3 240 236 241
3 242 243 244
3 243 242 245
3 246 247 248
3 247 246 249
3 250 251 252
3 251 250 253
3 254 255 256
3 255 254 257
3 258 259 260
3 259 258 261
3 262 263 264
3 263 262 265
3 266 267 268
3 267 266 269
3 270 271 272
3 271 270 273
3 274 275 276
3 275 274 277
3 278 279 280
3 279 278 281
3 282 283 284
3 283 282 285
3 286 287 288
3 287 286 289
3 287 289 290
3 290 289 291
3 292 293 294
3 293 292 295
3 296 297 298
3 297 299 300
3 299 297 301
3 301 297 296
3 302 303 304
3 303 302 305
3 306 307 308
3 307 306 309
3 309 306 310
3 310 306 311
3 312 313 314
3 313 312 315
3 316 317 318
3 317 316 319
3 320 321 322
3 321 320 323
3 324 325 326
3 325 324 327
3 328 329 330
3 329 328 331
3 332 333 334
3 333 335 336
3 335 333 337
3 337 333 332
3 338 339 340
3 339 338 341
3 342 343 344
3 343 342 345
3 345 342 346
3 346 342 347
3 348 349 350
3 349 348 351
3 352 353 354
3 353 352 355
3 356 357 358
3 357 356 359
3 360 361 362
3 361 360 363
3 364 365 366
3 365 364 367
3 368 369 370
3 369 368 371
3 371 368 372
3 372 368 373
3 373 368 374
3 375 376 377
3 376 375 378
3 379 380 381
3 380 379 382
3 382 379 383
3 383 379 384
3 384 379 385
3 386 387 388
3 387 386 389
3 369 390 391
3 390 369 371
3 392 393 394
3 393 392 395
3 396 397 398
3 397 396 399
3 400 401 402
3 401 400 403
3 380 404 405
3 404 380 382
3 406 407 408
3 407 406 409
3 410 411 412
3 411 410 413
3 414 415 416
3 415 414 417
3 418 419 420
3 419 418 421
3 422 423 424
3 423 422 425
3 426 427 428
3 427 426 429
3 430 431 432
3 431 430 433
3 434 435 436
3 435 434 437
3 438 439 440
3 439 438 441
3 442 443 444
3 443 442 445
3 443 445 446
3 446 445 447
3 444 448 449
3 448 444 443
3 449 448 447
3 449 447 445
3 450 451 452
3 451 450 453
3 454 455 456
3 455 454 457
3 458 459 460
3 459 458 461
3 462 463 464
3 463 462 465
3 466 467 468
3 467 466 469
3 470 471 472
3 471 470 473
3 474 475 476
3 475 474 477
3 478 479 480
3 479 478 481
3 482 483 484
3 483 482 485
3 486 487 488
3 487 486 489
3 490 491 492
3 491 490 493
3 494 495 496
3 495 494 497
3 498 499 500
3 499 498 501
3 502 503 504
3 503 502 505
3 506 507 508
3 507 506 509
3 510 511 512
3 511 510 513
3 514 515 516
3 515 514 517
3 518 519 520
3 519 518 521
3 522 523 524
3 523 522 525
3 526 527 528
3 527 526 529
3 530 531 532
3 531 530 533
3 534 535 536
3 535 534 537
3 538 539 540
3 539 538 541
3 539 541 542
3 542 541 543
3 540 544 545
3 544 540 539
3 545 544 543
3 545 543 541
3 546 547 548
3 547 546 549
3 550 551 552
3 551 550 553
3 554 555 556
3 555 554 557
3 558 559 560
3 559 558 561
3 562 563 564
3 563 562 565
3 566 567 568
3 567 566 569
3 570 571 572
3 571 570 573
3 574 575 576
3 575 574 577
3 578 579 580
3 579 578 581
3 582 583 584
3 583 582 585
3 586 587 588
3 587 586 589
3 590 591 592
3 591 590 593
3 594 595 596
3 595 594 597
3 597 594 598
3 597 598 599
3 599 598 600
3 595 601 602
3 601 595 597
3 602 601 600
3 602 600 598
3 602 598 603
3 604 605 606
3 605 604 607
3 608 609 610
3 609 608 611
3 612 613 614
3 613 612 615
3 616 617 618
3 617 616 619
3 620 621 622
3 621 620 623
3 624 625 626
3 625 624 627

