ply
format ascii 1.0
commentY29udmVydGVyIGJ5IENvZGVMZW9wYXJk
comment Original mesh name: 'C:\Program Files (x86)\Steam\steamapps\common\Stormworks\rom\meshes\arid_mainland_assets\railway_bollard.mesh'
comment SubMesh index: 0
comment SubMesh name: 'ID85'
comment Shader: Opaque (0)
element vertex 192
property float x
property float y
property float z
property float nx
property float ny
property float nz
property uchar red
property uchar green
property uchar blue
property uchar alpha
element face 112
property list uchar ushort vertex_index
end_header
0.11799999 0.083519705 1.128 -1 -0 -0 177 33 33 255
0.11799999 -0.029667746 0.87799996 -1 -0 -0 177 33 33 255
0.11799999 -0.14285524 1.128 -1 -0 -0 177 33 33 255
0.11799999 0.19670716 0.87799996 -1 -0 -0 177 33 33 255
0.11799999 -0.8219802 1.128 -1 -0 -0 177 33 33 255
0.11799999 -0.87253016 0.87799996 -1 -0 -0 177 33 33 255
0.11799999 -0.87253016 1.128 -1 -0 -0 177 33 33 255
0.11799999 -0.70879275 0.87799996 -1 -0 -0 177 33 33 255
-0.081 0.9384697 0 1 -0 -0 30 30 30 255
-0.081 0.78846973 1.219 1 -0 -0 30 30 30 255
-0.081 0.78846973 0 1 -0 -0 30 30 30 255
-0.081 0.9384697 1.219 1 -0 -0 30 30 30 255
-0.081 0.9384697 0 0 -0 1 30 30 30 255
0.06899999 0.78846973 0 0 -0 1 30 30 30 255
0.06899999 0.9384697 0 0 -0 1 30 30 30 255
-0.081 0.78846973 0 0 -0 1 30 30 30 255
0.06899999 0.9384697 1.219 0 -1 -0 30 30 30 255
-0.081 0.9384697 0 0 -1 -0 30 30 30 255
0.06899999 0.9384697 0 0 -1 -0 30 30 30 255
-0.081 0.9384697 1.219 0 -1 -0 30 30 30 255
-0.081 0.78846973 1.219 0 -0 -1 30 30 30 255
0.06899999 0.9384697 1.219 0 -0 -1 30 30 30 255
0.06899999 0.78846973 1.219 0 -0 -1 30 30 30 255
-0.081 0.9384697 1.219 0 -0 -1 30 30 30 255
-0.081 0.78846973 1.219 0 1 -0 30 30 30 255
0.06899999 0.78846973 0 0 1 -0 30 30 30 255
-0.081 0.78846973 0 0 1 -0 30 30 30 255
0.06899999 0.78846973 1.219 0 1 -0 30 30 30 255
0.06899999 0.9384697 1.219 -1 -0 -0 30 30 30 255
0.06899999 0.78846973 0 -1 -0 -0 30 30 30 255
0.06899999 0.78846973 1.219 -1 -0 -0 30 30 30 255
0.06899999 0.9384697 0 -1 -0 -0 30 30 30 255
-0.081 -0.7225302 0 1 -0 -0 30 30 30 255
-0.081 -0.87253016 1.219 1 -0 -0 30 30 30 255
-0.081 -0.87253016 0 1 -0 -0 30 30 30 255
-0.081 -0.7225302 1.219 1 -0 -0 30 30 30 255
-0.081 -0.7225302 0 0 -0 1 30 30 30 255
0.06899999 -0.87253016 0 0 -0 1 30 30 30 255
0.06899999 -0.7225302 0 0 -0 1 30 30 30 255
-0.081 -0.87253016 0 0 -0 1 30 30 30 255
0.06899999 -0.7225302 1.219 0 -1 -0 30 30 30 255
-0.081 -0.7225302 0 0 -1 -0 30 30 30 255
0.06899999 -0.7225302 0 0 -1 -0 30 30 30 255
-0.081 -0.7225302 1.219 0 -1 -0 30 30 30 255
-0.081 -0.87253016 1.219 0 -0 -1 30 30 30 255
0.06899999 -0.7225302 1.219 0 -0 -1 30 30 30 255
0.06899999 -0.87253016 1.219 0 -0 -1 30 30 30 255
-0.081 -0.7225302 1.219 0 -0 -1 30 30 30 255
-0.081 -0.87253016 1.219 0 1 -0 30 30 30 255
0.06899999 -0.87253016 0 0 1 -0 30 30 30 255
-0.081 -0.87253016 0 0 1 -0 30 30 30 255
0.06899999 -0.87253016 1.219 0 1 -0 30 30 30 255
0.06899999 -0.7225302 1.219 -1 -0 -0 30 30 30 255
0.06899999 -0.87253016 0 -1 -0 -0 30 30 30 255
0.06899999 -0.87253016 1.219 -1 -0 -0 30 30 30 255
0.06899999 -0.7225302 0 -1 -0 -0 30 30 30 255
0.11799999 0.93846965 0.5850001 -1 -0 -0 177 33 33 255
0.11799999 0.87583226 0.3350001 -1 -0 -0 177 33 33 255
0.11799999 0.7626447 0.5850001 -1 -0 -0 177 33 33 255
0.11799999 0.93846965 0.3350001 -1 -0 -0 177 33 33 255
0.11799999 0.7626447 0.5850001 -1 -0 -0 255 255 255 255
0.11799999 0.64945716 0.3350001 -1 -0 -0 255 255 255 255
0.11799999 0.5362696 0.5850001 -1 -0 -0 255 255 255 255
0.11799999 0.87583226 0.3350001 -1 -0 -0 255 255 255 255
0.06899999 0.93846965 0.3350001 0 -0 1 255 255 255 255
0.11799999 0.87583226 0.3350001 0 -0 1 255 255 255 255
0.11799999 0.93846965 0.3350001 0 -0 1 255 255 255 255
0.11799999 0.64945716 0.3350001 0 -0 1 255 255 255 255
0.11799999 0.42308214 0.3350001 0 -0 1 255 255 255 255
0.11799999 0.19670716 0.3350001 0 -0 1 255 255 255 255
0.11799999 -0.029667746 0.3350001 0 -0 1 255 255 255 255
0.11799999 -0.2560427 0.3350001 0 -0 1 255 255 255 255
0.11799999 -0.48241764 0.3350001 0 -0 1 255 255 255 255
0.11799999 -0.70879275 0.3350001 0 -0 1 255 255 255 255
0.11799999 -0.87253016 0.3350001 0 -0 1 255 255 255 255
0.06899999 -0.87253016 0.3350001 0 -0 1 255 255 255 255
0.06899999 -0.87253016 0.5850001 0 -0 -1 255 255 255 255
0.11799999 -0.8219802 0.5850001 0 -0 -1 255 255 255 255
0.11799999 -0.87253016 0.5850001 0 -0 -1 255 255 255 255
0.11799999 -0.5956051 0.5850001 0 -0 -1 255 255 255 255
0.11799999 -0.36923018 0.5850001 0 -0 -1 255 255 255 255
0.11799999 -0.14285524 0.5850001 0 -0 -1 255 255 255 255
0.11799999 0.083519705 0.5850001 0 -0 -1 255 255 255 255
0.11799999 0.30989462 0.5850001 0 -0 -1 255 255 255 255
0.11799999 0.5362696 0.5850001 0 -0 -1 255 255 255 255
0.11799999 0.7626447 0.5850001 0 -0 -1 255 255 255 255
0.11799999 0.93846965 0.5850001 0 -0 -1 255 255 255 255
0.06899999 0.93846965 0.5850001 0 -0 -1 255 255 255 255
0.06899999 0.93846965 0.3350001 1 -0 -0 255 255 255 255
0.06899999 -0.87253016 0.5850001 1 -0 -0 255 255 255 255
0.06899999 -0.87253016 0.3350001 1 -0 -0 255 255 255 255
0.06899999 0.93846965 0.5850001 1 -0 -0 255 255 255 255
0.06899999 -0.87253016 0.5850001 0 1 -0 255 255 255 255
0.11799999 -0.87253016 0.3350001 0 1 -0 255 255 255 255
0.06899999 -0.87253016 0.3350001 0 1 -0 255 255 255 255
0.11799999 -0.87253016 0.5850001 0 1 -0 255 255 255 255
0.11799999 -0.5956051 0.5850001 -1 -0 -0 255 255 255 255
0.11799999 -0.70879275 0.3350001 -1 -0 -0 255 255 255 255
0.11799999 -0.8219802 0.5850001 -1 -0 -0 255 255 255 255
0.11799999 -0.48241764 0.3350001 -1 -0 -0 255 255 255 255
0.11799999 -0.14285524 0.5850001 -1 -0 -0 255 255 255 255
0.11799999 -0.2560427 0.3350001 -1 -0 -0 255 255 255 255
0.11799999 -0.36923018 0.5850001 -1 -0 -0 255 255 255 255
0.11799999 -0.029667746 0.3350001 -1 -0 -0 255 255 255 255
0.11799999 0.30989462 0.5850001 -1 -0 -0 255 255 255 255
0.11799999 0.19670716 0.3350001 -1 -0 -0 255 255 255 255
0.11799999 0.083519705 0.5850001 -1 -0 -0 255 255 255 255
0.11799999 0.42308214 0.3350001 -1 -0 -0 255 255 255 255
0.11799999 0.93846965 0.5850001 0 -1 -0 255 255 255 255
0.06899999 0.93846965 0.3350001 0 -1 -0 255 255 255 255
0.11799999 0.93846965 0.3350001 0 -1 -0 255 255 255 255
0.06899999 0.93846965 0.5850001 0 -1 -0 255 255 255 255
0.11799999 0.5362696 0.5850001 -1 -0 -0 177 33 33 255
0.11799999 0.42308214 0.3350001 -1 -0 -0 177 33 33 255
0.11799999 0.30989462 0.5850001 -1 -0 -0 177 33 33 255
0.11799999 0.64945716 0.3350001 -1 -0 -0 177 33 33 255
0.11799999 -0.36923018 0.5850001 -1 -0 -0 177 33 33 255
0.11799999 -0.48241764 0.3350001 -1 -0 -0 177 33 33 255
0.11799999 -0.5956051 0.5850001 -1 -0 -0 177 33 33 255
0.11799999 -0.2560427 0.3350001 -1 -0 -0 177 33 33 255
0.11799999 0.083519705 0.5850001 -1 -0 -0 177 33 33 255
0.11799999 -0.029667746 0.3350001 -1 -0 -0 177 33 33 255
0.11799999 -0.14285524 0.5850001 -1 -0 -0 177 33 33 255
0.11799999 0.19670716 0.3350001 -1 -0 -0 177 33 33 255
0.11799999 -0.8219802 0.5850001 -1 -0 -0 177 33 33 255
0.11799999 -0.87253016 0.3350001 -1 -0 -0 177 33 33 255
0.11799999 -0.87253016 0.5850001 -1 -0 -0 177 33 33 255
0.11799999 -0.70879275 0.3350001 -1 -0 -0 177 33 33 255
0.11799999 0.93846965 1.128 -1 -0 -0 177 33 33 255
0.11799999 0.87583226 0.87799996 -1 -0 -0 177 33 33 255
0.11799999 0.7626447 1.128 -1 -0 -0 177 33 33 255
0.11799999 0.93846965 0.87799996 -1 -0 -0 177 33 33 255
0.11799999 0.7626447 1.128 -1 -0 -0 255 255 255 255
0.11799999 0.64945716 0.87799996 -1 -0 -0 255 255 255 255
0.11799999 0.5362696 1.128 -1 -0 -0 255 255 255 255
0.11799999 0.87583226 0.87799996 -1 -0 -0 255 255 255 255
0.06899999 0.93846965 0.87799996 0 -0 1 255 255 255 255
0.11799999 0.87583226 0.87799996 0 -0 1 255 255 255 255
0.11799999 0.93846965 0.87799996 0 -0 1 255 255 255 255
0.11799999 0.64945716 0.87799996 0 -0 1 255 255 255 255
0.11799999 0.42308214 0.87799996 0 -0 1 255 255 255 255
0.11799999 0.19670716 0.87799996 0 -0 1 255 255 255 255
0.11799999 -0.029667746 0.87799996 0 -0 1 255 255 255 255
0.11799999 -0.2560427 0.87799996 0 -0 1 255 255 255 255
0.11799999 -0.48241764 0.87799996 0 -0 1 255 255 255 255
0.11799999 -0.70879275 0.87799996 0 -0 1 255 255 255 255
0.11799999 -0.87253016 0.87799996 0 -0 1 255 255 255 255
0.06899999 -0.87253016 0.87799996 0 -0 1 255 255 255 255
0.06899999 -0.87253016 1.128 0 -0 -1 255 255 255 255
0.11799999 -0.8219802 1.128 0 -0 -1 255 255 255 255
0.11799999 -0.87253016 1.128 0 -0 -1 255 255 255 255
0.11799999 -0.5956051 1.128 0 -0 -1 255 255 255 255
0.11799999 -0.36923018 1.128 0 -0 -1 255 255 255 255
0.11799999 -0.14285524 1.128 0 -0 -1 255 255 255 255
0.11799999 0.083519705 1.128 0 -0 -1 255 255 255 255
0.11799999 0.30989462 1.128 0 -0 -1 255 255 255 255
0.11799999 0.5362696 1.128 0 -0 -1 255 255 255 255
0.11799999 0.7626447 1.128 0 -0 -1 255 255 255 255
0.11799999 0.93846965 1.128 0 -0 -1 255 255 255 255
0.06899999 0.93846965 1.128 0 -0 -1 255 255 255 255
0.06899999 0.93846965 0.87799996 1 -0 -0 255 255 255 255
0.06899999 -0.87253016 1.128 1 -0 -0 255 255 255 255
0.06899999 -0.87253016 0.87799996 1 -0 -0 255 255 255 255
0.06899999 0.93846965 1.128 1 -0 -0 255 255 255 255
0.06899999 -0.87253016 1.128 0 1 -0 255 255 255 255
0.11799999 -0.87253016 0.87799996 0 1 -0 255 255 255 255
0.06899999 -0.87253016 0.87799996 0 1 -0 255 255 255 255
0.11799999 -0.87253016 1.128 0 1 -0 255 255 255 255
0.11799999 -0.5956051 1.128 -1 -0 -0 255 255 255 255
0.11799999 -0.70879275 0.87799996 -1 -0 -0 255 255 255 255
0.11799999 -0.8219802 1.128 -1 -0 -0 255 255 255 255
0.11799999 -0.48241764 0.87799996 -1 -0 -0 255 255 255 255
0.11799999 -0.14285524 1.128 -1 -0 -0 255 255 255 255
0.11799999 -0.2560427 0.87799996 -1 -0 -0 255 255 255 255
0.11799999 -0.36923018 1.128 -1 -0 -0 255 255 255 255
0.11799999 -0.029667746 0.87799996 -1 -0 -0 255 255 255 255
0.11799999 0.30989462 1.128 -1 -0 -0 255 255 255 255
0.11799999 0.19670716 0.87799996 -1 -0 -0 255 255 255 255
0.11799999 0.083519705 1.128 -1 -0 -0 255 255 255 255
0.11799999 0.42308214 0.87799996 -1 -0 -0 255 255 255 255
0.11799999 0.93846965 1.128 0 -1 -0 255 255 255 255
0.06899999 0.93846965 0.87799996 0 -1 -0 255 255 255 255
0.11799999 0.93846965 0.87799996 0 -1 -0 255 255 255 255
0.06899999 0.93846965 1.128 0 -1 -0 255 255 255 255
0.11799999 0.5362696 1.128 -1 -0 -0 177 33 33 255
0.11799999 0.42308214 0.87799996 -1 -0 -0 177 33 33 255
0.11799999 0.30989462 1.128 -1 -0 -0 177 33 33 255
0.11799999 0.64945716 0.87799996 -1 -0 -0 177 33 33 255
0.11799999 -0.36923018 1.128 -1 -0 -0 177 33 33 255
0.11799999 -0.48241764 0.87799996 -1 -0 -0 177 33 33 255
0.11799999 -0.5956051 1.128 -1 -0 -0 177 33 33 255
0.11799999 -0.2560427 0.87799996 -1 -0 -0 177 33 33 255
3 0 1 2
3 1 0 3
3 4 5 6
3 5 4 7
3 8 9 10
3 9 8 11
3 12 13 14
3 13 12 15
3 16 17 18
3 17 16 19
3 20 21 22
3 21 20 23
3 24 25 26
3 25 24 27
3 28 29 30
3 29 28 31
3 32 33 34
3 33 32 35
3 36 37 38
3 37 36 39
3 40 41 42
3 41 40 43
3 44 45 46
3 45 44 47
3 48 49 50
3 49 48 51
3 52 53 54
3 53 52 55
3 56 57 58
3 57 56 59
3 60 61 62
3 61 60 63
3 64 65 66
3 65 64 67
3 67 64 68
3 68 64 69
3 69 64 70
3 70 64 71
3 71 64 72
3 72 64 73
3 73 64 74
3 74 64 75
3 76 77 78
3 77 76 79
3 79 76 80
3 80 76 81
3 81 76 82
3 82 76 83
3 83 76 84
3 84 76 85
3 85 76 86
3 86 76 87
3 88 89 90
3 89 88 91
3 92 93 94
3 93 92 95
3 96 97 98
3 97 96 99
3 100 101 102
3 101 100 103
3 104 105 106
3 105 104 107
3 108 109 110
3 109 108 111
3 112 113 114
3 113 112 115
3 116 117 118
3 117 116 119
3 120 121 122
3 121 120 123
3 124 125 126
3 125 124 127
3 128 129 130
3 129 128 131
3 132 133 134
3 133 132 135
3 136 137 138
3 137 136 139
3 139 136 140
3 140 136 141
3 141 136 142
3 142 136 143
3 143 136 144
3 144 136 145
3 145 136 146
3 146 136 147
3 148 149 150
3 149 148 151
3 151 148 152
3 152 148 153
3 153 148 154
3 154 148 155
3 155 148 156
3 156 148 157
3 157 148 158
3 158 148 159
3 160 161 162
3 161 160 163
3 164 165 166
3 165 164 167
3 168 169 170
3 169 168 171
3 172 173 174
3 173 172 175
3 176 177 178
3 177 176 179
3 180 181 182
3 181 180 183
3 184 185 186
3 185 184 187
3 188 189 190
3 189 188 191

