ply
format ascii 1.0
commentY29udmVydGVyIGJ5IENvZGVMZW9wYXJk
comment Original mesh name: 'C:\Program Files (x86)\Steam\steamapps\common\Stormworks\rom\meshes\rock_library\rock_big_01.mesh'
comment SubMesh index: 0
comment SubMesh name: ''
comment Shader: Opaque (0)
element vertex 130
property float x
property float y
property float z
property float nx
property float ny
property float nz
property uchar red
property uchar green
property uchar blue
property uchar alpha
element face 48
property list uchar ushort vertex_index
end_header
-0.01399678 -0.9001229 -2.1083133 -0.14241709 0.97038597 0.19511114 255 255 255 255
-0.66453004 -1.7874253 0.9137125 -0.1424171 0.9703861 0.19511113 255 255 255 255
1.4295557 -1.3676847 1.2707982 -0.14241709 0.97038597 0.19511114 255 255 255 255
0.9494062 -1.1578834 -1.0392599 -0.1424171 0.9703861 0.19511113 255 255 255 255
1.4295557 -1.3676847 1.2707982 -0.15606108 0.96352804 -0.21739034 255 255 255 255
-0.66453004 -1.7874253 0.9137125 -0.15606105 0.96352804 -0.21739034 255 255 255 255
0.109643996 -1.2023047 2.9513464 -0.15606107 0.96352804 -0.21739034 255 255 255 255
0.109643996 -1.2023047 2.9513464 0.024154298 0.9584045 -0.2843896 255 255 255 255
-0.66453004 -1.7874253 0.9137125 0.024154302 0.9584045 -0.28438962 255 255 255 255
-1.2209938 -1.518005 1.7744079 0.024154302 0.9584045 -0.28438962 255 255 255 255
-0.66453004 -1.7874253 0.9137125 0.3880949 0.9208626 -0.03733991 255 255 255 255
-1.7372383 -1.3738058 -0.03502798 0.38809487 0.9208627 -0.037339915 255 255 255 255
-1.2209938 -1.518005 1.7744079 0.38809487 0.9208627 -0.037339915 255 255 255 255
-0.6656125 -0.82387793 2.8879132 0.3848898 0.68476564 -0.6188342 255 255 255 255
0.109643996 -1.2023047 2.9513464 0.3848898 0.68476564 -0.6188342 255 255 255 255
-1.2209938 -1.518005 1.7744079 0.3848898 0.68476564 -0.6188342 255 255 255 255
-0.8936904 1.0263867 2.5532737 0.3475346 -0.011011035 -0.9376026 255 255 255 255
0.36995894 0.63225365 3.2546606 0.3475346 -0.011011033 -0.9376026 255 255 255 255
0.109643996 -1.2023047 2.9513464 0.3475346 -0.011011035 -0.9376026 255 255 255 255
-0.6656125 -0.82387793 2.8879132 0.3475346 -0.011011034 -0.9376026 255 255 255 255
1.3259008 -0.24607615 2.4165888 -0.5276227 0.21091622 -0.82287824 255 255 255 255
0.109643996 -1.2023047 2.9513464 -0.52762276 0.21091625 -0.82287824 255 255 255 255
0.36995894 0.63225365 3.2546606 -0.52762276 0.21091622 -0.82287824 255 255 255 255
-0.8936904 1.0263867 2.5532737 0.4778126 -0.030406909 -0.8779354 255 255 255 255
0.00781852 1.3628665 3.0322618 0.4778126 -0.03040691 -0.8779354 255 255 255 255
0.36995894 0.63225365 3.2546606 0.47781253 -0.030406905 -0.8779354 255 255 255 255
0.00781852 1.3628665 3.0322618 -0.20773606 -0.95941365 -0.19071198 255 255 255 255
-0.67638737 1.7874253 1.6417193 -0.20773606 -0.95941365 -0.19071198 255 255 255 255
1.0252054 1.3604143 1.9363928 -0.20773606 -0.95941365 -0.19071196 255 255 255 255
-0.67638737 1.7874253 1.6417193 -0.13761537 -0.9901764 0.024752319 255 255 255 255
-0.12815213 1.4417504 -1.2222028 -0.13761538 -0.9901764 0.02475232 255 255 255 255
1.131834 1.4997035 0.18503332 -0.13761538 -0.9901764 0.024752315 255 255 255 255
1.0252054 1.3604143 1.9363928 -0.13761537 -0.9901764 0.024752319 255 255 255 255
-0.8936904 1.0263867 2.5532737 0.51733744 -0.7135703 -0.47241846 255 255 255 255
-0.67638737 1.7874253 1.6417193 0.51733744 -0.7135704 -0.4724184 255 255 255 255
0.00781852 1.3628665 3.0322618 0.51733744 -0.7135705 -0.4724184 255 255 255 255
-1.1264927 1.3905956 -0.6293633 0.9121012 -0.39441124 -0.11185294 255 255 255 255
-0.67638737 1.7874253 1.6417193 0.9121012 -0.39441127 -0.11185293 255 255 255 255
-0.8936904 1.0263867 2.5532737 0.9121012 -0.39441124 -0.111852966 255 255 255 255
1.131834 1.4997035 0.18503332 -0.37525505 -0.84944904 0.37097156 255 255 255 255
-0.12815213 1.4417504 -1.2222028 -0.37525505 -0.84944904 0.3709715 255 255 255 255
1.0249879 0.9431602 -1.1974173 -0.37525505 -0.84944904 0.37097153 255 255 255 255
1.837724 0.54727185 -0.14658642 -0.70909536 -0.63340944 0.30980036 255 255 255 255
1.131834 1.4997035 0.18503332 -0.70909536 -0.6334094 0.30980033 255 255 255 255
1.0249879 0.9431602 -1.1974173 -0.70909536 -0.63340944 0.30980036 255 255 255 255
-1.1264927 1.3905956 -0.6293633 0.13592601 -0.9801503 0.1443241 255 255 255 255
-0.12815213 1.4417504 -1.2222028 0.13592601 -0.9801503 0.14432411 255 255 255 255
-0.67638737 1.7874253 1.6417193 0.135926 -0.9801503 0.14432411 255 255 255 255
-0.92823696 0.15471879 -3.3361955 0.29058185 -0.86219776 0.4149424 255 255 255 255
-0.12815213 1.4417504 -1.2222028 0.29058182 -0.86219776 0.41494235 255 255 255 255
-1.1264927 1.3905956 -0.6293633 0.29058182 -0.8621979 0.41494235 255 255 255 255
-1.6924655 -0.91639376 -1.7745075 0.89373386 0.015972557 0.44831324 255 255 255 255
-0.92823696 0.15471879 -3.3361955 0.8937338 0.015972555 0.44831318 255 255 255 255
-1.9943981 -0.020984739 -1.2044921 0.8937338 0.015972555 0.44831315 255 255 255 255
1.0249879 0.9431602 -1.1974173 -0.30617929 -0.6747488 0.67154175 255 255 255 255
-0.12815213 1.4417504 -1.2222028 -0.30617929 -0.6747488 0.6715417 255 255 255 255
0.7912149 -0.08454828 -2.336619 -0.30617929 -0.6747488 0.67154175 255 255 255 255
0.7912149 -0.08454828 -2.336619 -0.43429056 -0.6869873 0.58261484 255 255 255 255
-0.12815213 1.4417504 -1.2222028 -0.43429053 -0.6869874 0.5826149 255 255 255 255
-0.92823696 0.15471879 -3.3361955 -0.43429056 -0.6869873 0.58261484 255 255 255 255
-1.7372383 -1.3738058 -0.03502798 0.9599748 0.2638127 0.09408089 255 255 255 255
-1.6924655 -0.91639376 -1.7745075 0.9599748 0.26381266 0.09408089 255 255 255 255
-1.9943981 -0.020984739 -1.2044921 0.9599749 0.26381263 0.09408089 255 255 255 255
0.7912149 -0.08454828 -2.336619 -0.8461425 -0.17537281 0.5032765 255 255 255 255
1.5755725 -0.8268808 -1.0661731 -0.8461425 -0.1753728 0.50327647 255 255 255 255
2.187268 -0.44789666 -0.11609268 -0.8461425 -0.17537281 0.5032765 255 255 255 255
1.837724 0.54727185 -0.14658642 -0.84614253 -0.17537282 0.5032765 255 255 255 255
0.9494062 -1.1578834 -1.0392599 -0.34446055 0.7022817 0.6230147 255 255 255 255
1.5755725 -0.8268808 -1.0661731 -0.34446052 0.70228165 0.6230147 255 255 255 255
0.7912149 -0.08454828 -2.336619 -0.34446052 0.70228165 0.6230147 255 255 255 255
0.7912149 -0.08454828 -2.336619 -0.35632628 0.5609707 0.74722385 255 255 255 255
-0.92823696 0.15471879 -3.3361955 -0.35632625 0.5609707 0.74722385 255 255 255 255
-0.01399678 -0.9001229 -2.1083133 -0.35632625 0.56097066 0.7472238 255 255 255 255
0.9494062 -1.1578834 -1.0392599 -0.48453102 0.6440775 0.59194076 255 255 255 255
0.7912149 -0.08454828 -2.336619 -0.48453102 0.6440775 0.59194076 255 255 255 255
-0.01399678 -0.9001229 -2.1083133 -0.48453102 0.6440775 0.5919408 255 255 255 255
-0.92823696 0.15471879 -3.3361955 -0.0156017495 0.75266874 0.6582145 255 255 255 255
-1.0319715 -1.0962415 -1.908181 -0.0156017495 0.75266874 0.6582145 255 255 255 255
-0.01399678 -0.9001229 -2.1083133 -0.0156017495 0.7526688 0.6582144 255 255 255 255
-0.92823696 0.15471879 -3.3361955 0.3198782 0.7010387 0.637356 255 255 255 255
-1.6924655 -0.91639376 -1.7745075 0.31987816 0.7010387 0.6373559 255 255 255 255
-1.0319715 -1.0962415 -1.908181 0.3198782 0.7010388 0.6373559 255 255 255 255
2.187268 -0.44789666 -0.11609268 -0.6601758 0.739785 0.12994675 255 255 255 255
1.5755725 -0.8268808 -1.0661731 -0.66017574 0.739785 0.12994677 255 255 255 255
1.4295557 -1.3676847 1.2707982 -0.6601758 0.739785 0.12994675 255 255 255 255
1.4295557 -1.3676847 1.2707982 -0.45437866 0.8736911 0.17379294 255 255 255 255
1.5755725 -0.8268808 -1.0661731 -0.45437866 0.87369096 0.17379296 255 255 255 255
0.9494062 -1.1578834 -1.0392599 -0.4543787 0.87369096 0.17379293 255 255 255 255
-1.0319715 -1.0962415 -1.908181 -0.13500439 0.9581917 0.2522748 255 255 255 255
-0.66453004 -1.7874253 0.9137125 -0.13500439 0.9581917 0.25227478 255 255 255 255
-0.01399678 -0.9001229 -2.1083133 -0.13500439 0.9581917 0.2522748 255 255 255 255
-0.66453004 -1.7874253 0.9137125 0.22000954 0.94953984 0.22353959 255 255 255 255
-1.0319715 -1.0962415 -1.908181 0.22000954 0.94953984 0.22353959 255 255 255 255
-1.6924655 -0.91639376 -1.7745075 0.22000954 0.94953984 0.22353956 255 255 255 255
-1.7372383 -1.3738058 -0.03502798 0.22000954 0.94953984 0.22353959 255 255 255 255
-1.1264927 1.3905956 -0.6293633 0.74198127 -0.58766824 0.32266042 255 255 255 255
-1.9943981 -0.020984739 -1.2044921 0.7419814 -0.5876683 0.32266042 255 255 255 255
-0.92823696 0.15471879 -3.3361955 0.74198127 -0.5876683 0.32266042 255 255 255 255
-1.7372383 -1.3738058 -0.03502798 0.95876217 -0.0582251 -0.2781816 255 255 255 255
-1.9943981 -0.020984739 -1.2044921 0.95876217 -0.0582251 -0.2781816 255 255 255 255
-1.2209938 -1.518005 1.7744079 0.95876217 -0.058225106 -0.2781817 255 255 255 255
-0.6656125 -0.82387793 2.8879132 0.94927245 -0.026188217 -0.3133624 255 255 255 255
-1.2209938 -1.518005 1.7744079 0.9492725 -0.026188215 -0.31336236 255 255 255 255
-1.9943981 -0.020984739 -1.2044921 0.9492725 -0.026188217 -0.31336236 255 255 255 255
-0.8936904 1.0263867 2.5532737 0.9492725 -0.026188217 -0.3133624 255 255 255 255
1.837724 0.54727185 -0.14658642 -0.7994404 -0.35519964 0.4844877 255 255 255 255
1.0249879 0.9431602 -1.1974173 -0.7994404 -0.3551996 0.48448777 255 255 255 255
0.7912149 -0.08454828 -2.336619 -0.7994403 -0.35519964 0.48448777 255 255 255 255
1.837724 0.54727185 -0.14658642 -0.9198874 -0.2831709 -0.27133247 255 255 255 255
2.187268 -0.44789666 -0.11609268 -0.91988754 -0.2831709 -0.27133247 255 255 255 255
1.3259008 -0.24607615 2.4165888 -0.9198874 -0.28317088 -0.27133244 255 255 255 255
1.0252054 1.3604143 1.9363928 -0.9198874 -0.28317085 -0.27133244 255 255 255 255
1.131834 1.4997035 0.18503332 -0.8153122 -0.57116437 -0.09506471 255 255 255 255
1.837724 0.54727185 -0.14658642 -0.8153122 -0.5711644 -0.09506471 255 255 255 255
1.0252054 1.3604143 1.9363928 -0.8153122 -0.5711644 -0.09506471 255 255 255 255
2.187268 -0.44789666 -0.11609268 -0.909739 0.25255862 -0.32952845 255 255 255 255
1.4295557 -1.3676847 1.2707982 -0.90973914 0.25255865 -0.32952848 255 255 255 255
1.3259008 -0.24607615 2.4165888 -0.90973914 0.25255865 -0.32952848 255 255 255 255
1.3259008 -0.24607615 2.4165888 -0.7717596 -0.31035972 -0.55503505 255 255 255 255
0.36995894 0.63225365 3.2546606 -0.7717597 -0.31035972 -0.555035 255 255 255 255
1.0252054 1.3604143 1.9363928 -0.7717597 -0.3103597 -0.555035 255 255 255 255
0.00781852 1.3628665 3.0322618 -0.63711846 -0.49550983 -0.5903813 255 255 255 255
1.0252054 1.3604143 1.9363928 -0.6371185 -0.49550986 -0.59038126 255 255 255 255
0.36995894 0.63225365 3.2546606 -0.6371185 -0.49550977 -0.5903812 255 255 255 255
1.3259008 -0.24607615 2.4165888 -0.6498653 0.5129182 -0.5608833 255 255 255 255
1.4295557 -1.3676847 1.2707982 -0.6498653 0.5129182 -0.5608833 255 255 255 255
0.109643996 -1.2023047 2.9513464 -0.6498653 0.5129182 -0.5608833 255 255 255 255
-0.8936904 1.0263867 2.5532737 0.8666993 -0.48446864 -0.11883773 255 255 255 255
-1.9943981 -0.020984739 -1.2044921 0.8666994 -0.48446864 -0.1188377 255 255 255 255
-1.1264927 1.3905956 -0.6293633 0.86669934 -0.48446864 -0.118837714 255 255 255 255
3 0 1 2
3 0 2 3
3 4 5 6
3 7 8 9
3 10 11 12
3 13 14 15
3 16 17 18
3 16 18 19
3 20 21 22
3 23 24 25
3 26 27 28
3 29 30 31
3 29 31 32
3 33 34 35
3 36 37 38
3 39 40 41
3 42 43 44
3 45 46 47
3 48 49 50
3 51 52 53
3 54 55 56
3 57 58 59
3 60 61 62
3 63 64 65
3 63 65 66
3 67 68 69
3 70 71 72
3 73 74 75
3 76 77 78
3 79 80 81
3 82 83 84
3 85 86 87
3 88 89 90
3 91 92 93
3 91 93 94
3 95 96 97
3 98 99 100
3 101 102 103
3 101 103 104
3 105 106 107
3 108 109 110
3 108 110 111
3 112 113 114
3 115 116 117
3 118 119 120
3 121 122 123
3 124 125 126
3 127 128 129

