ply
format ascii 1.0
commentY29udmVydGVyIGJ5IENvZGVMZW9wYXJk
comment Original mesh name: 'C:\Program Files (x86)\Steam\steamapps\common\Stormworks\rom\meshes\undersea_assets\rock_seabed_med_03.mesh'
comment SubMesh index: 0
comment SubMesh name: ''
comment Shader: Opaque (0)
element vertex 415
property float x
property float y
property float z
property float nx
property float ny
property float nz
property uchar red
property uchar green
property uchar blue
property uchar alpha
element face 145
property list uchar ushort vertex_index
end_header
-3.3702755 -1.7703362 3.2238443 0.9448605 -1.4314309E-08 -0.32747322 77 77 62 255
-4.619787 -2.7918015 -0.3813826 0.9448605 -1.4314309E-08 -0.32747322 77 77 62 255
-4.619787 -0.50188637 -0.38138273 0.9448605 -1.4314307E-08 -0.3274732 77 77 62 255
0.42001152 -4.3184114 -0.38138255 0 0.8298237 -0.5580258 77 77 62 255
-2.0998878 -4.3184114 -0.38138255 0 0.8298236 -0.5580258 77 77 62 255
-0.41995525 -2.7918015 1.8887944 0 0.8298237 -0.5580258 77 77 62 255
3.7798767 0.2614193 0.5184517 0.5422443 -0.14069949 -0.8283566 77 77 62 255
3.7798767 -0.50188637 0.6481019 0.5422443 -0.1406995 -0.8283567 77 77 62 255
2.939911 1.7880297 -0.29069287 0.5422443 -0.14069949 -0.8283567 77 77 62 255
2.099944 0.2614193 1.94579 0.33698028 -0.77931464 -0.5283113 77 77 62 255
0.42001152 1.024724 -0.25170022 0.33698028 -0.77931464 -0.5283113 77 77 62 255
1.7137423 1.7589941 -0.50962627 0.33698025 -0.77931464 -0.5283113 77 77 62 255
1.2599773 -2.7918015 1.0035686 -0.45659167 0.20177048 -0.8664945 77 77 62 255
-0.41995525 -2.7918015 1.8887944 -0.4565917 0.20177048 -0.8664945 77 77 62 255
-0.20864964 -2.2388344 1.9062116 -0.45659167 0.20177048 -0.86649454 77 77 62 255
-0.2714138 -1.227129 1.848906 -0.55519074 -0.74067736 -0.37836534 77 77 62 255
-1.2599211 -1.2651901 3.373889 -0.5551908 -0.74067736 -0.37836534 77 77 62 255
-1.259922 0.6195431 -0.31560993 -0.55519074 -0.74067736 -0.37836534 77 77 62 255
-1.2260351 3.5552292 0.65593946 -0.5331528 -3.6980662E-08 -0.8460189 77 77 62 255
0.42001152 3.314639 -0.38138288 -0.5331528 -3.6980666E-08 -0.8460189 77 77 62 255
0.42001152 1.7880297 -0.38138282 -0.5331528 -3.6980666E-08 -0.8460189 77 77 62 255
-2.9398518 3.314639 1.2919426 0.907188 -0.04009026 -0.41881117 77 77 62 255
-3.7798214 1.7880297 -0.38138282 0.9071879 -0.040090255 -0.4188111 77 77 62 255
-3.7103233 3.3606691 -0.38138288 0.907188 -0.04009025 -0.4188111 77 77 62 255
-3.7798214 0.2614193 -0.38138276 0.13712749 -0.882121 -0.45062017 77 77 62 255
-1.259922 0.6195431 -0.31560993 0.1371275 -0.882121 -0.4506202 77 77 62 255
-1.2599211 -1.2651901 3.373889 0.13712749 -0.882121 -0.45062017 77 77 62 255
-1.259922 1.024724 -0.26032546 0.030855833 0.8409476 -0.54023594 77 77 62 255
-2.9398556 1.024724 -0.35627562 0.030855829 0.8409477 -0.5402359 77 77 62 255
-2.9398518 1.7880297 0.83190835 0.030855836 0.8409477 -0.54023594 77 77 62 255
3.7798767 -2.0284958 -0.38138264 -0.66337645 0.5718312 -0.4826393 77 77 62 255
2.099944 -2.0284958 1.9276457 -0.66337645 0.5718313 -0.48263937 77 77 62 255
2.4530487 -1.603549 1.94579 -0.6633764 0.5718312 -0.4826393 77 77 62 255
0.42001152 0.2614193 1.9114475 0.04075632 0.06823942 -0.9968361 77 77 62 255
1.2599773 0.2614193 1.94579 0.040756326 0.06823943 -0.9968361 77 77 62 255
0.82904243 -0.16214275 1.8991756 0.040756322 0.06823942 -0.9968361 77 77 62 255
2.4530487 -1.603549 1.94579 -0.6429595 0.5999211 -0.47612798 77 77 62 255
3.0615358 -1.3232803 1.477231 -0.6429595 0.5999211 -0.47612792 77 77 62 255
3.7798767 -2.0284958 -0.38138264 -0.6429595 0.5999211 -0.47612792 77 77 62 255
-2.9398556 4.0779448 -0.6966977 0.21718873 -0.78593946 -0.5789026 77 77 62 255
-1.2260361 4.318535 -0.38035342 0.21718875 -0.78593946 -0.5789026 77 77 62 255
-1.2260351 3.5552292 0.65593946 0.21718875 -0.7859395 -0.5789026 77 77 62 255
-2.752081 -1.1679449 3.2558022 0.64114994 -0.63511705 -0.43075868 77 77 62 255
-3.3702755 -1.7703362 3.2238443 0.64114994 -0.63511705 -0.43075868 77 77 62 255
-3.7798214 0.2614193 -0.38138276 0.64114994 -0.63511705 -0.43075874 77 77 62 255
-2.099886 -2.7918015 2.6549444 -0.032304615 0.7153603 -0.6980086 77 77 62 255
-1.259922 -2.0284958 3.39835 -0.03230462 0.71536034 -0.69800854 77 77 62 255
-1.7851162 -3.3913245 2.02595 -0.03230462 0.71536034 -0.69800854 77 77 62 255
-0.41995525 -2.7918015 1.8887944 -0.32051557 0.7261497 -0.60825694 77 77 62 255
1.2599773 -2.7918015 1.0035686 -0.32051554 0.7261497 -0.6082569 77 77 62 255
0.97028637 -3.9510612 -0.22773013 -0.32051554 0.7261496 -0.6082569 77 77 62 255
2.099944 -2.0284958 1.9276457 -0.021596221 -4.3701196E-08 -0.99976677 77 77 62 255
1.2599773 -2.0284958 1.94579 -0.021596221 -4.3701196E-08 -0.99976677 77 77 62 255
1.2599773 -1.2651901 1.94579 -0.021596223 -4.3701196E-08 -0.99976677 77 77 62 255
-1.7851162 -3.3913245 2.02595 0.40580624 0.8760181 -0.2606024 77 77 62 255
-2.9398556 -3.5551062 -0.32274693 0.4058062 0.87601805 -0.2606024 77 77 62 255
-3.7798195 -2.7918015 0.9351325 0.4058062 0.8760181 -0.26060236 77 77 62 255
-0.42128277 1.1806564 -0.3813828 -0.53570247 0.54684 -0.6434197 77 77 62 255
-1.2599211 1.7880297 0.83306 -0.53570247 0.54684 -0.6434197 77 77 62 255
-1.2599211 2.5513353 1.4817911 -0.53570247 0.54684 -0.6434196 77 77 62 255
-3.7798214 1.7880297 -0.38138282 0.9171681 -0.075823605 -0.39122066 77 77 62 255
-2.9398518 3.314639 1.2919426 0.9171681 -0.075823605 -0.39122066 77 77 62 255
-2.9398518 2.5513353 1.4398807 0.9171681 -0.075823605 -0.39122063 77 77 62 255
3.7798767 -0.50188637 0.6481019 -0.7473095 0.06898535 -0.66088545 77 77 62 255
4.6198435 0.2614193 -0.22203024 -0.7473095 0.068985336 -0.66088545 77 77 62 255
4.6198435 -1.2651911 -0.3813827 -0.74730945 0.068985336 -0.6608854 77 77 62 255
1.2599773 0.2614193 1.94579 0.013603802 -0.94292474 -0.3327277 77 77 62 255
0.42001152 0.2614193 1.9114475 0.013603803 -0.94292486 -0.3327277 77 77 62 255
0.42001152 1.024724 -0.25170022 0.013603803 -0.94292486 -0.3327277 77 77 62 255
-1.2599211 2.5513353 1.4817911 0.102863245 -0.02095679 -0.99447465 77 77 62 255
-2.099886 1.7880297 1.4109949 0.10286324 -0.02095679 -0.99447465 77 77 62 255
-2.9398518 3.314639 1.2919426 0.10286324 -0.02095679 -0.99447465 77 77 62 255
-1.2260351 3.5552292 0.65593946 -0.0019226497 -0.9335885 -0.35834172 77 77 62 255
-2.9398518 3.314639 1.2919426 -0.0019226497 -0.9335885 -0.35834172 77 77 62 255
-2.9398556 4.0779448 -0.6966977 -0.0019226494 -0.9335885 -0.3583417 77 77 62 255
2.099944 0.2614193 1.94579 -0.6624908 -0.4790834 -0.5758343 77 77 62 255
2.939911 1.7880297 -0.29069287 -0.6624908 -0.4790834 -0.5758342 77 77 62 255
3.7798767 -0.50188637 0.6481019 -0.6624908 -0.47908336 -0.5758343 77 77 62 255
2.939911 -0.50188637 1.6852007 -0.35011214 -0.06628855 -0.9343593 77 77 62 255
2.4530487 -1.603549 1.94579 -0.35011214 -0.06628855 -0.9343593 77 77 62 255
2.099944 0.2614193 1.94579 -0.35011214 -0.06628855 -0.9343593 77 77 62 255
-1.259922 -2.0284958 3.39835 0.07504826 -0.03494814 -0.99656737 77 77 62 255
-2.099886 -2.0284958 3.3350952 0.07504825 -0.03494814 -0.99656737 77 77 62 255
-2.752081 -1.1679449 3.2558022 0.075048245 -0.034948133 -0.99656725 77 77 62 255
-0.20864964 -2.2388344 1.9062116 -0.818565 -0.018397147 -0.5741192 77 77 62 255
-1.259922 -2.0284958 3.39835 -0.818565 -0.018397145 -0.5741192 77 77 62 255
-1.2599211 -1.2651901 3.373889 -0.81856495 -0.018397145 -0.5741192 77 77 62 255
-0.2714138 -1.227129 1.848906 0.06313911 -4.362417E-08 -0.9980047 77 77 62 255
1.2599773 -1.2651901 1.94579 0.06313912 -4.3624176E-08 -0.9980048 77 77 62 255
1.2599773 -2.0284958 1.94579 0.063139126 -4.3624176E-08 -0.9980048 77 77 62 255
0.82904243 -0.16214275 1.8991756 -0.04456275 -0.014092591 -0.99890715 77 77 62 255
-0.13454437 -0.4192524 1.94579 -0.044562757 -0.0140925925 -0.9989072 77 77 62 255
0.42001152 0.2614193 1.9114475 -0.044562757 -0.0140925925 -0.9989072 77 77 62 255
-0.25567722 0.7570925 -0.3813828 0.4007266 -0.8639854 -0.30487257 77 77 62 255
0.42001152 1.024724 -0.25170022 0.4007266 -0.8639854 -0.30487257 77 77 62 255
0.42001152 0.2614193 1.9114475 0.4007266 -0.8639854 -0.30487257 77 77 62 255
0.42001152 1.7880297 -0.38138282 -0.44381404 0.61474216 -0.6520132 77 77 62 255
-0.42128277 1.1806564 -0.3813828 -0.44381404 0.61474216 -0.6520132 77 77 62 255
-1.2599211 2.5513353 1.4817911 -0.44381404 0.61474216 -0.6520131 77 77 62 255
-3.3702755 -1.7703362 3.2238443 0.60309374 -0.6636646 -0.44252378 77 77 62 255
-4.619787 -0.50188637 -0.38138273 0.6030937 -0.6636646 -0.44252378 77 77 62 255
-3.7798214 0.2614193 -0.38138276 0.6030937 -0.6636646 -0.44252378 77 77 62 255
-3.7798195 -2.7918015 0.9351325 0.47911984 0.7425704 -0.46801 77 77 62 255
-2.099886 -2.7918015 2.6549444 0.47911984 0.7425704 -0.46801 77 77 62 255
-1.7851162 -3.3913245 2.02595 0.47911984 0.7425704 -0.46801 77 77 62 255
-3.3702755 -1.7703362 3.2238443 0.08107597 -0.030350214 -0.9962457 77 77 62 255
-2.752081 -1.1679449 3.2558022 0.08107597 -0.030350214 -0.9962457 77 77 62 255
-2.099886 -2.0284958 3.3350952 0.08107597 -0.030350214 -0.9962457 77 77 62 255
-2.9398518 1.7880297 0.83190835 0.21621032 0.92460775 -0.31361368 77 77 62 255
-2.099886 1.7880297 1.4109949 0.21621029 0.92460775 -0.31361365 77 77 62 255
-1.259922 1.024724 -0.26032546 0.21621032 0.92460775 -0.3136137 77 77 62 255
-2.099886 1.7880297 1.4109949 -0.20239094 -0.18633454 -0.9614143 77 77 62 255
-2.9398518 2.5513353 1.4398807 -0.20239092 -0.1863345 -0.9614143 77 77 62 255
-2.9398518 3.314639 1.2919426 -0.20239092 -0.1863345 -0.9614142 77 77 62 255
-3.7103233 3.3606691 -0.38138288 0.58562934 -0.7567483 -0.29046538 77 77 62 255
-2.9398556 4.0779448 -0.6966977 0.58562934 -0.75674844 -0.29046538 77 77 62 255
-2.9398518 3.314639 1.2919426 0.5856293 -0.7567483 -0.29046538 77 77 62 255
2.939911 -0.50188637 1.6852007 -0.75010717 0.2612488 -0.6075264 77 77 62 255
3.7798767 -0.50188637 0.6481019 -0.75010717 0.2612488 -0.6075264 77 77 62 255
4.086052 -1.5657558 -0.1874146 -0.7501071 0.26124877 -0.60752636 77 77 62 255
2.099944 0.2614193 1.94579 -0.6544438 -0.53921586 -0.53004676 77 77 62 255
3.7798767 -0.50188637 0.6481019 -0.6544438 -0.5392159 -0.53004676 77 77 62 255
2.939911 -0.50188637 1.6852007 -0.6544438 -0.5392159 -0.53004676 77 77 62 255
1.2599773 -2.0284958 1.94579 -0.011771086 0.8384016 -0.5449259 77 77 62 255
2.099944 -2.0284958 1.9276457 -0.011771084 0.83840156 -0.5449259 77 77 62 255
2.3069553 -3.5051188 -0.3486998 -0.011771084 0.83840156 -0.54492587 77 77 62 255
2.939911 1.7880297 -0.29069287 0.11458464 -0.8400023 -0.53034556 77 77 62 255
2.099944 0.2614193 1.94579 0.114584655 -0.84000236 -0.53034556 77 77 62 255
1.7137423 1.7589941 -0.50962627 0.114584655 -0.84000236 -0.53034556 77 77 62 255
-2.9398518 3.314639 1.2919426 -0.19535123 -0.6191211 -0.7606097 77 77 62 255
-1.2260351 3.5552292 0.65593946 -0.19535124 -0.619121 -0.7606097 77 77 62 255
-1.2599211 2.5513353 1.4817911 -0.19535123 -0.6191211 -0.7606097 77 77 62 255
0.42001152 1.7880297 -0.38138282 -0.7560951 -0.4003716 -0.51770914 77 77 62 255
-1.2599211 2.5513353 1.4817911 -0.7560951 -0.40037158 -0.5177091 77 77 62 255
-1.2260351 3.5552292 0.65593946 -0.7560951 -0.40037167 -0.51770914 77 77 62 255
0.42001152 3.314639 -0.38138288 -0.44104514 -0.7226183 -0.5322612 77 77 62 255
-1.2260351 3.5552292 0.65593946 -0.44104514 -0.7226183 -0.5322612 77 77 62 255
-1.2260361 4.318535 -0.38035342 -0.44104514 -0.7226182 -0.5322612 77 77 62 255
2.3069553 -3.5051188 -0.3486998 -0.2728677 0.7475345 -0.60558677 77 77 62 255
1.2599773 -2.7918015 1.0035686 -0.2728677 0.7475345 -0.60558677 77 77 62 255
1.2599773 -2.0284958 1.94579 -0.27286774 0.7475345 -0.60558677 77 77 62 255
-0.2714138 -1.227129 1.848906 0.40765494 0.70952606 -0.5747957 77 77 62 255
1.2599773 -2.0284958 1.94579 0.40765494 0.70952606 -0.5747958 77 77 62 255
1.2599773 -2.7918015 1.0035686 0.40765494 0.70952606 -0.5747958 77 77 62 255
-4.619787 -2.7918015 -0.3813826 0.63690966 0.65514463 -0.40636393 77 77 62 255
-3.3702755 -1.7703362 3.2238443 0.63690966 0.65514463 -0.40636393 77 77 62 255
-3.7798195 -2.7918015 0.9351325 0.6369096 0.6551446 -0.40636387 77 77 62 255
-2.099886 -2.7918015 2.6549444 0.44064763 0.78775615 -0.4304299 77 77 62 255
-3.7798195 -2.7918015 0.9351325 0.44064763 0.78775615 -0.4304299 77 77 62 255
-3.3702755 -1.7703362 3.2238443 0.4406477 0.78775615 -0.43042997 77 77 62 255
-1.259922 -2.0284958 3.39835 -0.75695425 0.30741864 -0.57664025 77 77 62 255
-0.20864964 -2.2388344 1.9062116 -0.75695425 0.30741864 -0.5766403 77 77 62 255
-0.41995525 -2.7918015 1.8887944 -0.7569543 0.30741867 -0.5766403 77 77 62 255
-0.41995525 -2.7918015 1.8887944 -0.3764593 0.7253921 -0.576268 77 77 62 255
-1.7851162 -3.3913245 2.02595 -0.37645927 0.725392 -0.57626796 77 77 62 255
-1.259922 -2.0284958 3.39835 -0.37645924 0.725392 -0.576268 77 77 62 255
-2.9398556 -3.5551062 -0.32274693 0.61591876 0.704815 -0.35196579 77 77 62 255
-1.7851162 -3.3913245 2.02595 0.61591876 0.704815 -0.35196579 77 77 62 255
-2.0998878 -4.3184114 -0.38138255 0.6159188 0.704815 -0.35196579 77 77 62 255
-1.7851162 -3.3913245 2.02595 -0.40942755 0.8680666 -0.28076598 77 77 62 255
-0.41995525 -2.7918015 1.8887944 -0.4094275 0.86806655 -0.28076592 77 77 62 255
-2.0998878 -4.3184114 -0.38138255 -0.40942752 0.8680666 -0.28076598 77 77 62 255
-4.619787 -2.7918015 -0.3813826 0.40697655 0.8757547 -0.25966102 77 77 62 255
-3.7798195 -2.7918015 0.9351325 0.40697658 0.8757547 -0.25966102 77 77 62 255
-2.9398556 -3.5551062 -0.32274693 0.40697655 0.8757547 -0.25966105 77 77 62 255
-0.13454437 -0.4192524 1.94579 0.9725734 -0.14274828 -0.1836407 77 77 62 255
-0.2714138 -1.227129 1.848906 0.9725734 -0.14274828 -0.18364069 77 77 62 255
-0.41995525 0.2614193 -0.094864935 0.9725734 -0.14274828 -0.18364069 77 77 62 255
1.2599773 -1.2651901 1.94579 0.06544091 0.10787868 -0.99200785 77 77 62 255
-0.2714138 -1.227129 1.848906 0.0654409 0.10787868 -0.99200785 77 77 62 255
-0.13454437 -0.4192524 1.94579 0.06544091 0.10787868 -0.9920079 77 77 62 255
3.0615358 -1.3232803 1.477231 -0.628192 0.6152757 -0.4762464 77 77 62 255
4.086052 -1.5657558 -0.1874146 -0.628192 0.6152757 -0.47624645 77 77 62 255
3.7798767 -2.0284958 -0.38138264 -0.628192 0.6152756 -0.4762464 77 77 62 255
-1.259922 0.6195431 -0.31560993 -0.18089122 -0.7874636 -0.58921945 77 77 62 255
-0.41995525 0.2614193 -0.094864935 -0.1808912 -0.78746355 -0.5892194 77 77 62 255
-0.2714138 -1.227129 1.848906 -0.18089122 -0.7874636 -0.58921945 77 77 62 255
-2.752081 -1.1679449 3.2558022 0.07678276 -0.031935416 -0.99653625 77 77 62 255
-1.2599211 -1.2651901 3.373889 0.076782756 -0.03193542 -0.99653625 77 77 62 255
-1.259922 -2.0284958 3.39835 0.076782756 -0.031935416 -0.99653625 77 77 62 255
-3.7798214 0.2614193 -0.38138276 -0.03252593 -0.9333127 -0.35758832 77 77 62 255
-1.2599211 -1.2651901 3.373889 -0.032525927 -0.9333127 -0.35758826 77 77 62 255
-2.752081 -1.1679449 3.2558022 -0.03252593 -0.9333127 -0.3575883 77 77 62 255
1.2599773 -1.2651901 1.94579 0.009793371 0.03453229 -0.9993557 77 77 62 255
2.4530487 -1.603549 1.94579 0.009793371 0.03453229 -0.99935555 77 77 62 255
2.099944 -2.0284958 1.9276457 0.00979337 0.034532283 -0.99935555 77 77 62 255
2.4530487 -1.603549 1.94579 0.06620641 0.04235407 -0.9969066 77 77 62 255
0.82904243 -0.16214275 1.8991756 0.06620641 0.042354077 -0.9969066 77 77 62 255
1.2599773 0.2614193 1.94579 0.0662064 0.042354066 -0.9969066 77 77 62 255
-0.42128277 1.1806564 -0.3813828 -0.22884881 0.7981987 -0.55723155 77 77 62 255
-1.259922 1.024724 -0.26032546 -0.22884883 0.79819876 -0.5572316 77 77 62 255
-1.2599211 1.7880297 0.83306 -0.2288488 0.7981987 -0.5572315 77 77 62 255
1.2599773 0.2614193 1.94579 0 3.218934E-08 -1 77 77 62 255
2.099944 0.2614193 1.94579 0 3.218934E-08 -1 77 77 62 255
2.4530487 -1.603549 1.94579 0 3.218934E-08 -1 77 77 62 255
2.099944 0.2614193 1.94579 0 -0.94463533 -0.32812196 77 77 62 255
1.2599773 0.2614193 1.94579 0 -0.94463533 -0.32812205 77 77 62 255
0.42001152 1.024724 -0.25170022 0 -0.94463533 -0.32812193 77 77 62 255
4.6198435 0.2614193 -0.22203024 -0.65598476 -0.126391 -0.7441164 77 77 62 255
3.7798767 -0.50188637 0.6481019 -0.65598476 -0.126391 -0.7441164 77 77 62 255
3.7798767 0.2614193 0.5184517 -0.65598476 -0.12639098 -0.7441164 77 77 62 255
4.6198435 0.2614193 -0.22203024 -0.52612674 -0.6058103 -0.59681195 77 77 62 255
3.7798767 0.2614193 0.5184517 -0.52612674 -0.6058102 -0.59681195 77 77 62 255
2.939911 1.7880297 -0.29069287 -0.52612674 -0.6058102 -0.596812 77 77 62 255
-3.7798214 1.7880297 -0.38138282 0.61538255 0.6631742 -0.42603305 77 77 62 255
-2.9398518 1.7880297 0.83190835 0.6153826 0.6631742 -0.4260331 77 77 62 255
-2.9398556 1.024724 -0.35627562 0.6153826 0.6631742 -0.4260331 77 77 62 255
4.086052 -1.5657558 -0.1874146 -0.8511653 0.006854642 -0.524853 77 77 62 255
3.0615358 -1.3232803 1.477231 -0.8511653 0.006854643 -0.52485305 77 77 62 255
2.939911 -0.50188637 1.6852007 -0.8511653 0.006854642 -0.52485305 77 77 62 255
2.4530487 -1.603549 1.94579 -0.6355057 0.09974909 -0.7656257 77 77 62 255
2.939911 -0.50188637 1.6852007 -0.6355057 0.09974908 -0.76562566 77 77 62 255
3.0615358 -1.3232803 1.477231 -0.6355057 0.09974908 -0.76562566 77 77 62 255
-2.099886 1.7880297 1.4109949 -0.36645484 0.7629191 -0.5326023 77 77 62 255
-1.2599211 1.7880297 0.83306 -0.36645484 0.7629191 -0.5326023 77 77 62 255
-1.259922 1.024724 -0.26032546 -0.36645484 0.7629191 -0.5326023 77 77 62 255
-2.099886 1.7880297 1.4109949 -0.46433127 0.57355666 -0.67485493 77 77 62 255
-1.2599211 2.5513353 1.4817911 -0.46433127 0.5735567 -0.674855 77 77 62 255
-1.2599211 1.7880297 0.83306 -0.46433127 0.57355666 -0.67485493 77 77 62 255
-1.259922 -2.0284958 3.39835 0.056135643 0.66421974 -0.74542665 77 77 62 255
-2.099886 -2.7918015 2.6549444 0.05613565 0.6642198 -0.74542665 77 77 62 255
-2.099886 -2.0284958 3.3350952 0.056135643 0.66421974 -0.7454266 77 77 62 255
-3.3702755 -1.7703362 3.2238443 0.19665661 0.6522777 -0.73202455 77 77 62 255
-2.099886 -2.0284958 3.3350952 0.19665658 0.65227765 -0.73202455 77 77 62 255
-2.099886 -2.7918015 2.6549444 0.1966566 0.6522777 -0.7320245 77 77 62 255
-0.41995525 -2.7918015 1.8887944 -0.3168607 0.7286244 -0.6072116 77 77 62 255
0.97028637 -3.9510612 -0.22773013 -0.3168607 0.7286243 -0.6072116 77 77 62 255
0.42001152 -4.3184114 -0.38138255 -0.3168607 0.7286244 -0.6072116 77 77 62 255
4.086052 -1.5657558 -0.1874146 -0.5499252 0.6051557 -0.5756464 77 77 62 255
4.6198435 -1.2651911 -0.3813827 -0.5499252 0.6051557 -0.5756464 77 77 62 255
3.7798767 -2.0284958 -0.38138264 -0.5499252 0.6051557 -0.5756464 77 77 62 255
4.6198435 -1.2651911 -0.3813827 -0.5133352 0.4338019 -0.74047476 77 77 62 255
4.086052 -1.5657558 -0.1874146 -0.5133352 0.43380186 -0.7404747 77 77 62 255
3.7798767 -0.50188637 0.6481019 -0.5133352 0.4338019 -0.74047476 77 77 62 255
-0.41995525 0.2614193 -0.094864935 0.73050904 -0.61059046 -0.30583626 77 77 62 255
0.42001152 0.2614193 1.9114475 0.73050904 -0.6105904 -0.30583626 77 77 62 255
-0.13454437 -0.4192524 1.94579 0.7305091 -0.6105904 -0.3058363 77 77 62 255
0.42001152 0.2614193 1.9114475 0.81538445 -0.46756232 -0.34137037 77 77 62 255
-0.41995525 0.2614193 -0.094864935 0.8153844 -0.46756226 -0.3413703 77 77 62 255
-0.25567722 0.7570925 -0.3813828 0.81538445 -0.46756232 -0.34137037 77 77 62 255
2.099944 -2.0284958 1.9276457 -0.6040909 0.6647619 -0.43950623 77 77 62 255
3.7798767 -2.0284958 -0.38138264 -0.6040909 0.6647619 -0.43950623 77 77 62 255
2.939911 -2.7918015 -0.3813826 -0.6040909 0.6647619 -0.43950623 77 77 62 255
2.939911 -2.7918015 -0.3813826 -0.68126285 0.58430713 -0.44098315 77 77 62 255
2.3069553 -3.5051188 -0.3486998 -0.68126285 0.5843071 -0.44098315 77 77 62 255
2.099944 -2.0284958 1.9276457 -0.6812629 0.5843071 -0.44098315 77 77 62 255
1.2599773 -2.7918015 1.0035686 -0.2989171 0.72889477 -0.61592287 77 77 62 255
2.3069553 -3.5051188 -0.3486998 -0.29891714 0.72889477 -0.61592287 77 77 62 255
0.97028637 -3.9510612 -0.22773013 -0.2989171 0.72889477 -0.61592287 77 77 62 255
-3.7798214 1.7880297 -0.38138282 0.74882686 0.4129187 -0.51841736 77 77 62 255
-2.9398518 2.5513353 1.4398807 0.74882686 0.41291872 -0.5184173 77 77 62 255
-2.9398518 1.7880297 0.83190835 0.74882686 0.4129187 -0.5184173 77 77 62 255
-2.099886 1.7880297 1.4109949 0.47464684 0.54837054 -0.68847656 77 77 62 255
-2.9398518 1.7880297 0.83190835 0.4746469 0.5483706 -0.6884766 77 77 62 255
-2.9398518 2.5513353 1.4398807 0.4746469 0.5483706 -0.68847656 77 77 62 255
-0.20864964 -2.2388344 1.9062116 -0.5438728 -0.08105129 -0.83524436 77 77 62 255
-0.2714138 -1.227129 1.848906 -0.5438727 -0.08105128 -0.8352443 77 77 62 255
1.2599773 -2.7918015 1.0035686 -0.5438728 -0.08105129 -0.8352443 77 77 62 255
-0.2714138 -1.227129 1.848906 -0.83531946 -0.08260827 -0.5435231 77 77 62 255
-0.20864964 -2.2388344 1.9062116 -0.8353194 -0.08260827 -0.543523 77 77 62 255
-1.2599211 -1.2651901 3.373889 -0.8353195 -0.08260827 -0.5435231 77 77 62 255
-0.13454437 -0.4192524 1.94579 -0.03352733 -0.05526979 -0.9979084 77 77 62 255
0.82904243 -0.16214275 1.8991756 -0.03352733 -0.05526978 -0.9979084 77 77 62 255
1.2599773 -1.2651901 1.94579 -0.03352733 -0.05526979 -0.9979084 77 77 62 255
2.4530487 -1.603549 1.94579 -0.013462105 -0.047467683 -0.99878204 77 77 62 255
1.2599773 -1.2651901 1.94579 -0.013462103 -0.04746768 -0.99878204 77 77 62 255
0.82904243 -0.16214275 1.8991756 -0.013462105 -0.047467683 -0.99878204 77 77 62 255
-1.259922 1.024724 -0.26032546 0.30307144 0.12883298 -0.9442191 137 118 51 255
-0.41995525 0.2614193 -0.094864935 0.30307144 0.12883298 -0.9442191 137 118 51 255
-1.259922 0.6195431 -0.31560993 0.30307144 0.12883298 -0.9442191 137 118 51 255
-0.42128277 1.1806564 -0.3813828 0.16360566 0.06396658 -0.98444986 137 118 51 255
0.42001152 1.024724 -0.25170022 0.16360568 0.06396659 -0.98444986 137 118 51 255
-0.25567722 0.7570925 -0.3813828 0.16360568 0.06396659 -0.98444986 137 118 51 255
-0.41995525 0.2614193 -0.094864935 -0.6069253 -0.23729594 -0.75850666 137 118 51 255
-0.42128277 1.1806564 -0.3813828 -0.60692525 -0.23729596 -0.75850666 137 118 51 255
-0.25567722 0.7570925 -0.3813828 -0.60692525 -0.23729594 -0.7585066 137 118 51 255
-2.9398556 1.024724 -0.35627562 0.025390405 0.004941197 -0.9996654 137 118 51 255
-1.259922 0.6195431 -0.31560993 0.025390403 0.004941197 -0.9996654 137 118 51 255
-3.7798214 0.2614193 -0.38138276 0.025390405 0.004941197 -0.9996654 137 118 51 255
0.42001152 1.7880297 -0.38138282 -0.09864333 -4.34982E-08 -0.9951228 137 118 51 255
0.42001152 3.314639 -0.38138288 -0.09864333 -4.34982E-08 -0.9951228 137 118 51 255
1.7137423 1.7589941 -0.50962627 -0.09864333 -4.3498197E-08 -0.9951228 137 118 51 255
-1.259922 1.024724 -0.26032546 -0.08217794 -0.29667288 -0.95143676 137 118 51 255
-0.42128277 1.1806564 -0.3813828 -0.08217794 -0.29667288 -0.95143676 137 118 51 255
-0.41995525 0.2614193 -0.094864935 -0.08217794 -0.29667288 -0.95143676 137 118 51 255
-0.42128277 1.1806564 -0.3813828 0.12004939 -0.16628464 -0.97874284 137 118 51 255
0.42001152 1.7880297 -0.38138282 0.12004939 -0.16628462 -0.97874284 137 118 51 255
0.42001152 1.024724 -0.25170022 0.12004939 -0.16628462 -0.97874284 137 118 51 255
-2.9398556 1.024724 -0.35627562 0.05650073 0.13497539 -0.9892368 137 118 51 255
-1.259922 1.024724 -0.26032546 0.05650073 0.13497537 -0.9892368 137 118 51 255
-1.259922 0.6195431 -0.31560993 0.05650073 0.1349754 -0.9892368 137 118 51 255
1.7137423 1.7589941 -0.50962627 -0.10096689 -0.16664004 -0.9808348 137 118 51 255
0.42001152 1.024724 -0.25170022 -0.10096688 -0.16664003 -0.9808347 137 118 51 255
0.42001152 1.7880297 -0.38138282 -0.10096689 -0.16664004 -0.9808347 137 118 51 255
-2.9398556 1.024724 -0.35627562 0.02987733 -4.3691873E-08 -0.99955356 137 118 51 255
-3.7798214 0.2614193 -0.38138276 0.02987733 -4.3691873E-08 -0.99955356 137 118 51 255
-3.7798214 1.7880297 -0.38138282 0.02987733 -4.3691873E-08 -0.99955356 137 118 51 255
-2.0998878 -4.3184114 -0.38138255 -0.030399557 0.40072834 -0.9156925 137 118 51 255
4.3595753 -8.149967 -2.272605 -0.030399563 0.40072843 -0.91569245 137 118 51 255
-4.1825676 -8.816145 -2.280554 -0.030399557 0.4007284 -0.9156925 137 118 51 255
-4.619787 -0.50188637 -0.38138273 0.44282582 -0.022811366 -0.89631736 137 118 51 255
-8.74641 -4.834678 -2.3098722 0.44282582 -0.022811366 -0.89631736 137 118 51 255
-8.4052925 1.7873087 -2.3098724 0.44282585 -0.022811366 -0.89631736 137 118 51 255
-3.7103233 3.3606691 -0.38138288 0.42424968 -0.17759228 -0.88796014 137 118 51 255
-8.4052925 1.7873087 -2.3098724 0.42424968 -0.17759228 -0.88796014 137 118 51 255
-6.248308 7.728406 -2.4675298 0.42424962 -0.17759225 -0.88796014 137 118 51 255
2.939911 -2.7918015 -0.3813826 -0.20965123 0.2755781 -0.9381381 137 118 51 255
9.172955 -4.614965 -2.3098722 -0.20965123 0.2755781 -0.9381381 137 118 51 255
4.3595753 -8.149967 -2.272605 -0.20965125 0.2755781 -0.9381381 137 118 51 255
-1.2260361 4.318535 -0.38035342 0.13893166 -0.36005172 -0.9225295 137 118 51 255
-6.248308 7.728406 -2.4675298 0.13893165 -0.3600517 -0.9225295 137 118 51 255
-2.1982155 8.884608 -2.3088431 0.13893166 -0.36005175 -0.9225295 137 118 51 255
4.6198435 -1.2651911 -0.3813827 -0.44461367 -0.09134644 -0.89105254 137 118 51 255
7.1924343 4.6288567 -2.2692728 -0.4446136 -0.09134644 -0.89105254 137 118 51 255
9.172955 -4.614965 -2.3098722 -0.4446136 -0.091346435 -0.89105254 137 118 51 255
0.42001152 3.314639 -0.38138288 -0.009611143 -0.3310354 -0.94356936 137 118 51 255
-2.1982155 8.884608 -2.3088431 -0.009611142 -0.33103535 -0.94356936 137 118 51 255
2.5435352 8.749873 -2.3098726 -0.009611142 -0.33103535 -0.94356936 137 118 51 255
-4.619787 -2.7918015 -0.3813826 0.27384663 0.30719152 -0.91139525 137 118 51 255
-4.1825676 -8.816145 -2.280554 0.27384663 0.30719152 -0.91139525 137 118 51 255
-8.74641 -4.834678 -2.3098722 0.27384663 0.30719152 -0.91139525 137 118 51 255
3.7798767 -2.0284958 -0.38138264 -0.22105451 0.24325556 -0.94443715 137 118 51 255
4.6198435 -1.2651911 -0.3813827 -0.22105451 0.2432556 -0.94443715 137 118 51 255
9.172955 -4.614965 -2.3098722 -0.22105452 0.24325559 -0.94443715 137 118 51 255
0.42001152 -4.3184114 -0.38138255 -0.027047114 0.41994905 -0.90714455 137 118 51 255
0.97028637 -3.9510612 -0.22773013 -0.027047116 0.41994905 -0.90714455 137 118 51 255
4.3595753 -8.149967 -2.272605 -0.027047114 0.41994905 -0.90714455 137 118 51 255
2.3069553 -3.5051188 -0.3486998 -0.3175086 0.23970205 -0.9174591 137 118 51 255
2.939911 -2.7918015 -0.3813826 -0.31750864 0.23970205 -0.9174591 137 118 51 255
4.3595753 -8.149967 -2.272605 -0.31750867 0.23970208 -0.9174591 137 118 51 255
0.97028637 -3.9510612 -0.22773013 -0.18616949 0.30463436 -0.9340979 137 118 51 255
2.3069553 -3.5051188 -0.3486998 -0.18616948 0.30463436 -0.9340979 137 118 51 255
4.3595753 -8.149967 -2.272605 -0.18616948 0.30463436 -0.9340979 137 118 51 255
1.7137423 1.7589941 -0.50962627 -0.18989779 -0.22364116 -0.9559935 137 118 51 255
2.5435352 8.749873 -2.3098726 -0.1898978 -0.22364117 -0.9559935 137 118 51 255
7.1924343 4.6288567 -2.2692728 -0.18989779 -0.22364117 -0.9559935 137 118 51 255
4.6198435 0.2614193 -0.22203024 -0.23229606 -0.29727975 -0.92610115 137 118 51 255
2.939911 1.7880297 -0.29069287 -0.2322961 -0.29727978 -0.9261011 137 118 51 255
7.1924343 4.6288567 -2.2692728 -0.2322961 -0.29727978 -0.92610115 137 118 51 255
-2.0998878 -4.3184114 -0.38138255 0 0.44261026 -0.8967141 137 118 51 255
0.42001152 -4.3184114 -0.38138255 0 0.4426102 -0.8967141 137 118 51 255
4.3595753 -8.149967 -2.272605 0 0.4426102 -0.8967141 137 118 51 255
-4.619787 -0.50188637 -0.38138273 0.423378 -3.9600472E-08 -0.90595317 137 118 51 255
-4.619787 -2.7918015 -0.3813826 0.423378 -3.960047E-08 -0.90595317 137 118 51 255
-8.74641 -4.834678 -2.3098722 0.42337796 -3.960047E-08 -0.90595317 137 118 51 255
-3.7103233 3.3606691 -0.38138288 0.3847678 -0.017003605 -0.9228568 137 118 51 255
-3.7798214 1.7880297 -0.38138282 0.3847678 -0.017003607 -0.9228568 137 118 51 255
-8.4052925 1.7873087 -2.3098724 0.3847678 -0.017003607 -0.9228568 137 118 51 255
2.939911 -2.7918015 -0.3813826 -0.22105445 0.2432557 -0.94443715 137 118 51 255
-1.2260361 4.318535 -0.38035342 0.21089974 -0.26525423 -0.9408302 137 118 51 255
-2.9398556 4.0779448 -0.6966977 0.21089977 -0.26525423 -0.9408302 137 118 51 255
-6.248308 7.728406 -2.4675298 0.21089977 -0.26525423 -0.9408302 137 118 51 255
-2.9398556 -3.5551062 -0.32274693 0.20592004 0.2981978 -0.9320273 137 118 51 255
-2.0998878 -4.3184114 -0.38138255 0.20592003 0.29819778 -0.9320273 137 118 51 255
-4.1825676 -8.816145 -2.280554 0.20592004 0.29819784 -0.9320273 137 118 51 255
4.6198435 -1.2651911 -0.3813827 -0.6954212 0.074604675 -0.7147191 137 118 51 255
4.6198435 0.2614193 -0.22203024 -0.6954213 0.07460468 -0.7147192 137 118 51 255
7.1924343 4.6288567 -2.2692728 -0.6954213 0.07460468 -0.7147191 137 118 51 255
-3.7798214 0.2614193 -0.38138276 0.27843818 -0.3064027 -0.91026896 137 118 51 255
-4.619787 -0.50188637 -0.38138273 0.27843818 -0.30640268 -0.91026896 137 118 51 255
-8.4052925 1.7873087 -2.3098724 0.27843815 -0.30640268 -0.91026896 137 118 51 255
-2.9398556 4.0779448 -0.6966977 0.020832397 -0.42101374 -0.90681505 137 118 51 255
-3.7103233 3.3606691 -0.38138288 0.020832397 -0.42101374 -0.90681505 137 118 51 255
-6.248308 7.728406 -2.4675298 0.020832397 -0.4210138 -0.90681505 137 118 51 255
2.939911 1.7880297 -0.29069287 0.14160234 -0.69969326 -0.70027 137 118 51 255
1.7137423 1.7589941 -0.50962627 0.14160234 -0.69969326 -0.70027 137 118 51 255
7.1924343 4.6288567 -2.2692728 0.14160234 -0.6996933 -0.70027 137 118 51 255
0.42001152 3.314639 -0.38138288 -0.25791103 -0.4219952 -0.8691386 137 118 51 255
-1.2260361 4.318535 -0.38035342 -0.257911 -0.42199516 -0.8691386 137 118 51 255
-2.1982155 8.884608 -2.3088431 -0.257911 -0.42199513 -0.8691386 137 118 51 255
-4.619787 -2.7918015 -0.3813826 0.17238952 0.30752033 -0.9357954 137 118 51 255
-2.9398556 -3.5551062 -0.32274693 0.17238952 0.30752033 -0.9357954 137 118 51 255
-4.1825676 -8.816145 -2.280554 0.17238952 0.30752033 -0.9357954 137 118 51 255
1.7137423 1.7589941 -0.50962627 -0.3301168 -0.19846055 -0.9228414 137 118 51 255
0.42001152 3.314639 -0.38138288 -0.33011684 -0.19846055 -0.9228414 137 118 51 255
2.5435352 8.749873 -2.3098726 -0.33011684 -0.19846053 -0.9228414 137 118 51 255
-3.7798214 1.7880297 -0.38138282 0.38482118 -4.0345224E-08 -0.92299116 137 118 51 255
-3.7798214 0.2614193 -0.38138276 0.38482115 -4.0345224E-08 -0.92299116 137 118 51 255
-8.4052925 1.7873087 -2.3098724 0.38482112 -4.0345224E-08 -0.92299116 137 118 51 255
4.3595753 -8.149967 -2.272605 -0.028327279 0.3716149 -0.9279547 137 118 51 255
-6.3995934 -14.848769 -4.626811 -0.028327275 0.37161487 -0.9279547 137 118 51 255
-4.1825676 -8.816145 -2.280554 -0.028327279 0.37161487 -0.9279547 137 118 51 255
7.617606 -13.755606 -4.6188626 -0.028327275 0.37161484 -0.9279547 137 118 51 255
-13.328861 2.550932 -4.65613 0.4272994 -0.022011464 -0.9038422 137 118 51 255
-8.74641 -4.834678 -2.3098722 0.4272994 -0.022011464 -0.9038422 137 118 51 255
-13.888617 -8.315393 -4.6561294 0.4272994 -0.022011463 -0.9038422 137 118 51 255
-8.4052925 1.7873087 -2.3098724 0.4272994 -0.022011464 -0.9038422 137 118 51 255
-6.248308 7.728406 -2.4675298 0.39800018 -0.16264255 -0.90285283 137 118 51 255
-8.4052925 1.7873087 -2.3098724 0.39800018 -0.16264252 -0.90285283 137 118 51 255
-13.328861 2.550932 -4.65613 0.39800018 -0.16264254 -0.90285283 137 118 51 255
-9.789368 12.299958 -4.8137875 0.39800018 -0.16264254 -0.90285283 137 118 51 255
7.617606 -13.755606 -4.6188626 -0.20558074 0.27242136 -0.93995917 137 118 51 255
9.172955 -4.614965 -2.3098722 -0.20558076 0.2724214 -0.9399591 137 118 51 255
15.516105 -7.954857 -4.6561294 -0.20558074 0.2724214 -0.93995917 137 118 51 255
4.3595753 -8.149967 -2.272605 -0.20558076 0.2724214 -0.93995917 137 118 51 255
-3.1433792 14.197225 -4.655101 0.13417262 -0.37464255 -0.9174097 137 118 51 255
-6.248308 7.728406 -2.4675298 0.1341726 -0.3746426 -0.9174097 137 118 51 255
-9.789368 12.299958 -4.8137875 0.13417262 -0.37464255 -0.9174097 137 118 51 255
-2.1982155 8.884608 -2.3088431 0.13417262 -0.3746426 -0.9174097 137 118 51 255
12.266179 7.213763 -4.6155305 -0.38343585 -0.0790918 -0.9201747 137 118 51 255
9.172955 -4.614965 -2.3098722 -0.38343582 -0.0790918 -0.9201747 137 118 51 255
7.1924343 4.6288567 -2.2692728 -0.38343582 -0.0790918 -0.9201747 137 118 51 255
15.516105 -7.954857 -4.6561294 -0.38343582 -0.0790918 -0.9201746 137 118 51 255
-3.1433792 14.197225 -4.655101 -0.011677206 -0.40566838 -0.91394573 137 118 51 255
4.637583 13.9761305 -4.6561303 -0.011677205 -0.40566835 -0.91394573 137 118 51 255
2.5435352 8.749873 -2.3098726 -0.011677206 -0.40566838 -0.91394573 137 118 51 255
-2.1982155 8.884608 -2.3088431 -0.011677206 -0.40566838 -0.91394573 137 118 51 255
-13.888617 -8.315393 -4.6561294 0.24198511 0.27218714 -0.93132025 137 118 51 255
-4.1825676 -8.816145 -2.280554 0.24198508 0.2721871 -0.93132025 137 118 51 255
-6.3995934 -14.848769 -4.626811 0.24198508 0.2721871 -0.93132025 137 118 51 255
-8.74641 -4.834678 -2.3098722 0.24198508 0.2721871 -0.93132025 137 118 51 255
7.1924343 4.6288567 -2.2692728 -0.2651762 -0.30596605 -0.9143666 137 118 51 255
2.5435352 8.749873 -2.3098726 -0.2651762 -0.30596605 -0.91436666 137 118 51 255
4.637583 13.9761305 -4.6561303 -0.2651762 -0.30596605 -0.91436666 137 118 51 255
12.266179 7.213763 -4.6155305 -0.2651762 -0.30596602 -0.9143666 137 118 51 255
3 0 1 2
3 3 4 5
3 6 7 8
3 9 10 11
3 12 13 14
3 15 16 17
3 18 19 20
3 21 22 23
3 24 25 26
3 27 28 29
3 30 31 32
3 33 34 35
3 36 37 38
3 39 40 41
3 42 43 44
3 45 46 47
3 48 49 50
3 51 52 53
3 54 55 56
3 57 58 59
3 60 61 62
3 63 64 65
3 66 67 68
3 69 70 71
3 72 73 74
3 75 76 77
3 78 79 80
3 81 82 83
3 84 85 86
3 87 88 89
3 90 91 92
3 93 94 95
3 96 97 98
3 99 100 101
3 102 103 104
3 105 106 107
3 108 109 110
3 111 112 113
3 114 115 116
3 117 118 119
3 120 121 122
3 123 124 125
3 126 127 128
3 129 130 131
3 132 133 134
3 135 136 137
3 138 139 140
3 141 142 143
3 144 145 146
3 147 148 149
3 150 151 152
3 153 154 155
3 156 157 158
3 159 160 161
3 162 163 164
3 165 166 167
3 168 169 170
3 171 172 173
3 174 175 176
3 177 178 179
3 180 181 182
3 183 184 185
3 186 187 188
3 189 190 191
3 192 193 194
3 195 196 197
3 198 199 200
3 201 202 203
3 204 205 206
3 207 208 209
3 210 211 212
3 213 214 215
3 216 217 218
3 219 220 221
3 222 223 224
3 225 226 227
3 228 229 230
3 231 232 233
3 234 235 236
3 237 238 239
3 240 241 242
3 243 244 245
3 246 247 248
3 249 250 251
3 252 253 254
3 255 256 257
3 258 259 260
3 261 262 263
3 264 265 266
3 267 268 269
3 270 271 272
3 273 274 275
3 276 277 278
3 279 280 281
3 282 283 284
3 285 286 287
3 288 289 290
3 291 292 293
3 294 295 296
3 297 298 299
3 300 301 302
3 303 304 305
3 306 307 308
3 309 310 311
3 312 313 314
3 315 316 317
3 318 319 320
3 321 322 323
3 324 325 326
3 327 328 329
3 330 331 332
3 333 334 335
3 336 337 338
3 339 340 341
3 342 343 344
3 345 346 347
3 348 321 323
3 349 350 351
3 352 353 354
3 355 356 357
3 358 359 360
3 361 362 363
3 364 365 366
3 367 368 369
3 370 371 372
3 373 374 375
3 376 377 378
3 379 380 381
3 380 379 382
3 383 384 385
3 384 383 386
3 387 388 389
3 387 389 390
3 391 392 393
3 392 391 394
3 395 396 397
3 396 395 398
3 399 400 401
3 399 402 400
3 403 404 405
3 403 405 406
3 407 408 409
3 408 407 410
3 411 412 413
3 411 413 414

