ply
format ascii 1.0
commentY29udmVydGVyIGJ5IENvZGVMZW9wYXJk
comment Original mesh name: 'C:\Program Files (x86)\Steam\steamapps\common\Stormworks\rom\meshes\rock_library\rock_big_02.mesh'
comment SubMesh index: 0
comment SubMesh name: ''
comment Shader: Opaque (0)
element vertex 138
property float x
property float y
property float z
property float nx
property float ny
property float nz
property uchar red
property uchar green
property uchar blue
property uchar alpha
element face 48
property list uchar ushort vertex_index
end_header
0.71342325 -1.4590676 -3.413673 -0.8672717 0.31010196 0.38945672 255 255 255 255
1.3403332 -1.4762919 -2.0039072 -0.8672717 0.31010193 0.38945678 255 255 255 255
0.8009798 -0.94649625 -3.6268268 -0.8672717 0.31010193 0.38945678 255 255 255 255
0.8009798 -0.94649625 -3.6268268 -0.77629083 0.47593117 0.41335467 255 255 255 255
1.3403332 -1.4762919 -2.0039072 -0.77629083 0.47593117 0.41335467 255 255 255 255
2.0058944 0.21805263 -2.7048109 -0.7762909 0.47593114 0.41335464 255 255 255 255
1.3403332 -1.4762919 -2.0039072 -0.9270958 0.3740621 0.02389883 255 255 255 255
1.5779636 -1.0806406 1.0216837 -0.9270957 0.3740621 0.02389883 255 255 255 255
2.0058944 0.21805263 -2.7048109 -0.9270958 0.37406203 0.02389883 255 255 255 255
2.0058944 0.21805263 -2.7048109 -0.9421688 0.33502936 0.008565033 255 255 255 255
1.5779636 -1.0806406 1.0216837 -0.9421688 0.33502936 0.008565033 255 255 255 255
1.9463438 -0.06947327 1.9913688 -0.9421688 0.33502936 0.008565034 255 255 255 255
1.3403332 -1.4762919 -2.0039072 -0.6232025 0.78025675 -0.05308645 255 255 255 255
0.39735046 -2.1278946 -0.5110266 -0.62320244 0.78025675 -0.053086445 255 255 255 255
1.5779636 -1.0806406 1.0216837 -0.6232024 0.78025675 -0.053086445 255 255 255 255
1.9463438 -0.06947327 1.9913688 -0.7516412 -0.010233725 -0.65949285 255 255 255 255
0.50230914 0.53165764 3.6278443 -0.7516412 -0.010233747 -0.6594928 255 255 255 255
1.6247069 0.7310821 2.3455238 -0.7516412 -0.010233757 -0.65949285 255 255 255 255
1.9463438 -0.06947327 1.9913688 -0.37921277 0.7086886 -0.5949438 255 255 255 255
1.5779636 -1.0806406 1.0216837 -0.37921277 0.7086886 -0.5949438 255 255 255 255
0.50230914 0.53165764 3.6278443 -0.3792128 0.70868856 -0.5949438 255 255 255 255
-0.06261113 -1.1796396 2.6382508 -0.36508688 0.87537754 -0.3169004 255 255 255 255
1.5779636 -1.0806406 1.0216837 -0.36508682 0.87537754 -0.31690037 255 255 255 255
0.39735046 -2.1278946 -0.5110266 -0.36508682 0.87537754 -0.3169004 255 255 255 255
0.50230914 0.53165764 3.6278443 -0.60778344 0.5382584 -0.58384687 255 255 255 255
1.5779636 -1.0806406 1.0216837 -0.60778344 0.5382584 -0.58384687 255 255 255 255
-0.06261113 -1.1796396 2.6382508 -0.6077834 0.53825843 -0.58384687 255 255 255 255
1.6247069 0.7310821 2.3455238 -0.6373899 -0.44725272 -0.62745446 255 255 255 255
0.50230914 0.53165764 3.6278443 -0.6373899 -0.44725272 -0.62745446 255 255 255 255
0.8744057 1.4808117 2.5732942 -0.6373899 -0.44725272 -0.6274545 255 255 255 255
-0.06261113 -1.1796396 2.6382508 -0.05756882 0.9535949 -0.29553768 255 255 255 255
0.39735046 -2.1278946 -0.5110266 -0.057568774 0.9535949 -0.29553768 255 255 255 255
-0.21991429 -1.944907 0.1996479 -0.057568774 0.9535949 -0.29553768 255 255 255 255
0.8744057 1.4808117 2.5732942 0.04240073 -0.7499983 -0.6600794 255 255 255 255
0.50230914 0.53165764 3.6278443 0.042400725 -0.7499982 -0.6600794 255 255 255 255
-0.7134167 1.5772885 2.361681 0.042400707 -0.7499983 -0.66007936 255 255 255 255
-0.7134167 1.5772885 2.361681 0.47471768 -0.3983919 -0.7848101 255 255 255 255
0.50230914 0.53165764 3.6278443 0.47471768 -0.3983919 -0.7848101 255 255 255 255
-1.7087555 0.16414773 2.4769683 0.47471777 -0.39839193 -0.7848101 255 255 255 255
0.50230914 0.53165764 3.6278443 0.38133293 0.3652081 -0.8492399 255 255 255 255
-0.06261113 -1.1796396 2.6382508 0.38133293 0.3652081 -0.84923977 255 255 255 255
-1.7087555 0.16414773 2.4769683 0.38133293 0.36520806 -0.8492398 255 255 255 255
-0.06261113 -1.1796396 2.6382508 0.3820867 0.8744032 -0.29904646 255 255 255 255
-0.21991429 -1.944907 0.1996479 0.3820867 0.8744032 -0.29904646 255 255 255 255
-1.122814 -1.3825512 0.6903398 0.38208675 0.8744032 -0.29904652 255 255 255 255
-0.06261113 -1.1796396 2.6382508 0.60278183 0.690402 -0.39999884 255 255 255 255
-1.122814 -1.3825512 0.6903398 0.60278195 0.690402 -0.39999884 255 255 255 255
-1.7087555 0.16414773 2.4769683 0.60278195 0.690402 -0.39999884 255 255 255 255
-1.7087555 0.16414773 2.4769683 0.7853859 -0.57240546 -0.2356291 255 255 255 255
-1.8573989 0.4411521 1.3086019 0.7853859 -0.57240546 -0.23562913 255 255 255 255
-0.7134167 1.5772885 2.361681 0.7853859 -0.57240546 -0.23562913 255 255 255 255
-1.8573989 0.4411521 1.3086019 0.9804168 0.17890535 -0.08231569 255 255 255 255
-1.7087555 0.16414773 2.4769683 0.9804168 0.1789054 -0.0823157 255 255 255 255
-1.8970793 -0.07441473 -0.28454757 0.9804168 0.17890544 -0.08231569 255 255 255 255
-1.122814 -1.3825512 0.6903398 0.6481804 0.66794384 -0.36566815 255 255 255 255
-1.8538284 -0.86463165 0.34060216 0.6481805 0.66794384 -0.36566815 255 255 255 255
-1.7087555 0.16414773 2.4769683 0.6481805 0.66794384 -0.36566818 255 255 255 255
-1.8538284 -0.86463165 0.34060216 0.99767816 0.0007308281 -0.06810067 255 255 255 255
-1.8970793 -0.07441473 -0.28454757 0.99767816 0.00073087134 -0.06810066 255 255 255 255
-1.7087555 0.16414773 2.4769683 0.99767816 0.00073082803 -0.06810067 255 255 255 255
-1.8970793 -0.07441473 -0.28454757 0.8838085 -0.2893924 0.3676066 255 255 255 255
-0.3669055 0.35186726 -3.6278443 0.88380843 -0.2893924 0.36760664 255 255 255 255
-1.193349 1.4170003 -0.8023801 0.8838085 -0.28939244 0.3676066 255 255 255 255
-1.7087555 0.16414773 2.4769683 -0.7477211 -0.6552375 0.1075964 255 255 255 255
-1.8970793 -0.07441473 -0.28454757 -0.7477211 -0.65523756 0.10759639 255 255 255 255
-1.4282616 -0.74737597 -1.124768 -0.7477211 -0.6552376 0.10759639 255 255 255 255
-1.8970793 -0.07441473 -0.28454757 0.90022933 0.097238876 0.42441922 255 255 255 255
-1.4282616 -0.74737597 -1.124768 0.9002294 0.09723887 0.42441922 255 255 255 255
-0.3669055 0.35186726 -3.6278443 0.90022933 0.09723885 0.4244192 255 255 255 255
-0.3669055 0.35186726 -3.6278443 0.83065 0.28592008 0.47777647 255 255 255 255
-1.4282616 -0.74737597 -1.124768 0.8306499 0.2859201 0.4777765 255 255 255 255
-0.3335744 -1.6225796 -2.5042071 0.8306499 0.2859201 0.4777764 255 255 255 255
-0.3669055 0.35186726 -3.6278443 -0.29700768 -0.68618995 0.6640254 255 255 255 255
2.0058944 0.21805263 -2.7048109 -0.29700768 -0.68618995 0.6640255 255 255 255 255
0.52698994 1.3461988 -2.200498 -0.29700768 -0.68618995 0.6640254 255 255 255 255
-0.3669055 0.35186726 -3.6278443 -0.35893625 -0.32217854 0.87599415 255 255 255 255
0.8009798 -0.94649625 -3.6268268 -0.35893622 -0.32217854 0.8759941 255 255 255 255
2.0058944 0.21805263 -2.7048109 -0.35893622 -0.32217857 0.8759941 255 255 255 255
-0.3669055 0.35186726 -3.6278443 0.4865989 0.4382907 0.75572675 255 255 255 255
-0.3335744 -1.6225796 -2.5042071 0.4865989 0.4382907 0.75572664 255 255 255 255
0.8009798 -0.94649625 -3.6268268 0.4865989 0.4382907 0.75572664 255 255 255 255
0.8009798 -0.94649625 -3.6268268 0.62288475 0.20729727 0.75434905 255 255 255 255
-0.3335744 -1.6225796 -2.5042071 0.6228847 0.20729728 0.7543491 255 255 255 255
0.71342325 -1.4590676 -3.413673 0.6228847 0.20729728 0.7543491 255 255 255 255
-1.8970793 -0.07441473 -0.28454757 0.91620314 0.27826035 0.28834546 255 255 255 255
-1.8538284 -0.86463165 0.34060216 0.916203 0.27826035 0.28834546 255 255 255 255
-1.4282616 -0.74737597 -1.124768 0.916203 0.27826032 0.28834546 255 255 255 255
-1.8538284 -0.86463165 0.34060216 0.8428771 0.45861328 0.28148198 255 255 255 255
-1.0530972 -1.5631747 -0.91900504 0.8428771 0.45861328 0.28148198 255 255 255 255
-1.4282616 -0.74737597 -1.124768 0.8428771 0.45861328 0.28148204 255 255 255 255
-1.4282616 -0.74737597 -1.124768 0.81355655 0.46289727 0.351926 255 255 255 255
-1.0530972 -1.5631747 -0.91900504 0.81355655 0.46289724 0.35192597 255 255 255 255
-0.3335744 -1.6225796 -2.5042071 0.8135567 0.46289718 0.35192603 255 255 255 255
0.71342325 -1.4590676 -3.413673 -0.10424726 0.99283016 0.05848811 255 255 255 255
-0.3335744 -1.6225796 -2.5042071 -0.10424725 0.99283016 0.05848811 255 255 255 255
1.3403332 -1.4762919 -2.0039072 -0.10424728 0.99283016 0.058488116 255 255 255 255
1.3403332 -1.4762919 -2.0039072 -0.17189832 0.9380501 0.30085373 255 255 255 255
-0.3335744 -1.6225796 -2.5042071 -0.17189829 0.9380501 0.3008537 255 255 255 255
0.39735046 -2.1278946 -0.5110266 -0.17189829 0.9380501 0.3008537 255 255 255 255
-0.3335744 -1.6225796 -2.5042071 0.29973483 0.9487146 0.10049709 255 255 255 255
-1.0530972 -1.5631747 -0.91900504 0.29973483 0.9487146 0.1004971 255 255 255 255
-0.21991429 -1.944907 0.1996479 0.29973483 0.9487146 0.1004971 255 255 255 255
-0.3335744 -1.6225796 -2.5042071 0.38058034 0.91999114 0.093674265 255 255 255 255
-0.21991429 -1.944907 0.1996479 0.38058043 0.91999114 0.09367427 255 255 255 255
0.39735046 -2.1278946 -0.5110266 0.38058037 0.91999114 0.09367427 255 255 255 255
-1.8970793 -0.07441473 -0.28454757 0.91294986 -0.39436284 0.10488287 255 255 255 255
-1.193349 1.4170003 -0.8023801 0.91294986 -0.3943629 0.10488286 255 255 255 255
-1.8573989 0.4411521 1.3086019 0.91294986 -0.3943629 0.104882866 255 255 255 255
0.52698994 1.3461988 -2.200498 -0.5159738 -0.8060282 0.28998214 255 255 255 255
2.0058944 0.21805263 -2.7048109 -0.51597375 -0.8060282 0.2899821 255 255 255 255
0.92109483 1.8123808 -0.20346522 -0.5159738 -0.8060282 0.28998214 255 255 255 255
-1.193349 1.4170003 -0.8023801 0.7377253 -0.6705883 -0.07792864 255 255 255 255
-0.7134167 1.5772885 2.361681 0.7377252 -0.67058825 -0.07792864 255 255 255 255
-1.8573989 0.4411521 1.3086019 0.7377252 -0.67058825 -0.07792864 255 255 255 255
0.92109483 1.8123808 -0.20346522 -0.04438285 -0.9918796 -0.11918531 255 255 255 255
0.8744057 1.4808117 2.5732942 -0.044382848 -0.9918796 -0.11918531 255 255 255 255
-0.7134167 1.5772885 2.361681 -0.044382833 -0.9918796 -0.11918533 255 255 255 255
1.9463438 -0.06947327 1.9913688 -0.8702374 -0.49238345 -0.015665624 255 255 255 255
1.6247069 0.7310821 2.3455238 -0.87023747 -0.4923834 -0.015665626 255 255 255 255
0.92109483 1.8123808 -0.20346522 -0.8702374 -0.4923834 -0.015665624 255 255 255 255
2.0058944 0.21805263 -2.7048109 -0.8702374 -0.4923834 -0.015665624 255 255 255 255
-1.7087555 0.16414773 2.4769683 0.747721 0.65523756 -0.10759641 255 255 255 255
-1.4282616 -0.74737597 -1.124768 0.7477211 0.6552376 -0.10759643 255 255 255 255
-1.8970793 -0.07441473 -0.28454757 0.7477211 0.65523756 -0.10759642 255 255 255 255
0.92109483 1.8123808 -0.20346522 0.15759645 -0.9831478 0.09264852 255 255 255 255
-0.7134167 1.5772885 2.361681 0.1575965 -0.9831478 0.09264854 255 255 255 255
-1.193349 1.4170003 -0.8023801 0.1575965 -0.9831478 0.09264854 255 255 255 255
0.52698994 1.3461988 -2.200498 0.15759645 -0.9831478 0.09264852 255 255 255 255
0.52698994 1.3461988 -2.200498 0.29941285 -0.8605866 0.4119985 255 255 255 255
-1.193349 1.4170003 -0.8023801 0.29941285 -0.8605866 0.4119985 255 255 255 255
-0.3669055 0.35186726 -3.6278443 0.29941276 -0.8605866 0.41199848 255 255 255 255
0.92109483 1.8123808 -0.20346522 -0.71787685 -0.68973595 -0.094431 255 255 255 255
1.6247069 0.7310821 2.3455238 -0.71787685 -0.68973595 -0.09443099 255 255 255 255
0.8744057 1.4808117 2.5732942 -0.71787685 -0.68973595 -0.09443099 255 255 255 255
-0.21991429 -1.944907 0.1996479 0.54594785 0.8348854 -0.07005206 255 255 255 255
-1.0530972 -1.5631747 -0.91900504 0.54594785 0.8348854 -0.07005205 255 255 255 255
-1.8538284 -0.86463165 0.34060216 0.54594785 0.8348854 -0.07005204 255 255 255 255
-1.122814 -1.3825512 0.6903398 0.54594785 0.8348855 -0.07005204 255 255 255 255
3 0 1 2
3 3 4 5
3 6 7 8
3 9 10 11
3 12 13 14
3 15 16 17
3 18 19 20
3 21 22 23
3 24 25 26
3 27 28 29
3 30 31 32
3 33 34 35
3 36 37 38
3 39 40 41
3 42 43 44
3 45 46 47
3 48 49 50
3 51 52 53
3 54 55 56
3 57 58 59
3 60 61 62
3 63 64 65
3 66 67 68
3 69 70 71
3 72 73 74
3 75 76 77
3 78 79 80
3 81 82 83
3 84 85 86
3 87 88 89
3 90 91 92
3 93 94 95
3 96 97 98
3 99 100 101
3 102 103 104
3 105 106 107
3 108 109 110
3 111 112 113
3 114 115 116
3 117 118 119
3 117 119 120
3 121 122 123
3 124 125 126
3 124 126 127
3 128 129 130
3 131 132 133
3 134 135 136
3 134 136 137

