ply
format ascii 1.0
commentY29udmVydGVyIGJ5IENvZGVMZW9wYXJk
comment Original mesh name: 'C:\Program Files (x86)\Steam\steamapps\common\Stormworks\rom\meshes\rock_library\rock_small_03.mesh'
comment SubMesh index: 0
comment SubMesh name: ''
comment Shader: Opaque (0)
element vertex 128
property float x
property float y
property float z
property float nx
property float ny
property float nz
property uchar red
property uchar green
property uchar blue
property uchar alpha
element face 48
property list uchar ushort vertex_index
end_header
-0.17469886 -0.6377559 -1.0634351 0.0004795448 0.932456 0.36128324 255 255 255 255
-0.9129822 -1.1659596 -0.46974355 0.00047954483 0.932456 0.36128327 255 255 255 255
1.0594829 -1.171677 0.31295338 0.0004795491 0.932456 0.36128324 255 255 255 255
0.6533139 -1.103645 -0.632654 0.00047954477 0.93245596 0.36128324 255 255 255 255
1.0594829 -1.171677 0.31295338 0.20081666 0.8424673 -0.49992153 255 255 255 255
-0.9129822 -1.1659596 -0.46974355 0.20081668 0.84246725 -0.49992165 255 255 255 255
0.17436787 -0.5854997 0.94523126 0.20081666 0.8424672 -0.49992162 255 255 255 255
0.17436787 -0.5854997 0.94523126 0.36874652 0.725568 -0.5810138 255 255 255 255
-0.9129822 -1.1659596 -0.46974355 0.36874652 0.72556806 -0.5810138 255 255 255 255
-1.5203722 -0.2980865 0.22856715 0.36874652 0.725568 -0.5810138 255 255 255 255
-0.9129822 -1.1659596 -0.46974355 0.46401528 0.7293059 -0.5027948 255 255 255 255
-1.57612 -0.78519124 -0.5294287 0.46401525 0.7293059 -0.5027948 255 255 255 255
-1.5203722 -0.2980865 0.22856715 0.46401528 0.7293059 -0.5027948 255 255 255 255
-1.2905146 -0.13233043 0.78448665 0.3109927 0.8678906 -0.38736215 255 255 255 255
0.17436787 -0.5854997 0.94523126 0.31099275 0.8678906 -0.38736218 255 255 255 255
-1.5203722 -0.2980865 0.22856715 0.31099275 0.8678906 -0.38736218 255 255 255 255
-0.9339965 0.44086033 1.056905 0.103276215 0.21714143 -0.9706614 255 255 255 255
0.49911615 0.57832557 1.1338763 0.10327622 0.21714143 -0.97066146 255 255 255 255
0.17436787 -0.5854997 0.94523126 0.103276215 0.21714145 -0.97066146 255 255 255 255
-1.2905146 -0.13233043 0.78448665 0.10327622 0.21714145 -0.97066146 255 255 255 255
0.8931154 -0.44596264 0.7172943 -0.33560985 0.24124427 -0.91058624 255 255 255 255
0.17436787 -0.5854997 0.94523126 -0.33560982 0.24124426 -0.91058624 255 255 255 255
0.49911615 0.57832557 1.1338763 -0.33560985 0.24124426 -0.9105862 255 255 255 255
-0.9339965 0.44086033 1.056905 0.08108075 -0.3159898 -0.9452917 255 255 255 255
0.10727283 1.155615 0.9072918 0.08108075 -0.31598976 -0.9452917 255 255 255 255
0.49911615 0.57832557 1.1338763 0.081080765 -0.31598976 -0.9452917 255 255 255 255
0.10727283 1.155615 0.9072918 -0.016741533 -0.9884612 0.15054634 255 255 255 255
-0.79485095 1.1023749 0.45740616 -0.016741531 -0.9884612 0.15054633 255 255 255 255
0.88608587 1.0730482 0.4517805 -0.016741531 -0.9884612 0.15054633 255 255 255 255
-0.79485095 1.1023749 0.45740616 0.037669376 -0.9992826 -0.0039068004 255 255 255 255
-0.038094193 1.043695 -0.9511771 0.03766938 -0.9992826 -0.0039067995 255 255 255 255
0.96158814 1.171677 -0.3330807 0.037669376 -0.9992826 -0.003906801 255 255 255 255
0.88608587 1.0730482 0.4517805 0.03766938 -0.9992826 -0.0039067995 255 255 255 255
-0.9339965 0.44086033 1.056905 0.36388695 -0.66634804 -0.6508199 255 255 255 255
-0.79485095 1.1023749 0.45740616 0.36388692 -0.6663481 -0.6508199 255 255 255 255
0.10727283 1.155615 0.9072918 0.36388695 -0.66634804 -0.6508199 255 255 255 255
-1.3267198 1.0253104 -0.46348068 0.7589542 -0.5176331 -0.39502457 255 255 255 255
-0.79485095 1.1023749 0.45740616 0.7589542 -0.5176331 -0.39502457 255 255 255 255
-0.9339965 0.44086033 1.056905 0.7589542 -0.51763314 -0.39502457 255 255 255 255
0.96158814 1.171677 -0.3330807 -0.27072337 -0.7570633 0.59461254 255 255 255 255
-0.038094193 1.043695 -0.9511771 -0.27072337 -0.7570633 0.5946124 255 255 255 255
0.88593185 0.7775967 -0.86927116 -0.27072334 -0.7570633 0.5946124 255 255 255 255
1.4614182 0.49727398 -0.33101848 -0.7045694 -0.52071345 0.48211983 255 255 255 255
0.96158814 1.171677 -0.3330807 -0.70456934 -0.5207135 0.4821198 255 255 255 255
0.88593185 0.7775967 -0.86927116 -0.70456934 -0.52071345 0.4821198 255 255 255 255
-1.3267198 1.0253104 -0.46348068 0.037599493 -0.9973832 0.061750066 255 255 255 255
-0.038094193 1.043695 -0.9511771 0.037599485 -0.9973832 0.061750058 255 255 255 255
-0.79485095 1.1023749 0.45740616 0.037599497 -0.99738324 0.061750066 255 255 255 255
-1.4910201 0.15767178 -0.93985337 0.31239215 -0.50196195 0.806502 255 255 255 255
-0.038094193 1.043695 -0.9511771 0.31239218 -0.50196195 0.806502 255 255 255 255
-1.3267198 1.0253104 -0.46348068 0.31239206 -0.50196195 0.806502 255 255 255 255
-1.4246625 -0.29181287 -0.9157347 0.9468709 0.15491033 0.2818478 255 255 255 255
-1.4910201 0.15767178 -0.93985337 0.946871 0.15491031 0.28184783 255 255 255 255
-1.6425244 -0.14786279 -0.26294446 0.946871 0.15491031 0.2818478 255 255 255 255
0.88593185 0.7775967 -0.86927116 -0.14590031 -0.20900188 0.9669702 255 255 255 255
-0.038094193 1.043695 -0.9511771 -0.14590031 -0.20900188 0.9669702 255 255 255 255
0.91771936 -0.123699665 -1.0592823 -0.1459003 -0.2090019 0.96697015 255 255 255 255
0.91771936 -0.123699665 -1.0592823 0.042753845 -0.05736147 0.9974376 255 255 255 255
-0.038094193 1.043695 -0.9511771 0.042753883 -0.05736148 0.9974376 255 255 255 255
-1.4910201 0.15767178 -0.93985337 0.042753857 -0.05736147 0.9974376 255 255 255 255
-1.57612 -0.78519124 -0.5294287 0.94545805 -0.036820617 0.32365617 255 255 255 255
-1.4246625 -0.29181287 -0.9157347 0.94545805 -0.036820613 0.32365617 255 255 255 255
-1.6425244 -0.14786279 -0.26294446 0.945458 -0.03682062 0.32365617 255 255 255 255
0.91771936 -0.123699665 -1.0592823 -0.73216033 0.08454472 0.67586505 255 255 255 255
1.282833 -1.0269942 -0.3338061 -0.73216033 0.08454471 0.67586505 255 255 255 255
1.7089251 -0.20739028 -0.19170493 -0.7321602 0.0845447 0.675865 255 255 255 255
1.4614182 0.49727398 -0.33101848 -0.73216033 0.08454472 0.67586505 255 255 255 255
0.6533139 -1.103645 -0.632654 -0.4264594 0.4553195 0.7815474 255 255 255 255
1.282833 -1.0269942 -0.3338061 -0.42645943 0.4553195 0.7815475 255 255 255 255
0.91771936 -0.123699665 -1.0592823 -0.42645943 0.45531952 0.7815474 255 255 255 255
0.91771936 -0.123699665 -1.0592823 0.03877606 -0.09044219 0.9951466 255 255 255 255
-1.4910201 0.15767178 -0.93985337 0.038776055 -0.090442196 0.9951466 255 255 255 255
-0.17469886 -0.6377559 -1.0634351 0.038776025 -0.09044218 0.9951466 255 255 255 255
0.6533139 -1.103645 -0.632654 -0.2090691 0.4372251 0.87471384 255 255 255 255
0.91771936 -0.123699665 -1.0592823 -0.2090691 0.4372251 0.87471384 255 255 255 255
-0.17469886 -0.6377559 -1.0634351 -0.20906912 0.43722507 0.87471384 255 255 255 255
-1.4910201 0.15767178 -0.93985337 0.11255533 0.03196493 0.9931312 255 255 255 255
-0.9059653 -0.7874822 -0.97573894 0.11255531 0.03196493 0.9931312 255 255 255 255
-0.17469886 -0.6377559 -1.0634351 0.11255531 0.031964928 0.9931312 255 255 255 255
-1.4910201 0.15767178 -0.93985337 0.1901897 0.08057895 0.9784349 255 255 255 255
-1.4246625 -0.29181287 -0.9157347 0.19018967 0.08057896 0.9784349 255 255 255 255
-0.9059653 -0.7874822 -0.97573894 0.1901897 0.08057895 0.9784349 255 255 255 255
1.7089251 -0.20739028 -0.19170493 -0.8574633 0.47855324 -0.18905942 255 255 255 255
1.282833 -1.0269942 -0.3338061 -0.85746336 0.47855324 -0.18905942 255 255 255 255
1.0594829 -1.171677 0.31295338 -0.8574633 0.47855324 -0.18905942 255 255 255 255
1.0594829 -1.171677 0.31295338 -0.18998367 0.9700443 0.15139446 255 255 255 255
1.282833 -1.0269942 -0.3338061 -0.18998365 0.9700443 0.15139446 255 255 255 255
0.6533139 -1.103645 -0.632654 -0.18998362 0.9700443 0.15139446 255 255 255 255
-0.9059653 -0.7874822 -0.97573894 -0.09196044 0.7979917 0.5956111 255 255 255 255
-0.9129822 -1.1659596 -0.46974355 -0.09196044 0.7979917 0.5956111 255 255 255 255
-0.17469886 -0.6377559 -1.0634351 -0.09196043 0.7979917 0.59561104 255 255 255 255
-0.9129822 -1.1659596 -0.46974355 0.4449605 0.5997661 0.66504943 255 255 255 255
-0.9059653 -0.7874822 -0.97573894 0.4449605 0.5997661 0.66504943 255 255 255 255
-1.4246625 -0.29181287 -0.9157347 0.4449605 0.5997661 0.66504943 255 255 255 255
-1.57612 -0.78519124 -0.5294287 0.4449605 0.5997661 0.66504943 255 255 255 255
-1.3267198 1.0253104 -0.46348068 0.9645258 -0.24135998 0.10693583 255 255 255 255
-1.6425244 -0.14786279 -0.26294446 0.9645258 -0.24136001 0.10693583 255 255 255 255
-1.4910201 0.15767178 -0.93985337 0.9645258 -0.24135998 0.10693583 255 255 255 255
-1.57612 -0.78519124 -0.5294287 0.96630234 0.17830662 -0.1856517 255 255 255 255
-1.6425244 -0.14786279 -0.26294446 0.96630234 0.17830662 -0.18565169 255 255 255 255
-1.5203722 -0.2980865 0.22856715 0.96630234 0.17830664 -0.1856517 255 255 255 255
-1.2905146 -0.13233043 0.78448665 0.8879945 -0.32244647 -0.32786298 255 255 255 255
-1.5203722 -0.2980865 0.22856715 0.88799447 -0.32244644 -0.32786298 255 255 255 255
-1.6425244 -0.14786279 -0.26294446 0.8879945 -0.32244647 -0.32786298 255 255 255 255
-1.3267198 1.0253104 -0.46348068 0.88799447 -0.3224464 -0.32786298 255 255 255 255
-0.9339965 0.44086033 1.056905 0.88799447 -0.32244644 -0.32786295 255 255 255 255
1.4614182 0.49727398 -0.33101848 -0.71580464 -0.16813022 0.67775804 255 255 255 255
0.88593185 0.7775967 -0.86927116 -0.7158047 -0.1681302 0.6777579 255 255 255 255
0.91771936 -0.123699665 -1.0592823 -0.7158047 -0.16813022 0.677758 255 255 255 255
1.4614182 0.49727398 -0.33101848 -0.7761132 -0.19784413 -0.59875375 255 255 255 255
1.7089251 -0.20739028 -0.19170493 -0.77611315 -0.19784413 -0.59875375 255 255 255 255
0.8931154 -0.44596264 0.7172943 -0.77611315 -0.19784415 -0.59875375 255 255 255 255
0.88608587 1.0730482 0.4517805 -0.77611315 -0.19784413 -0.59875375 255 255 255 255
0.96158814 1.171677 -0.3330807 -0.7940439 -0.588961 -0.15039675 255 255 255 255
1.4614182 0.49727398 -0.33101848 -0.7940439 -0.588961 -0.15039675 255 255 255 255
0.88608587 1.0730482 0.4517805 -0.7940439 -0.58896106 -0.15039676 255 255 255 255
1.7089251 -0.20739028 -0.19170493 -0.755102 0.17839251 -0.6308701 255 255 255 255
1.0594829 -1.171677 0.31295338 -0.75510204 0.1783925 -0.6308701 255 255 255 255
0.8931154 -0.44596264 0.7172943 -0.75510204 0.17839251 -0.6308701 255 255 255 255
0.8931154 -0.44596264 0.7172943 -0.83297616 -0.099008836 -0.5443785 255 255 255 255
0.49911615 0.57832557 1.1338763 -0.83297616 -0.09900883 -0.5443785 255 255 255 255
0.88608587 1.0730482 0.4517805 -0.83297616 -0.099008836 -0.54437864 255 255 255 255
0.10727283 1.155615 0.9072918 -0.45727423 -0.576249 -0.6773753 255 255 255 255
0.88608587 1.0730482 0.4517805 -0.45727435 -0.57624894 -0.6773754 255 255 255 255
0.49911615 0.57832557 1.1338763 -0.45727423 -0.576249 -0.6773753 255 255 255 255
0.8931154 -0.44596264 0.7172943 -0.346496 0.3946973 -0.85097265 255 255 255 255
1.0594829 -1.171677 0.31295338 -0.346496 0.3946973 -0.85097265 255 255 255 255
0.17436787 -0.5854997 0.94523126 -0.346496 0.3946973 -0.85097265 255 255 255 255
3 0 1 2
3 0 2 3
3 4 5 6
3 7 8 9
3 10 11 12
3 13 14 15
3 16 17 18
3 16 18 19
3 20 21 22
3 23 24 25
3 26 27 28
3 29 30 31
3 29 31 32
3 33 34 35
3 36 37 38
3 39 40 41
3 42 43 44
3 45 46 47
3 48 49 50
3 51 52 53
3 54 55 56
3 57 58 59
3 60 61 62
3 63 64 65
3 63 65 66
3 67 68 69
3 70 71 72
3 73 74 75
3 76 77 78
3 79 80 81
3 82 83 84
3 85 86 87
3 88 89 90
3 91 92 93
3 91 93 94
3 95 96 97
3 98 99 100
3 105 101 102
3 105 102 103
3 103 104 105
3 106 107 108
3 109 110 111
3 109 111 112
3 113 114 115
3 116 117 118
3 119 120 121
3 122 123 124
3 125 126 127

