ply
format ascii 1.0
commentY29udmVydGVyIGJ5IENvZGVMZW9wYXJk
comment Original mesh name: 'C:\Program Files (x86)\Steam\steamapps\common\Stormworks\rom\meshes\rock_library\rock_medium_02.mesh'
comment SubMesh index: 0
comment SubMesh name: ''
comment Shader: Opaque (0)
element vertex 138
property float x
property float y
property float z
property float nx
property float ny
property float nz
property uchar red
property uchar green
property uchar blue
property uchar alpha
element face 48
property list uchar ushort vertex_index
end_header
-1.5456867 -1.0334097 -1.625401 0.18304457 0.80963206 0.5576654 255 255 255 255
-1.3205638 -1.6471136 -0.80830413 0.18304457 0.80963206 0.5576654 255 255 255 255
-1.0093037 -0.9992683 -1.8510271 0.18304455 0.80963206 0.55766535 255 255 255 255
-1.0093037 -0.9992683 -1.8510271 0.28770548 0.7726322 0.56591964 255 255 255 255
-1.3205638 -1.6471136 -0.80830413 0.28770545 0.7726322 0.56591964 255 255 255 255
0.4869197 -1.9000643 -1.381857 0.28770545 0.7726322 0.5659197 255 255 255 255
-1.3205638 -1.6471136 -0.80830413 0.14540465 0.9891278 0.021995466 255 255 255 255
-0.60808957 -1.7861365 0.7335849 0.14540464 0.9891278 0.021995462 255 255 255 255
0.4869197 -1.9000643 -1.381857 0.14540464 0.9891278 0.021995462 255 255 255 255
0.4869197 -1.9000643 -1.381857 0.10471451 0.9945021 0.0006438823 255 255 255 255
-0.60808957 -1.7861365 0.7335849 0.104714535 0.9945021 0.0006438824 255 255 255 255
0.5565298 -1.9090666 1.201652 0.104714505 0.9945021 0.0006438823 255 255 255 255
-1.3205638 -1.6471136 -0.80830413 0.56845045 0.8003572 -0.19050555 255 255 255 255
-2.0896032 -0.8816762 0.112732396 0.56845045 0.8003572 -0.19050553 255 255 255 255
-0.60808957 -1.7861365 0.7335849 0.5684505 0.8003573 -0.19050556 255 255 255 255
0.5565298 -1.9090666 1.201652 -0.21815476 0.54277253 -0.8110528 255 255 255 255
0.9205378 -0.36478013 2.1372087 -0.21815477 0.54277253 -0.8110528 255 255 255 255
1.3073113 -1.4099438 1.3337314 -0.21815473 0.54277253 -0.81105274 255 255 255 255
0.5565298 -1.9090666 1.201652 0.37679094 0.4133753 -0.8289448 255 255 255 255
-0.60808957 -1.7861365 0.7335849 0.37679097 0.4133753 -0.8289448 255 255 255 255
0.9205378 -0.36478013 2.1372087 0.3767909 0.41337526 -0.82894486 255 255 255 255
-0.9923043 -0.21365237 1.7220675 0.5820033 0.529933 -0.61680067 255 255 255 255
-0.60808957 -1.7861365 0.7335849 0.5820034 0.5299329 -0.6168007 255 255 255 255
-2.0896032 -0.8816762 0.112732396 0.5820034 0.529933 -0.6168007 255 255 255 255
0.9205378 -0.36478013 2.1372087 0.21793413 0.5570169 -0.8013969 255 255 255 255
-0.60808957 -1.7861365 0.7335849 0.21793412 0.5570169 -0.8013969 255 255 255 255
-0.9923043 -0.21365237 1.7220675 0.21793412 0.55701685 -0.8013969 255 255 255 255
1.3073113 -1.4099438 1.3337314 -0.4844971 0.41338578 -0.77095693 255 255 255 255
0.9205378 -0.36478013 2.1372087 -0.4844971 0.41338578 -0.77095693 255 255 255 255
1.8794531 -0.50575703 1.4590002 -0.4844972 0.41338587 -0.770957 255 255 255 255
-0.9923043 -0.21365237 1.7220675 0.75287145 0.23986857 -0.61290103 255 255 255 255
-2.0896032 -0.8816762 0.112732396 0.75287145 0.2398686 -0.61290103 255 255 255 255
-1.9936228 -0.23877376 0.48224223 0.7528715 0.23986857 -0.61290103 255 255 255 255
1.8794531 -0.50575703 1.4590002 -0.5834907 -0.24696176 -0.77365917 255 255 255 255
0.9205378 -0.36478013 2.1372087 -0.58349067 -0.24696173 -0.7736592 255 255 255 255
1.6545131 1.0609175 1.1285472 -0.5834907 -0.24696173 -0.7736592 255 255 255 255
1.6545131 1.0609175 1.1285472 -0.36504266 -0.4051066 -0.8382318 255 255 255 255
0.9205378 -0.36478013 2.1372087 -0.3650427 -0.4051067 -0.83823174 255 255 255 255
-0.059979975 1.700036 1.566316 -0.3650427 -0.4051066 -0.8382318 255 255 255 255
0.9205378 -0.36478013 2.1372087 0.19571874 -0.1739006 -0.965118 255 255 255 255
-0.9923043 -0.21365237 1.7220675 0.1957187 -0.1739006 -0.965118 255 255 255 255
-0.059979975 1.700036 1.566316 0.1957187 -0.1739006 -0.965118 255 255 255 255
-0.9923043 -0.21365237 1.7220675 0.77172095 -0.13967323 -0.6204339 255 255 255 255
-1.9936228 -0.23877376 0.48224223 0.77172095 -0.1396732 -0.62043387 255 255 255 255
-1.6119115 0.7702127 0.7298853 0.77172095 -0.13967323 -0.6204339 255 255 255 255
-0.9923043 -0.21365237 1.7220675 0.5982419 -0.35011882 -0.72077966 255 255 255 255
-1.6119115 0.7702127 0.7298853 0.598242 -0.35011885 -0.72077966 255 255 255 255
-0.059979975 1.700036 1.566316 0.598242 -0.35011885 -0.72077966 255 255 255 255
-0.059979975 1.700036 1.566316 -0.39846873 -0.8699731 -0.29046416 255 255 255 255
0.18441868 1.9090666 0.60497206 -0.3984687 -0.8699731 -0.29046416 255 255 255 255
1.6545131 1.0609175 1.1285472 -0.39846873 -0.8699731 -0.2904642 255 255 255 255
0.18441868 1.9090666 0.60497206 0.29695964 -0.94597286 -0.13019346 255 255 255 255
-0.059979975 1.700036 1.566316 0.29695964 -0.94597286 -0.13019346 255 255 255 255
-0.45346224 1.8276668 -0.25853363 0.29695964 -0.9459729 -0.13019347 255 255 255 255
-1.6119115 0.7702127 0.7298853 0.62561095 -0.52551246 -0.5765828 255 255 255 255
-1.2508981 1.6016917 0.36376482 0.62561095 -0.5255125 -0.5765827 255 255 255 255
-0.059979975 1.700036 1.566316 0.62561095 -0.52551246 -0.5765827 255 255 255 255
-1.2508981 1.6016917 0.36376482 0.19103804 -0.9754652 -0.10941697 255 255 255 255
-0.45346224 1.8276668 -0.25853363 0.19103803 -0.9754652 -0.10941696 255 255 255 255
-0.059979975 1.700036 1.566316 0.19103804 -0.9754652 -0.10941696 255 255 255 255
-0.45346224 1.8276668 -0.25853363 0.03860791 -0.7983198 0.60099506 255 255 255 255
0.07110977 0.43872228 -2.1372087 0.038607907 -0.7983198 0.60099506 255 255 255 255
1.2053504 1.4903661 -0.81314224 0.03860791 -0.7983198 0.60099506 255 255 255 255
-0.059979975 1.700036 1.566316 -0.7288196 0.65395564 0.20288935 255 255 255 255
-0.45346224 1.8276668 -0.25853363 -0.7288196 0.6539556 0.20288934 255 255 255 255
-1.0998157 1.2151006 -0.6059351 -0.7288196 0.6539556 0.20288934 255 255 255 255
-0.45346224 1.8276668 -0.25853363 0.33913988 -0.70869875 0.618652 255 255 255 255
-1.0998157 1.2151006 -0.6059351 0.33913988 -0.70869875 0.618652 255 255 255 255
0.07110977 0.43872228 -2.1372087 0.33913985 -0.70869875 0.61865205 255 255 255 255
0.07110977 0.43872228 -2.1372087 0.48596334 -0.5714045 0.66131425 255 255 255 255
-1.0998157 1.2151006 -0.6059351 0.48596334 -0.5714045 0.6613142 255 255 255 255
-1.876087 -0.05321765 -1.1313789 0.48596334 -0.5714045 0.66131425 255 255 255 255
0.07110977 0.43872228 -2.1372087 -0.34825245 0.23146033 0.9083756 255 255 255 255
0.4869197 -1.9000643 -1.381857 -0.3482524 0.23146029 0.9083756 255 255 255 255
1.3929012 -0.19921046 -1.4679117 -0.34825245 0.2314603 0.90837574 255 255 255 255
0.07110977 0.43872228 -2.1372087 -0.1267766 0.28437433 0.9502941 255 255 255 255
-1.0093037 -0.9992683 -1.8510271 -0.12677662 0.2843744 0.9502941 255 255 255 255
0.4869197 -1.9000643 -1.381857 -0.12677662 0.2843744 0.95029414 255 255 255 255
0.07110977 0.43872228 -2.1372087 0.48890528 -0.19826742 0.84950674 255 255 255 255
-1.876087 -0.05321765 -1.1313789 0.48890528 -0.19826742 0.84950674 255 255 255 255
-1.0093037 -0.9992683 -1.8510271 0.48890522 -0.19826739 0.84950674 255 255 255 255
-1.0093037 -0.9992683 -1.8510271 0.38545007 -0.30839157 0.8696683 255 255 255 255
-1.876087 -0.05321765 -1.1313789 0.38545 -0.30839154 0.86966825 255 255 255 255
-1.5456867 -1.0334097 -1.625401 0.38545 -0.30839154 0.86966825 255 255 255 255
-0.45346224 1.8276668 -0.25853363 0.5172168 -0.7642374 0.3852634 255 255 255 255
-1.2508981 1.6016917 0.36376482 0.51721686 -0.76423746 0.3852634 255 255 255 255
-1.0998157 1.2151006 -0.6059351 0.5172168 -0.7642374 0.3852634 255 255 255 255
-1.2508981 1.6016917 0.36376482 0.6536831 -0.66241443 0.3659309 255 255 255 255
-1.8724005 0.66037273 -0.23000172 0.65368325 -0.6624144 0.3659309 255 255 255 255
-1.0998157 1.2151006 -0.6059351 0.6536832 -0.6624144 0.3659309 255 255 255 255
-1.0998157 1.2151006 -0.6059351 0.65427995 -0.59423655 0.46776134 255 255 255 255
-1.8724005 0.66037273 -0.23000172 0.65427995 -0.59423655 0.46776134 255 255 255 255
-1.876087 -0.05321765 -1.1313789 0.65428 -0.59423655 0.4677613 255 255 255 255
-1.5456867 -1.0334097 -1.625401 0.94514006 0.32630605 -0.0153193455 255 255 255 255
-1.876087 -0.05321765 -1.1313789 0.94514 0.326306 -0.015319343 255 255 255 255
-1.3205638 -1.6471136 -0.80830413 0.94514 0.326306 -0.015319343 255 255 255 255
-1.3205638 -1.6471136 -0.80830413 0.84090745 0.3726313 0.39245453 255 255 255 255
-1.876087 -0.05321765 -1.1313789 0.84090745 0.3726313 0.39245453 255 255 255 255
-2.0896032 -0.8816762 0.112732396 0.84090745 0.3726313 0.39245453 255 255 255 255
-1.876087 -0.05321765 -1.1313789 0.994457 -0.08437918 0.062733166 255 255 255 255
-1.8724005 0.66037273 -0.23000172 0.994457 -0.084379196 0.06273317 255 255 255 255
-1.9936228 -0.23877376 0.48224223 0.994457 -0.08437919 0.06273318 255 255 255 255
-1.876087 -0.05321765 -1.1313789 0.98300445 -0.17625885 0.051333375 255 255 255 255
-1.9936228 -0.23877376 0.48224223 0.98300445 -0.17625883 0.051333364 255 255 255 255
-2.0896032 -0.8816762 0.112732396 0.98300445 -0.17625883 0.051333368 255 255 255 255
-0.45346224 1.8276668 -0.25853363 -0.13399625 -0.9724687 0.19065595 255 255 255 255
1.2053504 1.4903661 -0.81314224 -0.13399623 -0.9724687 0.19065592 255 255 255 255
0.18441868 1.9090666 0.60497206 -0.13399623 -0.9724687 0.19065592 255 255 255 255
1.3929012 -0.19921046 -1.4679117 -0.7214957 0.41245335 0.556171 255 255 255 255
0.4869197 -1.9000643 -1.381857 -0.7214957 0.41245335 0.556171 255 255 255 255
2.089603 -0.4739961 -0.36033195 -0.7214957 0.4124534 0.556171 255 255 255 255
1.2053504 1.4903661 -0.81314224 -0.4754405 -0.8757561 -0.083711684 255 255 255 255
1.6545131 1.0609175 1.1285472 -0.47544047 -0.8757561 -0.08371167 255 255 255 255
0.18441868 1.9090666 0.60497206 -0.4754404 -0.8757561 -0.08371167 255 255 255 255
2.089603 -0.4739961 -0.36033195 -0.9794303 -0.16509539 -0.116015606 255 255 255 255
1.8794531 -0.50575703 1.4590002 -0.97943044 -0.1650954 -0.1160156 255 255 255 255
1.6545131 1.0609175 1.1285472 -0.9794303 -0.16509539 -0.11601558 255 255 255 255
0.5565298 -1.9090666 1.201652 -0.6493076 0.75820947 0.05931405 255 255 255 255
1.3073113 -1.4099438 1.3337314 -0.6493076 0.7582094 0.05931405 255 255 255 255
2.089603 -0.4739961 -0.36033195 -0.6493076 0.75820947 0.05931405 255 255 255 255
0.4869197 -1.9000643 -1.381857 -0.6493076 0.7582094 0.059314046 255 255 255 255
-0.059979975 1.700036 1.566316 0.7288196 -0.65395564 -0.20288935 255 255 255 255
-1.0998157 1.2151006 -0.6059351 0.7288196 -0.6539556 -0.20288934 255 255 255 255
-0.45346224 1.8276668 -0.25853363 0.7288196 -0.6539556 -0.20288934 255 255 255 255
2.089603 -0.4739961 -0.36033195 -0.90172106 -0.34623018 0.2588893 255 255 255 255
1.6545131 1.0609175 1.1285472 -0.90172106 -0.3462302 0.2588893 255 255 255 255
1.2053504 1.4903661 -0.81314224 -0.9017211 -0.34623024 0.25888932 255 255 255 255
1.3929012 -0.19921046 -1.4679117 -0.9017211 -0.3462302 0.25888932 255 255 255 255
1.3929012 -0.19921046 -1.4679117 -0.5527844 -0.35375986 0.75450873 255 255 255 255
1.2053504 1.4903661 -0.81314224 -0.5527844 -0.35375988 0.75450873 255 255 255 255
0.07110977 0.43872228 -2.1372087 -0.5527844 -0.35375986 0.75450873 255 255 255 255
2.089603 -0.4739961 -0.36033195 -0.83631897 0.5412715 -0.087153435 255 255 255 255
1.3073113 -1.4099438 1.3337314 -0.83631897 0.54127157 -0.08715344 255 255 255 255
1.8794531 -0.50575703 1.4590002 -0.83631897 0.5412715 -0.08715343 255 255 255 255
-1.9936228 -0.23877376 0.48224223 0.9036367 -0.37766883 -0.20200738 255 255 255 255
-1.8724005 0.66037273 -0.23000172 0.9036367 -0.37766883 -0.20200738 255 255 255 255
-1.2508981 1.6016917 0.36376482 0.9036367 -0.37766883 -0.20200738 255 255 255 255
-1.6119115 0.7702127 0.7298853 0.9036367 -0.37766886 -0.20200738 255 255 255 255
3 0 1 2
3 3 4 5
3 6 7 8
3 9 10 11
3 12 13 14
3 15 16 17
3 18 19 20
3 21 22 23
3 24 25 26
3 27 28 29
3 30 31 32
3 33 34 35
3 36 37 38
3 39 40 41
3 42 43 44
3 45 46 47
3 48 49 50
3 51 52 53
3 54 55 56
3 57 58 59
3 60 61 62
3 63 64 65
3 66 67 68
3 69 70 71
3 72 73 74
3 75 76 77
3 78 79 80
3 81 82 83
3 84 85 86
3 87 88 89
3 90 91 92
3 93 94 95
3 96 97 98
3 99 100 101
3 102 103 104
3 105 106 107
3 108 109 110
3 111 112 113
3 114 115 116
3 117 118 119
3 117 119 120
3 121 122 123
3 124 125 126
3 124 126 127
3 128 129 130
3 131 132 133
3 134 135 136
3 134 136 137

