ply
format ascii 1.0
commentY29udmVydGVyIGJ5IENvZGVMZW9wYXJk
comment Original mesh name: 'C:\Program Files (x86)\Steam\steamapps\common\Stormworks\rom\meshes\undersea_assets\sea_weed01.mesh'
comment SubMesh index: 0
comment SubMesh name: ''
comment Shader: Opaque (0)
element vertex 325
property float x
property float y
property float z
property float nx
property float ny
property float nz
property uchar red
property uchar green
property uchar blue
property uchar alpha
element face 152
property list uchar ushort vertex_index
end_header
0.06842899 0.06390762 6.3855534 -3.4461405E-05 -1 -0 15 39 4 255
0.06284332 0.06390762 6.8914433 -3.446141E-05 -1 -0 15 39 4 255
0.030850887 0.06390762 6.7828064 -3.4461405E-05 -1 -0 15 39 4 255
0.022148132 0.06390762 6.3429785 -3.446141E-05 -1 -0 15 39 4 255
0.07472992 0.06390762 3.9921052 -3.4448503E-06 -1 -0 15 39 4 255
0.07472992 0.06390762 4.660286 -3.4448499E-06 -1 -0 15 39 4 255
0.0036888123 0.06390762 4.62772 -3.4448499E-06 -1 -0 15 39 4 255
-0.00048732758 0.06390762 4.0385695 -3.4448499E-06 -1 -0 15 39 4 255
0.07472992 0.06390762 4.660286 -1.8613404E-05 -1 -0 15 39 4 255
0.07472992 0.06390762 5.284399 -1.8613404E-05 -1 -0 15 39 4 255
0.0080423355 0.06390762 5.2419167 -1.8613404E-05 -1 -0 15 39 4 255
0.0036888123 0.06390762 4.62772 -1.8613406E-05 -1 -0 15 39 4 255
0.07472992 0.06390762 5.284399 1.6918828E-05 -1 -0 15 39 4 255
0.07117319 0.06390762 5.9378176 1.6918828E-05 -1 -0 15 39 4 255
0.01569891 0.06390762 5.820264 1.6918828E-05 -1 -0 15 39 4 255
0.0080423355 0.06390762 5.2419167 1.691883E-05 -1 -0 15 39 4 255
0.07117319 0.06390762 5.9378176 2.5823945E-05 -1 -0 15 39 4 255
0.06842899 0.06390762 6.3855534 2.5823945E-05 -1 -0 15 39 4 255
0.022148132 0.06390762 6.3429785 2.5823945E-05 -1 -0 15 39 4 255
0.01569891 0.06390762 5.820264 2.5823943E-05 -1 -0 15 39 4 255
0.07472992 0.06390762 3.4575317 1.8024182E-05 -1 -0 15 39 4 255
0.07472992 0.06390762 3.9921052 1.8024179E-05 -1 -0 15 39 4 255
-0.00048732758 0.06390762 4.0385695 1.8024179E-05 -1 -0 15 39 4 255
-0.0047478676 0.06390762 3.437515 1.8024179E-05 -1 -0 15 39 4 255
0.07472992 0.06390762 3.0325973 -3.490177E-05 -1 -0 15 39 4 255
0.07472992 0.06390762 3.4575317 -3.4901765E-05 -1 -0 15 39 4 255
-0.0047478676 0.06390762 3.437515 -3.4901765E-05 -1 -0 15 39 4 255
-0.008092403 0.06390762 2.9657059 -3.490177E-05 -1 -0 15 39 4 255
0.07472992 0.06390762 2.5687532 3.0738876E-05 -1 -0 15 39 4 255
0.07472992 0.06390762 3.0325973 3.0738876E-05 -1 -0 15 39 4 255
-0.008092403 0.06390762 2.9657059 3.0738876E-05 -1 -0 15 39 4 255
-0.0117383 0.06390762 2.4513867 3.0738876E-05 -1 -0 15 39 4 255
0.07472992 0.06390762 1.9692801 6.563349E-06 -1 -0 15 39 4 255
0.07472992 0.06390762 2.5687532 6.563349E-06 -1 -0 15 39 4 255
-0.0117383 0.06390762 2.4513867 6.563348E-06 -1 -0 15 39 4 255
-0.015264511 0.06390762 1.9539279 6.563349E-06 -1 -0 15 39 4 255
0.07472992 0.06390762 1.5407809 -7.5985495E-06 -1 -0 15 39 4 255
0.07472992 0.06390762 1.9692801 -7.5985495E-06 -1 -0 15 39 4 255
-0.015264511 0.06390762 1.9539279 -7.5985495E-06 -1 -0 15 39 4 255
-0.018684387 0.06390762 1.4714462 -7.5985495E-06 -1 -0 15 39 4 255
0.07472992 0.06390762 1.0112916 -5.4433873E-05 -1 -0 15 39 4 255
0.07472992 0.06390762 1.5407809 -5.4433873E-05 -1 -0 15 39 4 255
-0.018684387 0.06390762 1.4714462 -5.4433873E-05 -1 -0 15 39 4 255
-0.022313118 0.06390762 0.9595246 -5.4433873E-05 -1 -0 15 39 4 255
0.07472992 0.06390762 0.4612489 -7.67901E-05 -1 -0 15 39 4 255
0.07472992 0.06390762 1.0112916 -7.67901E-05 -1 -0 15 39 4 255
-0.022313118 0.06390762 0.9595246 -7.67901E-05 -1 -0 15 39 4 255
-0.025857449 0.06390762 0.45949006 -7.67901E-05 -1 -0 15 39 4 255
0.07472992 0.06390762 -0.01976043 6.112269E-05 -1 -0 15 39 4 255
0.07472992 0.06390762 0.4612489 6.112269E-05 -1 -0 15 39 4 255
-0.025857449 0.06390762 0.45949006 6.112269E-05 -1 -0 15 39 4 255
-0.029251575 0.06390762 -0.019271672 6.112269E-05 -1 -0 15 39 4 255
0.022148132 0.06390762 6.3429785 0.98018324 0.19787459 -0.009299151 15 39 4 255
0.030850887 0.06390762 6.7828064 0.98699117 0.15829 -0.028152592 15 39 4 255
0.046847343 -0.04817581 6.837125 0.98748904 0.15344283 -0.036338773 15 39 4 255
0.045288563 -0.04817581 6.3642654 0.98135823 0.19194457 -0.009658736 15 39 4 255
0.030850887 0.06390762 6.7828064 0.98699117 0.15829 -0.028152592 15 39 4 255
0.06284332 0.06390762 6.8914433 0.95925975 -0 -0.2825258 15 39 4 255
0.046847343 -0.04817581 6.837125 0.98748904 0.15344283 -0.036338773 15 39 4 255
0.06284332 0.06390762 6.8914433 -0.9848581 0.1733148 -0.004052089 15 39 4 255
0.06842899 0.06390762 6.3855534 -0.9809416 0.19428402 -0.0027023982 15 39 4 255
0.045288563 -0.04817581 6.3642654 -0.97980785 0.19992773 -0.0023379484 15 39 4 255
0.046847343 -0.04817581 6.837125 -0.98485816 0.17331481 -0.0040520886 15 39 4 255
-0.00048732758 0.06390762 4.0385695 0.94833165 0.3172412 -0.00500999 15 39 4 255
0.0036888123 0.06390762 4.62772 0.9531899 0.30233154 -0.0049689733 15 39 4 255
0.039209366 -0.04817581 4.644003 0.95367736 0.30079 -0.004984244 15 39 4 255
0.037121296 -0.04817581 4.0153375 0.947667 0.31922054 -0.0050440836 15 39 4 255
0.07472992 0.06390762 4.660286 -0.9535381 0.3012681 0.001606695 15 39 4 255
0.07472992 0.06390762 3.9921052 -0.9478881 0.31859913 0.00168523 15 39 4 255
0.037121296 -0.04817581 4.0153375 -0.9485478 0.3166297 0.001648979 15 39 4 255
0.039209366 -0.04817581 4.644003 -0.9530712 0.30274227 0.0015940928 15 39 4 255
0.0080423355 0.06390762 5.2419167 0.9603132 0.27885348 -0.0062649646 15 39 4 255
0.041386127 -0.04817581 5.263158 0.9613971 0.2750858 -0.0065869694 15 39 4 255
0.07472992 0.06390762 5.284399 -0.9609933 0.2765714 9.5595205E-05 15 39 4 255
0.041386127 -0.04817581 5.263158 -0.95999384 0.2800209 0.0004183359 15 39 4 255
0.01569891 0.06390762 5.820264 0.96887183 0.2474366 -0.007907347 15 39 4 255
0.04343605 -0.04817581 5.8790407 0.97196615 0.23498589 -0.007964005 15 39 4 255
0.07117319 0.06390762 5.9378176 -0.97091144 0.23943655 -0.0010222964 15 39 4 255
0.04343605 -0.04817581 5.8790407 -0.96782666 0.25161523 -0.0010850508 15 39 4 255
0.04343605 -0.04817581 5.8790407 -0.96782666 0.25161523 -0.0010850508 15 39 4 255
-0.0047478676 0.06390762 3.437515 0.9430637 0.33257234 -0.0051493365 15 39 4 255
0.034991264 -0.04817581 3.4475234 0.9433114 0.33186883 -0.005151545 15 39 4 255
0.07472992 0.06390762 3.4575317 -0.9432661 0.33203283 0.0018163119 15 39 4 255
0.034991264 -0.04817581 3.4475234 -0.943007 0.33276772 0.0018150173 15 39 4 255
-0.008092403 0.06390762 2.9657059 0.9379377 0.3467662 -0.0051130047 15 39 4 255
0.03331852 -0.04817581 2.9991517 0.93870384 0.34468675 -0.005117159 15 39 4 255
0.07472992 0.06390762 3.0325973 -0.9384008 0.34554398 0.001796447 15 39 4 255
0.03331852 -0.04817581 2.9991517 -0.93759656 0.34772047 0.0017941908 15 39 4 255
-0.0117383 0.06390762 2.4513867 0.9327998 0.36036232 -0.0048440266 15 39 4 255
0.031496048 -0.04817581 2.5100698 0.93431824 0.35640547 -0.004958946 15 39 4 255
0.07472992 0.06390762 2.5687532 -0.93374884 0.3579249 0.0016449183 15 39 4 255
0.031496048 -0.04817581 2.5100698 -0.9322799 0.36173466 0.0015414577 15 39 4 255
-0.015264511 0.06390762 1.9539279 0.9284701 0.37137505 -0.0048839366 15 39 4 255
0.029733181 -0.04817581 1.961604 0.9286824 0.37084416 -0.0048691668 15 39 4 255
0.07472992 0.06390762 1.9692801 -0.9286001 0.37107867 0.0015797624 15 39 4 255
0.029733181 -0.04817581 1.961604 -0.9283995 0.37158012 0.0015943033 15 39 4 255
-0.018684387 0.06390762 1.4714462 0.9228096 0.3852248 -0.0049348813 15 39 4 255
0.028022766 -0.04817581 1.5061135 0.923702 0.38307953 -0.004972125 15 39 4 255
0.07472992 0.06390762 1.5407809 -0.9233517 0.38395137 0.0016999046 15 39 4 255
0.028022766 -0.04817581 1.5061135 -0.9224494 0.38611445 0.0016646574 15 39 4 255
-0.022313118 0.06390762 0.9595246 0.91769403 0.39725882 -0.0047937445 15 39 4 255
0.0262084 -0.04817581 0.9854081 0.91844785 0.39551282 -0.004808023 15 39 4 255
0.07472992 0.06390762 1.0112916 -0.9181644 0.39619657 0.0015547045 15 39 4 255
0.0262084 -0.04817581 0.9854081 -0.9174378 0.39787614 0.0015437623 15 39 4 255
-0.025857449 0.06390762 0.45949006 0.9125844 0.40886018 -0.0047881356 15 39 4 255
0.024435997 -0.04817581 0.46036947 0.91261697 0.40878758 -0.004787645 15 39 4 255
0.07472992 0.06390762 0.4612489 -0.9126062 0.40883678 0.0015545598 15 39 4 255
0.024435997 -0.04817581 0.46036947 -0.9125796 0.40889612 0.0015550444 15 39 4 255
0.07472992 0.06390762 -0.01976043 0.0047003827 4.247782E-07 0.999989 15 39 4 255
-0.029251575 0.06390762 -0.019271672 0.0047003827 4.247782E-07 0.999989 15 39 4 255
0.02273941 -0.04817581 -0.019516036 0.0047003827 4.247782E-07 0.999989 15 39 4 255
-0.029251575 0.06390762 -0.019271672 0.9097543 0.41511893 -0.0048304675 15 39 4 255
0.02273941 -0.04817581 -0.019516036 0.9097543 0.41511893 -0.0048304666 15 39 4 255
0.07472992 0.06390762 -0.01976043 -0.9097697 0.4151102 0.001605874 15 39 4 255
0.02273941 -0.04817581 -0.019516036 -0.9097697 0.41511023 0.0016058743 15 39 4 255
0.07472992 0.06390762 4.660286 -0.66589814 0.73644876 0.119259536 15 39 4 255
0.5628443 0.51434326 4.6041517 -0.66589814 0.73644876 0.11925953 15 39 4 255
0.28676176 0.27509308 4.54006 -0.66589814 0.7364488 0.11925954 15 39 4 255
0.07472992 0.06390762 4.660286 -0.68039006 0.73123145 -0.048682608 15 39 4 255
0.369102 0.346447 4.790019 -0.68039 0.7312315 -0.048682608 15 39 4 255
0.5628443 0.51434326 4.6041517 -0.68039 0.7312315 -0.04868261 15 39 4 255
0.07472992 0.06390762 5.284399 -0.6763167 0.7325467 0.07727301 15 39 4 255
0.58112 0.5301819 5.2961693 -0.6763167 0.7325467 0.077273004 15 39 4 255
0.22799969 0.22417068 5.106554 -0.6763167 0.7325467 0.077273004 15 39 4 255
0.07472992 0.06390762 5.284399 -0.6709656 0.73171115 -0.120016366 15 39 4 255
0.29452944 0.2818222 5.384205 -0.6709657 0.73171115 -0.12001636 15 39 4 255
0.58112 0.5301819 5.2961693 -0.6709656 0.73171115 -0.120016366 15 39 4 255
0.07117319 0.06390762 5.9378176 -0.68246645 0.7151318 0.15108268 15 39 4 255
0.5069213 0.46587753 6.003477 -0.6824665 0.71513176 0.1510827 15 39 4 255
0.22113228 0.21821594 5.8848 -0.6824665 0.7151319 0.1510827 15 39 4 255
0.07117319 0.06390762 5.9378176 -0.6662032 0.73880464 -0.10169074 15 39 4 255
0.24609184 0.23984909 6.0701046 -0.66620314 0.73880464 -0.10169074 15 39 4 255
0.5069213 0.46587753 6.003477 -0.66620314 0.73880464 -0.10169074 15 39 4 255
0.06842899 0.06390762 6.3855534 -0.6823653 0.7199937 0.12643832 15 39 4 255
0.42130136 0.39168167 6.4234066 -0.6823653 0.71999377 0.1264383 15 39 4 255
0.16353083 0.16830063 6.304323 -0.68236524 0.71999377 0.12643832 15 39 4 255
0.06842899 0.06390762 6.3855534 -0.6731639 0.73455685 -0.085302465 15 39 4 255
0.1730032 0.17650986 6.529955 -0.67316395 0.7345569 -0.08530245 15 39 4 255
0.42130136 0.39168167 6.4234066 -0.6731639 0.73455685 -0.085302465 15 39 4 255
0.07472992 0.06390762 3.9921052 -0.6350746 0.758228 0.14754833 15 39 4 255
0.5493665 0.50266266 3.780338 -0.6350746 0.75822806 0.14754833 15 39 4 255
0.13761759 0.1458435 3.8417292 -0.6350746 0.75822806 0.14754833 15 39 4 255
0.07472992 0.06390762 3.9921052 -0.6992851 0.7076532 -0.101129785 15 39 4 255
0.22460651 0.22122955 4.056598 -0.6992851 0.7076532 -0.101129785 15 39 4 255
0.5493665 0.50266266 3.780338 -0.6992851 0.7076532 -0.101129785 15 39 4 255
0.07472992 0.06390762 3.4575317 -0.6681995 0.7386119 0.08922976 15 39 4 255
0.52877903 0.48482132 3.3734682 -0.6681995 0.7386119 0.089229755 15 39 4 255
0.28520918 0.2737465 3.296729 -0.6681995 0.73861194 0.089229755 15 39 4 255
0.07472992 0.06390762 3.4575317 -0.6862286 0.72091436 -0.09681329 15 39 4 255
0.23881531 0.2335434 3.5576415 -0.68622863 0.72091436 -0.0968133 15 39 4 255
0.52877903 0.48482132 3.3734682 -0.6862286 0.72091436 -0.096813284 15 39 4 255
0.07472992 0.06390762 1.5407809 -0.6215928 0.75624824 0.20423254 15 39 4 255
0.52781963 0.48398972 1.3642284 -0.6215928 0.75624824 0.20423254 15 39 4 255
0.15666485 0.1623497 1.4256195 -0.6215928 0.75624824 0.20423254 15 39 4 255
0.07472992 0.06390762 1.5407809 -0.6993122 0.70525163 -0.11654468 15 39 4 255
0.2842493 0.2729149 1.5484017 -0.69931215 0.70525163 -0.11654467 15 39 4 255
0.52781963 0.48398972 1.3642284 -0.6993122 0.70525163 -0.11654467 15 39 4 255
0.07472992 0.06390762 1.9692801 -0.64457697 0.7437978 0.17687684 15 39 4 255
0.5370722 0.4920082 1.8538833 -0.64457697 0.7437978 0.17687687 15 39 4 255
0.20651245 0.20555115 1.8538833 -0.64457697 0.7437978 0.17687684 15 39 4 255
0.07472992 0.06390762 1.9692801 -0.68796384 0.72124994 -0.0806492 15 39 4 255
0.31089973 0.29600906 2.0303829 -0.68796384 0.72124994 -0.0806492 15 39 4 255
0.5370722 0.4920082 1.8538833 -0.68796384 0.72124994 -0.0806492 15 39 4 255
0.07472992 0.06390762 2.5687532 -0.644597 0.7479402 0.15836741 15 39 4 255
0.5020447 0.46165085 2.429579 -0.644597 0.74794006 0.15836741 15 39 4 255
0.15988636 0.16514206 2.437253 -0.644597 0.7479402 0.15836741 15 39 4 255
0.07472992 0.06390762 2.5687532 -0.69530576 0.7115357 -0.10132531 15 39 4 255
0.2352767 0.23047638 2.636774 -0.6953058 0.7115356 -0.101325326 15 39 4 255
0.5020447 0.46165085 2.429579 -0.6953059 0.71153563 -0.10132532 15 39 4 255
0.07472992 0.06390762 3.0325973 -0.65643764 0.7443072 0.122867435 15 39 4 255
0.53991365 0.4944687 2.9095814 -0.65643764 0.74430716 0.12286743 15 39 4 255
0.20935392 0.20800781 2.8788857 -0.6564377 0.74430716 0.122867435 15 39 4 255
0.07472992 0.06390762 3.0325973 -0.6898945 0.7171093 -0.09899413 15 39 4 255
0.28474522 0.27334213 3.0860808 -0.6898945 0.7171093 -0.09899413 15 39 4 255
0.53991365 0.4944687 2.9095814 -0.68989444 0.7171094 -0.09899413 15 39 4 255
0.07472992 0.06390762 1.0112916 -0.6416669 0.740439 0.20003423 15 39 4 255
0.44483757 0.41207886 0.9097234 -0.6416669 0.740439 0.20003425 15 39 4 255
0.1594739 0.16478348 0.9097234 -0.6416669 0.740439 0.20003425 15 39 4 255
0.07472992 0.06390762 1.0112916 -0.69546515 0.7127966 -0.09082549 15 39 4 255
0.2545948 0.24721527 1.0726129 -0.6954651 0.7127966 -0.09082549 15 39 4 255
0.44483757 0.41207886 0.9097234 -0.6954651 0.7127966 -0.090825506 15 39 4 255
0.07472992 0.06390762 0.4612489 -0.6502717 0.74112564 0.16697165 15 39 4 255
0.46916103 0.43315506 0.35841846 -0.6502717 0.74112564 0.16697165 15 39 4 255
0.16141558 0.16646957 0.3436103 -0.6502718 0.7411256 0.16697165 15 39 4 255
0.07472992 0.06390762 0.4612489 -0.6957206 0.70540404 -0.13556546 15 39 4 255
0.1837964 0.1858635 0.536116 -0.6957206 0.70540404 -0.13556547 15 39 4 255
0.46916103 0.43315506 0.35841846 -0.6957206 0.70540404 -0.13556544 15 39 4 255
-0.0047488213 0.06390762 3.437515 0.5678945 0.8136062 -0.124663055 15 39 4 255
-0.56089115 0.45001984 3.4239604 0.56789446 0.8136062 -0.12466304 15 39 4 255
-0.11555004 0.1632042 3.580817 0.5678945 0.8136062 -0.124663055 15 39 4 255
-0.0047488213 0.06390762 3.437515 0.5661478 0.81881064 0.09500373 15 39 4 255
-0.21232462 0.22553253 3.281535 0.56614786 0.81881064 0.09500373 15 39 4 255
-0.56089115 0.45001984 3.4239604 0.5661478 0.81881064 0.09500373 15 39 4 255
-0.00048732758 0.06390762 4.0385695 0.5823956 0.810053 -0.06804056 15 39 4 255
-0.45039082 0.37885284 3.9371152 0.5823955 0.81005305 -0.06804055 15 39 4 255
-0.19232512 0.2126503 4.167332 0.58239555 0.810053 -0.06804055 15 39 4 255
-0.00048732758 0.06390762 4.0385695 0.5568804 0.8253943 0.092782 15 39 4 255
-0.14071178 0.17940903 3.8527024 0.5568804 0.8253943 0.092782 15 39 4 255
-0.45039082 0.37885284 3.9371152 0.5568804 0.82539433 0.092782006 15 39 4 255
0.0036888123 0.06390762 4.62772 0.5731048 0.81687206 -0.065352015 15 39 4 255
-0.4829073 0.39979553 4.5590076 0.5731048 0.81687206 -0.065352015 15 39 4 255
-0.20548677 0.22112656 4.7585297 0.5731048 0.81687206 -0.06535201 15 39 4 255
0.0036888123 0.06390762 4.62772 0.5347052 0.81799626 0.21206693 15 39 4 255
-0.070001125 0.13386917 4.54366 0.5347052 0.81799626 0.21206696 15 39 4 255
-0.4829073 0.39979553 4.5590076 0.5347052 0.81799626 0.21206693 15 39 4 255
0.0080423355 0.06390762 5.2419167 0.5497466 0.8120181 -0.1959726 15 39 4 255
-0.43892288 0.3714676 5.262452 0.54974663 0.8120181 -0.1959726 15 39 4 255
-0.04712677 0.11913681 5.3160057 0.54974663 0.81201816 -0.19597259 15 39 4 255
0.0080423355 0.06390762 5.2419167 0.5665454 0.8154081 0.11889473 15 39 4 255
-0.08583689 0.14406586 5.1395063 0.5665454 0.8154081 0.11889472 15 39 4 255
-0.43892288 0.3714676 5.262452 0.5665454 0.8154081 0.11889472 15 39 4 255
0.015697956 0.06390762 5.820264 0.55635536 0.81668186 -0.15329511 15 39 4 255
-0.49140644 0.4052658 5.7984095 0.5563554 0.81668186 -0.15329513 15 39 4 255
-0.1043067 0.15596008 5.875148 0.5563554 0.81668186 -0.15329511 15 39 4 255
0.015697956 0.06390762 5.820264 0.5562945 0.829546 0.048887983 15 39 4 255
-0.11720991 0.16427231 5.6295834 0.5562945 0.8295459 0.048887976 15 39 4 255
-0.49140644 0.4052658 5.7984095 0.55629444 0.8295459 0.04888798 15 39 4 255
0.022147179 0.06390762 6.3429785 0.55429786 0.8311708 -0.04369224 15 39 4 255
-0.58112 0.46304703 6.282754 0.55429786 0.83117074 -0.04369223 15 39 4 255
-0.2456336 0.24698257 6.4285574 0.55429786 0.8311708 -0.043692235 15 39 4 255
0.022147179 0.06390762 6.3429785 0.5474561 0.8352365 0.05169113 15 39 4 255
-0.20692253 0.22205353 6.213689 0.5474561 0.8352364 0.05169113 15 39 4 255
-0.58112 0.46304703 6.282754 0.547456 0.8352364 0.05169113 15 39 4 255
-0.008093357 0.06390762 2.9657059 0.54233253 0.8131942 -0.21116503 15 39 4 255
-0.4371004 0.37029266 3.0437977 0.54233253 0.81319416 -0.21116504 15 39 4 255
-0.088710785 0.1459198 3.0744934 0.5423326 0.81319416 -0.21116504 15 39 4 255
-0.008093357 0.06390762 2.9657059 0.59075886 0.79950076 0.10863936 15 39 4 255
-0.14032555 0.17915726 2.8366024 0.59075886 0.79950076 0.10863936 15 39 4 255
-0.4371004 0.37029266 3.0437977 0.5907588 0.7995008 0.10863937 15 39 4 255
-0.011739254 0.06390762 2.4513867 0.5893575 0.7940672 -0.14871101 15 39 4 255
-0.57387733 0.45838165 2.329972 0.58935755 0.7940672 -0.14871103 15 39 4 255
-0.1932292 0.21323395 2.529493 0.5893575 0.79406726 -0.14871104 15 39 4 255
-0.011739254 0.06390762 2.4513867 0.5427156 0.8238013 0.16374119 15 39 4 255
-0.16097069 0.19245529 2.2992764 0.5427156 0.8238013 0.16374119 15 39 4 255
-0.57387733 0.45838165 2.329972 0.54271567 0.8238013 0.16374117 15 39 4 255
-0.015265465 0.06390762 1.9539279 0.5473765 0.81291187 -0.19887994 15 39 4 255
-0.48555183 0.4014969 2.0394392 0.5473765 0.81291187 -0.19887991 15 39 4 255
-0.10645485 0.15734482 2.084868 0.5473765 0.81291187 -0.19887991 15 39 4 255
-0.015265465 0.06390762 1.9539279 0.5950918 0.77811664 0.2009981 15 39 4 255
-0.14283943 0.1807785 1.8792087 0.5950918 0.77811664 0.2009981 15 39 4 255
-0.48555183 0.4014969 2.0394392 0.5950918 0.7781167 0.2009981 15 39 4 255
-0.018684387 0.06390762 1.4714462 0.5562905 0.7691974 -0.3144458 15 39 4 255
-0.41265535 0.3545494 1.4854544 0.55629057 0.76919746 -0.31444582 15 39 4 255
-0.13523531 0.17588043 1.5391717 0.5562905 0.7691974 -0.3144458 15 39 4 255
-0.018684387 0.06390762 1.4714462 0.5921156 0.7968268 0.12027615 15 39 4 255
-0.22555733 0.23405075 1.3626722 0.5921156 0.7968267 0.12027616 15 39 4 255
-0.41265535 0.3545494 1.4854544 0.5921156 0.79682666 0.120276146 15 39 4 255
-0.022313118 0.06390762 0.9595246 0.58788484 0.7814158 -0.20923826 15 39 4 255
-0.5468974 0.4410057 0.89396167 0.5878848 0.7814159 -0.20923826 15 39 4 255
-0.23565674 0.24055862 1.0198308 0.58788484 0.7814158 -0.20923826 15 39 4 255
-0.022313118 0.06390762 0.9595246 0.5638171 0.81125534 0.15483864 15 39 4 255
-0.24188328 0.24456406 0.812517 0.5638171 0.8112554 0.15483865 15 39 4 255
-0.5468974 0.4410057 0.89396167 0.5638171 0.81125534 0.15483865 15 39 4 255
-0.025857925 0.06390762 0.45949006 0.58182716 0.7755288 -0.24501505 15 39 4 255
-0.4662757 0.38908386 0.44290963 0.58182716 0.7755288 -0.24501503 15 39 4 255
-0.17993402 0.20466995 0.5391625 0.5818271 0.7755288 -0.24501503 15 39 4 255
-0.025857925 0.06390762 0.45949006 0.58354235 0.7980234 0.1504561 15 39 4 255
-0.24218273 0.24476242 0.33925274 0.5835423 0.7980234 0.1504561 15 39 4 255
-0.4662757 0.38908386 0.44290963 0.5835423 0.7980234 0.1504561 15 39 4 255
0.041740417 -0.067539215 3.437515 -1 -0 -4.241818E-06 15 39 4 255
0.041740417 -0.54681015 3.4239604 -1 -0 -4.2418183E-06 15 39 4 255
0.041740417 -0.27261353 3.5875652 -1 -0 -4.241818E-06 15 39 4 255
0.041740417 -0.067539215 3.437515 -1 -0 -0 15 39 4 255
0.041740417 -0.3772049 3.3038967 -1 -0 -0 15 39 4 255
0.041740417 -0.54681015 3.4239604 -1 -0 -0 15 39 4 255
0.041740417 -0.06327438 4.0385695 -1 -0 3.3549836E-06 15 39 4 255
0.041740417 -0.59734726 3.9295979 -1 -0 3.3549843E-06 15 39 4 255
0.041740417 -0.29886627 4.167332 -1 -0 3.3549836E-06 15 39 4 255
0.041740417 -0.23747635 3.8527024 -1 -0 -0 15 39 4 255
0.041740417 -0.05909729 4.62772 -1 -0 -0 15 39 4 255
0.041740417 -0.45405197 4.5590076 -1 -0 -0 15 39 4 255
0.041740417 -0.3145218 4.7585297 -1 -0 -0 15 39 4 255
0.041740417 -0.21311188 4.50661 -1 -0 -0 15 39 4 255
0.041740417 -0.05474472 5.2419167 -1 -0 3.267547E-06 15 39 4 255
0.041740417 -0.4017372 5.262452 -1 -0 3.267547E-06 15 39 4 255
0.041740417 -0.12615967 5.3160057 -1 -0 3.267547E-06 15 39 4 255
0.041740417 -0.17220688 5.1395063 -1 -0 -0 15 39 4 255
0.041740417 -0.047088623 5.820264 -1 -0 -0 15 39 4 255
0.041740417 -0.46416092 5.7984095 -1 -0 -0 15 39 4 255
0.041740417 -0.27095413 5.8877773 -1 -0 -0 15 39 4 255
0.041740417 -0.047088623 5.820264 -1 -0 -0 15 39 4 255
0.041740417 -0.20951843 5.6295834 -1 -0 -0 15 39 4 255
0.041740417 -0.46416092 5.7984095 -1 -0 -0 15 39 4 255
0.041740417 -0.040641785 6.3429785 -1 -0 3.7773477E-06 15 39 4 255
0.041740417 -0.5601425 6.381979 -1 -0 3.777348E-06 15 39 4 255
0.041740417 -0.35154343 6.5277824 -1 -0 3.777348E-06 15 39 4 255
0.041740417 -0.040641785 6.3429785 -1 -0 -0 15 39 4 255
0.041740417 -0.31623077 6.213689 -1 -0 -0 15 39 4 255
0.041740417 -0.5601425 6.381979 -1 -0 -0 15 39 4 255
0.041740417 -0.07088089 2.9657059 -1 -0 -4.1243234E-06 15 39 4 255
0.041740417 -0.39957047 3.0437977 -1 -0 -4.124324E-06 15 39 4 255
0.041740417 -0.23665237 3.121954 -1 -0 -4.124324E-06 15 39 4 255
0.041740417 -0.07088089 2.9657059 -1 -0 5.3660165E-06 15 39 4 255
0.041740417 -0.3166809 2.8444638 -1 -0 5.366016E-06 15 39 4 255
0.041740417 -0.39957047 3.0437977 -1 -0 5.3660165E-06 15 39 4 255
0.041740417 -0.07452774 2.4513867 -1 -0 -0 15 39 4 255
0.041740417 -0.5622597 2.329972 -1 -0 -0 15 39 4 255
0.041740417 -0.34756088 2.5561054 -1 -0 -0 15 39 4 255
0.041740417 -0.07452774 2.4513867 -1 -0 1.0695417E-05 15 39 4 255
0.041740417 -0.30048752 2.2736578 -1 -0 1.0695414E-05 15 39 4 255
0.041740417 -0.5622597 2.329972 -1 -0 1.0695417E-05 15 39 4 255
0.041740417 -0.07805252 1.9539279 -1 -0 -3.7335722E-06 15 39 4 255
0.041740417 -0.39149857 1.9422286 -1 -0 -3.7335722E-06 15 39 4 255
0.041740417 -0.19672775 2.084868 -1 -0 -3.7335722E-06 15 39 4 255
0.041740417 -0.07805252 1.9539279 -1 -0 1.4719464E-05 15 39 4 255
0.041740417 -0.2400055 1.8792087 -1 -0 1.4719464E-05 15 39 4 255
0.041740417 -0.39149857 1.9422286 -1 -0 1.4719464E-05 15 39 4 255
0.041740417 -0.08147049 1.4714462 -1 -0 -6.3506586E-06 15 39 4 255
0.041740417 -0.4030571 1.49227 -1 -0 -6.3506586E-06 15 39 4 255
0.041740417 -0.19839859 1.556589 -1 -0 -6.3506586E-06 15 39 4 255
0.041740417 -0.08147049 1.4714462 -1 -0 -0 15 39 4 255
0.041740417 -0.3270378 1.3452549 -1 -0 -0 15 39 4 255
0.041740417 -0.4030571 1.49227 -1 -0 -0 15 39 4 255
0.041740417 -0.08510208 0.9595246 -1 -0 -5.341766E-06 15 39 4 255
0.041740417 -0.5807533 0.8878909 -1 -0 -5.3417657E-06 15 39 4 255
0.041740417 -0.29981613 1.0481613 -1 -0 -5.341766E-06 15 39 4 255
0.041740417 -0.08510208 0.9595246 -1 -0 8.944064E-06 15 39 4 255
0.041740417 -0.30924606 0.7841866 -1 -0 8.944063E-06 15 39 4 255
0.041740417 -0.5807533 0.8878909 -1 -0 8.944064E-06 15 39 4 255
0.041740417 -0.088645935 0.45949006 -1 -0 9.4457255E-06 15 39 4 255
0.041740417 -0.46141052 0.5118487 -1 -0 9.4457255E-06 15 39 4 255
0.041740417 -0.3165512 0.5814881 -1 -0 9.4457255E-06 15 39 4 255
0.041740417 -0.088645935 0.45949006 -1 -0 -0 15 39 4 255
0.041740417 -0.35816956 0.33925274 -1 -0 -0 15 39 4 255
0.041740417 -0.46141052 0.5118487 -1 -0 -0 15 39 4 255
3 0 1 2
3 0 2 3
3 4 5 6
3 4 6 7
3 8 9 10
3 8 10 11
3 12 13 14
3 12 14 15
3 16 17 18
3 16 18 19
3 20 21 22
3 20 22 23
3 24 25 26
3 24 26 27
3 28 29 30
3 28 30 31
3 32 33 34
3 32 34 35
3 36 37 38
3 36 38 39
3 40 41 42
3 40 42 43
3 44 45 46
3 44 46 47
3 48 49 50
3 48 50 51
3 52 53 54
3 52 54 55
3 56 57 58
3 59 60 61
3 59 61 62
3 63 64 65
3 63 65 66
3 67 68 69
3 67 69 70
3 64 71 72
3 64 72 65
3 73 67 70
3 73 70 74
3 71 75 76
3 71 76 72
3 77 73 74
3 77 74 78
3 75 52 55
3 75 55 76
3 60 77 79
3 60 79 61
3 80 63 66
3 80 66 81
3 68 82 83
3 68 83 69
3 84 80 81
3 84 81 85
3 82 86 87
3 82 87 83
3 88 84 85
3 88 85 89
3 86 90 91
3 86 91 87
3 92 88 89
3 92 89 93
3 90 94 95
3 90 95 91
3 96 92 93
3 96 93 97
3 94 98 99
3 94 99 95
3 100 96 97
3 100 97 101
3 98 102 103
3 98 103 99
3 104 100 101
3 104 101 105
3 102 106 107
3 102 107 103
3 108 109 110
3 111 104 105
3 111 105 112
3 106 113 114
3 106 114 107
3 115 116 117
3 118 119 120
3 121 122 123
3 124 125 126
3 127 128 129
3 130 131 132
3 133 134 135
3 136 137 138
3 139 140 141
3 142 143 144
3 145 146 147
3 148 149 150
3 151 152 153
3 154 155 156
3 157 158 159
3 160 161 162
3 163 164 165
3 166 167 168
3 169 170 171
3 172 173 174
3 175 176 177
3 178 179 180
3 181 182 183
3 184 185 186
3 187 188 189
3 190 191 192
3 193 194 195
3 196 197 198
3 199 200 201
3 202 203 204
3 205 206 207
3 208 209 210
3 211 212 213
3 214 215 216
3 217 218 219
3 220 221 222
3 223 224 225
3 226 227 228
3 229 230 231
3 232 233 234
3 235 236 237
3 238 239 240
3 241 242 243
3 244 245 246
3 247 248 249
3 250 251 252
3 253 254 255
3 256 257 258
3 259 260 261
3 262 263 264
3 265 266 267
3 265 268 266
3 269 270 271
3 269 272 270
3 273 274 275
3 273 276 274
3 277 278 279
3 280 281 282
3 283 284 285
3 286 287 288
3 289 290 291
3 292 293 294
3 295 296 297
3 298 299 300
3 301 302 303
3 304 305 306
3 307 308 309
3 310 311 312
3 313 314 315
3 316 317 318
3 319 320 321
3 322 323 324

