ply
format ascii 1.0
commentY29udmVydGVyIGJ5IENvZGVMZW9wYXJk
comment Original mesh name: 'C:\Program Files (x86)\Steam\steamapps\common\Stormworks\rom\meshes\arid_mainland_assets\stall_door.mesh'
comment SubMesh index: 0
comment SubMesh name: 'ID16'
comment Shader: Opaque (0)
element vertex 40
property float x
property float y
property float z
property float nx
property float ny
property float nz
property uchar red
property uchar green
property uchar blue
property uchar alpha
element face 28
property list uchar ushort vertex_index
end_header
-0.72 -0.02 0.17999999 0 1 -0 30 30 30 255
-0.67176265 -0.02 1.0131407 0 1 -0 30 30 30 255
-0 -0.02 0.17999999 0 1 -0 30 30 30 255
-0.72 -0.02 2.0189998 0 1 -0 30 30 30 255
-0.67176265 -0.02 1.1511406 0 1 -0 30 30 30 255
-0.60676277 -0.02 1.1511406 0 1 -0 30 30 30 255
-0.60676277 -0.02 1.0131407 0 1 -0 30 30 30 255
-0 -0.02 2.0189998 0 1 -0 30 30 30 255
-0.72 0.02 0.17999999 1 -0 -0 30 30 30 255
-0.72 -0.02 2.0189998 1 -0 -0 30 30 30 255
-0.72 -0.02 0.17999999 1 -0 -0 30 30 30 255
-0.72 0.02 2.0189998 1 -0 -0 30 30 30 255
-0.72 -0.02 2.0189998 0 -0 -1 30 30 30 255
-0 0.02 2.0189998 0 -0 -1 30 30 30 255
-0 -0.02 2.0189998 0 -0 -1 30 30 30 255
-0.72 0.02 2.0189998 0 -0 -1 30 30 30 255
-0 0.02 2.0189998 -1 -0 -0 30 30 30 255
-0 -0.02 0.17999999 -1 -0 -0 30 30 30 255
-0 -0.02 2.0189998 -1 -0 -0 30 30 30 255
-0 0.02 0.17999999 -1 -0 -0 30 30 30 255
-0.72 0.02 0.17999999 0 -0 1 30 30 30 255
-0 -0.02 0.17999999 0 -0 1 30 30 30 255
-0 0.02 0.17999999 0 -0 1 30 30 30 255
-0.72 -0.02 0.17999999 0 -0 1 30 30 30 255
-0 0.02 2.0189998 0 -1 -0 30 30 30 255
-0.72 0.02 0.17999999 0 -1 -0 30 30 30 255
-0 0.02 0.17999999 0 -1 -0 30 30 30 255
-0.60676277 0.02 1.0131407 0 -1 -0 30 30 30 255
-0.60676277 0.02 1.1511406 0 -1 -0 30 30 30 255
-0.67176265 0.02 1.1511406 0 -1 -0 30 30 30 255
-0.67176265 0.02 1.0131407 0 -1 -0 30 30 30 255
-0.72 0.02 2.0189998 0 -1 -0 30 30 30 255
-0.67176265 -0.02 1.1511406 0 1 -0 141 141 141 255
-0.60676277 -0.02 1.0131407 0 1 -0 141 141 141 255
-0.67176265 -0.02 1.0131407 0 1 -0 141 141 141 255
-0.60676277 -0.02 1.1511406 0 1 -0 141 141 141 255
-0.60676277 0.02 1.1511406 0 -1 -0 141 141 141 255
-0.67176265 0.02 1.0131407 0 -1 -0 141 141 141 255
-0.60676277 0.02 1.0131407 0 -1 -0 141 141 141 255
-0.67176265 0.02 1.1511406 0 -1 -0 141 141 141 255
3 0 1 2
3 1 0 3
3 1 3 4
3 4 3 5
3 2 6 7
3 6 2 1
3 7 6 5
3 7 5 3
3 8 9 10
3 9 8 11
3 12 13 14
3 13 12 15
3 16 17 18
3 17 16 19
3 20 21 22
3 21 20 23
3 24 25 26
3 25 24 27
3 27 24 28
3 28 24 29
3 25 30 31
3 30 25 27
3 31 30 29
3 31 29 24
3 32 33 34
3 33 32 35
3 36 37 38
3 37 36 39

